G75*
%MOIN*%
%OFA0B0*%
%FSLAX24Y24*%
%IPPOS*%
%LPD*%
%AMOC8*
5,1,8,0,0,1.08239X$1,22.5*
%
%ADD10C,0.0600*%
%ADD11OC8,0.0600*%
%ADD12OC8,0.0520*%
%ADD13C,0.0520*%
%ADD14C,0.0200*%
%ADD15C,0.0400*%
%ADD16C,0.0100*%
D10*
X000680Y000880D02*
X000680Y001480D01*
X001680Y001480D02*
X001680Y000880D01*
X002680Y000880D02*
X002680Y001480D01*
X003680Y001480D02*
X003680Y000880D01*
X004680Y000880D02*
X004680Y001480D01*
X005680Y001480D02*
X005680Y000880D01*
X006680Y000880D02*
X006680Y001480D01*
X007680Y001480D02*
X007680Y000880D01*
X008680Y000880D02*
X008680Y001480D01*
X009680Y001480D02*
X009680Y000880D01*
X010680Y000880D02*
X010680Y001480D01*
X011680Y001480D02*
X011680Y000880D01*
X012680Y000880D02*
X012680Y001480D01*
X013680Y001480D02*
X013680Y000880D01*
X014680Y000880D02*
X014680Y001480D01*
X015680Y001480D02*
X015680Y000880D01*
X016680Y000880D02*
X016680Y001480D01*
X017680Y001480D02*
X017680Y000880D01*
X018680Y000880D02*
X018680Y001480D01*
X019680Y001480D02*
X019680Y000880D01*
X020680Y000880D02*
X020680Y001480D01*
X021680Y001480D02*
X021680Y000880D01*
X022680Y000880D02*
X022680Y001480D01*
X023680Y001480D02*
X023680Y000880D01*
X024680Y000880D02*
X024680Y001480D01*
X025680Y001480D02*
X025680Y000880D01*
X026680Y000880D02*
X026680Y001480D01*
X027680Y001480D02*
X027680Y000880D01*
X028680Y000880D02*
X028680Y001480D01*
X029680Y001480D02*
X029680Y000880D01*
X030680Y000880D02*
X030680Y001480D01*
X031680Y001480D02*
X031680Y000880D01*
X032680Y000880D02*
X032680Y001480D01*
X033680Y001480D02*
X033680Y000880D01*
X034680Y000880D02*
X034680Y001480D01*
X035680Y001480D02*
X035680Y000880D01*
X036680Y000880D02*
X036680Y001480D01*
X037680Y001480D02*
X037680Y000880D01*
X038680Y000880D02*
X038680Y001480D01*
X039680Y001480D02*
X039680Y000880D01*
X038680Y010880D02*
X038680Y011480D01*
X037680Y011480D02*
X037680Y010880D01*
X036680Y010880D02*
X036680Y011480D01*
X035680Y011480D02*
X035680Y010880D01*
X034680Y010880D02*
X034680Y011480D01*
X033680Y011480D02*
X033680Y010880D01*
X032680Y010880D02*
X032680Y011480D01*
X031680Y011480D02*
X031680Y010880D01*
X030680Y010880D02*
X030680Y011480D01*
X029680Y011480D02*
X029680Y010880D01*
X028680Y010880D02*
X028680Y011480D01*
X027680Y011480D02*
X027680Y010880D01*
X023180Y010880D02*
X023180Y011480D01*
X022180Y011480D02*
X022180Y010880D01*
X021180Y010880D02*
X021180Y011480D01*
X020180Y011480D02*
X020180Y010880D01*
X019180Y010880D02*
X019180Y011480D01*
X018180Y011480D02*
X018180Y010880D01*
X017180Y010880D02*
X017180Y011480D01*
X016180Y011480D02*
X016180Y010880D01*
X015180Y010880D02*
X015180Y011480D01*
X014180Y011480D02*
X014180Y010880D01*
X013180Y010880D02*
X013180Y011480D01*
X012180Y011480D02*
X012180Y010880D01*
D11*
X008680Y008680D03*
X007680Y008680D03*
X006680Y008680D03*
X005680Y008680D03*
X004680Y008680D03*
X003680Y008680D03*
X002680Y008680D03*
X001680Y008680D03*
X001680Y007680D03*
X002680Y007680D03*
X003680Y007680D03*
X004680Y007680D03*
X005680Y007680D03*
X006680Y007680D03*
X007680Y007680D03*
X008680Y007680D03*
X035680Y003680D03*
X036680Y003680D03*
X037680Y003680D03*
X038680Y003680D03*
X039680Y003680D03*
X039680Y002680D03*
X038680Y002680D03*
X037680Y002680D03*
X036680Y002680D03*
X035680Y002680D03*
X036680Y005680D03*
X037680Y005680D03*
X038680Y005680D03*
X039680Y005680D03*
X039680Y006680D03*
X038680Y006680D03*
X037680Y006680D03*
X036680Y006680D03*
D12*
X025680Y011180D03*
X024680Y011180D03*
X001180Y006180D03*
X001180Y005180D03*
D13*
X002180Y005920D02*
X002180Y006440D01*
X003180Y006440D02*
X003180Y005920D01*
X004180Y005920D02*
X004180Y006440D01*
X005180Y006440D02*
X005180Y005920D01*
X006180Y005920D02*
X006180Y006440D01*
X007180Y006440D02*
X007180Y005920D01*
X008180Y005920D02*
X008180Y006440D01*
X009180Y006440D02*
X009180Y005920D01*
X009180Y003440D02*
X009180Y002920D01*
X008180Y002920D02*
X008180Y003440D01*
X007180Y003440D02*
X007180Y002920D01*
X006180Y002920D02*
X006180Y003440D01*
X005180Y003440D02*
X005180Y002920D01*
X004180Y002920D02*
X004180Y003440D01*
X003180Y003440D02*
X003180Y002920D01*
X002180Y002920D02*
X002180Y003440D01*
X012180Y003440D02*
X012180Y002920D01*
X013180Y002920D02*
X013180Y003440D01*
X014180Y003440D02*
X014180Y002920D01*
X015180Y002920D02*
X015180Y003440D01*
X016180Y003440D02*
X016180Y002920D01*
X017180Y002920D02*
X017180Y003440D01*
X018180Y003440D02*
X018180Y002920D01*
X019180Y002920D02*
X019180Y003440D01*
X020180Y003440D02*
X020180Y002920D01*
X021180Y002920D02*
X021180Y003440D01*
X022180Y003440D02*
X022180Y002920D01*
X023180Y002920D02*
X023180Y003440D01*
X024180Y003440D02*
X024180Y002920D01*
X025180Y002920D02*
X025180Y003440D01*
X026180Y003440D02*
X026180Y002920D01*
X027180Y002920D02*
X027180Y003440D01*
X028180Y003440D02*
X028180Y002920D01*
X029180Y002920D02*
X029180Y003440D01*
X030180Y003440D02*
X030180Y002920D01*
X031180Y002920D02*
X031180Y003440D01*
X031180Y008920D02*
X031180Y009440D01*
X030180Y009440D02*
X030180Y008920D01*
X029180Y008920D02*
X029180Y009440D01*
X028180Y009440D02*
X028180Y008920D01*
X027180Y008920D02*
X027180Y009440D01*
X026180Y009440D02*
X026180Y008920D01*
X025180Y008920D02*
X025180Y009440D01*
X024180Y009440D02*
X024180Y008920D01*
X023180Y008920D02*
X023180Y009440D01*
X022180Y009440D02*
X022180Y008920D01*
X021180Y008920D02*
X021180Y009440D01*
X020180Y009440D02*
X020180Y008920D01*
X019180Y008920D02*
X019180Y009440D01*
X018180Y009440D02*
X018180Y008920D01*
X017180Y008920D02*
X017180Y009440D01*
X016180Y009440D02*
X016180Y008920D01*
X015180Y008920D02*
X015180Y009440D01*
X014180Y009440D02*
X014180Y008920D01*
X013180Y008920D02*
X013180Y009440D01*
X012180Y009440D02*
X012180Y008920D01*
D14*
X012180Y011180D02*
X012055Y011180D01*
X013055Y012180D01*
X024680Y012180D01*
X025680Y011180D01*
X026180Y010680D01*
X026180Y009180D01*
X027305Y008055D01*
X017680Y003680D02*
X017430Y003930D01*
X016930Y003930D01*
X016680Y003680D01*
X016680Y001180D01*
X017930Y002430D02*
X017680Y002680D01*
X017680Y003680D01*
X020430Y002430D02*
X020555Y002555D01*
X020680Y002555D01*
X020430Y002430D02*
X017930Y002430D01*
X010180Y002055D02*
X009180Y003055D01*
X009180Y003180D01*
X008430Y002430D01*
X004930Y002430D01*
X004680Y002680D01*
X004680Y003680D01*
X003180Y005180D01*
X001180Y005180D01*
X001180Y006180D02*
X001180Y008930D01*
X003430Y011180D01*
X012055Y011180D01*
X002180Y006180D02*
X001180Y006180D01*
D15*
X013180Y007805D03*
X017055Y008055D03*
X019180Y007805D03*
X019180Y008305D03*
X021430Y007555D03*
X020680Y007180D03*
X019805Y007180D03*
X019805Y006680D03*
X019805Y006180D03*
X020180Y005805D03*
X021805Y005430D03*
X019930Y005055D03*
X020805Y004680D03*
X018555Y004305D03*
X019805Y003930D03*
X016930Y004430D03*
X016555Y004805D03*
X018430Y005055D03*
X016180Y004055D03*
X020680Y002555D03*
X022680Y002305D03*
X017430Y002180D03*
X023305Y004180D03*
X024305Y004680D03*
X025680Y004805D03*
X026555Y005430D03*
X027055Y005430D03*
X026555Y005930D03*
X026555Y006430D03*
X027305Y007055D03*
X028680Y007555D03*
X029555Y007805D03*
X027680Y008430D03*
X027305Y008055D03*
X026805Y007930D03*
X029180Y007055D03*
X028430Y005930D03*
X029430Y005305D03*
X029805Y004930D03*
X028805Y004180D03*
X026805Y004180D03*
X023930Y005430D03*
X024430Y005930D03*
X022930Y006430D03*
X022055Y006805D03*
X021430Y006430D03*
X018180Y007055D03*
X016680Y006305D03*
X016055Y006555D03*
X023055Y007930D03*
X023180Y010180D03*
X022180Y010180D03*
X021305Y010180D03*
X025680Y010555D03*
X026930Y010305D03*
X035555Y010055D03*
X014930Y010305D03*
X028805Y002430D03*
X010180Y002055D03*
D16*
X009680Y001180D02*
X008680Y002180D01*
X004180Y002180D01*
X003180Y003180D01*
X002180Y003180D02*
X003430Y001930D01*
X007930Y001930D01*
X008180Y001680D01*
X008180Y000680D01*
X008430Y000430D01*
X009930Y000430D01*
X010680Y001180D01*
X011680Y001180D02*
X011680Y001555D01*
X009305Y003930D01*
X005930Y003930D01*
X005180Y003180D01*
X012180Y003180D02*
X013430Y001930D01*
X014930Y001930D01*
X015180Y001680D01*
X015180Y000680D01*
X015430Y000430D01*
X019930Y000430D01*
X020180Y000680D01*
X020180Y001680D01*
X020680Y002180D01*
X021055Y002180D01*
X021680Y002805D01*
X021680Y005055D01*
X021430Y005305D01*
X021430Y006430D01*
X021805Y006555D02*
X020055Y008305D01*
X019180Y008305D01*
X017680Y008680D02*
X017680Y009555D01*
X018305Y010180D01*
X021305Y010180D01*
X022180Y010180D02*
X022680Y010680D01*
X022680Y011680D01*
X022930Y011930D01*
X024555Y011930D01*
X025180Y011305D01*
X025180Y011055D01*
X025680Y010555D01*
X026930Y010305D02*
X026930Y011430D01*
X027680Y012180D01*
X039055Y012180D01*
X039430Y011805D01*
X039430Y010180D01*
X034180Y004930D01*
X034180Y000680D01*
X033930Y000430D01*
X030430Y000430D01*
X029680Y001180D01*
X028430Y001930D02*
X027680Y001180D01*
X028430Y001930D02*
X029930Y001930D01*
X031180Y003180D01*
X030055Y003930D02*
X029680Y003555D01*
X029680Y002805D01*
X029305Y002430D01*
X028805Y002430D01*
X027680Y002805D02*
X026805Y001930D01*
X025430Y001930D01*
X025180Y001680D01*
X025180Y000680D01*
X024930Y000430D01*
X022430Y000430D01*
X021680Y001180D01*
X021430Y001930D02*
X020680Y001180D01*
X018680Y001180D02*
X017680Y002180D01*
X017430Y002180D01*
X016180Y001680D02*
X015680Y001180D01*
X016180Y001680D02*
X016180Y003180D01*
X015180Y003180D02*
X009680Y008680D01*
X008680Y008680D01*
X007680Y008680D01*
X006680Y008680D01*
X005680Y008680D01*
X004680Y008680D01*
X003680Y008680D01*
X002680Y008680D01*
X001680Y008680D01*
X001680Y007680D02*
X003180Y006180D01*
X004180Y006180D02*
X002680Y007680D01*
X003680Y007680D02*
X005180Y006180D01*
X006180Y006180D02*
X004680Y007680D01*
X005680Y007680D02*
X007180Y006180D01*
X008180Y006180D02*
X006680Y007680D01*
X007680Y007680D02*
X009180Y006180D01*
X013180Y007805D02*
X013180Y009180D01*
X012180Y009180D02*
X013305Y010305D01*
X014930Y010305D01*
X015680Y010680D02*
X015180Y011180D01*
X016180Y011180D02*
X016930Y011930D01*
X021430Y011930D01*
X021680Y011680D01*
X021680Y008680D01*
X024430Y005930D01*
X023930Y005430D02*
X023930Y004555D01*
X024180Y004305D01*
X024180Y003180D01*
X025180Y003180D02*
X025180Y003805D01*
X024305Y004680D01*
X025055Y004805D02*
X025680Y004805D01*
X025055Y004805D02*
X021180Y008680D01*
X021180Y009180D01*
X020180Y009180D02*
X020180Y008805D01*
X021430Y007555D01*
X020680Y007180D02*
X020305Y007555D01*
X019680Y007555D01*
X018805Y006680D01*
X018055Y006680D01*
X017805Y006930D01*
X017805Y007180D01*
X018180Y007555D01*
X018180Y009180D01*
X019180Y009180D02*
X019930Y009930D01*
X020305Y009930D01*
X020680Y009555D01*
X020680Y008805D01*
X022930Y006555D01*
X022930Y006430D01*
X022055Y006805D02*
X023680Y005180D01*
X023680Y002805D01*
X024055Y002430D01*
X025430Y002430D01*
X026180Y003180D01*
X027180Y003180D02*
X027180Y004305D01*
X022680Y008805D01*
X022680Y010305D01*
X023180Y010805D01*
X023180Y011180D01*
X023180Y010180D02*
X023680Y009680D01*
X023680Y008805D01*
X026555Y005930D01*
X027680Y005680D02*
X027680Y002805D01*
X028180Y003180D02*
X028180Y004555D01*
X030555Y006930D01*
X031930Y006930D01*
X035430Y010430D01*
X037930Y010430D01*
X038680Y011180D01*
X039180Y011680D02*
X039180Y010680D01*
X033055Y004555D01*
X029680Y004555D01*
X029430Y004805D01*
X029430Y005305D01*
X029805Y004930D02*
X030430Y004930D01*
X035555Y010055D01*
X034180Y010180D02*
X034180Y011680D01*
X033930Y011930D01*
X031430Y011930D01*
X030680Y011180D01*
X030930Y010430D02*
X031680Y011180D01*
X032680Y011180D02*
X032680Y009805D01*
X031305Y008430D01*
X028680Y008430D01*
X027930Y007680D01*
X027055Y007680D01*
X026805Y007930D01*
X027680Y008430D02*
X027680Y009555D01*
X028555Y010430D01*
X030930Y010430D01*
X033680Y010055D02*
X033680Y011180D01*
X034680Y011180D02*
X035430Y011930D01*
X038930Y011930D01*
X039180Y011680D01*
X034180Y010180D02*
X031180Y007180D01*
X030430Y007180D01*
X029180Y005930D01*
X028430Y005930D01*
X028305Y006305D02*
X027680Y005680D01*
X027055Y005430D02*
X029055Y007430D01*
X031055Y007430D01*
X033680Y010055D01*
X029555Y007805D02*
X029430Y007930D01*
X028555Y007930D01*
X028305Y007680D01*
X028305Y007555D01*
X027180Y006430D01*
X026555Y006430D01*
X026305Y007055D02*
X027305Y007055D01*
X026305Y007055D02*
X024180Y009180D01*
X023055Y007930D02*
X026805Y004180D01*
X028805Y004180D02*
X031430Y004180D01*
X033680Y001930D01*
X033680Y001180D01*
X032680Y001180D02*
X032680Y002555D01*
X031305Y003930D01*
X030055Y003930D01*
X026555Y005430D02*
X028680Y007555D01*
X029180Y007055D02*
X028430Y006305D01*
X028305Y006305D01*
X021805Y006555D02*
X021805Y005430D01*
X021180Y005805D02*
X019805Y007180D01*
X019180Y007805D02*
X018430Y007055D01*
X018180Y007055D01*
X019805Y006680D02*
X020555Y005930D01*
X020555Y005680D01*
X020305Y005430D01*
X018305Y005430D01*
X017680Y004805D01*
X016555Y004805D01*
X016930Y004430D02*
X018180Y004430D01*
X018430Y004680D01*
X020805Y004680D01*
X020180Y004055D02*
X019930Y004305D01*
X018555Y004305D01*
X019805Y003930D02*
X019805Y003805D01*
X019180Y003180D01*
X020180Y003180D02*
X020180Y004055D01*
X022680Y003555D02*
X022680Y002805D01*
X021805Y001930D01*
X021430Y001930D01*
X022680Y002305D02*
X023555Y002305D01*
X024680Y001180D01*
X021180Y003180D02*
X021180Y005805D01*
X020180Y005805D02*
X017055Y005805D01*
X016930Y005680D01*
X016430Y005680D01*
X015680Y006430D01*
X015680Y010680D01*
X016680Y009555D02*
X017555Y010430D01*
X018430Y010430D01*
X019180Y011180D01*
X016680Y009555D02*
X016680Y006305D01*
X016555Y005930D02*
X016055Y006430D01*
X016055Y006555D01*
X016805Y005930D02*
X017055Y006180D01*
X019805Y006180D01*
X016805Y005930D02*
X016555Y005930D01*
X015180Y005055D02*
X016180Y004055D01*
X015180Y005055D02*
X015180Y009180D01*
X017055Y008055D02*
X017680Y008680D01*
X018430Y005055D02*
X019930Y005055D01*
X022680Y003555D02*
X023305Y004180D01*
X035680Y003680D02*
X036680Y003680D01*
X037680Y003680D01*
X038680Y003680D01*
X039680Y003680D01*
X040180Y003930D02*
X040180Y003180D01*
X039680Y002680D01*
X039680Y001180D01*
X038680Y001180D02*
X038680Y002680D01*
X037680Y002680D02*
X037680Y001180D01*
X036680Y001180D02*
X036680Y002680D01*
X039680Y004430D02*
X040180Y003930D01*
X039680Y004430D02*
X039680Y005680D01*
X039680Y006680D02*
X038680Y006680D01*
X037680Y006680D01*
X036680Y006680D01*
M02*
