G75*
%MOIN*%
%OFA0B0*%
%FSLAX24Y24*%
%IPPOS*%
%LPD*%
%AMOC8*
5,1,8,0,0,1.08239X$1,22.5*
%
%ADD10R,0.0600X0.2550*%
%ADD11OC8,0.0520*%
%ADD12OC8,0.0600*%
%ADD13C,0.0520*%
%ADD14C,0.0560*%
%ADD15OC8,0.0630*%
%ADD16C,0.0630*%
%ADD17R,0.2300X0.2300*%
%ADD18C,0.0100*%
%ADD19C,0.0400*%
%ADD20C,0.0200*%
%ADD21C,0.0160*%
D10*
X002680Y001940D03*
X003680Y001940D03*
X004680Y001940D03*
X005680Y001940D03*
X006680Y001940D03*
X007680Y001940D03*
X008680Y001940D03*
X009680Y001940D03*
X010680Y001940D03*
X011680Y001940D03*
X012680Y001940D03*
X013680Y001940D03*
X014680Y001940D03*
X015680Y001940D03*
X016680Y001940D03*
X017680Y001940D03*
X018680Y001940D03*
X019680Y001940D03*
X020680Y001940D03*
X021680Y001940D03*
X022680Y001940D03*
X023680Y001940D03*
X024680Y001940D03*
X025680Y001940D03*
X026680Y001940D03*
X027680Y001940D03*
X028680Y001940D03*
X029680Y001940D03*
X030680Y001940D03*
X031680Y001940D03*
X032680Y001940D03*
D11*
X039680Y007940D03*
X039680Y008940D03*
X032680Y014940D03*
X032680Y015940D03*
X024180Y011440D03*
X024180Y010440D03*
X023180Y014940D03*
X023180Y015940D03*
X012680Y011440D03*
X012680Y010440D03*
X001180Y010440D03*
X001180Y011440D03*
X003680Y026440D03*
X004680Y026440D03*
X013680Y033940D03*
X013680Y034940D03*
X022680Y034940D03*
X022680Y033940D03*
X031680Y033940D03*
X031680Y034940D03*
X040680Y034940D03*
X040680Y033940D03*
D12*
X032680Y005940D03*
X031680Y005940D03*
X031680Y004940D03*
X032680Y004940D03*
X030680Y004940D03*
X029680Y004940D03*
X028680Y004940D03*
X028680Y005940D03*
X029680Y005940D03*
X030680Y005940D03*
X027680Y005940D03*
X026680Y005940D03*
X025680Y005940D03*
X025680Y004940D03*
X026680Y004940D03*
X027680Y004940D03*
X024680Y004940D03*
X023680Y004940D03*
X022680Y004940D03*
X021680Y004940D03*
X021680Y005940D03*
X022680Y005940D03*
X023680Y005940D03*
X024680Y005940D03*
X020680Y005940D03*
X019680Y005940D03*
X018680Y005940D03*
X018680Y004940D03*
X019680Y004940D03*
X020680Y004940D03*
X017680Y004940D03*
X016680Y004940D03*
X015680Y004940D03*
X015680Y005940D03*
X016680Y005940D03*
X017680Y005940D03*
X014680Y005940D03*
X013680Y005940D03*
X012680Y005940D03*
X012680Y004940D03*
X013680Y004940D03*
X014680Y004940D03*
X011680Y004940D03*
X010680Y004940D03*
X009680Y004940D03*
X008680Y004940D03*
X008680Y005940D03*
X009680Y005940D03*
X010680Y005940D03*
X011680Y005940D03*
X007680Y005940D03*
X006680Y005940D03*
X005680Y005940D03*
X005680Y004940D03*
X006680Y004940D03*
X007680Y004940D03*
X004680Y004940D03*
X003680Y004940D03*
X002680Y004940D03*
X002680Y005940D03*
X003680Y005940D03*
X004680Y005940D03*
D13*
X004180Y008180D02*
X004180Y008700D01*
X003180Y008700D02*
X003180Y008180D01*
X002180Y008180D02*
X002180Y008700D01*
X005180Y008700D02*
X005180Y008180D01*
X006180Y008180D02*
X006180Y008700D01*
X007180Y008700D02*
X007180Y008180D01*
X008180Y008180D02*
X008180Y008700D01*
X009180Y008700D02*
X009180Y008180D01*
X010180Y008180D02*
X010180Y008700D01*
X011180Y008700D02*
X011180Y008180D01*
X013680Y008180D02*
X013680Y008700D01*
X014680Y008700D02*
X014680Y008180D01*
X015680Y008180D02*
X015680Y008700D01*
X016680Y008700D02*
X016680Y008180D01*
X017680Y008180D02*
X017680Y008700D01*
X018680Y008700D02*
X018680Y008180D01*
X019680Y008180D02*
X019680Y008700D01*
X020680Y008700D02*
X020680Y008180D01*
X021680Y008180D02*
X021680Y008700D01*
X022680Y008700D02*
X022680Y008180D01*
X025180Y008180D02*
X025180Y008700D01*
X026180Y008700D02*
X026180Y008180D01*
X027180Y008180D02*
X027180Y008700D01*
X028180Y008700D02*
X028180Y008180D01*
X029180Y008180D02*
X029180Y008700D01*
X030180Y008700D02*
X030180Y008180D01*
X031180Y008180D02*
X031180Y008700D01*
X032180Y008700D02*
X032180Y008180D01*
X033180Y008180D02*
X033180Y008700D01*
X034180Y008700D02*
X034180Y008180D01*
X035420Y008440D02*
X035940Y008440D01*
X035940Y007440D02*
X035420Y007440D01*
X035420Y006440D02*
X035940Y006440D01*
X035940Y005440D02*
X035420Y005440D01*
X035420Y004440D02*
X035940Y004440D01*
X038420Y004440D02*
X038940Y004440D01*
X038940Y005440D02*
X038420Y005440D01*
X038420Y006440D02*
X038940Y006440D01*
X038940Y007440D02*
X038420Y007440D01*
X038420Y008440D02*
X038940Y008440D01*
X038940Y009440D02*
X038420Y009440D01*
X038420Y010440D02*
X038940Y010440D01*
X038680Y012680D02*
X038680Y013200D01*
X039680Y013200D02*
X039680Y012680D01*
X040680Y012680D02*
X040680Y013200D01*
X040680Y015680D02*
X040680Y016200D01*
X039680Y016200D02*
X039680Y015680D01*
X038680Y015680D02*
X038680Y016200D01*
X038680Y017180D02*
X038680Y017700D01*
X039680Y017700D02*
X039680Y017180D01*
X040680Y017180D02*
X040680Y017700D01*
X039440Y019440D02*
X038920Y019440D01*
X038920Y020440D02*
X039440Y020440D01*
X039440Y021440D02*
X038920Y021440D01*
X038920Y022440D02*
X039440Y022440D01*
X039440Y023440D02*
X038920Y023440D01*
X038920Y024440D02*
X039440Y024440D01*
X039440Y025440D02*
X038920Y025440D01*
X038920Y026440D02*
X039440Y026440D01*
X039440Y027440D02*
X038920Y027440D01*
X038920Y028440D02*
X039440Y028440D01*
X039440Y029440D02*
X038920Y029440D01*
X038920Y030440D02*
X039440Y030440D01*
X039440Y031440D02*
X038920Y031440D01*
X038920Y032440D02*
X039440Y032440D01*
X039440Y033440D02*
X038920Y033440D01*
X038920Y034440D02*
X039440Y034440D01*
X033440Y034440D02*
X032920Y034440D01*
X032920Y033440D02*
X033440Y033440D01*
X033440Y032440D02*
X032920Y032440D01*
X032920Y031440D02*
X033440Y031440D01*
X033440Y030440D02*
X032920Y030440D01*
X032920Y029440D02*
X033440Y029440D01*
X033440Y028440D02*
X032920Y028440D01*
X032920Y027440D02*
X033440Y027440D01*
X033440Y026440D02*
X032920Y026440D01*
X032920Y025440D02*
X033440Y025440D01*
X033440Y024440D02*
X032920Y024440D01*
X032920Y023440D02*
X033440Y023440D01*
X033440Y022440D02*
X032920Y022440D01*
X031940Y022440D02*
X031420Y022440D01*
X030440Y022440D02*
X029920Y022440D01*
X029920Y021440D02*
X030440Y021440D01*
X031420Y021440D02*
X031940Y021440D01*
X032920Y021440D02*
X033440Y021440D01*
X033440Y020440D02*
X032920Y020440D01*
X031940Y020440D02*
X031420Y020440D01*
X030440Y020440D02*
X029920Y020440D01*
X029920Y019440D02*
X030440Y019440D01*
X031420Y019440D02*
X031940Y019440D01*
X032920Y019440D02*
X033440Y019440D01*
X031940Y018440D02*
X031420Y018440D01*
X031180Y017700D02*
X031180Y017180D01*
X030180Y017180D02*
X030180Y017700D01*
X029180Y017700D02*
X029180Y017180D01*
X029180Y016200D02*
X029180Y015680D01*
X030180Y015680D02*
X030180Y016200D01*
X031180Y016200D02*
X031180Y015680D01*
X033680Y015680D02*
X033680Y016200D01*
X034680Y016200D02*
X034680Y015680D01*
X035680Y015680D02*
X035680Y016200D01*
X036680Y016200D02*
X036680Y015680D01*
X037680Y015680D02*
X037680Y016200D01*
X037680Y017180D02*
X037680Y017700D01*
X036680Y017700D02*
X036680Y017180D01*
X036680Y013200D02*
X036680Y012680D01*
X035680Y012680D02*
X035680Y013200D01*
X034680Y013200D02*
X034680Y012680D01*
X033680Y012680D02*
X033680Y013200D01*
X033180Y011700D02*
X033180Y011180D01*
X032180Y011180D02*
X032180Y011700D01*
X031180Y011700D02*
X031180Y011180D01*
X030180Y011180D02*
X030180Y011700D01*
X029180Y011700D02*
X029180Y011180D01*
X028180Y011180D02*
X028180Y011700D01*
X027180Y011700D02*
X027180Y011180D01*
X026180Y011180D02*
X026180Y011700D01*
X025180Y011700D02*
X025180Y011180D01*
X025180Y012680D02*
X025180Y013200D01*
X026180Y013200D02*
X026180Y012680D01*
X027180Y012680D02*
X027180Y013200D01*
X028180Y013200D02*
X028180Y012680D01*
X029180Y012680D02*
X029180Y013200D01*
X030180Y013200D02*
X030180Y012680D01*
X031180Y012680D02*
X031180Y013200D01*
X034180Y011700D02*
X034180Y011180D01*
X035420Y010440D02*
X035940Y010440D01*
X035940Y009440D02*
X035420Y009440D01*
X037680Y012680D02*
X037680Y013200D01*
X028180Y015680D02*
X028180Y016200D01*
X027180Y016200D02*
X027180Y015680D01*
X026180Y015680D02*
X026180Y016200D01*
X025180Y016200D02*
X025180Y015680D01*
X024180Y015680D02*
X024180Y016200D01*
X022440Y018440D02*
X021920Y018440D01*
X021920Y019440D02*
X022440Y019440D01*
X021440Y019440D02*
X020920Y019440D01*
X020920Y020440D02*
X021440Y020440D01*
X021920Y020440D02*
X022440Y020440D01*
X022440Y021440D02*
X021920Y021440D01*
X021440Y021440D02*
X020920Y021440D01*
X020920Y022440D02*
X021440Y022440D01*
X021920Y022440D02*
X022440Y022440D01*
X022440Y023440D02*
X021920Y023440D01*
X021440Y023440D02*
X020920Y023440D01*
X020920Y024440D02*
X021440Y024440D01*
X021440Y025440D02*
X020920Y025440D01*
X020920Y026440D02*
X021440Y026440D01*
X021440Y027440D02*
X020920Y027440D01*
X020920Y028440D02*
X021440Y028440D01*
X021440Y029440D02*
X020920Y029440D01*
X020920Y030440D02*
X021440Y030440D01*
X021440Y031440D02*
X020920Y031440D01*
X020920Y032440D02*
X021440Y032440D01*
X021440Y033440D02*
X020920Y033440D01*
X020920Y034440D02*
X021440Y034440D01*
X023920Y034440D02*
X024440Y034440D01*
X024440Y033440D02*
X023920Y033440D01*
X023920Y032440D02*
X024440Y032440D01*
X024440Y031440D02*
X023920Y031440D01*
X023920Y030440D02*
X024440Y030440D01*
X024440Y029440D02*
X023920Y029440D01*
X023920Y028440D02*
X024440Y028440D01*
X024440Y027440D02*
X023920Y027440D01*
X023920Y026440D02*
X024440Y026440D01*
X024440Y025440D02*
X023920Y025440D01*
X023920Y024440D02*
X024440Y024440D01*
X024440Y023440D02*
X023920Y023440D01*
X023920Y022440D02*
X024440Y022440D01*
X024440Y021440D02*
X023920Y021440D01*
X023920Y020440D02*
X024440Y020440D01*
X024440Y019440D02*
X023920Y019440D01*
X027180Y017700D02*
X027180Y017180D01*
X028180Y017180D02*
X028180Y017700D01*
X024180Y013200D02*
X024180Y012680D01*
X022680Y011700D02*
X022680Y011180D01*
X021680Y011180D02*
X021680Y011700D01*
X021680Y012680D02*
X021680Y013200D01*
X020680Y013200D02*
X020680Y012680D01*
X019680Y012680D02*
X019680Y013200D01*
X019680Y013680D02*
X019680Y014200D01*
X018680Y014200D02*
X018680Y013680D01*
X018680Y013200D02*
X018680Y012680D01*
X018680Y011700D02*
X018680Y011180D01*
X019680Y011180D02*
X019680Y011700D01*
X020680Y011700D02*
X020680Y011180D01*
X020680Y013680D02*
X020680Y014200D01*
X020680Y016680D02*
X020680Y017200D01*
X019680Y017200D02*
X019680Y016680D01*
X018680Y016680D02*
X018680Y017200D01*
X017680Y017200D02*
X017680Y016680D01*
X016680Y016680D02*
X016680Y017200D01*
X015680Y017200D02*
X015680Y016680D01*
X014680Y016680D02*
X014680Y017200D01*
X013680Y017200D02*
X013680Y016680D01*
X013680Y014200D02*
X013680Y013680D01*
X013680Y013200D02*
X013680Y012680D01*
X014680Y012680D02*
X014680Y013200D01*
X014680Y013680D02*
X014680Y014200D01*
X015680Y014200D02*
X015680Y013680D01*
X015680Y013200D02*
X015680Y012680D01*
X016680Y012680D02*
X016680Y013200D01*
X016680Y013680D02*
X016680Y014200D01*
X017680Y014200D02*
X017680Y013680D01*
X017680Y013200D02*
X017680Y012680D01*
X017680Y011700D02*
X017680Y011180D01*
X016680Y011180D02*
X016680Y011700D01*
X015680Y011700D02*
X015680Y011180D01*
X014680Y011180D02*
X014680Y011700D01*
X013680Y011700D02*
X013680Y011180D01*
X011180Y011180D02*
X011180Y011700D01*
X010180Y011700D02*
X010180Y011180D01*
X009180Y011180D02*
X009180Y011700D01*
X008180Y011700D02*
X008180Y011180D01*
X007180Y011180D02*
X007180Y011700D01*
X006180Y011700D02*
X006180Y011180D01*
X005180Y011180D02*
X005180Y011700D01*
X004180Y011700D02*
X004180Y011180D01*
X003180Y011180D02*
X003180Y011700D01*
X002180Y011700D02*
X002180Y011180D01*
X002680Y012680D02*
X002680Y013200D01*
X002680Y013680D02*
X002680Y014200D01*
X003680Y014200D02*
X003680Y013680D01*
X003680Y013200D02*
X003680Y012680D01*
X004680Y012680D02*
X004680Y013200D01*
X004680Y013680D02*
X004680Y014200D01*
X005680Y014200D02*
X005680Y013680D01*
X005680Y013200D02*
X005680Y012680D01*
X006680Y012680D02*
X006680Y013200D01*
X006680Y013680D02*
X006680Y014200D01*
X007680Y014200D02*
X007680Y013680D01*
X007680Y013200D02*
X007680Y012680D01*
X008680Y012680D02*
X008680Y013200D01*
X008680Y013680D02*
X008680Y014200D01*
X009680Y014200D02*
X009680Y013680D01*
X009680Y013200D02*
X009680Y012680D01*
X010680Y012680D02*
X010680Y013200D01*
X009680Y016680D02*
X009680Y017200D01*
X008680Y017200D02*
X008680Y016680D01*
X007680Y016680D02*
X007680Y017200D01*
X006680Y017200D02*
X006680Y016680D01*
X005680Y016680D02*
X005680Y017200D01*
X004680Y017200D02*
X004680Y016680D01*
X003680Y016680D02*
X003680Y017200D01*
X002680Y017200D02*
X002680Y016680D01*
X001940Y018440D02*
X001420Y018440D01*
X001420Y019440D02*
X001940Y019440D01*
X001940Y020440D02*
X001420Y020440D01*
X001420Y021440D02*
X001940Y021440D01*
X001940Y022440D02*
X001420Y022440D01*
X001420Y023440D02*
X001940Y023440D01*
X001940Y024440D02*
X001420Y024440D01*
X001420Y025440D02*
X001940Y025440D01*
X004420Y025440D02*
X004940Y025440D01*
X005920Y025440D02*
X006440Y025440D01*
X006440Y024440D02*
X005920Y024440D01*
X004940Y024440D02*
X004420Y024440D01*
X004420Y023440D02*
X004940Y023440D01*
X005920Y023440D02*
X006440Y023440D01*
X006440Y022440D02*
X005920Y022440D01*
X004940Y022440D02*
X004420Y022440D01*
X004420Y021440D02*
X004940Y021440D01*
X005920Y021440D02*
X006440Y021440D01*
X006440Y020440D02*
X005920Y020440D01*
X004940Y020440D02*
X004420Y020440D01*
X004420Y019440D02*
X004940Y019440D01*
X005920Y019440D02*
X006440Y019440D01*
X004940Y018440D02*
X004420Y018440D01*
X011920Y019440D02*
X012440Y019440D01*
X012440Y020440D02*
X011920Y020440D01*
X011920Y021440D02*
X012440Y021440D01*
X012440Y022440D02*
X011920Y022440D01*
X011920Y023440D02*
X012440Y023440D01*
X012440Y024440D02*
X011920Y024440D01*
X011920Y025440D02*
X012440Y025440D01*
X012440Y026440D02*
X011920Y026440D01*
X011920Y027440D02*
X012440Y027440D01*
X012440Y028440D02*
X011920Y028440D01*
X011920Y029440D02*
X012440Y029440D01*
X012440Y030440D02*
X011920Y030440D01*
X011920Y031440D02*
X012440Y031440D01*
X012440Y032440D02*
X011920Y032440D01*
X011920Y033440D02*
X012440Y033440D01*
X012440Y034440D02*
X011920Y034440D01*
X014920Y034440D02*
X015440Y034440D01*
X015440Y033440D02*
X014920Y033440D01*
X014920Y032440D02*
X015440Y032440D01*
X015440Y031440D02*
X014920Y031440D01*
X014920Y030440D02*
X015440Y030440D01*
X015440Y029440D02*
X014920Y029440D01*
X014920Y028440D02*
X015440Y028440D01*
X015440Y027440D02*
X014920Y027440D01*
X014920Y026440D02*
X015440Y026440D01*
X015440Y025440D02*
X014920Y025440D01*
X014920Y024440D02*
X015440Y024440D01*
X015440Y023440D02*
X014920Y023440D01*
X014920Y022440D02*
X015440Y022440D01*
X015440Y021440D02*
X014920Y021440D01*
X014920Y020440D02*
X015440Y020440D01*
X015440Y019440D02*
X014920Y019440D01*
X006440Y026440D02*
X005920Y026440D01*
X005920Y027440D02*
X006440Y027440D01*
X006440Y028440D02*
X005920Y028440D01*
X005920Y029440D02*
X006440Y029440D01*
X006440Y030440D02*
X005920Y030440D01*
X005920Y031440D02*
X006440Y031440D01*
X006440Y032440D02*
X005920Y032440D01*
X005920Y033440D02*
X006440Y033440D01*
X006440Y034440D02*
X005920Y034440D01*
X029920Y034440D02*
X030440Y034440D01*
X030440Y033440D02*
X029920Y033440D01*
X029920Y032440D02*
X030440Y032440D01*
X030440Y031440D02*
X029920Y031440D01*
X029920Y030440D02*
X030440Y030440D01*
X030440Y029440D02*
X029920Y029440D01*
X029920Y028440D02*
X030440Y028440D01*
X030440Y027440D02*
X029920Y027440D01*
X029920Y026440D02*
X030440Y026440D01*
X030440Y025440D02*
X029920Y025440D01*
X029920Y024440D02*
X030440Y024440D01*
X030440Y023440D02*
X029920Y023440D01*
D14*
X004180Y029660D02*
X004180Y030220D01*
X003180Y030220D02*
X003180Y029660D01*
X002180Y029660D02*
X002180Y030220D01*
X002180Y032660D02*
X002180Y033220D01*
X003180Y033220D02*
X003180Y032660D01*
X004180Y032660D02*
X004180Y033220D01*
D15*
X041680Y007940D03*
D16*
X041680Y008940D03*
D17*
X041180Y004440D03*
X041180Y026690D03*
D18*
X041180Y024940D02*
X036055Y024940D01*
X034805Y024440D02*
X039180Y024440D01*
X039180Y023440D02*
X038930Y023190D01*
X033805Y023190D01*
X033555Y022940D01*
X030930Y022940D01*
X030430Y023440D01*
X030180Y023440D01*
X029930Y023440D01*
X029430Y022940D01*
X023805Y022940D01*
X023555Y023190D01*
X022430Y023190D01*
X022180Y023440D01*
X021180Y023440D01*
X020930Y023440D01*
X020430Y022940D01*
X014805Y022940D01*
X014555Y023190D01*
X012430Y023190D01*
X012180Y023440D01*
X011805Y023940D02*
X013805Y023940D01*
X014305Y023440D01*
X015180Y023440D01*
X020305Y023440D01*
X020805Y023940D01*
X022555Y023940D01*
X022805Y023690D01*
X023930Y023690D01*
X024180Y023440D01*
X024430Y023690D01*
X026180Y023690D01*
X026180Y023565D01*
X026180Y023690D02*
X029555Y023690D01*
X029805Y023940D01*
X032680Y023940D01*
X033180Y023440D01*
X033180Y022440D02*
X031680Y022440D01*
X031055Y022440D01*
X030555Y022940D01*
X029805Y022940D01*
X029555Y022690D01*
X024430Y022690D01*
X024180Y022440D01*
X023930Y022440D01*
X023430Y022940D01*
X020805Y022940D01*
X020555Y022690D01*
X015430Y022690D01*
X015180Y022440D01*
X014930Y022440D01*
X014430Y022940D01*
X006680Y022940D01*
X006180Y022440D01*
X006305Y021565D02*
X011430Y021565D01*
X011805Y021940D01*
X014430Y021940D01*
X014930Y021440D01*
X015180Y021440D01*
X015430Y021690D01*
X020555Y021690D01*
X020805Y021940D01*
X022555Y021940D01*
X023055Y021440D01*
X024180Y021440D01*
X024430Y021690D01*
X029555Y021690D01*
X029805Y021940D01*
X030555Y021940D01*
X031055Y021440D01*
X031680Y021440D01*
X033180Y021440D01*
X033430Y021440D01*
X033930Y021940D01*
X040180Y021940D01*
X040180Y015565D01*
X039180Y014565D01*
X038805Y015190D02*
X039180Y015565D01*
X039180Y016690D01*
X038430Y016690D01*
X037680Y017440D01*
X036930Y016690D02*
X036430Y016690D01*
X035680Y017440D01*
X032555Y017440D01*
X033180Y017065D02*
X035555Y017065D01*
X035930Y016690D02*
X036680Y015940D01*
X036930Y016690D02*
X037680Y015940D01*
X038680Y015940D02*
X037680Y014940D01*
X034680Y014940D01*
X034180Y014440D01*
X032555Y014440D01*
X032305Y014690D01*
X029555Y014690D01*
X029430Y014815D01*
X029805Y014065D02*
X029930Y013940D01*
X034555Y013940D01*
X034680Y014065D01*
X034555Y014440D02*
X034305Y014190D01*
X032430Y014190D01*
X032180Y014440D01*
X023055Y014440D01*
X022430Y015065D01*
X020930Y015065D01*
X020555Y014690D01*
X012305Y014690D01*
X011930Y015065D01*
X003430Y015065D01*
X002180Y016315D01*
X003180Y014690D02*
X005055Y014690D01*
X005555Y014690D02*
X004805Y013940D01*
X004680Y013940D01*
X004680Y012940D01*
X004430Y012190D02*
X003680Y012940D01*
X003680Y013940D01*
X003180Y014690D02*
X003180Y011440D01*
X004430Y012190D02*
X005430Y012190D01*
X006180Y011440D01*
X006680Y012065D02*
X006805Y012190D01*
X007930Y012190D01*
X008680Y012940D01*
X008680Y013940D01*
X008180Y014565D02*
X008055Y014690D01*
X005555Y014690D01*
X005680Y013940D02*
X005680Y012940D01*
X006680Y012940D02*
X006680Y013940D01*
X007680Y013940D02*
X007680Y012940D01*
X008680Y012065D02*
X008805Y012190D01*
X010430Y012190D01*
X011180Y011440D01*
X010555Y010690D02*
X007555Y010690D01*
X007180Y010315D02*
X009930Y010315D01*
X010055Y010440D01*
X010305Y010440D01*
X010680Y010065D01*
X010805Y009690D02*
X011680Y010565D01*
X011680Y013565D01*
X011805Y013565D01*
X012055Y013815D01*
X012055Y014565D01*
X011680Y014565D01*
X011680Y013940D02*
X009680Y013940D01*
X009680Y012940D01*
X011930Y012190D02*
X013305Y012190D01*
X013680Y012940D02*
X013680Y013940D01*
X014680Y013940D02*
X014680Y012940D01*
X015305Y012190D02*
X019930Y012190D01*
X020680Y012940D01*
X020680Y013940D01*
X021180Y013940D02*
X021305Y013940D01*
X021180Y013940D02*
X021180Y012565D01*
X021555Y012190D01*
X021680Y012190D01*
X021680Y011440D01*
X022055Y010440D02*
X022555Y009940D01*
X025180Y009940D01*
X025680Y010440D01*
X032305Y010440D01*
X032680Y010815D01*
X033180Y010690D02*
X035055Y010690D01*
X036305Y011940D01*
X039555Y011940D01*
X040180Y012565D01*
X040180Y014190D01*
X040680Y014190D01*
X041180Y015565D02*
X039180Y013565D01*
X038680Y012940D02*
X038680Y015190D01*
X038805Y015190D01*
X039680Y015940D02*
X039680Y017440D01*
X039680Y018940D01*
X036430Y018940D01*
X036305Y019065D01*
X034055Y019440D02*
X033555Y018940D01*
X031305Y018940D01*
X030805Y019440D01*
X030180Y019440D01*
X029680Y018940D01*
X022680Y018940D01*
X022180Y019440D01*
X021180Y019440D01*
X020680Y018940D01*
X014805Y018940D01*
X014555Y019190D01*
X012430Y019190D01*
X012180Y019440D01*
X012430Y020190D02*
X014555Y020190D01*
X014805Y019940D01*
X015805Y019940D01*
X016305Y020440D01*
X021180Y020440D01*
X022180Y020440D01*
X022555Y020440D01*
X023055Y019940D01*
X029680Y019940D01*
X030180Y020440D01*
X030680Y019940D01*
X038680Y019940D01*
X039180Y020440D01*
X038680Y020940D02*
X030930Y020940D01*
X030430Y021440D01*
X030180Y021440D01*
X029930Y021190D01*
X024805Y021190D01*
X024555Y020940D01*
X022930Y020940D01*
X022430Y021440D01*
X022180Y021440D01*
X021180Y021440D01*
X020930Y021440D01*
X020430Y020940D01*
X014805Y020940D01*
X014555Y021190D01*
X012430Y021190D01*
X012180Y021440D01*
X011805Y020940D02*
X014430Y020940D01*
X014930Y020440D01*
X015180Y020440D01*
X015430Y020690D01*
X020555Y020690D01*
X020805Y020940D01*
X022555Y020940D01*
X023055Y020440D01*
X024180Y020440D01*
X024430Y020690D01*
X029555Y020690D01*
X029805Y020940D01*
X030555Y020940D01*
X031055Y020440D01*
X031680Y020440D01*
X033180Y020440D01*
X034055Y019440D02*
X039180Y019440D01*
X038680Y020940D02*
X039180Y021440D01*
X038930Y022190D02*
X033805Y022190D01*
X033555Y021940D01*
X030930Y021940D01*
X030430Y022440D01*
X030180Y022440D01*
X029930Y022190D01*
X024805Y022190D01*
X024555Y021940D01*
X022930Y021940D01*
X022430Y022440D01*
X022180Y022440D01*
X021180Y022440D01*
X020930Y022440D01*
X020430Y021940D01*
X014805Y021940D01*
X014555Y022190D01*
X012430Y022190D01*
X012180Y022440D01*
X010930Y021940D02*
X002180Y021940D01*
X001680Y021440D01*
X000930Y020940D02*
X004180Y020940D01*
X004680Y020440D01*
X005180Y020940D02*
X010930Y020940D01*
X011430Y020565D02*
X011805Y020940D01*
X011430Y020565D02*
X006305Y020565D01*
X006180Y020440D01*
X006180Y021440D02*
X006305Y021565D01*
X005180Y020940D02*
X004680Y021440D01*
X006180Y023440D02*
X006430Y023690D01*
X011305Y023690D01*
X011305Y023565D01*
X011305Y023690D02*
X011555Y023690D01*
X011805Y023940D01*
X011430Y023940D02*
X011930Y024440D01*
X012180Y024440D01*
X011805Y024940D02*
X013055Y024940D01*
X013055Y024565D01*
X013055Y024940D02*
X013430Y024940D01*
X013930Y024440D01*
X015180Y024440D01*
X020305Y024440D01*
X020805Y024940D01*
X022805Y024940D01*
X023055Y024690D01*
X023930Y024690D01*
X024180Y024440D01*
X026680Y024440D01*
X029305Y024440D01*
X029805Y024940D01*
X032430Y024940D01*
X032930Y024440D01*
X033180Y024440D01*
X033555Y024940D02*
X032805Y024940D01*
X032555Y025190D01*
X030430Y025190D01*
X030180Y025440D01*
X025055Y025440D01*
X024555Y024940D01*
X023180Y024940D01*
X022930Y025190D01*
X020680Y025190D01*
X020430Y024940D01*
X014805Y024940D01*
X014555Y025190D01*
X013805Y025190D01*
X013805Y025065D01*
X013805Y025190D02*
X012430Y025190D01*
X012180Y025440D01*
X011805Y024940D02*
X011430Y024565D01*
X006305Y024565D01*
X006180Y024440D01*
X006180Y025440D02*
X006305Y025565D01*
X011430Y025565D01*
X011805Y025940D01*
X012930Y025940D01*
X013430Y025440D01*
X015180Y025440D01*
X015430Y025690D01*
X020555Y025690D01*
X020805Y025940D01*
X021555Y025940D01*
X022055Y025440D01*
X024180Y025440D01*
X024430Y025440D01*
X024930Y025940D01*
X030555Y025940D01*
X030805Y025690D01*
X032930Y025690D01*
X033180Y025440D01*
X033555Y024940D02*
X034055Y025440D01*
X039180Y025440D01*
X038930Y026190D02*
X033805Y026190D01*
X033555Y025940D01*
X030930Y025940D01*
X030430Y026440D01*
X030180Y026440D01*
X029930Y026190D01*
X024805Y026190D01*
X024555Y025940D01*
X021930Y025940D01*
X021430Y026440D01*
X021180Y026440D01*
X020930Y026440D01*
X020430Y025940D01*
X014805Y025940D01*
X014555Y026190D01*
X013430Y026190D01*
X013430Y025940D01*
X013430Y026190D02*
X012430Y026190D01*
X012180Y026440D01*
X011805Y026940D02*
X014430Y026940D01*
X014930Y026440D01*
X015180Y026440D01*
X015430Y026690D01*
X020555Y026690D01*
X020805Y026940D01*
X023430Y026940D01*
X023930Y026440D01*
X024180Y026440D01*
X024430Y026690D01*
X029555Y026690D01*
X029805Y026940D01*
X032430Y026940D01*
X032930Y026440D01*
X033180Y026440D01*
X032805Y026940D02*
X038680Y026940D01*
X039180Y027440D01*
X038680Y027940D02*
X039180Y028440D01*
X038680Y027940D02*
X032805Y027940D01*
X032555Y028190D01*
X030430Y028190D01*
X030180Y028440D01*
X030430Y028190D02*
X027430Y028190D01*
X027180Y027940D01*
X023805Y027940D01*
X023555Y028190D01*
X021430Y028190D01*
X021180Y028440D01*
X020930Y028440D01*
X020430Y027940D01*
X014805Y027940D01*
X014555Y028190D01*
X012430Y028190D01*
X012180Y028440D01*
X011930Y028440D01*
X011555Y028065D01*
X008180Y028065D01*
X007930Y027815D01*
X006930Y028065D02*
X006805Y027940D01*
X002805Y027940D01*
X000930Y026065D01*
X000930Y020940D01*
X001680Y020440D02*
X002180Y019940D01*
X009055Y019940D01*
X008680Y018940D02*
X013680Y018940D01*
X013930Y018690D01*
X020180Y018690D01*
X020555Y018315D01*
X020055Y018065D02*
X015680Y018065D01*
X014555Y018065D02*
X013930Y018690D01*
X013430Y018565D02*
X012430Y018565D01*
X012305Y018440D01*
X011430Y018190D02*
X010305Y018190D01*
X009930Y018565D02*
X007180Y018565D01*
X006805Y018940D02*
X002180Y018940D01*
X001680Y019440D01*
X001680Y022440D02*
X003180Y023940D01*
X011430Y023940D01*
X010930Y024940D02*
X005180Y024940D01*
X004680Y024440D01*
X002180Y025940D02*
X008555Y025940D01*
X009430Y026815D02*
X010055Y027440D01*
X011305Y027440D01*
X011680Y027815D02*
X011805Y027940D01*
X013055Y027940D01*
X013555Y027440D01*
X015180Y027440D01*
X015430Y027690D01*
X020555Y027690D01*
X020805Y027940D01*
X023430Y027940D01*
X023930Y027440D01*
X024180Y027440D01*
X029305Y027440D01*
X029805Y027940D01*
X032430Y027940D01*
X032930Y027440D01*
X033180Y027440D01*
X032805Y026940D02*
X032555Y027190D01*
X030430Y027190D01*
X030180Y027440D01*
X029930Y027440D01*
X029430Y026940D01*
X023805Y026940D01*
X023555Y027190D01*
X021430Y027190D01*
X021180Y027440D01*
X020930Y027440D01*
X020430Y026940D01*
X014805Y026940D01*
X014555Y027190D01*
X012430Y027190D01*
X012180Y027440D01*
X011805Y026940D02*
X011305Y026440D01*
X006180Y026440D01*
X005680Y026940D01*
X002305Y026940D01*
X002055Y026690D01*
X002180Y025940D02*
X001680Y025440D01*
X002180Y028940D02*
X009430Y028940D01*
X009680Y028690D01*
X010430Y028690D01*
X010555Y028815D01*
X010930Y028440D02*
X006180Y028440D01*
X006180Y027440D02*
X009555Y027440D01*
X009680Y027440D01*
X010055Y027815D01*
X011680Y027815D01*
X011305Y028440D02*
X010930Y028440D01*
X011305Y028440D02*
X011805Y028940D01*
X014680Y028940D01*
X021555Y028940D01*
X021805Y028690D01*
X023930Y028690D01*
X024180Y028440D01*
X029305Y028440D01*
X029805Y028940D01*
X030555Y028940D01*
X030805Y028690D01*
X032930Y028690D01*
X033180Y028440D01*
X032805Y028940D02*
X038680Y028940D01*
X039180Y029440D01*
X038680Y029940D02*
X039180Y030440D01*
X038680Y029940D02*
X032805Y029940D01*
X032555Y030190D01*
X030430Y030190D01*
X030180Y030440D01*
X029930Y030190D01*
X025305Y030190D01*
X024930Y029815D01*
X024805Y029940D01*
X021930Y029940D01*
X021430Y030440D01*
X021180Y030440D01*
X020930Y030440D01*
X020430Y029940D01*
X014805Y029940D01*
X014555Y030190D01*
X012430Y030190D01*
X012180Y030440D01*
X011805Y029940D02*
X014430Y029940D01*
X014930Y029440D01*
X015180Y029440D01*
X015430Y029690D01*
X020555Y029690D01*
X020805Y029940D01*
X021555Y029940D01*
X022055Y029440D01*
X024180Y029440D01*
X029305Y029440D01*
X029805Y029940D01*
X032430Y029940D01*
X032930Y029440D01*
X033180Y029440D01*
X032805Y028940D02*
X032555Y029190D01*
X030430Y029190D01*
X030180Y029440D01*
X029930Y029440D01*
X029430Y028940D01*
X023805Y028940D01*
X023555Y029190D01*
X021430Y029190D01*
X021180Y029440D01*
X022055Y030440D02*
X024180Y030440D01*
X024430Y030690D01*
X029555Y030690D01*
X029805Y030940D01*
X032430Y030940D01*
X032930Y030440D01*
X033180Y030440D01*
X032805Y030940D02*
X038680Y030940D01*
X039180Y031440D01*
X038680Y031940D02*
X039180Y032440D01*
X038680Y032940D02*
X039180Y033440D01*
X038680Y032940D02*
X032805Y032940D01*
X032555Y033190D01*
X030430Y033190D01*
X030180Y033440D01*
X029930Y033190D01*
X027930Y033190D01*
X027680Y032940D01*
X021930Y032940D01*
X021430Y033440D01*
X021180Y033440D01*
X020930Y033440D01*
X020430Y032940D01*
X014805Y032940D01*
X014555Y033190D01*
X012430Y033190D01*
X012180Y033440D01*
X011930Y033440D01*
X011430Y032940D01*
X005805Y032940D01*
X005055Y032190D01*
X002805Y032190D01*
X002805Y031690D01*
X003055Y031440D01*
X003180Y031440D01*
X003180Y029940D01*
X002680Y030315D02*
X002680Y029190D01*
X003430Y029190D01*
X004180Y029940D01*
X008680Y029940D01*
X008305Y030440D02*
X008305Y030690D01*
X006430Y030690D01*
X006180Y030440D01*
X006305Y029565D02*
X010180Y029565D01*
X011430Y029565D01*
X011805Y029940D01*
X012180Y029440D02*
X011930Y029190D01*
X009930Y029190D01*
X009805Y029065D01*
X008305Y030690D02*
X011555Y030690D01*
X011805Y030940D01*
X014430Y030940D01*
X014930Y030440D01*
X015180Y030440D01*
X015430Y030690D01*
X020555Y030690D01*
X020805Y030940D01*
X021555Y030940D01*
X022055Y030440D01*
X021930Y030940D02*
X021430Y031440D01*
X021180Y031440D01*
X020930Y031440D01*
X020430Y030940D01*
X014805Y030940D01*
X014555Y031190D01*
X012430Y031190D01*
X012180Y031440D01*
X011930Y031440D01*
X011430Y030940D01*
X004430Y030940D01*
X003555Y031815D01*
X002305Y030690D02*
X002680Y030315D01*
X002305Y030690D02*
X002180Y030690D01*
X002180Y032940D01*
X002180Y029940D02*
X002180Y028940D01*
X006180Y029440D02*
X006305Y029565D01*
X006180Y031440D02*
X006680Y031940D01*
X014430Y031940D01*
X014930Y031440D01*
X015180Y031440D01*
X015430Y031690D01*
X020555Y031690D01*
X020805Y031940D01*
X023430Y031940D01*
X023930Y031440D01*
X024180Y031440D01*
X024430Y031690D01*
X029555Y031690D01*
X029805Y031940D01*
X032430Y031940D01*
X032930Y031440D01*
X033180Y031440D01*
X032805Y030940D02*
X032555Y031190D01*
X030430Y031190D01*
X030180Y031440D01*
X025055Y031440D01*
X024555Y030940D01*
X021930Y030940D01*
X020930Y032440D02*
X020430Y031940D01*
X014805Y031940D01*
X014555Y032190D01*
X012430Y032190D01*
X012180Y032440D01*
X011805Y032940D02*
X014430Y032940D01*
X014930Y032440D01*
X015180Y032440D01*
X015430Y032690D01*
X020555Y032690D01*
X020805Y032940D01*
X021555Y032940D01*
X022055Y032440D01*
X024180Y032440D01*
X024430Y032690D01*
X028180Y032690D01*
X028180Y032565D01*
X028180Y032690D02*
X029555Y032690D01*
X029805Y032940D01*
X032430Y032940D01*
X032930Y032440D01*
X033180Y032440D01*
X032805Y031940D02*
X032555Y032190D01*
X030430Y032190D01*
X030180Y032440D01*
X029930Y032440D01*
X029430Y031940D01*
X023805Y031940D01*
X023555Y032190D01*
X021430Y032190D01*
X021180Y032440D01*
X020930Y032440D01*
X020555Y033690D02*
X020805Y033940D01*
X022055Y033940D01*
X022555Y033440D01*
X024180Y033440D01*
X024430Y033690D01*
X029555Y033690D01*
X029805Y033940D01*
X031055Y033940D01*
X031555Y033440D01*
X033180Y033440D01*
X032305Y034440D02*
X032805Y034940D01*
X036305Y034940D01*
X038680Y031940D02*
X032805Y031940D01*
X032305Y034440D02*
X031555Y034440D01*
X031055Y034940D01*
X023805Y034940D01*
X023305Y034440D01*
X020555Y033690D02*
X015430Y033690D01*
X015180Y033440D01*
X013555Y033440D01*
X013055Y033940D01*
X006680Y033940D01*
X006180Y033440D01*
X006430Y032690D02*
X011555Y032690D01*
X011805Y032940D01*
X013555Y034440D02*
X013805Y034440D01*
X014180Y034065D01*
X014430Y034065D01*
X014805Y034440D01*
X015180Y034440D01*
X013555Y034440D02*
X013055Y034940D01*
X006680Y034940D01*
X006180Y034440D01*
X006430Y032690D02*
X006180Y032440D01*
X013680Y027815D02*
X014430Y027815D01*
X015180Y028440D02*
X014680Y028940D01*
X014180Y024065D02*
X014305Y023940D01*
X020430Y023940D01*
X020930Y024440D01*
X021180Y024440D01*
X020680Y025190D02*
X020930Y025440D01*
X021180Y025440D01*
X022680Y024565D02*
X023305Y023940D01*
X029430Y023940D01*
X029930Y024440D01*
X030180Y024440D01*
X029180Y024815D02*
X028930Y025065D01*
X027555Y025065D01*
X027805Y023315D02*
X028805Y023315D01*
X033180Y022440D02*
X035805Y022440D01*
X035930Y022565D01*
X034805Y024440D02*
X034180Y025065D01*
X038930Y026190D02*
X039180Y026440D01*
X041180Y024940D02*
X041180Y015565D01*
X040680Y015940D02*
X040680Y017440D01*
X037055Y014440D02*
X038180Y013315D01*
X038180Y012190D01*
X038930Y012190D01*
X039680Y012940D01*
X037680Y012940D02*
X036930Y012190D01*
X030680Y012190D01*
X030680Y012065D01*
X030680Y012190D02*
X028930Y012190D01*
X028180Y012940D01*
X027805Y013440D02*
X027680Y013440D01*
X027180Y012940D01*
X027805Y013440D02*
X028055Y013690D01*
X035930Y013690D01*
X036680Y012940D01*
X037055Y014440D02*
X034555Y014440D01*
X034930Y015190D02*
X033555Y015190D01*
X033305Y015440D01*
X032555Y015440D01*
X032305Y015190D01*
X026930Y015190D01*
X026180Y015940D01*
X026555Y015190D02*
X023555Y015190D01*
X023305Y015440D01*
X021055Y015440D01*
X020930Y015315D01*
X017430Y015315D01*
X017180Y015065D01*
X012305Y015065D01*
X012305Y016190D01*
X012555Y016440D01*
X013180Y016440D01*
X013680Y016940D01*
X011680Y015690D02*
X010930Y016440D01*
X011180Y017690D02*
X022680Y017690D01*
X023305Y017065D01*
X026680Y017065D01*
X027055Y016690D01*
X027555Y016690D01*
X027680Y016690D01*
X027680Y018440D01*
X027930Y018690D01*
X030555Y018690D01*
X030805Y018940D01*
X030305Y018315D02*
X028055Y018315D01*
X028055Y016690D02*
X035930Y016690D01*
X035680Y015940D02*
X034930Y015190D01*
X031180Y017440D02*
X030305Y018315D01*
X028055Y016690D02*
X027680Y016315D01*
X027555Y016315D01*
X027180Y015940D01*
X026555Y015190D02*
X026930Y014815D01*
X027055Y013815D02*
X027680Y013815D01*
X027055Y013815D02*
X026180Y012940D01*
X025930Y012190D02*
X027555Y012190D01*
X026180Y011440D02*
X025430Y012190D01*
X023555Y012190D01*
X021055Y014690D01*
X020805Y015565D02*
X017180Y015565D01*
X016680Y013940D02*
X016680Y012940D01*
X015680Y012940D02*
X015680Y013940D01*
X017680Y013940D02*
X017680Y012940D01*
X018680Y012940D02*
X018680Y013940D01*
X019680Y013940D02*
X019680Y012940D01*
X020805Y015565D02*
X021430Y016190D01*
X024180Y012940D02*
X024930Y013690D01*
X025805Y013690D01*
X025180Y012940D02*
X025930Y012190D01*
X024555Y010690D02*
X024305Y010940D01*
X023805Y010940D01*
X024555Y010690D02*
X028430Y010690D01*
X029180Y011440D01*
X030430Y009940D02*
X025680Y009940D01*
X026680Y008815D02*
X026680Y006440D01*
X029180Y006440D01*
X029680Y005940D01*
X030180Y005440D01*
X030180Y004565D01*
X030430Y004315D01*
X030430Y003440D01*
X030305Y003440D01*
X029680Y002815D01*
X029680Y001940D01*
X028680Y001940D02*
X028680Y003815D01*
X029055Y003815D01*
X030055Y004190D02*
X017555Y004190D01*
X017305Y004440D01*
X017180Y004815D02*
X016930Y004565D01*
X016930Y004315D01*
X017305Y003940D01*
X017680Y003940D01*
X017680Y001940D01*
X016680Y001940D02*
X016680Y002690D01*
X016180Y003190D01*
X016180Y005440D01*
X016680Y005940D01*
X017180Y005940D02*
X017680Y005940D01*
X017180Y005940D02*
X017180Y004815D01*
X018305Y003815D02*
X018680Y003815D01*
X018680Y001940D01*
X019680Y001940D02*
X019680Y002690D01*
X019180Y003190D01*
X019180Y003440D01*
X020680Y002690D02*
X020680Y001940D01*
X020680Y002690D02*
X021180Y003190D01*
X021180Y003440D01*
X021680Y003815D02*
X022055Y003815D01*
X021680Y003815D02*
X021680Y001940D01*
X022680Y001940D02*
X022680Y003815D01*
X023055Y003815D01*
X022180Y004440D02*
X021680Y004940D01*
X022180Y004440D02*
X025180Y004440D01*
X025180Y007690D01*
X021555Y007690D01*
X021180Y008065D01*
X021180Y010190D01*
X016430Y010190D01*
X015930Y010690D01*
X013055Y010690D01*
X012805Y010940D01*
X012305Y010940D01*
X011930Y010440D02*
X011930Y012190D01*
X011930Y010440D02*
X012555Y009815D01*
X010805Y009690D02*
X010430Y009690D01*
X009180Y008440D01*
X008180Y007440D01*
X006680Y007065D02*
X012930Y007065D01*
X012180Y006315D02*
X012180Y004815D01*
X011805Y004440D01*
X002180Y004440D01*
X001805Y004690D02*
X001805Y003815D01*
X002680Y003815D01*
X003680Y002815D01*
X003680Y001940D01*
X002680Y001940D02*
X002680Y002690D01*
X002180Y003190D01*
X002180Y003440D01*
X001805Y004690D02*
X002555Y005440D01*
X003180Y005440D01*
X003680Y005940D01*
X001680Y007940D01*
X001680Y009815D01*
X005680Y009815D01*
X006680Y008815D01*
X006680Y007065D01*
X006180Y005565D02*
X006305Y005440D01*
X011180Y005440D01*
X011680Y005940D01*
X011180Y006315D02*
X011055Y006440D01*
X004180Y006440D01*
X004180Y008440D01*
X004680Y008815D02*
X004680Y006690D01*
X021805Y006690D01*
X022555Y005940D01*
X022680Y005940D01*
X023180Y005815D02*
X022805Y005440D01*
X021180Y005440D01*
X021180Y006065D01*
X020805Y006440D01*
X016180Y006440D01*
X015680Y005940D01*
X015180Y005440D01*
X015180Y003190D01*
X015680Y002690D01*
X015680Y001940D01*
X014680Y001940D02*
X014680Y002690D01*
X014180Y003190D01*
X014180Y005440D01*
X014680Y005940D01*
X013680Y005940D02*
X013180Y005440D01*
X013180Y003815D01*
X013305Y003815D01*
X013680Y003440D01*
X013680Y001940D01*
X012680Y001940D02*
X012680Y002690D01*
X013180Y003190D01*
X013180Y003440D01*
X012055Y003940D02*
X011680Y003940D01*
X011680Y001940D01*
X010680Y001940D02*
X010680Y003815D01*
X011055Y003815D01*
X010055Y003815D02*
X009680Y003815D01*
X009680Y001940D01*
X008680Y001940D02*
X008680Y003815D01*
X009055Y003815D01*
X008180Y003440D02*
X008180Y003190D01*
X007680Y002690D01*
X007680Y001940D01*
X006680Y001940D02*
X006680Y002690D01*
X007180Y003190D01*
X007180Y003440D01*
X006180Y003440D02*
X006180Y003190D01*
X005680Y002690D01*
X005680Y001940D01*
X004680Y001940D02*
X004680Y002690D01*
X005180Y003190D01*
X005180Y003440D01*
X005180Y008440D02*
X005180Y009440D01*
X002680Y009440D01*
X002930Y009190D02*
X004305Y009190D01*
X004680Y008815D01*
X002930Y009190D02*
X002180Y008440D01*
X006180Y010065D02*
X010180Y010065D01*
X007180Y010315D02*
X007180Y011440D01*
X002680Y012940D02*
X002680Y013940D01*
X006805Y015440D02*
X009180Y015440D01*
X007180Y016565D02*
X007180Y017815D01*
X007680Y017815D01*
X007180Y016565D02*
X006680Y016065D01*
X011055Y017815D02*
X011180Y017690D01*
X012430Y020190D02*
X012180Y020440D01*
X015305Y012190D02*
X015180Y012065D01*
X016805Y010565D02*
X016930Y010440D01*
X022055Y010440D01*
X020805Y009690D02*
X015805Y009690D01*
X015180Y009065D01*
X016180Y009315D02*
X016180Y006940D01*
X022055Y006940D01*
X023180Y007315D02*
X023180Y005815D01*
X025180Y007690D02*
X025180Y008440D01*
X026680Y008815D02*
X027305Y009440D01*
X030180Y009440D01*
X031180Y008440D01*
X030680Y009690D02*
X030430Y009940D01*
X030680Y009690D02*
X035430Y009690D01*
X035680Y009440D01*
X035680Y008440D02*
X037805Y010565D01*
X037555Y009440D02*
X036055Y007940D01*
X035305Y007940D01*
X035055Y007690D01*
X028680Y007690D01*
X028680Y009065D01*
X028180Y008440D02*
X028180Y007440D01*
X027680Y007440D01*
X028055Y007065D02*
X028180Y006940D01*
X036305Y006940D01*
X037055Y004815D02*
X037055Y003690D01*
X033430Y003690D01*
X033305Y003815D01*
X032180Y003815D01*
X031680Y003815D02*
X031555Y003815D01*
X031680Y003815D02*
X031680Y001940D01*
X032680Y001940D02*
X032680Y002690D01*
X033180Y003190D01*
X033180Y003440D01*
X033805Y004065D02*
X033680Y004190D01*
X030680Y004190D01*
X030680Y001940D01*
X028055Y003815D02*
X027680Y003815D01*
X027680Y001940D01*
X026680Y001940D02*
X026680Y003815D01*
X027055Y003815D01*
X026055Y003815D02*
X025680Y003815D01*
X025680Y001940D01*
X024680Y001940D02*
X024680Y003815D01*
X025055Y003815D01*
X024180Y003440D02*
X024180Y003190D01*
X023680Y002690D01*
X023680Y001940D01*
X030680Y005940D02*
X031305Y006565D01*
X033180Y006565D01*
X037055Y004815D02*
X038680Y006440D01*
X038680Y005440D02*
X041180Y007940D01*
X041180Y008440D01*
X041930Y008440D01*
X042180Y008690D01*
X042180Y010940D01*
X036180Y010940D01*
X035680Y010440D01*
X033180Y010690D02*
X032555Y010065D01*
X038930Y022190D02*
X039180Y022440D01*
X028805Y027815D02*
X027555Y027815D01*
D19*
X027555Y027815D03*
X028805Y027815D03*
X027555Y025065D03*
X026680Y024440D03*
X026180Y023565D03*
X027805Y023315D03*
X028805Y023315D03*
X029180Y024815D03*
X034180Y025065D03*
X036055Y024940D03*
X038055Y025815D03*
X035930Y022565D03*
X036305Y019065D03*
X035555Y017065D03*
X033680Y018315D03*
X032930Y017815D03*
X032555Y017440D03*
X033180Y017065D03*
X031930Y017440D03*
X030805Y018940D03*
X028055Y018315D03*
X027555Y016690D03*
X026930Y014815D03*
X027680Y013815D03*
X027555Y012190D03*
X025805Y013690D03*
X024055Y014815D03*
X021805Y015815D03*
X021430Y016190D03*
X021055Y014690D03*
X021305Y013940D03*
X023805Y010940D03*
X025680Y009940D03*
X028680Y009065D03*
X027680Y007440D03*
X028055Y007065D03*
X030055Y004190D03*
X029055Y003815D03*
X028055Y003815D03*
X027055Y003815D03*
X026055Y003815D03*
X025055Y003815D03*
X024180Y003440D03*
X023055Y003815D03*
X022055Y003815D03*
X021180Y003440D03*
X019180Y003440D03*
X018305Y003815D03*
X017305Y004440D03*
X013180Y003440D03*
X012055Y003940D03*
X011055Y003815D03*
X010055Y003815D03*
X009055Y003815D03*
X008180Y003440D03*
X007180Y003440D03*
X006180Y003440D03*
X005180Y003440D03*
X006180Y005565D03*
X008180Y007440D03*
X011180Y006315D03*
X012180Y006315D03*
X012930Y007065D03*
X015180Y009065D03*
X016180Y009315D03*
X015805Y010315D03*
X016805Y010565D03*
X015180Y012065D03*
X013305Y012190D03*
X012305Y010940D03*
X012555Y009815D03*
X010680Y010065D03*
X010180Y010065D03*
X010555Y010690D03*
X008680Y012065D03*
X007555Y010690D03*
X006180Y010065D03*
X006680Y012065D03*
X008180Y014565D03*
X009180Y015440D03*
X010930Y016440D03*
X011680Y015690D03*
X012680Y016065D03*
X012680Y016815D03*
X012305Y018440D03*
X011430Y018190D03*
X011055Y017815D03*
X010305Y018190D03*
X009930Y018565D03*
X009180Y019315D03*
X008680Y018940D03*
X009055Y019940D03*
X007180Y018565D03*
X006805Y018940D03*
X007680Y017815D03*
X006680Y016065D03*
X006805Y015440D03*
X005055Y014690D03*
X002180Y016315D03*
X005555Y017940D03*
X010930Y020940D03*
X010930Y021940D03*
X011305Y023565D03*
X010930Y024940D03*
X013055Y024565D03*
X013805Y025065D03*
X013430Y025940D03*
X014180Y024065D03*
X011305Y027440D03*
X010930Y028440D03*
X010555Y028815D03*
X009805Y029065D03*
X010180Y029565D03*
X008680Y029940D03*
X008305Y030440D03*
X007930Y027815D03*
X006930Y028065D03*
X008555Y025940D03*
X009430Y026815D03*
X009555Y027440D03*
X013680Y027815D03*
X014430Y027815D03*
X014305Y034440D03*
X023305Y034440D03*
X028180Y032565D03*
X024930Y029815D03*
X022680Y024565D03*
X024180Y018565D03*
X023305Y017565D03*
X020555Y018315D03*
X020055Y018065D03*
X017180Y015565D03*
X017180Y015065D03*
X015680Y018065D03*
X014555Y018065D03*
X013430Y018565D03*
X011680Y014565D03*
X011680Y013940D03*
X002680Y012065D03*
X002680Y009440D03*
X002180Y004440D03*
X002180Y003440D03*
X020805Y009690D03*
X023180Y007315D03*
X022055Y006940D03*
X030680Y012065D03*
X032680Y010815D03*
X032555Y010065D03*
X036305Y006940D03*
X034180Y005065D03*
X033805Y004065D03*
X033180Y003440D03*
X032180Y003815D03*
X031555Y003815D03*
X033180Y006565D03*
X037555Y009440D03*
X037805Y010565D03*
X039180Y013565D03*
X039180Y014565D03*
X040680Y014190D03*
X039055Y018190D03*
X034680Y014065D03*
X033555Y014815D03*
X031805Y015565D03*
X029805Y014065D03*
X029430Y014815D03*
X036805Y033940D03*
X035805Y034565D03*
X036305Y034940D03*
X003555Y031815D03*
X002055Y026690D03*
D20*
X009180Y019440D02*
X009680Y019940D01*
X012680Y019940D01*
X012930Y019690D01*
X014930Y019690D01*
X015180Y019440D01*
X015180Y019565D01*
X015805Y019565D01*
X016180Y019940D01*
X022680Y019940D01*
X022930Y019690D01*
X023930Y019690D01*
X024180Y019440D01*
X024180Y018565D02*
X024180Y017440D01*
X023430Y017440D01*
X023305Y017565D01*
X023305Y016815D02*
X020805Y016815D01*
X020680Y016940D01*
X019680Y016940D01*
X018680Y016940D01*
X017680Y016940D01*
X016680Y016940D01*
X015680Y016940D01*
X014680Y016940D01*
X013805Y016065D01*
X012680Y016065D01*
X012680Y016815D02*
X012555Y016940D01*
X009680Y016940D01*
X008680Y016940D01*
X008180Y016940D01*
X008180Y018315D01*
X007555Y018315D01*
X007305Y018065D01*
X007055Y018065D01*
X005930Y016940D01*
X005680Y016940D01*
X004680Y016940D01*
X003680Y016940D01*
X002680Y016940D01*
X001680Y016940D01*
X001680Y011440D01*
X001180Y011440D01*
X001680Y011440D02*
X002180Y011440D01*
X002680Y010940D02*
X002680Y012065D01*
X002680Y010940D02*
X002430Y010690D01*
X001430Y010690D01*
X001180Y010440D01*
X005930Y016940D02*
X006680Y016940D01*
X007680Y016940D02*
X008180Y016940D01*
X005555Y017940D02*
X002180Y017940D01*
X001680Y018440D01*
X006180Y019440D02*
X009055Y019440D01*
X009180Y019315D01*
X009180Y019440D01*
X012680Y011440D02*
X013680Y011440D01*
X012680Y010440D02*
X012993Y010128D01*
X013180Y010315D01*
X015805Y010315D01*
X015680Y011440D02*
X016680Y011440D01*
X017680Y011440D01*
X018680Y011440D01*
X019680Y011440D01*
X020680Y011440D01*
X021430Y010690D01*
X023430Y010690D01*
X023680Y010440D01*
X024180Y010440D01*
X024180Y011440D02*
X025180Y011440D01*
X026055Y009690D02*
X025555Y009190D01*
X023430Y009190D01*
X022680Y008440D01*
X026055Y009690D02*
X030305Y009690D01*
X030555Y009440D01*
X033180Y009440D01*
X034180Y008440D01*
X035680Y007440D02*
X035930Y007690D01*
X036805Y007690D01*
X036805Y006565D01*
X036180Y005940D01*
X034430Y005940D01*
X033930Y005440D01*
X031180Y005440D01*
X030680Y004940D01*
X032680Y004940D02*
X034180Y004940D01*
X034180Y005065D01*
X034180Y004940D02*
X035180Y004940D01*
X035680Y004440D01*
X038680Y007440D02*
X038680Y007940D01*
X039680Y007940D01*
X038680Y007940D02*
X038680Y008440D01*
X038180Y008940D02*
X039680Y008940D01*
X041680Y008940D01*
X038180Y008940D02*
X036930Y007690D01*
X036805Y007690D01*
X033555Y014815D02*
X032805Y014815D01*
X032680Y014940D01*
X031805Y015565D02*
X032180Y015940D01*
X032680Y015940D01*
X031930Y017440D02*
X032430Y017940D01*
X032805Y017940D01*
X032930Y017815D01*
X036305Y017815D01*
X036680Y017440D01*
X039055Y018190D02*
X033805Y018190D01*
X033680Y018315D01*
X031805Y018315D01*
X031680Y018440D01*
X027180Y017440D02*
X024180Y017440D01*
X023305Y016815D02*
X024180Y015940D01*
X023180Y015940D02*
X023055Y015815D01*
X021805Y015815D01*
X023180Y014940D02*
X023305Y014815D01*
X024055Y014815D01*
X013680Y008440D02*
X013055Y008440D01*
X013055Y010065D01*
X012993Y010128D01*
X013055Y008440D02*
X011180Y008440D01*
X038055Y025815D02*
X038180Y025940D01*
X040430Y025940D01*
X041180Y026690D01*
X040680Y033940D02*
X039680Y033940D01*
X039618Y034003D01*
X039555Y033940D01*
X036805Y033940D01*
X031680Y033940D01*
X031430Y034190D01*
X030430Y034190D01*
X030180Y034440D01*
X030180Y034315D01*
X029805Y034315D01*
X029430Y033940D01*
X022680Y033940D01*
X022430Y034190D01*
X021430Y034190D01*
X021180Y034440D01*
X021180Y034315D01*
X020805Y034315D01*
X020430Y033940D01*
X014680Y033940D01*
X014555Y033815D01*
X013805Y033815D01*
X013680Y033940D01*
X013430Y034190D01*
X012430Y034190D01*
X012180Y034440D01*
X013680Y034940D02*
X014305Y034940D01*
X014305Y034440D01*
X014305Y034940D02*
X022680Y034940D01*
X035805Y034565D02*
X035930Y034440D01*
X038180Y034440D01*
X038680Y034940D01*
X040680Y034940D01*
X039618Y034003D02*
X039180Y034440D01*
D21*
X039524Y034860D02*
X038836Y034860D01*
X038682Y034796D01*
X038564Y034678D01*
X038500Y034524D01*
X038500Y034356D01*
X038564Y034202D01*
X038566Y034200D01*
X037054Y034200D01*
X037009Y034245D01*
X036877Y034300D01*
X036733Y034300D01*
X036601Y034245D01*
X036556Y034200D01*
X033794Y034200D01*
X033796Y034202D01*
X033860Y034356D01*
X033860Y034524D01*
X033796Y034678D01*
X033744Y034730D01*
X036006Y034730D01*
X036101Y034635D01*
X036233Y034580D01*
X036377Y034580D01*
X036509Y034635D01*
X036610Y034736D01*
X036665Y034868D01*
X036665Y035012D01*
X036610Y035144D01*
X036598Y035156D01*
X040274Y035156D01*
X040240Y035122D01*
X040240Y034940D01*
X040680Y034940D01*
X041120Y034940D01*
X041120Y035122D01*
X041086Y035156D01*
X042400Y035156D01*
X042400Y004440D01*
X039360Y004440D01*
X039360Y004524D01*
X039296Y004678D01*
X039178Y004796D01*
X039024Y004860D01*
X038336Y004860D01*
X038182Y004796D01*
X038064Y004678D01*
X038000Y004524D01*
X038000Y004440D01*
X037265Y004440D01*
X037265Y004728D01*
X038000Y005463D01*
X038000Y005463D01*
X038000Y005356D01*
X038064Y005202D01*
X038182Y005084D01*
X038336Y005020D01*
X039024Y005020D01*
X039178Y005084D01*
X039296Y005202D01*
X039360Y005356D01*
X039360Y005524D01*
X039296Y005678D01*
X039255Y005718D01*
X041228Y007691D01*
X041475Y007445D01*
X041680Y007445D01*
X041885Y007445D01*
X042175Y007735D01*
X042175Y007940D01*
X042175Y008145D01*
X042054Y008267D01*
X042267Y008480D01*
X042390Y008603D01*
X042390Y011027D01*
X042267Y011150D01*
X036093Y011150D01*
X035803Y010860D01*
X035522Y010860D01*
X036392Y011730D01*
X039642Y011730D01*
X040328Y012416D01*
X040344Y012393D01*
X040393Y012344D01*
X040449Y012304D01*
X040511Y012272D01*
X040577Y012251D01*
X040645Y012240D01*
X040680Y012240D01*
X040715Y012240D01*
X040783Y012251D01*
X040849Y012272D01*
X040911Y012304D01*
X040967Y012344D01*
X041016Y012393D01*
X041056Y012449D01*
X041088Y012511D01*
X041109Y012577D01*
X041120Y012645D01*
X041120Y012940D01*
X041120Y013235D01*
X041109Y013303D01*
X041088Y013369D01*
X041056Y013431D01*
X041016Y013487D01*
X040967Y013536D01*
X040911Y013576D01*
X040849Y013608D01*
X040783Y013629D01*
X040715Y013640D01*
X040680Y013640D01*
X040680Y012940D01*
X040680Y012940D01*
X041120Y012940D01*
X040680Y012940D01*
X040680Y012940D01*
X040680Y013640D01*
X040645Y013640D01*
X040577Y013629D01*
X040511Y013608D01*
X040449Y013576D01*
X040393Y013536D01*
X040390Y013532D01*
X040390Y013971D01*
X040476Y013885D01*
X040608Y013830D01*
X040752Y013830D01*
X040884Y013885D01*
X040985Y013986D01*
X041040Y014118D01*
X041040Y014262D01*
X040985Y014394D01*
X040884Y014495D01*
X040752Y014550D01*
X040608Y014550D01*
X040476Y014495D01*
X040381Y014400D01*
X040312Y014400D01*
X041267Y015355D01*
X041390Y015478D01*
X041390Y025027D01*
X041267Y025150D01*
X039744Y025150D01*
X039796Y025202D01*
X039860Y025356D01*
X039860Y025524D01*
X039796Y025678D01*
X039678Y025796D01*
X039524Y025860D01*
X038836Y025860D01*
X038682Y025796D01*
X038564Y025678D01*
X038552Y025650D01*
X033968Y025650D01*
X033855Y025537D01*
X033796Y025678D01*
X033693Y025781D01*
X033765Y025853D01*
X033892Y025980D01*
X039017Y025980D01*
X039057Y026020D01*
X039524Y026020D01*
X039678Y026084D01*
X039796Y026202D01*
X039860Y026356D01*
X039860Y026524D01*
X039796Y026678D01*
X039678Y026796D01*
X039524Y026860D01*
X038897Y026860D01*
X039057Y027020D01*
X039524Y027020D01*
X039678Y027084D01*
X039796Y027202D01*
X039860Y027356D01*
X039860Y027524D01*
X039796Y027678D01*
X039678Y027796D01*
X039524Y027860D01*
X038897Y027860D01*
X039057Y028020D01*
X039524Y028020D01*
X039678Y028084D01*
X039796Y028202D01*
X039860Y028356D01*
X039860Y028524D01*
X039796Y028678D01*
X039678Y028796D01*
X039524Y028860D01*
X038897Y028860D01*
X039057Y029020D01*
X039524Y029020D01*
X039678Y029084D01*
X039796Y029202D01*
X039860Y029356D01*
X039860Y029524D01*
X039796Y029678D01*
X039678Y029796D01*
X039524Y029860D01*
X038897Y029860D01*
X039057Y030020D01*
X039524Y030020D01*
X039678Y030084D01*
X039796Y030202D01*
X039860Y030356D01*
X039860Y030524D01*
X039796Y030678D01*
X039678Y030796D01*
X039524Y030860D01*
X038897Y030860D01*
X039057Y031020D01*
X039524Y031020D01*
X039678Y031084D01*
X039796Y031202D01*
X039860Y031356D01*
X039860Y031524D01*
X039796Y031678D01*
X039678Y031796D01*
X039524Y031860D01*
X038897Y031860D01*
X039057Y032020D01*
X039524Y032020D01*
X039678Y032084D01*
X039796Y032202D01*
X039860Y032356D01*
X039860Y032524D01*
X039796Y032678D01*
X039678Y032796D01*
X039524Y032860D01*
X038897Y032860D01*
X039057Y033020D01*
X039524Y033020D01*
X039678Y033084D01*
X039796Y033202D01*
X039860Y033356D01*
X039860Y033524D01*
X039796Y033678D01*
X039794Y033680D01*
X040346Y033680D01*
X040506Y033520D01*
X040854Y033520D01*
X041100Y033766D01*
X041100Y034114D01*
X040854Y034360D01*
X040506Y034360D01*
X040346Y034200D01*
X039794Y034200D01*
X039796Y034202D01*
X039860Y034356D01*
X039860Y034524D01*
X039796Y034678D01*
X039678Y034796D01*
X039524Y034860D01*
X039688Y034786D02*
X040240Y034786D01*
X040240Y034758D02*
X040498Y034500D01*
X040680Y034500D01*
X040862Y034500D01*
X041120Y034758D01*
X041120Y034940D01*
X040680Y034940D01*
X040680Y034940D01*
X040680Y034500D01*
X040680Y034940D01*
X040680Y034940D01*
X040680Y034940D01*
X040240Y034940D01*
X040240Y034758D01*
X040371Y034627D02*
X039817Y034627D01*
X039860Y034469D02*
X042400Y034469D01*
X042400Y034627D02*
X040989Y034627D01*
X041120Y034786D02*
X042400Y034786D01*
X042400Y034944D02*
X041120Y034944D01*
X041120Y035103D02*
X042400Y035103D01*
X042400Y034310D02*
X040904Y034310D01*
X041062Y034152D02*
X042400Y034152D01*
X042400Y033993D02*
X041100Y033993D01*
X041100Y033835D02*
X042400Y033835D01*
X042400Y033676D02*
X041010Y033676D01*
X040350Y033676D02*
X039797Y033676D01*
X039860Y033518D02*
X042400Y033518D01*
X042400Y033359D02*
X039860Y033359D01*
X039795Y033201D02*
X042400Y033201D01*
X042400Y033042D02*
X039577Y033042D01*
X039749Y032725D02*
X042400Y032725D01*
X042400Y032567D02*
X039842Y032567D01*
X039860Y032408D02*
X042400Y032408D01*
X042400Y032250D02*
X039816Y032250D01*
X039685Y032091D02*
X042400Y032091D01*
X042400Y031933D02*
X038970Y031933D01*
X039700Y031774D02*
X042400Y031774D01*
X042400Y031616D02*
X039822Y031616D01*
X039860Y031457D02*
X042400Y031457D01*
X042400Y031299D02*
X039836Y031299D01*
X039734Y031140D02*
X042400Y031140D01*
X042400Y030982D02*
X039019Y030982D01*
X039613Y030823D02*
X042400Y030823D01*
X042400Y030665D02*
X039802Y030665D01*
X039860Y030506D02*
X042400Y030506D01*
X042400Y030348D02*
X039856Y030348D01*
X039783Y030189D02*
X042400Y030189D01*
X042400Y030031D02*
X039549Y030031D01*
X039760Y029714D02*
X042400Y029714D01*
X042400Y029872D02*
X038909Y029872D01*
X038958Y028921D02*
X042400Y028921D01*
X042400Y028763D02*
X039711Y028763D01*
X039827Y028604D02*
X042400Y028604D01*
X042400Y028446D02*
X039860Y028446D01*
X039831Y028287D02*
X042400Y028287D01*
X042400Y028129D02*
X039723Y028129D01*
X039641Y027812D02*
X042400Y027812D01*
X042400Y027970D02*
X039007Y027970D01*
X039806Y027653D02*
X042400Y027653D01*
X042400Y027495D02*
X039860Y027495D01*
X039852Y027336D02*
X042400Y027336D01*
X042400Y027178D02*
X039772Y027178D01*
X039056Y027019D02*
X042400Y027019D01*
X042400Y026861D02*
X038898Y026861D01*
X039772Y026702D02*
X042400Y026702D01*
X042400Y026544D02*
X039852Y026544D01*
X039860Y026385D02*
X042400Y026385D01*
X042400Y026227D02*
X039806Y026227D01*
X039640Y026068D02*
X042400Y026068D01*
X042400Y025910D02*
X033822Y025910D01*
X033723Y025751D02*
X038637Y025751D01*
X039723Y025751D02*
X042400Y025751D01*
X042400Y025593D02*
X039831Y025593D01*
X039860Y025434D02*
X042400Y025434D01*
X042400Y025276D02*
X039826Y025276D01*
X041300Y025117D02*
X042400Y025117D01*
X042400Y024959D02*
X041390Y024959D01*
X041390Y024800D02*
X042400Y024800D01*
X042400Y024642D02*
X041390Y024642D01*
X041390Y024483D02*
X042400Y024483D01*
X042400Y024325D02*
X041390Y024325D01*
X041390Y024166D02*
X042400Y024166D01*
X042400Y024008D02*
X041390Y024008D01*
X041390Y023849D02*
X042400Y023849D01*
X042400Y023691D02*
X041390Y023691D01*
X041390Y023532D02*
X042400Y023532D01*
X042400Y023374D02*
X041390Y023374D01*
X041390Y023215D02*
X042400Y023215D01*
X042400Y023057D02*
X041390Y023057D01*
X041390Y022898D02*
X042400Y022898D01*
X042400Y022740D02*
X041390Y022740D01*
X041390Y022581D02*
X042400Y022581D01*
X042400Y022423D02*
X041390Y022423D01*
X041390Y022264D02*
X042400Y022264D01*
X042400Y022106D02*
X041390Y022106D01*
X041390Y021947D02*
X042400Y021947D01*
X042400Y021789D02*
X041390Y021789D01*
X041390Y021630D02*
X042400Y021630D01*
X042400Y021472D02*
X041390Y021472D01*
X041390Y021313D02*
X042400Y021313D01*
X042400Y021155D02*
X041390Y021155D01*
X041390Y020996D02*
X042400Y020996D01*
X042400Y020838D02*
X041390Y020838D01*
X041390Y020679D02*
X042400Y020679D01*
X042400Y020521D02*
X041390Y020521D01*
X041390Y020362D02*
X042400Y020362D01*
X042400Y020204D02*
X041390Y020204D01*
X041390Y020045D02*
X042400Y020045D01*
X042400Y019887D02*
X041390Y019887D01*
X041390Y019728D02*
X042400Y019728D01*
X042400Y019570D02*
X041390Y019570D01*
X041390Y019411D02*
X042400Y019411D01*
X042400Y019253D02*
X041390Y019253D01*
X041390Y019094D02*
X042400Y019094D01*
X042400Y018936D02*
X041390Y018936D01*
X041390Y018777D02*
X042400Y018777D01*
X042400Y018619D02*
X041390Y018619D01*
X041390Y018460D02*
X042400Y018460D01*
X042400Y018302D02*
X041390Y018302D01*
X041390Y018143D02*
X042400Y018143D01*
X042400Y017985D02*
X041390Y017985D01*
X041390Y017826D02*
X042400Y017826D01*
X042400Y017668D02*
X041390Y017668D01*
X041390Y017509D02*
X042400Y017509D01*
X042400Y017351D02*
X041390Y017351D01*
X041390Y017192D02*
X042400Y017192D01*
X042400Y017034D02*
X041390Y017034D01*
X041390Y016875D02*
X042400Y016875D01*
X042400Y016717D02*
X041390Y016717D01*
X041390Y016558D02*
X042400Y016558D01*
X042400Y016400D02*
X041390Y016400D01*
X041390Y016241D02*
X042400Y016241D01*
X042400Y016083D02*
X041390Y016083D01*
X041390Y015924D02*
X042400Y015924D01*
X042400Y015766D02*
X041390Y015766D01*
X041390Y015607D02*
X042400Y015607D01*
X042400Y015449D02*
X041361Y015449D01*
X041202Y015290D02*
X042400Y015290D01*
X042400Y015132D02*
X041044Y015132D01*
X040885Y014973D02*
X042400Y014973D01*
X042400Y014815D02*
X040727Y014815D01*
X040568Y014656D02*
X042400Y014656D01*
X042400Y014498D02*
X040878Y014498D01*
X041008Y014339D02*
X042400Y014339D01*
X042400Y014181D02*
X041040Y014181D01*
X041000Y014022D02*
X042400Y014022D01*
X042400Y013864D02*
X040833Y013864D01*
X040527Y013864D02*
X040390Y013864D01*
X040390Y013705D02*
X042400Y013705D01*
X042400Y013547D02*
X040952Y013547D01*
X041078Y013388D02*
X042400Y013388D01*
X042400Y013230D02*
X041120Y013230D01*
X041120Y013071D02*
X042400Y013071D01*
X042400Y012913D02*
X041120Y012913D01*
X041120Y012754D02*
X042400Y012754D01*
X042400Y012596D02*
X041112Y012596D01*
X041047Y012437D02*
X042400Y012437D01*
X042400Y012279D02*
X040861Y012279D01*
X040680Y012279D02*
X040680Y012279D01*
X040680Y012240D02*
X040680Y012940D01*
X040680Y012940D01*
X040680Y012240D01*
X040499Y012279D02*
X040191Y012279D01*
X040032Y012120D02*
X042400Y012120D01*
X042400Y011962D02*
X039874Y011962D01*
X039715Y011803D02*
X042400Y011803D01*
X042400Y011645D02*
X036307Y011645D01*
X036148Y011486D02*
X042400Y011486D01*
X042400Y011328D02*
X035990Y011328D01*
X035831Y011169D02*
X042400Y011169D01*
X042390Y011011D02*
X042400Y011011D01*
X042390Y010852D02*
X042400Y010852D01*
X042390Y010694D02*
X042400Y010694D01*
X042390Y010535D02*
X042400Y010535D01*
X042390Y010377D02*
X042400Y010377D01*
X042390Y010218D02*
X042400Y010218D01*
X042390Y010060D02*
X042400Y010060D01*
X042390Y009901D02*
X042400Y009901D01*
X042390Y009743D02*
X042400Y009743D01*
X042390Y009584D02*
X042400Y009584D01*
X042390Y009426D02*
X042400Y009426D01*
X042390Y009267D02*
X042400Y009267D01*
X042390Y009109D02*
X042400Y009109D01*
X042390Y008950D02*
X042400Y008950D01*
X042390Y008792D02*
X042400Y008792D01*
X042390Y008633D02*
X042400Y008633D01*
X042400Y008475D02*
X042261Y008475D01*
X042400Y008316D02*
X042103Y008316D01*
X042163Y008158D02*
X042400Y008158D01*
X042400Y007999D02*
X042175Y007999D01*
X042175Y007940D02*
X041680Y007940D01*
X041680Y007940D01*
X042175Y007940D01*
X042175Y007841D02*
X042400Y007841D01*
X042400Y007682D02*
X042122Y007682D01*
X041964Y007524D02*
X042400Y007524D01*
X042400Y007365D02*
X040902Y007365D01*
X040743Y007207D02*
X042400Y007207D01*
X042400Y007048D02*
X040585Y007048D01*
X040426Y006890D02*
X042400Y006890D01*
X042400Y006731D02*
X040268Y006731D01*
X040109Y006573D02*
X042400Y006573D01*
X042400Y006414D02*
X039951Y006414D01*
X039792Y006256D02*
X042400Y006256D01*
X042400Y006097D02*
X039634Y006097D01*
X039475Y005939D02*
X042400Y005939D01*
X042400Y005780D02*
X039317Y005780D01*
X039319Y005622D02*
X042400Y005622D01*
X042400Y005463D02*
X039360Y005463D01*
X039338Y005305D02*
X042400Y005305D01*
X042400Y005146D02*
X039240Y005146D01*
X039098Y004829D02*
X042400Y004829D01*
X042400Y004671D02*
X039299Y004671D01*
X039360Y004512D02*
X042400Y004512D01*
X042400Y004988D02*
X037524Y004988D01*
X037366Y004829D02*
X038262Y004829D01*
X038061Y004671D02*
X037265Y004671D01*
X037265Y004512D02*
X038000Y004512D01*
X038120Y005146D02*
X037683Y005146D01*
X037841Y005305D02*
X038022Y005305D01*
X037565Y005622D02*
X036319Y005622D01*
X036296Y005678D02*
X036276Y005698D01*
X036327Y005720D01*
X036952Y006345D01*
X037025Y006418D01*
X037065Y006513D01*
X037065Y007464D01*
X037077Y007470D01*
X037985Y008377D01*
X037991Y008337D01*
X038012Y008271D01*
X038044Y008209D01*
X038084Y008153D01*
X038133Y008104D01*
X038189Y008064D01*
X038251Y008032D01*
X038317Y008011D01*
X038385Y008000D01*
X038680Y008000D01*
X038975Y008000D01*
X039043Y008011D01*
X039109Y008032D01*
X039171Y008064D01*
X039227Y008104D01*
X039240Y008118D01*
X039240Y007940D01*
X039680Y007940D01*
X039680Y007940D01*
X039680Y008380D01*
X039862Y008380D01*
X040120Y008122D01*
X040120Y007940D01*
X039680Y007940D01*
X039680Y007940D01*
X039680Y008380D01*
X039498Y008380D01*
X039288Y008170D01*
X039316Y008209D01*
X039348Y008271D01*
X039369Y008337D01*
X039380Y008405D01*
X039380Y008440D01*
X039380Y008475D01*
X039369Y008543D01*
X039348Y008609D01*
X039316Y008671D01*
X039309Y008680D01*
X039346Y008680D01*
X039506Y008520D01*
X039854Y008520D01*
X040014Y008680D01*
X041274Y008680D01*
X041277Y008671D01*
X041298Y008650D01*
X041093Y008650D01*
X040970Y008527D01*
X040970Y008027D01*
X039360Y006417D01*
X039360Y006524D01*
X039296Y006678D01*
X039178Y006796D01*
X039024Y006860D01*
X038336Y006860D01*
X038182Y006796D01*
X038064Y006678D01*
X038000Y006524D01*
X038000Y006356D01*
X038064Y006202D01*
X038105Y006162D01*
X036968Y005025D01*
X036845Y004902D01*
X036845Y004440D01*
X035680Y004440D01*
X035680Y004440D01*
X035680Y004880D01*
X035975Y004880D01*
X036043Y004869D01*
X036109Y004848D01*
X036171Y004816D01*
X036227Y004776D01*
X036276Y004727D01*
X036316Y004671D01*
X036348Y004609D01*
X036369Y004543D01*
X036380Y004475D01*
X036380Y004440D01*
X035680Y004440D01*
X035680Y004440D01*
X030602Y004440D01*
X030562Y004480D01*
X030871Y004480D01*
X031140Y004749D01*
X031140Y005032D01*
X031220Y005112D01*
X031220Y004749D01*
X031489Y004480D01*
X031871Y004480D01*
X032140Y004749D01*
X032140Y005131D01*
X032091Y005180D01*
X032241Y005180D01*
X032200Y005139D01*
X032200Y004960D01*
X032660Y004960D01*
X032660Y004920D01*
X032700Y004920D01*
X032700Y004960D01*
X033160Y004960D01*
X033160Y005139D01*
X033119Y005180D01*
X033982Y005180D01*
X034077Y005220D01*
X034538Y005680D01*
X035066Y005680D01*
X035064Y005678D01*
X035000Y005524D01*
X035000Y005356D01*
X035064Y005202D01*
X035182Y005084D01*
X035336Y005020D01*
X036024Y005020D01*
X036178Y005084D01*
X036296Y005202D01*
X036360Y005356D01*
X036360Y005524D01*
X036296Y005678D01*
X036388Y005780D02*
X037723Y005780D01*
X037882Y005939D02*
X036546Y005939D01*
X036705Y006097D02*
X038040Y006097D01*
X038042Y006256D02*
X036863Y006256D01*
X037022Y006414D02*
X038000Y006414D01*
X038020Y006573D02*
X037065Y006573D01*
X037065Y006731D02*
X038117Y006731D01*
X038251Y007032D02*
X038317Y007011D01*
X038385Y007000D01*
X038680Y007000D01*
X038975Y007000D01*
X039043Y007011D01*
X039109Y007032D01*
X039171Y007064D01*
X039227Y007104D01*
X039276Y007153D01*
X039316Y007209D01*
X039348Y007271D01*
X039369Y007337D01*
X039380Y007405D01*
X039380Y007440D01*
X039380Y007475D01*
X039369Y007543D01*
X039348Y007609D01*
X039316Y007671D01*
X039288Y007710D01*
X039498Y007500D01*
X039680Y007500D01*
X039862Y007500D01*
X040120Y007758D01*
X040120Y007940D01*
X039680Y007940D01*
X039680Y007500D01*
X039680Y007940D01*
X039680Y007940D01*
X039680Y007940D01*
X039240Y007940D01*
X039240Y007762D01*
X039227Y007776D01*
X039171Y007816D01*
X039109Y007848D01*
X039043Y007869D01*
X038975Y007880D01*
X038680Y007880D01*
X038680Y007440D01*
X039380Y007440D01*
X038680Y007440D01*
X038680Y007440D01*
X038680Y007440D01*
X038680Y007000D01*
X038680Y007440D01*
X038680Y007440D01*
X038680Y007440D01*
X037980Y007440D01*
X037980Y007475D01*
X037991Y007543D01*
X038012Y007609D01*
X038044Y007671D01*
X038084Y007727D01*
X038133Y007776D01*
X038189Y007816D01*
X038251Y007848D01*
X038317Y007869D01*
X038385Y007880D01*
X038680Y007880D01*
X038680Y007440D01*
X037980Y007440D01*
X037980Y007405D01*
X037991Y007337D01*
X038012Y007271D01*
X038044Y007209D01*
X038084Y007153D01*
X038133Y007104D01*
X038189Y007064D01*
X038251Y007032D01*
X038220Y007048D02*
X037065Y007048D01*
X037065Y006890D02*
X039833Y006890D01*
X039991Y007048D02*
X039140Y007048D01*
X039314Y007207D02*
X040150Y007207D01*
X040308Y007365D02*
X039374Y007365D01*
X039372Y007524D02*
X039474Y007524D01*
X039680Y007524D02*
X039680Y007524D01*
X039680Y007682D02*
X039680Y007682D01*
X039680Y007841D02*
X039680Y007841D01*
X039680Y007999D02*
X039680Y007999D01*
X039680Y008158D02*
X039680Y008158D01*
X039680Y008316D02*
X039680Y008316D01*
X039926Y008316D02*
X040970Y008316D01*
X040970Y008158D02*
X040085Y008158D01*
X040120Y007999D02*
X040942Y007999D01*
X040784Y007841D02*
X040120Y007841D01*
X040044Y007682D02*
X040625Y007682D01*
X040467Y007524D02*
X039886Y007524D01*
X039316Y007682D02*
X039308Y007682D01*
X039240Y007841D02*
X039123Y007841D01*
X039240Y007999D02*
X037607Y007999D01*
X037765Y008158D02*
X038081Y008158D01*
X037998Y008316D02*
X037924Y008316D01*
X037505Y008633D02*
X037045Y008633D01*
X036886Y008475D02*
X037347Y008475D01*
X037188Y008316D02*
X036728Y008316D01*
X036569Y008158D02*
X037030Y008158D01*
X036871Y007999D02*
X036411Y007999D01*
X036362Y007950D02*
X037492Y009080D01*
X037627Y009080D01*
X037759Y009135D01*
X037860Y009236D01*
X037915Y009368D01*
X037915Y009512D01*
X037860Y009644D01*
X037759Y009745D01*
X037627Y009800D01*
X037483Y009800D01*
X037351Y009745D01*
X037250Y009644D01*
X037195Y009512D01*
X037195Y009377D01*
X036355Y008537D01*
X036296Y008678D01*
X036255Y008718D01*
X037742Y010205D01*
X037877Y010205D01*
X038009Y010260D01*
X038031Y010282D01*
X038064Y010202D01*
X038182Y010084D01*
X038336Y010020D01*
X039024Y010020D01*
X039178Y010084D01*
X039296Y010202D01*
X039360Y010356D01*
X039360Y010524D01*
X039296Y010678D01*
X039244Y010730D01*
X041970Y010730D01*
X041970Y009322D01*
X041949Y009343D01*
X041774Y009415D01*
X041586Y009415D01*
X041411Y009343D01*
X041277Y009209D01*
X041274Y009200D01*
X040014Y009200D01*
X039854Y009360D01*
X039506Y009360D01*
X039346Y009200D01*
X039309Y009200D01*
X039316Y009209D01*
X039348Y009271D01*
X039369Y009337D01*
X039380Y009405D01*
X039380Y009440D01*
X039380Y009475D01*
X039369Y009543D01*
X039348Y009609D01*
X039316Y009671D01*
X039276Y009727D01*
X039227Y009776D01*
X039171Y009816D01*
X039109Y009848D01*
X039043Y009869D01*
X038975Y009880D01*
X038680Y009880D01*
X038680Y009440D01*
X038680Y009440D01*
X039380Y009440D01*
X038680Y009440D01*
X038680Y009440D01*
X038680Y009440D01*
X037980Y009440D01*
X037980Y009475D01*
X037991Y009543D01*
X038012Y009609D01*
X038044Y009671D01*
X038084Y009727D01*
X038133Y009776D01*
X038189Y009816D01*
X038251Y009848D01*
X038317Y009869D01*
X038385Y009880D01*
X038680Y009880D01*
X038680Y009440D01*
X037980Y009440D01*
X037980Y009405D01*
X037991Y009337D01*
X038012Y009271D01*
X038044Y009209D01*
X038068Y009175D01*
X038033Y009160D01*
X037960Y009087D01*
X036822Y007950D01*
X036362Y007950D01*
X036315Y008633D02*
X036451Y008633D01*
X036328Y008792D02*
X036610Y008792D01*
X036487Y008950D02*
X036768Y008950D01*
X036645Y009109D02*
X036927Y009109D01*
X036804Y009267D02*
X037085Y009267D01*
X037195Y009426D02*
X036962Y009426D01*
X037121Y009584D02*
X037225Y009584D01*
X037279Y009743D02*
X037348Y009743D01*
X037438Y009901D02*
X041970Y009901D01*
X041970Y009743D02*
X039260Y009743D01*
X039356Y009584D02*
X041970Y009584D01*
X041970Y009426D02*
X039380Y009426D01*
X039346Y009267D02*
X039413Y009267D01*
X038680Y009584D02*
X038680Y009584D01*
X038680Y009743D02*
X038680Y009743D01*
X039119Y010060D02*
X041970Y010060D01*
X041970Y010218D02*
X039303Y010218D01*
X039360Y010377D02*
X041970Y010377D01*
X041970Y010535D02*
X039355Y010535D01*
X039280Y010694D02*
X041970Y010694D01*
X041335Y009267D02*
X039947Y009267D01*
X039967Y008633D02*
X041076Y008633D01*
X040970Y008475D02*
X039380Y008475D01*
X039380Y008440D02*
X038680Y008440D01*
X038680Y008440D01*
X039380Y008440D01*
X039362Y008316D02*
X039434Y008316D01*
X039393Y008633D02*
X039335Y008633D01*
X038680Y008440D02*
X038680Y008000D01*
X038680Y008440D01*
X038680Y008440D01*
X038680Y008316D02*
X038680Y008316D01*
X038680Y008158D02*
X038680Y008158D01*
X038680Y007841D02*
X038680Y007841D01*
X038680Y007682D02*
X038680Y007682D01*
X038680Y007524D02*
X038680Y007524D01*
X038680Y007365D02*
X038680Y007365D01*
X038680Y007207D02*
X038680Y007207D01*
X038680Y007048D02*
X038680Y007048D01*
X039243Y006731D02*
X039674Y006731D01*
X039516Y006573D02*
X039340Y006573D01*
X038046Y007207D02*
X037065Y007207D01*
X037065Y007365D02*
X037986Y007365D01*
X037988Y007524D02*
X037131Y007524D01*
X037290Y007682D02*
X038052Y007682D01*
X038237Y007841D02*
X037448Y007841D01*
X037664Y008792D02*
X037203Y008792D01*
X037362Y008950D02*
X037822Y008950D01*
X037695Y009109D02*
X037981Y009109D01*
X038014Y009267D02*
X037873Y009267D01*
X037915Y009426D02*
X037980Y009426D01*
X038004Y009584D02*
X037885Y009584D01*
X037762Y009743D02*
X038100Y009743D01*
X038241Y010060D02*
X037596Y010060D01*
X037908Y010218D02*
X038057Y010218D01*
X035954Y011011D02*
X035673Y011011D01*
X035000Y009480D02*
X035000Y009356D01*
X035064Y009202D01*
X035182Y009084D01*
X035336Y009020D01*
X035963Y009020D01*
X035803Y008860D01*
X035336Y008860D01*
X035182Y008796D01*
X035064Y008678D01*
X035000Y008524D01*
X035000Y008356D01*
X035064Y008202D01*
X035167Y008099D01*
X035095Y008027D01*
X035095Y008027D01*
X034968Y007900D01*
X034520Y007900D01*
X034556Y007949D01*
X034588Y008011D01*
X034609Y008077D01*
X034620Y008145D01*
X034620Y008440D01*
X034620Y008735D01*
X034609Y008803D01*
X034588Y008869D01*
X034556Y008931D01*
X034516Y008987D01*
X034467Y009036D01*
X034411Y009076D01*
X034349Y009108D01*
X034283Y009129D01*
X034215Y009140D01*
X034180Y009140D01*
X034180Y008440D01*
X034180Y008440D01*
X034620Y008440D01*
X034180Y008440D01*
X034180Y008440D01*
X034180Y008440D01*
X033740Y008440D01*
X033740Y008735D01*
X033751Y008803D01*
X033772Y008869D01*
X033804Y008931D01*
X033844Y008987D01*
X033893Y009036D01*
X033949Y009076D01*
X034011Y009108D01*
X034077Y009129D01*
X034145Y009140D01*
X034180Y009140D01*
X034180Y008440D01*
X033740Y008440D01*
X033740Y008145D01*
X033751Y008077D01*
X033772Y008011D01*
X033804Y007949D01*
X033840Y007900D01*
X033494Y007900D01*
X033536Y007942D01*
X033600Y008096D01*
X033600Y008784D01*
X033536Y008938D01*
X033418Y009056D01*
X033264Y009120D01*
X033096Y009120D01*
X032942Y009056D01*
X032824Y008938D01*
X032760Y008784D01*
X032760Y008096D01*
X032824Y007942D01*
X032866Y007900D01*
X032494Y007900D01*
X032536Y007942D01*
X032600Y008096D01*
X032600Y008784D01*
X032536Y008938D01*
X032418Y009056D01*
X032264Y009120D01*
X032096Y009120D01*
X031942Y009056D01*
X031824Y008938D01*
X031760Y008784D01*
X031760Y008096D01*
X031824Y007942D01*
X031866Y007900D01*
X031494Y007900D01*
X031536Y007942D01*
X031600Y008096D01*
X031600Y008784D01*
X031536Y008938D01*
X031418Y009056D01*
X031264Y009120D01*
X031096Y009120D01*
X030942Y009056D01*
X030902Y009015D01*
X030390Y009527D01*
X030267Y009650D01*
X027218Y009650D01*
X026593Y009025D01*
X026521Y008953D01*
X026418Y009056D01*
X026264Y009120D01*
X026096Y009120D01*
X025942Y009056D01*
X025824Y008938D01*
X025760Y008784D01*
X025760Y008096D01*
X025824Y007942D01*
X025942Y007824D01*
X026096Y007760D01*
X026264Y007760D01*
X026418Y007824D01*
X026470Y007876D01*
X026470Y006381D01*
X026220Y006131D01*
X026220Y005749D01*
X026489Y005480D01*
X026871Y005480D01*
X027140Y005749D01*
X027140Y006131D01*
X027041Y006230D01*
X027319Y006230D01*
X027220Y006131D01*
X027220Y005749D01*
X027489Y005480D01*
X027871Y005480D01*
X028140Y005749D01*
X028140Y006131D01*
X028041Y006230D01*
X028319Y006230D01*
X028220Y006131D01*
X028220Y005749D01*
X028489Y005480D01*
X028871Y005480D01*
X029140Y005749D01*
X029140Y006131D01*
X029041Y006230D01*
X029093Y006230D01*
X029220Y006103D01*
X029220Y005749D01*
X029489Y005480D01*
X029843Y005480D01*
X029970Y005353D01*
X029970Y005301D01*
X029871Y005400D01*
X029489Y005400D01*
X029220Y005131D01*
X029220Y004749D01*
X029489Y004480D01*
X029836Y004480D01*
X029796Y004440D01*
X025390Y004440D01*
X025390Y004579D01*
X025489Y004480D01*
X025871Y004480D01*
X026140Y004749D01*
X026140Y005131D01*
X025871Y005400D01*
X025489Y005400D01*
X025390Y005301D01*
X025390Y005579D01*
X025489Y005480D01*
X025871Y005480D01*
X026140Y005749D01*
X026140Y006131D01*
X025871Y006400D01*
X025489Y006400D01*
X025390Y006301D01*
X025390Y007812D01*
X025418Y007824D01*
X025536Y007942D01*
X025600Y008096D01*
X025600Y008784D01*
X025536Y008938D01*
X025418Y009056D01*
X025264Y009120D01*
X025096Y009120D01*
X024942Y009056D01*
X024824Y008938D01*
X024760Y008784D01*
X024760Y008096D01*
X024824Y007942D01*
X024866Y007900D01*
X023020Y007900D01*
X023056Y007949D01*
X023088Y008011D01*
X023109Y008077D01*
X023120Y008145D01*
X023120Y008440D01*
X023120Y008735D01*
X023109Y008803D01*
X023088Y008869D01*
X023056Y008931D01*
X023016Y008987D01*
X022967Y009036D01*
X022911Y009076D01*
X022849Y009108D01*
X022783Y009129D01*
X022715Y009140D01*
X022680Y009140D01*
X022680Y008440D01*
X022680Y008440D01*
X023120Y008440D01*
X022680Y008440D01*
X022680Y008440D01*
X022680Y008440D01*
X022240Y008440D01*
X022240Y008735D01*
X022251Y008803D01*
X022272Y008869D01*
X022304Y008931D01*
X022344Y008987D01*
X022393Y009036D01*
X022449Y009076D01*
X022511Y009108D01*
X022577Y009129D01*
X022645Y009140D01*
X022680Y009140D01*
X022680Y008440D01*
X022240Y008440D01*
X022240Y008145D01*
X022251Y008077D01*
X022272Y008011D01*
X022304Y007949D01*
X022340Y007900D01*
X021994Y007900D01*
X022036Y007942D01*
X022100Y008096D01*
X022100Y008784D01*
X022036Y008938D01*
X021918Y009056D01*
X021764Y009120D01*
X021596Y009120D01*
X021442Y009056D01*
X021390Y009004D01*
X021390Y010230D01*
X021968Y010230D01*
X022345Y009853D01*
X022468Y009730D01*
X025267Y009730D01*
X025345Y009808D01*
X025375Y009736D01*
X025476Y009635D01*
X025608Y009580D01*
X025752Y009580D01*
X025884Y009635D01*
X025979Y009730D01*
X030343Y009730D01*
X030593Y009480D01*
X035000Y009480D01*
X035000Y009426D02*
X030491Y009426D01*
X030489Y009584D02*
X030333Y009584D01*
X030650Y009267D02*
X035037Y009267D01*
X035158Y009109D02*
X034347Y009109D01*
X034180Y009109D02*
X034180Y009109D01*
X034180Y008950D02*
X034180Y008950D01*
X034180Y008792D02*
X034180Y008792D01*
X034180Y008633D02*
X034180Y008633D01*
X034180Y008475D02*
X034180Y008475D01*
X034620Y008475D02*
X035000Y008475D01*
X035017Y008316D02*
X034620Y008316D01*
X034620Y008158D02*
X035109Y008158D01*
X035067Y007999D02*
X034582Y007999D01*
X034620Y008633D02*
X035045Y008633D01*
X035178Y008792D02*
X034611Y008792D01*
X034542Y008950D02*
X035893Y008950D01*
X034013Y009109D02*
X033291Y009109D01*
X033069Y009109D02*
X032291Y009109D01*
X032069Y009109D02*
X031291Y009109D01*
X031069Y009109D02*
X030808Y009109D01*
X031524Y008950D02*
X031836Y008950D01*
X031763Y008792D02*
X031597Y008792D01*
X031600Y008633D02*
X031760Y008633D01*
X031760Y008475D02*
X031600Y008475D01*
X031600Y008316D02*
X031760Y008316D01*
X031760Y008158D02*
X031600Y008158D01*
X031560Y007999D02*
X031800Y007999D01*
X032560Y007999D02*
X032800Y007999D01*
X032760Y008158D02*
X032600Y008158D01*
X032600Y008316D02*
X032760Y008316D01*
X032760Y008475D02*
X032600Y008475D01*
X032600Y008633D02*
X032760Y008633D01*
X032763Y008792D02*
X032597Y008792D01*
X032524Y008950D02*
X032836Y008950D01*
X033524Y008950D02*
X033818Y008950D01*
X033749Y008792D02*
X033597Y008792D01*
X033600Y008633D02*
X033740Y008633D01*
X033740Y008475D02*
X033600Y008475D01*
X033600Y008316D02*
X033740Y008316D01*
X033740Y008158D02*
X033600Y008158D01*
X033560Y007999D02*
X033778Y007999D01*
X034479Y005622D02*
X035041Y005622D01*
X035000Y005463D02*
X034321Y005463D01*
X034162Y005305D02*
X035022Y005305D01*
X035120Y005146D02*
X033153Y005146D01*
X033160Y004988D02*
X036931Y004988D01*
X036845Y004829D02*
X036146Y004829D01*
X036316Y004671D02*
X036845Y004671D01*
X036845Y004512D02*
X036374Y004512D01*
X035680Y004512D02*
X035680Y004512D01*
X035680Y004440D02*
X035680Y004880D01*
X035385Y004880D01*
X035317Y004869D01*
X035251Y004848D01*
X035189Y004816D01*
X035133Y004776D01*
X035084Y004727D01*
X035044Y004671D01*
X035012Y004609D01*
X034991Y004543D01*
X034980Y004475D01*
X034980Y004440D01*
X035680Y004440D01*
X035680Y004440D01*
X035680Y004671D02*
X035680Y004671D01*
X035680Y004829D02*
X035680Y004829D01*
X035214Y004829D02*
X033160Y004829D01*
X033160Y004741D02*
X033160Y004920D01*
X032700Y004920D01*
X032700Y004460D01*
X032879Y004460D01*
X033160Y004741D01*
X033089Y004671D02*
X035044Y004671D01*
X034986Y004512D02*
X032931Y004512D01*
X032700Y004512D02*
X032660Y004512D01*
X032660Y004460D02*
X032660Y004920D01*
X032200Y004920D01*
X032200Y004741D01*
X032481Y004460D01*
X032660Y004460D01*
X032660Y004671D02*
X032700Y004671D01*
X032700Y004829D02*
X032660Y004829D01*
X032429Y004512D02*
X031903Y004512D01*
X032061Y004671D02*
X032271Y004671D01*
X032200Y004829D02*
X032140Y004829D01*
X032140Y004988D02*
X032200Y004988D01*
X032207Y005146D02*
X032125Y005146D01*
X031220Y004988D02*
X031140Y004988D01*
X031140Y004829D02*
X031220Y004829D01*
X031299Y004671D02*
X031061Y004671D01*
X030903Y004512D02*
X031457Y004512D01*
X029970Y005305D02*
X029966Y005305D01*
X029860Y005463D02*
X025390Y005463D01*
X025390Y005305D02*
X025394Y005305D01*
X024970Y005305D02*
X024966Y005305D01*
X024970Y005301D02*
X024871Y005400D01*
X024489Y005400D01*
X024220Y005131D01*
X024220Y004749D01*
X024319Y004650D01*
X024069Y004650D01*
X024160Y004741D01*
X024160Y004920D01*
X023700Y004920D01*
X023700Y004960D01*
X024160Y004960D01*
X024160Y005139D01*
X023879Y005420D01*
X023700Y005420D01*
X023700Y004960D01*
X023660Y004960D01*
X023660Y005420D01*
X023481Y005420D01*
X023200Y005139D01*
X023200Y004960D01*
X023660Y004960D01*
X023660Y004920D01*
X023200Y004920D01*
X023200Y004741D01*
X023291Y004650D01*
X023041Y004650D01*
X023140Y004749D01*
X023140Y005131D01*
X022966Y005304D01*
X023267Y005605D01*
X023316Y005654D01*
X023489Y005480D01*
X023871Y005480D01*
X024140Y005749D01*
X024140Y006131D01*
X023871Y006400D01*
X023489Y006400D01*
X023390Y006301D01*
X023390Y007016D01*
X023485Y007111D01*
X023540Y007243D01*
X023540Y007387D01*
X023501Y007480D01*
X024970Y007480D01*
X024970Y006301D01*
X024871Y006400D01*
X024489Y006400D01*
X024220Y006131D01*
X024220Y005749D01*
X024489Y005480D01*
X024871Y005480D01*
X024970Y005579D01*
X024970Y005301D01*
X024970Y005463D02*
X023125Y005463D01*
X022966Y005305D02*
X023366Y005305D01*
X023207Y005146D02*
X023125Y005146D01*
X023140Y004988D02*
X023200Y004988D01*
X023200Y004829D02*
X023140Y004829D01*
X023061Y004671D02*
X023271Y004671D01*
X023660Y004988D02*
X023700Y004988D01*
X023700Y005146D02*
X023660Y005146D01*
X023660Y005305D02*
X023700Y005305D01*
X023994Y005305D02*
X024394Y005305D01*
X024235Y005146D02*
X024153Y005146D01*
X024160Y004988D02*
X024220Y004988D01*
X024220Y004829D02*
X024160Y004829D01*
X024089Y004671D02*
X024299Y004671D01*
X024348Y005622D02*
X024012Y005622D01*
X024140Y005780D02*
X024220Y005780D01*
X024220Y005939D02*
X024140Y005939D01*
X024140Y006097D02*
X024220Y006097D01*
X024345Y006256D02*
X024015Y006256D01*
X023390Y006414D02*
X024970Y006414D01*
X024970Y006573D02*
X023390Y006573D01*
X023390Y006731D02*
X024970Y006731D01*
X024970Y006890D02*
X023390Y006890D01*
X023422Y007048D02*
X024970Y007048D01*
X024970Y007207D02*
X023525Y007207D01*
X023540Y007365D02*
X024970Y007365D01*
X025390Y007365D02*
X026470Y007365D01*
X026470Y007207D02*
X025390Y007207D01*
X025390Y007048D02*
X026470Y007048D01*
X026470Y006890D02*
X025390Y006890D01*
X025390Y006731D02*
X026470Y006731D01*
X026470Y006573D02*
X025390Y006573D01*
X025390Y006414D02*
X026470Y006414D01*
X026345Y006256D02*
X026015Y006256D01*
X026140Y006097D02*
X026220Y006097D01*
X026220Y005939D02*
X026140Y005939D01*
X026140Y005780D02*
X026220Y005780D01*
X026348Y005622D02*
X026012Y005622D01*
X025966Y005305D02*
X026394Y005305D01*
X026489Y005400D02*
X026220Y005131D01*
X026220Y004749D01*
X026489Y004480D01*
X026871Y004480D01*
X027140Y004749D01*
X027140Y005131D01*
X026871Y005400D01*
X026489Y005400D01*
X026235Y005146D02*
X026125Y005146D01*
X026140Y004988D02*
X026220Y004988D01*
X026220Y004829D02*
X026140Y004829D01*
X026061Y004671D02*
X026299Y004671D01*
X026457Y004512D02*
X025903Y004512D01*
X025457Y004512D02*
X025390Y004512D01*
X026903Y004512D02*
X027457Y004512D01*
X027489Y004480D02*
X027871Y004480D01*
X028140Y004749D01*
X028140Y005131D01*
X027871Y005400D01*
X027489Y005400D01*
X027220Y005131D01*
X027220Y004749D01*
X027489Y004480D01*
X027299Y004671D02*
X027061Y004671D01*
X027140Y004829D02*
X027220Y004829D01*
X027220Y004988D02*
X027140Y004988D01*
X027125Y005146D02*
X027235Y005146D01*
X027394Y005305D02*
X026966Y005305D01*
X027012Y005622D02*
X027348Y005622D01*
X027220Y005780D02*
X027140Y005780D01*
X027140Y005939D02*
X027220Y005939D01*
X027220Y006097D02*
X027140Y006097D01*
X028012Y005622D02*
X028348Y005622D01*
X028220Y005780D02*
X028140Y005780D01*
X028140Y005939D02*
X028220Y005939D01*
X028220Y006097D02*
X028140Y006097D01*
X028489Y005400D02*
X028220Y005131D01*
X028220Y004749D01*
X028489Y004480D01*
X028871Y004480D01*
X029140Y004749D01*
X029140Y005131D01*
X028871Y005400D01*
X028489Y005400D01*
X028394Y005305D02*
X027966Y005305D01*
X028125Y005146D02*
X028235Y005146D01*
X028220Y004988D02*
X028140Y004988D01*
X028140Y004829D02*
X028220Y004829D01*
X028299Y004671D02*
X028061Y004671D01*
X027903Y004512D02*
X028457Y004512D01*
X028903Y004512D02*
X029457Y004512D01*
X029299Y004671D02*
X029061Y004671D01*
X029140Y004829D02*
X029220Y004829D01*
X029220Y004988D02*
X029140Y004988D01*
X029125Y005146D02*
X029235Y005146D01*
X029394Y005305D02*
X028966Y005305D01*
X029012Y005622D02*
X029348Y005622D01*
X029220Y005780D02*
X029140Y005780D01*
X029140Y005939D02*
X029220Y005939D01*
X029220Y006097D02*
X029140Y006097D01*
X026470Y007524D02*
X025390Y007524D01*
X025390Y007682D02*
X026470Y007682D01*
X026470Y007841D02*
X026434Y007841D01*
X025926Y007841D02*
X025434Y007841D01*
X025560Y007999D02*
X025800Y007999D01*
X025760Y008158D02*
X025600Y008158D01*
X025600Y008316D02*
X025760Y008316D01*
X025760Y008475D02*
X025600Y008475D01*
X025600Y008633D02*
X025760Y008633D01*
X025763Y008792D02*
X025597Y008792D01*
X025524Y008950D02*
X025836Y008950D01*
X026069Y009109D02*
X025291Y009109D01*
X025069Y009109D02*
X022847Y009109D01*
X022680Y009109D02*
X022680Y009109D01*
X022680Y008950D02*
X022680Y008950D01*
X022680Y008792D02*
X022680Y008792D01*
X022680Y008633D02*
X022680Y008633D01*
X022680Y008475D02*
X022680Y008475D01*
X023120Y008475D02*
X024760Y008475D01*
X024760Y008633D02*
X023120Y008633D01*
X023111Y008792D02*
X024763Y008792D01*
X024836Y008950D02*
X023042Y008950D01*
X022513Y009109D02*
X021791Y009109D01*
X021569Y009109D02*
X021390Y009109D01*
X021390Y009267D02*
X026835Y009267D01*
X026677Y009109D02*
X026291Y009109D01*
X025761Y009584D02*
X027152Y009584D01*
X026994Y009426D02*
X021390Y009426D01*
X021390Y009584D02*
X025599Y009584D01*
X025372Y009743D02*
X025279Y009743D01*
X025093Y010150D02*
X025423Y010480D01*
X024620Y010480D01*
X024620Y010440D01*
X024180Y010440D01*
X024180Y010440D01*
X024180Y010440D01*
X023740Y010440D01*
X023740Y010580D01*
X023733Y010580D01*
X023601Y010635D01*
X023500Y010736D01*
X023445Y010868D01*
X023445Y011012D01*
X023500Y011144D01*
X023601Y011245D01*
X023733Y011300D01*
X023760Y011300D01*
X023760Y011614D01*
X024006Y011860D01*
X024354Y011860D01*
X024514Y011700D01*
X024760Y011700D01*
X024760Y011784D01*
X024824Y011938D01*
X024866Y011980D01*
X023642Y011980D01*
X023468Y011980D01*
X022092Y013356D01*
X022109Y013303D01*
X022120Y013235D01*
X022120Y012940D01*
X021680Y012940D01*
X021680Y012940D01*
X021680Y013640D01*
X021715Y013640D01*
X021783Y013629D01*
X021836Y013612D01*
X021640Y013808D01*
X021610Y013736D01*
X021509Y013635D01*
X021390Y013586D01*
X021390Y013532D01*
X021393Y013536D01*
X021449Y013576D01*
X021511Y013608D01*
X021577Y013629D01*
X021645Y013640D01*
X021680Y013640D01*
X021680Y012940D01*
X021680Y012940D01*
X022120Y012940D01*
X022120Y012645D01*
X022109Y012577D01*
X022088Y012511D01*
X022056Y012449D01*
X022016Y012393D01*
X021967Y012344D01*
X021911Y012304D01*
X021879Y012288D01*
X021890Y012277D01*
X021890Y012068D01*
X021918Y012056D01*
X022036Y011938D01*
X022100Y011784D01*
X022100Y011096D01*
X022036Y010942D01*
X021918Y010824D01*
X021764Y010760D01*
X021596Y010760D01*
X021442Y010824D01*
X021324Y010942D01*
X021260Y011096D01*
X021260Y011784D01*
X021324Y011938D01*
X021417Y012031D01*
X021093Y012355D01*
X021021Y012427D01*
X020918Y012324D01*
X020764Y012260D01*
X020596Y012260D01*
X020442Y012324D01*
X020402Y012365D01*
X020019Y011982D01*
X020056Y011931D01*
X020088Y011869D01*
X020109Y011803D01*
X020251Y011803D01*
X020240Y011735D01*
X020240Y011440D01*
X020680Y011440D01*
X021120Y011440D01*
X021120Y011735D01*
X021109Y011803D01*
X021268Y011803D01*
X021260Y011645D02*
X021120Y011645D01*
X021109Y011803D02*
X021088Y011869D01*
X021056Y011931D01*
X021016Y011987D01*
X020967Y012036D01*
X020911Y012076D01*
X020849Y012108D01*
X020783Y012129D01*
X020715Y012140D01*
X020680Y012140D01*
X020680Y011440D01*
X020680Y011440D01*
X020680Y011440D01*
X021120Y011440D01*
X021120Y011145D01*
X021109Y011077D01*
X021088Y011011D01*
X021056Y010949D01*
X021016Y010893D01*
X020967Y010844D01*
X020911Y010804D01*
X020849Y010772D01*
X020783Y010751D01*
X020715Y010740D01*
X020680Y010740D01*
X020680Y011440D01*
X020680Y011440D01*
X020680Y011440D01*
X020680Y012140D01*
X020645Y012140D01*
X020577Y012129D01*
X020511Y012108D01*
X020449Y012076D01*
X020393Y012036D01*
X020344Y011987D01*
X020304Y011931D01*
X020272Y011869D01*
X020251Y011803D01*
X020109Y011803D02*
X020120Y011735D01*
X020120Y011440D01*
X019680Y011440D01*
X019680Y011440D01*
X020120Y011440D01*
X020120Y011145D01*
X020109Y011077D01*
X020088Y011011D01*
X020056Y010949D01*
X020016Y010893D01*
X019967Y010844D01*
X019911Y010804D01*
X019849Y010772D01*
X019783Y010751D01*
X019715Y010740D01*
X019680Y010740D01*
X019680Y011440D01*
X019680Y011440D01*
X019680Y011440D01*
X019240Y011440D01*
X019240Y011735D01*
X019251Y011803D01*
X019109Y011803D01*
X019088Y011869D01*
X019056Y011931D01*
X019020Y011980D01*
X019340Y011980D01*
X019304Y011931D01*
X019272Y011869D01*
X019251Y011803D01*
X019109Y011803D02*
X019120Y011735D01*
X019120Y011440D01*
X018680Y011440D01*
X018680Y011440D01*
X019120Y011440D01*
X019120Y011145D01*
X019109Y011077D01*
X019088Y011011D01*
X019056Y010949D01*
X019016Y010893D01*
X018967Y010844D01*
X018911Y010804D01*
X018849Y010772D01*
X018783Y010751D01*
X018715Y010740D01*
X018680Y010740D01*
X018680Y011440D01*
X018680Y011440D01*
X018680Y011440D01*
X018240Y011440D01*
X018240Y011735D01*
X018251Y011803D01*
X018109Y011803D01*
X018088Y011869D01*
X018056Y011931D01*
X018020Y011980D01*
X018340Y011980D01*
X018304Y011931D01*
X018272Y011869D01*
X018251Y011803D01*
X018109Y011803D02*
X018120Y011735D01*
X018120Y011440D01*
X017680Y011440D01*
X017680Y011440D01*
X018120Y011440D01*
X018120Y011145D01*
X018109Y011077D01*
X018088Y011011D01*
X018056Y010949D01*
X018016Y010893D01*
X017967Y010844D01*
X017911Y010804D01*
X017849Y010772D01*
X017783Y010751D01*
X017715Y010740D01*
X017680Y010740D01*
X017680Y011440D01*
X017680Y011440D01*
X017680Y011440D01*
X017240Y011440D01*
X017240Y011735D01*
X017251Y011803D01*
X017109Y011803D01*
X017088Y011869D01*
X017056Y011931D01*
X017020Y011980D01*
X017340Y011980D01*
X017304Y011931D01*
X017272Y011869D01*
X017251Y011803D01*
X017109Y011803D02*
X017120Y011735D01*
X017120Y011440D01*
X016680Y011440D01*
X016680Y011440D01*
X016680Y011440D01*
X016240Y011440D01*
X016240Y011735D01*
X016251Y011803D01*
X016109Y011803D01*
X016088Y011869D01*
X016056Y011931D01*
X016020Y011980D01*
X016340Y011980D01*
X016304Y011931D01*
X016272Y011869D01*
X016251Y011803D01*
X016109Y011803D02*
X016120Y011735D01*
X016120Y011440D01*
X015680Y011440D01*
X015680Y011440D01*
X016120Y011440D01*
X016120Y011145D01*
X016109Y011077D01*
X016088Y011011D01*
X016056Y010949D01*
X016019Y010898D01*
X016140Y010777D01*
X016460Y010457D01*
X016445Y010493D01*
X016445Y010637D01*
X016500Y010769D01*
X016506Y010775D01*
X016449Y010804D01*
X016393Y010844D01*
X016344Y010893D01*
X016304Y010949D01*
X016272Y011011D01*
X016251Y011077D01*
X016240Y011145D01*
X016240Y011440D01*
X016680Y011440D01*
X017120Y011440D01*
X017120Y011145D01*
X017109Y011077D01*
X017088Y011011D01*
X017056Y010949D01*
X017016Y010893D01*
X016997Y010875D01*
X017009Y010870D01*
X017110Y010769D01*
X017159Y010650D01*
X022142Y010650D01*
X022642Y010150D01*
X023848Y010150D01*
X023740Y010258D01*
X023740Y010440D01*
X024180Y010440D01*
X024620Y010440D01*
X024620Y010258D01*
X024512Y010150D01*
X025093Y010150D01*
X025161Y010218D02*
X024580Y010218D01*
X024620Y010377D02*
X025320Y010377D01*
X024768Y011803D02*
X024411Y011803D01*
X023949Y011803D02*
X023092Y011803D01*
X023100Y011784D02*
X023036Y011938D01*
X022918Y012056D01*
X022764Y012120D01*
X022596Y012120D01*
X022442Y012056D01*
X022324Y011938D01*
X022260Y011784D01*
X022260Y011096D01*
X022324Y010942D01*
X022442Y010824D01*
X022596Y010760D01*
X022764Y010760D01*
X022918Y010824D01*
X023036Y010942D01*
X023100Y011096D01*
X023100Y011784D01*
X023100Y011645D02*
X023791Y011645D01*
X023760Y011486D02*
X023100Y011486D01*
X023100Y011328D02*
X023760Y011328D01*
X023525Y011169D02*
X023100Y011169D01*
X023064Y011011D02*
X023445Y011011D01*
X023452Y010852D02*
X022946Y010852D01*
X022414Y010852D02*
X021946Y010852D01*
X022064Y011011D02*
X022296Y011011D01*
X022260Y011169D02*
X022100Y011169D01*
X022100Y011328D02*
X022260Y011328D01*
X022260Y011486D02*
X022100Y011486D01*
X022100Y011645D02*
X022260Y011645D01*
X022268Y011803D02*
X022092Y011803D01*
X022012Y011962D02*
X022348Y011962D01*
X021890Y012120D02*
X023328Y012120D01*
X023169Y012279D02*
X021888Y012279D01*
X022047Y012437D02*
X023011Y012437D01*
X022852Y012596D02*
X022112Y012596D01*
X022120Y012754D02*
X022694Y012754D01*
X022535Y012913D02*
X022120Y012913D01*
X022120Y013071D02*
X022377Y013071D01*
X022218Y013230D02*
X022120Y013230D01*
X021680Y013230D02*
X021680Y013230D01*
X021680Y013388D02*
X021680Y013388D01*
X021680Y013547D02*
X021680Y013547D01*
X021743Y013705D02*
X021579Y013705D01*
X021408Y013547D02*
X021390Y013547D01*
X021680Y013071D02*
X021680Y013071D01*
X021169Y012279D02*
X020808Y012279D01*
X020811Y012120D02*
X021328Y012120D01*
X021348Y011962D02*
X021034Y011962D01*
X020680Y011962D02*
X020680Y011962D01*
X020680Y012120D02*
X020680Y012120D01*
X020549Y012120D02*
X020157Y012120D01*
X020034Y011962D02*
X020326Y011962D01*
X020316Y012279D02*
X020552Y012279D01*
X020680Y011803D02*
X020680Y011803D01*
X020680Y011645D02*
X020680Y011645D01*
X020680Y011486D02*
X020680Y011486D01*
X020680Y011440D02*
X020240Y011440D01*
X020240Y011145D01*
X020251Y011077D01*
X020272Y011011D01*
X020304Y010949D01*
X020344Y010893D01*
X020393Y010844D01*
X020449Y010804D01*
X020511Y010772D01*
X020577Y010751D01*
X020645Y010740D01*
X020680Y010740D01*
X020680Y011440D01*
X020680Y011328D02*
X020680Y011328D01*
X020680Y011169D02*
X020680Y011169D01*
X020680Y011011D02*
X020680Y011011D01*
X020680Y010852D02*
X020680Y010852D01*
X020974Y010852D02*
X021414Y010852D01*
X021296Y011011D02*
X021087Y011011D01*
X021120Y011169D02*
X021260Y011169D01*
X021260Y011328D02*
X021120Y011328D01*
X021120Y011486D02*
X021260Y011486D01*
X020386Y010852D02*
X019974Y010852D01*
X020087Y011011D02*
X020273Y011011D01*
X020240Y011169D02*
X020120Y011169D01*
X020120Y011328D02*
X020240Y011328D01*
X020240Y011486D02*
X020120Y011486D01*
X020120Y011645D02*
X020240Y011645D01*
X019680Y011440D02*
X019680Y010740D01*
X019645Y010740D01*
X019577Y010751D01*
X019511Y010772D01*
X019449Y010804D01*
X019393Y010844D01*
X019344Y010893D01*
X019304Y010949D01*
X019272Y011011D01*
X019251Y011077D01*
X019240Y011145D01*
X019240Y011440D01*
X019680Y011440D01*
X019680Y011328D02*
X019680Y011328D01*
X019680Y011169D02*
X019680Y011169D01*
X019680Y011011D02*
X019680Y011011D01*
X019680Y010852D02*
X019680Y010852D01*
X019386Y010852D02*
X018974Y010852D01*
X019087Y011011D02*
X019273Y011011D01*
X019240Y011169D02*
X019120Y011169D01*
X019120Y011328D02*
X019240Y011328D01*
X019240Y011486D02*
X019120Y011486D01*
X019120Y011645D02*
X019240Y011645D01*
X019326Y011962D02*
X019034Y011962D01*
X018680Y011440D02*
X018240Y011440D01*
X018240Y011145D01*
X018251Y011077D01*
X018272Y011011D01*
X018304Y010949D01*
X018344Y010893D01*
X018393Y010844D01*
X018449Y010804D01*
X018511Y010772D01*
X018577Y010751D01*
X018645Y010740D01*
X018680Y010740D01*
X018680Y011440D01*
X018680Y011328D02*
X018680Y011328D01*
X018680Y011169D02*
X018680Y011169D01*
X018680Y011011D02*
X018680Y011011D01*
X018680Y010852D02*
X018680Y010852D01*
X018386Y010852D02*
X017974Y010852D01*
X018087Y011011D02*
X018273Y011011D01*
X018240Y011169D02*
X018120Y011169D01*
X018120Y011328D02*
X018240Y011328D01*
X018240Y011486D02*
X018120Y011486D01*
X018120Y011645D02*
X018240Y011645D01*
X018326Y011962D02*
X018034Y011962D01*
X017680Y011440D02*
X017240Y011440D01*
X017240Y011145D01*
X017251Y011077D01*
X017272Y011011D01*
X017304Y010949D01*
X017344Y010893D01*
X017393Y010844D01*
X017449Y010804D01*
X017511Y010772D01*
X017577Y010751D01*
X017645Y010740D01*
X017680Y010740D01*
X017680Y011440D01*
X017680Y011328D02*
X017680Y011328D01*
X017680Y011169D02*
X017680Y011169D01*
X017680Y011011D02*
X017680Y011011D01*
X017680Y010852D02*
X017680Y010852D01*
X017386Y010852D02*
X017027Y010852D01*
X017087Y011011D02*
X017273Y011011D01*
X017240Y011169D02*
X017120Y011169D01*
X017120Y011328D02*
X017240Y011328D01*
X017240Y011486D02*
X017120Y011486D01*
X017120Y011645D02*
X017240Y011645D01*
X017326Y011962D02*
X017034Y011962D01*
X016326Y011962D02*
X016034Y011962D01*
X016120Y011645D02*
X016240Y011645D01*
X016240Y011486D02*
X016120Y011486D01*
X016120Y011328D02*
X016240Y011328D01*
X016240Y011169D02*
X016120Y011169D01*
X016087Y011011D02*
X016273Y011011D01*
X016386Y010852D02*
X016065Y010852D01*
X016223Y010694D02*
X016469Y010694D01*
X016445Y010535D02*
X016382Y010535D01*
X016105Y010218D02*
X013080Y010218D01*
X013120Y010258D02*
X013120Y010440D01*
X013120Y010480D01*
X015843Y010480D01*
X016343Y009980D01*
X020586Y009980D01*
X020506Y009900D01*
X015718Y009900D01*
X015595Y009777D01*
X015243Y009425D01*
X015108Y009425D01*
X014976Y009370D01*
X014875Y009269D01*
X014820Y009137D01*
X014820Y009097D01*
X014764Y009120D01*
X014596Y009120D01*
X014442Y009056D01*
X014324Y008938D01*
X014260Y008784D01*
X014260Y008096D01*
X014324Y007942D01*
X014442Y007824D01*
X014596Y007760D01*
X014764Y007760D01*
X014918Y007824D01*
X015036Y007942D01*
X015100Y008096D01*
X015100Y008708D01*
X015108Y008705D01*
X015252Y008705D01*
X015260Y008708D01*
X015260Y008096D01*
X015324Y007942D01*
X015442Y007824D01*
X015596Y007760D01*
X015764Y007760D01*
X015918Y007824D01*
X015970Y007876D01*
X015970Y006900D01*
X013251Y006900D01*
X013290Y006993D01*
X013290Y007137D01*
X013235Y007269D01*
X013134Y007370D01*
X013002Y007425D01*
X012858Y007425D01*
X012726Y007370D01*
X012631Y007275D01*
X008501Y007275D01*
X008540Y007368D01*
X008540Y007503D01*
X008902Y007865D01*
X008942Y007824D01*
X009096Y007760D01*
X009264Y007760D01*
X009418Y007824D01*
X009536Y007942D01*
X009600Y008096D01*
X009600Y008563D01*
X009760Y008723D01*
X009760Y008096D01*
X009824Y007942D01*
X009942Y007824D01*
X010096Y007760D01*
X010264Y007760D01*
X010418Y007824D01*
X010536Y007942D01*
X010600Y008096D01*
X010600Y008784D01*
X010536Y008938D01*
X010418Y009056D01*
X010264Y009120D01*
X010157Y009120D01*
X010517Y009480D01*
X010892Y009480D01*
X011015Y009603D01*
X011015Y009603D01*
X011742Y010331D01*
X011843Y010230D01*
X011843Y010230D01*
X012195Y009878D01*
X012195Y009743D01*
X012250Y009611D01*
X012351Y009510D01*
X012483Y009455D01*
X012627Y009455D01*
X012759Y009510D01*
X012860Y009611D01*
X012915Y009743D01*
X012915Y009887D01*
X012866Y010004D01*
X013120Y010258D01*
X013120Y010377D02*
X015946Y010377D01*
X016263Y010060D02*
X012922Y010060D01*
X012909Y009901D02*
X020507Y009901D01*
X021390Y009901D02*
X022297Y009901D01*
X022455Y009743D02*
X021390Y009743D01*
X021390Y010060D02*
X022138Y010060D01*
X021980Y010218D02*
X021390Y010218D01*
X022257Y010535D02*
X023740Y010535D01*
X023740Y010377D02*
X022415Y010377D01*
X022574Y010218D02*
X023780Y010218D01*
X023542Y010694D02*
X017141Y010694D01*
X015680Y011440D02*
X015240Y011440D01*
X015240Y011705D01*
X015108Y011705D01*
X015100Y011708D01*
X015100Y011096D01*
X015036Y010942D01*
X014994Y010900D01*
X015340Y010900D01*
X015304Y010949D01*
X015272Y011011D01*
X015251Y011077D01*
X015240Y011145D01*
X015240Y011440D01*
X015680Y011440D01*
X015680Y011440D01*
X015240Y011486D02*
X015100Y011486D01*
X015100Y011328D02*
X015240Y011328D01*
X015240Y011169D02*
X015100Y011169D01*
X015064Y011011D02*
X015273Y011011D01*
X015240Y011645D02*
X015100Y011645D01*
X013120Y010440D02*
X012680Y010440D01*
X012680Y010440D01*
X013120Y010440D01*
X012680Y010440D02*
X012240Y010440D01*
X012240Y010580D01*
X012233Y010580D01*
X012140Y010619D01*
X012140Y010527D01*
X012240Y010427D01*
X012240Y010440D01*
X012680Y010440D01*
X012680Y010440D01*
X012240Y010535D02*
X012140Y010535D01*
X011855Y010218D02*
X011630Y010218D01*
X011471Y010060D02*
X012013Y010060D01*
X012172Y009901D02*
X011313Y009901D01*
X011154Y009743D02*
X012195Y009743D01*
X012277Y009584D02*
X010996Y009584D01*
X011077Y009129D02*
X011011Y009108D01*
X010949Y009076D01*
X010893Y009036D01*
X010844Y008987D01*
X010804Y008931D01*
X010772Y008869D01*
X010751Y008803D01*
X010740Y008735D01*
X010740Y008440D01*
X011180Y008440D01*
X011620Y008440D01*
X011620Y008735D01*
X011609Y008803D01*
X011588Y008869D01*
X011556Y008931D01*
X011516Y008987D01*
X011467Y009036D01*
X011411Y009076D01*
X011349Y009108D01*
X011283Y009129D01*
X011215Y009140D01*
X011180Y009140D01*
X011180Y008440D01*
X011180Y008440D01*
X011180Y008440D01*
X011620Y008440D01*
X011620Y008145D01*
X011609Y008077D01*
X011588Y008011D01*
X011556Y007949D01*
X011516Y007893D01*
X011467Y007844D01*
X011411Y007804D01*
X011349Y007772D01*
X011283Y007751D01*
X011215Y007740D01*
X011180Y007740D01*
X011180Y008440D01*
X011180Y008440D01*
X011180Y008440D01*
X011180Y009140D01*
X011145Y009140D01*
X011077Y009129D01*
X011013Y009109D02*
X010291Y009109D01*
X010304Y009267D02*
X014874Y009267D01*
X014820Y009109D02*
X014791Y009109D01*
X014569Y009109D02*
X013847Y009109D01*
X013849Y009108D02*
X013783Y009129D01*
X013715Y009140D01*
X013680Y009140D01*
X013680Y008440D01*
X014120Y008440D01*
X014120Y008735D01*
X014109Y008803D01*
X014088Y008869D01*
X014056Y008931D01*
X014016Y008987D01*
X013967Y009036D01*
X013911Y009076D01*
X013849Y009108D01*
X013680Y009109D02*
X013680Y009109D01*
X013680Y009140D02*
X013645Y009140D01*
X013577Y009129D01*
X013511Y009108D01*
X013449Y009076D01*
X013393Y009036D01*
X013344Y008987D01*
X013304Y008931D01*
X013272Y008869D01*
X013251Y008803D01*
X013240Y008735D01*
X013240Y008440D01*
X013680Y008440D01*
X013680Y008440D01*
X013680Y008440D01*
X014120Y008440D01*
X014120Y008145D01*
X014109Y008077D01*
X014088Y008011D01*
X014056Y007949D01*
X014016Y007893D01*
X013967Y007844D01*
X013911Y007804D01*
X013849Y007772D01*
X013783Y007751D01*
X013715Y007740D01*
X013680Y007740D01*
X013680Y008440D01*
X013680Y008440D01*
X013680Y008440D01*
X013680Y009140D01*
X013513Y009109D02*
X011347Y009109D01*
X011180Y009109D02*
X011180Y009109D01*
X011180Y008950D02*
X011180Y008950D01*
X011180Y008792D02*
X011180Y008792D01*
X011180Y008633D02*
X011180Y008633D01*
X011180Y008475D02*
X011180Y008475D01*
X011180Y008440D02*
X010740Y008440D01*
X010740Y008145D01*
X010751Y008077D01*
X010772Y008011D01*
X010804Y007949D01*
X010844Y007893D01*
X010893Y007844D01*
X010949Y007804D01*
X011011Y007772D01*
X011077Y007751D01*
X011145Y007740D01*
X011180Y007740D01*
X011180Y008440D01*
X011180Y008316D02*
X011180Y008316D01*
X011180Y008158D02*
X011180Y008158D01*
X011180Y007999D02*
X011180Y007999D01*
X011180Y007841D02*
X011180Y007841D01*
X011461Y007841D02*
X013399Y007841D01*
X013393Y007844D02*
X013449Y007804D01*
X013511Y007772D01*
X013577Y007751D01*
X013645Y007740D01*
X013680Y007740D01*
X013680Y008440D01*
X013240Y008440D01*
X013240Y008145D01*
X013251Y008077D01*
X013272Y008011D01*
X013304Y007949D01*
X013344Y007893D01*
X013393Y007844D01*
X013278Y007999D02*
X011582Y007999D01*
X011620Y008158D02*
X013240Y008158D01*
X013240Y008316D02*
X011620Y008316D01*
X011620Y008475D02*
X013240Y008475D01*
X013240Y008633D02*
X011620Y008633D01*
X011611Y008792D02*
X013249Y008792D01*
X013318Y008950D02*
X011542Y008950D01*
X010818Y008950D02*
X010524Y008950D01*
X010597Y008792D02*
X010749Y008792D01*
X010740Y008633D02*
X010600Y008633D01*
X010600Y008475D02*
X010740Y008475D01*
X010740Y008316D02*
X010600Y008316D01*
X010600Y008158D02*
X010740Y008158D01*
X010778Y007999D02*
X010560Y007999D01*
X010434Y007841D02*
X010899Y007841D01*
X009926Y007841D02*
X009434Y007841D01*
X009560Y007999D02*
X009800Y007999D01*
X009760Y008158D02*
X009600Y008158D01*
X009600Y008316D02*
X009760Y008316D01*
X009760Y008475D02*
X009600Y008475D01*
X009670Y008633D02*
X009760Y008633D01*
X010462Y009426D02*
X015244Y009426D01*
X015402Y009584D02*
X012833Y009584D01*
X012915Y009743D02*
X015561Y009743D01*
X014336Y008950D02*
X014042Y008950D01*
X014111Y008792D02*
X014263Y008792D01*
X014260Y008633D02*
X014120Y008633D01*
X014120Y008475D02*
X014260Y008475D01*
X014260Y008316D02*
X014120Y008316D01*
X014120Y008158D02*
X014260Y008158D01*
X014300Y007999D02*
X014082Y007999D01*
X013961Y007841D02*
X014426Y007841D01*
X014934Y007841D02*
X015426Y007841D01*
X015300Y007999D02*
X015060Y007999D01*
X015100Y008158D02*
X015260Y008158D01*
X015260Y008316D02*
X015100Y008316D01*
X015100Y008475D02*
X015260Y008475D01*
X015260Y008633D02*
X015100Y008633D01*
X015934Y007841D02*
X015970Y007841D01*
X015970Y007682D02*
X008719Y007682D01*
X008560Y007524D02*
X015970Y007524D01*
X015970Y007365D02*
X013139Y007365D01*
X013261Y007207D02*
X015970Y007207D01*
X015970Y007048D02*
X013290Y007048D01*
X012721Y007365D02*
X008539Y007365D01*
X008877Y007841D02*
X008926Y007841D01*
X006970Y010275D02*
X006479Y010275D01*
X006384Y010370D01*
X006252Y010425D01*
X006108Y010425D01*
X005976Y010370D01*
X005875Y010269D01*
X005820Y010137D01*
X005820Y009993D01*
X005835Y009957D01*
X005767Y010025D01*
X001593Y010025D01*
X001470Y009902D01*
X001470Y007853D01*
X001593Y007730D01*
X003220Y006103D01*
X003220Y005777D01*
X003093Y005650D01*
X003041Y005650D01*
X003140Y005749D01*
X003140Y006131D01*
X002871Y006400D01*
X002489Y006400D01*
X002220Y006131D01*
X002220Y005749D01*
X002394Y005576D01*
X001718Y004900D01*
X001595Y004777D01*
X001595Y004440D01*
X000960Y004440D01*
X000960Y010038D01*
X000998Y010000D01*
X001180Y010000D01*
X001362Y010000D01*
X001620Y010258D01*
X001620Y010440D01*
X001620Y010622D01*
X001362Y010880D01*
X001180Y010880D01*
X001180Y010440D01*
X001180Y010440D01*
X001620Y010440D01*
X001180Y010440D01*
X001180Y010440D01*
X001180Y010880D01*
X000998Y010880D01*
X000960Y010842D01*
X000960Y011066D01*
X001006Y011020D01*
X001354Y011020D01*
X001514Y011180D01*
X001760Y011180D01*
X001760Y011096D01*
X001824Y010942D01*
X001942Y010824D01*
X002096Y010760D01*
X002264Y010760D01*
X002418Y010824D01*
X002536Y010942D01*
X002600Y011096D01*
X002600Y011784D01*
X002536Y011938D01*
X002418Y012056D01*
X002264Y012120D01*
X002096Y012120D01*
X001942Y012056D01*
X001940Y012054D01*
X001940Y016046D01*
X001976Y016010D01*
X002108Y015955D01*
X002243Y015955D01*
X003220Y014978D01*
X003298Y014900D01*
X003093Y014900D01*
X002970Y014777D01*
X002970Y014504D01*
X002918Y014556D01*
X002764Y014620D01*
X002596Y014620D01*
X002442Y014556D01*
X002324Y014438D01*
X002260Y014284D01*
X002260Y013596D01*
X002324Y013442D01*
X002326Y013440D01*
X002324Y013438D01*
X002260Y013284D01*
X002260Y012596D01*
X002324Y012442D01*
X002442Y012324D01*
X002596Y012260D01*
X002764Y012260D01*
X002918Y012324D01*
X002970Y012376D01*
X002970Y012068D01*
X002942Y012056D01*
X002824Y011938D01*
X002760Y011784D01*
X002760Y011096D01*
X002824Y010942D01*
X002942Y010824D01*
X003096Y010760D01*
X003264Y010760D01*
X003418Y010824D01*
X003536Y010942D01*
X003600Y011096D01*
X003600Y011784D01*
X003536Y011938D01*
X003418Y012056D01*
X003390Y012068D01*
X003390Y012376D01*
X003442Y012324D01*
X003596Y012260D01*
X003764Y012260D01*
X003918Y012324D01*
X003958Y012365D01*
X004203Y012120D01*
X004096Y012120D01*
X003942Y012056D01*
X003824Y011938D01*
X003760Y011784D01*
X003760Y011096D01*
X003824Y010942D01*
X003942Y010824D01*
X004096Y010760D01*
X004264Y010760D01*
X004418Y010824D01*
X004536Y010942D01*
X004600Y011096D01*
X004600Y011784D01*
X004536Y011938D01*
X004494Y011980D01*
X004866Y011980D01*
X004824Y011938D01*
X004760Y011784D01*
X004760Y011096D01*
X004824Y010942D01*
X004942Y010824D01*
X005096Y010760D01*
X005264Y010760D01*
X005418Y010824D01*
X005536Y010942D01*
X005600Y011096D01*
X005600Y011723D01*
X005760Y011563D01*
X005760Y011096D01*
X005824Y010942D01*
X005942Y010824D01*
X006096Y010760D01*
X006264Y010760D01*
X006418Y010824D01*
X006536Y010942D01*
X006600Y011096D01*
X006600Y011708D01*
X006608Y011705D01*
X006752Y011705D01*
X006760Y011708D01*
X006760Y011096D01*
X006824Y010942D01*
X006942Y010824D01*
X006970Y010812D01*
X006970Y010275D01*
X006970Y010377D02*
X006369Y010377D01*
X005991Y010377D02*
X001620Y010377D01*
X001620Y010535D02*
X006970Y010535D01*
X006970Y010694D02*
X001549Y010694D01*
X001390Y010852D02*
X001914Y010852D01*
X001796Y011011D02*
X000960Y011011D01*
X000960Y010852D02*
X000970Y010852D01*
X001180Y010852D02*
X001180Y010852D01*
X001180Y010694D02*
X001180Y010694D01*
X001180Y010535D02*
X001180Y010535D01*
X001180Y010440D02*
X001180Y010000D01*
X001180Y010440D01*
X001180Y010440D01*
X001180Y010377D02*
X001180Y010377D01*
X001180Y010218D02*
X001180Y010218D01*
X001180Y010060D02*
X001180Y010060D01*
X001422Y010060D02*
X005820Y010060D01*
X005854Y010218D02*
X001580Y010218D01*
X001470Y009901D02*
X000960Y009901D01*
X000960Y009743D02*
X001470Y009743D01*
X001470Y009584D02*
X000960Y009584D01*
X000960Y009426D02*
X001470Y009426D01*
X001470Y009267D02*
X000960Y009267D01*
X000960Y009109D02*
X001470Y009109D01*
X001470Y008950D02*
X000960Y008950D01*
X000960Y008792D02*
X001470Y008792D01*
X001470Y008633D02*
X000960Y008633D01*
X000960Y008475D02*
X001470Y008475D01*
X001470Y008316D02*
X000960Y008316D01*
X000960Y008158D02*
X001470Y008158D01*
X001470Y007999D02*
X000960Y007999D01*
X000960Y007841D02*
X001483Y007841D01*
X001641Y007682D02*
X000960Y007682D01*
X000960Y007524D02*
X001800Y007524D01*
X001958Y007365D02*
X000960Y007365D01*
X000960Y007207D02*
X002117Y007207D01*
X002275Y007048D02*
X000960Y007048D01*
X000960Y006890D02*
X002434Y006890D01*
X002592Y006731D02*
X000960Y006731D01*
X000960Y006573D02*
X002751Y006573D01*
X002909Y006414D02*
X000960Y006414D01*
X000960Y006256D02*
X002345Y006256D01*
X002220Y006097D02*
X000960Y006097D01*
X000960Y005939D02*
X002220Y005939D01*
X002220Y005780D02*
X000960Y005780D01*
X000960Y005622D02*
X002348Y005622D01*
X002281Y005463D02*
X000960Y005463D01*
X000960Y005305D02*
X002123Y005305D01*
X001964Y005146D02*
X000960Y005146D01*
X000960Y004988D02*
X001806Y004988D01*
X001647Y004829D02*
X000960Y004829D01*
X000960Y004671D02*
X001595Y004671D01*
X001595Y004512D02*
X000960Y004512D01*
X002700Y004920D02*
X002700Y004960D01*
X003160Y004960D01*
X003160Y005139D01*
X003069Y005230D01*
X003267Y005230D01*
X003390Y005353D01*
X003517Y005480D01*
X003871Y005480D01*
X004140Y005749D01*
X004140Y006131D01*
X003871Y006400D01*
X003517Y006400D01*
X002157Y007760D01*
X002264Y007760D01*
X002418Y007824D01*
X002536Y007942D01*
X002600Y008096D01*
X002600Y008563D01*
X002740Y008703D01*
X002740Y008440D01*
X003180Y008440D01*
X003620Y008440D01*
X003620Y008735D01*
X003609Y008803D01*
X003588Y008869D01*
X003556Y008931D01*
X003520Y008980D01*
X003866Y008980D01*
X003824Y008938D01*
X003760Y008784D01*
X003760Y008096D01*
X003824Y007942D01*
X003942Y007824D01*
X003970Y007812D01*
X003970Y006353D01*
X004093Y006230D01*
X004319Y006230D01*
X004220Y006131D01*
X004220Y005749D01*
X004489Y005480D01*
X004871Y005480D01*
X005140Y005749D01*
X005140Y006131D01*
X005041Y006230D01*
X005319Y006230D01*
X005220Y006131D01*
X005220Y005749D01*
X005489Y005480D01*
X005826Y005480D01*
X005859Y005400D01*
X005489Y005400D01*
X005220Y005131D01*
X005220Y004749D01*
X005319Y004650D01*
X005041Y004650D01*
X005140Y004749D01*
X005140Y005131D01*
X004871Y005400D01*
X004489Y005400D01*
X004220Y005131D01*
X004220Y004749D01*
X004319Y004650D01*
X004041Y004650D01*
X004140Y004749D01*
X004140Y005131D01*
X003871Y005400D01*
X003489Y005400D01*
X003220Y005131D01*
X003220Y004749D01*
X003319Y004650D01*
X003069Y004650D01*
X003160Y004741D01*
X003160Y004920D01*
X002700Y004920D01*
X003089Y004671D02*
X003299Y004671D01*
X003220Y004829D02*
X003160Y004829D01*
X003160Y004988D02*
X003220Y004988D01*
X003235Y005146D02*
X003153Y005146D01*
X003341Y005305D02*
X003394Y005305D01*
X003500Y005463D02*
X005833Y005463D01*
X005394Y005305D02*
X004966Y005305D01*
X005125Y005146D02*
X005235Y005146D01*
X005220Y004988D02*
X005140Y004988D01*
X005140Y004829D02*
X005220Y004829D01*
X005299Y004671D02*
X005061Y004671D01*
X004394Y005305D02*
X003966Y005305D01*
X004125Y005146D02*
X004235Y005146D01*
X004220Y004988D02*
X004140Y004988D01*
X004140Y004829D02*
X004220Y004829D01*
X004299Y004671D02*
X004061Y004671D01*
X004012Y005622D02*
X004348Y005622D01*
X004220Y005780D02*
X004140Y005780D01*
X004140Y005939D02*
X004220Y005939D01*
X004220Y006097D02*
X004140Y006097D01*
X004068Y006256D02*
X004015Y006256D01*
X003970Y006414D02*
X003503Y006414D01*
X003344Y006573D02*
X003970Y006573D01*
X003970Y006731D02*
X003186Y006731D01*
X003027Y006890D02*
X003970Y006890D01*
X003970Y007048D02*
X002869Y007048D01*
X002710Y007207D02*
X003970Y007207D01*
X003970Y007365D02*
X002552Y007365D01*
X002393Y007524D02*
X003970Y007524D01*
X003970Y007682D02*
X002235Y007682D01*
X002434Y007841D02*
X002899Y007841D01*
X002893Y007844D02*
X002949Y007804D01*
X003011Y007772D01*
X003077Y007751D01*
X003145Y007740D01*
X003180Y007740D01*
X003215Y007740D01*
X003283Y007751D01*
X003349Y007772D01*
X003411Y007804D01*
X003467Y007844D01*
X003516Y007893D01*
X003556Y007949D01*
X003588Y008011D01*
X003609Y008077D01*
X003620Y008145D01*
X003620Y008440D01*
X003180Y008440D01*
X003180Y008440D01*
X003180Y007740D01*
X003180Y008440D01*
X003180Y008440D01*
X003180Y008440D01*
X002740Y008440D01*
X002740Y008145D01*
X002751Y008077D01*
X002772Y008011D01*
X002804Y007949D01*
X002844Y007893D01*
X002893Y007844D01*
X002778Y007999D02*
X002560Y007999D01*
X002600Y008158D02*
X002740Y008158D01*
X002740Y008316D02*
X002600Y008316D01*
X002600Y008475D02*
X002740Y008475D01*
X002740Y008633D02*
X002670Y008633D01*
X003180Y008316D02*
X003180Y008316D01*
X003180Y008158D02*
X003180Y008158D01*
X003180Y007999D02*
X003180Y007999D01*
X003180Y007841D02*
X003180Y007841D01*
X003461Y007841D02*
X003926Y007841D01*
X003800Y007999D02*
X003582Y007999D01*
X003620Y008158D02*
X003760Y008158D01*
X003760Y008316D02*
X003620Y008316D01*
X003620Y008475D02*
X003760Y008475D01*
X003760Y008633D02*
X003620Y008633D01*
X003611Y008792D02*
X003763Y008792D01*
X003836Y008950D02*
X003542Y008950D01*
X003446Y010852D02*
X003914Y010852D01*
X003796Y011011D02*
X003564Y011011D01*
X003600Y011169D02*
X003760Y011169D01*
X003760Y011328D02*
X003600Y011328D01*
X003600Y011486D02*
X003760Y011486D01*
X003760Y011645D02*
X003600Y011645D01*
X003592Y011803D02*
X003768Y011803D01*
X003848Y011962D02*
X003512Y011962D01*
X003390Y012120D02*
X004203Y012120D01*
X004044Y012279D02*
X003808Y012279D01*
X003552Y012279D02*
X003390Y012279D01*
X002970Y012279D02*
X002808Y012279D01*
X002970Y012120D02*
X001940Y012120D01*
X001940Y012279D02*
X002552Y012279D01*
X002329Y012437D02*
X001940Y012437D01*
X001940Y012596D02*
X002260Y012596D01*
X002260Y012754D02*
X001940Y012754D01*
X001940Y012913D02*
X002260Y012913D01*
X002260Y013071D02*
X001940Y013071D01*
X001940Y013230D02*
X002260Y013230D01*
X002303Y013388D02*
X001940Y013388D01*
X001940Y013547D02*
X002281Y013547D01*
X002260Y013705D02*
X001940Y013705D01*
X001940Y013864D02*
X002260Y013864D01*
X002260Y014022D02*
X001940Y014022D01*
X001940Y014181D02*
X002260Y014181D01*
X002283Y014339D02*
X001940Y014339D01*
X001940Y014498D02*
X002384Y014498D01*
X001940Y014656D02*
X002970Y014656D01*
X003008Y014815D02*
X001940Y014815D01*
X001940Y014973D02*
X003225Y014973D01*
X003066Y015132D02*
X001940Y015132D01*
X001940Y015290D02*
X002908Y015290D01*
X002749Y015449D02*
X001940Y015449D01*
X001940Y015607D02*
X002591Y015607D01*
X002432Y015766D02*
X001940Y015766D01*
X001940Y015924D02*
X002274Y015924D01*
X001420Y015924D02*
X000960Y015924D01*
X000960Y015766D02*
X001420Y015766D01*
X001420Y015607D02*
X000960Y015607D01*
X000960Y015449D02*
X001420Y015449D01*
X001420Y015290D02*
X000960Y015290D01*
X000960Y015132D02*
X001420Y015132D01*
X001420Y014973D02*
X000960Y014973D01*
X000960Y014815D02*
X001420Y014815D01*
X001420Y014656D02*
X000960Y014656D01*
X000960Y014498D02*
X001420Y014498D01*
X001420Y014339D02*
X000960Y014339D01*
X000960Y014181D02*
X001420Y014181D01*
X001420Y014022D02*
X000960Y014022D01*
X000960Y013864D02*
X001420Y013864D01*
X001420Y013705D02*
X000960Y013705D01*
X000960Y013547D02*
X001420Y013547D01*
X001420Y013388D02*
X000960Y013388D01*
X000960Y013230D02*
X001420Y013230D01*
X001420Y013071D02*
X000960Y013071D01*
X000960Y012913D02*
X001420Y012913D01*
X001420Y012754D02*
X000960Y012754D01*
X000960Y012596D02*
X001420Y012596D01*
X001420Y012437D02*
X000960Y012437D01*
X000960Y012279D02*
X001420Y012279D01*
X001420Y012120D02*
X000960Y012120D01*
X000960Y011962D02*
X001420Y011962D01*
X001354Y011860D02*
X001006Y011860D01*
X000960Y011814D01*
X000960Y020730D01*
X001116Y020730D01*
X001064Y020678D01*
X001000Y020524D01*
X001000Y020356D01*
X001064Y020202D01*
X001182Y020084D01*
X001336Y020020D01*
X001803Y020020D01*
X001963Y019860D01*
X001336Y019860D01*
X001182Y019796D01*
X001064Y019678D01*
X001000Y019524D01*
X001000Y019356D01*
X001064Y019202D01*
X001182Y019084D01*
X001336Y019020D01*
X001803Y019020D01*
X001943Y018880D01*
X001680Y018880D01*
X001680Y018440D01*
X002380Y018440D01*
X002380Y018475D01*
X002369Y018543D01*
X002348Y018609D01*
X002316Y018671D01*
X002276Y018727D01*
X002272Y018730D01*
X004116Y018730D01*
X004064Y018678D01*
X004000Y018524D01*
X004000Y018356D01*
X004064Y018202D01*
X004182Y018084D01*
X004336Y018020D01*
X005024Y018020D01*
X005178Y018084D01*
X005296Y018202D01*
X005360Y018356D01*
X005360Y018524D01*
X005296Y018678D01*
X005244Y018730D01*
X006506Y018730D01*
X006601Y018635D01*
X006733Y018580D01*
X006820Y018580D01*
X006820Y018493D01*
X006875Y018361D01*
X006938Y018298D01*
X006908Y018285D01*
X006043Y017421D01*
X006036Y017438D01*
X005918Y017556D01*
X005764Y017620D01*
X005596Y017620D01*
X005442Y017556D01*
X005324Y017438D01*
X005260Y017284D01*
X005260Y017200D01*
X005100Y017200D01*
X005100Y017284D01*
X005036Y017438D01*
X004918Y017556D01*
X004764Y017620D01*
X004596Y017620D01*
X004442Y017556D01*
X004324Y017438D01*
X004260Y017284D01*
X004260Y017200D01*
X004100Y017200D01*
X004100Y017284D01*
X004036Y017438D01*
X003918Y017556D01*
X003764Y017620D01*
X003596Y017620D01*
X003442Y017556D01*
X003324Y017438D01*
X003260Y017284D01*
X003260Y017200D01*
X003100Y017200D01*
X003100Y017284D01*
X003036Y017438D01*
X002918Y017556D01*
X002764Y017620D01*
X002596Y017620D01*
X002442Y017556D01*
X002324Y017438D01*
X002260Y017284D01*
X002260Y017200D01*
X001628Y017200D01*
X001533Y017160D01*
X001460Y017087D01*
X001420Y016992D01*
X001420Y011794D01*
X001354Y011860D01*
X001411Y011803D02*
X001420Y011803D01*
X001503Y011169D02*
X001760Y011169D01*
X002446Y010852D02*
X002914Y010852D01*
X002796Y011011D02*
X002564Y011011D01*
X002600Y011169D02*
X002760Y011169D01*
X002760Y011328D02*
X002600Y011328D01*
X002600Y011486D02*
X002760Y011486D01*
X002760Y011645D02*
X002600Y011645D01*
X002592Y011803D02*
X002768Y011803D01*
X002848Y011962D02*
X002512Y011962D01*
X004512Y011962D02*
X004848Y011962D01*
X004768Y011803D02*
X004592Y011803D01*
X004600Y011645D02*
X004760Y011645D01*
X004760Y011486D02*
X004600Y011486D01*
X004600Y011328D02*
X004760Y011328D01*
X004760Y011169D02*
X004600Y011169D01*
X004564Y011011D02*
X004796Y011011D01*
X004914Y010852D02*
X004446Y010852D01*
X005446Y010852D02*
X005914Y010852D01*
X005796Y011011D02*
X005564Y011011D01*
X005600Y011169D02*
X005760Y011169D01*
X005760Y011328D02*
X005600Y011328D01*
X005600Y011486D02*
X005760Y011486D01*
X005678Y011645D02*
X005600Y011645D01*
X006446Y010852D02*
X006914Y010852D01*
X006796Y011011D02*
X006564Y011011D01*
X006600Y011169D02*
X006760Y011169D01*
X006760Y011328D02*
X006600Y011328D01*
X006600Y011486D02*
X006760Y011486D01*
X006760Y011645D02*
X006600Y011645D01*
X009994Y012400D02*
X010036Y012442D01*
X010100Y012596D01*
X010100Y013284D01*
X010036Y013438D01*
X010034Y013440D01*
X010036Y013442D01*
X010100Y013596D01*
X010100Y013730D01*
X011381Y013730D01*
X011470Y013641D01*
X011470Y013478D01*
X011470Y012004D01*
X011418Y012056D01*
X011264Y012120D01*
X011096Y012120D01*
X010942Y012056D01*
X010902Y012015D01*
X010677Y012240D01*
X010680Y012240D01*
X010715Y012240D01*
X010783Y012251D01*
X010849Y012272D01*
X010911Y012304D01*
X010967Y012344D01*
X011016Y012393D01*
X011056Y012449D01*
X011088Y012511D01*
X011109Y012577D01*
X011120Y012645D01*
X011120Y012940D01*
X011120Y013235D01*
X011109Y013303D01*
X011088Y013369D01*
X011056Y013431D01*
X011016Y013487D01*
X010967Y013536D01*
X010911Y013576D01*
X010849Y013608D01*
X010783Y013629D01*
X010715Y013640D01*
X010680Y013640D01*
X010680Y012940D01*
X010680Y012940D01*
X011120Y012940D01*
X010680Y012940D01*
X010680Y012940D01*
X010680Y012940D01*
X010240Y012940D01*
X010240Y013235D01*
X010251Y013303D01*
X010272Y013369D01*
X010304Y013431D01*
X010344Y013487D01*
X010393Y013536D01*
X010449Y013576D01*
X010511Y013608D01*
X010577Y013629D01*
X010645Y013640D01*
X010680Y013640D01*
X010680Y012940D01*
X010680Y012240D01*
X010680Y012940D01*
X010680Y012940D01*
X010240Y012940D01*
X010240Y012645D01*
X010251Y012577D01*
X010272Y012511D01*
X010304Y012449D01*
X010340Y012400D01*
X009994Y012400D01*
X010031Y012437D02*
X010313Y012437D01*
X010248Y012596D02*
X010100Y012596D01*
X010100Y012754D02*
X010240Y012754D01*
X010240Y012913D02*
X010100Y012913D01*
X010100Y013071D02*
X010240Y013071D01*
X010240Y013230D02*
X010100Y013230D01*
X010057Y013388D02*
X010282Y013388D01*
X010408Y013547D02*
X010079Y013547D01*
X010100Y013705D02*
X011406Y013705D01*
X011470Y013547D02*
X010952Y013547D01*
X011078Y013388D02*
X011470Y013388D01*
X011470Y013230D02*
X011120Y013230D01*
X011120Y013071D02*
X011470Y013071D01*
X011470Y012913D02*
X011120Y012913D01*
X011120Y012754D02*
X011470Y012754D01*
X011470Y012596D02*
X011112Y012596D01*
X011047Y012437D02*
X011470Y012437D01*
X011470Y012279D02*
X010861Y012279D01*
X010797Y012120D02*
X011470Y012120D01*
X010680Y012279D02*
X010680Y012279D01*
X010680Y012437D02*
X010680Y012437D01*
X010680Y012596D02*
X010680Y012596D01*
X010680Y012754D02*
X010680Y012754D01*
X010680Y012913D02*
X010680Y012913D01*
X010680Y013071D02*
X010680Y013071D01*
X010680Y013230D02*
X010680Y013230D01*
X010680Y013388D02*
X010680Y013388D01*
X010680Y013547D02*
X010680Y013547D01*
X012515Y015275D02*
X012515Y015744D01*
X012608Y015705D01*
X012752Y015705D01*
X012884Y015760D01*
X012929Y015805D01*
X013857Y015805D01*
X013952Y015845D01*
X014025Y015918D01*
X014437Y016329D01*
X014442Y016324D01*
X014596Y016260D01*
X014764Y016260D01*
X014918Y016324D01*
X015036Y016442D01*
X015100Y016596D01*
X015100Y016680D01*
X015260Y016680D01*
X015260Y016596D01*
X015324Y016442D01*
X015442Y016324D01*
X015596Y016260D01*
X015764Y016260D01*
X015918Y016324D01*
X016036Y016442D01*
X016100Y016596D01*
X016100Y016680D01*
X016260Y016680D01*
X016260Y016596D01*
X016324Y016442D01*
X016442Y016324D01*
X016596Y016260D01*
X016764Y016260D01*
X016918Y016324D01*
X017036Y016442D01*
X017100Y016596D01*
X017100Y016680D01*
X017260Y016680D01*
X017260Y016596D01*
X017324Y016442D01*
X017442Y016324D01*
X017596Y016260D01*
X017764Y016260D01*
X017918Y016324D01*
X018036Y016442D01*
X018100Y016596D01*
X018100Y016680D01*
X018260Y016680D01*
X018260Y016596D01*
X018324Y016442D01*
X018442Y016324D01*
X018596Y016260D01*
X018764Y016260D01*
X018918Y016324D01*
X019036Y016442D01*
X019100Y016596D01*
X019100Y016680D01*
X019260Y016680D01*
X019260Y016596D01*
X019324Y016442D01*
X019442Y016324D01*
X019596Y016260D01*
X019764Y016260D01*
X019918Y016324D01*
X020036Y016442D01*
X020100Y016596D01*
X020100Y016680D01*
X020260Y016680D01*
X020260Y016596D01*
X020324Y016442D01*
X020442Y016324D01*
X020596Y016260D01*
X020764Y016260D01*
X020918Y016324D01*
X021036Y016442D01*
X021083Y016555D01*
X023197Y016555D01*
X023760Y015992D01*
X023760Y015596D01*
X023824Y015442D01*
X023866Y015400D01*
X023642Y015400D01*
X023515Y015527D01*
X023452Y015590D01*
X023620Y015758D01*
X023620Y015940D01*
X023620Y016122D01*
X023362Y016380D01*
X023180Y016380D01*
X023180Y015940D01*
X023180Y015940D01*
X023620Y015940D01*
X023180Y015940D01*
X023180Y015940D01*
X023180Y015940D01*
X022740Y015940D01*
X022740Y016122D01*
X022998Y016380D01*
X023180Y016380D01*
X023180Y015940D01*
X022740Y015940D01*
X022740Y015758D01*
X022848Y015650D01*
X021187Y015650D01*
X021367Y015830D01*
X021502Y015830D01*
X021634Y015885D01*
X021735Y015986D01*
X021790Y016118D01*
X021790Y016262D01*
X021735Y016394D01*
X021634Y016495D01*
X021502Y016550D01*
X021358Y016550D01*
X021226Y016495D01*
X021125Y016394D01*
X021070Y016262D01*
X021070Y016127D01*
X020718Y015775D01*
X017479Y015775D01*
X017384Y015870D01*
X017252Y015925D01*
X017108Y015925D01*
X016976Y015870D01*
X016875Y015769D01*
X016820Y015637D01*
X016820Y015493D01*
X016875Y015361D01*
X016921Y015315D01*
X016881Y015275D01*
X012515Y015275D01*
X012515Y015290D02*
X016896Y015290D01*
X016839Y015449D02*
X012515Y015449D01*
X012515Y015607D02*
X016820Y015607D01*
X016873Y015766D02*
X012890Y015766D01*
X014032Y015924D02*
X017106Y015924D01*
X017254Y015924D02*
X020867Y015924D01*
X021026Y016083D02*
X014190Y016083D01*
X014349Y016241D02*
X021070Y016241D01*
X021130Y016400D02*
X020993Y016400D01*
X020367Y016400D02*
X019993Y016400D01*
X020084Y016558D02*
X020276Y016558D01*
X019367Y016400D02*
X018993Y016400D01*
X019084Y016558D02*
X019276Y016558D01*
X018367Y016400D02*
X017993Y016400D01*
X018084Y016558D02*
X018276Y016558D01*
X017367Y016400D02*
X016993Y016400D01*
X017084Y016558D02*
X017276Y016558D01*
X016367Y016400D02*
X015993Y016400D01*
X016084Y016558D02*
X016276Y016558D01*
X015367Y016400D02*
X014993Y016400D01*
X015084Y016558D02*
X015276Y016558D01*
X015772Y019150D02*
X015776Y019153D01*
X015816Y019209D01*
X015848Y019271D01*
X015869Y019337D01*
X015880Y019405D01*
X015880Y019440D01*
X015880Y019475D01*
X015869Y019543D01*
X015848Y019609D01*
X015816Y019671D01*
X015776Y019727D01*
X015772Y019730D01*
X015892Y019730D01*
X016392Y020230D01*
X020552Y020230D01*
X020564Y020202D01*
X020682Y020084D01*
X020836Y020020D01*
X021524Y020020D01*
X021678Y020084D01*
X021680Y020086D01*
X021682Y020084D01*
X021836Y020020D01*
X022524Y020020D01*
X022633Y020065D01*
X022968Y019730D01*
X023588Y019730D01*
X023584Y019727D01*
X023544Y019671D01*
X023512Y019609D01*
X023491Y019543D01*
X023480Y019475D01*
X023480Y019440D01*
X024180Y019440D01*
X024880Y019440D01*
X024880Y019475D01*
X024869Y019543D01*
X024848Y019609D01*
X024816Y019671D01*
X024776Y019727D01*
X024772Y019730D01*
X029616Y019730D01*
X029564Y019678D01*
X029500Y019524D01*
X029500Y019356D01*
X029564Y019202D01*
X029605Y019162D01*
X029593Y019150D01*
X024772Y019150D01*
X024776Y019153D01*
X024816Y019209D01*
X024848Y019271D01*
X024869Y019337D01*
X024880Y019405D01*
X024880Y019440D01*
X024180Y019440D01*
X024180Y019440D01*
X024180Y019440D01*
X023480Y019440D01*
X023480Y019405D01*
X023491Y019337D01*
X023512Y019271D01*
X023544Y019209D01*
X023584Y019153D01*
X023588Y019150D01*
X022767Y019150D01*
X022755Y019162D01*
X022796Y019202D01*
X022860Y019356D01*
X022860Y019524D01*
X022796Y019678D01*
X022678Y019796D01*
X022524Y019860D01*
X021836Y019860D01*
X021682Y019796D01*
X021680Y019794D01*
X021678Y019796D01*
X021524Y019860D01*
X020836Y019860D01*
X020682Y019796D01*
X020564Y019678D01*
X020500Y019524D01*
X020500Y019356D01*
X020564Y019202D01*
X020605Y019162D01*
X020593Y019150D01*
X015772Y019150D01*
X015838Y019253D02*
X020543Y019253D01*
X020500Y019411D02*
X015880Y019411D01*
X015880Y019440D02*
X015180Y019440D01*
X015180Y019730D01*
X015180Y019730D01*
X015180Y019440D01*
X015180Y019440D01*
X015880Y019440D01*
X015861Y019570D02*
X020519Y019570D01*
X020614Y019728D02*
X015774Y019728D01*
X016049Y019887D02*
X022811Y019887D01*
X022746Y019728D02*
X023586Y019728D01*
X023499Y019570D02*
X022841Y019570D01*
X022860Y019411D02*
X023480Y019411D01*
X023522Y019253D02*
X022817Y019253D01*
X022463Y018860D02*
X022303Y019020D01*
X021836Y019020D01*
X021682Y019084D01*
X021680Y019086D01*
X021678Y019084D01*
X021524Y019020D01*
X021057Y019020D01*
X020767Y018730D01*
X020593Y018730D01*
X020437Y018730D01*
X020492Y018675D01*
X020627Y018675D01*
X020759Y018620D01*
X020860Y018519D01*
X020915Y018387D01*
X020915Y018243D01*
X020860Y018111D01*
X020759Y018010D01*
X020627Y017955D01*
X020483Y017955D01*
X020411Y017985D01*
X020376Y017900D01*
X022767Y017900D01*
X023392Y017275D01*
X026740Y017275D01*
X026740Y017440D01*
X027180Y017440D01*
X027180Y017440D01*
X027180Y018140D01*
X027215Y018140D01*
X027283Y018129D01*
X027349Y018108D01*
X027411Y018076D01*
X027467Y018036D01*
X027470Y018032D01*
X027470Y018527D01*
X027593Y018650D01*
X027673Y018730D01*
X022744Y018730D01*
X022796Y018678D01*
X022860Y018524D01*
X022860Y018356D01*
X022796Y018202D01*
X022678Y018084D01*
X022524Y018020D01*
X021836Y018020D01*
X021682Y018084D01*
X021564Y018202D01*
X021500Y018356D01*
X021500Y018524D01*
X021564Y018678D01*
X021682Y018796D01*
X021836Y018860D01*
X022463Y018860D01*
X022387Y018936D02*
X020973Y018936D01*
X020814Y018777D02*
X021663Y018777D01*
X021539Y018619D02*
X020761Y018619D01*
X020885Y018460D02*
X021500Y018460D01*
X021523Y018302D02*
X020915Y018302D01*
X020873Y018143D02*
X021623Y018143D01*
X020698Y017985D02*
X026843Y017985D01*
X026844Y017987D02*
X026804Y017931D01*
X026772Y017869D01*
X026751Y017803D01*
X026740Y017735D01*
X026740Y017440D01*
X027180Y017440D01*
X027180Y017440D01*
X027180Y018140D01*
X027145Y018140D01*
X027077Y018129D01*
X027011Y018108D01*
X026949Y018076D01*
X026893Y018036D01*
X026844Y017987D01*
X026758Y017826D02*
X022841Y017826D01*
X022999Y017668D02*
X026740Y017668D01*
X026740Y017509D02*
X023158Y017509D01*
X023316Y017351D02*
X026740Y017351D01*
X027180Y017509D02*
X027180Y017509D01*
X027180Y017668D02*
X027180Y017668D01*
X027180Y017826D02*
X027180Y017826D01*
X027180Y017985D02*
X027180Y017985D01*
X027470Y018143D02*
X022737Y018143D01*
X022837Y018302D02*
X027470Y018302D01*
X027470Y018460D02*
X022860Y018460D01*
X022821Y018619D02*
X027562Y018619D01*
X029543Y019253D02*
X024838Y019253D01*
X024880Y019411D02*
X029500Y019411D01*
X029519Y019570D02*
X024861Y019570D01*
X024774Y019728D02*
X029614Y019728D01*
X031454Y018020D02*
X032024Y018020D01*
X032108Y018055D01*
X033431Y018055D01*
X033476Y018010D01*
X033608Y017955D01*
X033693Y017955D01*
X033753Y017930D01*
X036303Y017930D01*
X036272Y017869D01*
X036251Y017803D01*
X036240Y017735D01*
X036240Y017440D01*
X036680Y017440D01*
X037120Y017440D01*
X037120Y017735D01*
X037109Y017803D01*
X037088Y017869D01*
X037057Y017930D01*
X037321Y017930D01*
X037260Y017784D01*
X037260Y017096D01*
X037324Y016942D01*
X037442Y016824D01*
X037596Y016760D01*
X037764Y016760D01*
X037918Y016824D01*
X037958Y016865D01*
X038343Y016480D01*
X038366Y016480D01*
X038324Y016438D01*
X038260Y016284D01*
X038260Y015817D01*
X038100Y015657D01*
X038100Y016284D01*
X038036Y016438D01*
X037918Y016556D01*
X037764Y016620D01*
X037596Y016620D01*
X037442Y016556D01*
X037402Y016515D01*
X037140Y016777D01*
X037019Y016898D01*
X037056Y016949D01*
X037088Y017011D01*
X037109Y017077D01*
X037120Y017145D01*
X037120Y017440D01*
X036680Y017440D01*
X036680Y017440D01*
X036680Y017440D01*
X036240Y017440D01*
X036240Y017177D01*
X035890Y017527D01*
X035767Y017650D01*
X032854Y017650D01*
X032759Y017745D01*
X032627Y017800D01*
X032483Y017800D01*
X032351Y017745D01*
X032250Y017644D01*
X032195Y017512D01*
X032195Y017368D01*
X032250Y017236D01*
X032351Y017135D01*
X032483Y017080D01*
X032627Y017080D01*
X032759Y017135D01*
X032854Y017230D01*
X032859Y017230D01*
X032820Y017137D01*
X032820Y016993D01*
X032859Y016900D01*
X031494Y016900D01*
X031536Y016942D01*
X031600Y017096D01*
X031600Y017784D01*
X031536Y017938D01*
X031454Y018020D01*
X031489Y017985D02*
X033537Y017985D01*
X032837Y017668D02*
X036240Y017668D01*
X036240Y017509D02*
X035908Y017509D01*
X036066Y017351D02*
X036240Y017351D01*
X036225Y017192D02*
X036240Y017192D01*
X036258Y017826D02*
X031582Y017826D01*
X031600Y017668D02*
X032273Y017668D01*
X032195Y017509D02*
X031600Y017509D01*
X031600Y017351D02*
X032202Y017351D01*
X032294Y017192D02*
X031600Y017192D01*
X031574Y017034D02*
X032820Y017034D01*
X032816Y017192D02*
X032843Y017192D01*
X033366Y016480D02*
X033324Y016438D01*
X033260Y016284D01*
X033260Y015650D01*
X033012Y015650D01*
X033120Y015758D01*
X033120Y015940D01*
X033120Y016122D01*
X032862Y016380D01*
X032680Y016380D01*
X032680Y015940D01*
X032680Y015940D01*
X033120Y015940D01*
X032680Y015940D01*
X032680Y015940D01*
X032680Y015940D01*
X032240Y015940D01*
X032240Y016122D01*
X032498Y016380D01*
X032680Y016380D01*
X032680Y015940D01*
X032240Y015940D01*
X032240Y015758D01*
X032408Y015590D01*
X032345Y015527D01*
X032218Y015400D01*
X031494Y015400D01*
X031536Y015442D01*
X031600Y015596D01*
X031600Y016284D01*
X031536Y016438D01*
X031494Y016480D01*
X033366Y016480D01*
X033308Y016400D02*
X031552Y016400D01*
X031600Y016241D02*
X032359Y016241D01*
X032240Y016083D02*
X031600Y016083D01*
X031600Y015924D02*
X032240Y015924D01*
X032240Y015766D02*
X031600Y015766D01*
X031600Y015607D02*
X032391Y015607D01*
X032267Y015449D02*
X031539Y015449D01*
X032680Y016083D02*
X032680Y016083D01*
X032680Y016241D02*
X032680Y016241D01*
X033001Y016241D02*
X033260Y016241D01*
X033260Y016083D02*
X033120Y016083D01*
X033120Y015924D02*
X033260Y015924D01*
X033260Y015766D02*
X033120Y015766D01*
X033366Y013480D02*
X031520Y013480D01*
X031556Y013431D01*
X031588Y013369D01*
X031609Y013303D01*
X031620Y013235D01*
X031620Y012940D01*
X031180Y012940D01*
X031180Y012940D01*
X031180Y012940D01*
X030740Y012940D01*
X030740Y013235D01*
X030751Y013303D01*
X030772Y013369D01*
X030804Y013431D01*
X030840Y013480D01*
X030494Y013480D01*
X030536Y013438D01*
X030600Y013284D01*
X030600Y012596D01*
X030536Y012442D01*
X030494Y012400D01*
X030548Y012400D01*
X030608Y012425D01*
X030752Y012425D01*
X030812Y012400D01*
X030840Y012400D01*
X030804Y012449D01*
X030772Y012511D01*
X030751Y012577D01*
X030740Y012645D01*
X030740Y012940D01*
X031180Y012940D01*
X031620Y012940D01*
X031620Y012645D01*
X031609Y012577D01*
X031588Y012511D01*
X031556Y012449D01*
X031520Y012400D01*
X033366Y012400D01*
X033324Y012442D01*
X033260Y012596D01*
X033260Y013284D01*
X033324Y013438D01*
X033366Y013480D01*
X033303Y013388D02*
X031578Y013388D01*
X031620Y013230D02*
X033260Y013230D01*
X033260Y013071D02*
X031620Y013071D01*
X031620Y012913D02*
X033260Y012913D01*
X033260Y012754D02*
X031620Y012754D01*
X031612Y012596D02*
X033260Y012596D01*
X033329Y012437D02*
X031547Y012437D01*
X030813Y012437D02*
X030531Y012437D01*
X030600Y012596D02*
X030748Y012596D01*
X030740Y012754D02*
X030600Y012754D01*
X030600Y012913D02*
X030740Y012913D01*
X030740Y013071D02*
X030600Y013071D01*
X030600Y013230D02*
X030740Y013230D01*
X030782Y013388D02*
X030557Y013388D01*
X024848Y011962D02*
X023012Y011962D01*
X022318Y008950D02*
X022024Y008950D01*
X022097Y008792D02*
X022249Y008792D01*
X022240Y008633D02*
X022100Y008633D01*
X022100Y008475D02*
X022240Y008475D01*
X022240Y008316D02*
X022100Y008316D01*
X022100Y008158D02*
X022240Y008158D01*
X022278Y007999D02*
X022060Y007999D01*
X023082Y007999D02*
X024800Y007999D01*
X024760Y008158D02*
X023120Y008158D01*
X023120Y008316D02*
X024760Y008316D01*
X023348Y005622D02*
X023283Y005622D01*
X013680Y007841D02*
X013680Y007841D01*
X013680Y007999D02*
X013680Y007999D01*
X013680Y008158D02*
X013680Y008158D01*
X013680Y008316D02*
X013680Y008316D01*
X013680Y008475D02*
X013680Y008475D01*
X013680Y008633D02*
X013680Y008633D01*
X013680Y008792D02*
X013680Y008792D01*
X013680Y008950D02*
X013680Y008950D01*
X005220Y006097D02*
X005140Y006097D01*
X005140Y005939D02*
X005220Y005939D01*
X005220Y005780D02*
X005140Y005780D01*
X005012Y005622D02*
X005348Y005622D01*
X003220Y005780D02*
X003140Y005780D01*
X003140Y005939D02*
X003220Y005939D01*
X003220Y006097D02*
X003140Y006097D01*
X003068Y006256D02*
X003015Y006256D01*
X001420Y016083D02*
X000960Y016083D01*
X000960Y016241D02*
X001420Y016241D01*
X001420Y016400D02*
X000960Y016400D01*
X000960Y016558D02*
X001420Y016558D01*
X001420Y016717D02*
X000960Y016717D01*
X000960Y016875D02*
X001420Y016875D01*
X001437Y017034D02*
X000960Y017034D01*
X000960Y017192D02*
X001609Y017192D01*
X000960Y017351D02*
X002288Y017351D01*
X002395Y017509D02*
X000960Y017509D01*
X000960Y017668D02*
X006290Y017668D01*
X006448Y017826D02*
X000960Y017826D01*
X000960Y017985D02*
X006607Y017985D01*
X006765Y018143D02*
X005237Y018143D01*
X005337Y018302D02*
X006934Y018302D01*
X006834Y018460D02*
X005360Y018460D01*
X005321Y018619D02*
X006640Y018619D01*
X007165Y018925D02*
X007165Y019012D01*
X007110Y019144D01*
X007009Y019245D01*
X006877Y019300D01*
X006857Y019300D01*
X006869Y019337D01*
X006880Y019405D01*
X006880Y019440D01*
X006880Y019475D01*
X006869Y019543D01*
X006848Y019609D01*
X006816Y019671D01*
X006776Y019727D01*
X006772Y019730D01*
X008756Y019730D01*
X008851Y019635D01*
X008983Y019580D01*
X009127Y019580D01*
X009259Y019635D01*
X009360Y019736D01*
X009415Y019868D01*
X009415Y020012D01*
X009360Y020144D01*
X009259Y020245D01*
X009127Y020300D01*
X008983Y020300D01*
X008851Y020245D01*
X008756Y020150D01*
X006744Y020150D01*
X006796Y020202D01*
X006859Y020355D01*
X011501Y020355D01*
X011564Y020202D01*
X011682Y020084D01*
X011836Y020020D01*
X012303Y020020D01*
X012343Y019980D01*
X014468Y019980D01*
X014595Y019853D01*
X014656Y019792D01*
X014633Y019776D01*
X014584Y019727D01*
X014544Y019671D01*
X014512Y019609D01*
X014491Y019543D01*
X014480Y019475D01*
X014480Y019440D01*
X015180Y019440D01*
X015180Y019440D01*
X015180Y019440D01*
X014480Y019440D01*
X014480Y019405D01*
X014481Y019400D01*
X012860Y019400D01*
X012860Y019524D01*
X012796Y019678D01*
X012678Y019796D01*
X012524Y019860D01*
X011836Y019860D01*
X011682Y019796D01*
X011564Y019678D01*
X011500Y019524D01*
X011500Y019356D01*
X011564Y019202D01*
X011616Y019150D01*
X008979Y019150D01*
X008884Y019245D01*
X008752Y019300D01*
X008608Y019300D01*
X008476Y019245D01*
X008375Y019144D01*
X008320Y019012D01*
X008320Y018868D01*
X008359Y018775D01*
X007479Y018775D01*
X007384Y018870D01*
X007252Y018925D01*
X007165Y018925D01*
X007165Y018936D02*
X008320Y018936D01*
X008354Y019094D02*
X007131Y019094D01*
X006991Y019253D02*
X008494Y019253D01*
X008866Y019253D02*
X011543Y019253D01*
X011500Y019411D02*
X006880Y019411D01*
X006880Y019440D02*
X006180Y019440D01*
X006880Y019440D01*
X006861Y019570D02*
X011519Y019570D01*
X011614Y019728D02*
X009352Y019728D01*
X009415Y019887D02*
X014561Y019887D01*
X014586Y019728D02*
X012746Y019728D01*
X012841Y019570D02*
X014499Y019570D01*
X014480Y019411D02*
X012860Y019411D01*
X011776Y020045D02*
X009401Y020045D01*
X009301Y020204D02*
X011563Y020204D01*
X008809Y020204D02*
X006797Y020204D01*
X006774Y019728D02*
X008758Y019728D01*
X008358Y018777D02*
X007477Y018777D01*
X006180Y019440D02*
X006180Y019440D01*
X006180Y019440D01*
X005480Y019440D01*
X005480Y019475D01*
X005491Y019543D01*
X005512Y019609D01*
X005544Y019671D01*
X005584Y019727D01*
X005588Y019730D01*
X005244Y019730D01*
X005296Y019678D01*
X005360Y019524D01*
X005360Y019356D01*
X005296Y019202D01*
X005244Y019150D01*
X005588Y019150D01*
X005584Y019153D01*
X005544Y019209D01*
X005512Y019271D01*
X005491Y019337D01*
X005480Y019405D01*
X005480Y019440D01*
X006180Y019440D01*
X005586Y019728D02*
X005246Y019728D01*
X005341Y019570D02*
X005499Y019570D01*
X005480Y019411D02*
X005360Y019411D01*
X005317Y019253D02*
X005522Y019253D01*
X004039Y018619D02*
X002343Y018619D01*
X002380Y018460D02*
X004000Y018460D01*
X004023Y018302D02*
X002358Y018302D01*
X002348Y018271D02*
X002369Y018337D01*
X002380Y018405D01*
X002380Y018440D01*
X001680Y018440D01*
X001680Y018440D01*
X001680Y018440D01*
X001680Y018000D01*
X001975Y018000D01*
X002043Y018011D01*
X002109Y018032D01*
X002171Y018064D01*
X002227Y018104D01*
X002276Y018153D01*
X002316Y018209D01*
X002348Y018271D01*
X002265Y018143D02*
X004123Y018143D01*
X003965Y017509D02*
X004395Y017509D01*
X004288Y017351D02*
X004072Y017351D01*
X003395Y017509D02*
X002965Y017509D01*
X003072Y017351D02*
X003288Y017351D01*
X004965Y017509D02*
X005395Y017509D01*
X005288Y017351D02*
X005072Y017351D01*
X005965Y017509D02*
X006131Y017509D01*
X001887Y018936D02*
X000960Y018936D01*
X000960Y019094D02*
X001172Y019094D01*
X001043Y019253D02*
X000960Y019253D01*
X000960Y019411D02*
X001000Y019411D01*
X001019Y019570D02*
X000960Y019570D01*
X000960Y019728D02*
X001114Y019728D01*
X000960Y019887D02*
X001936Y019887D01*
X001276Y020045D02*
X000960Y020045D01*
X000960Y020204D02*
X001063Y020204D01*
X001000Y020362D02*
X000960Y020362D01*
X000960Y020521D02*
X001000Y020521D01*
X000960Y020679D02*
X001065Y020679D01*
X001385Y018880D02*
X001317Y018869D01*
X001251Y018848D01*
X001189Y018816D01*
X001133Y018776D01*
X001084Y018727D01*
X001044Y018671D01*
X001012Y018609D01*
X000991Y018543D01*
X000980Y018475D01*
X000980Y018440D01*
X001680Y018440D01*
X001680Y018440D01*
X001680Y018440D01*
X001680Y018880D01*
X001385Y018880D01*
X001135Y018777D02*
X000960Y018777D01*
X000960Y018619D02*
X001017Y018619D01*
X000980Y018460D02*
X000960Y018460D01*
X000980Y018440D02*
X000980Y018405D01*
X000991Y018337D01*
X001012Y018271D01*
X001044Y018209D01*
X001084Y018153D01*
X001133Y018104D01*
X001189Y018064D01*
X001251Y018032D01*
X001317Y018011D01*
X001385Y018000D01*
X001680Y018000D01*
X001680Y018440D01*
X000980Y018440D01*
X000960Y018302D02*
X001002Y018302D01*
X000960Y018143D02*
X001095Y018143D01*
X001680Y018143D02*
X001680Y018143D01*
X001680Y018302D02*
X001680Y018302D01*
X001680Y018460D02*
X001680Y018460D01*
X001680Y018619D02*
X001680Y018619D01*
X001680Y018777D02*
X001680Y018777D01*
X001140Y025754D02*
X001140Y025978D01*
X001720Y026558D01*
X001750Y026486D01*
X001851Y026385D01*
X001547Y026385D01*
X001389Y026227D02*
X003271Y026227D01*
X003240Y026258D02*
X003348Y026150D01*
X002093Y026150D01*
X001970Y026027D01*
X001803Y025860D01*
X001336Y025860D01*
X001182Y025796D01*
X001140Y025754D01*
X001140Y025910D02*
X001853Y025910D01*
X002011Y026068D02*
X001230Y026068D01*
X001706Y026544D02*
X001726Y026544D01*
X001851Y026385D02*
X001983Y026330D01*
X002127Y026330D01*
X002259Y026385D01*
X003240Y026385D01*
X003240Y026440D02*
X003240Y026258D01*
X003240Y026440D02*
X003680Y026440D01*
X004120Y026440D01*
X004120Y026622D01*
X004012Y026730D01*
X004376Y026730D01*
X004260Y026614D01*
X004260Y026266D01*
X004376Y026150D01*
X004012Y026150D01*
X004120Y026258D01*
X004120Y026440D01*
X003680Y026440D01*
X003680Y026440D01*
X003680Y026440D01*
X003240Y026440D01*
X003240Y026622D01*
X003348Y026730D01*
X002415Y026730D01*
X002415Y026618D01*
X002360Y026486D01*
X002259Y026385D01*
X002384Y026544D02*
X003240Y026544D01*
X003320Y026702D02*
X002415Y026702D01*
X004040Y026702D02*
X004348Y026702D01*
X004260Y026544D02*
X004120Y026544D01*
X004120Y026385D02*
X004260Y026385D01*
X004299Y026227D02*
X004089Y026227D01*
X013952Y034590D02*
X014267Y034275D01*
X014343Y034275D01*
X014500Y034432D01*
X014500Y034524D01*
X014564Y034678D01*
X014682Y034796D01*
X014836Y034860D01*
X015524Y034860D01*
X015678Y034796D01*
X015796Y034678D01*
X015860Y034524D01*
X015860Y034356D01*
X015796Y034202D01*
X015794Y034200D01*
X020322Y034200D01*
X020500Y034378D01*
X020500Y034524D01*
X020564Y034678D01*
X020682Y034796D01*
X020836Y034860D01*
X021524Y034860D01*
X021678Y034796D01*
X021796Y034678D01*
X021860Y034524D01*
X021860Y034450D01*
X022482Y034450D01*
X022577Y034410D01*
X022628Y034360D01*
X022854Y034360D01*
X023014Y034200D01*
X023036Y034200D01*
X023000Y034236D01*
X022945Y034368D01*
X022945Y034512D01*
X022995Y034633D01*
X022862Y034500D01*
X022680Y034500D01*
X022680Y034940D01*
X023120Y034940D01*
X023120Y035122D01*
X023086Y035156D01*
X031274Y035156D01*
X031240Y035122D01*
X031240Y035052D01*
X031142Y035150D01*
X023718Y035150D01*
X023595Y035027D01*
X023368Y034800D01*
X023233Y034800D01*
X023112Y034750D01*
X023120Y034758D01*
X023120Y034940D01*
X022680Y034940D01*
X022680Y034940D01*
X022680Y034940D01*
X022680Y034940D01*
X022240Y034940D01*
X022240Y035122D01*
X022274Y035156D01*
X014086Y035156D01*
X014120Y035122D01*
X014120Y034940D01*
X013680Y034940D01*
X013680Y034940D01*
X014120Y034940D01*
X014120Y034758D01*
X013952Y034590D01*
X013989Y034627D02*
X014543Y034627D01*
X014500Y034469D02*
X014073Y034469D01*
X014232Y034310D02*
X014378Y034310D01*
X014120Y034786D02*
X014672Y034786D01*
X014120Y034944D02*
X022240Y034944D01*
X022240Y034940D02*
X022240Y034758D01*
X022498Y034500D01*
X022680Y034500D01*
X022680Y034940D01*
X022240Y034940D01*
X022240Y034786D02*
X021688Y034786D01*
X021817Y034627D02*
X022371Y034627D01*
X022680Y034627D02*
X022680Y034627D01*
X022680Y034786D02*
X022680Y034786D01*
X022989Y034627D02*
X022993Y034627D01*
X022945Y034469D02*
X021860Y034469D01*
X022240Y035103D02*
X014120Y035103D01*
X015688Y034786D02*
X020672Y034786D01*
X020543Y034627D02*
X015817Y034627D01*
X015860Y034469D02*
X020500Y034469D01*
X020432Y034310D02*
X015841Y034310D01*
X022904Y034310D02*
X022969Y034310D01*
X023120Y034786D02*
X023199Y034786D01*
X023120Y034944D02*
X023512Y034944D01*
X023671Y035103D02*
X023120Y035103D01*
X031189Y035103D02*
X031240Y035103D01*
X031680Y034940D02*
X032120Y034940D01*
X032120Y035122D01*
X032086Y035156D01*
X036012Y035156D01*
X036006Y035150D01*
X032718Y035150D01*
X032218Y034650D01*
X032012Y034650D01*
X032120Y034758D01*
X032120Y034940D01*
X031680Y034940D01*
X031680Y034940D01*
X032120Y034944D02*
X032512Y034944D01*
X032354Y034786D02*
X032120Y034786D01*
X032120Y035103D02*
X032671Y035103D01*
X033817Y034627D02*
X036120Y034627D01*
X036490Y034627D02*
X038543Y034627D01*
X038500Y034469D02*
X033860Y034469D01*
X033841Y034310D02*
X038519Y034310D01*
X038672Y034786D02*
X036631Y034786D01*
X036665Y034944D02*
X040240Y034944D01*
X040240Y035103D02*
X036627Y035103D01*
X038921Y032884D02*
X042400Y032884D01*
X040456Y034310D02*
X039841Y034310D01*
X040680Y034627D02*
X040680Y034627D01*
X040680Y034786D02*
X040680Y034786D01*
X039847Y029555D02*
X042400Y029555D01*
X042400Y029397D02*
X039860Y029397D01*
X039811Y029238D02*
X042400Y029238D01*
X042400Y029080D02*
X039667Y029080D01*
X033911Y025593D02*
X033831Y025593D01*
X032588Y019730D02*
X032244Y019730D01*
X032296Y019678D01*
X032360Y019524D01*
X032360Y019356D01*
X032296Y019202D01*
X032244Y019150D01*
X032588Y019150D01*
X032584Y019153D01*
X032544Y019209D01*
X032512Y019271D01*
X032491Y019337D01*
X032480Y019405D01*
X032480Y019440D01*
X033180Y019440D01*
X033180Y019440D01*
X032480Y019440D01*
X032480Y019475D01*
X032491Y019543D01*
X032512Y019609D01*
X032544Y019671D01*
X032584Y019727D01*
X032588Y019730D01*
X032586Y019728D02*
X032246Y019728D01*
X032341Y019570D02*
X032499Y019570D01*
X032480Y019411D02*
X032360Y019411D01*
X032317Y019253D02*
X032522Y019253D01*
X037102Y017826D02*
X037278Y017826D01*
X037260Y017668D02*
X037120Y017668D01*
X037120Y017509D02*
X037260Y017509D01*
X037260Y017351D02*
X037120Y017351D01*
X037120Y017192D02*
X037260Y017192D01*
X037286Y017034D02*
X037095Y017034D01*
X037042Y016875D02*
X037391Y016875D01*
X037200Y016717D02*
X038106Y016717D01*
X038265Y016558D02*
X037913Y016558D01*
X038052Y016400D02*
X038308Y016400D01*
X038260Y016241D02*
X038100Y016241D01*
X038100Y016083D02*
X038260Y016083D01*
X038260Y015924D02*
X038100Y015924D01*
X038100Y015766D02*
X038209Y015766D01*
X037447Y016558D02*
X037359Y016558D01*
X040410Y014498D02*
X040482Y014498D01*
X040408Y013547D02*
X040390Y013547D01*
X040680Y013547D02*
X040680Y013547D01*
X040680Y013388D02*
X040680Y013388D01*
X040680Y013230D02*
X040680Y013230D01*
X040680Y013071D02*
X040680Y013071D01*
X040680Y012913D02*
X040680Y012913D01*
X040680Y012754D02*
X040680Y012754D01*
X040680Y012596D02*
X040680Y012596D01*
X040680Y012437D02*
X040680Y012437D01*
X041680Y007940D02*
X041680Y007940D01*
X041680Y007445D01*
X041680Y007940D01*
X041680Y007841D02*
X041680Y007841D01*
X041680Y007682D02*
X041680Y007682D01*
X041680Y007524D02*
X041680Y007524D01*
X041396Y007524D02*
X041060Y007524D01*
X041219Y007682D02*
X041238Y007682D01*
X037406Y005463D02*
X036360Y005463D01*
X036338Y005305D02*
X037248Y005305D01*
X037089Y005146D02*
X036240Y005146D01*
X023821Y015449D02*
X023593Y015449D01*
X023469Y015607D02*
X023760Y015607D01*
X023760Y015766D02*
X023620Y015766D01*
X023620Y015924D02*
X023760Y015924D01*
X023670Y016083D02*
X023620Y016083D01*
X023511Y016241D02*
X023501Y016241D01*
X023353Y016400D02*
X021730Y016400D01*
X021790Y016241D02*
X022859Y016241D01*
X022740Y016083D02*
X021775Y016083D01*
X021673Y015924D02*
X022740Y015924D01*
X022740Y015766D02*
X021303Y015766D01*
X023180Y016083D02*
X023180Y016083D01*
X023180Y016241D02*
X023180Y016241D01*
X020412Y017985D02*
X020411Y017985D01*
X020776Y020045D02*
X016207Y020045D01*
X016366Y020204D02*
X020563Y020204D01*
X021584Y020045D02*
X021776Y020045D01*
X022584Y020045D02*
X022653Y020045D01*
X015180Y019728D02*
X015180Y019728D01*
X015180Y019570D02*
X015180Y019570D01*
M02*
