G75*
%MOIN*%
%OFA0B0*%
%FSLAX24Y24*%
%IPPOS*%
%LPD*%
%AMOC8*
5,1,8,0,0,1.08239X$1,22.5*
%
%ADD10C,0.0600*%
%ADD11C,0.0600*%
%ADD12OC8,0.0680*%
%ADD13C,0.0680*%
%ADD14C,0.0640*%
%ADD15OC8,0.0600*%
D10*
X003805Y002920D02*
X003805Y003440D01*
X004805Y003440D02*
X004805Y002920D01*
X005805Y002920D02*
X005805Y003440D01*
X006805Y003440D02*
X006805Y002920D01*
X007805Y002920D02*
X007805Y003440D01*
X008805Y003440D02*
X008805Y002920D01*
X009805Y002920D02*
X009805Y003440D01*
X010805Y003440D02*
X010805Y002920D01*
X011805Y002920D02*
X011805Y003440D01*
X012805Y003440D02*
X012805Y002920D01*
X013805Y002920D02*
X013805Y003440D01*
X014805Y003440D02*
X014805Y002920D01*
X015805Y002920D02*
X015805Y003440D01*
X016805Y003440D02*
X016805Y002920D01*
X020805Y003420D02*
X020805Y003940D01*
X021805Y003940D02*
X021805Y003420D01*
X022805Y003420D02*
X022805Y003940D01*
X023805Y003940D02*
X023805Y003420D01*
X024805Y003420D02*
X024805Y003940D01*
X025805Y003940D02*
X025805Y003420D01*
X026805Y003420D02*
X026805Y003940D01*
X027805Y003940D02*
X027805Y003420D01*
X028805Y003420D02*
X028805Y003940D01*
X029805Y003940D02*
X029805Y003420D01*
X031805Y005920D02*
X031805Y006440D01*
X032805Y006440D02*
X032805Y005920D01*
X033805Y005920D02*
X033805Y006440D01*
X034805Y006440D02*
X034805Y005920D01*
X035805Y005920D02*
X035805Y006440D01*
X036805Y006440D02*
X036805Y005920D01*
X037805Y005920D02*
X037805Y006440D01*
X038805Y006440D02*
X038805Y005920D01*
X029805Y006420D02*
X029805Y006940D01*
X028805Y006940D02*
X028805Y006420D01*
X027805Y006420D02*
X027805Y006940D01*
X026805Y006940D02*
X026805Y006420D01*
X025805Y006420D02*
X025805Y006940D01*
X024805Y006940D02*
X024805Y006420D01*
X023805Y006420D02*
X023805Y006940D01*
X022805Y006940D02*
X022805Y006420D01*
X021805Y006420D02*
X021805Y006940D01*
X020805Y006940D02*
X020805Y006420D01*
X016805Y008920D02*
X016805Y009440D01*
X015805Y009440D02*
X015805Y008920D01*
X014805Y008920D02*
X014805Y009440D01*
X013805Y009440D02*
X013805Y008920D01*
X012805Y008920D02*
X012805Y009440D01*
X011805Y009440D02*
X011805Y008920D01*
X010805Y008920D02*
X010805Y009440D01*
X009805Y009440D02*
X009805Y008920D01*
X008805Y008920D02*
X008805Y009440D01*
X007805Y009440D02*
X007805Y008920D01*
X006805Y008920D02*
X006805Y009440D01*
X005805Y009440D02*
X005805Y008920D01*
X004805Y008920D02*
X004805Y009440D01*
X003805Y009440D02*
X003805Y008920D01*
X031805Y008920D02*
X031805Y009440D01*
X032805Y009440D02*
X032805Y008920D01*
X033805Y008920D02*
X033805Y009440D01*
X034805Y009440D02*
X034805Y008920D01*
X035805Y008920D02*
X035805Y009440D01*
X036805Y009440D02*
X036805Y008920D01*
X037805Y008920D02*
X037805Y009440D01*
X038805Y009440D02*
X038805Y008920D01*
D11*
X001805Y002680D03*
X000805Y002680D03*
D12*
X032805Y003180D03*
X033805Y003180D03*
X034805Y003180D03*
X035805Y003180D03*
X036805Y003180D03*
X037805Y003180D03*
X038805Y003180D03*
X039805Y003180D03*
X039805Y004180D03*
X038805Y004180D03*
X037805Y004180D03*
X036805Y004180D03*
X035805Y004180D03*
X034805Y004180D03*
X033805Y004180D03*
X032805Y004180D03*
D13*
X000805Y001480D02*
X000805Y000880D01*
X001805Y000880D02*
X001805Y001480D01*
X002805Y001480D02*
X002805Y000880D01*
X003805Y000880D02*
X003805Y001480D01*
X004805Y001480D02*
X004805Y000880D01*
X005805Y000880D02*
X005805Y001480D01*
X006805Y001480D02*
X006805Y000880D01*
X007805Y000880D02*
X007805Y001480D01*
X008805Y001480D02*
X008805Y000880D01*
X009805Y000880D02*
X009805Y001480D01*
X010805Y001480D02*
X010805Y000880D01*
X011805Y000880D02*
X011805Y001480D01*
X012805Y001480D02*
X012805Y000880D01*
X013805Y000880D02*
X013805Y001480D01*
X014805Y001480D02*
X014805Y000880D01*
X015805Y000880D02*
X015805Y001480D01*
X016805Y001480D02*
X016805Y000880D01*
X017805Y000880D02*
X017805Y001480D01*
X018805Y001480D02*
X018805Y000880D01*
X019805Y000880D02*
X019805Y001480D01*
X020805Y001480D02*
X020805Y000880D01*
X021805Y000880D02*
X021805Y001480D01*
X022805Y001480D02*
X022805Y000880D01*
X023805Y000880D02*
X023805Y001480D01*
X024805Y001480D02*
X024805Y000880D01*
X025805Y000880D02*
X025805Y001480D01*
X026805Y001480D02*
X026805Y000880D01*
X027805Y000880D02*
X027805Y001480D01*
X028805Y001480D02*
X028805Y000880D01*
X029805Y000880D02*
X029805Y001480D01*
X030805Y001480D02*
X030805Y000880D01*
X031805Y000880D02*
X031805Y001480D01*
X032805Y001480D02*
X032805Y000880D01*
X033805Y000880D02*
X033805Y001480D01*
X034805Y001480D02*
X034805Y000880D01*
X035805Y000880D02*
X035805Y001480D01*
X036805Y001480D02*
X036805Y000880D01*
X037805Y000880D02*
X037805Y001480D01*
X038805Y001480D02*
X038805Y000880D01*
X039805Y000880D02*
X039805Y001480D01*
X029805Y008380D02*
X029805Y008980D01*
X028805Y008980D02*
X028805Y008380D01*
X027805Y008380D02*
X027805Y008980D01*
X026805Y008980D02*
X026805Y008380D01*
X025805Y008380D02*
X025805Y008980D01*
X024805Y008980D02*
X024805Y008380D01*
X023805Y008380D02*
X023805Y008980D01*
X022805Y008980D02*
X022805Y008380D01*
X021805Y008380D02*
X021805Y008980D01*
X020805Y008980D02*
X020805Y008380D01*
D14*
X001585Y007680D02*
X001025Y007680D01*
X001025Y006680D02*
X001585Y006680D01*
D15*
X001805Y009180D03*
X002805Y009180D03*
X019805Y006680D03*
X019805Y005680D03*
X039805Y006680D03*
X039805Y007680D03*
M02*
