G75*
%MOIN*%
%OFA0B0*%
%FSLAX24Y24*%
%IPPOS*%
%LPD*%
%AMOC8*
5,1,8,0,0,1.08239X$1,22.5*
%
%ADD10C,0.0030*%
%ADD11C,0.0060*%
%ADD12C,0.0050*%
%ADD13C,0.0160*%
%ADD14R,0.0160X0.0230*%
%ADD15C,0.0070*%
%ADD16C,0.0040*%
%ADD17C,0.0100*%
D10*
X002382Y006495D02*
X002505Y006495D01*
X002567Y006557D01*
X002567Y006680D01*
X002443Y006680D01*
X002320Y006557D02*
X002382Y006495D01*
X002320Y006557D02*
X002320Y006804D01*
X002382Y006865D01*
X002505Y006865D01*
X002567Y006804D01*
X002505Y007495D02*
X002320Y007495D01*
X002320Y007865D01*
X002505Y007865D01*
X002567Y007804D01*
X002567Y007742D01*
X002505Y007680D01*
X002320Y007680D01*
X002505Y007680D02*
X002567Y007618D01*
X002567Y007557D01*
X002505Y007495D01*
X002812Y007557D02*
X002812Y007804D01*
X002935Y007680D02*
X002688Y007680D01*
D11*
X001805Y007280D02*
X001805Y008080D01*
X001705Y008180D01*
X000905Y008180D01*
X000805Y008080D01*
X000805Y007280D01*
X000905Y007180D01*
X000805Y007080D01*
X000805Y006280D01*
X000905Y006180D01*
X001705Y006180D01*
X001805Y006280D01*
X001805Y007080D01*
X001705Y007180D01*
X001805Y007280D01*
X003005Y006680D02*
X003005Y008630D01*
X017655Y008630D01*
X017655Y003730D01*
X003005Y003730D01*
X003005Y005680D01*
X001705Y005630D02*
X001705Y003480D01*
X001655Y003480D01*
X000955Y003480D01*
X000905Y003480D01*
X000905Y005630D01*
X000907Y005647D01*
X000911Y005664D01*
X000918Y005680D01*
X000928Y005694D01*
X000941Y005707D01*
X000955Y005717D01*
X000971Y005724D01*
X000988Y005728D01*
X001005Y005730D01*
X001605Y005730D01*
X001622Y005728D01*
X001639Y005724D01*
X001655Y005717D01*
X001669Y005707D01*
X001682Y005694D01*
X001692Y005680D01*
X001699Y005664D01*
X001703Y005647D01*
X001705Y005630D01*
X003005Y005680D02*
X003049Y005682D01*
X003092Y005688D01*
X003134Y005697D01*
X003176Y005710D01*
X003216Y005727D01*
X003255Y005747D01*
X003292Y005770D01*
X003326Y005797D01*
X003359Y005826D01*
X003388Y005859D01*
X003415Y005893D01*
X003438Y005930D01*
X003458Y005969D01*
X003475Y006009D01*
X003488Y006051D01*
X003497Y006093D01*
X003503Y006136D01*
X003505Y006180D01*
X003503Y006224D01*
X003497Y006267D01*
X003488Y006309D01*
X003475Y006351D01*
X003458Y006391D01*
X003438Y006430D01*
X003415Y006467D01*
X003388Y006501D01*
X003359Y006534D01*
X003326Y006563D01*
X003292Y006590D01*
X003255Y006613D01*
X003216Y006633D01*
X003176Y006650D01*
X003134Y006663D01*
X003092Y006672D01*
X003049Y006678D01*
X003005Y006680D01*
X001305Y004980D02*
X001305Y004780D01*
X001505Y004780D01*
X001305Y004780D02*
X001105Y004780D01*
X001105Y004630D02*
X001505Y004630D01*
X001505Y004480D01*
X001105Y004480D01*
X001105Y004630D01*
X001105Y004330D02*
X001305Y004330D01*
X001505Y004330D01*
X001305Y004330D02*
X001305Y004130D01*
X001655Y003480D02*
X001655Y003330D01*
X000955Y003330D01*
X000955Y003480D01*
X019305Y005330D02*
X019305Y007030D01*
X019307Y007047D01*
X019311Y007064D01*
X019318Y007080D01*
X019328Y007094D01*
X019341Y007107D01*
X019355Y007117D01*
X019371Y007124D01*
X019388Y007128D01*
X019405Y007130D01*
X020205Y007130D01*
X020222Y007128D01*
X020239Y007124D01*
X020255Y007117D01*
X020269Y007107D01*
X020282Y007094D01*
X020292Y007080D01*
X020299Y007064D01*
X020303Y007047D01*
X020305Y007030D01*
X020305Y005330D01*
X020303Y005313D01*
X020299Y005296D01*
X020292Y005280D01*
X020282Y005266D01*
X020269Y005253D01*
X020255Y005243D01*
X020239Y005236D01*
X020222Y005232D01*
X020205Y005230D01*
X019405Y005230D01*
X019388Y005232D01*
X019371Y005236D01*
X019355Y005243D01*
X019341Y005253D01*
X019328Y005266D01*
X019318Y005280D01*
X019311Y005296D01*
X019307Y005313D01*
X019305Y005330D01*
X020305Y005580D02*
X020344Y005578D01*
X020383Y005572D01*
X020421Y005563D01*
X020458Y005550D01*
X020494Y005533D01*
X020527Y005513D01*
X020559Y005489D01*
X020588Y005463D01*
X020614Y005434D01*
X020638Y005402D01*
X020658Y005369D01*
X020675Y005333D01*
X020688Y005296D01*
X020697Y005258D01*
X020703Y005219D01*
X020705Y005180D01*
X020703Y005141D01*
X020697Y005102D01*
X020688Y005064D01*
X020675Y005027D01*
X020658Y004991D01*
X020638Y004958D01*
X020614Y004926D01*
X020588Y004897D01*
X020559Y004871D01*
X020527Y004847D01*
X020494Y004827D01*
X020458Y004810D01*
X020421Y004797D01*
X020383Y004788D01*
X020344Y004782D01*
X020305Y004780D01*
X020305Y004030D01*
X030305Y004030D01*
X030305Y006330D01*
X020305Y006330D01*
X020305Y005580D01*
X019805Y006030D02*
X019805Y006080D01*
X019805Y006280D02*
X019805Y006330D01*
X020555Y008180D02*
X021055Y008180D01*
X021305Y008430D01*
X021555Y008180D01*
X022055Y008180D01*
X022305Y008430D01*
X022555Y008180D01*
X023055Y008180D01*
X023305Y008430D01*
X023555Y008180D01*
X024055Y008180D01*
X024305Y008430D01*
X024555Y008180D01*
X025055Y008180D01*
X025305Y008430D01*
X025555Y008180D01*
X026055Y008180D01*
X026305Y008430D01*
X026555Y008180D01*
X027055Y008180D01*
X027305Y008430D01*
X027555Y008180D01*
X028055Y008180D01*
X028305Y008430D01*
X028555Y008180D01*
X029055Y008180D01*
X029305Y008430D01*
X029555Y008180D01*
X030055Y008180D01*
X030305Y008430D01*
X030305Y008930D01*
X030055Y009180D01*
X029555Y009180D01*
X029305Y008930D01*
X029055Y009180D01*
X028555Y009180D01*
X028305Y008930D01*
X028055Y009180D01*
X027555Y009180D01*
X027305Y008930D01*
X027055Y009180D01*
X026555Y009180D01*
X026305Y008930D01*
X026055Y009180D01*
X025555Y009180D01*
X025305Y008930D01*
X025055Y009180D01*
X024555Y009180D01*
X024305Y008930D01*
X024055Y009180D01*
X023555Y009180D01*
X023305Y008930D01*
X023055Y009180D01*
X022555Y009180D01*
X022305Y008930D01*
X022055Y009180D01*
X021555Y009180D01*
X021305Y008930D01*
X021055Y009180D01*
X020555Y009180D01*
X020305Y008930D01*
X020305Y008430D01*
X020555Y008180D01*
X031305Y008830D02*
X031305Y006530D01*
X039305Y006530D01*
X039305Y007280D01*
X039805Y007280D02*
X039805Y007330D01*
X039805Y007080D02*
X039805Y007030D01*
X040305Y006330D02*
X040303Y006313D01*
X040299Y006296D01*
X040292Y006280D01*
X040282Y006266D01*
X040269Y006253D01*
X040255Y006243D01*
X040239Y006236D01*
X040222Y006232D01*
X040205Y006230D01*
X039405Y006230D01*
X039388Y006232D01*
X039371Y006236D01*
X039355Y006243D01*
X039341Y006253D01*
X039328Y006266D01*
X039318Y006280D01*
X039311Y006296D01*
X039307Y006313D01*
X039305Y006330D01*
X039305Y008030D01*
X039305Y008080D02*
X039305Y008830D01*
X031305Y008830D01*
X039305Y008080D02*
X039266Y008078D01*
X039227Y008072D01*
X039189Y008063D01*
X039152Y008050D01*
X039116Y008033D01*
X039083Y008013D01*
X039051Y007989D01*
X039022Y007963D01*
X038996Y007934D01*
X038972Y007902D01*
X038952Y007869D01*
X038935Y007833D01*
X038922Y007796D01*
X038913Y007758D01*
X038907Y007719D01*
X038905Y007680D01*
X038907Y007641D01*
X038913Y007602D01*
X038922Y007564D01*
X038935Y007527D01*
X038952Y007491D01*
X038972Y007458D01*
X038996Y007426D01*
X039022Y007397D01*
X039051Y007371D01*
X039083Y007347D01*
X039116Y007327D01*
X039152Y007310D01*
X039189Y007297D01*
X039227Y007288D01*
X039266Y007282D01*
X039305Y007280D01*
X039305Y008030D02*
X039307Y008047D01*
X039311Y008064D01*
X039318Y008080D01*
X039328Y008094D01*
X039341Y008107D01*
X039355Y008117D01*
X039371Y008124D01*
X039388Y008128D01*
X039405Y008130D01*
X040205Y008130D01*
X040222Y008128D01*
X040239Y008124D01*
X040255Y008117D01*
X040269Y008107D01*
X040282Y008094D01*
X040292Y008080D01*
X040299Y008064D01*
X040303Y008047D01*
X040305Y008030D01*
X040305Y006330D01*
X040055Y004680D02*
X039555Y004680D01*
X039305Y004430D01*
X039055Y004680D01*
X038555Y004680D01*
X038305Y004430D01*
X038055Y004680D01*
X037555Y004680D01*
X037305Y004430D01*
X037055Y004680D01*
X036555Y004680D01*
X036305Y004430D01*
X036055Y004680D01*
X035555Y004680D01*
X035305Y004430D01*
X035055Y004680D01*
X034555Y004680D01*
X034305Y004430D01*
X034055Y004680D01*
X033555Y004680D01*
X033305Y004430D01*
X033055Y004680D01*
X032555Y004680D01*
X032305Y004430D01*
X032305Y002930D01*
X032555Y002680D01*
X033055Y002680D01*
X033305Y002930D01*
X033555Y002680D01*
X034055Y002680D01*
X034305Y002930D01*
X034555Y002680D01*
X035055Y002680D01*
X035305Y002930D01*
X035555Y002680D01*
X036055Y002680D01*
X036305Y002930D01*
X036555Y002680D01*
X037055Y002680D01*
X037305Y002930D01*
X037555Y002680D01*
X038055Y002680D01*
X038305Y002930D01*
X038555Y002680D01*
X039055Y002680D01*
X039305Y002930D01*
X039555Y002680D01*
X040055Y002680D01*
X040305Y002930D01*
X040305Y004430D01*
X040055Y004680D01*
X003255Y008780D02*
X003255Y009580D01*
X003253Y009597D01*
X003249Y009614D01*
X003242Y009630D01*
X003232Y009644D01*
X003219Y009657D01*
X003205Y009667D01*
X003189Y009674D01*
X003172Y009678D01*
X003155Y009680D01*
X001455Y009680D01*
X001438Y009678D01*
X001421Y009674D01*
X001405Y009667D01*
X001391Y009657D01*
X001378Y009644D01*
X001368Y009630D01*
X001361Y009614D01*
X001357Y009597D01*
X001355Y009580D01*
X001355Y008780D01*
X001357Y008763D01*
X001361Y008746D01*
X001368Y008730D01*
X001378Y008716D01*
X001391Y008703D01*
X001405Y008693D01*
X001421Y008686D01*
X001438Y008682D01*
X001455Y008680D01*
X003155Y008680D01*
X003172Y008682D01*
X003189Y008686D01*
X003205Y008693D01*
X003219Y008703D01*
X003232Y008716D01*
X003242Y008730D01*
X003249Y008746D01*
X003253Y008763D01*
X003255Y008780D01*
X002455Y009180D02*
X002405Y009180D01*
X002205Y009180D02*
X002155Y009180D01*
D12*
X001070Y009105D02*
X000770Y009105D01*
X000920Y009105D02*
X000920Y009555D01*
X000770Y009405D01*
X000609Y009480D02*
X000534Y009555D01*
X000384Y009555D01*
X000309Y009480D01*
X000309Y009180D01*
X000384Y009105D01*
X000534Y009105D01*
X000609Y009180D01*
X019430Y007870D02*
X019430Y007720D01*
X019505Y007645D01*
X019580Y007945D02*
X019880Y007645D01*
X019880Y007945D01*
X019580Y007945D02*
X019505Y007945D01*
X019430Y007870D01*
X020630Y007855D02*
X020780Y008005D01*
X020780Y007555D01*
X020630Y007555D02*
X020930Y007555D01*
X019880Y007409D02*
X019880Y007259D01*
X019805Y007184D01*
X019505Y007184D01*
X019430Y007259D01*
X019430Y007409D01*
X019505Y007484D01*
X019805Y007484D02*
X019880Y007409D01*
X020405Y009355D02*
X020330Y009430D01*
X020405Y009355D02*
X020555Y009355D01*
X020630Y009430D01*
X020630Y009505D01*
X020555Y009580D01*
X020405Y009580D01*
X020330Y009655D01*
X020330Y009730D01*
X020405Y009805D01*
X020555Y009805D01*
X020630Y009730D01*
X020790Y009805D02*
X020790Y009505D01*
X020940Y009355D01*
X021091Y009505D01*
X021091Y009805D01*
X021251Y009730D02*
X021326Y009805D01*
X021476Y009805D01*
X021551Y009730D01*
X021551Y009655D01*
X021251Y009355D01*
X021551Y009355D01*
X029580Y009355D02*
X029880Y009355D01*
X029730Y009355D02*
X029730Y009805D01*
X029580Y009655D01*
X030040Y009730D02*
X030040Y009430D01*
X030341Y009730D01*
X030341Y009430D01*
X030266Y009355D01*
X030115Y009355D01*
X030040Y009430D01*
X030040Y009730D02*
X030115Y009805D01*
X030266Y009805D01*
X030341Y009730D01*
X032680Y007805D02*
X032830Y007805D01*
X032755Y007805D02*
X032755Y007355D01*
X032680Y007355D02*
X032830Y007355D01*
X032987Y007430D02*
X033062Y007355D01*
X033212Y007355D01*
X033287Y007430D01*
X033447Y007355D02*
X033748Y007355D01*
X033597Y007355D02*
X033597Y007805D01*
X033447Y007655D01*
X033287Y007730D02*
X033212Y007805D01*
X033062Y007805D01*
X032987Y007730D01*
X032987Y007430D01*
X039730Y008380D02*
X039805Y008305D01*
X040105Y008305D01*
X040180Y008380D01*
X040180Y008530D01*
X040105Y008605D01*
X039805Y008605D02*
X039730Y008530D01*
X039730Y008380D01*
X039805Y008765D02*
X039730Y008840D01*
X039730Y008991D01*
X039805Y009066D01*
X039880Y009066D01*
X039955Y008991D01*
X040030Y009066D01*
X040105Y009066D01*
X040180Y008991D01*
X040180Y008840D01*
X040105Y008765D01*
X039955Y008916D02*
X039955Y008991D01*
X040091Y005305D02*
X039940Y005230D01*
X039790Y005080D01*
X040016Y005080D01*
X040091Y005005D01*
X040091Y004930D01*
X040016Y004855D01*
X039865Y004855D01*
X039790Y004930D01*
X039790Y005080D01*
X039630Y004855D02*
X039330Y004855D01*
X039480Y004855D02*
X039480Y005305D01*
X039330Y005155D01*
X032780Y002505D02*
X032780Y002055D01*
X032630Y002055D02*
X032930Y002055D01*
X032630Y002355D02*
X032780Y002505D01*
D13*
X001105Y002980D02*
X001105Y003180D01*
X001505Y003130D02*
X001505Y002980D01*
D14*
X001505Y003195D03*
X001105Y003195D03*
D15*
X009940Y005270D02*
X010045Y005165D01*
X010255Y005165D01*
X010360Y005270D01*
X010360Y005796D01*
X010584Y005690D02*
X010690Y005796D01*
X010900Y005796D01*
X011005Y005690D01*
X011229Y005585D02*
X011439Y005796D01*
X011439Y005165D01*
X011229Y005165D02*
X011649Y005165D01*
X011005Y005270D02*
X011005Y005375D01*
X010900Y005480D01*
X010690Y005480D01*
X010584Y005585D01*
X010584Y005690D01*
X010795Y005901D02*
X010795Y005060D01*
X010900Y005165D02*
X011005Y005270D01*
X010900Y005165D02*
X010690Y005165D01*
X010584Y005270D01*
X009940Y005270D02*
X009940Y005796D01*
D16*
X026125Y005310D02*
X026278Y005310D01*
X026202Y005310D02*
X026202Y004850D01*
X026278Y004850D02*
X026125Y004850D01*
X026432Y004927D02*
X026509Y004850D01*
X026662Y004850D01*
X026739Y004927D01*
X026892Y004850D02*
X027199Y005157D01*
X027199Y005234D01*
X027122Y005310D01*
X026969Y005310D01*
X026892Y005234D01*
X026739Y005234D02*
X026662Y005310D01*
X026509Y005310D01*
X026432Y005234D01*
X026432Y004927D01*
X026892Y004850D02*
X027199Y004850D01*
D17*
X020105Y006080D02*
X019805Y006080D01*
X019505Y006080D01*
X019505Y006280D02*
X019805Y006280D01*
X020105Y006280D01*
X002405Y008880D02*
X002405Y009180D01*
X002405Y009480D01*
X002205Y009480D02*
X002205Y009180D01*
X002205Y008880D01*
X039505Y007280D02*
X039805Y007280D01*
X040105Y007280D01*
X040105Y007080D02*
X039805Y007080D01*
X039505Y007080D01*
M02*
