%
M48
M72
T01C0.0240
T02C0.0320
T03C0.0360
T04C0.0400
%
T01
X24455Y4580
X27155Y5680
X33355Y5130
X31155Y3830
X28505Y2130
X25355Y2630
X19805Y7280
X17905Y8680
X17405Y8830
T02
X16805Y9180
X15805Y9180
X14805Y9180
X13805Y9180
X12805Y9180
X11805Y9180
X10805Y9180
X9805Y9180
X8805Y9180
X7805Y9180
X6805Y9180
X5805Y9180
X4805Y9180
X3805Y9180
X2805Y9180
X1805Y9180
X19805Y6680
X20805Y6680
X21805Y6680
X22805Y6680
X23805Y6680
X24805Y6680
X25805Y6680
X26805Y6680
X27805Y6680
X28805Y6680
X29805Y6680
X31805Y6180
X32805Y6180
X33805Y6180
X34805Y6180
X35805Y6180
X36805Y6180
X37805Y6180
X38805Y6180
X39805Y6680
X39805Y7680
X38805Y9180
X37805Y9180
X36805Y9180
X35805Y9180
X34805Y9180
X33805Y9180
X32805Y9180
X31805Y9180
X19805Y5680
X20805Y3680
X21805Y3680
X22805Y3680
X23805Y3680
X24805Y3680
X25805Y3680
X26805Y3680
X27805Y3680
X28805Y3680
X29805Y3680
X16805Y3180
X15805Y3180
X14805Y3180
X13805Y3180
X12805Y3180
X11805Y3180
X10805Y3180
X9805Y3180
X8805Y3180
X7805Y3180
X6805Y3180
X5805Y3180
X4805Y3180
X3805Y3180
X1805Y2680
X805Y2680
T03
X1305Y6680
X1305Y7680
T04
X805Y1180
X1805Y1180
X2805Y1180
X3805Y1180
X4805Y1180
X5805Y1180
X6805Y1180
X7805Y1180
X8805Y1180
X9805Y1180
X10805Y1180
X11805Y1180
X12805Y1180
X13805Y1180
X14805Y1180
X15805Y1180
X16805Y1180
X17805Y1180
X18805Y1180
X19805Y1180
X20805Y1180
X21805Y1180
X22805Y1180
X23805Y1180
X24805Y1180
X25805Y1180
X26805Y1180
X27805Y1180
X28805Y1180
X29805Y1180
X30805Y1180
X31805Y1180
X32805Y1180
X33805Y1180
X34805Y1180
X35805Y1180
X36805Y1180
X37805Y1180
X38805Y1180
X39805Y1180
X39805Y3180
X38805Y3180
X37805Y3180
X36805Y3180
X35805Y3180
X34805Y3180
X33805Y3180
X32805Y3180
X32805Y4180
X33805Y4180
X34805Y4180
X35805Y4180
X36805Y4180
X37805Y4180
X38805Y4180
X39805Y4180
X29805Y8680
X28805Y8680
X27805Y8680
X26805Y8680
X25805Y8680
X24805Y8680
X23805Y8680
X22805Y8680
X21805Y8680
X20805Y8680
M30
