G75*
%MOIN*%
%OFA0B0*%
%FSLAX24Y24*%
%IPPOS*%
%LPD*%
%AMOC8*
5,1,8,0,0,1.08239X$1,22.5*
%
%ADD10R,0.0680X0.2630*%
%ADD11C,0.0600*%
%ADD12OC8,0.0600*%
%ADD13R,0.0946X0.0316*%
%ADD14OC8,0.0710*%
%ADD15C,0.0710*%
%ADD16C,0.0740*%
%ADD17C,0.1380*%
%ADD18C,0.0640*%
%ADD19OC8,0.0680*%
D10*
X002180Y001940D03*
X003180Y001940D03*
X004180Y001940D03*
X005180Y001940D03*
X006180Y001940D03*
X007180Y001940D03*
X008180Y001940D03*
X009180Y001940D03*
X010180Y001940D03*
X011180Y001940D03*
X012180Y001940D03*
X013180Y001940D03*
X014180Y001940D03*
X015180Y001940D03*
X016180Y001940D03*
X017180Y001940D03*
X018180Y001940D03*
X019180Y001940D03*
X020180Y001940D03*
X021180Y001940D03*
X022180Y001940D03*
X023180Y001940D03*
X024180Y001940D03*
X025180Y001940D03*
X026180Y001940D03*
X027180Y001940D03*
X028180Y001940D03*
X029180Y001940D03*
X030180Y001940D03*
X031180Y001940D03*
X032180Y001940D03*
D11*
X032180Y007680D02*
X032180Y008200D01*
X031180Y008200D02*
X031180Y007680D01*
X030180Y007680D02*
X030180Y008200D01*
X029180Y008200D02*
X029180Y007680D01*
X028180Y007680D02*
X028180Y008200D01*
X027180Y008200D02*
X027180Y007680D01*
X026180Y007680D02*
X026180Y008200D01*
X025180Y008200D02*
X025180Y007680D01*
X024180Y007680D02*
X024180Y008200D01*
X021180Y008200D02*
X021180Y007680D01*
X020180Y007680D02*
X020180Y008200D01*
X019180Y008200D02*
X019180Y007680D01*
X018180Y007680D02*
X018180Y008200D01*
X017180Y008200D02*
X017180Y007680D01*
X016180Y007680D02*
X016180Y008200D01*
X015180Y008200D02*
X015180Y007680D01*
X014180Y007680D02*
X014180Y008200D01*
X013180Y008200D02*
X013180Y007680D01*
X010180Y007680D02*
X010180Y008200D01*
X009180Y008200D02*
X009180Y007680D01*
X008180Y007680D02*
X008180Y008200D01*
X007180Y008200D02*
X007180Y007680D01*
X006180Y007680D02*
X006180Y008200D01*
X005180Y008200D02*
X005180Y007680D01*
X004180Y007680D02*
X004180Y008200D01*
X003180Y008200D02*
X003180Y007680D01*
X002180Y007680D02*
X002180Y008200D01*
X003680Y011180D02*
X003680Y011700D01*
X004680Y011700D02*
X004680Y011180D01*
X005680Y011180D02*
X005680Y011700D01*
X006680Y011700D02*
X006680Y011180D01*
X007680Y011180D02*
X007680Y011700D01*
X008680Y011700D02*
X008680Y011180D01*
X009680Y011180D02*
X009680Y011700D01*
X010680Y011700D02*
X010680Y011180D01*
X011680Y011180D02*
X011680Y011700D01*
X014180Y011700D02*
X014180Y011180D01*
X015180Y011180D02*
X015180Y011700D01*
X016180Y011700D02*
X016180Y011180D01*
X017180Y011180D02*
X017180Y011700D01*
X018180Y011700D02*
X018180Y011180D01*
X019180Y011180D02*
X019180Y011700D01*
X020180Y011700D02*
X020180Y011180D01*
X021180Y011180D02*
X021180Y011700D01*
X022180Y011700D02*
X022180Y011180D01*
X024680Y011180D02*
X024680Y011700D01*
X025680Y011700D02*
X025680Y011180D01*
X026680Y011180D02*
X026680Y011700D01*
X027680Y011700D02*
X027680Y011180D01*
X028680Y011180D02*
X028680Y011700D01*
X029680Y011700D02*
X029680Y011180D01*
X030680Y011180D02*
X030680Y011700D01*
X031680Y011700D02*
X031680Y011180D01*
X032680Y011180D02*
X032680Y011700D01*
X026180Y014680D02*
X026180Y015200D01*
X025180Y015200D02*
X025180Y014680D01*
X024180Y014680D02*
X024180Y015200D01*
X023180Y015200D02*
X023180Y014680D01*
X022180Y014680D02*
X022180Y015200D01*
X021180Y015200D02*
X021180Y014680D01*
X020180Y014680D02*
X020180Y015200D01*
X019180Y015200D02*
X019180Y014680D01*
X018180Y014680D02*
X018180Y015200D01*
D12*
X015180Y014940D03*
X014180Y014940D03*
X012680Y015940D03*
X011680Y015940D03*
X010680Y016940D03*
X010680Y017940D03*
X011680Y017940D03*
X012680Y018930D03*
X014680Y018940D03*
X012680Y016950D03*
X017680Y018940D03*
X027180Y014940D03*
X027180Y013940D03*
X023680Y012440D03*
X023680Y011440D03*
X022180Y008940D03*
X022180Y007940D03*
X013180Y011440D03*
X013180Y012440D03*
X011180Y008940D03*
X011180Y007940D03*
X002680Y011440D03*
X002680Y012440D03*
X033180Y008940D03*
X033180Y007940D03*
D13*
X017204Y016190D03*
X017204Y016690D03*
X017204Y017190D03*
X017204Y017690D03*
X015156Y017690D03*
X015156Y017190D03*
X015156Y016690D03*
X015156Y016190D03*
D14*
X009180Y015940D03*
D15*
X009180Y014940D03*
D16*
X009510Y016940D02*
X008850Y016940D01*
X008850Y017940D02*
X009510Y017940D01*
X009510Y018940D02*
X008850Y018940D01*
D17*
X002280Y017940D03*
D18*
X001460Y012440D02*
X000900Y012440D01*
X000900Y011440D02*
X001460Y011440D01*
X019680Y018160D02*
X019680Y018720D01*
X020680Y018720D02*
X020680Y018160D01*
D19*
X020180Y005940D03*
X019180Y005940D03*
X018180Y005940D03*
X017180Y005940D03*
X016180Y005940D03*
X015180Y005940D03*
X014180Y005940D03*
X013180Y005940D03*
X012180Y005940D03*
X011180Y005940D03*
X010180Y005940D03*
X009180Y005940D03*
X008180Y005940D03*
X007180Y005940D03*
X006180Y005940D03*
X005180Y005940D03*
X004180Y005940D03*
X003180Y005940D03*
X002180Y005940D03*
X002180Y004940D03*
X003180Y004940D03*
X004180Y004940D03*
X005180Y004940D03*
X006180Y004940D03*
X007180Y004940D03*
X008180Y004940D03*
X009180Y004940D03*
X010180Y004940D03*
X011180Y004940D03*
X012180Y004940D03*
X013180Y004940D03*
X014180Y004940D03*
X015180Y004940D03*
X016180Y004940D03*
X017180Y004940D03*
X018180Y004940D03*
X019180Y004940D03*
X020180Y004940D03*
X021180Y004940D03*
X022180Y004940D03*
X023180Y004940D03*
X024180Y004940D03*
X025180Y004940D03*
X026180Y004940D03*
X027180Y004940D03*
X028180Y004940D03*
X029180Y004940D03*
X030180Y004940D03*
X031180Y004940D03*
X032180Y004940D03*
X032180Y005940D03*
X031180Y005940D03*
X030180Y005940D03*
X029180Y005940D03*
X028180Y005940D03*
X027180Y005940D03*
X026180Y005940D03*
X025180Y005940D03*
X024180Y005940D03*
X023180Y005940D03*
X022180Y005940D03*
X021180Y005940D03*
M02*
