G75*
%MOIN*%
%OFA0B0*%
%FSLAX24Y24*%
%IPPOS*%
%LPD*%
%AMOC8*
5,1,8,0,0,1.08239X$1,22.5*
%
%ADD10R,0.0600X0.2550*%
%ADD11C,0.0520*%
%ADD12OC8,0.0520*%
%ADD13OC8,0.0630*%
%ADD14C,0.0630*%
%ADD15C,0.0660*%
%ADD16C,0.0560*%
%ADD17OC8,0.0600*%
%ADD18C,0.0100*%
%ADD19C,0.0400*%
%ADD20C,0.0160*%
D10*
X002180Y001940D03*
X003180Y001940D03*
X004180Y001940D03*
X005180Y001940D03*
X006180Y001940D03*
X007180Y001940D03*
X008180Y001940D03*
X009180Y001940D03*
X010180Y001940D03*
X011180Y001940D03*
X012180Y001940D03*
X013180Y001940D03*
X014180Y001940D03*
X015180Y001940D03*
X016180Y001940D03*
X017180Y001940D03*
X018180Y001940D03*
X019180Y001940D03*
X020180Y001940D03*
X021180Y001940D03*
X022180Y001940D03*
X023180Y001940D03*
X024180Y001940D03*
X025180Y001940D03*
X026180Y001940D03*
X027180Y001940D03*
X028180Y001940D03*
X029180Y001940D03*
X030180Y001940D03*
X031180Y001940D03*
X032180Y001940D03*
D11*
X032180Y007680D02*
X032180Y008200D01*
X031180Y008200D02*
X031180Y007680D01*
X030180Y007680D02*
X030180Y008200D01*
X029180Y008200D02*
X029180Y007680D01*
X028180Y007680D02*
X028180Y008200D01*
X027180Y008200D02*
X027180Y007680D01*
X026180Y007680D02*
X026180Y008200D01*
X025180Y008200D02*
X025180Y007680D01*
X024180Y007680D02*
X024180Y008200D01*
X021180Y008200D02*
X021180Y007680D01*
X020180Y007680D02*
X020180Y008200D01*
X019180Y008200D02*
X019180Y007680D01*
X018180Y007680D02*
X018180Y008200D01*
X017180Y008200D02*
X017180Y007680D01*
X016180Y007680D02*
X016180Y008200D01*
X015180Y008200D02*
X015180Y007680D01*
X014180Y007680D02*
X014180Y008200D01*
X013180Y008200D02*
X013180Y007680D01*
X010180Y007680D02*
X010180Y008200D01*
X009180Y008200D02*
X009180Y007680D01*
X008180Y007680D02*
X008180Y008200D01*
X007180Y008200D02*
X007180Y007680D01*
X006180Y007680D02*
X006180Y008200D01*
X005180Y008200D02*
X005180Y007680D01*
X004180Y007680D02*
X004180Y008200D01*
X003180Y008200D02*
X003180Y007680D01*
X002180Y007680D02*
X002180Y008200D01*
X003680Y011180D02*
X003680Y011700D01*
X004680Y011700D02*
X004680Y011180D01*
X005680Y011180D02*
X005680Y011700D01*
X006680Y011700D02*
X006680Y011180D01*
X007680Y011180D02*
X007680Y011700D01*
X008680Y011700D02*
X008680Y011180D01*
X009680Y011180D02*
X009680Y011700D01*
X010680Y011700D02*
X010680Y011180D01*
X011680Y011180D02*
X011680Y011700D01*
X014180Y011700D02*
X014180Y011180D01*
X015180Y011180D02*
X015180Y011700D01*
X016180Y011700D02*
X016180Y011180D01*
X017180Y011180D02*
X017180Y011700D01*
X018180Y011700D02*
X018180Y011180D01*
X019180Y011180D02*
X019180Y011700D01*
X020180Y011700D02*
X020180Y011180D01*
X021180Y011180D02*
X021180Y011700D01*
X022180Y011700D02*
X022180Y011180D01*
X024680Y011180D02*
X024680Y011700D01*
X025680Y011700D02*
X025680Y011180D01*
X026680Y011180D02*
X026680Y011700D01*
X027680Y011700D02*
X027680Y011180D01*
X028680Y011180D02*
X028680Y011700D01*
X029680Y011700D02*
X029680Y011180D01*
X030680Y011180D02*
X030680Y011700D01*
X031680Y011700D02*
X031680Y011180D01*
X032680Y011180D02*
X032680Y011700D01*
X026180Y014680D02*
X026180Y015200D01*
X025180Y015200D02*
X025180Y014680D01*
X024180Y014680D02*
X024180Y015200D01*
X023180Y015200D02*
X023180Y014680D01*
X022180Y014680D02*
X022180Y015200D01*
X021180Y015200D02*
X021180Y014680D01*
X020180Y014680D02*
X020180Y015200D01*
X019180Y015200D02*
X019180Y014680D01*
X018180Y014680D02*
X018180Y015200D01*
D12*
X015180Y014940D03*
X014180Y014940D03*
X012680Y015940D03*
X011680Y015940D03*
X010680Y016940D03*
X010680Y017940D03*
X011680Y017940D03*
X012680Y018930D03*
X014680Y018940D03*
X012680Y016950D03*
X017680Y018940D03*
X027180Y014940D03*
X027180Y013940D03*
X023680Y012440D03*
X023680Y011440D03*
X022180Y008940D03*
X022180Y007940D03*
X013180Y011440D03*
X013180Y012440D03*
X011180Y008940D03*
X011180Y007940D03*
X002680Y011440D03*
X002680Y012440D03*
X033180Y008940D03*
X033180Y007940D03*
D13*
X009180Y015940D03*
D14*
X009180Y014940D03*
D15*
X009510Y016940D02*
X008850Y016940D01*
X008850Y017940D02*
X009510Y017940D01*
X009510Y018940D02*
X008850Y018940D01*
D16*
X001460Y012440D02*
X000900Y012440D01*
X000900Y011440D02*
X001460Y011440D01*
X019680Y018160D02*
X019680Y018720D01*
X020680Y018720D02*
X020680Y018160D01*
D17*
X020180Y005940D03*
X019180Y005940D03*
X018180Y005940D03*
X017180Y005940D03*
X016180Y005940D03*
X015180Y005940D03*
X014180Y005940D03*
X013180Y005940D03*
X012180Y005940D03*
X011180Y005940D03*
X010180Y005940D03*
X009180Y005940D03*
X008180Y005940D03*
X007180Y005940D03*
X006180Y005940D03*
X005180Y005940D03*
X004180Y005940D03*
X003180Y005940D03*
X002180Y005940D03*
X002180Y004940D03*
X003180Y004940D03*
X004180Y004940D03*
X005180Y004940D03*
X006180Y004940D03*
X007180Y004940D03*
X008180Y004940D03*
X009180Y004940D03*
X010180Y004940D03*
X011180Y004940D03*
X012180Y004940D03*
X013180Y004940D03*
X014180Y004940D03*
X015180Y004940D03*
X016180Y004940D03*
X017180Y004940D03*
X018180Y004940D03*
X019180Y004940D03*
X020180Y004940D03*
X021180Y004940D03*
X022180Y004940D03*
X023180Y004940D03*
X024180Y004940D03*
X025180Y004940D03*
X026180Y004940D03*
X027180Y004940D03*
X028180Y004940D03*
X029180Y004940D03*
X030180Y004940D03*
X031180Y004940D03*
X032180Y004940D03*
X032180Y005940D03*
X031180Y005940D03*
X030180Y005940D03*
X029180Y005940D03*
X028180Y005940D03*
X027180Y005940D03*
X026180Y005940D03*
X025180Y005940D03*
X024180Y005940D03*
X023180Y005940D03*
X022180Y005940D03*
X021180Y005940D03*
D18*
X021150Y005920D01*
X021150Y005650D01*
X020745Y005245D01*
X020745Y004750D01*
X020835Y004660D01*
X020835Y004120D01*
X019845Y004120D02*
X019845Y004660D01*
X019710Y004795D01*
X019710Y005200D01*
X020160Y005650D01*
X020160Y005920D01*
X020180Y005940D01*
X020610Y005380D02*
X020205Y004975D01*
X020180Y004940D01*
X020205Y004930D01*
X020205Y001960D01*
X020180Y001940D01*
X019180Y001940D02*
X019170Y001960D01*
X019170Y004930D01*
X019180Y004940D01*
X019620Y005380D01*
X019620Y008350D01*
X019215Y008755D01*
X019215Y011410D01*
X019180Y011440D01*
X019755Y011680D02*
X019755Y009205D01*
X020205Y008755D02*
X020610Y008350D01*
X020610Y005380D01*
X021195Y004975D02*
X021180Y004940D01*
X021195Y004930D01*
X021195Y001960D01*
X021180Y001940D01*
X022180Y001940D02*
X022185Y001960D01*
X022185Y004930D01*
X022180Y004940D01*
X022635Y005470D02*
X022635Y004255D01*
X023625Y004525D02*
X023625Y005515D01*
X023220Y005920D01*
X023180Y005940D01*
X022635Y005470D02*
X022185Y005920D01*
X022180Y005940D01*
X021645Y006100D02*
X021645Y005425D01*
X021195Y004975D01*
X021645Y006100D02*
X021465Y006280D01*
X021465Y006550D01*
X021600Y006685D01*
X021600Y008350D01*
X021195Y008755D01*
X021195Y011410D01*
X021180Y011440D01*
X020790Y011680D02*
X020790Y008665D01*
X020205Y008755D02*
X020205Y011410D01*
X020180Y011440D01*
X019755Y011680D02*
X018180Y013255D01*
X018180Y014940D01*
X019180Y014940D02*
X019215Y014920D01*
X019215Y013255D01*
X020790Y011680D01*
X021780Y011680D02*
X021780Y006460D01*
X021825Y006415D01*
X022950Y006505D02*
X022950Y008755D01*
X022185Y009520D01*
X022185Y011410D01*
X022180Y011440D01*
X021780Y011680D02*
X020205Y013255D01*
X020205Y014920D01*
X020180Y014940D01*
X021180Y014940D02*
X021195Y014920D01*
X021195Y014380D01*
X023085Y012490D01*
X023085Y010330D01*
X024030Y009385D01*
X024030Y009880D02*
X023265Y010645D01*
X023265Y012580D01*
X022185Y013660D01*
X022185Y014920D01*
X022180Y014940D01*
X023180Y014940D02*
X023220Y014920D01*
X023355Y014920D01*
X023985Y014290D01*
X026595Y014290D01*
X027045Y014515D02*
X026595Y014965D01*
X026595Y015370D01*
X022365Y019600D01*
X008820Y019600D01*
X004095Y014875D01*
X004095Y008710D01*
X003645Y008260D01*
X003645Y005425D01*
X003195Y004975D01*
X003180Y004940D01*
X003195Y004930D01*
X003195Y001960D01*
X003180Y001940D01*
X005175Y001960D02*
X005180Y001940D01*
X005175Y001960D02*
X005175Y004930D01*
X005180Y004940D01*
X006165Y004930D02*
X006180Y004940D01*
X006165Y004930D02*
X006165Y001960D01*
X006180Y001940D01*
X007180Y001940D02*
X007200Y001960D01*
X007200Y004930D01*
X007180Y004940D01*
X008180Y004940D02*
X008190Y004930D01*
X008190Y001960D01*
X008180Y001940D01*
X009180Y001940D02*
X009180Y004940D01*
X010170Y004930D02*
X010180Y004940D01*
X010170Y004930D02*
X010170Y001960D01*
X010180Y001940D01*
X011180Y001940D02*
X011205Y001960D01*
X011205Y004930D01*
X011180Y004940D01*
X011160Y004975D01*
X010710Y005425D01*
X010710Y011410D01*
X010680Y011440D01*
X011680Y011440D02*
X011700Y011410D01*
X011700Y005425D01*
X012150Y004975D01*
X012180Y004940D01*
X012195Y004930D01*
X012195Y001960D01*
X012180Y001940D01*
X013180Y001940D02*
X013185Y001960D01*
X013185Y004930D01*
X013180Y004940D01*
X012825Y004660D02*
X012735Y004750D01*
X012735Y005515D01*
X013140Y005920D01*
X013180Y005940D01*
X013725Y005470D02*
X014175Y005920D01*
X014180Y005940D01*
X013725Y005470D02*
X013725Y004750D01*
X013815Y004660D01*
X013815Y004120D01*
X014805Y004120D02*
X014805Y004705D01*
X014715Y004795D01*
X014715Y005200D01*
X015165Y005650D01*
X015165Y005920D01*
X015180Y005940D01*
X015615Y005650D02*
X015210Y005245D01*
X015210Y004975D01*
X015180Y004940D01*
X015165Y004930D01*
X015165Y001960D01*
X015180Y001940D01*
X014180Y001940D02*
X014175Y001960D01*
X014175Y004930D01*
X014180Y004940D01*
X014220Y004975D01*
X014625Y005380D01*
X014625Y008215D01*
X015030Y008620D01*
X015030Y008755D01*
X015210Y009070D02*
X015615Y008665D01*
X015615Y005650D01*
X015750Y005515D02*
X016155Y005920D01*
X016180Y005940D01*
X016650Y005695D02*
X016200Y005245D01*
X016200Y004975D01*
X016180Y004940D01*
X016200Y004930D01*
X016200Y001960D01*
X016180Y001940D01*
X017180Y001940D02*
X017190Y001960D01*
X017190Y004930D01*
X017180Y004940D01*
X017190Y004975D01*
X017640Y005425D01*
X017640Y008305D01*
X017190Y008755D01*
X017190Y011410D01*
X017180Y011440D01*
X018180Y011440D02*
X018180Y008755D01*
X018630Y008305D01*
X018630Y005425D01*
X018180Y004975D01*
X018180Y004940D01*
X018180Y001940D01*
X017820Y004120D02*
X017820Y004660D01*
X017730Y004750D01*
X017730Y005245D01*
X018180Y005695D01*
X018180Y005940D01*
X017180Y005940D02*
X017145Y005920D01*
X016740Y005515D01*
X016740Y004750D01*
X016830Y004660D01*
X016830Y004120D01*
X015840Y004120D02*
X015840Y004660D01*
X015750Y004750D01*
X015750Y005515D01*
X016650Y005695D02*
X016650Y008305D01*
X016200Y008755D01*
X016200Y011410D01*
X016180Y011440D01*
X015210Y011410D02*
X015180Y011440D01*
X015210Y011410D02*
X015210Y009070D01*
X019180Y005940D02*
X019170Y005920D01*
X019170Y005695D01*
X018720Y005245D01*
X018720Y004750D01*
X018810Y004660D01*
X018810Y004120D01*
X024165Y004930D02*
X024165Y001960D01*
X024180Y001940D01*
X025180Y001940D02*
X025200Y001960D01*
X025200Y004930D01*
X025180Y004940D01*
X024615Y005155D02*
X024615Y003490D01*
X026730Y003490D02*
X026730Y005110D01*
X027180Y005560D01*
X027180Y005940D01*
X027180Y004940D02*
X027180Y001940D01*
X028170Y001960D02*
X028180Y001940D01*
X028170Y001960D02*
X028170Y004930D01*
X028180Y004940D01*
X029180Y004940D02*
X029205Y004930D01*
X029205Y001960D01*
X029180Y001940D01*
X031180Y001940D02*
X031185Y001960D01*
X031185Y004930D01*
X031180Y004940D01*
X031140Y004975D01*
X030735Y005380D01*
X030735Y008215D01*
X028710Y010240D01*
X028710Y011410D01*
X028680Y011440D01*
X027720Y011410D02*
X027680Y011440D01*
X027720Y011410D02*
X027720Y009250D01*
X026685Y008485D02*
X026685Y011410D01*
X026680Y011440D01*
X025680Y011440D02*
X025650Y011410D01*
X025650Y008530D01*
X029180Y007940D02*
X029205Y007900D01*
X029205Y005965D01*
X029180Y005940D01*
X026190Y004930D02*
X026180Y004940D01*
X026190Y004930D02*
X026190Y001960D01*
X026180Y001940D01*
X024165Y004930D02*
X024180Y004940D01*
X024615Y005155D02*
X024210Y005560D01*
X024210Y005920D01*
X024180Y005940D01*
X030420Y010375D02*
X030645Y010600D01*
X030645Y011410D01*
X030680Y011440D01*
X029680Y011440D02*
X029655Y011455D01*
X029655Y012040D01*
X027180Y014515D01*
X027045Y014515D01*
X012825Y004660D02*
X012825Y004435D01*
D19*
X012825Y004435D03*
X013815Y004120D03*
X014805Y004120D03*
X015840Y004120D03*
X016830Y004120D03*
X017820Y004120D03*
X018810Y004120D03*
X019845Y004120D03*
X020835Y004120D03*
X022635Y004255D03*
X023625Y004525D03*
X024615Y003490D03*
X026730Y003490D03*
X022950Y006505D03*
X021825Y006415D03*
X020790Y008665D03*
X019755Y009205D03*
X024030Y009385D03*
X024030Y009880D03*
X025650Y008530D03*
X026685Y008485D03*
X027720Y009250D03*
X030420Y010375D03*
X026595Y014290D03*
X015030Y008755D03*
D20*
X014691Y008633D02*
X011910Y008633D01*
X011910Y008475D02*
X012861Y008475D01*
X012824Y008438D02*
X012942Y008556D01*
X013096Y008620D01*
X013264Y008620D01*
X013418Y008556D01*
X013536Y008438D01*
X013600Y008284D01*
X013600Y007596D01*
X013536Y007442D01*
X013418Y007324D01*
X013264Y007260D01*
X013096Y007260D01*
X012942Y007324D01*
X012824Y007442D01*
X012760Y007596D01*
X012760Y008284D01*
X012824Y008438D01*
X012773Y008316D02*
X011910Y008316D01*
X011910Y008158D02*
X012760Y008158D01*
X012760Y007999D02*
X011910Y007999D01*
X011910Y007841D02*
X012760Y007841D01*
X012760Y007682D02*
X011910Y007682D01*
X011910Y007524D02*
X012790Y007524D01*
X012901Y007365D02*
X011910Y007365D01*
X011910Y007207D02*
X014415Y007207D01*
X014415Y007323D02*
X014415Y006356D01*
X014371Y006400D01*
X013989Y006400D01*
X013720Y006131D01*
X013720Y005762D01*
X013515Y005557D01*
X013515Y005256D01*
X013371Y005400D01*
X012989Y005400D01*
X012945Y005356D01*
X012945Y005428D01*
X012997Y005480D01*
X013371Y005480D01*
X013640Y005749D01*
X013640Y006131D01*
X013371Y006400D01*
X012989Y006400D01*
X012720Y006131D01*
X012720Y005797D01*
X012525Y005602D01*
X012525Y005246D01*
X012371Y005400D01*
X012022Y005400D01*
X011910Y005512D01*
X011910Y005559D01*
X011989Y005480D01*
X012371Y005480D01*
X012640Y005749D01*
X012640Y006131D01*
X012371Y006400D01*
X011989Y006400D01*
X011910Y006321D01*
X011910Y010821D01*
X011918Y010824D01*
X012036Y010942D01*
X012100Y011096D01*
X012100Y011784D01*
X012036Y011938D01*
X011918Y012056D01*
X011764Y012120D01*
X011596Y012120D01*
X011442Y012056D01*
X011324Y011938D01*
X011260Y011784D01*
X011260Y011096D01*
X011324Y010942D01*
X011442Y010824D01*
X011490Y010804D01*
X011490Y009252D01*
X011362Y009380D01*
X011180Y009380D01*
X011180Y008940D01*
X011180Y008940D01*
X011180Y009380D01*
X010998Y009380D01*
X010920Y009302D01*
X010920Y010826D01*
X011036Y010942D01*
X011100Y011096D01*
X011100Y011784D01*
X011036Y011938D01*
X010918Y012056D01*
X010764Y012120D01*
X010596Y012120D01*
X010442Y012056D01*
X010324Y011938D01*
X010260Y011784D01*
X010260Y011096D01*
X010324Y010942D01*
X010442Y010824D01*
X010500Y010800D01*
X010500Y008474D01*
X010418Y008556D01*
X010264Y008620D01*
X010096Y008620D01*
X009942Y008556D01*
X009824Y008438D01*
X009760Y008284D01*
X009760Y007596D01*
X009824Y007442D01*
X009942Y007324D01*
X010096Y007260D01*
X010264Y007260D01*
X010418Y007324D01*
X010500Y007406D01*
X010500Y006271D01*
X010371Y006400D01*
X009989Y006400D01*
X009720Y006131D01*
X009720Y005749D01*
X009989Y005480D01*
X010371Y005480D01*
X010500Y005609D01*
X010500Y005338D01*
X010720Y005118D01*
X010720Y004749D01*
X010989Y004480D01*
X010995Y004480D01*
X010995Y003440D01*
X010380Y003440D01*
X010380Y004489D01*
X010640Y004749D01*
X010640Y005131D01*
X010371Y005400D01*
X009989Y005400D01*
X009720Y005131D01*
X009720Y004749D01*
X009960Y004509D01*
X009960Y003440D01*
X009390Y003440D01*
X009390Y004499D01*
X009640Y004749D01*
X009640Y005131D01*
X009371Y005400D01*
X008989Y005400D01*
X008720Y005131D01*
X008720Y004749D01*
X008970Y004499D01*
X008970Y003440D01*
X008400Y003440D01*
X008400Y004509D01*
X008640Y004749D01*
X008640Y005131D01*
X008371Y005400D01*
X007989Y005400D01*
X007720Y005131D01*
X007720Y004749D01*
X007980Y004489D01*
X007980Y003440D01*
X007410Y003440D01*
X007410Y004519D01*
X007640Y004749D01*
X007640Y005131D01*
X007371Y005400D01*
X006989Y005400D01*
X006720Y005131D01*
X006720Y004749D01*
X006989Y004480D01*
X006990Y004480D01*
X006990Y003440D01*
X006375Y003440D01*
X006375Y004484D01*
X006640Y004749D01*
X006640Y005131D01*
X006371Y005400D01*
X005989Y005400D01*
X005720Y005131D01*
X005720Y004749D01*
X005955Y004514D01*
X005955Y003440D01*
X005385Y003440D01*
X005385Y004494D01*
X005640Y004749D01*
X005640Y005131D01*
X005371Y005400D01*
X004989Y005400D01*
X004720Y005131D01*
X004720Y004749D01*
X004965Y004504D01*
X004965Y003440D01*
X004425Y003440D01*
X004425Y004534D01*
X004640Y004749D01*
X004640Y005131D01*
X004502Y005268D01*
X004816Y005582D01*
X004852Y005618D01*
X004989Y005480D01*
X005371Y005480D01*
X005640Y005749D01*
X005640Y006131D01*
X005371Y006400D01*
X004989Y006400D01*
X004920Y006331D01*
X004920Y007346D01*
X004942Y007324D01*
X005096Y007260D01*
X005264Y007260D01*
X005418Y007324D01*
X005536Y007442D01*
X005600Y007596D01*
X005600Y008284D01*
X005536Y008438D01*
X005418Y008556D01*
X005264Y008620D01*
X005096Y008620D01*
X005042Y008597D01*
X007355Y010911D01*
X007442Y010824D01*
X007596Y010760D01*
X007764Y010760D01*
X007918Y010824D01*
X008036Y010942D01*
X008100Y011096D01*
X008100Y011784D01*
X008036Y011938D01*
X007918Y012056D01*
X007764Y012120D01*
X007596Y012120D01*
X007485Y012074D01*
X007485Y012076D01*
X011240Y015831D01*
X011240Y015758D01*
X011498Y015500D01*
X011680Y015500D01*
X011862Y015500D01*
X012120Y015758D01*
X012120Y015940D01*
X012120Y016122D01*
X011862Y016380D01*
X011789Y016380D01*
X011835Y016426D01*
X012260Y016001D01*
X012260Y015766D01*
X012506Y015520D01*
X012854Y015520D01*
X013100Y015766D01*
X013100Y016114D01*
X012854Y016360D01*
X012579Y016360D01*
X012038Y016901D01*
X011971Y016968D01*
X011341Y017598D01*
X011253Y017635D01*
X010969Y017635D01*
X011100Y017766D01*
X011100Y018114D01*
X010854Y018360D01*
X010506Y018360D01*
X010318Y018172D01*
X009876Y018613D01*
X009925Y018662D01*
X010000Y018843D01*
X010000Y019037D01*
X009925Y019218D01*
X009788Y019355D01*
X009704Y019390D01*
X014886Y019390D01*
X014855Y019359D01*
X014854Y019360D01*
X014506Y019360D01*
X014260Y019114D01*
X014260Y018766D01*
X014430Y018596D01*
X014430Y015514D01*
X014276Y015360D01*
X014006Y015360D01*
X013760Y015114D01*
X013760Y014766D01*
X014006Y014520D01*
X014354Y014520D01*
X014600Y014766D01*
X014600Y015006D01*
X014873Y015279D01*
X014910Y015367D01*
X014910Y018576D01*
X015100Y018766D01*
X015100Y018926D01*
X015309Y019135D01*
X017281Y019135D01*
X017260Y019114D01*
X017260Y018766D01*
X017506Y018520D01*
X017854Y018520D01*
X018100Y018766D01*
X018100Y019114D01*
X018079Y019135D01*
X019532Y019135D01*
X019431Y019093D01*
X019307Y018969D01*
X019240Y018808D01*
X019240Y018072D01*
X019307Y017911D01*
X019431Y017787D01*
X019592Y017720D01*
X019768Y017720D01*
X019929Y017787D01*
X019971Y017829D01*
X020370Y017431D01*
X020370Y015576D01*
X020264Y015620D01*
X020096Y015620D01*
X019942Y015556D01*
X019824Y015438D01*
X019760Y015284D01*
X019760Y014596D01*
X019824Y014442D01*
X019942Y014324D01*
X019995Y014302D01*
X019995Y013168D01*
X021059Y012104D01*
X020942Y012056D01*
X020827Y011940D01*
X019425Y013342D01*
X019425Y014331D01*
X019536Y014442D01*
X019600Y014596D01*
X019600Y015284D01*
X019536Y015438D01*
X019418Y015556D01*
X019264Y015620D01*
X019096Y015620D01*
X018942Y015556D01*
X018824Y015438D01*
X018760Y015284D01*
X018760Y014596D01*
X018824Y014442D01*
X018942Y014324D01*
X019005Y014298D01*
X019005Y013168D01*
X020066Y012107D01*
X019942Y012056D01*
X019824Y011938D01*
X019815Y011917D01*
X018390Y013342D01*
X018390Y014312D01*
X018418Y014324D01*
X018536Y014442D01*
X018600Y014596D01*
X018600Y015284D01*
X018536Y015438D01*
X018418Y015556D01*
X018264Y015620D01*
X018096Y015620D01*
X017942Y015556D01*
X017824Y015438D01*
X017760Y015284D01*
X017760Y014596D01*
X017824Y014442D01*
X017942Y014324D01*
X017970Y014312D01*
X017970Y013168D01*
X019041Y012097D01*
X018942Y012056D01*
X018824Y011938D01*
X018760Y011784D01*
X018760Y011096D01*
X018824Y010942D01*
X018942Y010824D01*
X019005Y010798D01*
X019005Y008668D01*
X019066Y008607D01*
X018942Y008556D01*
X018824Y008438D01*
X018815Y008417D01*
X018717Y008515D01*
X018390Y008842D01*
X018390Y010812D01*
X018418Y010824D01*
X018536Y010942D01*
X018600Y011096D01*
X018600Y011784D01*
X018536Y011938D01*
X018418Y012056D01*
X018264Y012120D01*
X018096Y012120D01*
X017942Y012056D01*
X017824Y011938D01*
X017760Y011784D01*
X017760Y011096D01*
X017824Y010942D01*
X017942Y010824D01*
X017970Y010812D01*
X017970Y008668D01*
X018041Y008597D01*
X017942Y008556D01*
X017824Y008438D01*
X017818Y008424D01*
X017727Y008515D01*
X017400Y008842D01*
X017400Y010817D01*
X017418Y010824D01*
X017536Y010942D01*
X017600Y011096D01*
X017600Y011784D01*
X017536Y011938D01*
X017418Y012056D01*
X017264Y012120D01*
X017096Y012120D01*
X016942Y012056D01*
X016824Y011938D01*
X016760Y011784D01*
X016760Y011096D01*
X016824Y010942D01*
X016942Y010824D01*
X016980Y010808D01*
X016980Y008668D01*
X017048Y008600D01*
X016942Y008556D01*
X016824Y008438D01*
X016821Y008431D01*
X016737Y008515D01*
X016410Y008842D01*
X016410Y010821D01*
X016418Y010824D01*
X016536Y010942D01*
X016600Y011096D01*
X016600Y011784D01*
X016536Y011938D01*
X016418Y012056D01*
X016264Y012120D01*
X016096Y012120D01*
X015942Y012056D01*
X015824Y011938D01*
X015760Y011784D01*
X015760Y011096D01*
X015824Y010942D01*
X015942Y010824D01*
X015990Y010804D01*
X015990Y008668D01*
X016055Y008603D01*
X015942Y008556D01*
X015825Y008439D01*
X015825Y008752D01*
X015702Y008875D01*
X015420Y009157D01*
X015420Y010826D01*
X015536Y010942D01*
X015600Y011096D01*
X015600Y011784D01*
X015536Y011938D01*
X015418Y012056D01*
X015264Y012120D01*
X015096Y012120D01*
X014942Y012056D01*
X014824Y011938D01*
X014760Y011784D01*
X014760Y011096D01*
X014824Y010942D01*
X014942Y010824D01*
X015000Y010800D01*
X015000Y009115D01*
X014958Y009115D01*
X014826Y009060D01*
X014725Y008959D01*
X014670Y008827D01*
X014670Y008683D01*
X014707Y008594D01*
X014540Y008427D01*
X014536Y008438D01*
X014418Y008556D01*
X014264Y008620D01*
X014096Y008620D01*
X013942Y008556D01*
X013824Y008438D01*
X013760Y008284D01*
X013760Y007596D01*
X013824Y007442D01*
X013942Y007324D01*
X014096Y007260D01*
X014264Y007260D01*
X014415Y007323D01*
X014415Y007048D02*
X011910Y007048D01*
X011910Y006890D02*
X014415Y006890D01*
X014415Y006731D02*
X011910Y006731D01*
X011910Y006573D02*
X014415Y006573D01*
X014415Y006414D02*
X011910Y006414D01*
X012515Y006256D02*
X012845Y006256D01*
X012720Y006097D02*
X012640Y006097D01*
X012640Y005939D02*
X012720Y005939D01*
X012703Y005780D02*
X012640Y005780D01*
X012545Y005622D02*
X012512Y005622D01*
X012525Y005463D02*
X011959Y005463D01*
X012466Y005305D02*
X012525Y005305D01*
X012980Y005463D02*
X013515Y005463D01*
X013515Y005305D02*
X013466Y005305D01*
X013512Y005622D02*
X013580Y005622D01*
X013640Y005780D02*
X013720Y005780D01*
X013720Y005939D02*
X013640Y005939D01*
X013640Y006097D02*
X013720Y006097D01*
X013845Y006256D02*
X013515Y006256D01*
X013459Y007365D02*
X013901Y007365D01*
X013790Y007524D02*
X013570Y007524D01*
X013600Y007682D02*
X013760Y007682D01*
X013760Y007841D02*
X013600Y007841D01*
X013600Y007999D02*
X013760Y007999D01*
X013760Y008158D02*
X013600Y008158D01*
X013587Y008316D02*
X013773Y008316D01*
X013861Y008475D02*
X013499Y008475D01*
X014499Y008475D02*
X014588Y008475D01*
X014670Y008792D02*
X011910Y008792D01*
X011910Y008950D02*
X014721Y008950D01*
X014943Y009109D02*
X011910Y009109D01*
X011910Y009267D02*
X015000Y009267D01*
X015000Y009426D02*
X011910Y009426D01*
X011910Y009584D02*
X015000Y009584D01*
X015000Y009743D02*
X011910Y009743D01*
X011910Y009901D02*
X015000Y009901D01*
X015000Y010060D02*
X011910Y010060D01*
X011910Y010218D02*
X015000Y010218D01*
X015000Y010377D02*
X011910Y010377D01*
X011910Y010535D02*
X015000Y010535D01*
X015000Y010694D02*
X011910Y010694D01*
X011946Y010852D02*
X013914Y010852D01*
X013942Y010824D02*
X014096Y010760D01*
X014264Y010760D01*
X014418Y010824D01*
X014536Y010942D01*
X014600Y011096D01*
X014600Y011784D01*
X014536Y011938D01*
X014418Y012056D01*
X014264Y012120D01*
X014096Y012120D01*
X013942Y012056D01*
X013824Y011938D01*
X013760Y011784D01*
X013760Y011096D01*
X013824Y010942D01*
X013942Y010824D01*
X013796Y011011D02*
X012064Y011011D01*
X012100Y011169D02*
X012857Y011169D01*
X012760Y011266D02*
X013006Y011020D01*
X013354Y011020D01*
X013600Y011266D01*
X013600Y011614D01*
X013354Y011860D01*
X013006Y011860D01*
X012760Y011614D01*
X012760Y011266D01*
X012760Y011328D02*
X012100Y011328D01*
X012100Y011486D02*
X012760Y011486D01*
X012791Y011645D02*
X012100Y011645D01*
X012092Y011803D02*
X012949Y011803D01*
X012998Y012000D02*
X012740Y012258D01*
X012740Y012440D01*
X013180Y012440D01*
X013185Y012445D01*
X013185Y012940D01*
X013950Y013705D01*
X011700Y015955D01*
X011680Y015940D01*
X012120Y015940D01*
X011680Y015940D01*
X011680Y015940D01*
X011680Y015500D01*
X011680Y015940D01*
X011680Y015940D01*
X011680Y015924D02*
X011680Y015924D01*
X011680Y015766D02*
X011680Y015766D01*
X011680Y015607D02*
X011680Y015607D01*
X011969Y015607D02*
X012419Y015607D01*
X012261Y015766D02*
X012120Y015766D01*
X012120Y015924D02*
X012260Y015924D01*
X012178Y016083D02*
X012120Y016083D01*
X012020Y016241D02*
X012001Y016241D01*
X011861Y016400D02*
X011809Y016400D01*
X011835Y016765D02*
X007245Y012175D01*
X007245Y011140D01*
X004680Y008575D01*
X004680Y005785D01*
X004185Y005290D01*
X004185Y005020D01*
X004180Y004940D01*
X004185Y004930D01*
X004185Y001960D01*
X004180Y001940D01*
X002205Y001960D02*
X002180Y001940D01*
X002205Y001960D02*
X002205Y004930D01*
X002180Y004940D01*
X002250Y004975D01*
X002250Y005335D01*
X002655Y005740D01*
X002655Y010870D01*
X002250Y011275D01*
X002250Y011995D01*
X002655Y012400D01*
X002680Y012440D01*
X002680Y012440D01*
X002680Y012880D01*
X002862Y012880D01*
X003120Y012622D01*
X003120Y012440D01*
X002680Y012440D01*
X002680Y012440D01*
X002680Y012440D01*
X002240Y012440D01*
X002240Y012622D01*
X002498Y012880D01*
X002680Y012880D01*
X002680Y012440D01*
X003120Y012440D01*
X003120Y012258D01*
X002862Y012000D01*
X002680Y012000D01*
X002680Y012440D01*
X002680Y012440D01*
X002240Y012440D01*
X002240Y012258D01*
X002498Y012000D01*
X002680Y012000D01*
X002680Y012440D01*
X002680Y012437D02*
X002680Y012437D01*
X002680Y012279D02*
X002680Y012279D01*
X002680Y012120D02*
X002680Y012120D01*
X002982Y012120D02*
X003885Y012120D01*
X003885Y012070D02*
X003764Y012120D01*
X003596Y012120D01*
X003442Y012056D01*
X003324Y011938D01*
X003260Y011784D01*
X003260Y011096D01*
X003324Y010942D01*
X003442Y010824D01*
X003596Y010760D01*
X003764Y010760D01*
X003885Y010810D01*
X003885Y008797D01*
X003558Y008470D01*
X003531Y008443D01*
X003418Y008556D01*
X003264Y008620D01*
X003096Y008620D01*
X002942Y008556D01*
X002824Y008438D01*
X002760Y008284D01*
X002760Y007596D01*
X002824Y007442D01*
X002942Y007324D01*
X003096Y007260D01*
X003264Y007260D01*
X003418Y007324D01*
X003435Y007341D01*
X003435Y006336D01*
X003371Y006400D01*
X002989Y006400D01*
X002720Y006131D01*
X002720Y005749D01*
X002989Y005480D01*
X003371Y005480D01*
X003435Y005544D01*
X003435Y005512D01*
X003323Y005400D01*
X002989Y005400D01*
X002720Y005131D01*
X002720Y004749D01*
X002985Y004484D01*
X002985Y003440D01*
X001460Y003440D01*
X001460Y003496D01*
X001417Y003599D01*
X001339Y003677D01*
X001236Y003720D01*
X000460Y003720D01*
X000460Y012306D01*
X000474Y012263D01*
X000507Y012199D01*
X000549Y012140D01*
X000600Y012089D01*
X000659Y012047D01*
X000723Y012014D01*
X000792Y011991D01*
X000864Y011980D01*
X001170Y011980D01*
X001170Y012430D01*
X001190Y012430D01*
X001190Y012450D01*
X001170Y012450D01*
X001170Y012900D01*
X000864Y012900D01*
X000792Y012889D01*
X000723Y012866D01*
X000659Y012833D01*
X000600Y012791D01*
X000549Y012740D01*
X000507Y012681D01*
X000474Y012617D01*
X000460Y012574D01*
X000460Y020156D01*
X033900Y020156D01*
X033900Y003720D01*
X033124Y003720D01*
X033021Y003677D01*
X032943Y003599D01*
X032900Y003496D01*
X032900Y003440D01*
X031395Y003440D01*
X031395Y004504D01*
X031640Y004749D01*
X031640Y005131D01*
X031371Y005400D01*
X031012Y005400D01*
X030945Y005467D01*
X030945Y005524D01*
X030989Y005480D01*
X031371Y005480D01*
X031640Y005749D01*
X031640Y006131D01*
X031371Y006400D01*
X030989Y006400D01*
X030945Y006356D01*
X030945Y007323D01*
X031096Y007260D01*
X031264Y007260D01*
X031418Y007324D01*
X031536Y007442D01*
X031600Y007596D01*
X031600Y008284D01*
X031536Y008438D01*
X031418Y008556D01*
X031264Y008620D01*
X031096Y008620D01*
X030942Y008556D01*
X030824Y008438D01*
X030820Y008427D01*
X028920Y010327D01*
X028920Y010826D01*
X029036Y010942D01*
X029100Y011096D01*
X029100Y011784D01*
X029036Y011938D01*
X028918Y012056D01*
X028764Y012120D01*
X028596Y012120D01*
X028442Y012056D01*
X028324Y011938D01*
X028260Y011784D01*
X028260Y011096D01*
X028324Y010942D01*
X028442Y010824D01*
X028500Y010800D01*
X028500Y010153D01*
X030052Y008601D01*
X029942Y008556D01*
X029824Y008438D01*
X029760Y008284D01*
X029760Y007596D01*
X029824Y007442D01*
X029942Y007324D01*
X030096Y007260D01*
X030264Y007260D01*
X030418Y007324D01*
X030525Y007431D01*
X030525Y006246D01*
X030371Y006400D01*
X029989Y006400D01*
X029720Y006131D01*
X029720Y005749D01*
X029989Y005480D01*
X030371Y005480D01*
X030525Y005634D01*
X030525Y005293D01*
X030720Y005098D01*
X030720Y004749D01*
X030975Y004494D01*
X030975Y003440D01*
X030435Y003440D01*
X030435Y004544D01*
X030640Y004749D01*
X030640Y005131D01*
X030371Y005400D01*
X029989Y005400D01*
X029869Y005280D01*
X029543Y005606D01*
X029520Y005629D01*
X029640Y005749D01*
X029640Y006131D01*
X029415Y006356D01*
X029415Y007323D01*
X029418Y007324D01*
X029536Y007442D01*
X029600Y007596D01*
X029600Y008284D01*
X029536Y008438D01*
X029418Y008556D01*
X029264Y008620D01*
X029096Y008620D01*
X028942Y008556D01*
X028824Y008438D01*
X028760Y008284D01*
X028760Y007596D01*
X028824Y007442D01*
X028942Y007324D01*
X028995Y007302D01*
X028995Y006400D01*
X028989Y006400D01*
X028720Y006131D01*
X028720Y005749D01*
X028759Y005710D01*
X028601Y005710D01*
X028640Y005749D01*
X028640Y006131D01*
X028371Y006400D01*
X027989Y006400D01*
X027852Y006262D01*
X026753Y007361D01*
X026686Y007428D01*
X026598Y007465D01*
X026546Y007465D01*
X026600Y007596D01*
X026600Y008131D01*
X026613Y008125D01*
X026757Y008125D01*
X026760Y008126D01*
X026760Y007596D01*
X026824Y007442D01*
X026942Y007324D01*
X027096Y007260D01*
X027264Y007260D01*
X027418Y007324D01*
X027536Y007442D01*
X027600Y007596D01*
X027600Y008284D01*
X027536Y008438D01*
X027418Y008556D01*
X027264Y008620D01*
X027096Y008620D01*
X027030Y008593D01*
X026990Y008689D01*
X026895Y008784D01*
X026895Y010814D01*
X026918Y010824D01*
X027036Y010942D01*
X027100Y011096D01*
X027100Y011784D01*
X027036Y011938D01*
X026918Y012056D01*
X026764Y012120D01*
X026596Y012120D01*
X026442Y012056D01*
X026324Y011938D01*
X026260Y011784D01*
X026260Y011096D01*
X026324Y010942D01*
X026442Y010824D01*
X026475Y010810D01*
X026475Y008784D01*
X026380Y008689D01*
X026338Y008589D01*
X026264Y008620D01*
X026096Y008620D01*
X026010Y008584D01*
X026010Y008602D01*
X025955Y008734D01*
X025860Y008829D01*
X025860Y010800D01*
X025918Y010824D01*
X026036Y010942D01*
X026100Y011096D01*
X026100Y011784D01*
X026036Y011938D01*
X025918Y012056D01*
X025764Y012120D01*
X025596Y012120D01*
X025442Y012056D01*
X025324Y011938D01*
X025260Y011784D01*
X025260Y011096D01*
X025324Y010942D01*
X025440Y010826D01*
X025440Y008829D01*
X025345Y008734D01*
X025293Y008608D01*
X025264Y008620D01*
X025096Y008620D01*
X024942Y008556D01*
X024847Y008461D01*
X024818Y008531D01*
X024252Y009098D01*
X024335Y009181D01*
X024390Y009313D01*
X024390Y009457D01*
X024335Y009589D01*
X024292Y009632D01*
X024335Y009676D01*
X024390Y009808D01*
X024390Y009952D01*
X024335Y010084D01*
X024234Y010185D01*
X024102Y010240D01*
X023967Y010240D01*
X023475Y010732D01*
X023475Y011051D01*
X023506Y011020D01*
X023854Y011020D01*
X024100Y011266D01*
X024100Y011614D01*
X023854Y011860D01*
X023506Y011860D01*
X023475Y011829D01*
X023475Y012023D01*
X023498Y012000D01*
X023680Y012000D01*
X023862Y012000D01*
X024120Y012258D01*
X024120Y012440D01*
X024120Y012622D01*
X023862Y012880D01*
X023680Y012880D01*
X023680Y012440D01*
X023715Y012445D01*
X024255Y012985D01*
X022635Y014605D01*
X022635Y016495D01*
X020700Y018430D01*
X020680Y018440D01*
X020690Y018450D02*
X021140Y018450D01*
X021140Y018756D01*
X021129Y018828D01*
X021106Y018897D01*
X021073Y018961D01*
X021031Y019020D01*
X020980Y019071D01*
X020921Y019113D01*
X020879Y019135D01*
X021501Y019135D01*
X025039Y015596D01*
X024942Y015556D01*
X024824Y015438D01*
X024760Y015284D01*
X024760Y014596D01*
X024800Y014500D01*
X024560Y014500D01*
X024600Y014596D01*
X024600Y015284D01*
X024536Y015438D01*
X024418Y015556D01*
X024264Y015620D01*
X024096Y015620D01*
X023942Y015556D01*
X023824Y015438D01*
X023760Y015284D01*
X023760Y014812D01*
X023600Y014972D01*
X023600Y015284D01*
X023536Y015438D01*
X023418Y015556D01*
X023264Y015620D01*
X023096Y015620D01*
X022942Y015556D01*
X022824Y015438D01*
X022760Y015284D01*
X022760Y014596D01*
X022824Y014442D01*
X022942Y014324D01*
X023096Y014260D01*
X023264Y014260D01*
X023418Y014324D01*
X023536Y014442D01*
X023775Y014203D01*
X023898Y014080D01*
X026296Y014080D01*
X026391Y013985D01*
X026523Y013930D01*
X026667Y013930D01*
X026740Y013960D01*
X026740Y013940D01*
X027180Y013940D01*
X027225Y013885D01*
X029115Y011995D01*
X029115Y011140D01*
X031275Y008980D01*
X033120Y008980D01*
X033180Y008940D01*
X033165Y008935D01*
X033165Y008530D01*
X032670Y008035D01*
X032670Y005425D01*
X032220Y004975D01*
X032180Y004940D01*
X032175Y004885D01*
X032175Y001960D01*
X032180Y001940D01*
X030195Y001960D02*
X030180Y001940D01*
X030195Y001960D02*
X030195Y004930D01*
X030180Y004940D01*
X030105Y004930D01*
X029880Y004930D01*
X029340Y005470D01*
X027990Y005470D01*
X027675Y005785D01*
X027675Y006100D01*
X026550Y007225D01*
X025020Y007225D01*
X024615Y007630D01*
X024615Y008395D01*
X023985Y009025D01*
X023850Y009025D01*
X022635Y010240D01*
X022635Y012625D01*
X020610Y014650D01*
X020610Y017530D01*
X019710Y018430D01*
X019680Y018440D01*
X020120Y018460D02*
X020220Y018460D01*
X020220Y018450D02*
X020670Y018450D01*
X020670Y018430D01*
X020220Y018430D01*
X020220Y018259D01*
X020120Y018359D01*
X020120Y018808D01*
X020053Y018969D01*
X019929Y019093D01*
X019828Y019135D01*
X020481Y019135D01*
X020439Y019113D01*
X020380Y019071D01*
X020329Y019020D01*
X020287Y018961D01*
X020254Y018897D01*
X020231Y018828D01*
X020220Y018756D01*
X020220Y018450D01*
X020220Y018302D02*
X020178Y018302D01*
X020220Y018619D02*
X020120Y018619D01*
X020120Y018777D02*
X020223Y018777D01*
X020274Y018936D02*
X020067Y018936D01*
X019927Y019094D02*
X020412Y019094D01*
X020948Y019094D02*
X021542Y019094D01*
X021700Y018936D02*
X021086Y018936D01*
X021137Y018777D02*
X021859Y018777D01*
X022017Y018619D02*
X021140Y018619D01*
X021140Y018460D02*
X022176Y018460D01*
X022334Y018302D02*
X021140Y018302D01*
X021140Y018430D02*
X020690Y018430D01*
X020690Y018450D01*
X021140Y018430D02*
X021140Y018124D01*
X021129Y018052D01*
X021106Y017983D01*
X021073Y017919D01*
X021031Y017860D01*
X020980Y017809D01*
X020921Y017767D01*
X020857Y017734D01*
X020788Y017711D01*
X020771Y017709D01*
X020813Y017666D01*
X020850Y017578D01*
X020850Y015464D01*
X020942Y015556D01*
X021096Y015620D01*
X021264Y015620D01*
X021418Y015556D01*
X021536Y015438D01*
X021600Y015284D01*
X021600Y014596D01*
X021536Y014442D01*
X021483Y014389D01*
X021975Y013897D01*
X021975Y014310D01*
X021942Y014324D01*
X021824Y014442D01*
X021760Y014596D01*
X021760Y015284D01*
X021824Y015438D01*
X021942Y015556D01*
X022096Y015620D01*
X022264Y015620D01*
X022418Y015556D01*
X022536Y015438D01*
X022600Y015284D01*
X022600Y014596D01*
X022536Y014442D01*
X022418Y014324D01*
X022395Y014314D01*
X022395Y013747D01*
X023352Y012790D01*
X023380Y012762D01*
X023498Y012880D01*
X023680Y012880D01*
X023680Y012440D01*
X023680Y012440D01*
X024120Y012440D01*
X023680Y012440D01*
X023680Y012440D01*
X023680Y012000D01*
X023680Y012440D01*
X023680Y012440D01*
X023680Y012437D02*
X023680Y012437D01*
X023680Y012279D02*
X023680Y012279D01*
X023680Y012120D02*
X023680Y012120D01*
X023475Y011962D02*
X024348Y011962D01*
X024324Y011938D02*
X024260Y011784D01*
X024260Y011096D01*
X024324Y010942D01*
X024442Y010824D01*
X024596Y010760D01*
X024764Y010760D01*
X024918Y010824D01*
X025036Y010942D01*
X025100Y011096D01*
X025100Y011784D01*
X025036Y011938D01*
X024918Y012056D01*
X024764Y012120D01*
X024596Y012120D01*
X024442Y012056D01*
X024324Y011938D01*
X024268Y011803D02*
X023911Y011803D01*
X024069Y011645D02*
X024260Y011645D01*
X024260Y011486D02*
X024100Y011486D01*
X024100Y011328D02*
X024260Y011328D01*
X024260Y011169D02*
X024003Y011169D01*
X024296Y011011D02*
X023475Y011011D01*
X023475Y010852D02*
X024414Y010852D01*
X024946Y010852D02*
X025414Y010852D01*
X025440Y010694D02*
X023513Y010694D01*
X023672Y010535D02*
X025440Y010535D01*
X025440Y010377D02*
X023830Y010377D01*
X024155Y010218D02*
X025440Y010218D01*
X025440Y010060D02*
X024345Y010060D01*
X024390Y009901D02*
X025440Y009901D01*
X025440Y009743D02*
X024363Y009743D01*
X024337Y009584D02*
X025440Y009584D01*
X025440Y009426D02*
X024390Y009426D01*
X024371Y009267D02*
X025440Y009267D01*
X025440Y009109D02*
X024263Y009109D01*
X024399Y008950D02*
X025440Y008950D01*
X025402Y008792D02*
X024558Y008792D01*
X024716Y008633D02*
X025303Y008633D01*
X024861Y008475D02*
X024842Y008475D01*
X025898Y008792D02*
X026475Y008792D01*
X026475Y008950D02*
X025860Y008950D01*
X025860Y009109D02*
X026475Y009109D01*
X026475Y009267D02*
X025860Y009267D01*
X025860Y009426D02*
X026475Y009426D01*
X026475Y009584D02*
X025860Y009584D01*
X025860Y009743D02*
X026475Y009743D01*
X026475Y009901D02*
X025860Y009901D01*
X025860Y010060D02*
X026475Y010060D01*
X026475Y010218D02*
X025860Y010218D01*
X025860Y010377D02*
X026475Y010377D01*
X026475Y010535D02*
X025860Y010535D01*
X025860Y010694D02*
X026475Y010694D01*
X026414Y010852D02*
X025946Y010852D01*
X026064Y011011D02*
X026296Y011011D01*
X026260Y011169D02*
X026100Y011169D01*
X026100Y011328D02*
X026260Y011328D01*
X026260Y011486D02*
X026100Y011486D01*
X026100Y011645D02*
X026260Y011645D01*
X026268Y011803D02*
X026092Y011803D01*
X026012Y011962D02*
X026348Y011962D01*
X027012Y011962D02*
X027348Y011962D01*
X027324Y011938D02*
X027442Y012056D01*
X027596Y012120D01*
X027764Y012120D01*
X027918Y012056D01*
X028036Y011938D01*
X028100Y011784D01*
X028100Y011096D01*
X028036Y010942D01*
X027930Y010836D01*
X027930Y009549D01*
X028025Y009454D01*
X028080Y009322D01*
X028080Y009178D01*
X028025Y009046D01*
X027924Y008945D01*
X027792Y008890D01*
X027648Y008890D01*
X027516Y008945D01*
X027415Y009046D01*
X027360Y009178D01*
X027360Y009322D01*
X027415Y009454D01*
X027510Y009549D01*
X027510Y010796D01*
X027442Y010824D01*
X027324Y010942D01*
X027260Y011096D01*
X027260Y011784D01*
X027324Y011938D01*
X027268Y011803D02*
X027092Y011803D01*
X027100Y011645D02*
X027260Y011645D01*
X027260Y011486D02*
X027100Y011486D01*
X027100Y011328D02*
X027260Y011328D01*
X027260Y011169D02*
X027100Y011169D01*
X027064Y011011D02*
X027296Y011011D01*
X027414Y010852D02*
X026946Y010852D01*
X026895Y010694D02*
X027510Y010694D01*
X027510Y010535D02*
X026895Y010535D01*
X026895Y010377D02*
X027510Y010377D01*
X027510Y010218D02*
X026895Y010218D01*
X026895Y010060D02*
X027510Y010060D01*
X027510Y009901D02*
X026895Y009901D01*
X026895Y009743D02*
X027510Y009743D01*
X027510Y009584D02*
X026895Y009584D01*
X026895Y009426D02*
X027403Y009426D01*
X027360Y009267D02*
X026895Y009267D01*
X026895Y009109D02*
X027389Y009109D01*
X027511Y008950D02*
X026895Y008950D01*
X026895Y008792D02*
X029861Y008792D01*
X029703Y008950D02*
X027929Y008950D01*
X028051Y009109D02*
X029544Y009109D01*
X029386Y009267D02*
X028080Y009267D01*
X028037Y009426D02*
X029227Y009426D01*
X029069Y009584D02*
X027930Y009584D01*
X027930Y009743D02*
X028910Y009743D01*
X028752Y009901D02*
X027930Y009901D01*
X027930Y010060D02*
X028593Y010060D01*
X028500Y010218D02*
X027930Y010218D01*
X027930Y010377D02*
X028500Y010377D01*
X028500Y010535D02*
X027930Y010535D01*
X027930Y010694D02*
X028500Y010694D01*
X028414Y010852D02*
X027946Y010852D01*
X028064Y011011D02*
X028296Y011011D01*
X028260Y011169D02*
X028100Y011169D01*
X028100Y011328D02*
X028260Y011328D01*
X028260Y011486D02*
X028100Y011486D01*
X028100Y011645D02*
X028260Y011645D01*
X028268Y011803D02*
X028092Y011803D01*
X028012Y011962D02*
X028348Y011962D01*
X029012Y011962D02*
X029348Y011962D01*
X029324Y011938D02*
X029392Y012006D01*
X027620Y013778D01*
X027620Y013758D01*
X027362Y013500D01*
X027180Y013500D01*
X027180Y013940D01*
X027180Y013930D01*
X025200Y013930D01*
X024255Y012985D01*
X023988Y012754D02*
X028644Y012754D01*
X028802Y012596D02*
X024120Y012596D01*
X024120Y012437D02*
X028961Y012437D01*
X029119Y012279D02*
X024120Y012279D01*
X023982Y012120D02*
X029278Y012120D01*
X029324Y011938D02*
X029260Y011784D01*
X029260Y011096D01*
X029324Y010942D01*
X029442Y010824D01*
X029596Y010760D01*
X029764Y010760D01*
X029918Y010824D01*
X030036Y010942D01*
X030100Y011096D01*
X030100Y011784D01*
X030036Y011938D01*
X029918Y012056D01*
X029865Y012078D01*
X029865Y012127D01*
X027413Y014579D01*
X027600Y014766D01*
X027600Y015114D01*
X027354Y015360D01*
X027006Y015360D01*
X026805Y015159D01*
X026805Y015457D01*
X022575Y019687D01*
X022452Y019810D01*
X008733Y019810D01*
X004008Y015085D01*
X003885Y014962D01*
X003885Y012070D01*
X003885Y012279D02*
X003120Y012279D01*
X003120Y012437D02*
X003885Y012437D01*
X003885Y012596D02*
X003120Y012596D01*
X002988Y012754D02*
X003885Y012754D01*
X003885Y012913D02*
X000460Y012913D01*
X000460Y013071D02*
X003885Y013071D01*
X003885Y013230D02*
X000460Y013230D01*
X000460Y013388D02*
X003885Y013388D01*
X003885Y013547D02*
X000460Y013547D01*
X000460Y013705D02*
X003885Y013705D01*
X003885Y013864D02*
X000460Y013864D01*
X000460Y014022D02*
X003885Y014022D01*
X003885Y014181D02*
X000460Y014181D01*
X000460Y014339D02*
X003885Y014339D01*
X003885Y014498D02*
X000460Y014498D01*
X000460Y014656D02*
X003885Y014656D01*
X003885Y014815D02*
X000460Y014815D01*
X000460Y014973D02*
X003896Y014973D01*
X004055Y015132D02*
X000460Y015132D01*
X000460Y015290D02*
X004213Y015290D01*
X004372Y015449D02*
X000460Y015449D01*
X000460Y015607D02*
X004530Y015607D01*
X004689Y015766D02*
X000460Y015766D01*
X000460Y015924D02*
X004847Y015924D01*
X005006Y016083D02*
X000460Y016083D01*
X000460Y016241D02*
X001936Y016241D01*
X002052Y016210D02*
X002508Y016210D01*
X002948Y016328D01*
X003342Y016556D01*
X003664Y016878D01*
X003892Y017272D01*
X004010Y017712D01*
X004010Y018168D01*
X003892Y018608D01*
X003664Y019002D01*
X003342Y019324D01*
X002948Y019552D01*
X002508Y019670D01*
X002052Y019670D01*
X001612Y019552D01*
X001218Y019324D01*
X000896Y019002D01*
X000668Y018608D01*
X000550Y018168D01*
X000550Y017712D01*
X000668Y017272D01*
X000896Y016878D01*
X001218Y016556D01*
X001612Y016328D01*
X002052Y016210D01*
X001488Y016400D02*
X000460Y016400D01*
X000460Y016558D02*
X001215Y016558D01*
X001057Y016717D02*
X000460Y016717D01*
X000460Y016875D02*
X000898Y016875D01*
X000806Y017034D02*
X000460Y017034D01*
X000460Y017192D02*
X000714Y017192D01*
X000647Y017351D02*
X000460Y017351D01*
X000460Y017509D02*
X000604Y017509D01*
X000562Y017668D02*
X000460Y017668D01*
X000460Y017826D02*
X000550Y017826D01*
X000550Y017985D02*
X000460Y017985D01*
X000460Y018143D02*
X000550Y018143D01*
X000586Y018302D02*
X000460Y018302D01*
X000460Y018460D02*
X000628Y018460D01*
X000674Y018619D02*
X000460Y018619D01*
X000460Y018777D02*
X000766Y018777D01*
X000857Y018936D02*
X000460Y018936D01*
X000460Y019094D02*
X000987Y019094D01*
X001146Y019253D02*
X000460Y019253D01*
X000460Y019411D02*
X001368Y019411D01*
X001677Y019570D02*
X000460Y019570D01*
X000460Y019728D02*
X008651Y019728D01*
X008493Y019570D02*
X002883Y019570D01*
X003192Y019411D02*
X008334Y019411D01*
X008176Y019253D02*
X003414Y019253D01*
X003573Y019094D02*
X008017Y019094D01*
X007859Y018936D02*
X003703Y018936D01*
X003794Y018777D02*
X007700Y018777D01*
X007542Y018619D02*
X003886Y018619D01*
X003932Y018460D02*
X007383Y018460D01*
X007225Y018302D02*
X003974Y018302D01*
X004010Y018143D02*
X007066Y018143D01*
X006908Y017985D02*
X004010Y017985D01*
X004010Y017826D02*
X006749Y017826D01*
X006591Y017668D02*
X003998Y017668D01*
X003956Y017509D02*
X006432Y017509D01*
X006274Y017351D02*
X003913Y017351D01*
X003846Y017192D02*
X006115Y017192D01*
X005957Y017034D02*
X003754Y017034D01*
X003662Y016875D02*
X005798Y016875D01*
X005640Y016717D02*
X003503Y016717D01*
X003345Y016558D02*
X005481Y016558D01*
X005323Y016400D02*
X003072Y016400D01*
X002624Y016241D02*
X005164Y016241D01*
X008325Y016090D02*
X008325Y017125D01*
X009180Y017980D01*
X009180Y017940D01*
X009675Y018430D02*
X009720Y018430D01*
X010260Y017890D01*
X010260Y017755D01*
X010620Y017395D01*
X011205Y017395D01*
X011835Y016765D01*
X012645Y015955D01*
X012680Y015940D01*
X012973Y016241D02*
X014430Y016241D01*
X014430Y016083D02*
X013100Y016083D01*
X013100Y015924D02*
X014430Y015924D01*
X014430Y015766D02*
X013099Y015766D01*
X012941Y015607D02*
X014430Y015607D01*
X014364Y015449D02*
X010858Y015449D01*
X011016Y015607D02*
X011391Y015607D01*
X011240Y015766D02*
X011175Y015766D01*
X010813Y016083D02*
X009675Y016083D01*
X009675Y016145D02*
X009675Y015940D01*
X009180Y015940D01*
X009180Y015940D01*
X009180Y016435D01*
X009385Y016435D01*
X009675Y016145D01*
X009579Y016241D02*
X010972Y016241D01*
X011130Y016400D02*
X009421Y016400D01*
X009607Y016450D02*
X009788Y016525D01*
X009925Y016662D01*
X010000Y016843D01*
X010000Y017037D01*
X009925Y017218D01*
X009788Y017355D01*
X009607Y017430D01*
X008969Y017430D01*
X008989Y017450D01*
X009607Y017450D01*
X009788Y017525D01*
X009925Y017662D01*
X009991Y017820D01*
X010020Y017791D01*
X010020Y017707D01*
X010057Y017619D01*
X010397Y017279D01*
X010240Y017122D01*
X010240Y016940D01*
X010680Y016940D01*
X011120Y016940D01*
X011120Y017122D01*
X011087Y017155D01*
X011106Y017155D01*
X011496Y016765D01*
X009655Y014924D01*
X009655Y015034D01*
X009583Y015209D01*
X009449Y015343D01*
X009384Y015370D01*
X009383Y015371D01*
X009309Y015445D01*
X009385Y015445D01*
X009675Y015735D01*
X009675Y015940D01*
X009180Y015940D01*
X009180Y015940D01*
X009180Y016435D01*
X008975Y016435D01*
X008685Y016145D01*
X008685Y016069D01*
X008565Y016189D01*
X008565Y016532D01*
X008572Y016525D01*
X008753Y016450D01*
X009607Y016450D01*
X009821Y016558D02*
X010440Y016558D01*
X010498Y016500D02*
X010680Y016500D01*
X010862Y016500D01*
X011120Y016758D01*
X011120Y016940D01*
X010680Y016940D01*
X010680Y016940D01*
X010680Y016500D01*
X010680Y016940D01*
X010680Y016940D01*
X010680Y016940D01*
X010240Y016940D01*
X010240Y016758D01*
X010498Y016500D01*
X010680Y016558D02*
X010680Y016558D01*
X010680Y016717D02*
X010680Y016717D01*
X010680Y016875D02*
X010680Y016875D01*
X010920Y016558D02*
X011289Y016558D01*
X011447Y016717D02*
X011079Y016717D01*
X011120Y016875D02*
X011386Y016875D01*
X011227Y017034D02*
X011120Y017034D01*
X011589Y017351D02*
X012458Y017351D01*
X012498Y017390D02*
X012240Y017132D01*
X012240Y016950D01*
X012680Y016950D01*
X012680Y016950D01*
X012680Y017390D01*
X012862Y017390D01*
X013120Y017132D01*
X013120Y016950D01*
X012680Y016950D01*
X012680Y016950D01*
X012680Y016950D01*
X012680Y017390D01*
X012498Y017390D01*
X012680Y017351D02*
X012680Y017351D01*
X012680Y017192D02*
X012680Y017192D01*
X012680Y017034D02*
X012680Y017034D01*
X012680Y016950D02*
X012240Y016950D01*
X012240Y016768D01*
X012498Y016510D01*
X012680Y016510D01*
X012862Y016510D01*
X013120Y016768D01*
X013120Y016950D01*
X012680Y016950D01*
X012680Y016510D01*
X012680Y016950D01*
X012680Y016950D01*
X012680Y016875D02*
X012680Y016875D01*
X012680Y016717D02*
X012680Y016717D01*
X012680Y016558D02*
X012680Y016558D01*
X012540Y016400D02*
X014430Y016400D01*
X014430Y016558D02*
X012910Y016558D01*
X013069Y016717D02*
X014430Y016717D01*
X014430Y016875D02*
X013120Y016875D01*
X013120Y017034D02*
X014430Y017034D01*
X014430Y017192D02*
X013060Y017192D01*
X012902Y017351D02*
X014430Y017351D01*
X014430Y017509D02*
X011430Y017509D01*
X011506Y017520D02*
X011854Y017520D01*
X012100Y017766D01*
X012100Y018114D01*
X011854Y018360D01*
X011506Y018360D01*
X011260Y018114D01*
X011260Y017766D01*
X011506Y017520D01*
X011359Y017668D02*
X011001Y017668D01*
X011100Y017826D02*
X011260Y017826D01*
X011260Y017985D02*
X011100Y017985D01*
X011071Y018143D02*
X011289Y018143D01*
X011448Y018302D02*
X010912Y018302D01*
X010448Y018302D02*
X010188Y018302D01*
X010029Y018460D02*
X014430Y018460D01*
X014430Y018302D02*
X011912Y018302D01*
X012071Y018143D02*
X014430Y018143D01*
X014430Y017985D02*
X012100Y017985D01*
X012100Y017826D02*
X014430Y017826D01*
X014430Y017668D02*
X012001Y017668D01*
X011747Y017192D02*
X012300Y017192D01*
X012240Y017034D02*
X011906Y017034D01*
X011971Y016968D02*
X011971Y016968D01*
X012038Y016901D02*
X012038Y016901D01*
X012064Y016875D02*
X012240Y016875D01*
X012223Y016717D02*
X012291Y016717D01*
X012381Y016558D02*
X012450Y016558D01*
X010655Y015924D02*
X009675Y015924D01*
X009675Y015766D02*
X010496Y015766D01*
X010338Y015607D02*
X009547Y015607D01*
X009389Y015449D02*
X010179Y015449D01*
X010021Y015290D02*
X009502Y015290D01*
X009615Y015132D02*
X009862Y015132D01*
X009704Y014973D02*
X009655Y014973D01*
X010065Y014656D02*
X013870Y014656D01*
X013760Y014815D02*
X010224Y014815D01*
X010382Y014973D02*
X013760Y014973D01*
X013778Y015132D02*
X010541Y015132D01*
X010699Y015290D02*
X013936Y015290D01*
X014180Y014940D02*
X014220Y014965D01*
X014670Y015415D01*
X014670Y018925D01*
X014680Y018940D01*
X014760Y018925D01*
X015210Y019375D01*
X021600Y019375D01*
X026010Y014965D01*
X026145Y014965D01*
X026180Y014940D01*
X026805Y015290D02*
X026936Y015290D01*
X026805Y015449D02*
X033900Y015449D01*
X033900Y015607D02*
X026655Y015607D01*
X026496Y015766D02*
X033900Y015766D01*
X033900Y015924D02*
X026338Y015924D01*
X026179Y016083D02*
X033900Y016083D01*
X033900Y016241D02*
X026021Y016241D01*
X025862Y016400D02*
X033900Y016400D01*
X033900Y016558D02*
X025704Y016558D01*
X025545Y016717D02*
X033900Y016717D01*
X033900Y016875D02*
X025387Y016875D01*
X025228Y017034D02*
X033900Y017034D01*
X033900Y017192D02*
X025070Y017192D01*
X024911Y017351D02*
X033900Y017351D01*
X033900Y017509D02*
X024753Y017509D01*
X024594Y017668D02*
X033900Y017668D01*
X033900Y017826D02*
X024436Y017826D01*
X024277Y017985D02*
X033900Y017985D01*
X033900Y018143D02*
X024119Y018143D01*
X023960Y018302D02*
X033900Y018302D01*
X033900Y018460D02*
X023802Y018460D01*
X023643Y018619D02*
X033900Y018619D01*
X033900Y018777D02*
X023485Y018777D01*
X023326Y018936D02*
X033900Y018936D01*
X033900Y019094D02*
X023168Y019094D01*
X023009Y019253D02*
X033900Y019253D01*
X033900Y019411D02*
X022851Y019411D01*
X022692Y019570D02*
X033900Y019570D01*
X033900Y019728D02*
X022534Y019728D01*
X022493Y018143D02*
X021140Y018143D01*
X021107Y017985D02*
X022651Y017985D01*
X022810Y017826D02*
X020997Y017826D01*
X020812Y017668D02*
X022968Y017668D01*
X023127Y017509D02*
X020850Y017509D01*
X020850Y017351D02*
X023285Y017351D01*
X023444Y017192D02*
X020850Y017192D01*
X020850Y017034D02*
X023602Y017034D01*
X023761Y016875D02*
X020850Y016875D01*
X020850Y016717D02*
X023919Y016717D01*
X024078Y016558D02*
X020850Y016558D01*
X020850Y016400D02*
X024236Y016400D01*
X024395Y016241D02*
X020850Y016241D01*
X020850Y016083D02*
X024553Y016083D01*
X024712Y015924D02*
X020850Y015924D01*
X020850Y015766D02*
X024870Y015766D01*
X025029Y015607D02*
X024295Y015607D01*
X024065Y015607D02*
X023295Y015607D01*
X023065Y015607D02*
X022295Y015607D01*
X022065Y015607D02*
X021295Y015607D01*
X021065Y015607D02*
X020850Y015607D01*
X020370Y015607D02*
X020295Y015607D01*
X020370Y015766D02*
X014910Y015766D01*
X014910Y015924D02*
X020370Y015924D01*
X020370Y016083D02*
X014910Y016083D01*
X014910Y016241D02*
X020370Y016241D01*
X020370Y016400D02*
X014910Y016400D01*
X014910Y016558D02*
X020370Y016558D01*
X020370Y016717D02*
X014910Y016717D01*
X014910Y016875D02*
X020370Y016875D01*
X020370Y017034D02*
X014910Y017034D01*
X014910Y017192D02*
X020370Y017192D01*
X020370Y017351D02*
X014910Y017351D01*
X014910Y017509D02*
X020292Y017509D01*
X020133Y017668D02*
X014910Y017668D01*
X014910Y017826D02*
X019392Y017826D01*
X019276Y017985D02*
X014910Y017985D01*
X014910Y018143D02*
X019240Y018143D01*
X019240Y018302D02*
X014910Y018302D01*
X014910Y018460D02*
X019240Y018460D01*
X019240Y018619D02*
X017952Y018619D01*
X018100Y018777D02*
X019240Y018777D01*
X019293Y018936D02*
X018100Y018936D01*
X018100Y019094D02*
X019433Y019094D01*
X019968Y017826D02*
X019975Y017826D01*
X017408Y018619D02*
X014952Y018619D01*
X015100Y018777D02*
X017260Y018777D01*
X017260Y018936D02*
X015110Y018936D01*
X015268Y019094D02*
X017260Y019094D01*
X014399Y019253D02*
X012951Y019253D01*
X012854Y019350D02*
X012506Y019350D01*
X012260Y019104D01*
X012260Y018756D01*
X012506Y018510D01*
X012854Y018510D01*
X013100Y018756D01*
X013100Y019104D01*
X012854Y019350D01*
X013100Y019094D02*
X014260Y019094D01*
X014260Y018936D02*
X013100Y018936D01*
X013100Y018777D02*
X014260Y018777D01*
X014408Y018619D02*
X012962Y018619D01*
X012398Y018619D02*
X009881Y018619D01*
X009973Y018777D02*
X012260Y018777D01*
X012260Y018936D02*
X010000Y018936D01*
X009977Y019094D02*
X012260Y019094D01*
X012409Y019253D02*
X009890Y019253D01*
X009180Y018940D02*
X009180Y018925D01*
X009675Y018430D01*
X009928Y017668D02*
X010036Y017668D01*
X010167Y017509D02*
X009750Y017509D01*
X009792Y017351D02*
X010325Y017351D01*
X010310Y017192D02*
X009936Y017192D01*
X010000Y017034D02*
X010240Y017034D01*
X010240Y016875D02*
X010000Y016875D01*
X009948Y016717D02*
X010281Y016717D01*
X009180Y016400D02*
X009180Y016400D01*
X009180Y016241D02*
X009180Y016241D01*
X009180Y016083D02*
X009180Y016083D01*
X008781Y016241D02*
X008565Y016241D01*
X008565Y016400D02*
X008939Y016400D01*
X008685Y016083D02*
X008672Y016083D01*
X008325Y016090D02*
X009180Y015235D01*
X009180Y014940D01*
X009907Y014498D02*
X017801Y014498D01*
X017760Y014656D02*
X015518Y014656D01*
X015620Y014758D02*
X015620Y014940D01*
X015620Y015122D01*
X015362Y015380D01*
X015180Y015380D01*
X015180Y014940D01*
X015165Y014920D01*
X013950Y013705D01*
X013362Y012880D02*
X013180Y012880D01*
X013180Y012440D01*
X013180Y012440D01*
X013620Y012440D01*
X013620Y012622D01*
X013362Y012880D01*
X013488Y012754D02*
X018384Y012754D01*
X018542Y012596D02*
X013620Y012596D01*
X013620Y012440D02*
X013180Y012440D01*
X013180Y012440D01*
X013180Y012440D01*
X013180Y012880D01*
X012998Y012880D01*
X012740Y012622D01*
X012740Y012440D01*
X013180Y012440D01*
X013180Y012000D01*
X013362Y012000D01*
X013620Y012258D01*
X013620Y012440D01*
X013620Y012437D02*
X018701Y012437D01*
X018859Y012279D02*
X013620Y012279D01*
X013482Y012120D02*
X019018Y012120D01*
X018848Y011962D02*
X018512Y011962D01*
X018592Y011803D02*
X018768Y011803D01*
X018760Y011645D02*
X018600Y011645D01*
X018600Y011486D02*
X018760Y011486D01*
X018760Y011328D02*
X018600Y011328D01*
X018600Y011169D02*
X018760Y011169D01*
X018796Y011011D02*
X018564Y011011D01*
X018446Y010852D02*
X018914Y010852D01*
X019005Y010694D02*
X018390Y010694D01*
X018390Y010535D02*
X019005Y010535D01*
X019005Y010377D02*
X018390Y010377D01*
X018390Y010218D02*
X019005Y010218D01*
X019005Y010060D02*
X018390Y010060D01*
X018390Y009901D02*
X019005Y009901D01*
X019005Y009743D02*
X018390Y009743D01*
X018390Y009584D02*
X019005Y009584D01*
X019005Y009426D02*
X018390Y009426D01*
X018390Y009267D02*
X019005Y009267D01*
X019005Y009109D02*
X018390Y009109D01*
X018390Y008950D02*
X019005Y008950D01*
X019005Y008792D02*
X018440Y008792D01*
X018599Y008633D02*
X019040Y008633D01*
X018861Y008475D02*
X018757Y008475D01*
X018005Y008633D02*
X017609Y008633D01*
X017767Y008475D02*
X017861Y008475D01*
X017970Y008792D02*
X017450Y008792D01*
X017400Y008950D02*
X017970Y008950D01*
X017970Y009109D02*
X017400Y009109D01*
X017400Y009267D02*
X017970Y009267D01*
X017970Y009426D02*
X017400Y009426D01*
X017400Y009584D02*
X017970Y009584D01*
X017970Y009743D02*
X017400Y009743D01*
X017400Y009901D02*
X017970Y009901D01*
X017970Y010060D02*
X017400Y010060D01*
X017400Y010218D02*
X017970Y010218D01*
X017970Y010377D02*
X017400Y010377D01*
X017400Y010535D02*
X017970Y010535D01*
X017970Y010694D02*
X017400Y010694D01*
X017446Y010852D02*
X017914Y010852D01*
X017796Y011011D02*
X017564Y011011D01*
X017600Y011169D02*
X017760Y011169D01*
X017760Y011328D02*
X017600Y011328D01*
X017600Y011486D02*
X017760Y011486D01*
X017760Y011645D02*
X017600Y011645D01*
X017592Y011803D02*
X017768Y011803D01*
X017848Y011962D02*
X017512Y011962D01*
X016848Y011962D02*
X016512Y011962D01*
X016592Y011803D02*
X016768Y011803D01*
X016760Y011645D02*
X016600Y011645D01*
X016600Y011486D02*
X016760Y011486D01*
X016760Y011328D02*
X016600Y011328D01*
X016600Y011169D02*
X016760Y011169D01*
X016796Y011011D02*
X016564Y011011D01*
X016446Y010852D02*
X016914Y010852D01*
X016980Y010694D02*
X016410Y010694D01*
X016410Y010535D02*
X016980Y010535D01*
X016980Y010377D02*
X016410Y010377D01*
X016410Y010218D02*
X016980Y010218D01*
X016980Y010060D02*
X016410Y010060D01*
X016410Y009901D02*
X016980Y009901D01*
X016980Y009743D02*
X016410Y009743D01*
X016410Y009584D02*
X016980Y009584D01*
X016980Y009426D02*
X016410Y009426D01*
X016410Y009267D02*
X016980Y009267D01*
X016980Y009109D02*
X016410Y009109D01*
X016410Y008950D02*
X016980Y008950D01*
X016980Y008792D02*
X016460Y008792D01*
X016619Y008633D02*
X017015Y008633D01*
X016861Y008475D02*
X016777Y008475D01*
X016025Y008633D02*
X015825Y008633D01*
X015825Y008475D02*
X015861Y008475D01*
X015785Y008792D02*
X015990Y008792D01*
X015990Y008950D02*
X015627Y008950D01*
X015468Y009109D02*
X015990Y009109D01*
X015990Y009267D02*
X015420Y009267D01*
X015420Y009426D02*
X015990Y009426D01*
X015990Y009584D02*
X015420Y009584D01*
X015420Y009743D02*
X015990Y009743D01*
X015990Y009901D02*
X015420Y009901D01*
X015420Y010060D02*
X015990Y010060D01*
X015990Y010218D02*
X015420Y010218D01*
X015420Y010377D02*
X015990Y010377D01*
X015990Y010535D02*
X015420Y010535D01*
X015420Y010694D02*
X015990Y010694D01*
X015914Y010852D02*
X015446Y010852D01*
X015564Y011011D02*
X015796Y011011D01*
X015760Y011169D02*
X015600Y011169D01*
X015600Y011328D02*
X015760Y011328D01*
X015760Y011486D02*
X015600Y011486D01*
X015600Y011645D02*
X015760Y011645D01*
X015768Y011803D02*
X015592Y011803D01*
X015512Y011962D02*
X015848Y011962D01*
X014848Y011962D02*
X014512Y011962D01*
X014592Y011803D02*
X014768Y011803D01*
X014760Y011645D02*
X014600Y011645D01*
X014600Y011486D02*
X014760Y011486D01*
X014760Y011328D02*
X014600Y011328D01*
X014600Y011169D02*
X014760Y011169D01*
X014796Y011011D02*
X014564Y011011D01*
X014446Y010852D02*
X014914Y010852D01*
X013760Y011169D02*
X013503Y011169D01*
X013600Y011328D02*
X013760Y011328D01*
X013760Y011486D02*
X013600Y011486D01*
X013569Y011645D02*
X013760Y011645D01*
X013768Y011803D02*
X013411Y011803D01*
X013180Y012000D02*
X013180Y012440D01*
X013180Y012440D01*
X013180Y012437D02*
X013180Y012437D01*
X013180Y012279D02*
X013180Y012279D01*
X013180Y012120D02*
X013180Y012120D01*
X013180Y012000D02*
X012998Y012000D01*
X012878Y012120D02*
X007529Y012120D01*
X007688Y012279D02*
X012740Y012279D01*
X012740Y012437D02*
X007846Y012437D01*
X008005Y012596D02*
X012740Y012596D01*
X012872Y012754D02*
X008163Y012754D01*
X008322Y012913D02*
X018225Y012913D01*
X018067Y013071D02*
X008480Y013071D01*
X008639Y013230D02*
X017970Y013230D01*
X017970Y013388D02*
X008797Y013388D01*
X008956Y013547D02*
X017970Y013547D01*
X017970Y013705D02*
X009114Y013705D01*
X009273Y013864D02*
X017970Y013864D01*
X017970Y014022D02*
X009431Y014022D01*
X009590Y014181D02*
X017970Y014181D01*
X017927Y014339D02*
X009748Y014339D01*
X013180Y012754D02*
X013180Y012754D01*
X013180Y012596D02*
X013180Y012596D01*
X013848Y011962D02*
X012012Y011962D01*
X011348Y011962D02*
X011012Y011962D01*
X011092Y011803D02*
X011268Y011803D01*
X011260Y011645D02*
X011100Y011645D01*
X011100Y011486D02*
X011260Y011486D01*
X011260Y011328D02*
X011100Y011328D01*
X011100Y011169D02*
X011260Y011169D01*
X011296Y011011D02*
X011064Y011011D01*
X010946Y010852D02*
X011414Y010852D01*
X011490Y010694D02*
X010920Y010694D01*
X010920Y010535D02*
X011490Y010535D01*
X011490Y010377D02*
X010920Y010377D01*
X010920Y010218D02*
X011490Y010218D01*
X011490Y010060D02*
X010920Y010060D01*
X010920Y009901D02*
X011490Y009901D01*
X011490Y009743D02*
X010920Y009743D01*
X010920Y009584D02*
X011490Y009584D01*
X011490Y009426D02*
X010920Y009426D01*
X011180Y009267D02*
X011180Y009267D01*
X011180Y009109D02*
X011180Y009109D01*
X011180Y008950D02*
X011180Y008950D01*
X011180Y008940D02*
X011180Y008500D01*
X011362Y008500D01*
X011490Y008628D01*
X011490Y008224D01*
X011354Y008360D01*
X011006Y008360D01*
X010920Y008274D01*
X010920Y008578D01*
X010998Y008500D01*
X011180Y008500D01*
X011180Y008940D01*
X011180Y008940D01*
X011180Y008792D02*
X011180Y008792D01*
X011180Y008633D02*
X011180Y008633D01*
X010920Y008475D02*
X011490Y008475D01*
X011490Y008316D02*
X011398Y008316D01*
X010962Y008316D02*
X010920Y008316D01*
X010500Y008475D02*
X010499Y008475D01*
X010500Y008633D02*
X005077Y008633D01*
X005236Y008792D02*
X010500Y008792D01*
X010500Y008950D02*
X005394Y008950D01*
X005553Y009109D02*
X010500Y009109D01*
X010500Y009267D02*
X005711Y009267D01*
X005870Y009426D02*
X010500Y009426D01*
X010500Y009584D02*
X006028Y009584D01*
X006187Y009743D02*
X010500Y009743D01*
X010500Y009901D02*
X006345Y009901D01*
X006504Y010060D02*
X010500Y010060D01*
X010500Y010218D02*
X006662Y010218D01*
X006821Y010377D02*
X010500Y010377D01*
X010500Y010535D02*
X006979Y010535D01*
X007138Y010694D02*
X010500Y010694D01*
X010414Y010852D02*
X009946Y010852D01*
X009918Y010824D02*
X010036Y010942D01*
X010100Y011096D01*
X010100Y011784D01*
X010036Y011938D01*
X009918Y012056D01*
X009764Y012120D01*
X009596Y012120D01*
X009442Y012056D01*
X009324Y011938D01*
X009260Y011784D01*
X009260Y011096D01*
X009324Y010942D01*
X009442Y010824D01*
X009596Y010760D01*
X009764Y010760D01*
X009918Y010824D01*
X010064Y011011D02*
X010296Y011011D01*
X010260Y011169D02*
X010100Y011169D01*
X010100Y011328D02*
X010260Y011328D01*
X010260Y011486D02*
X010100Y011486D01*
X010100Y011645D02*
X010260Y011645D01*
X010268Y011803D02*
X010092Y011803D01*
X010012Y011962D02*
X010348Y011962D01*
X009348Y011962D02*
X009012Y011962D01*
X009036Y011938D02*
X008918Y012056D01*
X008764Y012120D01*
X008596Y012120D01*
X008442Y012056D01*
X008324Y011938D01*
X008260Y011784D01*
X008260Y011096D01*
X008324Y010942D01*
X008442Y010824D01*
X008596Y010760D01*
X008764Y010760D01*
X008918Y010824D01*
X009036Y010942D01*
X009100Y011096D01*
X009100Y011784D01*
X009036Y011938D01*
X009092Y011803D02*
X009268Y011803D01*
X009260Y011645D02*
X009100Y011645D01*
X009100Y011486D02*
X009260Y011486D01*
X009260Y011328D02*
X009100Y011328D01*
X009100Y011169D02*
X009260Y011169D01*
X009296Y011011D02*
X009064Y011011D01*
X008946Y010852D02*
X009414Y010852D01*
X008414Y010852D02*
X007946Y010852D01*
X008064Y011011D02*
X008296Y011011D01*
X008260Y011169D02*
X008100Y011169D01*
X008100Y011328D02*
X008260Y011328D01*
X008260Y011486D02*
X008100Y011486D01*
X008100Y011645D02*
X008260Y011645D01*
X008268Y011803D02*
X008092Y011803D01*
X008012Y011962D02*
X008348Y011962D01*
X007414Y010852D02*
X007296Y010852D01*
X003885Y010694D02*
X000460Y010694D01*
X000460Y010852D02*
X003414Y010852D01*
X003296Y011011D02*
X001573Y011011D01*
X001548Y011000D02*
X001709Y011067D01*
X001833Y011191D01*
X001900Y011352D01*
X001900Y011528D01*
X001833Y011689D01*
X001709Y011813D01*
X001548Y011880D01*
X000812Y011880D01*
X000651Y011813D01*
X000527Y011689D01*
X000460Y011528D01*
X000460Y011352D01*
X000527Y011191D01*
X000651Y011067D01*
X000812Y011000D01*
X001548Y011000D01*
X001811Y011169D02*
X002357Y011169D01*
X002260Y011266D02*
X002506Y011020D01*
X002854Y011020D01*
X003100Y011266D01*
X003100Y011614D01*
X002854Y011860D01*
X002506Y011860D01*
X002260Y011614D01*
X002260Y011266D01*
X002260Y011328D02*
X001890Y011328D01*
X001900Y011486D02*
X002260Y011486D01*
X002291Y011645D02*
X001852Y011645D01*
X001719Y011803D02*
X002449Y011803D01*
X002378Y012120D02*
X001791Y012120D01*
X001811Y012140D02*
X001853Y012199D01*
X001886Y012263D01*
X001909Y012332D01*
X001920Y012404D01*
X001920Y012430D01*
X001190Y012430D01*
X001190Y011980D01*
X001496Y011980D01*
X001568Y011991D01*
X001637Y012014D01*
X001701Y012047D01*
X001760Y012089D01*
X001811Y012140D01*
X001891Y012279D02*
X002240Y012279D01*
X002240Y012437D02*
X001190Y012437D01*
X001190Y012450D02*
X001920Y012450D01*
X001920Y012476D01*
X001909Y012548D01*
X001886Y012617D01*
X001853Y012681D01*
X001811Y012740D01*
X001760Y012791D01*
X001701Y012833D01*
X001637Y012866D01*
X001568Y012889D01*
X001496Y012900D01*
X001190Y012900D01*
X001190Y012450D01*
X001190Y012596D02*
X001170Y012596D01*
X001170Y012754D02*
X001190Y012754D01*
X001170Y012279D02*
X001190Y012279D01*
X001190Y012120D02*
X001170Y012120D01*
X000569Y012120D02*
X000460Y012120D01*
X000460Y011962D02*
X003348Y011962D01*
X003268Y011803D02*
X002911Y011803D01*
X003069Y011645D02*
X003260Y011645D01*
X003260Y011486D02*
X003100Y011486D01*
X003100Y011328D02*
X003260Y011328D01*
X003260Y011169D02*
X003003Y011169D01*
X003885Y010535D02*
X000460Y010535D01*
X000460Y010377D02*
X003885Y010377D01*
X003885Y010218D02*
X000460Y010218D01*
X000460Y010060D02*
X003885Y010060D01*
X003885Y009901D02*
X000460Y009901D01*
X000460Y009743D02*
X003885Y009743D01*
X003885Y009584D02*
X000460Y009584D01*
X000460Y009426D02*
X003885Y009426D01*
X003885Y009267D02*
X000460Y009267D01*
X000460Y009109D02*
X003885Y009109D01*
X003885Y008950D02*
X000460Y008950D01*
X000460Y008792D02*
X003880Y008792D01*
X003721Y008633D02*
X000460Y008633D01*
X000460Y008475D02*
X001861Y008475D01*
X001824Y008438D02*
X001942Y008556D01*
X002096Y008620D01*
X002264Y008620D01*
X002418Y008556D01*
X002536Y008438D01*
X002600Y008284D01*
X002600Y007596D01*
X002536Y007442D01*
X002418Y007324D01*
X002264Y007260D01*
X002096Y007260D01*
X001942Y007324D01*
X001824Y007442D01*
X001760Y007596D01*
X001760Y008284D01*
X001824Y008438D01*
X001773Y008316D02*
X000460Y008316D01*
X000460Y008158D02*
X001760Y008158D01*
X001760Y007999D02*
X000460Y007999D01*
X000460Y007841D02*
X001760Y007841D01*
X001760Y007682D02*
X000460Y007682D01*
X000460Y007524D02*
X001790Y007524D01*
X001901Y007365D02*
X000460Y007365D01*
X000460Y007207D02*
X003435Y007207D01*
X003435Y007048D02*
X000460Y007048D01*
X000460Y006890D02*
X003435Y006890D01*
X003435Y006731D02*
X000460Y006731D01*
X000460Y006573D02*
X003435Y006573D01*
X003435Y006414D02*
X000460Y006414D01*
X000460Y006256D02*
X001845Y006256D01*
X001720Y006131D02*
X001720Y005749D01*
X001989Y005480D01*
X002371Y005480D01*
X002640Y005749D01*
X002640Y006131D01*
X002371Y006400D01*
X001989Y006400D01*
X001720Y006131D01*
X001720Y006097D02*
X000460Y006097D01*
X000460Y005939D02*
X001720Y005939D01*
X001720Y005780D02*
X000460Y005780D01*
X000460Y005622D02*
X001848Y005622D01*
X001981Y005420D02*
X001700Y005139D01*
X001700Y004960D01*
X002160Y004960D01*
X002160Y005420D01*
X001981Y005420D01*
X001866Y005305D02*
X000460Y005305D01*
X000460Y005463D02*
X003386Y005463D01*
X002894Y005305D02*
X002494Y005305D01*
X002379Y005420D02*
X002200Y005420D01*
X002200Y004960D01*
X002660Y004960D01*
X002660Y005139D01*
X002379Y005420D01*
X002200Y005305D02*
X002160Y005305D01*
X002160Y005146D02*
X002200Y005146D01*
X002200Y004988D02*
X002160Y004988D01*
X002160Y004960D02*
X002200Y004960D01*
X002200Y004920D01*
X002660Y004920D01*
X002660Y004741D01*
X002379Y004460D01*
X002200Y004460D01*
X002200Y004920D01*
X002160Y004920D01*
X002160Y004460D01*
X001981Y004460D01*
X001700Y004741D01*
X001700Y004920D01*
X002160Y004920D01*
X002160Y004960D01*
X002160Y004829D02*
X002200Y004829D01*
X002200Y004671D02*
X002160Y004671D01*
X002160Y004512D02*
X002200Y004512D01*
X002431Y004512D02*
X002957Y004512D01*
X002985Y004354D02*
X000460Y004354D01*
X000460Y004512D02*
X001929Y004512D01*
X001771Y004671D02*
X000460Y004671D01*
X000460Y004829D02*
X001700Y004829D01*
X001700Y004988D02*
X000460Y004988D01*
X000460Y005146D02*
X001707Y005146D01*
X002512Y005622D02*
X002848Y005622D01*
X002720Y005780D02*
X002640Y005780D01*
X002640Y005939D02*
X002720Y005939D01*
X002720Y006097D02*
X002640Y006097D01*
X002515Y006256D02*
X002845Y006256D01*
X002901Y007365D02*
X002459Y007365D01*
X002570Y007524D02*
X002790Y007524D01*
X002760Y007682D02*
X002600Y007682D01*
X002600Y007841D02*
X002760Y007841D01*
X002760Y007999D02*
X002600Y007999D01*
X002600Y008158D02*
X002760Y008158D01*
X002773Y008316D02*
X002587Y008316D01*
X002499Y008475D02*
X002861Y008475D01*
X003499Y008475D02*
X003563Y008475D01*
X005499Y008475D02*
X005861Y008475D01*
X005824Y008438D02*
X005942Y008556D01*
X006096Y008620D01*
X006264Y008620D01*
X006418Y008556D01*
X006536Y008438D01*
X006600Y008284D01*
X006600Y007596D01*
X006536Y007442D01*
X006418Y007324D01*
X006264Y007260D01*
X006096Y007260D01*
X005942Y007324D01*
X005824Y007442D01*
X005760Y007596D01*
X005760Y008284D01*
X005824Y008438D01*
X005773Y008316D02*
X005587Y008316D01*
X005600Y008158D02*
X005760Y008158D01*
X005760Y007999D02*
X005600Y007999D01*
X005600Y007841D02*
X005760Y007841D01*
X005760Y007682D02*
X005600Y007682D01*
X005570Y007524D02*
X005790Y007524D01*
X005901Y007365D02*
X005459Y007365D01*
X004920Y007207D02*
X010500Y007207D01*
X010500Y007365D02*
X010459Y007365D01*
X010500Y007048D02*
X004920Y007048D01*
X004920Y006890D02*
X010500Y006890D01*
X010500Y006731D02*
X004920Y006731D01*
X004920Y006573D02*
X010500Y006573D01*
X010500Y006414D02*
X004920Y006414D01*
X005515Y006256D02*
X005845Y006256D01*
X005720Y006131D02*
X005720Y005749D01*
X005989Y005480D01*
X006371Y005480D01*
X006640Y005749D01*
X006640Y006131D01*
X006371Y006400D01*
X005989Y006400D01*
X005720Y006131D01*
X005720Y006097D02*
X005640Y006097D01*
X005640Y005939D02*
X005720Y005939D01*
X005720Y005780D02*
X005640Y005780D01*
X005512Y005622D02*
X005848Y005622D01*
X006512Y005622D02*
X006848Y005622D01*
X006720Y005749D02*
X006989Y005480D01*
X007371Y005480D01*
X007640Y005749D01*
X007640Y006131D01*
X007371Y006400D01*
X006989Y006400D01*
X006720Y006131D01*
X006720Y005749D01*
X006720Y005780D02*
X006640Y005780D01*
X006640Y005939D02*
X006720Y005939D01*
X006720Y006097D02*
X006640Y006097D01*
X006515Y006256D02*
X006845Y006256D01*
X007515Y006256D02*
X007845Y006256D01*
X007720Y006131D02*
X007720Y005749D01*
X007989Y005480D01*
X008371Y005480D01*
X008640Y005749D01*
X008640Y006131D01*
X008371Y006400D01*
X007989Y006400D01*
X007720Y006131D01*
X007720Y006097D02*
X007640Y006097D01*
X007640Y005939D02*
X007720Y005939D01*
X007720Y005780D02*
X007640Y005780D01*
X007512Y005622D02*
X007848Y005622D01*
X007894Y005305D02*
X007466Y005305D01*
X007625Y005146D02*
X007735Y005146D01*
X007720Y004988D02*
X007640Y004988D01*
X007640Y004829D02*
X007720Y004829D01*
X007799Y004671D02*
X007561Y004671D01*
X007410Y004512D02*
X007957Y004512D01*
X007980Y004354D02*
X007410Y004354D01*
X007410Y004195D02*
X007980Y004195D01*
X007980Y004037D02*
X007410Y004037D01*
X007410Y003878D02*
X007980Y003878D01*
X007980Y003720D02*
X007410Y003720D01*
X007410Y003561D02*
X007980Y003561D01*
X008400Y003561D02*
X008970Y003561D01*
X008970Y003720D02*
X008400Y003720D01*
X008400Y003878D02*
X008970Y003878D01*
X008970Y004037D02*
X008400Y004037D01*
X008400Y004195D02*
X008970Y004195D01*
X008970Y004354D02*
X008400Y004354D01*
X008403Y004512D02*
X008957Y004512D01*
X008799Y004671D02*
X008561Y004671D01*
X008640Y004829D02*
X008720Y004829D01*
X008720Y004988D02*
X008640Y004988D01*
X008625Y005146D02*
X008735Y005146D01*
X008894Y005305D02*
X008466Y005305D01*
X008512Y005622D02*
X008848Y005622D01*
X008720Y005749D02*
X008989Y005480D01*
X009371Y005480D01*
X009640Y005749D01*
X009640Y006131D01*
X009371Y006400D01*
X008989Y006400D01*
X008720Y006131D01*
X008720Y005749D01*
X008720Y005780D02*
X008640Y005780D01*
X008640Y005939D02*
X008720Y005939D01*
X008720Y006097D02*
X008640Y006097D01*
X008515Y006256D02*
X008845Y006256D01*
X009515Y006256D02*
X009845Y006256D01*
X009720Y006097D02*
X009640Y006097D01*
X009640Y005939D02*
X009720Y005939D01*
X009720Y005780D02*
X009640Y005780D01*
X009512Y005622D02*
X009848Y005622D01*
X009894Y005305D02*
X009466Y005305D01*
X009625Y005146D02*
X009735Y005146D01*
X009720Y004988D02*
X009640Y004988D01*
X009640Y004829D02*
X009720Y004829D01*
X009799Y004671D02*
X009561Y004671D01*
X009403Y004512D02*
X009957Y004512D01*
X009960Y004354D02*
X009390Y004354D01*
X009390Y004195D02*
X009960Y004195D01*
X009960Y004037D02*
X009390Y004037D01*
X009390Y003878D02*
X009960Y003878D01*
X009960Y003720D02*
X009390Y003720D01*
X009390Y003561D02*
X009960Y003561D01*
X010380Y003561D02*
X010995Y003561D01*
X010995Y003720D02*
X010380Y003720D01*
X010380Y003878D02*
X010995Y003878D01*
X010995Y004037D02*
X010380Y004037D01*
X010380Y004195D02*
X010995Y004195D01*
X010995Y004354D02*
X010380Y004354D01*
X010403Y004512D02*
X010957Y004512D01*
X010799Y004671D02*
X010561Y004671D01*
X010640Y004829D02*
X010720Y004829D01*
X010720Y004988D02*
X010640Y004988D01*
X010625Y005146D02*
X010692Y005146D01*
X010534Y005305D02*
X010466Y005305D01*
X010500Y005463D02*
X004697Y005463D01*
X004539Y005305D02*
X004894Y005305D01*
X004735Y005146D02*
X004625Y005146D01*
X004640Y004988D02*
X004720Y004988D01*
X004720Y004829D02*
X004640Y004829D01*
X004561Y004671D02*
X004799Y004671D01*
X004957Y004512D02*
X004425Y004512D01*
X004425Y004354D02*
X004965Y004354D01*
X004965Y004195D02*
X004425Y004195D01*
X004425Y004037D02*
X004965Y004037D01*
X004965Y003878D02*
X004425Y003878D01*
X004425Y003720D02*
X004965Y003720D01*
X004965Y003561D02*
X004425Y003561D01*
X005385Y003561D02*
X005955Y003561D01*
X005955Y003720D02*
X005385Y003720D01*
X005385Y003878D02*
X005955Y003878D01*
X005955Y004037D02*
X005385Y004037D01*
X005385Y004195D02*
X005955Y004195D01*
X005955Y004354D02*
X005385Y004354D01*
X005403Y004512D02*
X005955Y004512D01*
X005799Y004671D02*
X005561Y004671D01*
X005640Y004829D02*
X005720Y004829D01*
X005720Y004988D02*
X005640Y004988D01*
X005625Y005146D02*
X005735Y005146D01*
X005894Y005305D02*
X005466Y005305D01*
X006466Y005305D02*
X006894Y005305D01*
X006735Y005146D02*
X006625Y005146D01*
X006640Y004988D02*
X006720Y004988D01*
X006720Y004829D02*
X006640Y004829D01*
X006561Y004671D02*
X006799Y004671D01*
X006957Y004512D02*
X006403Y004512D01*
X006375Y004354D02*
X006990Y004354D01*
X006990Y004195D02*
X006375Y004195D01*
X006375Y004037D02*
X006990Y004037D01*
X006990Y003878D02*
X006375Y003878D01*
X006375Y003720D02*
X006990Y003720D01*
X006990Y003561D02*
X006375Y003561D01*
X002985Y003561D02*
X001433Y003561D01*
X001237Y003720D02*
X002985Y003720D01*
X002985Y003878D02*
X000460Y003878D01*
X000460Y004037D02*
X002985Y004037D01*
X002985Y004195D02*
X000460Y004195D01*
X002589Y004671D02*
X002799Y004671D01*
X002720Y004829D02*
X002660Y004829D01*
X002660Y004988D02*
X002720Y004988D01*
X002735Y005146D02*
X002653Y005146D01*
X006459Y007365D02*
X006901Y007365D01*
X006942Y007324D02*
X007096Y007260D01*
X007264Y007260D01*
X007418Y007324D01*
X007536Y007442D01*
X007600Y007596D01*
X007600Y008284D01*
X007536Y008438D01*
X007418Y008556D01*
X007264Y008620D01*
X007096Y008620D01*
X006942Y008556D01*
X006824Y008438D01*
X006760Y008284D01*
X006760Y007596D01*
X006824Y007442D01*
X006942Y007324D01*
X006790Y007524D02*
X006570Y007524D01*
X006600Y007682D02*
X006760Y007682D01*
X006760Y007841D02*
X006600Y007841D01*
X006600Y007999D02*
X006760Y007999D01*
X006760Y008158D02*
X006600Y008158D01*
X006587Y008316D02*
X006773Y008316D01*
X006861Y008475D02*
X006499Y008475D01*
X007499Y008475D02*
X007861Y008475D01*
X007824Y008438D02*
X007760Y008284D01*
X007760Y007596D01*
X007824Y007442D01*
X007942Y007324D01*
X008096Y007260D01*
X008264Y007260D01*
X008418Y007324D01*
X008536Y007442D01*
X008600Y007596D01*
X008600Y008284D01*
X008536Y008438D01*
X008418Y008556D01*
X008264Y008620D01*
X008096Y008620D01*
X007942Y008556D01*
X007824Y008438D01*
X007773Y008316D02*
X007587Y008316D01*
X007600Y008158D02*
X007760Y008158D01*
X007760Y007999D02*
X007600Y007999D01*
X007600Y007841D02*
X007760Y007841D01*
X007760Y007682D02*
X007600Y007682D01*
X007570Y007524D02*
X007790Y007524D01*
X007901Y007365D02*
X007459Y007365D01*
X008459Y007365D02*
X008901Y007365D01*
X008942Y007324D02*
X008824Y007442D01*
X008760Y007596D01*
X008760Y008284D01*
X008824Y008438D01*
X008942Y008556D01*
X009096Y008620D01*
X009264Y008620D01*
X009418Y008556D01*
X009536Y008438D01*
X009600Y008284D01*
X009600Y007596D01*
X009536Y007442D01*
X009418Y007324D01*
X009264Y007260D01*
X009096Y007260D01*
X008942Y007324D01*
X008790Y007524D02*
X008570Y007524D01*
X008600Y007682D02*
X008760Y007682D01*
X008760Y007841D02*
X008600Y007841D01*
X008600Y007999D02*
X008760Y007999D01*
X008760Y008158D02*
X008600Y008158D01*
X008587Y008316D02*
X008773Y008316D01*
X008861Y008475D02*
X008499Y008475D01*
X009499Y008475D02*
X009861Y008475D01*
X009773Y008316D02*
X009587Y008316D01*
X009600Y008158D02*
X009760Y008158D01*
X009760Y007999D02*
X009600Y007999D01*
X009600Y007841D02*
X009760Y007841D01*
X009760Y007682D02*
X009600Y007682D01*
X009570Y007524D02*
X009790Y007524D01*
X009901Y007365D02*
X009459Y007365D01*
X011475Y009267D02*
X011490Y009267D01*
X018390Y013388D02*
X019005Y013388D01*
X019005Y013230D02*
X018502Y013230D01*
X018661Y013071D02*
X019102Y013071D01*
X019260Y012913D02*
X018819Y012913D01*
X018978Y012754D02*
X019419Y012754D01*
X019577Y012596D02*
X019136Y012596D01*
X019295Y012437D02*
X019736Y012437D01*
X019894Y012279D02*
X019453Y012279D01*
X019612Y012120D02*
X020053Y012120D01*
X019848Y011962D02*
X019770Y011962D01*
X020330Y012437D02*
X020726Y012437D01*
X020884Y012279D02*
X020488Y012279D01*
X020647Y012120D02*
X021043Y012120D01*
X020848Y011962D02*
X020805Y011962D01*
X020567Y012596D02*
X020171Y012596D01*
X020013Y012754D02*
X020409Y012754D01*
X020250Y012913D02*
X019854Y012913D01*
X019696Y013071D02*
X020092Y013071D01*
X019995Y013230D02*
X019537Y013230D01*
X019425Y013388D02*
X019995Y013388D01*
X019995Y013547D02*
X019425Y013547D01*
X019425Y013705D02*
X019995Y013705D01*
X019995Y013864D02*
X019425Y013864D01*
X019425Y014022D02*
X019995Y014022D01*
X019995Y014181D02*
X019425Y014181D01*
X019433Y014339D02*
X019927Y014339D01*
X019801Y014498D02*
X019559Y014498D01*
X019600Y014656D02*
X019760Y014656D01*
X019760Y014815D02*
X019600Y014815D01*
X019600Y014973D02*
X019760Y014973D01*
X019760Y015132D02*
X019600Y015132D01*
X019597Y015290D02*
X019763Y015290D01*
X019835Y015449D02*
X019525Y015449D01*
X019295Y015607D02*
X020065Y015607D01*
X019065Y015607D02*
X018295Y015607D01*
X018065Y015607D02*
X014910Y015607D01*
X014910Y015449D02*
X017835Y015449D01*
X017763Y015290D02*
X015452Y015290D01*
X015611Y015132D02*
X017760Y015132D01*
X017760Y014973D02*
X015620Y014973D01*
X015620Y014940D02*
X015180Y014940D01*
X015180Y014940D01*
X015180Y014940D01*
X015620Y014940D01*
X015620Y014815D02*
X017760Y014815D01*
X018433Y014339D02*
X018927Y014339D01*
X019005Y014181D02*
X018390Y014181D01*
X018390Y014022D02*
X019005Y014022D01*
X019005Y013864D02*
X018390Y013864D01*
X018390Y013705D02*
X019005Y013705D01*
X019005Y013547D02*
X018390Y013547D01*
X018559Y014498D02*
X018801Y014498D01*
X018760Y014656D02*
X018600Y014656D01*
X018600Y014815D02*
X018760Y014815D01*
X018760Y014973D02*
X018600Y014973D01*
X018600Y015132D02*
X018760Y015132D01*
X018763Y015290D02*
X018597Y015290D01*
X018525Y015449D02*
X018835Y015449D01*
X021525Y015449D02*
X021835Y015449D01*
X021763Y015290D02*
X021597Y015290D01*
X021600Y015132D02*
X021760Y015132D01*
X021760Y014973D02*
X021600Y014973D01*
X021600Y014815D02*
X021760Y014815D01*
X021760Y014656D02*
X021600Y014656D01*
X021559Y014498D02*
X021801Y014498D01*
X021927Y014339D02*
X021533Y014339D01*
X021691Y014181D02*
X021975Y014181D01*
X021975Y014022D02*
X021850Y014022D01*
X022395Y014022D02*
X026354Y014022D01*
X026740Y013940D02*
X026740Y013758D01*
X026998Y013500D01*
X027180Y013500D01*
X027180Y013940D01*
X027180Y013940D01*
X027180Y013940D01*
X026740Y013940D01*
X026740Y013864D02*
X022395Y013864D01*
X022437Y013705D02*
X026793Y013705D01*
X026951Y013547D02*
X022595Y013547D01*
X022754Y013388D02*
X028010Y013388D01*
X028168Y013230D02*
X022912Y013230D01*
X023071Y013071D02*
X028327Y013071D01*
X028485Y012913D02*
X023229Y012913D01*
X023680Y012754D02*
X023680Y012754D01*
X023680Y012596D02*
X023680Y012596D01*
X025012Y011962D02*
X025348Y011962D01*
X025268Y011803D02*
X025092Y011803D01*
X025100Y011645D02*
X025260Y011645D01*
X025260Y011486D02*
X025100Y011486D01*
X025100Y011328D02*
X025260Y011328D01*
X025260Y011169D02*
X025100Y011169D01*
X025064Y011011D02*
X025296Y011011D01*
X022635Y008485D02*
X022180Y008940D01*
X022180Y008500D01*
X022362Y008500D01*
X022620Y008758D01*
X022620Y008788D01*
X022740Y008668D01*
X022740Y006804D01*
X022645Y006709D01*
X022590Y006577D01*
X022590Y006433D01*
X022645Y006301D01*
X022746Y006200D01*
X022777Y006187D01*
X022720Y006131D01*
X022720Y005749D01*
X022989Y005480D01*
X023363Y005480D01*
X023415Y005428D01*
X023415Y005384D01*
X023379Y005420D01*
X023200Y005420D01*
X023200Y004960D01*
X023160Y004960D01*
X023160Y005420D01*
X022981Y005420D01*
X022845Y005284D01*
X022845Y005557D01*
X022640Y005762D01*
X022640Y006131D01*
X022371Y006400D01*
X022185Y006400D01*
X022185Y006487D01*
X022130Y006619D01*
X022029Y006720D01*
X021990Y006736D01*
X021990Y007536D01*
X022006Y007520D01*
X022354Y007520D01*
X022600Y007766D01*
X022600Y008114D01*
X022354Y008360D01*
X022006Y008360D01*
X021990Y008344D01*
X021990Y008508D01*
X021998Y008500D01*
X022180Y008500D01*
X022180Y008940D01*
X022180Y008940D01*
X022180Y008792D02*
X022180Y008792D01*
X022180Y008633D02*
X022180Y008633D01*
X021990Y008475D02*
X022740Y008475D01*
X022635Y008485D02*
X022635Y007765D01*
X022590Y007720D01*
X022590Y006325D01*
X022680Y006235D01*
X022680Y005785D01*
X023175Y005290D01*
X023175Y005020D01*
X023180Y004940D01*
X023175Y004930D01*
X023175Y001960D01*
X023180Y001940D01*
X023955Y003440D02*
X022395Y003440D01*
X022395Y003986D01*
X022431Y003950D01*
X022563Y003895D01*
X022707Y003895D01*
X022839Y003950D01*
X022940Y004051D01*
X022995Y004183D01*
X022995Y004327D01*
X022940Y004459D01*
X022845Y004554D01*
X022845Y004596D01*
X022981Y004460D01*
X023160Y004460D01*
X023160Y004920D01*
X023200Y004920D01*
X023200Y004460D01*
X023265Y004460D01*
X023265Y004453D01*
X023320Y004321D01*
X023421Y004220D01*
X023553Y004165D01*
X023697Y004165D01*
X023829Y004220D01*
X023930Y004321D01*
X023955Y004381D01*
X023955Y003440D01*
X023955Y003561D02*
X022395Y003561D01*
X022395Y003720D02*
X023955Y003720D01*
X023955Y003878D02*
X022395Y003878D01*
X022926Y004037D02*
X023955Y004037D01*
X023955Y004195D02*
X023769Y004195D01*
X023944Y004354D02*
X023955Y004354D01*
X023481Y004195D02*
X022995Y004195D01*
X022984Y004354D02*
X023306Y004354D01*
X023200Y004512D02*
X023160Y004512D01*
X023160Y004671D02*
X023200Y004671D01*
X023200Y004829D02*
X023160Y004829D01*
X023160Y004988D02*
X023200Y004988D01*
X023200Y005146D02*
X023160Y005146D01*
X023160Y005305D02*
X023200Y005305D01*
X023380Y005463D02*
X022845Y005463D01*
X022845Y005305D02*
X022866Y005305D01*
X022848Y005622D02*
X022780Y005622D01*
X022720Y005780D02*
X022640Y005780D01*
X022640Y005939D02*
X022720Y005939D01*
X022720Y006097D02*
X022640Y006097D01*
X022690Y006256D02*
X022515Y006256D01*
X022598Y006414D02*
X022185Y006414D01*
X022149Y006573D02*
X022590Y006573D01*
X022667Y006731D02*
X022003Y006731D01*
X021990Y006890D02*
X022740Y006890D01*
X022740Y007048D02*
X021990Y007048D01*
X021990Y007207D02*
X022740Y007207D01*
X022740Y007365D02*
X021990Y007365D01*
X021990Y007524D02*
X022003Y007524D01*
X022357Y007524D02*
X022740Y007524D01*
X022740Y007682D02*
X022516Y007682D01*
X022600Y007841D02*
X022740Y007841D01*
X022740Y007999D02*
X022600Y007999D01*
X022556Y008158D02*
X022740Y008158D01*
X022740Y008316D02*
X022398Y008316D01*
X022495Y008633D02*
X022740Y008633D01*
X025997Y008633D02*
X026357Y008633D01*
X027013Y008633D02*
X030020Y008633D01*
X029861Y008475D02*
X029499Y008475D01*
X029587Y008316D02*
X029773Y008316D01*
X029760Y008158D02*
X029600Y008158D01*
X029600Y007999D02*
X029760Y007999D01*
X029760Y007841D02*
X029600Y007841D01*
X029600Y007682D02*
X029760Y007682D01*
X029790Y007524D02*
X029570Y007524D01*
X029459Y007365D02*
X029901Y007365D01*
X029415Y007207D02*
X030525Y007207D01*
X030525Y007365D02*
X030459Y007365D01*
X030525Y007048D02*
X029415Y007048D01*
X029415Y006890D02*
X030525Y006890D01*
X030525Y006731D02*
X029415Y006731D01*
X029415Y006573D02*
X030525Y006573D01*
X030525Y006414D02*
X029415Y006414D01*
X029515Y006256D02*
X029845Y006256D01*
X029720Y006097D02*
X029640Y006097D01*
X029640Y005939D02*
X029720Y005939D01*
X029720Y005780D02*
X029640Y005780D01*
X029528Y005622D02*
X029848Y005622D01*
X029686Y005463D02*
X030525Y005463D01*
X030525Y005305D02*
X030466Y005305D01*
X030625Y005146D02*
X030672Y005146D01*
X030640Y004988D02*
X030720Y004988D01*
X030720Y004829D02*
X030640Y004829D01*
X030561Y004671D02*
X030799Y004671D01*
X030957Y004512D02*
X030435Y004512D01*
X030435Y004354D02*
X030975Y004354D01*
X030975Y004195D02*
X030435Y004195D01*
X030435Y004037D02*
X030975Y004037D01*
X030975Y003878D02*
X030435Y003878D01*
X030435Y003720D02*
X030975Y003720D01*
X030975Y003561D02*
X030435Y003561D01*
X031395Y003561D02*
X032927Y003561D01*
X033123Y003720D02*
X031395Y003720D01*
X031395Y003878D02*
X033900Y003878D01*
X033900Y004037D02*
X031395Y004037D01*
X031395Y004195D02*
X033900Y004195D01*
X033900Y004354D02*
X031395Y004354D01*
X031403Y004512D02*
X031929Y004512D01*
X031981Y004460D02*
X031700Y004741D01*
X031700Y004920D01*
X032160Y004920D01*
X032200Y004920D01*
X032200Y004960D01*
X032660Y004960D01*
X032660Y005139D01*
X032379Y005420D01*
X032200Y005420D01*
X032200Y004960D01*
X032160Y004960D01*
X032160Y005420D01*
X031981Y005420D01*
X031700Y005139D01*
X031700Y004960D01*
X032160Y004960D01*
X032160Y004920D01*
X032160Y004460D01*
X031981Y004460D01*
X032160Y004512D02*
X032200Y004512D01*
X032200Y004460D02*
X032379Y004460D01*
X032660Y004741D01*
X032660Y004920D01*
X032200Y004920D01*
X032200Y004460D01*
X032200Y004671D02*
X032160Y004671D01*
X032160Y004829D02*
X032200Y004829D01*
X032200Y004988D02*
X032160Y004988D01*
X032160Y005146D02*
X032200Y005146D01*
X032200Y005305D02*
X032160Y005305D01*
X031989Y005480D02*
X032371Y005480D01*
X032640Y005749D01*
X032640Y006131D01*
X032371Y006400D01*
X031989Y006400D01*
X031720Y006131D01*
X031720Y005749D01*
X031989Y005480D01*
X031848Y005622D02*
X031512Y005622D01*
X031640Y005780D02*
X031720Y005780D01*
X031720Y005939D02*
X031640Y005939D01*
X031640Y006097D02*
X031720Y006097D01*
X031845Y006256D02*
X031515Y006256D01*
X030945Y006414D02*
X033900Y006414D01*
X033900Y006256D02*
X032515Y006256D01*
X032640Y006097D02*
X033900Y006097D01*
X033900Y005939D02*
X032640Y005939D01*
X032640Y005780D02*
X033900Y005780D01*
X033900Y005622D02*
X032512Y005622D01*
X032494Y005305D02*
X033900Y005305D01*
X033900Y005463D02*
X030949Y005463D01*
X031466Y005305D02*
X031866Y005305D01*
X031707Y005146D02*
X031625Y005146D01*
X031640Y004988D02*
X031700Y004988D01*
X031700Y004829D02*
X031640Y004829D01*
X031561Y004671D02*
X031771Y004671D01*
X032431Y004512D02*
X033900Y004512D01*
X033900Y004671D02*
X032589Y004671D01*
X032660Y004829D02*
X033900Y004829D01*
X033900Y004988D02*
X032660Y004988D01*
X032653Y005146D02*
X033900Y005146D01*
X033900Y006573D02*
X030945Y006573D01*
X030945Y006731D02*
X033900Y006731D01*
X033900Y006890D02*
X030945Y006890D01*
X030945Y007048D02*
X033900Y007048D01*
X033900Y007207D02*
X030945Y007207D01*
X031459Y007365D02*
X031901Y007365D01*
X031942Y007324D02*
X032096Y007260D01*
X032264Y007260D01*
X032418Y007324D01*
X032536Y007442D01*
X032600Y007596D01*
X032600Y008284D01*
X032536Y008438D01*
X032418Y008556D01*
X032264Y008620D01*
X032096Y008620D01*
X031942Y008556D01*
X031824Y008438D01*
X031760Y008284D01*
X031760Y007596D01*
X031824Y007442D01*
X031942Y007324D01*
X031790Y007524D02*
X031570Y007524D01*
X031600Y007682D02*
X031760Y007682D01*
X031760Y007841D02*
X031600Y007841D01*
X031600Y007999D02*
X031760Y007999D01*
X031760Y008158D02*
X031600Y008158D01*
X031587Y008316D02*
X031773Y008316D01*
X031861Y008475D02*
X031499Y008475D01*
X030861Y008475D02*
X030772Y008475D01*
X030614Y008633D02*
X032865Y008633D01*
X032740Y008758D02*
X032998Y008500D01*
X033180Y008500D01*
X033362Y008500D01*
X033620Y008758D01*
X033620Y008940D01*
X033620Y009122D01*
X033362Y009380D01*
X033180Y009380D01*
X033180Y008940D01*
X033180Y008940D01*
X033620Y008940D01*
X033180Y008940D01*
X033180Y008940D01*
X033180Y008940D01*
X032740Y008940D01*
X032740Y009122D01*
X032998Y009380D01*
X033180Y009380D01*
X033180Y008940D01*
X033180Y008500D01*
X033180Y008940D01*
X033180Y008940D01*
X032740Y008940D01*
X032740Y008758D01*
X032740Y008792D02*
X030455Y008792D01*
X030297Y008950D02*
X032740Y008950D01*
X032740Y009109D02*
X030138Y009109D01*
X029980Y009267D02*
X032885Y009267D01*
X033180Y009267D02*
X033180Y009267D01*
X033180Y009109D02*
X033180Y009109D01*
X033180Y008950D02*
X033180Y008950D01*
X033180Y008792D02*
X033180Y008792D01*
X033180Y008633D02*
X033180Y008633D01*
X033495Y008633D02*
X033900Y008633D01*
X033900Y008475D02*
X032499Y008475D01*
X032587Y008316D02*
X032962Y008316D01*
X033006Y008360D02*
X032760Y008114D01*
X032760Y007766D01*
X033006Y007520D01*
X033354Y007520D01*
X033600Y007766D01*
X033600Y008114D01*
X033354Y008360D01*
X033006Y008360D01*
X032804Y008158D02*
X032600Y008158D01*
X032600Y007999D02*
X032760Y007999D01*
X032760Y007841D02*
X032600Y007841D01*
X032600Y007682D02*
X032844Y007682D01*
X033003Y007524D02*
X032570Y007524D01*
X032459Y007365D02*
X033900Y007365D01*
X033900Y007524D02*
X033357Y007524D01*
X033516Y007682D02*
X033900Y007682D01*
X033900Y007841D02*
X033600Y007841D01*
X033600Y007999D02*
X033900Y007999D01*
X033900Y008158D02*
X033556Y008158D01*
X033398Y008316D02*
X033900Y008316D01*
X033900Y008792D02*
X033620Y008792D01*
X033620Y008950D02*
X033900Y008950D01*
X033900Y009109D02*
X033620Y009109D01*
X033475Y009267D02*
X033900Y009267D01*
X033900Y009426D02*
X029821Y009426D01*
X029663Y009584D02*
X033900Y009584D01*
X033900Y009743D02*
X029504Y009743D01*
X029346Y009901D02*
X033900Y009901D01*
X033900Y010060D02*
X030599Y010060D01*
X030624Y010070D02*
X030725Y010171D01*
X030780Y010303D01*
X030780Y010438D01*
X030855Y010513D01*
X030855Y010798D01*
X030918Y010824D01*
X031036Y010942D01*
X031100Y011096D01*
X031100Y011784D01*
X031036Y011938D01*
X030918Y012056D01*
X030764Y012120D01*
X030596Y012120D01*
X030442Y012056D01*
X030324Y011938D01*
X030260Y011784D01*
X030260Y011096D01*
X030324Y010942D01*
X030435Y010831D01*
X030435Y010735D01*
X030348Y010735D01*
X030216Y010680D01*
X030115Y010579D01*
X030060Y010447D01*
X030060Y010303D01*
X030115Y010171D01*
X030216Y010070D01*
X030348Y010015D01*
X030492Y010015D01*
X030624Y010070D01*
X030745Y010218D02*
X033900Y010218D01*
X033900Y010377D02*
X030780Y010377D01*
X030855Y010535D02*
X033900Y010535D01*
X033900Y010694D02*
X030855Y010694D01*
X030946Y010852D02*
X031414Y010852D01*
X031442Y010824D02*
X031596Y010760D01*
X031764Y010760D01*
X031918Y010824D01*
X032036Y010942D01*
X032100Y011096D01*
X032100Y011784D01*
X032036Y011938D01*
X031918Y012056D01*
X031764Y012120D01*
X031596Y012120D01*
X031442Y012056D01*
X031324Y011938D01*
X031260Y011784D01*
X031260Y011096D01*
X031324Y010942D01*
X031442Y010824D01*
X031296Y011011D02*
X031064Y011011D01*
X031100Y011169D02*
X031260Y011169D01*
X031260Y011328D02*
X031100Y011328D01*
X031100Y011486D02*
X031260Y011486D01*
X031260Y011645D02*
X031100Y011645D01*
X031092Y011803D02*
X031268Y011803D01*
X031348Y011962D02*
X031012Y011962D01*
X030348Y011962D02*
X030012Y011962D01*
X030092Y011803D02*
X030268Y011803D01*
X030260Y011645D02*
X030100Y011645D01*
X030100Y011486D02*
X030260Y011486D01*
X030260Y011328D02*
X030100Y011328D01*
X030100Y011169D02*
X030260Y011169D01*
X030296Y011011D02*
X030064Y011011D01*
X029946Y010852D02*
X030414Y010852D01*
X030248Y010694D02*
X028920Y010694D01*
X028920Y010535D02*
X030097Y010535D01*
X030060Y010377D02*
X028920Y010377D01*
X029029Y010218D02*
X030095Y010218D01*
X030241Y010060D02*
X029187Y010060D01*
X029414Y010852D02*
X028946Y010852D01*
X029064Y011011D02*
X029296Y011011D01*
X029260Y011169D02*
X029100Y011169D01*
X029100Y011328D02*
X029260Y011328D01*
X029260Y011486D02*
X029100Y011486D01*
X029100Y011645D02*
X029260Y011645D01*
X029268Y011803D02*
X029092Y011803D01*
X029713Y012279D02*
X033900Y012279D01*
X033900Y012437D02*
X029555Y012437D01*
X029396Y012596D02*
X033900Y012596D01*
X033900Y012754D02*
X029238Y012754D01*
X029079Y012913D02*
X033900Y012913D01*
X033900Y013071D02*
X028921Y013071D01*
X028762Y013230D02*
X033900Y013230D01*
X033900Y013388D02*
X028604Y013388D01*
X028445Y013547D02*
X033900Y013547D01*
X033900Y013705D02*
X028287Y013705D01*
X028128Y013864D02*
X033900Y013864D01*
X033900Y014022D02*
X027970Y014022D01*
X027811Y014181D02*
X033900Y014181D01*
X033900Y014339D02*
X027653Y014339D01*
X027494Y014498D02*
X033900Y014498D01*
X033900Y014656D02*
X027490Y014656D01*
X027600Y014815D02*
X033900Y014815D01*
X033900Y014973D02*
X027600Y014973D01*
X027582Y015132D02*
X033900Y015132D01*
X033900Y015290D02*
X027424Y015290D01*
X027180Y013864D02*
X027180Y013864D01*
X027180Y013705D02*
X027180Y013705D01*
X027180Y013547D02*
X027180Y013547D01*
X027409Y013547D02*
X027851Y013547D01*
X027693Y013705D02*
X027567Y013705D01*
X029865Y012120D02*
X033900Y012120D01*
X033900Y011962D02*
X033012Y011962D01*
X033036Y011938D02*
X032918Y012056D01*
X032764Y012120D01*
X032596Y012120D01*
X032442Y012056D01*
X032324Y011938D01*
X032260Y011784D01*
X032260Y011096D01*
X032324Y010942D01*
X032442Y010824D01*
X032596Y010760D01*
X032764Y010760D01*
X032918Y010824D01*
X033036Y010942D01*
X033100Y011096D01*
X033100Y011784D01*
X033036Y011938D01*
X033092Y011803D02*
X033900Y011803D01*
X033900Y011645D02*
X033100Y011645D01*
X033100Y011486D02*
X033900Y011486D01*
X033900Y011328D02*
X033100Y011328D01*
X033100Y011169D02*
X033900Y011169D01*
X033900Y011011D02*
X033064Y011011D01*
X032946Y010852D02*
X033900Y010852D01*
X032414Y010852D02*
X031946Y010852D01*
X032064Y011011D02*
X032296Y011011D01*
X032260Y011169D02*
X032100Y011169D01*
X032100Y011328D02*
X032260Y011328D01*
X032260Y011486D02*
X032100Y011486D01*
X032100Y011645D02*
X032260Y011645D01*
X032268Y011803D02*
X032092Y011803D01*
X032012Y011962D02*
X032348Y011962D01*
X028861Y008475D02*
X028499Y008475D01*
X028536Y008438D02*
X028418Y008556D01*
X028264Y008620D01*
X028096Y008620D01*
X027942Y008556D01*
X027824Y008438D01*
X027760Y008284D01*
X027760Y007596D01*
X027824Y007442D01*
X027942Y007324D01*
X028096Y007260D01*
X028264Y007260D01*
X028418Y007324D01*
X028536Y007442D01*
X028600Y007596D01*
X028600Y008284D01*
X028536Y008438D01*
X028587Y008316D02*
X028773Y008316D01*
X028760Y008158D02*
X028600Y008158D01*
X028600Y007999D02*
X028760Y007999D01*
X028760Y007841D02*
X028600Y007841D01*
X028600Y007682D02*
X028760Y007682D01*
X028790Y007524D02*
X028570Y007524D01*
X028459Y007365D02*
X028901Y007365D01*
X028995Y007207D02*
X026908Y007207D01*
X026901Y007365D02*
X026749Y007365D01*
X026790Y007524D02*
X026570Y007524D01*
X026600Y007682D02*
X026760Y007682D01*
X026760Y007841D02*
X026600Y007841D01*
X026600Y007999D02*
X026760Y007999D01*
X027600Y007999D02*
X027760Y007999D01*
X027760Y007841D02*
X027600Y007841D01*
X027600Y007682D02*
X027760Y007682D01*
X027790Y007524D02*
X027570Y007524D01*
X027459Y007365D02*
X027901Y007365D01*
X027225Y006890D02*
X028995Y006890D01*
X028995Y007048D02*
X027066Y007048D01*
X027383Y006731D02*
X028995Y006731D01*
X028995Y006573D02*
X027542Y006573D01*
X027700Y006414D02*
X028995Y006414D01*
X028845Y006256D02*
X028515Y006256D01*
X028640Y006097D02*
X028720Y006097D01*
X028720Y005939D02*
X028640Y005939D01*
X028640Y005780D02*
X028720Y005780D01*
X029845Y005305D02*
X029894Y005305D01*
X030512Y005622D02*
X030525Y005622D01*
X030515Y006256D02*
X030525Y006256D01*
X027760Y008158D02*
X027600Y008158D01*
X027587Y008316D02*
X027773Y008316D01*
X027861Y008475D02*
X027499Y008475D01*
X022929Y004512D02*
X022887Y004512D01*
X022395Y014181D02*
X023797Y014181D01*
X023639Y014339D02*
X023433Y014339D01*
X022927Y014339D02*
X022433Y014339D01*
X022559Y014498D02*
X022801Y014498D01*
X022760Y014656D02*
X022600Y014656D01*
X022600Y014815D02*
X022760Y014815D01*
X022760Y014973D02*
X022600Y014973D01*
X022600Y015132D02*
X022760Y015132D01*
X022763Y015290D02*
X022597Y015290D01*
X022525Y015449D02*
X022835Y015449D01*
X023525Y015449D02*
X023835Y015449D01*
X023763Y015290D02*
X023597Y015290D01*
X023600Y015132D02*
X023760Y015132D01*
X023760Y014973D02*
X023600Y014973D01*
X023757Y014815D02*
X023760Y014815D01*
X024600Y014815D02*
X024760Y014815D01*
X024760Y014973D02*
X024600Y014973D01*
X024600Y015132D02*
X024760Y015132D01*
X024763Y015290D02*
X024597Y015290D01*
X024525Y015449D02*
X024835Y015449D01*
X024760Y014656D02*
X024600Y014656D01*
X015620Y014758D02*
X015362Y014500D01*
X015180Y014500D01*
X015180Y014940D01*
X015180Y014940D01*
X015180Y014940D01*
X014740Y014940D01*
X014740Y015122D01*
X014998Y015380D01*
X015180Y015380D01*
X015180Y014940D01*
X015180Y014500D01*
X014998Y014500D01*
X014740Y014758D01*
X014740Y014940D01*
X015180Y014940D01*
X015180Y014973D02*
X015180Y014973D01*
X015180Y014815D02*
X015180Y014815D01*
X015180Y014656D02*
X015180Y014656D01*
X014842Y014656D02*
X014490Y014656D01*
X014600Y014815D02*
X014740Y014815D01*
X014740Y014973D02*
X014600Y014973D01*
X014726Y015132D02*
X014749Y015132D01*
X014878Y015290D02*
X014908Y015290D01*
X015180Y015290D02*
X015180Y015290D01*
X015180Y015132D02*
X015180Y015132D01*
X002680Y012754D02*
X002680Y012754D01*
X002680Y012596D02*
X002680Y012596D01*
X002372Y012754D02*
X001797Y012754D01*
X001893Y012596D02*
X002240Y012596D01*
X000563Y012754D02*
X000460Y012754D01*
X000460Y012596D02*
X000467Y012596D01*
X000460Y012279D02*
X000469Y012279D01*
X000460Y011803D02*
X000641Y011803D01*
X000508Y011645D02*
X000460Y011645D01*
X000460Y011486D02*
X000460Y011486D01*
X000460Y011328D02*
X000470Y011328D01*
X000460Y011169D02*
X000549Y011169D01*
X000460Y011011D02*
X000787Y011011D01*
X000460Y019887D02*
X033900Y019887D01*
X033900Y020045D02*
X000460Y020045D01*
M02*
