G75*
%MOIN*%
%OFA0B0*%
%FSLAX24Y24*%
%IPPOS*%
%LPD*%
%AMOC8*
5,1,8,0,0,1.08239X$1,22.5*
%
%ADD10C,0.0020*%
%ADD11C,0.0030*%
%ADD12C,0.0040*%
%ADD13C,0.0080*%
%ADD14C,0.0060*%
%ADD15C,0.0050*%
%ADD16C,0.0100*%
%ADD17R,0.0150X0.0200*%
%ADD18C,0.0070*%
%ADD19R,0.0250X0.0300*%
%ADD20R,0.1100X0.0500*%
%ADD21R,0.1000X0.1000*%
D10*
X002027Y003950D02*
X002100Y003950D01*
X002137Y003987D01*
X002137Y004060D01*
X002063Y004060D01*
X001990Y004133D02*
X001990Y003987D01*
X002027Y003950D01*
X001990Y004133D02*
X002027Y004170D01*
X002100Y004170D01*
X002137Y004133D01*
X002690Y004133D02*
X002690Y003987D01*
X002727Y003950D01*
X002800Y003950D01*
X002837Y003987D01*
X002837Y004133D01*
X002800Y004170D01*
X002727Y004170D01*
X002690Y004133D01*
X002911Y004133D02*
X002911Y004097D01*
X002948Y004060D01*
X003021Y004060D01*
X003058Y004023D01*
X003058Y003987D01*
X003021Y003950D01*
X002948Y003950D01*
X002911Y003987D01*
X002911Y004133D02*
X002948Y004170D01*
X003021Y004170D01*
X003058Y004133D01*
X003132Y004133D02*
X003132Y003987D01*
X003169Y003950D01*
X003242Y003950D01*
X003279Y003987D01*
X003279Y004133D02*
X003242Y004170D01*
X003169Y004170D01*
X003132Y004133D01*
X003990Y004060D02*
X004137Y004060D01*
X004211Y004060D02*
X004284Y004097D01*
X004321Y004097D01*
X004358Y004060D01*
X004358Y003987D01*
X004321Y003950D01*
X004248Y003950D01*
X004211Y003987D01*
X004211Y004060D02*
X004211Y004170D01*
X004358Y004170D01*
X004432Y004170D02*
X004432Y004023D01*
X004505Y003950D01*
X004579Y004023D01*
X004579Y004170D01*
X004990Y004097D02*
X005063Y004170D01*
X005137Y004097D01*
X005137Y003950D01*
X005211Y003950D02*
X005211Y004170D01*
X005137Y004060D02*
X004990Y004060D01*
X004990Y004097D02*
X004990Y003950D01*
X005211Y003950D02*
X005358Y003950D01*
X005432Y003950D02*
X005579Y003950D01*
X005505Y004060D02*
X005432Y004060D01*
X005432Y004170D02*
X005432Y003950D01*
X005432Y004170D02*
X005579Y004170D01*
X005990Y004170D02*
X006137Y004170D01*
X006063Y004170D02*
X006063Y003950D01*
X006211Y003987D02*
X006211Y004133D01*
X006248Y004170D01*
X006321Y004170D01*
X006358Y004133D01*
X006358Y003987D02*
X006321Y003950D01*
X006248Y003950D01*
X006211Y003987D01*
X006890Y003950D02*
X007000Y003950D01*
X007037Y003987D01*
X007037Y004133D01*
X007000Y004170D01*
X006890Y004170D01*
X006890Y003950D01*
X007111Y003950D02*
X007111Y004097D01*
X007184Y004170D01*
X007258Y004097D01*
X007258Y003950D01*
X007332Y003950D02*
X007479Y004097D01*
X007479Y004133D01*
X007442Y004170D01*
X007369Y004170D01*
X007332Y004133D01*
X007258Y004060D02*
X007111Y004060D01*
X007332Y003950D02*
X007479Y003950D01*
X007990Y003950D02*
X008063Y003950D01*
X008027Y003950D02*
X008027Y004170D01*
X008063Y004170D02*
X007990Y004170D01*
X008137Y004170D02*
X008247Y004170D01*
X008284Y004133D01*
X008284Y004060D01*
X008247Y004023D01*
X008137Y004023D01*
X008137Y003950D02*
X008137Y004170D01*
X008211Y004023D02*
X008284Y003950D01*
X008358Y003987D02*
X008395Y003950D01*
X008468Y003950D01*
X008505Y003987D01*
X008505Y004023D01*
X008468Y004060D01*
X008432Y004060D01*
X008468Y004060D02*
X008505Y004097D01*
X008505Y004133D01*
X008468Y004170D01*
X008395Y004170D01*
X008358Y004133D01*
X008990Y004170D02*
X009063Y004170D01*
X009027Y004170D02*
X009027Y003950D01*
X009063Y003950D02*
X008990Y003950D01*
X009137Y003950D02*
X009137Y004170D01*
X009247Y004170D01*
X009284Y004133D01*
X009284Y004060D01*
X009247Y004023D01*
X009137Y004023D01*
X009211Y004023D02*
X009284Y003950D01*
X009358Y004060D02*
X009505Y004060D01*
X009468Y003950D02*
X009468Y004170D01*
X009358Y004060D01*
X009990Y003950D02*
X010063Y003950D01*
X010027Y003950D02*
X010027Y004170D01*
X010063Y004170D02*
X009990Y004170D01*
X010137Y004170D02*
X010247Y004170D01*
X010284Y004133D01*
X010284Y004060D01*
X010247Y004023D01*
X010137Y004023D01*
X010137Y003950D02*
X010137Y004170D01*
X010211Y004023D02*
X010284Y003950D01*
X010358Y003987D02*
X010395Y003950D01*
X010468Y003950D01*
X010505Y003987D01*
X010505Y004060D01*
X010468Y004097D01*
X010432Y004097D01*
X010358Y004060D01*
X010358Y004170D01*
X010505Y004170D01*
X010990Y004170D02*
X011063Y004170D01*
X011027Y004170D02*
X011027Y003950D01*
X011063Y003950D02*
X010990Y003950D01*
X011137Y003950D02*
X011137Y004170D01*
X011247Y004170D01*
X011284Y004133D01*
X011284Y004060D01*
X011247Y004023D01*
X011137Y004023D01*
X011211Y004023D02*
X011284Y003950D01*
X011358Y003987D02*
X011395Y003950D01*
X011468Y003950D01*
X011505Y003987D01*
X011505Y004023D01*
X011468Y004060D01*
X011358Y004060D01*
X011358Y003987D01*
X011358Y004060D02*
X011432Y004133D01*
X011505Y004170D01*
X011990Y004170D02*
X012063Y004170D01*
X012027Y004170D02*
X012027Y003950D01*
X012063Y003950D02*
X011990Y003950D01*
X012137Y003950D02*
X012137Y004170D01*
X012247Y004170D01*
X012284Y004133D01*
X012284Y004060D01*
X012247Y004023D01*
X012137Y004023D01*
X012211Y004023D02*
X012284Y003950D01*
X012358Y003950D02*
X012358Y003987D01*
X012505Y004133D01*
X012505Y004170D01*
X012358Y004170D01*
X012890Y004133D02*
X012890Y003987D01*
X012927Y003950D01*
X013000Y003950D01*
X013037Y003987D01*
X013111Y003950D02*
X013111Y004170D01*
X013037Y004133D02*
X013000Y004170D01*
X012927Y004170D01*
X012890Y004133D01*
X013111Y003950D02*
X013258Y003950D01*
X013332Y003950D02*
X013332Y004170D01*
X013369Y004060D02*
X013479Y003950D01*
X013332Y004023D02*
X013479Y004170D01*
X013890Y004170D02*
X013890Y003950D01*
X013890Y004023D02*
X014000Y004023D01*
X014037Y004060D01*
X014037Y004133D01*
X014000Y004170D01*
X013890Y004170D01*
X013963Y004023D02*
X014037Y003950D01*
X014111Y003950D02*
X014111Y004170D01*
X014258Y004170D01*
X014332Y004170D02*
X014442Y004170D01*
X014479Y004133D01*
X014479Y004060D01*
X014442Y004023D01*
X014332Y004023D01*
X014332Y003950D02*
X014332Y004170D01*
X014405Y004023D02*
X014479Y003950D01*
X014184Y004060D02*
X014111Y004060D01*
X014890Y003950D02*
X015000Y003950D01*
X015037Y003987D01*
X015037Y004133D01*
X015000Y004170D01*
X014890Y004170D01*
X014890Y003950D01*
X015111Y003987D02*
X015148Y003950D01*
X015221Y003950D01*
X015258Y003987D01*
X015258Y004133D01*
X015221Y004170D01*
X015148Y004170D01*
X015111Y004133D01*
X015111Y003987D01*
X015184Y004023D02*
X015258Y003950D01*
X015332Y003950D02*
X015479Y003950D01*
X015405Y003950D02*
X015405Y004170D01*
X015332Y004097D01*
X015890Y004170D02*
X015890Y003950D01*
X016000Y003950D01*
X016037Y003987D01*
X016037Y004133D01*
X016000Y004170D01*
X015890Y004170D01*
X016111Y004097D02*
X016184Y004170D01*
X016258Y004097D01*
X016258Y003950D01*
X016332Y003950D02*
X016479Y003950D01*
X016405Y003950D02*
X016405Y004170D01*
X016332Y004097D01*
X016258Y004060D02*
X016111Y004060D01*
X016111Y004097D02*
X016111Y003950D01*
X016890Y003950D02*
X017000Y003950D01*
X017037Y003987D01*
X017037Y004133D01*
X017000Y004170D01*
X016890Y004170D01*
X016890Y003950D01*
X017111Y003987D02*
X017148Y003950D01*
X017221Y003950D01*
X017258Y003987D01*
X017258Y004133D01*
X017221Y004170D01*
X017148Y004170D01*
X017111Y004133D01*
X017111Y003987D01*
X017184Y004023D02*
X017258Y003950D01*
X017332Y003987D02*
X017369Y003950D01*
X017442Y003950D01*
X017479Y003987D01*
X017479Y004023D01*
X017442Y004060D01*
X017405Y004060D01*
X017442Y004060D02*
X017479Y004097D01*
X017479Y004133D01*
X017442Y004170D01*
X017369Y004170D01*
X017332Y004133D01*
X017890Y004170D02*
X017890Y003950D01*
X018000Y003950D01*
X018037Y003987D01*
X018037Y004133D01*
X018000Y004170D01*
X017890Y004170D01*
X018111Y004097D02*
X018184Y004170D01*
X018258Y004097D01*
X018258Y003950D01*
X018332Y003987D02*
X018369Y003950D01*
X018442Y003950D01*
X018479Y003987D01*
X018479Y004023D01*
X018442Y004060D01*
X018405Y004060D01*
X018442Y004060D02*
X018479Y004097D01*
X018479Y004133D01*
X018442Y004170D01*
X018369Y004170D01*
X018332Y004133D01*
X018258Y004060D02*
X018111Y004060D01*
X018111Y004097D02*
X018111Y003950D01*
X018890Y003950D02*
X018963Y003950D01*
X018927Y003950D02*
X018927Y004170D01*
X018963Y004170D02*
X018890Y004170D01*
X019037Y004133D02*
X019037Y003987D01*
X019074Y003950D01*
X019147Y003950D01*
X019184Y003987D01*
X019184Y004133D01*
X019147Y004170D01*
X019074Y004170D01*
X019037Y004133D01*
X019258Y004170D02*
X019258Y003950D01*
X019258Y004023D02*
X019368Y004023D01*
X019405Y004060D01*
X019405Y004133D01*
X019368Y004170D01*
X019258Y004170D01*
X019332Y004023D02*
X019405Y003950D01*
X019890Y003950D02*
X019963Y003950D01*
X019927Y003950D02*
X019927Y004170D01*
X019963Y004170D02*
X019890Y004170D01*
X020037Y004133D02*
X020037Y003987D01*
X020074Y003950D01*
X020147Y003950D01*
X020184Y003987D01*
X020184Y004133D01*
X020147Y004170D01*
X020074Y004170D01*
X020037Y004133D01*
X020258Y004170D02*
X020258Y003950D01*
X020332Y004023D01*
X020405Y003950D01*
X020405Y004170D01*
X020990Y004170D02*
X021063Y004097D01*
X021137Y004170D01*
X021137Y003950D01*
X021211Y003950D02*
X021211Y004170D01*
X021321Y004170D01*
X021358Y004133D01*
X021358Y004060D01*
X021321Y004023D01*
X021211Y004023D01*
X021284Y004023D02*
X021358Y003950D01*
X020990Y003950D02*
X020990Y004170D01*
X021990Y004170D02*
X021990Y003950D01*
X022137Y003950D02*
X022137Y004170D01*
X022063Y004097D01*
X021990Y004170D01*
X022211Y004170D02*
X022211Y003950D01*
X022284Y004023D01*
X022358Y003950D01*
X022358Y004170D01*
X023190Y004133D02*
X023190Y003987D01*
X023227Y003950D01*
X023300Y003950D01*
X023337Y003987D01*
X023337Y004060D01*
X023263Y004060D01*
X023190Y004133D02*
X023227Y004170D01*
X023300Y004170D01*
X023337Y004133D01*
X023990Y004060D02*
X024137Y004060D01*
X024211Y004097D02*
X024284Y004170D01*
X024284Y003950D01*
X024211Y003950D02*
X024358Y003950D01*
X024432Y003950D02*
X024579Y004097D01*
X024579Y004133D01*
X024542Y004170D01*
X024469Y004170D01*
X024432Y004133D01*
X024432Y003950D02*
X024579Y003950D01*
X024990Y003987D02*
X024990Y004133D01*
X025027Y004170D01*
X025100Y004170D01*
X025137Y004133D01*
X025211Y004133D02*
X025211Y004097D01*
X025248Y004060D01*
X025321Y004060D01*
X025358Y004023D01*
X025358Y003987D01*
X025321Y003950D01*
X025248Y003950D01*
X025211Y003987D01*
X025137Y003987D02*
X025100Y003950D01*
X025027Y003950D01*
X024990Y003987D01*
X025211Y004133D02*
X025248Y004170D01*
X025321Y004170D01*
X025358Y004133D01*
X025990Y004060D02*
X026137Y004060D01*
X026211Y004097D02*
X026284Y004170D01*
X026284Y003950D01*
X026211Y003950D02*
X026358Y003950D01*
X026432Y003950D02*
X026579Y004097D01*
X026579Y004133D01*
X026542Y004170D01*
X026469Y004170D01*
X026432Y004133D01*
X026432Y003950D02*
X026579Y003950D01*
X026890Y003950D02*
X026890Y004170D01*
X027000Y004170D01*
X027037Y004133D01*
X027037Y003987D01*
X027000Y003950D01*
X026890Y003950D01*
X027111Y003987D02*
X027148Y003950D01*
X027221Y003950D01*
X027258Y003987D01*
X027258Y004133D01*
X027221Y004170D01*
X027148Y004170D01*
X027111Y004133D01*
X027111Y003987D01*
X027184Y004023D02*
X027258Y003950D01*
X027332Y003950D02*
X027479Y004097D01*
X027479Y004133D01*
X027442Y004170D01*
X027369Y004170D01*
X027332Y004133D01*
X027332Y003950D02*
X027479Y003950D01*
X027990Y004060D02*
X028137Y004060D01*
X028211Y004060D02*
X028211Y004170D01*
X028358Y004170D01*
X028321Y004097D02*
X028358Y004060D01*
X028358Y003987D01*
X028321Y003950D01*
X028248Y003950D01*
X028211Y003987D01*
X028211Y004060D02*
X028284Y004097D01*
X028321Y004097D01*
X028990Y004170D02*
X029063Y004170D01*
X029027Y004170D02*
X029027Y003950D01*
X029063Y003950D02*
X028990Y003950D01*
X029137Y003950D02*
X029137Y004170D01*
X029247Y004170D01*
X029284Y004133D01*
X029284Y004060D01*
X029247Y004023D01*
X029137Y004023D01*
X029211Y004023D02*
X029284Y003950D01*
X029358Y003987D02*
X029395Y003950D01*
X029468Y003950D01*
X029505Y003987D01*
X029505Y004133D01*
X029468Y004170D01*
X029395Y004170D01*
X029358Y004133D01*
X029358Y004097D01*
X029395Y004060D01*
X029505Y004060D01*
X029990Y004060D02*
X030137Y004060D01*
X030211Y004060D02*
X030284Y004097D01*
X030321Y004097D01*
X030358Y004060D01*
X030358Y003987D01*
X030321Y003950D01*
X030248Y003950D01*
X030211Y003987D01*
X030211Y004060D02*
X030211Y004170D01*
X030358Y004170D01*
X030063Y004133D02*
X030063Y003987D01*
X030890Y004023D02*
X031000Y004023D01*
X031037Y004060D01*
X031037Y004133D01*
X031000Y004170D01*
X030890Y004170D01*
X030890Y003950D01*
X030963Y004023D02*
X031037Y003950D01*
X031111Y003987D02*
X031148Y003950D01*
X031221Y003950D01*
X031258Y003987D01*
X031258Y004023D01*
X031221Y004060D01*
X031148Y004060D01*
X031111Y004097D01*
X031111Y004133D01*
X031148Y004170D01*
X031221Y004170D01*
X031258Y004133D01*
X031332Y004170D02*
X031479Y004170D01*
X031405Y004170D02*
X031405Y003950D01*
X031890Y003987D02*
X031890Y004133D01*
X031927Y004170D01*
X032000Y004170D01*
X032037Y004133D01*
X032037Y004060D02*
X031963Y004060D01*
X032037Y004060D02*
X032037Y003987D01*
X032000Y003950D01*
X031927Y003950D01*
X031890Y003987D01*
X032111Y003950D02*
X032111Y004170D01*
X032258Y003950D01*
X032258Y004170D01*
X032332Y004170D02*
X032332Y003950D01*
X032442Y003950D01*
X032479Y003987D01*
X032479Y004133D01*
X032442Y004170D01*
X032332Y004170D01*
X032295Y006950D02*
X032368Y006950D01*
X032405Y006987D01*
X032479Y006950D02*
X032479Y007170D01*
X032405Y007133D02*
X032368Y007170D01*
X032295Y007170D01*
X032258Y007133D01*
X032258Y006987D01*
X032295Y006950D01*
X032184Y006987D02*
X032184Y007133D01*
X032147Y007170D01*
X032074Y007170D01*
X032037Y007133D01*
X032037Y006987D01*
X032074Y006950D01*
X032147Y006950D01*
X032184Y006987D01*
X031963Y006950D02*
X031890Y006950D01*
X031927Y006950D02*
X031927Y007170D01*
X031963Y007170D02*
X031890Y007170D01*
X031358Y007170D02*
X031358Y007133D01*
X031211Y006987D01*
X031211Y006950D01*
X031137Y006987D02*
X031137Y007133D01*
X031100Y007170D01*
X030990Y007170D01*
X030990Y006950D01*
X031100Y006950D01*
X031137Y006987D01*
X031211Y007170D02*
X031358Y007170D01*
X030358Y007170D02*
X030284Y007133D01*
X030211Y007060D01*
X030321Y007060D01*
X030358Y007023D01*
X030358Y006987D01*
X030321Y006950D01*
X030248Y006950D01*
X030211Y006987D01*
X030211Y007060D01*
X030137Y006987D02*
X030137Y007133D01*
X030100Y007170D01*
X029990Y007170D01*
X029990Y006950D01*
X030100Y006950D01*
X030137Y006987D01*
X029358Y006987D02*
X029321Y006950D01*
X029248Y006950D01*
X029211Y006987D01*
X029211Y007060D02*
X029284Y007097D01*
X029321Y007097D01*
X029358Y007060D01*
X029358Y006987D01*
X029211Y007060D02*
X029211Y007170D01*
X029358Y007170D01*
X029137Y007133D02*
X029137Y006987D01*
X029100Y006950D01*
X028990Y006950D01*
X028990Y007170D01*
X029100Y007170D01*
X029137Y007133D01*
X028358Y007060D02*
X028211Y007060D01*
X028321Y007170D01*
X028321Y006950D01*
X028137Y006987D02*
X028137Y007133D01*
X028100Y007170D01*
X027990Y007170D01*
X027990Y006950D01*
X028100Y006950D01*
X028137Y006987D01*
X027358Y006987D02*
X027321Y006950D01*
X027248Y006950D01*
X027211Y006987D01*
X027137Y006987D02*
X027137Y007133D01*
X027100Y007170D01*
X026990Y007170D01*
X026990Y006950D01*
X027100Y006950D01*
X027137Y006987D01*
X027211Y007133D02*
X027248Y007170D01*
X027321Y007170D01*
X027358Y007133D01*
X027358Y007097D01*
X027321Y007060D01*
X027358Y007023D01*
X027358Y006987D01*
X027321Y007060D02*
X027284Y007060D01*
X026358Y007097D02*
X026211Y006950D01*
X026358Y006950D01*
X026358Y007097D02*
X026358Y007133D01*
X026321Y007170D01*
X026248Y007170D01*
X026211Y007133D01*
X026137Y007133D02*
X026100Y007170D01*
X025990Y007170D01*
X025990Y006950D01*
X026100Y006950D01*
X026137Y006987D01*
X026137Y007133D01*
X025358Y006950D02*
X025211Y006950D01*
X025284Y006950D02*
X025284Y007170D01*
X025211Y007097D01*
X025137Y007133D02*
X025100Y007170D01*
X024990Y007170D01*
X024990Y006950D01*
X025100Y006950D01*
X025137Y006987D01*
X025137Y007133D01*
X024358Y007133D02*
X024211Y006987D01*
X024248Y006950D01*
X024321Y006950D01*
X024358Y006987D01*
X024358Y007133D01*
X024321Y007170D01*
X024248Y007170D01*
X024211Y007133D01*
X024211Y006987D01*
X024137Y006987D02*
X024137Y007133D01*
X024100Y007170D01*
X023990Y007170D01*
X023990Y006950D01*
X024100Y006950D01*
X024137Y006987D01*
X023170Y006987D02*
X022950Y006987D01*
X022950Y007023D02*
X022950Y006950D01*
X022987Y007097D02*
X023133Y007097D01*
X023170Y007134D01*
X023170Y007207D01*
X023133Y007244D01*
X022987Y007244D01*
X022950Y007207D01*
X022950Y007134D01*
X022987Y007097D01*
X023170Y007023D02*
X023170Y006950D01*
X023170Y007318D02*
X022950Y007318D01*
X022950Y007428D01*
X022987Y007465D01*
X023060Y007465D01*
X023097Y007428D01*
X023097Y007318D01*
X023097Y007392D02*
X023170Y007465D01*
X023170Y007539D02*
X023170Y007649D01*
X023133Y007686D01*
X022987Y007686D01*
X022950Y007649D01*
X022950Y007539D01*
X023170Y007539D01*
X022987Y007760D02*
X023060Y007834D01*
X023170Y007834D01*
X023060Y007834D02*
X022987Y007907D01*
X022950Y007907D01*
X022950Y007760D02*
X022987Y007760D01*
X022479Y007170D02*
X022479Y006950D01*
X022332Y007170D01*
X022332Y006950D01*
X022258Y006950D02*
X022111Y006950D01*
X022111Y007170D01*
X022258Y007170D01*
X022184Y007060D02*
X022111Y007060D01*
X022037Y007060D02*
X021890Y007060D01*
X021890Y007097D02*
X021963Y007170D01*
X022037Y007097D01*
X022037Y006950D01*
X021890Y006950D02*
X021890Y007097D01*
X021579Y007133D02*
X021579Y006987D01*
X021542Y006950D01*
X021469Y006950D01*
X021432Y006987D01*
X021469Y007060D02*
X021579Y007060D01*
X021579Y007133D02*
X021542Y007170D01*
X021469Y007170D01*
X021432Y007133D01*
X021432Y007097D01*
X021469Y007060D01*
X021358Y006950D02*
X021211Y006950D01*
X021284Y006950D02*
X021284Y007170D01*
X021211Y007097D01*
X021137Y007097D02*
X021137Y006950D01*
X021137Y007060D02*
X020990Y007060D01*
X020990Y007097D02*
X021063Y007170D01*
X021137Y007097D01*
X020990Y007097D02*
X020990Y006950D01*
X020579Y006987D02*
X020542Y006950D01*
X020469Y006950D01*
X020432Y006987D01*
X020432Y007023D01*
X020469Y007060D01*
X020542Y007060D01*
X020579Y007023D01*
X020579Y006987D01*
X020542Y007060D02*
X020579Y007097D01*
X020579Y007133D01*
X020542Y007170D01*
X020469Y007170D01*
X020432Y007133D01*
X020432Y007097D01*
X020469Y007060D01*
X020358Y006950D02*
X020211Y006950D01*
X020284Y006950D02*
X020284Y007170D01*
X020211Y007097D01*
X020137Y007097D02*
X020137Y006950D01*
X020137Y007060D02*
X019990Y007060D01*
X019990Y007097D02*
X020063Y007170D01*
X020137Y007097D01*
X019990Y007097D02*
X019990Y006950D01*
X019579Y007133D02*
X019432Y006987D01*
X019432Y006950D01*
X019358Y006950D02*
X019211Y006950D01*
X019284Y006950D02*
X019284Y007170D01*
X019211Y007097D01*
X019137Y007097D02*
X019137Y006950D01*
X019137Y007060D02*
X018990Y007060D01*
X018990Y007097D02*
X019063Y007170D01*
X019137Y007097D01*
X018990Y007097D02*
X018990Y006950D01*
X018579Y006987D02*
X018579Y007023D01*
X018542Y007060D01*
X018432Y007060D01*
X018432Y006987D01*
X018469Y006950D01*
X018542Y006950D01*
X018579Y006987D01*
X018505Y007133D02*
X018432Y007060D01*
X018505Y007133D02*
X018579Y007170D01*
X018284Y007170D02*
X018284Y006950D01*
X018211Y006950D02*
X018358Y006950D01*
X018211Y007097D02*
X018284Y007170D01*
X018137Y007097D02*
X018137Y006950D01*
X018137Y007060D02*
X017990Y007060D01*
X017990Y007097D02*
X018063Y007170D01*
X018137Y007097D01*
X017990Y007097D02*
X017990Y006950D01*
X017579Y006987D02*
X017579Y007060D01*
X017542Y007097D01*
X017505Y007097D01*
X017432Y007060D01*
X017432Y007170D01*
X017579Y007170D01*
X017579Y006987D02*
X017542Y006950D01*
X017469Y006950D01*
X017432Y006987D01*
X017358Y006950D02*
X017211Y006950D01*
X017284Y006950D02*
X017284Y007170D01*
X017211Y007097D01*
X017137Y007097D02*
X017137Y006950D01*
X017137Y007060D02*
X016990Y007060D01*
X016990Y007097D02*
X017063Y007170D01*
X017137Y007097D01*
X016990Y007097D02*
X016990Y006950D01*
X016579Y007060D02*
X016432Y007060D01*
X016542Y007170D01*
X016542Y006950D01*
X016358Y006950D02*
X016211Y006950D01*
X016284Y006950D02*
X016284Y007170D01*
X016211Y007097D01*
X016137Y007097D02*
X016137Y006950D01*
X016137Y007060D02*
X015990Y007060D01*
X015990Y007097D02*
X016063Y007170D01*
X016137Y007097D01*
X015990Y007097D02*
X015990Y006950D01*
X015579Y006987D02*
X015579Y007023D01*
X015542Y007060D01*
X015505Y007060D01*
X015542Y007060D02*
X015579Y007097D01*
X015579Y007133D01*
X015542Y007170D01*
X015469Y007170D01*
X015432Y007133D01*
X015432Y006987D02*
X015469Y006950D01*
X015542Y006950D01*
X015579Y006987D01*
X015358Y006950D02*
X015211Y006950D01*
X015284Y006950D02*
X015284Y007170D01*
X015211Y007097D01*
X015137Y007097D02*
X015137Y006950D01*
X015137Y007060D02*
X014990Y007060D01*
X014990Y007097D02*
X015063Y007170D01*
X015137Y007097D01*
X014990Y007097D02*
X014990Y006950D01*
X014579Y006950D02*
X014432Y006950D01*
X014579Y007097D01*
X014579Y007133D01*
X014542Y007170D01*
X014469Y007170D01*
X014432Y007133D01*
X014284Y007170D02*
X014284Y006950D01*
X014211Y006950D02*
X014358Y006950D01*
X014211Y007097D02*
X014284Y007170D01*
X014137Y007097D02*
X014137Y006950D01*
X014137Y007060D02*
X013990Y007060D01*
X013990Y007097D02*
X014063Y007170D01*
X014137Y007097D01*
X013990Y007097D02*
X013990Y006950D01*
X013579Y006950D02*
X013432Y006950D01*
X013505Y006950D02*
X013505Y007170D01*
X013432Y007097D01*
X013358Y006950D02*
X013211Y006950D01*
X013284Y006950D02*
X013284Y007170D01*
X013211Y007097D01*
X013137Y007097D02*
X013137Y006950D01*
X013137Y007060D02*
X012990Y007060D01*
X012990Y007097D02*
X013063Y007170D01*
X013137Y007097D01*
X012990Y007097D02*
X012990Y006950D01*
X012579Y006987D02*
X012579Y007133D01*
X012432Y006987D01*
X012469Y006950D01*
X012542Y006950D01*
X012579Y006987D01*
X012579Y007133D02*
X012542Y007170D01*
X012469Y007170D01*
X012432Y007133D01*
X012432Y006987D01*
X012358Y006950D02*
X012211Y006950D01*
X012284Y006950D02*
X012284Y007170D01*
X012211Y007097D01*
X012137Y007097D02*
X012137Y006950D01*
X012137Y007060D02*
X011990Y007060D01*
X011990Y007097D02*
X012063Y007170D01*
X012137Y007097D01*
X011990Y007097D02*
X011990Y006950D01*
X011358Y006987D02*
X011358Y007133D01*
X011321Y007170D01*
X011248Y007170D01*
X011211Y007133D01*
X011211Y007097D01*
X011248Y007060D01*
X011358Y007060D01*
X011358Y006987D02*
X011321Y006950D01*
X011248Y006950D01*
X011211Y006987D01*
X011137Y006950D02*
X011137Y007097D01*
X011063Y007170D01*
X010990Y007097D01*
X010990Y006950D01*
X010990Y007060D02*
X011137Y007060D01*
X010358Y007023D02*
X010358Y006987D01*
X010321Y006950D01*
X010248Y006950D01*
X010211Y006987D01*
X010211Y007023D01*
X010248Y007060D01*
X010321Y007060D01*
X010358Y007023D01*
X010321Y007060D02*
X010358Y007097D01*
X010358Y007133D01*
X010321Y007170D01*
X010248Y007170D01*
X010211Y007133D01*
X010211Y007097D01*
X010248Y007060D01*
X010137Y007060D02*
X009990Y007060D01*
X009990Y007097D02*
X010063Y007170D01*
X010137Y007097D01*
X010137Y006950D01*
X009990Y006950D02*
X009990Y007097D01*
X009358Y007133D02*
X009211Y006987D01*
X009211Y006950D01*
X009137Y006950D02*
X009137Y007097D01*
X009063Y007170D01*
X008990Y007097D01*
X008990Y006950D01*
X008990Y007060D02*
X009137Y007060D01*
X009211Y007170D02*
X009358Y007170D01*
X009358Y007133D01*
X008358Y007170D02*
X008284Y007133D01*
X008211Y007060D01*
X008321Y007060D01*
X008358Y007023D01*
X008358Y006987D01*
X008321Y006950D01*
X008248Y006950D01*
X008211Y006987D01*
X008211Y007060D01*
X008137Y007060D02*
X007990Y007060D01*
X007990Y007097D02*
X008063Y007170D01*
X008137Y007097D01*
X008137Y006950D01*
X007990Y006950D02*
X007990Y007097D01*
X007358Y007060D02*
X007358Y006987D01*
X007321Y006950D01*
X007248Y006950D01*
X007211Y006987D01*
X007211Y007060D02*
X007284Y007097D01*
X007321Y007097D01*
X007358Y007060D01*
X007358Y007170D02*
X007211Y007170D01*
X007211Y007060D01*
X007137Y007060D02*
X006990Y007060D01*
X006990Y007097D02*
X007063Y007170D01*
X007137Y007097D01*
X007137Y006950D01*
X006990Y006950D02*
X006990Y007097D01*
X006358Y007060D02*
X006211Y007060D01*
X006321Y007170D01*
X006321Y006950D01*
X006137Y006950D02*
X006137Y007097D01*
X006063Y007170D01*
X005990Y007097D01*
X005990Y006950D01*
X005990Y007060D02*
X006137Y007060D01*
X005358Y007023D02*
X005358Y006987D01*
X005321Y006950D01*
X005248Y006950D01*
X005211Y006987D01*
X005137Y006950D02*
X005137Y007097D01*
X005063Y007170D01*
X004990Y007097D01*
X004990Y006950D01*
X004990Y007060D02*
X005137Y007060D01*
X005211Y007133D02*
X005248Y007170D01*
X005321Y007170D01*
X005358Y007133D01*
X005358Y007097D01*
X005321Y007060D01*
X005358Y007023D01*
X005321Y007060D02*
X005284Y007060D01*
X004358Y007097D02*
X004211Y006950D01*
X004358Y006950D01*
X004358Y007097D02*
X004358Y007133D01*
X004321Y007170D01*
X004248Y007170D01*
X004211Y007133D01*
X004137Y007097D02*
X004137Y006950D01*
X004137Y007060D02*
X003990Y007060D01*
X003990Y007097D02*
X004063Y007170D01*
X004137Y007097D01*
X003990Y007097D02*
X003990Y006950D01*
X003358Y006950D02*
X003211Y006950D01*
X003284Y006950D02*
X003284Y007170D01*
X003211Y007097D01*
X003137Y007097D02*
X003137Y006950D01*
X003137Y007060D02*
X002990Y007060D01*
X002990Y007097D02*
X003063Y007170D01*
X003137Y007097D01*
X002990Y007097D02*
X002990Y006950D01*
X002358Y006987D02*
X002321Y006950D01*
X002248Y006950D01*
X002211Y006987D01*
X002358Y007133D01*
X002358Y006987D01*
X002358Y007133D02*
X002321Y007170D01*
X002248Y007170D01*
X002211Y007133D01*
X002211Y006987D01*
X002137Y006950D02*
X002137Y007097D01*
X002063Y007170D01*
X001990Y007097D01*
X001990Y006950D01*
X001990Y007060D02*
X002137Y007060D01*
X004063Y004133D02*
X004063Y003987D01*
X019432Y007170D02*
X019579Y007170D01*
X019579Y007133D01*
X024063Y004133D02*
X024063Y003987D01*
X032479Y007060D02*
X032626Y007060D01*
X032626Y007170D02*
X032626Y006950D01*
X006930Y016140D02*
X003680Y016140D01*
X003680Y019740D01*
X006930Y019740D01*
X006930Y016140D01*
D11*
X001388Y013697D02*
X001340Y013745D01*
X001243Y013745D01*
X001195Y013697D01*
X001195Y013503D01*
X001243Y013455D01*
X001340Y013455D01*
X001388Y013503D01*
X001388Y013600D01*
X001292Y013600D01*
X001284Y010745D02*
X001284Y010455D01*
X001478Y010455D01*
X001579Y010455D02*
X001579Y010745D01*
X001724Y010745D01*
X001772Y010697D01*
X001772Y010600D01*
X001724Y010552D01*
X001579Y010552D01*
X001676Y010552D02*
X001772Y010455D01*
X001874Y010455D02*
X001874Y010745D01*
X001970Y010648D01*
X002067Y010745D01*
X002067Y010455D01*
X001478Y010745D02*
X001284Y010745D01*
X001183Y010745D02*
X000990Y010745D01*
X001086Y010745D02*
X001086Y010455D01*
X000888Y010552D02*
X000888Y010745D01*
X000695Y010745D02*
X000695Y010552D01*
X000792Y010455D01*
X000888Y010552D01*
X001284Y010600D02*
X001381Y010600D01*
X019195Y019503D02*
X019243Y019455D01*
X019340Y019455D01*
X019388Y019503D01*
X019388Y019600D01*
X019340Y019648D01*
X019292Y019648D01*
X019195Y019600D01*
X019195Y019745D01*
X019388Y019745D01*
X019490Y019745D02*
X019490Y019552D01*
X019586Y019455D01*
X019683Y019552D01*
X019683Y019745D01*
X020695Y019697D02*
X020695Y019503D01*
X020743Y019455D01*
X020840Y019455D01*
X020888Y019503D01*
X020888Y019600D01*
X020792Y019600D01*
X020888Y019697D02*
X020840Y019745D01*
X020743Y019745D01*
X020695Y019697D01*
D12*
X024700Y019267D02*
X024700Y018960D01*
X025007Y018960D02*
X025007Y019267D01*
X024853Y019420D01*
X024700Y019267D01*
X024700Y019190D02*
X025007Y019190D01*
X025160Y019190D02*
X025160Y019037D01*
X025237Y018960D01*
X025467Y018960D01*
X025698Y019037D02*
X025774Y018960D01*
X025698Y019037D02*
X025698Y019344D01*
X025621Y019267D02*
X025774Y019267D01*
X025928Y019267D02*
X026004Y019267D01*
X026004Y018960D01*
X025928Y018960D02*
X026081Y018960D01*
X026388Y018960D02*
X026542Y019267D01*
X026695Y019190D02*
X026772Y019267D01*
X026925Y019267D01*
X027002Y019190D01*
X027002Y019113D01*
X026695Y019113D01*
X026695Y019037D02*
X026695Y019190D01*
X026695Y019037D02*
X026772Y018960D01*
X026925Y018960D01*
X026388Y018960D02*
X026235Y019267D01*
X026004Y019420D02*
X026004Y019497D01*
X025467Y019267D02*
X025237Y019267D01*
X025160Y019190D01*
X025700Y018267D02*
X025700Y018037D01*
X025777Y017960D01*
X025853Y018037D01*
X025930Y017960D01*
X026007Y018037D01*
X026007Y018267D01*
X026160Y018267D02*
X026160Y018037D01*
X026237Y017960D01*
X026314Y018037D01*
X026391Y017960D01*
X026467Y018037D01*
X026467Y018267D01*
X026621Y018267D02*
X026621Y018037D01*
X026698Y017960D01*
X026774Y018037D01*
X026851Y017960D01*
X026928Y018037D01*
X026928Y018267D01*
X027081Y018037D02*
X027158Y018037D01*
X027158Y017960D01*
X027081Y017960D01*
X027081Y018037D01*
X027311Y017960D02*
X027542Y017960D01*
X027618Y018037D01*
X027542Y018113D01*
X027388Y018113D01*
X027311Y018190D01*
X027388Y018267D01*
X027618Y018267D01*
X027772Y018267D02*
X027848Y018267D01*
X027925Y018190D01*
X028002Y018267D01*
X028079Y018190D01*
X028079Y017960D01*
X028232Y017960D02*
X028462Y017960D01*
X028539Y018037D01*
X028539Y018190D01*
X028462Y018267D01*
X028232Y018267D01*
X028232Y018420D02*
X028232Y017960D01*
X027925Y017960D02*
X027925Y018190D01*
X027772Y018267D02*
X027772Y017960D01*
X028693Y018037D02*
X028769Y018113D01*
X028999Y018113D01*
X028999Y018190D02*
X028999Y017960D01*
X028769Y017960D01*
X028693Y018037D01*
X028769Y018267D02*
X028923Y018267D01*
X028999Y018190D01*
X029153Y018113D02*
X029383Y018267D01*
X029537Y018190D02*
X029613Y018267D01*
X029767Y018267D01*
X029844Y018190D01*
X029844Y018113D01*
X029537Y018113D01*
X029537Y018037D02*
X029537Y018190D01*
X029537Y018037D02*
X029613Y017960D01*
X029767Y017960D01*
X029997Y017960D02*
X029997Y018267D01*
X030150Y018267D02*
X030227Y018267D01*
X030150Y018267D02*
X029997Y018113D01*
X030381Y018037D02*
X030457Y018037D01*
X030457Y017960D01*
X030381Y017960D01*
X030381Y018037D01*
X030611Y018037D02*
X030611Y018190D01*
X030688Y018267D01*
X030918Y018267D01*
X031071Y018190D02*
X031071Y018037D01*
X031148Y017960D01*
X031301Y017960D01*
X031378Y018037D01*
X031378Y018190D01*
X031301Y018267D01*
X031148Y018267D01*
X031071Y018190D01*
X030918Y017960D02*
X030688Y017960D01*
X030611Y018037D01*
X031532Y017960D02*
X031532Y018267D01*
X031608Y018267D01*
X031685Y018190D01*
X031762Y018267D01*
X031839Y018190D01*
X031839Y017960D01*
X031685Y017960D02*
X031685Y018190D01*
X031683Y018960D02*
X031606Y019037D01*
X031606Y019190D01*
X031683Y019267D01*
X031836Y019267D01*
X031913Y019190D01*
X031913Y019113D01*
X031606Y019113D01*
X031683Y018960D02*
X031836Y018960D01*
X032066Y018960D02*
X032066Y019267D01*
X032066Y019113D02*
X032220Y019267D01*
X032296Y019267D01*
X032450Y019267D02*
X032527Y019267D01*
X032603Y019190D01*
X032680Y019267D01*
X032757Y019190D01*
X032757Y018960D01*
X032910Y018960D02*
X033064Y018960D01*
X032987Y018960D02*
X032987Y019267D01*
X032910Y019267D01*
X032987Y019420D02*
X032987Y019497D01*
X033217Y019267D02*
X033447Y019267D01*
X033524Y019190D01*
X033524Y018960D01*
X033678Y019037D02*
X033754Y019113D01*
X033985Y019113D01*
X033985Y019190D02*
X033985Y018960D01*
X033754Y018960D01*
X033678Y019037D01*
X033754Y019267D02*
X033908Y019267D01*
X033985Y019190D01*
X034138Y019267D02*
X034292Y019267D01*
X034215Y019344D02*
X034215Y019037D01*
X034292Y018960D01*
X034445Y019037D02*
X034522Y018960D01*
X034675Y018960D01*
X034752Y019037D01*
X034752Y019190D01*
X034675Y019267D01*
X034522Y019267D01*
X034445Y019190D01*
X034445Y019037D01*
X034905Y019113D02*
X035059Y019267D01*
X035136Y019267D01*
X034905Y019267D02*
X034905Y018960D01*
X033217Y018960D02*
X033217Y019267D01*
X032603Y019190D02*
X032603Y018960D01*
X032450Y018960D02*
X032450Y019267D01*
X031452Y019420D02*
X031145Y019420D01*
X031299Y019420D02*
X031299Y018960D01*
X030532Y019037D02*
X030455Y018960D01*
X030225Y018960D01*
X030071Y018960D02*
X030071Y019267D01*
X030225Y019190D02*
X030301Y019267D01*
X030532Y019267D01*
X030455Y019113D02*
X030301Y019113D01*
X030225Y019190D01*
X030455Y019113D02*
X030532Y019037D01*
X030071Y018960D02*
X029841Y018960D01*
X029764Y019037D01*
X029764Y019267D01*
X029611Y019267D02*
X029534Y019190D01*
X029304Y019190D01*
X029304Y018960D02*
X029304Y019420D01*
X029534Y019420D01*
X029611Y019344D01*
X029611Y019267D01*
X029534Y019190D02*
X029611Y019113D01*
X029611Y019037D01*
X029534Y018960D01*
X029304Y018960D01*
X029153Y018420D02*
X029153Y017960D01*
X029153Y018113D02*
X029383Y017960D01*
X028690Y018960D02*
X028690Y019267D01*
X028537Y019420D01*
X028383Y019267D01*
X028383Y018960D01*
X028230Y019037D02*
X028153Y018960D01*
X027999Y018960D01*
X027923Y019037D01*
X027999Y019190D02*
X028153Y019190D01*
X028230Y019113D01*
X028230Y019037D01*
X028383Y019190D02*
X028690Y019190D01*
X028230Y019344D02*
X028153Y019420D01*
X027999Y019420D01*
X027923Y019344D01*
X027923Y019267D01*
X027999Y019190D01*
X027769Y019420D02*
X027616Y019420D01*
X027693Y019420D02*
X027693Y018960D01*
X027769Y018960D02*
X027616Y018960D01*
X016797Y015794D02*
X016720Y015870D01*
X016566Y015870D01*
X016490Y015794D01*
X016336Y015794D02*
X016259Y015870D01*
X016106Y015870D01*
X016029Y015794D01*
X016029Y015717D01*
X016106Y015640D01*
X016259Y015640D01*
X016336Y015563D01*
X016336Y015487D01*
X016259Y015410D01*
X016106Y015410D01*
X016029Y015487D01*
X015876Y015487D02*
X015876Y015870D01*
X015569Y015870D02*
X015569Y015487D01*
X015646Y015410D01*
X015799Y015410D01*
X015876Y015487D01*
X016183Y015333D02*
X016183Y015947D01*
X016490Y015410D02*
X016797Y015717D01*
X016797Y015794D01*
X016797Y015410D02*
X016490Y015410D01*
X015793Y019470D02*
X015559Y019470D01*
X015676Y019470D02*
X015676Y019820D01*
X015559Y019704D01*
X015434Y019762D02*
X015375Y019820D01*
X015200Y019820D01*
X015200Y019470D01*
X015200Y019587D02*
X015375Y019587D01*
X015434Y019645D01*
X015434Y019762D01*
X015317Y019587D02*
X015434Y019470D01*
D13*
X001230Y003240D02*
X001230Y000390D01*
X001480Y000140D01*
X032880Y000140D01*
X033130Y000390D01*
X033130Y003240D01*
D14*
X032430Y004440D02*
X031930Y004440D01*
X031680Y004690D01*
X031430Y004440D01*
X030930Y004440D01*
X030680Y004690D01*
X030430Y004440D01*
X029930Y004440D01*
X029680Y004690D01*
X029430Y004440D01*
X028930Y004440D01*
X028680Y004690D01*
X028430Y004440D01*
X027930Y004440D01*
X027680Y004690D01*
X027430Y004440D01*
X026930Y004440D01*
X026680Y004690D01*
X026430Y004440D01*
X025930Y004440D01*
X025680Y004690D01*
X025430Y004440D01*
X024930Y004440D01*
X024680Y004690D01*
X024430Y004440D01*
X023930Y004440D01*
X023680Y004690D01*
X023430Y004440D01*
X022930Y004440D01*
X022680Y004690D01*
X022430Y004440D01*
X021930Y004440D01*
X021680Y004690D01*
X021430Y004440D01*
X020930Y004440D01*
X020680Y004690D01*
X020430Y004440D01*
X019930Y004440D01*
X019680Y004690D01*
X019430Y004440D01*
X018930Y004440D01*
X018680Y004690D01*
X018430Y004440D01*
X017930Y004440D01*
X017680Y004690D01*
X017430Y004440D01*
X016930Y004440D01*
X016680Y004690D01*
X016430Y004440D01*
X015930Y004440D01*
X015680Y004690D01*
X015430Y004440D01*
X014930Y004440D01*
X014680Y004690D01*
X014430Y004440D01*
X013930Y004440D01*
X013680Y004690D01*
X013430Y004440D01*
X012930Y004440D01*
X012680Y004690D01*
X012430Y004440D01*
X011930Y004440D01*
X011680Y004690D01*
X011430Y004440D01*
X010930Y004440D01*
X010680Y004690D01*
X010430Y004440D01*
X009930Y004440D01*
X009680Y004690D01*
X009430Y004440D01*
X008930Y004440D01*
X008680Y004690D01*
X008430Y004440D01*
X007930Y004440D01*
X007680Y004690D01*
X007430Y004440D01*
X006930Y004440D01*
X006680Y004690D01*
X006430Y004440D01*
X005930Y004440D01*
X005680Y004690D01*
X005430Y004440D01*
X004930Y004440D01*
X004680Y004690D01*
X004430Y004440D01*
X003930Y004440D01*
X003680Y004690D01*
X003430Y004440D01*
X002930Y004440D01*
X002680Y004690D01*
X002430Y004440D01*
X001930Y004440D01*
X001680Y004690D01*
X001680Y006190D01*
X001930Y006440D01*
X002430Y006440D01*
X002680Y006190D01*
X002930Y006440D01*
X003430Y006440D01*
X003680Y006190D01*
X003930Y006440D01*
X004430Y006440D01*
X004680Y006190D01*
X004930Y006440D01*
X005430Y006440D01*
X005680Y006190D01*
X005930Y006440D01*
X006430Y006440D01*
X006680Y006190D01*
X006930Y006440D01*
X007430Y006440D01*
X007680Y006190D01*
X007930Y006440D01*
X008430Y006440D01*
X008680Y006190D01*
X008930Y006440D01*
X009430Y006440D01*
X009680Y006190D01*
X009930Y006440D01*
X010430Y006440D01*
X010680Y006190D01*
X010930Y006440D01*
X011430Y006440D01*
X011680Y006190D01*
X011930Y006440D01*
X012430Y006440D01*
X012680Y006190D01*
X012930Y006440D01*
X013430Y006440D01*
X013680Y006190D01*
X013930Y006440D01*
X014430Y006440D01*
X014680Y006190D01*
X014930Y006440D01*
X015430Y006440D01*
X015680Y006190D01*
X015930Y006440D01*
X016430Y006440D01*
X016680Y006190D01*
X016930Y006440D01*
X017430Y006440D01*
X017680Y006190D01*
X017930Y006440D01*
X018430Y006440D01*
X018680Y006190D01*
X018930Y006440D01*
X019430Y006440D01*
X019680Y006190D01*
X019930Y006440D01*
X020430Y006440D01*
X020680Y006190D01*
X020930Y006440D01*
X021430Y006440D01*
X021680Y006190D01*
X021930Y006440D01*
X022430Y006440D01*
X022680Y006190D01*
X022930Y006440D01*
X023430Y006440D01*
X023680Y006190D01*
X023930Y006440D01*
X024430Y006440D01*
X024680Y006190D01*
X024930Y006440D01*
X025430Y006440D01*
X025680Y006190D01*
X025930Y006440D01*
X026430Y006440D01*
X026680Y006190D01*
X026930Y006440D01*
X027430Y006440D01*
X027680Y006190D01*
X027930Y006440D01*
X028430Y006440D01*
X028680Y006190D01*
X028930Y006440D01*
X029430Y006440D01*
X029680Y006190D01*
X029930Y006440D01*
X030430Y006440D01*
X030680Y006190D01*
X030930Y006440D01*
X031430Y006440D01*
X031680Y006190D01*
X031930Y006440D01*
X032430Y006440D01*
X032680Y006190D01*
X032680Y004690D01*
X032430Y004440D01*
X032780Y007490D02*
X033580Y007490D01*
X033597Y007492D01*
X033614Y007496D01*
X033630Y007503D01*
X033644Y007513D01*
X033657Y007526D01*
X033667Y007540D01*
X033674Y007556D01*
X033678Y007573D01*
X033680Y007590D01*
X033680Y009290D01*
X033678Y009307D01*
X033674Y009324D01*
X033667Y009340D01*
X033657Y009354D01*
X033644Y009367D01*
X033630Y009377D01*
X033614Y009384D01*
X033597Y009388D01*
X033580Y009390D01*
X032780Y009390D01*
X032763Y009388D01*
X032746Y009384D01*
X032730Y009377D01*
X032716Y009367D01*
X032703Y009354D01*
X032693Y009340D01*
X032686Y009324D01*
X032682Y009307D01*
X032680Y009290D01*
X032680Y007590D01*
X032682Y007573D01*
X032686Y007556D01*
X032693Y007540D01*
X032703Y007526D01*
X032716Y007513D01*
X032730Y007503D01*
X032746Y007496D01*
X032763Y007492D01*
X032780Y007490D01*
X032680Y007740D02*
X032680Y008140D01*
X032678Y008166D01*
X032673Y008192D01*
X032665Y008217D01*
X032653Y008240D01*
X032639Y008262D01*
X032621Y008281D01*
X032602Y008299D01*
X032580Y008313D01*
X032557Y008325D01*
X032532Y008333D01*
X032506Y008338D01*
X032480Y008340D01*
X023880Y008340D01*
X023854Y008338D01*
X023828Y008333D01*
X023803Y008325D01*
X023780Y008313D01*
X023758Y008299D01*
X023739Y008281D01*
X023721Y008262D01*
X023707Y008240D01*
X023695Y008217D01*
X023687Y008192D01*
X023682Y008166D01*
X023680Y008140D01*
X023680Y007740D01*
X023682Y007714D01*
X023687Y007688D01*
X023695Y007663D01*
X023707Y007640D01*
X023721Y007618D01*
X023739Y007599D01*
X023758Y007581D01*
X023780Y007567D01*
X023803Y007555D01*
X023828Y007547D01*
X023854Y007542D01*
X023880Y007540D01*
X032480Y007540D01*
X032530Y007590D02*
X031830Y007590D01*
X031830Y008290D01*
X032530Y008290D01*
X032530Y007590D01*
X032480Y007540D02*
X032506Y007542D01*
X032532Y007547D01*
X032557Y007555D01*
X032580Y007567D01*
X032602Y007581D01*
X032621Y007599D01*
X032639Y007618D01*
X032653Y007640D01*
X032665Y007663D01*
X032673Y007688D01*
X032678Y007714D01*
X032680Y007740D01*
X033180Y008290D02*
X033180Y008340D01*
X033180Y008540D02*
X033180Y008590D01*
X032980Y011040D02*
X024380Y011040D01*
X024330Y011090D02*
X024330Y011790D01*
X025030Y011790D01*
X025030Y011090D01*
X024330Y011090D01*
X024180Y011090D02*
X024180Y012790D01*
X024178Y012807D01*
X024174Y012824D01*
X024167Y012840D01*
X024157Y012854D01*
X024144Y012867D01*
X024130Y012877D01*
X024114Y012884D01*
X024097Y012888D01*
X024080Y012890D01*
X023280Y012890D01*
X023263Y012888D01*
X023246Y012884D01*
X023230Y012877D01*
X023216Y012867D01*
X023203Y012854D01*
X023193Y012840D01*
X023186Y012824D01*
X023182Y012807D01*
X023180Y012790D01*
X023180Y011090D01*
X023182Y011073D01*
X023186Y011056D01*
X023193Y011040D01*
X023203Y011026D01*
X023216Y011013D01*
X023230Y011003D01*
X023246Y010996D01*
X023263Y010992D01*
X023280Y010990D01*
X024080Y010990D01*
X024097Y010992D01*
X024114Y010996D01*
X024130Y011003D01*
X024144Y011013D01*
X024157Y011026D01*
X024167Y011040D01*
X024174Y011056D01*
X024178Y011073D01*
X024180Y011090D01*
X024180Y011240D02*
X024180Y011640D01*
X024182Y011666D01*
X024187Y011692D01*
X024195Y011717D01*
X024207Y011740D01*
X024221Y011762D01*
X024239Y011781D01*
X024258Y011799D01*
X024280Y011813D01*
X024303Y011825D01*
X024328Y011833D01*
X024354Y011838D01*
X024380Y011840D01*
X032980Y011840D01*
X033006Y011838D01*
X033032Y011833D01*
X033057Y011825D01*
X033080Y011813D01*
X033102Y011799D01*
X033121Y011781D01*
X033139Y011762D01*
X033153Y011740D01*
X033165Y011717D01*
X033173Y011692D01*
X033178Y011666D01*
X033180Y011640D01*
X033180Y011240D01*
X033178Y011214D01*
X033173Y011188D01*
X033165Y011163D01*
X033153Y011140D01*
X033139Y011118D01*
X033121Y011099D01*
X033102Y011081D01*
X033080Y011067D01*
X033057Y011055D01*
X033032Y011047D01*
X033006Y011042D01*
X032980Y011040D01*
X027680Y013590D02*
X027680Y015290D01*
X027678Y015307D01*
X027674Y015324D01*
X027667Y015340D01*
X027657Y015354D01*
X027644Y015367D01*
X027630Y015377D01*
X027614Y015384D01*
X027597Y015388D01*
X027580Y015390D01*
X026780Y015390D01*
X026763Y015388D01*
X026746Y015384D01*
X026730Y015377D01*
X026716Y015367D01*
X026703Y015354D01*
X026693Y015340D01*
X026686Y015324D01*
X026682Y015307D01*
X026680Y015290D01*
X026680Y013590D01*
X026682Y013573D01*
X026686Y013556D01*
X026693Y013540D01*
X026703Y013526D01*
X026716Y013513D01*
X026730Y013503D01*
X026746Y013496D01*
X026763Y013492D01*
X026780Y013490D01*
X027580Y013490D01*
X027597Y013492D01*
X027614Y013496D01*
X027630Y013503D01*
X027644Y013513D01*
X027657Y013526D01*
X027667Y013540D01*
X027674Y013556D01*
X027678Y013573D01*
X027680Y013590D01*
X027180Y014290D02*
X027180Y014340D01*
X027180Y014540D02*
X027180Y014590D01*
X026680Y014740D02*
X026680Y015140D01*
X026678Y015166D01*
X026673Y015192D01*
X026665Y015217D01*
X026653Y015240D01*
X026639Y015262D01*
X026621Y015281D01*
X026602Y015299D01*
X026580Y015313D01*
X026557Y015325D01*
X026532Y015333D01*
X026506Y015338D01*
X026480Y015340D01*
X017880Y015340D01*
X017854Y015338D01*
X017828Y015333D01*
X017803Y015325D01*
X017780Y015313D01*
X017758Y015299D01*
X017739Y015281D01*
X017721Y015262D01*
X017707Y015240D01*
X017695Y015217D01*
X017687Y015192D01*
X017682Y015166D01*
X017680Y015140D01*
X017680Y014740D01*
X017682Y014714D01*
X017687Y014688D01*
X017695Y014663D01*
X017707Y014640D01*
X017721Y014618D01*
X017739Y014599D01*
X017758Y014581D01*
X017780Y014567D01*
X017803Y014555D01*
X017828Y014547D01*
X017854Y014542D01*
X017880Y014540D01*
X026480Y014540D01*
X026530Y014590D02*
X025830Y014590D01*
X025830Y015290D01*
X026530Y015290D01*
X026530Y014590D01*
X026480Y014540D02*
X026506Y014542D01*
X026532Y014547D01*
X026557Y014555D01*
X026580Y014567D01*
X026602Y014581D01*
X026621Y014599D01*
X026639Y014618D01*
X026653Y014640D01*
X026665Y014663D01*
X026673Y014688D01*
X026678Y014714D01*
X026680Y014740D01*
X023680Y012090D02*
X023680Y012040D01*
X023680Y011840D02*
X023680Y011790D01*
X022680Y011640D02*
X022680Y011240D01*
X022678Y011214D01*
X022673Y011188D01*
X022665Y011163D01*
X022653Y011140D01*
X022639Y011118D01*
X022621Y011099D01*
X022602Y011081D01*
X022580Y011067D01*
X022557Y011055D01*
X022532Y011047D01*
X022506Y011042D01*
X022480Y011040D01*
X013880Y011040D01*
X013830Y011090D02*
X013830Y011790D01*
X014530Y011790D01*
X014530Y011090D01*
X013830Y011090D01*
X013680Y011090D02*
X013680Y012790D01*
X013678Y012807D01*
X013674Y012824D01*
X013667Y012840D01*
X013657Y012854D01*
X013644Y012867D01*
X013630Y012877D01*
X013614Y012884D01*
X013597Y012888D01*
X013580Y012890D01*
X012780Y012890D01*
X012763Y012888D01*
X012746Y012884D01*
X012730Y012877D01*
X012716Y012867D01*
X012703Y012854D01*
X012693Y012840D01*
X012686Y012824D01*
X012682Y012807D01*
X012680Y012790D01*
X012680Y011090D01*
X012682Y011073D01*
X012686Y011056D01*
X012693Y011040D01*
X012703Y011026D01*
X012716Y011013D01*
X012730Y011003D01*
X012746Y010996D01*
X012763Y010992D01*
X012780Y010990D01*
X013580Y010990D01*
X013597Y010992D01*
X013614Y010996D01*
X013630Y011003D01*
X013644Y011013D01*
X013657Y011026D01*
X013667Y011040D01*
X013674Y011056D01*
X013678Y011073D01*
X013680Y011090D01*
X013680Y011240D02*
X013680Y011640D01*
X013682Y011666D01*
X013687Y011692D01*
X013695Y011717D01*
X013707Y011740D01*
X013721Y011762D01*
X013739Y011781D01*
X013758Y011799D01*
X013780Y011813D01*
X013803Y011825D01*
X013828Y011833D01*
X013854Y011838D01*
X013880Y011840D01*
X022480Y011840D01*
X022506Y011838D01*
X022532Y011833D01*
X022557Y011825D01*
X022580Y011813D01*
X022602Y011799D01*
X022621Y011781D01*
X022639Y011762D01*
X022653Y011740D01*
X022665Y011717D01*
X022673Y011692D01*
X022678Y011666D01*
X022680Y011640D01*
X024180Y011240D02*
X024182Y011214D01*
X024187Y011188D01*
X024195Y011163D01*
X024207Y011140D01*
X024221Y011118D01*
X024239Y011099D01*
X024258Y011081D01*
X024280Y011067D01*
X024303Y011055D01*
X024328Y011047D01*
X024354Y011042D01*
X024380Y011040D01*
X022680Y009290D02*
X022680Y007590D01*
X022678Y007573D01*
X022674Y007556D01*
X022667Y007540D01*
X022657Y007526D01*
X022644Y007513D01*
X022630Y007503D01*
X022614Y007496D01*
X022597Y007492D01*
X022580Y007490D01*
X021780Y007490D01*
X021763Y007492D01*
X021746Y007496D01*
X021730Y007503D01*
X021716Y007513D01*
X021703Y007526D01*
X021693Y007540D01*
X021686Y007556D01*
X021682Y007573D01*
X021680Y007590D01*
X021680Y009290D01*
X021682Y009307D01*
X021686Y009324D01*
X021693Y009340D01*
X021703Y009354D01*
X021716Y009367D01*
X021730Y009377D01*
X021746Y009384D01*
X021763Y009388D01*
X021780Y009390D01*
X022580Y009390D01*
X022597Y009388D01*
X022614Y009384D01*
X022630Y009377D01*
X022644Y009367D01*
X022657Y009354D01*
X022667Y009340D01*
X022674Y009324D01*
X022678Y009307D01*
X022680Y009290D01*
X022180Y008590D02*
X022180Y008540D01*
X022180Y008340D02*
X022180Y008290D01*
X021680Y008140D02*
X021680Y007740D01*
X021678Y007714D01*
X021673Y007688D01*
X021665Y007663D01*
X021653Y007640D01*
X021639Y007618D01*
X021621Y007599D01*
X021602Y007581D01*
X021580Y007567D01*
X021557Y007555D01*
X021532Y007547D01*
X021506Y007542D01*
X021480Y007540D01*
X012880Y007540D01*
X012854Y007542D01*
X012828Y007547D01*
X012803Y007555D01*
X012780Y007567D01*
X012758Y007581D01*
X012739Y007599D01*
X012721Y007618D01*
X012707Y007640D01*
X012695Y007663D01*
X012687Y007688D01*
X012682Y007714D01*
X012680Y007740D01*
X012680Y008140D01*
X012682Y008166D01*
X012687Y008192D01*
X012695Y008217D01*
X012707Y008240D01*
X012721Y008262D01*
X012739Y008281D01*
X012758Y008299D01*
X012780Y008313D01*
X012803Y008325D01*
X012828Y008333D01*
X012854Y008338D01*
X012880Y008340D01*
X021480Y008340D01*
X021530Y008290D02*
X021530Y007590D01*
X020830Y007590D01*
X020830Y008290D01*
X021530Y008290D01*
X021480Y008340D02*
X021506Y008338D01*
X021532Y008333D01*
X021557Y008325D01*
X021580Y008313D01*
X021602Y008299D01*
X021621Y008281D01*
X021639Y008262D01*
X021653Y008240D01*
X021665Y008217D01*
X021673Y008192D01*
X021678Y008166D01*
X021680Y008140D01*
X013880Y011040D02*
X013854Y011042D01*
X013828Y011047D01*
X013803Y011055D01*
X013780Y011067D01*
X013758Y011081D01*
X013739Y011099D01*
X013721Y011118D01*
X013707Y011140D01*
X013695Y011163D01*
X013687Y011188D01*
X013682Y011214D01*
X013680Y011240D01*
X013180Y011790D02*
X013180Y011840D01*
X013180Y012040D02*
X013180Y012090D01*
X012180Y011640D02*
X012180Y011240D01*
X012178Y011214D01*
X012173Y011188D01*
X012165Y011163D01*
X012153Y011140D01*
X012139Y011118D01*
X012121Y011099D01*
X012102Y011081D01*
X012080Y011067D01*
X012057Y011055D01*
X012032Y011047D01*
X012006Y011042D01*
X011980Y011040D01*
X003380Y011040D01*
X003330Y011090D02*
X003330Y011790D01*
X004030Y011790D01*
X004030Y011090D01*
X003330Y011090D01*
X003180Y011090D02*
X003180Y012790D01*
X003178Y012807D01*
X003174Y012824D01*
X003167Y012840D01*
X003157Y012854D01*
X003144Y012867D01*
X003130Y012877D01*
X003114Y012884D01*
X003097Y012888D01*
X003080Y012890D01*
X002280Y012890D01*
X002263Y012888D01*
X002246Y012884D01*
X002230Y012877D01*
X002216Y012867D01*
X002203Y012854D01*
X002193Y012840D01*
X002186Y012824D01*
X002182Y012807D01*
X002180Y012790D01*
X002180Y011090D01*
X002182Y011073D01*
X002186Y011056D01*
X002193Y011040D01*
X002203Y011026D01*
X002216Y011013D01*
X002230Y011003D01*
X002246Y010996D01*
X002263Y010992D01*
X002280Y010990D01*
X003080Y010990D01*
X003097Y010992D01*
X003114Y010996D01*
X003130Y011003D01*
X003144Y011013D01*
X003157Y011026D01*
X003167Y011040D01*
X003174Y011056D01*
X003178Y011073D01*
X003180Y011090D01*
X003180Y011240D02*
X003180Y011640D01*
X003182Y011666D01*
X003187Y011692D01*
X003195Y011717D01*
X003207Y011740D01*
X003221Y011762D01*
X003239Y011781D01*
X003258Y011799D01*
X003280Y011813D01*
X003303Y011825D01*
X003328Y011833D01*
X003354Y011838D01*
X003380Y011840D01*
X011980Y011840D01*
X012006Y011838D01*
X012032Y011833D01*
X012057Y011825D01*
X012080Y011813D01*
X012102Y011799D01*
X012121Y011781D01*
X012139Y011762D01*
X012153Y011740D01*
X012165Y011717D01*
X012173Y011692D01*
X012178Y011666D01*
X012180Y011640D01*
X011580Y009390D02*
X010780Y009390D01*
X010763Y009388D01*
X010746Y009384D01*
X010730Y009377D01*
X010716Y009367D01*
X010703Y009354D01*
X010693Y009340D01*
X010686Y009324D01*
X010682Y009307D01*
X010680Y009290D01*
X010680Y007590D01*
X010682Y007573D01*
X010686Y007556D01*
X010693Y007540D01*
X010703Y007526D01*
X010716Y007513D01*
X010730Y007503D01*
X010746Y007496D01*
X010763Y007492D01*
X010780Y007490D01*
X011580Y007490D01*
X011597Y007492D01*
X011614Y007496D01*
X011630Y007503D01*
X011644Y007513D01*
X011657Y007526D01*
X011667Y007540D01*
X011674Y007556D01*
X011678Y007573D01*
X011680Y007590D01*
X011680Y009290D01*
X011678Y009307D01*
X011674Y009324D01*
X011667Y009340D01*
X011657Y009354D01*
X011644Y009367D01*
X011630Y009377D01*
X011614Y009384D01*
X011597Y009388D01*
X011580Y009390D01*
X011180Y008590D02*
X011180Y008540D01*
X011180Y008340D02*
X011180Y008290D01*
X010680Y008140D02*
X010680Y007740D01*
X010678Y007714D01*
X010673Y007688D01*
X010665Y007663D01*
X010653Y007640D01*
X010639Y007618D01*
X010621Y007599D01*
X010602Y007581D01*
X010580Y007567D01*
X010557Y007555D01*
X010532Y007547D01*
X010506Y007542D01*
X010480Y007540D01*
X001880Y007540D01*
X001854Y007542D01*
X001828Y007547D01*
X001803Y007555D01*
X001780Y007567D01*
X001758Y007581D01*
X001739Y007599D01*
X001721Y007618D01*
X001707Y007640D01*
X001695Y007663D01*
X001687Y007688D01*
X001682Y007714D01*
X001680Y007740D01*
X001680Y008140D01*
X001682Y008166D01*
X001687Y008192D01*
X001695Y008217D01*
X001707Y008240D01*
X001721Y008262D01*
X001739Y008281D01*
X001758Y008299D01*
X001780Y008313D01*
X001803Y008325D01*
X001828Y008333D01*
X001854Y008338D01*
X001880Y008340D01*
X010480Y008340D01*
X010530Y008290D02*
X010530Y007590D01*
X009830Y007590D01*
X009830Y008290D01*
X010530Y008290D01*
X010480Y008340D02*
X010506Y008338D01*
X010532Y008333D01*
X010557Y008325D01*
X010580Y008313D01*
X010602Y008299D01*
X010621Y008281D01*
X010639Y008262D01*
X010653Y008240D01*
X010665Y008217D01*
X010673Y008192D01*
X010678Y008166D01*
X010680Y008140D01*
X003380Y011040D02*
X003354Y011042D01*
X003328Y011047D01*
X003303Y011055D01*
X003280Y011067D01*
X003258Y011081D01*
X003239Y011099D01*
X003221Y011118D01*
X003207Y011140D01*
X003195Y011163D01*
X003187Y011188D01*
X003182Y011214D01*
X003180Y011240D01*
X002680Y011790D02*
X002680Y011840D01*
X002680Y012040D02*
X002680Y012090D01*
X001680Y012040D02*
X001580Y011940D01*
X001680Y011840D01*
X001680Y011040D01*
X001580Y010940D01*
X000780Y010940D01*
X000680Y011040D01*
X000680Y011840D01*
X000780Y011940D01*
X000680Y012040D01*
X000680Y012840D01*
X000780Y012940D01*
X001580Y012940D01*
X001680Y012840D01*
X001680Y012040D01*
X008580Y014890D02*
X008680Y014890D01*
X008680Y014990D01*
X008680Y014890D02*
X008780Y014890D01*
X008680Y014890D02*
X008680Y014790D01*
X008180Y015440D02*
X008182Y015503D01*
X008188Y015565D01*
X008198Y015627D01*
X008211Y015689D01*
X008229Y015749D01*
X008250Y015808D01*
X008275Y015866D01*
X008304Y015922D01*
X008336Y015976D01*
X008371Y016028D01*
X008409Y016077D01*
X008451Y016125D01*
X008495Y016169D01*
X008543Y016211D01*
X008592Y016249D01*
X008644Y016284D01*
X008698Y016316D01*
X008754Y016345D01*
X008812Y016370D01*
X008871Y016391D01*
X008931Y016409D01*
X008993Y016422D01*
X009055Y016432D01*
X009117Y016438D01*
X009180Y016440D01*
X009243Y016438D01*
X009305Y016432D01*
X009367Y016422D01*
X009429Y016409D01*
X009489Y016391D01*
X009548Y016370D01*
X009606Y016345D01*
X009662Y016316D01*
X009716Y016284D01*
X009768Y016249D01*
X009817Y016211D01*
X009865Y016169D01*
X009909Y016125D01*
X009951Y016077D01*
X009989Y016028D01*
X010024Y015976D01*
X010056Y015922D01*
X010085Y015866D01*
X010110Y015808D01*
X010131Y015749D01*
X010149Y015689D01*
X010162Y015627D01*
X010172Y015565D01*
X010178Y015503D01*
X010180Y015440D01*
X010178Y015377D01*
X010172Y015315D01*
X010162Y015253D01*
X010149Y015191D01*
X010131Y015131D01*
X010110Y015072D01*
X010085Y015014D01*
X010056Y014958D01*
X010024Y014904D01*
X009989Y014852D01*
X009951Y014803D01*
X009909Y014755D01*
X009865Y014711D01*
X009817Y014669D01*
X009768Y014631D01*
X009716Y014596D01*
X009662Y014564D01*
X009606Y014535D01*
X009548Y014510D01*
X009489Y014489D01*
X009429Y014471D01*
X009367Y014458D01*
X009305Y014448D01*
X009243Y014442D01*
X009180Y014440D01*
X009117Y014442D01*
X009055Y014448D01*
X008993Y014458D01*
X008931Y014471D01*
X008871Y014489D01*
X008812Y014510D01*
X008754Y014535D01*
X008698Y014564D01*
X008644Y014596D01*
X008592Y014631D01*
X008543Y014669D01*
X008495Y014711D01*
X008451Y014755D01*
X008409Y014803D01*
X008371Y014852D01*
X008336Y014904D01*
X008304Y014958D01*
X008275Y015014D01*
X008250Y015072D01*
X008229Y015131D01*
X008211Y015191D01*
X008198Y015253D01*
X008188Y015315D01*
X008182Y015377D01*
X008180Y015440D01*
X010180Y016590D02*
X010180Y018290D01*
X010182Y018307D01*
X010186Y018324D01*
X010193Y018340D01*
X010203Y018354D01*
X010216Y018367D01*
X010230Y018377D01*
X010246Y018384D01*
X010263Y018388D01*
X010280Y018390D01*
X011080Y018390D01*
X011097Y018388D01*
X011114Y018384D01*
X011130Y018377D01*
X011144Y018367D01*
X011157Y018354D01*
X011167Y018340D01*
X011174Y018324D01*
X011178Y018307D01*
X011180Y018290D01*
X011180Y016590D01*
X011178Y016573D01*
X011174Y016556D01*
X011167Y016540D01*
X011157Y016526D01*
X011144Y016513D01*
X011130Y016503D01*
X011114Y016496D01*
X011097Y016492D01*
X011080Y016490D01*
X010280Y016490D01*
X010263Y016492D01*
X010246Y016496D01*
X010230Y016503D01*
X010216Y016513D01*
X010203Y016526D01*
X010193Y016540D01*
X010186Y016556D01*
X010182Y016573D01*
X010180Y016590D01*
X010680Y017290D02*
X010680Y017340D01*
X010680Y017540D02*
X010680Y017590D01*
X011880Y017140D02*
X011980Y017240D01*
X012530Y017340D02*
X012530Y017640D01*
X012380Y017790D01*
X012080Y017790D01*
X012080Y018090D01*
X012380Y018090D01*
X012530Y018240D01*
X012530Y018540D01*
X012830Y018540D01*
X012830Y018240D01*
X012980Y018090D01*
X013080Y018090D01*
X013080Y018190D01*
X013330Y017940D01*
X013080Y017690D01*
X013080Y017790D01*
X012980Y017790D01*
X012830Y017640D01*
X012830Y017340D01*
X012530Y017340D01*
X013330Y017240D02*
X013430Y017140D01*
X013980Y016540D02*
X011380Y016540D01*
X011280Y016640D01*
X011280Y019240D01*
X011380Y019340D01*
X013980Y019340D01*
X014080Y019240D01*
X014080Y016640D01*
X013980Y016540D01*
X013130Y016340D02*
X013130Y015540D01*
X013128Y015523D01*
X013124Y015506D01*
X013117Y015490D01*
X013107Y015476D01*
X013094Y015463D01*
X013080Y015453D01*
X013064Y015446D01*
X013047Y015442D01*
X013030Y015440D01*
X011330Y015440D01*
X011313Y015442D01*
X011296Y015446D01*
X011280Y015453D01*
X011266Y015463D01*
X011253Y015476D01*
X011243Y015490D01*
X011236Y015506D01*
X011232Y015523D01*
X011230Y015540D01*
X011230Y016340D01*
X011232Y016357D01*
X011236Y016374D01*
X011243Y016390D01*
X011253Y016404D01*
X011266Y016417D01*
X011280Y016427D01*
X011296Y016434D01*
X011313Y016438D01*
X011330Y016440D01*
X013030Y016440D01*
X013047Y016438D01*
X013064Y016434D01*
X013080Y016427D01*
X013094Y016417D01*
X013107Y016404D01*
X013117Y016390D01*
X013124Y016374D01*
X013128Y016357D01*
X013130Y016340D01*
X012330Y015940D02*
X012280Y015940D01*
X012080Y015940D02*
X012030Y015940D01*
X013730Y015340D02*
X013730Y014540D01*
X013732Y014523D01*
X013736Y014506D01*
X013743Y014490D01*
X013753Y014476D01*
X013766Y014463D01*
X013780Y014453D01*
X013796Y014446D01*
X013813Y014442D01*
X013830Y014440D01*
X015530Y014440D01*
X015547Y014442D01*
X015564Y014446D01*
X015580Y014453D01*
X015594Y014463D01*
X015607Y014476D01*
X015617Y014490D01*
X015624Y014506D01*
X015628Y014523D01*
X015630Y014540D01*
X015630Y015340D01*
X015628Y015357D01*
X015624Y015374D01*
X015617Y015390D01*
X015607Y015404D01*
X015594Y015417D01*
X015580Y015427D01*
X015564Y015434D01*
X015547Y015438D01*
X015530Y015440D01*
X013830Y015440D01*
X013813Y015438D01*
X013796Y015434D01*
X013780Y015427D01*
X013766Y015417D01*
X013753Y015404D01*
X013743Y015390D01*
X013736Y015374D01*
X013732Y015357D01*
X013730Y015340D01*
X014530Y014940D02*
X014580Y014940D01*
X014780Y014940D02*
X014830Y014940D01*
X013800Y017940D02*
X013650Y017940D01*
X013330Y018690D02*
X013430Y018790D01*
X011980Y018640D02*
X011880Y018740D01*
X015180Y018640D02*
X015180Y019240D01*
X015182Y019257D01*
X015186Y019274D01*
X015193Y019290D01*
X015203Y019304D01*
X015216Y019317D01*
X015230Y019327D01*
X015246Y019334D01*
X015263Y019338D01*
X015280Y019340D01*
X015430Y019340D01*
X015480Y019290D01*
X016880Y019290D01*
X016930Y019340D01*
X017080Y019340D01*
X017097Y019338D01*
X017114Y019334D01*
X017130Y019327D01*
X017144Y019317D01*
X017157Y019304D01*
X017167Y019290D01*
X017174Y019274D01*
X017178Y019257D01*
X017180Y019240D01*
X017180Y018640D01*
X017178Y018623D01*
X017174Y018606D01*
X017167Y018590D01*
X017157Y018576D01*
X017144Y018563D01*
X017130Y018553D01*
X017114Y018546D01*
X017097Y018542D01*
X017080Y018540D01*
X016930Y018540D01*
X016880Y018590D01*
X015480Y018590D01*
X015430Y018540D01*
X015280Y018540D01*
X015263Y018542D01*
X015246Y018546D01*
X015230Y018553D01*
X015216Y018563D01*
X015203Y018576D01*
X015193Y018590D01*
X015186Y018606D01*
X015182Y018623D01*
X015180Y018640D01*
X019180Y018840D02*
X019180Y018040D01*
X019280Y017940D01*
X020080Y017940D01*
X020180Y018040D01*
X020280Y017940D01*
X021080Y017940D01*
X021180Y018040D01*
X021180Y018840D01*
X021080Y018940D01*
X020280Y018940D01*
X020180Y018840D01*
X020080Y018940D01*
X019280Y018940D01*
X019180Y018840D01*
X001230Y003240D02*
X001230Y002440D01*
D15*
X010746Y007775D02*
X010973Y007775D01*
X010859Y007775D02*
X010859Y008115D01*
X010746Y008002D01*
X010545Y008465D02*
X010245Y008465D01*
X010395Y008465D02*
X010395Y008915D01*
X010245Y008765D01*
X010084Y008915D02*
X010084Y008465D01*
X009784Y008915D01*
X009784Y008465D01*
X009624Y008465D02*
X009474Y008615D01*
X009549Y008615D02*
X009324Y008615D01*
X009324Y008465D02*
X009324Y008915D01*
X009549Y008915D01*
X009624Y008840D01*
X009624Y008690D01*
X009549Y008615D01*
X013305Y011265D02*
X013532Y011265D01*
X013418Y011265D02*
X013418Y011605D01*
X013305Y011492D01*
X013705Y011965D02*
X013705Y012415D01*
X013930Y012415D01*
X014005Y012340D01*
X014005Y012190D01*
X013930Y012115D01*
X013705Y012115D01*
X013855Y012115D02*
X014005Y011965D01*
X014165Y011965D02*
X014165Y012415D01*
X014466Y011965D01*
X014466Y012415D01*
X014626Y012265D02*
X014776Y012415D01*
X014776Y011965D01*
X014626Y011965D02*
X014926Y011965D01*
X015086Y011965D02*
X015386Y011965D01*
X015236Y011965D02*
X015236Y012415D01*
X015086Y012265D01*
X012945Y014865D02*
X012645Y014865D01*
X012795Y014865D02*
X012795Y015315D01*
X012645Y015165D01*
X012484Y015240D02*
X012409Y015315D01*
X012259Y015315D01*
X012184Y015240D01*
X012184Y014940D01*
X012259Y014865D01*
X012409Y014865D01*
X012484Y014940D01*
X013805Y015640D02*
X013880Y015565D01*
X014030Y015565D01*
X014105Y015640D01*
X014265Y015640D02*
X014340Y015565D01*
X014491Y015565D01*
X014566Y015640D01*
X014566Y015940D01*
X014491Y016015D01*
X014340Y016015D01*
X014265Y015940D01*
X014265Y015865D01*
X014340Y015790D01*
X014566Y015790D01*
X014105Y015940D02*
X014030Y016015D01*
X013880Y016015D01*
X013805Y015940D01*
X013805Y015640D01*
X011795Y016756D02*
X011795Y016983D01*
X011755Y017059D02*
X011755Y017209D01*
X011680Y017284D01*
X011755Y017444D02*
X011755Y017744D01*
X011755Y017594D02*
X011305Y017594D01*
X011455Y017444D01*
X011380Y017284D02*
X011305Y017209D01*
X011305Y017059D01*
X011380Y016984D01*
X011680Y016984D01*
X011755Y017059D01*
X011795Y016869D02*
X011455Y016869D01*
X011568Y016756D01*
X011455Y017905D02*
X011305Y018055D01*
X011755Y018055D01*
X011755Y017905D02*
X011755Y018205D01*
X011738Y018806D02*
X011795Y018863D01*
X011795Y018976D01*
X011738Y019033D01*
X011682Y019033D01*
X011625Y018976D01*
X011625Y018919D01*
X011625Y018976D02*
X011568Y019033D01*
X011511Y019033D01*
X011455Y018976D01*
X011455Y018863D01*
X011511Y018806D01*
X014255Y018880D02*
X014330Y018805D01*
X014255Y018880D02*
X014255Y019030D01*
X014330Y019105D01*
X014405Y019105D01*
X014705Y018805D01*
X014705Y019105D01*
X014705Y018644D02*
X014555Y018494D01*
X014555Y018569D02*
X014555Y018344D01*
X014705Y018344D02*
X014255Y018344D01*
X014255Y018569D01*
X014330Y018644D01*
X014480Y018644D01*
X014555Y018569D01*
X008655Y017561D02*
X008655Y017411D01*
X008580Y017336D01*
X008280Y017636D01*
X008580Y017636D01*
X008655Y017561D01*
X008580Y017336D02*
X008280Y017336D01*
X008205Y017411D01*
X008205Y017561D01*
X008280Y017636D01*
X008655Y017176D02*
X008655Y016875D01*
X008655Y017026D02*
X008205Y017026D01*
X008355Y016875D01*
X008280Y016715D02*
X008205Y016640D01*
X008205Y016490D01*
X008280Y016415D01*
X008580Y016415D01*
X008655Y016490D01*
X008655Y016640D01*
X008580Y016715D01*
X007180Y015890D02*
X002280Y015890D01*
X002280Y016240D01*
X001680Y016240D01*
X001680Y015890D01*
X000930Y015890D01*
X000930Y019990D01*
X001680Y019990D01*
X001680Y019640D01*
X002280Y019640D01*
X002280Y019990D01*
X007180Y019990D01*
X007180Y015890D01*
X003555Y016215D02*
X003328Y016215D01*
X003215Y016328D01*
X003328Y016442D01*
X003555Y016442D01*
X003555Y016574D02*
X003555Y016801D01*
X003555Y016688D02*
X003215Y016688D01*
X003328Y016574D01*
X003385Y016442D02*
X003385Y016215D01*
X003498Y016933D02*
X003555Y016933D01*
X003498Y016933D02*
X003271Y017160D01*
X003215Y017160D01*
X003215Y016933D01*
X003668Y017292D02*
X003555Y017406D01*
X003555Y017349D01*
X003498Y017349D01*
X003498Y017406D01*
X003555Y017406D01*
X003498Y017532D02*
X003555Y017588D01*
X003555Y017702D01*
X003498Y017759D01*
X003385Y017759D01*
X003328Y017702D01*
X003328Y017645D01*
X003385Y017532D01*
X003215Y017532D01*
X003215Y017759D01*
X003328Y017891D02*
X003328Y017948D01*
X003385Y018004D01*
X003328Y018061D01*
X003385Y018118D01*
X003555Y018118D01*
X003555Y018004D02*
X003385Y018004D01*
X003328Y017891D02*
X003555Y017891D01*
X003555Y018250D02*
X003328Y018250D01*
X003328Y018307D01*
X003385Y018363D01*
X003328Y018420D01*
X003385Y018477D01*
X003555Y018477D01*
X003555Y018363D02*
X003385Y018363D01*
X001570Y017940D02*
X001572Y017993D01*
X001578Y018046D01*
X001588Y018098D01*
X001602Y018149D01*
X001619Y018199D01*
X001640Y018248D01*
X001665Y018295D01*
X001693Y018340D01*
X001725Y018383D01*
X001760Y018423D01*
X001797Y018460D01*
X001837Y018495D01*
X001880Y018527D01*
X001925Y018555D01*
X001972Y018580D01*
X002021Y018601D01*
X002071Y018618D01*
X002122Y018632D01*
X002174Y018642D01*
X002227Y018648D01*
X002280Y018650D01*
X002333Y018648D01*
X002386Y018642D01*
X002438Y018632D01*
X002489Y018618D01*
X002539Y018601D01*
X002588Y018580D01*
X002635Y018555D01*
X002680Y018527D01*
X002723Y018495D01*
X002763Y018460D01*
X002800Y018423D01*
X002835Y018383D01*
X002867Y018340D01*
X002895Y018295D01*
X002920Y018248D01*
X002941Y018199D01*
X002958Y018149D01*
X002972Y018098D01*
X002982Y018046D01*
X002988Y017993D01*
X002990Y017940D01*
X002988Y017887D01*
X002982Y017834D01*
X002972Y017782D01*
X002958Y017731D01*
X002941Y017681D01*
X002920Y017632D01*
X002895Y017585D01*
X002867Y017540D01*
X002835Y017497D01*
X002800Y017457D01*
X002763Y017420D01*
X002723Y017385D01*
X002680Y017353D01*
X002635Y017325D01*
X002588Y017300D01*
X002539Y017279D01*
X002489Y017262D01*
X002438Y017248D01*
X002386Y017238D01*
X002333Y017232D01*
X002280Y017230D01*
X002227Y017232D01*
X002174Y017238D01*
X002122Y017248D01*
X002071Y017262D01*
X002021Y017279D01*
X001972Y017300D01*
X001925Y017325D01*
X001880Y017353D01*
X001837Y017385D01*
X001797Y017420D01*
X001760Y017457D01*
X001725Y017497D01*
X001693Y017540D01*
X001665Y017585D01*
X001640Y017632D01*
X001619Y017681D01*
X001602Y017731D01*
X001588Y017782D01*
X001578Y017834D01*
X001572Y017887D01*
X001570Y017940D01*
X003205Y012415D02*
X003430Y012415D01*
X003505Y012340D01*
X003505Y012190D01*
X003430Y012115D01*
X003205Y012115D01*
X003205Y011965D02*
X003205Y012415D01*
X003665Y012415D02*
X003966Y011965D01*
X003966Y012415D01*
X004126Y012340D02*
X004126Y012265D01*
X004201Y012190D01*
X004426Y012190D01*
X004426Y012040D02*
X004426Y012340D01*
X004351Y012415D01*
X004201Y012415D01*
X004126Y012340D01*
X004126Y012040D02*
X004201Y011965D01*
X004351Y011965D01*
X004426Y012040D01*
X003665Y011965D02*
X003665Y012415D01*
X003355Y012115D02*
X003505Y011965D01*
X002918Y011605D02*
X002918Y011265D01*
X002805Y011265D02*
X003032Y011265D01*
X002805Y011492D02*
X002918Y011605D01*
X020324Y008915D02*
X020324Y008465D01*
X020324Y008615D02*
X020549Y008615D01*
X020624Y008690D01*
X020624Y008840D01*
X020549Y008915D01*
X020324Y008915D01*
X020784Y008915D02*
X021084Y008465D01*
X021084Y008915D01*
X021245Y008840D02*
X021320Y008915D01*
X021470Y008915D01*
X021545Y008840D01*
X021545Y008765D01*
X021470Y008690D01*
X021545Y008615D01*
X021545Y008540D01*
X021470Y008465D01*
X021320Y008465D01*
X021245Y008540D01*
X021395Y008690D02*
X021470Y008690D01*
X020784Y008465D02*
X020784Y008915D01*
X020474Y008615D02*
X020624Y008465D01*
X021746Y008002D02*
X021859Y008115D01*
X021859Y007775D01*
X021746Y007775D02*
X021973Y007775D01*
X023805Y011265D02*
X024032Y011265D01*
X023918Y011265D02*
X023918Y011605D01*
X023805Y011492D01*
X024205Y011965D02*
X024205Y012415D01*
X024430Y012415D01*
X024505Y012340D01*
X024505Y012190D01*
X024430Y012115D01*
X024205Y012115D01*
X024355Y012115D02*
X024505Y011965D01*
X024665Y011965D02*
X024665Y012415D01*
X024966Y011965D01*
X024966Y012415D01*
X025126Y012265D02*
X025276Y012415D01*
X025276Y011965D01*
X025126Y011965D02*
X025426Y011965D01*
X025586Y012040D02*
X025661Y011965D01*
X025811Y011965D01*
X025886Y012040D01*
X025886Y012115D01*
X025811Y012190D01*
X025736Y012190D01*
X025811Y012190D02*
X025886Y012265D01*
X025886Y012340D01*
X025811Y012415D01*
X025661Y012415D01*
X025586Y012340D01*
X025624Y013965D02*
X025474Y014115D01*
X025549Y014115D02*
X025324Y014115D01*
X025324Y013965D02*
X025324Y014415D01*
X025549Y014415D01*
X025624Y014340D01*
X025624Y014190D01*
X025549Y014115D01*
X025784Y013965D02*
X025784Y014415D01*
X026084Y013965D01*
X026084Y014415D01*
X026245Y014415D02*
X026545Y014415D01*
X026545Y014340D01*
X026245Y014040D01*
X026245Y013965D01*
X026746Y014775D02*
X026973Y014775D01*
X026859Y014775D02*
X026859Y015115D01*
X026746Y015002D01*
X031324Y008915D02*
X031549Y008915D01*
X031624Y008840D01*
X031624Y008690D01*
X031549Y008615D01*
X031324Y008615D01*
X031474Y008615D02*
X031624Y008465D01*
X031784Y008465D02*
X031784Y008915D01*
X032084Y008465D01*
X032084Y008915D01*
X032245Y008915D02*
X032245Y008690D01*
X032395Y008765D01*
X032470Y008765D01*
X032545Y008690D01*
X032545Y008540D01*
X032470Y008465D01*
X032320Y008465D01*
X032245Y008540D01*
X032245Y008915D02*
X032545Y008915D01*
X031324Y008915D02*
X031324Y008465D01*
X032746Y008002D02*
X032859Y008115D01*
X032859Y007775D01*
X032746Y007775D02*
X032973Y007775D01*
D16*
X032880Y008340D02*
X033180Y008340D01*
X033480Y008340D01*
X033480Y008540D02*
X033180Y008540D01*
X032880Y008540D01*
X023980Y011840D02*
X023680Y011840D01*
X023380Y011840D01*
X023380Y012040D02*
X023680Y012040D01*
X023980Y012040D01*
X026880Y014340D02*
X027180Y014340D01*
X027480Y014340D01*
X027480Y014540D02*
X027180Y014540D01*
X026880Y014540D01*
X022480Y008540D02*
X022180Y008540D01*
X021880Y008540D01*
X021880Y008340D02*
X022180Y008340D01*
X022480Y008340D01*
X013480Y011840D02*
X013180Y011840D01*
X012880Y011840D01*
X012880Y012040D02*
X013180Y012040D01*
X013480Y012040D01*
X014580Y014640D02*
X014580Y014940D01*
X014580Y015240D01*
X014780Y015240D02*
X014780Y014940D01*
X014780Y014640D01*
X012280Y015640D02*
X012280Y015940D01*
X012280Y016240D01*
X012080Y016240D02*
X012080Y015940D01*
X012080Y015640D01*
X010980Y017340D02*
X010680Y017340D01*
X010380Y017340D01*
X010380Y017540D02*
X010680Y017540D01*
X010980Y017540D01*
X002980Y012040D02*
X002680Y012040D01*
X002380Y012040D01*
X002380Y011840D02*
X002680Y011840D01*
X002980Y011840D01*
X010880Y008540D02*
X011180Y008540D01*
X011480Y008540D01*
X011480Y008340D02*
X011180Y008340D01*
X010880Y008340D01*
D17*
X015105Y018940D03*
X017255Y018940D03*
D18*
X004700Y017330D02*
X003859Y017330D01*
X003964Y017435D02*
X004070Y017540D01*
X003964Y017435D02*
X003964Y017225D01*
X004070Y017120D01*
X004175Y017120D01*
X004280Y017225D01*
X004280Y017435D01*
X004385Y017540D01*
X004490Y017540D01*
X004595Y017435D01*
X004595Y017225D01*
X004490Y017120D01*
X004490Y016895D02*
X003964Y016895D01*
X003964Y016475D02*
X004490Y016475D01*
X004595Y016580D01*
X004595Y016790D01*
X004490Y016895D01*
X004595Y017764D02*
X004595Y018184D01*
X004595Y017974D02*
X003964Y017974D01*
X004175Y017764D01*
D19*
X008405Y017940D03*
X008405Y018940D03*
X008405Y016940D03*
D20*
X007730Y016940D03*
X007730Y017940D03*
X007730Y018940D03*
D21*
X032180Y005940D03*
M02*
