%
M48
M72
T01C0.0240
T02C0.0320
T03C0.0360
T04C0.0400
T05C0.0440
T06C0.1300
%
T01
X12825Y4435
X13815Y4120
X14805Y4120
X15840Y4120
X16830Y4120
X17820Y4120
X18810Y4120
X19845Y4120
X20835Y4120
X22635Y4255
X23625Y4525
X24615Y3490
X26730Y3490
X22950Y6505
X21825Y6415
X20790Y8665
X19755Y9205
X24030Y9385
X24030Y9880
X25650Y8530
X26685Y8485
X27720Y9250
X30420Y10375
X26595Y14290
X15030Y8755
T02
X15180Y7940
X14180Y7940
X13180Y7940
X11180Y7940
X10180Y7940
X9180Y7940
X8180Y7940
X7180Y7940
X6180Y7940
X5180Y7940
X4180Y7940
X3180Y7940
X2180Y7940
X2680Y11440
X3680Y11440
X4680Y11440
X5680Y11440
X6680Y11440
X7680Y11440
X8680Y11440
X9680Y11440
X10680Y11440
X11680Y11440
X13180Y11440
X14180Y11440
X15180Y11440
X16180Y11440
X17180Y11440
X18180Y11440
X19180Y11440
X20180Y11440
X21180Y11440
X22180Y11440
X23680Y11440
X24680Y11440
X25680Y11440
X26680Y11440
X27680Y11440
X28680Y11440
X29680Y11440
X30680Y11440
X31680Y11440
X32680Y11440
X33180Y8940
X33180Y7940
X32180Y7940
X31180Y7940
X30180Y7940
X29180Y7940
X28180Y7940
X27180Y7940
X26180Y7940
X25180Y7940
X24180Y7940
X22180Y7940
X21180Y7940
X20180Y7940
X19180Y7940
X18180Y7940
X17180Y7940
X16180Y7940
X11180Y8940
X13180Y12440
X14180Y14940
X15180Y14940
X12680Y15940
X11680Y15940
X10680Y16940
X10680Y17940
X11680Y17940
X12680Y18930
X14680Y18940
X12680Y16950
X9180Y15940
X9180Y14940
X2680Y12440
X17680Y18940
X18180Y14940
X19180Y14940
X20180Y14940
X21180Y14940
X22180Y14940
X23180Y14940
X24180Y14940
X25180Y14940
X26180Y14940
X27180Y14940
X27180Y13940
X23680Y12440
X22180Y8940
T03
X20680Y18440
X19680Y18440
X1180Y12440
X1180Y11440
T04
X2180Y4940
X3180Y4940
X4180Y4940
X5180Y4940
X6180Y4940
X7180Y4940
X8180Y4940
X9180Y4940
X10180Y4940
X11180Y4940
X12180Y4940
X13180Y4940
X14180Y4940
X15180Y4940
X16180Y4940
X17180Y4940
X18180Y4940
X19180Y4940
X20180Y4940
X21180Y4940
X22180Y4940
X23180Y4940
X24180Y4940
X25180Y4940
X26180Y4940
X27180Y4940
X28180Y4940
X29180Y4940
X30180Y4940
X31180Y4940
X32180Y4940
X32180Y5940
X31180Y5940
X30180Y5940
X29180Y5940
X28180Y5940
X27180Y5940
X26180Y5940
X25180Y5940
X24180Y5940
X23180Y5940
X22180Y5940
X21180Y5940
X20180Y5940
X19180Y5940
X18180Y5940
X17180Y5940
X16180Y5940
X15180Y5940
X14180Y5940
X13180Y5940
X12180Y5940
X11180Y5940
X10180Y5940
X9180Y5940
X8180Y5940
X7180Y5940
X6180Y5940
X5180Y5940
X4180Y5940
X3180Y5940
X2180Y5940
T05
X9180Y16940
X9180Y17940
X9180Y18940
T06
X2280Y17940
M30
