G75*
%MOIN*%
%OFA0B0*%
%FSLAX24Y24*%
%IPPOS*%
%LPD*%
%AMOC8*
5,1,8,0,0,1.08239X$1,22.5*
%
%ADD10R,0.0600X0.2550*%
%ADD11C,0.0520*%
%ADD12OC8,0.0520*%
%ADD13R,0.0866X0.0236*%
%ADD14OC8,0.0630*%
%ADD15C,0.0630*%
%ADD16C,0.0660*%
%ADD17C,0.0560*%
%ADD18OC8,0.0600*%
%ADD19C,0.0100*%
%ADD20C,0.0400*%
%ADD21C,0.0160*%
D10*
X002180Y001940D03*
X003180Y001940D03*
X004180Y001940D03*
X005180Y001940D03*
X006180Y001940D03*
X007180Y001940D03*
X008180Y001940D03*
X009180Y001940D03*
X010180Y001940D03*
X011180Y001940D03*
X012180Y001940D03*
X013180Y001940D03*
X014180Y001940D03*
X015180Y001940D03*
X016180Y001940D03*
X017180Y001940D03*
X018180Y001940D03*
X019180Y001940D03*
X020180Y001940D03*
X021180Y001940D03*
X022180Y001940D03*
X023180Y001940D03*
X024180Y001940D03*
X025180Y001940D03*
X026180Y001940D03*
X027180Y001940D03*
X028180Y001940D03*
X029180Y001940D03*
X030180Y001940D03*
X031180Y001940D03*
X032180Y001940D03*
D11*
X032180Y007680D02*
X032180Y008200D01*
X031180Y008200D02*
X031180Y007680D01*
X030180Y007680D02*
X030180Y008200D01*
X029180Y008200D02*
X029180Y007680D01*
X028180Y007680D02*
X028180Y008200D01*
X027180Y008200D02*
X027180Y007680D01*
X026180Y007680D02*
X026180Y008200D01*
X025180Y008200D02*
X025180Y007680D01*
X024180Y007680D02*
X024180Y008200D01*
X021180Y008200D02*
X021180Y007680D01*
X020180Y007680D02*
X020180Y008200D01*
X019180Y008200D02*
X019180Y007680D01*
X018180Y007680D02*
X018180Y008200D01*
X017180Y008200D02*
X017180Y007680D01*
X016180Y007680D02*
X016180Y008200D01*
X015180Y008200D02*
X015180Y007680D01*
X014180Y007680D02*
X014180Y008200D01*
X013180Y008200D02*
X013180Y007680D01*
X010180Y007680D02*
X010180Y008200D01*
X009180Y008200D02*
X009180Y007680D01*
X008180Y007680D02*
X008180Y008200D01*
X007180Y008200D02*
X007180Y007680D01*
X006180Y007680D02*
X006180Y008200D01*
X005180Y008200D02*
X005180Y007680D01*
X004180Y007680D02*
X004180Y008200D01*
X003180Y008200D02*
X003180Y007680D01*
X002180Y007680D02*
X002180Y008200D01*
X003680Y011180D02*
X003680Y011700D01*
X004680Y011700D02*
X004680Y011180D01*
X005680Y011180D02*
X005680Y011700D01*
X006680Y011700D02*
X006680Y011180D01*
X007680Y011180D02*
X007680Y011700D01*
X008680Y011700D02*
X008680Y011180D01*
X009680Y011180D02*
X009680Y011700D01*
X010680Y011700D02*
X010680Y011180D01*
X011680Y011180D02*
X011680Y011700D01*
X014180Y011700D02*
X014180Y011180D01*
X015180Y011180D02*
X015180Y011700D01*
X016180Y011700D02*
X016180Y011180D01*
X017180Y011180D02*
X017180Y011700D01*
X018180Y011700D02*
X018180Y011180D01*
X019180Y011180D02*
X019180Y011700D01*
X020180Y011700D02*
X020180Y011180D01*
X021180Y011180D02*
X021180Y011700D01*
X022180Y011700D02*
X022180Y011180D01*
X024680Y011180D02*
X024680Y011700D01*
X025680Y011700D02*
X025680Y011180D01*
X026680Y011180D02*
X026680Y011700D01*
X027680Y011700D02*
X027680Y011180D01*
X028680Y011180D02*
X028680Y011700D01*
X029680Y011700D02*
X029680Y011180D01*
X030680Y011180D02*
X030680Y011700D01*
X031680Y011700D02*
X031680Y011180D01*
X032680Y011180D02*
X032680Y011700D01*
X026180Y014680D02*
X026180Y015200D01*
X025180Y015200D02*
X025180Y014680D01*
X024180Y014680D02*
X024180Y015200D01*
X023180Y015200D02*
X023180Y014680D01*
X022180Y014680D02*
X022180Y015200D01*
X021180Y015200D02*
X021180Y014680D01*
X020180Y014680D02*
X020180Y015200D01*
X019180Y015200D02*
X019180Y014680D01*
X018180Y014680D02*
X018180Y015200D01*
D12*
X015180Y014940D03*
X014180Y014940D03*
X012680Y015940D03*
X011680Y015940D03*
X010680Y016940D03*
X010680Y017940D03*
X011680Y017940D03*
X012680Y018930D03*
X014680Y018940D03*
X012680Y016950D03*
X017680Y018940D03*
X027180Y014940D03*
X027180Y013940D03*
X023680Y012440D03*
X023680Y011440D03*
X022180Y008940D03*
X022180Y007940D03*
X013180Y011440D03*
X013180Y012440D03*
X011180Y008940D03*
X011180Y007940D03*
X002680Y011440D03*
X002680Y012440D03*
X033180Y008940D03*
X033180Y007940D03*
D13*
X017204Y016190D03*
X017204Y016690D03*
X017204Y017190D03*
X017204Y017690D03*
X015156Y017690D03*
X015156Y017190D03*
X015156Y016690D03*
X015156Y016190D03*
D14*
X009180Y015940D03*
D15*
X009180Y014940D03*
D16*
X009510Y016940D02*
X008850Y016940D01*
X008850Y017940D02*
X009510Y017940D01*
X009510Y018940D02*
X008850Y018940D01*
D17*
X001460Y012440D02*
X000900Y012440D01*
X000900Y011440D02*
X001460Y011440D01*
X019680Y018160D02*
X019680Y018720D01*
X020680Y018720D02*
X020680Y018160D01*
D18*
X020180Y005940D03*
X019180Y005940D03*
X018180Y005940D03*
X017180Y005940D03*
X016180Y005940D03*
X015180Y005940D03*
X014180Y005940D03*
X013180Y005940D03*
X012180Y005940D03*
X011180Y005940D03*
X010180Y005940D03*
X009180Y005940D03*
X008180Y005940D03*
X007180Y005940D03*
X006180Y005940D03*
X005180Y005940D03*
X004180Y005940D03*
X003180Y005940D03*
X002180Y005940D03*
X002180Y004940D03*
X003180Y004940D03*
X004180Y004940D03*
X005180Y004940D03*
X006180Y004940D03*
X007180Y004940D03*
X008180Y004940D03*
X009180Y004940D03*
X010180Y004940D03*
X011180Y004940D03*
X012180Y004940D03*
X013180Y004940D03*
X014180Y004940D03*
X015180Y004940D03*
X016180Y004940D03*
X017180Y004940D03*
X018180Y004940D03*
X019180Y004940D03*
X020180Y004940D03*
X021180Y004940D03*
X022180Y004940D03*
X023180Y004940D03*
X024180Y004940D03*
X025180Y004940D03*
X026180Y004940D03*
X027180Y004940D03*
X028180Y004940D03*
X029180Y004940D03*
X030180Y004940D03*
X031180Y004940D03*
X032180Y004940D03*
X032180Y005940D03*
X031180Y005940D03*
X030180Y005940D03*
X029180Y005940D03*
X028180Y005940D03*
X027180Y005940D03*
X026180Y005940D03*
X025180Y005940D03*
X024180Y005940D03*
X023180Y005940D03*
X022180Y005940D03*
X021180Y005940D03*
D19*
X002180Y001940D02*
X002160Y001960D01*
X002160Y002680D01*
X001710Y003130D01*
X001710Y005110D01*
X002160Y005560D01*
X002160Y005920D01*
X002180Y005940D01*
X002205Y005965D01*
X002205Y007900D01*
X002180Y007940D01*
X003180Y007940D02*
X003195Y007900D01*
X003195Y005965D01*
X003180Y005940D01*
X003150Y005920D01*
X003150Y005560D01*
X002745Y005155D01*
X002745Y003085D01*
X003150Y002680D01*
X003150Y001960D01*
X003180Y001940D01*
X004140Y001960D02*
X004140Y002680D01*
X003735Y003085D01*
X003735Y005110D01*
X004140Y005515D01*
X004140Y005920D01*
X004180Y005940D01*
X004185Y005965D01*
X004185Y007900D01*
X004180Y007940D01*
X005175Y007900D02*
X005180Y007940D01*
X005175Y007900D02*
X005175Y005965D01*
X005180Y005940D01*
X005220Y005920D01*
X005220Y005515D01*
X005625Y005110D01*
X005625Y003085D01*
X005220Y002680D01*
X005220Y001960D01*
X005180Y001940D01*
X006180Y001940D02*
X006210Y001960D01*
X006210Y002680D01*
X006615Y003085D01*
X006615Y005155D01*
X006210Y005560D01*
X006210Y005920D01*
X006180Y005940D01*
X006210Y005965D01*
X006210Y007900D01*
X006180Y007940D01*
X007180Y007940D02*
X007200Y007900D01*
X007200Y005965D01*
X007180Y005940D01*
X007200Y005920D01*
X007200Y005560D01*
X007650Y005110D01*
X007650Y003130D01*
X007200Y002680D01*
X007200Y001960D01*
X007180Y001940D01*
X008180Y001940D02*
X008190Y001960D01*
X008190Y002635D01*
X008640Y003085D01*
X008640Y005110D01*
X008190Y005560D01*
X008190Y005920D01*
X008180Y005940D01*
X008190Y005965D01*
X008190Y007900D01*
X008180Y007940D01*
X009180Y007940D02*
X009180Y005940D01*
X009225Y005920D01*
X009225Y005515D01*
X009630Y005110D01*
X009630Y003085D01*
X009180Y002635D01*
X009180Y001940D01*
X010180Y001940D02*
X010215Y001960D01*
X010215Y004345D01*
X010620Y004750D01*
X010620Y005515D01*
X010215Y005920D01*
X010180Y005940D01*
X010215Y005965D01*
X012150Y007900D01*
X013140Y007900D01*
X013180Y007940D01*
X013995Y007900D02*
X012465Y006370D01*
X011610Y006370D01*
X011180Y005940D01*
X011205Y005920D01*
X011610Y005515D01*
X011610Y004750D01*
X011205Y004345D01*
X011205Y001960D01*
X011180Y001940D01*
X012180Y001940D02*
X012195Y001960D01*
X012195Y004345D01*
X012645Y004795D01*
X012645Y005605D01*
X012330Y005920D01*
X012180Y005940D01*
X012195Y005965D01*
X012330Y005965D01*
X012915Y006550D01*
X013635Y006550D01*
X014985Y007900D01*
X015165Y007900D01*
X015180Y007940D01*
X015975Y007900D02*
X014445Y006370D01*
X013590Y006370D01*
X013185Y005965D01*
X013180Y005940D01*
X014180Y005940D02*
X014220Y005965D01*
X014310Y005965D01*
X015255Y006910D01*
X015975Y006910D01*
X016965Y007900D01*
X017145Y007900D01*
X017180Y007940D01*
X017955Y007900D02*
X016785Y006730D01*
X015975Y006730D01*
X015210Y005965D01*
X015180Y005940D01*
X016180Y005940D02*
X016200Y005965D01*
X016785Y006550D01*
X017640Y006550D01*
X018990Y007900D01*
X019170Y007900D01*
X019180Y007940D01*
X019980Y007900D02*
X018450Y006370D01*
X017595Y006370D01*
X017190Y005965D01*
X017180Y005940D01*
X018180Y005965D02*
X018180Y005940D01*
X018180Y005965D02*
X018315Y005965D01*
X018720Y006370D01*
X019440Y006370D01*
X020610Y007540D01*
X020610Y008350D01*
X019755Y009205D01*
X020790Y008665D02*
X020790Y007450D01*
X019305Y005965D01*
X019215Y005965D01*
X019180Y005940D01*
X020180Y005940D02*
X020205Y005920D01*
X020655Y005470D01*
X021330Y005470D01*
X021645Y005785D01*
X021645Y006055D01*
X021825Y006235D01*
X021825Y006415D01*
X021195Y006325D02*
X021195Y005965D01*
X021180Y005940D01*
X021195Y006325D02*
X024030Y009160D01*
X024030Y009385D01*
X024390Y009250D02*
X022185Y007045D01*
X022185Y005965D01*
X022180Y005940D01*
X022635Y006010D02*
X022635Y005425D01*
X022185Y004975D01*
X022180Y004940D01*
X022635Y005020D02*
X022635Y004750D01*
X022365Y004480D01*
X013635Y004480D01*
X013185Y004930D01*
X013180Y004940D01*
X012825Y004435D02*
X013140Y004120D01*
X013140Y001960D01*
X013180Y001940D01*
X014175Y001960D02*
X014180Y001940D01*
X014175Y001960D02*
X014175Y003760D01*
X013815Y004120D01*
X014805Y004120D02*
X015165Y003760D01*
X015165Y001960D01*
X015180Y001940D01*
X016155Y001960D02*
X016180Y001940D01*
X016155Y001960D02*
X016155Y003805D01*
X015840Y004120D01*
X016830Y004120D02*
X017145Y003805D01*
X017145Y001960D01*
X017180Y001940D01*
X018180Y001940D02*
X018180Y003760D01*
X017820Y004120D01*
X018810Y004120D02*
X019170Y003760D01*
X019170Y001960D01*
X019180Y001940D01*
X020160Y001960D02*
X020180Y001940D01*
X020160Y001960D02*
X020160Y003805D01*
X019845Y004120D01*
X020835Y004120D02*
X021150Y003805D01*
X021150Y001960D01*
X021180Y001940D01*
X022180Y001940D02*
X022185Y001960D01*
X022185Y003805D01*
X022635Y004255D01*
X023220Y004120D02*
X023625Y004525D01*
X023220Y004120D02*
X023220Y001960D01*
X023180Y001940D01*
X024180Y001940D02*
X024210Y001960D01*
X024210Y002680D01*
X024615Y003085D01*
X024615Y003490D01*
X024750Y003850D02*
X025155Y003445D01*
X025155Y001960D01*
X025180Y001940D01*
X026145Y001960D02*
X026145Y002680D01*
X025740Y003085D01*
X025740Y005110D01*
X026145Y005515D01*
X026145Y005920D01*
X026180Y005940D01*
X026190Y005965D01*
X026190Y007900D01*
X026180Y007940D01*
X026685Y008485D02*
X026685Y005470D01*
X027180Y004975D01*
X027180Y004940D01*
X027720Y005110D02*
X027720Y003085D01*
X028170Y002635D01*
X028170Y001960D01*
X028180Y001940D01*
X029160Y001960D02*
X029180Y001940D01*
X029160Y001960D02*
X029160Y002680D01*
X028710Y003130D01*
X028710Y005110D01*
X029160Y005560D01*
X029160Y005920D01*
X029180Y005940D01*
X029610Y006145D02*
X029610Y005380D01*
X029205Y004975D01*
X029180Y004940D01*
X029745Y005155D02*
X029745Y003085D01*
X030150Y002680D01*
X030150Y001960D01*
X030180Y001940D01*
X031140Y001960D02*
X031140Y002680D01*
X030735Y003085D01*
X030735Y005110D01*
X031140Y005515D01*
X031140Y005920D01*
X031180Y005940D01*
X031185Y005965D01*
X031185Y007900D01*
X031180Y007940D01*
X030195Y007900D02*
X030180Y007940D01*
X030195Y007900D02*
X030195Y005965D01*
X030180Y005940D01*
X030150Y005920D01*
X030150Y005560D01*
X029745Y005155D01*
X029610Y006145D02*
X028755Y007000D01*
X028755Y008215D01*
X027720Y009250D01*
X028180Y007940D02*
X028170Y007900D01*
X028170Y005965D01*
X028180Y005940D01*
X028170Y005920D01*
X028170Y005560D01*
X027720Y005110D01*
X027180Y005940D02*
X027180Y007940D01*
X025650Y008530D02*
X025650Y005425D01*
X025200Y004975D01*
X025180Y004940D01*
X024750Y005155D02*
X024750Y003850D01*
X026730Y003490D02*
X026730Y003085D01*
X027180Y002635D01*
X027180Y001940D01*
X026180Y001940D02*
X026145Y001960D01*
X031140Y001960D02*
X031180Y001940D01*
X032175Y001960D02*
X032180Y001940D01*
X032175Y001960D02*
X032175Y004480D01*
X032355Y004480D01*
X033840Y005965D01*
X033840Y008845D01*
X032265Y010420D01*
X032265Y011680D01*
X028170Y015775D01*
X025200Y015775D01*
X024390Y014965D01*
X024210Y014965D01*
X024180Y014940D01*
X025605Y015190D02*
X025605Y014515D01*
X023940Y012850D01*
X018765Y012850D01*
X017595Y011680D01*
X017595Y011005D01*
X015345Y008755D01*
X015030Y008755D01*
X014180Y007940D02*
X014175Y007900D01*
X013995Y007900D01*
X015975Y007900D02*
X016155Y007900D01*
X016180Y007940D01*
X017955Y007900D02*
X018180Y007900D01*
X018180Y007940D01*
X019980Y007900D02*
X020160Y007900D01*
X020180Y007940D01*
X022950Y006505D02*
X022950Y006325D01*
X022635Y006010D01*
X023180Y005940D02*
X023220Y005965D01*
X023310Y006055D01*
X023310Y007900D01*
X025110Y009700D01*
X025110Y011725D01*
X026595Y013210D01*
X026595Y014290D01*
X025605Y015190D02*
X026010Y015595D01*
X027360Y015595D01*
X031500Y011455D01*
X031680Y011455D01*
X031680Y011440D01*
X030420Y010375D02*
X026775Y010375D01*
X024615Y008215D01*
X024615Y005740D01*
X024255Y005380D01*
X022995Y005380D01*
X022635Y005020D01*
X024180Y005940D02*
X024210Y005965D01*
X024210Y007900D01*
X024180Y007940D01*
X025180Y007940D02*
X025200Y007900D01*
X025200Y005965D01*
X025180Y005940D01*
X025155Y005920D01*
X025155Y005560D01*
X024750Y005155D01*
X024390Y009250D02*
X024390Y009520D01*
X024030Y009880D01*
X031725Y005470D02*
X032175Y005920D01*
X032180Y005940D01*
X031725Y005470D02*
X031725Y004750D01*
X031995Y004480D01*
X032175Y004480D01*
X017235Y017710D02*
X017204Y017690D01*
X017235Y017710D02*
X017235Y017980D01*
X011700Y017980D01*
X011680Y017940D01*
X011655Y017980D01*
X010710Y017980D01*
X010680Y017940D01*
X010665Y017890D01*
X009720Y016945D01*
X009180Y016945D01*
X009180Y016940D01*
X017235Y017980D02*
X017235Y018520D01*
X017640Y018925D01*
X017680Y018940D01*
X009720Y011410D02*
X009680Y011440D01*
X009720Y011410D02*
X009720Y005425D01*
X010170Y004975D01*
X010180Y004940D01*
X009180Y004975D02*
X009180Y004940D01*
X009180Y004975D02*
X008685Y005470D01*
X008685Y011410D01*
X008680Y011440D01*
X007695Y011410D02*
X007680Y011440D01*
X007695Y011410D02*
X007695Y005425D01*
X008180Y004940D01*
X007180Y004940D02*
X007155Y004975D01*
X006705Y005425D01*
X006705Y011410D01*
X006680Y011440D01*
X005715Y011410D02*
X005680Y011440D01*
X005715Y011410D02*
X005715Y005425D01*
X006165Y004975D01*
X006180Y004940D01*
X005180Y004940D02*
X005175Y004975D01*
X004680Y005470D01*
X004680Y011440D01*
X004140Y001960D02*
X004180Y001940D01*
D20*
X012825Y004435D03*
X013815Y004120D03*
X014805Y004120D03*
X015840Y004120D03*
X016830Y004120D03*
X017820Y004120D03*
X018810Y004120D03*
X019845Y004120D03*
X020835Y004120D03*
X022635Y004255D03*
X023625Y004525D03*
X024615Y003490D03*
X026730Y003490D03*
X022950Y006505D03*
X021825Y006415D03*
X020790Y008665D03*
X019755Y009205D03*
X024030Y009385D03*
X024030Y009880D03*
X025650Y008530D03*
X026685Y008485D03*
X027720Y009250D03*
X030420Y010375D03*
X026595Y014290D03*
X015030Y008755D03*
D21*
X013185Y010330D02*
X013185Y011365D01*
X013180Y011440D01*
X013185Y011455D01*
X014175Y011455D01*
X014180Y011440D01*
X014175Y011500D01*
X014175Y014875D01*
X014180Y014940D01*
X014130Y014875D01*
X009225Y014875D01*
X009180Y014940D01*
X009180Y014920D01*
X006435Y012175D01*
X004545Y012175D01*
X003870Y011500D01*
X003735Y011500D01*
X003680Y011440D01*
X003645Y011455D01*
X002700Y011455D01*
X002680Y011440D01*
X002610Y011455D01*
X001215Y011455D01*
X001180Y011440D01*
X001180Y012440D02*
X001215Y012445D01*
X002655Y012445D01*
X002680Y012440D01*
X002745Y012445D01*
X005670Y012445D01*
X009135Y015910D01*
X009180Y015940D01*
X009180Y015955D01*
X009675Y015955D01*
X010620Y016900D01*
X010680Y016940D01*
X010710Y016900D01*
X011655Y015955D01*
X011680Y015940D01*
X011700Y016000D01*
X012645Y016945D01*
X012680Y016950D01*
X012690Y015955D02*
X012680Y015940D01*
X012690Y015955D02*
X013140Y015955D01*
X014805Y017620D01*
X015120Y017620D01*
X015156Y017690D01*
X015165Y017665D01*
X015480Y017665D01*
X015750Y017395D01*
X015750Y017215D01*
X017190Y017215D01*
X017204Y017190D01*
X017280Y017215D01*
X017550Y017215D01*
X018765Y018430D01*
X019665Y018430D01*
X019680Y018440D01*
X020655Y018430D02*
X020680Y018440D01*
X020655Y018430D02*
X018405Y016180D01*
X017280Y016180D01*
X017204Y016190D01*
X017190Y016225D01*
X015210Y016225D01*
X015156Y016190D01*
X015165Y016180D01*
X015165Y014965D01*
X015180Y014940D01*
X014220Y014965D02*
X014180Y014940D01*
X014220Y014965D02*
X014220Y016540D01*
X014850Y017170D01*
X015120Y017170D01*
X015156Y017190D01*
X015480Y016720D02*
X015750Y016990D01*
X015750Y017215D01*
X015480Y016720D02*
X015165Y016720D01*
X015156Y016690D01*
X013180Y012440D02*
X013140Y012400D01*
X013140Y012040D01*
X011205Y010105D01*
X011205Y008980D01*
X011180Y008940D01*
X011205Y008350D02*
X013185Y010330D01*
X011205Y008350D02*
X011205Y007990D01*
X011180Y007940D01*
X011160Y007945D01*
X010215Y007945D01*
X010180Y007940D01*
X021180Y007940D02*
X021195Y007945D01*
X022140Y007945D01*
X022180Y007940D01*
X022230Y007990D01*
X022230Y008395D01*
X023670Y009835D01*
X023670Y011365D01*
X023680Y011440D01*
X023715Y011455D01*
X024660Y011455D01*
X024680Y011440D01*
X024705Y011500D01*
X024705Y011635D01*
X026145Y013075D01*
X026145Y014875D01*
X026180Y014940D01*
X026190Y014965D01*
X027180Y014965D01*
X027180Y014940D01*
X027225Y014875D01*
X030105Y011995D01*
X030105Y011140D01*
X030510Y010735D01*
X030600Y010735D01*
X032130Y009205D01*
X032130Y007990D01*
X032180Y007940D01*
X032220Y007945D01*
X033165Y007945D01*
X033180Y007940D01*
X023670Y012040D02*
X023670Y012400D01*
X023680Y012440D01*
X023670Y012040D02*
X022185Y010555D01*
X022185Y008980D01*
X022180Y008940D01*
M02*
