%
M48
M72
T01C0.0320
T02C0.0400
T03C0.0790
T04C0.1250
%
T01
X9100Y12910
X10100Y11410
X12100Y12910
X13100Y11410
X12600Y8900
X11600Y7910
X12600Y6920
X12100Y1910
X12100Y910
X13100Y910
X13100Y1910
X14100Y1910
X14100Y910
X15100Y910
X15100Y1910
X16100Y1910
X16100Y910
X17100Y910
X17100Y1910
X12100Y16410
X13100Y17910
X12600Y20420
X11600Y21410
X12600Y22400
X10100Y17910
X9100Y16410
T02
X15100Y14410
X15100Y13410
X15100Y12410
X15100Y11410
X15100Y10410
X15100Y9410
X15100Y18410
X15100Y19410
X15100Y20410
X15100Y26910
X15100Y27910
X15100Y28910
X14100Y28910
X14100Y27910
X14100Y26910
X13100Y26910
X13100Y27910
X13100Y28910
X12100Y28910
X12100Y27910
X12100Y26910
X16100Y26910
X16100Y27910
X16100Y28910
X17100Y28910
X17100Y27910
X17100Y26910
T03
X9734Y22413
X8946Y24838
X7494Y23782
X7939Y22413
X7493Y21035
X8944Y19980
X6323Y24635
X6877Y26342
X4877Y24635
X4323Y26342
X3707Y23785
X3261Y22407
X3706Y21038
X4877Y20185
X4323Y18478
X2254Y19982
X1466Y22407
X2256Y24840
X4323Y11342
X4877Y9635
X3707Y8785
X3261Y7407
X3706Y6038
X4877Y5185
X4323Y3478
X2254Y4982
X1466Y7407
X2256Y9840
X6323Y9635
X6877Y11342
X7494Y8782
X7939Y7413
X7493Y6035
X8944Y4980
X9734Y7413
X8946Y9838
T04
X1100Y1410
X10100Y1410
X17100Y5910
X17100Y23910
X10100Y28410
X1100Y28410
M30
