G75*
%MOIN*%
%OFA0B0*%
%FSLAX24Y24*%
%IPPOS*%
%LPD*%
%AMOC8*
5,1,8,0,0,1.08239X$1,22.5*
%
%ADD10C,0.0030*%
%ADD11C,0.0050*%
%ADD12C,0.0060*%
%ADD13R,0.0150X0.0200*%
%ADD14C,0.0040*%
D10*
X011615Y003425D02*
X011615Y003715D01*
X011615Y003570D02*
X011808Y003570D01*
X011910Y003522D02*
X011910Y003715D01*
X011808Y003715D02*
X011808Y003425D01*
X011910Y003522D02*
X012006Y003425D01*
X012103Y003522D01*
X012103Y003715D01*
X014115Y003167D02*
X014115Y002973D01*
X014163Y002925D01*
X014260Y002925D01*
X014308Y002973D01*
X014308Y003070D01*
X014212Y003070D01*
X014308Y003167D02*
X014260Y003215D01*
X014163Y003215D01*
X014115Y003167D01*
X015115Y003167D02*
X015115Y002973D01*
X015163Y002925D01*
X015260Y002925D01*
X015308Y002973D01*
X015308Y003070D01*
X015212Y003070D01*
X015308Y003167D02*
X015260Y003215D01*
X015163Y003215D01*
X015115Y003167D01*
X015815Y003215D02*
X015815Y002925D01*
X015815Y003070D02*
X016008Y003070D01*
X016110Y003070D02*
X016303Y003070D01*
X016303Y003118D02*
X016303Y002925D01*
X016110Y002925D02*
X016110Y003118D01*
X016206Y003215D01*
X016303Y003118D01*
X016008Y003215D02*
X016008Y002925D01*
X016815Y003425D02*
X016815Y003715D01*
X016815Y003570D02*
X017008Y003570D01*
X017110Y003570D02*
X017255Y003570D01*
X017303Y003522D01*
X017303Y003473D01*
X017255Y003425D01*
X017110Y003425D01*
X017110Y003715D01*
X017255Y003715D01*
X017303Y003667D01*
X017303Y003618D01*
X017255Y003570D01*
X017008Y003715D02*
X017008Y003425D01*
X017008Y009425D02*
X017008Y009715D01*
X017110Y009715D02*
X017110Y009425D01*
X017255Y009425D01*
X017303Y009473D01*
X017303Y009522D01*
X017255Y009570D01*
X017110Y009570D01*
X017008Y009570D02*
X016815Y009570D01*
X016815Y009425D02*
X016815Y009715D01*
X017110Y009715D02*
X017255Y009715D01*
X017303Y009667D01*
X017303Y009618D01*
X017255Y009570D01*
X016603Y010425D02*
X016603Y010618D01*
X016506Y010715D01*
X016410Y010618D01*
X016410Y010425D01*
X016308Y010425D02*
X016308Y010715D01*
X016308Y010570D02*
X016115Y010570D01*
X016115Y010425D02*
X016115Y010715D01*
X016410Y010570D02*
X016603Y010570D01*
X016260Y011425D02*
X016163Y011425D01*
X016115Y011473D01*
X016115Y011667D01*
X016163Y011715D01*
X016260Y011715D01*
X016308Y011667D01*
X016308Y011570D02*
X016212Y011570D01*
X016308Y011570D02*
X016308Y011473D01*
X016260Y011425D01*
X016212Y012425D02*
X016115Y012425D01*
X016163Y012425D02*
X016163Y012715D01*
X016115Y012715D02*
X016212Y012715D01*
X016311Y012715D02*
X016505Y012425D01*
X016505Y012715D01*
X016606Y012667D02*
X016654Y012715D01*
X016751Y012715D01*
X016800Y012667D01*
X016800Y012618D01*
X016606Y012425D01*
X016800Y012425D01*
X016311Y012425D02*
X016311Y012715D01*
X016260Y013425D02*
X016163Y013425D01*
X016115Y013473D01*
X016115Y013667D01*
X016163Y013715D01*
X016260Y013715D01*
X016308Y013667D01*
X016308Y013570D02*
X016212Y013570D01*
X016308Y013570D02*
X016308Y013473D01*
X016260Y013425D01*
X016212Y014425D02*
X016115Y014425D01*
X016163Y014425D02*
X016163Y014715D01*
X016115Y014715D02*
X016212Y014715D01*
X016311Y014715D02*
X016505Y014425D01*
X016505Y014715D01*
X016606Y014618D02*
X016703Y014715D01*
X016703Y014425D01*
X016606Y014425D02*
X016800Y014425D01*
X016311Y014425D02*
X016311Y014715D01*
X016260Y018425D02*
X016163Y018425D01*
X016115Y018473D01*
X016115Y018667D01*
X016163Y018715D01*
X016260Y018715D01*
X016308Y018667D01*
X016308Y018570D02*
X016212Y018570D01*
X016308Y018570D02*
X016308Y018473D01*
X016260Y018425D01*
X016308Y020425D02*
X016308Y020715D01*
X016410Y020715D02*
X016410Y020522D01*
X016506Y020425D01*
X016603Y020522D01*
X016603Y020715D01*
X016308Y020570D02*
X016115Y020570D01*
X016115Y020425D02*
X016115Y020715D01*
X016110Y025925D02*
X016110Y026118D01*
X016206Y026215D01*
X016303Y026118D01*
X016303Y025925D01*
X016303Y026070D02*
X016110Y026070D01*
X016008Y026070D02*
X015815Y026070D01*
X015815Y025925D02*
X015815Y026215D01*
X016008Y026215D02*
X016008Y025925D01*
X015308Y025973D02*
X015308Y026070D01*
X015212Y026070D01*
X015308Y025973D02*
X015260Y025925D01*
X015163Y025925D01*
X015115Y025973D01*
X015115Y026167D01*
X015163Y026215D01*
X015260Y026215D01*
X015308Y026167D01*
X014308Y026167D02*
X014260Y026215D01*
X014163Y026215D01*
X014115Y026167D01*
X014115Y025973D01*
X014163Y025925D01*
X014260Y025925D01*
X014308Y025973D01*
X014308Y026070D01*
X014212Y026070D01*
X012103Y025715D02*
X012103Y025522D01*
X012006Y025425D01*
X011910Y025522D01*
X011910Y025715D01*
X011808Y025715D02*
X011808Y025425D01*
X011808Y025570D02*
X011615Y025570D01*
X011615Y025425D02*
X011615Y025715D01*
D11*
X003118Y005633D02*
X002618Y005633D01*
X003118Y005633D01*
X002618Y005633D01*
X003118Y005633D01*
X003118Y009010D01*
X002618Y009010D01*
X002618Y005633D01*
X002618Y009010D01*
X003118Y009010D01*
X003118Y005633D01*
X003118Y005682D02*
X002618Y005682D01*
X003118Y005682D01*
X003118Y005730D02*
X002618Y005730D01*
X003118Y005730D01*
X003118Y005779D02*
X002618Y005779D01*
X003118Y005779D01*
X003118Y005827D02*
X002618Y005827D01*
X003118Y005827D01*
X003118Y005876D02*
X002618Y005876D01*
X003118Y005876D01*
X003118Y005924D02*
X002618Y005924D01*
X003118Y005924D01*
X003118Y005973D02*
X002618Y005973D01*
X003118Y005973D01*
X003118Y006021D02*
X002618Y006021D01*
X003118Y006021D01*
X003118Y006070D02*
X002618Y006070D01*
X003118Y006070D01*
X003118Y006118D02*
X002618Y006118D01*
X003118Y006118D01*
X003118Y006167D02*
X002618Y006167D01*
X003118Y006167D01*
X003118Y006215D02*
X002618Y006215D01*
X003118Y006215D01*
X003118Y006264D02*
X002618Y006264D01*
X003118Y006264D01*
X003118Y006312D02*
X002618Y006312D01*
X003118Y006312D01*
X003118Y006361D02*
X002618Y006361D01*
X003118Y006361D01*
X003118Y006409D02*
X002618Y006409D01*
X003118Y006409D01*
X003118Y006458D02*
X002618Y006458D01*
X003118Y006458D01*
X003118Y006506D02*
X002618Y006506D01*
X003118Y006506D01*
X003118Y006555D02*
X002618Y006555D01*
X003118Y006555D01*
X003118Y006603D02*
X002618Y006603D01*
X003118Y006603D01*
X003118Y006652D02*
X002618Y006652D01*
X003118Y006652D01*
X003118Y006700D02*
X002618Y006700D01*
X003118Y006700D01*
X003118Y006749D02*
X002618Y006749D01*
X003118Y006749D01*
X003118Y006797D02*
X002618Y006797D01*
X003118Y006797D01*
X003118Y006846D02*
X002618Y006846D01*
X003118Y006846D01*
X003118Y006894D02*
X002618Y006894D01*
X003118Y006894D01*
X003118Y006943D02*
X002618Y006943D01*
X003118Y006943D01*
X003118Y006991D02*
X002618Y006991D01*
X003118Y006991D01*
X003118Y007040D02*
X002618Y007040D01*
X003118Y007040D01*
X003118Y007088D02*
X002618Y007088D01*
X003118Y007088D01*
X003118Y007137D02*
X002618Y007137D01*
X003118Y007137D01*
X003118Y007185D02*
X002618Y007185D01*
X003118Y007185D01*
X003118Y007234D02*
X002618Y007234D01*
X003118Y007234D01*
X003118Y007282D02*
X002618Y007282D01*
X003118Y007282D01*
X003118Y007331D02*
X002618Y007331D01*
X003118Y007331D01*
X003118Y007379D02*
X002618Y007379D01*
X003118Y007379D01*
X003118Y007428D02*
X002618Y007428D01*
X003118Y007428D01*
X003118Y007476D02*
X002618Y007476D01*
X003118Y007476D01*
X003118Y007525D02*
X002618Y007525D01*
X003118Y007525D01*
X003118Y007573D02*
X002618Y007573D01*
X003118Y007573D01*
X003118Y007622D02*
X002618Y007622D01*
X003118Y007622D01*
X003118Y007670D02*
X002618Y007670D01*
X003118Y007670D01*
X003118Y007719D02*
X002618Y007719D01*
X003118Y007719D01*
X003118Y007767D02*
X002618Y007767D01*
X003118Y007767D01*
X003118Y007816D02*
X002618Y007816D01*
X003118Y007816D01*
X003118Y007864D02*
X002618Y007864D01*
X003118Y007864D01*
X003118Y007913D02*
X002618Y007913D01*
X003118Y007913D01*
X003118Y007961D02*
X002618Y007961D01*
X003118Y007961D01*
X003118Y008010D02*
X002618Y008010D01*
X003118Y008010D01*
X003118Y008058D02*
X002618Y008058D01*
X003118Y008058D01*
X003118Y008107D02*
X002618Y008107D01*
X003118Y008107D01*
X003118Y008155D02*
X002618Y008155D01*
X003118Y008155D01*
X003118Y008204D02*
X002618Y008204D01*
X003118Y008204D01*
X003118Y008252D02*
X002618Y008252D01*
X003118Y008252D01*
X003118Y008301D02*
X002618Y008301D01*
X003118Y008301D01*
X003118Y008349D02*
X002618Y008349D01*
X003118Y008349D01*
X003118Y008398D02*
X002618Y008398D01*
X003118Y008398D01*
X003118Y008446D02*
X002618Y008446D01*
X003118Y008446D01*
X003118Y008495D02*
X002618Y008495D01*
X003118Y008495D01*
X003118Y008543D02*
X002618Y008543D01*
X003118Y008543D01*
X003118Y008592D02*
X002618Y008592D01*
X003118Y008592D01*
X003118Y008640D02*
X002618Y008640D01*
X003118Y008640D01*
X003118Y008689D02*
X002618Y008689D01*
X003118Y008689D01*
X003118Y008737D02*
X002618Y008737D01*
X003118Y008737D01*
X003118Y008786D02*
X002618Y008786D01*
X003118Y008786D01*
X003118Y008834D02*
X002618Y008834D01*
X003118Y008834D01*
X003118Y008883D02*
X002618Y008883D01*
X003118Y008883D01*
X003118Y008931D02*
X002618Y008931D01*
X003118Y008931D01*
X003118Y008980D02*
X002618Y008980D01*
X003118Y008980D01*
X002100Y007410D02*
X002102Y007528D01*
X002108Y007646D01*
X002118Y007764D01*
X002132Y007881D01*
X002150Y007998D01*
X002172Y008115D01*
X002197Y008230D01*
X002227Y008344D01*
X002261Y008458D01*
X002298Y008570D01*
X002339Y008681D01*
X002384Y008790D01*
X002432Y008898D01*
X002484Y009004D01*
X002540Y009109D01*
X002599Y009211D01*
X002661Y009311D01*
X002727Y009409D01*
X002796Y009505D01*
X002869Y009599D01*
X002944Y009690D01*
X003023Y009778D01*
X003104Y009864D01*
X003189Y009947D01*
X003276Y010027D01*
X003365Y010104D01*
X003458Y010178D01*
X003552Y010248D01*
X003649Y010316D01*
X003749Y010380D01*
X003850Y010441D01*
X003953Y010498D01*
X004059Y010552D01*
X004166Y010603D01*
X004274Y010649D01*
X004384Y010692D01*
X004496Y010731D01*
X004609Y010767D01*
X004723Y010798D01*
X004838Y010826D01*
X004953Y010850D01*
X005070Y010870D01*
X005187Y010886D01*
X005305Y010898D01*
X005423Y010906D01*
X005541Y010910D01*
X005659Y010910D01*
X005777Y010906D01*
X005895Y010898D01*
X006013Y010886D01*
X006130Y010870D01*
X006247Y010850D01*
X006362Y010826D01*
X006477Y010798D01*
X006591Y010767D01*
X006704Y010731D01*
X006816Y010692D01*
X006926Y010649D01*
X007034Y010603D01*
X007141Y010552D01*
X007247Y010498D01*
X007350Y010441D01*
X007451Y010380D01*
X007551Y010316D01*
X007648Y010248D01*
X007742Y010178D01*
X007835Y010104D01*
X007924Y010027D01*
X008011Y009947D01*
X008096Y009864D01*
X008177Y009778D01*
X008256Y009690D01*
X008331Y009599D01*
X008404Y009505D01*
X008473Y009409D01*
X008539Y009311D01*
X008601Y009211D01*
X008660Y009109D01*
X008716Y009004D01*
X008768Y008898D01*
X008816Y008790D01*
X008861Y008681D01*
X008902Y008570D01*
X008939Y008458D01*
X008973Y008344D01*
X009003Y008230D01*
X009028Y008115D01*
X009050Y007998D01*
X009068Y007881D01*
X009082Y007764D01*
X009092Y007646D01*
X009098Y007528D01*
X009100Y007410D01*
X009098Y007292D01*
X009092Y007174D01*
X009082Y007056D01*
X009068Y006939D01*
X009050Y006822D01*
X009028Y006705D01*
X009003Y006590D01*
X008973Y006476D01*
X008939Y006362D01*
X008902Y006250D01*
X008861Y006139D01*
X008816Y006030D01*
X008768Y005922D01*
X008716Y005816D01*
X008660Y005711D01*
X008601Y005609D01*
X008539Y005509D01*
X008473Y005411D01*
X008404Y005315D01*
X008331Y005221D01*
X008256Y005130D01*
X008177Y005042D01*
X008096Y004956D01*
X008011Y004873D01*
X007924Y004793D01*
X007835Y004716D01*
X007742Y004642D01*
X007648Y004572D01*
X007551Y004504D01*
X007451Y004440D01*
X007350Y004379D01*
X007247Y004322D01*
X007141Y004268D01*
X007034Y004217D01*
X006926Y004171D01*
X006816Y004128D01*
X006704Y004089D01*
X006591Y004053D01*
X006477Y004022D01*
X006362Y003994D01*
X006247Y003970D01*
X006130Y003950D01*
X006013Y003934D01*
X005895Y003922D01*
X005777Y003914D01*
X005659Y003910D01*
X005541Y003910D01*
X005423Y003914D01*
X005305Y003922D01*
X005187Y003934D01*
X005070Y003950D01*
X004953Y003970D01*
X004838Y003994D01*
X004723Y004022D01*
X004609Y004053D01*
X004496Y004089D01*
X004384Y004128D01*
X004274Y004171D01*
X004166Y004217D01*
X004059Y004268D01*
X003953Y004322D01*
X003850Y004379D01*
X003749Y004440D01*
X003649Y004504D01*
X003552Y004572D01*
X003458Y004642D01*
X003365Y004716D01*
X003276Y004793D01*
X003189Y004873D01*
X003104Y004956D01*
X003023Y005042D01*
X002944Y005130D01*
X002869Y005221D01*
X002796Y005315D01*
X002727Y005411D01*
X002661Y005509D01*
X002599Y005609D01*
X002540Y005711D01*
X002484Y005816D01*
X002432Y005922D01*
X002384Y006030D01*
X002339Y006139D01*
X002298Y006250D01*
X002261Y006362D01*
X002227Y006476D01*
X002197Y006590D01*
X002172Y006705D01*
X002150Y006822D01*
X002132Y006939D01*
X002118Y007056D01*
X002108Y007174D01*
X002102Y007292D01*
X002100Y007410D01*
X002102Y007528D01*
X002108Y007646D01*
X002118Y007764D01*
X002132Y007881D01*
X002150Y007998D01*
X002172Y008115D01*
X002197Y008230D01*
X002227Y008344D01*
X002261Y008458D01*
X002298Y008570D01*
X002339Y008681D01*
X002384Y008790D01*
X002432Y008898D01*
X002484Y009004D01*
X002540Y009109D01*
X002599Y009211D01*
X002661Y009311D01*
X002727Y009409D01*
X002796Y009505D01*
X002869Y009599D01*
X002944Y009690D01*
X003023Y009778D01*
X003104Y009864D01*
X003189Y009947D01*
X003276Y010027D01*
X003365Y010104D01*
X003458Y010178D01*
X003552Y010248D01*
X003649Y010316D01*
X003749Y010380D01*
X003850Y010441D01*
X003953Y010498D01*
X004059Y010552D01*
X004166Y010603D01*
X004274Y010649D01*
X004384Y010692D01*
X004496Y010731D01*
X004609Y010767D01*
X004723Y010798D01*
X004838Y010826D01*
X004953Y010850D01*
X005070Y010870D01*
X005187Y010886D01*
X005305Y010898D01*
X005423Y010906D01*
X005541Y010910D01*
X005659Y010910D01*
X005777Y010906D01*
X005895Y010898D01*
X006013Y010886D01*
X006130Y010870D01*
X006247Y010850D01*
X006362Y010826D01*
X006477Y010798D01*
X006591Y010767D01*
X006704Y010731D01*
X006816Y010692D01*
X006926Y010649D01*
X007034Y010603D01*
X007141Y010552D01*
X007247Y010498D01*
X007350Y010441D01*
X007451Y010380D01*
X007551Y010316D01*
X007648Y010248D01*
X007742Y010178D01*
X007835Y010104D01*
X007924Y010027D01*
X008011Y009947D01*
X008096Y009864D01*
X008177Y009778D01*
X008256Y009690D01*
X008331Y009599D01*
X008404Y009505D01*
X008473Y009409D01*
X008539Y009311D01*
X008601Y009211D01*
X008660Y009109D01*
X008716Y009004D01*
X008768Y008898D01*
X008816Y008790D01*
X008861Y008681D01*
X008902Y008570D01*
X008939Y008458D01*
X008973Y008344D01*
X009003Y008230D01*
X009028Y008115D01*
X009050Y007998D01*
X009068Y007881D01*
X009082Y007764D01*
X009092Y007646D01*
X009098Y007528D01*
X009100Y007410D01*
X009098Y007292D01*
X009092Y007174D01*
X009082Y007056D01*
X009068Y006939D01*
X009050Y006822D01*
X009028Y006705D01*
X009003Y006590D01*
X008973Y006476D01*
X008939Y006362D01*
X008902Y006250D01*
X008861Y006139D01*
X008816Y006030D01*
X008768Y005922D01*
X008716Y005816D01*
X008660Y005711D01*
X008601Y005609D01*
X008539Y005509D01*
X008473Y005411D01*
X008404Y005315D01*
X008331Y005221D01*
X008256Y005130D01*
X008177Y005042D01*
X008096Y004956D01*
X008011Y004873D01*
X007924Y004793D01*
X007835Y004716D01*
X007742Y004642D01*
X007648Y004572D01*
X007551Y004504D01*
X007451Y004440D01*
X007350Y004379D01*
X007247Y004322D01*
X007141Y004268D01*
X007034Y004217D01*
X006926Y004171D01*
X006816Y004128D01*
X006704Y004089D01*
X006591Y004053D01*
X006477Y004022D01*
X006362Y003994D01*
X006247Y003970D01*
X006130Y003950D01*
X006013Y003934D01*
X005895Y003922D01*
X005777Y003914D01*
X005659Y003910D01*
X005541Y003910D01*
X005423Y003914D01*
X005305Y003922D01*
X005187Y003934D01*
X005070Y003950D01*
X004953Y003970D01*
X004838Y003994D01*
X004723Y004022D01*
X004609Y004053D01*
X004496Y004089D01*
X004384Y004128D01*
X004274Y004171D01*
X004166Y004217D01*
X004059Y004268D01*
X003953Y004322D01*
X003850Y004379D01*
X003749Y004440D01*
X003649Y004504D01*
X003552Y004572D01*
X003458Y004642D01*
X003365Y004716D01*
X003276Y004793D01*
X003189Y004873D01*
X003104Y004956D01*
X003023Y005042D01*
X002944Y005130D01*
X002869Y005221D01*
X002796Y005315D01*
X002727Y005411D01*
X002661Y005509D01*
X002599Y005609D01*
X002540Y005711D01*
X002484Y005816D01*
X002432Y005922D01*
X002384Y006030D01*
X002339Y006139D01*
X002298Y006250D01*
X002261Y006362D01*
X002227Y006476D01*
X002197Y006590D01*
X002172Y006705D01*
X002150Y006822D01*
X002132Y006939D01*
X002118Y007056D01*
X002108Y007174D01*
X002102Y007292D01*
X002100Y007410D01*
X002618Y020633D02*
X003118Y020633D01*
X003118Y024010D01*
X002618Y024010D01*
X002618Y020633D01*
X003118Y020633D01*
X003118Y024010D01*
X002618Y024010D01*
X002618Y020633D01*
X002618Y020668D02*
X003118Y020668D01*
X002618Y020668D01*
X002618Y020717D02*
X003118Y020717D01*
X002618Y020717D01*
X002618Y020765D02*
X003118Y020765D01*
X002618Y020765D01*
X002618Y020814D02*
X003118Y020814D01*
X002618Y020814D01*
X002618Y020862D02*
X003118Y020862D01*
X002618Y020862D01*
X002618Y020911D02*
X003118Y020911D01*
X002618Y020911D01*
X002618Y020959D02*
X003118Y020959D01*
X002618Y020959D01*
X002618Y021008D02*
X003118Y021008D01*
X002618Y021008D01*
X002618Y021056D02*
X003118Y021056D01*
X002618Y021056D01*
X002618Y021105D02*
X003118Y021105D01*
X002618Y021105D01*
X002618Y021153D02*
X003118Y021153D01*
X002618Y021153D01*
X002618Y021202D02*
X003118Y021202D01*
X002618Y021202D01*
X002618Y021250D02*
X003118Y021250D01*
X002618Y021250D01*
X002618Y021299D02*
X003118Y021299D01*
X002618Y021299D01*
X002618Y021347D02*
X003118Y021347D01*
X002618Y021347D01*
X002618Y021396D02*
X003118Y021396D01*
X002618Y021396D01*
X002618Y021444D02*
X003118Y021444D01*
X002618Y021444D01*
X002618Y021493D02*
X003118Y021493D01*
X002618Y021493D01*
X002618Y021541D02*
X003118Y021541D01*
X002618Y021541D01*
X002618Y021590D02*
X003118Y021590D01*
X002618Y021590D01*
X002618Y021638D02*
X003118Y021638D01*
X002618Y021638D01*
X002618Y021687D02*
X003118Y021687D01*
X002618Y021687D01*
X002618Y021735D02*
X003118Y021735D01*
X002618Y021735D01*
X002618Y021784D02*
X003118Y021784D01*
X002618Y021784D01*
X002618Y021832D02*
X003118Y021832D01*
X002618Y021832D01*
X002618Y021881D02*
X003118Y021881D01*
X002618Y021881D01*
X002618Y021929D02*
X003118Y021929D01*
X002618Y021929D01*
X002618Y021978D02*
X003118Y021978D01*
X002618Y021978D01*
X002618Y022026D02*
X003118Y022026D01*
X002618Y022026D01*
X002618Y022075D02*
X003118Y022075D01*
X002618Y022075D01*
X002618Y022123D02*
X003118Y022123D01*
X002618Y022123D01*
X002618Y022172D02*
X003118Y022172D01*
X002618Y022172D01*
X002618Y022220D02*
X003118Y022220D01*
X002618Y022220D01*
X002618Y022269D02*
X003118Y022269D01*
X002618Y022269D01*
X002618Y022317D02*
X003118Y022317D01*
X002618Y022317D01*
X002618Y022366D02*
X003118Y022366D01*
X002618Y022366D01*
X002618Y022414D02*
X003118Y022414D01*
X002618Y022414D01*
X002618Y022463D02*
X003118Y022463D01*
X002618Y022463D01*
X002618Y022511D02*
X003118Y022511D01*
X002618Y022511D01*
X002618Y022560D02*
X003118Y022560D01*
X002618Y022560D01*
X002618Y022608D02*
X003118Y022608D01*
X002618Y022608D01*
X002618Y022657D02*
X003118Y022657D01*
X002618Y022657D01*
X002618Y022705D02*
X003118Y022705D01*
X002618Y022705D01*
X002618Y022754D02*
X003118Y022754D01*
X002618Y022754D01*
X002618Y022802D02*
X003118Y022802D01*
X002618Y022802D01*
X002618Y022851D02*
X003118Y022851D01*
X002618Y022851D01*
X002618Y022899D02*
X003118Y022899D01*
X002618Y022899D01*
X002618Y022948D02*
X003118Y022948D01*
X002618Y022948D01*
X002618Y022996D02*
X003118Y022996D01*
X002618Y022996D01*
X002618Y023045D02*
X003118Y023045D01*
X002618Y023045D01*
X002618Y023093D02*
X003118Y023093D01*
X002618Y023093D01*
X002618Y023142D02*
X003118Y023142D01*
X002618Y023142D01*
X002618Y023190D02*
X003118Y023190D01*
X002618Y023190D01*
X002618Y023239D02*
X003118Y023239D01*
X002618Y023239D01*
X002618Y023287D02*
X003118Y023287D01*
X002618Y023287D01*
X002618Y023336D02*
X003118Y023336D01*
X002618Y023336D01*
X002618Y023384D02*
X003118Y023384D01*
X002618Y023384D01*
X002618Y023433D02*
X003118Y023433D01*
X002618Y023433D01*
X002618Y023481D02*
X003118Y023481D01*
X002618Y023481D01*
X002618Y023530D02*
X003118Y023530D01*
X002618Y023530D01*
X002618Y023578D02*
X003118Y023578D01*
X002618Y023578D01*
X002618Y023627D02*
X003118Y023627D01*
X002618Y023627D01*
X002618Y023675D02*
X003118Y023675D01*
X002618Y023675D01*
X002618Y023724D02*
X003118Y023724D01*
X002618Y023724D01*
X002618Y023772D02*
X003118Y023772D01*
X002618Y023772D01*
X002618Y023821D02*
X003118Y023821D01*
X002618Y023821D01*
X002618Y023869D02*
X003118Y023869D01*
X002618Y023869D01*
X002618Y023918D02*
X003118Y023918D01*
X002618Y023918D01*
X002618Y023966D02*
X003118Y023966D01*
X002618Y023966D01*
X002100Y022410D02*
X002102Y022528D01*
X002108Y022646D01*
X002118Y022764D01*
X002132Y022881D01*
X002150Y022998D01*
X002172Y023115D01*
X002197Y023230D01*
X002227Y023344D01*
X002261Y023458D01*
X002298Y023570D01*
X002339Y023681D01*
X002384Y023790D01*
X002432Y023898D01*
X002484Y024004D01*
X002540Y024109D01*
X002599Y024211D01*
X002661Y024311D01*
X002727Y024409D01*
X002796Y024505D01*
X002869Y024599D01*
X002944Y024690D01*
X003023Y024778D01*
X003104Y024864D01*
X003189Y024947D01*
X003276Y025027D01*
X003365Y025104D01*
X003458Y025178D01*
X003552Y025248D01*
X003649Y025316D01*
X003749Y025380D01*
X003850Y025441D01*
X003953Y025498D01*
X004059Y025552D01*
X004166Y025603D01*
X004274Y025649D01*
X004384Y025692D01*
X004496Y025731D01*
X004609Y025767D01*
X004723Y025798D01*
X004838Y025826D01*
X004953Y025850D01*
X005070Y025870D01*
X005187Y025886D01*
X005305Y025898D01*
X005423Y025906D01*
X005541Y025910D01*
X005659Y025910D01*
X005777Y025906D01*
X005895Y025898D01*
X006013Y025886D01*
X006130Y025870D01*
X006247Y025850D01*
X006362Y025826D01*
X006477Y025798D01*
X006591Y025767D01*
X006704Y025731D01*
X006816Y025692D01*
X006926Y025649D01*
X007034Y025603D01*
X007141Y025552D01*
X007247Y025498D01*
X007350Y025441D01*
X007451Y025380D01*
X007551Y025316D01*
X007648Y025248D01*
X007742Y025178D01*
X007835Y025104D01*
X007924Y025027D01*
X008011Y024947D01*
X008096Y024864D01*
X008177Y024778D01*
X008256Y024690D01*
X008331Y024599D01*
X008404Y024505D01*
X008473Y024409D01*
X008539Y024311D01*
X008601Y024211D01*
X008660Y024109D01*
X008716Y024004D01*
X008768Y023898D01*
X008816Y023790D01*
X008861Y023681D01*
X008902Y023570D01*
X008939Y023458D01*
X008973Y023344D01*
X009003Y023230D01*
X009028Y023115D01*
X009050Y022998D01*
X009068Y022881D01*
X009082Y022764D01*
X009092Y022646D01*
X009098Y022528D01*
X009100Y022410D01*
X009098Y022292D01*
X009092Y022174D01*
X009082Y022056D01*
X009068Y021939D01*
X009050Y021822D01*
X009028Y021705D01*
X009003Y021590D01*
X008973Y021476D01*
X008939Y021362D01*
X008902Y021250D01*
X008861Y021139D01*
X008816Y021030D01*
X008768Y020922D01*
X008716Y020816D01*
X008660Y020711D01*
X008601Y020609D01*
X008539Y020509D01*
X008473Y020411D01*
X008404Y020315D01*
X008331Y020221D01*
X008256Y020130D01*
X008177Y020042D01*
X008096Y019956D01*
X008011Y019873D01*
X007924Y019793D01*
X007835Y019716D01*
X007742Y019642D01*
X007648Y019572D01*
X007551Y019504D01*
X007451Y019440D01*
X007350Y019379D01*
X007247Y019322D01*
X007141Y019268D01*
X007034Y019217D01*
X006926Y019171D01*
X006816Y019128D01*
X006704Y019089D01*
X006591Y019053D01*
X006477Y019022D01*
X006362Y018994D01*
X006247Y018970D01*
X006130Y018950D01*
X006013Y018934D01*
X005895Y018922D01*
X005777Y018914D01*
X005659Y018910D01*
X005541Y018910D01*
X005423Y018914D01*
X005305Y018922D01*
X005187Y018934D01*
X005070Y018950D01*
X004953Y018970D01*
X004838Y018994D01*
X004723Y019022D01*
X004609Y019053D01*
X004496Y019089D01*
X004384Y019128D01*
X004274Y019171D01*
X004166Y019217D01*
X004059Y019268D01*
X003953Y019322D01*
X003850Y019379D01*
X003749Y019440D01*
X003649Y019504D01*
X003552Y019572D01*
X003458Y019642D01*
X003365Y019716D01*
X003276Y019793D01*
X003189Y019873D01*
X003104Y019956D01*
X003023Y020042D01*
X002944Y020130D01*
X002869Y020221D01*
X002796Y020315D01*
X002727Y020411D01*
X002661Y020509D01*
X002599Y020609D01*
X002540Y020711D01*
X002484Y020816D01*
X002432Y020922D01*
X002384Y021030D01*
X002339Y021139D01*
X002298Y021250D01*
X002261Y021362D01*
X002227Y021476D01*
X002197Y021590D01*
X002172Y021705D01*
X002150Y021822D01*
X002132Y021939D01*
X002118Y022056D01*
X002108Y022174D01*
X002102Y022292D01*
X002100Y022410D01*
X002102Y022528D01*
X002108Y022646D01*
X002118Y022764D01*
X002132Y022881D01*
X002150Y022998D01*
X002172Y023115D01*
X002197Y023230D01*
X002227Y023344D01*
X002261Y023458D01*
X002298Y023570D01*
X002339Y023681D01*
X002384Y023790D01*
X002432Y023898D01*
X002484Y024004D01*
X002540Y024109D01*
X002599Y024211D01*
X002661Y024311D01*
X002727Y024409D01*
X002796Y024505D01*
X002869Y024599D01*
X002944Y024690D01*
X003023Y024778D01*
X003104Y024864D01*
X003189Y024947D01*
X003276Y025027D01*
X003365Y025104D01*
X003458Y025178D01*
X003552Y025248D01*
X003649Y025316D01*
X003749Y025380D01*
X003850Y025441D01*
X003953Y025498D01*
X004059Y025552D01*
X004166Y025603D01*
X004274Y025649D01*
X004384Y025692D01*
X004496Y025731D01*
X004609Y025767D01*
X004723Y025798D01*
X004838Y025826D01*
X004953Y025850D01*
X005070Y025870D01*
X005187Y025886D01*
X005305Y025898D01*
X005423Y025906D01*
X005541Y025910D01*
X005659Y025910D01*
X005777Y025906D01*
X005895Y025898D01*
X006013Y025886D01*
X006130Y025870D01*
X006247Y025850D01*
X006362Y025826D01*
X006477Y025798D01*
X006591Y025767D01*
X006704Y025731D01*
X006816Y025692D01*
X006926Y025649D01*
X007034Y025603D01*
X007141Y025552D01*
X007247Y025498D01*
X007350Y025441D01*
X007451Y025380D01*
X007551Y025316D01*
X007648Y025248D01*
X007742Y025178D01*
X007835Y025104D01*
X007924Y025027D01*
X008011Y024947D01*
X008096Y024864D01*
X008177Y024778D01*
X008256Y024690D01*
X008331Y024599D01*
X008404Y024505D01*
X008473Y024409D01*
X008539Y024311D01*
X008601Y024211D01*
X008660Y024109D01*
X008716Y024004D01*
X008768Y023898D01*
X008816Y023790D01*
X008861Y023681D01*
X008902Y023570D01*
X008939Y023458D01*
X008973Y023344D01*
X009003Y023230D01*
X009028Y023115D01*
X009050Y022998D01*
X009068Y022881D01*
X009082Y022764D01*
X009092Y022646D01*
X009098Y022528D01*
X009100Y022410D01*
X009098Y022292D01*
X009092Y022174D01*
X009082Y022056D01*
X009068Y021939D01*
X009050Y021822D01*
X009028Y021705D01*
X009003Y021590D01*
X008973Y021476D01*
X008939Y021362D01*
X008902Y021250D01*
X008861Y021139D01*
X008816Y021030D01*
X008768Y020922D01*
X008716Y020816D01*
X008660Y020711D01*
X008601Y020609D01*
X008539Y020509D01*
X008473Y020411D01*
X008404Y020315D01*
X008331Y020221D01*
X008256Y020130D01*
X008177Y020042D01*
X008096Y019956D01*
X008011Y019873D01*
X007924Y019793D01*
X007835Y019716D01*
X007742Y019642D01*
X007648Y019572D01*
X007551Y019504D01*
X007451Y019440D01*
X007350Y019379D01*
X007247Y019322D01*
X007141Y019268D01*
X007034Y019217D01*
X006926Y019171D01*
X006816Y019128D01*
X006704Y019089D01*
X006591Y019053D01*
X006477Y019022D01*
X006362Y018994D01*
X006247Y018970D01*
X006130Y018950D01*
X006013Y018934D01*
X005895Y018922D01*
X005777Y018914D01*
X005659Y018910D01*
X005541Y018910D01*
X005423Y018914D01*
X005305Y018922D01*
X005187Y018934D01*
X005070Y018950D01*
X004953Y018970D01*
X004838Y018994D01*
X004723Y019022D01*
X004609Y019053D01*
X004496Y019089D01*
X004384Y019128D01*
X004274Y019171D01*
X004166Y019217D01*
X004059Y019268D01*
X003953Y019322D01*
X003850Y019379D01*
X003749Y019440D01*
X003649Y019504D01*
X003552Y019572D01*
X003458Y019642D01*
X003365Y019716D01*
X003276Y019793D01*
X003189Y019873D01*
X003104Y019956D01*
X003023Y020042D01*
X002944Y020130D01*
X002869Y020221D01*
X002796Y020315D01*
X002727Y020411D01*
X002661Y020509D01*
X002599Y020609D01*
X002540Y020711D01*
X002484Y020816D01*
X002432Y020922D01*
X002384Y021030D01*
X002339Y021139D01*
X002298Y021250D01*
X002261Y021362D01*
X002227Y021476D01*
X002197Y021590D01*
X002172Y021705D01*
X002150Y021822D01*
X002132Y021939D01*
X002118Y022056D01*
X002108Y022174D01*
X002102Y022292D01*
X002100Y022410D01*
X011375Y022333D02*
X011375Y022446D01*
X011431Y022503D01*
X011488Y022503D01*
X011545Y022446D01*
X011602Y022503D01*
X011658Y022503D01*
X011715Y022446D01*
X011715Y022333D01*
X011658Y022276D01*
X011545Y022389D02*
X011545Y022446D01*
X011431Y022276D02*
X011375Y022333D01*
X011715Y020453D02*
X011715Y020226D01*
X011715Y020339D02*
X011375Y020339D01*
X011488Y020226D01*
X014875Y021125D02*
X015325Y021125D01*
X015325Y020975D02*
X015325Y021275D01*
X015025Y020975D02*
X014875Y021125D01*
X012175Y025785D02*
X011875Y025785D01*
X012025Y025785D02*
X012025Y026235D01*
X011875Y026085D01*
X011875Y026785D02*
X012175Y026785D01*
X012025Y026785D02*
X012025Y027235D01*
X011875Y027085D01*
X011875Y027785D02*
X012175Y027785D01*
X012025Y027785D02*
X012025Y028235D01*
X011875Y028085D01*
X016875Y027810D02*
X017100Y027810D01*
X017175Y027735D01*
X017175Y027660D01*
X017100Y027585D01*
X016950Y027585D01*
X016875Y027660D01*
X016875Y027810D01*
X017025Y027960D01*
X017175Y028035D01*
X017100Y028585D02*
X017175Y028660D01*
X017175Y028735D01*
X017100Y028810D01*
X016875Y028810D01*
X016875Y028660D01*
X016950Y028585D01*
X017100Y028585D01*
X016875Y028810D02*
X017025Y028960D01*
X017175Y029035D01*
X017100Y029585D02*
X017175Y029660D01*
X017175Y029735D01*
X017100Y029810D01*
X016875Y029810D01*
X016875Y029660D01*
X016950Y029585D01*
X017100Y029585D01*
X016875Y029810D02*
X017025Y029960D01*
X017175Y030035D01*
X014425Y014525D02*
X014425Y014225D01*
X014425Y014375D02*
X013975Y014375D01*
X014125Y014225D01*
X015775Y009525D02*
X015850Y009375D01*
X016000Y009225D01*
X016000Y009450D01*
X016075Y009525D01*
X016150Y009525D01*
X016225Y009450D01*
X016225Y009300D01*
X016150Y009225D01*
X016000Y009225D01*
X017225Y002985D02*
X017075Y002910D01*
X016925Y002760D01*
X017150Y002760D01*
X017225Y002685D01*
X017225Y002610D01*
X017150Y002535D01*
X017000Y002535D01*
X016925Y002610D01*
X016925Y002760D01*
X017225Y001985D02*
X017075Y001910D01*
X016925Y001760D01*
X017150Y001760D01*
X017225Y001685D01*
X017225Y001610D01*
X017150Y001535D01*
X017000Y001535D01*
X016925Y001610D01*
X016925Y001760D01*
X012225Y001535D02*
X011925Y001535D01*
X012075Y001535D02*
X012075Y001985D01*
X011925Y001835D01*
X011925Y002535D02*
X012225Y002535D01*
X012075Y002535D02*
X012075Y002985D01*
X011925Y002835D01*
X011715Y006726D02*
X011715Y006953D01*
X011715Y006839D02*
X011375Y006839D01*
X011488Y006726D01*
X011431Y008776D02*
X011375Y008833D01*
X011375Y008946D01*
X011431Y009003D01*
X011488Y009003D01*
X011545Y008946D01*
X011602Y009003D01*
X011658Y009003D01*
X011715Y008946D01*
X011715Y008833D01*
X011658Y008776D01*
X011545Y008889D02*
X011545Y008946D01*
D12*
X011800Y008710D02*
X011900Y008610D01*
X012000Y008060D02*
X012000Y007760D01*
X012300Y007760D01*
X012450Y007610D01*
X012450Y007310D01*
X012750Y007310D01*
X012750Y007610D01*
X012900Y007760D01*
X013000Y007760D01*
X013000Y007660D01*
X013250Y007910D01*
X013000Y008160D01*
X013000Y008060D01*
X012900Y008060D01*
X012750Y008210D01*
X012750Y008510D01*
X012450Y008510D01*
X012450Y008210D01*
X012300Y008060D01*
X012000Y008060D01*
X011900Y007210D02*
X011800Y007110D01*
X011300Y006510D02*
X013900Y006510D01*
X014000Y006610D01*
X014000Y009210D01*
X013900Y009310D01*
X011300Y009310D01*
X011200Y009210D01*
X011200Y006610D01*
X011300Y006510D01*
X013250Y007210D02*
X013350Y007110D01*
X013570Y007910D02*
X013720Y007910D01*
X013250Y008660D02*
X013350Y008760D01*
X014600Y009160D02*
X014600Y009660D01*
X014850Y009910D01*
X014600Y010160D01*
X014600Y010660D01*
X014850Y010910D01*
X014600Y011160D01*
X014600Y011660D01*
X014850Y011910D01*
X014600Y012160D01*
X014600Y012660D01*
X014850Y012910D01*
X014600Y013160D01*
X014600Y013660D01*
X014850Y013910D01*
X014600Y014160D01*
X014600Y014660D01*
X014850Y014910D01*
X015350Y014910D01*
X015600Y014660D01*
X015600Y014160D01*
X015350Y013910D01*
X015600Y013660D01*
X015600Y013160D01*
X015350Y012910D01*
X015600Y012660D01*
X015600Y012160D01*
X015350Y011910D01*
X015600Y011660D01*
X015600Y011160D01*
X015350Y010910D01*
X015600Y010660D01*
X015600Y010160D01*
X015350Y009910D01*
X015600Y009660D01*
X015600Y009160D01*
X015350Y008910D01*
X014850Y008910D01*
X014600Y009160D01*
X012600Y011110D02*
X012600Y011710D01*
X012598Y011727D01*
X012594Y011744D01*
X012587Y011760D01*
X012577Y011774D01*
X012564Y011787D01*
X012550Y011797D01*
X012534Y011804D01*
X012517Y011808D01*
X012500Y011810D01*
X012350Y011810D01*
X012300Y011760D01*
X010900Y011760D01*
X010850Y011810D01*
X010700Y011810D01*
X010683Y011808D01*
X010666Y011804D01*
X010650Y011797D01*
X010636Y011787D01*
X010623Y011774D01*
X010613Y011760D01*
X010606Y011744D01*
X010602Y011727D01*
X010600Y011710D01*
X010600Y011110D01*
X010602Y011093D01*
X010606Y011076D01*
X010613Y011060D01*
X010623Y011046D01*
X010636Y011033D01*
X010650Y011023D01*
X010666Y011016D01*
X010683Y011012D01*
X010700Y011010D01*
X010850Y011010D01*
X010900Y011060D01*
X012300Y011060D01*
X012350Y011010D01*
X012500Y011010D01*
X012517Y011012D01*
X012534Y011016D01*
X012550Y011023D01*
X012564Y011033D01*
X012577Y011046D01*
X012587Y011060D01*
X012594Y011076D01*
X012598Y011093D01*
X012600Y011110D01*
X011500Y012510D02*
X011350Y012510D01*
X011300Y012560D01*
X009900Y012560D01*
X009850Y012510D01*
X009700Y012510D01*
X009683Y012512D01*
X009666Y012516D01*
X009650Y012523D01*
X009636Y012533D01*
X009623Y012546D01*
X009613Y012560D01*
X009606Y012576D01*
X009602Y012593D01*
X009600Y012610D01*
X009600Y013210D01*
X009602Y013227D01*
X009606Y013244D01*
X009613Y013260D01*
X009623Y013274D01*
X009636Y013287D01*
X009650Y013297D01*
X009666Y013304D01*
X009683Y013308D01*
X009700Y013310D01*
X009850Y013310D01*
X009900Y013260D01*
X011300Y013260D01*
X011350Y013310D01*
X011500Y013310D01*
X011517Y013308D01*
X011534Y013304D01*
X011550Y013297D01*
X011564Y013287D01*
X011577Y013274D01*
X011587Y013260D01*
X011594Y013244D01*
X011598Y013227D01*
X011600Y013210D01*
X011600Y012610D01*
X011598Y012593D01*
X011594Y012576D01*
X011587Y012560D01*
X011577Y012546D01*
X011564Y012533D01*
X011550Y012523D01*
X011534Y012516D01*
X011517Y012512D01*
X011500Y012510D01*
X011500Y016010D02*
X011350Y016010D01*
X011300Y016060D01*
X009900Y016060D01*
X009850Y016010D01*
X009700Y016010D01*
X009683Y016012D01*
X009666Y016016D01*
X009650Y016023D01*
X009636Y016033D01*
X009623Y016046D01*
X009613Y016060D01*
X009606Y016076D01*
X009602Y016093D01*
X009600Y016110D01*
X009600Y016710D01*
X009602Y016727D01*
X009606Y016744D01*
X009613Y016760D01*
X009623Y016774D01*
X009636Y016787D01*
X009650Y016797D01*
X009666Y016804D01*
X009683Y016808D01*
X009700Y016810D01*
X009850Y016810D01*
X009900Y016760D01*
X011300Y016760D01*
X011350Y016810D01*
X011500Y016810D01*
X011517Y016808D01*
X011534Y016804D01*
X011550Y016797D01*
X011564Y016787D01*
X011577Y016774D01*
X011587Y016760D01*
X011594Y016744D01*
X011598Y016727D01*
X011600Y016710D01*
X011600Y016110D01*
X011598Y016093D01*
X011594Y016076D01*
X011587Y016060D01*
X011577Y016046D01*
X011564Y016033D01*
X011550Y016023D01*
X011534Y016016D01*
X011517Y016012D01*
X011500Y016010D01*
X010850Y017510D02*
X010700Y017510D01*
X010683Y017512D01*
X010666Y017516D01*
X010650Y017523D01*
X010636Y017533D01*
X010623Y017546D01*
X010613Y017560D01*
X010606Y017576D01*
X010602Y017593D01*
X010600Y017610D01*
X010600Y018210D01*
X010602Y018227D01*
X010606Y018244D01*
X010613Y018260D01*
X010623Y018274D01*
X010636Y018287D01*
X010650Y018297D01*
X010666Y018304D01*
X010683Y018308D01*
X010700Y018310D01*
X010850Y018310D01*
X010900Y018260D01*
X012300Y018260D01*
X012350Y018310D01*
X012500Y018310D01*
X012517Y018308D01*
X012534Y018304D01*
X012550Y018297D01*
X012564Y018287D01*
X012577Y018274D01*
X012587Y018260D01*
X012594Y018244D01*
X012598Y018227D01*
X012600Y018210D01*
X012600Y017610D01*
X012598Y017593D01*
X012594Y017576D01*
X012587Y017560D01*
X012577Y017546D01*
X012564Y017533D01*
X012550Y017523D01*
X012534Y017516D01*
X012517Y017512D01*
X012500Y017510D01*
X012350Y017510D01*
X012300Y017560D01*
X010900Y017560D01*
X010850Y017510D01*
X011300Y020010D02*
X013900Y020010D01*
X014000Y020110D01*
X014000Y022710D01*
X013900Y022810D01*
X011300Y022810D01*
X011200Y022710D01*
X011200Y020110D01*
X011300Y020010D01*
X011800Y020610D02*
X011900Y020710D01*
X012000Y021260D02*
X012300Y021260D01*
X012450Y021110D01*
X012450Y020810D01*
X012750Y020810D01*
X012750Y021110D01*
X012900Y021260D01*
X013000Y021260D01*
X013000Y021160D01*
X013250Y021410D01*
X013000Y021660D01*
X013000Y021560D01*
X012900Y021560D01*
X012750Y021710D01*
X012750Y022010D01*
X012450Y022010D01*
X012450Y021710D01*
X012300Y021560D01*
X012000Y021560D01*
X012000Y021260D01*
X011900Y022110D02*
X011800Y022210D01*
X013250Y022160D02*
X013350Y022260D01*
X013570Y021410D02*
X013720Y021410D01*
X013250Y020710D02*
X013350Y020610D01*
X014600Y020660D02*
X014600Y020160D01*
X014850Y019910D01*
X014600Y019660D01*
X014600Y019160D01*
X014850Y018910D01*
X014600Y018660D01*
X014600Y018160D01*
X014850Y017910D01*
X015350Y017910D01*
X015600Y018160D01*
X015600Y018660D01*
X015350Y018910D01*
X015600Y019160D01*
X015600Y019660D01*
X015350Y019910D01*
X015600Y020160D01*
X015600Y020660D01*
X015350Y020910D01*
X014850Y020910D01*
X014600Y020660D01*
X014350Y026410D02*
X013850Y026410D01*
X013600Y026660D01*
X013350Y026410D01*
X012850Y026410D01*
X012600Y026660D01*
X012350Y026410D01*
X011850Y026410D01*
X011600Y026660D01*
X011600Y027160D01*
X011850Y027410D01*
X012350Y027410D01*
X012600Y027160D01*
X012850Y027410D01*
X013350Y027410D01*
X013600Y027160D01*
X013850Y027410D01*
X014350Y027410D01*
X014600Y027160D01*
X014850Y027410D01*
X015350Y027410D01*
X015600Y027160D01*
X015850Y027410D01*
X016350Y027410D01*
X016600Y027160D01*
X016850Y027410D01*
X017350Y027410D01*
X017600Y027160D01*
X017600Y026660D01*
X017350Y026410D01*
X016850Y026410D01*
X016600Y026660D01*
X016350Y026410D01*
X015850Y026410D01*
X015600Y026660D01*
X015350Y026410D01*
X014850Y026410D01*
X014600Y026660D01*
X014350Y026410D01*
X014350Y027410D02*
X013850Y027410D01*
X013600Y027660D01*
X013350Y027410D01*
X012850Y027410D01*
X012600Y027660D01*
X012350Y027410D01*
X011850Y027410D01*
X011600Y027660D01*
X011600Y028160D01*
X011850Y028410D01*
X012350Y028410D01*
X012600Y028160D01*
X012850Y028410D01*
X013350Y028410D01*
X013600Y028160D01*
X013850Y028410D01*
X014350Y028410D01*
X014600Y028160D01*
X014850Y028410D01*
X015350Y028410D01*
X015600Y028160D01*
X015850Y028410D01*
X016350Y028410D01*
X016600Y028160D01*
X016850Y028410D01*
X017350Y028410D01*
X017600Y028160D01*
X017600Y027660D01*
X017350Y027410D01*
X016850Y027410D01*
X016600Y027660D01*
X016350Y027410D01*
X015850Y027410D01*
X015600Y027660D01*
X015350Y027410D01*
X014850Y027410D01*
X014600Y027660D01*
X014350Y027410D01*
X014350Y028410D02*
X013850Y028410D01*
X013600Y028660D01*
X013350Y028410D01*
X012850Y028410D01*
X012600Y028660D01*
X012350Y028410D01*
X011850Y028410D01*
X011600Y028660D01*
X011600Y029160D01*
X011850Y029410D01*
X012350Y029410D01*
X012600Y029160D01*
X012850Y029410D01*
X013350Y029410D01*
X013600Y029160D01*
X013850Y029410D01*
X014350Y029410D01*
X014600Y029160D01*
X014850Y029410D01*
X015350Y029410D01*
X015600Y029160D01*
X015850Y029410D01*
X016350Y029410D01*
X016600Y029160D01*
X016850Y029410D01*
X017350Y029410D01*
X017600Y029160D01*
X017600Y028660D01*
X017350Y028410D01*
X016850Y028410D01*
X016600Y028660D01*
X016350Y028410D01*
X015850Y028410D01*
X015600Y028660D01*
X015350Y028410D01*
X014850Y028410D01*
X014600Y028660D01*
X014350Y028410D01*
X014500Y002410D02*
X013700Y002410D01*
X013600Y002310D01*
X013500Y002410D01*
X012700Y002410D01*
X012600Y002310D01*
X012500Y002410D01*
X011600Y002410D01*
X011600Y001410D01*
X012500Y001410D01*
X012600Y001510D01*
X012700Y001410D01*
X013500Y001410D01*
X013600Y001510D01*
X013700Y001410D01*
X014500Y001410D01*
X014600Y001510D01*
X014700Y001410D01*
X015500Y001410D01*
X015600Y001510D01*
X015700Y001410D01*
X016500Y001410D01*
X016600Y001510D01*
X016700Y001410D01*
X017600Y001410D01*
X017600Y002410D01*
X016700Y002410D01*
X016600Y002310D01*
X016500Y002410D01*
X015700Y002410D01*
X015600Y002310D01*
X015500Y002410D01*
X014700Y002410D01*
X014600Y002310D01*
X014500Y002410D01*
X014500Y001410D02*
X013700Y001410D01*
X013600Y001310D01*
X013500Y001410D01*
X012700Y001410D01*
X012600Y001310D01*
X012500Y001410D01*
X011600Y001410D01*
X011600Y000410D01*
X012500Y000410D01*
X012600Y000510D01*
X012700Y000410D01*
X013500Y000410D01*
X013600Y000510D01*
X013700Y000410D01*
X014500Y000410D01*
X014600Y000510D01*
X014700Y000410D01*
X015500Y000410D01*
X015600Y000510D01*
X015700Y000410D01*
X016500Y000410D01*
X016600Y000510D01*
X016700Y000410D01*
X017600Y000410D01*
X017600Y001410D01*
X016700Y001410D01*
X016600Y001310D01*
X016500Y001410D01*
X015700Y001410D01*
X015600Y001310D01*
X015500Y001410D01*
X014700Y001410D01*
X014600Y001310D01*
X014500Y001410D01*
D13*
X012675Y011410D03*
X011675Y012910D03*
X010525Y011410D03*
X009525Y012910D03*
X009525Y016410D03*
X010525Y017910D03*
X011675Y016410D03*
X012675Y017910D03*
D14*
X009713Y017998D02*
X009654Y017940D01*
X009537Y017940D01*
X009479Y017998D01*
X009479Y018115D02*
X009596Y018174D01*
X009654Y018174D01*
X009713Y018115D01*
X009713Y017998D01*
X009479Y018115D02*
X009479Y018290D01*
X009713Y018290D01*
X009354Y018232D02*
X009354Y018115D01*
X009295Y018057D01*
X009120Y018057D01*
X009237Y018057D02*
X009354Y017940D01*
X009120Y017940D02*
X009120Y018290D01*
X009295Y018290D01*
X009354Y018232D01*
X008596Y016790D02*
X008596Y016440D01*
X008479Y016440D02*
X008713Y016440D01*
X008479Y016674D02*
X008596Y016790D01*
X008354Y016732D02*
X008354Y016615D01*
X008295Y016557D01*
X008120Y016557D01*
X008237Y016557D02*
X008354Y016440D01*
X008120Y016440D02*
X008120Y016790D01*
X008295Y016790D01*
X008354Y016732D01*
X008295Y013290D02*
X008120Y013290D01*
X008120Y012940D01*
X008120Y013057D02*
X008295Y013057D01*
X008354Y013115D01*
X008354Y013232D01*
X008295Y013290D01*
X008237Y013057D02*
X008354Y012940D01*
X008479Y013115D02*
X008713Y013115D01*
X008654Y012940D02*
X008654Y013290D01*
X008479Y013115D01*
X009120Y011790D02*
X009295Y011790D01*
X009354Y011732D01*
X009354Y011615D01*
X009295Y011557D01*
X009120Y011557D01*
X009237Y011557D02*
X009354Y011440D01*
X009479Y011498D02*
X009479Y011615D01*
X009654Y011615D01*
X009713Y011557D01*
X009713Y011498D01*
X009654Y011440D01*
X009537Y011440D01*
X009479Y011498D01*
X009479Y011615D02*
X009596Y011732D01*
X009713Y011790D01*
X009120Y011790D02*
X009120Y011440D01*
M02*
