G75*
%MOIN*%
%OFA0B0*%
%FSLAX24Y24*%
%IPPOS*%
%LPD*%
%AMOC8*
5,1,8,0,0,1.08239X$1,22.5*
%
%ADD10C,0.1185*%
%ADD11OC8,0.0520*%
%ADD12C,0.0520*%
%ADD13C,0.0600*%
%ADD14C,0.0160*%
%ADD15C,0.0240*%
D10*
X002254Y004982D03*
X003706Y006038D03*
X003261Y007407D03*
X003707Y008785D03*
X004877Y009635D03*
X004323Y011342D03*
X002256Y009840D03*
X001466Y007407D03*
X004323Y003478D03*
X004877Y005185D03*
X006323Y009635D03*
X006877Y011342D03*
X007494Y008782D03*
X007939Y007413D03*
X007493Y006035D03*
X008944Y004980D03*
X009734Y007413D03*
X008946Y009838D03*
X004323Y018478D03*
X004877Y020185D03*
X003706Y021038D03*
X003261Y022407D03*
X003707Y023785D03*
X004877Y024635D03*
X004323Y026342D03*
X002256Y024840D03*
X001466Y022407D03*
X002254Y019982D03*
X006323Y024635D03*
X006877Y026342D03*
X007494Y023782D03*
X007939Y022413D03*
X007493Y021035D03*
X008944Y019980D03*
X009734Y022413D03*
X008946Y024838D03*
D11*
X011600Y021410D03*
X012600Y020420D03*
X012600Y022400D03*
X013100Y017910D03*
X012100Y016410D03*
X010100Y017910D03*
X009100Y016410D03*
X009100Y012910D03*
X010100Y011410D03*
X012100Y012910D03*
X013100Y011410D03*
X012600Y008900D03*
X011600Y007910D03*
X012600Y006920D03*
D12*
X012100Y002170D02*
X012100Y001650D01*
X012100Y001170D02*
X012100Y000650D01*
X013100Y000650D02*
X013100Y001170D01*
X013100Y001650D02*
X013100Y002170D01*
X014100Y002170D02*
X014100Y001650D01*
X014100Y001170D02*
X014100Y000650D01*
X015100Y000650D02*
X015100Y001170D01*
X015100Y001650D02*
X015100Y002170D01*
X016100Y002170D02*
X016100Y001650D01*
X016100Y001170D02*
X016100Y000650D01*
X017100Y000650D02*
X017100Y001170D01*
X017100Y001650D02*
X017100Y002170D01*
D13*
X015400Y009410D02*
X014800Y009410D01*
X014800Y010410D02*
X015400Y010410D01*
X015400Y011410D02*
X014800Y011410D01*
X014800Y012410D02*
X015400Y012410D01*
X015400Y013410D02*
X014800Y013410D01*
X014800Y014410D02*
X015400Y014410D01*
X015400Y018410D02*
X014800Y018410D01*
X014800Y019410D02*
X015400Y019410D01*
X015400Y020410D02*
X014800Y020410D01*
X015100Y026610D02*
X015100Y027210D01*
X015100Y027610D02*
X015100Y028210D01*
X015100Y028610D02*
X015100Y029210D01*
X014100Y029210D02*
X014100Y028610D01*
X014100Y028210D02*
X014100Y027610D01*
X014100Y027210D02*
X014100Y026610D01*
X013100Y026610D02*
X013100Y027210D01*
X013100Y027610D02*
X013100Y028210D01*
X013100Y028610D02*
X013100Y029210D01*
X012100Y029210D02*
X012100Y028610D01*
X012100Y028210D02*
X012100Y027610D01*
X012100Y027210D02*
X012100Y026610D01*
X016100Y026610D02*
X016100Y027210D01*
X016100Y027610D02*
X016100Y028210D01*
X016100Y028610D02*
X016100Y029210D01*
X017100Y029210D02*
X017100Y028610D01*
X017100Y028210D02*
X017100Y027610D01*
X017100Y027210D02*
X017100Y026610D01*
D14*
X014100Y026860D02*
X014100Y026910D01*
X014100Y026860D02*
X012140Y024900D01*
X012000Y024900D01*
X012000Y021890D01*
X014240Y019650D01*
X014240Y019230D01*
X015080Y018390D01*
X015100Y018410D01*
X015080Y014470D02*
X014870Y014470D01*
X009410Y019930D01*
X008990Y019930D01*
X008944Y019980D01*
X008010Y023850D02*
X007520Y023850D01*
X007494Y023782D01*
X008010Y023850D02*
X008920Y024760D01*
X008946Y024838D01*
X008990Y024900D01*
X012000Y024900D01*
X015080Y014470D02*
X015100Y014410D01*
X015100Y013410D02*
X015080Y013350D01*
X014170Y013350D01*
X010670Y009850D01*
X008990Y009850D01*
X008946Y009838D01*
X010530Y007890D02*
X010530Y006560D01*
X008990Y005020D01*
X008944Y004980D01*
X010530Y007890D02*
X014590Y011950D01*
X014660Y011950D01*
X015080Y012370D01*
X015100Y012410D01*
D15*
X016060Y011180D02*
X015290Y010410D01*
X015100Y010410D01*
X015150Y010410D01*
X015570Y009990D01*
X015640Y009990D01*
X016060Y009570D01*
X016060Y001940D01*
X016100Y001910D01*
X011930Y006700D02*
X011930Y007190D01*
X014100Y009360D01*
X015080Y009360D01*
X015100Y009410D01*
X016060Y011180D02*
X016060Y017830D01*
X014240Y017830D01*
X011160Y020910D01*
X008640Y020910D01*
X007870Y020140D01*
X006820Y020140D01*
X006820Y011390D01*
X006877Y011342D01*
X004877Y009635D02*
X004930Y009570D01*
X004930Y007330D01*
X008150Y004110D01*
X009340Y004110D01*
X011930Y006700D01*
X016060Y017830D02*
X016060Y026860D01*
X016100Y026910D01*
X006820Y020420D02*
X006820Y020140D01*
X006820Y020420D02*
X006330Y020910D01*
X006330Y024620D01*
X006323Y024635D01*
X005910Y023640D02*
X004930Y024620D01*
X004877Y024635D01*
X005910Y023640D02*
X005910Y018600D01*
X004370Y017060D01*
X004370Y011390D01*
X004323Y011342D01*
M02*
