%
M48
M72
T01C0.0240
T02C0.0320
T03C0.0360
T04C0.0400
T05C0.0440
T06C0.1250
T07C0.1300
%
T01
X6180Y5805
X7055Y7055
X8180Y7430
X8305Y6930
X10180Y7305
X11180Y6555
X11305Y7555
X13055Y7930
X12055Y9555
X12430Y9930
X12805Y11180
X14055Y10805
X12680Y12555
X12305Y13305
X11305Y14055
X12555Y14680
X13305Y15430
X12930Y16055
X13680Y16680
X14180Y16805
X16430Y15305
X18555Y12430
X18805Y10055
X18055Y9930
X17305Y9930
X18680Y8055
X17055Y7305
X15805Y7305
X16180Y5805
X14180Y5805
X13055Y5680
X18055Y5680
X19180Y5805
X18180Y6555
X20180Y6555
X22180Y5805
X24180Y5805
X24055Y4680
X27055Y5680
X29180Y6555
X29930Y8180
X29305Y9555
X28055Y9555
X29555Y10805
X28430Y11555
X27430Y11930
X26805Y13680
X24555Y15305
X23555Y15305
X21930Y15305
X19180Y18055
X24305Y19680
X26805Y16180
X29555Y15555
X30305Y16805
X34930Y16555
X30555Y13555
X34680Y13055
X34305Y9805
X32305Y9180
X32430Y4555
X22680Y8055
X21180Y9680
X20680Y9680
X10680Y15055
X7305Y15430
X6305Y15305
X5680Y15180
X4680Y16055
X5680Y16305
X2305Y17930
X1930Y18305
X1180Y19555
X7055Y19430
X8305Y19055
X9555Y18180
X12305Y18930
X13180Y21180
X13555Y22305
X24305Y24680
X24305Y25555
X24305Y26930
X28305Y24680
X30180Y20555
X29555Y20180
X9180Y12305
X7680Y10555
X8055Y9680
X7180Y9680
X6180Y10055
X6180Y10555
X5180Y9805
X5180Y9305
X3805Y10680
X2305Y10680
X3180Y7430
X4180Y7430
X5305Y7430
T02
X5680Y8680
X4680Y8680
X3680Y8680
X2680Y8680
X1680Y10680
X1680Y11680
X2680Y11680
X3680Y11680
X4680Y11680
X5680Y11680
X6680Y11680
X7680Y11680
X8680Y11680
X9680Y11680
X10680Y11680
X11680Y11680
X13180Y11680
X14180Y11680
X15180Y11680
X16180Y11680
X17180Y11680
X18180Y11680
X19180Y11680
X20180Y11680
X21180Y11680
X22180Y11680
X23180Y11680
X23180Y13180
X22180Y13180
X21180Y13180
X20180Y13180
X19180Y13180
X18180Y13180
X17180Y13180
X16180Y13180
X15180Y13180
X15180Y14180
X16180Y14180
X17180Y14180
X18180Y14180
X19180Y14180
X20180Y14180
X21180Y14180
X22180Y14180
X25680Y13680
X25680Y14680
X25680Y15680
X25680Y16680
X25680Y17680
X25680Y18680
X24680Y18180
X24680Y19180
X25680Y19680
X22180Y17180
X21180Y17180
X20180Y17180
X19180Y17180
X18180Y17180
X17180Y17180
X16180Y17180
X15180Y17180
X14680Y20180
X13680Y20180
X12680Y20180
X11680Y20180
X10680Y20180
X9680Y20180
X8680Y20180
X7680Y20180
X6680Y20180
X5680Y20180
X4680Y20180
X3680Y20180
X2680Y20180
X3180Y17180
X4180Y17180
X5180Y17180
X6180Y17180
X7180Y17180
X8180Y17180
X9180Y17180
X10180Y17180
X10180Y14180
X9180Y14180
X8180Y14180
X7180Y14180
X6180Y14180
X5180Y14180
X4180Y14180
X3180Y14180
X3180Y13180
X4180Y13180
X5180Y13180
X6180Y13180
X7180Y13180
X8180Y13180
X9180Y13180
X10180Y13180
X11180Y13180
X13180Y10680
X14180Y8680
X15180Y8680
X16180Y8680
X17180Y8680
X18180Y8680
X19180Y8680
X20180Y8680
X21180Y8680
X22180Y8680
X23180Y8680
X25680Y8680
X25680Y9680
X25680Y10680
X25680Y11680
X25680Y12680
X31680Y12680
X31680Y11680
X33180Y11680
X33180Y10680
X33180Y9680
X31680Y9680
X31680Y10680
X31680Y8680
X33180Y8680
X33180Y7680
X33180Y6680
X33180Y5680
X36180Y5680
X36180Y6680
X36180Y7680
X36180Y8680
X36180Y9680
X36180Y10680
X36180Y11680
X36180Y12680
X35180Y12680
X36180Y14680
X36180Y15680
X36180Y16680
X36180Y17680
X36180Y18680
X36180Y19680
X36180Y20680
X36180Y21680
X36180Y22680
X35180Y22680
X36180Y23680
X33180Y23680
X33180Y21680
X31680Y21180
X30680Y21180
X31680Y19680
X33180Y19680
X33180Y20680
X33180Y18680
X33180Y17680
X31680Y17680
X31680Y18680
X31680Y16680
X31680Y15680
X33180Y15680
X33180Y16680
X33180Y14680
X31680Y14680
X31680Y13680
X17680Y20180
X16680Y20180
X15680Y20180
X15680Y26180
X14680Y26180
X13680Y26180
X12680Y26180
X11680Y26180
X10680Y26180
X9680Y26180
X8680Y26180
X7680Y26180
X6680Y26180
X5680Y26180
X4680Y26180
X3680Y26180
X2680Y26180
X1680Y26180
X1680Y25180
X16680Y26180
X17680Y26180
X11680Y8680
X10680Y8680
X9680Y8680
X8680Y8680
X7680Y8680
X6680Y8680
T03
X30180Y26680
X31180Y26680
X33180Y26680
X34180Y26680
X38180Y12180
X39180Y12180
X39180Y11180
X38180Y11180
X38180Y10180
X39180Y10180
X39180Y9180
X38180Y9180
X38180Y8180
X39180Y8180
X39180Y7180
X38180Y7180
T04
X1680Y5180
X2680Y5180
X2680Y6180
X1680Y6180
X3680Y6180
X4680Y6180
X5680Y6180
X6680Y6180
X6680Y5180
X5680Y5180
X4680Y5180
X3680Y5180
X7680Y5180
X8680Y5180
X9680Y5180
X10680Y5180
X11680Y5180
X11680Y6180
X10680Y6180
X9680Y6180
X8680Y6180
X7680Y6180
X12680Y6180
X13680Y6180
X14680Y6180
X15680Y6180
X15680Y5180
X14680Y5180
X13680Y5180
X12680Y5180
X16680Y5180
X17680Y5180
X18680Y5180
X19680Y5180
X20680Y5180
X20680Y6180
X19680Y6180
X18680Y6180
X17680Y6180
X16680Y6180
X21680Y6180
X22680Y6180
X23680Y6180
X24680Y6180
X24680Y5180
X23680Y5180
X22680Y5180
X21680Y5180
X25680Y5180
X26680Y5180
X27680Y5180
X28680Y5180
X29680Y5180
X29680Y6180
X28680Y6180
X27680Y6180
X26680Y6180
X25680Y6180
X30680Y6180
X31680Y6180
X31680Y5180
X30680Y5180
X38121Y17499
X39239Y18046
X38121Y18589
X39239Y19137
X38121Y19680
X39239Y20223
X38121Y20771
X39239Y21314
X38121Y21861
T05
X27930Y22180
X27930Y26180
X20930Y24180
T06
X40180Y26930
X40180Y4680
T07
X38680Y14759
X38680Y24601
M30
