G75*
%MOIN*%
%OFA0B0*%
%FSLAX24Y24*%
%IPPOS*%
%LPD*%
%AMOC8*
5,1,8,0,0,1.08239X$1,22.5*
%
%ADD10R,0.0600X0.2550*%
%ADD11OC8,0.0600*%
%ADD12C,0.0520*%
%ADD13C,0.0560*%
%ADD14OC8,0.1000*%
%ADD15C,0.0520*%
%ADD16R,0.0740X0.0740*%
%ADD17C,0.0740*%
%ADD18C,0.2000*%
%ADD19OC8,0.0520*%
%ADD20OC8,0.0560*%
%ADD21C,0.1650*%
%ADD22C,0.0100*%
%ADD23C,0.0400*%
%ADD24C,0.0200*%
%ADD25C,0.0160*%
D10*
X001680Y002180D03*
X002680Y002180D03*
X003680Y002180D03*
X004680Y002180D03*
X005680Y002180D03*
X006680Y002180D03*
X007680Y002180D03*
X008680Y002180D03*
X009680Y002180D03*
X010680Y002180D03*
X011680Y002180D03*
X012680Y002180D03*
X013680Y002180D03*
X014680Y002180D03*
X015680Y002180D03*
X016680Y002180D03*
X017680Y002180D03*
X018680Y002180D03*
X019680Y002180D03*
X020680Y002180D03*
X021680Y002180D03*
X022680Y002180D03*
X023680Y002180D03*
X024680Y002180D03*
X025680Y002180D03*
X026680Y002180D03*
X027680Y002180D03*
X028680Y002180D03*
X029680Y002180D03*
X030680Y002180D03*
X031680Y002180D03*
D11*
X031680Y005180D03*
X030680Y005180D03*
X030680Y006180D03*
X031680Y006180D03*
X029680Y006180D03*
X028680Y006180D03*
X027680Y006180D03*
X026680Y006180D03*
X025680Y006180D03*
X025680Y005180D03*
X026680Y005180D03*
X027680Y005180D03*
X028680Y005180D03*
X029680Y005180D03*
X024680Y005180D03*
X023680Y005180D03*
X022680Y005180D03*
X021680Y005180D03*
X021680Y006180D03*
X022680Y006180D03*
X023680Y006180D03*
X024680Y006180D03*
X020680Y006180D03*
X019680Y006180D03*
X018680Y006180D03*
X017680Y006180D03*
X016680Y006180D03*
X016680Y005180D03*
X017680Y005180D03*
X018680Y005180D03*
X019680Y005180D03*
X020680Y005180D03*
X015680Y005180D03*
X014680Y005180D03*
X013680Y005180D03*
X012680Y005180D03*
X012680Y006180D03*
X013680Y006180D03*
X014680Y006180D03*
X015680Y006180D03*
X011680Y006180D03*
X010680Y006180D03*
X009680Y006180D03*
X008680Y006180D03*
X007680Y006180D03*
X007680Y005180D03*
X008680Y005180D03*
X009680Y005180D03*
X010680Y005180D03*
X011680Y005180D03*
X006680Y005180D03*
X005680Y005180D03*
X004680Y005180D03*
X003680Y005180D03*
X003680Y006180D03*
X004680Y006180D03*
X005680Y006180D03*
X006680Y006180D03*
X002680Y006180D03*
X001680Y006180D03*
X001680Y005180D03*
X002680Y005180D03*
D12*
X002680Y008420D02*
X002680Y008940D01*
X003680Y008940D02*
X003680Y008420D01*
X004680Y008420D02*
X004680Y008940D01*
X005680Y008940D02*
X005680Y008420D01*
X006680Y008420D02*
X006680Y008940D01*
X007680Y008940D02*
X007680Y008420D01*
X008680Y008420D02*
X008680Y008940D01*
X009680Y008940D02*
X009680Y008420D01*
X010680Y008420D02*
X010680Y008940D01*
X011680Y008940D02*
X011680Y008420D01*
X014180Y008420D02*
X014180Y008940D01*
X015180Y008940D02*
X015180Y008420D01*
X016180Y008420D02*
X016180Y008940D01*
X017180Y008940D02*
X017180Y008420D01*
X018180Y008420D02*
X018180Y008940D01*
X019180Y008940D02*
X019180Y008420D01*
X020180Y008420D02*
X020180Y008940D01*
X021180Y008940D02*
X021180Y008420D01*
X022180Y008420D02*
X022180Y008940D01*
X023180Y008940D02*
X023180Y008420D01*
X025420Y008680D02*
X025940Y008680D01*
X025940Y009680D02*
X025420Y009680D01*
X025420Y010680D02*
X025940Y010680D01*
X025940Y011680D02*
X025420Y011680D01*
X025420Y012680D02*
X025940Y012680D01*
X025940Y013680D02*
X025420Y013680D01*
X025420Y014680D02*
X025940Y014680D01*
X025940Y015680D02*
X025420Y015680D01*
X025420Y016680D02*
X025940Y016680D01*
X025940Y017680D02*
X025420Y017680D01*
X025420Y018680D02*
X025940Y018680D01*
X025940Y019680D02*
X025420Y019680D01*
X022180Y017440D02*
X022180Y016920D01*
X021180Y016920D02*
X021180Y017440D01*
X020180Y017440D02*
X020180Y016920D01*
X019180Y016920D02*
X019180Y017440D01*
X018180Y017440D02*
X018180Y016920D01*
X017180Y016920D02*
X017180Y017440D01*
X016180Y017440D02*
X016180Y016920D01*
X015180Y016920D02*
X015180Y017440D01*
X014680Y019920D02*
X014680Y020440D01*
X013680Y020440D02*
X013680Y019920D01*
X012680Y019920D02*
X012680Y020440D01*
X011680Y020440D02*
X011680Y019920D01*
X010680Y019920D02*
X010680Y020440D01*
X009680Y020440D02*
X009680Y019920D01*
X008680Y019920D02*
X008680Y020440D01*
X007680Y020440D02*
X007680Y019920D01*
X006680Y019920D02*
X006680Y020440D01*
X005680Y020440D02*
X005680Y019920D01*
X004680Y019920D02*
X004680Y020440D01*
X003680Y020440D02*
X003680Y019920D01*
X002680Y019920D02*
X002680Y020440D01*
X003180Y017440D02*
X003180Y016920D01*
X004180Y016920D02*
X004180Y017440D01*
X005180Y017440D02*
X005180Y016920D01*
X006180Y016920D02*
X006180Y017440D01*
X007180Y017440D02*
X007180Y016920D01*
X008180Y016920D02*
X008180Y017440D01*
X009180Y017440D02*
X009180Y016920D01*
X010180Y016920D02*
X010180Y017440D01*
X010180Y014440D02*
X010180Y013920D01*
X010180Y013440D02*
X010180Y012920D01*
X009180Y012920D02*
X009180Y013440D01*
X009180Y013920D02*
X009180Y014440D01*
X008180Y014440D02*
X008180Y013920D01*
X008180Y013440D02*
X008180Y012920D01*
X007180Y012920D02*
X007180Y013440D01*
X007180Y013920D02*
X007180Y014440D01*
X006180Y014440D02*
X006180Y013920D01*
X006180Y013440D02*
X006180Y012920D01*
X005180Y012920D02*
X005180Y013440D01*
X005180Y013920D02*
X005180Y014440D01*
X004180Y014440D02*
X004180Y013920D01*
X004180Y013440D02*
X004180Y012920D01*
X003180Y012920D02*
X003180Y013440D01*
X003180Y013920D02*
X003180Y014440D01*
X002680Y011940D02*
X002680Y011420D01*
X003680Y011420D02*
X003680Y011940D01*
X004680Y011940D02*
X004680Y011420D01*
X005680Y011420D02*
X005680Y011940D01*
X006680Y011940D02*
X006680Y011420D01*
X007680Y011420D02*
X007680Y011940D01*
X008680Y011940D02*
X008680Y011420D01*
X009680Y011420D02*
X009680Y011940D01*
X010680Y011940D02*
X010680Y011420D01*
X011680Y011420D02*
X011680Y011940D01*
X011180Y012920D02*
X011180Y013440D01*
X014180Y011940D02*
X014180Y011420D01*
X015180Y011420D02*
X015180Y011940D01*
X016180Y011940D02*
X016180Y011420D01*
X017180Y011420D02*
X017180Y011940D01*
X018180Y011940D02*
X018180Y011420D01*
X019180Y011420D02*
X019180Y011940D01*
X020180Y011940D02*
X020180Y011420D01*
X021180Y011420D02*
X021180Y011940D01*
X022180Y011940D02*
X022180Y011420D01*
X023180Y011420D02*
X023180Y011940D01*
X023180Y012920D02*
X023180Y013440D01*
X022180Y013440D02*
X022180Y012920D01*
X021180Y012920D02*
X021180Y013440D01*
X021180Y013920D02*
X021180Y014440D01*
X022180Y014440D02*
X022180Y013920D01*
X020180Y013920D02*
X020180Y014440D01*
X019180Y014440D02*
X019180Y013920D01*
X019180Y013440D02*
X019180Y012920D01*
X018180Y012920D02*
X018180Y013440D01*
X018180Y013920D02*
X018180Y014440D01*
X017180Y014440D02*
X017180Y013920D01*
X017180Y013440D02*
X017180Y012920D01*
X016180Y012920D02*
X016180Y013440D01*
X016180Y013920D02*
X016180Y014440D01*
X015180Y014440D02*
X015180Y013920D01*
X015180Y013440D02*
X015180Y012920D01*
X020180Y012920D02*
X020180Y013440D01*
X017680Y019920D02*
X017680Y020440D01*
X016680Y020440D02*
X016680Y019920D01*
X015680Y019920D02*
X015680Y020440D01*
X015680Y025920D02*
X015680Y026440D01*
X014680Y026440D02*
X014680Y025920D01*
X013680Y025920D02*
X013680Y026440D01*
X012680Y026440D02*
X012680Y025920D01*
X011680Y025920D02*
X011680Y026440D01*
X010680Y026440D02*
X010680Y025920D01*
X009680Y025920D02*
X009680Y026440D01*
X008680Y026440D02*
X008680Y025920D01*
X007680Y025920D02*
X007680Y026440D01*
X006680Y026440D02*
X006680Y025920D01*
X005680Y025920D02*
X005680Y026440D01*
X004680Y026440D02*
X004680Y025920D01*
X003680Y025920D02*
X003680Y026440D01*
X002680Y026440D02*
X002680Y025920D01*
X016680Y025920D02*
X016680Y026440D01*
X017680Y026440D02*
X017680Y025920D01*
X031420Y019680D02*
X031940Y019680D01*
X032920Y019680D02*
X033440Y019680D01*
X033440Y020680D02*
X032920Y020680D01*
X032920Y021680D02*
X033440Y021680D01*
X035920Y021680D02*
X036440Y021680D01*
X036440Y020680D02*
X035920Y020680D01*
X035920Y019680D02*
X036440Y019680D01*
X036440Y018680D02*
X035920Y018680D01*
X035920Y017680D02*
X036440Y017680D01*
X036440Y016680D02*
X035920Y016680D01*
X035920Y015680D02*
X036440Y015680D01*
X036440Y014680D02*
X035920Y014680D01*
X033440Y014680D02*
X032920Y014680D01*
X031940Y014680D02*
X031420Y014680D01*
X031420Y013680D02*
X031940Y013680D01*
X031940Y012680D02*
X031420Y012680D01*
X031420Y011680D02*
X031940Y011680D01*
X032920Y011680D02*
X033440Y011680D01*
X033440Y010680D02*
X032920Y010680D01*
X031940Y010680D02*
X031420Y010680D01*
X031420Y009680D02*
X031940Y009680D01*
X032920Y009680D02*
X033440Y009680D01*
X033440Y008680D02*
X032920Y008680D01*
X031940Y008680D02*
X031420Y008680D01*
X032920Y007680D02*
X033440Y007680D01*
X033440Y006680D02*
X032920Y006680D01*
X032920Y005680D02*
X033440Y005680D01*
X035920Y005680D02*
X036440Y005680D01*
X036440Y006680D02*
X035920Y006680D01*
X035920Y007680D02*
X036440Y007680D01*
X036440Y008680D02*
X035920Y008680D01*
X035920Y009680D02*
X036440Y009680D01*
X036440Y010680D02*
X035920Y010680D01*
X035920Y011680D02*
X036440Y011680D01*
X033440Y015680D02*
X032920Y015680D01*
X031940Y015680D02*
X031420Y015680D01*
X031420Y016680D02*
X031940Y016680D01*
X032920Y016680D02*
X033440Y016680D01*
X033440Y017680D02*
X032920Y017680D01*
X031940Y017680D02*
X031420Y017680D01*
X031420Y018680D02*
X031940Y018680D01*
X032920Y018680D02*
X033440Y018680D01*
D13*
X033180Y026400D02*
X033180Y026960D01*
X034180Y026960D02*
X034180Y026400D01*
X031180Y026400D02*
X031180Y026960D01*
X030180Y026960D02*
X030180Y026400D01*
D14*
X027930Y026180D03*
X027930Y022180D03*
X020930Y024180D03*
D15*
X024680Y019180D03*
X024680Y018180D03*
D16*
X038121Y021861D03*
D17*
X039239Y021314D03*
X038121Y020771D03*
X039239Y020223D03*
X038121Y019680D03*
X039239Y019137D03*
X038121Y018589D03*
X039239Y018046D03*
X038121Y017499D03*
D18*
X038680Y014759D03*
X038680Y024601D03*
D19*
X036180Y023680D03*
X036180Y022680D03*
X035180Y022680D03*
X033180Y023680D03*
X031680Y021180D03*
X030680Y021180D03*
X035180Y012680D03*
X036180Y012680D03*
X013180Y011680D03*
X013180Y010680D03*
X001680Y010680D03*
X001680Y011680D03*
X001680Y025180D03*
X001680Y026180D03*
D20*
X038180Y012180D03*
X039180Y012180D03*
X039180Y011180D03*
X038180Y011180D03*
X038180Y010180D03*
X039180Y010180D03*
X039180Y009180D03*
X038180Y009180D03*
X038180Y008180D03*
X039180Y008180D03*
X039180Y007180D03*
X038180Y007180D03*
D21*
X040180Y004680D03*
X040180Y026930D03*
D22*
X036930Y023930D02*
X034180Y026680D01*
X033180Y026680D02*
X033180Y023680D01*
X036930Y023930D02*
X036930Y006430D01*
X036180Y005680D01*
X039180Y007180D02*
X039180Y008180D01*
X039180Y009180D01*
X039180Y010180D01*
X039180Y011180D02*
X039180Y012180D01*
X034680Y013055D02*
X034680Y009180D01*
X033180Y007680D01*
X032430Y007930D02*
X030680Y006180D01*
X030680Y006055D01*
X030180Y005555D01*
X030180Y005055D01*
X030430Y004805D01*
X030430Y002430D01*
X030680Y002180D01*
X031680Y002180D02*
X031680Y004305D01*
X032180Y004805D01*
X032180Y005680D01*
X031680Y006180D01*
X031180Y006305D02*
X031180Y005680D01*
X030680Y005180D01*
X029430Y004805D02*
X029180Y005055D01*
X029180Y005680D01*
X029680Y006180D01*
X029555Y006305D01*
X029555Y009305D01*
X029305Y009555D01*
X028055Y009555D02*
X028055Y015805D01*
X027180Y016680D01*
X027180Y024055D01*
X024305Y026930D01*
X023930Y027180D02*
X023930Y006555D01*
X024180Y006305D01*
X024180Y005805D01*
X024555Y005680D02*
X024555Y006055D01*
X024680Y006180D01*
X024555Y006305D01*
X024555Y015305D01*
X023555Y015305D02*
X023555Y026180D01*
X017680Y026180D01*
X016180Y022680D02*
X012680Y026180D01*
X012180Y026930D02*
X012180Y019305D01*
X011930Y019055D01*
X011930Y012305D01*
X012180Y012055D01*
X012180Y010180D01*
X012055Y010055D01*
X012055Y009555D01*
X012430Y009930D02*
X012430Y006555D01*
X012180Y006305D01*
X012180Y005680D01*
X011680Y005180D01*
X011430Y004805D02*
X011180Y005055D01*
X011180Y005305D01*
X011680Y005805D01*
X011680Y006180D01*
X011680Y007680D01*
X011180Y008180D01*
X011180Y012055D01*
X011680Y012555D01*
X011680Y014930D01*
X011180Y015430D01*
X011180Y025680D01*
X011680Y026180D01*
X011430Y026930D02*
X012180Y026930D01*
X011430Y026930D02*
X010680Y026180D01*
X009430Y025555D02*
X009180Y025805D01*
X009180Y026555D01*
X008805Y026930D01*
X005180Y026930D01*
X005180Y025805D01*
X004805Y025430D01*
X003180Y025430D01*
X003180Y026555D01*
X002805Y026930D01*
X002180Y026930D01*
X002180Y018555D01*
X002680Y018055D01*
X002680Y015555D01*
X003680Y014555D01*
X003680Y012555D01*
X004180Y012055D01*
X004180Y007430D01*
X005180Y007555D02*
X005180Y009305D01*
X005680Y009305D02*
X005680Y008680D01*
X005680Y007180D01*
X004680Y006180D01*
X004180Y005680D01*
X004180Y005055D01*
X004430Y004805D01*
X004430Y002430D01*
X004680Y002180D01*
X005430Y002430D02*
X005680Y002180D01*
X005430Y002430D02*
X005430Y004805D01*
X005180Y005055D01*
X005180Y005680D01*
X005680Y006180D01*
X006180Y005805D02*
X006180Y009180D01*
X005805Y009555D01*
X005805Y011555D01*
X005680Y011680D01*
X006180Y012055D02*
X006180Y010555D01*
X006180Y010055D02*
X007180Y011055D01*
X007180Y012305D01*
X007680Y012805D01*
X007680Y020180D01*
X008305Y019555D01*
X008305Y019055D01*
X007430Y019555D02*
X007430Y018305D01*
X006680Y017555D01*
X006680Y012555D01*
X006180Y012055D01*
X005680Y012805D02*
X005180Y012305D01*
X005180Y011305D01*
X004805Y010930D01*
X004805Y008805D01*
X004680Y008680D01*
X003680Y008680D02*
X003680Y006180D01*
X003180Y005680D01*
X003180Y005055D01*
X003430Y004805D01*
X003430Y002430D01*
X003680Y002180D01*
X002680Y002180D02*
X002430Y002430D01*
X002430Y004805D01*
X002180Y005055D01*
X002180Y006680D01*
X002680Y006180D01*
X002180Y006680D02*
X002180Y010555D01*
X002305Y010680D01*
X002680Y010805D02*
X002180Y011305D01*
X002180Y017555D01*
X001930Y017805D01*
X001930Y018305D01*
X002305Y017930D02*
X002430Y017805D01*
X002430Y012805D01*
X003180Y012055D01*
X003180Y011305D01*
X003805Y010680D01*
X002680Y010805D02*
X002680Y008680D01*
X005180Y007555D02*
X005305Y007430D01*
X006680Y007805D02*
X007180Y008305D01*
X007180Y009680D01*
X007680Y009555D02*
X008180Y009055D01*
X008180Y007430D01*
X008305Y006930D02*
X008180Y006805D01*
X008180Y005680D01*
X007680Y005180D01*
X008180Y005305D02*
X008180Y005055D01*
X008430Y004805D01*
X008430Y002430D01*
X008680Y002180D01*
X009430Y002430D02*
X009430Y004805D01*
X009180Y005055D01*
X009180Y005305D01*
X009680Y005805D01*
X009680Y006180D01*
X009180Y006305D02*
X009180Y005680D01*
X008680Y005180D01*
X008180Y005305D02*
X008680Y005805D01*
X008680Y006180D01*
X009180Y006680D01*
X009180Y009055D01*
X009430Y009305D01*
X009430Y011430D01*
X009680Y011680D01*
X010180Y012055D02*
X010180Y009180D01*
X009680Y008680D01*
X008930Y008930D02*
X008680Y008680D01*
X008930Y008930D02*
X008930Y011055D01*
X009180Y011305D01*
X009180Y012305D01*
X009680Y012555D02*
X010180Y012055D01*
X010680Y011680D02*
X010680Y015055D01*
X011305Y014930D02*
X011305Y014055D01*
X012180Y013930D02*
X012680Y013430D01*
X012680Y012555D01*
X012930Y012805D02*
X013055Y012680D01*
X013055Y012180D01*
X012680Y011805D01*
X012680Y011305D01*
X012805Y011180D01*
X013680Y010555D02*
X013680Y015055D01*
X013305Y015430D01*
X012930Y016055D02*
X012930Y012805D01*
X012305Y012305D02*
X012305Y013305D01*
X012180Y013930D02*
X012180Y018805D01*
X012305Y018930D01*
X013680Y019180D02*
X013680Y016680D01*
X014430Y015930D02*
X014430Y012305D01*
X014680Y012055D01*
X014680Y006805D01*
X014180Y006305D01*
X014180Y005805D01*
X014555Y005680D02*
X014555Y006055D01*
X014680Y006180D01*
X014930Y006430D01*
X014930Y008430D01*
X015180Y008680D01*
X016180Y008680D02*
X016430Y008930D01*
X016430Y011055D01*
X016680Y011305D01*
X016680Y015055D01*
X017680Y016055D01*
X017680Y017555D01*
X018555Y018430D01*
X020680Y018430D01*
X020680Y015930D01*
X022180Y014430D01*
X022180Y014180D01*
X022180Y013180D01*
X021180Y013180D02*
X021180Y012930D01*
X020680Y012430D01*
X020680Y010180D01*
X021180Y009680D01*
X020680Y009680D02*
X020680Y006930D01*
X021180Y006430D01*
X021180Y005680D01*
X020680Y005180D01*
X020430Y004805D02*
X020180Y005055D01*
X020180Y005305D01*
X020680Y005805D01*
X020680Y006180D01*
X020680Y006555D01*
X019680Y007555D01*
X019680Y009055D01*
X019430Y009305D01*
X019430Y011430D01*
X019180Y011680D01*
X018680Y012055D02*
X019180Y012555D01*
X019180Y013180D01*
X019180Y014180D01*
X018180Y014180D02*
X018180Y013180D01*
X017180Y013180D02*
X017180Y014180D01*
X017180Y014930D01*
X020305Y014930D01*
X020680Y014555D01*
X020680Y012805D01*
X020430Y012555D01*
X020430Y011930D01*
X020180Y011680D01*
X019680Y011305D02*
X019680Y012680D01*
X020180Y013180D01*
X020180Y014180D01*
X021180Y014180D02*
X021180Y013180D01*
X021680Y014555D02*
X021680Y006180D01*
X021680Y005805D01*
X021180Y005305D01*
X021180Y005055D01*
X021430Y004805D01*
X021430Y002430D01*
X021680Y002180D01*
X022680Y002180D02*
X022680Y002930D01*
X022180Y003430D01*
X022180Y005305D01*
X022555Y005680D01*
X022555Y006055D01*
X022680Y006180D01*
X022180Y005805D02*
X022180Y007555D01*
X022680Y008055D01*
X024930Y006930D02*
X025180Y006680D01*
X025180Y005055D01*
X025430Y004805D01*
X025430Y002430D01*
X025680Y002180D01*
X026430Y002430D02*
X026430Y004805D01*
X026180Y005055D01*
X026180Y005680D01*
X026680Y006180D01*
X026680Y013555D01*
X026805Y013680D01*
X027055Y013430D02*
X027180Y013555D01*
X027180Y015805D01*
X026805Y016180D01*
X026930Y016555D02*
X027430Y016055D01*
X027430Y011930D01*
X027680Y011680D01*
X027680Y006180D01*
X027680Y005805D01*
X027180Y005305D01*
X027180Y005055D01*
X027430Y004805D01*
X027430Y002430D01*
X027680Y002180D01*
X028430Y002430D02*
X028680Y002180D01*
X028430Y002430D02*
X028430Y004805D01*
X028180Y005055D01*
X028180Y005680D01*
X028680Y006180D01*
X028680Y011305D01*
X028680Y024305D01*
X028305Y024680D01*
X028430Y025055D02*
X027930Y025055D01*
X027930Y022180D01*
X028930Y022305D02*
X028930Y024555D01*
X028430Y025055D01*
X031180Y026680D02*
X031180Y021055D01*
X030930Y020805D01*
X030930Y017430D01*
X031680Y016680D01*
X030680Y016680D02*
X030680Y020555D01*
X028930Y022305D01*
X026930Y022930D02*
X026930Y016555D01*
X025680Y014680D02*
X024180Y016180D01*
X024180Y019555D01*
X024305Y019680D01*
X026430Y022555D02*
X026430Y010430D01*
X025680Y009680D01*
X028430Y011555D02*
X028680Y011305D01*
X029555Y010805D02*
X029555Y015555D01*
X030680Y016680D02*
X031680Y015680D01*
X032430Y015930D02*
X033180Y016680D01*
X032430Y015930D02*
X032430Y013430D01*
X031680Y012680D01*
X032055Y012180D02*
X030930Y012180D01*
X030930Y013930D01*
X031680Y014680D01*
X034305Y015930D02*
X034305Y012805D01*
X033180Y011680D01*
X032430Y011805D02*
X032055Y012180D01*
X032430Y011805D02*
X032430Y010430D01*
X033180Y009680D01*
X032430Y009055D02*
X032305Y009180D01*
X032430Y009055D02*
X032430Y007930D01*
X033180Y008680D02*
X034305Y009805D01*
X029930Y008180D02*
X029930Y020305D01*
X030180Y020555D01*
X029555Y020180D02*
X028930Y019555D01*
X028930Y006805D01*
X029180Y006555D01*
X027180Y005805D02*
X027180Y011680D01*
X027055Y011805D01*
X027055Y013430D01*
X025680Y014680D02*
X024930Y013930D01*
X024930Y006930D01*
X025180Y006680D02*
X025680Y006180D01*
X024555Y005680D02*
X024180Y005305D01*
X024180Y005055D01*
X024680Y004555D01*
X024680Y002180D01*
X023680Y002180D02*
X023680Y002930D01*
X023180Y003430D01*
X023180Y004680D01*
X024055Y004680D01*
X023180Y004680D02*
X023180Y005305D01*
X023430Y005555D01*
X023430Y005930D01*
X023680Y006180D01*
X020430Y004805D02*
X020430Y002430D01*
X020680Y002180D01*
X019680Y002180D02*
X019430Y002430D01*
X019430Y004805D01*
X019180Y005055D01*
X019180Y005305D01*
X019680Y005805D01*
X019680Y006180D01*
X019180Y005805D02*
X019180Y007555D01*
X018680Y008055D01*
X019180Y008680D02*
X018055Y009805D01*
X018055Y009930D01*
X018680Y010180D02*
X018680Y012055D01*
X018555Y012430D02*
X017680Y012430D01*
X017680Y007055D01*
X018180Y006555D01*
X017680Y006180D02*
X017180Y005680D01*
X017180Y005055D01*
X017430Y004805D01*
X017430Y002430D01*
X017680Y002180D01*
X018430Y002430D02*
X018430Y004805D01*
X018180Y005055D01*
X018180Y005680D01*
X018055Y005680D01*
X018180Y005680D02*
X018680Y005680D01*
X018680Y006180D01*
X019680Y005180D02*
X020180Y005680D01*
X020180Y006555D01*
X020180Y008680D02*
X019930Y008930D01*
X019930Y011055D01*
X019680Y011305D01*
X018680Y010180D02*
X018805Y010055D01*
X017305Y009930D02*
X016680Y009305D01*
X016680Y006180D01*
X016680Y005805D01*
X016180Y005305D01*
X016180Y005055D01*
X016430Y004805D01*
X016430Y002430D01*
X016680Y002180D01*
X015680Y002180D02*
X015680Y002930D01*
X015180Y003430D01*
X015180Y005680D01*
X015680Y006180D01*
X015680Y007180D01*
X015805Y007305D01*
X016180Y007430D02*
X016180Y005805D01*
X014555Y005680D02*
X014180Y005305D01*
X014180Y003430D01*
X014680Y002930D01*
X014680Y002180D01*
X013680Y002180D02*
X013430Y002430D01*
X013430Y004805D01*
X013180Y005055D01*
X013180Y005305D01*
X013680Y005805D01*
X013680Y006180D01*
X013680Y009055D01*
X013930Y009305D01*
X013930Y010680D01*
X014055Y010805D01*
X013680Y010555D02*
X013430Y010305D01*
X013430Y008305D01*
X013055Y007930D01*
X012805Y008180D02*
X012680Y008055D01*
X012680Y006805D01*
X013180Y006305D01*
X013180Y005805D01*
X013055Y005680D01*
X012680Y005805D02*
X012680Y006180D01*
X012680Y005805D02*
X012180Y005305D01*
X012180Y005055D01*
X012430Y004805D01*
X012430Y002430D01*
X012680Y002180D01*
X011680Y002180D02*
X011430Y002430D01*
X011430Y004805D01*
X010680Y005180D02*
X011180Y005680D01*
X011180Y006555D01*
X010680Y006180D02*
X010680Y005805D01*
X010180Y005305D01*
X010180Y005055D01*
X010430Y004805D01*
X010430Y002430D01*
X010680Y002180D01*
X009680Y002180D02*
X009430Y002430D01*
X007680Y002180D02*
X007680Y002930D01*
X007180Y003430D01*
X007180Y005680D01*
X007680Y006180D01*
X006680Y006180D02*
X006680Y007805D01*
X007430Y007430D02*
X007430Y008430D01*
X007680Y008680D01*
X007680Y009555D02*
X007680Y010555D01*
X007680Y011680D01*
X008180Y012180D02*
X009180Y013180D01*
X009180Y014180D01*
X009680Y014555D02*
X009680Y012555D01*
X010180Y013180D02*
X010180Y014180D01*
X009680Y014555D02*
X008680Y015555D01*
X008680Y020180D01*
X009180Y020555D02*
X009180Y018055D01*
X009680Y017555D01*
X009680Y016555D01*
X011305Y014930D01*
X008180Y014180D02*
X008180Y013180D01*
X007180Y013180D02*
X007180Y014180D01*
X007180Y015305D01*
X007305Y015430D01*
X006305Y015305D02*
X006180Y015180D01*
X006180Y014180D01*
X006180Y013180D01*
X005680Y012805D02*
X005680Y015180D01*
X005180Y014180D02*
X005180Y013180D01*
X004180Y013180D02*
X004180Y014180D01*
X003180Y014180D02*
X003180Y013180D01*
X004680Y016055D02*
X004680Y017555D01*
X005180Y018055D01*
X005180Y020930D01*
X005805Y020930D01*
X006180Y020555D01*
X006180Y019430D01*
X007055Y019430D01*
X007430Y019555D02*
X007180Y019805D01*
X007180Y025680D01*
X007680Y026180D01*
X008680Y026180D02*
X008930Y025930D01*
X008930Y020805D01*
X009180Y020555D01*
X009430Y020430D02*
X009430Y025555D01*
X004680Y027180D02*
X023930Y027180D01*
X024305Y025555D02*
X026930Y022930D01*
X026430Y022555D02*
X024305Y024680D01*
X016180Y022680D02*
X016180Y019805D01*
X015680Y019305D01*
X015680Y016805D01*
X014680Y015805D01*
X014680Y012805D01*
X014930Y012555D01*
X014930Y011930D01*
X015180Y011680D01*
X015180Y013180D02*
X015180Y014180D01*
X015680Y014555D02*
X015680Y007930D01*
X016180Y007430D01*
X017055Y007305D02*
X017055Y008555D01*
X017180Y008680D01*
X012805Y008180D02*
X012805Y010055D01*
X012430Y010430D01*
X012430Y012180D01*
X012305Y012305D01*
X016180Y013180D02*
X016180Y014180D01*
X015680Y014555D02*
X016430Y015305D01*
X014555Y016055D02*
X014430Y015930D01*
X014555Y016055D02*
X014555Y017430D01*
X015180Y018055D01*
X015180Y020680D01*
X013555Y022305D01*
X014680Y020180D02*
X013680Y019180D01*
X010680Y020180D02*
X009555Y019055D01*
X009555Y018180D01*
X009680Y020180D02*
X009430Y020430D01*
X005680Y020180D02*
X005680Y016305D01*
X001180Y019555D02*
X001180Y006680D01*
X001680Y006180D01*
X001180Y005680D01*
X001180Y003430D01*
X001680Y002930D01*
X001680Y002180D01*
X006180Y003430D02*
X006680Y002930D01*
X006680Y002180D01*
X006180Y003430D02*
X006180Y005305D01*
X006555Y005680D01*
X006555Y006055D01*
X006680Y006180D01*
X007055Y007055D02*
X007430Y007430D01*
X009180Y006305D02*
X010180Y007305D01*
X010180Y006430D02*
X010180Y005680D01*
X009680Y005180D01*
X010180Y006430D02*
X011305Y007555D01*
X008180Y009805D02*
X008055Y009680D01*
X008180Y009805D02*
X008180Y012180D01*
X005680Y009305D02*
X005180Y009805D01*
X018430Y002430D02*
X018680Y002180D01*
X026430Y002430D02*
X026680Y002180D01*
X029430Y002430D02*
X029680Y002180D01*
X029430Y002430D02*
X029430Y004805D01*
X027180Y005805D02*
X027055Y005680D01*
X031180Y006305D02*
X031555Y006680D01*
X032430Y006680D01*
X032430Y004555D01*
X023680Y012180D02*
X023180Y011680D01*
X023680Y012180D02*
X023680Y013555D01*
X021930Y015305D01*
X021680Y014555D02*
X019680Y016555D01*
X019680Y017555D01*
X019180Y018055D01*
X004680Y027180D02*
X003680Y026180D01*
X034305Y015930D02*
X034930Y016555D01*
D23*
X034930Y016555D03*
X030305Y016805D03*
X029555Y015555D03*
X026805Y016180D03*
X024555Y015305D03*
X023555Y015305D03*
X021930Y015305D03*
X019180Y018055D03*
X016430Y015305D03*
X014180Y016805D03*
X013680Y016680D03*
X012930Y016055D03*
X013305Y015430D03*
X012555Y014680D03*
X011305Y014055D03*
X012305Y013305D03*
X012680Y012555D03*
X012805Y011180D03*
X014055Y010805D03*
X012430Y009930D03*
X012055Y009555D03*
X013055Y007930D03*
X011305Y007555D03*
X011180Y006555D03*
X010180Y007305D03*
X008305Y006930D03*
X008180Y007430D03*
X007055Y007055D03*
X006180Y005805D03*
X005305Y007430D03*
X004180Y007430D03*
X003180Y007430D03*
X005180Y009305D03*
X005180Y009805D03*
X006180Y010055D03*
X006180Y010555D03*
X007180Y009680D03*
X008055Y009680D03*
X007680Y010555D03*
X009180Y012305D03*
X010680Y015055D03*
X007305Y015430D03*
X006305Y015305D03*
X005680Y015180D03*
X004680Y016055D03*
X005680Y016305D03*
X002305Y017930D03*
X001930Y018305D03*
X001180Y019555D03*
X007055Y019430D03*
X008305Y019055D03*
X009555Y018180D03*
X012305Y018930D03*
X013180Y021180D03*
X013555Y022305D03*
X024305Y024680D03*
X024305Y025555D03*
X024305Y026930D03*
X028305Y024680D03*
X030180Y020555D03*
X029555Y020180D03*
X024305Y019680D03*
X026805Y013680D03*
X027430Y011930D03*
X028430Y011555D03*
X029555Y010805D03*
X029305Y009555D03*
X028055Y009555D03*
X029930Y008180D03*
X029180Y006555D03*
X027055Y005680D03*
X024180Y005805D03*
X024055Y004680D03*
X022180Y005805D03*
X020180Y006555D03*
X019180Y005805D03*
X018055Y005680D03*
X018180Y006555D03*
X017055Y007305D03*
X015805Y007305D03*
X016180Y005805D03*
X014180Y005805D03*
X013055Y005680D03*
X018680Y008055D03*
X020680Y009680D03*
X021180Y009680D03*
X022680Y008055D03*
X018805Y010055D03*
X018055Y009930D03*
X017305Y009930D03*
X018555Y012430D03*
X030555Y013555D03*
X034680Y013055D03*
X034305Y009805D03*
X032305Y009180D03*
X032430Y004555D03*
X003805Y010680D03*
X002305Y010680D03*
D24*
X002680Y011430D02*
X003180Y010930D01*
X003180Y007430D01*
X002680Y011430D02*
X002680Y011680D01*
X001680Y011680D02*
X001430Y011930D01*
X001430Y019180D01*
X001680Y019430D01*
X001680Y024555D01*
X001180Y025055D01*
X001180Y025680D01*
X001680Y026180D01*
X002680Y026180D02*
X002680Y025555D01*
X003180Y025055D01*
X003180Y017180D01*
X004180Y017180D01*
X012430Y018430D02*
X012430Y014805D01*
X012555Y014680D01*
X014180Y016805D02*
X014180Y011680D01*
X016180Y017180D02*
X017180Y017180D01*
X018180Y017180D02*
X019180Y017180D01*
X021180Y017180D02*
X022180Y017180D01*
X017680Y020180D02*
X020930Y023430D01*
X020930Y024180D01*
X013180Y021180D02*
X013180Y019180D01*
X012430Y018430D01*
X022680Y012680D02*
X022680Y009180D01*
X023180Y008680D01*
X023180Y005680D01*
X022680Y005180D01*
X029680Y005180D02*
X029930Y005430D01*
X029930Y005680D01*
X030180Y005930D01*
X030180Y007805D01*
X030555Y008180D01*
X030555Y013555D01*
X030305Y013805D01*
X030305Y016805D01*
X033180Y014680D02*
X034055Y015555D01*
X034055Y021555D01*
X035180Y022680D01*
X036180Y022680D02*
X036180Y023680D01*
X036180Y022680D02*
X036180Y021680D01*
X035430Y020930D01*
X035430Y013430D01*
X036180Y012680D01*
X036180Y011680D01*
X035493Y011368D02*
X035430Y011305D01*
X035430Y009430D01*
X036180Y008680D01*
X036055Y008680D01*
X036055Y008555D01*
X033180Y005680D01*
X033305Y005680D01*
X033305Y004680D01*
X040180Y004680D01*
X031680Y008680D02*
X030930Y009430D01*
X030930Y010930D01*
X031680Y011680D01*
X035180Y012680D02*
X035430Y012430D01*
X035430Y011430D01*
X035493Y011368D01*
X036180Y010680D01*
X023180Y013180D02*
X022680Y012680D01*
X031680Y019680D02*
X031680Y021180D01*
X030680Y021180D02*
X030680Y026180D01*
X030180Y026680D01*
D25*
X030190Y026690D02*
X030640Y026690D01*
X030640Y026996D01*
X030629Y027068D01*
X030606Y027137D01*
X030573Y027201D01*
X030531Y027260D01*
X030480Y027311D01*
X030421Y027353D01*
X030357Y027386D01*
X030288Y027409D01*
X030216Y027420D01*
X030190Y027420D01*
X030190Y026690D01*
X030190Y026670D01*
X030640Y026670D01*
X030640Y026364D01*
X030629Y026292D01*
X030606Y026223D01*
X030573Y026159D01*
X030531Y026100D01*
X030480Y026049D01*
X030421Y026007D01*
X030357Y025974D01*
X030288Y025951D01*
X030216Y025940D01*
X030190Y025940D01*
X030190Y026670D01*
X030170Y026670D01*
X030170Y025940D01*
X030144Y025940D01*
X030072Y025951D01*
X030003Y025974D01*
X029939Y026007D01*
X029880Y026049D01*
X029829Y026100D01*
X029787Y026159D01*
X029754Y026223D01*
X029731Y026292D01*
X029720Y026364D01*
X029720Y026670D01*
X030170Y026670D01*
X030170Y026690D01*
X030170Y027420D01*
X030144Y027420D01*
X030072Y027409D01*
X030003Y027386D01*
X029939Y027353D01*
X029880Y027311D01*
X029829Y027260D01*
X029787Y027201D01*
X029754Y027137D01*
X029731Y027068D01*
X029720Y026996D01*
X029720Y026690D01*
X030170Y026690D01*
X030190Y026690D01*
X030190Y026625D02*
X030170Y026625D01*
X030170Y026467D02*
X030190Y026467D01*
X030190Y026308D02*
X030170Y026308D01*
X030170Y026150D02*
X030190Y026150D01*
X030190Y025991D02*
X030170Y025991D01*
X029969Y025991D02*
X028590Y025991D01*
X028590Y025907D02*
X028203Y025520D01*
X027657Y025520D01*
X027270Y025907D01*
X027270Y026453D01*
X027657Y026840D01*
X028203Y026840D01*
X028590Y026453D01*
X028590Y025907D01*
X028516Y025833D02*
X030970Y025833D01*
X030970Y025991D02*
X030391Y025991D01*
X030567Y026150D02*
X030808Y026150D01*
X030807Y026151D02*
X030931Y026027D01*
X030970Y026011D01*
X030970Y021512D01*
X030862Y021620D01*
X030680Y021620D01*
X030680Y021180D01*
X030680Y021180D01*
X030680Y021620D01*
X030498Y021620D01*
X030240Y021362D01*
X030240Y021292D01*
X029140Y022392D01*
X029140Y024642D01*
X028640Y025142D01*
X028517Y025265D01*
X027843Y025265D01*
X027720Y025142D01*
X027720Y022840D01*
X027657Y022840D01*
X027390Y022573D01*
X027390Y024142D01*
X027267Y024265D01*
X024665Y026867D01*
X024665Y027002D01*
X024610Y027134D01*
X024509Y027235D01*
X024377Y027290D01*
X024233Y027290D01*
X024140Y027251D01*
X024140Y027267D01*
X024017Y027390D01*
X004593Y027390D01*
X004470Y027267D01*
X003958Y026755D01*
X003918Y026796D01*
X003764Y026860D01*
X003596Y026860D01*
X003442Y026796D01*
X003339Y026693D01*
X003015Y027017D01*
X002892Y027140D01*
X002093Y027140D01*
X001970Y027017D01*
X001970Y026484D01*
X001854Y026600D01*
X001506Y026600D01*
X001260Y026354D01*
X001260Y026128D01*
X001010Y025878D01*
X001010Y027900D01*
X041400Y027900D01*
X041400Y004180D01*
X031890Y004180D01*
X031890Y004218D01*
X032095Y004423D01*
X032125Y004351D01*
X032226Y004250D01*
X032358Y004195D01*
X032502Y004195D01*
X032634Y004250D01*
X032735Y004351D01*
X032790Y004483D01*
X032790Y004627D01*
X032735Y004759D01*
X032640Y004854D01*
X032640Y005340D01*
X032689Y005304D01*
X032751Y005272D01*
X032817Y005251D01*
X032885Y005240D01*
X033180Y005240D01*
X033475Y005240D01*
X033543Y005251D01*
X033609Y005272D01*
X033671Y005304D01*
X033727Y005344D01*
X033776Y005393D01*
X033816Y005449D01*
X033848Y005511D01*
X033869Y005577D01*
X033880Y005645D01*
X033880Y005680D01*
X033880Y005715D01*
X033869Y005783D01*
X033848Y005849D01*
X033816Y005911D01*
X033776Y005967D01*
X033727Y006016D01*
X033671Y006056D01*
X033609Y006088D01*
X033543Y006109D01*
X033475Y006120D01*
X033180Y006120D01*
X033180Y005680D01*
X033180Y005680D01*
X033880Y005680D01*
X033180Y005680D01*
X033180Y005680D01*
X033180Y006120D01*
X032885Y006120D01*
X032817Y006109D01*
X032751Y006088D01*
X032689Y006056D01*
X032640Y006020D01*
X032640Y006366D01*
X032682Y006324D01*
X032836Y006260D01*
X033524Y006260D01*
X033678Y006324D01*
X033796Y006442D01*
X033860Y006596D01*
X033860Y006764D01*
X033796Y006918D01*
X033678Y007036D01*
X033524Y007100D01*
X032836Y007100D01*
X032682Y007036D01*
X032564Y006918D01*
X032542Y006865D01*
X032517Y006890D01*
X031687Y006890D01*
X032500Y007703D01*
X032500Y007596D01*
X032564Y007442D01*
X032682Y007324D01*
X032836Y007260D01*
X033524Y007260D01*
X033678Y007324D01*
X033796Y007442D01*
X033860Y007596D01*
X033860Y007764D01*
X033796Y007918D01*
X033755Y007958D01*
X034767Y008970D01*
X034890Y009093D01*
X034890Y012348D01*
X034998Y012240D01*
X035180Y012240D01*
X035362Y012240D01*
X035620Y012498D01*
X035620Y012680D01*
X035620Y012862D01*
X035362Y013120D01*
X035180Y013120D01*
X035180Y012680D01*
X035180Y012680D01*
X035620Y012680D01*
X035180Y012680D01*
X035180Y012680D01*
X035180Y013120D01*
X035040Y013120D01*
X035040Y013127D01*
X034985Y013259D01*
X034884Y013360D01*
X034752Y013415D01*
X034608Y013415D01*
X034515Y013376D01*
X034515Y015843D01*
X034867Y016195D01*
X035002Y016195D01*
X035134Y016250D01*
X035170Y016286D01*
X035170Y013378D01*
X035210Y013283D01*
X035283Y013210D01*
X035760Y012732D01*
X035760Y012506D01*
X035920Y012346D01*
X035920Y012100D01*
X035836Y012100D01*
X035682Y012036D01*
X035564Y011918D01*
X035500Y011764D01*
X035500Y011596D01*
X035564Y011442D01*
X035682Y011324D01*
X035836Y011260D01*
X036524Y011260D01*
X036678Y011324D01*
X036720Y011366D01*
X036720Y011020D01*
X036671Y011056D01*
X036609Y011088D01*
X036543Y011109D01*
X036475Y011120D01*
X036180Y011120D01*
X036180Y010680D01*
X036180Y010680D01*
X036180Y010240D01*
X036475Y010240D01*
X036543Y010251D01*
X036609Y010272D01*
X036671Y010304D01*
X036720Y010340D01*
X036720Y009994D01*
X036678Y010036D01*
X036524Y010100D01*
X035836Y010100D01*
X035682Y010036D01*
X035564Y009918D01*
X035500Y009764D01*
X035500Y009596D01*
X035564Y009442D01*
X035682Y009324D01*
X035836Y009260D01*
X036524Y009260D01*
X036678Y009324D01*
X036720Y009366D01*
X036720Y009020D01*
X036671Y009056D01*
X036609Y009088D01*
X036543Y009109D01*
X036475Y009120D01*
X036180Y009120D01*
X036180Y008680D01*
X036180Y008680D01*
X036180Y008240D01*
X036475Y008240D01*
X036543Y008251D01*
X036609Y008272D01*
X036671Y008304D01*
X036720Y008340D01*
X036720Y007994D01*
X036678Y008036D01*
X036524Y008100D01*
X035836Y008100D01*
X035682Y008036D01*
X035564Y007918D01*
X035500Y007764D01*
X035500Y007596D01*
X035564Y007442D01*
X035682Y007324D01*
X035836Y007260D01*
X036524Y007260D01*
X036678Y007324D01*
X036720Y007366D01*
X036720Y006994D01*
X036678Y007036D01*
X036524Y007100D01*
X035836Y007100D01*
X035682Y007036D01*
X035564Y006918D01*
X035500Y006764D01*
X035500Y006596D01*
X035564Y006442D01*
X035682Y006324D01*
X035836Y006260D01*
X036463Y006260D01*
X036303Y006100D01*
X035836Y006100D01*
X035682Y006036D01*
X035564Y005918D01*
X035500Y005764D01*
X035500Y005596D01*
X035564Y005442D01*
X035682Y005324D01*
X035836Y005260D01*
X036524Y005260D01*
X036678Y005324D01*
X036796Y005442D01*
X036860Y005596D01*
X036860Y005764D01*
X036796Y005918D01*
X036755Y005958D01*
X037017Y006220D01*
X037140Y006343D01*
X037140Y024017D01*
X034620Y026537D01*
X034620Y027048D01*
X034553Y027209D01*
X034429Y027333D01*
X034268Y027400D01*
X034092Y027400D01*
X033931Y027333D01*
X033807Y027209D01*
X033740Y027048D01*
X033740Y026312D01*
X033807Y026151D01*
X033931Y026027D01*
X034092Y025960D01*
X034268Y025960D01*
X034429Y026027D01*
X034483Y026080D01*
X036720Y023843D01*
X036720Y021994D01*
X036678Y022036D01*
X036524Y022100D01*
X036440Y022100D01*
X036440Y022346D01*
X036600Y022506D01*
X036600Y022854D01*
X036440Y023014D01*
X036440Y023346D01*
X036600Y023506D01*
X036600Y023854D01*
X036354Y024100D01*
X036006Y024100D01*
X035760Y023854D01*
X035760Y023506D01*
X035920Y023346D01*
X035920Y023014D01*
X035760Y022854D01*
X035760Y022506D01*
X035920Y022346D01*
X035920Y022100D01*
X035836Y022100D01*
X035682Y022036D01*
X035564Y021918D01*
X035500Y021764D01*
X035500Y021596D01*
X035564Y021442D01*
X035569Y021437D01*
X035210Y021077D01*
X035170Y020982D01*
X035170Y016824D01*
X035134Y016860D01*
X035002Y016915D01*
X034858Y016915D01*
X034726Y016860D01*
X034625Y016759D01*
X034570Y016627D01*
X034570Y016492D01*
X034095Y016017D01*
X034095Y012892D01*
X033303Y012100D01*
X032836Y012100D01*
X032682Y012036D01*
X032589Y011943D01*
X032265Y012267D01*
X032193Y012339D01*
X032296Y012442D01*
X032360Y012596D01*
X032360Y012764D01*
X032296Y012918D01*
X032255Y012958D01*
X032517Y013220D01*
X032640Y013343D01*
X032640Y014340D01*
X032689Y014304D01*
X032751Y014272D01*
X032817Y014251D01*
X032885Y014240D01*
X033180Y014240D01*
X033475Y014240D01*
X033543Y014251D01*
X033609Y014272D01*
X033671Y014304D01*
X033727Y014344D01*
X033776Y014393D01*
X033816Y014449D01*
X033848Y014511D01*
X033869Y014577D01*
X033880Y014645D01*
X033880Y014680D01*
X033880Y014715D01*
X033869Y014783D01*
X033848Y014849D01*
X033816Y014911D01*
X033776Y014967D01*
X033727Y015016D01*
X033671Y015056D01*
X033609Y015088D01*
X033543Y015109D01*
X033475Y015120D01*
X033180Y015120D01*
X033180Y014680D01*
X033180Y014680D01*
X033880Y014680D01*
X033180Y014680D01*
X033180Y014680D01*
X033180Y015120D01*
X032885Y015120D01*
X032817Y015109D01*
X032751Y015088D01*
X032689Y015056D01*
X032640Y015020D01*
X032640Y015366D01*
X032682Y015324D01*
X032836Y015260D01*
X033524Y015260D01*
X033678Y015324D01*
X033796Y015442D01*
X033860Y015596D01*
X033860Y015764D01*
X033796Y015918D01*
X033678Y016036D01*
X033524Y016100D01*
X032897Y016100D01*
X033057Y016260D01*
X033524Y016260D01*
X033678Y016324D01*
X033796Y016442D01*
X033860Y016596D01*
X033860Y016764D01*
X033796Y016918D01*
X033678Y017036D01*
X033524Y017100D01*
X032836Y017100D01*
X032682Y017036D01*
X032564Y016918D01*
X032500Y016764D01*
X032500Y016596D01*
X032564Y016442D01*
X032605Y016402D01*
X032220Y016017D01*
X032220Y015994D01*
X032178Y016036D01*
X032024Y016100D01*
X031557Y016100D01*
X031397Y016260D01*
X032024Y016260D01*
X032178Y016324D01*
X032296Y016442D01*
X032360Y016596D01*
X032360Y016764D01*
X032296Y016918D01*
X032178Y017036D01*
X032024Y017100D01*
X031557Y017100D01*
X031397Y017260D01*
X032024Y017260D01*
X032178Y017324D01*
X032296Y017442D01*
X032360Y017596D01*
X032360Y017764D01*
X032296Y017918D01*
X032178Y018036D01*
X032024Y018100D01*
X031336Y018100D01*
X031182Y018036D01*
X031140Y017994D01*
X031140Y018366D01*
X031182Y018324D01*
X031336Y018260D01*
X032024Y018260D01*
X032178Y018324D01*
X032296Y018442D01*
X032360Y018596D01*
X032360Y018764D01*
X032296Y018918D01*
X032178Y019036D01*
X032024Y019100D01*
X031336Y019100D01*
X031182Y019036D01*
X031140Y018994D01*
X031140Y019366D01*
X031182Y019324D01*
X031336Y019260D01*
X032024Y019260D01*
X032178Y019324D01*
X032296Y019442D01*
X032360Y019596D01*
X032360Y019764D01*
X032296Y019918D01*
X032178Y020036D01*
X032024Y020100D01*
X031940Y020100D01*
X031940Y020846D01*
X032100Y021006D01*
X032100Y021354D01*
X031854Y021600D01*
X031506Y021600D01*
X031390Y021484D01*
X031390Y026011D01*
X031429Y026027D01*
X031553Y026151D01*
X031620Y026312D01*
X031620Y027048D01*
X031553Y027209D01*
X031429Y027333D01*
X031268Y027400D01*
X031092Y027400D01*
X030931Y027333D01*
X030807Y027209D01*
X030740Y027048D01*
X030740Y026312D01*
X030807Y026151D01*
X030742Y026308D02*
X030631Y026308D01*
X030640Y026467D02*
X030740Y026467D01*
X030740Y026625D02*
X030640Y026625D01*
X030640Y026784D02*
X030740Y026784D01*
X030740Y026942D02*
X030640Y026942D01*
X030618Y027101D02*
X030762Y027101D01*
X030857Y027259D02*
X030531Y027259D01*
X030232Y027418D02*
X041400Y027418D01*
X041400Y027576D02*
X001010Y027576D01*
X001010Y027418D02*
X030128Y027418D01*
X030170Y027418D02*
X030190Y027418D01*
X030190Y027259D02*
X030170Y027259D01*
X030170Y027101D02*
X030190Y027101D01*
X030190Y026942D02*
X030170Y026942D01*
X030170Y026784D02*
X030190Y026784D01*
X029742Y027101D02*
X024624Y027101D01*
X024665Y026942D02*
X029720Y026942D01*
X029720Y026784D02*
X028260Y026784D01*
X028418Y026625D02*
X029720Y026625D01*
X029720Y026467D02*
X028577Y026467D01*
X028590Y026308D02*
X029729Y026308D01*
X029793Y026150D02*
X028590Y026150D01*
X028357Y025674D02*
X030970Y025674D01*
X030970Y025516D02*
X026016Y025516D01*
X025858Y025674D02*
X027503Y025674D01*
X027344Y025833D02*
X025699Y025833D01*
X025541Y025991D02*
X027270Y025991D01*
X027270Y026150D02*
X025382Y026150D01*
X025224Y026308D02*
X027270Y026308D01*
X027283Y026467D02*
X025065Y026467D01*
X024907Y026625D02*
X027442Y026625D01*
X027600Y026784D02*
X024748Y026784D01*
X024451Y027259D02*
X029829Y027259D01*
X031503Y027259D02*
X032857Y027259D01*
X032807Y027209D02*
X032740Y027048D01*
X032740Y026312D01*
X032807Y026151D01*
X032931Y026027D01*
X032970Y026011D01*
X032970Y024064D01*
X032760Y023854D01*
X032760Y023506D01*
X033006Y023260D01*
X033354Y023260D01*
X033600Y023506D01*
X033600Y023854D01*
X033390Y024064D01*
X033390Y026011D01*
X033429Y026027D01*
X033553Y026151D01*
X033620Y026312D01*
X033620Y027048D01*
X033553Y027209D01*
X033429Y027333D01*
X033268Y027400D01*
X033092Y027400D01*
X032931Y027333D01*
X032807Y027209D01*
X032762Y027101D02*
X031598Y027101D01*
X031620Y026942D02*
X032740Y026942D01*
X032740Y026784D02*
X031620Y026784D01*
X031620Y026625D02*
X032740Y026625D01*
X032740Y026467D02*
X031620Y026467D01*
X031618Y026308D02*
X032742Y026308D01*
X032808Y026150D02*
X031552Y026150D01*
X031390Y025991D02*
X032970Y025991D01*
X032970Y025833D02*
X031390Y025833D01*
X031390Y025674D02*
X032970Y025674D01*
X032970Y025516D02*
X031390Y025516D01*
X031390Y025357D02*
X032970Y025357D01*
X032970Y025199D02*
X031390Y025199D01*
X031390Y025040D02*
X032970Y025040D01*
X032970Y024882D02*
X031390Y024882D01*
X031390Y024723D02*
X032970Y024723D01*
X032970Y024565D02*
X031390Y024565D01*
X031390Y024406D02*
X032970Y024406D01*
X032970Y024248D02*
X031390Y024248D01*
X031390Y024089D02*
X032970Y024089D01*
X032837Y023931D02*
X031390Y023931D01*
X031390Y023772D02*
X032760Y023772D01*
X032760Y023614D02*
X031390Y023614D01*
X031390Y023455D02*
X032811Y023455D01*
X032969Y023297D02*
X031390Y023297D01*
X031390Y023138D02*
X035920Y023138D01*
X035920Y023297D02*
X033391Y023297D01*
X033549Y023455D02*
X035811Y023455D01*
X035760Y023614D02*
X033600Y023614D01*
X033600Y023772D02*
X035760Y023772D01*
X035837Y023931D02*
X033523Y023931D01*
X033390Y024089D02*
X035995Y024089D01*
X036315Y024248D02*
X033390Y024248D01*
X033390Y024406D02*
X036157Y024406D01*
X035998Y024565D02*
X033390Y024565D01*
X033390Y024723D02*
X035840Y024723D01*
X035681Y024882D02*
X033390Y024882D01*
X033390Y025040D02*
X035523Y025040D01*
X035364Y025199D02*
X033390Y025199D01*
X033390Y025357D02*
X035206Y025357D01*
X035047Y025516D02*
X033390Y025516D01*
X033390Y025674D02*
X034889Y025674D01*
X034730Y025833D02*
X033390Y025833D01*
X033390Y025991D02*
X034018Y025991D01*
X033808Y026150D02*
X033552Y026150D01*
X033618Y026308D02*
X033742Y026308D01*
X033740Y026467D02*
X033620Y026467D01*
X033620Y026625D02*
X033740Y026625D01*
X033740Y026784D02*
X033620Y026784D01*
X033620Y026942D02*
X033740Y026942D01*
X033762Y027101D02*
X033598Y027101D01*
X033503Y027259D02*
X033857Y027259D01*
X034503Y027259D02*
X041400Y027259D01*
X041400Y027101D02*
X034598Y027101D01*
X034620Y026942D02*
X041400Y026942D01*
X041400Y026784D02*
X034620Y026784D01*
X034620Y026625D02*
X041400Y026625D01*
X041400Y026467D02*
X034690Y026467D01*
X034849Y026308D02*
X041400Y026308D01*
X041400Y026150D02*
X035007Y026150D01*
X035166Y025991D02*
X041400Y025991D01*
X041400Y025833D02*
X035324Y025833D01*
X035483Y025674D02*
X038218Y025674D01*
X038232Y025682D02*
X037968Y025529D01*
X037752Y025314D01*
X037599Y025049D01*
X037520Y024754D01*
X037520Y024449D01*
X037599Y024154D01*
X037752Y023889D01*
X037968Y023673D01*
X038232Y023520D01*
X038527Y023441D01*
X038833Y023441D01*
X039128Y023520D01*
X039392Y023673D01*
X039608Y023889D01*
X039761Y024154D01*
X039840Y024449D01*
X039840Y024754D01*
X039761Y025049D01*
X039608Y025314D01*
X039392Y025529D01*
X039128Y025682D01*
X038833Y025761D01*
X038527Y025761D01*
X038232Y025682D01*
X037954Y025516D02*
X035641Y025516D01*
X035800Y025357D02*
X037795Y025357D01*
X037685Y025199D02*
X035958Y025199D01*
X036117Y025040D02*
X037597Y025040D01*
X037554Y024882D02*
X036275Y024882D01*
X036434Y024723D02*
X037520Y024723D01*
X037520Y024565D02*
X036592Y024565D01*
X036751Y024406D02*
X037531Y024406D01*
X037574Y024248D02*
X036909Y024248D01*
X037068Y024089D02*
X037636Y024089D01*
X037728Y023931D02*
X037140Y023931D01*
X037140Y023772D02*
X037869Y023772D01*
X038071Y023614D02*
X037140Y023614D01*
X037140Y023455D02*
X038476Y023455D01*
X038884Y023455D02*
X041400Y023455D01*
X041400Y023297D02*
X037140Y023297D01*
X037140Y023138D02*
X041400Y023138D01*
X041400Y022980D02*
X037140Y022980D01*
X037140Y022821D02*
X041400Y022821D01*
X041400Y022663D02*
X037140Y022663D01*
X037140Y022504D02*
X041400Y022504D01*
X041400Y022346D02*
X038603Y022346D01*
X038557Y022391D02*
X037685Y022391D01*
X037591Y022297D01*
X037591Y021425D01*
X037685Y021331D01*
X038557Y021331D01*
X038651Y021425D01*
X038651Y022297D01*
X038557Y022391D01*
X038651Y022187D02*
X041400Y022187D01*
X041400Y022029D02*
X038651Y022029D01*
X038651Y021870D02*
X041400Y021870D01*
X041400Y021712D02*
X039591Y021712D01*
X039539Y021763D02*
X039344Y021844D01*
X039134Y021844D01*
X038939Y021763D01*
X038790Y021614D01*
X038709Y021419D01*
X038709Y021208D01*
X038790Y021014D01*
X038939Y020865D01*
X039134Y020784D01*
X039344Y020784D01*
X039539Y020865D01*
X039688Y021014D01*
X039769Y021208D01*
X039769Y021419D01*
X039688Y021614D01*
X039539Y021763D01*
X039714Y021553D02*
X041400Y021553D01*
X041400Y021395D02*
X039769Y021395D01*
X039769Y021236D02*
X041400Y021236D01*
X041400Y021078D02*
X039715Y021078D01*
X039594Y020919D02*
X041400Y020919D01*
X041400Y020761D02*
X038651Y020761D01*
X038651Y020665D02*
X038651Y020876D01*
X038570Y021071D01*
X038421Y021220D01*
X038226Y021301D01*
X038016Y021301D01*
X037821Y021220D01*
X037672Y021071D01*
X037591Y020876D01*
X037591Y020665D01*
X037672Y020470D01*
X037821Y020321D01*
X038016Y020241D01*
X038226Y020241D01*
X038421Y020321D01*
X038570Y020470D01*
X038651Y020665D01*
X038625Y020602D02*
X038868Y020602D01*
X038939Y020673D02*
X038790Y020524D01*
X038709Y020329D01*
X038709Y020118D01*
X038790Y019923D01*
X038939Y019774D01*
X039134Y019693D01*
X039344Y019693D01*
X039539Y019774D01*
X039688Y019923D01*
X039769Y020118D01*
X039769Y020329D01*
X039688Y020524D01*
X039539Y020673D01*
X039344Y020753D01*
X039134Y020753D01*
X038939Y020673D01*
X038884Y020919D02*
X038633Y020919D01*
X038563Y021078D02*
X038763Y021078D01*
X038709Y021236D02*
X038382Y021236D01*
X038621Y021395D02*
X038709Y021395D01*
X038764Y021553D02*
X038651Y021553D01*
X038651Y021712D02*
X038887Y021712D01*
X037860Y021236D02*
X037140Y021236D01*
X037140Y021078D02*
X037678Y021078D01*
X037609Y020919D02*
X037140Y020919D01*
X037140Y020761D02*
X037591Y020761D01*
X037617Y020602D02*
X037140Y020602D01*
X037140Y020444D02*
X037698Y020444D01*
X037908Y020285D02*
X037140Y020285D01*
X037140Y020127D02*
X037818Y020127D01*
X037821Y020129D02*
X037672Y019980D01*
X037591Y019785D01*
X037591Y019575D01*
X037672Y019380D01*
X037821Y019231D01*
X038016Y019150D01*
X038226Y019150D01*
X038421Y019231D01*
X038570Y019380D01*
X038651Y019575D01*
X038651Y019785D01*
X038570Y019980D01*
X038421Y020129D01*
X038226Y020210D01*
X038016Y020210D01*
X037821Y020129D01*
X037667Y019968D02*
X037140Y019968D01*
X037140Y019810D02*
X037601Y019810D01*
X037591Y019651D02*
X037140Y019651D01*
X037140Y019493D02*
X037625Y019493D01*
X037717Y019334D02*
X037140Y019334D01*
X037140Y019176D02*
X037954Y019176D01*
X038016Y019119D02*
X037821Y019039D01*
X037672Y018890D01*
X037591Y018695D01*
X037591Y018484D01*
X037672Y018289D01*
X037821Y018140D01*
X038016Y018059D01*
X038226Y018059D01*
X038421Y018140D01*
X038570Y018289D01*
X038651Y018484D01*
X038651Y018695D01*
X038570Y018890D01*
X038421Y019039D01*
X038226Y019119D01*
X038016Y019119D01*
X037799Y019017D02*
X037140Y019017D01*
X037140Y018859D02*
X037659Y018859D01*
X037593Y018700D02*
X037140Y018700D01*
X037140Y018542D02*
X037591Y018542D01*
X037633Y018383D02*
X037140Y018383D01*
X037140Y018225D02*
X037736Y018225D01*
X037821Y017948D02*
X037672Y017799D01*
X037591Y017604D01*
X037591Y017393D01*
X037672Y017199D01*
X037821Y017050D01*
X038016Y016969D01*
X038226Y016969D01*
X038421Y017050D01*
X038570Y017199D01*
X038651Y017393D01*
X038651Y017604D01*
X038570Y017799D01*
X038421Y017948D01*
X038226Y018029D01*
X038016Y018029D01*
X037821Y017948D01*
X037780Y017908D02*
X037140Y017908D01*
X037140Y018066D02*
X038000Y018066D01*
X038242Y018066D02*
X038709Y018066D01*
X038709Y018152D02*
X038709Y017941D01*
X038790Y017746D01*
X038939Y017597D01*
X039134Y017516D01*
X039344Y017516D01*
X039539Y017597D01*
X039688Y017746D01*
X039769Y017941D01*
X039769Y018152D01*
X039688Y018346D01*
X039539Y018495D01*
X039344Y018576D01*
X039134Y018576D01*
X038939Y018495D01*
X038790Y018346D01*
X038709Y018152D01*
X038739Y018225D02*
X038506Y018225D01*
X038609Y018383D02*
X038826Y018383D01*
X038651Y018542D02*
X039050Y018542D01*
X039134Y018607D02*
X039344Y018607D01*
X039539Y018687D01*
X039688Y018836D01*
X039769Y019031D01*
X039769Y019242D01*
X039688Y019437D01*
X039539Y019586D01*
X039344Y019667D01*
X039134Y019667D01*
X038939Y019586D01*
X038790Y019437D01*
X038709Y019242D01*
X038709Y019031D01*
X038790Y018836D01*
X038939Y018687D01*
X039134Y018607D01*
X038926Y018700D02*
X038649Y018700D01*
X038583Y018859D02*
X038781Y018859D01*
X038715Y019017D02*
X038443Y019017D01*
X038288Y019176D02*
X038709Y019176D01*
X038747Y019334D02*
X038525Y019334D01*
X038617Y019493D02*
X038845Y019493D01*
X038651Y019651D02*
X039096Y019651D01*
X038903Y019810D02*
X038641Y019810D01*
X038575Y019968D02*
X038771Y019968D01*
X038709Y020127D02*
X038424Y020127D01*
X038334Y020285D02*
X038709Y020285D01*
X038757Y020444D02*
X038543Y020444D01*
X039610Y020602D02*
X041400Y020602D01*
X041400Y020444D02*
X039722Y020444D01*
X039769Y020285D02*
X041400Y020285D01*
X041400Y020127D02*
X039769Y020127D01*
X039707Y019968D02*
X041400Y019968D01*
X041400Y019810D02*
X039575Y019810D01*
X039382Y019651D02*
X041400Y019651D01*
X041400Y019493D02*
X039633Y019493D01*
X039731Y019334D02*
X041400Y019334D01*
X041400Y019176D02*
X039769Y019176D01*
X039763Y019017D02*
X041400Y019017D01*
X041400Y018859D02*
X039698Y018859D01*
X039552Y018700D02*
X041400Y018700D01*
X041400Y018542D02*
X039428Y018542D01*
X039652Y018383D02*
X041400Y018383D01*
X041400Y018225D02*
X039739Y018225D01*
X039769Y018066D02*
X041400Y018066D01*
X041400Y017908D02*
X039755Y017908D01*
X039690Y017749D02*
X041400Y017749D01*
X041400Y017591D02*
X039524Y017591D01*
X038954Y017591D02*
X038651Y017591D01*
X038651Y017432D02*
X041400Y017432D01*
X041400Y017274D02*
X038601Y017274D01*
X038487Y017115D02*
X041400Y017115D01*
X041400Y016957D02*
X037140Y016957D01*
X037140Y017115D02*
X037755Y017115D01*
X037641Y017274D02*
X037140Y017274D01*
X037140Y017432D02*
X037591Y017432D01*
X037591Y017591D02*
X037140Y017591D01*
X037140Y017749D02*
X037651Y017749D01*
X038462Y017908D02*
X038723Y017908D01*
X038788Y017749D02*
X038591Y017749D01*
X037140Y016798D02*
X041400Y016798D01*
X041400Y016640D02*
X037140Y016640D01*
X037140Y016481D02*
X041400Y016481D01*
X041400Y016323D02*
X037140Y016323D01*
X037140Y016164D02*
X041400Y016164D01*
X041400Y016006D02*
X037140Y016006D01*
X037140Y015847D02*
X038260Y015847D01*
X038232Y015840D02*
X037968Y015687D01*
X037752Y015471D01*
X037599Y015206D01*
X037520Y014911D01*
X037520Y014606D01*
X037599Y014311D01*
X037752Y014046D01*
X037968Y013831D01*
X038232Y013678D01*
X038527Y013599D01*
X038833Y013599D01*
X039128Y013678D01*
X039392Y013831D01*
X039608Y014046D01*
X039761Y014311D01*
X039840Y014606D01*
X039840Y014911D01*
X039761Y015206D01*
X039608Y015471D01*
X039392Y015687D01*
X039128Y015840D01*
X038833Y015919D01*
X038527Y015919D01*
X038232Y015840D01*
X037970Y015689D02*
X037140Y015689D01*
X037140Y015530D02*
X037811Y015530D01*
X037694Y015372D02*
X037140Y015372D01*
X037140Y015213D02*
X037603Y015213D01*
X037558Y015055D02*
X037140Y015055D01*
X037140Y014896D02*
X037520Y014896D01*
X037520Y014738D02*
X037140Y014738D01*
X037140Y014579D02*
X037527Y014579D01*
X037570Y014421D02*
X037140Y014421D01*
X037140Y014262D02*
X037627Y014262D01*
X037719Y014104D02*
X037140Y014104D01*
X037140Y013945D02*
X037853Y013945D01*
X038044Y013787D02*
X037140Y013787D01*
X037140Y013628D02*
X038418Y013628D01*
X038942Y013628D02*
X041400Y013628D01*
X041400Y013470D02*
X037140Y013470D01*
X037140Y013311D02*
X041400Y013311D01*
X041400Y013153D02*
X037140Y013153D01*
X037140Y012994D02*
X041400Y012994D01*
X041400Y012836D02*
X037140Y012836D01*
X037140Y012677D02*
X041400Y012677D01*
X041400Y012519D02*
X039464Y012519D01*
X039362Y012620D02*
X038998Y012620D01*
X038740Y012362D01*
X038740Y011998D01*
X038970Y011768D01*
X038970Y011592D01*
X038740Y011362D01*
X038740Y010998D01*
X038998Y010740D01*
X039362Y010740D01*
X039620Y010998D01*
X039620Y011362D01*
X039390Y011592D01*
X039390Y011768D01*
X039620Y011998D01*
X039620Y012362D01*
X039362Y012620D01*
X039620Y012360D02*
X041400Y012360D01*
X041400Y012202D02*
X039620Y012202D01*
X039620Y012043D02*
X041400Y012043D01*
X041400Y011885D02*
X039507Y011885D01*
X039390Y011726D02*
X041400Y011726D01*
X041400Y011568D02*
X039415Y011568D01*
X039573Y011409D02*
X041400Y011409D01*
X041400Y011251D02*
X039620Y011251D01*
X039620Y011092D02*
X041400Y011092D01*
X041400Y010934D02*
X039556Y010934D01*
X039397Y010775D02*
X041400Y010775D01*
X041400Y010617D02*
X039366Y010617D01*
X039362Y010620D02*
X038998Y010620D01*
X038740Y010362D01*
X038740Y009998D01*
X038970Y009768D01*
X038970Y009592D01*
X038740Y009362D01*
X038740Y008998D01*
X038970Y008768D01*
X038970Y008592D01*
X038740Y008362D01*
X038740Y007998D01*
X038970Y007768D01*
X038970Y007592D01*
X038740Y007362D01*
X038740Y006998D01*
X038998Y006740D01*
X039362Y006740D01*
X039620Y006998D01*
X039620Y007362D01*
X039390Y007592D01*
X039390Y007768D01*
X039620Y007998D01*
X039620Y008362D01*
X039390Y008592D01*
X039390Y008768D01*
X039620Y008998D01*
X039620Y009362D01*
X039390Y009592D01*
X039390Y009768D01*
X039620Y009998D01*
X039620Y010362D01*
X039362Y010620D01*
X039524Y010458D02*
X041400Y010458D01*
X041400Y010300D02*
X039620Y010300D01*
X039620Y010141D02*
X041400Y010141D01*
X041400Y009983D02*
X039605Y009983D01*
X039446Y009824D02*
X041400Y009824D01*
X041400Y009666D02*
X039390Y009666D01*
X039475Y009507D02*
X041400Y009507D01*
X041400Y009349D02*
X039620Y009349D01*
X039620Y009190D02*
X041400Y009190D01*
X041400Y009032D02*
X039620Y009032D01*
X039495Y008873D02*
X041400Y008873D01*
X041400Y008715D02*
X039390Y008715D01*
X039426Y008556D02*
X041400Y008556D01*
X041400Y008398D02*
X039585Y008398D01*
X039620Y008239D02*
X041400Y008239D01*
X041400Y008081D02*
X039620Y008081D01*
X039544Y007922D02*
X041400Y007922D01*
X041400Y007764D02*
X039390Y007764D01*
X039390Y007605D02*
X041400Y007605D01*
X041400Y007447D02*
X039536Y007447D01*
X039620Y007288D02*
X041400Y007288D01*
X041400Y007130D02*
X039620Y007130D01*
X039593Y006971D02*
X041400Y006971D01*
X041400Y006813D02*
X039435Y006813D01*
X038925Y006813D02*
X038435Y006813D01*
X038362Y006740D02*
X038620Y006998D01*
X038620Y007362D01*
X038362Y007620D01*
X037998Y007620D01*
X037740Y007362D01*
X037740Y006998D01*
X037998Y006740D01*
X038362Y006740D01*
X038593Y006971D02*
X038767Y006971D01*
X038740Y007130D02*
X038620Y007130D01*
X038620Y007288D02*
X038740Y007288D01*
X038824Y007447D02*
X038536Y007447D01*
X038377Y007605D02*
X038970Y007605D01*
X038970Y007764D02*
X038386Y007764D01*
X038362Y007740D02*
X038620Y007998D01*
X038620Y008362D01*
X038362Y008620D01*
X037998Y008620D01*
X037740Y008362D01*
X037740Y007998D01*
X037998Y007740D01*
X038362Y007740D01*
X038544Y007922D02*
X038816Y007922D01*
X038740Y008081D02*
X038620Y008081D01*
X038620Y008239D02*
X038740Y008239D01*
X038775Y008398D02*
X038585Y008398D01*
X038426Y008556D02*
X038934Y008556D01*
X038970Y008715D02*
X037140Y008715D01*
X037140Y008873D02*
X037865Y008873D01*
X037740Y008998D02*
X037998Y008740D01*
X038362Y008740D01*
X038620Y008998D01*
X038620Y009362D01*
X038362Y009620D01*
X037998Y009620D01*
X037740Y009362D01*
X037740Y008998D01*
X037740Y009032D02*
X037140Y009032D01*
X037140Y009190D02*
X037740Y009190D01*
X037740Y009349D02*
X037140Y009349D01*
X037140Y009507D02*
X037885Y009507D01*
X037998Y009740D02*
X038362Y009740D01*
X038620Y009998D01*
X038620Y010362D01*
X038362Y010620D01*
X037998Y010620D01*
X037740Y010362D01*
X037740Y009998D01*
X037998Y009740D01*
X037914Y009824D02*
X037140Y009824D01*
X037140Y009666D02*
X038970Y009666D01*
X038914Y009824D02*
X038446Y009824D01*
X038605Y009983D02*
X038755Y009983D01*
X038740Y010141D02*
X038620Y010141D01*
X038620Y010300D02*
X038740Y010300D01*
X038836Y010458D02*
X038524Y010458D01*
X038366Y010617D02*
X038994Y010617D01*
X038963Y010775D02*
X038397Y010775D01*
X038362Y010740D02*
X038620Y010998D01*
X038620Y011362D01*
X038362Y011620D01*
X037998Y011620D01*
X037740Y011362D01*
X037740Y010998D01*
X037998Y010740D01*
X038362Y010740D01*
X038556Y010934D02*
X038804Y010934D01*
X038740Y011092D02*
X038620Y011092D01*
X038620Y011251D02*
X038740Y011251D01*
X038787Y011409D02*
X038573Y011409D01*
X038415Y011568D02*
X038945Y011568D01*
X038970Y011726D02*
X037140Y011726D01*
X037140Y011568D02*
X037945Y011568D01*
X037998Y011740D02*
X038362Y011740D01*
X038620Y011998D01*
X038620Y012362D01*
X038362Y012620D01*
X037998Y012620D01*
X037740Y012362D01*
X037740Y011998D01*
X037998Y011740D01*
X037853Y011885D02*
X037140Y011885D01*
X037140Y012043D02*
X037740Y012043D01*
X037740Y012202D02*
X037140Y012202D01*
X037140Y012360D02*
X037740Y012360D01*
X037896Y012519D02*
X037140Y012519D01*
X035906Y012360D02*
X035482Y012360D01*
X035620Y012519D02*
X035760Y012519D01*
X035760Y012677D02*
X035620Y012677D01*
X035620Y012836D02*
X035657Y012836D01*
X035498Y012994D02*
X035488Y012994D01*
X035340Y013153D02*
X035029Y013153D01*
X034933Y013311D02*
X035198Y013311D01*
X035170Y013470D02*
X034515Y013470D01*
X034515Y013628D02*
X035170Y013628D01*
X035170Y013787D02*
X034515Y013787D01*
X034515Y013945D02*
X035170Y013945D01*
X035170Y014104D02*
X034515Y014104D01*
X034515Y014262D02*
X035170Y014262D01*
X035170Y014421D02*
X034515Y014421D01*
X034515Y014579D02*
X035170Y014579D01*
X035170Y014738D02*
X034515Y014738D01*
X034515Y014896D02*
X035170Y014896D01*
X035170Y015055D02*
X034515Y015055D01*
X034515Y015213D02*
X035170Y015213D01*
X035170Y015372D02*
X034515Y015372D01*
X034515Y015530D02*
X035170Y015530D01*
X035170Y015689D02*
X034515Y015689D01*
X034519Y015847D02*
X035170Y015847D01*
X035170Y016006D02*
X034678Y016006D01*
X034836Y016164D02*
X035170Y016164D01*
X034559Y016481D02*
X033812Y016481D01*
X033860Y016640D02*
X034575Y016640D01*
X034664Y016798D02*
X033846Y016798D01*
X033757Y016957D02*
X035170Y016957D01*
X035170Y017115D02*
X031542Y017115D01*
X032056Y017274D02*
X032804Y017274D01*
X032836Y017260D02*
X033524Y017260D01*
X033678Y017324D01*
X033796Y017442D01*
X033860Y017596D01*
X033860Y017764D01*
X033796Y017918D01*
X033678Y018036D01*
X033524Y018100D01*
X032836Y018100D01*
X032682Y018036D01*
X032564Y017918D01*
X032500Y017764D01*
X032500Y017596D01*
X032564Y017442D01*
X032682Y017324D01*
X032836Y017260D01*
X032574Y017432D02*
X032286Y017432D01*
X032358Y017591D02*
X032502Y017591D01*
X032500Y017749D02*
X032360Y017749D01*
X032300Y017908D02*
X032560Y017908D01*
X032754Y018066D02*
X032106Y018066D01*
X032237Y018383D02*
X032623Y018383D01*
X032682Y018324D02*
X032836Y018260D01*
X033524Y018260D01*
X033678Y018324D01*
X033796Y018442D01*
X033860Y018596D01*
X033860Y018764D01*
X033796Y018918D01*
X033678Y019036D01*
X033524Y019100D01*
X032836Y019100D01*
X032682Y019036D01*
X032564Y018918D01*
X032500Y018764D01*
X032500Y018596D01*
X032564Y018442D01*
X032682Y018324D01*
X032523Y018542D02*
X032337Y018542D01*
X032360Y018700D02*
X032500Y018700D01*
X032539Y018859D02*
X032321Y018859D01*
X032197Y019017D02*
X032663Y019017D01*
X032836Y019260D02*
X033524Y019260D01*
X033678Y019324D01*
X033796Y019442D01*
X033860Y019596D01*
X033860Y019764D01*
X033796Y019918D01*
X033678Y020036D01*
X033524Y020100D01*
X032836Y020100D01*
X032682Y020036D01*
X032564Y019918D01*
X032500Y019764D01*
X032500Y019596D01*
X032564Y019442D01*
X032682Y019324D01*
X032836Y019260D01*
X032672Y019334D02*
X032188Y019334D01*
X032317Y019493D02*
X032543Y019493D01*
X032500Y019651D02*
X032360Y019651D01*
X032341Y019810D02*
X032519Y019810D01*
X032614Y019968D02*
X032246Y019968D01*
X031940Y020127D02*
X035170Y020127D01*
X035170Y020285D02*
X033584Y020285D01*
X033524Y020260D02*
X033678Y020324D01*
X033796Y020442D01*
X033860Y020596D01*
X033860Y020764D01*
X033796Y020918D01*
X033678Y021036D01*
X033524Y021100D01*
X032836Y021100D01*
X032682Y021036D01*
X032564Y020918D01*
X032500Y020764D01*
X032500Y020596D01*
X032564Y020442D01*
X032682Y020324D01*
X032836Y020260D01*
X033524Y020260D01*
X033797Y020444D02*
X035170Y020444D01*
X035170Y020602D02*
X033860Y020602D01*
X033860Y020761D02*
X035170Y020761D01*
X035170Y020919D02*
X033795Y020919D01*
X033578Y021078D02*
X035210Y021078D01*
X035368Y021236D02*
X032100Y021236D01*
X032100Y021078D02*
X032782Y021078D01*
X032836Y021260D02*
X033524Y021260D01*
X033678Y021324D01*
X033796Y021442D01*
X033860Y021596D01*
X033860Y021764D01*
X033796Y021918D01*
X033678Y022036D01*
X033524Y022100D01*
X032836Y022100D01*
X032682Y022036D01*
X032564Y021918D01*
X032500Y021764D01*
X032500Y021596D01*
X032564Y021442D01*
X032682Y021324D01*
X032836Y021260D01*
X032611Y021395D02*
X032059Y021395D01*
X031901Y021553D02*
X032518Y021553D01*
X032500Y021712D02*
X031390Y021712D01*
X031390Y021870D02*
X032544Y021870D01*
X032675Y022029D02*
X031390Y022029D01*
X031390Y022187D02*
X035920Y022187D01*
X035920Y022346D02*
X035468Y022346D01*
X035362Y022240D02*
X035620Y022498D01*
X035620Y022680D01*
X035620Y022862D01*
X035362Y023120D01*
X035180Y023120D01*
X035180Y022680D01*
X035620Y022680D01*
X035180Y022680D01*
X035180Y022680D01*
X035180Y022680D01*
X035180Y022240D01*
X035362Y022240D01*
X035180Y022240D02*
X035180Y022680D01*
X035180Y022680D01*
X035180Y022680D01*
X034740Y022680D01*
X034740Y022862D01*
X034998Y023120D01*
X035180Y023120D01*
X035180Y022680D01*
X034740Y022680D01*
X034740Y022498D01*
X034998Y022240D01*
X035180Y022240D01*
X035180Y022346D02*
X035180Y022346D01*
X035180Y022504D02*
X035180Y022504D01*
X035180Y022663D02*
X035180Y022663D01*
X035180Y022821D02*
X035180Y022821D01*
X035180Y022980D02*
X035180Y022980D01*
X035503Y022980D02*
X035886Y022980D01*
X035760Y022821D02*
X035620Y022821D01*
X035620Y022663D02*
X035760Y022663D01*
X035762Y022504D02*
X035620Y022504D01*
X036440Y022346D02*
X036720Y022346D01*
X036720Y022504D02*
X036598Y022504D01*
X036600Y022663D02*
X036720Y022663D01*
X036720Y022821D02*
X036600Y022821D01*
X036720Y022980D02*
X036474Y022980D01*
X036440Y023138D02*
X036720Y023138D01*
X036720Y023297D02*
X036440Y023297D01*
X036549Y023455D02*
X036720Y023455D01*
X036720Y023614D02*
X036600Y023614D01*
X036600Y023772D02*
X036720Y023772D01*
X036632Y023931D02*
X036523Y023931D01*
X036474Y024089D02*
X036365Y024089D01*
X034857Y022980D02*
X031390Y022980D01*
X031390Y022821D02*
X034740Y022821D01*
X034740Y022663D02*
X031390Y022663D01*
X031390Y022504D02*
X034740Y022504D01*
X034892Y022346D02*
X031390Y022346D01*
X030970Y022346D02*
X029186Y022346D01*
X029140Y022504D02*
X030970Y022504D01*
X030970Y022663D02*
X029140Y022663D01*
X029140Y022821D02*
X030970Y022821D01*
X030970Y022980D02*
X029140Y022980D01*
X029140Y023138D02*
X030970Y023138D01*
X030970Y023297D02*
X029140Y023297D01*
X029140Y023455D02*
X030970Y023455D01*
X030970Y023614D02*
X029140Y023614D01*
X029140Y023772D02*
X030970Y023772D01*
X030970Y023931D02*
X029140Y023931D01*
X029140Y024089D02*
X030970Y024089D01*
X030970Y024248D02*
X029140Y024248D01*
X029140Y024406D02*
X030970Y024406D01*
X030970Y024565D02*
X029140Y024565D01*
X029059Y024723D02*
X030970Y024723D01*
X030970Y024882D02*
X028900Y024882D01*
X028742Y025040D02*
X030970Y025040D01*
X030970Y025199D02*
X028583Y025199D01*
X027777Y025199D02*
X026333Y025199D01*
X026175Y025357D02*
X030970Y025357D01*
X027720Y025040D02*
X026492Y025040D01*
X026650Y024882D02*
X027720Y024882D01*
X027720Y024723D02*
X026809Y024723D01*
X026967Y024565D02*
X027720Y024565D01*
X027720Y024406D02*
X027126Y024406D01*
X027284Y024248D02*
X027720Y024248D01*
X027720Y024089D02*
X027390Y024089D01*
X027390Y023931D02*
X027720Y023931D01*
X027720Y023772D02*
X027390Y023772D01*
X027390Y023614D02*
X027720Y023614D01*
X027720Y023455D02*
X027390Y023455D01*
X027390Y023297D02*
X027720Y023297D01*
X027720Y023138D02*
X027390Y023138D01*
X027390Y022980D02*
X027720Y022980D01*
X027638Y022821D02*
X027390Y022821D01*
X027390Y022663D02*
X027479Y022663D01*
X029345Y022187D02*
X030970Y022187D01*
X030970Y022029D02*
X029503Y022029D01*
X029662Y021870D02*
X030970Y021870D01*
X030970Y021712D02*
X029820Y021712D01*
X029979Y021553D02*
X030431Y021553D01*
X030272Y021395D02*
X030137Y021395D01*
X030680Y021395D02*
X030680Y021395D01*
X030680Y021553D02*
X030680Y021553D01*
X030929Y021553D02*
X030970Y021553D01*
X031390Y021553D02*
X031459Y021553D01*
X030680Y021236D02*
X030680Y021236D01*
X031940Y020761D02*
X032500Y020761D01*
X032500Y020602D02*
X031940Y020602D01*
X031940Y020444D02*
X032563Y020444D01*
X032776Y020285D02*
X031940Y020285D01*
X032013Y020919D02*
X032565Y020919D01*
X033749Y021395D02*
X035527Y021395D01*
X035518Y021553D02*
X033842Y021553D01*
X033860Y021712D02*
X035500Y021712D01*
X035544Y021870D02*
X033816Y021870D01*
X033685Y022029D02*
X035675Y022029D01*
X036440Y022187D02*
X036720Y022187D01*
X036720Y022029D02*
X036685Y022029D01*
X037140Y022029D02*
X037591Y022029D01*
X037591Y022187D02*
X037140Y022187D01*
X037140Y022346D02*
X037639Y022346D01*
X037591Y021870D02*
X037140Y021870D01*
X037140Y021712D02*
X037591Y021712D01*
X037591Y021553D02*
X037140Y021553D01*
X037140Y021395D02*
X037621Y021395D01*
X035170Y019968D02*
X033746Y019968D01*
X033841Y019810D02*
X035170Y019810D01*
X035170Y019651D02*
X033860Y019651D01*
X033817Y019493D02*
X035170Y019493D01*
X035170Y019334D02*
X033688Y019334D01*
X033697Y019017D02*
X035170Y019017D01*
X035170Y018859D02*
X033821Y018859D01*
X033860Y018700D02*
X035170Y018700D01*
X035170Y018542D02*
X033837Y018542D01*
X033737Y018383D02*
X035170Y018383D01*
X035170Y018225D02*
X031140Y018225D01*
X031140Y018066D02*
X031254Y018066D01*
X031163Y019017D02*
X031140Y019017D01*
X031140Y019176D02*
X035170Y019176D01*
X035170Y018066D02*
X033606Y018066D01*
X033800Y017908D02*
X035170Y017908D01*
X035170Y017749D02*
X033860Y017749D01*
X033858Y017591D02*
X035170Y017591D01*
X035170Y017432D02*
X033786Y017432D01*
X033556Y017274D02*
X035170Y017274D01*
X034401Y016323D02*
X033674Y016323D01*
X033708Y016006D02*
X034095Y016006D01*
X034095Y015847D02*
X033825Y015847D01*
X033860Y015689D02*
X034095Y015689D01*
X034095Y015530D02*
X033832Y015530D01*
X033725Y015372D02*
X034095Y015372D01*
X034095Y015213D02*
X032640Y015213D01*
X032640Y015055D02*
X032687Y015055D01*
X033180Y015055D02*
X033180Y015055D01*
X033180Y014896D02*
X033180Y014896D01*
X033180Y014738D02*
X033180Y014738D01*
X033180Y014680D02*
X033180Y014240D01*
X033180Y014680D01*
X033180Y014680D01*
X033180Y014579D02*
X033180Y014579D01*
X033180Y014421D02*
X033180Y014421D01*
X033180Y014262D02*
X033180Y014262D01*
X033577Y014262D02*
X034095Y014262D01*
X034095Y014104D02*
X032640Y014104D01*
X032640Y014262D02*
X032783Y014262D01*
X032640Y013945D02*
X034095Y013945D01*
X034095Y013787D02*
X032640Y013787D01*
X032640Y013628D02*
X034095Y013628D01*
X034095Y013470D02*
X032640Y013470D01*
X032608Y013311D02*
X034095Y013311D01*
X034095Y013153D02*
X032450Y013153D01*
X032291Y012994D02*
X034095Y012994D01*
X034039Y012836D02*
X032330Y012836D01*
X032360Y012677D02*
X033880Y012677D01*
X033722Y012519D02*
X032328Y012519D01*
X032214Y012360D02*
X033563Y012360D01*
X033405Y012202D02*
X032330Y012202D01*
X032489Y012043D02*
X032699Y012043D01*
X031680Y011680D02*
X031680Y011240D01*
X031975Y011240D01*
X032043Y011251D01*
X032109Y011272D01*
X032171Y011304D01*
X032220Y011340D01*
X032220Y010994D01*
X032178Y011036D01*
X032024Y011100D01*
X031336Y011100D01*
X031182Y011036D01*
X031064Y010918D01*
X031000Y010764D01*
X031000Y010596D01*
X031064Y010442D01*
X031182Y010324D01*
X031336Y010260D01*
X032024Y010260D01*
X032178Y010324D01*
X032220Y010366D01*
X032220Y010343D01*
X032343Y010220D01*
X032605Y009958D01*
X032564Y009918D01*
X032500Y009764D01*
X032500Y009596D01*
X032564Y009442D01*
X032682Y009324D01*
X032836Y009260D01*
X033463Y009260D01*
X033303Y009100D01*
X032836Y009100D01*
X032682Y009036D01*
X032640Y008994D01*
X032640Y009048D01*
X032665Y009108D01*
X032665Y009252D01*
X032610Y009384D01*
X032509Y009485D01*
X032377Y009540D01*
X032337Y009540D01*
X032360Y009596D01*
X032360Y009764D01*
X032296Y009918D01*
X032178Y010036D01*
X032024Y010100D01*
X031336Y010100D01*
X031182Y010036D01*
X031064Y009918D01*
X031000Y009764D01*
X031000Y009596D01*
X031064Y009442D01*
X031182Y009324D01*
X031336Y009260D01*
X031948Y009260D01*
X031945Y009252D01*
X031945Y009120D01*
X031680Y009120D01*
X031680Y008680D01*
X031680Y008680D01*
X031680Y008240D01*
X031975Y008240D01*
X032043Y008251D01*
X032109Y008272D01*
X032171Y008304D01*
X032220Y008340D01*
X032220Y008017D01*
X030843Y006640D01*
X030489Y006640D01*
X030440Y006591D01*
X030440Y007697D01*
X030702Y007960D01*
X030775Y008033D01*
X030815Y008128D01*
X030815Y011998D01*
X030843Y011970D01*
X031088Y011970D01*
X031084Y011967D01*
X031044Y011911D01*
X031012Y011849D01*
X030991Y011783D01*
X030980Y011715D01*
X030980Y011680D01*
X031680Y011680D01*
X031680Y011680D01*
X031680Y011680D01*
X031680Y011240D01*
X031385Y011240D01*
X031317Y011251D01*
X031251Y011272D01*
X031189Y011304D01*
X031133Y011344D01*
X031084Y011393D01*
X031044Y011449D01*
X031012Y011511D01*
X030991Y011577D01*
X030980Y011645D01*
X030980Y011680D01*
X031680Y011680D01*
X031680Y011568D02*
X031680Y011568D01*
X031680Y011409D02*
X031680Y011409D01*
X031680Y011251D02*
X031680Y011251D01*
X032041Y011251D02*
X032220Y011251D01*
X032220Y011092D02*
X032043Y011092D01*
X031317Y011092D02*
X030815Y011092D01*
X030815Y010934D02*
X031080Y010934D01*
X031005Y010775D02*
X030815Y010775D01*
X030815Y010617D02*
X031000Y010617D01*
X031057Y010458D02*
X030815Y010458D01*
X030815Y010300D02*
X031241Y010300D01*
X031129Y009983D02*
X030815Y009983D01*
X030815Y010141D02*
X032422Y010141D01*
X032580Y009983D02*
X032231Y009983D01*
X032335Y009824D02*
X032525Y009824D01*
X032500Y009666D02*
X032360Y009666D01*
X032456Y009507D02*
X032537Y009507D01*
X032625Y009349D02*
X032658Y009349D01*
X032665Y009190D02*
X033393Y009190D01*
X032678Y009032D02*
X032640Y009032D01*
X031945Y009190D02*
X030815Y009190D01*
X030815Y009032D02*
X031155Y009032D01*
X031133Y009016D02*
X031084Y008967D01*
X031044Y008911D01*
X031012Y008849D01*
X030991Y008783D01*
X030980Y008715D01*
X030980Y008680D01*
X031680Y008680D01*
X031680Y008680D01*
X031680Y008680D01*
X031680Y009120D01*
X031385Y009120D01*
X031317Y009109D01*
X031251Y009088D01*
X031189Y009056D01*
X031133Y009016D01*
X031025Y008873D02*
X030815Y008873D01*
X030815Y008715D02*
X030980Y008715D01*
X030980Y008680D02*
X030980Y008645D01*
X030991Y008577D01*
X031012Y008511D01*
X031044Y008449D01*
X031084Y008393D01*
X031133Y008344D01*
X031189Y008304D01*
X031251Y008272D01*
X031317Y008251D01*
X031385Y008240D01*
X031680Y008240D01*
X031680Y008680D01*
X030980Y008680D01*
X030998Y008556D02*
X030815Y008556D01*
X030815Y008398D02*
X031081Y008398D01*
X030815Y008239D02*
X032220Y008239D01*
X032220Y008081D02*
X030795Y008081D01*
X030702Y007960D02*
X030702Y007960D01*
X030665Y007922D02*
X032125Y007922D01*
X031967Y007764D02*
X030506Y007764D01*
X030440Y007605D02*
X031808Y007605D01*
X031650Y007447D02*
X030440Y007447D01*
X030440Y007288D02*
X031491Y007288D01*
X031333Y007130D02*
X030440Y007130D01*
X030440Y006971D02*
X031174Y006971D01*
X031016Y006813D02*
X030440Y006813D01*
X030440Y006654D02*
X030857Y006654D01*
X031768Y006971D02*
X032617Y006971D01*
X032769Y007288D02*
X032085Y007288D01*
X031926Y007130D02*
X036720Y007130D01*
X036720Y007288D02*
X036591Y007288D01*
X037140Y007288D02*
X037740Y007288D01*
X037740Y007130D02*
X037140Y007130D01*
X037140Y006971D02*
X037767Y006971D01*
X037925Y006813D02*
X037140Y006813D01*
X037140Y006654D02*
X041400Y006654D01*
X041400Y006496D02*
X037140Y006496D01*
X037134Y006337D02*
X041400Y006337D01*
X041400Y006179D02*
X036975Y006179D01*
X036817Y006020D02*
X041400Y006020D01*
X041400Y005862D02*
X036819Y005862D01*
X036860Y005703D02*
X041400Y005703D01*
X041400Y005545D02*
X036838Y005545D01*
X036740Y005386D02*
X041400Y005386D01*
X041400Y005228D02*
X032640Y005228D01*
X032640Y005069D02*
X041400Y005069D01*
X041400Y004911D02*
X032640Y004911D01*
X032738Y004752D02*
X041400Y004752D01*
X041400Y004594D02*
X032790Y004594D01*
X032770Y004435D02*
X041400Y004435D01*
X041400Y004277D02*
X032661Y004277D01*
X032199Y004277D02*
X031948Y004277D01*
X031672Y004594D02*
X030640Y004594D01*
X030640Y004720D02*
X030871Y004720D01*
X031140Y004989D01*
X031140Y005343D01*
X031267Y005470D01*
X031390Y005593D01*
X031390Y005819D01*
X031489Y005720D01*
X031843Y005720D01*
X031970Y005593D01*
X031970Y005569D01*
X031879Y005660D01*
X031700Y005660D01*
X031700Y005200D01*
X031660Y005200D01*
X031660Y005660D01*
X031481Y005660D01*
X031200Y005379D01*
X031200Y005200D01*
X031660Y005200D01*
X031660Y005160D01*
X031700Y005160D01*
X031700Y004700D01*
X031778Y004700D01*
X031593Y004515D01*
X031470Y004392D01*
X031470Y004180D01*
X030640Y004180D01*
X030640Y004720D01*
X030903Y004752D02*
X031429Y004752D01*
X031481Y004700D02*
X031660Y004700D01*
X031660Y005160D01*
X031200Y005160D01*
X031200Y004981D01*
X031481Y004700D01*
X031660Y004752D02*
X031700Y004752D01*
X031700Y004911D02*
X031660Y004911D01*
X031660Y005069D02*
X031700Y005069D01*
X031700Y005228D02*
X031660Y005228D01*
X031660Y005386D02*
X031700Y005386D01*
X031700Y005545D02*
X031660Y005545D01*
X031860Y005703D02*
X031390Y005703D01*
X031366Y005545D02*
X031341Y005545D01*
X031207Y005386D02*
X031183Y005386D01*
X031200Y005228D02*
X031140Y005228D01*
X031140Y005069D02*
X031200Y005069D01*
X031271Y004911D02*
X031061Y004911D01*
X030640Y004435D02*
X031513Y004435D01*
X031470Y004277D02*
X030640Y004277D01*
X033180Y005240D02*
X033180Y005680D01*
X033180Y005240D01*
X033180Y005386D02*
X033180Y005386D01*
X033180Y005545D02*
X033180Y005545D01*
X033180Y005680D02*
X033180Y005680D01*
X033180Y005703D02*
X033180Y005703D01*
X033180Y005862D02*
X033180Y005862D01*
X033180Y006020D02*
X033180Y006020D01*
X033721Y006020D02*
X035666Y006020D01*
X035541Y005862D02*
X033841Y005862D01*
X033880Y005703D02*
X035500Y005703D01*
X035522Y005545D02*
X033859Y005545D01*
X033768Y005386D02*
X035620Y005386D01*
X036382Y006179D02*
X032640Y006179D01*
X032640Y006337D02*
X032669Y006337D01*
X033691Y006337D02*
X035669Y006337D01*
X035542Y006496D02*
X033818Y006496D01*
X033860Y006654D02*
X035500Y006654D01*
X035520Y006813D02*
X033840Y006813D01*
X033743Y006971D02*
X035617Y006971D01*
X035769Y007288D02*
X033591Y007288D01*
X033798Y007447D02*
X035562Y007447D01*
X035500Y007605D02*
X033860Y007605D01*
X033860Y007764D02*
X035500Y007764D01*
X035568Y007922D02*
X033792Y007922D01*
X033877Y008081D02*
X035789Y008081D01*
X035817Y008251D02*
X035885Y008240D01*
X036180Y008240D01*
X036180Y008680D01*
X036180Y008680D01*
X036180Y008680D01*
X035480Y008680D01*
X035480Y008715D01*
X035491Y008783D01*
X035512Y008849D01*
X035544Y008911D01*
X035584Y008967D01*
X035633Y009016D01*
X035689Y009056D01*
X035751Y009088D01*
X035817Y009109D01*
X035885Y009120D01*
X036180Y009120D01*
X036180Y008680D01*
X035480Y008680D01*
X035480Y008645D01*
X035491Y008577D01*
X035512Y008511D01*
X035544Y008449D01*
X035584Y008393D01*
X035633Y008344D01*
X035689Y008304D01*
X035751Y008272D01*
X035817Y008251D01*
X035581Y008398D02*
X034194Y008398D01*
X034036Y008239D02*
X036720Y008239D01*
X036720Y008081D02*
X036571Y008081D01*
X036180Y008398D02*
X036180Y008398D01*
X036180Y008556D02*
X036180Y008556D01*
X036180Y008715D02*
X036180Y008715D01*
X036180Y008873D02*
X036180Y008873D01*
X036180Y009032D02*
X036180Y009032D01*
X036705Y009032D02*
X036720Y009032D01*
X036720Y009190D02*
X034890Y009190D01*
X034890Y009349D02*
X035658Y009349D01*
X035537Y009507D02*
X034890Y009507D01*
X034890Y009666D02*
X035500Y009666D01*
X035525Y009824D02*
X034890Y009824D01*
X034890Y009983D02*
X035629Y009983D01*
X035751Y010272D02*
X035817Y010251D01*
X035885Y010240D01*
X036180Y010240D01*
X036180Y010680D01*
X036180Y010680D01*
X036180Y010680D01*
X035480Y010680D01*
X035480Y010715D01*
X035491Y010783D01*
X035512Y010849D01*
X035544Y010911D01*
X035584Y010967D01*
X035633Y011016D01*
X035689Y011056D01*
X035751Y011088D01*
X035817Y011109D01*
X035885Y011120D01*
X036180Y011120D01*
X036180Y010680D01*
X035480Y010680D01*
X035480Y010645D01*
X035491Y010577D01*
X035512Y010511D01*
X035544Y010449D01*
X035584Y010393D01*
X035633Y010344D01*
X035689Y010304D01*
X035751Y010272D01*
X035698Y010300D02*
X034890Y010300D01*
X034890Y010458D02*
X035539Y010458D01*
X035485Y010617D02*
X034890Y010617D01*
X034890Y010775D02*
X035490Y010775D01*
X035560Y010934D02*
X034890Y010934D01*
X034890Y011092D02*
X035764Y011092D01*
X035597Y011409D02*
X034890Y011409D01*
X034890Y011251D02*
X036720Y011251D01*
X036720Y011092D02*
X036596Y011092D01*
X036180Y011092D02*
X036180Y011092D01*
X036180Y010934D02*
X036180Y010934D01*
X036180Y010775D02*
X036180Y010775D01*
X036180Y010617D02*
X036180Y010617D01*
X036180Y010458D02*
X036180Y010458D01*
X036180Y010300D02*
X036180Y010300D01*
X036662Y010300D02*
X036720Y010300D01*
X036720Y010141D02*
X034890Y010141D01*
X034828Y009032D02*
X035655Y009032D01*
X035525Y008873D02*
X034670Y008873D01*
X034511Y008715D02*
X035480Y008715D01*
X035498Y008556D02*
X034353Y008556D01*
X032500Y007605D02*
X032402Y007605D01*
X032243Y007447D02*
X032562Y007447D01*
X031680Y008398D02*
X031680Y008398D01*
X031680Y008556D02*
X031680Y008556D01*
X031680Y008715D02*
X031680Y008715D01*
X031680Y008873D02*
X031680Y008873D01*
X031680Y009032D02*
X031680Y009032D01*
X031158Y009349D02*
X030815Y009349D01*
X030815Y009507D02*
X031037Y009507D01*
X031000Y009666D02*
X030815Y009666D01*
X030815Y009824D02*
X031025Y009824D01*
X032119Y010300D02*
X032263Y010300D01*
X031319Y011251D02*
X030815Y011251D01*
X030815Y011409D02*
X031073Y011409D01*
X030994Y011568D02*
X030815Y011568D01*
X030815Y011726D02*
X030982Y011726D01*
X031030Y011885D02*
X030815Y011885D01*
X033795Y014421D02*
X034095Y014421D01*
X034095Y014579D02*
X033869Y014579D01*
X033876Y014738D02*
X034095Y014738D01*
X034095Y014896D02*
X033824Y014896D01*
X033673Y015055D02*
X034095Y015055D01*
X034242Y016164D02*
X032961Y016164D01*
X032526Y016323D02*
X032174Y016323D01*
X032312Y016481D02*
X032548Y016481D01*
X032500Y016640D02*
X032360Y016640D01*
X032346Y016798D02*
X032514Y016798D01*
X032603Y016957D02*
X032257Y016957D01*
X032367Y016164D02*
X031493Y016164D01*
X032208Y016006D02*
X032220Y016006D01*
X035180Y012994D02*
X035180Y012994D01*
X035180Y012836D02*
X035180Y012836D01*
X035180Y012680D02*
X035180Y012240D01*
X035180Y012680D01*
X035180Y012680D01*
X035180Y012677D02*
X035180Y012677D01*
X035180Y012519D02*
X035180Y012519D01*
X035180Y012360D02*
X035180Y012360D01*
X034890Y012202D02*
X035920Y012202D01*
X035699Y012043D02*
X034890Y012043D01*
X034890Y011885D02*
X035550Y011885D01*
X035500Y011726D02*
X034890Y011726D01*
X034890Y011568D02*
X035512Y011568D01*
X037140Y011409D02*
X037787Y011409D01*
X037740Y011251D02*
X037140Y011251D01*
X037140Y011092D02*
X037740Y011092D01*
X037804Y010934D02*
X037140Y010934D01*
X037140Y010775D02*
X037963Y010775D01*
X037994Y010617D02*
X037140Y010617D01*
X037140Y010458D02*
X037836Y010458D01*
X037740Y010300D02*
X037140Y010300D01*
X037140Y010141D02*
X037740Y010141D01*
X037755Y009983D02*
X037140Y009983D01*
X036720Y009349D02*
X036702Y009349D01*
X037140Y008556D02*
X037934Y008556D01*
X037775Y008398D02*
X037140Y008398D01*
X037140Y008239D02*
X037740Y008239D01*
X037740Y008081D02*
X037140Y008081D01*
X037140Y007922D02*
X037816Y007922D01*
X037974Y007764D02*
X037140Y007764D01*
X037140Y007605D02*
X037983Y007605D01*
X037824Y007447D02*
X037140Y007447D01*
X038495Y008873D02*
X038865Y008873D01*
X038740Y009032D02*
X038620Y009032D01*
X038620Y009190D02*
X038740Y009190D01*
X038740Y009349D02*
X038620Y009349D01*
X038475Y009507D02*
X038885Y009507D01*
X038853Y011885D02*
X038507Y011885D01*
X038620Y012043D02*
X038740Y012043D01*
X038740Y012202D02*
X038620Y012202D01*
X038620Y012360D02*
X038740Y012360D01*
X038896Y012519D02*
X038464Y012519D01*
X039316Y013787D02*
X041400Y013787D01*
X041400Y013945D02*
X039507Y013945D01*
X039641Y014104D02*
X041400Y014104D01*
X041400Y014262D02*
X039733Y014262D01*
X039790Y014421D02*
X041400Y014421D01*
X041400Y014579D02*
X039833Y014579D01*
X039840Y014738D02*
X041400Y014738D01*
X041400Y014896D02*
X039840Y014896D01*
X039802Y015055D02*
X041400Y015055D01*
X041400Y015213D02*
X039757Y015213D01*
X039666Y015372D02*
X041400Y015372D01*
X041400Y015530D02*
X039549Y015530D01*
X039390Y015689D02*
X041400Y015689D01*
X041400Y015847D02*
X039100Y015847D01*
X031172Y019334D02*
X031140Y019334D01*
X023720Y014984D02*
X023720Y013812D01*
X022290Y015242D01*
X022290Y015377D01*
X022235Y015509D01*
X022134Y015610D01*
X022002Y015665D01*
X021858Y015665D01*
X021726Y015610D01*
X021625Y015509D01*
X021570Y015377D01*
X021570Y015337D01*
X020890Y016017D01*
X020890Y016616D01*
X020942Y016564D01*
X021096Y016500D01*
X021264Y016500D01*
X021418Y016564D01*
X021536Y016682D01*
X021600Y016836D01*
X021600Y016920D01*
X021760Y016920D01*
X021760Y016836D01*
X021824Y016682D01*
X021942Y016564D01*
X022096Y016500D01*
X022264Y016500D01*
X022418Y016564D01*
X022536Y016682D01*
X022600Y016836D01*
X022600Y017524D01*
X022536Y017678D01*
X022418Y017796D01*
X022264Y017860D01*
X022096Y017860D01*
X021942Y017796D01*
X021824Y017678D01*
X021760Y017524D01*
X021760Y017440D01*
X021600Y017440D01*
X021600Y017524D01*
X021536Y017678D01*
X021418Y017796D01*
X021264Y017860D01*
X021096Y017860D01*
X020942Y017796D01*
X020890Y017744D01*
X020890Y018517D01*
X020767Y018640D01*
X018468Y018640D01*
X018345Y018517D01*
X017521Y017693D01*
X017418Y017796D01*
X017264Y017860D01*
X017096Y017860D01*
X016942Y017796D01*
X016824Y017678D01*
X016760Y017524D01*
X016760Y017440D01*
X016600Y017440D01*
X016600Y017524D01*
X016536Y017678D01*
X016418Y017796D01*
X016264Y017860D01*
X016096Y017860D01*
X015942Y017796D01*
X015890Y017744D01*
X015890Y019218D01*
X016267Y019595D01*
X016339Y019667D01*
X016442Y019564D01*
X016596Y019500D01*
X016764Y019500D01*
X016918Y019564D01*
X017036Y019682D01*
X017100Y019836D01*
X017100Y020524D01*
X017036Y020678D01*
X016918Y020796D01*
X016764Y020860D01*
X016596Y020860D01*
X016442Y020796D01*
X016390Y020744D01*
X016390Y022767D01*
X013657Y025500D01*
X013764Y025500D01*
X013918Y025564D01*
X014036Y025682D01*
X014100Y025836D01*
X014100Y026524D01*
X014036Y026678D01*
X013918Y026796D01*
X013764Y026860D01*
X013596Y026860D01*
X013442Y026796D01*
X013324Y026678D01*
X013260Y026524D01*
X013260Y025897D01*
X013100Y026057D01*
X013100Y026524D01*
X013036Y026678D01*
X012918Y026796D01*
X012764Y026860D01*
X012596Y026860D01*
X012442Y026796D01*
X012390Y026744D01*
X012390Y026970D01*
X023720Y026970D01*
X023720Y026312D01*
X023642Y026390D01*
X018100Y026390D01*
X018100Y026524D01*
X018036Y026678D01*
X017918Y026796D01*
X017764Y026860D01*
X017596Y026860D01*
X017442Y026796D01*
X017324Y026678D01*
X017260Y026524D01*
X017260Y025836D01*
X017324Y025682D01*
X017442Y025564D01*
X017596Y025500D01*
X017764Y025500D01*
X017918Y025564D01*
X018036Y025682D01*
X018100Y025836D01*
X018100Y025970D01*
X023345Y025970D01*
X023345Y015604D01*
X023250Y015509D01*
X023195Y015377D01*
X023195Y015233D01*
X023250Y015101D01*
X023351Y015000D01*
X023483Y014945D01*
X023627Y014945D01*
X023720Y014984D01*
X023720Y014896D02*
X022636Y014896D01*
X022794Y014738D02*
X023720Y014738D01*
X023720Y014579D02*
X022953Y014579D01*
X023111Y014421D02*
X023720Y014421D01*
X023720Y014262D02*
X023270Y014262D01*
X023428Y014104D02*
X023720Y014104D01*
X023720Y013945D02*
X023587Y013945D01*
X023071Y013867D02*
X023011Y013848D01*
X022949Y013816D01*
X022893Y013776D01*
X022844Y013727D01*
X022804Y013671D01*
X022772Y013609D01*
X022751Y013543D01*
X022740Y013475D01*
X022740Y013180D01*
X023180Y013180D01*
X023180Y012480D01*
X023215Y012480D01*
X023283Y012491D01*
X023349Y012512D01*
X023411Y012544D01*
X023467Y012584D01*
X023470Y012588D01*
X023470Y012267D01*
X023458Y012255D01*
X023418Y012296D01*
X023264Y012360D01*
X023096Y012360D01*
X022942Y012296D01*
X022824Y012178D01*
X022760Y012024D01*
X022760Y011336D01*
X022824Y011182D01*
X022942Y011064D01*
X023096Y011000D01*
X023264Y011000D01*
X023418Y011064D01*
X023536Y011182D01*
X023600Y011336D01*
X023600Y011803D01*
X023720Y011923D01*
X023720Y006640D01*
X023489Y006640D01*
X023220Y006371D01*
X023220Y005642D01*
X023093Y005515D01*
X023058Y005480D01*
X022879Y005660D01*
X022765Y005660D01*
X022765Y005720D01*
X022871Y005720D01*
X023140Y005989D01*
X023140Y006371D01*
X022871Y006640D01*
X022489Y006640D01*
X022390Y006541D01*
X022390Y007468D01*
X022617Y007695D01*
X022752Y007695D01*
X022884Y007750D01*
X022985Y007851D01*
X023040Y007983D01*
X023040Y008003D01*
X023077Y007991D01*
X023145Y007980D01*
X023180Y007980D01*
X023215Y007980D01*
X023283Y007991D01*
X023349Y008012D01*
X023411Y008044D01*
X023467Y008084D01*
X023516Y008133D01*
X023556Y008189D01*
X023588Y008251D01*
X023609Y008317D01*
X023620Y008385D01*
X023620Y008680D01*
X023620Y008975D01*
X023609Y009043D01*
X023588Y009109D01*
X023556Y009171D01*
X023516Y009227D01*
X023467Y009276D01*
X023411Y009316D01*
X023349Y009348D01*
X023283Y009369D01*
X023215Y009380D01*
X023180Y009380D01*
X023180Y008680D01*
X023180Y008680D01*
X023620Y008680D01*
X023180Y008680D01*
X023180Y008680D01*
X023180Y008680D01*
X022740Y008680D01*
X022740Y008975D01*
X022751Y009043D01*
X022772Y009109D01*
X022804Y009171D01*
X022844Y009227D01*
X022893Y009276D01*
X022949Y009316D01*
X023011Y009348D01*
X023077Y009369D01*
X023145Y009380D01*
X023180Y009380D01*
X023180Y008680D01*
X023180Y007980D01*
X023180Y008680D01*
X023180Y008680D01*
X022740Y008680D01*
X022740Y008415D01*
X022608Y008415D01*
X022600Y008412D01*
X022600Y009024D01*
X022536Y009178D01*
X022418Y009296D01*
X022264Y009360D01*
X022096Y009360D01*
X021942Y009296D01*
X021890Y009244D01*
X021890Y011116D01*
X021942Y011064D01*
X022096Y011000D01*
X022264Y011000D01*
X022418Y011064D01*
X022536Y011182D01*
X022600Y011336D01*
X022600Y012024D01*
X022536Y012178D01*
X022418Y012296D01*
X022264Y012360D01*
X022096Y012360D01*
X021942Y012296D01*
X021890Y012244D01*
X021890Y012616D01*
X021942Y012564D01*
X022096Y012500D01*
X022264Y012500D01*
X022418Y012564D01*
X022536Y012682D01*
X022600Y012836D01*
X022600Y013524D01*
X022536Y013678D01*
X022534Y013680D01*
X022536Y013682D01*
X022600Y013836D01*
X022600Y014338D01*
X023071Y013867D01*
X022993Y013945D02*
X022600Y013945D01*
X022600Y014104D02*
X022834Y014104D01*
X022676Y014262D02*
X022600Y014262D01*
X022579Y013787D02*
X022908Y013787D01*
X022782Y013628D02*
X022557Y013628D01*
X022600Y013470D02*
X022740Y013470D01*
X022740Y013311D02*
X022600Y013311D01*
X022600Y013153D02*
X022740Y013153D01*
X022740Y013180D02*
X022740Y012885D01*
X022751Y012817D01*
X022772Y012751D01*
X022804Y012689D01*
X022844Y012633D01*
X022893Y012584D01*
X022949Y012544D01*
X023011Y012512D01*
X023077Y012491D01*
X023145Y012480D01*
X023180Y012480D01*
X023180Y013180D01*
X023180Y013180D01*
X023180Y013180D01*
X022740Y013180D01*
X022740Y012994D02*
X022600Y012994D01*
X022600Y012836D02*
X022748Y012836D01*
X022813Y012677D02*
X022531Y012677D01*
X022308Y012519D02*
X022999Y012519D01*
X023180Y012519D02*
X023180Y012519D01*
X023180Y012677D02*
X023180Y012677D01*
X023180Y012836D02*
X023180Y012836D01*
X023180Y012994D02*
X023180Y012994D01*
X023180Y013153D02*
X023180Y013153D01*
X023361Y012519D02*
X023470Y012519D01*
X023470Y012360D02*
X021890Y012360D01*
X021890Y012519D02*
X022052Y012519D01*
X022512Y012202D02*
X022848Y012202D01*
X022768Y012043D02*
X022592Y012043D01*
X022600Y011885D02*
X022760Y011885D01*
X022760Y011726D02*
X022600Y011726D01*
X022600Y011568D02*
X022760Y011568D01*
X022760Y011409D02*
X022600Y011409D01*
X022564Y011251D02*
X022796Y011251D01*
X022914Y011092D02*
X022446Y011092D01*
X021914Y011092D02*
X021890Y011092D01*
X021890Y010934D02*
X023720Y010934D01*
X023720Y011092D02*
X023446Y011092D01*
X023564Y011251D02*
X023720Y011251D01*
X023720Y011409D02*
X023600Y011409D01*
X023600Y011568D02*
X023720Y011568D01*
X023720Y011726D02*
X023600Y011726D01*
X023682Y011885D02*
X023720Y011885D01*
X023720Y010775D02*
X021890Y010775D01*
X021890Y010617D02*
X023720Y010617D01*
X023720Y010458D02*
X021890Y010458D01*
X021890Y010300D02*
X023720Y010300D01*
X023720Y010141D02*
X021890Y010141D01*
X021890Y009983D02*
X023720Y009983D01*
X023720Y009824D02*
X021890Y009824D01*
X021890Y009666D02*
X023720Y009666D01*
X023720Y009507D02*
X021890Y009507D01*
X021890Y009349D02*
X022069Y009349D01*
X022291Y009349D02*
X023013Y009349D01*
X023180Y009349D02*
X023180Y009349D01*
X023180Y009190D02*
X023180Y009190D01*
X023180Y009032D02*
X023180Y009032D01*
X023180Y008873D02*
X023180Y008873D01*
X023180Y008715D02*
X023180Y008715D01*
X023180Y008556D02*
X023180Y008556D01*
X023180Y008398D02*
X023180Y008398D01*
X023180Y008239D02*
X023180Y008239D01*
X023180Y008081D02*
X023180Y008081D01*
X023015Y007922D02*
X023720Y007922D01*
X023720Y007764D02*
X022898Y007764D01*
X022527Y007605D02*
X023720Y007605D01*
X023720Y007447D02*
X022390Y007447D01*
X022390Y007288D02*
X023720Y007288D01*
X023720Y007130D02*
X022390Y007130D01*
X022390Y006971D02*
X023720Y006971D01*
X023720Y006813D02*
X022390Y006813D01*
X022390Y006654D02*
X023720Y006654D01*
X023345Y006496D02*
X023015Y006496D01*
X023140Y006337D02*
X023220Y006337D01*
X023220Y006179D02*
X023140Y006179D01*
X023140Y006020D02*
X023220Y006020D01*
X023220Y005862D02*
X023012Y005862D01*
X023220Y005703D02*
X022765Y005703D01*
X022994Y005545D02*
X023123Y005545D01*
X023093Y005515D02*
X023093Y005515D01*
X022700Y005160D02*
X022700Y004700D01*
X022879Y004700D01*
X022970Y004791D01*
X022970Y004593D01*
X022970Y004180D01*
X022390Y004180D01*
X022390Y004791D01*
X022481Y004700D01*
X022660Y004700D01*
X022660Y005160D01*
X022700Y005160D01*
X022700Y005069D02*
X022660Y005069D01*
X022660Y004911D02*
X022700Y004911D01*
X022700Y004752D02*
X022660Y004752D01*
X022429Y004752D02*
X022390Y004752D01*
X022390Y004594D02*
X022970Y004594D01*
X022970Y004752D02*
X022931Y004752D01*
X022970Y004435D02*
X022390Y004435D01*
X022390Y004277D02*
X022970Y004277D01*
X025390Y005541D02*
X025390Y005819D01*
X025489Y005720D01*
X025871Y005720D01*
X026140Y005989D01*
X026140Y006371D01*
X025871Y006640D01*
X025517Y006640D01*
X025390Y006767D01*
X025140Y007017D01*
X025140Y008340D01*
X025189Y008304D01*
X025251Y008272D01*
X025317Y008251D01*
X025385Y008240D01*
X025680Y008240D01*
X025975Y008240D01*
X026043Y008251D01*
X026109Y008272D01*
X026171Y008304D01*
X026227Y008344D01*
X026276Y008393D01*
X026316Y008449D01*
X026348Y008511D01*
X026369Y008577D01*
X026380Y008645D01*
X026380Y008680D01*
X026380Y008715D01*
X026369Y008783D01*
X026348Y008849D01*
X026316Y008911D01*
X026276Y008967D01*
X026227Y009016D01*
X026171Y009056D01*
X026109Y009088D01*
X026043Y009109D01*
X025975Y009120D01*
X025680Y009120D01*
X025680Y008680D01*
X025680Y008680D01*
X026380Y008680D01*
X025680Y008680D01*
X025680Y008680D01*
X025680Y009120D01*
X025385Y009120D01*
X025317Y009109D01*
X025251Y009088D01*
X025189Y009056D01*
X025140Y009020D01*
X025140Y009366D01*
X025182Y009324D01*
X025336Y009260D01*
X026024Y009260D01*
X026178Y009324D01*
X026296Y009442D01*
X026360Y009596D01*
X026360Y009764D01*
X026296Y009918D01*
X026255Y009958D01*
X026470Y010173D01*
X026470Y006621D01*
X026220Y006371D01*
X026220Y006017D01*
X025970Y005767D01*
X025970Y005541D01*
X025871Y005640D01*
X025489Y005640D01*
X025390Y005541D01*
X025390Y005545D02*
X025394Y005545D01*
X025390Y005703D02*
X025970Y005703D01*
X025966Y005545D02*
X025970Y005545D01*
X026012Y005862D02*
X026065Y005862D01*
X026140Y006020D02*
X026220Y006020D01*
X026220Y006179D02*
X026140Y006179D01*
X026140Y006337D02*
X026220Y006337D01*
X026345Y006496D02*
X026015Y006496D01*
X026470Y006654D02*
X025503Y006654D01*
X025344Y006813D02*
X026470Y006813D01*
X026470Y006971D02*
X025186Y006971D01*
X025140Y007130D02*
X026470Y007130D01*
X026470Y007288D02*
X025140Y007288D01*
X025140Y007447D02*
X026470Y007447D01*
X026470Y007605D02*
X025140Y007605D01*
X025140Y007764D02*
X026470Y007764D01*
X026470Y007922D02*
X025140Y007922D01*
X025140Y008081D02*
X026470Y008081D01*
X026470Y008239D02*
X025140Y008239D01*
X025680Y008240D02*
X025680Y008680D01*
X025680Y008240D01*
X025680Y008398D02*
X025680Y008398D01*
X025680Y008556D02*
X025680Y008556D01*
X025680Y008680D02*
X025680Y008680D01*
X025680Y008715D02*
X025680Y008715D01*
X025680Y008873D02*
X025680Y008873D01*
X025680Y009032D02*
X025680Y009032D01*
X026205Y009032D02*
X026470Y009032D01*
X026470Y009190D02*
X025140Y009190D01*
X025140Y009032D02*
X025155Y009032D01*
X025140Y009349D02*
X025158Y009349D01*
X026202Y009349D02*
X026470Y009349D01*
X026470Y009507D02*
X026323Y009507D01*
X026360Y009666D02*
X026470Y009666D01*
X026470Y009824D02*
X026335Y009824D01*
X026279Y009983D02*
X026470Y009983D01*
X026470Y010141D02*
X026438Y010141D01*
X026470Y008873D02*
X026335Y008873D01*
X026380Y008715D02*
X026470Y008715D01*
X026470Y008556D02*
X026362Y008556D01*
X026279Y008398D02*
X026470Y008398D01*
X023720Y008398D02*
X023620Y008398D01*
X023620Y008556D02*
X023720Y008556D01*
X023720Y008715D02*
X023620Y008715D01*
X023620Y008873D02*
X023720Y008873D01*
X023720Y009032D02*
X023611Y009032D01*
X023542Y009190D02*
X023720Y009190D01*
X023720Y009349D02*
X023347Y009349D01*
X022818Y009190D02*
X022524Y009190D01*
X022597Y009032D02*
X022749Y009032D01*
X022740Y008873D02*
X022600Y008873D01*
X022600Y008715D02*
X022740Y008715D01*
X022740Y008556D02*
X022600Y008556D01*
X023461Y008081D02*
X023720Y008081D01*
X023720Y008239D02*
X023582Y008239D01*
X017470Y010251D02*
X017377Y010290D01*
X017233Y010290D01*
X017101Y010235D01*
X017000Y010134D01*
X016945Y010002D01*
X016945Y009867D01*
X016640Y009562D01*
X016640Y010968D01*
X016767Y011095D01*
X016828Y011156D01*
X016844Y011133D01*
X016893Y011084D01*
X016949Y011044D01*
X017011Y011012D01*
X017077Y010991D01*
X017145Y010980D01*
X017180Y010980D01*
X017215Y010980D01*
X017283Y010991D01*
X017349Y011012D01*
X017411Y011044D01*
X017467Y011084D01*
X017470Y011088D01*
X017470Y010251D01*
X017470Y010300D02*
X016640Y010300D01*
X016640Y010458D02*
X017470Y010458D01*
X017470Y010617D02*
X016640Y010617D01*
X016640Y010775D02*
X017470Y010775D01*
X017470Y010934D02*
X016640Y010934D01*
X016764Y011092D02*
X016886Y011092D01*
X017180Y011092D02*
X017180Y011092D01*
X017180Y010980D02*
X017180Y011680D01*
X017180Y011680D01*
X017180Y012380D01*
X017215Y012380D01*
X017283Y012369D01*
X017349Y012348D01*
X017411Y012316D01*
X017467Y012276D01*
X017470Y012272D01*
X017470Y012517D01*
X017593Y012640D01*
X017866Y012640D01*
X017824Y012682D01*
X017760Y012836D01*
X017760Y013524D01*
X017824Y013678D01*
X017826Y013680D01*
X017824Y013682D01*
X017760Y013836D01*
X017760Y014524D01*
X017824Y014678D01*
X017866Y014720D01*
X017494Y014720D01*
X017536Y014678D01*
X017600Y014524D01*
X017600Y013836D01*
X017536Y013682D01*
X017534Y013680D01*
X017536Y013678D01*
X017600Y013524D01*
X017600Y012836D01*
X017536Y012682D01*
X017418Y012564D01*
X017264Y012500D01*
X017096Y012500D01*
X016942Y012564D01*
X016890Y012616D01*
X016890Y012272D01*
X016893Y012276D01*
X016949Y012316D01*
X017011Y012348D01*
X017077Y012369D01*
X017145Y012380D01*
X017180Y012380D01*
X017180Y011680D01*
X017180Y011680D01*
X017180Y010980D01*
X017180Y011251D02*
X017180Y011251D01*
X017180Y011409D02*
X017180Y011409D01*
X017180Y011568D02*
X017180Y011568D01*
X017180Y011726D02*
X017180Y011726D01*
X017180Y011885D02*
X017180Y011885D01*
X017180Y012043D02*
X017180Y012043D01*
X017180Y012202D02*
X017180Y012202D01*
X017180Y012360D02*
X017180Y012360D01*
X017311Y012360D02*
X017470Y012360D01*
X017472Y012519D02*
X017308Y012519D01*
X017052Y012519D02*
X016890Y012519D01*
X016890Y012360D02*
X017049Y012360D01*
X017531Y012677D02*
X017829Y012677D01*
X017760Y012836D02*
X017600Y012836D01*
X017600Y012994D02*
X017760Y012994D01*
X017760Y013153D02*
X017600Y013153D01*
X017600Y013311D02*
X017760Y013311D01*
X017760Y013470D02*
X017600Y013470D01*
X017557Y013628D02*
X017803Y013628D01*
X017781Y013787D02*
X017579Y013787D01*
X017600Y013945D02*
X017760Y013945D01*
X017760Y014104D02*
X017600Y014104D01*
X017600Y014262D02*
X017760Y014262D01*
X017760Y014421D02*
X017600Y014421D01*
X017577Y014579D02*
X017783Y014579D01*
X020901Y016006D02*
X023345Y016006D01*
X023345Y016164D02*
X020890Y016164D01*
X020890Y016323D02*
X023345Y016323D01*
X023345Y016481D02*
X020890Y016481D01*
X021493Y016640D02*
X021867Y016640D01*
X021776Y016798D02*
X021584Y016798D01*
X022493Y016640D02*
X023345Y016640D01*
X023345Y016798D02*
X022584Y016798D01*
X022600Y016957D02*
X023345Y016957D01*
X023345Y017115D02*
X022600Y017115D01*
X022600Y017274D02*
X023345Y017274D01*
X023345Y017432D02*
X022600Y017432D01*
X022572Y017591D02*
X023345Y017591D01*
X023345Y017749D02*
X022465Y017749D01*
X021895Y017749D02*
X021465Y017749D01*
X021572Y017591D02*
X021788Y017591D01*
X020895Y017749D02*
X020890Y017749D01*
X020890Y017908D02*
X023345Y017908D01*
X023345Y018066D02*
X020890Y018066D01*
X020890Y018225D02*
X023345Y018225D01*
X023345Y018383D02*
X020890Y018383D01*
X020865Y018542D02*
X023345Y018542D01*
X023345Y018700D02*
X015890Y018700D01*
X015890Y018542D02*
X018370Y018542D01*
X018211Y018383D02*
X015890Y018383D01*
X015890Y018225D02*
X018053Y018225D01*
X017894Y018066D02*
X015890Y018066D01*
X015890Y017908D02*
X017736Y017908D01*
X017577Y017749D02*
X017465Y017749D01*
X016895Y017749D02*
X016465Y017749D01*
X016572Y017591D02*
X016788Y017591D01*
X015895Y017749D02*
X015890Y017749D01*
X015890Y018859D02*
X023345Y018859D01*
X023345Y019017D02*
X015890Y019017D01*
X015890Y019176D02*
X023345Y019176D01*
X023345Y019334D02*
X016006Y019334D01*
X016165Y019493D02*
X017572Y019493D01*
X017577Y019491D02*
X017645Y019480D01*
X017680Y019480D01*
X017715Y019480D01*
X017783Y019491D01*
X017849Y019512D01*
X017911Y019544D01*
X017967Y019584D01*
X018016Y019633D01*
X018056Y019689D01*
X018088Y019751D01*
X018109Y019817D01*
X018120Y019885D01*
X018120Y020180D01*
X018120Y020475D01*
X018109Y020543D01*
X018088Y020609D01*
X018056Y020671D01*
X018016Y020727D01*
X017967Y020776D01*
X017911Y020816D01*
X017849Y020848D01*
X017783Y020869D01*
X017715Y020880D01*
X017680Y020880D01*
X017680Y020180D01*
X018120Y020180D01*
X017680Y020180D01*
X017680Y020180D01*
X017680Y020180D01*
X017680Y019480D01*
X017680Y020180D01*
X017680Y020180D01*
X017680Y020180D01*
X017240Y020180D01*
X017240Y020475D01*
X017251Y020543D01*
X017272Y020609D01*
X017304Y020671D01*
X017344Y020727D01*
X017393Y020776D01*
X017449Y020816D01*
X017511Y020848D01*
X017577Y020869D01*
X017645Y020880D01*
X017680Y020880D01*
X017680Y020180D01*
X017240Y020180D01*
X017240Y019885D01*
X017251Y019817D01*
X017272Y019751D01*
X017304Y019689D01*
X017344Y019633D01*
X017393Y019584D01*
X017449Y019544D01*
X017511Y019512D01*
X017577Y019491D01*
X017680Y019493D02*
X017680Y019493D01*
X017788Y019493D02*
X023345Y019493D01*
X023345Y019651D02*
X018028Y019651D01*
X018107Y019810D02*
X023345Y019810D01*
X023345Y019968D02*
X018120Y019968D01*
X018120Y020127D02*
X023345Y020127D01*
X023345Y020285D02*
X018120Y020285D01*
X018120Y020444D02*
X023345Y020444D01*
X023345Y020602D02*
X018090Y020602D01*
X017982Y020761D02*
X023345Y020761D01*
X023345Y020919D02*
X016390Y020919D01*
X016390Y020761D02*
X016407Y020761D01*
X016390Y021078D02*
X023345Y021078D01*
X023345Y021236D02*
X016390Y021236D01*
X016390Y021395D02*
X023345Y021395D01*
X023345Y021553D02*
X016390Y021553D01*
X016390Y021712D02*
X023345Y021712D01*
X023345Y021870D02*
X016390Y021870D01*
X016390Y022029D02*
X023345Y022029D01*
X023345Y022187D02*
X016390Y022187D01*
X016390Y022346D02*
X023345Y022346D01*
X023345Y022504D02*
X016390Y022504D01*
X016390Y022663D02*
X023345Y022663D01*
X023345Y022821D02*
X016336Y022821D01*
X016177Y022980D02*
X023345Y022980D01*
X023345Y023138D02*
X016019Y023138D01*
X015860Y023297D02*
X023345Y023297D01*
X023345Y023455D02*
X015702Y023455D01*
X015543Y023614D02*
X020535Y023614D01*
X020648Y023500D02*
X020250Y023898D01*
X020250Y024150D01*
X020900Y024150D01*
X020900Y024210D01*
X020900Y024860D01*
X020648Y024860D01*
X020250Y024462D01*
X020250Y024210D01*
X020900Y024210D01*
X020960Y024210D01*
X020960Y024860D01*
X021212Y024860D01*
X021610Y024462D01*
X021610Y024210D01*
X020960Y024210D01*
X020960Y024150D01*
X021610Y024150D01*
X021610Y023898D01*
X021212Y023500D01*
X020960Y023500D01*
X020960Y024150D01*
X020900Y024150D01*
X020900Y023500D01*
X020648Y023500D01*
X020900Y023614D02*
X020960Y023614D01*
X020960Y023772D02*
X020900Y023772D01*
X020900Y023931D02*
X020960Y023931D01*
X020960Y024089D02*
X020900Y024089D01*
X020900Y024248D02*
X020960Y024248D01*
X020960Y024406D02*
X020900Y024406D01*
X020900Y024565D02*
X020960Y024565D01*
X020960Y024723D02*
X020900Y024723D01*
X020511Y024723D02*
X014434Y024723D01*
X014592Y024565D02*
X020353Y024565D01*
X020250Y024406D02*
X014751Y024406D01*
X014909Y024248D02*
X020250Y024248D01*
X020250Y024089D02*
X015068Y024089D01*
X015226Y023931D02*
X020250Y023931D01*
X020376Y023772D02*
X015385Y023772D01*
X015108Y023455D02*
X012390Y023455D01*
X012390Y023297D02*
X015266Y023297D01*
X015425Y023138D02*
X012390Y023138D01*
X012390Y022980D02*
X015583Y022980D01*
X015742Y022821D02*
X012390Y022821D01*
X012390Y022663D02*
X013477Y022663D01*
X013483Y022665D02*
X013351Y022610D01*
X013250Y022509D01*
X013195Y022377D01*
X013195Y022233D01*
X013250Y022101D01*
X013351Y022000D01*
X013483Y021945D01*
X013618Y021945D01*
X014703Y020860D01*
X014596Y020860D01*
X014442Y020796D01*
X014324Y020678D01*
X014260Y020524D01*
X014260Y020057D01*
X014100Y019897D01*
X014100Y020524D01*
X014036Y020678D01*
X013918Y020796D01*
X013764Y020860D01*
X013596Y020860D01*
X013442Y020796D01*
X013324Y020678D01*
X013260Y020524D01*
X013260Y019836D01*
X013324Y019682D01*
X013442Y019564D01*
X013596Y019500D01*
X013703Y019500D01*
X013593Y019390D01*
X013470Y019267D01*
X013470Y016979D01*
X013375Y016884D01*
X013320Y016752D01*
X013320Y016608D01*
X013375Y016476D01*
X013476Y016375D01*
X013608Y016320D01*
X013752Y016320D01*
X013884Y016375D01*
X013920Y016411D01*
X013920Y012274D01*
X013890Y012244D01*
X013890Y015142D01*
X013665Y015367D01*
X013665Y015502D01*
X013610Y015634D01*
X013509Y015735D01*
X013377Y015790D01*
X013233Y015790D01*
X013140Y015751D01*
X013140Y015756D01*
X013235Y015851D01*
X013290Y015983D01*
X013290Y016127D01*
X013235Y016259D01*
X013134Y016360D01*
X013002Y016415D01*
X012858Y016415D01*
X012726Y016360D01*
X012625Y016259D01*
X012570Y016127D01*
X012570Y015983D01*
X012625Y015851D01*
X012720Y015756D01*
X012720Y013687D01*
X012390Y014017D01*
X012390Y018576D01*
X012509Y018625D01*
X012610Y018726D01*
X012665Y018858D01*
X012665Y019002D01*
X012610Y019134D01*
X012509Y019235D01*
X012390Y019284D01*
X012390Y019616D01*
X012442Y019564D01*
X012596Y019500D01*
X012764Y019500D01*
X012918Y019564D01*
X013036Y019682D01*
X013100Y019836D01*
X013100Y020524D01*
X013036Y020678D01*
X012918Y020796D01*
X012764Y020860D01*
X012596Y020860D01*
X012442Y020796D01*
X012390Y020744D01*
X012390Y025616D01*
X012442Y025564D01*
X012596Y025500D01*
X012764Y025500D01*
X012918Y025564D01*
X012958Y025605D01*
X015970Y022593D01*
X015970Y020744D01*
X015918Y020796D01*
X015764Y020860D01*
X015596Y020860D01*
X015442Y020796D01*
X015390Y020744D01*
X015390Y020767D01*
X015267Y020890D01*
X013915Y022242D01*
X013915Y022377D01*
X013860Y022509D01*
X013759Y022610D01*
X013627Y022665D01*
X013483Y022665D01*
X013633Y022663D02*
X015900Y022663D01*
X015970Y022504D02*
X013862Y022504D01*
X013915Y022346D02*
X015970Y022346D01*
X015970Y022187D02*
X013970Y022187D01*
X014128Y022029D02*
X015970Y022029D01*
X015970Y021870D02*
X014287Y021870D01*
X014445Y021712D02*
X015970Y021712D01*
X015970Y021553D02*
X014604Y021553D01*
X014762Y021395D02*
X015970Y021395D01*
X015970Y021236D02*
X014921Y021236D01*
X015079Y021078D02*
X015970Y021078D01*
X015970Y020919D02*
X015238Y020919D01*
X015390Y020761D02*
X015407Y020761D01*
X015953Y020761D02*
X015970Y020761D01*
X016953Y020761D02*
X017378Y020761D01*
X017270Y020602D02*
X017067Y020602D01*
X017100Y020444D02*
X017240Y020444D01*
X017240Y020285D02*
X017100Y020285D01*
X017100Y020127D02*
X017240Y020127D01*
X017240Y019968D02*
X017100Y019968D01*
X017089Y019810D02*
X017253Y019810D01*
X017332Y019651D02*
X017005Y019651D01*
X016355Y019651D02*
X016323Y019651D01*
X017680Y019651D02*
X017680Y019651D01*
X017680Y019810D02*
X017680Y019810D01*
X017680Y019968D02*
X017680Y019968D01*
X017680Y020127D02*
X017680Y020127D01*
X017680Y020285D02*
X017680Y020285D01*
X017680Y020444D02*
X017680Y020444D01*
X017680Y020602D02*
X017680Y020602D01*
X017680Y020761D02*
X017680Y020761D01*
X014644Y020919D02*
X012390Y020919D01*
X012390Y020761D02*
X012407Y020761D01*
X012390Y021078D02*
X014485Y021078D01*
X014327Y021236D02*
X012390Y021236D01*
X012390Y021395D02*
X014168Y021395D01*
X014010Y021553D02*
X012390Y021553D01*
X012390Y021712D02*
X013851Y021712D01*
X013693Y021870D02*
X012390Y021870D01*
X012390Y022029D02*
X013322Y022029D01*
X013214Y022187D02*
X012390Y022187D01*
X012390Y022346D02*
X013195Y022346D01*
X013248Y022504D02*
X012390Y022504D01*
X012390Y023614D02*
X014949Y023614D01*
X014791Y023772D02*
X012390Y023772D01*
X012390Y023931D02*
X014632Y023931D01*
X014474Y024089D02*
X012390Y024089D01*
X012390Y024248D02*
X014315Y024248D01*
X014157Y024406D02*
X012390Y024406D01*
X012390Y024565D02*
X013998Y024565D01*
X013840Y024723D02*
X012390Y024723D01*
X012390Y024882D02*
X013681Y024882D01*
X013523Y025040D02*
X012390Y025040D01*
X012390Y025199D02*
X013364Y025199D01*
X013206Y025357D02*
X012390Y025357D01*
X012390Y025516D02*
X012559Y025516D01*
X012801Y025516D02*
X013047Y025516D01*
X013166Y025991D02*
X013260Y025991D01*
X013260Y026150D02*
X013100Y026150D01*
X013100Y026308D02*
X013260Y026308D01*
X013260Y026467D02*
X013100Y026467D01*
X013058Y026625D02*
X013302Y026625D01*
X013430Y026784D02*
X012930Y026784D01*
X012430Y026784D02*
X012390Y026784D01*
X012390Y026942D02*
X023720Y026942D01*
X023720Y026784D02*
X017930Y026784D01*
X018058Y026625D02*
X023720Y026625D01*
X023720Y026467D02*
X018100Y026467D01*
X018098Y025833D02*
X023345Y025833D01*
X023345Y025674D02*
X018028Y025674D01*
X017801Y025516D02*
X023345Y025516D01*
X023345Y025357D02*
X013800Y025357D01*
X013801Y025516D02*
X014559Y025516D01*
X014596Y025500D02*
X014764Y025500D01*
X014918Y025564D01*
X015036Y025682D01*
X015100Y025836D01*
X015100Y026524D01*
X015036Y026678D01*
X014918Y026796D01*
X014764Y026860D01*
X014596Y026860D01*
X014442Y026796D01*
X014324Y026678D01*
X014260Y026524D01*
X014260Y025836D01*
X014324Y025682D01*
X014442Y025564D01*
X014596Y025500D01*
X014801Y025516D02*
X015559Y025516D01*
X015596Y025500D02*
X015764Y025500D01*
X015918Y025564D01*
X016036Y025682D01*
X016100Y025836D01*
X016100Y026524D01*
X016036Y026678D01*
X015918Y026796D01*
X015764Y026860D01*
X015596Y026860D01*
X015442Y026796D01*
X015324Y026678D01*
X015260Y026524D01*
X015260Y025836D01*
X015324Y025682D01*
X015442Y025564D01*
X015596Y025500D01*
X015801Y025516D02*
X016559Y025516D01*
X016596Y025500D02*
X016764Y025500D01*
X016918Y025564D01*
X017036Y025682D01*
X017100Y025836D01*
X017100Y026524D01*
X017036Y026678D01*
X016918Y026796D01*
X016764Y026860D01*
X016596Y026860D01*
X016442Y026796D01*
X016324Y026678D01*
X016260Y026524D01*
X016260Y025836D01*
X016324Y025682D01*
X016442Y025564D01*
X016596Y025500D01*
X016801Y025516D02*
X017559Y025516D01*
X017332Y025674D02*
X017028Y025674D01*
X017098Y025833D02*
X017262Y025833D01*
X017260Y025991D02*
X017100Y025991D01*
X017100Y026150D02*
X017260Y026150D01*
X017260Y026308D02*
X017100Y026308D01*
X017100Y026467D02*
X017260Y026467D01*
X017302Y026625D02*
X017058Y026625D01*
X016930Y026784D02*
X017430Y026784D01*
X016430Y026784D02*
X015930Y026784D01*
X016058Y026625D02*
X016302Y026625D01*
X016260Y026467D02*
X016100Y026467D01*
X016100Y026308D02*
X016260Y026308D01*
X016260Y026150D02*
X016100Y026150D01*
X016100Y025991D02*
X016260Y025991D01*
X016262Y025833D02*
X016098Y025833D01*
X016028Y025674D02*
X016332Y025674D01*
X015332Y025674D02*
X015028Y025674D01*
X015098Y025833D02*
X015262Y025833D01*
X015260Y025991D02*
X015100Y025991D01*
X015100Y026150D02*
X015260Y026150D01*
X015260Y026308D02*
X015100Y026308D01*
X015100Y026467D02*
X015260Y026467D01*
X015302Y026625D02*
X015058Y026625D01*
X014930Y026784D02*
X015430Y026784D01*
X014430Y026784D02*
X013930Y026784D01*
X014058Y026625D02*
X014302Y026625D01*
X014260Y026467D02*
X014100Y026467D01*
X014100Y026308D02*
X014260Y026308D01*
X014260Y026150D02*
X014100Y026150D01*
X014100Y025991D02*
X014260Y025991D01*
X014262Y025833D02*
X014098Y025833D01*
X014028Y025674D02*
X014332Y025674D01*
X013958Y025199D02*
X023345Y025199D01*
X023345Y025040D02*
X014117Y025040D01*
X014275Y024882D02*
X023345Y024882D01*
X023345Y024723D02*
X021349Y024723D01*
X021507Y024565D02*
X023345Y024565D01*
X023345Y024406D02*
X021610Y024406D01*
X021610Y024248D02*
X023345Y024248D01*
X023345Y024089D02*
X021610Y024089D01*
X021610Y023931D02*
X023345Y023931D01*
X023345Y023772D02*
X021484Y023772D01*
X021325Y023614D02*
X023345Y023614D01*
X024140Y027259D02*
X024159Y027259D01*
X034342Y025991D02*
X034572Y025991D01*
X039142Y025674D02*
X041400Y025674D01*
X041400Y025516D02*
X039406Y025516D01*
X039565Y025357D02*
X041400Y025357D01*
X041400Y025199D02*
X039675Y025199D01*
X039763Y025040D02*
X041400Y025040D01*
X041400Y024882D02*
X039806Y024882D01*
X039840Y024723D02*
X041400Y024723D01*
X041400Y024565D02*
X039840Y024565D01*
X039829Y024406D02*
X041400Y024406D01*
X041400Y024248D02*
X039786Y024248D01*
X039724Y024089D02*
X041400Y024089D01*
X041400Y023931D02*
X039632Y023931D01*
X039491Y023772D02*
X041400Y023772D01*
X041400Y023614D02*
X039289Y023614D01*
X041400Y027735D02*
X001010Y027735D01*
X001010Y027893D02*
X041400Y027893D01*
X023345Y015847D02*
X021060Y015847D01*
X021218Y015689D02*
X023345Y015689D01*
X023271Y015530D02*
X022214Y015530D01*
X022290Y015372D02*
X023195Y015372D01*
X023203Y015213D02*
X022319Y015213D01*
X022477Y015055D02*
X023296Y015055D01*
X021646Y015530D02*
X021377Y015530D01*
X021535Y015372D02*
X021570Y015372D01*
X014470Y011116D02*
X014470Y009272D01*
X014467Y009276D01*
X014411Y009316D01*
X014349Y009348D01*
X014283Y009369D01*
X014215Y009380D01*
X014180Y009380D01*
X014180Y008680D01*
X014180Y008680D01*
X014180Y009380D01*
X014145Y009380D01*
X014140Y009379D01*
X014140Y010451D01*
X014259Y010500D01*
X014360Y010601D01*
X014415Y010733D01*
X014415Y010877D01*
X014360Y011009D01*
X014338Y011031D01*
X014418Y011064D01*
X014470Y011116D01*
X014470Y011092D02*
X014446Y011092D01*
X014470Y010934D02*
X014391Y010934D01*
X014415Y010775D02*
X014470Y010775D01*
X014470Y010617D02*
X014367Y010617D01*
X014470Y010458D02*
X014158Y010458D01*
X014140Y010300D02*
X014470Y010300D01*
X014470Y010141D02*
X014140Y010141D01*
X014140Y009983D02*
X014470Y009983D01*
X014470Y009824D02*
X014140Y009824D01*
X014140Y009666D02*
X014470Y009666D01*
X014470Y009507D02*
X014140Y009507D01*
X014180Y009349D02*
X014180Y009349D01*
X014180Y009190D02*
X014180Y009190D01*
X014180Y009032D02*
X014180Y009032D01*
X014180Y008873D02*
X014180Y008873D01*
X014180Y008715D02*
X014180Y008715D01*
X014180Y008680D02*
X014180Y007980D01*
X014215Y007980D01*
X014283Y007991D01*
X014349Y008012D01*
X014411Y008044D01*
X014467Y008084D01*
X014470Y008088D01*
X014470Y006892D01*
X014093Y006515D01*
X014044Y006466D01*
X013890Y006621D01*
X013890Y008088D01*
X013893Y008084D01*
X013949Y008044D01*
X014011Y008012D01*
X014077Y007991D01*
X014145Y007980D01*
X014180Y007980D01*
X014180Y008680D01*
X014180Y008680D01*
X014180Y008556D02*
X014180Y008556D01*
X014180Y008398D02*
X014180Y008398D01*
X014180Y008239D02*
X014180Y008239D01*
X014180Y008081D02*
X014180Y008081D01*
X014461Y008081D02*
X014470Y008081D01*
X014470Y007922D02*
X013890Y007922D01*
X013890Y007764D02*
X014470Y007764D01*
X014470Y007605D02*
X013890Y007605D01*
X013890Y007447D02*
X014470Y007447D01*
X014470Y007288D02*
X013890Y007288D01*
X013890Y007130D02*
X014470Y007130D01*
X014470Y006971D02*
X013890Y006971D01*
X013890Y006813D02*
X014391Y006813D01*
X014232Y006654D02*
X013890Y006654D01*
X014015Y006496D02*
X014074Y006496D01*
X012220Y006642D02*
X012220Y009234D01*
X012127Y009195D01*
X012039Y009195D01*
X012056Y009171D01*
X012088Y009109D01*
X012109Y009043D01*
X012120Y008975D01*
X012120Y008680D01*
X011680Y008680D01*
X011680Y008680D01*
X011680Y009380D01*
X011715Y009380D01*
X011739Y009376D01*
X011695Y009483D01*
X011695Y009627D01*
X011750Y009759D01*
X011845Y009854D01*
X011845Y010142D01*
X011968Y010265D01*
X011970Y010267D01*
X011970Y011116D01*
X011918Y011064D01*
X011764Y011000D01*
X011596Y011000D01*
X011442Y011064D01*
X011390Y011116D01*
X011390Y009272D01*
X011393Y009276D01*
X011449Y009316D01*
X011511Y009348D01*
X011577Y009369D01*
X011645Y009380D01*
X011680Y009380D01*
X011680Y008680D01*
X011680Y008680D01*
X012120Y008680D01*
X012120Y008385D01*
X012109Y008317D01*
X012088Y008251D01*
X012056Y008189D01*
X012016Y008133D01*
X011967Y008084D01*
X011911Y008044D01*
X011849Y008012D01*
X011783Y007991D01*
X011715Y007980D01*
X011680Y007980D01*
X011680Y008680D01*
X011680Y008680D01*
X011680Y007980D01*
X011677Y007980D01*
X011767Y007890D01*
X011890Y007767D01*
X011890Y006621D01*
X012044Y006466D01*
X012093Y006515D01*
X012220Y006642D01*
X012220Y006654D02*
X011890Y006654D01*
X011890Y006813D02*
X012220Y006813D01*
X012220Y006971D02*
X011890Y006971D01*
X011890Y007130D02*
X012220Y007130D01*
X012220Y007288D02*
X011890Y007288D01*
X011890Y007447D02*
X012220Y007447D01*
X012220Y007605D02*
X011890Y007605D01*
X011890Y007764D02*
X012220Y007764D01*
X012220Y007922D02*
X011735Y007922D01*
X011680Y008081D02*
X011680Y008081D01*
X011680Y008239D02*
X011680Y008239D01*
X011680Y008398D02*
X011680Y008398D01*
X011680Y008556D02*
X011680Y008556D01*
X011680Y008715D02*
X011680Y008715D01*
X011680Y008873D02*
X011680Y008873D01*
X011680Y009032D02*
X011680Y009032D01*
X011680Y009190D02*
X011680Y009190D01*
X011680Y009349D02*
X011680Y009349D01*
X011695Y009507D02*
X011390Y009507D01*
X011390Y009349D02*
X011513Y009349D01*
X012042Y009190D02*
X012220Y009190D01*
X012220Y009032D02*
X012111Y009032D01*
X012120Y008873D02*
X012220Y008873D01*
X012220Y008715D02*
X012120Y008715D01*
X012120Y008556D02*
X012220Y008556D01*
X012220Y008398D02*
X012120Y008398D01*
X012082Y008239D02*
X012220Y008239D01*
X012220Y008081D02*
X011961Y008081D01*
X013015Y008290D02*
X013015Y010142D01*
X012892Y010265D01*
X012640Y010517D01*
X012640Y010859D01*
X012733Y010820D01*
X012740Y010820D01*
X012740Y010680D01*
X013180Y010680D01*
X013180Y010680D01*
X013180Y011120D01*
X013362Y011120D01*
X013470Y011012D01*
X013470Y011376D01*
X013354Y011260D01*
X013162Y011260D01*
X013165Y011252D01*
X013165Y011120D01*
X013180Y011120D01*
X013180Y010680D01*
X013180Y010240D01*
X013220Y010240D01*
X013220Y008392D01*
X013118Y008290D01*
X013015Y008290D01*
X013015Y008398D02*
X013220Y008398D01*
X013220Y008556D02*
X013015Y008556D01*
X013015Y008715D02*
X013220Y008715D01*
X013220Y008873D02*
X013015Y008873D01*
X013015Y009032D02*
X013220Y009032D01*
X013220Y009190D02*
X013015Y009190D01*
X013015Y009349D02*
X013220Y009349D01*
X013220Y009507D02*
X013015Y009507D01*
X013015Y009666D02*
X013220Y009666D01*
X013220Y009824D02*
X013015Y009824D01*
X013015Y009983D02*
X013220Y009983D01*
X013220Y010141D02*
X013015Y010141D01*
X012998Y010240D02*
X013180Y010240D01*
X013180Y010680D01*
X013180Y010680D01*
X013180Y010680D01*
X012740Y010680D01*
X012740Y010498D01*
X012998Y010240D01*
X012938Y010300D02*
X012857Y010300D01*
X012780Y010458D02*
X012699Y010458D01*
X012740Y010617D02*
X012640Y010617D01*
X012640Y010775D02*
X012740Y010775D01*
X013180Y010775D02*
X013180Y010775D01*
X013180Y010617D02*
X013180Y010617D01*
X013180Y010458D02*
X013180Y010458D01*
X013180Y010300D02*
X013180Y010300D01*
X013180Y010934D02*
X013180Y010934D01*
X013180Y011092D02*
X013180Y011092D01*
X013165Y011251D02*
X013470Y011251D01*
X013470Y011092D02*
X013390Y011092D01*
X011970Y011092D02*
X011946Y011092D01*
X011970Y010934D02*
X011390Y010934D01*
X011390Y011092D02*
X011414Y011092D01*
X011390Y010775D02*
X011970Y010775D01*
X011970Y010617D02*
X011390Y010617D01*
X011390Y010458D02*
X011970Y010458D01*
X011970Y010300D02*
X011390Y010300D01*
X011390Y010141D02*
X011845Y010141D01*
X011845Y009983D02*
X011390Y009983D01*
X011390Y009824D02*
X011815Y009824D01*
X011711Y009666D02*
X011390Y009666D01*
X013890Y008081D02*
X013899Y008081D01*
X014347Y009349D02*
X014470Y009349D01*
X016640Y009666D02*
X016744Y009666D01*
X016640Y009824D02*
X016902Y009824D01*
X016945Y009983D02*
X016640Y009983D01*
X016640Y010141D02*
X017007Y010141D01*
X013920Y012360D02*
X013890Y012360D01*
X013890Y012519D02*
X013920Y012519D01*
X013920Y012677D02*
X013890Y012677D01*
X013890Y012836D02*
X013920Y012836D01*
X013920Y012994D02*
X013890Y012994D01*
X013890Y013153D02*
X013920Y013153D01*
X013920Y013311D02*
X013890Y013311D01*
X013890Y013470D02*
X013920Y013470D01*
X013920Y013628D02*
X013890Y013628D01*
X013890Y013787D02*
X013920Y013787D01*
X013920Y013945D02*
X013890Y013945D01*
X013890Y014104D02*
X013920Y014104D01*
X013920Y014262D02*
X013890Y014262D01*
X013890Y014421D02*
X013920Y014421D01*
X013920Y014579D02*
X013890Y014579D01*
X013890Y014738D02*
X013920Y014738D01*
X013920Y014896D02*
X013890Y014896D01*
X013890Y015055D02*
X013920Y015055D01*
X013920Y015213D02*
X013819Y015213D01*
X013920Y015372D02*
X013665Y015372D01*
X013653Y015530D02*
X013920Y015530D01*
X013920Y015689D02*
X013556Y015689D01*
X013231Y015847D02*
X013920Y015847D01*
X013920Y016006D02*
X013290Y016006D01*
X013275Y016164D02*
X013920Y016164D01*
X013920Y016323D02*
X013758Y016323D01*
X013602Y016323D02*
X013172Y016323D01*
X013373Y016481D02*
X012390Y016481D01*
X012390Y016323D02*
X012688Y016323D01*
X012585Y016164D02*
X012390Y016164D01*
X012390Y016006D02*
X012570Y016006D01*
X012629Y015847D02*
X012390Y015847D01*
X012390Y015689D02*
X012720Y015689D01*
X012720Y015530D02*
X012390Y015530D01*
X012390Y015372D02*
X012720Y015372D01*
X012720Y015213D02*
X012390Y015213D01*
X012390Y015055D02*
X012720Y015055D01*
X012720Y014896D02*
X012390Y014896D01*
X012390Y014738D02*
X012720Y014738D01*
X012720Y014579D02*
X012390Y014579D01*
X012390Y014421D02*
X012720Y014421D01*
X012720Y014262D02*
X012390Y014262D01*
X012390Y014104D02*
X012720Y014104D01*
X012720Y013945D02*
X012462Y013945D01*
X012620Y013787D02*
X012720Y013787D01*
X011180Y013180D02*
X011180Y012480D01*
X011215Y012480D01*
X011283Y012491D01*
X011336Y012508D01*
X011093Y012265D01*
X011021Y012193D01*
X010918Y012296D01*
X010890Y012308D01*
X010890Y012588D01*
X010893Y012584D01*
X010949Y012544D01*
X011011Y012512D01*
X011077Y012491D01*
X011145Y012480D01*
X011180Y012480D01*
X011180Y013180D01*
X011180Y013180D01*
X011180Y013153D02*
X011180Y013153D01*
X011180Y012994D02*
X011180Y012994D01*
X011180Y012836D02*
X011180Y012836D01*
X011180Y012677D02*
X011180Y012677D01*
X011180Y012519D02*
X011180Y012519D01*
X011188Y012360D02*
X010890Y012360D01*
X010890Y012519D02*
X010999Y012519D01*
X011012Y012202D02*
X011030Y012202D01*
X012390Y016640D02*
X013320Y016640D01*
X013339Y016798D02*
X012390Y016798D01*
X012390Y016957D02*
X013447Y016957D01*
X013470Y017115D02*
X012390Y017115D01*
X012390Y017274D02*
X013470Y017274D01*
X013470Y017432D02*
X012390Y017432D01*
X012390Y017591D02*
X013470Y017591D01*
X013470Y017749D02*
X012390Y017749D01*
X012390Y017908D02*
X013470Y017908D01*
X013470Y018066D02*
X012390Y018066D01*
X012390Y018225D02*
X013470Y018225D01*
X013470Y018383D02*
X012390Y018383D01*
X012390Y018542D02*
X013470Y018542D01*
X013470Y018700D02*
X012584Y018700D01*
X012665Y018859D02*
X013470Y018859D01*
X013470Y019017D02*
X012659Y019017D01*
X012569Y019176D02*
X013470Y019176D01*
X013537Y019334D02*
X012390Y019334D01*
X012390Y019493D02*
X013696Y019493D01*
X013355Y019651D02*
X013005Y019651D01*
X013089Y019810D02*
X013271Y019810D01*
X013260Y019968D02*
X013100Y019968D01*
X013100Y020127D02*
X013260Y020127D01*
X013260Y020285D02*
X013100Y020285D01*
X013100Y020444D02*
X013260Y020444D01*
X013293Y020602D02*
X013067Y020602D01*
X012953Y020761D02*
X013407Y020761D01*
X013953Y020761D02*
X014407Y020761D01*
X014293Y020602D02*
X014067Y020602D01*
X014100Y020444D02*
X014260Y020444D01*
X014260Y020285D02*
X014100Y020285D01*
X014100Y020127D02*
X014260Y020127D01*
X014171Y019968D02*
X014100Y019968D01*
X003987Y026784D02*
X003930Y026784D01*
X004145Y026942D02*
X003090Y026942D01*
X003248Y026784D02*
X003430Y026784D01*
X002931Y027101D02*
X004304Y027101D01*
X004462Y027259D02*
X001010Y027259D01*
X001010Y027101D02*
X002054Y027101D01*
X001970Y026942D02*
X001010Y026942D01*
X001010Y026784D02*
X001970Y026784D01*
X001970Y026625D02*
X001010Y026625D01*
X001010Y026467D02*
X001373Y026467D01*
X001260Y026308D02*
X001010Y026308D01*
X001010Y026150D02*
X001260Y026150D01*
X001123Y025991D02*
X001010Y025991D01*
X001440Y025572D02*
X001628Y025760D01*
X001854Y025760D01*
X001970Y025876D01*
X001970Y025512D01*
X001862Y025620D01*
X001680Y025620D01*
X001680Y025180D01*
X001680Y025180D01*
X001680Y025620D01*
X001498Y025620D01*
X001440Y025562D01*
X001440Y025572D01*
X001542Y025674D02*
X001970Y025674D01*
X001967Y025516D02*
X001970Y025516D01*
X001680Y025516D02*
X001680Y025516D01*
X001680Y025357D02*
X001680Y025357D01*
X001680Y025199D02*
X001680Y025199D01*
X001927Y025833D02*
X001970Y025833D01*
X001970Y011376D02*
X001970Y011218D01*
X002093Y011095D01*
X002173Y011015D01*
X002101Y010985D01*
X002049Y010933D01*
X001862Y011120D01*
X001680Y011120D01*
X001680Y010680D01*
X001680Y010680D01*
X001680Y010240D01*
X001862Y010240D01*
X001970Y010348D01*
X001970Y006541D01*
X001871Y006640D01*
X001517Y006640D01*
X001390Y006767D01*
X001390Y010348D01*
X001498Y010240D01*
X001680Y010240D01*
X001680Y010680D01*
X001680Y010680D01*
X001680Y011120D01*
X001498Y011120D01*
X001390Y011012D01*
X001390Y011376D01*
X001506Y011260D01*
X001854Y011260D01*
X001970Y011376D01*
X001970Y011251D02*
X001390Y011251D01*
X001390Y011092D02*
X001470Y011092D01*
X001680Y011092D02*
X001680Y011092D01*
X001680Y010934D02*
X001680Y010934D01*
X001680Y010775D02*
X001680Y010775D01*
X001680Y010617D02*
X001680Y010617D01*
X001680Y010458D02*
X001680Y010458D01*
X001680Y010300D02*
X001680Y010300D01*
X001922Y010300D02*
X001970Y010300D01*
X001970Y010141D02*
X001390Y010141D01*
X001390Y009983D02*
X001970Y009983D01*
X001970Y009824D02*
X001390Y009824D01*
X001390Y009666D02*
X001970Y009666D01*
X001970Y009507D02*
X001390Y009507D01*
X001390Y009349D02*
X001970Y009349D01*
X001970Y009190D02*
X001390Y009190D01*
X001390Y009032D02*
X001970Y009032D01*
X001970Y008873D02*
X001390Y008873D01*
X001390Y008715D02*
X001970Y008715D01*
X001970Y008556D02*
X001390Y008556D01*
X001390Y008398D02*
X001970Y008398D01*
X001970Y008239D02*
X001390Y008239D01*
X001390Y008081D02*
X001970Y008081D01*
X001970Y007922D02*
X001390Y007922D01*
X001390Y007764D02*
X001970Y007764D01*
X001970Y007605D02*
X001390Y007605D01*
X001390Y007447D02*
X001970Y007447D01*
X001970Y007288D02*
X001390Y007288D01*
X001390Y007130D02*
X001970Y007130D01*
X001970Y006971D02*
X001390Y006971D01*
X001390Y006813D02*
X001970Y006813D01*
X001970Y006654D02*
X001503Y006654D01*
X001517Y005720D02*
X001871Y005720D01*
X001970Y005819D01*
X001970Y005569D01*
X001879Y005660D01*
X001700Y005660D01*
X001700Y005200D01*
X001660Y005200D01*
X001660Y005660D01*
X001481Y005660D01*
X001390Y005569D01*
X001390Y005593D01*
X001517Y005720D01*
X001500Y005703D02*
X001970Y005703D01*
X001700Y005545D02*
X001660Y005545D01*
X001660Y005386D02*
X001700Y005386D01*
X001700Y005228D02*
X001660Y005228D01*
X001660Y005160D02*
X001700Y005160D01*
X001700Y004700D01*
X001879Y004700D01*
X002058Y004880D01*
X002220Y004718D01*
X002220Y004180D01*
X001390Y004180D01*
X001390Y004791D01*
X001481Y004700D01*
X001660Y004700D01*
X001660Y005160D01*
X001660Y005069D02*
X001700Y005069D01*
X001700Y004911D02*
X001660Y004911D01*
X001660Y004752D02*
X001700Y004752D01*
X001931Y004752D02*
X002186Y004752D01*
X002220Y004594D02*
X001390Y004594D01*
X001390Y004752D02*
X001429Y004752D01*
X001390Y004435D02*
X002220Y004435D01*
X002220Y004277D02*
X001390Y004277D01*
X001390Y010300D02*
X001438Y010300D01*
X002049Y010934D02*
X002049Y010934D01*
X002096Y011092D02*
X001890Y011092D01*
X012015Y006496D02*
X012074Y006496D01*
M02*
