G75*
%MOIN*%
%OFA0B0*%
%FSLAX24Y24*%
%IPPOS*%
%LPD*%
%AMOC8*
5,1,8,0,0,1.08239X$1,22.5*
%
%ADD10R,0.0600X0.2550*%
%ADD11OC8,0.0600*%
%ADD12C,0.0520*%
%ADD13C,0.0560*%
%ADD14OC8,0.1000*%
%ADD15C,0.0520*%
%ADD16R,0.0740X0.0740*%
%ADD17C,0.0740*%
%ADD18C,0.2000*%
%ADD19OC8,0.0520*%
%ADD20OC8,0.0560*%
%ADD21C,0.1650*%
%ADD22C,0.0100*%
%ADD23C,0.0400*%
%ADD24C,0.0200*%
%ADD25C,0.0160*%
D10*
X001680Y002180D03*
X002680Y002180D03*
X003680Y002180D03*
X004680Y002180D03*
X005680Y002180D03*
X006680Y002180D03*
X007680Y002180D03*
X008680Y002180D03*
X009680Y002180D03*
X010680Y002180D03*
X011680Y002180D03*
X012680Y002180D03*
X013680Y002180D03*
X014680Y002180D03*
X015680Y002180D03*
X016680Y002180D03*
X017680Y002180D03*
X018680Y002180D03*
X019680Y002180D03*
X020680Y002180D03*
X021680Y002180D03*
X022680Y002180D03*
X023680Y002180D03*
X024680Y002180D03*
X025680Y002180D03*
X026680Y002180D03*
X027680Y002180D03*
X028680Y002180D03*
X029680Y002180D03*
X030680Y002180D03*
X031680Y002180D03*
D11*
X031680Y005180D03*
X030680Y005180D03*
X030680Y006180D03*
X031680Y006180D03*
X029680Y006180D03*
X028680Y006180D03*
X027680Y006180D03*
X026680Y006180D03*
X025680Y006180D03*
X025680Y005180D03*
X026680Y005180D03*
X027680Y005180D03*
X028680Y005180D03*
X029680Y005180D03*
X024680Y005180D03*
X023680Y005180D03*
X022680Y005180D03*
X021680Y005180D03*
X021680Y006180D03*
X022680Y006180D03*
X023680Y006180D03*
X024680Y006180D03*
X020680Y006180D03*
X019680Y006180D03*
X018680Y006180D03*
X017680Y006180D03*
X016680Y006180D03*
X016680Y005180D03*
X017680Y005180D03*
X018680Y005180D03*
X019680Y005180D03*
X020680Y005180D03*
X015680Y005180D03*
X014680Y005180D03*
X013680Y005180D03*
X012680Y005180D03*
X012680Y006180D03*
X013680Y006180D03*
X014680Y006180D03*
X015680Y006180D03*
X011680Y006180D03*
X010680Y006180D03*
X009680Y006180D03*
X008680Y006180D03*
X007680Y006180D03*
X007680Y005180D03*
X008680Y005180D03*
X009680Y005180D03*
X010680Y005180D03*
X011680Y005180D03*
X006680Y005180D03*
X005680Y005180D03*
X004680Y005180D03*
X003680Y005180D03*
X003680Y006180D03*
X004680Y006180D03*
X005680Y006180D03*
X006680Y006180D03*
X002680Y006180D03*
X001680Y006180D03*
X001680Y005180D03*
X002680Y005180D03*
D12*
X002680Y008420D02*
X002680Y008940D01*
X003680Y008940D02*
X003680Y008420D01*
X004680Y008420D02*
X004680Y008940D01*
X005680Y008940D02*
X005680Y008420D01*
X006680Y008420D02*
X006680Y008940D01*
X007680Y008940D02*
X007680Y008420D01*
X008680Y008420D02*
X008680Y008940D01*
X009680Y008940D02*
X009680Y008420D01*
X010680Y008420D02*
X010680Y008940D01*
X011680Y008940D02*
X011680Y008420D01*
X014180Y008420D02*
X014180Y008940D01*
X015180Y008940D02*
X015180Y008420D01*
X016180Y008420D02*
X016180Y008940D01*
X017180Y008940D02*
X017180Y008420D01*
X018180Y008420D02*
X018180Y008940D01*
X019180Y008940D02*
X019180Y008420D01*
X020180Y008420D02*
X020180Y008940D01*
X021180Y008940D02*
X021180Y008420D01*
X022180Y008420D02*
X022180Y008940D01*
X023180Y008940D02*
X023180Y008420D01*
X025420Y008680D02*
X025940Y008680D01*
X025940Y009680D02*
X025420Y009680D01*
X025420Y010680D02*
X025940Y010680D01*
X025940Y011680D02*
X025420Y011680D01*
X025420Y012680D02*
X025940Y012680D01*
X025940Y013680D02*
X025420Y013680D01*
X025420Y014680D02*
X025940Y014680D01*
X025940Y015680D02*
X025420Y015680D01*
X025420Y016680D02*
X025940Y016680D01*
X025940Y017680D02*
X025420Y017680D01*
X025420Y018680D02*
X025940Y018680D01*
X025940Y019680D02*
X025420Y019680D01*
X022180Y017440D02*
X022180Y016920D01*
X021180Y016920D02*
X021180Y017440D01*
X020180Y017440D02*
X020180Y016920D01*
X019180Y016920D02*
X019180Y017440D01*
X018180Y017440D02*
X018180Y016920D01*
X017180Y016920D02*
X017180Y017440D01*
X016180Y017440D02*
X016180Y016920D01*
X015180Y016920D02*
X015180Y017440D01*
X014680Y019920D02*
X014680Y020440D01*
X013680Y020440D02*
X013680Y019920D01*
X012680Y019920D02*
X012680Y020440D01*
X011680Y020440D02*
X011680Y019920D01*
X010680Y019920D02*
X010680Y020440D01*
X009680Y020440D02*
X009680Y019920D01*
X008680Y019920D02*
X008680Y020440D01*
X007680Y020440D02*
X007680Y019920D01*
X006680Y019920D02*
X006680Y020440D01*
X005680Y020440D02*
X005680Y019920D01*
X004680Y019920D02*
X004680Y020440D01*
X003680Y020440D02*
X003680Y019920D01*
X002680Y019920D02*
X002680Y020440D01*
X003180Y017440D02*
X003180Y016920D01*
X004180Y016920D02*
X004180Y017440D01*
X005180Y017440D02*
X005180Y016920D01*
X006180Y016920D02*
X006180Y017440D01*
X007180Y017440D02*
X007180Y016920D01*
X008180Y016920D02*
X008180Y017440D01*
X009180Y017440D02*
X009180Y016920D01*
X010180Y016920D02*
X010180Y017440D01*
X010180Y014440D02*
X010180Y013920D01*
X010180Y013440D02*
X010180Y012920D01*
X009180Y012920D02*
X009180Y013440D01*
X009180Y013920D02*
X009180Y014440D01*
X008180Y014440D02*
X008180Y013920D01*
X008180Y013440D02*
X008180Y012920D01*
X007180Y012920D02*
X007180Y013440D01*
X007180Y013920D02*
X007180Y014440D01*
X006180Y014440D02*
X006180Y013920D01*
X006180Y013440D02*
X006180Y012920D01*
X005180Y012920D02*
X005180Y013440D01*
X005180Y013920D02*
X005180Y014440D01*
X004180Y014440D02*
X004180Y013920D01*
X004180Y013440D02*
X004180Y012920D01*
X003180Y012920D02*
X003180Y013440D01*
X003180Y013920D02*
X003180Y014440D01*
X002680Y011940D02*
X002680Y011420D01*
X003680Y011420D02*
X003680Y011940D01*
X004680Y011940D02*
X004680Y011420D01*
X005680Y011420D02*
X005680Y011940D01*
X006680Y011940D02*
X006680Y011420D01*
X007680Y011420D02*
X007680Y011940D01*
X008680Y011940D02*
X008680Y011420D01*
X009680Y011420D02*
X009680Y011940D01*
X010680Y011940D02*
X010680Y011420D01*
X011680Y011420D02*
X011680Y011940D01*
X011180Y012920D02*
X011180Y013440D01*
X014180Y011940D02*
X014180Y011420D01*
X015180Y011420D02*
X015180Y011940D01*
X016180Y011940D02*
X016180Y011420D01*
X017180Y011420D02*
X017180Y011940D01*
X018180Y011940D02*
X018180Y011420D01*
X019180Y011420D02*
X019180Y011940D01*
X020180Y011940D02*
X020180Y011420D01*
X021180Y011420D02*
X021180Y011940D01*
X022180Y011940D02*
X022180Y011420D01*
X023180Y011420D02*
X023180Y011940D01*
X023180Y012920D02*
X023180Y013440D01*
X022180Y013440D02*
X022180Y012920D01*
X021180Y012920D02*
X021180Y013440D01*
X021180Y013920D02*
X021180Y014440D01*
X022180Y014440D02*
X022180Y013920D01*
X020180Y013920D02*
X020180Y014440D01*
X019180Y014440D02*
X019180Y013920D01*
X019180Y013440D02*
X019180Y012920D01*
X018180Y012920D02*
X018180Y013440D01*
X018180Y013920D02*
X018180Y014440D01*
X017180Y014440D02*
X017180Y013920D01*
X017180Y013440D02*
X017180Y012920D01*
X016180Y012920D02*
X016180Y013440D01*
X016180Y013920D02*
X016180Y014440D01*
X015180Y014440D02*
X015180Y013920D01*
X015180Y013440D02*
X015180Y012920D01*
X020180Y012920D02*
X020180Y013440D01*
X017680Y019920D02*
X017680Y020440D01*
X016680Y020440D02*
X016680Y019920D01*
X015680Y019920D02*
X015680Y020440D01*
X015680Y025920D02*
X015680Y026440D01*
X014680Y026440D02*
X014680Y025920D01*
X013680Y025920D02*
X013680Y026440D01*
X012680Y026440D02*
X012680Y025920D01*
X011680Y025920D02*
X011680Y026440D01*
X010680Y026440D02*
X010680Y025920D01*
X009680Y025920D02*
X009680Y026440D01*
X008680Y026440D02*
X008680Y025920D01*
X007680Y025920D02*
X007680Y026440D01*
X006680Y026440D02*
X006680Y025920D01*
X005680Y025920D02*
X005680Y026440D01*
X004680Y026440D02*
X004680Y025920D01*
X003680Y025920D02*
X003680Y026440D01*
X002680Y026440D02*
X002680Y025920D01*
X016680Y025920D02*
X016680Y026440D01*
X017680Y026440D02*
X017680Y025920D01*
X031420Y019680D02*
X031940Y019680D01*
X032920Y019680D02*
X033440Y019680D01*
X033440Y020680D02*
X032920Y020680D01*
X032920Y021680D02*
X033440Y021680D01*
X035920Y021680D02*
X036440Y021680D01*
X036440Y020680D02*
X035920Y020680D01*
X035920Y019680D02*
X036440Y019680D01*
X036440Y018680D02*
X035920Y018680D01*
X035920Y017680D02*
X036440Y017680D01*
X036440Y016680D02*
X035920Y016680D01*
X035920Y015680D02*
X036440Y015680D01*
X036440Y014680D02*
X035920Y014680D01*
X033440Y014680D02*
X032920Y014680D01*
X031940Y014680D02*
X031420Y014680D01*
X031420Y013680D02*
X031940Y013680D01*
X031940Y012680D02*
X031420Y012680D01*
X031420Y011680D02*
X031940Y011680D01*
X032920Y011680D02*
X033440Y011680D01*
X033440Y010680D02*
X032920Y010680D01*
X031940Y010680D02*
X031420Y010680D01*
X031420Y009680D02*
X031940Y009680D01*
X032920Y009680D02*
X033440Y009680D01*
X033440Y008680D02*
X032920Y008680D01*
X031940Y008680D02*
X031420Y008680D01*
X032920Y007680D02*
X033440Y007680D01*
X033440Y006680D02*
X032920Y006680D01*
X032920Y005680D02*
X033440Y005680D01*
X035920Y005680D02*
X036440Y005680D01*
X036440Y006680D02*
X035920Y006680D01*
X035920Y007680D02*
X036440Y007680D01*
X036440Y008680D02*
X035920Y008680D01*
X035920Y009680D02*
X036440Y009680D01*
X036440Y010680D02*
X035920Y010680D01*
X035920Y011680D02*
X036440Y011680D01*
X033440Y015680D02*
X032920Y015680D01*
X031940Y015680D02*
X031420Y015680D01*
X031420Y016680D02*
X031940Y016680D01*
X032920Y016680D02*
X033440Y016680D01*
X033440Y017680D02*
X032920Y017680D01*
X031940Y017680D02*
X031420Y017680D01*
X031420Y018680D02*
X031940Y018680D01*
X032920Y018680D02*
X033440Y018680D01*
D13*
X033180Y026400D02*
X033180Y026960D01*
X034180Y026960D02*
X034180Y026400D01*
X031180Y026400D02*
X031180Y026960D01*
X030180Y026960D02*
X030180Y026400D01*
D14*
X027930Y026180D03*
X027930Y022180D03*
X020930Y024180D03*
D15*
X024680Y019180D03*
X024680Y018180D03*
D16*
X038121Y021861D03*
D17*
X039239Y021314D03*
X038121Y020771D03*
X039239Y020223D03*
X038121Y019680D03*
X039239Y019137D03*
X038121Y018589D03*
X039239Y018046D03*
X038121Y017499D03*
D18*
X038680Y014759D03*
X038680Y024601D03*
D19*
X036180Y023680D03*
X036180Y022680D03*
X035180Y022680D03*
X033180Y023680D03*
X031680Y021180D03*
X030680Y021180D03*
X035180Y012680D03*
X036180Y012680D03*
X013180Y011680D03*
X013180Y010680D03*
X001680Y010680D03*
X001680Y011680D03*
X001680Y025180D03*
X001680Y026180D03*
D20*
X038180Y012180D03*
X039180Y012180D03*
X039180Y011180D03*
X038180Y011180D03*
X038180Y010180D03*
X039180Y010180D03*
X039180Y009180D03*
X038180Y009180D03*
X038180Y008180D03*
X039180Y008180D03*
X039180Y007180D03*
X038180Y007180D03*
D21*
X040180Y004680D03*
X040180Y026930D03*
D22*
X036555Y022180D02*
X033680Y022180D01*
X033180Y021680D01*
X033180Y020680D02*
X033055Y020555D01*
X030180Y020555D01*
X029555Y020180D02*
X035680Y020180D01*
X036180Y019680D01*
X035180Y019680D02*
X033180Y019680D01*
X032680Y019180D01*
X030055Y019180D01*
X028305Y020930D01*
X014430Y020930D01*
X013680Y020180D01*
X012680Y021180D01*
X002805Y021180D01*
X001180Y019555D01*
X001805Y019055D02*
X001180Y018430D01*
X001180Y011180D01*
X001805Y011180D01*
X002305Y010680D01*
X003805Y010680D02*
X004680Y009805D01*
X005180Y009805D01*
X005180Y009305D02*
X005930Y010055D01*
X006180Y010055D01*
X006180Y010555D02*
X007680Y010555D01*
X007555Y010055D02*
X008305Y010055D01*
X009680Y008680D01*
X010680Y008680D02*
X011430Y007930D01*
X013055Y007930D01*
X013180Y007555D02*
X011305Y007555D01*
X011305Y006680D02*
X011180Y006555D01*
X011305Y006680D02*
X017430Y006680D01*
X017680Y006930D01*
X031555Y006930D01*
X032305Y006180D01*
X038680Y006180D01*
X038680Y009680D01*
X038180Y010180D01*
X038055Y010680D02*
X037555Y010180D01*
X034680Y010180D01*
X034305Y009805D01*
X033180Y010680D02*
X032680Y010680D01*
X031680Y009680D01*
X032305Y009180D02*
X026180Y009180D01*
X025680Y009680D01*
X025680Y010680D02*
X026805Y009555D01*
X028055Y009555D01*
X029305Y009555D01*
X029555Y010805D02*
X031555Y010805D01*
X031680Y010680D01*
X032805Y009180D02*
X032430Y008805D01*
X032430Y008180D01*
X030430Y008180D01*
X029930Y007680D01*
X017680Y007680D01*
X017430Y007930D01*
X013555Y007930D01*
X013180Y007555D01*
X013180Y007180D02*
X010305Y007180D01*
X010180Y007305D01*
X009180Y006680D02*
X009680Y006180D01*
X010180Y005680D02*
X013055Y005680D01*
X013055Y006180D02*
X012680Y006180D01*
X013055Y006180D02*
X013555Y005680D01*
X014055Y005680D01*
X014180Y005805D01*
X013680Y005180D02*
X013680Y002180D01*
X012680Y002180D02*
X012680Y005180D01*
X011680Y005180D02*
X011680Y002180D01*
X010680Y002180D02*
X010680Y005180D01*
X010180Y005680D02*
X010680Y006180D01*
X010180Y005680D02*
X006305Y005680D01*
X006180Y005805D01*
X005680Y006180D02*
X005430Y006180D01*
X004180Y007430D01*
X005305Y007430D02*
X007680Y007430D01*
X007680Y006180D01*
X007930Y006555D02*
X008430Y006555D01*
X008555Y006680D01*
X009180Y006680D01*
X008305Y006930D02*
X017180Y006930D01*
X017430Y007180D01*
X038180Y007180D01*
X038180Y008180D02*
X032805Y008180D01*
X032055Y007430D01*
X017430Y007430D01*
X017180Y007680D01*
X013680Y007680D01*
X013180Y007180D01*
X015805Y007305D02*
X017055Y007305D01*
X018180Y006555D02*
X018305Y006680D01*
X019180Y006680D01*
X019680Y006180D01*
X019555Y005680D02*
X019055Y005180D01*
X018680Y005180D01*
X018680Y002180D01*
X017680Y002180D02*
X017680Y005180D01*
X018055Y005680D02*
X016305Y005680D01*
X016180Y005805D01*
X015680Y005180D02*
X015680Y002180D01*
X014680Y002180D02*
X014680Y005180D01*
X016680Y005180D02*
X016680Y002180D01*
X019680Y002180D02*
X019680Y005180D01*
X019555Y005680D02*
X022055Y005680D01*
X022180Y005805D01*
X022555Y005680D02*
X022055Y005180D01*
X021680Y005180D01*
X021680Y002180D01*
X020680Y002180D02*
X020680Y005180D01*
X019180Y005805D02*
X019055Y005680D01*
X018555Y005680D01*
X018055Y006180D01*
X017680Y006180D01*
X020180Y006555D02*
X020305Y006680D01*
X029055Y006680D01*
X029180Y006555D01*
X029180Y005680D02*
X028680Y005180D01*
X028680Y002180D01*
X027680Y002180D02*
X027680Y005180D01*
X027055Y005680D02*
X024555Y005680D01*
X024305Y005430D01*
X024180Y005430D01*
X024180Y005055D01*
X024055Y004930D01*
X024055Y004680D01*
X023680Y005180D02*
X023680Y002180D01*
X024680Y002180D02*
X024680Y005180D01*
X024055Y005680D02*
X022555Y005680D01*
X024055Y005680D02*
X024180Y005805D01*
X025680Y005180D02*
X025680Y002180D01*
X026680Y002180D02*
X026680Y005180D01*
X029180Y005680D02*
X030180Y005680D01*
X030180Y005055D01*
X030555Y004680D01*
X031805Y004680D01*
X032055Y004930D01*
X036305Y004930D01*
X036930Y005555D01*
X039680Y005555D01*
X039680Y011305D01*
X039305Y011680D01*
X038680Y011680D01*
X038180Y012180D01*
X038180Y011180D02*
X023555Y011180D01*
X022805Y010430D01*
X014680Y010430D01*
X014180Y009930D01*
X012430Y009930D01*
X012055Y009555D02*
X018680Y009555D01*
X018805Y009680D01*
X020680Y009680D01*
X020430Y009430D02*
X020555Y009305D01*
X020805Y009305D01*
X021180Y009680D01*
X020430Y009430D02*
X018930Y009430D01*
X018180Y008680D01*
X018680Y008055D02*
X018805Y007930D01*
X020430Y007930D01*
X021180Y008680D01*
X022180Y008680D02*
X022180Y010055D01*
X018805Y010055D01*
X018055Y009930D02*
X017305Y009930D01*
X018680Y011305D02*
X018680Y012430D01*
X018555Y012430D01*
X019055Y012430D02*
X018305Y013180D01*
X018180Y013180D01*
X017430Y012430D02*
X016930Y012430D01*
X016180Y013180D01*
X015180Y013180D02*
X015180Y012680D01*
X016180Y011680D01*
X015180Y011680D02*
X014680Y011680D01*
X014680Y014555D01*
X015055Y014930D01*
X022305Y014930D01*
X024055Y013180D01*
X034555Y013180D01*
X034680Y013055D01*
X036555Y015180D02*
X036930Y015555D01*
X036930Y020680D01*
X036930Y021805D01*
X036555Y022180D01*
X036180Y020680D02*
X036930Y020680D01*
X035180Y019680D02*
X036180Y018680D01*
X036180Y017680D02*
X036055Y017680D01*
X034930Y016555D01*
X035680Y016180D02*
X036180Y015680D01*
X036555Y015180D02*
X025305Y015180D01*
X025055Y014930D01*
X024430Y014930D01*
X023680Y015680D01*
X014430Y015680D01*
X014430Y013305D01*
X014055Y012930D01*
X013805Y012930D01*
X011805Y010930D01*
X004430Y010930D01*
X003680Y011680D01*
X003180Y012055D02*
X003180Y008680D01*
X003680Y008680D01*
X006680Y008680D02*
X007680Y009680D01*
X008055Y009680D01*
X007555Y010055D02*
X007180Y009680D01*
X006680Y011680D02*
X005930Y012430D01*
X004930Y012430D01*
X004180Y013180D01*
X003180Y013180D02*
X004680Y011680D01*
X003180Y012055D02*
X002805Y012430D01*
X002680Y012430D01*
X002680Y014555D01*
X003055Y014930D01*
X003555Y014930D01*
X004680Y016055D01*
X005305Y016430D02*
X005555Y016680D01*
X005805Y016680D01*
X006055Y016430D01*
X013180Y016430D01*
X013930Y015680D01*
X013930Y013180D01*
X012680Y013180D01*
X011930Y012430D01*
X010430Y012430D01*
X009680Y011680D01*
X009180Y012305D02*
X008305Y013180D01*
X008180Y013180D01*
X007930Y012430D02*
X007055Y012430D01*
X006680Y012805D01*
X006680Y014805D01*
X006430Y014805D01*
X006305Y014930D01*
X005930Y014930D01*
X005180Y014180D01*
X005680Y015180D02*
X006305Y015805D01*
X012680Y015805D01*
X012805Y015680D01*
X013055Y015680D01*
X013180Y015805D01*
X013430Y015805D01*
X013680Y015555D01*
X013680Y015055D01*
X011180Y015055D01*
X010305Y014180D01*
X010180Y014180D01*
X010680Y015055D02*
X006555Y015055D01*
X006305Y015305D01*
X005930Y016055D02*
X012930Y016055D01*
X013305Y015430D02*
X007305Y015430D01*
X005930Y016055D02*
X005680Y016305D01*
X005305Y016430D02*
X001555Y016430D01*
X001555Y018430D01*
X001930Y018805D01*
X005305Y018805D01*
X006680Y020180D01*
X007055Y019430D02*
X010930Y019430D01*
X011680Y020180D01*
X011930Y020930D02*
X003555Y020930D01*
X003180Y020555D01*
X003180Y019055D01*
X001805Y019055D01*
X002180Y018555D02*
X016930Y018555D01*
X017430Y018055D01*
X019180Y018055D01*
X017180Y018680D02*
X024805Y018680D01*
X025305Y018180D01*
X029430Y018180D01*
X030680Y016930D01*
X030680Y016430D01*
X027555Y016430D01*
X026805Y015680D01*
X025680Y015680D01*
X024930Y015680D01*
X024555Y015305D01*
X023555Y015305D02*
X025180Y013680D01*
X025680Y013680D01*
X026805Y013680D01*
X025680Y012680D02*
X026430Y011930D01*
X027430Y011930D01*
X028430Y011555D02*
X025805Y011555D01*
X025680Y011680D01*
X022180Y011680D02*
X021430Y012430D01*
X019055Y012430D01*
X018180Y011680D02*
X017430Y012430D01*
X018680Y011305D02*
X019055Y010930D01*
X020430Y010930D01*
X021180Y011680D01*
X021930Y015305D02*
X016430Y015305D01*
X013930Y016430D02*
X025430Y016430D01*
X025680Y016680D01*
X026305Y016680D01*
X026805Y016180D01*
X025680Y017680D02*
X025180Y017680D01*
X024680Y018180D01*
X025180Y018680D02*
X025680Y018680D01*
X025180Y018680D02*
X024680Y019180D01*
X024305Y019680D02*
X024055Y019430D01*
X017430Y019430D01*
X016680Y020180D01*
X015680Y020180D02*
X017180Y018680D01*
X013930Y016430D02*
X013680Y016680D01*
X012305Y018930D02*
X008430Y018930D01*
X008305Y019055D01*
X009305Y017930D02*
X009555Y018180D01*
X009305Y017930D02*
X002305Y017930D01*
X001930Y018305D02*
X002180Y018555D01*
X011305Y014055D02*
X012055Y013305D01*
X012305Y013305D01*
X012680Y012555D02*
X011805Y011680D01*
X011680Y011680D01*
X012805Y011180D02*
X013680Y011180D01*
X014055Y010805D01*
X008680Y011680D02*
X007930Y012430D01*
X008180Y007430D02*
X007930Y007180D01*
X007930Y006555D01*
X007055Y007055D02*
X006680Y006680D01*
X006180Y006680D01*
X005680Y006180D01*
X005680Y005180D02*
X005680Y002180D01*
X004680Y002180D02*
X004680Y005180D01*
X006680Y005180D02*
X006680Y002180D01*
X007680Y002180D02*
X007680Y005180D01*
X008680Y005180D02*
X008680Y002180D01*
X009680Y002180D02*
X009680Y005180D01*
X002680Y005180D02*
X002680Y002180D01*
X022680Y008055D02*
X022805Y007930D01*
X029680Y007930D01*
X029930Y008180D01*
X032805Y009180D02*
X038180Y009180D01*
X039180Y010180D02*
X038680Y010680D01*
X039180Y011180D01*
X038680Y010680D02*
X038055Y010680D01*
X036180Y006680D02*
X033180Y006680D01*
X032430Y004555D02*
X032180Y004305D01*
X031555Y004305D01*
X030680Y003430D01*
X030680Y002180D01*
X029555Y015555D02*
X030180Y016180D01*
X035680Y016180D01*
X028305Y024680D02*
X027805Y025180D01*
X016680Y025180D01*
X015680Y026180D01*
X015430Y026930D02*
X024305Y026930D01*
X024305Y025555D02*
X024180Y025430D01*
X017430Y025430D01*
X016680Y026180D01*
X015430Y026930D02*
X014680Y026180D01*
X013680Y026180D02*
X014930Y024930D01*
X024055Y024930D01*
X024305Y024680D01*
X013555Y022305D02*
X009680Y026180D01*
X011930Y020930D02*
X012680Y020180D01*
D23*
X013180Y021180D03*
X013555Y022305D03*
X012305Y018930D03*
X009555Y018180D03*
X008305Y019055D03*
X007055Y019430D03*
X002305Y017930D03*
X001930Y018305D03*
X001180Y019555D03*
X005680Y016305D03*
X004680Y016055D03*
X005680Y015180D03*
X006305Y015305D03*
X007305Y015430D03*
X010680Y015055D03*
X011305Y014055D03*
X012555Y014680D03*
X013305Y015430D03*
X012930Y016055D03*
X013680Y016680D03*
X014180Y016805D03*
X016430Y015305D03*
X012305Y013305D03*
X012680Y012555D03*
X012805Y011180D03*
X014055Y010805D03*
X012430Y009930D03*
X012055Y009555D03*
X013055Y007930D03*
X011305Y007555D03*
X011180Y006555D03*
X010180Y007305D03*
X008305Y006930D03*
X008180Y007430D03*
X007055Y007055D03*
X006180Y005805D03*
X005305Y007430D03*
X004180Y007430D03*
X003180Y007430D03*
X005180Y009305D03*
X005180Y009805D03*
X006180Y010055D03*
X006180Y010555D03*
X007180Y009680D03*
X008055Y009680D03*
X007680Y010555D03*
X009180Y012305D03*
X003805Y010680D03*
X002305Y010680D03*
X013055Y005680D03*
X014180Y005805D03*
X016180Y005805D03*
X015805Y007305D03*
X017055Y007305D03*
X018180Y006555D03*
X018055Y005680D03*
X019180Y005805D03*
X020180Y006555D03*
X018680Y008055D03*
X020680Y009680D03*
X021180Y009680D03*
X022680Y008055D03*
X022180Y005805D03*
X024180Y005805D03*
X024055Y004680D03*
X027055Y005680D03*
X029180Y006555D03*
X029930Y008180D03*
X029305Y009555D03*
X028055Y009555D03*
X029555Y010805D03*
X028430Y011555D03*
X027430Y011930D03*
X026805Y013680D03*
X024555Y015305D03*
X023555Y015305D03*
X021930Y015305D03*
X019180Y018055D03*
X024305Y019680D03*
X026805Y016180D03*
X029555Y015555D03*
X030305Y016805D03*
X034930Y016555D03*
X030555Y013555D03*
X034680Y013055D03*
X034305Y009805D03*
X032305Y009180D03*
X032430Y004555D03*
X018805Y010055D03*
X018055Y009930D03*
X017305Y009930D03*
X018555Y012430D03*
X029555Y020180D03*
X030180Y020555D03*
X028305Y024680D03*
X024305Y024680D03*
X024305Y025555D03*
X024305Y026930D03*
D24*
X020930Y024180D02*
X027805Y024180D01*
X030680Y021305D01*
X030680Y021180D01*
X032180Y022680D01*
X034555Y022680D01*
X037680Y025805D01*
X039055Y025805D01*
X040180Y026930D01*
X035180Y022680D02*
X034555Y022680D01*
X035680Y021180D02*
X036180Y021680D01*
X035680Y021180D02*
X031680Y021180D01*
X029930Y017180D02*
X022180Y017180D01*
X021180Y017180D02*
X020180Y017180D01*
X019180Y017180D01*
X018180Y017180D02*
X017180Y017180D01*
X016180Y017180D02*
X015180Y017180D01*
X014555Y017180D01*
X014493Y017118D01*
X014430Y017180D01*
X010180Y017180D01*
X009180Y017180D01*
X008180Y017180D01*
X007180Y017180D01*
X006180Y017180D01*
X005180Y017180D01*
X004180Y017180D01*
X010805Y014305D02*
X010805Y013930D01*
X011180Y013555D01*
X011180Y013180D01*
X010930Y014305D02*
X010805Y014305D01*
X010930Y014305D02*
X011305Y014680D01*
X012555Y014680D01*
X014180Y016805D02*
X014493Y017118D01*
X013180Y021180D02*
X013368Y021368D01*
X013305Y021430D01*
X005430Y021430D01*
X001680Y025180D01*
X001680Y026180D02*
X002680Y026180D01*
X013368Y021368D02*
X016180Y024180D01*
X020930Y024180D01*
X029930Y017180D02*
X030305Y016805D01*
X033180Y014680D02*
X033680Y014180D01*
X036680Y014180D01*
X036680Y012555D01*
X036305Y012180D01*
X035555Y012180D01*
X035180Y012555D01*
X035180Y012680D01*
X035055Y012555D01*
X032555Y012555D01*
X031680Y011680D01*
X031680Y013555D02*
X030555Y013555D01*
X031680Y013555D02*
X031680Y013680D01*
X031805Y013555D01*
X035305Y013555D01*
X036180Y012680D01*
X031680Y008680D02*
X025680Y008680D01*
X023180Y008680D01*
X022180Y010680D02*
X022680Y011180D01*
X022680Y013180D01*
X023180Y013180D01*
X022180Y010680D02*
X018055Y010680D01*
X017180Y011555D01*
X017180Y011680D01*
X016180Y010680D01*
X014555Y010680D01*
X014180Y010305D01*
X013430Y010305D01*
X013180Y010555D01*
X013180Y010680D01*
X012930Y010430D01*
X012305Y010430D01*
X011555Y009680D01*
X011555Y009430D01*
X010180Y009430D01*
X010180Y008180D01*
X009930Y007930D01*
X001680Y007930D01*
X001680Y010680D01*
X001680Y011680D02*
X002680Y011680D01*
X001680Y007930D02*
X001680Y006680D01*
X001430Y006680D01*
X001180Y006430D01*
X001180Y005180D01*
X001680Y005180D01*
X001680Y002180D01*
X003680Y002180D02*
X003680Y005180D01*
X003180Y005680D01*
X003180Y007430D01*
X011555Y008680D02*
X011680Y008680D01*
X014180Y008680D01*
X011555Y008680D02*
X011555Y009430D01*
X013180Y011680D02*
X014180Y011680D01*
X022680Y005180D02*
X022680Y002180D01*
X029680Y002180D02*
X029680Y005180D01*
X031680Y005180D02*
X032680Y005180D01*
X033180Y005680D01*
X031680Y004055D02*
X039555Y004055D01*
X040180Y004680D01*
X031680Y004055D02*
X031680Y002180D01*
D25*
X032352Y004180D02*
X032367Y004195D01*
X032502Y004195D01*
X032634Y004250D01*
X032735Y004351D01*
X032790Y004483D01*
X032790Y004627D01*
X032751Y004720D01*
X036392Y004720D01*
X036515Y004843D01*
X037017Y005345D01*
X039767Y005345D01*
X039890Y005468D01*
X039890Y011392D01*
X039767Y011515D01*
X039452Y011830D01*
X039620Y011998D01*
X039620Y012362D01*
X039362Y012620D01*
X038998Y012620D01*
X038740Y012362D01*
X038740Y011998D01*
X038848Y011890D01*
X038767Y011890D01*
X038620Y012037D01*
X038620Y012362D01*
X038362Y012620D01*
X037998Y012620D01*
X037740Y012362D01*
X037740Y011998D01*
X037998Y011740D01*
X038323Y011740D01*
X038470Y011593D01*
X038593Y011470D01*
X038848Y011470D01*
X038740Y011362D01*
X038740Y011037D01*
X038593Y010890D01*
X038512Y010890D01*
X038620Y010998D01*
X038620Y011362D01*
X038362Y011620D01*
X037998Y011620D01*
X037768Y011390D01*
X036744Y011390D01*
X036796Y011442D01*
X036860Y011596D01*
X036860Y011764D01*
X036796Y011918D01*
X036678Y012036D01*
X036524Y012100D01*
X035836Y012100D01*
X035682Y012036D01*
X035564Y011918D01*
X035500Y011764D01*
X035500Y011596D01*
X035564Y011442D01*
X035616Y011390D01*
X033744Y011390D01*
X033796Y011442D01*
X033860Y011596D01*
X033860Y011764D01*
X033796Y011918D01*
X033678Y012036D01*
X033524Y012100D01*
X032836Y012100D01*
X032682Y012036D01*
X032564Y011918D01*
X032500Y011764D01*
X032500Y011596D01*
X032564Y011442D01*
X032616Y011390D01*
X032272Y011390D01*
X032276Y011393D01*
X032316Y011449D01*
X032348Y011511D01*
X032369Y011577D01*
X032380Y011645D01*
X032380Y011680D01*
X032380Y011715D01*
X032369Y011783D01*
X032348Y011849D01*
X032316Y011911D01*
X032276Y011967D01*
X032227Y012016D01*
X032171Y012056D01*
X032109Y012088D01*
X032043Y012109D01*
X031975Y012120D01*
X031680Y012120D01*
X031680Y011680D01*
X031680Y011680D01*
X032380Y011680D01*
X031680Y011680D01*
X031680Y011680D01*
X031680Y011680D01*
X030980Y011680D01*
X030980Y011715D01*
X030991Y011783D01*
X031012Y011849D01*
X031044Y011911D01*
X031084Y011967D01*
X031133Y012016D01*
X031189Y012056D01*
X031251Y012088D01*
X031317Y012109D01*
X031385Y012120D01*
X031680Y012120D01*
X031680Y011680D01*
X030980Y011680D01*
X030980Y011645D01*
X030991Y011577D01*
X031012Y011511D01*
X031044Y011449D01*
X031084Y011393D01*
X031088Y011390D01*
X028751Y011390D01*
X028790Y011483D01*
X028790Y011627D01*
X028735Y011759D01*
X028634Y011860D01*
X028502Y011915D01*
X028358Y011915D01*
X028226Y011860D01*
X028131Y011765D01*
X027751Y011765D01*
X027790Y011858D01*
X027790Y012002D01*
X027735Y012134D01*
X027634Y012235D01*
X027502Y012290D01*
X027358Y012290D01*
X027226Y012235D01*
X027131Y012140D01*
X026517Y012140D01*
X026255Y012402D01*
X026296Y012442D01*
X026360Y012596D01*
X026360Y012764D01*
X026296Y012918D01*
X026244Y012970D01*
X031116Y012970D01*
X031064Y012918D01*
X031000Y012764D01*
X031000Y012596D01*
X031064Y012442D01*
X031182Y012324D01*
X031336Y012260D01*
X032024Y012260D01*
X032178Y012324D01*
X032296Y012442D01*
X032360Y012596D01*
X032360Y012764D01*
X032296Y012918D01*
X032244Y012970D01*
X034326Y012970D01*
X034375Y012851D01*
X034476Y012750D01*
X034608Y012695D01*
X034740Y012695D01*
X034740Y012680D01*
X035180Y012680D01*
X035180Y012680D01*
X035180Y013120D01*
X035362Y013120D01*
X035620Y012862D01*
X035620Y012680D01*
X035180Y012680D01*
X035180Y012680D01*
X035180Y013120D01*
X035040Y013120D01*
X035040Y013127D01*
X034985Y013259D01*
X034949Y013295D01*
X035197Y013295D01*
X035760Y012732D01*
X035760Y012506D01*
X036006Y012260D01*
X036354Y012260D01*
X036600Y012506D01*
X036600Y012854D01*
X036354Y013100D01*
X036128Y013100D01*
X035452Y013775D01*
X035357Y013815D01*
X032339Y013815D01*
X032296Y013918D01*
X032178Y014036D01*
X032024Y014100D01*
X031336Y014100D01*
X031182Y014036D01*
X031064Y013918D01*
X031021Y013815D01*
X030804Y013815D01*
X030759Y013860D01*
X030627Y013915D01*
X030483Y013915D01*
X030351Y013860D01*
X030250Y013759D01*
X030195Y013627D01*
X030195Y013483D01*
X030234Y013390D01*
X027024Y013390D01*
X027110Y013476D01*
X027165Y013608D01*
X027165Y013752D01*
X027110Y013884D01*
X027009Y013985D01*
X026877Y014040D01*
X026733Y014040D01*
X026601Y013985D01*
X026506Y013890D01*
X026308Y013890D01*
X026296Y013918D01*
X026178Y014036D01*
X026024Y014100D01*
X025336Y014100D01*
X025182Y014036D01*
X025152Y014005D01*
X024437Y014720D01*
X025000Y014720D01*
X025000Y014596D01*
X025064Y014442D01*
X025182Y014324D01*
X025336Y014260D01*
X026024Y014260D01*
X026178Y014324D01*
X026296Y014442D01*
X026360Y014596D01*
X026360Y014764D01*
X026296Y014918D01*
X026244Y014970D01*
X031116Y014970D01*
X031064Y014918D01*
X031000Y014764D01*
X031000Y014596D01*
X031064Y014442D01*
X031182Y014324D01*
X031336Y014260D01*
X032024Y014260D01*
X032178Y014324D01*
X032296Y014442D01*
X032360Y014596D01*
X032360Y014764D01*
X032296Y014918D01*
X032244Y014970D01*
X032588Y014970D01*
X032584Y014967D01*
X032544Y014911D01*
X032512Y014849D01*
X032491Y014783D01*
X032480Y014715D01*
X032480Y014680D01*
X033180Y014680D01*
X033880Y014680D01*
X033880Y014715D01*
X033869Y014783D01*
X033848Y014849D01*
X033816Y014911D01*
X033776Y014967D01*
X033772Y014970D01*
X035616Y014970D01*
X035564Y014918D01*
X035500Y014764D01*
X035500Y014596D01*
X035564Y014442D01*
X035682Y014324D01*
X035836Y014260D01*
X036524Y014260D01*
X036678Y014324D01*
X036796Y014442D01*
X036860Y014596D01*
X036860Y014764D01*
X036796Y014918D01*
X036693Y015021D01*
X037017Y015345D01*
X037140Y015468D01*
X037140Y021892D01*
X037017Y022015D01*
X036642Y022390D01*
X036484Y022390D01*
X036600Y022506D01*
X036600Y022854D01*
X036354Y023100D01*
X036006Y023100D01*
X035760Y022854D01*
X035760Y022506D01*
X035876Y022390D01*
X035512Y022390D01*
X035620Y022498D01*
X035620Y022680D01*
X035620Y022862D01*
X035362Y023120D01*
X035180Y023120D01*
X035180Y022680D01*
X035180Y022680D01*
X035620Y022680D01*
X035180Y022680D01*
X035180Y022680D01*
X035180Y022680D01*
X034740Y022680D01*
X034740Y022862D01*
X034998Y023120D01*
X035180Y023120D01*
X035180Y022680D01*
X034740Y022680D01*
X034740Y022498D01*
X034848Y022390D01*
X033593Y022390D01*
X033470Y022267D01*
X033470Y022267D01*
X033303Y022100D01*
X032836Y022100D01*
X032682Y022036D01*
X032564Y021918D01*
X032500Y021764D01*
X032500Y021596D01*
X032564Y021442D01*
X032566Y021440D01*
X032014Y021440D01*
X031854Y021600D01*
X031506Y021600D01*
X031260Y021354D01*
X031260Y021006D01*
X031501Y020765D01*
X030887Y020765D01*
X031120Y020998D01*
X031120Y021180D01*
X031120Y021362D01*
X030862Y021620D01*
X030680Y021620D01*
X030680Y021180D01*
X030680Y021180D01*
X031120Y021180D01*
X030680Y021180D01*
X030680Y021180D01*
X030680Y021180D01*
X030240Y021180D01*
X030240Y021362D01*
X030498Y021620D01*
X030680Y021620D01*
X030680Y021180D01*
X030240Y021180D01*
X030240Y020998D01*
X030373Y020865D01*
X030252Y020915D01*
X030108Y020915D01*
X029976Y020860D01*
X029875Y020759D01*
X029820Y020627D01*
X029820Y020483D01*
X029859Y020390D01*
X029854Y020390D01*
X029759Y020485D01*
X029627Y020540D01*
X029483Y020540D01*
X029351Y020485D01*
X029250Y020384D01*
X029220Y020312D01*
X028392Y021140D01*
X014343Y021140D01*
X014220Y021017D01*
X014220Y021017D01*
X013958Y020755D01*
X013918Y020796D01*
X013764Y020860D01*
X013596Y020860D01*
X013442Y020796D01*
X013402Y020755D01*
X012767Y021390D01*
X002718Y021390D01*
X002595Y021267D01*
X001243Y019915D01*
X001108Y019915D01*
X001010Y019874D01*
X001010Y027900D01*
X041400Y027900D01*
X041400Y004180D01*
X032352Y004180D01*
X032661Y004277D02*
X041400Y004277D01*
X041400Y004435D02*
X032770Y004435D01*
X032790Y004594D02*
X041400Y004594D01*
X041400Y004752D02*
X036424Y004752D01*
X036582Y004911D02*
X041400Y004911D01*
X041400Y005069D02*
X036741Y005069D01*
X036899Y005228D02*
X041400Y005228D01*
X041400Y005386D02*
X039808Y005386D01*
X039890Y005545D02*
X041400Y005545D01*
X041400Y005703D02*
X039890Y005703D01*
X039890Y005862D02*
X041400Y005862D01*
X041400Y006020D02*
X039890Y006020D01*
X039890Y006179D02*
X041400Y006179D01*
X041400Y006337D02*
X039890Y006337D01*
X039890Y006496D02*
X041400Y006496D01*
X041400Y006654D02*
X039890Y006654D01*
X039890Y006813D02*
X041400Y006813D01*
X041400Y006971D02*
X039890Y006971D01*
X039890Y007130D02*
X041400Y007130D01*
X041400Y007288D02*
X039890Y007288D01*
X039890Y007447D02*
X041400Y007447D01*
X041400Y007605D02*
X039890Y007605D01*
X039890Y007764D02*
X041400Y007764D01*
X041400Y007922D02*
X039890Y007922D01*
X039890Y008081D02*
X041400Y008081D01*
X041400Y008239D02*
X039890Y008239D01*
X039890Y008398D02*
X041400Y008398D01*
X041400Y008556D02*
X039890Y008556D01*
X039890Y008715D02*
X041400Y008715D01*
X041400Y008873D02*
X039890Y008873D01*
X039890Y009032D02*
X041400Y009032D01*
X041400Y009190D02*
X039890Y009190D01*
X039890Y009349D02*
X041400Y009349D01*
X041400Y009507D02*
X039890Y009507D01*
X039890Y009666D02*
X041400Y009666D01*
X041400Y009824D02*
X039890Y009824D01*
X039890Y009983D02*
X041400Y009983D01*
X041400Y010141D02*
X039890Y010141D01*
X039890Y010300D02*
X041400Y010300D01*
X041400Y010458D02*
X039890Y010458D01*
X039890Y010617D02*
X041400Y010617D01*
X041400Y010775D02*
X039890Y010775D01*
X039890Y010934D02*
X041400Y010934D01*
X041400Y011092D02*
X039890Y011092D01*
X039890Y011251D02*
X041400Y011251D01*
X041400Y011409D02*
X039873Y011409D01*
X039714Y011568D02*
X041400Y011568D01*
X041400Y011726D02*
X039556Y011726D01*
X039507Y011885D02*
X041400Y011885D01*
X041400Y012043D02*
X039620Y012043D01*
X039620Y012202D02*
X041400Y012202D01*
X041400Y012360D02*
X039620Y012360D01*
X039464Y012519D02*
X041400Y012519D01*
X041400Y012677D02*
X036600Y012677D01*
X036600Y012519D02*
X037896Y012519D01*
X037740Y012360D02*
X036454Y012360D01*
X036661Y012043D02*
X037740Y012043D01*
X037740Y012202D02*
X027668Y012202D01*
X027773Y012043D02*
X031171Y012043D01*
X031030Y011885D02*
X028575Y011885D01*
X028749Y011726D02*
X030982Y011726D01*
X030994Y011568D02*
X028790Y011568D01*
X028759Y011409D02*
X031073Y011409D01*
X031680Y011726D02*
X031680Y011726D01*
X031680Y011885D02*
X031680Y011885D01*
X031680Y012043D02*
X031680Y012043D01*
X032189Y012043D02*
X032699Y012043D01*
X032550Y011885D02*
X032330Y011885D01*
X032378Y011726D02*
X032500Y011726D01*
X032512Y011568D02*
X032366Y011568D01*
X032287Y011409D02*
X032597Y011409D01*
X033763Y011409D02*
X035597Y011409D01*
X035512Y011568D02*
X033848Y011568D01*
X033860Y011726D02*
X035500Y011726D01*
X035550Y011885D02*
X033810Y011885D01*
X033661Y012043D02*
X035699Y012043D01*
X035906Y012360D02*
X035482Y012360D01*
X035362Y012240D02*
X035620Y012498D01*
X035620Y012680D01*
X035180Y012680D01*
X035180Y012240D01*
X035362Y012240D01*
X035180Y012240D02*
X035180Y012680D01*
X035180Y012680D01*
X035180Y012680D01*
X034740Y012680D01*
X034740Y012498D01*
X034998Y012240D01*
X035180Y012240D01*
X035180Y012360D02*
X035180Y012360D01*
X035180Y012519D02*
X035180Y012519D01*
X035180Y012677D02*
X035180Y012677D01*
X035180Y012836D02*
X035180Y012836D01*
X035180Y012994D02*
X035180Y012994D01*
X035029Y013153D02*
X035340Y013153D01*
X035488Y012994D02*
X035498Y012994D01*
X035620Y012836D02*
X035657Y012836D01*
X035620Y012677D02*
X035760Y012677D01*
X035760Y012519D02*
X035620Y012519D01*
X036460Y012994D02*
X041400Y012994D01*
X041400Y012836D02*
X036600Y012836D01*
X036075Y013153D02*
X041400Y013153D01*
X041400Y013311D02*
X035917Y013311D01*
X035758Y013470D02*
X041400Y013470D01*
X041400Y013628D02*
X038942Y013628D01*
X038833Y013599D02*
X039128Y013678D01*
X039392Y013831D01*
X039608Y014046D01*
X039761Y014311D01*
X039840Y014606D01*
X039840Y014911D01*
X039761Y015206D01*
X039608Y015471D01*
X039392Y015687D01*
X039128Y015840D01*
X038833Y015919D01*
X038527Y015919D01*
X038232Y015840D01*
X037968Y015687D01*
X037752Y015471D01*
X037599Y015206D01*
X037520Y014911D01*
X037520Y014606D01*
X037599Y014311D01*
X037752Y014046D01*
X037968Y013831D01*
X038232Y013678D01*
X038527Y013599D01*
X038833Y013599D01*
X038418Y013628D02*
X035600Y013628D01*
X035425Y013787D02*
X038044Y013787D01*
X037853Y013945D02*
X032269Y013945D01*
X032028Y014262D02*
X032783Y014262D01*
X032751Y014272D02*
X032817Y014251D01*
X032885Y014240D01*
X033180Y014240D01*
X033475Y014240D01*
X033543Y014251D01*
X033609Y014272D01*
X033671Y014304D01*
X033727Y014344D01*
X033776Y014393D01*
X033816Y014449D01*
X033848Y014511D01*
X033869Y014577D01*
X033880Y014645D01*
X033880Y014680D01*
X033180Y014680D01*
X033180Y014680D01*
X033180Y014240D01*
X033180Y014680D01*
X033180Y014680D01*
X033180Y014680D01*
X032480Y014680D01*
X032480Y014645D01*
X032491Y014577D01*
X032512Y014511D01*
X032544Y014449D01*
X032584Y014393D01*
X032633Y014344D01*
X032689Y014304D01*
X032751Y014272D01*
X032565Y014421D02*
X032274Y014421D01*
X032353Y014579D02*
X032491Y014579D01*
X032484Y014738D02*
X032360Y014738D01*
X032305Y014896D02*
X032536Y014896D01*
X033180Y014579D02*
X033180Y014579D01*
X033180Y014421D02*
X033180Y014421D01*
X033180Y014262D02*
X033180Y014262D01*
X033577Y014262D02*
X035832Y014262D01*
X035586Y014421D02*
X033795Y014421D01*
X033869Y014579D02*
X035507Y014579D01*
X035500Y014738D02*
X033876Y014738D01*
X033824Y014896D02*
X035555Y014896D01*
X036528Y014262D02*
X037627Y014262D01*
X037570Y014421D02*
X036774Y014421D01*
X036853Y014579D02*
X037527Y014579D01*
X037520Y014738D02*
X036860Y014738D01*
X036805Y014896D02*
X037520Y014896D01*
X037558Y015055D02*
X036727Y015055D01*
X036885Y015213D02*
X037603Y015213D01*
X037694Y015372D02*
X037044Y015372D01*
X037140Y015530D02*
X037811Y015530D01*
X037970Y015689D02*
X037140Y015689D01*
X037140Y015847D02*
X038260Y015847D01*
X039100Y015847D02*
X041400Y015847D01*
X041400Y015689D02*
X039390Y015689D01*
X039549Y015530D02*
X041400Y015530D01*
X041400Y015372D02*
X039666Y015372D01*
X039757Y015213D02*
X041400Y015213D01*
X041400Y015055D02*
X039802Y015055D01*
X039840Y014896D02*
X041400Y014896D01*
X041400Y014738D02*
X039840Y014738D01*
X039833Y014579D02*
X041400Y014579D01*
X041400Y014421D02*
X039790Y014421D01*
X039733Y014262D02*
X041400Y014262D01*
X041400Y014104D02*
X039641Y014104D01*
X039507Y013945D02*
X041400Y013945D01*
X041400Y013787D02*
X039316Y013787D01*
X038896Y012519D02*
X038464Y012519D01*
X038620Y012360D02*
X038740Y012360D01*
X038740Y012202D02*
X038620Y012202D01*
X038620Y012043D02*
X038740Y012043D01*
X038337Y011726D02*
X036860Y011726D01*
X036848Y011568D02*
X037945Y011568D01*
X037787Y011409D02*
X036763Y011409D01*
X036810Y011885D02*
X037853Y011885D01*
X038415Y011568D02*
X038495Y011568D01*
X038573Y011409D02*
X038787Y011409D01*
X038740Y011251D02*
X038620Y011251D01*
X038620Y011092D02*
X038740Y011092D01*
X038637Y010934D02*
X038556Y010934D01*
X037908Y010830D02*
X037845Y010767D01*
X037468Y010390D01*
X036772Y010390D01*
X036776Y010393D01*
X036816Y010449D01*
X036848Y010511D01*
X036869Y010577D01*
X036880Y010645D01*
X036880Y010680D01*
X036880Y010715D01*
X036869Y010783D01*
X036848Y010849D01*
X036816Y010911D01*
X036776Y010967D01*
X036772Y010970D01*
X037768Y010970D01*
X037908Y010830D01*
X037853Y010775D02*
X036870Y010775D01*
X036880Y010680D02*
X036180Y010680D01*
X036180Y010680D01*
X036880Y010680D01*
X036875Y010617D02*
X037695Y010617D01*
X037536Y010458D02*
X036821Y010458D01*
X036180Y010680D02*
X035480Y010680D01*
X036180Y010680D01*
X036180Y010680D01*
X035588Y010390D02*
X034593Y010390D01*
X034470Y010267D01*
X034368Y010165D01*
X034233Y010165D01*
X034101Y010110D01*
X034000Y010009D01*
X033945Y009877D01*
X033945Y009733D01*
X034000Y009601D01*
X034101Y009500D01*
X034233Y009445D01*
X034377Y009445D01*
X034509Y009500D01*
X034610Y009601D01*
X034665Y009733D01*
X034665Y009868D01*
X034767Y009970D01*
X035616Y009970D01*
X035564Y009918D01*
X035500Y009764D01*
X035500Y009596D01*
X035564Y009442D01*
X035616Y009390D01*
X033744Y009390D01*
X033796Y009442D01*
X033860Y009596D01*
X033860Y009764D01*
X033796Y009918D01*
X033678Y010036D01*
X033524Y010100D01*
X032836Y010100D01*
X032682Y010036D01*
X032564Y009918D01*
X032500Y009764D01*
X032500Y009596D01*
X032564Y009442D01*
X032667Y009339D01*
X032640Y009312D01*
X032610Y009384D01*
X032509Y009485D01*
X032377Y009540D01*
X032337Y009540D01*
X032360Y009596D01*
X032360Y009764D01*
X032296Y009918D01*
X032255Y009958D01*
X032652Y010355D01*
X032682Y010324D01*
X032836Y010260D01*
X033524Y010260D01*
X033678Y010324D01*
X033796Y010442D01*
X033860Y010596D01*
X033860Y010764D01*
X033796Y010918D01*
X033744Y010970D01*
X035588Y010970D01*
X035584Y010967D01*
X035544Y010911D01*
X035512Y010849D01*
X035491Y010783D01*
X035480Y010715D01*
X035480Y010680D01*
X035480Y010645D01*
X035491Y010577D01*
X035512Y010511D01*
X035544Y010449D01*
X035584Y010393D01*
X035588Y010390D01*
X035539Y010458D02*
X033803Y010458D01*
X033860Y010617D02*
X035485Y010617D01*
X035490Y010775D02*
X033855Y010775D01*
X033780Y010934D02*
X035560Y010934D01*
X034503Y010300D02*
X033619Y010300D01*
X033731Y009983D02*
X033989Y009983D01*
X033945Y009824D02*
X033835Y009824D01*
X033860Y009666D02*
X033973Y009666D01*
X034094Y009507D02*
X033823Y009507D01*
X034516Y009507D02*
X035537Y009507D01*
X035500Y009666D02*
X034637Y009666D01*
X034665Y009824D02*
X035525Y009824D01*
X035588Y008970D02*
X035584Y008967D01*
X035544Y008911D01*
X035512Y008849D01*
X035491Y008783D01*
X035480Y008715D01*
X035480Y008680D01*
X036180Y008680D01*
X036880Y008680D01*
X036880Y008715D01*
X036869Y008783D01*
X036848Y008849D01*
X036816Y008911D01*
X036776Y008967D01*
X036772Y008970D01*
X037768Y008970D01*
X037998Y008740D01*
X038362Y008740D01*
X038470Y008848D01*
X038470Y008512D01*
X038362Y008620D01*
X037998Y008620D01*
X037768Y008390D01*
X036772Y008390D01*
X036776Y008393D01*
X036816Y008449D01*
X036848Y008511D01*
X036869Y008577D01*
X036880Y008645D01*
X036880Y008680D01*
X036180Y008680D01*
X036180Y008680D01*
X036180Y008680D01*
X035480Y008680D01*
X035480Y008645D01*
X035491Y008577D01*
X035512Y008511D01*
X035544Y008449D01*
X035584Y008393D01*
X035588Y008390D01*
X033744Y008390D01*
X033796Y008442D01*
X033860Y008596D01*
X033860Y008764D01*
X033796Y008918D01*
X033744Y008970D01*
X035588Y008970D01*
X035525Y008873D02*
X033815Y008873D01*
X033860Y008715D02*
X035480Y008715D01*
X035498Y008556D02*
X033843Y008556D01*
X033751Y008398D02*
X035581Y008398D01*
X036779Y008398D02*
X037775Y008398D01*
X037934Y008556D02*
X036862Y008556D01*
X036880Y008715D02*
X038470Y008715D01*
X038470Y008556D02*
X038426Y008556D01*
X037865Y008873D02*
X036835Y008873D01*
X034175Y010141D02*
X032438Y010141D01*
X032279Y009983D02*
X032629Y009983D01*
X032525Y009824D02*
X032335Y009824D01*
X032360Y009666D02*
X032500Y009666D01*
X032537Y009507D02*
X032456Y009507D01*
X032625Y009349D02*
X032658Y009349D01*
X031680Y008680D02*
X031680Y008680D01*
X030980Y008680D01*
X030980Y008715D01*
X030991Y008783D01*
X031012Y008849D01*
X031044Y008911D01*
X031084Y008967D01*
X031088Y008970D01*
X026272Y008970D01*
X026276Y008967D01*
X026316Y008911D01*
X026348Y008849D01*
X026369Y008783D01*
X026380Y008715D01*
X026380Y008680D01*
X025680Y008680D01*
X025680Y008680D01*
X025680Y008680D01*
X025680Y009120D01*
X025943Y009120D01*
X025803Y009260D01*
X025336Y009260D01*
X025182Y009324D01*
X025064Y009442D01*
X025000Y009596D01*
X025000Y009764D01*
X025064Y009918D01*
X025182Y010036D01*
X025336Y010100D01*
X025963Y010100D01*
X025803Y010260D01*
X025336Y010260D01*
X025182Y010324D01*
X025064Y010442D01*
X025000Y010596D01*
X025000Y010764D01*
X025064Y010918D01*
X025116Y010970D01*
X023642Y010970D01*
X023015Y010343D01*
X022892Y010220D01*
X022312Y010220D01*
X022390Y010142D01*
X022390Y009308D01*
X022418Y009296D01*
X022536Y009178D01*
X022600Y009024D01*
X022600Y008412D01*
X022608Y008415D01*
X022740Y008415D01*
X022740Y008680D01*
X023180Y008680D01*
X023180Y008680D01*
X023180Y009380D01*
X023215Y009380D01*
X023283Y009369D01*
X023349Y009348D01*
X023411Y009316D01*
X023467Y009276D01*
X023516Y009227D01*
X023556Y009171D01*
X023588Y009109D01*
X023609Y009043D01*
X023620Y008975D01*
X023620Y008680D01*
X023180Y008680D01*
X023180Y008680D01*
X023180Y008680D01*
X023180Y009380D01*
X023145Y009380D01*
X023077Y009369D01*
X023011Y009348D01*
X022949Y009316D01*
X022893Y009276D01*
X022844Y009227D01*
X022804Y009171D01*
X022772Y009109D01*
X022751Y009043D01*
X022740Y008975D01*
X022740Y008680D01*
X023180Y008680D01*
X023620Y008680D01*
X023620Y008385D01*
X023609Y008317D01*
X023588Y008251D01*
X023556Y008189D01*
X023520Y008140D01*
X029570Y008140D01*
X029570Y008252D01*
X029625Y008384D01*
X029726Y008485D01*
X029858Y008540D01*
X030002Y008540D01*
X030134Y008485D01*
X030235Y008384D01*
X030265Y008312D01*
X030343Y008390D01*
X031088Y008390D01*
X031084Y008393D01*
X031044Y008449D01*
X031012Y008511D01*
X030991Y008577D01*
X030980Y008645D01*
X030980Y008680D01*
X031680Y008680D01*
X031081Y008398D02*
X030222Y008398D01*
X030998Y008556D02*
X026362Y008556D01*
X026369Y008577D02*
X026380Y008645D01*
X026380Y008680D01*
X025680Y008680D01*
X025680Y008240D01*
X025975Y008240D01*
X026043Y008251D01*
X026109Y008272D01*
X026171Y008304D01*
X026227Y008344D01*
X026276Y008393D01*
X026316Y008449D01*
X026348Y008511D01*
X026369Y008577D01*
X026380Y008715D02*
X030980Y008715D01*
X031025Y008873D02*
X026335Y008873D01*
X025873Y009190D02*
X023542Y009190D01*
X023611Y009032D02*
X025155Y009032D01*
X025133Y009016D02*
X025084Y008967D01*
X025044Y008911D01*
X025012Y008849D01*
X024991Y008783D01*
X024980Y008715D01*
X024980Y008680D01*
X025680Y008680D01*
X025680Y008680D01*
X025680Y008680D01*
X025680Y009120D01*
X025385Y009120D01*
X025317Y009109D01*
X025251Y009088D01*
X025189Y009056D01*
X025133Y009016D01*
X025025Y008873D02*
X023620Y008873D01*
X023620Y008715D02*
X024980Y008715D01*
X024980Y008680D02*
X024980Y008645D01*
X024991Y008577D01*
X025012Y008511D01*
X025044Y008449D01*
X025084Y008393D01*
X025133Y008344D01*
X025189Y008304D01*
X025251Y008272D01*
X025317Y008251D01*
X025385Y008240D01*
X025680Y008240D01*
X025680Y008680D01*
X024980Y008680D01*
X024998Y008556D02*
X023620Y008556D01*
X023620Y008398D02*
X025081Y008398D01*
X025680Y008398D02*
X025680Y008398D01*
X025680Y008556D02*
X025680Y008556D01*
X025680Y008715D02*
X025680Y008715D01*
X025680Y008873D02*
X025680Y008873D01*
X025680Y009032D02*
X025680Y009032D01*
X025158Y009349D02*
X023347Y009349D01*
X023180Y009349D02*
X023180Y009349D01*
X023180Y009190D02*
X023180Y009190D01*
X023180Y009032D02*
X023180Y009032D01*
X023180Y008873D02*
X023180Y008873D01*
X023180Y008715D02*
X023180Y008715D01*
X022740Y008715D02*
X022600Y008715D01*
X022600Y008873D02*
X022740Y008873D01*
X022749Y009032D02*
X022597Y009032D01*
X022524Y009190D02*
X022818Y009190D01*
X023013Y009349D02*
X022390Y009349D01*
X022390Y009507D02*
X025037Y009507D01*
X025000Y009666D02*
X022390Y009666D01*
X022390Y009824D02*
X025025Y009824D01*
X025129Y009983D02*
X022390Y009983D01*
X022390Y010141D02*
X025922Y010141D01*
X025241Y010300D02*
X022972Y010300D01*
X023130Y010458D02*
X025057Y010458D01*
X025000Y010617D02*
X023289Y010617D01*
X023447Y010775D02*
X025005Y010775D01*
X025080Y010934D02*
X023606Y010934D01*
X023083Y011005D02*
X022718Y010640D01*
X014593Y010640D01*
X014093Y010140D01*
X012729Y010140D01*
X012634Y010235D01*
X012502Y010290D01*
X012358Y010290D01*
X012226Y010235D01*
X012125Y010134D01*
X012070Y010002D01*
X012070Y009915D01*
X011983Y009915D01*
X011851Y009860D01*
X011750Y009759D01*
X011695Y009627D01*
X011695Y009483D01*
X011739Y009376D01*
X011715Y009380D01*
X011680Y009380D01*
X011680Y008680D01*
X012120Y008680D01*
X012120Y008975D01*
X012109Y009043D01*
X012088Y009109D01*
X012056Y009171D01*
X012039Y009195D01*
X012127Y009195D01*
X012259Y009250D01*
X012354Y009345D01*
X014006Y009345D01*
X013949Y009316D01*
X013893Y009276D01*
X013844Y009227D01*
X013804Y009171D01*
X013772Y009109D01*
X013751Y009043D01*
X013740Y008975D01*
X013740Y008680D01*
X014180Y008680D01*
X014620Y008680D01*
X014620Y008975D01*
X014609Y009043D01*
X014588Y009109D01*
X014556Y009171D01*
X014516Y009227D01*
X014467Y009276D01*
X014411Y009316D01*
X014354Y009345D01*
X015060Y009345D01*
X014942Y009296D01*
X014824Y009178D01*
X014760Y009024D01*
X014760Y008336D01*
X014824Y008182D01*
X014866Y008140D01*
X014520Y008140D01*
X014556Y008189D01*
X014588Y008251D01*
X014609Y008317D01*
X014620Y008385D01*
X014620Y008680D01*
X014180Y008680D01*
X014180Y008680D01*
X014180Y008680D01*
X013740Y008680D01*
X013740Y008385D01*
X013751Y008317D01*
X013772Y008251D01*
X013804Y008189D01*
X013840Y008140D01*
X013468Y008140D01*
X013390Y008062D01*
X013360Y008134D01*
X013259Y008235D01*
X013127Y008290D01*
X012983Y008290D01*
X012851Y008235D01*
X012756Y008140D01*
X012020Y008140D01*
X012056Y008189D01*
X012088Y008251D01*
X012109Y008317D01*
X012120Y008385D01*
X012120Y008680D01*
X011680Y008680D01*
X011680Y008680D01*
X011680Y008680D01*
X011680Y008680D01*
X011240Y008680D01*
X011240Y008975D01*
X011251Y009043D01*
X011272Y009109D01*
X011304Y009171D01*
X011344Y009227D01*
X011393Y009276D01*
X011449Y009316D01*
X011511Y009348D01*
X011577Y009369D01*
X011645Y009380D01*
X011680Y009380D01*
X011680Y008680D01*
X011240Y008680D01*
X011240Y008417D01*
X011100Y008557D01*
X011100Y009024D01*
X011036Y009178D01*
X010918Y009296D01*
X010764Y009360D01*
X010596Y009360D01*
X010442Y009296D01*
X010324Y009178D01*
X010260Y009024D01*
X010260Y008336D01*
X010324Y008182D01*
X010442Y008064D01*
X010596Y008000D01*
X010764Y008000D01*
X010918Y008064D01*
X010958Y008105D01*
X011173Y007890D01*
X011101Y007860D01*
X011000Y007759D01*
X010945Y007627D01*
X010945Y007483D01*
X010984Y007390D01*
X010534Y007390D01*
X010485Y007509D01*
X010384Y007610D01*
X010252Y007665D01*
X010108Y007665D01*
X009976Y007610D01*
X009875Y007509D01*
X009820Y007377D01*
X009820Y007233D01*
X009859Y007140D01*
X008604Y007140D01*
X008509Y007235D01*
X008492Y007242D01*
X008540Y007358D01*
X008540Y007502D01*
X008485Y007634D01*
X008384Y007735D01*
X008252Y007790D01*
X008108Y007790D01*
X007976Y007735D01*
X007875Y007634D01*
X007845Y007562D01*
X007767Y007640D01*
X005604Y007640D01*
X005509Y007735D01*
X005377Y007790D01*
X005233Y007790D01*
X005101Y007735D01*
X005000Y007634D01*
X004945Y007502D01*
X004945Y007358D01*
X005000Y007226D01*
X005101Y007125D01*
X005233Y007070D01*
X005377Y007070D01*
X005509Y007125D01*
X005604Y007220D01*
X006734Y007220D01*
X006695Y007127D01*
X006695Y006992D01*
X006593Y006890D01*
X006093Y006890D01*
X005843Y006640D01*
X005489Y006640D01*
X005378Y006529D01*
X004540Y007367D01*
X004540Y007502D01*
X004485Y007634D01*
X004384Y007735D01*
X004252Y007790D01*
X004108Y007790D01*
X003976Y007735D01*
X003875Y007634D01*
X003820Y007502D01*
X003820Y007358D01*
X003875Y007226D01*
X003976Y007125D01*
X004108Y007070D01*
X004243Y007070D01*
X004673Y006640D01*
X004489Y006640D01*
X004220Y006371D01*
X004220Y005989D01*
X004489Y005720D01*
X004871Y005720D01*
X005140Y005989D01*
X005140Y006173D01*
X005220Y006093D01*
X005220Y005989D01*
X005489Y005720D01*
X005826Y005720D01*
X005859Y005640D01*
X005489Y005640D01*
X005220Y005371D01*
X005220Y004989D01*
X005470Y004739D01*
X005470Y004180D01*
X004890Y004180D01*
X004890Y004739D01*
X005140Y004989D01*
X005140Y005371D01*
X004871Y005640D01*
X004489Y005640D01*
X004220Y005371D01*
X004220Y004989D01*
X004470Y004739D01*
X004470Y004180D01*
X003940Y004180D01*
X003940Y004789D01*
X004140Y004989D01*
X004140Y005371D01*
X003871Y005640D01*
X003588Y005640D01*
X003508Y005720D01*
X003871Y005720D01*
X004140Y005989D01*
X004140Y006371D01*
X003871Y006640D01*
X003489Y006640D01*
X003440Y006591D01*
X003440Y007181D01*
X003485Y007226D01*
X003540Y007358D01*
X003540Y007502D01*
X003485Y007634D01*
X003384Y007735D01*
X003252Y007790D01*
X003108Y007790D01*
X002976Y007735D01*
X002875Y007634D01*
X002820Y007502D01*
X002820Y007358D01*
X002875Y007226D01*
X002920Y007181D01*
X002920Y006591D01*
X002871Y006640D01*
X002489Y006640D01*
X002220Y006371D01*
X002220Y005989D01*
X002489Y005720D01*
X002871Y005720D01*
X002920Y005769D01*
X002920Y005628D01*
X002947Y005564D01*
X002871Y005640D01*
X002489Y005640D01*
X002220Y005371D01*
X002220Y004989D01*
X002470Y004739D01*
X002470Y004180D01*
X001010Y004180D01*
X001010Y011053D01*
X001093Y010970D01*
X001348Y010970D01*
X001240Y010862D01*
X001240Y010680D01*
X001680Y010680D01*
X001680Y010240D01*
X001862Y010240D01*
X002049Y010427D01*
X002101Y010375D01*
X002233Y010320D01*
X002377Y010320D01*
X002509Y010375D01*
X002610Y010476D01*
X002665Y010608D01*
X002665Y010752D01*
X002610Y010884D01*
X002509Y010985D01*
X002377Y011040D01*
X002242Y011040D01*
X001938Y011344D01*
X002014Y011420D01*
X002260Y011420D01*
X002260Y011336D01*
X002324Y011182D01*
X002442Y011064D01*
X002596Y011000D01*
X002764Y011000D01*
X002918Y011064D01*
X002970Y011116D01*
X002970Y009244D01*
X002918Y009296D01*
X002764Y009360D01*
X002596Y009360D01*
X002442Y009296D01*
X002324Y009178D01*
X002260Y009024D01*
X002260Y008336D01*
X002324Y008182D01*
X002442Y008064D01*
X002596Y008000D01*
X002764Y008000D01*
X002918Y008064D01*
X003036Y008182D01*
X003100Y008336D01*
X003100Y008470D01*
X003260Y008470D01*
X003260Y008336D01*
X003324Y008182D01*
X003442Y008064D01*
X003596Y008000D01*
X003764Y008000D01*
X003918Y008064D01*
X004036Y008182D01*
X004100Y008336D01*
X004100Y009024D01*
X004036Y009178D01*
X003918Y009296D01*
X003764Y009360D01*
X003596Y009360D01*
X003442Y009296D01*
X003390Y009244D01*
X003390Y011116D01*
X003442Y011064D01*
X003596Y011000D01*
X003637Y011000D01*
X003601Y010985D01*
X003500Y010884D01*
X003445Y010752D01*
X003445Y010608D01*
X003500Y010476D01*
X003601Y010375D01*
X003733Y010320D01*
X003868Y010320D01*
X004470Y009718D01*
X004593Y009595D01*
X004881Y009595D01*
X004921Y009555D01*
X004875Y009509D01*
X004820Y009377D01*
X004820Y009337D01*
X004764Y009360D01*
X004596Y009360D01*
X004442Y009296D01*
X004324Y009178D01*
X004260Y009024D01*
X004260Y008336D01*
X004324Y008182D01*
X004442Y008064D01*
X004596Y008000D01*
X004764Y008000D01*
X004918Y008064D01*
X005036Y008182D01*
X005100Y008336D01*
X005100Y008948D01*
X005108Y008945D01*
X005252Y008945D01*
X005260Y008948D01*
X005260Y008336D01*
X005324Y008182D01*
X005442Y008064D01*
X005596Y008000D01*
X005764Y008000D01*
X005918Y008064D01*
X006036Y008182D01*
X006100Y008336D01*
X006100Y009024D01*
X006036Y009178D01*
X005918Y009296D01*
X005764Y009360D01*
X005596Y009360D01*
X005540Y009337D01*
X005540Y009368D01*
X005949Y009777D01*
X005976Y009750D01*
X006108Y009695D01*
X006252Y009695D01*
X006384Y009750D01*
X006485Y009851D01*
X006540Y009983D01*
X006540Y010127D01*
X006485Y010259D01*
X006439Y010305D01*
X006479Y010345D01*
X007381Y010345D01*
X007464Y010261D01*
X007345Y010142D01*
X007243Y010040D01*
X007108Y010040D01*
X006976Y009985D01*
X006875Y009884D01*
X006820Y009752D01*
X006820Y009608D01*
X006875Y009476D01*
X006976Y009375D01*
X007048Y009345D01*
X006958Y009255D01*
X006918Y009296D01*
X006764Y009360D01*
X006596Y009360D01*
X006442Y009296D01*
X006324Y009178D01*
X006260Y009024D01*
X006260Y008336D01*
X006324Y008182D01*
X006442Y008064D01*
X006596Y008000D01*
X006764Y008000D01*
X006918Y008064D01*
X007036Y008182D01*
X007100Y008336D01*
X007100Y008803D01*
X007260Y008963D01*
X007260Y008336D01*
X007324Y008182D01*
X007442Y008064D01*
X007596Y008000D01*
X007764Y008000D01*
X007918Y008064D01*
X008036Y008182D01*
X008100Y008336D01*
X008100Y009024D01*
X008036Y009178D01*
X007918Y009296D01*
X007764Y009360D01*
X007657Y009360D01*
X007761Y009464D01*
X007851Y009375D01*
X007983Y009320D01*
X008127Y009320D01*
X008259Y009375D01*
X008360Y009476D01*
X008415Y009608D01*
X008415Y009648D01*
X008703Y009360D01*
X008596Y009360D01*
X008442Y009296D01*
X008324Y009178D01*
X008260Y009024D01*
X008260Y008336D01*
X008324Y008182D01*
X008442Y008064D01*
X008596Y008000D01*
X008764Y008000D01*
X008918Y008064D01*
X009036Y008182D01*
X009100Y008336D01*
X009100Y008963D01*
X009260Y008803D01*
X009260Y008336D01*
X009324Y008182D01*
X009442Y008064D01*
X009596Y008000D01*
X009764Y008000D01*
X009918Y008064D01*
X010036Y008182D01*
X010100Y008336D01*
X010100Y009024D01*
X010036Y009178D01*
X009918Y009296D01*
X009764Y009360D01*
X009596Y009360D01*
X009442Y009296D01*
X009402Y009255D01*
X008392Y010265D01*
X007899Y010265D01*
X007985Y010351D01*
X008040Y010483D01*
X008040Y010627D01*
X008001Y010720D01*
X011892Y010720D01*
X012460Y011288D01*
X012445Y011252D01*
X012445Y011108D01*
X012500Y010976D01*
X012601Y010875D01*
X012733Y010820D01*
X012740Y010820D01*
X012740Y010680D01*
X013180Y010680D01*
X013620Y010680D01*
X013620Y010862D01*
X013512Y010970D01*
X013593Y010970D01*
X013695Y010868D01*
X013695Y010733D01*
X013750Y010601D01*
X013851Y010500D01*
X013983Y010445D01*
X014127Y010445D01*
X014259Y010500D01*
X014360Y010601D01*
X014415Y010733D01*
X014415Y010877D01*
X014360Y011009D01*
X014338Y011031D01*
X014418Y011064D01*
X014536Y011182D01*
X014600Y011336D01*
X014600Y011470D01*
X014760Y011470D01*
X014760Y011336D01*
X014824Y011182D01*
X014942Y011064D01*
X015096Y011000D01*
X015264Y011000D01*
X015418Y011064D01*
X015536Y011182D01*
X015600Y011336D01*
X015600Y011963D01*
X015760Y011803D01*
X015760Y011336D01*
X015824Y011182D01*
X015942Y011064D01*
X016096Y011000D01*
X016264Y011000D01*
X016418Y011064D01*
X016536Y011182D01*
X016600Y011336D01*
X016600Y012024D01*
X016536Y012178D01*
X016418Y012296D01*
X016264Y012360D01*
X016096Y012360D01*
X015942Y012296D01*
X015902Y012255D01*
X015505Y012652D01*
X015536Y012682D01*
X015600Y012836D01*
X015600Y013524D01*
X015536Y013678D01*
X015534Y013680D01*
X015536Y013682D01*
X015600Y013836D01*
X015600Y014524D01*
X015536Y014678D01*
X015494Y014720D01*
X015866Y014720D01*
X015824Y014678D01*
X015760Y014524D01*
X015760Y013836D01*
X015824Y013682D01*
X015826Y013680D01*
X015824Y013678D01*
X015760Y013524D01*
X015760Y012836D01*
X015824Y012682D01*
X015942Y012564D01*
X016096Y012500D01*
X016264Y012500D01*
X016418Y012564D01*
X016458Y012605D01*
X016841Y012222D01*
X016804Y012171D01*
X016772Y012109D01*
X016751Y012043D01*
X016592Y012043D01*
X016600Y011885D02*
X016740Y011885D01*
X016740Y011975D02*
X016740Y011680D01*
X017180Y011680D01*
X017620Y011680D01*
X017620Y011943D01*
X017760Y011803D01*
X017760Y011336D01*
X017824Y011182D01*
X017942Y011064D01*
X018096Y011000D01*
X018264Y011000D01*
X018418Y011064D01*
X018521Y011167D01*
X018593Y011095D01*
X018968Y010720D01*
X020517Y010720D01*
X020640Y010843D01*
X020902Y011105D01*
X020942Y011064D01*
X021096Y011000D01*
X021264Y011000D01*
X021418Y011064D01*
X021536Y011182D01*
X021600Y011336D01*
X021600Y011963D01*
X021760Y011803D01*
X021760Y011336D01*
X021824Y011182D01*
X021942Y011064D01*
X022096Y011000D01*
X022264Y011000D01*
X022418Y011064D01*
X022536Y011182D01*
X022600Y011336D01*
X022600Y012024D01*
X022536Y012178D01*
X022418Y012296D01*
X022264Y012360D01*
X022096Y012360D01*
X021942Y012296D01*
X021902Y012255D01*
X021640Y012517D01*
X021517Y012640D01*
X021494Y012640D01*
X021536Y012682D01*
X021600Y012836D01*
X021600Y013524D01*
X021536Y013678D01*
X021534Y013680D01*
X021536Y013682D01*
X021600Y013836D01*
X021600Y014524D01*
X021536Y014678D01*
X021494Y014720D01*
X021866Y014720D01*
X021824Y014678D01*
X021760Y014524D01*
X021760Y013836D01*
X021824Y013682D01*
X021826Y013680D01*
X021824Y013678D01*
X021760Y013524D01*
X021760Y012836D01*
X021824Y012682D01*
X021942Y012564D01*
X022096Y012500D01*
X022264Y012500D01*
X022418Y012564D01*
X022536Y012682D01*
X022600Y012836D01*
X022600Y013524D01*
X022536Y013678D01*
X022534Y013680D01*
X022536Y013682D01*
X022600Y013836D01*
X022600Y014338D01*
X023071Y013867D01*
X023011Y013848D01*
X022949Y013816D01*
X022893Y013776D01*
X022844Y013727D01*
X022804Y013671D01*
X022772Y013609D01*
X022751Y013543D01*
X022740Y013475D01*
X022740Y013180D01*
X023180Y013180D01*
X023620Y013180D01*
X023620Y013318D01*
X023968Y012970D01*
X025116Y012970D01*
X025064Y012918D01*
X025000Y012764D01*
X025000Y012596D01*
X025064Y012442D01*
X025182Y012324D01*
X025336Y012260D01*
X025803Y012260D01*
X025963Y012100D01*
X025336Y012100D01*
X025182Y012036D01*
X025064Y011918D01*
X025000Y011764D01*
X025000Y011596D01*
X025064Y011442D01*
X025116Y011390D01*
X023600Y011390D01*
X023600Y012024D01*
X023536Y012178D01*
X023418Y012296D01*
X023264Y012360D01*
X023096Y012360D01*
X022942Y012296D01*
X022824Y012178D01*
X022760Y012024D01*
X022760Y011336D01*
X022824Y011182D01*
X022942Y011064D01*
X023083Y011005D01*
X023012Y010934D02*
X020731Y010934D01*
X020889Y011092D02*
X020914Y011092D01*
X021446Y011092D02*
X021914Y011092D01*
X021796Y011251D02*
X021564Y011251D01*
X021600Y011409D02*
X021760Y011409D01*
X021760Y011568D02*
X021600Y011568D01*
X021600Y011726D02*
X021760Y011726D01*
X021678Y011885D02*
X021600Y011885D01*
X021797Y012360D02*
X025146Y012360D01*
X025032Y012519D02*
X023361Y012519D01*
X023349Y012512D02*
X023411Y012544D01*
X023467Y012584D01*
X023516Y012633D01*
X023556Y012689D01*
X023588Y012751D01*
X023609Y012817D01*
X023620Y012885D01*
X023620Y013180D01*
X023180Y013180D01*
X023180Y013180D01*
X023180Y012480D01*
X023215Y012480D01*
X023283Y012491D01*
X023349Y012512D01*
X023180Y012519D02*
X023180Y012519D01*
X023180Y012480D02*
X023180Y013180D01*
X023180Y013180D01*
X023180Y013180D01*
X022740Y013180D01*
X022740Y012885D01*
X022751Y012817D01*
X022772Y012751D01*
X022804Y012689D01*
X022844Y012633D01*
X022893Y012584D01*
X022949Y012544D01*
X023011Y012512D01*
X023077Y012491D01*
X023145Y012480D01*
X023180Y012480D01*
X022999Y012519D02*
X022308Y012519D01*
X022052Y012519D02*
X021638Y012519D01*
X021531Y012677D02*
X021829Y012677D01*
X021760Y012836D02*
X021600Y012836D01*
X021600Y012994D02*
X021760Y012994D01*
X021760Y013153D02*
X021600Y013153D01*
X021600Y013311D02*
X021760Y013311D01*
X021760Y013470D02*
X021600Y013470D01*
X021557Y013628D02*
X021803Y013628D01*
X021781Y013787D02*
X021579Y013787D01*
X021600Y013945D02*
X021760Y013945D01*
X021760Y014104D02*
X021600Y014104D01*
X021600Y014262D02*
X021760Y014262D01*
X021760Y014421D02*
X021600Y014421D01*
X021577Y014579D02*
X021783Y014579D01*
X022600Y014262D02*
X022676Y014262D01*
X022600Y014104D02*
X022834Y014104D01*
X022993Y013945D02*
X022600Y013945D01*
X022579Y013787D02*
X022908Y013787D01*
X022782Y013628D02*
X022557Y013628D01*
X022600Y013470D02*
X022740Y013470D01*
X022740Y013311D02*
X022600Y013311D01*
X022600Y013153D02*
X022740Y013153D01*
X022740Y012994D02*
X022600Y012994D01*
X022600Y012836D02*
X022748Y012836D01*
X022813Y012677D02*
X022531Y012677D01*
X022512Y012202D02*
X022848Y012202D01*
X022768Y012043D02*
X022592Y012043D01*
X022600Y011885D02*
X022760Y011885D01*
X022760Y011726D02*
X022600Y011726D01*
X022600Y011568D02*
X022760Y011568D01*
X022760Y011409D02*
X022600Y011409D01*
X022564Y011251D02*
X022796Y011251D01*
X022914Y011092D02*
X022446Y011092D01*
X022853Y010775D02*
X020572Y010775D01*
X018913Y010775D02*
X014415Y010775D01*
X014391Y010934D02*
X018754Y010934D01*
X018596Y011092D02*
X018446Y011092D01*
X017914Y011092D02*
X017474Y011092D01*
X017467Y011084D02*
X017516Y011133D01*
X017556Y011189D01*
X017588Y011251D01*
X017609Y011317D01*
X017620Y011385D01*
X017620Y011680D01*
X017180Y011680D01*
X017180Y011680D01*
X017180Y010980D01*
X017215Y010980D01*
X017283Y010991D01*
X017349Y011012D01*
X017411Y011044D01*
X017467Y011084D01*
X017587Y011251D02*
X017796Y011251D01*
X017760Y011409D02*
X017620Y011409D01*
X017620Y011568D02*
X017760Y011568D01*
X017760Y011726D02*
X017620Y011726D01*
X017620Y011885D02*
X017678Y011885D01*
X017180Y011680D02*
X017180Y011680D01*
X017180Y011680D01*
X017180Y010980D01*
X017145Y010980D01*
X017077Y010991D01*
X017011Y011012D01*
X016949Y011044D01*
X016893Y011084D01*
X016844Y011133D01*
X016804Y011189D01*
X016772Y011251D01*
X016751Y011317D01*
X016740Y011385D01*
X016740Y011680D01*
X017180Y011680D01*
X017180Y011568D02*
X017180Y011568D01*
X017180Y011409D02*
X017180Y011409D01*
X017180Y011251D02*
X017180Y011251D01*
X017180Y011092D02*
X017180Y011092D01*
X016886Y011092D02*
X016446Y011092D01*
X016564Y011251D02*
X016773Y011251D01*
X016740Y011409D02*
X016600Y011409D01*
X016600Y011568D02*
X016740Y011568D01*
X016740Y011726D02*
X016600Y011726D01*
X016740Y011975D02*
X016751Y012043D01*
X016826Y012202D02*
X016512Y012202D01*
X016703Y012360D02*
X015797Y012360D01*
X015638Y012519D02*
X016052Y012519D01*
X016308Y012519D02*
X016544Y012519D01*
X015829Y012677D02*
X015531Y012677D01*
X015600Y012836D02*
X015760Y012836D01*
X015760Y012994D02*
X015600Y012994D01*
X015600Y013153D02*
X015760Y013153D01*
X015760Y013311D02*
X015600Y013311D01*
X015600Y013470D02*
X015760Y013470D01*
X015803Y013628D02*
X015557Y013628D01*
X015579Y013787D02*
X015781Y013787D01*
X015760Y013945D02*
X015600Y013945D01*
X015600Y014104D02*
X015760Y014104D01*
X015760Y014262D02*
X015600Y014262D01*
X015600Y014421D02*
X015760Y014421D01*
X015783Y014579D02*
X015577Y014579D01*
X013720Y014579D02*
X011001Y014579D01*
X010843Y014421D02*
X013720Y014421D01*
X013720Y014262D02*
X011607Y014262D01*
X011610Y014259D02*
X011509Y014360D01*
X011377Y014415D01*
X011233Y014415D01*
X011101Y014360D01*
X011000Y014259D01*
X010945Y014127D01*
X010945Y013983D01*
X011000Y013851D01*
X011006Y013845D01*
X010949Y013816D01*
X010893Y013776D01*
X010844Y013727D01*
X010804Y013671D01*
X010772Y013609D01*
X010751Y013543D01*
X010740Y013475D01*
X010740Y013180D01*
X011180Y013180D01*
X011180Y013717D01*
X011180Y013717D01*
X011180Y013180D01*
X011180Y013180D01*
X011620Y013180D01*
X011620Y013443D01*
X011845Y013218D01*
X011968Y013095D01*
X012006Y013095D01*
X012101Y013000D01*
X012173Y012970D01*
X011843Y012640D01*
X011520Y012640D01*
X011556Y012689D01*
X011588Y012751D01*
X011609Y012817D01*
X011620Y012885D01*
X011620Y013180D01*
X011180Y013180D01*
X011180Y013180D01*
X011180Y013180D01*
X010740Y013180D01*
X010740Y012885D01*
X010751Y012817D01*
X010772Y012751D01*
X010804Y012689D01*
X010840Y012640D01*
X010494Y012640D01*
X010536Y012682D01*
X010600Y012836D01*
X010600Y013524D01*
X010536Y013678D01*
X010534Y013680D01*
X010536Y013682D01*
X010600Y013836D01*
X010600Y014178D01*
X011267Y014845D01*
X013720Y014845D01*
X013720Y013390D01*
X012659Y013390D01*
X012610Y013509D01*
X012509Y013610D01*
X012377Y013665D01*
X012233Y013665D01*
X012101Y013610D01*
X012074Y013583D01*
X011665Y013992D01*
X011665Y014127D01*
X011610Y014259D01*
X011665Y014104D02*
X013720Y014104D01*
X013720Y013945D02*
X011712Y013945D01*
X011870Y013787D02*
X013720Y013787D01*
X013720Y013628D02*
X012466Y013628D01*
X012627Y013470D02*
X013720Y013470D01*
X013720Y014738D02*
X011160Y014738D01*
X011003Y014262D02*
X010684Y014262D01*
X010600Y014104D02*
X010945Y014104D01*
X010961Y013945D02*
X010600Y013945D01*
X010579Y013787D02*
X010908Y013787D01*
X010782Y013628D02*
X010557Y013628D01*
X010600Y013470D02*
X010740Y013470D01*
X010740Y013311D02*
X010600Y013311D01*
X010600Y013153D02*
X010740Y013153D01*
X010740Y012994D02*
X010600Y012994D01*
X010600Y012836D02*
X010748Y012836D01*
X010813Y012677D02*
X010531Y012677D01*
X011180Y013311D02*
X011180Y013311D01*
X011180Y013470D02*
X011180Y013470D01*
X011180Y013628D02*
X011180Y013628D01*
X011620Y013311D02*
X011752Y013311D01*
X011620Y013153D02*
X011910Y013153D01*
X012115Y012994D02*
X011620Y012994D01*
X011612Y012836D02*
X012039Y012836D01*
X011880Y012677D02*
X011547Y012677D01*
X012029Y013628D02*
X012144Y013628D01*
X014600Y011409D02*
X014760Y011409D01*
X014796Y011251D02*
X014564Y011251D01*
X014446Y011092D02*
X014914Y011092D01*
X015446Y011092D02*
X015914Y011092D01*
X015796Y011251D02*
X015564Y011251D01*
X015600Y011409D02*
X015760Y011409D01*
X015760Y011568D02*
X015600Y011568D01*
X015600Y011726D02*
X015760Y011726D01*
X015678Y011885D02*
X015600Y011885D01*
X014570Y010617D02*
X014367Y010617D01*
X014411Y010458D02*
X014158Y010458D01*
X014253Y010300D02*
X013422Y010300D01*
X013362Y010240D02*
X013620Y010498D01*
X013620Y010680D01*
X013180Y010680D01*
X013180Y010680D01*
X013180Y010240D01*
X013362Y010240D01*
X013180Y010240D02*
X013180Y010680D01*
X013180Y010680D01*
X013180Y010680D01*
X012740Y010680D01*
X012740Y010498D01*
X012998Y010240D01*
X013180Y010240D01*
X013180Y010300D02*
X013180Y010300D01*
X013180Y010458D02*
X013180Y010458D01*
X013180Y010617D02*
X013180Y010617D01*
X012938Y010300D02*
X007934Y010300D01*
X008029Y010458D02*
X012780Y010458D01*
X012740Y010617D02*
X008040Y010617D01*
X007426Y010300D02*
X006445Y010300D01*
X006534Y010141D02*
X007344Y010141D01*
X006973Y009983D02*
X006540Y009983D01*
X006458Y009824D02*
X006850Y009824D01*
X006820Y009666D02*
X005837Y009666D01*
X005679Y009507D02*
X006862Y009507D01*
X006791Y009349D02*
X007040Y009349D01*
X006569Y009349D02*
X005791Y009349D01*
X005569Y009349D02*
X005540Y009349D01*
X006024Y009190D02*
X006336Y009190D01*
X006263Y009032D02*
X006097Y009032D01*
X006100Y008873D02*
X006260Y008873D01*
X006260Y008715D02*
X006100Y008715D01*
X006100Y008556D02*
X006260Y008556D01*
X006260Y008398D02*
X006100Y008398D01*
X006060Y008239D02*
X006300Y008239D01*
X006426Y008081D02*
X005934Y008081D01*
X005426Y008081D02*
X004934Y008081D01*
X005060Y008239D02*
X005300Y008239D01*
X005260Y008398D02*
X005100Y008398D01*
X005100Y008556D02*
X005260Y008556D01*
X005260Y008715D02*
X005100Y008715D01*
X005100Y008873D02*
X005260Y008873D01*
X004820Y009349D02*
X004791Y009349D01*
X004874Y009507D02*
X003390Y009507D01*
X003390Y009349D02*
X003569Y009349D01*
X003791Y009349D02*
X004569Y009349D01*
X004336Y009190D02*
X004024Y009190D01*
X004097Y009032D02*
X004263Y009032D01*
X004260Y008873D02*
X004100Y008873D01*
X004100Y008715D02*
X004260Y008715D01*
X004260Y008556D02*
X004100Y008556D01*
X004100Y008398D02*
X004260Y008398D01*
X004300Y008239D02*
X004060Y008239D01*
X003934Y008081D02*
X004426Y008081D01*
X004316Y007764D02*
X005169Y007764D01*
X004988Y007605D02*
X004497Y007605D01*
X004540Y007447D02*
X004945Y007447D01*
X004974Y007288D02*
X004619Y007288D01*
X004777Y007130D02*
X005096Y007130D01*
X004936Y006971D02*
X006674Y006971D01*
X006696Y007130D02*
X005514Y007130D01*
X005094Y006813D02*
X006016Y006813D01*
X005857Y006654D02*
X005253Y006654D01*
X004659Y006654D02*
X003440Y006654D01*
X003440Y006813D02*
X004501Y006813D01*
X004342Y006971D02*
X003440Y006971D01*
X003440Y007130D02*
X003971Y007130D01*
X003849Y007288D02*
X003511Y007288D01*
X003540Y007447D02*
X003820Y007447D01*
X003863Y007605D02*
X003497Y007605D01*
X003316Y007764D02*
X004044Y007764D01*
X003426Y008081D02*
X002934Y008081D01*
X003060Y008239D02*
X003300Y008239D01*
X003260Y008398D02*
X003100Y008398D01*
X002426Y008081D02*
X001010Y008081D01*
X001010Y008239D02*
X002300Y008239D01*
X002260Y008398D02*
X001010Y008398D01*
X001010Y008556D02*
X002260Y008556D01*
X002260Y008715D02*
X001010Y008715D01*
X001010Y008873D02*
X002260Y008873D01*
X002263Y009032D02*
X001010Y009032D01*
X001010Y009190D02*
X002336Y009190D01*
X002569Y009349D02*
X001010Y009349D01*
X001010Y009507D02*
X002970Y009507D01*
X002970Y009349D02*
X002791Y009349D01*
X002970Y009666D02*
X001010Y009666D01*
X001010Y009824D02*
X002970Y009824D01*
X002970Y009983D02*
X001010Y009983D01*
X001010Y010141D02*
X002970Y010141D01*
X002970Y010300D02*
X001922Y010300D01*
X001680Y010300D02*
X001680Y010300D01*
X001680Y010240D02*
X001680Y010680D01*
X001680Y010680D01*
X001680Y010680D01*
X001240Y010680D01*
X001240Y010498D01*
X001498Y010240D01*
X001680Y010240D01*
X001680Y010458D02*
X001680Y010458D01*
X001680Y010617D02*
X001680Y010617D01*
X001438Y010300D02*
X001010Y010300D01*
X001010Y010458D02*
X001280Y010458D01*
X001240Y010617D02*
X001010Y010617D01*
X001010Y010775D02*
X001240Y010775D01*
X001311Y010934D02*
X001010Y010934D01*
X002031Y011251D02*
X002296Y011251D01*
X002260Y011409D02*
X002003Y011409D01*
X002190Y011092D02*
X002414Y011092D01*
X002561Y010934D02*
X002970Y010934D01*
X002970Y011092D02*
X002946Y011092D01*
X003390Y011092D02*
X003414Y011092D01*
X003390Y010934D02*
X003549Y010934D01*
X003455Y010775D02*
X003390Y010775D01*
X003390Y010617D02*
X003445Y010617D01*
X003390Y010458D02*
X003518Y010458D01*
X003390Y010300D02*
X003888Y010300D01*
X004047Y010141D02*
X003390Y010141D01*
X003390Y009983D02*
X004205Y009983D01*
X004364Y009824D02*
X003390Y009824D01*
X003390Y009666D02*
X004522Y009666D01*
X002970Y010458D02*
X002592Y010458D01*
X002665Y010617D02*
X002970Y010617D01*
X002970Y010775D02*
X002655Y010775D01*
X003044Y007764D02*
X001010Y007764D01*
X001010Y007922D02*
X011141Y007922D01*
X011004Y007764D02*
X008316Y007764D01*
X008497Y007605D02*
X009971Y007605D01*
X009849Y007447D02*
X008540Y007447D01*
X008511Y007288D02*
X009820Y007288D01*
X010389Y007605D02*
X010945Y007605D01*
X010960Y007447D02*
X010511Y007447D01*
X010426Y008081D02*
X009934Y008081D01*
X010060Y008239D02*
X010300Y008239D01*
X010260Y008398D02*
X010100Y008398D01*
X010100Y008556D02*
X010260Y008556D01*
X010260Y008715D02*
X010100Y008715D01*
X010100Y008873D02*
X010260Y008873D01*
X010263Y009032D02*
X010097Y009032D01*
X010024Y009190D02*
X010336Y009190D01*
X010569Y009349D02*
X009791Y009349D01*
X009569Y009349D02*
X009308Y009349D01*
X009150Y009507D02*
X011695Y009507D01*
X011680Y009349D02*
X011680Y009349D01*
X011680Y009190D02*
X011680Y009190D01*
X011680Y009032D02*
X011680Y009032D01*
X011680Y008873D02*
X011680Y008873D01*
X011680Y008715D02*
X011680Y008715D01*
X012120Y008715D02*
X013740Y008715D01*
X013740Y008873D02*
X012120Y008873D01*
X012111Y009032D02*
X013749Y009032D01*
X013818Y009190D02*
X012042Y009190D01*
X011513Y009349D02*
X010791Y009349D01*
X011024Y009190D02*
X011318Y009190D01*
X011249Y009032D02*
X011097Y009032D01*
X011100Y008873D02*
X011240Y008873D01*
X011240Y008715D02*
X011100Y008715D01*
X011101Y008556D02*
X011240Y008556D01*
X010983Y008081D02*
X010934Y008081D01*
X012082Y008239D02*
X012860Y008239D01*
X013250Y008239D02*
X013778Y008239D01*
X013740Y008398D02*
X012120Y008398D01*
X012120Y008556D02*
X013740Y008556D01*
X013409Y008081D02*
X013382Y008081D01*
X014582Y008239D02*
X014800Y008239D01*
X014760Y008398D02*
X014620Y008398D01*
X014620Y008556D02*
X014760Y008556D01*
X014760Y008715D02*
X014620Y008715D01*
X014620Y008873D02*
X014760Y008873D01*
X014763Y009032D02*
X014611Y009032D01*
X014542Y009190D02*
X014836Y009190D01*
X014094Y010141D02*
X012728Y010141D01*
X012132Y010141D02*
X008516Y010141D01*
X008674Y009983D02*
X012070Y009983D01*
X011815Y009824D02*
X008833Y009824D01*
X008991Y009666D02*
X011711Y009666D01*
X011947Y010775D02*
X012740Y010775D01*
X012542Y010934D02*
X012106Y010934D01*
X012264Y011092D02*
X012452Y011092D01*
X012445Y011251D02*
X012423Y011251D01*
X013549Y010934D02*
X013629Y010934D01*
X013620Y010775D02*
X013695Y010775D01*
X013743Y010617D02*
X013620Y010617D01*
X013580Y010458D02*
X013952Y010458D01*
X009260Y008715D02*
X009100Y008715D01*
X009100Y008873D02*
X009190Y008873D01*
X009260Y008556D02*
X009100Y008556D01*
X009100Y008398D02*
X009260Y008398D01*
X009300Y008239D02*
X009060Y008239D01*
X008934Y008081D02*
X009426Y008081D01*
X008426Y008081D02*
X007934Y008081D01*
X008060Y008239D02*
X008300Y008239D01*
X008260Y008398D02*
X008100Y008398D01*
X008100Y008556D02*
X008260Y008556D01*
X008260Y008715D02*
X008100Y008715D01*
X008100Y008873D02*
X008260Y008873D01*
X008263Y009032D02*
X008097Y009032D01*
X008024Y009190D02*
X008336Y009190D01*
X008195Y009349D02*
X008569Y009349D01*
X008556Y009507D02*
X008373Y009507D01*
X007915Y009349D02*
X007791Y009349D01*
X007260Y008873D02*
X007170Y008873D01*
X007100Y008715D02*
X007260Y008715D01*
X007260Y008556D02*
X007100Y008556D01*
X007100Y008398D02*
X007260Y008398D01*
X007300Y008239D02*
X007060Y008239D01*
X006934Y008081D02*
X007426Y008081D01*
X008044Y007764D02*
X005441Y007764D01*
X004345Y006496D02*
X004015Y006496D01*
X004140Y006337D02*
X004220Y006337D01*
X004220Y006179D02*
X004140Y006179D01*
X004140Y006020D02*
X004220Y006020D01*
X004348Y005862D02*
X004012Y005862D01*
X003966Y005545D02*
X004394Y005545D01*
X004235Y005386D02*
X004125Y005386D01*
X004140Y005228D02*
X004220Y005228D01*
X004220Y005069D02*
X004140Y005069D01*
X004061Y004911D02*
X004299Y004911D01*
X004457Y004752D02*
X003940Y004752D01*
X003940Y004594D02*
X004470Y004594D01*
X004470Y004435D02*
X003940Y004435D01*
X003940Y004277D02*
X004470Y004277D01*
X004890Y004277D02*
X005470Y004277D01*
X005470Y004435D02*
X004890Y004435D01*
X004890Y004594D02*
X005470Y004594D01*
X005457Y004752D02*
X004903Y004752D01*
X005061Y004911D02*
X005299Y004911D01*
X005220Y005069D02*
X005140Y005069D01*
X005140Y005228D02*
X005220Y005228D01*
X005235Y005386D02*
X005125Y005386D01*
X004966Y005545D02*
X005394Y005545D01*
X005348Y005862D02*
X005012Y005862D01*
X005140Y006020D02*
X005220Y006020D01*
X005833Y005703D02*
X003525Y005703D01*
X002920Y005703D02*
X001010Y005703D01*
X001010Y005545D02*
X001366Y005545D01*
X001481Y005660D02*
X001200Y005379D01*
X001200Y005200D01*
X001660Y005200D01*
X001660Y005660D01*
X001481Y005660D01*
X001489Y005720D02*
X001871Y005720D01*
X002140Y005989D01*
X002140Y006371D01*
X001871Y006640D01*
X001489Y006640D01*
X001220Y006371D01*
X001220Y005989D01*
X001489Y005720D01*
X001348Y005862D02*
X001010Y005862D01*
X001010Y006020D02*
X001220Y006020D01*
X001220Y006179D02*
X001010Y006179D01*
X001010Y006337D02*
X001220Y006337D01*
X001345Y006496D02*
X001010Y006496D01*
X001010Y006654D02*
X002920Y006654D01*
X002920Y006813D02*
X001010Y006813D01*
X001010Y006971D02*
X002920Y006971D01*
X002920Y007130D02*
X001010Y007130D01*
X001010Y007288D02*
X002849Y007288D01*
X002820Y007447D02*
X001010Y007447D01*
X001010Y007605D02*
X002863Y007605D01*
X002345Y006496D02*
X002015Y006496D01*
X002140Y006337D02*
X002220Y006337D01*
X002220Y006179D02*
X002140Y006179D01*
X002140Y006020D02*
X002220Y006020D01*
X002348Y005862D02*
X002012Y005862D01*
X001879Y005660D02*
X001700Y005660D01*
X001700Y005200D01*
X002160Y005200D01*
X002160Y005379D01*
X001879Y005660D01*
X001994Y005545D02*
X002394Y005545D01*
X002235Y005386D02*
X002153Y005386D01*
X002160Y005228D02*
X002220Y005228D01*
X002160Y005160D02*
X001700Y005160D01*
X001700Y005200D01*
X001660Y005200D01*
X001660Y005160D01*
X001700Y005160D01*
X001700Y004700D01*
X001879Y004700D01*
X002160Y004981D01*
X002160Y005160D01*
X002160Y005069D02*
X002220Y005069D01*
X002299Y004911D02*
X002089Y004911D01*
X001931Y004752D02*
X002457Y004752D01*
X002470Y004594D02*
X001010Y004594D01*
X001010Y004752D02*
X001429Y004752D01*
X001481Y004700D02*
X001660Y004700D01*
X001660Y005160D01*
X001200Y005160D01*
X001200Y004981D01*
X001481Y004700D01*
X001660Y004752D02*
X001700Y004752D01*
X001700Y004911D02*
X001660Y004911D01*
X001660Y005069D02*
X001700Y005069D01*
X001700Y005228D02*
X001660Y005228D01*
X001660Y005386D02*
X001700Y005386D01*
X001700Y005545D02*
X001660Y005545D01*
X001207Y005386D02*
X001010Y005386D01*
X001010Y005228D02*
X001200Y005228D01*
X001200Y005069D02*
X001010Y005069D01*
X001010Y004911D02*
X001271Y004911D01*
X001010Y004435D02*
X002470Y004435D01*
X002470Y004277D02*
X001010Y004277D01*
X007802Y007605D02*
X007863Y007605D01*
X021890Y004739D02*
X021890Y004180D01*
X023470Y004180D01*
X023470Y004739D01*
X023220Y004989D01*
X023220Y005371D01*
X023319Y005470D01*
X023069Y005470D01*
X023160Y005379D01*
X023160Y005200D01*
X022700Y005200D01*
X022700Y005160D01*
X023160Y005160D01*
X023160Y004981D01*
X022879Y004700D01*
X022700Y004700D01*
X022700Y005160D01*
X022660Y005160D01*
X022660Y004700D01*
X022481Y004700D01*
X022200Y004981D01*
X022200Y005028D01*
X022142Y004970D01*
X022121Y004970D01*
X021890Y004739D01*
X021903Y004752D02*
X022429Y004752D01*
X022271Y004911D02*
X022061Y004911D01*
X021890Y004594D02*
X023470Y004594D01*
X023457Y004752D02*
X022931Y004752D01*
X023089Y004911D02*
X023299Y004911D01*
X023220Y005069D02*
X023160Y005069D01*
X023160Y005228D02*
X023220Y005228D01*
X023235Y005386D02*
X023153Y005386D01*
X022700Y005069D02*
X022660Y005069D01*
X022660Y004911D02*
X022700Y004911D01*
X022700Y004752D02*
X022660Y004752D01*
X021890Y004435D02*
X023470Y004435D01*
X023470Y004277D02*
X021890Y004277D01*
X023582Y008239D02*
X029570Y008239D01*
X029638Y008398D02*
X026279Y008398D01*
X029501Y006720D02*
X031468Y006720D01*
X031548Y006640D01*
X031489Y006640D01*
X031220Y006371D01*
X031220Y005989D01*
X031489Y005720D01*
X031871Y005720D01*
X032140Y005989D01*
X032140Y006048D01*
X032218Y005970D01*
X032588Y005970D01*
X032584Y005967D01*
X032544Y005911D01*
X032512Y005849D01*
X032491Y005783D01*
X032480Y005715D01*
X032480Y005680D01*
X033180Y005680D01*
X033880Y005680D01*
X033880Y005715D01*
X033869Y005783D01*
X033848Y005849D01*
X033816Y005911D01*
X033776Y005967D01*
X033772Y005970D01*
X035616Y005970D01*
X035564Y005918D01*
X035500Y005764D01*
X035500Y005596D01*
X035564Y005442D01*
X035682Y005324D01*
X035836Y005260D01*
X036338Y005260D01*
X036218Y005140D01*
X032160Y005140D01*
X032160Y005160D01*
X031700Y005160D01*
X031700Y005200D01*
X031660Y005200D01*
X031660Y005660D01*
X031481Y005660D01*
X031200Y005379D01*
X031200Y005200D01*
X031660Y005200D01*
X031660Y005160D01*
X031200Y005160D01*
X031200Y004981D01*
X031291Y004890D01*
X031041Y004890D01*
X031140Y004989D01*
X031140Y005371D01*
X030871Y005640D01*
X030489Y005640D01*
X030390Y005541D01*
X030390Y005767D01*
X030267Y005890D01*
X030041Y005890D01*
X030140Y005989D01*
X030140Y006371D01*
X029871Y006640D01*
X029534Y006640D01*
X029501Y006720D01*
X029529Y006654D02*
X031534Y006654D01*
X031345Y006496D02*
X031015Y006496D01*
X031140Y006371D02*
X030871Y006640D01*
X030489Y006640D01*
X030220Y006371D01*
X030220Y005989D01*
X030489Y005720D01*
X030871Y005720D01*
X031140Y005989D01*
X031140Y006371D01*
X031140Y006337D02*
X031220Y006337D01*
X031220Y006179D02*
X031140Y006179D01*
X031140Y006020D02*
X031220Y006020D01*
X031348Y005862D02*
X031012Y005862D01*
X030966Y005545D02*
X031366Y005545D01*
X031207Y005386D02*
X031125Y005386D01*
X031140Y005228D02*
X031200Y005228D01*
X031200Y005069D02*
X031140Y005069D01*
X031061Y004911D02*
X031271Y004911D01*
X031660Y005228D02*
X031700Y005228D01*
X031700Y005200D02*
X031700Y005660D01*
X031879Y005660D01*
X032160Y005379D01*
X032160Y005200D01*
X031700Y005200D01*
X031700Y005386D02*
X031660Y005386D01*
X031660Y005545D02*
X031700Y005545D01*
X031994Y005545D02*
X032501Y005545D01*
X032491Y005577D02*
X032512Y005511D01*
X032544Y005449D01*
X032584Y005393D01*
X032633Y005344D01*
X032689Y005304D01*
X032751Y005272D01*
X032817Y005251D01*
X032885Y005240D01*
X033180Y005240D01*
X033475Y005240D01*
X033543Y005251D01*
X033609Y005272D01*
X033671Y005304D01*
X033727Y005344D01*
X033776Y005393D01*
X033816Y005449D01*
X033848Y005511D01*
X033869Y005577D01*
X033880Y005645D01*
X033880Y005680D01*
X033180Y005680D01*
X033180Y005680D01*
X033180Y005240D01*
X033180Y005680D01*
X033180Y005680D01*
X033180Y005680D01*
X032480Y005680D01*
X032480Y005645D01*
X032491Y005577D01*
X032480Y005703D02*
X030390Y005703D01*
X030390Y005545D02*
X030394Y005545D01*
X030348Y005862D02*
X030295Y005862D01*
X030220Y006020D02*
X030140Y006020D01*
X030140Y006179D02*
X030220Y006179D01*
X030220Y006337D02*
X030140Y006337D01*
X030015Y006496D02*
X030345Y006496D01*
X032012Y005862D02*
X032519Y005862D01*
X032168Y006020D02*
X032140Y006020D01*
X033180Y005545D02*
X033180Y005545D01*
X033180Y005386D02*
X033180Y005386D01*
X033768Y005386D02*
X035620Y005386D01*
X035522Y005545D02*
X033859Y005545D01*
X033880Y005703D02*
X035500Y005703D01*
X035541Y005862D02*
X033841Y005862D01*
X032592Y005386D02*
X032153Y005386D01*
X032160Y005228D02*
X036306Y005228D01*
X032741Y010300D02*
X032596Y010300D01*
X032214Y012360D02*
X034878Y012360D01*
X034740Y012519D02*
X032328Y012519D01*
X032360Y012677D02*
X034740Y012677D01*
X034390Y012836D02*
X032330Y012836D01*
X031146Y012360D02*
X026297Y012360D01*
X026328Y012519D02*
X031032Y012519D01*
X031000Y012677D02*
X026360Y012677D01*
X026330Y012836D02*
X031030Y012836D01*
X030201Y013470D02*
X027104Y013470D01*
X027165Y013628D02*
X030196Y013628D01*
X030277Y013787D02*
X027151Y013787D01*
X027049Y013945D02*
X031091Y013945D01*
X031332Y014262D02*
X026028Y014262D01*
X026274Y014421D02*
X031086Y014421D01*
X031007Y014579D02*
X026353Y014579D01*
X026360Y014738D02*
X031000Y014738D01*
X031055Y014896D02*
X026305Y014896D01*
X025332Y014262D02*
X024895Y014262D01*
X025053Y014104D02*
X037719Y014104D01*
X037140Y016006D02*
X041400Y016006D01*
X041400Y016164D02*
X037140Y016164D01*
X037140Y016323D02*
X041400Y016323D01*
X041400Y016481D02*
X037140Y016481D01*
X037140Y016640D02*
X041400Y016640D01*
X041400Y016798D02*
X037140Y016798D01*
X037140Y016957D02*
X041400Y016957D01*
X041400Y017115D02*
X038487Y017115D01*
X038421Y017050D02*
X038570Y017199D01*
X038651Y017393D01*
X038651Y017604D01*
X038570Y017799D01*
X038421Y017948D01*
X038226Y018029D01*
X038016Y018029D01*
X037821Y017948D01*
X037672Y017799D01*
X037591Y017604D01*
X037591Y017393D01*
X037672Y017199D01*
X037821Y017050D01*
X038016Y016969D01*
X038226Y016969D01*
X038421Y017050D01*
X038601Y017274D02*
X041400Y017274D01*
X041400Y017432D02*
X038651Y017432D01*
X038651Y017591D02*
X038954Y017591D01*
X038939Y017597D02*
X039134Y017516D01*
X039344Y017516D01*
X039539Y017597D01*
X039688Y017746D01*
X039769Y017941D01*
X039769Y018152D01*
X039688Y018346D01*
X039539Y018495D01*
X039344Y018576D01*
X039134Y018576D01*
X038939Y018495D01*
X038790Y018346D01*
X038709Y018152D01*
X038709Y017941D01*
X038790Y017746D01*
X038939Y017597D01*
X038788Y017749D02*
X038591Y017749D01*
X038462Y017908D02*
X038723Y017908D01*
X038709Y018066D02*
X038242Y018066D01*
X038226Y018059D02*
X038421Y018140D01*
X038570Y018289D01*
X038651Y018484D01*
X038651Y018695D01*
X038570Y018890D01*
X038421Y019039D01*
X038226Y019119D01*
X038016Y019119D01*
X037821Y019039D01*
X037672Y018890D01*
X037591Y018695D01*
X037591Y018484D01*
X037672Y018289D01*
X037821Y018140D01*
X038016Y018059D01*
X038226Y018059D01*
X038000Y018066D02*
X037140Y018066D01*
X037140Y017908D02*
X037780Y017908D01*
X037651Y017749D02*
X037140Y017749D01*
X037140Y017591D02*
X037591Y017591D01*
X037591Y017432D02*
X037140Y017432D01*
X037140Y017274D02*
X037641Y017274D01*
X037755Y017115D02*
X037140Y017115D01*
X036720Y017994D02*
X036678Y018036D01*
X036524Y018100D01*
X035836Y018100D01*
X035682Y018036D01*
X035564Y017918D01*
X035500Y017764D01*
X035500Y017596D01*
X035551Y017473D01*
X034993Y016915D01*
X034858Y016915D01*
X034726Y016860D01*
X034625Y016759D01*
X034570Y016627D01*
X034570Y016483D01*
X034609Y016390D01*
X033744Y016390D01*
X033796Y016442D01*
X033860Y016596D01*
X033860Y016764D01*
X033796Y016918D01*
X033678Y017036D01*
X033524Y017100D01*
X032836Y017100D01*
X032682Y017036D01*
X032564Y016918D01*
X032500Y016764D01*
X032500Y016596D01*
X032564Y016442D01*
X032616Y016390D01*
X032244Y016390D01*
X032296Y016442D01*
X032360Y016596D01*
X032360Y016764D01*
X032296Y016918D01*
X032178Y017036D01*
X032024Y017100D01*
X031336Y017100D01*
X031182Y017036D01*
X031064Y016918D01*
X031000Y016764D01*
X031000Y016596D01*
X031064Y016442D01*
X031116Y016390D01*
X030890Y016390D01*
X030890Y017017D01*
X030767Y017140D01*
X030767Y017140D01*
X029640Y018267D01*
X029517Y018390D01*
X026244Y018390D01*
X026296Y018442D01*
X026360Y018596D01*
X026360Y018764D01*
X026296Y018918D01*
X026178Y019036D01*
X026024Y019100D01*
X025336Y019100D01*
X025182Y019036D01*
X025152Y019005D01*
X025088Y019069D01*
X025100Y019096D01*
X025100Y019264D01*
X025036Y019418D01*
X024918Y019536D01*
X024764Y019600D01*
X024662Y019600D01*
X024665Y019608D01*
X024665Y019752D01*
X024610Y019884D01*
X024509Y019985D01*
X024377Y020040D01*
X024233Y020040D01*
X024101Y019985D01*
X024000Y019884D01*
X023945Y019752D01*
X023945Y019640D01*
X018020Y019640D01*
X018056Y019689D01*
X018088Y019751D01*
X018109Y019817D01*
X018120Y019885D01*
X018120Y020180D01*
X018120Y020475D01*
X018109Y020543D01*
X018088Y020609D01*
X018056Y020671D01*
X018020Y020720D01*
X028218Y020720D01*
X029845Y019093D01*
X029968Y018970D01*
X031116Y018970D01*
X031064Y018918D01*
X031000Y018764D01*
X031000Y018596D01*
X031064Y018442D01*
X031182Y018324D01*
X031336Y018260D01*
X032024Y018260D01*
X032178Y018324D01*
X032296Y018442D01*
X032360Y018596D01*
X032360Y018764D01*
X032296Y018918D01*
X032244Y018970D01*
X032616Y018970D01*
X032564Y018918D01*
X032500Y018764D01*
X032500Y018596D01*
X032564Y018442D01*
X032682Y018324D01*
X032836Y018260D01*
X033524Y018260D01*
X033678Y018324D01*
X033796Y018442D01*
X033860Y018596D01*
X033860Y018764D01*
X033796Y018918D01*
X033678Y019036D01*
X033524Y019100D01*
X032897Y019100D01*
X033057Y019260D01*
X033524Y019260D01*
X033678Y019324D01*
X033796Y019442D01*
X033808Y019470D01*
X035093Y019470D01*
X035605Y018958D01*
X035564Y018918D01*
X035500Y018764D01*
X035500Y018596D01*
X035564Y018442D01*
X035682Y018324D01*
X035836Y018260D01*
X036524Y018260D01*
X036678Y018324D01*
X036720Y018366D01*
X036720Y017994D01*
X036720Y018066D02*
X036606Y018066D01*
X036720Y018225D02*
X029682Y018225D01*
X029640Y018267D02*
X029640Y018267D01*
X029524Y018383D02*
X031123Y018383D01*
X031023Y018542D02*
X026337Y018542D01*
X026360Y018700D02*
X031000Y018700D01*
X031039Y018859D02*
X026321Y018859D01*
X026197Y019017D02*
X029921Y019017D01*
X029762Y019176D02*
X025100Y019176D01*
X025071Y019334D02*
X025172Y019334D01*
X025182Y019324D02*
X025336Y019260D01*
X026024Y019260D01*
X026178Y019324D01*
X026296Y019442D01*
X026360Y019596D01*
X026360Y019764D01*
X026296Y019918D01*
X026178Y020036D01*
X026024Y020100D01*
X025336Y020100D01*
X025182Y020036D01*
X025064Y019918D01*
X025000Y019764D01*
X025000Y019596D01*
X025064Y019442D01*
X025182Y019324D01*
X025043Y019493D02*
X024961Y019493D01*
X025000Y019651D02*
X024665Y019651D01*
X024641Y019810D02*
X025019Y019810D01*
X025114Y019968D02*
X024526Y019968D01*
X024084Y019968D02*
X018120Y019968D01*
X018120Y020127D02*
X028811Y020127D01*
X028653Y020285D02*
X018120Y020285D01*
X018120Y020180D02*
X017680Y020180D01*
X017680Y020180D01*
X018120Y020180D01*
X018120Y020444D02*
X028494Y020444D01*
X028336Y020602D02*
X018090Y020602D01*
X017680Y020180D02*
X017680Y020180D01*
X017240Y020180D01*
X017240Y020475D01*
X017251Y020543D01*
X017272Y020609D01*
X017304Y020671D01*
X017340Y020720D01*
X016994Y020720D01*
X017036Y020678D01*
X017100Y020524D01*
X017100Y020057D01*
X017240Y019917D01*
X017240Y020180D01*
X017680Y020180D01*
X017240Y020127D02*
X017100Y020127D01*
X017100Y020285D02*
X017240Y020285D01*
X017240Y020444D02*
X017100Y020444D01*
X017067Y020602D02*
X017270Y020602D01*
X017240Y019968D02*
X017189Y019968D01*
X018028Y019651D02*
X023945Y019651D01*
X023969Y019810D02*
X018107Y019810D01*
X014281Y021078D02*
X013079Y021078D01*
X012921Y021236D02*
X030240Y021236D01*
X030240Y021078D02*
X028454Y021078D01*
X028613Y020919D02*
X030319Y020919D01*
X029876Y020761D02*
X028771Y020761D01*
X028930Y020602D02*
X029820Y020602D01*
X029837Y020444D02*
X029801Y020444D01*
X029309Y020444D02*
X029088Y020444D01*
X028970Y019968D02*
X026246Y019968D01*
X026341Y019810D02*
X029128Y019810D01*
X029287Y019651D02*
X026360Y019651D01*
X026317Y019493D02*
X029445Y019493D01*
X029604Y019334D02*
X026188Y019334D01*
X025163Y019017D02*
X025140Y019017D01*
X027657Y021520D02*
X028203Y021520D01*
X028590Y021907D01*
X028590Y022453D01*
X028203Y022840D01*
X027657Y022840D01*
X027270Y022453D01*
X027270Y021907D01*
X027657Y021520D01*
X027624Y021553D02*
X001010Y021553D01*
X001010Y021395D02*
X030272Y021395D01*
X030431Y021553D02*
X028236Y021553D01*
X028395Y021712D02*
X032500Y021712D01*
X032518Y021553D02*
X031901Y021553D01*
X031459Y021553D02*
X030929Y021553D01*
X031088Y021395D02*
X031301Y021395D01*
X031260Y021236D02*
X031120Y021236D01*
X031120Y021078D02*
X031260Y021078D01*
X031347Y020919D02*
X031041Y020919D01*
X030680Y021236D02*
X030680Y021236D01*
X030680Y021395D02*
X030680Y021395D01*
X030680Y021553D02*
X030680Y021553D01*
X032544Y021870D02*
X028553Y021870D01*
X028590Y022029D02*
X032675Y022029D01*
X033390Y022187D02*
X028590Y022187D01*
X028590Y022346D02*
X033549Y022346D01*
X034740Y022504D02*
X028539Y022504D01*
X028381Y022663D02*
X034740Y022663D01*
X034740Y022821D02*
X028222Y022821D01*
X027638Y022821D02*
X013336Y022821D01*
X013492Y022665D02*
X010657Y025500D01*
X010764Y025500D01*
X010918Y025564D01*
X011036Y025682D01*
X011100Y025836D01*
X011100Y026524D01*
X011036Y026678D01*
X010918Y026796D01*
X010764Y026860D01*
X010596Y026860D01*
X010442Y026796D01*
X010324Y026678D01*
X010260Y026524D01*
X010260Y025897D01*
X010100Y026057D01*
X010100Y026524D01*
X010036Y026678D01*
X009918Y026796D01*
X009764Y026860D01*
X009596Y026860D01*
X009442Y026796D01*
X009324Y026678D01*
X009260Y026524D01*
X009260Y025836D01*
X009324Y025682D01*
X009442Y025564D01*
X009596Y025500D01*
X009764Y025500D01*
X009918Y025564D01*
X009958Y025605D01*
X013195Y022368D01*
X013195Y022233D01*
X013250Y022101D01*
X013351Y022000D01*
X013483Y021945D01*
X013627Y021945D01*
X013759Y022000D01*
X013860Y022101D01*
X013915Y022233D01*
X013915Y022377D01*
X013860Y022509D01*
X013759Y022610D01*
X013627Y022665D01*
X013492Y022665D01*
X013633Y022663D02*
X027479Y022663D01*
X027321Y022504D02*
X013862Y022504D01*
X013915Y022346D02*
X027270Y022346D01*
X027270Y022187D02*
X013896Y022187D01*
X013788Y022029D02*
X027270Y022029D01*
X027307Y021870D02*
X001010Y021870D01*
X001010Y021712D02*
X027465Y021712D01*
X028233Y024320D02*
X028377Y024320D01*
X028509Y024375D01*
X028610Y024476D01*
X028665Y024608D01*
X028665Y024752D01*
X028610Y024884D01*
X028509Y024985D01*
X028377Y025040D01*
X028242Y025040D01*
X027892Y025390D01*
X024626Y025390D01*
X024665Y025483D01*
X024665Y025627D01*
X024610Y025759D01*
X024509Y025860D01*
X024377Y025915D01*
X024233Y025915D01*
X024101Y025860D01*
X024000Y025759D01*
X023951Y025640D01*
X017994Y025640D01*
X018036Y025682D01*
X018100Y025836D01*
X018100Y026524D01*
X018036Y026678D01*
X017994Y026720D01*
X024006Y026720D01*
X024101Y026625D01*
X018058Y026625D01*
X018100Y026467D02*
X027283Y026467D01*
X027270Y026453D02*
X027270Y025907D01*
X027657Y025520D01*
X028203Y025520D01*
X028590Y025907D01*
X028590Y026453D01*
X028203Y026840D01*
X027657Y026840D01*
X027270Y026453D01*
X027270Y026308D02*
X018100Y026308D01*
X018100Y026150D02*
X027270Y026150D01*
X027270Y025991D02*
X018100Y025991D01*
X018098Y025833D02*
X024073Y025833D01*
X023965Y025674D02*
X018028Y025674D01*
X020250Y024462D02*
X020250Y024210D01*
X020900Y024210D01*
X020900Y024150D01*
X020960Y024150D01*
X020960Y024210D01*
X021610Y024210D01*
X021610Y024462D01*
X021352Y024720D01*
X023945Y024720D01*
X023945Y024608D01*
X024000Y024476D01*
X024101Y024375D01*
X024233Y024320D01*
X024377Y024320D01*
X024509Y024375D01*
X024610Y024476D01*
X024665Y024608D01*
X024665Y024752D01*
X024610Y024884D01*
X024524Y024970D01*
X027718Y024970D01*
X027945Y024743D01*
X027945Y024608D01*
X028000Y024476D01*
X028101Y024375D01*
X028233Y024320D01*
X028070Y024406D02*
X024540Y024406D01*
X024647Y024565D02*
X027963Y024565D01*
X027945Y024723D02*
X024665Y024723D01*
X024611Y024882D02*
X027806Y024882D01*
X028083Y025199D02*
X037685Y025199D01*
X037752Y025314D02*
X037599Y025049D01*
X037520Y024754D01*
X037520Y024449D01*
X037599Y024154D01*
X037752Y023889D01*
X037968Y023673D01*
X038232Y023520D01*
X038527Y023441D01*
X038833Y023441D01*
X039128Y023520D01*
X039392Y023673D01*
X039608Y023889D01*
X039761Y024154D01*
X039840Y024449D01*
X039840Y024754D01*
X039761Y025049D01*
X039608Y025314D01*
X039392Y025529D01*
X039128Y025682D01*
X038833Y025761D01*
X038527Y025761D01*
X038232Y025682D01*
X037968Y025529D01*
X037752Y025314D01*
X037795Y025357D02*
X027925Y025357D01*
X028242Y025040D02*
X037597Y025040D01*
X037554Y024882D02*
X028611Y024882D01*
X028665Y024723D02*
X037520Y024723D01*
X037520Y024565D02*
X028647Y024565D01*
X028540Y024406D02*
X037531Y024406D01*
X037574Y024248D02*
X021610Y024248D01*
X021610Y024150D02*
X020960Y024150D01*
X020960Y023500D01*
X021212Y023500D01*
X021610Y023898D01*
X021610Y024150D01*
X021610Y024089D02*
X032995Y024089D01*
X033006Y024100D02*
X032760Y023854D01*
X032760Y023506D01*
X033006Y023260D01*
X033354Y023260D01*
X033600Y023506D01*
X033600Y023854D01*
X033354Y024100D01*
X033006Y024100D01*
X032837Y023931D02*
X021610Y023931D01*
X021484Y023772D02*
X032760Y023772D01*
X032760Y023614D02*
X021325Y023614D01*
X020960Y023614D02*
X020900Y023614D01*
X020900Y023500D02*
X020648Y023500D01*
X020250Y023898D01*
X020250Y024150D01*
X020900Y024150D01*
X020900Y023500D01*
X020900Y023772D02*
X020960Y023772D01*
X020960Y023931D02*
X020900Y023931D01*
X020900Y024089D02*
X020960Y024089D01*
X020535Y023614D02*
X012543Y023614D01*
X012385Y023772D02*
X020376Y023772D01*
X020250Y023931D02*
X012226Y023931D01*
X012068Y024089D02*
X020250Y024089D01*
X020250Y024248D02*
X011909Y024248D01*
X011751Y024406D02*
X020250Y024406D01*
X020250Y024462D02*
X020508Y024720D01*
X014843Y024720D01*
X014720Y024843D01*
X013958Y025605D01*
X013918Y025564D01*
X013764Y025500D01*
X013596Y025500D01*
X013442Y025564D01*
X013324Y025682D01*
X013260Y025836D01*
X013260Y026524D01*
X013324Y026678D01*
X013442Y026796D01*
X013596Y026860D01*
X013764Y026860D01*
X013918Y026796D01*
X014036Y026678D01*
X014100Y026524D01*
X014100Y026057D01*
X014260Y025897D01*
X014260Y026524D01*
X014324Y026678D01*
X014442Y026796D01*
X014596Y026860D01*
X014764Y026860D01*
X014918Y026796D01*
X014958Y026755D01*
X015220Y027017D01*
X015343Y027140D01*
X024006Y027140D01*
X024101Y027235D01*
X024233Y027290D01*
X024377Y027290D01*
X024509Y027235D01*
X024610Y027134D01*
X024665Y027002D01*
X024665Y026858D01*
X024610Y026726D01*
X024509Y026625D01*
X027442Y026625D01*
X027600Y026784D02*
X024634Y026784D01*
X024665Y026942D02*
X029720Y026942D01*
X029720Y026996D02*
X029720Y026690D01*
X030170Y026690D01*
X030170Y027420D01*
X030144Y027420D01*
X030072Y027409D01*
X030003Y027386D01*
X029939Y027353D01*
X029880Y027311D01*
X029829Y027260D01*
X029787Y027201D01*
X029754Y027137D01*
X029731Y027068D01*
X029720Y026996D01*
X029742Y027101D02*
X024624Y027101D01*
X024451Y027259D02*
X029829Y027259D01*
X030128Y027418D02*
X001010Y027418D01*
X001010Y027576D02*
X041400Y027576D01*
X041400Y027418D02*
X030232Y027418D01*
X030216Y027420D02*
X030288Y027409D01*
X030357Y027386D01*
X030421Y027353D01*
X030480Y027311D01*
X030531Y027260D01*
X030573Y027201D01*
X030606Y027137D01*
X030629Y027068D01*
X030640Y026996D01*
X030640Y026690D01*
X030190Y026690D01*
X030190Y026670D01*
X030640Y026670D01*
X030640Y026364D01*
X030629Y026292D01*
X030606Y026223D01*
X030573Y026159D01*
X030531Y026100D01*
X030480Y026049D01*
X030421Y026007D01*
X030357Y025974D01*
X030288Y025951D01*
X030216Y025940D01*
X030190Y025940D01*
X030190Y026670D01*
X030170Y026670D01*
X030170Y025940D01*
X030144Y025940D01*
X030072Y025951D01*
X030003Y025974D01*
X029939Y026007D01*
X029880Y026049D01*
X029829Y026100D01*
X029787Y026159D01*
X029754Y026223D01*
X029731Y026292D01*
X029720Y026364D01*
X029720Y026670D01*
X030170Y026670D01*
X030170Y026690D01*
X030190Y026690D01*
X030190Y027420D01*
X030216Y027420D01*
X030190Y027418D02*
X030170Y027418D01*
X030170Y027259D02*
X030190Y027259D01*
X030190Y027101D02*
X030170Y027101D01*
X030170Y026942D02*
X030190Y026942D01*
X030190Y026784D02*
X030170Y026784D01*
X030170Y026625D02*
X030190Y026625D01*
X030190Y026467D02*
X030170Y026467D01*
X030170Y026308D02*
X030190Y026308D01*
X030190Y026150D02*
X030170Y026150D01*
X030170Y025991D02*
X030190Y025991D01*
X030391Y025991D02*
X031018Y025991D01*
X031092Y025960D02*
X030931Y026027D01*
X030807Y026151D01*
X030740Y026312D01*
X030740Y027048D01*
X030807Y027209D01*
X030931Y027333D01*
X031092Y027400D01*
X031268Y027400D01*
X031429Y027333D01*
X031553Y027209D01*
X031620Y027048D01*
X031620Y026312D01*
X031553Y026151D01*
X031429Y026027D01*
X031268Y025960D01*
X031092Y025960D01*
X031342Y025991D02*
X033018Y025991D01*
X033092Y025960D02*
X033268Y025960D01*
X033429Y026027D01*
X033553Y026151D01*
X033620Y026312D01*
X033620Y027048D01*
X033553Y027209D01*
X033429Y027333D01*
X033268Y027400D01*
X033092Y027400D01*
X032931Y027333D01*
X032807Y027209D01*
X032740Y027048D01*
X032740Y026312D01*
X032807Y026151D01*
X032931Y026027D01*
X033092Y025960D01*
X033342Y025991D02*
X034018Y025991D01*
X034092Y025960D02*
X034268Y025960D01*
X034429Y026027D01*
X034553Y026151D01*
X034620Y026312D01*
X034620Y027048D01*
X034553Y027209D01*
X034429Y027333D01*
X034268Y027400D01*
X034092Y027400D01*
X033931Y027333D01*
X033807Y027209D01*
X033740Y027048D01*
X033740Y026312D01*
X033807Y026151D01*
X033931Y026027D01*
X034092Y025960D01*
X034342Y025991D02*
X041400Y025991D01*
X041400Y025833D02*
X028516Y025833D01*
X028590Y025991D02*
X029969Y025991D01*
X029793Y026150D02*
X028590Y026150D01*
X028590Y026308D02*
X029729Y026308D01*
X029720Y026467D02*
X028577Y026467D01*
X028418Y026625D02*
X029720Y026625D01*
X029720Y026784D02*
X028260Y026784D01*
X027344Y025833D02*
X024537Y025833D01*
X024645Y025674D02*
X027503Y025674D01*
X028357Y025674D02*
X038218Y025674D01*
X037954Y025516D02*
X024665Y025516D01*
X023963Y024565D02*
X021507Y024565D01*
X021610Y024406D02*
X024070Y024406D01*
X024233Y026570D02*
X024377Y026570D01*
X024509Y026625D01*
X024233Y026570D02*
X024101Y026625D01*
X024159Y027259D02*
X001010Y027259D01*
X001010Y027101D02*
X015304Y027101D01*
X015145Y026942D02*
X001010Y026942D01*
X001010Y026784D02*
X002430Y026784D01*
X002442Y026796D02*
X002324Y026678D01*
X002260Y026524D01*
X002260Y026440D01*
X002014Y026440D01*
X001854Y026600D01*
X001506Y026600D01*
X001260Y026354D01*
X001260Y026006D01*
X001506Y025760D01*
X001854Y025760D01*
X002014Y025920D01*
X002260Y025920D01*
X002260Y025836D01*
X002324Y025682D01*
X002442Y025564D01*
X002596Y025500D01*
X002764Y025500D01*
X002918Y025564D01*
X003036Y025682D01*
X003100Y025836D01*
X003100Y026524D01*
X003036Y026678D01*
X002918Y026796D01*
X002764Y026860D01*
X002596Y026860D01*
X002442Y026796D01*
X002302Y026625D02*
X001010Y026625D01*
X001010Y026467D02*
X001373Y026467D01*
X001260Y026308D02*
X001010Y026308D01*
X001010Y026150D02*
X001260Y026150D01*
X001275Y025991D02*
X001010Y025991D01*
X001010Y025833D02*
X001433Y025833D01*
X001498Y025620D02*
X001240Y025362D01*
X001240Y025180D01*
X001680Y025180D01*
X001680Y025180D01*
X001680Y025620D01*
X001862Y025620D01*
X002120Y025362D01*
X002120Y025180D01*
X001680Y025180D01*
X001680Y025180D01*
X001680Y025180D01*
X001680Y025620D01*
X001498Y025620D01*
X001393Y025516D02*
X001010Y025516D01*
X001010Y025674D02*
X002332Y025674D01*
X002262Y025833D02*
X001927Y025833D01*
X001967Y025516D02*
X002559Y025516D01*
X002801Y025516D02*
X003559Y025516D01*
X003596Y025500D02*
X003764Y025500D01*
X003918Y025564D01*
X004036Y025682D01*
X004100Y025836D01*
X004100Y026524D01*
X004036Y026678D01*
X003918Y026796D01*
X003764Y026860D01*
X003596Y026860D01*
X003442Y026796D01*
X003324Y026678D01*
X003260Y026524D01*
X003260Y025836D01*
X003324Y025682D01*
X003442Y025564D01*
X003596Y025500D01*
X003801Y025516D02*
X004559Y025516D01*
X004596Y025500D02*
X004764Y025500D01*
X004918Y025564D01*
X005036Y025682D01*
X005100Y025836D01*
X005100Y026524D01*
X005036Y026678D01*
X004918Y026796D01*
X004764Y026860D01*
X004596Y026860D01*
X004442Y026796D01*
X004324Y026678D01*
X004260Y026524D01*
X004260Y025836D01*
X004324Y025682D01*
X004442Y025564D01*
X004596Y025500D01*
X004801Y025516D02*
X005559Y025516D01*
X005596Y025500D02*
X005764Y025500D01*
X005918Y025564D01*
X006036Y025682D01*
X006100Y025836D01*
X006100Y026524D01*
X006036Y026678D01*
X005918Y026796D01*
X005764Y026860D01*
X005596Y026860D01*
X005442Y026796D01*
X005324Y026678D01*
X005260Y026524D01*
X005260Y025836D01*
X005324Y025682D01*
X005442Y025564D01*
X005596Y025500D01*
X005801Y025516D02*
X006559Y025516D01*
X006596Y025500D02*
X006764Y025500D01*
X006918Y025564D01*
X007036Y025682D01*
X007100Y025836D01*
X007100Y026524D01*
X007036Y026678D01*
X006918Y026796D01*
X006764Y026860D01*
X006596Y026860D01*
X006442Y026796D01*
X006324Y026678D01*
X006260Y026524D01*
X006260Y025836D01*
X006324Y025682D01*
X006442Y025564D01*
X006596Y025500D01*
X006801Y025516D02*
X007559Y025516D01*
X007596Y025500D02*
X007764Y025500D01*
X007918Y025564D01*
X008036Y025682D01*
X008100Y025836D01*
X008100Y026524D01*
X008036Y026678D01*
X007918Y026796D01*
X007764Y026860D01*
X007596Y026860D01*
X007442Y026796D01*
X007324Y026678D01*
X007260Y026524D01*
X007260Y025836D01*
X007324Y025682D01*
X007442Y025564D01*
X007596Y025500D01*
X007801Y025516D02*
X008559Y025516D01*
X008596Y025500D02*
X008764Y025500D01*
X008918Y025564D01*
X009036Y025682D01*
X009100Y025836D01*
X009100Y026524D01*
X009036Y026678D01*
X008918Y026796D01*
X008764Y026860D01*
X008596Y026860D01*
X008442Y026796D01*
X008324Y026678D01*
X008260Y026524D01*
X008260Y025836D01*
X008324Y025682D01*
X008442Y025564D01*
X008596Y025500D01*
X008801Y025516D02*
X009559Y025516D01*
X009801Y025516D02*
X010047Y025516D01*
X010206Y025357D02*
X002120Y025357D01*
X002120Y025199D02*
X010364Y025199D01*
X010523Y025040D02*
X002120Y025040D01*
X002120Y024998D02*
X002120Y025180D01*
X001680Y025180D01*
X001680Y024740D01*
X001862Y024740D01*
X002120Y024998D01*
X002004Y024882D02*
X010681Y024882D01*
X010840Y024723D02*
X001010Y024723D01*
X001010Y024565D02*
X010998Y024565D01*
X011157Y024406D02*
X001010Y024406D01*
X001010Y024248D02*
X011315Y024248D01*
X011474Y024089D02*
X001010Y024089D01*
X001010Y023931D02*
X011632Y023931D01*
X011791Y023772D02*
X001010Y023772D01*
X001010Y023614D02*
X011949Y023614D01*
X012108Y023455D02*
X001010Y023455D01*
X001010Y023297D02*
X012266Y023297D01*
X012425Y023138D02*
X001010Y023138D01*
X001010Y022980D02*
X012583Y022980D01*
X012742Y022821D02*
X001010Y022821D01*
X001010Y022663D02*
X012900Y022663D01*
X013059Y022504D02*
X001010Y022504D01*
X001010Y022346D02*
X013195Y022346D01*
X013214Y022187D02*
X001010Y022187D01*
X001010Y022029D02*
X013322Y022029D01*
X013177Y022980D02*
X034857Y022980D01*
X035180Y022980D02*
X035180Y022980D01*
X035180Y022821D02*
X035180Y022821D01*
X035503Y022980D02*
X035886Y022980D01*
X035760Y022821D02*
X035620Y022821D01*
X035620Y022663D02*
X035760Y022663D01*
X035762Y022504D02*
X035620Y022504D01*
X036474Y022980D02*
X041400Y022980D01*
X041400Y023138D02*
X013019Y023138D01*
X012860Y023297D02*
X032969Y023297D01*
X032811Y023455D02*
X012702Y023455D01*
X011592Y024565D02*
X020353Y024565D01*
X014987Y026784D02*
X014930Y026784D01*
X014430Y026784D02*
X013930Y026784D01*
X014058Y026625D02*
X014302Y026625D01*
X014260Y026467D02*
X014100Y026467D01*
X014100Y026308D02*
X014260Y026308D01*
X014260Y026150D02*
X014100Y026150D01*
X014166Y025991D02*
X014260Y025991D01*
X014047Y025516D02*
X013801Y025516D01*
X013559Y025516D02*
X012801Y025516D01*
X012764Y025500D02*
X012918Y025564D01*
X013036Y025682D01*
X013100Y025836D01*
X013100Y026524D01*
X013036Y026678D01*
X012918Y026796D01*
X012764Y026860D01*
X012596Y026860D01*
X012442Y026796D01*
X012324Y026678D01*
X012260Y026524D01*
X012260Y025836D01*
X012324Y025682D01*
X012442Y025564D01*
X012596Y025500D01*
X012764Y025500D01*
X012559Y025516D02*
X011801Y025516D01*
X011764Y025500D02*
X011918Y025564D01*
X012036Y025682D01*
X012100Y025836D01*
X012100Y026524D01*
X012036Y026678D01*
X011918Y026796D01*
X011764Y026860D01*
X011596Y026860D01*
X011442Y026796D01*
X011324Y026678D01*
X011260Y026524D01*
X011260Y025836D01*
X011324Y025682D01*
X011442Y025564D01*
X011596Y025500D01*
X011764Y025500D01*
X011559Y025516D02*
X010801Y025516D01*
X010800Y025357D02*
X014206Y025357D01*
X014364Y025199D02*
X010958Y025199D01*
X011117Y025040D02*
X014523Y025040D01*
X014681Y024882D02*
X011275Y024882D01*
X011434Y024723D02*
X014840Y024723D01*
X013332Y025674D02*
X013028Y025674D01*
X013098Y025833D02*
X013262Y025833D01*
X013260Y025991D02*
X013100Y025991D01*
X013100Y026150D02*
X013260Y026150D01*
X013260Y026308D02*
X013100Y026308D01*
X013100Y026467D02*
X013260Y026467D01*
X013302Y026625D02*
X013058Y026625D01*
X012930Y026784D02*
X013430Y026784D01*
X012430Y026784D02*
X011930Y026784D01*
X012058Y026625D02*
X012302Y026625D01*
X012260Y026467D02*
X012100Y026467D01*
X012100Y026308D02*
X012260Y026308D01*
X012260Y026150D02*
X012100Y026150D01*
X012100Y025991D02*
X012260Y025991D01*
X012262Y025833D02*
X012098Y025833D01*
X012028Y025674D02*
X012332Y025674D01*
X011332Y025674D02*
X011028Y025674D01*
X011098Y025833D02*
X011262Y025833D01*
X011260Y025991D02*
X011100Y025991D01*
X011100Y026150D02*
X011260Y026150D01*
X011260Y026308D02*
X011100Y026308D01*
X011100Y026467D02*
X011260Y026467D01*
X011302Y026625D02*
X011058Y026625D01*
X010930Y026784D02*
X011430Y026784D01*
X010430Y026784D02*
X009930Y026784D01*
X010058Y026625D02*
X010302Y026625D01*
X010260Y026467D02*
X010100Y026467D01*
X010100Y026308D02*
X010260Y026308D01*
X010260Y026150D02*
X010100Y026150D01*
X010166Y025991D02*
X010260Y025991D01*
X009332Y025674D02*
X009028Y025674D01*
X009098Y025833D02*
X009262Y025833D01*
X009260Y025991D02*
X009100Y025991D01*
X009100Y026150D02*
X009260Y026150D01*
X009260Y026308D02*
X009100Y026308D01*
X009100Y026467D02*
X009260Y026467D01*
X009302Y026625D02*
X009058Y026625D01*
X008930Y026784D02*
X009430Y026784D01*
X008430Y026784D02*
X007930Y026784D01*
X008058Y026625D02*
X008302Y026625D01*
X008260Y026467D02*
X008100Y026467D01*
X008100Y026308D02*
X008260Y026308D01*
X008260Y026150D02*
X008100Y026150D01*
X008100Y025991D02*
X008260Y025991D01*
X008262Y025833D02*
X008098Y025833D01*
X008028Y025674D02*
X008332Y025674D01*
X007332Y025674D02*
X007028Y025674D01*
X007098Y025833D02*
X007262Y025833D01*
X007260Y025991D02*
X007100Y025991D01*
X007100Y026150D02*
X007260Y026150D01*
X007260Y026308D02*
X007100Y026308D01*
X007100Y026467D02*
X007260Y026467D01*
X007302Y026625D02*
X007058Y026625D01*
X006930Y026784D02*
X007430Y026784D01*
X006430Y026784D02*
X005930Y026784D01*
X006058Y026625D02*
X006302Y026625D01*
X006260Y026467D02*
X006100Y026467D01*
X006100Y026308D02*
X006260Y026308D01*
X006260Y026150D02*
X006100Y026150D01*
X006100Y025991D02*
X006260Y025991D01*
X006262Y025833D02*
X006098Y025833D01*
X006028Y025674D02*
X006332Y025674D01*
X005332Y025674D02*
X005028Y025674D01*
X005098Y025833D02*
X005262Y025833D01*
X005260Y025991D02*
X005100Y025991D01*
X005100Y026150D02*
X005260Y026150D01*
X005260Y026308D02*
X005100Y026308D01*
X005100Y026467D02*
X005260Y026467D01*
X005302Y026625D02*
X005058Y026625D01*
X004930Y026784D02*
X005430Y026784D01*
X004430Y026784D02*
X003930Y026784D01*
X004058Y026625D02*
X004302Y026625D01*
X004260Y026467D02*
X004100Y026467D01*
X004100Y026308D02*
X004260Y026308D01*
X004260Y026150D02*
X004100Y026150D01*
X004100Y025991D02*
X004260Y025991D01*
X004262Y025833D02*
X004098Y025833D01*
X004028Y025674D02*
X004332Y025674D01*
X003332Y025674D02*
X003028Y025674D01*
X003098Y025833D02*
X003262Y025833D01*
X003260Y025991D02*
X003100Y025991D01*
X003100Y026150D02*
X003260Y026150D01*
X003260Y026308D02*
X003100Y026308D01*
X003100Y026467D02*
X003260Y026467D01*
X003302Y026625D02*
X003058Y026625D01*
X002930Y026784D02*
X003430Y026784D01*
X002260Y026467D02*
X001987Y026467D01*
X001680Y025516D02*
X001680Y025516D01*
X001680Y025357D02*
X001680Y025357D01*
X001680Y025199D02*
X001680Y025199D01*
X001680Y025180D02*
X001240Y025180D01*
X001240Y024998D01*
X001498Y024740D01*
X001680Y024740D01*
X001680Y025180D01*
X001680Y025180D01*
X001680Y025040D02*
X001680Y025040D01*
X001680Y024882D02*
X001680Y024882D01*
X001356Y024882D02*
X001010Y024882D01*
X001010Y025040D02*
X001240Y025040D01*
X001240Y025199D02*
X001010Y025199D01*
X001010Y025357D02*
X001240Y025357D01*
X001010Y027735D02*
X041400Y027735D01*
X041400Y027893D02*
X001010Y027893D01*
X001010Y021236D02*
X002564Y021236D01*
X002406Y021078D02*
X001010Y021078D01*
X001010Y020919D02*
X002247Y020919D01*
X002089Y020761D02*
X001010Y020761D01*
X001010Y020602D02*
X001930Y020602D01*
X001772Y020444D02*
X001010Y020444D01*
X001010Y020285D02*
X001613Y020285D01*
X001455Y020127D02*
X001010Y020127D01*
X001010Y019968D02*
X001296Y019968D01*
X013238Y020919D02*
X014122Y020919D01*
X013964Y020761D02*
X013953Y020761D01*
X013407Y020761D02*
X013396Y020761D01*
X024578Y014579D02*
X025007Y014579D01*
X025086Y014421D02*
X024736Y014421D01*
X023627Y013311D02*
X023620Y013311D01*
X023620Y013153D02*
X023785Y013153D01*
X023944Y012994D02*
X023620Y012994D01*
X023612Y012836D02*
X025030Y012836D01*
X025000Y012677D02*
X023547Y012677D01*
X023180Y012677D02*
X023180Y012677D01*
X023180Y012836D02*
X023180Y012836D01*
X023180Y012994D02*
X023180Y012994D01*
X023180Y013153D02*
X023180Y013153D01*
X023512Y012202D02*
X025861Y012202D01*
X026455Y012202D02*
X027192Y012202D01*
X027790Y011885D02*
X028285Y011885D01*
X025199Y012043D02*
X023592Y012043D01*
X023600Y011885D02*
X025050Y011885D01*
X025000Y011726D02*
X023600Y011726D01*
X023600Y011568D02*
X025012Y011568D01*
X025097Y011409D02*
X023600Y011409D01*
X026269Y013945D02*
X026561Y013945D01*
X030890Y016481D02*
X031048Y016481D01*
X031000Y016640D02*
X030890Y016640D01*
X030890Y016798D02*
X031014Y016798D01*
X031103Y016957D02*
X030890Y016957D01*
X030792Y017115D02*
X035193Y017115D01*
X035035Y016957D02*
X033757Y016957D01*
X033846Y016798D02*
X034664Y016798D01*
X034575Y016640D02*
X033860Y016640D01*
X033812Y016481D02*
X034571Y016481D01*
X035352Y017274D02*
X033556Y017274D01*
X033524Y017260D02*
X033678Y017324D01*
X033796Y017442D01*
X033860Y017596D01*
X033860Y017764D01*
X033796Y017918D01*
X033678Y018036D01*
X033524Y018100D01*
X032836Y018100D01*
X032682Y018036D01*
X032564Y017918D01*
X032500Y017764D01*
X032500Y017596D01*
X032564Y017442D01*
X032682Y017324D01*
X032836Y017260D01*
X033524Y017260D01*
X033786Y017432D02*
X035510Y017432D01*
X035502Y017591D02*
X033858Y017591D01*
X033860Y017749D02*
X035500Y017749D01*
X035560Y017908D02*
X033800Y017908D01*
X033606Y018066D02*
X035754Y018066D01*
X035623Y018383D02*
X033737Y018383D01*
X033837Y018542D02*
X035523Y018542D01*
X035500Y018700D02*
X033860Y018700D01*
X033821Y018859D02*
X035539Y018859D01*
X035546Y019017D02*
X033697Y019017D01*
X033688Y019334D02*
X035229Y019334D01*
X035387Y019176D02*
X032973Y019176D01*
X032539Y018859D02*
X032321Y018859D01*
X032360Y018700D02*
X032500Y018700D01*
X032523Y018542D02*
X032337Y018542D01*
X032237Y018383D02*
X032623Y018383D01*
X032754Y018066D02*
X032106Y018066D01*
X032178Y018036D02*
X032024Y018100D01*
X031336Y018100D01*
X031182Y018036D01*
X031064Y017918D01*
X031000Y017764D01*
X031000Y017596D01*
X031064Y017442D01*
X031182Y017324D01*
X031336Y017260D01*
X032024Y017260D01*
X032178Y017324D01*
X032296Y017442D01*
X032360Y017596D01*
X032360Y017764D01*
X032296Y017918D01*
X032178Y018036D01*
X032300Y017908D02*
X032560Y017908D01*
X032500Y017749D02*
X032360Y017749D01*
X032358Y017591D02*
X032502Y017591D01*
X032574Y017432D02*
X032286Y017432D01*
X032056Y017274D02*
X032804Y017274D01*
X032603Y016957D02*
X032257Y016957D01*
X032346Y016798D02*
X032514Y016798D01*
X032500Y016640D02*
X032360Y016640D01*
X032312Y016481D02*
X032548Y016481D01*
X031304Y017274D02*
X030633Y017274D01*
X030475Y017432D02*
X031074Y017432D01*
X031002Y017591D02*
X030316Y017591D01*
X030158Y017749D02*
X031000Y017749D01*
X031060Y017908D02*
X029999Y017908D01*
X029841Y018066D02*
X031254Y018066D01*
X037140Y018225D02*
X037736Y018225D01*
X037633Y018383D02*
X037140Y018383D01*
X037140Y018542D02*
X037591Y018542D01*
X037593Y018700D02*
X037140Y018700D01*
X037140Y018859D02*
X037659Y018859D01*
X037799Y019017D02*
X037140Y019017D01*
X037140Y019176D02*
X037954Y019176D01*
X038016Y019150D02*
X038226Y019150D01*
X038421Y019231D01*
X038570Y019380D01*
X038651Y019575D01*
X038651Y019785D01*
X038570Y019980D01*
X038421Y020129D01*
X038226Y020210D01*
X038016Y020210D01*
X037821Y020129D01*
X037672Y019980D01*
X037591Y019785D01*
X037591Y019575D01*
X037672Y019380D01*
X037821Y019231D01*
X038016Y019150D01*
X038288Y019176D02*
X038709Y019176D01*
X038709Y019242D02*
X038709Y019031D01*
X038790Y018836D01*
X038939Y018687D01*
X039134Y018607D01*
X039344Y018607D01*
X039539Y018687D01*
X039688Y018836D01*
X039769Y019031D01*
X039769Y019242D01*
X039688Y019437D01*
X039539Y019586D01*
X039344Y019667D01*
X039134Y019667D01*
X038939Y019586D01*
X038790Y019437D01*
X038709Y019242D01*
X038747Y019334D02*
X038525Y019334D01*
X038617Y019493D02*
X038845Y019493D01*
X038651Y019651D02*
X039096Y019651D01*
X039134Y019693D02*
X039344Y019693D01*
X039539Y019774D01*
X039688Y019923D01*
X039769Y020118D01*
X039769Y020329D01*
X039688Y020524D01*
X039539Y020673D01*
X039344Y020753D01*
X039134Y020753D01*
X038939Y020673D01*
X038790Y020524D01*
X038709Y020329D01*
X038709Y020118D01*
X038790Y019923D01*
X038939Y019774D01*
X039134Y019693D01*
X039382Y019651D02*
X041400Y019651D01*
X041400Y019493D02*
X039633Y019493D01*
X039731Y019334D02*
X041400Y019334D01*
X041400Y019176D02*
X039769Y019176D01*
X039763Y019017D02*
X041400Y019017D01*
X041400Y018859D02*
X039698Y018859D01*
X039552Y018700D02*
X041400Y018700D01*
X041400Y018542D02*
X039428Y018542D01*
X039652Y018383D02*
X041400Y018383D01*
X041400Y018225D02*
X039739Y018225D01*
X039769Y018066D02*
X041400Y018066D01*
X041400Y017908D02*
X039755Y017908D01*
X039690Y017749D02*
X041400Y017749D01*
X041400Y017591D02*
X039524Y017591D01*
X038739Y018225D02*
X038506Y018225D01*
X038609Y018383D02*
X038826Y018383D01*
X038651Y018542D02*
X039050Y018542D01*
X038926Y018700D02*
X038649Y018700D01*
X038583Y018859D02*
X038781Y018859D01*
X038715Y019017D02*
X038443Y019017D01*
X037717Y019334D02*
X037140Y019334D01*
X037140Y019493D02*
X037625Y019493D01*
X037591Y019651D02*
X037140Y019651D01*
X037140Y019810D02*
X037601Y019810D01*
X037667Y019968D02*
X037140Y019968D01*
X037140Y020127D02*
X037818Y020127D01*
X037908Y020285D02*
X037140Y020285D01*
X037140Y020444D02*
X037698Y020444D01*
X037672Y020470D02*
X037821Y020321D01*
X038016Y020241D01*
X038226Y020241D01*
X038421Y020321D01*
X038570Y020470D01*
X038651Y020665D01*
X038651Y020876D01*
X038570Y021071D01*
X038421Y021220D01*
X038226Y021301D01*
X038016Y021301D01*
X037821Y021220D01*
X037672Y021071D01*
X037591Y020876D01*
X037591Y020665D01*
X037672Y020470D01*
X037617Y020602D02*
X037140Y020602D01*
X037140Y020761D02*
X037591Y020761D01*
X037609Y020919D02*
X037140Y020919D01*
X037140Y021078D02*
X037678Y021078D01*
X037860Y021236D02*
X037140Y021236D01*
X037140Y021395D02*
X037621Y021395D01*
X037591Y021425D02*
X037685Y021331D01*
X038557Y021331D01*
X038651Y021425D01*
X038651Y022297D01*
X038557Y022391D01*
X037685Y022391D01*
X037591Y022297D01*
X037591Y021425D01*
X037591Y021553D02*
X037140Y021553D01*
X037140Y021712D02*
X037591Y021712D01*
X037591Y021870D02*
X037140Y021870D01*
X037003Y022029D02*
X037591Y022029D01*
X037591Y022187D02*
X036845Y022187D01*
X036686Y022346D02*
X037639Y022346D01*
X038603Y022346D02*
X041400Y022346D01*
X041400Y022504D02*
X036598Y022504D01*
X036600Y022663D02*
X041400Y022663D01*
X041400Y022821D02*
X036600Y022821D01*
X036354Y023260D02*
X036006Y023260D01*
X035760Y023506D01*
X035760Y023854D01*
X036006Y024100D01*
X036354Y024100D01*
X036600Y023854D01*
X036600Y023506D01*
X036354Y023260D01*
X036391Y023297D02*
X041400Y023297D01*
X041400Y023455D02*
X038884Y023455D01*
X038476Y023455D02*
X036549Y023455D01*
X036600Y023614D02*
X038071Y023614D01*
X037869Y023772D02*
X036600Y023772D01*
X036523Y023931D02*
X037728Y023931D01*
X037636Y024089D02*
X036365Y024089D01*
X035995Y024089D02*
X033365Y024089D01*
X033523Y023931D02*
X035837Y023931D01*
X035760Y023772D02*
X033600Y023772D01*
X033600Y023614D02*
X035760Y023614D01*
X035811Y023455D02*
X033549Y023455D01*
X033391Y023297D02*
X035969Y023297D01*
X038651Y022187D02*
X041400Y022187D01*
X041400Y022029D02*
X038651Y022029D01*
X038651Y021870D02*
X041400Y021870D01*
X041400Y021712D02*
X039591Y021712D01*
X039539Y021763D02*
X039344Y021844D01*
X039134Y021844D01*
X038939Y021763D01*
X038790Y021614D01*
X038709Y021419D01*
X038709Y021208D01*
X038790Y021014D01*
X038939Y020865D01*
X039134Y020784D01*
X039344Y020784D01*
X039539Y020865D01*
X039688Y021014D01*
X039769Y021208D01*
X039769Y021419D01*
X039688Y021614D01*
X039539Y021763D01*
X039714Y021553D02*
X041400Y021553D01*
X041400Y021395D02*
X039769Y021395D01*
X039769Y021236D02*
X041400Y021236D01*
X041400Y021078D02*
X039715Y021078D01*
X039594Y020919D02*
X041400Y020919D01*
X041400Y020761D02*
X038651Y020761D01*
X038633Y020919D02*
X038884Y020919D01*
X038763Y021078D02*
X038563Y021078D01*
X038709Y021236D02*
X038382Y021236D01*
X038621Y021395D02*
X038709Y021395D01*
X038764Y021553D02*
X038651Y021553D01*
X038651Y021712D02*
X038887Y021712D01*
X038868Y020602D02*
X038625Y020602D01*
X038543Y020444D02*
X038757Y020444D01*
X038709Y020285D02*
X038334Y020285D01*
X038424Y020127D02*
X038709Y020127D01*
X038771Y019968D02*
X038575Y019968D01*
X038641Y019810D02*
X038903Y019810D01*
X039575Y019810D02*
X041400Y019810D01*
X041400Y019968D02*
X039707Y019968D01*
X039769Y020127D02*
X041400Y020127D01*
X041400Y020285D02*
X039769Y020285D01*
X039722Y020444D02*
X041400Y020444D01*
X041400Y020602D02*
X039610Y020602D01*
X039289Y023614D02*
X041400Y023614D01*
X041400Y023772D02*
X039491Y023772D01*
X039632Y023931D02*
X041400Y023931D01*
X041400Y024089D02*
X039724Y024089D01*
X039786Y024248D02*
X041400Y024248D01*
X041400Y024406D02*
X039829Y024406D01*
X039840Y024565D02*
X041400Y024565D01*
X041400Y024723D02*
X039840Y024723D01*
X039806Y024882D02*
X041400Y024882D01*
X041400Y025040D02*
X039763Y025040D01*
X039675Y025199D02*
X041400Y025199D01*
X041400Y025357D02*
X039565Y025357D01*
X039406Y025516D02*
X041400Y025516D01*
X041400Y025674D02*
X039142Y025674D01*
X041400Y026150D02*
X034552Y026150D01*
X034618Y026308D02*
X041400Y026308D01*
X041400Y026467D02*
X034620Y026467D01*
X034620Y026625D02*
X041400Y026625D01*
X041400Y026784D02*
X034620Y026784D01*
X034620Y026942D02*
X041400Y026942D01*
X041400Y027101D02*
X034598Y027101D01*
X034503Y027259D02*
X041400Y027259D01*
X033857Y027259D02*
X033503Y027259D01*
X033598Y027101D02*
X033762Y027101D01*
X033740Y026942D02*
X033620Y026942D01*
X033620Y026784D02*
X033740Y026784D01*
X033740Y026625D02*
X033620Y026625D01*
X033620Y026467D02*
X033740Y026467D01*
X033742Y026308D02*
X033618Y026308D01*
X033552Y026150D02*
X033808Y026150D01*
X032808Y026150D02*
X031552Y026150D01*
X031618Y026308D02*
X032742Y026308D01*
X032740Y026467D02*
X031620Y026467D01*
X031620Y026625D02*
X032740Y026625D01*
X032740Y026784D02*
X031620Y026784D01*
X031620Y026942D02*
X032740Y026942D01*
X032762Y027101D02*
X031598Y027101D01*
X031503Y027259D02*
X032857Y027259D01*
X030857Y027259D02*
X030531Y027259D01*
X030618Y027101D02*
X030762Y027101D01*
X030740Y026942D02*
X030640Y026942D01*
X030640Y026784D02*
X030740Y026784D01*
X030740Y026625D02*
X030640Y026625D01*
X030640Y026467D02*
X030740Y026467D01*
X030742Y026308D02*
X030631Y026308D01*
X030567Y026150D02*
X030808Y026150D01*
X036800Y010934D02*
X037804Y010934D01*
X022740Y008556D02*
X022600Y008556D01*
M02*
