G75*
%MOIN*%
%OFA0B0*%
%FSLAX24Y24*%
%IPPOS*%
%LPD*%
%AMOC8*
5,1,8,0,0,1.08239X$1,22.5*
%
%ADD10R,0.0600X0.2550*%
%ADD11OC8,0.0520*%
%ADD12OC8,0.0600*%
%ADD13C,0.0520*%
%ADD14C,0.2000*%
%ADD15C,0.0100*%
%ADD16C,0.0400*%
%ADD17C,0.0200*%
%ADD18C,0.0160*%
D10*
X001680Y001940D03*
X002680Y001940D03*
X003680Y001940D03*
X004680Y001940D03*
X005680Y001940D03*
X006680Y001940D03*
X007680Y001940D03*
X008680Y001940D03*
X009680Y001940D03*
X010680Y001940D03*
X011680Y001940D03*
X012680Y001940D03*
X013680Y001940D03*
X014680Y001940D03*
X015680Y001940D03*
X016680Y001940D03*
X017680Y001940D03*
X018680Y001940D03*
X019680Y001940D03*
X020680Y001940D03*
X021680Y001940D03*
X022680Y001940D03*
X023680Y001940D03*
X024680Y001940D03*
X025680Y001940D03*
X026680Y001940D03*
X027680Y001940D03*
X028680Y001940D03*
X029680Y001940D03*
X030680Y001940D03*
X031680Y001940D03*
D11*
X033680Y007940D03*
X034680Y007940D03*
X034680Y008940D03*
X033680Y008940D03*
X032180Y010440D03*
X031180Y010440D03*
X030180Y010440D03*
X032180Y011440D03*
X031180Y011940D03*
X030180Y011940D03*
X030180Y013940D03*
X031180Y013940D03*
X032180Y013940D03*
X032180Y014940D03*
X031180Y015440D03*
X030180Y015440D03*
X028180Y015440D03*
X028180Y016440D03*
X033680Y016440D03*
X034680Y016440D03*
X034680Y017440D03*
X033680Y017440D03*
X035180Y014940D03*
X035180Y013940D03*
X035180Y011440D03*
X035180Y010440D03*
X019180Y016940D03*
X019180Y017940D03*
X010680Y017440D03*
X010680Y016440D03*
X014680Y011440D03*
X014680Y010440D03*
X000680Y010440D03*
X000680Y011440D03*
D12*
X001680Y005940D03*
X002680Y005940D03*
X003680Y005940D03*
X004680Y005940D03*
X005680Y005940D03*
X006680Y005940D03*
X007680Y005940D03*
X008680Y005940D03*
X009680Y005940D03*
X010680Y005940D03*
X011680Y005940D03*
X012680Y005940D03*
X013680Y005940D03*
X014680Y005940D03*
X015680Y005940D03*
X016680Y005940D03*
X017680Y005940D03*
X018680Y005940D03*
X019680Y005940D03*
X020680Y005940D03*
X021680Y005940D03*
X022680Y005940D03*
X023680Y005940D03*
X024680Y005940D03*
X025680Y005940D03*
X026680Y005940D03*
X027680Y005940D03*
X028680Y005940D03*
X029680Y005940D03*
X030680Y005940D03*
X031680Y005940D03*
X031680Y004940D03*
X030680Y004940D03*
X029680Y004940D03*
X028680Y004940D03*
X027680Y004940D03*
X026680Y004940D03*
X025680Y004940D03*
X024680Y004940D03*
X023680Y004940D03*
X022680Y004940D03*
X021680Y004940D03*
X020680Y004940D03*
X019680Y004940D03*
X018680Y004940D03*
X017680Y004940D03*
X016680Y004940D03*
X015680Y004940D03*
X014680Y004940D03*
X013680Y004940D03*
X012680Y004940D03*
X011680Y004940D03*
X010680Y004940D03*
X009680Y004940D03*
X008680Y004940D03*
X007680Y004940D03*
X006680Y004940D03*
X005680Y004940D03*
X004680Y004940D03*
X003680Y004940D03*
X002680Y004940D03*
X001680Y004940D03*
X037680Y006160D03*
X038680Y006700D03*
X037680Y007240D03*
X038680Y007780D03*
X037680Y008320D03*
X038680Y008860D03*
X037680Y009400D03*
X038680Y009940D03*
X037680Y010480D03*
X038680Y011020D03*
X037680Y011560D03*
X038680Y012100D03*
X037680Y012640D03*
X038680Y013180D03*
X037680Y013720D03*
D13*
X027180Y014180D02*
X027180Y014700D01*
X026180Y014700D02*
X026180Y014180D01*
X025180Y014180D02*
X025180Y014700D01*
X024180Y014700D02*
X024180Y014180D01*
X023180Y014180D02*
X023180Y014700D01*
X022180Y014700D02*
X022180Y014180D01*
X021180Y014180D02*
X021180Y014700D01*
X020180Y014700D02*
X020180Y014180D01*
X020180Y013200D02*
X020180Y012680D01*
X019180Y012680D02*
X019180Y013200D01*
X018180Y013200D02*
X018180Y012680D01*
X017180Y012680D02*
X017180Y013200D01*
X016680Y014180D02*
X016680Y014700D01*
X015680Y014700D02*
X015680Y014180D01*
X014680Y014180D02*
X014680Y014700D01*
X013680Y014700D02*
X013680Y014180D01*
X012680Y014180D02*
X012680Y014700D01*
X011680Y014700D02*
X011680Y014180D01*
X009680Y013200D02*
X009680Y012680D01*
X008680Y012680D02*
X008680Y013200D01*
X007680Y013200D02*
X007680Y012680D01*
X006680Y012680D02*
X006680Y013200D01*
X005680Y013200D02*
X005680Y012680D01*
X004680Y012680D02*
X004680Y013200D01*
X003680Y013200D02*
X003680Y012680D01*
X002680Y012680D02*
X002680Y013200D01*
X001680Y013200D02*
X001680Y012680D01*
X001680Y011700D02*
X001680Y011180D01*
X002680Y011180D02*
X002680Y011700D01*
X003680Y011700D02*
X003680Y011180D01*
X004680Y011180D02*
X004680Y011700D01*
X005680Y011700D02*
X005680Y011180D01*
X006680Y011180D02*
X006680Y011700D01*
X007680Y011700D02*
X007680Y011180D01*
X008680Y011180D02*
X008680Y011700D01*
X009680Y011700D02*
X009680Y011180D01*
X010680Y011180D02*
X010680Y011700D01*
X015680Y011700D02*
X015680Y011180D01*
X016680Y011180D02*
X016680Y011700D01*
X017680Y011700D02*
X017680Y011180D01*
X018680Y011180D02*
X018680Y011700D01*
X019680Y011700D02*
X019680Y011180D01*
X020680Y011180D02*
X020680Y011700D01*
X021680Y011700D02*
X021680Y011180D01*
X022680Y011180D02*
X022680Y011700D01*
X023680Y011700D02*
X023680Y011180D01*
X024680Y011180D02*
X024680Y011700D01*
X024180Y012680D02*
X024180Y013200D01*
X023180Y013200D02*
X023180Y012680D01*
X022180Y012680D02*
X022180Y013200D01*
X021180Y013200D02*
X021180Y012680D01*
X017680Y014180D02*
X017680Y014700D01*
X017680Y017180D02*
X017680Y017700D01*
X016680Y017700D02*
X016680Y017180D01*
X015680Y017180D02*
X015680Y017700D01*
X014680Y017700D02*
X014680Y017180D01*
X013680Y017180D02*
X013680Y017700D01*
X012680Y017700D02*
X012680Y017180D01*
X011680Y017180D02*
X011680Y017700D01*
X008680Y017700D02*
X008680Y017180D01*
X007680Y017180D02*
X007680Y017700D01*
X006680Y017700D02*
X006680Y017180D01*
X005680Y017180D02*
X005680Y017700D01*
X004680Y017700D02*
X004680Y017180D01*
X003680Y017180D02*
X003680Y017700D01*
X002680Y017700D02*
X002680Y017180D01*
X001680Y017180D02*
X001680Y017700D01*
X001680Y014700D02*
X001680Y014180D01*
X002680Y014180D02*
X002680Y014700D01*
X003680Y014700D02*
X003680Y014180D01*
X004680Y014180D02*
X004680Y014700D01*
X005680Y014700D02*
X005680Y014180D01*
X006680Y014180D02*
X006680Y014700D01*
X007680Y014700D02*
X007680Y014180D01*
X008680Y014180D02*
X008680Y014700D01*
X020180Y017180D02*
X020180Y017700D01*
X021180Y017700D02*
X021180Y017180D01*
X022180Y017180D02*
X022180Y017700D01*
X023180Y017700D02*
X023180Y017180D01*
X024180Y017180D02*
X024180Y017700D01*
X025180Y017700D02*
X025180Y017180D01*
X026180Y017180D02*
X026180Y017700D01*
X027180Y017700D02*
X027180Y017180D01*
X025180Y013200D02*
X025180Y012680D01*
X024680Y008700D02*
X024680Y008180D01*
X023680Y008180D02*
X023680Y008700D01*
X022680Y008700D02*
X022680Y008180D01*
X021680Y008180D02*
X021680Y008700D01*
X020680Y008700D02*
X020680Y008180D01*
X019680Y008180D02*
X019680Y008700D01*
X018680Y008700D02*
X018680Y008180D01*
X017680Y008180D02*
X017680Y008700D01*
X016680Y008700D02*
X016680Y008180D01*
X015680Y008180D02*
X015680Y008700D01*
X010680Y008700D02*
X010680Y008180D01*
X009680Y008180D02*
X009680Y008700D01*
X008680Y008700D02*
X008680Y008180D01*
X007680Y008180D02*
X007680Y008700D01*
X006680Y008700D02*
X006680Y008180D01*
X005680Y008180D02*
X005680Y008700D01*
X004680Y008700D02*
X004680Y008180D01*
X003680Y008180D02*
X003680Y008700D01*
X002680Y008700D02*
X002680Y008180D01*
X001680Y008180D02*
X001680Y008700D01*
D14*
X038180Y003380D03*
X038180Y016500D03*
D15*
X035280Y016855D02*
X035280Y015775D01*
X034785Y015280D01*
X034785Y014965D01*
X031275Y011455D01*
X024705Y011455D01*
X024680Y011440D01*
X024660Y011455D01*
X023985Y012130D01*
X023175Y012130D01*
X022365Y012940D01*
X022180Y012940D01*
X021780Y012715D02*
X021780Y013390D01*
X022005Y013615D01*
X024480Y013615D01*
X025155Y012940D01*
X025180Y012940D01*
X025020Y012265D02*
X024345Y012940D01*
X024180Y012940D01*
X025020Y012265D02*
X029070Y012265D01*
X030780Y013975D01*
X030780Y014110D01*
X032715Y016045D01*
X034290Y016045D01*
X034650Y016405D01*
X034680Y016440D01*
X034830Y016855D02*
X035100Y016585D01*
X035100Y015865D01*
X031185Y011950D01*
X031180Y011940D01*
X031180Y013940D02*
X031185Y013975D01*
X032175Y013975D01*
X032180Y013940D01*
X031590Y015280D02*
X030780Y014470D01*
X027180Y014470D01*
X027180Y014440D01*
X027765Y015280D02*
X028035Y015010D01*
X030735Y015010D01*
X031140Y015415D01*
X031180Y015440D01*
X031590Y015595D02*
X031590Y015280D01*
X031590Y015595D02*
X031320Y015865D01*
X021780Y015865D01*
X020610Y014695D01*
X020610Y014020D01*
X020205Y013615D01*
X019890Y013615D01*
X019215Y012940D01*
X019180Y012940D01*
X018180Y012940D02*
X019665Y014425D01*
X020160Y014425D01*
X020180Y014440D01*
X021180Y014440D02*
X021195Y014470D01*
X021375Y014470D01*
X022185Y015280D01*
X027765Y015280D01*
X025180Y014440D02*
X025155Y014470D01*
X024975Y014470D01*
X024345Y015100D01*
X022815Y015100D01*
X022185Y014470D01*
X022180Y014440D01*
X021780Y012715D02*
X021330Y012265D01*
X019665Y012265D01*
X018855Y011455D01*
X018720Y011455D01*
X018680Y011440D01*
X020680Y011440D02*
X020700Y011410D01*
X020880Y011410D01*
X021510Y010780D01*
X023085Y010780D01*
X023175Y010870D01*
X023680Y011440D02*
X023715Y011410D01*
X023895Y011410D01*
X026820Y008485D01*
X027675Y008485D01*
X027000Y008035D02*
X025560Y009475D01*
X017325Y009475D01*
X017190Y009115D02*
X018855Y009115D01*
X019260Y008710D01*
X019260Y008035D01*
X021330Y005965D01*
X021645Y005965D01*
X021680Y005940D01*
X019665Y004975D02*
X019680Y004940D01*
X019665Y004930D01*
X019665Y001960D01*
X019680Y001940D01*
X018680Y001940D02*
X018675Y001960D01*
X018675Y004930D01*
X018680Y004940D01*
X018855Y005380D02*
X019170Y005065D01*
X019170Y003445D01*
X017685Y004930D02*
X017680Y004940D01*
X017685Y004930D02*
X017685Y001960D01*
X017680Y001940D01*
X016695Y001960D02*
X016680Y001940D01*
X016695Y001960D02*
X016695Y004930D01*
X016680Y004940D01*
X015705Y004930D02*
X015680Y004940D01*
X015705Y004930D02*
X015705Y001960D01*
X015680Y001940D01*
X014680Y001940D02*
X014670Y001960D01*
X014670Y004930D01*
X014680Y004940D01*
X013680Y004940D02*
X013680Y001940D01*
X012690Y001960D02*
X012680Y001940D01*
X012690Y001960D02*
X012690Y004930D01*
X012680Y004940D01*
X011700Y004930D02*
X011680Y004940D01*
X011700Y004930D02*
X011700Y001960D01*
X011680Y001940D01*
X010680Y001940D02*
X010665Y001960D01*
X010665Y004930D01*
X010680Y004940D01*
X009680Y004940D02*
X009675Y004930D01*
X009675Y001960D01*
X009680Y001940D01*
X008685Y001960D02*
X008680Y001940D01*
X008685Y001960D02*
X008685Y004930D01*
X008680Y004940D01*
X008145Y005470D02*
X008145Y004300D01*
X007695Y004930D02*
X007680Y004940D01*
X007695Y004930D02*
X007695Y001960D01*
X007680Y001940D01*
X006705Y001960D02*
X006680Y001940D01*
X006705Y001960D02*
X006705Y004930D01*
X006680Y004940D01*
X005680Y004940D02*
X005670Y004930D01*
X005670Y001960D01*
X005680Y001940D01*
X004680Y001940D02*
X004680Y004940D01*
X003150Y005110D02*
X003150Y003445D01*
X002700Y004930D02*
X002680Y004940D01*
X002700Y004930D02*
X002700Y001960D01*
X002680Y001940D01*
X003150Y005110D02*
X002700Y005560D01*
X002700Y005920D01*
X002680Y005940D01*
X004050Y007225D02*
X008955Y007225D01*
X008280Y006550D02*
X007695Y005965D01*
X007680Y005940D01*
X007695Y005920D01*
X008145Y005470D01*
X008680Y005940D02*
X008685Y005965D01*
X009090Y006370D01*
X009720Y006370D01*
X011295Y007945D01*
X011295Y009160D01*
X011070Y008890D02*
X010935Y009025D01*
X010935Y010645D01*
X010710Y010870D01*
X010710Y011410D01*
X010680Y011440D01*
X011655Y011815D02*
X011655Y007900D01*
X009720Y005965D01*
X009680Y005940D01*
X009630Y006550D02*
X008280Y006550D01*
X009630Y006550D02*
X011070Y007990D01*
X011070Y008890D01*
X014670Y010870D02*
X015075Y010870D01*
X017280Y008665D01*
X017280Y007990D01*
X019215Y006055D01*
X019215Y005425D01*
X019665Y004975D01*
X018855Y005380D02*
X018630Y005380D01*
X018225Y005785D01*
X018225Y006100D01*
X018315Y006190D01*
X018315Y006415D01*
X019845Y008440D02*
X020925Y007360D01*
X023625Y007360D01*
X023940Y007720D02*
X024075Y007585D01*
X023940Y007720D02*
X022545Y007720D01*
X021825Y008440D01*
X021680Y008440D01*
X019845Y008440D02*
X019680Y008440D01*
X017190Y009115D02*
X015255Y011050D01*
X015255Y011455D01*
X013275Y013435D01*
X013275Y014695D01*
X012690Y015280D01*
X003690Y015280D01*
X003285Y014875D01*
X003285Y014200D01*
X002835Y013750D01*
X002655Y013750D01*
X002250Y013345D01*
X002250Y011185D01*
X001710Y010645D01*
X001710Y008440D01*
X001680Y008440D01*
X003285Y007990D02*
X004050Y007225D01*
X004500Y007765D02*
X005850Y007765D01*
X006255Y008170D01*
X006255Y008890D01*
X008280Y010915D01*
X008280Y012580D01*
X008640Y012940D01*
X008680Y012940D01*
X008100Y012535D02*
X007695Y012940D01*
X007680Y012940D01*
X008100Y012535D02*
X008100Y011005D01*
X005715Y008620D01*
X005715Y008440D01*
X005680Y008440D01*
X004500Y007765D02*
X003825Y008440D01*
X003680Y008440D01*
X003285Y007990D02*
X003285Y008890D01*
X004680Y010285D01*
X004680Y011440D01*
X004365Y012265D02*
X003690Y012940D01*
X003680Y012940D01*
X003285Y012715D02*
X003285Y013390D01*
X003645Y013750D01*
X004815Y013750D01*
X005265Y014200D01*
X005265Y014875D01*
X005490Y015100D01*
X012015Y015100D01*
X012645Y014470D01*
X012680Y014440D01*
X011700Y014425D02*
X011680Y014440D01*
X011700Y014425D02*
X011700Y013840D01*
X014670Y010870D01*
X011655Y011815D02*
X009855Y013615D01*
X005535Y013615D01*
X005490Y013570D01*
X005265Y013570D01*
X003285Y012715D02*
X002700Y012130D01*
X002700Y011455D01*
X002680Y011440D01*
X004365Y012265D02*
X006705Y012265D01*
X007515Y011455D01*
X007650Y011455D01*
X007680Y011440D01*
X013680Y014440D02*
X013680Y014470D01*
X013860Y014470D01*
X015840Y016450D01*
X021150Y016450D01*
X022140Y017440D01*
X022180Y017440D01*
X022185Y017485D01*
X022815Y018115D01*
X024345Y018115D01*
X025020Y017440D01*
X025180Y017440D01*
X022185Y018295D02*
X032265Y018295D01*
X033705Y016855D01*
X034830Y016855D01*
X035280Y016855D02*
X034695Y017440D01*
X034680Y017440D01*
X035180Y014940D02*
X035190Y014920D01*
X035190Y014515D01*
X037665Y012040D01*
X037665Y011590D01*
X037680Y011560D01*
X034245Y008350D02*
X033525Y008350D01*
X033345Y008170D01*
X028485Y008170D01*
X028440Y007225D02*
X029385Y007225D01*
X030645Y005965D01*
X030680Y005940D01*
X029680Y005940D02*
X029655Y005920D01*
X029250Y005515D01*
X029250Y004750D01*
X029295Y004705D01*
X029295Y004435D01*
X028680Y004940D02*
X028665Y004930D01*
X028665Y001960D01*
X028680Y001940D01*
X027680Y001940D02*
X027675Y001960D01*
X027675Y004930D01*
X027680Y004940D01*
X026685Y004930D02*
X026680Y004940D01*
X026685Y004930D02*
X026685Y001960D01*
X026680Y001940D01*
X025695Y001960D02*
X025680Y001940D01*
X025695Y001960D02*
X025695Y004930D01*
X025680Y004940D01*
X024705Y004930D02*
X024680Y004940D01*
X024705Y004930D02*
X024705Y001960D01*
X024680Y001940D01*
X023680Y001940D02*
X023670Y001960D01*
X023670Y004930D01*
X023680Y004940D01*
X021690Y004930D02*
X021680Y004940D01*
X021690Y004930D02*
X021690Y001960D01*
X021680Y001940D01*
X020700Y001960D02*
X020680Y001940D01*
X020700Y001960D02*
X020700Y004930D01*
X020680Y004940D01*
X024930Y007225D02*
X026415Y007225D01*
X027675Y005965D01*
X027680Y005940D01*
X028665Y005965D02*
X028680Y005940D01*
X028665Y005965D02*
X027585Y007045D01*
X028665Y006730D02*
X028890Y006730D01*
X029680Y005940D01*
X030680Y004940D02*
X030690Y004930D01*
X030690Y001960D01*
X030680Y001940D01*
X034650Y007945D02*
X034680Y007940D01*
X034650Y007945D02*
X034245Y008350D01*
X022185Y018295D02*
X021330Y017440D01*
X021180Y017440D01*
D16*
X020520Y018160D03*
X005265Y013570D03*
X011295Y009160D03*
X008955Y007225D03*
X008145Y004300D03*
X003150Y003445D03*
X017325Y009475D03*
X023175Y010870D03*
X027675Y008485D03*
X027000Y008035D03*
X028485Y008170D03*
X028440Y007225D03*
X028665Y006730D03*
X027585Y007045D03*
X024930Y007225D03*
X024075Y007585D03*
X023625Y007360D03*
X018315Y006415D03*
X019170Y003445D03*
X029295Y004435D03*
D17*
X029680Y004940D02*
X029700Y004930D01*
X029700Y001960D01*
X029680Y001940D01*
X031680Y001940D02*
X031680Y004940D01*
X031725Y005020D01*
X031725Y005290D01*
X033660Y007225D01*
X033660Y007900D01*
X033680Y007940D01*
X033680Y008940D02*
X033750Y009025D01*
X034110Y009385D01*
X037665Y009385D01*
X037680Y009400D01*
X033680Y008940D02*
X033660Y008980D01*
X031995Y008980D01*
X030555Y010420D01*
X030195Y010420D01*
X030180Y010440D01*
X030105Y010375D01*
X027360Y007630D01*
X024660Y007630D01*
X023175Y006145D01*
X023175Y005470D01*
X022680Y004975D01*
X022680Y004940D01*
X022680Y001940D01*
X024660Y007630D02*
X024660Y008440D01*
X024680Y008440D01*
X017145Y012940D02*
X015660Y011455D01*
X015680Y011440D01*
X017145Y012940D02*
X017180Y012940D01*
X017680Y014440D02*
X017685Y014470D01*
X019350Y016135D01*
X022770Y016135D01*
X024030Y017395D01*
X024120Y017395D01*
X024180Y017440D01*
X024210Y017440D01*
X025200Y016450D01*
X028170Y016450D01*
X028180Y016440D01*
X020520Y018160D02*
X019395Y018160D01*
X019215Y017980D01*
X019180Y017940D01*
X019125Y018025D01*
X018000Y018025D01*
X017865Y018160D01*
X012420Y018160D01*
X011700Y017440D01*
X011680Y017440D01*
X016680Y017440D02*
X016695Y017440D01*
X017415Y016720D01*
X017865Y016720D01*
X018045Y016900D01*
X019170Y016900D01*
X019180Y016940D01*
X010125Y012535D02*
X009720Y012940D01*
X009680Y012940D01*
X010125Y012535D02*
X010125Y011095D01*
X010665Y010555D01*
X010665Y008440D01*
X010680Y008440D01*
X010620Y008350D01*
X009090Y006820D01*
X000720Y006820D01*
X000720Y010420D01*
X000680Y010440D01*
X000720Y006820D02*
X000720Y005920D01*
X001665Y004975D01*
X001680Y004940D01*
X001665Y004840D01*
X001665Y001960D01*
X001680Y001940D01*
X003680Y001940D02*
X003690Y001960D01*
X003690Y004930D01*
X003680Y004940D01*
D18*
X004140Y004988D02*
X004220Y004988D01*
X004220Y005131D02*
X004220Y004749D01*
X004470Y004499D01*
X004470Y004440D01*
X003950Y004440D01*
X003950Y004559D01*
X004140Y004749D01*
X004140Y005131D01*
X003871Y005400D01*
X003489Y005400D01*
X003323Y005234D01*
X003237Y005320D01*
X002974Y005583D01*
X003140Y005749D01*
X003140Y006131D01*
X002871Y006400D01*
X002489Y006400D01*
X002220Y006131D01*
X002220Y005749D01*
X002489Y005480D01*
X002490Y005480D01*
X002490Y005473D01*
X002563Y005400D01*
X002489Y005400D01*
X002220Y005131D01*
X002220Y004749D01*
X002489Y004480D01*
X002490Y004480D01*
X002490Y004440D01*
X000460Y004440D01*
X000460Y010038D01*
X000498Y010000D01*
X000680Y010000D01*
X000862Y010000D01*
X001120Y010258D01*
X001120Y010440D01*
X001120Y010622D01*
X000862Y010880D01*
X000680Y010880D01*
X000680Y010440D01*
X000680Y010440D01*
X001120Y010440D01*
X000680Y010440D01*
X000680Y010440D01*
X000680Y010880D01*
X000498Y010880D01*
X000460Y010842D01*
X000460Y011066D01*
X000506Y011020D01*
X000854Y011020D01*
X001100Y011266D01*
X001100Y011614D01*
X000854Y011860D01*
X000506Y011860D01*
X000460Y011814D01*
X000460Y018656D01*
X041400Y018656D01*
X041400Y004440D01*
X041085Y004440D01*
X041085Y004620D01*
X040947Y004953D01*
X040693Y005207D01*
X040360Y005345D01*
X040000Y005345D01*
X039667Y005207D01*
X039413Y004953D01*
X039275Y004620D01*
X039275Y004440D01*
X038664Y004440D01*
X038628Y004461D01*
X038333Y004540D01*
X038027Y004540D01*
X037732Y004461D01*
X037696Y004440D01*
X030900Y004440D01*
X030900Y004509D01*
X031140Y004749D01*
X031140Y005131D01*
X030871Y005400D01*
X030489Y005400D01*
X030220Y005131D01*
X030220Y004749D01*
X030480Y004489D01*
X030480Y004440D01*
X029960Y004440D01*
X029960Y004569D01*
X030140Y004749D01*
X030140Y005131D01*
X029871Y005400D01*
X029489Y005400D01*
X029460Y005371D01*
X029460Y005428D01*
X029512Y005480D01*
X029871Y005480D01*
X030140Y005749D01*
X030140Y006131D01*
X029871Y006400D01*
X029517Y006400D01*
X028977Y006940D01*
X028964Y006940D01*
X028889Y007015D01*
X029298Y007015D01*
X030220Y006093D01*
X030220Y005749D01*
X030489Y005480D01*
X030871Y005480D01*
X031140Y005749D01*
X031140Y006131D01*
X030871Y006400D01*
X030507Y006400D01*
X029472Y007435D01*
X028739Y007435D01*
X028644Y007530D01*
X028512Y007585D01*
X028368Y007585D01*
X028236Y007530D01*
X028135Y007429D01*
X028080Y007297D01*
X028080Y007153D01*
X028135Y007021D01*
X028236Y006920D01*
X028337Y006878D01*
X028305Y006802D01*
X028305Y006658D01*
X028331Y006596D01*
X027945Y006982D01*
X027945Y007117D01*
X027890Y007249D01*
X027789Y007350D01*
X027657Y007405D01*
X027513Y007405D01*
X027381Y007350D01*
X027280Y007249D01*
X027225Y007117D01*
X027225Y006973D01*
X027280Y006841D01*
X027381Y006740D01*
X027513Y006685D01*
X027648Y006685D01*
X028220Y006113D01*
X028220Y005749D01*
X028489Y005480D01*
X028871Y005480D01*
X029140Y005749D01*
X029140Y006131D01*
X028871Y006400D01*
X028809Y006400D01*
X028869Y006425D01*
X028884Y006439D01*
X029220Y006103D01*
X029220Y005782D01*
X029040Y005602D01*
X029040Y005231D01*
X028871Y005400D01*
X028489Y005400D01*
X028220Y005131D01*
X028220Y004749D01*
X028455Y004514D01*
X028455Y004440D01*
X027885Y004440D01*
X027885Y004494D01*
X028140Y004749D01*
X028140Y005131D01*
X027871Y005400D01*
X027489Y005400D01*
X027220Y005131D01*
X027220Y004749D01*
X027465Y004504D01*
X027465Y004440D01*
X026895Y004440D01*
X026895Y004504D01*
X027140Y004749D01*
X027140Y005131D01*
X026871Y005400D01*
X026489Y005400D01*
X026220Y005131D01*
X026220Y004749D01*
X026475Y004494D01*
X026475Y004440D01*
X025905Y004440D01*
X025905Y004514D01*
X026140Y004749D01*
X026140Y005131D01*
X025871Y005400D01*
X025489Y005400D01*
X025220Y005131D01*
X025220Y004749D01*
X025485Y004484D01*
X025485Y004440D01*
X024915Y004440D01*
X024915Y004524D01*
X025140Y004749D01*
X025140Y005131D01*
X024871Y005400D01*
X024489Y005400D01*
X024220Y005131D01*
X024220Y004749D01*
X024489Y004480D01*
X024495Y004480D01*
X024495Y004440D01*
X023880Y004440D01*
X023880Y004489D01*
X024140Y004749D01*
X024140Y005131D01*
X023871Y005400D01*
X023489Y005400D01*
X023220Y005131D01*
X023220Y004749D01*
X023460Y004509D01*
X023460Y004440D01*
X021900Y004440D01*
X021900Y004509D01*
X022140Y004749D01*
X022140Y005131D01*
X021871Y005400D01*
X021489Y005400D01*
X021220Y005131D01*
X021220Y004749D01*
X021480Y004489D01*
X021480Y004440D01*
X020910Y004440D01*
X020910Y004519D01*
X021140Y004749D01*
X021140Y005131D01*
X020871Y005400D01*
X020489Y005400D01*
X020220Y005131D01*
X020220Y004749D01*
X020489Y004480D01*
X020490Y004480D01*
X020490Y004440D01*
X019875Y004440D01*
X019875Y004484D01*
X020140Y004749D01*
X020140Y005131D01*
X019871Y005400D01*
X019537Y005400D01*
X019425Y005512D01*
X019425Y005544D01*
X019489Y005480D01*
X019871Y005480D01*
X020140Y005749D01*
X020140Y006131D01*
X019871Y006400D01*
X019489Y006400D01*
X019328Y006239D01*
X019302Y006265D01*
X017794Y007773D01*
X017918Y007824D01*
X018036Y007942D01*
X018100Y008096D01*
X018100Y008784D01*
X018050Y008905D01*
X018310Y008905D01*
X018260Y008784D01*
X018260Y008096D01*
X018324Y007942D01*
X018442Y007824D01*
X018596Y007760D01*
X018764Y007760D01*
X018918Y007824D01*
X019036Y007942D01*
X019050Y007976D01*
X019050Y007948D01*
X020598Y006400D01*
X020489Y006400D01*
X020220Y006131D01*
X020220Y005749D01*
X020489Y005480D01*
X020871Y005480D01*
X021140Y005749D01*
X021140Y005858D01*
X021220Y005778D01*
X021220Y005749D01*
X021489Y005480D01*
X021871Y005480D01*
X022140Y005749D01*
X022140Y006131D01*
X021871Y006400D01*
X021489Y006400D01*
X021341Y006251D01*
X019812Y007780D01*
X019918Y007824D01*
X020036Y007942D01*
X020039Y007949D01*
X020715Y007273D01*
X020838Y007150D01*
X023326Y007150D01*
X023421Y007055D01*
X023553Y007000D01*
X023697Y007000D01*
X023829Y007055D01*
X023930Y007156D01*
X023965Y007241D01*
X024003Y007225D01*
X024147Y007225D01*
X024279Y007280D01*
X024380Y007381D01*
X024435Y007513D01*
X024435Y007657D01*
X024380Y007789D01*
X024279Y007890D01*
X024147Y007945D01*
X024037Y007945D01*
X024100Y008096D01*
X024100Y008784D01*
X024036Y008938D01*
X023918Y009056D01*
X023764Y009120D01*
X023596Y009120D01*
X023442Y009056D01*
X023324Y008938D01*
X023260Y008784D01*
X023260Y008096D01*
X023324Y007942D01*
X023336Y007930D01*
X023024Y007930D01*
X023036Y007942D01*
X023100Y008096D01*
X023100Y008784D01*
X023036Y008938D01*
X022918Y009056D01*
X022764Y009120D01*
X022596Y009120D01*
X022442Y009056D01*
X022324Y008938D01*
X022260Y008784D01*
X022260Y008302D01*
X022100Y008462D01*
X022100Y008784D01*
X022036Y008938D01*
X021918Y009056D01*
X021764Y009120D01*
X021596Y009120D01*
X021442Y009056D01*
X021324Y008938D01*
X021260Y008784D01*
X021260Y008096D01*
X021324Y007942D01*
X021442Y007824D01*
X021596Y007760D01*
X021764Y007760D01*
X021918Y007824D01*
X022031Y007937D01*
X022335Y007633D01*
X022398Y007570D01*
X021012Y007570D01*
X020805Y007777D01*
X020918Y007824D01*
X021036Y007942D01*
X021100Y008096D01*
X021100Y008784D01*
X021036Y008938D01*
X020918Y009056D01*
X020764Y009120D01*
X020596Y009120D01*
X020442Y009056D01*
X020324Y008938D01*
X020260Y008784D01*
X020260Y008322D01*
X020100Y008482D01*
X020100Y008784D01*
X020036Y008938D01*
X019918Y009056D01*
X019764Y009120D01*
X019596Y009120D01*
X019442Y009056D01*
X019327Y008940D01*
X019002Y009265D01*
X025473Y009265D01*
X026640Y008098D01*
X026640Y007963D01*
X026695Y007831D01*
X026796Y007730D01*
X026928Y007675D01*
X027072Y007675D01*
X027204Y007730D01*
X027305Y007831D01*
X027360Y007963D01*
X027360Y008107D01*
X027305Y008239D01*
X027269Y008275D01*
X027376Y008275D01*
X027471Y008180D01*
X027603Y008125D01*
X027747Y008125D01*
X027879Y008180D01*
X027980Y008281D01*
X028035Y008413D01*
X028035Y008557D01*
X027980Y008689D01*
X027879Y008790D01*
X027747Y008845D01*
X027603Y008845D01*
X027471Y008790D01*
X027376Y008695D01*
X026907Y008695D01*
X024819Y010783D01*
X024918Y010824D01*
X025036Y010942D01*
X025100Y011096D01*
X025100Y011245D01*
X031362Y011245D01*
X034822Y014705D01*
X034980Y014546D01*
X034980Y014428D01*
X035048Y014360D01*
X035006Y014360D01*
X034760Y014114D01*
X034760Y013766D01*
X035006Y013520D01*
X035354Y013520D01*
X035600Y013766D01*
X035600Y013808D01*
X037439Y011969D01*
X037220Y011751D01*
X037220Y011369D01*
X037489Y011100D01*
X037871Y011100D01*
X038140Y011369D01*
X038140Y011751D01*
X037875Y012016D01*
X037875Y012127D01*
X037822Y012180D01*
X037871Y012180D01*
X038140Y012449D01*
X038140Y012831D01*
X037871Y013100D01*
X037489Y013100D01*
X037220Y012831D01*
X037220Y012782D01*
X035418Y014584D01*
X035600Y014766D01*
X035600Y015114D01*
X035354Y015360D01*
X035162Y015360D01*
X035367Y015565D01*
X035490Y015688D01*
X035490Y016942D01*
X035100Y017332D01*
X035100Y017614D01*
X034854Y017860D01*
X034506Y017860D01*
X034260Y017614D01*
X034260Y017266D01*
X034461Y017065D01*
X033927Y017065D01*
X034120Y017258D01*
X034120Y017440D01*
X034120Y017622D01*
X033862Y017880D01*
X033680Y017880D01*
X033680Y017440D01*
X033680Y017440D01*
X034120Y017440D01*
X033680Y017440D01*
X033680Y017440D01*
X033680Y017880D01*
X033498Y017880D01*
X033240Y017622D01*
X033240Y017617D01*
X032352Y018505D01*
X022098Y018505D01*
X021975Y018382D01*
X021533Y017940D01*
X021418Y018056D01*
X021264Y018120D01*
X021096Y018120D01*
X020942Y018056D01*
X020824Y017938D01*
X020760Y017784D01*
X020760Y017096D01*
X020824Y016942D01*
X020942Y016824D01*
X021096Y016760D01*
X021163Y016760D01*
X021063Y016660D01*
X019522Y016660D01*
X019620Y016758D01*
X019620Y016940D01*
X019620Y017122D01*
X019362Y017380D01*
X019180Y017380D01*
X019180Y016940D01*
X019180Y016940D01*
X019620Y016940D01*
X019180Y016940D01*
X019180Y016940D01*
X019180Y016940D01*
X018740Y016940D01*
X018740Y017122D01*
X018998Y017380D01*
X019180Y017380D01*
X019180Y016940D01*
X018740Y016940D01*
X018740Y016758D01*
X018838Y016660D01*
X015753Y016660D01*
X015630Y016537D01*
X014033Y014940D01*
X013918Y015056D01*
X013764Y015120D01*
X013596Y015120D01*
X013442Y015056D01*
X013327Y014940D01*
X012777Y015490D01*
X003603Y015490D01*
X003480Y015367D01*
X003075Y014962D01*
X003075Y014844D01*
X003036Y014938D01*
X002918Y015056D01*
X002764Y015120D01*
X002596Y015120D01*
X002442Y015056D01*
X002324Y014938D01*
X002260Y014784D01*
X002260Y014096D01*
X002324Y013942D01*
X002437Y013829D01*
X002163Y013555D01*
X002040Y013432D01*
X002040Y013428D01*
X002036Y013438D01*
X001918Y013556D01*
X001764Y013620D01*
X001596Y013620D01*
X001442Y013556D01*
X001324Y013438D01*
X001260Y013284D01*
X001260Y012596D01*
X001324Y012442D01*
X001442Y012324D01*
X001596Y012260D01*
X001764Y012260D01*
X001918Y012324D01*
X002036Y012442D01*
X002040Y012452D01*
X002040Y011928D01*
X002036Y011938D01*
X001918Y012056D01*
X001764Y012120D01*
X001596Y012120D01*
X001442Y012056D01*
X001324Y011938D01*
X001260Y011784D01*
X001260Y011096D01*
X001324Y010942D01*
X001442Y010824D01*
X001548Y010780D01*
X001500Y010732D01*
X001500Y009080D01*
X001442Y009056D01*
X001324Y008938D01*
X001260Y008784D01*
X001260Y008096D01*
X001324Y007942D01*
X001442Y007824D01*
X001596Y007760D01*
X001764Y007760D01*
X001918Y007824D01*
X002036Y007942D01*
X002100Y008096D01*
X002100Y008784D01*
X002036Y008938D01*
X001920Y009054D01*
X001920Y010558D01*
X002318Y010956D01*
X002324Y010942D01*
X002442Y010824D01*
X002596Y010760D01*
X002764Y010760D01*
X002918Y010824D01*
X003036Y010942D01*
X003100Y011096D01*
X003100Y011784D01*
X003036Y011938D01*
X002920Y012053D01*
X003320Y012453D01*
X003324Y012442D01*
X003442Y012324D01*
X003596Y012260D01*
X003764Y012260D01*
X003918Y012324D01*
X003963Y012370D01*
X004278Y012055D01*
X004441Y012055D01*
X004324Y011938D01*
X004260Y011784D01*
X004260Y011096D01*
X004324Y010942D01*
X004442Y010824D01*
X004470Y010812D01*
X004470Y010372D01*
X003198Y009100D01*
X003075Y008977D01*
X003075Y008844D01*
X003036Y008938D01*
X002918Y009056D01*
X002764Y009120D01*
X002596Y009120D01*
X002442Y009056D01*
X002324Y008938D01*
X002260Y008784D01*
X002260Y008096D01*
X002324Y007942D01*
X002442Y007824D01*
X002596Y007760D01*
X002764Y007760D01*
X002918Y007824D01*
X003036Y007942D01*
X003075Y008036D01*
X003075Y007903D01*
X003840Y007138D01*
X003963Y007015D01*
X008656Y007015D01*
X008751Y006920D01*
X008883Y006865D01*
X009027Y006865D01*
X009159Y006920D01*
X009260Y007021D01*
X009315Y007153D01*
X009315Y007297D01*
X009260Y007429D01*
X009159Y007530D01*
X009027Y007585D01*
X008883Y007585D01*
X008751Y007530D01*
X008656Y007435D01*
X004137Y007435D01*
X003798Y007774D01*
X003918Y007824D01*
X004031Y007937D01*
X004290Y007678D01*
X004413Y007555D01*
X005937Y007555D01*
X006324Y007942D01*
X006442Y007824D01*
X006596Y007760D01*
X006764Y007760D01*
X006918Y007824D01*
X007036Y007942D01*
X007100Y008096D01*
X007100Y008784D01*
X007036Y008938D01*
X006918Y009056D01*
X006777Y009115D01*
X008367Y010705D01*
X008473Y010811D01*
X008596Y010760D01*
X008764Y010760D01*
X008918Y010824D01*
X009036Y010942D01*
X009100Y011096D01*
X009100Y011784D01*
X009036Y011938D01*
X008918Y012056D01*
X008764Y012120D01*
X008596Y012120D01*
X008490Y012076D01*
X008490Y012304D01*
X008596Y012260D01*
X008764Y012260D01*
X008918Y012324D01*
X009036Y012442D01*
X009100Y012596D01*
X009100Y013284D01*
X009050Y013405D01*
X009291Y013405D01*
X009272Y013369D01*
X009251Y013303D01*
X009240Y013235D01*
X009240Y012940D01*
X009680Y012940D01*
X010120Y012940D01*
X010120Y013053D01*
X011445Y011728D01*
X011445Y009488D01*
X011367Y009520D01*
X011223Y009520D01*
X011145Y009488D01*
X011145Y010732D01*
X011022Y010855D01*
X010985Y010892D01*
X011036Y010942D01*
X011100Y011096D01*
X011100Y011784D01*
X011036Y011938D01*
X010918Y012056D01*
X010764Y012120D01*
X010596Y012120D01*
X010442Y012056D01*
X010324Y011938D01*
X010260Y011784D01*
X010260Y011096D01*
X010324Y010942D01*
X010442Y010824D01*
X010500Y010800D01*
X010500Y010783D01*
X010725Y010558D01*
X010725Y009138D01*
X010715Y009140D01*
X010680Y009140D01*
X010680Y008440D01*
X010680Y008440D01*
X010680Y008440D01*
X010240Y008440D01*
X010240Y008735D01*
X010251Y008803D01*
X010272Y008869D01*
X010304Y008931D01*
X010344Y008987D01*
X010393Y009036D01*
X010449Y009076D01*
X010511Y009108D01*
X010577Y009129D01*
X010645Y009140D01*
X010680Y009140D01*
X010680Y008440D01*
X010240Y008440D01*
X010240Y008145D01*
X010251Y008077D01*
X010272Y008011D01*
X010304Y007949D01*
X010344Y007893D01*
X010393Y007844D01*
X010449Y007804D01*
X010511Y007772D01*
X010544Y007761D01*
X009543Y006760D01*
X008193Y006760D01*
X007833Y006400D01*
X007489Y006400D01*
X007220Y006131D01*
X007220Y005749D01*
X007489Y005480D01*
X007838Y005480D01*
X007935Y005383D01*
X007935Y005336D01*
X007871Y005400D01*
X007489Y005400D01*
X007220Y005131D01*
X007220Y004749D01*
X007485Y004484D01*
X007485Y004440D01*
X006915Y004440D01*
X006915Y004524D01*
X007140Y004749D01*
X007140Y005131D01*
X006871Y005400D01*
X006489Y005400D01*
X006220Y005131D01*
X006220Y004749D01*
X006489Y004480D01*
X006495Y004480D01*
X006495Y004440D01*
X005880Y004440D01*
X005880Y004489D01*
X006140Y004749D01*
X006140Y005131D01*
X005871Y005400D01*
X005489Y005400D01*
X005220Y005131D01*
X005220Y004749D01*
X005460Y004509D01*
X005460Y004440D01*
X004890Y004440D01*
X004890Y004499D01*
X005140Y004749D01*
X005140Y005131D01*
X004871Y005400D01*
X004489Y005400D01*
X004220Y005131D01*
X004235Y005146D02*
X004125Y005146D01*
X003966Y005305D02*
X004394Y005305D01*
X004489Y005480D02*
X004871Y005480D01*
X005140Y005749D01*
X005140Y006131D01*
X004871Y006400D01*
X004489Y006400D01*
X004220Y006131D01*
X004220Y005749D01*
X004489Y005480D01*
X004348Y005622D02*
X004012Y005622D01*
X004140Y005749D02*
X003871Y005480D01*
X003489Y005480D01*
X003220Y005749D01*
X003220Y006131D01*
X003489Y006400D01*
X003871Y006400D01*
X004140Y006131D01*
X004140Y005749D01*
X004140Y005780D02*
X004220Y005780D01*
X004220Y005939D02*
X004140Y005939D01*
X004140Y006097D02*
X004220Y006097D01*
X004345Y006256D02*
X004015Y006256D01*
X003345Y006256D02*
X003015Y006256D01*
X003140Y006097D02*
X003220Y006097D01*
X003220Y005939D02*
X003140Y005939D01*
X003140Y005780D02*
X003220Y005780D01*
X003348Y005622D02*
X003012Y005622D01*
X003094Y005463D02*
X007855Y005463D01*
X008140Y005772D02*
X008355Y005557D01*
X008355Y005266D01*
X008489Y005400D01*
X008871Y005400D01*
X009140Y005131D01*
X009140Y004749D01*
X008895Y004504D01*
X008895Y004440D01*
X009465Y004440D01*
X009465Y004504D01*
X009220Y004749D01*
X009220Y005131D01*
X009489Y005400D01*
X009871Y005400D01*
X010140Y005131D01*
X010140Y004749D01*
X009885Y004494D01*
X009885Y004440D01*
X010455Y004440D01*
X010455Y004514D01*
X010220Y004749D01*
X010220Y005131D01*
X010489Y005400D01*
X010871Y005400D01*
X011140Y005131D01*
X011140Y004749D01*
X010875Y004484D01*
X010875Y004440D01*
X011490Y004440D01*
X011490Y004480D01*
X011489Y004480D01*
X011220Y004749D01*
X011220Y005131D01*
X011489Y005400D01*
X011871Y005400D01*
X012140Y005131D01*
X012140Y004749D01*
X011910Y004519D01*
X011910Y004440D01*
X012480Y004440D01*
X012480Y004489D01*
X012220Y004749D01*
X012220Y005131D01*
X012489Y005400D01*
X012871Y005400D01*
X013140Y005131D01*
X013140Y004749D01*
X012900Y004509D01*
X012900Y004440D01*
X013470Y004440D01*
X013470Y004499D01*
X013220Y004749D01*
X013220Y005131D01*
X013489Y005400D01*
X013871Y005400D01*
X014140Y005131D01*
X014140Y004749D01*
X013890Y004499D01*
X013890Y004440D01*
X014460Y004440D01*
X014460Y004509D01*
X014220Y004749D01*
X014220Y005131D01*
X014489Y005400D01*
X014871Y005400D01*
X015140Y005131D01*
X015140Y004749D01*
X014880Y004489D01*
X014880Y004440D01*
X015495Y004440D01*
X015495Y004480D01*
X015489Y004480D01*
X015220Y004749D01*
X015220Y005131D01*
X015489Y005400D01*
X015871Y005400D01*
X016140Y005131D01*
X016140Y004749D01*
X015915Y004524D01*
X015915Y004440D01*
X016485Y004440D01*
X016485Y004484D01*
X016220Y004749D01*
X016220Y005131D01*
X016489Y005400D01*
X016871Y005400D01*
X017140Y005131D01*
X017140Y004749D01*
X016905Y004514D01*
X016905Y004440D01*
X017475Y004440D01*
X017475Y004494D01*
X017220Y004749D01*
X017220Y005131D01*
X017489Y005400D01*
X017871Y005400D01*
X018140Y005131D01*
X018140Y004749D01*
X017895Y004504D01*
X017895Y004440D01*
X018465Y004440D01*
X018465Y004504D01*
X018220Y004749D01*
X018220Y005131D01*
X018401Y005312D01*
X018052Y005661D01*
X017871Y005480D01*
X017489Y005480D01*
X017220Y005749D01*
X017220Y006131D01*
X017489Y006400D01*
X017871Y006400D01*
X017975Y006296D01*
X017955Y006343D01*
X017955Y006487D01*
X018010Y006619D01*
X018111Y006720D01*
X018211Y006762D01*
X017070Y007903D01*
X017070Y008024D01*
X017036Y007942D01*
X016918Y007824D01*
X016764Y007760D01*
X016596Y007760D01*
X016442Y007824D01*
X016324Y007942D01*
X016260Y008096D01*
X016260Y008784D01*
X016324Y008938D01*
X016442Y009056D01*
X016548Y009100D01*
X015120Y010528D01*
X015120Y010440D01*
X014680Y010440D01*
X014680Y010440D01*
X015120Y010440D01*
X015120Y010258D01*
X014862Y010000D01*
X014680Y010000D01*
X014680Y010440D01*
X014680Y010440D01*
X014680Y010440D01*
X014240Y010440D01*
X014240Y010622D01*
X014430Y010813D01*
X011490Y013753D01*
X011490Y013804D01*
X011442Y013824D01*
X011324Y013942D01*
X011260Y014096D01*
X011260Y014784D01*
X011304Y014890D01*
X009056Y014890D01*
X009100Y014784D01*
X009100Y014096D01*
X009036Y013942D01*
X008919Y013825D01*
X009942Y013825D01*
X011742Y012025D01*
X011865Y011902D01*
X011865Y007813D01*
X010140Y006088D01*
X010140Y005749D01*
X009871Y005480D01*
X009489Y005480D01*
X009220Y005749D01*
X009220Y006131D01*
X009249Y006160D01*
X009177Y006160D01*
X009140Y006123D01*
X009140Y005749D01*
X008871Y005480D01*
X008489Y005480D01*
X008220Y005749D01*
X008220Y006131D01*
X008429Y006340D01*
X008367Y006340D01*
X008140Y006113D01*
X008140Y005772D01*
X008140Y005780D02*
X008220Y005780D01*
X008220Y005939D02*
X008140Y005939D01*
X008140Y006097D02*
X008220Y006097D01*
X008282Y006256D02*
X008345Y006256D01*
X007847Y006414D02*
X000460Y006414D01*
X000460Y006256D02*
X001345Y006256D01*
X001220Y006131D02*
X001220Y005749D01*
X001489Y005480D01*
X001871Y005480D01*
X002140Y005749D01*
X002140Y006131D01*
X001871Y006400D01*
X001489Y006400D01*
X001220Y006131D01*
X001220Y006097D02*
X000460Y006097D01*
X000460Y005939D02*
X001220Y005939D01*
X001220Y005780D02*
X000460Y005780D01*
X000460Y005622D02*
X001348Y005622D01*
X001481Y005420D02*
X001200Y005139D01*
X001200Y004960D01*
X001660Y004960D01*
X001660Y005420D01*
X001481Y005420D01*
X001366Y005305D02*
X000460Y005305D01*
X000460Y005463D02*
X002500Y005463D01*
X002394Y005305D02*
X001994Y005305D01*
X001879Y005420D02*
X001700Y005420D01*
X001700Y004960D01*
X002160Y004960D01*
X002160Y005139D01*
X001879Y005420D01*
X001700Y005305D02*
X001660Y005305D01*
X001660Y005146D02*
X001700Y005146D01*
X001700Y004988D02*
X001660Y004988D01*
X001660Y004960D02*
X001700Y004960D01*
X001700Y004920D01*
X002160Y004920D01*
X002160Y004741D01*
X001879Y004460D01*
X001700Y004460D01*
X001700Y004920D01*
X001660Y004920D01*
X001660Y004460D01*
X001481Y004460D01*
X001200Y004741D01*
X001200Y004920D01*
X001660Y004920D01*
X001660Y004960D01*
X001660Y004829D02*
X001700Y004829D01*
X001700Y004671D02*
X001660Y004671D01*
X001660Y004512D02*
X001700Y004512D01*
X001931Y004512D02*
X002457Y004512D01*
X002299Y004671D02*
X002089Y004671D01*
X002160Y004829D02*
X002220Y004829D01*
X002220Y004988D02*
X002160Y004988D01*
X002153Y005146D02*
X002235Y005146D01*
X001207Y005146D02*
X000460Y005146D01*
X000460Y004988D02*
X001200Y004988D01*
X001200Y004829D02*
X000460Y004829D01*
X000460Y004671D02*
X001271Y004671D01*
X001429Y004512D02*
X000460Y004512D01*
X002012Y005622D02*
X002348Y005622D01*
X002220Y005780D02*
X002140Y005780D01*
X002140Y005939D02*
X002220Y005939D01*
X002220Y006097D02*
X002140Y006097D01*
X002015Y006256D02*
X002345Y006256D01*
X003930Y007048D02*
X000460Y007048D01*
X000460Y006890D02*
X008824Y006890D01*
X009086Y006890D02*
X009673Y006890D01*
X009831Y007048D02*
X009271Y007048D01*
X009315Y007207D02*
X009990Y007207D01*
X010148Y007365D02*
X009287Y007365D01*
X009166Y007524D02*
X010307Y007524D01*
X010465Y007682D02*
X006064Y007682D01*
X006222Y007841D02*
X006426Y007841D01*
X006934Y007841D02*
X007426Y007841D01*
X007442Y007824D02*
X007324Y007942D01*
X007260Y008096D01*
X007260Y008784D01*
X007324Y008938D01*
X007442Y009056D01*
X007596Y009120D01*
X007764Y009120D01*
X007918Y009056D01*
X008036Y008938D01*
X008100Y008784D01*
X008100Y008096D01*
X008036Y007942D01*
X007918Y007824D01*
X007764Y007760D01*
X007596Y007760D01*
X007442Y007824D01*
X007300Y007999D02*
X007060Y007999D01*
X007100Y008158D02*
X007260Y008158D01*
X007260Y008316D02*
X007100Y008316D01*
X007100Y008475D02*
X007260Y008475D01*
X007260Y008633D02*
X007100Y008633D01*
X007097Y008792D02*
X007263Y008792D01*
X007336Y008950D02*
X007024Y008950D01*
X006791Y009109D02*
X007569Y009109D01*
X007791Y009109D02*
X008569Y009109D01*
X008596Y009120D02*
X008442Y009056D01*
X008324Y008938D01*
X008260Y008784D01*
X008260Y008096D01*
X008324Y007942D01*
X008442Y007824D01*
X008596Y007760D01*
X008764Y007760D01*
X008918Y007824D01*
X009036Y007942D01*
X009100Y008096D01*
X009100Y008784D01*
X009036Y008938D01*
X008918Y009056D01*
X008764Y009120D01*
X008596Y009120D01*
X008791Y009109D02*
X009569Y009109D01*
X009596Y009120D02*
X009442Y009056D01*
X009324Y008938D01*
X009260Y008784D01*
X009260Y008096D01*
X009324Y007942D01*
X009442Y007824D01*
X009596Y007760D01*
X009764Y007760D01*
X009918Y007824D01*
X010036Y007942D01*
X010100Y008096D01*
X010100Y008784D01*
X010036Y008938D01*
X009918Y009056D01*
X009764Y009120D01*
X009596Y009120D01*
X009791Y009109D02*
X010513Y009109D01*
X010680Y009109D02*
X010680Y009109D01*
X010680Y008950D02*
X010680Y008950D01*
X010680Y008792D02*
X010680Y008792D01*
X010680Y008633D02*
X010680Y008633D01*
X010680Y008475D02*
X010680Y008475D01*
X010240Y008475D02*
X010100Y008475D01*
X010100Y008633D02*
X010240Y008633D01*
X010249Y008792D02*
X010097Y008792D01*
X010024Y008950D02*
X010318Y008950D01*
X010725Y009267D02*
X006929Y009267D01*
X007088Y009426D02*
X010725Y009426D01*
X010725Y009584D02*
X007246Y009584D01*
X007405Y009743D02*
X010725Y009743D01*
X010725Y009901D02*
X007563Y009901D01*
X007722Y010060D02*
X010725Y010060D01*
X010725Y010218D02*
X007880Y010218D01*
X008039Y010377D02*
X010725Y010377D01*
X010725Y010535D02*
X008197Y010535D01*
X008356Y010694D02*
X010589Y010694D01*
X010414Y010852D02*
X009946Y010852D01*
X009918Y010824D02*
X010036Y010942D01*
X010100Y011096D01*
X010100Y011784D01*
X010036Y011938D01*
X009918Y012056D01*
X009764Y012120D01*
X009596Y012120D01*
X009442Y012056D01*
X009324Y011938D01*
X009260Y011784D01*
X009260Y011096D01*
X009324Y010942D01*
X009442Y010824D01*
X009596Y010760D01*
X009764Y010760D01*
X009918Y010824D01*
X010064Y011011D02*
X010296Y011011D01*
X010260Y011169D02*
X010100Y011169D01*
X010100Y011328D02*
X010260Y011328D01*
X010260Y011486D02*
X010100Y011486D01*
X010100Y011645D02*
X010260Y011645D01*
X010268Y011803D02*
X010092Y011803D01*
X010012Y011962D02*
X010348Y011962D01*
X009967Y012344D02*
X010016Y012393D01*
X010056Y012449D01*
X010088Y012511D01*
X010109Y012577D01*
X010120Y012645D01*
X010120Y012940D01*
X009680Y012940D01*
X009680Y012940D01*
X009680Y012240D01*
X009715Y012240D01*
X009783Y012251D01*
X009849Y012272D01*
X009911Y012304D01*
X009967Y012344D01*
X010047Y012437D02*
X010736Y012437D01*
X010894Y012279D02*
X009861Y012279D01*
X009680Y012279D02*
X009680Y012279D01*
X009680Y012240D02*
X009680Y012940D01*
X009680Y012940D01*
X009680Y012940D01*
X009240Y012940D01*
X009240Y012645D01*
X009251Y012577D01*
X009272Y012511D01*
X009304Y012449D01*
X009344Y012393D01*
X009393Y012344D01*
X009449Y012304D01*
X009511Y012272D01*
X009577Y012251D01*
X009645Y012240D01*
X009680Y012240D01*
X009499Y012279D02*
X008808Y012279D01*
X008552Y012279D02*
X008490Y012279D01*
X008490Y012120D02*
X011053Y012120D01*
X011012Y011962D02*
X011211Y011962D01*
X011092Y011803D02*
X011370Y011803D01*
X011445Y011645D02*
X011100Y011645D01*
X011100Y011486D02*
X011445Y011486D01*
X011445Y011328D02*
X011100Y011328D01*
X011100Y011169D02*
X011445Y011169D01*
X011445Y011011D02*
X011064Y011011D01*
X011025Y010852D02*
X011445Y010852D01*
X011445Y010694D02*
X011145Y010694D01*
X011145Y010535D02*
X011445Y010535D01*
X011445Y010377D02*
X011145Y010377D01*
X011145Y010218D02*
X011445Y010218D01*
X011445Y010060D02*
X011145Y010060D01*
X011145Y009901D02*
X011445Y009901D01*
X011445Y009743D02*
X011145Y009743D01*
X011145Y009584D02*
X011445Y009584D01*
X011865Y009584D02*
X016064Y009584D01*
X016223Y009426D02*
X011865Y009426D01*
X011865Y009267D02*
X016381Y009267D01*
X016540Y009109D02*
X015791Y009109D01*
X015764Y009120D02*
X015596Y009120D01*
X015442Y009056D01*
X015324Y008938D01*
X015260Y008784D01*
X015260Y008096D01*
X015324Y007942D01*
X015442Y007824D01*
X015596Y007760D01*
X015764Y007760D01*
X015918Y007824D01*
X016036Y007942D01*
X016100Y008096D01*
X016100Y008784D01*
X016036Y008938D01*
X015918Y009056D01*
X015764Y009120D01*
X015569Y009109D02*
X011865Y009109D01*
X011865Y008950D02*
X015336Y008950D01*
X015263Y008792D02*
X011865Y008792D01*
X011865Y008633D02*
X015260Y008633D01*
X015260Y008475D02*
X011865Y008475D01*
X011865Y008316D02*
X015260Y008316D01*
X015260Y008158D02*
X011865Y008158D01*
X011865Y007999D02*
X015300Y007999D01*
X015426Y007841D02*
X011865Y007841D01*
X011734Y007682D02*
X017291Y007682D01*
X017450Y007524D02*
X011575Y007524D01*
X011417Y007365D02*
X017608Y007365D01*
X017767Y007207D02*
X011258Y007207D01*
X011100Y007048D02*
X017925Y007048D01*
X018084Y006890D02*
X010941Y006890D01*
X010783Y006731D02*
X018137Y006731D01*
X017991Y006573D02*
X010624Y006573D01*
X010489Y006400D02*
X010220Y006131D01*
X010220Y005749D01*
X010489Y005480D01*
X010871Y005480D01*
X011140Y005749D01*
X011140Y006131D01*
X010871Y006400D01*
X010489Y006400D01*
X010466Y006414D02*
X017955Y006414D01*
X017345Y006256D02*
X017015Y006256D01*
X017140Y006131D02*
X016871Y006400D01*
X016489Y006400D01*
X016220Y006131D01*
X016220Y005749D01*
X016489Y005480D01*
X016871Y005480D01*
X017140Y005749D01*
X017140Y006131D01*
X017140Y006097D02*
X017220Y006097D01*
X017220Y005939D02*
X017140Y005939D01*
X017140Y005780D02*
X017220Y005780D01*
X017348Y005622D02*
X017012Y005622D01*
X016348Y005622D02*
X016012Y005622D01*
X016140Y005749D02*
X015871Y005480D01*
X015489Y005480D01*
X015220Y005749D01*
X015220Y006131D01*
X015489Y006400D01*
X015871Y006400D01*
X016140Y006131D01*
X016140Y005749D01*
X016140Y005780D02*
X016220Y005780D01*
X016220Y005939D02*
X016140Y005939D01*
X016140Y006097D02*
X016220Y006097D01*
X016345Y006256D02*
X016015Y006256D01*
X015345Y006256D02*
X015015Y006256D01*
X015140Y006131D02*
X014871Y006400D01*
X014489Y006400D01*
X014220Y006131D01*
X014220Y005749D01*
X014489Y005480D01*
X014871Y005480D01*
X015140Y005749D01*
X015140Y006131D01*
X015140Y006097D02*
X015220Y006097D01*
X015220Y005939D02*
X015140Y005939D01*
X015140Y005780D02*
X015220Y005780D01*
X015348Y005622D02*
X015012Y005622D01*
X014966Y005305D02*
X015394Y005305D01*
X015235Y005146D02*
X015125Y005146D01*
X015140Y004988D02*
X015220Y004988D01*
X015220Y004829D02*
X015140Y004829D01*
X015061Y004671D02*
X015299Y004671D01*
X015457Y004512D02*
X014903Y004512D01*
X014457Y004512D02*
X013903Y004512D01*
X014061Y004671D02*
X014299Y004671D01*
X014220Y004829D02*
X014140Y004829D01*
X014140Y004988D02*
X014220Y004988D01*
X014235Y005146D02*
X014125Y005146D01*
X013966Y005305D02*
X014394Y005305D01*
X014140Y005749D02*
X013871Y005480D01*
X013489Y005480D01*
X013220Y005749D01*
X013220Y006131D01*
X013489Y006400D01*
X013871Y006400D01*
X014140Y006131D01*
X014140Y005749D01*
X014140Y005780D02*
X014220Y005780D01*
X014220Y005939D02*
X014140Y005939D01*
X014140Y006097D02*
X014220Y006097D01*
X014345Y006256D02*
X014015Y006256D01*
X013345Y006256D02*
X013015Y006256D01*
X013140Y006131D02*
X012871Y006400D01*
X012489Y006400D01*
X012220Y006131D01*
X012220Y005749D01*
X012489Y005480D01*
X012871Y005480D01*
X013140Y005749D01*
X013140Y006131D01*
X013140Y006097D02*
X013220Y006097D01*
X013220Y005939D02*
X013140Y005939D01*
X013140Y005780D02*
X013220Y005780D01*
X013348Y005622D02*
X013012Y005622D01*
X012348Y005622D02*
X012012Y005622D01*
X012140Y005749D02*
X011871Y005480D01*
X011489Y005480D01*
X011220Y005749D01*
X011220Y006131D01*
X011489Y006400D01*
X011871Y006400D01*
X012140Y006131D01*
X012140Y005749D01*
X012140Y005780D02*
X012220Y005780D01*
X012220Y005939D02*
X012140Y005939D01*
X012140Y006097D02*
X012220Y006097D01*
X012345Y006256D02*
X012015Y006256D01*
X011345Y006256D02*
X011015Y006256D01*
X011140Y006097D02*
X011220Y006097D01*
X011220Y005939D02*
X011140Y005939D01*
X011140Y005780D02*
X011220Y005780D01*
X011348Y005622D02*
X011012Y005622D01*
X010966Y005305D02*
X011394Y005305D01*
X011235Y005146D02*
X011125Y005146D01*
X011140Y004988D02*
X011220Y004988D01*
X011220Y004829D02*
X011140Y004829D01*
X011061Y004671D02*
X011299Y004671D01*
X011457Y004512D02*
X010903Y004512D01*
X010455Y004512D02*
X009903Y004512D01*
X010061Y004671D02*
X010299Y004671D01*
X010220Y004829D02*
X010140Y004829D01*
X010140Y004988D02*
X010220Y004988D01*
X010235Y005146D02*
X010125Y005146D01*
X009966Y005305D02*
X010394Y005305D01*
X010348Y005622D02*
X010012Y005622D01*
X010140Y005780D02*
X010220Y005780D01*
X010220Y005939D02*
X010140Y005939D01*
X010149Y006097D02*
X010220Y006097D01*
X010307Y006256D02*
X010345Y006256D01*
X009220Y006097D02*
X009140Y006097D01*
X009140Y005939D02*
X009220Y005939D01*
X009220Y005780D02*
X009140Y005780D01*
X009012Y005622D02*
X009348Y005622D01*
X009394Y005305D02*
X008966Y005305D01*
X009125Y005146D02*
X009235Y005146D01*
X009220Y004988D02*
X009140Y004988D01*
X009140Y004829D02*
X009220Y004829D01*
X009299Y004671D02*
X009061Y004671D01*
X008903Y004512D02*
X009457Y004512D01*
X008394Y005305D02*
X008355Y005305D01*
X008355Y005463D02*
X018250Y005463D01*
X018394Y005305D02*
X017966Y005305D01*
X018125Y005146D02*
X018235Y005146D01*
X018220Y004988D02*
X018140Y004988D01*
X018140Y004829D02*
X018220Y004829D01*
X018299Y004671D02*
X018061Y004671D01*
X017903Y004512D02*
X018457Y004512D01*
X017457Y004512D02*
X016905Y004512D01*
X017061Y004671D02*
X017299Y004671D01*
X017220Y004829D02*
X017140Y004829D01*
X017140Y004988D02*
X017220Y004988D01*
X017235Y005146D02*
X017125Y005146D01*
X016966Y005305D02*
X017394Y005305D01*
X018012Y005622D02*
X018092Y005622D01*
X019311Y006256D02*
X019345Y006256D01*
X019153Y006414D02*
X020584Y006414D01*
X020426Y006573D02*
X018994Y006573D01*
X018836Y006731D02*
X020267Y006731D01*
X020109Y006890D02*
X018677Y006890D01*
X018519Y007048D02*
X019950Y007048D01*
X019792Y007207D02*
X018360Y007207D01*
X018202Y007365D02*
X019633Y007365D01*
X019475Y007524D02*
X018043Y007524D01*
X017885Y007682D02*
X019316Y007682D01*
X019158Y007841D02*
X018934Y007841D01*
X018426Y007841D02*
X017934Y007841D01*
X018060Y007999D02*
X018300Y007999D01*
X018260Y008158D02*
X018100Y008158D01*
X018100Y008316D02*
X018260Y008316D01*
X018260Y008475D02*
X018100Y008475D01*
X018100Y008633D02*
X018260Y008633D01*
X018263Y008792D02*
X018097Y008792D01*
X019158Y009109D02*
X019569Y009109D01*
X019791Y009109D02*
X020569Y009109D01*
X020791Y009109D02*
X021569Y009109D01*
X021791Y009109D02*
X022569Y009109D01*
X022791Y009109D02*
X023569Y009109D01*
X023791Y009109D02*
X024513Y009109D01*
X024511Y009108D02*
X024449Y009076D01*
X024393Y009036D01*
X024344Y008987D01*
X024304Y008931D01*
X024272Y008869D01*
X024251Y008803D01*
X024240Y008735D01*
X024240Y008440D01*
X024680Y008440D01*
X025120Y008440D01*
X025120Y008735D01*
X025109Y008803D01*
X025088Y008869D01*
X025056Y008931D01*
X025016Y008987D01*
X024967Y009036D01*
X024911Y009076D01*
X024849Y009108D01*
X024783Y009129D01*
X024715Y009140D01*
X024680Y009140D01*
X024680Y008440D01*
X024680Y008440D01*
X024680Y008440D01*
X025120Y008440D01*
X025120Y008145D01*
X025109Y008077D01*
X025088Y008011D01*
X025056Y007949D01*
X025016Y007893D01*
X024967Y007844D01*
X024911Y007804D01*
X024849Y007772D01*
X024783Y007751D01*
X024715Y007740D01*
X024680Y007740D01*
X024680Y008440D01*
X024680Y008440D01*
X024680Y008440D01*
X024680Y009140D01*
X024645Y009140D01*
X024577Y009129D01*
X024511Y009108D01*
X024680Y009109D02*
X024680Y009109D01*
X024680Y008950D02*
X024680Y008950D01*
X024680Y008792D02*
X024680Y008792D01*
X024680Y008633D02*
X024680Y008633D01*
X024680Y008475D02*
X024680Y008475D01*
X024680Y008440D02*
X024240Y008440D01*
X024240Y008145D01*
X024251Y008077D01*
X024272Y008011D01*
X024304Y007949D01*
X024344Y007893D01*
X024393Y007844D01*
X024449Y007804D01*
X024511Y007772D01*
X024577Y007751D01*
X024645Y007740D01*
X024680Y007740D01*
X024680Y008440D01*
X024680Y008316D02*
X024680Y008316D01*
X024680Y008158D02*
X024680Y008158D01*
X024680Y007999D02*
X024680Y007999D01*
X024680Y007841D02*
X024680Y007841D01*
X024961Y007841D02*
X026691Y007841D01*
X026640Y007999D02*
X025082Y007999D01*
X025120Y008158D02*
X026581Y008158D01*
X026422Y008316D02*
X025120Y008316D01*
X025120Y008475D02*
X026264Y008475D01*
X026105Y008633D02*
X025120Y008633D01*
X025111Y008792D02*
X025946Y008792D01*
X025788Y008950D02*
X025042Y008950D01*
X024847Y009109D02*
X025629Y009109D01*
X026176Y009426D02*
X037200Y009426D01*
X037200Y009420D02*
X037660Y009420D01*
X037660Y009880D01*
X037481Y009880D01*
X037200Y009599D01*
X037200Y009420D01*
X037200Y009380D02*
X037200Y009201D01*
X037481Y008920D01*
X037660Y008920D01*
X037660Y009380D01*
X037200Y009380D01*
X037200Y009267D02*
X034947Y009267D01*
X034854Y009360D02*
X035100Y009114D01*
X035100Y008766D01*
X034854Y008520D01*
X034506Y008520D01*
X034260Y008766D01*
X034260Y009114D01*
X034506Y009360D01*
X034854Y009360D01*
X035100Y009109D02*
X037293Y009109D01*
X037451Y008950D02*
X035100Y008950D01*
X035100Y008792D02*
X038220Y008792D01*
X038220Y008669D02*
X038489Y008400D01*
X038871Y008400D01*
X039140Y008669D01*
X039140Y009051D01*
X038871Y009320D01*
X038489Y009320D01*
X038220Y009051D01*
X038220Y008669D01*
X038256Y008633D02*
X038018Y008633D01*
X038140Y008511D02*
X037871Y008780D01*
X037489Y008780D01*
X037220Y008511D01*
X037220Y008129D01*
X037489Y007860D01*
X037871Y007860D01*
X038140Y008129D01*
X038140Y008511D01*
X038140Y008475D02*
X038415Y008475D01*
X038489Y008240D02*
X038220Y007971D01*
X038220Y007589D01*
X038489Y007320D01*
X038871Y007320D01*
X039140Y007589D01*
X039140Y007971D01*
X038871Y008240D01*
X038489Y008240D01*
X038407Y008158D02*
X038140Y008158D01*
X038140Y008316D02*
X041400Y008316D01*
X041400Y008158D02*
X038953Y008158D01*
X039112Y007999D02*
X041400Y007999D01*
X041400Y007841D02*
X039140Y007841D01*
X039140Y007682D02*
X041400Y007682D01*
X041400Y007524D02*
X039074Y007524D01*
X038916Y007365D02*
X041400Y007365D01*
X041400Y007207D02*
X038140Y007207D01*
X038140Y007049D02*
X037871Y006780D01*
X037489Y006780D01*
X037220Y007049D01*
X037220Y007431D01*
X037489Y007700D01*
X037871Y007700D01*
X038140Y007431D01*
X038140Y007049D01*
X038139Y007048D02*
X038377Y007048D01*
X038489Y007160D02*
X038220Y006891D01*
X038220Y006509D01*
X038489Y006240D01*
X038871Y006240D01*
X039140Y006509D01*
X039140Y006891D01*
X038871Y007160D01*
X038489Y007160D01*
X038444Y007365D02*
X038140Y007365D01*
X038047Y007524D02*
X038286Y007524D01*
X038220Y007682D02*
X037889Y007682D01*
X038010Y007999D02*
X038248Y007999D01*
X038220Y007841D02*
X035100Y007841D01*
X035100Y007766D02*
X035100Y008114D01*
X034854Y008360D01*
X034532Y008360D01*
X034332Y008560D01*
X033922Y008560D01*
X034120Y008758D01*
X034120Y008940D01*
X034120Y009122D01*
X033862Y009380D01*
X033680Y009380D01*
X033680Y008940D01*
X033680Y008940D01*
X034120Y008940D01*
X033680Y008940D01*
X033680Y008940D01*
X033680Y008940D01*
X033240Y008940D01*
X033240Y009122D01*
X033498Y009380D01*
X033680Y009380D01*
X033680Y008940D01*
X033240Y008940D01*
X033240Y008758D01*
X033438Y008560D01*
X033315Y008437D01*
X033258Y008380D01*
X028784Y008380D01*
X028689Y008475D01*
X028557Y008530D01*
X028413Y008530D01*
X028281Y008475D01*
X028180Y008374D01*
X028125Y008242D01*
X028125Y008098D01*
X028180Y007966D01*
X028281Y007865D01*
X028413Y007810D01*
X028557Y007810D01*
X028689Y007865D01*
X028784Y007960D01*
X033240Y007960D01*
X033240Y007940D01*
X033680Y007940D01*
X034120Y007940D01*
X034120Y008122D01*
X034102Y008140D01*
X034158Y008140D01*
X034260Y008038D01*
X034260Y007766D01*
X034506Y007520D01*
X034854Y007520D01*
X035100Y007766D01*
X035016Y007682D02*
X037471Y007682D01*
X037313Y007524D02*
X034857Y007524D01*
X034503Y007524D02*
X033886Y007524D01*
X033862Y007500D02*
X034120Y007758D01*
X034120Y007940D01*
X033680Y007940D01*
X033680Y007940D01*
X033680Y007500D01*
X033862Y007500D01*
X033680Y007500D02*
X033680Y007940D01*
X033680Y007940D01*
X033680Y007940D01*
X033240Y007940D01*
X033240Y007758D01*
X033498Y007500D01*
X033680Y007500D01*
X033680Y007524D02*
X033680Y007524D01*
X033680Y007682D02*
X033680Y007682D01*
X033680Y007841D02*
X033680Y007841D01*
X034044Y007682D02*
X034344Y007682D01*
X034260Y007841D02*
X034120Y007841D01*
X034120Y007999D02*
X034260Y007999D01*
X034898Y008316D02*
X037220Y008316D01*
X037220Y008158D02*
X035056Y008158D01*
X035100Y007999D02*
X037350Y007999D01*
X037220Y008475D02*
X034417Y008475D01*
X034393Y008633D02*
X033995Y008633D01*
X034120Y008792D02*
X034260Y008792D01*
X034260Y008950D02*
X034120Y008950D01*
X034120Y009109D02*
X034260Y009109D01*
X034413Y009267D02*
X033975Y009267D01*
X033680Y009267D02*
X033680Y009267D01*
X033680Y009109D02*
X033680Y009109D01*
X033680Y008950D02*
X033680Y008950D01*
X033240Y008950D02*
X026652Y008950D01*
X026810Y008792D02*
X027474Y008792D01*
X027876Y008792D02*
X033240Y008792D01*
X033365Y008633D02*
X028003Y008633D01*
X028035Y008475D02*
X028280Y008475D01*
X028156Y008316D02*
X027995Y008316D01*
X028125Y008158D02*
X027825Y008158D01*
X027525Y008158D02*
X027339Y008158D01*
X027360Y007999D02*
X028166Y007999D01*
X028340Y007841D02*
X027309Y007841D01*
X027089Y007682D02*
X033316Y007682D01*
X033240Y007841D02*
X028630Y007841D01*
X028651Y007524D02*
X033474Y007524D01*
X033353Y008475D02*
X028690Y008475D01*
X026911Y007682D02*
X024424Y007682D01*
X024435Y007524D02*
X024719Y007524D01*
X024726Y007530D02*
X024625Y007429D01*
X024570Y007297D01*
X024570Y007153D01*
X024625Y007021D01*
X024726Y006920D01*
X024858Y006865D01*
X025002Y006865D01*
X025134Y006920D01*
X025229Y007015D01*
X026328Y007015D01*
X027220Y006123D01*
X027220Y005749D01*
X027489Y005480D01*
X027871Y005480D01*
X028140Y005749D01*
X028140Y006131D01*
X027871Y006400D01*
X027537Y006400D01*
X026502Y007435D01*
X025229Y007435D01*
X025134Y007530D01*
X025002Y007585D01*
X024858Y007585D01*
X024726Y007530D01*
X024598Y007365D02*
X024364Y007365D01*
X024570Y007207D02*
X023951Y007207D01*
X023813Y007048D02*
X024614Y007048D01*
X024799Y006890D02*
X020702Y006890D01*
X020544Y007048D02*
X023437Y007048D01*
X023489Y006400D02*
X023220Y006131D01*
X023220Y005749D01*
X023489Y005480D01*
X023871Y005480D01*
X024140Y005749D01*
X024140Y006131D01*
X023871Y006400D01*
X023489Y006400D01*
X023345Y006256D02*
X023015Y006256D01*
X023140Y006131D02*
X022871Y006400D01*
X022489Y006400D01*
X022220Y006131D01*
X022220Y005749D01*
X022489Y005480D01*
X022871Y005480D01*
X023140Y005749D01*
X023140Y006131D01*
X023140Y006097D02*
X023220Y006097D01*
X023220Y005939D02*
X023140Y005939D01*
X023140Y005780D02*
X023220Y005780D01*
X023348Y005622D02*
X023012Y005622D01*
X022879Y005420D02*
X022700Y005420D01*
X022700Y004960D01*
X023160Y004960D01*
X023160Y005139D01*
X022879Y005420D01*
X022994Y005305D02*
X023394Y005305D01*
X023235Y005146D02*
X023153Y005146D01*
X023160Y004988D02*
X023220Y004988D01*
X023160Y004920D02*
X022700Y004920D01*
X022700Y004960D01*
X022660Y004960D01*
X022660Y005420D01*
X022481Y005420D01*
X022200Y005139D01*
X022200Y004960D01*
X022660Y004960D01*
X022660Y004920D01*
X022700Y004920D01*
X022700Y004460D01*
X022879Y004460D01*
X023160Y004741D01*
X023160Y004920D01*
X023160Y004829D02*
X023220Y004829D01*
X023299Y004671D02*
X023089Y004671D01*
X022931Y004512D02*
X023457Y004512D01*
X023903Y004512D02*
X024457Y004512D01*
X024299Y004671D02*
X024061Y004671D01*
X024140Y004829D02*
X024220Y004829D01*
X024220Y004988D02*
X024140Y004988D01*
X024125Y005146D02*
X024235Y005146D01*
X024394Y005305D02*
X023966Y005305D01*
X024220Y005749D02*
X024489Y005480D01*
X024871Y005480D01*
X025140Y005749D01*
X025140Y006131D01*
X024871Y006400D01*
X024489Y006400D01*
X024220Y006131D01*
X024220Y005749D01*
X024220Y005780D02*
X024140Y005780D01*
X024140Y005939D02*
X024220Y005939D01*
X024220Y006097D02*
X024140Y006097D01*
X024015Y006256D02*
X024345Y006256D01*
X025015Y006256D02*
X025345Y006256D01*
X025220Y006131D02*
X025220Y005749D01*
X025489Y005480D01*
X025871Y005480D01*
X026140Y005749D01*
X026140Y006131D01*
X025871Y006400D01*
X025489Y006400D01*
X025220Y006131D01*
X025220Y006097D02*
X025140Y006097D01*
X025140Y005939D02*
X025220Y005939D01*
X025220Y005780D02*
X025140Y005780D01*
X025012Y005622D02*
X025348Y005622D01*
X025394Y005305D02*
X024966Y005305D01*
X025125Y005146D02*
X025235Y005146D01*
X025220Y004988D02*
X025140Y004988D01*
X025140Y004829D02*
X025220Y004829D01*
X025299Y004671D02*
X025061Y004671D01*
X024915Y004512D02*
X025457Y004512D01*
X025905Y004512D02*
X026457Y004512D01*
X026299Y004671D02*
X026061Y004671D01*
X026140Y004829D02*
X026220Y004829D01*
X026220Y004988D02*
X026140Y004988D01*
X026125Y005146D02*
X026235Y005146D01*
X026394Y005305D02*
X025966Y005305D01*
X026220Y005749D02*
X026489Y005480D01*
X026871Y005480D01*
X027140Y005749D01*
X027140Y006131D01*
X026871Y006400D01*
X026489Y006400D01*
X026220Y006131D01*
X026220Y005749D01*
X026220Y005780D02*
X026140Y005780D01*
X026140Y005939D02*
X026220Y005939D01*
X026220Y006097D02*
X026140Y006097D01*
X026015Y006256D02*
X026345Y006256D01*
X026929Y006414D02*
X021178Y006414D01*
X021336Y006256D02*
X021345Y006256D01*
X022015Y006256D02*
X022345Y006256D01*
X022220Y006097D02*
X022140Y006097D01*
X022140Y005939D02*
X022220Y005939D01*
X022220Y005780D02*
X022140Y005780D01*
X022012Y005622D02*
X022348Y005622D01*
X022366Y005305D02*
X021966Y005305D01*
X022125Y005146D02*
X022207Y005146D01*
X022200Y004988D02*
X022140Y004988D01*
X022200Y004920D02*
X022200Y004741D01*
X022481Y004460D01*
X022660Y004460D01*
X022660Y004920D01*
X022200Y004920D01*
X022200Y004829D02*
X022140Y004829D01*
X022061Y004671D02*
X022271Y004671D01*
X022429Y004512D02*
X021903Y004512D01*
X021457Y004512D02*
X020910Y004512D01*
X021061Y004671D02*
X021299Y004671D01*
X021220Y004829D02*
X021140Y004829D01*
X021140Y004988D02*
X021220Y004988D01*
X021235Y005146D02*
X021125Y005146D01*
X020966Y005305D02*
X021394Y005305D01*
X021348Y005622D02*
X021012Y005622D01*
X021140Y005780D02*
X021218Y005780D01*
X020348Y005622D02*
X020012Y005622D01*
X020140Y005780D02*
X020220Y005780D01*
X020220Y005939D02*
X020140Y005939D01*
X020140Y006097D02*
X020220Y006097D01*
X020345Y006256D02*
X020015Y006256D01*
X021019Y006573D02*
X026771Y006573D01*
X026612Y006731D02*
X020861Y006731D01*
X020782Y007207D02*
X020385Y007207D01*
X020227Y007365D02*
X020623Y007365D01*
X020465Y007524D02*
X020068Y007524D01*
X019910Y007682D02*
X020306Y007682D01*
X020148Y007841D02*
X019934Y007841D01*
X020107Y008475D02*
X020260Y008475D01*
X020260Y008633D02*
X020100Y008633D01*
X020097Y008792D02*
X020263Y008792D01*
X020336Y008950D02*
X020024Y008950D01*
X019336Y008950D02*
X019317Y008950D01*
X021024Y008950D02*
X021336Y008950D01*
X021263Y008792D02*
X021097Y008792D01*
X021100Y008633D02*
X021260Y008633D01*
X021260Y008475D02*
X021100Y008475D01*
X021100Y008316D02*
X021260Y008316D01*
X021260Y008158D02*
X021100Y008158D01*
X021060Y007999D02*
X021300Y007999D01*
X021426Y007841D02*
X020934Y007841D01*
X020900Y007682D02*
X022286Y007682D01*
X022128Y007841D02*
X021934Y007841D01*
X022246Y008316D02*
X022260Y008316D01*
X022260Y008475D02*
X022100Y008475D01*
X022100Y008633D02*
X022260Y008633D01*
X022263Y008792D02*
X022097Y008792D01*
X022024Y008950D02*
X022336Y008950D01*
X023024Y008950D02*
X023336Y008950D01*
X023263Y008792D02*
X023097Y008792D01*
X023100Y008633D02*
X023260Y008633D01*
X023260Y008475D02*
X023100Y008475D01*
X023100Y008316D02*
X023260Y008316D01*
X023260Y008158D02*
X023100Y008158D01*
X023060Y007999D02*
X023300Y007999D01*
X024060Y007999D02*
X024278Y007999D01*
X024240Y008158D02*
X024100Y008158D01*
X024100Y008316D02*
X024240Y008316D01*
X024240Y008475D02*
X024100Y008475D01*
X024100Y008633D02*
X024240Y008633D01*
X024249Y008792D02*
X024097Y008792D01*
X024024Y008950D02*
X024318Y008950D01*
X025265Y009743D02*
X017567Y009743D01*
X017529Y009780D02*
X017624Y009685D01*
X025323Y009685D01*
X024045Y010963D01*
X024036Y010942D01*
X023918Y010824D01*
X023764Y010760D01*
X023596Y010760D01*
X023530Y010787D01*
X023480Y010666D01*
X023379Y010565D01*
X023247Y010510D01*
X023103Y010510D01*
X022971Y010565D01*
X022966Y010570D01*
X021423Y010570D01*
X021300Y010693D01*
X021040Y010953D01*
X021036Y010942D01*
X020918Y010824D01*
X020764Y010760D01*
X020596Y010760D01*
X020442Y010824D01*
X020324Y010942D01*
X020260Y011096D01*
X020260Y011784D01*
X020324Y011938D01*
X020441Y012055D01*
X019919Y012055D01*
X020036Y011938D01*
X020100Y011784D01*
X020100Y011096D01*
X020036Y010942D01*
X019918Y010824D01*
X019764Y010760D01*
X019596Y010760D01*
X019442Y010824D01*
X019324Y010942D01*
X019260Y011096D01*
X019260Y011563D01*
X019100Y011403D01*
X019100Y011096D01*
X019036Y010942D01*
X018918Y010824D01*
X018764Y010760D01*
X018596Y010760D01*
X018442Y010824D01*
X018324Y010942D01*
X018260Y011096D01*
X018260Y011784D01*
X018324Y011938D01*
X018442Y012056D01*
X018596Y012120D01*
X018764Y012120D01*
X018918Y012056D01*
X019036Y011938D01*
X019037Y011934D01*
X019455Y012352D01*
X019578Y012475D01*
X019810Y012475D01*
X019760Y012596D01*
X019760Y013188D01*
X019600Y013028D01*
X019600Y012596D01*
X019536Y012442D01*
X019418Y012324D01*
X019264Y012260D01*
X019096Y012260D01*
X018942Y012324D01*
X018824Y012442D01*
X018760Y012596D01*
X018760Y013223D01*
X018600Y013063D01*
X018600Y012596D01*
X018536Y012442D01*
X018418Y012324D01*
X018264Y012260D01*
X018096Y012260D01*
X017942Y012324D01*
X017824Y012442D01*
X017760Y012596D01*
X017760Y013284D01*
X017824Y013438D01*
X017942Y013556D01*
X018096Y013620D01*
X018264Y013620D01*
X018418Y013556D01*
X018458Y013515D01*
X019578Y014635D01*
X019760Y014635D01*
X019760Y014784D01*
X019824Y014938D01*
X019942Y015056D01*
X020096Y015120D01*
X020264Y015120D01*
X020418Y015056D01*
X020536Y014938D01*
X020542Y014924D01*
X021693Y016075D01*
X027923Y016075D01*
X027740Y016258D01*
X027740Y016440D01*
X028180Y016440D01*
X028180Y016440D01*
X028180Y016880D01*
X028362Y016880D01*
X028620Y016622D01*
X028620Y016440D01*
X028180Y016440D01*
X028180Y016440D01*
X028180Y016440D01*
X028180Y016880D01*
X027998Y016880D01*
X027740Y016622D01*
X027740Y016440D01*
X028180Y016440D01*
X028620Y016440D01*
X028620Y016258D01*
X028437Y016075D01*
X031407Y016075D01*
X031530Y015952D01*
X031530Y015952D01*
X031800Y015682D01*
X031800Y015427D01*
X032505Y016132D01*
X032628Y016255D01*
X033243Y016255D01*
X033240Y016258D01*
X033240Y016440D01*
X033680Y016440D01*
X034120Y016440D01*
X034120Y016622D01*
X034097Y016645D01*
X034291Y016645D01*
X034260Y016614D01*
X034260Y016312D01*
X034203Y016255D01*
X034117Y016255D01*
X034120Y016258D01*
X034120Y016440D01*
X033680Y016440D01*
X033680Y016440D01*
X033680Y016440D01*
X033240Y016440D01*
X033240Y016622D01*
X033440Y016823D01*
X032178Y018085D01*
X027348Y018085D01*
X027418Y018056D01*
X027536Y017938D01*
X027600Y017784D01*
X027600Y017096D01*
X027536Y016942D01*
X027418Y016824D01*
X027264Y016760D01*
X027096Y016760D01*
X026942Y016824D01*
X026824Y016942D01*
X026760Y017096D01*
X026760Y017784D01*
X026824Y017938D01*
X026942Y018056D01*
X027012Y018085D01*
X026348Y018085D01*
X026418Y018056D01*
X026536Y017938D01*
X026600Y017784D01*
X026600Y017096D01*
X026536Y016942D01*
X026418Y016824D01*
X026264Y016760D01*
X026096Y016760D01*
X025942Y016824D01*
X025824Y016942D01*
X025760Y017096D01*
X025760Y017784D01*
X025824Y017938D01*
X025942Y018056D01*
X026012Y018085D01*
X025348Y018085D01*
X025418Y018056D01*
X025536Y017938D01*
X025600Y017784D01*
X025600Y017096D01*
X025536Y016942D01*
X025418Y016824D01*
X025264Y016760D01*
X025096Y016760D01*
X024942Y016824D01*
X024824Y016942D01*
X024760Y017096D01*
X024760Y017403D01*
X024620Y017543D01*
X024620Y017440D01*
X024180Y017440D01*
X024180Y017440D01*
X024620Y017440D01*
X024620Y017145D01*
X024609Y017077D01*
X024588Y017011D01*
X024556Y016949D01*
X024516Y016893D01*
X024467Y016844D01*
X024411Y016804D01*
X024349Y016772D01*
X024283Y016751D01*
X024215Y016740D01*
X024180Y016740D01*
X024180Y017440D01*
X024180Y017440D01*
X024180Y017440D01*
X023740Y017440D01*
X023740Y017735D01*
X023751Y017803D01*
X023772Y017869D01*
X023791Y017905D01*
X023550Y017905D01*
X023600Y017784D01*
X023600Y017096D01*
X023536Y016942D01*
X023418Y016824D01*
X023264Y016760D01*
X023096Y016760D01*
X022942Y016824D01*
X022824Y016942D01*
X022760Y017096D01*
X022760Y017763D01*
X022600Y017603D01*
X022600Y017096D01*
X022536Y016942D01*
X022418Y016824D01*
X022264Y016760D01*
X022096Y016760D01*
X021942Y016824D01*
X021882Y016885D01*
X021237Y016240D01*
X015927Y016240D01*
X014794Y015107D01*
X014918Y015056D01*
X015036Y014938D01*
X015100Y014784D01*
X015100Y014096D01*
X015036Y013942D01*
X014918Y013824D01*
X014764Y013760D01*
X014596Y013760D01*
X014442Y013824D01*
X014324Y013942D01*
X014260Y014096D01*
X014260Y014573D01*
X014100Y014413D01*
X014100Y014096D01*
X014036Y013942D01*
X013918Y013824D01*
X013764Y013760D01*
X013596Y013760D01*
X013485Y013806D01*
X013485Y013522D01*
X015260Y011747D01*
X015260Y011784D01*
X015324Y011938D01*
X015442Y012056D01*
X015596Y012120D01*
X015764Y012120D01*
X015901Y012063D01*
X016760Y012923D01*
X016760Y013284D01*
X016824Y013438D01*
X016942Y013556D01*
X017096Y013620D01*
X017264Y013620D01*
X017418Y013556D01*
X017536Y013438D01*
X017600Y013284D01*
X017600Y012596D01*
X017536Y012442D01*
X017418Y012324D01*
X017264Y012260D01*
X017096Y012260D01*
X016942Y012324D01*
X016919Y012347D01*
X016693Y012120D01*
X019223Y012120D01*
X019308Y012279D02*
X019382Y012279D01*
X019531Y012437D02*
X019540Y012437D01*
X019600Y012596D02*
X019760Y012596D01*
X019760Y012754D02*
X019600Y012754D01*
X019600Y012913D02*
X019760Y012913D01*
X019760Y013071D02*
X019643Y013071D01*
X018760Y013071D02*
X018608Y013071D01*
X018600Y012913D02*
X018760Y012913D01*
X018760Y012754D02*
X018600Y012754D01*
X018600Y012596D02*
X018760Y012596D01*
X018829Y012437D02*
X018531Y012437D01*
X018308Y012279D02*
X019052Y012279D01*
X019065Y011962D02*
X019012Y011962D01*
X018348Y011962D02*
X018012Y011962D01*
X018036Y011938D02*
X017918Y012056D01*
X017764Y012120D01*
X017596Y012120D01*
X017442Y012056D01*
X017324Y011938D01*
X017260Y011784D01*
X017260Y011096D01*
X017324Y010942D01*
X017442Y010824D01*
X017596Y010760D01*
X017764Y010760D01*
X017918Y010824D01*
X018036Y010942D01*
X018100Y011096D01*
X018100Y011784D01*
X018036Y011938D01*
X018092Y011803D02*
X018268Y011803D01*
X018260Y011645D02*
X018100Y011645D01*
X018100Y011486D02*
X018260Y011486D01*
X018260Y011328D02*
X018100Y011328D01*
X018100Y011169D02*
X018260Y011169D01*
X018296Y011011D02*
X018064Y011011D01*
X017946Y010852D02*
X018414Y010852D01*
X018946Y010852D02*
X019414Y010852D01*
X019296Y011011D02*
X019064Y011011D01*
X019100Y011169D02*
X019260Y011169D01*
X019260Y011328D02*
X019100Y011328D01*
X019183Y011486D02*
X019260Y011486D01*
X020100Y011486D02*
X020260Y011486D01*
X020260Y011328D02*
X020100Y011328D01*
X020100Y011169D02*
X020260Y011169D01*
X020296Y011011D02*
X020064Y011011D01*
X019946Y010852D02*
X020414Y010852D01*
X020946Y010852D02*
X021141Y010852D01*
X021299Y010694D02*
X015908Y010694D01*
X015819Y010783D02*
X015918Y010824D01*
X016036Y010942D01*
X016100Y011096D01*
X016100Y011527D01*
X016260Y011687D01*
X016260Y011096D01*
X016324Y010942D01*
X016442Y010824D01*
X016596Y010760D01*
X016764Y010760D01*
X016918Y010824D01*
X017036Y010942D01*
X017100Y011096D01*
X017100Y011784D01*
X017036Y011938D01*
X016918Y012056D01*
X016764Y012120D01*
X016693Y012120D01*
X016851Y012279D02*
X017052Y012279D01*
X017308Y012279D02*
X018052Y012279D01*
X017829Y012437D02*
X017531Y012437D01*
X017600Y012596D02*
X017760Y012596D01*
X017760Y012754D02*
X017600Y012754D01*
X017600Y012913D02*
X017760Y012913D01*
X017760Y013071D02*
X017600Y013071D01*
X017600Y013230D02*
X017760Y013230D01*
X017803Y013388D02*
X017557Y013388D01*
X017427Y013547D02*
X017933Y013547D01*
X017849Y013772D02*
X017783Y013751D01*
X017715Y013740D01*
X017680Y013740D01*
X017680Y014440D01*
X018120Y014440D01*
X018120Y014735D01*
X018109Y014803D01*
X018088Y014869D01*
X018056Y014931D01*
X018016Y014987D01*
X017967Y015036D01*
X017911Y015076D01*
X017849Y015108D01*
X017783Y015129D01*
X017715Y015140D01*
X017680Y015140D01*
X017680Y014440D01*
X017680Y014440D01*
X017680Y014440D01*
X018120Y014440D01*
X018120Y014145D01*
X018109Y014077D01*
X018088Y014011D01*
X018056Y013949D01*
X018016Y013893D01*
X017967Y013844D01*
X017911Y013804D01*
X017849Y013772D01*
X017986Y013864D02*
X018807Y013864D01*
X018965Y014022D02*
X018091Y014022D01*
X018120Y014181D02*
X019124Y014181D01*
X019282Y014339D02*
X018120Y014339D01*
X018120Y014498D02*
X019441Y014498D01*
X019760Y014656D02*
X018120Y014656D01*
X018105Y014815D02*
X019773Y014815D01*
X019859Y014973D02*
X018026Y014973D01*
X017768Y015132D02*
X020750Y015132D01*
X020908Y015290D02*
X014977Y015290D01*
X014819Y015132D02*
X017592Y015132D01*
X017577Y015129D02*
X017511Y015108D01*
X017449Y015076D01*
X017393Y015036D01*
X017344Y014987D01*
X017304Y014931D01*
X017272Y014869D01*
X017251Y014803D01*
X017240Y014735D01*
X017240Y014440D01*
X017680Y014440D01*
X017680Y014440D01*
X017680Y014440D01*
X017680Y015140D01*
X017645Y015140D01*
X017577Y015129D01*
X017680Y015132D02*
X017680Y015132D01*
X017680Y014973D02*
X017680Y014973D01*
X017680Y014815D02*
X017680Y014815D01*
X017680Y014656D02*
X017680Y014656D01*
X017680Y014498D02*
X017680Y014498D01*
X017680Y014440D02*
X017240Y014440D01*
X017240Y014145D01*
X017251Y014077D01*
X017272Y014011D01*
X017304Y013949D01*
X017344Y013893D01*
X017393Y013844D01*
X017449Y013804D01*
X017511Y013772D01*
X017577Y013751D01*
X017645Y013740D01*
X017680Y013740D01*
X017680Y014440D01*
X017680Y014339D02*
X017680Y014339D01*
X017680Y014181D02*
X017680Y014181D01*
X017680Y014022D02*
X017680Y014022D01*
X017680Y013864D02*
X017680Y013864D01*
X017374Y013864D02*
X016957Y013864D01*
X016918Y013824D02*
X017036Y013942D01*
X017100Y014096D01*
X017100Y014784D01*
X017036Y014938D01*
X016918Y015056D01*
X016764Y015120D01*
X016596Y015120D01*
X016442Y015056D01*
X016324Y014938D01*
X016260Y014784D01*
X016260Y014096D01*
X016324Y013942D01*
X016442Y013824D01*
X016596Y013760D01*
X016764Y013760D01*
X016918Y013824D01*
X017069Y014022D02*
X017269Y014022D01*
X017240Y014181D02*
X017100Y014181D01*
X017100Y014339D02*
X017240Y014339D01*
X017240Y014498D02*
X017100Y014498D01*
X017100Y014656D02*
X017240Y014656D01*
X017255Y014815D02*
X017087Y014815D01*
X017001Y014973D02*
X017334Y014973D01*
X016359Y014973D02*
X016001Y014973D01*
X016036Y014938D02*
X015918Y015056D01*
X015764Y015120D01*
X015596Y015120D01*
X015442Y015056D01*
X015324Y014938D01*
X015260Y014784D01*
X015260Y014096D01*
X015324Y013942D01*
X015442Y013824D01*
X015596Y013760D01*
X015764Y013760D01*
X015918Y013824D01*
X016036Y013942D01*
X016100Y014096D01*
X016100Y014784D01*
X016036Y014938D01*
X016087Y014815D02*
X016273Y014815D01*
X016260Y014656D02*
X016100Y014656D01*
X016100Y014498D02*
X016260Y014498D01*
X016260Y014339D02*
X016100Y014339D01*
X016100Y014181D02*
X016260Y014181D01*
X016291Y014022D02*
X016069Y014022D01*
X015957Y013864D02*
X016403Y013864D01*
X016933Y013547D02*
X013485Y013547D01*
X013485Y013705D02*
X018648Y013705D01*
X018490Y013547D02*
X018427Y013547D01*
X016803Y013388D02*
X013619Y013388D01*
X013777Y013230D02*
X016760Y013230D01*
X016760Y013071D02*
X013936Y013071D01*
X014094Y012913D02*
X016750Y012913D01*
X016591Y012754D02*
X014253Y012754D01*
X014411Y012596D02*
X016433Y012596D01*
X016274Y012437D02*
X014570Y012437D01*
X014728Y012279D02*
X016116Y012279D01*
X015957Y012120D02*
X014887Y012120D01*
X015045Y011962D02*
X015348Y011962D01*
X015268Y011803D02*
X015204Y011803D01*
X016100Y011486D02*
X016260Y011486D01*
X016260Y011328D02*
X016100Y011328D01*
X016100Y011169D02*
X016260Y011169D01*
X016296Y011011D02*
X016064Y011011D01*
X015946Y010852D02*
X016414Y010852D01*
X016067Y010535D02*
X023043Y010535D01*
X023307Y010535D02*
X024473Y010535D01*
X024631Y010377D02*
X016225Y010377D01*
X016384Y010218D02*
X024790Y010218D01*
X024948Y010060D02*
X016542Y010060D01*
X016701Y009901D02*
X025107Y009901D01*
X025542Y010060D02*
X029938Y010060D01*
X029998Y010000D02*
X030180Y010000D01*
X030362Y010000D01*
X030620Y010258D01*
X030620Y010440D01*
X030620Y010622D01*
X030362Y010880D01*
X030180Y010880D01*
X030180Y010440D01*
X030620Y010440D01*
X030180Y010440D01*
X030180Y010440D01*
X030180Y010440D01*
X030180Y010000D01*
X030180Y010440D01*
X030180Y010440D01*
X030180Y010440D01*
X029740Y010440D01*
X029740Y010622D01*
X029998Y010880D01*
X030180Y010880D01*
X030180Y010440D01*
X029740Y010440D01*
X029740Y010258D01*
X029998Y010000D01*
X030180Y010060D02*
X030180Y010060D01*
X030180Y010218D02*
X030180Y010218D01*
X030180Y010377D02*
X030180Y010377D01*
X030180Y010535D02*
X030180Y010535D01*
X030180Y010694D02*
X030180Y010694D01*
X030180Y010852D02*
X030180Y010852D01*
X030390Y010852D02*
X030998Y010852D01*
X031006Y010860D02*
X030760Y010614D01*
X030760Y010266D01*
X031006Y010020D01*
X031354Y010020D01*
X031600Y010266D01*
X031600Y010614D01*
X031354Y010860D01*
X031006Y010860D01*
X030840Y010694D02*
X030549Y010694D01*
X030620Y010535D02*
X030760Y010535D01*
X030760Y010377D02*
X030620Y010377D01*
X030580Y010218D02*
X030808Y010218D01*
X030967Y010060D02*
X030422Y010060D01*
X029780Y010218D02*
X025384Y010218D01*
X025225Y010377D02*
X029740Y010377D01*
X029740Y010535D02*
X025067Y010535D01*
X024908Y010694D02*
X029811Y010694D01*
X029970Y010852D02*
X024946Y010852D01*
X025064Y011011D02*
X038220Y011011D01*
X038220Y011169D02*
X037940Y011169D01*
X037879Y010960D02*
X037700Y010960D01*
X037700Y010500D01*
X037660Y010500D01*
X037660Y010960D01*
X037481Y010960D01*
X037200Y010679D01*
X037200Y010500D01*
X037660Y010500D01*
X037660Y010460D01*
X037200Y010460D01*
X037200Y010281D01*
X037481Y010000D01*
X037660Y010000D01*
X037660Y010460D01*
X037700Y010460D01*
X037700Y010500D01*
X038160Y010500D01*
X038160Y010679D01*
X037879Y010960D01*
X037987Y010852D02*
X038220Y010852D01*
X038220Y010829D02*
X038489Y010560D01*
X038871Y010560D01*
X039140Y010829D01*
X039140Y011211D01*
X038871Y011480D01*
X038489Y011480D01*
X038220Y011211D01*
X038220Y010829D01*
X038145Y010694D02*
X038356Y010694D01*
X038160Y010535D02*
X041400Y010535D01*
X041400Y010377D02*
X038922Y010377D01*
X038879Y010420D02*
X038700Y010420D01*
X038700Y009960D01*
X038660Y009960D01*
X038660Y010420D01*
X038481Y010420D01*
X038200Y010139D01*
X038200Y009960D01*
X038660Y009960D01*
X038660Y009920D01*
X038200Y009920D01*
X038200Y009741D01*
X038481Y009460D01*
X038660Y009460D01*
X038660Y009920D01*
X038700Y009920D01*
X038700Y009960D01*
X039160Y009960D01*
X039160Y010139D01*
X038879Y010420D01*
X038700Y010377D02*
X038660Y010377D01*
X038660Y010218D02*
X038700Y010218D01*
X038700Y010060D02*
X038660Y010060D01*
X038700Y009920D02*
X039160Y009920D01*
X039160Y009741D01*
X038879Y009460D01*
X038700Y009460D01*
X038700Y009920D01*
X038700Y009901D02*
X038660Y009901D01*
X038660Y009743D02*
X038700Y009743D01*
X038700Y009584D02*
X038660Y009584D01*
X038357Y009584D02*
X038160Y009584D01*
X038160Y009599D02*
X037879Y009880D01*
X037700Y009880D01*
X037700Y009420D01*
X037660Y009420D01*
X037660Y009380D01*
X037700Y009380D01*
X037700Y009420D01*
X038160Y009420D01*
X038160Y009599D01*
X038200Y009743D02*
X038016Y009743D01*
X038200Y009901D02*
X025701Y009901D01*
X025859Y009743D02*
X037344Y009743D01*
X037200Y009584D02*
X026018Y009584D01*
X026335Y009267D02*
X033385Y009267D01*
X033240Y009109D02*
X026493Y009109D01*
X024399Y007841D02*
X024329Y007841D01*
X025141Y007524D02*
X028229Y007524D01*
X028108Y007365D02*
X027753Y007365D01*
X027908Y007207D02*
X028080Y007207D01*
X028124Y007048D02*
X027945Y007048D01*
X028037Y006890D02*
X028309Y006890D01*
X028305Y006731D02*
X028196Y006731D01*
X027761Y006573D02*
X027364Y006573D01*
X027402Y006731D02*
X027206Y006731D01*
X027260Y006890D02*
X027047Y006890D01*
X026889Y007048D02*
X027225Y007048D01*
X027262Y007207D02*
X026730Y007207D01*
X026572Y007365D02*
X027417Y007365D01*
X026454Y006890D02*
X025061Y006890D01*
X027015Y006256D02*
X027088Y006256D01*
X027140Y006097D02*
X027220Y006097D01*
X027220Y005939D02*
X027140Y005939D01*
X027140Y005780D02*
X027220Y005780D01*
X027348Y005622D02*
X027012Y005622D01*
X026348Y005622D02*
X026012Y005622D01*
X026966Y005305D02*
X027394Y005305D01*
X027235Y005146D02*
X027125Y005146D01*
X027140Y004988D02*
X027220Y004988D01*
X027220Y004829D02*
X027140Y004829D01*
X027061Y004671D02*
X027299Y004671D01*
X027457Y004512D02*
X026903Y004512D01*
X027903Y004512D02*
X028455Y004512D01*
X028299Y004671D02*
X028061Y004671D01*
X028140Y004829D02*
X028220Y004829D01*
X028220Y004988D02*
X028140Y004988D01*
X028125Y005146D02*
X028235Y005146D01*
X028394Y005305D02*
X027966Y005305D01*
X028012Y005622D02*
X028348Y005622D01*
X028220Y005780D02*
X028140Y005780D01*
X028140Y005939D02*
X028220Y005939D01*
X028220Y006097D02*
X028140Y006097D01*
X028078Y006256D02*
X028015Y006256D01*
X027919Y006414D02*
X027523Y006414D01*
X028843Y006414D02*
X028909Y006414D01*
X029015Y006256D02*
X029068Y006256D01*
X029140Y006097D02*
X029220Y006097D01*
X029220Y005939D02*
X029140Y005939D01*
X029140Y005780D02*
X029218Y005780D01*
X029060Y005622D02*
X029012Y005622D01*
X029040Y005463D02*
X019474Y005463D01*
X019966Y005305D02*
X020394Y005305D01*
X020235Y005146D02*
X020125Y005146D01*
X020140Y004988D02*
X020220Y004988D01*
X020220Y004829D02*
X020140Y004829D01*
X020061Y004671D02*
X020299Y004671D01*
X020457Y004512D02*
X019903Y004512D01*
X022660Y004512D02*
X022700Y004512D01*
X022700Y004671D02*
X022660Y004671D01*
X022660Y004829D02*
X022700Y004829D01*
X022700Y004988D02*
X022660Y004988D01*
X022660Y005146D02*
X022700Y005146D01*
X022700Y005305D02*
X022660Y005305D01*
X024012Y005622D02*
X024348Y005622D01*
X028966Y005305D02*
X029040Y005305D01*
X029495Y005463D02*
X041400Y005463D01*
X041400Y005305D02*
X040458Y005305D01*
X040754Y005146D02*
X041400Y005146D01*
X041400Y004988D02*
X040912Y004988D01*
X040998Y004829D02*
X041400Y004829D01*
X041400Y004671D02*
X041064Y004671D01*
X041085Y004512D02*
X041400Y004512D01*
X039902Y005305D02*
X031994Y005305D01*
X031879Y005420D02*
X031700Y005420D01*
X031700Y004960D01*
X032160Y004960D01*
X032160Y005139D01*
X031879Y005420D01*
X031871Y005480D02*
X032140Y005749D01*
X032140Y006131D01*
X031871Y006400D01*
X031489Y006400D01*
X031220Y006131D01*
X031220Y005749D01*
X031489Y005480D01*
X031871Y005480D01*
X032012Y005622D02*
X041400Y005622D01*
X041400Y005780D02*
X037951Y005780D01*
X037871Y005700D02*
X037489Y005700D01*
X037220Y005969D01*
X037220Y006351D01*
X037489Y006620D01*
X037871Y006620D01*
X038140Y006351D01*
X038140Y005969D01*
X037871Y005700D01*
X037409Y005780D02*
X032140Y005780D01*
X032140Y005939D02*
X037251Y005939D01*
X037220Y006097D02*
X032140Y006097D01*
X032015Y006256D02*
X037220Y006256D01*
X037283Y006414D02*
X030493Y006414D01*
X030334Y006573D02*
X037442Y006573D01*
X037918Y006573D02*
X038220Y006573D01*
X038220Y006731D02*
X030176Y006731D01*
X030017Y006890D02*
X037380Y006890D01*
X037221Y007048D02*
X029859Y007048D01*
X029700Y007207D02*
X037220Y007207D01*
X037220Y007365D02*
X029542Y007365D01*
X029424Y006890D02*
X029027Y006890D01*
X029186Y006731D02*
X029582Y006731D01*
X029741Y006573D02*
X029344Y006573D01*
X029503Y006414D02*
X029899Y006414D01*
X030015Y006256D02*
X030058Y006256D01*
X030140Y006097D02*
X030216Y006097D01*
X030220Y005939D02*
X030140Y005939D01*
X030140Y005780D02*
X030220Y005780D01*
X030348Y005622D02*
X030012Y005622D01*
X029966Y005305D02*
X030394Y005305D01*
X030235Y005146D02*
X030125Y005146D01*
X030140Y004988D02*
X030220Y004988D01*
X030220Y004829D02*
X030140Y004829D01*
X030061Y004671D02*
X030299Y004671D01*
X030457Y004512D02*
X029960Y004512D01*
X030903Y004512D02*
X031429Y004512D01*
X031481Y004460D02*
X031660Y004460D01*
X031660Y004920D01*
X031700Y004920D01*
X031700Y004960D01*
X031660Y004960D01*
X031660Y005420D01*
X031481Y005420D01*
X031200Y005139D01*
X031200Y004960D01*
X031660Y004960D01*
X031660Y004920D01*
X031200Y004920D01*
X031200Y004741D01*
X031481Y004460D01*
X031660Y004512D02*
X031700Y004512D01*
X031700Y004460D02*
X031879Y004460D01*
X032160Y004741D01*
X032160Y004920D01*
X031700Y004920D01*
X031700Y004460D01*
X031700Y004671D02*
X031660Y004671D01*
X031660Y004829D02*
X031700Y004829D01*
X031700Y004988D02*
X031660Y004988D01*
X031660Y005146D02*
X031700Y005146D01*
X031700Y005305D02*
X031660Y005305D01*
X031366Y005305D02*
X030966Y005305D01*
X031125Y005146D02*
X031207Y005146D01*
X031200Y004988D02*
X031140Y004988D01*
X031140Y004829D02*
X031200Y004829D01*
X031271Y004671D02*
X031061Y004671D01*
X031931Y004512D02*
X037923Y004512D01*
X038437Y004512D02*
X039275Y004512D01*
X039296Y004671D02*
X032089Y004671D01*
X032160Y004829D02*
X039362Y004829D01*
X039448Y004988D02*
X032160Y004988D01*
X032153Y005146D02*
X039606Y005146D01*
X038109Y005939D02*
X041400Y005939D01*
X041400Y006097D02*
X038140Y006097D01*
X038140Y006256D02*
X038474Y006256D01*
X038315Y006414D02*
X038077Y006414D01*
X038886Y006256D02*
X041400Y006256D01*
X041400Y006414D02*
X039045Y006414D01*
X039140Y006573D02*
X041400Y006573D01*
X041400Y006731D02*
X039140Y006731D01*
X039140Y006890D02*
X041400Y006890D01*
X041400Y007048D02*
X038983Y007048D01*
X038220Y006890D02*
X037980Y006890D01*
X038945Y008475D02*
X041400Y008475D01*
X041400Y008633D02*
X039104Y008633D01*
X039140Y008792D02*
X041400Y008792D01*
X041400Y008950D02*
X039140Y008950D01*
X039082Y009109D02*
X041400Y009109D01*
X041400Y009267D02*
X038924Y009267D01*
X038436Y009267D02*
X038160Y009267D01*
X038160Y009201D02*
X038160Y009380D01*
X037700Y009380D01*
X037700Y008920D01*
X037879Y008920D01*
X038160Y009201D01*
X038067Y009109D02*
X038278Y009109D01*
X038220Y008950D02*
X037909Y008950D01*
X037700Y008950D02*
X037660Y008950D01*
X037660Y009109D02*
X037700Y009109D01*
X037700Y009267D02*
X037660Y009267D01*
X037660Y009426D02*
X037700Y009426D01*
X037700Y009584D02*
X037660Y009584D01*
X037660Y009743D02*
X037700Y009743D01*
X038160Y009426D02*
X041400Y009426D01*
X041400Y009584D02*
X039003Y009584D01*
X039160Y009743D02*
X041400Y009743D01*
X041400Y009901D02*
X039160Y009901D01*
X039160Y010060D02*
X041400Y010060D01*
X041400Y010218D02*
X039081Y010218D01*
X039004Y010694D02*
X041400Y010694D01*
X041400Y010852D02*
X039140Y010852D01*
X039140Y011011D02*
X041400Y011011D01*
X041400Y011169D02*
X039140Y011169D01*
X039023Y011328D02*
X041400Y011328D01*
X041400Y011486D02*
X038140Y011486D01*
X038140Y011645D02*
X038485Y011645D01*
X038489Y011640D02*
X038871Y011640D01*
X039140Y011909D01*
X039140Y012291D01*
X038871Y012560D01*
X038489Y012560D01*
X038220Y012291D01*
X038220Y011909D01*
X038489Y011640D01*
X038326Y011803D02*
X038088Y011803D01*
X038220Y011962D02*
X037929Y011962D01*
X037875Y012120D02*
X038220Y012120D01*
X038220Y012279D02*
X037969Y012279D01*
X038128Y012437D02*
X038366Y012437D01*
X038140Y012596D02*
X041400Y012596D01*
X041400Y012754D02*
X038905Y012754D01*
X038871Y012720D02*
X039140Y012989D01*
X039140Y013371D01*
X038871Y013640D01*
X038489Y013640D01*
X038220Y013371D01*
X038220Y012989D01*
X038489Y012720D01*
X038871Y012720D01*
X039063Y012913D02*
X041400Y012913D01*
X041400Y013071D02*
X039140Y013071D01*
X039140Y013230D02*
X041400Y013230D01*
X041400Y013388D02*
X039123Y013388D01*
X038964Y013547D02*
X041400Y013547D01*
X041400Y013705D02*
X038140Y013705D01*
X038140Y013547D02*
X038396Y013547D01*
X038237Y013388D02*
X037999Y013388D01*
X037871Y013260D02*
X037489Y013260D01*
X037220Y013529D01*
X037220Y013911D01*
X037489Y014180D01*
X037871Y014180D01*
X038140Y013911D01*
X038140Y013529D01*
X037871Y013260D01*
X037900Y013071D02*
X038220Y013071D01*
X038220Y013230D02*
X036772Y013230D01*
X036614Y013388D02*
X037361Y013388D01*
X037220Y013547D02*
X036455Y013547D01*
X036297Y013705D02*
X037220Y013705D01*
X037220Y013864D02*
X036138Y013864D01*
X035980Y014022D02*
X037331Y014022D01*
X038029Y014022D02*
X041400Y014022D01*
X041400Y013864D02*
X038140Y013864D01*
X037460Y013071D02*
X036931Y013071D01*
X037089Y012913D02*
X037302Y012913D01*
X038058Y012913D02*
X038297Y012913D01*
X038140Y012754D02*
X038455Y012754D01*
X038994Y012437D02*
X041400Y012437D01*
X041400Y012279D02*
X039140Y012279D01*
X039140Y012120D02*
X041400Y012120D01*
X041400Y011962D02*
X039140Y011962D01*
X039034Y011803D02*
X041400Y011803D01*
X041400Y011645D02*
X038875Y011645D01*
X038337Y011328D02*
X038098Y011328D01*
X037420Y011169D02*
X035503Y011169D01*
X035600Y011266D02*
X035354Y011020D01*
X035006Y011020D01*
X034760Y011266D01*
X034760Y011614D01*
X035006Y011860D01*
X035354Y011860D01*
X035600Y011614D01*
X035600Y011266D01*
X035600Y011328D02*
X037262Y011328D01*
X037220Y011486D02*
X035600Y011486D01*
X035569Y011645D02*
X037220Y011645D01*
X037272Y011803D02*
X035411Y011803D01*
X034949Y011803D02*
X032411Y011803D01*
X032354Y011860D02*
X032006Y011860D01*
X031760Y011614D01*
X031760Y011266D01*
X032006Y011020D01*
X032354Y011020D01*
X032600Y011266D01*
X032600Y011614D01*
X032354Y011860D01*
X032237Y012120D02*
X037288Y012120D01*
X037431Y011962D02*
X032079Y011962D01*
X031949Y011803D02*
X031920Y011803D01*
X031791Y011645D02*
X031762Y011645D01*
X031760Y011486D02*
X031603Y011486D01*
X031760Y011328D02*
X031445Y011328D01*
X031857Y011169D02*
X025100Y011169D01*
X024156Y010852D02*
X023946Y010852D01*
X024314Y010694D02*
X023492Y010694D01*
X025100Y011665D02*
X025100Y011784D01*
X025036Y011938D01*
X024918Y012056D01*
X024764Y012120D01*
X024596Y012120D01*
X024442Y012056D01*
X024399Y012013D01*
X024152Y012260D01*
X024264Y012260D01*
X024418Y012324D01*
X024536Y012442D01*
X024539Y012449D01*
X024810Y012178D01*
X024933Y012055D01*
X029157Y012055D01*
X030814Y013712D01*
X031006Y013520D01*
X031354Y013520D01*
X031599Y013765D01*
X031761Y013765D01*
X032006Y013520D01*
X032354Y013520D01*
X032600Y013766D01*
X032600Y014114D01*
X032354Y014360D01*
X032006Y014360D01*
X031831Y014185D01*
X031529Y014185D01*
X031354Y014360D01*
X031327Y014360D01*
X031760Y014793D01*
X031760Y014766D01*
X032006Y014520D01*
X032354Y014520D01*
X032600Y014766D01*
X032600Y015114D01*
X032354Y015360D01*
X032327Y015360D01*
X032802Y015835D01*
X034377Y015835D01*
X034562Y016020D01*
X034854Y016020D01*
X034890Y016056D01*
X034890Y015952D01*
X031298Y012360D01*
X031006Y012360D01*
X030760Y012114D01*
X030760Y011766D01*
X030861Y011665D01*
X030527Y011665D01*
X030620Y011758D01*
X030620Y011940D01*
X030620Y012122D01*
X030362Y012380D01*
X030180Y012380D01*
X030180Y011940D01*
X030180Y011940D01*
X030620Y011940D01*
X030180Y011940D01*
X030180Y011940D01*
X030180Y011940D01*
X029740Y011940D01*
X029740Y012122D01*
X029998Y012380D01*
X030180Y012380D01*
X030180Y011940D01*
X029740Y011940D01*
X029740Y011758D01*
X029833Y011665D01*
X025100Y011665D01*
X025092Y011803D02*
X029740Y011803D01*
X029740Y011962D02*
X025012Y011962D01*
X024868Y012120D02*
X024292Y012120D01*
X024308Y012279D02*
X024709Y012279D01*
X024551Y012437D02*
X024531Y012437D01*
X025550Y012475D02*
X025600Y012596D01*
X025600Y013284D01*
X025536Y013438D01*
X025418Y013556D01*
X025264Y013620D01*
X025096Y013620D01*
X024942Y013556D01*
X024889Y013503D01*
X024567Y013825D01*
X024419Y013825D01*
X024536Y013942D01*
X024600Y014096D01*
X024600Y014548D01*
X024760Y014388D01*
X024760Y014096D01*
X024824Y013942D01*
X024942Y013824D01*
X025096Y013760D01*
X025264Y013760D01*
X025418Y013824D01*
X025536Y013942D01*
X025600Y014096D01*
X025600Y014784D01*
X025536Y014938D01*
X025418Y015056D01*
X025384Y015070D01*
X025976Y015070D01*
X025942Y015056D01*
X025824Y014938D01*
X025760Y014784D01*
X025760Y014096D01*
X025824Y013942D01*
X025942Y013824D01*
X026096Y013760D01*
X026264Y013760D01*
X026418Y013824D01*
X026536Y013942D01*
X026600Y014096D01*
X026600Y014784D01*
X026536Y014938D01*
X026418Y015056D01*
X026384Y015070D01*
X026976Y015070D01*
X026942Y015056D01*
X026824Y014938D01*
X026760Y014784D01*
X026760Y014096D01*
X026824Y013942D01*
X026942Y013824D01*
X027096Y013760D01*
X027264Y013760D01*
X027418Y013824D01*
X027536Y013942D01*
X027600Y014096D01*
X027600Y014260D01*
X029878Y014260D01*
X029740Y014122D01*
X029740Y013940D01*
X030180Y013940D01*
X030180Y013940D01*
X029740Y013940D01*
X029740Y013758D01*
X029998Y013500D01*
X030008Y013500D01*
X028983Y012475D01*
X025550Y012475D01*
X025600Y012596D02*
X029104Y012596D01*
X029262Y012754D02*
X025600Y012754D01*
X025600Y012913D02*
X029421Y012913D01*
X029579Y013071D02*
X025600Y013071D01*
X025600Y013230D02*
X029738Y013230D01*
X029896Y013388D02*
X025557Y013388D01*
X025427Y013547D02*
X029951Y013547D01*
X029793Y013705D02*
X024687Y013705D01*
X024845Y013547D02*
X024933Y013547D01*
X024903Y013864D02*
X024457Y013864D01*
X024569Y014022D02*
X024791Y014022D01*
X024760Y014181D02*
X024600Y014181D01*
X024600Y014339D02*
X024760Y014339D01*
X024650Y014498D02*
X024600Y014498D01*
X025600Y014498D02*
X025760Y014498D01*
X025760Y014656D02*
X025600Y014656D01*
X025587Y014815D02*
X025773Y014815D01*
X025859Y014973D02*
X025501Y014973D01*
X026501Y014973D02*
X026859Y014973D01*
X026773Y014815D02*
X026587Y014815D01*
X026600Y014656D02*
X026760Y014656D01*
X026760Y014498D02*
X026600Y014498D01*
X026600Y014339D02*
X026760Y014339D01*
X026760Y014181D02*
X026600Y014181D01*
X026569Y014022D02*
X026791Y014022D01*
X026903Y013864D02*
X026457Y013864D01*
X025903Y013864D02*
X025457Y013864D01*
X025569Y014022D02*
X025791Y014022D01*
X025760Y014181D02*
X025600Y014181D01*
X025600Y014339D02*
X025760Y014339D01*
X027457Y013864D02*
X029740Y013864D01*
X029740Y014022D02*
X027569Y014022D01*
X027600Y014181D02*
X029798Y014181D01*
X030807Y013705D02*
X030821Y013705D01*
X030980Y013547D02*
X030649Y013547D01*
X030490Y013388D02*
X032326Y013388D01*
X032380Y013547D02*
X032485Y013547D01*
X032539Y013705D02*
X032643Y013705D01*
X032600Y013864D02*
X032802Y013864D01*
X032960Y014022D02*
X032600Y014022D01*
X032533Y014181D02*
X033119Y014181D01*
X033277Y014339D02*
X032375Y014339D01*
X031985Y014339D02*
X031375Y014339D01*
X031465Y014498D02*
X033436Y014498D01*
X033594Y014656D02*
X032490Y014656D01*
X032600Y014815D02*
X033753Y014815D01*
X033911Y014973D02*
X032600Y014973D01*
X032582Y015132D02*
X034070Y015132D01*
X034228Y015290D02*
X032424Y015290D01*
X032416Y015449D02*
X034387Y015449D01*
X034545Y015607D02*
X032574Y015607D01*
X032733Y015766D02*
X034704Y015766D01*
X034862Y015924D02*
X034466Y015924D01*
X034260Y016400D02*
X034120Y016400D01*
X034120Y016558D02*
X034260Y016558D01*
X033388Y016875D02*
X028367Y016875D01*
X028180Y016875D02*
X028180Y016875D01*
X028180Y016717D02*
X028180Y016717D01*
X028180Y016558D02*
X028180Y016558D01*
X028526Y016717D02*
X033334Y016717D01*
X033240Y016558D02*
X028620Y016558D01*
X028620Y016400D02*
X033240Y016400D01*
X032614Y016241D02*
X028603Y016241D01*
X028445Y016083D02*
X032456Y016083D01*
X032297Y015924D02*
X031558Y015924D01*
X031716Y015766D02*
X032139Y015766D01*
X031980Y015607D02*
X031800Y015607D01*
X031800Y015449D02*
X031822Y015449D01*
X030801Y015655D02*
X030760Y015614D01*
X030760Y015332D01*
X030648Y015220D01*
X030582Y015220D01*
X030620Y015258D01*
X030620Y015440D01*
X030620Y015622D01*
X030587Y015655D01*
X030801Y015655D01*
X030760Y015607D02*
X030620Y015607D01*
X030620Y015449D02*
X030760Y015449D01*
X030620Y015440D02*
X030180Y015440D01*
X030180Y015440D01*
X030180Y015440D01*
X029740Y015440D01*
X029740Y015622D01*
X029773Y015655D01*
X028559Y015655D01*
X028600Y015614D01*
X028600Y015266D01*
X028554Y015220D01*
X029778Y015220D01*
X029740Y015258D01*
X029740Y015440D01*
X030180Y015440D01*
X030620Y015440D01*
X030620Y015290D02*
X030718Y015290D01*
X029740Y015290D02*
X028600Y015290D01*
X028600Y015449D02*
X029740Y015449D01*
X029740Y015607D02*
X028600Y015607D01*
X027915Y016083D02*
X015770Y016083D01*
X015611Y015924D02*
X021542Y015924D01*
X021384Y015766D02*
X015453Y015766D01*
X015294Y015607D02*
X021225Y015607D01*
X021067Y015449D02*
X015136Y015449D01*
X014700Y015607D02*
X000460Y015607D01*
X000460Y015449D02*
X003562Y015449D01*
X003403Y015290D02*
X000460Y015290D01*
X000460Y015132D02*
X003245Y015132D01*
X003086Y014973D02*
X003001Y014973D01*
X002359Y014973D02*
X002001Y014973D01*
X002036Y014938D02*
X001918Y015056D01*
X001764Y015120D01*
X001596Y015120D01*
X001442Y015056D01*
X001324Y014938D01*
X001260Y014784D01*
X001260Y014096D01*
X001324Y013942D01*
X001442Y013824D01*
X001596Y013760D01*
X001764Y013760D01*
X001918Y013824D01*
X002036Y013942D01*
X002100Y014096D01*
X002100Y014784D01*
X002036Y014938D01*
X002087Y014815D02*
X002273Y014815D01*
X002260Y014656D02*
X002100Y014656D01*
X002100Y014498D02*
X002260Y014498D01*
X002260Y014339D02*
X002100Y014339D01*
X002100Y014181D02*
X002260Y014181D01*
X002291Y014022D02*
X002069Y014022D01*
X001957Y013864D02*
X002403Y013864D01*
X002313Y013705D02*
X000460Y013705D01*
X000460Y013547D02*
X001433Y013547D01*
X001303Y013388D02*
X000460Y013388D01*
X000460Y013230D02*
X001260Y013230D01*
X001260Y013071D02*
X000460Y013071D01*
X000460Y012913D02*
X001260Y012913D01*
X001260Y012754D02*
X000460Y012754D01*
X000460Y012596D02*
X001260Y012596D01*
X001329Y012437D02*
X000460Y012437D01*
X000460Y012279D02*
X001552Y012279D01*
X001808Y012279D02*
X002040Y012279D01*
X002031Y012437D02*
X002040Y012437D01*
X002040Y012120D02*
X000460Y012120D01*
X000460Y011962D02*
X001348Y011962D01*
X001268Y011803D02*
X000911Y011803D01*
X001069Y011645D02*
X001260Y011645D01*
X001260Y011486D02*
X001100Y011486D01*
X001100Y011328D02*
X001260Y011328D01*
X001260Y011169D02*
X001003Y011169D01*
X001296Y011011D02*
X000460Y011011D01*
X000460Y010852D02*
X000470Y010852D01*
X000680Y010852D02*
X000680Y010852D01*
X000680Y010694D02*
X000680Y010694D01*
X000680Y010535D02*
X000680Y010535D01*
X000680Y010440D02*
X000680Y010000D01*
X000680Y010440D01*
X000680Y010440D01*
X000680Y010377D02*
X000680Y010377D01*
X000680Y010218D02*
X000680Y010218D01*
X000680Y010060D02*
X000680Y010060D01*
X000922Y010060D02*
X001500Y010060D01*
X001500Y010218D02*
X001080Y010218D01*
X001120Y010377D02*
X001500Y010377D01*
X001500Y010535D02*
X001120Y010535D01*
X001049Y010694D02*
X001500Y010694D01*
X001414Y010852D02*
X000890Y010852D01*
X001920Y010535D02*
X004470Y010535D01*
X004470Y010377D02*
X001920Y010377D01*
X001920Y010218D02*
X004316Y010218D01*
X004158Y010060D02*
X001920Y010060D01*
X001920Y009901D02*
X003999Y009901D01*
X003841Y009743D02*
X001920Y009743D01*
X001920Y009584D02*
X003682Y009584D01*
X003524Y009426D02*
X001920Y009426D01*
X001920Y009267D02*
X003365Y009267D01*
X003207Y009109D02*
X002791Y009109D01*
X002569Y009109D02*
X001920Y009109D01*
X002024Y008950D02*
X002336Y008950D01*
X002263Y008792D02*
X002097Y008792D01*
X002100Y008633D02*
X002260Y008633D01*
X002260Y008475D02*
X002100Y008475D01*
X002100Y008316D02*
X002260Y008316D01*
X002260Y008158D02*
X002100Y008158D01*
X002060Y007999D02*
X002300Y007999D01*
X002426Y007841D02*
X001934Y007841D01*
X001426Y007841D02*
X000460Y007841D01*
X000460Y007999D02*
X001300Y007999D01*
X001260Y008158D02*
X000460Y008158D01*
X000460Y008316D02*
X001260Y008316D01*
X001260Y008475D02*
X000460Y008475D01*
X000460Y008633D02*
X001260Y008633D01*
X001263Y008792D02*
X000460Y008792D01*
X000460Y008950D02*
X001336Y008950D01*
X001500Y009109D02*
X000460Y009109D01*
X000460Y009267D02*
X001500Y009267D01*
X001500Y009426D02*
X000460Y009426D01*
X000460Y009584D02*
X001500Y009584D01*
X001500Y009743D02*
X000460Y009743D01*
X000460Y009901D02*
X001500Y009901D01*
X002056Y010694D02*
X004470Y010694D01*
X004414Y010852D02*
X003946Y010852D01*
X003918Y010824D02*
X004036Y010942D01*
X004100Y011096D01*
X004100Y011784D01*
X004036Y011938D01*
X003918Y012056D01*
X003764Y012120D01*
X003596Y012120D01*
X003442Y012056D01*
X003324Y011938D01*
X003260Y011784D01*
X003260Y011096D01*
X003324Y010942D01*
X003442Y010824D01*
X003596Y010760D01*
X003764Y010760D01*
X003918Y010824D01*
X004064Y011011D02*
X004296Y011011D01*
X004260Y011169D02*
X004100Y011169D01*
X004100Y011328D02*
X004260Y011328D01*
X004260Y011486D02*
X004100Y011486D01*
X004100Y011645D02*
X004260Y011645D01*
X004268Y011803D02*
X004092Y011803D01*
X004012Y011962D02*
X004348Y011962D01*
X004213Y012120D02*
X002987Y012120D01*
X003012Y011962D02*
X003348Y011962D01*
X003268Y011803D02*
X003092Y011803D01*
X003100Y011645D02*
X003260Y011645D01*
X003260Y011486D02*
X003100Y011486D01*
X003100Y011328D02*
X003260Y011328D01*
X003260Y011169D02*
X003100Y011169D01*
X003064Y011011D02*
X003296Y011011D01*
X003414Y010852D02*
X002946Y010852D01*
X002414Y010852D02*
X002214Y010852D01*
X002040Y011962D02*
X002012Y011962D01*
X003146Y012279D02*
X003552Y012279D01*
X003808Y012279D02*
X004054Y012279D01*
X003329Y012437D02*
X003304Y012437D01*
X002163Y013555D02*
X002163Y013555D01*
X002155Y013547D02*
X001927Y013547D01*
X001403Y013864D02*
X000460Y013864D01*
X000460Y014022D02*
X001291Y014022D01*
X001260Y014181D02*
X000460Y014181D01*
X000460Y014339D02*
X001260Y014339D01*
X001260Y014498D02*
X000460Y014498D01*
X000460Y014656D02*
X001260Y014656D01*
X001273Y014815D02*
X000460Y014815D01*
X000460Y014973D02*
X001359Y014973D01*
X000460Y015766D02*
X014859Y015766D01*
X015017Y015924D02*
X000460Y015924D01*
X000460Y016083D02*
X010415Y016083D01*
X010498Y016000D02*
X010240Y016258D01*
X010240Y016440D01*
X010680Y016440D01*
X010680Y016440D01*
X010680Y016880D01*
X010862Y016880D01*
X011120Y016622D01*
X011120Y016440D01*
X010680Y016440D01*
X010680Y016440D01*
X010680Y016440D01*
X010680Y016880D01*
X010498Y016880D01*
X010240Y016622D01*
X010240Y016440D01*
X010680Y016440D01*
X011120Y016440D01*
X011120Y016258D01*
X010862Y016000D01*
X010680Y016000D01*
X010680Y016440D01*
X010680Y016440D01*
X010680Y016000D01*
X010498Y016000D01*
X010680Y016083D02*
X010680Y016083D01*
X010680Y016241D02*
X010680Y016241D01*
X010680Y016400D02*
X010680Y016400D01*
X010680Y016558D02*
X010680Y016558D01*
X010680Y016717D02*
X010680Y016717D01*
X010680Y016875D02*
X010680Y016875D01*
X010867Y016875D02*
X011391Y016875D01*
X011442Y016824D02*
X011596Y016760D01*
X011764Y016760D01*
X011918Y016824D01*
X012036Y016942D01*
X012100Y017096D01*
X012100Y017472D01*
X012240Y017612D01*
X012240Y017440D01*
X012680Y017440D01*
X013120Y017440D01*
X013120Y017735D01*
X013109Y017803D01*
X013088Y017869D01*
X013072Y017900D01*
X013288Y017900D01*
X013272Y017869D01*
X013251Y017803D01*
X013240Y017735D01*
X013240Y017440D01*
X013680Y017440D01*
X014120Y017440D01*
X014120Y017735D01*
X014109Y017803D01*
X014088Y017869D01*
X014072Y017900D01*
X014308Y017900D01*
X014260Y017784D01*
X014260Y017096D01*
X014324Y016942D01*
X014442Y016824D01*
X014596Y016760D01*
X014764Y016760D01*
X014918Y016824D01*
X015036Y016942D01*
X015100Y017096D01*
X015100Y017784D01*
X015052Y017900D01*
X015288Y017900D01*
X015272Y017869D01*
X015251Y017803D01*
X015240Y017735D01*
X015240Y017440D01*
X015680Y017440D01*
X016120Y017440D01*
X016120Y017735D01*
X016109Y017803D01*
X016088Y017869D01*
X016072Y017900D01*
X016288Y017900D01*
X016272Y017869D01*
X016251Y017803D01*
X016240Y017735D01*
X016240Y017440D01*
X016680Y017440D01*
X017120Y017440D01*
X017120Y017735D01*
X017109Y017803D01*
X017088Y017869D01*
X017072Y017900D01*
X017308Y017900D01*
X017260Y017784D01*
X017260Y017096D01*
X017324Y016942D01*
X017442Y016824D01*
X017596Y016760D01*
X017764Y016760D01*
X017918Y016824D01*
X018036Y016942D01*
X018100Y017096D01*
X018100Y017765D01*
X018761Y017765D01*
X019006Y017520D01*
X019354Y017520D01*
X019600Y017766D01*
X019600Y017900D01*
X019808Y017900D01*
X019760Y017784D01*
X019760Y017096D01*
X019824Y016942D01*
X019942Y016824D01*
X020096Y016760D01*
X020264Y016760D01*
X020418Y016824D01*
X020536Y016942D01*
X020600Y017096D01*
X020600Y017784D01*
X020593Y017801D01*
X020724Y017855D01*
X020825Y017956D01*
X020880Y018088D01*
X020880Y018232D01*
X020825Y018364D01*
X020724Y018465D01*
X020592Y018520D01*
X020448Y018520D01*
X020316Y018465D01*
X020271Y018420D01*
X019343Y018420D01*
X019248Y018380D01*
X019227Y018360D01*
X019006Y018360D01*
X018931Y018285D01*
X018108Y018285D01*
X018085Y018307D01*
X018012Y018380D01*
X017917Y018420D01*
X012368Y018420D01*
X012273Y018380D01*
X011933Y018041D01*
X011918Y018056D01*
X011764Y018120D01*
X011596Y018120D01*
X011442Y018056D01*
X011324Y017938D01*
X011260Y017784D01*
X011260Y017096D01*
X011324Y016942D01*
X011442Y016824D01*
X011120Y016558D02*
X015651Y016558D01*
X015645Y016740D02*
X015680Y016740D01*
X015715Y016740D01*
X015783Y016751D01*
X015849Y016772D01*
X015911Y016804D01*
X015967Y016844D01*
X016016Y016893D01*
X016056Y016949D01*
X016088Y017011D01*
X016109Y017077D01*
X016120Y017145D01*
X016120Y017440D01*
X015680Y017440D01*
X015680Y017440D01*
X015680Y016740D01*
X015680Y017440D01*
X015680Y017440D01*
X015680Y017440D01*
X015240Y017440D01*
X015240Y017145D01*
X015251Y017077D01*
X015272Y017011D01*
X015304Y016949D01*
X015344Y016893D01*
X015393Y016844D01*
X015449Y016804D01*
X015511Y016772D01*
X015577Y016751D01*
X015645Y016740D01*
X015680Y016875D02*
X015680Y016875D01*
X015680Y017034D02*
X015680Y017034D01*
X015680Y017192D02*
X015680Y017192D01*
X015680Y017351D02*
X015680Y017351D01*
X016120Y017351D02*
X016240Y017351D01*
X016240Y017440D02*
X016240Y017145D01*
X016251Y017077D01*
X016272Y017011D01*
X016304Y016949D01*
X016344Y016893D01*
X016393Y016844D01*
X016449Y016804D01*
X016511Y016772D01*
X016577Y016751D01*
X016645Y016740D01*
X016680Y016740D01*
X016715Y016740D01*
X016783Y016751D01*
X016849Y016772D01*
X016911Y016804D01*
X016967Y016844D01*
X017016Y016893D01*
X017056Y016949D01*
X017088Y017011D01*
X017109Y017077D01*
X017120Y017145D01*
X017120Y017440D01*
X016680Y017440D01*
X016680Y017440D01*
X016680Y016740D01*
X016680Y017440D01*
X016680Y017440D01*
X016680Y017440D01*
X016240Y017440D01*
X016240Y017509D02*
X016120Y017509D01*
X016120Y017668D02*
X016240Y017668D01*
X016258Y017826D02*
X016102Y017826D01*
X015258Y017826D02*
X015082Y017826D01*
X015100Y017668D02*
X015240Y017668D01*
X015240Y017509D02*
X015100Y017509D01*
X015100Y017351D02*
X015240Y017351D01*
X015240Y017192D02*
X015100Y017192D01*
X015074Y017034D02*
X015265Y017034D01*
X015363Y016875D02*
X014969Y016875D01*
X014391Y016875D02*
X013997Y016875D01*
X014016Y016893D02*
X014056Y016949D01*
X014088Y017011D01*
X014109Y017077D01*
X014120Y017145D01*
X014120Y017440D01*
X013680Y017440D01*
X013680Y017440D01*
X013680Y016740D01*
X013715Y016740D01*
X013783Y016751D01*
X013849Y016772D01*
X013911Y016804D01*
X013967Y016844D01*
X014016Y016893D01*
X014095Y017034D02*
X014286Y017034D01*
X014260Y017192D02*
X014120Y017192D01*
X014120Y017351D02*
X014260Y017351D01*
X014260Y017509D02*
X014120Y017509D01*
X014120Y017668D02*
X014260Y017668D01*
X014278Y017826D02*
X014102Y017826D01*
X013680Y017440D02*
X013680Y017440D01*
X013680Y017440D01*
X013680Y016740D01*
X013645Y016740D01*
X013577Y016751D01*
X013511Y016772D01*
X013449Y016804D01*
X013393Y016844D01*
X013344Y016893D01*
X013304Y016949D01*
X013272Y017011D01*
X013251Y017077D01*
X013240Y017145D01*
X013240Y017440D01*
X013680Y017440D01*
X013680Y017351D02*
X013680Y017351D01*
X013680Y017192D02*
X013680Y017192D01*
X013680Y017034D02*
X013680Y017034D01*
X013680Y016875D02*
X013680Y016875D01*
X013363Y016875D02*
X012997Y016875D01*
X013016Y016893D02*
X013056Y016949D01*
X013088Y017011D01*
X013109Y017077D01*
X013120Y017145D01*
X013120Y017440D01*
X012680Y017440D01*
X012680Y017440D01*
X012680Y016740D01*
X012715Y016740D01*
X012783Y016751D01*
X012849Y016772D01*
X012911Y016804D01*
X012967Y016844D01*
X013016Y016893D01*
X013095Y017034D02*
X013265Y017034D01*
X013240Y017192D02*
X013120Y017192D01*
X013120Y017351D02*
X013240Y017351D01*
X013240Y017509D02*
X013120Y017509D01*
X013120Y017668D02*
X013240Y017668D01*
X013258Y017826D02*
X013102Y017826D01*
X012680Y017440D02*
X012680Y017440D01*
X012680Y017440D01*
X012680Y016740D01*
X012645Y016740D01*
X012577Y016751D01*
X012511Y016772D01*
X012449Y016804D01*
X012393Y016844D01*
X012344Y016893D01*
X012304Y016949D01*
X012272Y017011D01*
X012251Y017077D01*
X012240Y017145D01*
X012240Y017440D01*
X012680Y017440D01*
X012680Y017351D02*
X012680Y017351D01*
X012680Y017192D02*
X012680Y017192D01*
X012680Y017034D02*
X012680Y017034D01*
X012680Y016875D02*
X012680Y016875D01*
X012363Y016875D02*
X011969Y016875D01*
X012074Y017034D02*
X012265Y017034D01*
X012240Y017192D02*
X012100Y017192D01*
X012100Y017351D02*
X012240Y017351D01*
X012240Y017509D02*
X012137Y017509D01*
X011260Y017509D02*
X011100Y017509D01*
X011100Y017614D02*
X011100Y017266D01*
X010854Y017020D01*
X010506Y017020D01*
X010260Y017266D01*
X010260Y017614D01*
X010506Y017860D01*
X010854Y017860D01*
X011100Y017614D01*
X011046Y017668D02*
X011260Y017668D01*
X011278Y017826D02*
X010888Y017826D01*
X010472Y017826D02*
X009082Y017826D01*
X009100Y017784D02*
X009036Y017938D01*
X008918Y018056D01*
X008764Y018120D01*
X008596Y018120D01*
X008442Y018056D01*
X008324Y017938D01*
X008260Y017784D01*
X008260Y017096D01*
X008324Y016942D01*
X008442Y016824D01*
X008596Y016760D01*
X008764Y016760D01*
X008918Y016824D01*
X009036Y016942D01*
X009100Y017096D01*
X009100Y017784D01*
X009100Y017668D02*
X010314Y017668D01*
X010260Y017509D02*
X009100Y017509D01*
X009100Y017351D02*
X010260Y017351D01*
X010334Y017192D02*
X009100Y017192D01*
X009074Y017034D02*
X010493Y017034D01*
X010493Y016875D02*
X008969Y016875D01*
X008391Y016875D02*
X007969Y016875D01*
X007918Y016824D02*
X008036Y016942D01*
X008100Y017096D01*
X008100Y017784D01*
X008036Y017938D01*
X007918Y018056D01*
X007764Y018120D01*
X007596Y018120D01*
X007442Y018056D01*
X007324Y017938D01*
X007260Y017784D01*
X007260Y017096D01*
X007324Y016942D01*
X007442Y016824D01*
X007596Y016760D01*
X007764Y016760D01*
X007918Y016824D01*
X007391Y016875D02*
X006969Y016875D01*
X006918Y016824D02*
X007036Y016942D01*
X007100Y017096D01*
X007100Y017784D01*
X007036Y017938D01*
X006918Y018056D01*
X006764Y018120D01*
X006596Y018120D01*
X006442Y018056D01*
X006324Y017938D01*
X006260Y017784D01*
X006260Y017096D01*
X006324Y016942D01*
X006442Y016824D01*
X006596Y016760D01*
X006764Y016760D01*
X006918Y016824D01*
X006391Y016875D02*
X005969Y016875D01*
X005918Y016824D02*
X006036Y016942D01*
X006100Y017096D01*
X006100Y017784D01*
X006036Y017938D01*
X005918Y018056D01*
X005764Y018120D01*
X005596Y018120D01*
X005442Y018056D01*
X005324Y017938D01*
X005260Y017784D01*
X005260Y017096D01*
X005324Y016942D01*
X005442Y016824D01*
X005596Y016760D01*
X005764Y016760D01*
X005918Y016824D01*
X006074Y017034D02*
X006286Y017034D01*
X006260Y017192D02*
X006100Y017192D01*
X006100Y017351D02*
X006260Y017351D01*
X006260Y017509D02*
X006100Y017509D01*
X006100Y017668D02*
X006260Y017668D01*
X006278Y017826D02*
X006082Y017826D01*
X005989Y017985D02*
X006371Y017985D01*
X006989Y017985D02*
X007371Y017985D01*
X007278Y017826D02*
X007082Y017826D01*
X007100Y017668D02*
X007260Y017668D01*
X007260Y017509D02*
X007100Y017509D01*
X007100Y017351D02*
X007260Y017351D01*
X007260Y017192D02*
X007100Y017192D01*
X007074Y017034D02*
X007286Y017034D01*
X008074Y017034D02*
X008286Y017034D01*
X008260Y017192D02*
X008100Y017192D01*
X008100Y017351D02*
X008260Y017351D01*
X008260Y017509D02*
X008100Y017509D01*
X008100Y017668D02*
X008260Y017668D01*
X008278Y017826D02*
X008082Y017826D01*
X007989Y017985D02*
X008371Y017985D01*
X008989Y017985D02*
X011371Y017985D01*
X012035Y018143D02*
X000460Y018143D01*
X000460Y017985D02*
X001371Y017985D01*
X001324Y017938D02*
X001442Y018056D01*
X001596Y018120D01*
X001764Y018120D01*
X001918Y018056D01*
X002036Y017938D01*
X002100Y017784D01*
X002100Y017096D01*
X002036Y016942D01*
X001918Y016824D01*
X001764Y016760D01*
X001596Y016760D01*
X001442Y016824D01*
X001324Y016942D01*
X001260Y017096D01*
X001260Y017784D01*
X001324Y017938D01*
X001278Y017826D02*
X000460Y017826D01*
X000460Y017668D02*
X001260Y017668D01*
X001260Y017509D02*
X000460Y017509D01*
X000460Y017351D02*
X001260Y017351D01*
X001260Y017192D02*
X000460Y017192D01*
X000460Y017034D02*
X001286Y017034D01*
X001391Y016875D02*
X000460Y016875D01*
X000460Y016717D02*
X010334Y016717D01*
X010240Y016558D02*
X000460Y016558D01*
X000460Y016400D02*
X010240Y016400D01*
X010257Y016241D02*
X000460Y016241D01*
X001969Y016875D02*
X002391Y016875D01*
X002442Y016824D02*
X002324Y016942D01*
X002260Y017096D01*
X002260Y017784D01*
X002324Y017938D01*
X002442Y018056D01*
X002596Y018120D01*
X002764Y018120D01*
X002918Y018056D01*
X003036Y017938D01*
X003100Y017784D01*
X003100Y017096D01*
X003036Y016942D01*
X002918Y016824D01*
X002764Y016760D01*
X002596Y016760D01*
X002442Y016824D01*
X002969Y016875D02*
X003391Y016875D01*
X003442Y016824D02*
X003324Y016942D01*
X003260Y017096D01*
X003260Y017784D01*
X003324Y017938D01*
X003442Y018056D01*
X003596Y018120D01*
X003764Y018120D01*
X003918Y018056D01*
X004036Y017938D01*
X004100Y017784D01*
X004100Y017096D01*
X004036Y016942D01*
X003918Y016824D01*
X003764Y016760D01*
X003596Y016760D01*
X003442Y016824D01*
X003969Y016875D02*
X004391Y016875D01*
X004442Y016824D02*
X004324Y016942D01*
X004260Y017096D01*
X004260Y017784D01*
X004324Y017938D01*
X004442Y018056D01*
X004596Y018120D01*
X004764Y018120D01*
X004918Y018056D01*
X005036Y017938D01*
X005100Y017784D01*
X005100Y017096D01*
X005036Y016942D01*
X004918Y016824D01*
X004764Y016760D01*
X004596Y016760D01*
X004442Y016824D01*
X004969Y016875D02*
X005391Y016875D01*
X005286Y017034D02*
X005074Y017034D01*
X005100Y017192D02*
X005260Y017192D01*
X005260Y017351D02*
X005100Y017351D01*
X005100Y017509D02*
X005260Y017509D01*
X005260Y017668D02*
X005100Y017668D01*
X005082Y017826D02*
X005278Y017826D01*
X005371Y017985D02*
X004989Y017985D01*
X004371Y017985D02*
X003989Y017985D01*
X004082Y017826D02*
X004278Y017826D01*
X004260Y017668D02*
X004100Y017668D01*
X004100Y017509D02*
X004260Y017509D01*
X004260Y017351D02*
X004100Y017351D01*
X004100Y017192D02*
X004260Y017192D01*
X004286Y017034D02*
X004074Y017034D01*
X003286Y017034D02*
X003074Y017034D01*
X003100Y017192D02*
X003260Y017192D01*
X003260Y017351D02*
X003100Y017351D01*
X003100Y017509D02*
X003260Y017509D01*
X003260Y017668D02*
X003100Y017668D01*
X003082Y017826D02*
X003278Y017826D01*
X003371Y017985D02*
X002989Y017985D01*
X002371Y017985D02*
X001989Y017985D01*
X002082Y017826D02*
X002278Y017826D01*
X002260Y017668D02*
X002100Y017668D01*
X002100Y017509D02*
X002260Y017509D01*
X002260Y017351D02*
X002100Y017351D01*
X002100Y017192D02*
X002260Y017192D01*
X002286Y017034D02*
X002074Y017034D01*
X000460Y018302D02*
X012194Y018302D01*
X011260Y017351D02*
X011100Y017351D01*
X011026Y017192D02*
X011260Y017192D01*
X011286Y017034D02*
X010867Y017034D01*
X011026Y016717D02*
X018781Y016717D01*
X018740Y016875D02*
X017969Y016875D01*
X018074Y017034D02*
X018740Y017034D01*
X018810Y017192D02*
X018100Y017192D01*
X018100Y017351D02*
X018968Y017351D01*
X019180Y017351D02*
X019180Y017351D01*
X019180Y017192D02*
X019180Y017192D01*
X019180Y017034D02*
X019180Y017034D01*
X019392Y017351D02*
X019760Y017351D01*
X019760Y017509D02*
X018100Y017509D01*
X018100Y017668D02*
X018859Y017668D01*
X019501Y017668D02*
X019760Y017668D01*
X019778Y017826D02*
X019600Y017826D01*
X018948Y018302D02*
X018091Y018302D01*
X017278Y017826D02*
X017102Y017826D01*
X017120Y017668D02*
X017260Y017668D01*
X017260Y017509D02*
X017120Y017509D01*
X017120Y017351D02*
X017260Y017351D01*
X017260Y017192D02*
X017120Y017192D01*
X017095Y017034D02*
X017286Y017034D01*
X017391Y016875D02*
X016997Y016875D01*
X016680Y016875D02*
X016680Y016875D01*
X016680Y017034D02*
X016680Y017034D01*
X016680Y017192D02*
X016680Y017192D01*
X016680Y017351D02*
X016680Y017351D01*
X016240Y017192D02*
X016120Y017192D01*
X016095Y017034D02*
X016265Y017034D01*
X016363Y016875D02*
X015997Y016875D01*
X015493Y016400D02*
X011120Y016400D01*
X011103Y016241D02*
X015334Y016241D01*
X015176Y016083D02*
X010945Y016083D01*
X012818Y015449D02*
X014542Y015449D01*
X014383Y015290D02*
X012977Y015290D01*
X013135Y015132D02*
X014225Y015132D01*
X014066Y014973D02*
X014001Y014973D01*
X013359Y014973D02*
X013294Y014973D01*
X014185Y014498D02*
X014260Y014498D01*
X014260Y014339D02*
X014100Y014339D01*
X014100Y014181D02*
X014260Y014181D01*
X014291Y014022D02*
X014069Y014022D01*
X013957Y013864D02*
X014403Y013864D01*
X014957Y013864D02*
X015403Y013864D01*
X015291Y014022D02*
X015069Y014022D01*
X015100Y014181D02*
X015260Y014181D01*
X015260Y014339D02*
X015100Y014339D01*
X015100Y014498D02*
X015260Y014498D01*
X015260Y014656D02*
X015100Y014656D01*
X015087Y014815D02*
X015273Y014815D01*
X015359Y014973D02*
X015001Y014973D01*
X011855Y013388D02*
X010379Y013388D01*
X010537Y013230D02*
X012013Y013230D01*
X012172Y013071D02*
X010696Y013071D01*
X010854Y012913D02*
X012330Y012913D01*
X012489Y012754D02*
X011013Y012754D01*
X011171Y012596D02*
X012647Y012596D01*
X012806Y012437D02*
X011330Y012437D01*
X011488Y012279D02*
X012964Y012279D01*
X013123Y012120D02*
X011647Y012120D01*
X011805Y011962D02*
X013281Y011962D01*
X013440Y011803D02*
X011865Y011803D01*
X011865Y011645D02*
X013598Y011645D01*
X013757Y011486D02*
X011865Y011486D01*
X011865Y011328D02*
X013915Y011328D01*
X014074Y011169D02*
X011865Y011169D01*
X011865Y011011D02*
X014232Y011011D01*
X014391Y010852D02*
X011865Y010852D01*
X011865Y010694D02*
X014311Y010694D01*
X014240Y010535D02*
X011865Y010535D01*
X011865Y010377D02*
X014240Y010377D01*
X014240Y010440D02*
X014240Y010258D01*
X014498Y010000D01*
X014680Y010000D01*
X014680Y010440D01*
X014240Y010440D01*
X014280Y010218D02*
X011865Y010218D01*
X011865Y010060D02*
X014438Y010060D01*
X014680Y010060D02*
X014680Y010060D01*
X014680Y010218D02*
X014680Y010218D01*
X014680Y010377D02*
X014680Y010377D01*
X015080Y010218D02*
X015430Y010218D01*
X015588Y010060D02*
X014922Y010060D01*
X015120Y010377D02*
X015271Y010377D01*
X015819Y010783D02*
X016991Y009611D01*
X017020Y009679D01*
X017121Y009780D01*
X017253Y009835D01*
X017397Y009835D01*
X017529Y009780D01*
X017083Y009743D02*
X016859Y009743D01*
X015905Y009743D02*
X011865Y009743D01*
X011865Y009901D02*
X015747Y009901D01*
X016024Y008950D02*
X016336Y008950D01*
X016263Y008792D02*
X016097Y008792D01*
X016100Y008633D02*
X016260Y008633D01*
X016260Y008475D02*
X016100Y008475D01*
X016100Y008316D02*
X016260Y008316D01*
X016260Y008158D02*
X016100Y008158D01*
X016060Y007999D02*
X016300Y007999D01*
X016426Y007841D02*
X015934Y007841D01*
X016934Y007841D02*
X017133Y007841D01*
X017070Y007999D02*
X017060Y007999D01*
X014348Y005622D02*
X014012Y005622D01*
X013394Y005305D02*
X012966Y005305D01*
X013125Y005146D02*
X013235Y005146D01*
X013220Y004988D02*
X013140Y004988D01*
X013140Y004829D02*
X013220Y004829D01*
X013299Y004671D02*
X013061Y004671D01*
X012903Y004512D02*
X013457Y004512D01*
X012457Y004512D02*
X011910Y004512D01*
X012061Y004671D02*
X012299Y004671D01*
X012220Y004829D02*
X012140Y004829D01*
X012140Y004988D02*
X012220Y004988D01*
X012235Y005146D02*
X012125Y005146D01*
X011966Y005305D02*
X012394Y005305D01*
X015966Y005305D02*
X016394Y005305D01*
X016235Y005146D02*
X016125Y005146D01*
X016140Y004988D02*
X016220Y004988D01*
X016220Y004829D02*
X016140Y004829D01*
X016061Y004671D02*
X016299Y004671D01*
X016457Y004512D02*
X015915Y004512D01*
X008744Y007524D02*
X004048Y007524D01*
X003890Y007682D02*
X004286Y007682D01*
X004128Y007841D02*
X003934Y007841D01*
X003296Y007682D02*
X000460Y007682D01*
X000460Y007524D02*
X003455Y007524D01*
X003613Y007365D02*
X000460Y007365D01*
X000460Y007207D02*
X003772Y007207D01*
X003138Y007841D02*
X002934Y007841D01*
X003060Y007999D02*
X003075Y007999D01*
X003075Y008950D02*
X003024Y008950D01*
X000460Y006731D02*
X008164Y006731D01*
X008006Y006573D02*
X000460Y006573D01*
X003252Y005305D02*
X003394Y005305D01*
X004140Y004829D02*
X004220Y004829D01*
X004299Y004671D02*
X004061Y004671D01*
X003950Y004512D02*
X004457Y004512D01*
X004903Y004512D02*
X005457Y004512D01*
X005299Y004671D02*
X005061Y004671D01*
X005140Y004829D02*
X005220Y004829D01*
X005220Y004988D02*
X005140Y004988D01*
X005125Y005146D02*
X005235Y005146D01*
X005394Y005305D02*
X004966Y005305D01*
X005012Y005622D02*
X005348Y005622D01*
X005220Y005749D02*
X005489Y005480D01*
X005871Y005480D01*
X006140Y005749D01*
X006140Y006131D01*
X005871Y006400D01*
X005489Y006400D01*
X005220Y006131D01*
X005220Y005749D01*
X005220Y005780D02*
X005140Y005780D01*
X005140Y005939D02*
X005220Y005939D01*
X005220Y006097D02*
X005140Y006097D01*
X005015Y006256D02*
X005345Y006256D01*
X006015Y006256D02*
X006345Y006256D01*
X006220Y006131D02*
X006220Y005749D01*
X006489Y005480D01*
X006871Y005480D01*
X007140Y005749D01*
X007140Y006131D01*
X006871Y006400D01*
X006489Y006400D01*
X006220Y006131D01*
X006220Y006097D02*
X006140Y006097D01*
X006140Y005939D02*
X006220Y005939D01*
X006220Y005780D02*
X006140Y005780D01*
X006012Y005622D02*
X006348Y005622D01*
X006394Y005305D02*
X005966Y005305D01*
X006125Y005146D02*
X006235Y005146D01*
X006220Y004988D02*
X006140Y004988D01*
X006140Y004829D02*
X006220Y004829D01*
X006299Y004671D02*
X006061Y004671D01*
X005903Y004512D02*
X006457Y004512D01*
X006915Y004512D02*
X007457Y004512D01*
X007299Y004671D02*
X007061Y004671D01*
X007140Y004829D02*
X007220Y004829D01*
X007220Y004988D02*
X007140Y004988D01*
X007125Y005146D02*
X007235Y005146D01*
X007394Y005305D02*
X006966Y005305D01*
X007012Y005622D02*
X007348Y005622D01*
X007220Y005780D02*
X007140Y005780D01*
X007140Y005939D02*
X007220Y005939D01*
X007220Y006097D02*
X007140Y006097D01*
X007015Y006256D02*
X007345Y006256D01*
X008290Y005622D02*
X008348Y005622D01*
X008426Y007841D02*
X007934Y007841D01*
X008060Y007999D02*
X008300Y007999D01*
X008260Y008158D02*
X008100Y008158D01*
X008100Y008316D02*
X008260Y008316D01*
X008260Y008475D02*
X008100Y008475D01*
X008100Y008633D02*
X008260Y008633D01*
X008263Y008792D02*
X008097Y008792D01*
X008024Y008950D02*
X008336Y008950D01*
X009024Y008950D02*
X009336Y008950D01*
X009263Y008792D02*
X009097Y008792D01*
X009100Y008633D02*
X009260Y008633D01*
X009260Y008475D02*
X009100Y008475D01*
X009100Y008316D02*
X009260Y008316D01*
X009260Y008158D02*
X009100Y008158D01*
X009060Y007999D02*
X009300Y007999D01*
X009426Y007841D02*
X008934Y007841D01*
X009934Y007841D02*
X010399Y007841D01*
X010278Y007999D02*
X010060Y007999D01*
X010100Y008158D02*
X010240Y008158D01*
X010240Y008316D02*
X010100Y008316D01*
X009414Y010852D02*
X008946Y010852D01*
X009064Y011011D02*
X009296Y011011D01*
X009260Y011169D02*
X009100Y011169D01*
X009100Y011328D02*
X009260Y011328D01*
X009260Y011486D02*
X009100Y011486D01*
X009100Y011645D02*
X009260Y011645D01*
X009268Y011803D02*
X009092Y011803D01*
X009012Y011962D02*
X009348Y011962D01*
X009313Y012437D02*
X009031Y012437D01*
X009100Y012596D02*
X009248Y012596D01*
X009240Y012754D02*
X009100Y012754D01*
X009100Y012913D02*
X009240Y012913D01*
X009240Y013071D02*
X009100Y013071D01*
X009100Y013230D02*
X009240Y013230D01*
X009282Y013388D02*
X009057Y013388D01*
X008957Y013864D02*
X011403Y013864D01*
X011291Y014022D02*
X009069Y014022D01*
X009100Y014181D02*
X011260Y014181D01*
X011260Y014339D02*
X009100Y014339D01*
X009100Y014498D02*
X011260Y014498D01*
X011260Y014656D02*
X009100Y014656D01*
X009087Y014815D02*
X011273Y014815D01*
X011538Y013705D02*
X010062Y013705D01*
X010220Y013547D02*
X011696Y013547D01*
X010260Y012913D02*
X010120Y012913D01*
X010120Y012754D02*
X010419Y012754D01*
X010577Y012596D02*
X010112Y012596D01*
X009680Y012596D02*
X009680Y012596D01*
X009680Y012754D02*
X009680Y012754D01*
X009680Y012913D02*
X009680Y012913D01*
X009680Y012437D02*
X009680Y012437D01*
X016217Y011645D02*
X016260Y011645D01*
X017012Y011962D02*
X017348Y011962D01*
X017268Y011803D02*
X017092Y011803D01*
X017100Y011645D02*
X017260Y011645D01*
X017260Y011486D02*
X017100Y011486D01*
X017100Y011328D02*
X017260Y011328D01*
X017260Y011169D02*
X017100Y011169D01*
X017064Y011011D02*
X017296Y011011D01*
X017414Y010852D02*
X016946Y010852D01*
X020100Y011645D02*
X020260Y011645D01*
X020268Y011803D02*
X020092Y011803D01*
X020012Y011962D02*
X020348Y011962D01*
X020501Y014973D02*
X020591Y014973D01*
X021238Y016241D02*
X027757Y016241D01*
X027740Y016400D02*
X021397Y016400D01*
X021555Y016558D02*
X027740Y016558D01*
X027834Y016717D02*
X021714Y016717D01*
X021872Y016875D02*
X021891Y016875D01*
X022469Y016875D02*
X022891Y016875D01*
X022786Y017034D02*
X022574Y017034D01*
X022600Y017192D02*
X022760Y017192D01*
X022760Y017351D02*
X022600Y017351D01*
X022600Y017509D02*
X022760Y017509D01*
X022760Y017668D02*
X022665Y017668D01*
X023582Y017826D02*
X023758Y017826D01*
X023740Y017668D02*
X023600Y017668D01*
X023600Y017509D02*
X023740Y017509D01*
X023740Y017440D02*
X023740Y017145D01*
X023751Y017077D01*
X023772Y017011D01*
X023804Y016949D01*
X023844Y016893D01*
X023893Y016844D01*
X023949Y016804D01*
X024011Y016772D01*
X024077Y016751D01*
X024145Y016740D01*
X024180Y016740D01*
X024180Y017440D01*
X023740Y017440D01*
X023740Y017351D02*
X023600Y017351D01*
X023600Y017192D02*
X023740Y017192D01*
X023765Y017034D02*
X023574Y017034D01*
X023469Y016875D02*
X023863Y016875D01*
X024180Y016875D02*
X024180Y016875D01*
X024180Y017034D02*
X024180Y017034D01*
X024180Y017192D02*
X024180Y017192D01*
X024180Y017351D02*
X024180Y017351D01*
X024620Y017351D02*
X024760Y017351D01*
X024760Y017192D02*
X024620Y017192D01*
X024595Y017034D02*
X024786Y017034D01*
X024891Y016875D02*
X024497Y016875D01*
X025469Y016875D02*
X025891Y016875D01*
X025786Y017034D02*
X025574Y017034D01*
X025600Y017192D02*
X025760Y017192D01*
X025760Y017351D02*
X025600Y017351D01*
X025600Y017509D02*
X025760Y017509D01*
X025760Y017668D02*
X025600Y017668D01*
X025582Y017826D02*
X025778Y017826D01*
X025871Y017985D02*
X025489Y017985D01*
X026489Y017985D02*
X026871Y017985D01*
X026778Y017826D02*
X026582Y017826D01*
X026600Y017668D02*
X026760Y017668D01*
X026760Y017509D02*
X026600Y017509D01*
X026600Y017351D02*
X026760Y017351D01*
X026760Y017192D02*
X026600Y017192D01*
X026574Y017034D02*
X026786Y017034D01*
X026891Y016875D02*
X026469Y016875D01*
X027469Y016875D02*
X027993Y016875D01*
X027574Y017034D02*
X033229Y017034D01*
X033071Y017192D02*
X027600Y017192D01*
X027600Y017351D02*
X032912Y017351D01*
X032754Y017509D02*
X027600Y017509D01*
X027600Y017668D02*
X032595Y017668D01*
X032437Y017826D02*
X027582Y017826D01*
X027489Y017985D02*
X032278Y017985D01*
X032555Y018302D02*
X041400Y018302D01*
X041400Y018460D02*
X032397Y018460D01*
X032714Y018143D02*
X041400Y018143D01*
X041400Y017985D02*
X032872Y017985D01*
X033031Y017826D02*
X033444Y017826D01*
X033285Y017668D02*
X033189Y017668D01*
X033680Y017668D02*
X033680Y017668D01*
X033680Y017826D02*
X033680Y017826D01*
X033916Y017826D02*
X034472Y017826D01*
X034314Y017668D02*
X034075Y017668D01*
X034120Y017509D02*
X034260Y017509D01*
X034260Y017351D02*
X034120Y017351D01*
X034054Y017192D02*
X034334Y017192D01*
X033680Y017509D02*
X033680Y017509D01*
X034888Y017826D02*
X041400Y017826D01*
X041400Y017668D02*
X035046Y017668D01*
X035100Y017509D02*
X037608Y017509D01*
X037732Y017581D02*
X037468Y017428D01*
X037252Y017212D01*
X037099Y016948D01*
X037020Y016653D01*
X037020Y016347D01*
X037099Y016052D01*
X037252Y015788D01*
X037468Y015572D01*
X037732Y015419D01*
X038027Y015340D01*
X038333Y015340D01*
X038628Y015419D01*
X038892Y015572D01*
X039108Y015788D01*
X039261Y016052D01*
X039340Y016347D01*
X039340Y016653D01*
X039261Y016948D01*
X039108Y017212D01*
X038892Y017428D01*
X038628Y017581D01*
X038333Y017660D01*
X038027Y017660D01*
X037732Y017581D01*
X037390Y017351D02*
X035100Y017351D01*
X035240Y017192D02*
X037240Y017192D01*
X037149Y017034D02*
X035398Y017034D01*
X035490Y016875D02*
X037080Y016875D01*
X037037Y016717D02*
X035490Y016717D01*
X035490Y016558D02*
X037020Y016558D01*
X037020Y016400D02*
X035490Y016400D01*
X035490Y016241D02*
X037048Y016241D01*
X037091Y016083D02*
X035490Y016083D01*
X035490Y015924D02*
X037173Y015924D01*
X037274Y015766D02*
X035490Y015766D01*
X035409Y015607D02*
X037432Y015607D01*
X037681Y015449D02*
X035251Y015449D01*
X035424Y015290D02*
X041400Y015290D01*
X041400Y015132D02*
X035582Y015132D01*
X035600Y014973D02*
X041400Y014973D01*
X041400Y014815D02*
X035600Y014815D01*
X035490Y014656D02*
X041400Y014656D01*
X041400Y014498D02*
X035504Y014498D01*
X035663Y014339D02*
X041400Y014339D01*
X041400Y014181D02*
X035821Y014181D01*
X034985Y014339D02*
X034456Y014339D01*
X034298Y014181D02*
X034827Y014181D01*
X034760Y014022D02*
X034139Y014022D01*
X033981Y013864D02*
X034760Y013864D01*
X034821Y013705D02*
X033822Y013705D01*
X033664Y013547D02*
X034980Y013547D01*
X035380Y013547D02*
X035861Y013547D01*
X035703Y013705D02*
X035539Y013705D01*
X036020Y013388D02*
X033505Y013388D01*
X033347Y013230D02*
X036178Y013230D01*
X036337Y013071D02*
X033188Y013071D01*
X033030Y012913D02*
X036495Y012913D01*
X036654Y012754D02*
X032871Y012754D01*
X032713Y012596D02*
X036812Y012596D01*
X036971Y012437D02*
X032554Y012437D01*
X032396Y012279D02*
X037129Y012279D01*
X034791Y011645D02*
X032569Y011645D01*
X032600Y011486D02*
X034760Y011486D01*
X034760Y011328D02*
X032600Y011328D01*
X032503Y011169D02*
X034857Y011169D01*
X035006Y010860D02*
X034760Y010614D01*
X034760Y010266D01*
X035006Y010020D01*
X035354Y010020D01*
X035600Y010266D01*
X035600Y010614D01*
X035354Y010860D01*
X035006Y010860D01*
X034998Y010852D02*
X032362Y010852D01*
X032354Y010860D02*
X032006Y010860D01*
X031760Y010614D01*
X031760Y010266D01*
X032006Y010020D01*
X032354Y010020D01*
X032600Y010266D01*
X032600Y010614D01*
X032354Y010860D01*
X032520Y010694D02*
X034840Y010694D01*
X034760Y010535D02*
X032600Y010535D01*
X032600Y010377D02*
X034760Y010377D01*
X034808Y010218D02*
X032552Y010218D01*
X032393Y010060D02*
X034967Y010060D01*
X035393Y010060D02*
X037422Y010060D01*
X037263Y010218D02*
X035552Y010218D01*
X035600Y010377D02*
X037200Y010377D01*
X037200Y010535D02*
X035600Y010535D01*
X035520Y010694D02*
X037215Y010694D01*
X037373Y010852D02*
X035362Y010852D01*
X037660Y010852D02*
X037700Y010852D01*
X037700Y010694D02*
X037660Y010694D01*
X037660Y010535D02*
X037700Y010535D01*
X037700Y010460D02*
X038160Y010460D01*
X038160Y010281D01*
X037879Y010000D01*
X037700Y010000D01*
X037700Y010460D01*
X037700Y010377D02*
X037660Y010377D01*
X037660Y010218D02*
X037700Y010218D01*
X037700Y010060D02*
X037660Y010060D01*
X037938Y010060D02*
X038200Y010060D01*
X038279Y010218D02*
X038097Y010218D01*
X038160Y010377D02*
X038438Y010377D01*
X037342Y008633D02*
X034967Y008633D01*
X031967Y010060D02*
X031393Y010060D01*
X031552Y010218D02*
X031808Y010218D01*
X031760Y010377D02*
X031600Y010377D01*
X031600Y010535D02*
X031760Y010535D01*
X031840Y010694D02*
X031520Y010694D01*
X031362Y010852D02*
X031998Y010852D01*
X030760Y011803D02*
X030620Y011803D01*
X030620Y011962D02*
X030760Y011962D01*
X030766Y012120D02*
X030620Y012120D01*
X030464Y012279D02*
X030925Y012279D01*
X031375Y012437D02*
X029539Y012437D01*
X029381Y012279D02*
X029896Y012279D01*
X029740Y012120D02*
X029222Y012120D01*
X029698Y012596D02*
X031534Y012596D01*
X031692Y012754D02*
X029856Y012754D01*
X030015Y012913D02*
X031851Y012913D01*
X032009Y013071D02*
X030173Y013071D01*
X030332Y013230D02*
X032168Y013230D01*
X031980Y013547D02*
X031380Y013547D01*
X031539Y013705D02*
X031821Y013705D01*
X031870Y014656D02*
X031623Y014656D01*
X034615Y014498D02*
X034980Y014498D01*
X034870Y014656D02*
X034773Y014656D01*
X038679Y015449D02*
X041400Y015449D01*
X041400Y015607D02*
X038928Y015607D01*
X039086Y015766D02*
X041400Y015766D01*
X041400Y015924D02*
X039187Y015924D01*
X039269Y016083D02*
X041400Y016083D01*
X041400Y016241D02*
X039312Y016241D01*
X039340Y016400D02*
X041400Y016400D01*
X041400Y016558D02*
X039340Y016558D01*
X039323Y016717D02*
X041400Y016717D01*
X041400Y016875D02*
X039280Y016875D01*
X039211Y017034D02*
X041400Y017034D01*
X041400Y017192D02*
X039120Y017192D01*
X038970Y017351D02*
X041400Y017351D01*
X041400Y017509D02*
X038752Y017509D01*
X041400Y018619D02*
X000460Y018619D01*
X000460Y018460D02*
X020311Y018460D01*
X020729Y018460D02*
X022053Y018460D01*
X021895Y018302D02*
X020851Y018302D01*
X020880Y018143D02*
X021736Y018143D01*
X021578Y017985D02*
X021489Y017985D01*
X020871Y017985D02*
X020837Y017985D01*
X020778Y017826D02*
X020654Y017826D01*
X020600Y017668D02*
X020760Y017668D01*
X020760Y017509D02*
X020600Y017509D01*
X020600Y017351D02*
X020760Y017351D01*
X020760Y017192D02*
X020600Y017192D01*
X020574Y017034D02*
X020786Y017034D01*
X020891Y016875D02*
X020469Y016875D01*
X021120Y016717D02*
X019579Y016717D01*
X019620Y016875D02*
X019891Y016875D01*
X019786Y017034D02*
X019620Y017034D01*
X019550Y017192D02*
X019760Y017192D01*
X024620Y017509D02*
X024654Y017509D01*
X030180Y012279D02*
X030180Y012279D01*
X030180Y012120D02*
X030180Y012120D01*
X030180Y011962D02*
X030180Y011962D01*
X031015Y006256D02*
X031345Y006256D01*
X031220Y006097D02*
X031140Y006097D01*
X031140Y005939D02*
X031220Y005939D01*
X031220Y005780D02*
X031140Y005780D01*
X031012Y005622D02*
X031348Y005622D01*
M02*
