%
M48
M72
T01C0.0240
T02C0.0320
T03C0.0400
T04C0.1250
T05C0.1300
%
T01
X3150Y3445
X8145Y4300
X8955Y7225
X11295Y9160
X17325Y9475
X23175Y10870
X27675Y8485
X27000Y8035
X28485Y8170
X28440Y7225
X28665Y6730
X27585Y7045
X24930Y7225
X24075Y7585
X23625Y7360
X18315Y6415
X19170Y3445
X29295Y4435
X5265Y13570
X20520Y18160
T02
X20180Y17440
X21180Y17440
X22180Y17440
X23180Y17440
X24180Y17440
X25180Y17440
X26180Y17440
X27180Y17440
X28180Y16440
X28180Y15440
X30180Y15440
X31180Y15440
X32180Y14940
X32180Y13940
X31180Y13940
X30180Y13940
X27180Y14440
X26180Y14440
X25180Y14440
X24180Y14440
X23180Y14440
X22180Y14440
X21180Y14440
X20180Y14440
X17680Y14440
X16680Y14440
X15680Y14440
X14680Y14440
X13680Y14440
X12680Y14440
X11680Y14440
X8680Y14440
X7680Y14440
X6680Y14440
X5680Y14440
X4680Y14440
X3680Y14440
X2680Y14440
X1680Y14440
X1680Y12940
X2680Y12940
X3680Y12940
X4680Y12940
X5680Y12940
X6680Y12940
X7680Y12940
X8680Y12940
X9680Y12940
X9680Y11440
X8680Y11440
X7680Y11440
X6680Y11440
X5680Y11440
X4680Y11440
X3680Y11440
X2680Y11440
X1680Y11440
X680Y11440
X680Y10440
X1680Y8440
X2680Y8440
X3680Y8440
X4680Y8440
X5680Y8440
X6680Y8440
X7680Y8440
X8680Y8440
X9680Y8440
X10680Y8440
X14680Y10440
X14680Y11440
X15680Y11440
X16680Y11440
X17680Y11440
X18680Y11440
X19680Y11440
X20680Y11440
X21680Y11440
X22680Y11440
X23680Y11440
X24680Y11440
X24180Y12940
X23180Y12940
X22180Y12940
X21180Y12940
X20180Y12940
X19180Y12940
X18180Y12940
X17180Y12940
X10680Y11440
X15680Y8440
X16680Y8440
X17680Y8440
X18680Y8440
X19680Y8440
X20680Y8440
X21680Y8440
X22680Y8440
X23680Y8440
X24680Y8440
X30180Y10440
X31180Y10440
X32180Y10440
X32180Y11440
X31180Y11940
X30180Y11940
X35180Y11440
X35180Y10440
X34680Y8940
X33680Y8940
X33680Y7940
X34680Y7940
X25180Y12940
X33680Y16440
X34680Y16440
X34680Y17440
X33680Y17440
X35180Y14940
X35180Y13940
X19180Y16940
X17680Y17440
X16680Y17440
X15680Y17440
X14680Y17440
X13680Y17440
X12680Y17440
X11680Y17440
X10680Y17440
X8680Y17440
X7680Y17440
X6680Y17440
X5680Y17440
X4680Y17440
X3680Y17440
X2680Y17440
X1680Y17440
X10680Y16440
X19180Y17940
T03
X37680Y13720
X38680Y13180
X37680Y12640
X38680Y12100
X37680Y11560
X38680Y11020
X37680Y10480
X38680Y9940
X37680Y9400
X38680Y8860
X37680Y8320
X38680Y7780
X37680Y7240
X38680Y6700
X37680Y6160
X31680Y5940
X30680Y5940
X29680Y5940
X28680Y5940
X27680Y5940
X26680Y5940
X25680Y5940
X24680Y5940
X23680Y5940
X22680Y5940
X21680Y5940
X20680Y5940
X19680Y5940
X18680Y5940
X17680Y5940
X16680Y5940
X15680Y5940
X14680Y5940
X13680Y5940
X12680Y5940
X11680Y5940
X10680Y5940
X9680Y5940
X8680Y5940
X7680Y5940
X6680Y5940
X5680Y5940
X4680Y5940
X3680Y5940
X2680Y5940
X1680Y5940
X1680Y4940
X2680Y4940
X3680Y4940
X4680Y4940
X5680Y4940
X6680Y4940
X7680Y4940
X8680Y4940
X9680Y4940
X10680Y4940
X11680Y4940
X12680Y4940
X13680Y4940
X14680Y4940
X15680Y4940
X16680Y4940
X17680Y4940
X18680Y4940
X19680Y4940
X20680Y4940
X21680Y4940
X22680Y4940
X23680Y4940
X24680Y4940
X25680Y4940
X26680Y4940
X27680Y4940
X28680Y4940
X29680Y4940
X30680Y4940
X31680Y4940
T04
X40180Y4440
T05
X38180Y3380
X38180Y16500
M30
