G75*
%MOIN*%
%OFA0B0*%
%FSLAX24Y24*%
%IPPOS*%
%LPD*%
%AMOC8*
5,1,8,0,0,1.08239X$1,22.5*
%
%ADD10C,0.0020*%
%ADD11C,0.0040*%
%ADD12C,0.0030*%
%ADD13C,0.0060*%
%ADD14R,0.1000X0.1000*%
%ADD15C,0.0080*%
%ADD16C,0.0100*%
%ADD17C,0.0050*%
%ADD18R,0.0200X0.0050*%
%ADD19R,0.0200X0.0150*%
%ADD20R,0.0150X0.0200*%
%ADD21R,0.0900X0.0250*%
D10*
X001527Y003910D02*
X001600Y003910D01*
X001637Y003947D01*
X001637Y004020D01*
X001563Y004020D01*
X001490Y004093D02*
X001490Y003947D01*
X001527Y003910D01*
X001490Y004093D02*
X001527Y004130D01*
X001600Y004130D01*
X001637Y004093D01*
X002190Y004093D02*
X002190Y003947D01*
X002227Y003910D01*
X002300Y003910D01*
X002337Y003947D01*
X002337Y004093D01*
X002300Y004130D01*
X002227Y004130D01*
X002190Y004093D01*
X002411Y004093D02*
X002411Y004057D01*
X002448Y004020D01*
X002521Y004020D01*
X002558Y003983D01*
X002558Y003947D01*
X002521Y003910D01*
X002448Y003910D01*
X002411Y003947D01*
X002411Y004093D02*
X002448Y004130D01*
X002521Y004130D01*
X002558Y004093D01*
X002632Y004093D02*
X002632Y003947D01*
X002669Y003910D01*
X002742Y003910D01*
X002779Y003947D01*
X002779Y004093D02*
X002742Y004130D01*
X002669Y004130D01*
X002632Y004093D01*
X003490Y004020D02*
X003637Y004020D01*
X003711Y004020D02*
X003784Y004057D01*
X003821Y004057D01*
X003858Y004020D01*
X003858Y003947D01*
X003821Y003910D01*
X003748Y003910D01*
X003711Y003947D01*
X003711Y004020D02*
X003711Y004130D01*
X003858Y004130D01*
X003932Y004130D02*
X003932Y003983D01*
X004005Y003910D01*
X004079Y003983D01*
X004079Y004130D01*
X004490Y004057D02*
X004563Y004130D01*
X004637Y004057D01*
X004637Y003910D01*
X004711Y003910D02*
X004858Y003910D01*
X004932Y003910D02*
X005079Y003910D01*
X005005Y004020D02*
X004932Y004020D01*
X004932Y004130D02*
X004932Y003910D01*
X004932Y004130D02*
X005079Y004130D01*
X004711Y004130D02*
X004711Y003910D01*
X004637Y004020D02*
X004490Y004020D01*
X004490Y004057D02*
X004490Y003910D01*
X003563Y003947D02*
X003563Y004093D01*
X005490Y004130D02*
X005637Y004130D01*
X005563Y004130D02*
X005563Y003910D01*
X005711Y003947D02*
X005748Y003910D01*
X005821Y003910D01*
X005858Y003947D01*
X005858Y004093D02*
X005821Y004130D01*
X005748Y004130D01*
X005711Y004093D01*
X005711Y003947D01*
X006390Y003910D02*
X006500Y003910D01*
X006537Y003947D01*
X006537Y004093D01*
X006500Y004130D01*
X006390Y004130D01*
X006390Y003910D01*
X006611Y003910D02*
X006611Y004057D01*
X006684Y004130D01*
X006758Y004057D01*
X006758Y003910D01*
X006832Y003910D02*
X006979Y004057D01*
X006979Y004093D01*
X006942Y004130D01*
X006869Y004130D01*
X006832Y004093D01*
X006758Y004020D02*
X006611Y004020D01*
X006832Y003910D02*
X006979Y003910D01*
X007490Y003910D02*
X007563Y003910D01*
X007527Y003910D02*
X007527Y004130D01*
X007563Y004130D02*
X007490Y004130D01*
X007637Y004130D02*
X007747Y004130D01*
X007784Y004093D01*
X007784Y004020D01*
X007747Y003983D01*
X007637Y003983D01*
X007637Y003910D02*
X007637Y004130D01*
X007711Y003983D02*
X007784Y003910D01*
X007858Y003947D02*
X007895Y003910D01*
X007968Y003910D01*
X008005Y003947D01*
X008005Y003983D01*
X007968Y004020D01*
X007932Y004020D01*
X007968Y004020D02*
X008005Y004057D01*
X008005Y004093D01*
X007968Y004130D01*
X007895Y004130D01*
X007858Y004093D01*
X008490Y004130D02*
X008563Y004130D01*
X008527Y004130D02*
X008527Y003910D01*
X008563Y003910D02*
X008490Y003910D01*
X008637Y003910D02*
X008637Y004130D01*
X008747Y004130D01*
X008784Y004093D01*
X008784Y004020D01*
X008747Y003983D01*
X008637Y003983D01*
X008711Y003983D02*
X008784Y003910D01*
X008858Y004020D02*
X009005Y004020D01*
X008968Y003910D02*
X008968Y004130D01*
X008858Y004020D01*
X009490Y003910D02*
X009563Y003910D01*
X009527Y003910D02*
X009527Y004130D01*
X009563Y004130D02*
X009490Y004130D01*
X009637Y004130D02*
X009747Y004130D01*
X009784Y004093D01*
X009784Y004020D01*
X009747Y003983D01*
X009637Y003983D01*
X009637Y003910D02*
X009637Y004130D01*
X009711Y003983D02*
X009784Y003910D01*
X009858Y003947D02*
X009895Y003910D01*
X009968Y003910D01*
X010005Y003947D01*
X010005Y004020D01*
X009968Y004057D01*
X009932Y004057D01*
X009858Y004020D01*
X009858Y004130D01*
X010005Y004130D01*
X010490Y004130D02*
X010563Y004130D01*
X010527Y004130D02*
X010527Y003910D01*
X010563Y003910D02*
X010490Y003910D01*
X010637Y003910D02*
X010637Y004130D01*
X010747Y004130D01*
X010784Y004093D01*
X010784Y004020D01*
X010747Y003983D01*
X010637Y003983D01*
X010711Y003983D02*
X010784Y003910D01*
X010858Y003947D02*
X010858Y004020D01*
X010968Y004020D01*
X011005Y003983D01*
X011005Y003947D01*
X010968Y003910D01*
X010895Y003910D01*
X010858Y003947D01*
X010858Y004020D02*
X010932Y004093D01*
X011005Y004130D01*
X011490Y004130D02*
X011563Y004130D01*
X011527Y004130D02*
X011527Y003910D01*
X011563Y003910D02*
X011490Y003910D01*
X011637Y003910D02*
X011637Y004130D01*
X011747Y004130D01*
X011784Y004093D01*
X011784Y004020D01*
X011747Y003983D01*
X011637Y003983D01*
X011711Y003983D02*
X011784Y003910D01*
X011858Y003910D02*
X011858Y003947D01*
X012005Y004093D01*
X012005Y004130D01*
X011858Y004130D01*
X012390Y004093D02*
X012390Y003947D01*
X012427Y003910D01*
X012500Y003910D01*
X012537Y003947D01*
X012611Y003910D02*
X012758Y003910D01*
X012832Y003910D02*
X012832Y004130D01*
X012869Y004020D02*
X012979Y003910D01*
X012832Y003983D02*
X012979Y004130D01*
X012611Y004130D02*
X012611Y003910D01*
X012537Y004093D02*
X012500Y004130D01*
X012427Y004130D01*
X012390Y004093D01*
X013390Y004130D02*
X013390Y003910D01*
X013390Y003983D02*
X013500Y003983D01*
X013537Y004020D01*
X013537Y004093D01*
X013500Y004130D01*
X013390Y004130D01*
X013463Y003983D02*
X013537Y003910D01*
X013611Y003910D02*
X013611Y004130D01*
X013758Y004130D01*
X013832Y004130D02*
X013942Y004130D01*
X013979Y004093D01*
X013979Y004020D01*
X013942Y003983D01*
X013832Y003983D01*
X013832Y003910D02*
X013832Y004130D01*
X013905Y003983D02*
X013979Y003910D01*
X013684Y004020D02*
X013611Y004020D01*
X014390Y003910D02*
X014500Y003910D01*
X014537Y003947D01*
X014537Y004093D01*
X014500Y004130D01*
X014390Y004130D01*
X014390Y003910D01*
X014611Y003947D02*
X014611Y004093D01*
X014648Y004130D01*
X014721Y004130D01*
X014758Y004093D01*
X014758Y003947D01*
X014721Y003910D01*
X014648Y003910D01*
X014611Y003947D01*
X014684Y003983D02*
X014758Y003910D01*
X014832Y003910D02*
X014979Y003910D01*
X014905Y003910D02*
X014905Y004130D01*
X014832Y004057D01*
X015390Y004130D02*
X015390Y003910D01*
X015500Y003910D01*
X015537Y003947D01*
X015537Y004093D01*
X015500Y004130D01*
X015390Y004130D01*
X015611Y004057D02*
X015684Y004130D01*
X015758Y004057D01*
X015758Y003910D01*
X015832Y003910D02*
X015979Y003910D01*
X015905Y003910D02*
X015905Y004130D01*
X015832Y004057D01*
X015758Y004020D02*
X015611Y004020D01*
X015611Y004057D02*
X015611Y003910D01*
X016390Y003910D02*
X016500Y003910D01*
X016537Y003947D01*
X016537Y004093D01*
X016500Y004130D01*
X016390Y004130D01*
X016390Y003910D01*
X016611Y003947D02*
X016648Y003910D01*
X016721Y003910D01*
X016758Y003947D01*
X016758Y004093D01*
X016721Y004130D01*
X016648Y004130D01*
X016611Y004093D01*
X016611Y003947D01*
X016684Y003983D02*
X016758Y003910D01*
X016832Y003947D02*
X016869Y003910D01*
X016942Y003910D01*
X016979Y003947D01*
X016979Y003983D01*
X016942Y004020D01*
X016905Y004020D01*
X016942Y004020D02*
X016979Y004057D01*
X016979Y004093D01*
X016942Y004130D01*
X016869Y004130D01*
X016832Y004093D01*
X017390Y004130D02*
X017390Y003910D01*
X017500Y003910D01*
X017537Y003947D01*
X017537Y004093D01*
X017500Y004130D01*
X017390Y004130D01*
X017611Y004057D02*
X017611Y003910D01*
X017611Y004020D02*
X017758Y004020D01*
X017758Y004057D02*
X017758Y003910D01*
X017832Y003947D02*
X017869Y003910D01*
X017942Y003910D01*
X017979Y003947D01*
X017979Y003983D01*
X017942Y004020D01*
X017905Y004020D01*
X017942Y004020D02*
X017979Y004057D01*
X017979Y004093D01*
X017942Y004130D01*
X017869Y004130D01*
X017832Y004093D01*
X017758Y004057D02*
X017684Y004130D01*
X017611Y004057D01*
X018390Y004130D02*
X018463Y004130D01*
X018427Y004130D02*
X018427Y003910D01*
X018463Y003910D02*
X018390Y003910D01*
X018537Y003947D02*
X018537Y004093D01*
X018574Y004130D01*
X018647Y004130D01*
X018684Y004093D01*
X018684Y003947D01*
X018647Y003910D01*
X018574Y003910D01*
X018537Y003947D01*
X018758Y003983D02*
X018868Y003983D01*
X018905Y004020D01*
X018905Y004093D01*
X018868Y004130D01*
X018758Y004130D01*
X018758Y003910D01*
X018832Y003983D02*
X018905Y003910D01*
X019390Y003910D02*
X019463Y003910D01*
X019427Y003910D02*
X019427Y004130D01*
X019463Y004130D02*
X019390Y004130D01*
X019537Y004093D02*
X019537Y003947D01*
X019574Y003910D01*
X019647Y003910D01*
X019684Y003947D01*
X019684Y004093D01*
X019647Y004130D01*
X019574Y004130D01*
X019537Y004093D01*
X019758Y004130D02*
X019758Y003910D01*
X019832Y003983D01*
X019905Y003910D01*
X019905Y004130D01*
X020490Y004130D02*
X020490Y003910D01*
X020637Y003910D02*
X020637Y004130D01*
X020563Y004057D01*
X020490Y004130D01*
X020711Y004130D02*
X020821Y004130D01*
X020858Y004093D01*
X020858Y004020D01*
X020821Y003983D01*
X020711Y003983D01*
X020711Y003910D02*
X020711Y004130D01*
X020784Y003983D02*
X020858Y003910D01*
X021490Y003910D02*
X021490Y004130D01*
X021563Y004057D01*
X021637Y004130D01*
X021637Y003910D01*
X021711Y003910D02*
X021784Y003983D01*
X021858Y003910D01*
X021858Y004130D01*
X021711Y004130D02*
X021711Y003910D01*
X022690Y003947D02*
X022727Y003910D01*
X022800Y003910D01*
X022837Y003947D01*
X022837Y004020D01*
X022763Y004020D01*
X022690Y004093D02*
X022690Y003947D01*
X022690Y004093D02*
X022727Y004130D01*
X022800Y004130D01*
X022837Y004093D01*
X023490Y004020D02*
X023637Y004020D01*
X023711Y004057D02*
X023784Y004130D01*
X023784Y003910D01*
X023711Y003910D02*
X023858Y003910D01*
X023932Y003910D02*
X024079Y004057D01*
X024079Y004093D01*
X024042Y004130D01*
X023969Y004130D01*
X023932Y004093D01*
X023932Y003910D02*
X024079Y003910D01*
X024490Y003947D02*
X024490Y004093D01*
X024527Y004130D01*
X024600Y004130D01*
X024637Y004093D01*
X024711Y004093D02*
X024711Y004057D01*
X024748Y004020D01*
X024821Y004020D01*
X024858Y003983D01*
X024858Y003947D01*
X024821Y003910D01*
X024748Y003910D01*
X024711Y003947D01*
X024637Y003947D02*
X024600Y003910D01*
X024527Y003910D01*
X024490Y003947D01*
X024711Y004093D02*
X024748Y004130D01*
X024821Y004130D01*
X024858Y004093D01*
X025490Y004020D02*
X025637Y004020D01*
X025711Y004057D02*
X025784Y004130D01*
X025784Y003910D01*
X025711Y003910D02*
X025858Y003910D01*
X025932Y003910D02*
X026079Y004057D01*
X026079Y004093D01*
X026042Y004130D01*
X025969Y004130D01*
X025932Y004093D01*
X025932Y003910D02*
X026079Y003910D01*
X026390Y003910D02*
X026390Y004130D01*
X026500Y004130D01*
X026537Y004093D01*
X026537Y003947D01*
X026500Y003910D01*
X026390Y003910D01*
X026611Y003947D02*
X026611Y004093D01*
X026648Y004130D01*
X026721Y004130D01*
X026758Y004093D01*
X026758Y003947D01*
X026721Y003910D01*
X026648Y003910D01*
X026611Y003947D01*
X026684Y003983D02*
X026758Y003910D01*
X026832Y003910D02*
X026979Y004057D01*
X026979Y004093D01*
X026942Y004130D01*
X026869Y004130D01*
X026832Y004093D01*
X026832Y003910D02*
X026979Y003910D01*
X027490Y004020D02*
X027637Y004020D01*
X027711Y004020D02*
X027784Y004057D01*
X027821Y004057D01*
X027858Y004020D01*
X027858Y003947D01*
X027821Y003910D01*
X027748Y003910D01*
X027711Y003947D01*
X027711Y004020D02*
X027711Y004130D01*
X027858Y004130D01*
X028490Y004130D02*
X028563Y004130D01*
X028527Y004130D02*
X028527Y003910D01*
X028563Y003910D02*
X028490Y003910D01*
X028637Y003910D02*
X028637Y004130D01*
X028747Y004130D01*
X028784Y004093D01*
X028784Y004020D01*
X028747Y003983D01*
X028637Y003983D01*
X028711Y003983D02*
X028784Y003910D01*
X028858Y003947D02*
X028895Y003910D01*
X028968Y003910D01*
X029005Y003947D01*
X029005Y004093D01*
X028968Y004130D01*
X028895Y004130D01*
X028858Y004093D01*
X028858Y004057D01*
X028895Y004020D01*
X029005Y004020D01*
X029490Y004020D02*
X029637Y004020D01*
X029711Y004020D02*
X029784Y004057D01*
X029821Y004057D01*
X029858Y004020D01*
X029858Y003947D01*
X029821Y003910D01*
X029748Y003910D01*
X029711Y003947D01*
X029711Y004020D02*
X029711Y004130D01*
X029858Y004130D01*
X029563Y004093D02*
X029563Y003947D01*
X030390Y003983D02*
X030500Y003983D01*
X030537Y004020D01*
X030537Y004093D01*
X030500Y004130D01*
X030390Y004130D01*
X030390Y003910D01*
X030463Y003983D02*
X030537Y003910D01*
X030611Y003947D02*
X030648Y003910D01*
X030721Y003910D01*
X030758Y003947D01*
X030758Y003983D01*
X030721Y004020D01*
X030648Y004020D01*
X030611Y004057D01*
X030611Y004093D01*
X030648Y004130D01*
X030721Y004130D01*
X030758Y004093D01*
X030832Y004130D02*
X030979Y004130D01*
X030905Y004130D02*
X030905Y003910D01*
X031390Y003947D02*
X031390Y004093D01*
X031427Y004130D01*
X031500Y004130D01*
X031537Y004093D01*
X031537Y004020D02*
X031463Y004020D01*
X031537Y004020D02*
X031537Y003947D01*
X031500Y003910D01*
X031427Y003910D01*
X031390Y003947D01*
X031611Y003910D02*
X031611Y004130D01*
X031758Y003910D01*
X031758Y004130D01*
X031832Y004130D02*
X031942Y004130D01*
X031979Y004093D01*
X031979Y003947D01*
X031942Y003910D01*
X031832Y003910D01*
X031832Y004130D01*
X031868Y006910D02*
X031905Y006947D01*
X031868Y006910D02*
X031795Y006910D01*
X031758Y006947D01*
X031758Y007093D01*
X031795Y007130D01*
X031868Y007130D01*
X031905Y007093D01*
X031979Y007130D02*
X031979Y006910D01*
X031979Y007020D02*
X032126Y007020D01*
X032126Y007130D02*
X032126Y006910D01*
X031684Y006947D02*
X031684Y007093D01*
X031647Y007130D01*
X031574Y007130D01*
X031537Y007093D01*
X031537Y006947D01*
X031574Y006910D01*
X031647Y006910D01*
X031684Y006947D01*
X031463Y006910D02*
X031390Y006910D01*
X031427Y006910D02*
X031427Y007130D01*
X031463Y007130D02*
X031390Y007130D01*
X030858Y007130D02*
X030858Y007093D01*
X030711Y006947D01*
X030711Y006910D01*
X030637Y006947D02*
X030637Y007093D01*
X030600Y007130D01*
X030490Y007130D01*
X030490Y006910D01*
X030600Y006910D01*
X030637Y006947D01*
X030711Y007130D02*
X030858Y007130D01*
X029858Y007130D02*
X029784Y007093D01*
X029711Y007020D01*
X029821Y007020D01*
X029858Y006983D01*
X029858Y006947D01*
X029821Y006910D01*
X029748Y006910D01*
X029711Y006947D01*
X029711Y007020D01*
X029637Y006947D02*
X029637Y007093D01*
X029600Y007130D01*
X029490Y007130D01*
X029490Y006910D01*
X029600Y006910D01*
X029637Y006947D01*
X028858Y006947D02*
X028821Y006910D01*
X028748Y006910D01*
X028711Y006947D01*
X028711Y007020D02*
X028784Y007057D01*
X028821Y007057D01*
X028858Y007020D01*
X028858Y006947D01*
X028711Y007020D02*
X028711Y007130D01*
X028858Y007130D01*
X028637Y007093D02*
X028600Y007130D01*
X028490Y007130D01*
X028490Y006910D01*
X028600Y006910D01*
X028637Y006947D01*
X028637Y007093D01*
X027858Y007020D02*
X027711Y007020D01*
X027821Y007130D01*
X027821Y006910D01*
X027637Y006947D02*
X027600Y006910D01*
X027490Y006910D01*
X027490Y007130D01*
X027600Y007130D01*
X027637Y007093D01*
X027637Y006947D01*
X026858Y006947D02*
X026821Y006910D01*
X026748Y006910D01*
X026711Y006947D01*
X026637Y006947D02*
X026637Y007093D01*
X026600Y007130D01*
X026490Y007130D01*
X026490Y006910D01*
X026600Y006910D01*
X026637Y006947D01*
X026711Y007093D02*
X026748Y007130D01*
X026821Y007130D01*
X026858Y007093D01*
X026858Y007057D01*
X026821Y007020D01*
X026858Y006983D01*
X026858Y006947D01*
X026821Y007020D02*
X026784Y007020D01*
X025858Y007057D02*
X025711Y006910D01*
X025858Y006910D01*
X025858Y007057D02*
X025858Y007093D01*
X025821Y007130D01*
X025748Y007130D01*
X025711Y007093D01*
X025637Y007093D02*
X025600Y007130D01*
X025490Y007130D01*
X025490Y006910D01*
X025600Y006910D01*
X025637Y006947D01*
X025637Y007093D01*
X024858Y006910D02*
X024711Y006910D01*
X024784Y006910D02*
X024784Y007130D01*
X024711Y007057D01*
X024637Y007093D02*
X024600Y007130D01*
X024490Y007130D01*
X024490Y006910D01*
X024600Y006910D01*
X024637Y006947D01*
X024637Y007093D01*
X023858Y007093D02*
X023711Y006947D01*
X023748Y006910D01*
X023821Y006910D01*
X023858Y006947D01*
X023858Y007093D01*
X023821Y007130D01*
X023748Y007130D01*
X023711Y007093D01*
X023711Y006947D01*
X023637Y006947D02*
X023637Y007093D01*
X023600Y007130D01*
X023490Y007130D01*
X023490Y006910D01*
X023600Y006910D01*
X023637Y006947D01*
X022670Y006947D02*
X022450Y006947D01*
X022450Y006983D02*
X022450Y006910D01*
X022487Y007057D02*
X022633Y007057D01*
X022670Y007094D01*
X022670Y007167D01*
X022633Y007204D01*
X022487Y007204D01*
X022450Y007167D01*
X022450Y007094D01*
X022487Y007057D01*
X022670Y006983D02*
X022670Y006910D01*
X022670Y007278D02*
X022450Y007278D01*
X022450Y007388D01*
X022487Y007425D01*
X022560Y007425D01*
X022597Y007388D01*
X022597Y007278D01*
X022597Y007352D02*
X022670Y007425D01*
X022670Y007499D02*
X022450Y007499D01*
X022450Y007609D01*
X022487Y007646D01*
X022633Y007646D01*
X022670Y007609D01*
X022670Y007499D01*
X022487Y007720D02*
X022560Y007794D01*
X022670Y007794D01*
X022560Y007794D02*
X022487Y007867D01*
X022450Y007867D01*
X022450Y007720D02*
X022487Y007720D01*
X021979Y007130D02*
X021979Y006910D01*
X021832Y007130D01*
X021832Y006910D01*
X021758Y006910D02*
X021611Y006910D01*
X021611Y007130D01*
X021758Y007130D01*
X021684Y007020D02*
X021611Y007020D01*
X021537Y007020D02*
X021390Y007020D01*
X021390Y007057D02*
X021463Y007130D01*
X021537Y007057D01*
X021537Y006910D01*
X021390Y006910D02*
X021390Y007057D01*
X021079Y007093D02*
X021042Y007130D01*
X020969Y007130D01*
X020932Y007093D01*
X020932Y007057D01*
X020969Y007020D01*
X021079Y007020D01*
X021079Y006947D02*
X021079Y007093D01*
X021079Y006947D02*
X021042Y006910D01*
X020969Y006910D01*
X020932Y006947D01*
X020858Y006910D02*
X020711Y006910D01*
X020784Y006910D02*
X020784Y007130D01*
X020711Y007057D01*
X020637Y007057D02*
X020637Y006910D01*
X020637Y007020D02*
X020490Y007020D01*
X020490Y007057D02*
X020563Y007130D01*
X020637Y007057D01*
X020490Y007057D02*
X020490Y006910D01*
X020079Y006947D02*
X020042Y006910D01*
X019969Y006910D01*
X019932Y006947D01*
X019932Y006983D01*
X019969Y007020D01*
X020042Y007020D01*
X020079Y006983D01*
X020079Y006947D01*
X020042Y007020D02*
X020079Y007057D01*
X020079Y007093D01*
X020042Y007130D01*
X019969Y007130D01*
X019932Y007093D01*
X019932Y007057D01*
X019969Y007020D01*
X019858Y006910D02*
X019711Y006910D01*
X019784Y006910D02*
X019784Y007130D01*
X019711Y007057D01*
X019637Y007057D02*
X019637Y006910D01*
X019637Y007020D02*
X019490Y007020D01*
X019490Y007057D02*
X019563Y007130D01*
X019637Y007057D01*
X019490Y007057D02*
X019490Y006910D01*
X019079Y007093D02*
X018932Y006947D01*
X018932Y006910D01*
X018858Y006910D02*
X018711Y006910D01*
X018784Y006910D02*
X018784Y007130D01*
X018711Y007057D01*
X018637Y007057D02*
X018637Y006910D01*
X018637Y007020D02*
X018490Y007020D01*
X018490Y007057D02*
X018563Y007130D01*
X018637Y007057D01*
X018490Y007057D02*
X018490Y006910D01*
X018079Y006947D02*
X018079Y006983D01*
X018042Y007020D01*
X017932Y007020D01*
X017932Y006947D01*
X017969Y006910D01*
X018042Y006910D01*
X018079Y006947D01*
X018005Y007093D02*
X018079Y007130D01*
X018005Y007093D02*
X017932Y007020D01*
X017858Y006910D02*
X017711Y006910D01*
X017784Y006910D02*
X017784Y007130D01*
X017711Y007057D01*
X017637Y007057D02*
X017637Y006910D01*
X017637Y007020D02*
X017490Y007020D01*
X017490Y007057D02*
X017563Y007130D01*
X017637Y007057D01*
X017490Y007057D02*
X017490Y006910D01*
X017079Y006947D02*
X017042Y006910D01*
X016969Y006910D01*
X016932Y006947D01*
X016932Y007020D02*
X017005Y007057D01*
X017042Y007057D01*
X017079Y007020D01*
X017079Y006947D01*
X016932Y007020D02*
X016932Y007130D01*
X017079Y007130D01*
X016784Y007130D02*
X016784Y006910D01*
X016711Y006910D02*
X016858Y006910D01*
X016711Y007057D02*
X016784Y007130D01*
X016637Y007057D02*
X016637Y006910D01*
X016637Y007020D02*
X016490Y007020D01*
X016490Y007057D02*
X016563Y007130D01*
X016637Y007057D01*
X016490Y007057D02*
X016490Y006910D01*
X016079Y007020D02*
X015932Y007020D01*
X016042Y007130D01*
X016042Y006910D01*
X015858Y006910D02*
X015711Y006910D01*
X015784Y006910D02*
X015784Y007130D01*
X015711Y007057D01*
X015637Y007057D02*
X015637Y006910D01*
X015637Y007020D02*
X015490Y007020D01*
X015490Y007057D02*
X015563Y007130D01*
X015637Y007057D01*
X015490Y007057D02*
X015490Y006910D01*
X015079Y006947D02*
X015042Y006910D01*
X014969Y006910D01*
X014932Y006947D01*
X014858Y006910D02*
X014711Y006910D01*
X014784Y006910D02*
X014784Y007130D01*
X014711Y007057D01*
X014637Y007057D02*
X014637Y006910D01*
X014637Y007020D02*
X014490Y007020D01*
X014490Y007057D02*
X014563Y007130D01*
X014637Y007057D01*
X014490Y007057D02*
X014490Y006910D01*
X014079Y006910D02*
X013932Y006910D01*
X014079Y007057D01*
X014079Y007093D01*
X014042Y007130D01*
X013969Y007130D01*
X013932Y007093D01*
X013784Y007130D02*
X013784Y006910D01*
X013711Y006910D02*
X013858Y006910D01*
X013711Y007057D02*
X013784Y007130D01*
X013637Y007057D02*
X013637Y006910D01*
X013637Y007020D02*
X013490Y007020D01*
X013490Y007057D02*
X013563Y007130D01*
X013637Y007057D01*
X013490Y007057D02*
X013490Y006910D01*
X013079Y006910D02*
X012932Y006910D01*
X013005Y006910D02*
X013005Y007130D01*
X012932Y007057D01*
X012858Y006910D02*
X012711Y006910D01*
X012784Y006910D02*
X012784Y007130D01*
X012711Y007057D01*
X012637Y007057D02*
X012637Y006910D01*
X012637Y007020D02*
X012490Y007020D01*
X012490Y007057D02*
X012563Y007130D01*
X012637Y007057D01*
X012490Y007057D02*
X012490Y006910D01*
X012079Y006947D02*
X012042Y006910D01*
X011969Y006910D01*
X011932Y006947D01*
X012079Y007093D01*
X012079Y006947D01*
X012079Y007093D02*
X012042Y007130D01*
X011969Y007130D01*
X011932Y007093D01*
X011932Y006947D01*
X011858Y006910D02*
X011711Y006910D01*
X011784Y006910D02*
X011784Y007130D01*
X011711Y007057D01*
X011637Y007057D02*
X011637Y006910D01*
X011637Y007020D02*
X011490Y007020D01*
X011490Y007057D02*
X011563Y007130D01*
X011637Y007057D01*
X011490Y007057D02*
X011490Y006910D01*
X010858Y006947D02*
X010858Y007093D01*
X010821Y007130D01*
X010748Y007130D01*
X010711Y007093D01*
X010711Y007057D01*
X010748Y007020D01*
X010858Y007020D01*
X010858Y006947D02*
X010821Y006910D01*
X010748Y006910D01*
X010711Y006947D01*
X010637Y006910D02*
X010637Y007057D01*
X010563Y007130D01*
X010490Y007057D01*
X010490Y006910D01*
X010490Y007020D02*
X010637Y007020D01*
X009858Y006983D02*
X009858Y006947D01*
X009821Y006910D01*
X009748Y006910D01*
X009711Y006947D01*
X009711Y006983D01*
X009748Y007020D01*
X009821Y007020D01*
X009858Y006983D01*
X009821Y007020D02*
X009858Y007057D01*
X009858Y007093D01*
X009821Y007130D01*
X009748Y007130D01*
X009711Y007093D01*
X009711Y007057D01*
X009748Y007020D01*
X009637Y007020D02*
X009490Y007020D01*
X009490Y007057D02*
X009563Y007130D01*
X009637Y007057D01*
X009637Y006910D01*
X009490Y006910D02*
X009490Y007057D01*
X008858Y007093D02*
X008711Y006947D01*
X008711Y006910D01*
X008637Y006910D02*
X008637Y007057D01*
X008563Y007130D01*
X008490Y007057D01*
X008490Y006910D01*
X008490Y007020D02*
X008637Y007020D01*
X008711Y007130D02*
X008858Y007130D01*
X008858Y007093D01*
X007858Y007130D02*
X007784Y007093D01*
X007711Y007020D01*
X007821Y007020D01*
X007858Y006983D01*
X007858Y006947D01*
X007821Y006910D01*
X007748Y006910D01*
X007711Y006947D01*
X007711Y007020D01*
X007637Y007020D02*
X007490Y007020D01*
X007490Y007057D02*
X007563Y007130D01*
X007637Y007057D01*
X007637Y006910D01*
X007490Y006910D02*
X007490Y007057D01*
X006858Y007020D02*
X006858Y006947D01*
X006821Y006910D01*
X006748Y006910D01*
X006711Y006947D01*
X006711Y007020D02*
X006784Y007057D01*
X006821Y007057D01*
X006858Y007020D01*
X006858Y007130D02*
X006711Y007130D01*
X006711Y007020D01*
X006637Y007020D02*
X006490Y007020D01*
X006490Y007057D02*
X006563Y007130D01*
X006637Y007057D01*
X006637Y006910D01*
X006490Y006910D02*
X006490Y007057D01*
X005858Y007020D02*
X005711Y007020D01*
X005821Y007130D01*
X005821Y006910D01*
X005637Y006910D02*
X005637Y007057D01*
X005563Y007130D01*
X005490Y007057D01*
X005490Y006910D01*
X005490Y007020D02*
X005637Y007020D01*
X004858Y006983D02*
X004858Y006947D01*
X004821Y006910D01*
X004748Y006910D01*
X004711Y006947D01*
X004637Y006910D02*
X004637Y007057D01*
X004563Y007130D01*
X004490Y007057D01*
X004490Y006910D01*
X004490Y007020D02*
X004637Y007020D01*
X004711Y007093D02*
X004748Y007130D01*
X004821Y007130D01*
X004858Y007093D01*
X004858Y007057D01*
X004821Y007020D01*
X004858Y006983D01*
X004821Y007020D02*
X004784Y007020D01*
X003858Y007057D02*
X003711Y006910D01*
X003858Y006910D01*
X003858Y007057D02*
X003858Y007093D01*
X003821Y007130D01*
X003748Y007130D01*
X003711Y007093D01*
X003637Y007057D02*
X003637Y006910D01*
X003637Y007020D02*
X003490Y007020D01*
X003490Y007057D02*
X003563Y007130D01*
X003637Y007057D01*
X003490Y007057D02*
X003490Y006910D01*
X002858Y006910D02*
X002711Y006910D01*
X002784Y006910D02*
X002784Y007130D01*
X002711Y007057D01*
X002637Y007057D02*
X002637Y006910D01*
X002637Y007020D02*
X002490Y007020D01*
X002490Y007057D02*
X002563Y007130D01*
X002637Y007057D01*
X002490Y007057D02*
X002490Y006910D01*
X001858Y006947D02*
X001821Y006910D01*
X001748Y006910D01*
X001711Y006947D01*
X001858Y007093D01*
X001858Y006947D01*
X001858Y007093D02*
X001821Y007130D01*
X001748Y007130D01*
X001711Y007093D01*
X001711Y006947D01*
X001637Y006910D02*
X001637Y007057D01*
X001563Y007130D01*
X001490Y007057D01*
X001490Y006910D01*
X001490Y007020D02*
X001637Y007020D01*
X004690Y009420D02*
X004690Y009640D01*
X004800Y009640D01*
X004837Y009603D01*
X004837Y009530D01*
X004800Y009493D01*
X004690Y009493D01*
X004763Y009493D02*
X004837Y009420D01*
X004911Y009457D02*
X004948Y009420D01*
X005021Y009420D01*
X005058Y009457D01*
X005058Y009530D01*
X005021Y009567D01*
X004984Y009567D01*
X004911Y009530D01*
X004911Y009640D01*
X005058Y009640D01*
X002630Y015070D02*
X008730Y015070D01*
X007521Y020920D02*
X007521Y021140D01*
X007411Y021030D01*
X007558Y021030D01*
X007337Y021030D02*
X007300Y020993D01*
X007190Y020993D01*
X007190Y020920D02*
X007190Y021140D01*
X007300Y021140D01*
X007337Y021103D01*
X007337Y021030D01*
X007263Y020993D02*
X007337Y020920D01*
X007690Y022420D02*
X007690Y022640D01*
X007800Y022640D01*
X007837Y022603D01*
X007837Y022530D01*
X007800Y022493D01*
X007690Y022493D01*
X007763Y022493D02*
X007837Y022420D01*
X007911Y022457D02*
X007948Y022420D01*
X008021Y022420D01*
X008058Y022457D01*
X008058Y022493D01*
X008021Y022530D01*
X007984Y022530D01*
X008021Y022530D02*
X008058Y022567D01*
X008058Y022603D01*
X008021Y022640D01*
X007948Y022640D01*
X007911Y022603D01*
X014969Y007130D02*
X015042Y007130D01*
X015079Y007093D01*
X015079Y007057D01*
X015042Y007020D01*
X015079Y006983D01*
X015079Y006947D01*
X015042Y007020D02*
X015005Y007020D01*
X014932Y007093D02*
X014969Y007130D01*
X018932Y007130D02*
X019079Y007130D01*
X019079Y007093D01*
X023563Y004093D02*
X023563Y003947D01*
X039721Y019428D02*
X039861Y019522D01*
X039861Y019576D02*
X039861Y019669D01*
X039861Y019622D02*
X039721Y019622D01*
X039768Y019576D01*
X039721Y019522D02*
X039861Y019428D01*
D11*
X036660Y019541D02*
X036583Y019465D01*
X036430Y019465D01*
X036353Y019541D01*
X036353Y019695D01*
X036430Y019771D01*
X036507Y019771D01*
X036507Y019465D01*
X036660Y019541D02*
X036660Y019695D01*
X036660Y019925D02*
X036353Y019925D01*
X036353Y020078D02*
X036353Y020155D01*
X036353Y020078D02*
X036507Y019925D01*
X036583Y020309D02*
X036583Y020385D01*
X036660Y020385D01*
X036660Y020309D01*
X036583Y020309D01*
X036583Y020539D02*
X036430Y020539D01*
X036353Y020616D01*
X036353Y020846D01*
X036430Y020999D02*
X036583Y020999D01*
X036660Y021076D01*
X036660Y021229D01*
X036583Y021306D01*
X036430Y021306D01*
X036353Y021229D01*
X036353Y021076D01*
X036430Y020999D01*
X036660Y020846D02*
X036660Y020616D01*
X036583Y020539D01*
X036660Y021460D02*
X036353Y021460D01*
X036353Y021536D01*
X036430Y021613D01*
X036353Y021690D01*
X036430Y021767D01*
X036660Y021767D01*
X036660Y021613D02*
X036430Y021613D01*
X036353Y019311D02*
X036507Y019081D01*
X036660Y019311D01*
X036660Y019081D02*
X036200Y019081D01*
X036430Y018927D02*
X036660Y018927D01*
X036660Y018697D01*
X036583Y018621D01*
X036507Y018697D01*
X036507Y018927D01*
X036430Y018927D02*
X036353Y018851D01*
X036353Y018697D01*
X036430Y018467D02*
X036353Y018390D01*
X036353Y018160D01*
X036200Y018160D02*
X036660Y018160D01*
X036660Y018390D01*
X036583Y018467D01*
X036430Y018467D01*
X036430Y018007D02*
X036660Y018007D01*
X036660Y017853D02*
X036430Y017853D01*
X036353Y017930D01*
X036430Y018007D01*
X036430Y017853D02*
X036353Y017776D01*
X036353Y017700D01*
X036660Y017700D01*
X036583Y017546D02*
X036507Y017470D01*
X036507Y017316D01*
X036430Y017239D01*
X036353Y017316D01*
X036353Y017546D01*
X036583Y017546D02*
X036660Y017470D01*
X036660Y017239D01*
X036660Y017086D02*
X036660Y017009D01*
X036583Y017009D01*
X036583Y017086D01*
X036660Y017086D01*
X036583Y016856D02*
X036353Y016856D01*
X036583Y016856D02*
X036660Y016779D01*
X036583Y016702D01*
X036660Y016625D01*
X036583Y016549D01*
X036353Y016549D01*
X036353Y016395D02*
X036583Y016395D01*
X036660Y016319D01*
X036583Y016242D01*
X036660Y016165D01*
X036583Y016088D01*
X036353Y016088D01*
X036353Y015935D02*
X036583Y015935D01*
X036660Y015858D01*
X036583Y015781D01*
X036660Y015705D01*
X036583Y015628D01*
X036353Y015628D01*
X020747Y010154D02*
X020747Y010077D01*
X020670Y010000D01*
X020747Y009923D01*
X020747Y009847D01*
X020670Y009770D01*
X020516Y009770D01*
X020440Y009847D01*
X020286Y009847D02*
X020209Y009770D01*
X020056Y009770D01*
X019979Y009847D01*
X019979Y010154D01*
X020056Y010230D01*
X020209Y010230D01*
X020286Y010154D01*
X020440Y010154D02*
X020516Y010230D01*
X020670Y010230D01*
X020747Y010154D01*
X020670Y010000D02*
X020593Y010000D01*
X019826Y009770D02*
X019672Y009770D01*
X019749Y009770D02*
X019749Y010230D01*
X019672Y010230D02*
X019826Y010230D01*
X005155Y010273D02*
X004848Y010273D01*
X004848Y010197D02*
X004848Y010350D01*
X004925Y010427D01*
X005079Y010427D01*
X005155Y010350D01*
X005155Y010273D01*
X005079Y010120D02*
X004925Y010120D01*
X004848Y010197D01*
X004695Y010120D02*
X004542Y010120D01*
X004618Y010120D02*
X004618Y010580D01*
X004542Y010580D01*
X004388Y010350D02*
X004311Y010427D01*
X004081Y010427D01*
X004081Y010580D02*
X004081Y010120D01*
X004311Y010120D01*
X004388Y010197D01*
X004388Y010350D01*
X003928Y010350D02*
X003851Y010427D01*
X003698Y010427D01*
X003698Y010273D02*
X003928Y010273D01*
X003928Y010350D02*
X003928Y010120D01*
X003698Y010120D01*
X003621Y010197D01*
X003698Y010273D01*
X003467Y010350D02*
X003391Y010427D01*
X003160Y010427D01*
X003160Y010120D01*
X003007Y010120D02*
X002700Y010120D01*
X002700Y010580D01*
X003007Y010580D01*
X002853Y010350D02*
X002700Y010350D01*
X003467Y010350D02*
X003467Y010120D01*
X009870Y022964D02*
X010110Y022964D01*
X009990Y022964D02*
X009990Y023325D01*
X009870Y023204D01*
D12*
X003965Y024915D02*
X003675Y024915D01*
X003675Y025060D01*
X003723Y025108D01*
X003820Y025108D01*
X003868Y025060D01*
X003868Y024915D01*
X003965Y025210D02*
X003868Y025306D01*
X003965Y025403D01*
X003675Y025403D01*
X003675Y025504D02*
X003675Y025649D01*
X003723Y025698D01*
X003820Y025698D01*
X003868Y025649D01*
X003868Y025504D01*
X003965Y025504D02*
X003675Y025504D01*
X003868Y025601D02*
X003965Y025698D01*
X003965Y025210D02*
X003675Y025210D01*
X002640Y024205D02*
X002543Y024205D01*
X002495Y024157D01*
X002495Y023963D01*
X002543Y023915D01*
X002640Y023915D01*
X002688Y023963D01*
X002688Y024060D01*
X002592Y024060D01*
X002688Y024157D02*
X002640Y024205D01*
X002640Y023205D02*
X002688Y023157D01*
X002688Y023060D01*
X002640Y023012D01*
X002495Y023012D01*
X002495Y022915D02*
X002495Y023205D01*
X002640Y023205D01*
X002640Y021205D02*
X002543Y021205D01*
X002495Y021157D01*
X002495Y020963D01*
X002543Y020915D01*
X002640Y020915D01*
X002688Y020963D01*
X002688Y021060D01*
X002592Y021060D01*
X002688Y021157D02*
X002640Y021205D01*
X002640Y020205D02*
X002688Y020157D01*
X002688Y020060D01*
X002640Y020012D01*
X002495Y020012D01*
X002592Y020012D02*
X002688Y019915D01*
X002495Y019915D02*
X002495Y020205D01*
X002640Y020205D01*
D13*
X002180Y020300D02*
X002180Y019500D01*
X002080Y019400D01*
X001280Y019400D01*
X001180Y019500D01*
X001180Y020300D01*
X001280Y020400D01*
X001180Y020500D01*
X001180Y021300D01*
X001280Y021400D01*
X002080Y021400D01*
X002180Y021300D01*
X002180Y020500D01*
X002080Y020400D01*
X002180Y020300D01*
X002180Y018850D02*
X001180Y018850D01*
X001163Y018848D01*
X001146Y018844D01*
X001130Y018837D01*
X001116Y018827D01*
X001103Y018814D01*
X001093Y018800D01*
X001086Y018784D01*
X001082Y018767D01*
X001080Y018750D01*
X001080Y017050D01*
X001082Y017033D01*
X001086Y017016D01*
X001093Y017000D01*
X001103Y016986D01*
X001116Y016973D01*
X001130Y016963D01*
X001146Y016956D01*
X001163Y016952D01*
X001180Y016950D01*
X002180Y016950D01*
X002197Y016952D01*
X002214Y016956D01*
X002230Y016963D01*
X002244Y016973D01*
X002257Y016986D01*
X002267Y017000D01*
X002274Y017016D01*
X002278Y017033D01*
X002280Y017050D01*
X002280Y018750D01*
X002278Y018767D01*
X002274Y018784D01*
X002267Y018800D01*
X002257Y018814D01*
X002244Y018827D01*
X002230Y018837D01*
X002214Y018844D01*
X002197Y018848D01*
X002180Y018850D01*
X001680Y018050D02*
X001680Y018000D01*
X001680Y017800D02*
X001680Y017750D01*
X002639Y017867D02*
X002639Y016652D01*
X002639Y016148D01*
X002639Y014924D01*
X008721Y014924D01*
X008721Y017867D01*
X002639Y017867D01*
X002639Y016652D02*
X002669Y016650D01*
X002699Y016645D01*
X002728Y016636D01*
X002756Y016623D01*
X002782Y016607D01*
X002806Y016589D01*
X002828Y016567D01*
X002846Y016543D01*
X002862Y016517D01*
X002875Y016489D01*
X002884Y016460D01*
X002889Y016430D01*
X002891Y016400D01*
X002889Y016370D01*
X002884Y016340D01*
X002875Y016311D01*
X002862Y016283D01*
X002846Y016257D01*
X002828Y016233D01*
X002806Y016211D01*
X002782Y016193D01*
X002756Y016177D01*
X002728Y016164D01*
X002699Y016155D01*
X002669Y016150D01*
X002639Y016148D01*
X003180Y015550D02*
X003180Y014800D01*
X003030Y015100D02*
X003030Y013700D01*
X003080Y013650D01*
X003080Y013500D01*
X003078Y013483D01*
X003074Y013466D01*
X003067Y013450D01*
X003057Y013436D01*
X003044Y013423D01*
X003030Y013413D01*
X003014Y013406D01*
X002997Y013402D01*
X002980Y013400D01*
X002380Y013400D01*
X002363Y013402D01*
X002346Y013406D01*
X002330Y013413D01*
X002316Y013423D01*
X002303Y013436D01*
X002293Y013450D01*
X002286Y013466D01*
X002282Y013483D01*
X002280Y013500D01*
X002280Y013650D01*
X002330Y013700D01*
X002330Y015100D01*
X002280Y015150D01*
X002280Y015300D01*
X002282Y015317D01*
X002286Y015334D01*
X002293Y015350D01*
X002303Y015364D01*
X002316Y015377D01*
X002330Y015387D01*
X002346Y015394D01*
X002363Y015398D01*
X002380Y015400D01*
X002980Y015400D01*
X002997Y015398D01*
X003014Y015394D01*
X003030Y015387D01*
X003044Y015377D01*
X003057Y015364D01*
X003067Y015350D01*
X003074Y015334D01*
X003078Y015317D01*
X003080Y015300D01*
X003080Y015150D01*
X003030Y015100D01*
X003180Y015550D02*
X011180Y015550D01*
X011180Y013250D01*
X003180Y013250D01*
X003180Y014000D01*
X003219Y014002D01*
X003258Y014008D01*
X003296Y014017D01*
X003333Y014030D01*
X003369Y014047D01*
X003402Y014067D01*
X003434Y014091D01*
X003463Y014117D01*
X003489Y014146D01*
X003513Y014178D01*
X003533Y014211D01*
X003550Y014247D01*
X003563Y014284D01*
X003572Y014322D01*
X003578Y014361D01*
X003580Y014400D01*
X003578Y014439D01*
X003572Y014478D01*
X003563Y014516D01*
X003550Y014553D01*
X003533Y014589D01*
X003513Y014622D01*
X003489Y014654D01*
X003463Y014683D01*
X003434Y014709D01*
X003402Y014733D01*
X003369Y014753D01*
X003333Y014770D01*
X003296Y014783D01*
X003258Y014792D01*
X003219Y014798D01*
X003180Y014800D01*
X002080Y015150D02*
X002080Y015300D01*
X002078Y015317D01*
X002074Y015334D01*
X002067Y015350D01*
X002057Y015364D01*
X002044Y015377D01*
X002030Y015387D01*
X002014Y015394D01*
X001997Y015398D01*
X001980Y015400D01*
X001380Y015400D01*
X001363Y015398D01*
X001346Y015394D01*
X001330Y015387D01*
X001316Y015377D01*
X001303Y015364D01*
X001293Y015350D01*
X001286Y015334D01*
X001282Y015317D01*
X001280Y015300D01*
X001280Y015150D01*
X001330Y015100D01*
X001330Y013700D01*
X001280Y013650D01*
X001280Y013500D01*
X001282Y013483D01*
X001286Y013466D01*
X001293Y013450D01*
X001303Y013436D01*
X001316Y013423D01*
X001330Y013413D01*
X001346Y013406D01*
X001363Y013402D01*
X001380Y013400D01*
X001980Y013400D01*
X001997Y013402D01*
X002014Y013406D01*
X002030Y013413D01*
X002044Y013423D01*
X002057Y013436D01*
X002067Y013450D01*
X002074Y013466D01*
X002078Y013483D01*
X002080Y013500D01*
X002080Y013650D01*
X002030Y013700D01*
X002030Y015100D01*
X002080Y015150D01*
X002080Y010900D02*
X001280Y010900D01*
X001180Y010800D01*
X001180Y010000D01*
X001280Y009900D01*
X001180Y009800D01*
X001180Y009000D01*
X001280Y008900D01*
X002080Y008900D01*
X002180Y009000D01*
X002180Y009800D01*
X002080Y009900D01*
X002180Y010000D01*
X002180Y010800D01*
X002080Y010900D01*
X003280Y009800D02*
X003430Y009800D01*
X003480Y009750D01*
X004880Y009750D01*
X004930Y009800D01*
X005080Y009800D01*
X005097Y009798D01*
X005114Y009794D01*
X005130Y009787D01*
X005144Y009777D01*
X005157Y009764D01*
X005167Y009750D01*
X005174Y009734D01*
X005178Y009717D01*
X005180Y009700D01*
X005180Y009100D01*
X005178Y009083D01*
X005174Y009066D01*
X005167Y009050D01*
X005157Y009036D01*
X005144Y009023D01*
X005130Y009013D01*
X005114Y009006D01*
X005097Y009002D01*
X005080Y009000D01*
X004930Y009000D01*
X004880Y009050D01*
X003480Y009050D01*
X003430Y009000D01*
X003280Y009000D01*
X003263Y009002D01*
X003246Y009006D01*
X003230Y009013D01*
X003216Y009023D01*
X003203Y009036D01*
X003193Y009050D01*
X003186Y009066D01*
X003182Y009083D01*
X003180Y009100D01*
X003180Y009700D01*
X003182Y009717D01*
X003186Y009734D01*
X003193Y009750D01*
X003203Y009764D01*
X003216Y009777D01*
X003230Y009787D01*
X003246Y009794D01*
X003263Y009798D01*
X003280Y009800D01*
X003430Y006400D02*
X003930Y006400D01*
X004180Y006150D01*
X004430Y006400D01*
X004930Y006400D01*
X005180Y006150D01*
X005430Y006400D01*
X005930Y006400D01*
X006180Y006150D01*
X006430Y006400D01*
X006930Y006400D01*
X007180Y006150D01*
X007430Y006400D01*
X007930Y006400D01*
X008180Y006150D01*
X008430Y006400D01*
X008930Y006400D01*
X009180Y006150D01*
X009430Y006400D01*
X009930Y006400D01*
X010180Y006150D01*
X010430Y006400D01*
X010930Y006400D01*
X011180Y006150D01*
X011430Y006400D01*
X011930Y006400D01*
X012180Y006150D01*
X012430Y006400D01*
X012930Y006400D01*
X013180Y006150D01*
X013430Y006400D01*
X013930Y006400D01*
X014180Y006150D01*
X014430Y006400D01*
X014930Y006400D01*
X015180Y006150D01*
X015430Y006400D01*
X015930Y006400D01*
X016180Y006150D01*
X016430Y006400D01*
X016930Y006400D01*
X017180Y006150D01*
X017430Y006400D01*
X017930Y006400D01*
X018180Y006150D01*
X018430Y006400D01*
X018930Y006400D01*
X019180Y006150D01*
X019430Y006400D01*
X019930Y006400D01*
X020180Y006150D01*
X020430Y006400D01*
X020930Y006400D01*
X021180Y006150D01*
X021430Y006400D01*
X021930Y006400D01*
X022180Y006150D01*
X022430Y006400D01*
X022930Y006400D01*
X023180Y006150D01*
X023430Y006400D01*
X023930Y006400D01*
X024180Y006150D01*
X024430Y006400D01*
X024930Y006400D01*
X025180Y006150D01*
X025430Y006400D01*
X025930Y006400D01*
X026180Y006150D01*
X026430Y006400D01*
X026930Y006400D01*
X027180Y006150D01*
X027430Y006400D01*
X027930Y006400D01*
X028180Y006150D01*
X028430Y006400D01*
X028930Y006400D01*
X029180Y006150D01*
X029430Y006400D01*
X029930Y006400D01*
X030180Y006150D01*
X030430Y006400D01*
X030930Y006400D01*
X031180Y006150D01*
X031430Y006400D01*
X031930Y006400D01*
X032180Y006150D01*
X032180Y004650D01*
X031930Y004400D01*
X031430Y004400D01*
X031180Y004650D01*
X030930Y004400D01*
X030430Y004400D01*
X030180Y004650D01*
X029930Y004400D01*
X029430Y004400D01*
X029180Y004650D01*
X028930Y004400D01*
X028430Y004400D01*
X028180Y004650D01*
X027930Y004400D01*
X027430Y004400D01*
X027180Y004650D01*
X026930Y004400D01*
X026430Y004400D01*
X026180Y004650D01*
X025930Y004400D01*
X025430Y004400D01*
X025180Y004650D01*
X024930Y004400D01*
X024430Y004400D01*
X024180Y004650D01*
X023930Y004400D01*
X023430Y004400D01*
X023180Y004650D01*
X022930Y004400D01*
X022430Y004400D01*
X022180Y004650D01*
X021930Y004400D01*
X021430Y004400D01*
X021180Y004650D01*
X020930Y004400D01*
X020430Y004400D01*
X020180Y004650D01*
X019930Y004400D01*
X019430Y004400D01*
X019180Y004650D01*
X018930Y004400D01*
X018430Y004400D01*
X018180Y004650D01*
X017930Y004400D01*
X017430Y004400D01*
X017180Y004650D01*
X016930Y004400D01*
X016430Y004400D01*
X016180Y004650D01*
X015930Y004400D01*
X015430Y004400D01*
X015180Y004650D01*
X014930Y004400D01*
X014430Y004400D01*
X014180Y004650D01*
X013930Y004400D01*
X013430Y004400D01*
X013180Y004650D01*
X012930Y004400D01*
X012430Y004400D01*
X012180Y004650D01*
X011930Y004400D01*
X011430Y004400D01*
X011180Y004650D01*
X010930Y004400D01*
X010430Y004400D01*
X010180Y004650D01*
X009930Y004400D01*
X009430Y004400D01*
X009180Y004650D01*
X008930Y004400D01*
X008430Y004400D01*
X008180Y004650D01*
X007930Y004400D01*
X007430Y004400D01*
X007180Y004650D01*
X006930Y004400D01*
X006430Y004400D01*
X006180Y004650D01*
X005930Y004400D01*
X005430Y004400D01*
X005180Y004650D01*
X004930Y004400D01*
X004430Y004400D01*
X004180Y004650D01*
X003930Y004400D01*
X003430Y004400D01*
X003180Y004650D01*
X002930Y004400D01*
X002430Y004400D01*
X002180Y004650D01*
X001930Y004400D01*
X001430Y004400D01*
X001180Y004650D01*
X001180Y006150D01*
X001430Y006400D01*
X001930Y006400D01*
X002180Y006150D01*
X002430Y006400D01*
X002930Y006400D01*
X003180Y006150D01*
X003430Y006400D01*
X011180Y008000D02*
X011280Y007900D01*
X012080Y007900D01*
X012180Y008000D01*
X012180Y008800D01*
X012080Y008900D01*
X012180Y009000D01*
X012180Y009800D01*
X012080Y009900D01*
X011280Y009900D01*
X011180Y009800D01*
X011180Y009000D01*
X011280Y008900D01*
X011180Y008800D01*
X011180Y008000D01*
X013680Y008750D02*
X013680Y009500D01*
X013719Y009502D01*
X013758Y009508D01*
X013796Y009517D01*
X013833Y009530D01*
X013869Y009547D01*
X013902Y009567D01*
X013934Y009591D01*
X013963Y009617D01*
X013989Y009646D01*
X014013Y009678D01*
X014033Y009711D01*
X014050Y009747D01*
X014063Y009784D01*
X014072Y009822D01*
X014078Y009861D01*
X014080Y009900D01*
X014078Y009939D01*
X014072Y009978D01*
X014063Y010016D01*
X014050Y010053D01*
X014033Y010089D01*
X014013Y010122D01*
X013989Y010154D01*
X013963Y010183D01*
X013934Y010209D01*
X013902Y010233D01*
X013869Y010253D01*
X013833Y010270D01*
X013796Y010283D01*
X013758Y010292D01*
X013719Y010298D01*
X013680Y010300D01*
X013680Y011050D01*
X023680Y011050D01*
X023680Y008750D01*
X013680Y008750D01*
X013680Y009950D02*
X012680Y009950D01*
X012663Y009952D01*
X012646Y009956D01*
X012630Y009963D01*
X012616Y009973D01*
X012603Y009986D01*
X012593Y010000D01*
X012586Y010016D01*
X012582Y010033D01*
X012580Y010050D01*
X012580Y011750D01*
X012582Y011767D01*
X012586Y011784D01*
X012593Y011800D01*
X012603Y011814D01*
X012616Y011827D01*
X012630Y011837D01*
X012646Y011844D01*
X012663Y011848D01*
X012680Y011850D01*
X013680Y011850D01*
X013697Y011848D01*
X013714Y011844D01*
X013730Y011837D01*
X013744Y011827D01*
X013757Y011814D01*
X013767Y011800D01*
X013774Y011784D01*
X013778Y011767D01*
X013780Y011750D01*
X013780Y010050D01*
X013778Y010033D01*
X013774Y010016D01*
X013767Y010000D01*
X013757Y009986D01*
X013744Y009973D01*
X013730Y009963D01*
X013714Y009956D01*
X013697Y009952D01*
X013680Y009950D01*
X013180Y010750D02*
X013180Y010800D01*
X013180Y011000D02*
X013180Y011050D01*
X011680Y016250D02*
X011680Y018450D01*
X011719Y018452D01*
X011758Y018458D01*
X011796Y018467D01*
X011833Y018480D01*
X011869Y018497D01*
X011902Y018517D01*
X011934Y018541D01*
X011963Y018567D01*
X011989Y018596D01*
X012013Y018628D01*
X012033Y018661D01*
X012050Y018697D01*
X012063Y018734D01*
X012072Y018772D01*
X012078Y018811D01*
X012080Y018850D01*
X012078Y018889D01*
X012072Y018928D01*
X012063Y018966D01*
X012050Y019003D01*
X012033Y019039D01*
X012013Y019072D01*
X011989Y019104D01*
X011963Y019133D01*
X011934Y019159D01*
X011902Y019183D01*
X011869Y019203D01*
X011833Y019220D01*
X011796Y019233D01*
X011758Y019242D01*
X011719Y019248D01*
X011680Y019250D01*
X011680Y021550D01*
X035680Y021550D01*
X035680Y016250D01*
X011680Y016250D01*
X011450Y016437D02*
X011450Y016650D01*
X011343Y016757D01*
X010809Y016757D01*
X010916Y016975D02*
X010809Y017081D01*
X010809Y017295D01*
X010916Y017402D01*
X011130Y017295D02*
X011130Y017081D01*
X011023Y016975D01*
X010916Y016975D01*
X010703Y017188D02*
X011557Y017188D01*
X011450Y017081D02*
X011450Y017295D01*
X011343Y017402D01*
X011236Y017402D01*
X011130Y017295D01*
X011023Y017619D02*
X010809Y017833D01*
X011450Y017833D01*
X011450Y018046D02*
X011450Y017619D01*
X011450Y017081D02*
X011343Y016975D01*
X011450Y016437D02*
X011343Y016330D01*
X010809Y016330D01*
X007580Y020500D02*
X007430Y020500D01*
X007380Y020550D01*
X005980Y020550D01*
X005930Y020500D01*
X005780Y020500D01*
X005763Y020502D01*
X005746Y020506D01*
X005730Y020513D01*
X005716Y020523D01*
X005703Y020536D01*
X005693Y020550D01*
X005686Y020566D01*
X005682Y020583D01*
X005680Y020600D01*
X005680Y021200D01*
X005682Y021217D01*
X005686Y021234D01*
X005693Y021250D01*
X005703Y021264D01*
X005716Y021277D01*
X005730Y021287D01*
X005746Y021294D01*
X005763Y021298D01*
X005780Y021300D01*
X005930Y021300D01*
X005980Y021250D01*
X007380Y021250D01*
X007430Y021300D01*
X007580Y021300D01*
X007597Y021298D01*
X007614Y021294D01*
X007630Y021287D01*
X007644Y021277D01*
X007657Y021264D01*
X007667Y021250D01*
X007674Y021234D01*
X007678Y021217D01*
X007680Y021200D01*
X007680Y020600D01*
X007678Y020583D01*
X007674Y020566D01*
X007667Y020550D01*
X007657Y020536D01*
X007644Y020523D01*
X007630Y020513D01*
X007614Y020506D01*
X007597Y020502D01*
X007580Y020500D01*
X007930Y022000D02*
X008080Y022000D01*
X008097Y022002D01*
X008114Y022006D01*
X008130Y022013D01*
X008144Y022023D01*
X008157Y022036D01*
X008167Y022050D01*
X008174Y022066D01*
X008178Y022083D01*
X008180Y022100D01*
X008180Y022700D01*
X008178Y022717D01*
X008174Y022734D01*
X008167Y022750D01*
X008157Y022764D01*
X008144Y022777D01*
X008130Y022787D01*
X008114Y022794D01*
X008097Y022798D01*
X008080Y022800D01*
X007930Y022800D01*
X007880Y022750D01*
X006480Y022750D01*
X006430Y022800D01*
X006280Y022800D01*
X006263Y022798D01*
X006246Y022794D01*
X006230Y022787D01*
X006216Y022777D01*
X006203Y022764D01*
X006193Y022750D01*
X006186Y022734D01*
X006182Y022717D01*
X006180Y022700D01*
X006180Y022100D01*
X006182Y022083D01*
X006186Y022066D01*
X006193Y022050D01*
X006203Y022036D01*
X006216Y022023D01*
X006230Y022013D01*
X006246Y022006D01*
X006263Y022002D01*
X006280Y022000D01*
X006430Y022000D01*
X006480Y022050D01*
X007880Y022050D01*
X007930Y022000D01*
X010080Y022750D02*
X010080Y021050D01*
X010082Y021033D01*
X010086Y021016D01*
X010093Y021000D01*
X010103Y020986D01*
X010116Y020973D01*
X010130Y020963D01*
X010146Y020956D01*
X010163Y020952D01*
X010180Y020950D01*
X011180Y020950D01*
X011197Y020952D01*
X011214Y020956D01*
X011230Y020963D01*
X011244Y020973D01*
X011257Y020986D01*
X011267Y021000D01*
X011274Y021016D01*
X011278Y021033D01*
X011280Y021050D01*
X011280Y022750D01*
X011278Y022767D01*
X011274Y022784D01*
X011267Y022800D01*
X011257Y022814D01*
X011244Y022827D01*
X011230Y022837D01*
X011214Y022844D01*
X011197Y022848D01*
X011180Y022850D01*
X010180Y022850D01*
X010163Y022848D01*
X010146Y022844D01*
X010130Y022837D01*
X010116Y022827D01*
X010103Y022814D01*
X010093Y022800D01*
X010086Y022784D01*
X010082Y022767D01*
X010080Y022750D01*
X010680Y022050D02*
X010680Y022000D01*
X010680Y021800D02*
X010680Y021750D01*
X006180Y025000D02*
X006080Y024900D01*
X005280Y024900D01*
X005180Y025000D01*
X005080Y024900D01*
X004280Y024900D01*
X004180Y025000D01*
X004180Y025800D01*
X004280Y025900D01*
X005080Y025900D01*
X005180Y025800D01*
X005280Y025900D01*
X006080Y025900D01*
X006180Y025800D01*
X006180Y025000D01*
X002180Y024300D02*
X002180Y023500D01*
X002080Y023400D01*
X002180Y023300D01*
X002180Y022500D01*
X002080Y022400D01*
X001280Y022400D01*
X001180Y022500D01*
X001180Y023300D01*
X001280Y023400D01*
X001180Y023500D01*
X001180Y024300D01*
X001280Y024400D01*
X002080Y024400D01*
X002180Y024300D01*
X024680Y012900D02*
X025380Y012900D01*
X025980Y012900D02*
X026380Y012900D01*
X026980Y012900D02*
X027380Y012900D01*
X027980Y012900D02*
X028380Y012900D01*
X028980Y012900D02*
X029380Y012900D01*
X029980Y012900D02*
X030380Y012900D01*
X030980Y012900D02*
X031380Y012900D01*
X031980Y012900D02*
X032380Y012900D01*
X032980Y012900D02*
X033680Y012900D01*
X033680Y009900D01*
X032980Y009900D01*
X032380Y009900D02*
X031980Y009900D01*
X031380Y009900D02*
X030980Y009900D01*
X030380Y009900D02*
X029980Y009900D01*
X029380Y009900D02*
X028980Y009900D01*
X028380Y009900D02*
X027980Y009900D01*
X027380Y009900D02*
X026980Y009900D01*
X026380Y009900D02*
X025980Y009900D01*
X025380Y009900D02*
X024680Y009900D01*
X024680Y012900D01*
X025380Y009300D02*
X033980Y009300D01*
X034030Y009250D02*
X034030Y008550D01*
X033330Y008550D01*
X033330Y009250D01*
X034030Y009250D01*
X033980Y009300D02*
X034006Y009298D01*
X034032Y009293D01*
X034057Y009285D01*
X034080Y009273D01*
X034102Y009259D01*
X034121Y009241D01*
X034139Y009222D01*
X034153Y009200D01*
X034165Y009177D01*
X034173Y009152D01*
X034178Y009126D01*
X034180Y009100D01*
X034180Y008700D01*
X034178Y008674D01*
X034173Y008648D01*
X034165Y008623D01*
X034153Y008600D01*
X034139Y008578D01*
X034121Y008559D01*
X034102Y008541D01*
X034080Y008527D01*
X034057Y008515D01*
X034032Y008507D01*
X034006Y008502D01*
X033980Y008500D01*
X025380Y008500D01*
X025354Y008502D01*
X025328Y008507D01*
X025303Y008515D01*
X025280Y008527D01*
X025258Y008541D01*
X025239Y008559D01*
X025221Y008578D01*
X025207Y008600D01*
X025195Y008623D01*
X025187Y008648D01*
X025182Y008674D01*
X025180Y008700D01*
X025180Y009100D01*
X025182Y009126D01*
X025187Y009152D01*
X025195Y009177D01*
X025207Y009200D01*
X025221Y009222D01*
X025239Y009241D01*
X025258Y009259D01*
X025280Y009273D01*
X025303Y009285D01*
X025328Y009293D01*
X025354Y009298D01*
X025380Y009300D01*
X033180Y012500D02*
X033182Y012520D01*
X033188Y012538D01*
X033197Y012556D01*
X033209Y012571D01*
X033224Y012583D01*
X033242Y012592D01*
X033260Y012598D01*
X033280Y012600D01*
X033300Y012598D01*
X033318Y012592D01*
X033336Y012583D01*
X033351Y012571D01*
X033363Y012556D01*
X033372Y012538D01*
X033378Y012520D01*
X033380Y012500D01*
X033378Y012480D01*
X033372Y012462D01*
X033363Y012444D01*
X033351Y012429D01*
X033336Y012417D01*
X033318Y012408D01*
X033300Y012402D01*
X033280Y012400D01*
X033260Y012402D01*
X033242Y012408D01*
X033224Y012417D01*
X033209Y012429D01*
X033197Y012444D01*
X033188Y012462D01*
X033182Y012480D01*
X033180Y012500D01*
X036730Y010250D02*
X036730Y010000D01*
X037630Y010000D01*
X037630Y010250D01*
X037180Y010250D01*
X036730Y010250D01*
X037180Y010250D02*
X037180Y010350D01*
X035430Y009900D02*
X035432Y009983D01*
X035438Y010066D01*
X035448Y010149D01*
X035462Y010231D01*
X035479Y010313D01*
X035501Y010393D01*
X035526Y010472D01*
X035555Y010550D01*
X035588Y010627D01*
X035625Y010702D01*
X035664Y010775D01*
X035708Y010846D01*
X035754Y010915D01*
X035804Y010982D01*
X035857Y011046D01*
X035913Y011108D01*
X035972Y011167D01*
X036034Y011223D01*
X036098Y011276D01*
X036165Y011326D01*
X036234Y011372D01*
X036305Y011416D01*
X036378Y011455D01*
X036453Y011492D01*
X036530Y011525D01*
X036608Y011554D01*
X036687Y011579D01*
X036767Y011601D01*
X036849Y011618D01*
X036931Y011632D01*
X037014Y011642D01*
X037097Y011648D01*
X037180Y011650D01*
X037263Y011648D01*
X037346Y011642D01*
X037429Y011632D01*
X037511Y011618D01*
X037593Y011601D01*
X037673Y011579D01*
X037752Y011554D01*
X037830Y011525D01*
X037907Y011492D01*
X037982Y011455D01*
X038055Y011416D01*
X038126Y011372D01*
X038195Y011326D01*
X038262Y011276D01*
X038326Y011223D01*
X038388Y011167D01*
X038447Y011108D01*
X038503Y011046D01*
X038556Y010982D01*
X038606Y010915D01*
X038652Y010846D01*
X038696Y010775D01*
X038735Y010702D01*
X038772Y010627D01*
X038805Y010550D01*
X038834Y010472D01*
X038859Y010393D01*
X038881Y010313D01*
X038898Y010231D01*
X038912Y010149D01*
X038922Y010066D01*
X038928Y009983D01*
X038930Y009900D01*
X038928Y009817D01*
X038922Y009734D01*
X038912Y009651D01*
X038898Y009569D01*
X038881Y009487D01*
X038859Y009407D01*
X038834Y009328D01*
X038805Y009250D01*
X038772Y009173D01*
X038735Y009098D01*
X038696Y009025D01*
X038652Y008954D01*
X038606Y008885D01*
X038556Y008818D01*
X038503Y008754D01*
X038447Y008692D01*
X038388Y008633D01*
X038326Y008577D01*
X038262Y008524D01*
X038195Y008474D01*
X038126Y008428D01*
X038055Y008384D01*
X037982Y008345D01*
X037907Y008308D01*
X037830Y008275D01*
X037752Y008246D01*
X037673Y008221D01*
X037593Y008199D01*
X037511Y008182D01*
X037429Y008168D01*
X037346Y008158D01*
X037263Y008152D01*
X037180Y008150D01*
X037097Y008152D01*
X037014Y008158D01*
X036931Y008168D01*
X036849Y008182D01*
X036767Y008199D01*
X036687Y008221D01*
X036608Y008246D01*
X036530Y008275D01*
X036453Y008308D01*
X036378Y008345D01*
X036305Y008384D01*
X036234Y008428D01*
X036165Y008474D01*
X036098Y008524D01*
X036034Y008577D01*
X035972Y008633D01*
X035913Y008692D01*
X035857Y008754D01*
X035804Y008818D01*
X035754Y008885D01*
X035708Y008954D01*
X035664Y009025D01*
X035625Y009098D01*
X035588Y009173D01*
X035555Y009250D01*
X035526Y009328D01*
X035501Y009407D01*
X035479Y009487D01*
X035462Y009569D01*
X035448Y009651D01*
X035438Y009734D01*
X035432Y009817D01*
X035430Y009900D01*
X037180Y009650D02*
X037180Y009450D01*
X037830Y011050D02*
X037830Y011350D01*
X037980Y011200D02*
X037680Y011200D01*
D14*
X031680Y005900D03*
D15*
X037578Y013337D02*
X037578Y025463D01*
X039680Y025463D01*
X039680Y013337D02*
X037578Y013337D01*
D16*
X032930Y011900D02*
X032930Y011770D01*
X032930Y011650D01*
X032430Y011650D01*
X032430Y010900D01*
X032930Y010900D01*
X032930Y011650D01*
X032930Y011770D02*
X032430Y011770D01*
X032430Y011650D01*
X032430Y011770D02*
X032430Y011900D01*
X032930Y011900D01*
X031930Y011900D02*
X031930Y011770D01*
X031930Y011650D01*
X031430Y011650D01*
X031430Y010900D01*
X031930Y010900D01*
X031930Y011650D01*
X031930Y011770D02*
X031430Y011770D01*
X031430Y011650D01*
X031430Y011770D02*
X031430Y011900D01*
X031930Y011900D01*
X030930Y011900D02*
X030930Y011770D01*
X030930Y011650D01*
X030430Y011650D01*
X030430Y010900D01*
X030930Y010900D01*
X030930Y011650D01*
X030930Y011770D02*
X030430Y011770D01*
X030430Y011650D01*
X030430Y011770D02*
X030430Y011900D01*
X030930Y011900D01*
X029930Y011900D02*
X029930Y011770D01*
X029930Y011650D01*
X029430Y011650D01*
X029430Y010900D01*
X029930Y010900D01*
X029930Y011650D01*
X029930Y011770D02*
X029430Y011770D01*
X029430Y011650D01*
X029430Y011770D02*
X029430Y011900D01*
X029930Y011900D01*
X028930Y011900D02*
X028930Y011770D01*
X028930Y011650D01*
X028430Y011650D01*
X028430Y010900D01*
X028930Y010900D01*
X028930Y011650D01*
X028930Y011770D02*
X028430Y011770D01*
X028430Y011650D01*
X028430Y011770D02*
X028430Y011900D01*
X028930Y011900D01*
X027930Y011900D02*
X027930Y011770D01*
X027930Y011650D01*
X027430Y011650D01*
X027430Y010900D01*
X027930Y010900D01*
X027930Y011650D01*
X027930Y011770D02*
X027430Y011770D01*
X027430Y011650D01*
X027430Y011770D02*
X027430Y011900D01*
X027930Y011900D01*
X026930Y011900D02*
X026930Y011770D01*
X026930Y011650D01*
X026430Y011650D01*
X026430Y010900D01*
X026930Y010900D01*
X026930Y011650D01*
X026930Y011770D02*
X026430Y011770D01*
X026430Y011650D01*
X026430Y011770D02*
X026430Y011900D01*
X026930Y011900D01*
X025930Y011900D02*
X025930Y011770D01*
X025930Y011650D01*
X025430Y011650D01*
X025430Y010900D01*
X025930Y010900D01*
X025930Y011650D01*
X025930Y011770D02*
X025430Y011770D01*
X025430Y011650D01*
X025430Y011770D02*
X025430Y011900D01*
X025930Y011900D01*
X013480Y011000D02*
X013180Y011000D01*
X012880Y011000D01*
X012880Y010800D02*
X013180Y010800D01*
X013480Y010800D01*
X001980Y017800D02*
X001680Y017800D01*
X001380Y017800D01*
X001380Y018000D02*
X001680Y018000D01*
X001980Y018000D01*
X010380Y021800D02*
X010680Y021800D01*
X010980Y021800D01*
X010980Y022000D02*
X010680Y022000D01*
X010380Y022000D01*
D17*
X010100Y023444D02*
X009850Y023444D01*
X009850Y023569D01*
X010100Y023569D01*
X010100Y023444D01*
X010100Y023569D02*
X010475Y023569D01*
X010475Y024569D01*
X009475Y024569D01*
X009475Y023569D01*
X009850Y023569D01*
X010475Y023569D02*
X029475Y023569D01*
X029475Y025569D01*
X009475Y025569D01*
X009475Y024569D01*
X006045Y024500D02*
X006045Y024350D01*
X005970Y024275D01*
X005820Y024275D01*
X005745Y024350D01*
X005745Y024500D02*
X005895Y024575D01*
X005970Y024575D01*
X006045Y024500D01*
X006045Y024725D02*
X005745Y024725D01*
X005745Y024500D01*
X005584Y024500D02*
X005509Y024425D01*
X005284Y024425D01*
X005284Y024275D02*
X005284Y024725D01*
X005509Y024725D01*
X005584Y024650D01*
X005584Y024500D01*
X005124Y024725D02*
X004974Y024725D01*
X005049Y024725D02*
X005049Y024350D01*
X004974Y024275D01*
X004899Y024275D01*
X004824Y024350D01*
X005030Y023625D02*
X005180Y023625D01*
X005255Y023550D01*
X005255Y023250D01*
X005180Y023175D01*
X005030Y023175D01*
X004955Y023250D01*
X004955Y023550D01*
X005030Y023625D01*
X005105Y023325D02*
X005255Y023175D01*
X005415Y023175D02*
X005716Y023175D01*
X005566Y023175D02*
X005566Y023625D01*
X005415Y023475D01*
X004683Y023710D02*
X004663Y023769D01*
X004640Y023826D01*
X004613Y023883D01*
X004582Y023937D01*
X004549Y023990D01*
X004512Y024040D01*
X004473Y024089D01*
X004430Y024134D01*
X004385Y024178D01*
X004338Y024218D01*
X004288Y024256D01*
X004236Y024291D01*
X004182Y024322D01*
X004127Y024350D01*
X004070Y024375D01*
X004011Y024396D01*
X003951Y024414D01*
X003890Y024429D01*
X003829Y024439D01*
X003767Y024446D01*
X003705Y024450D01*
X003642Y024449D01*
X003580Y024445D01*
X003580Y024287D01*
X003030Y024225D02*
X003030Y022575D01*
X003580Y022513D02*
X003580Y022355D01*
X003580Y023287D02*
X003580Y023513D01*
X003030Y024225D02*
X003078Y024260D01*
X003128Y024293D01*
X003180Y024324D01*
X003234Y024351D01*
X003289Y024375D01*
X003346Y024395D01*
X003403Y024413D01*
X003461Y024427D01*
X003520Y024438D01*
X003580Y024445D01*
X004683Y023090D02*
X004663Y023030D01*
X004639Y022971D01*
X004611Y022914D01*
X004580Y022859D01*
X004545Y022805D01*
X004508Y022754D01*
X004467Y022705D01*
X004423Y022659D01*
X004377Y022615D01*
X004328Y022574D01*
X004277Y022536D01*
X004224Y022502D01*
X004168Y022470D01*
X004111Y022443D01*
X004052Y022418D01*
X003992Y022398D01*
X003931Y022380D01*
X003869Y022367D01*
X003806Y022358D01*
X003743Y022352D01*
X003679Y022350D01*
X003615Y022352D01*
X003552Y022358D01*
X003489Y022367D01*
X003427Y022381D01*
X003366Y022398D01*
X003306Y022419D01*
X003247Y022443D01*
X003190Y022471D01*
X003134Y022503D01*
X003081Y022538D01*
X003030Y022575D01*
X004455Y021550D02*
X004530Y021625D01*
X004680Y021625D01*
X004755Y021550D01*
X004755Y021250D01*
X004680Y021175D01*
X004530Y021175D01*
X004455Y021250D01*
X004455Y021550D01*
X004605Y021325D02*
X004755Y021175D01*
X004915Y021175D02*
X005216Y021475D01*
X005216Y021550D01*
X005141Y021625D01*
X004990Y021625D01*
X004915Y021550D01*
X004915Y021175D02*
X005216Y021175D01*
X004683Y020710D02*
X004663Y020769D01*
X004640Y020826D01*
X004613Y020883D01*
X004582Y020937D01*
X004549Y020990D01*
X004512Y021040D01*
X004473Y021089D01*
X004430Y021134D01*
X004385Y021178D01*
X004338Y021218D01*
X004288Y021256D01*
X004236Y021291D01*
X004182Y021322D01*
X004127Y021350D01*
X004070Y021375D01*
X004011Y021396D01*
X003951Y021414D01*
X003890Y021429D01*
X003829Y021439D01*
X003767Y021446D01*
X003705Y021450D01*
X003642Y021449D01*
X003580Y021445D01*
X003580Y021287D01*
X003030Y021225D02*
X003030Y019575D01*
X003580Y019513D02*
X003580Y019355D01*
X003580Y020287D02*
X003580Y020513D01*
X003030Y021225D02*
X003078Y021260D01*
X003128Y021293D01*
X003180Y021324D01*
X003234Y021351D01*
X003289Y021375D01*
X003346Y021395D01*
X003403Y021413D01*
X003461Y021427D01*
X003520Y021438D01*
X003580Y021445D01*
X004683Y020090D02*
X004663Y020030D01*
X004639Y019971D01*
X004611Y019914D01*
X004580Y019859D01*
X004545Y019805D01*
X004508Y019754D01*
X004467Y019705D01*
X004423Y019659D01*
X004377Y019615D01*
X004328Y019574D01*
X004277Y019536D01*
X004224Y019502D01*
X004168Y019470D01*
X004111Y019443D01*
X004052Y019418D01*
X003992Y019398D01*
X003931Y019380D01*
X003869Y019367D01*
X003806Y019358D01*
X003743Y019352D01*
X003679Y019350D01*
X003615Y019352D01*
X003552Y019358D01*
X003489Y019367D01*
X003427Y019381D01*
X003366Y019398D01*
X003306Y019419D01*
X003247Y019443D01*
X003190Y019471D01*
X003134Y019503D01*
X003081Y019538D01*
X003030Y019575D01*
X002455Y016246D02*
X002455Y015946D01*
X002155Y016246D01*
X002080Y016246D01*
X002005Y016171D01*
X002005Y016021D01*
X002080Y015946D01*
X002080Y015786D02*
X002005Y015711D01*
X002005Y015560D01*
X002080Y015485D01*
X002155Y015485D01*
X002230Y015560D01*
X002230Y015711D01*
X002305Y015786D01*
X002380Y015786D01*
X002455Y015711D01*
X002455Y015560D01*
X002380Y015485D01*
X002380Y015325D02*
X002005Y015325D01*
X002005Y015025D02*
X002380Y015025D01*
X002455Y015100D01*
X002455Y015250D01*
X002380Y015325D01*
X002530Y015636D02*
X001930Y015636D01*
X011005Y009146D02*
X011005Y008846D01*
X011005Y008996D02*
X010555Y008996D01*
X010705Y008846D01*
X010780Y008686D02*
X010855Y008611D01*
X010855Y008385D01*
X011005Y008385D02*
X010555Y008385D01*
X010555Y008611D01*
X010630Y008686D01*
X010780Y008686D01*
X010555Y008225D02*
X010555Y008075D01*
X010555Y008150D02*
X010930Y008150D01*
X011005Y008075D01*
X011005Y008000D01*
X010930Y007925D01*
X002045Y008500D02*
X001745Y008500D01*
X001970Y008725D01*
X001970Y008275D01*
X001584Y008500D02*
X001584Y008650D01*
X001509Y008725D01*
X001284Y008725D01*
X001284Y008275D01*
X001284Y008425D02*
X001509Y008425D01*
X001584Y008500D01*
X001124Y008725D02*
X000974Y008725D01*
X001049Y008725D02*
X001049Y008350D01*
X000974Y008275D01*
X000899Y008275D01*
X000824Y008350D01*
X032824Y008375D02*
X032824Y007925D01*
X032824Y008075D02*
X033049Y008075D01*
X033124Y008150D01*
X033124Y008300D01*
X033049Y008375D01*
X032824Y008375D01*
X032974Y008075D02*
X033124Y007925D01*
X033284Y007925D02*
X033284Y008375D01*
X033584Y007925D01*
X033584Y008375D01*
X033745Y008300D02*
X033820Y008375D01*
X033970Y008375D01*
X034045Y008300D01*
X034045Y008225D01*
X033745Y007925D01*
X034045Y007925D01*
X034246Y008735D02*
X034473Y008735D01*
X034359Y008735D02*
X034359Y009075D01*
X034246Y008962D01*
X038105Y008949D02*
X038180Y008874D01*
X038480Y008874D01*
X038555Y008949D01*
X038555Y009099D01*
X038480Y009174D01*
X038480Y009335D02*
X038555Y009410D01*
X038555Y009560D01*
X038480Y009635D01*
X038405Y009635D01*
X038330Y009560D01*
X038330Y009485D01*
X038330Y009560D02*
X038255Y009635D01*
X038180Y009635D01*
X038105Y009560D01*
X038105Y009410D01*
X038180Y009335D01*
X038180Y009174D02*
X038105Y009099D01*
X038105Y008949D01*
X034285Y012059D02*
X034210Y011984D01*
X034285Y012059D02*
X034285Y012209D01*
X034210Y012284D01*
X034135Y012284D01*
X034060Y012209D01*
X034060Y012059D01*
X033985Y011984D01*
X033910Y011984D01*
X033835Y012059D01*
X033835Y012209D01*
X033910Y012284D01*
X033910Y012445D02*
X033835Y012520D01*
X033835Y012670D01*
X033910Y012745D01*
X033985Y012745D01*
X034285Y012445D01*
X034285Y012745D01*
D18*
X008430Y014905D03*
X007930Y014905D03*
X007430Y014905D03*
X006930Y014905D03*
X006430Y014905D03*
X005930Y014905D03*
X005430Y014905D03*
X004930Y014905D03*
X004430Y014905D03*
X003930Y014905D03*
X003430Y014905D03*
X002930Y014905D03*
X002930Y017895D03*
X003430Y017895D03*
X003930Y017895D03*
X004430Y017895D03*
X004930Y017895D03*
X005430Y017895D03*
X005930Y017895D03*
X006430Y017895D03*
X006930Y017895D03*
X007430Y017895D03*
X007930Y017895D03*
X008430Y017895D03*
D19*
X002680Y015475D03*
X001680Y015475D03*
X001680Y013325D03*
X002680Y013325D03*
D20*
X003105Y009400D03*
X005255Y009400D03*
X005605Y020900D03*
X007755Y020900D03*
X008255Y022400D03*
X006105Y022400D03*
D21*
X037180Y009675D03*
M02*
