%
M48
M72
T01C0.0240
T02C0.0320
T03C0.0360
T04C0.0394
T05C0.0400
T06C0.1083
T07C0.1300
%
T01
X9635Y4305
X8330Y6825
X9905Y7410
X9500Y7995
X7835Y7950
X7835Y8940
X7115Y9435
X7115Y10515
X8060Y10830
X9500Y9750
X10670Y10425
X11570Y10830
X11480Y11730
X11975Y11730
X14000Y12720
X14540Y12090
X15710Y12900
X16250Y12450
X17060Y13260
X17420Y13620
X18680Y13260
X20030Y13080
X21200Y14520
X23540Y13980
X28085Y13800
X30785Y13800
X30920Y11820
X26510Y11100
X23135Y9210
X21605Y9075
X20660Y10290
X20120Y10380
X18680Y8940
X19580Y7500
X18950Y6870
X18005Y7230
X17465Y6870
X18185Y5565
X19085Y5430
X18320Y4395
X22280Y4395
X23180Y5250
X24170Y5565
X26060Y6375
X26420Y7635
X28265Y7635
X24305Y8130
X23405Y6915
X17375Y10605
X15755Y9975
X15215Y10335
X14855Y10695
X13955Y9300
X11705Y6870
X6215Y8040
X5720Y8040
X4775Y7095
X5810Y10740
X1805Y12135
X2930Y15150
X2435Y15195
X4955Y17085
X5450Y17670
X7115Y17490
X6260Y16635
X6395Y15105
X8870Y14700
X9680Y14430
X9185Y13935
X9185Y13440
X14720Y13170
X16160Y14745
X16520Y16590
X16880Y17490
X15170Y18570
X14990Y19380
X13730Y19740
X12335Y20055
X10535Y20820
X10040Y21990
X9320Y22530
X8960Y21090
X8105Y20235
X7205Y20505
X6710Y20415
X7025Y21045
X6305Y21045
X7475Y19560
X7475Y19065
X9050Y16950
X11750Y18255
X13730Y17130
X17690Y19020
X18050Y18660
X17555Y21180
X15800Y21180
X24080Y21090
X24755Y21270
X27410Y20820
X28940Y19020
X30920Y18660
X31145Y22935
X34790Y6600
X34790Y6105
X32720Y3855
T02
X32680Y8900
X31680Y8900
X30680Y8900
X29680Y8900
X28680Y8900
X27680Y8900
X26680Y8900
X25680Y8900
X25680Y9900
X26680Y9900
X27680Y9900
X28680Y9900
X29680Y9900
X30680Y9900
X31680Y9900
X32680Y9900
X33680Y8900
X32680Y12900
X31680Y12900
X30680Y12900
X29680Y12900
X28680Y12900
X27680Y12900
X26680Y12900
X25680Y12900
X23180Y11400
X22180Y11400
X21180Y11400
X20180Y11400
X19180Y11400
X18180Y11400
X17180Y11400
X16180Y11400
X15180Y11400
X14180Y11400
X13180Y11400
X13180Y10400
X14180Y8400
X15180Y8400
X16180Y8400
X17180Y8400
X18180Y8400
X19180Y8400
X20180Y8400
X21180Y8400
X22180Y8400
X23180Y8400
X23180Y15900
X22180Y15900
X21180Y15900
X20180Y15900
X19180Y15900
X18180Y15900
X17180Y15900
X16180Y15900
X15180Y15900
X14180Y15900
X13180Y15900
X12180Y15900
X10680Y15900
X9680Y15900
X8680Y15900
X7680Y15900
X6680Y15900
X5680Y15900
X4680Y15900
X3680Y15900
X2680Y15900
X1680Y15900
X1680Y17400
X1680Y18400
X3680Y19900
X4430Y20400
X3680Y20900
X5180Y20900
X5680Y22400
X4430Y23400
X3680Y23900
X3680Y22900
X8180Y20900
X10680Y21400
X10680Y22400
X12180Y21900
X13180Y21900
X14180Y21900
X15180Y21900
X16180Y21900
X17180Y21900
X18180Y21900
X19180Y21900
X20180Y21900
X21180Y21900
X22180Y21900
X23180Y21900
X24180Y21900
X25180Y21900
X26180Y21900
X27180Y21900
X28180Y21900
X29180Y21900
X30180Y21900
X31180Y21900
X32180Y21900
X33180Y21900
X34180Y21900
X35180Y21900
X35180Y15900
X34180Y15900
X33180Y15900
X32180Y15900
X31180Y15900
X30180Y15900
X29180Y15900
X28180Y15900
X27180Y15900
X26180Y15900
X25180Y15900
X24180Y15900
X10680Y12900
X9680Y12900
X8680Y12900
X7680Y12900
X6680Y12900
X5680Y12900
X4680Y12900
X3680Y12900
X2680Y12900
X1680Y12900
X2680Y9400
X5680Y9400
X8680Y22400
T03
X5680Y25400
X4680Y25400
X1680Y23900
X1680Y22900
X1680Y20900
X1680Y19900
X1680Y10400
X1680Y9400
X11680Y9400
X11680Y8400
T04
X11975Y24069
X10975Y24069
X9975Y24069
X9975Y25069
X10975Y25069
X11975Y25069
X12975Y25069
X13975Y25069
X14975Y25069
X15975Y25069
X16975Y25069
X17975Y25069
X18975Y25069
X19975Y25069
X20975Y25069
X21975Y25069
X22975Y25069
X23975Y25069
X24975Y25069
X25975Y25069
X26975Y25069
X27975Y25069
X28975Y25069
X28975Y24069
X27975Y24069
X26975Y24069
X25975Y24069
X24975Y24069
X23975Y24069
X22975Y24069
X21975Y24069
X20975Y24069
X19975Y24069
X18975Y24069
X17975Y24069
X16975Y24069
X15975Y24069
X14975Y24069
X13975Y24069
X12975Y24069
T05
X1680Y4900
X2680Y4900
X3680Y4900
X4680Y4900
X5680Y4900
X6680Y4900
X7680Y4900
X8680Y4900
X9680Y4900
X10680Y4900
X11680Y4900
X12680Y4900
X13680Y4900
X14680Y4900
X15680Y4900
X16680Y4900
X17680Y4900
X18680Y4900
X19680Y4900
X20680Y4900
X21680Y4900
X22680Y4900
X23680Y4900
X24680Y4900
X25680Y4900
X26680Y4900
X27680Y4900
X28680Y4900
X29680Y4900
X30680Y4900
X31680Y4900
X31680Y5900
X30680Y5900
X29680Y5900
X28680Y5900
X27680Y5900
X26680Y5900
X25680Y5900
X24680Y5900
X23680Y5900
X22680Y5900
X21680Y5900
X20680Y5900
X19680Y5900
X18680Y5900
X17680Y5900
X16680Y5900
X15680Y5900
X14680Y5900
X13680Y5900
X12680Y5900
X11680Y5900
X10680Y5900
X9680Y5900
X8680Y5900
X7680Y5900
X6680Y5900
X5680Y5900
X4680Y5900
X3680Y5900
X2680Y5900
X1680Y5900
X2680Y25400
X37180Y10900
X37180Y8900
X38121Y17219
X39239Y17766
X38121Y18309
X39239Y18857
X38121Y19400
X39239Y19943
X38121Y20491
X39239Y21034
X38121Y21581
T06
X30893Y24569
X8058Y24569
T07
X38680Y24321
X38680Y14479
M30
