%
M48
M72
T01C0.0240
T02C0.0320
T03C0.0360
T04C0.0400
%
T01
X8180Y1930
X20055Y6555
X21305Y5430
X22430Y5055
X22430Y4305
X21805Y3305
X20430Y2055
X25055Y2180
X25555Y2180
X29680Y3805
X30680Y3805
X32680Y5055
X35305Y4430
X38305Y2805
X34180Y6430
X31680Y6805
X27055Y4555
X25930Y6805
X25180Y6805
X25180Y7555
X26180Y8055
X24805Y8680
X21680Y9555
X25430Y10805
X25805Y11305
X29180Y11305
X29680Y11055
X32930Y11305
X28430Y13555
X27805Y14180
X25055Y13430
X23055Y13555
X19805Y13555
X19180Y14555
X23430Y15805
X20555Y16680
X31430Y14305
X32680Y13930
X32555Y15180
X37180Y15555
X38180Y12555
X38680Y7055
X21055Y11555
X13180Y8555
X19430Y7680
X10680Y11680
X8430Y12680
X6055Y9055
T02
X7180Y9180
X7180Y10180
X7180Y11180
X7180Y12180
X7180Y13180
X7180Y14180
X7180Y15180
X8180Y15680
X7180Y16180
X8180Y16680
X9680Y16180
X9680Y15180
X9680Y14180
X9680Y13180
X9680Y12180
X9680Y11180
X9680Y10180
X9680Y9180
X9680Y8180
X9680Y7180
X9680Y6180
X9680Y5180
X9680Y4180
X9680Y3180
X7180Y3180
X7180Y4180
X7180Y5180
X7180Y6180
X7180Y7180
X7180Y8180
X1180Y8180
X1180Y7180
X1180Y6180
X1180Y5180
X1180Y4180
X1180Y3180
X1180Y9180
X1180Y10180
X1180Y11180
X1180Y12180
X1180Y13180
X1180Y14180
X1180Y15180
X1180Y16180
X15680Y16180
X16680Y15680
X15680Y15180
X15680Y14180
X15680Y13180
X15680Y12180
X15680Y11180
X15680Y10180
X15680Y9180
X15680Y8180
X15680Y7180
X15680Y6180
X15680Y5180
X15680Y4180
X15680Y3180
X18180Y3180
X18180Y4180
X18180Y5180
X18180Y6180
X18180Y7180
X18180Y8180
X18180Y9180
X18180Y10180
X18180Y11180
X18180Y12180
X18180Y13180
X18180Y14180
X18180Y15180
X18180Y16180
X16680Y16680
X24180Y16180
X25680Y15680
X24180Y15180
X24180Y14180
X24180Y13180
X25680Y12680
X26680Y12680
X27680Y12680
X28680Y12680
X29680Y12680
X30680Y12680
X31680Y12680
X32680Y12680
X33680Y13680
X34680Y13680
X35680Y13680
X36680Y13680
X37680Y13680
X38680Y13680
X39680Y13680
X38180Y11680
X37180Y11680
X36680Y9680
X36680Y8680
X36680Y7680
X36680Y6680
X36680Y5680
X36680Y4680
X36680Y3680
X39680Y3680
X39680Y4680
X39680Y5680
X39680Y6680
X39680Y7680
X39680Y8680
X39680Y9680
X32680Y9680
X31680Y9680
X30680Y9680
X29680Y9680
X28680Y9680
X27680Y9680
X26680Y9680
X25680Y9680
X24180Y9180
X24180Y10180
X24180Y11180
X24180Y12180
X32180Y14680
X32180Y15680
X33680Y16680
X34680Y16680
X35680Y16680
X36680Y16680
X37680Y16680
X38680Y16680
X39680Y16680
X25680Y16680
X24180Y8180
X24180Y7180
X24180Y6180
X24180Y5180
X26180Y5680
X27180Y5680
X28180Y5680
X29180Y5680
X30180Y5680
X31180Y5680
X32180Y5680
X33180Y5680
X33180Y2680
X32180Y2680
X31180Y2680
X30180Y2680
X29180Y2680
X28180Y2680
X27180Y2680
X26180Y2680
X24180Y3180
X24180Y4180
T03
X34180Y10680
X35180Y10680
X28680Y14680
X27180Y14680
X27180Y15680
X28680Y15680
X28680Y16680
X27180Y16680
T04
X680Y1180
X1680Y1180
X2680Y1180
X3680Y1180
X4680Y1180
X5680Y1180
X6680Y1180
X7680Y1180
X8680Y1180
X9680Y1180
X10680Y1180
X11680Y1180
X12680Y1180
X13680Y1180
X14680Y1180
X15680Y1180
X16680Y1180
X17680Y1180
X18680Y1180
X19680Y1180
X20680Y1180
X21680Y1180
X22680Y1180
X23680Y1180
X24680Y1180
X25680Y1180
X26680Y1180
X27680Y1180
X28680Y1180
X29680Y1180
X30680Y1180
X31680Y1180
X32680Y1180
X33680Y1180
X34680Y1180
X35680Y1180
X36680Y1180
X37680Y1180
X38680Y1180
X39680Y1180
X34180Y7180
X33180Y7180
X32180Y7180
X31180Y7180
X30180Y7180
X29180Y7180
X28180Y7180
X27180Y7180
X27180Y8180
X28180Y8180
X29180Y8180
X30180Y8180
X31180Y8180
X32180Y8180
X33180Y8180
X34180Y8180
X29680Y15680
M30
