G75*
%MOIN*%
%OFA0B0*%
%FSLAX24Y24*%
%IPPOS*%
%LPD*%
%AMOC8*
5,1,8,0,0,1.08239X$1,22.5*
%
%ADD10C,0.0520*%
%ADD11OC8,0.0600*%
%ADD12C,0.0600*%
%ADD13OC8,0.0520*%
%ADD14C,0.0520*%
%ADD15C,0.0560*%
%ADD16C,0.0200*%
%ADD17C,0.0400*%
%ADD18C,0.0100*%
D10*
X001100Y002340D02*
X001100Y002860D01*
X002100Y002860D02*
X002100Y002340D01*
X003100Y002340D02*
X003100Y002860D01*
X004100Y002860D02*
X004100Y002340D01*
X005100Y002340D02*
X005100Y002860D01*
X006100Y002860D02*
X006100Y002340D01*
X007100Y002340D02*
X007100Y002860D01*
X008100Y002860D02*
X008100Y002340D01*
X011600Y002340D02*
X011600Y002860D01*
X012600Y002860D02*
X012600Y002340D01*
X013600Y002340D02*
X013600Y002860D01*
X014600Y002860D02*
X014600Y002340D01*
X015600Y002340D02*
X015600Y002860D01*
X016600Y002860D02*
X016600Y002340D01*
X017600Y002340D02*
X017600Y002860D01*
X018600Y002860D02*
X018600Y002340D01*
X019600Y002340D02*
X019600Y002860D01*
X020600Y002860D02*
X020600Y002340D01*
X021600Y002340D02*
X021600Y002860D01*
X022600Y002860D02*
X022600Y002340D01*
X023600Y002340D02*
X023600Y002860D01*
X024600Y002860D02*
X024600Y002340D01*
X030100Y002340D02*
X030100Y002860D01*
X031100Y002860D02*
X031100Y002340D01*
X032100Y002340D02*
X032100Y002860D01*
X033100Y002860D02*
X033100Y002340D01*
X034100Y002340D02*
X034100Y002860D01*
X035100Y002860D02*
X035100Y002340D01*
X036100Y002340D02*
X036100Y002860D01*
X036100Y005340D02*
X036100Y005860D01*
X035100Y005860D02*
X035100Y005340D01*
X034100Y005340D02*
X034100Y005860D01*
X033100Y005860D02*
X033100Y005340D01*
X032100Y005340D02*
X032100Y005860D01*
X031100Y005860D02*
X031100Y005340D01*
X030100Y005340D02*
X030100Y005860D01*
X024600Y008340D02*
X024600Y008860D01*
X023600Y008860D02*
X023600Y008340D01*
X022600Y008340D02*
X022600Y008860D01*
X021600Y008860D02*
X021600Y008340D01*
X020600Y008340D02*
X020600Y008860D01*
X019600Y008860D02*
X019600Y008340D01*
X018600Y008340D02*
X018600Y008860D01*
X017600Y008860D02*
X017600Y008340D01*
X016600Y008340D02*
X016600Y008860D01*
X015600Y008860D02*
X015600Y008340D01*
X014600Y008340D02*
X014600Y008860D01*
X013600Y008860D02*
X013600Y008340D01*
X012600Y008340D02*
X012600Y008860D01*
X011600Y008860D02*
X011600Y008340D01*
X008100Y005860D02*
X008100Y005340D01*
X007100Y005340D02*
X007100Y005860D01*
X006100Y005860D02*
X006100Y005340D01*
X005100Y005340D02*
X005100Y005860D01*
X004100Y005860D02*
X004100Y005340D01*
X003100Y005340D02*
X003100Y005860D01*
X002100Y005860D02*
X002100Y005340D01*
X001100Y005340D02*
X001100Y005860D01*
D11*
X001100Y007100D03*
X002100Y007100D03*
X003100Y007100D03*
X004100Y007100D03*
X005100Y007100D03*
X006100Y007100D03*
X007100Y007100D03*
X008100Y007100D03*
X008100Y008100D03*
X007100Y008100D03*
X006100Y008100D03*
X005100Y008100D03*
X004100Y008100D03*
X003100Y008100D03*
X002100Y008100D03*
X001100Y008100D03*
D12*
X013100Y009800D02*
X013100Y010400D01*
X014100Y010400D02*
X014100Y009800D01*
X015100Y009800D02*
X015100Y010400D01*
X016100Y010400D02*
X016100Y009800D01*
X017100Y009800D02*
X017100Y010400D01*
X018100Y010400D02*
X018100Y009800D01*
X019100Y009800D02*
X019100Y010400D01*
X020100Y010400D02*
X020100Y009800D01*
X021100Y009800D02*
X021100Y010400D01*
X022100Y010400D02*
X022100Y009800D01*
X021600Y001400D02*
X021600Y000800D01*
X022600Y000800D02*
X022600Y001400D01*
X023600Y001400D02*
X023600Y000800D01*
X024600Y000800D02*
X024600Y001400D01*
X025600Y001400D02*
X025600Y000800D01*
X026600Y000800D02*
X026600Y001400D01*
X027600Y001400D02*
X027600Y000800D01*
X028600Y000800D02*
X028600Y001400D01*
X029600Y001400D02*
X029600Y000800D01*
X030600Y000800D02*
X030600Y001400D01*
X031600Y001400D02*
X031600Y000800D01*
X032600Y000800D02*
X032600Y001400D01*
X033600Y001400D02*
X033600Y000800D01*
X034600Y000800D02*
X034600Y001400D01*
X035600Y001400D02*
X035600Y000800D01*
X036600Y000800D02*
X036600Y001400D01*
X037600Y001400D02*
X037600Y000800D01*
X038600Y000800D02*
X038600Y001400D01*
X039600Y001400D02*
X039600Y000800D01*
X020600Y000800D02*
X020600Y001400D01*
X019600Y001400D02*
X019600Y000800D01*
X018600Y000800D02*
X018600Y001400D01*
X017600Y001400D02*
X017600Y000800D01*
X016600Y000800D02*
X016600Y001400D01*
X015600Y001400D02*
X015600Y000800D01*
X014600Y000800D02*
X014600Y001400D01*
X013600Y001400D02*
X013600Y000800D01*
X012600Y000800D02*
X012600Y001400D01*
X011600Y001400D02*
X011600Y000800D01*
X010600Y000800D02*
X010600Y001400D01*
X009600Y001400D02*
X009600Y000800D01*
X008600Y000800D02*
X008600Y001400D01*
X007600Y001400D02*
X007600Y000800D01*
X006600Y000800D02*
X006600Y001400D01*
X005600Y001400D02*
X005600Y000800D01*
X004600Y000800D02*
X004600Y001400D01*
X003600Y001400D02*
X003600Y000800D01*
X002600Y000800D02*
X002600Y001400D01*
X001600Y001400D02*
X001600Y000800D01*
X000600Y000800D02*
X000600Y001400D01*
D13*
X009100Y003600D03*
X009100Y004600D03*
X026100Y005100D03*
X026100Y006100D03*
X027100Y008100D03*
X030100Y008100D03*
X031600Y008100D03*
X031600Y009100D03*
X030100Y009600D03*
X027100Y009600D03*
X037600Y009100D03*
X037600Y008100D03*
X037600Y004600D03*
X037600Y003600D03*
D14*
X036100Y007100D03*
X035100Y007100D03*
X034100Y007100D03*
X033100Y007100D03*
X033100Y010100D03*
X034100Y010100D03*
X035100Y010100D03*
X036100Y010100D03*
D15*
X028600Y005380D02*
X028600Y004820D01*
X027600Y004820D02*
X027600Y005380D01*
X010600Y009820D02*
X010600Y010380D01*
X009600Y010380D02*
X009600Y009820D01*
D16*
X009600Y010100D02*
X010413Y009288D01*
X010788Y009288D01*
X010850Y009350D01*
X012350Y009350D01*
X013100Y010100D01*
X022100Y010100D02*
X022538Y009663D01*
X023163Y009663D01*
X027100Y009600D02*
X027600Y010100D01*
X033100Y010100D01*
X031350Y006350D02*
X026350Y006350D01*
X026100Y006100D01*
X026913Y005913D02*
X026100Y005100D01*
X022600Y005100D01*
X020163Y005100D01*
X009600Y005100D01*
X009100Y004600D01*
X002100Y004600D01*
X001100Y005600D01*
X005100Y002600D02*
X005850Y003350D01*
X007350Y003350D01*
X008100Y002600D01*
X009100Y003600D01*
X017038Y003600D01*
X017100Y003538D01*
X017163Y003600D01*
X023600Y003600D01*
X023663Y003663D01*
X022600Y004413D02*
X022350Y004663D01*
X011913Y004663D01*
X026913Y005913D02*
X029788Y005913D01*
X030100Y005600D01*
X031350Y006350D02*
X032100Y005600D01*
X033100Y005600D01*
X036100Y002600D02*
X037100Y003600D01*
X037600Y003600D01*
D17*
X027788Y003913D03*
X027225Y003163D03*
X026413Y002288D03*
X023663Y003663D03*
X022163Y004038D03*
X022600Y004413D03*
X023350Y004663D03*
X024413Y004413D03*
X022600Y005100D03*
X024850Y005538D03*
X021100Y006350D03*
X019850Y006225D03*
X017975Y005975D03*
X017100Y006475D03*
X016163Y007288D03*
X015225Y007600D03*
X014475Y006850D03*
X013788Y005725D03*
X012788Y005725D03*
X012288Y005725D03*
X011913Y004663D03*
X015725Y004038D03*
X017100Y004225D03*
X017100Y003538D03*
X016100Y003163D03*
X020163Y005100D03*
X028538Y007475D03*
X029538Y007975D03*
X030475Y008913D03*
X030600Y006975D03*
X023163Y009663D03*
X008100Y003600D03*
X009225Y001913D03*
D18*
X009850Y000350D02*
X001100Y000350D01*
X001100Y002600D01*
X002100Y002600D02*
X003100Y003600D01*
X008100Y003600D01*
X003850Y001850D02*
X003100Y002600D01*
X003850Y001850D02*
X007850Y001850D01*
X008600Y001100D01*
X009850Y000350D02*
X010600Y001100D01*
X009288Y001850D02*
X017850Y001850D01*
X018600Y001100D01*
X019788Y001850D02*
X020100Y001538D01*
X020100Y000350D01*
X028850Y000350D01*
X029600Y001100D01*
X029413Y001913D02*
X030100Y002600D01*
X031413Y003288D02*
X032100Y002600D01*
X032788Y001913D01*
X033413Y001913D01*
X034100Y002600D01*
X035100Y002600D02*
X033788Y003913D01*
X027788Y003913D01*
X027600Y005100D02*
X026538Y004038D01*
X022163Y004038D01*
X023350Y004663D02*
X023600Y004413D01*
X024413Y004413D01*
X024038Y003538D02*
X023788Y003288D01*
X017350Y003288D01*
X016663Y002600D01*
X016600Y002600D01*
X016100Y003163D02*
X015975Y003288D01*
X015288Y003288D01*
X014600Y002600D01*
X018600Y002600D02*
X019350Y001850D01*
X019788Y001850D01*
X020288Y001913D02*
X029413Y001913D01*
X026413Y002288D02*
X024913Y002288D01*
X024600Y002600D01*
X027225Y003163D02*
X027350Y003288D01*
X031413Y003288D01*
X032163Y003538D02*
X024038Y003538D01*
X020288Y001913D02*
X019600Y002600D01*
X015913Y004225D02*
X015725Y004038D01*
X015913Y004225D02*
X017100Y004225D01*
X014038Y005475D02*
X013913Y005350D01*
X010850Y005350D01*
X008100Y008100D01*
X007100Y008100D01*
X006100Y008100D01*
X005100Y008100D01*
X004100Y008100D01*
X003100Y008100D01*
X002100Y008100D01*
X001100Y008100D01*
X011600Y008600D02*
X012288Y007913D01*
X014788Y007913D01*
X015163Y008288D01*
X015163Y009350D01*
X015350Y009350D01*
X016100Y010100D01*
X015100Y010100D02*
X014350Y009350D01*
X013350Y009350D01*
X012600Y008600D01*
X015600Y008600D02*
X015600Y006850D01*
X014475Y006850D01*
X013538Y006475D02*
X017100Y006475D01*
X017975Y005975D02*
X014038Y005975D01*
X013788Y005725D01*
X014038Y005475D02*
X024788Y005475D01*
X024850Y005538D01*
X024663Y005850D02*
X025413Y006600D01*
X033975Y006600D01*
X034663Y005913D01*
X034663Y003350D01*
X035225Y003350D01*
X035538Y003038D01*
X035538Y001850D01*
X034350Y001850D01*
X033600Y001100D01*
X033100Y002600D02*
X032163Y003538D01*
X033413Y004913D02*
X028788Y004913D01*
X028600Y005100D01*
X024663Y005850D02*
X018600Y005850D01*
X018600Y008600D01*
X019600Y008600D02*
X020288Y009288D01*
X026788Y009288D01*
X027163Y008913D01*
X030475Y008913D01*
X031163Y008538D02*
X031600Y008100D01*
X033100Y008100D01*
X035100Y010100D01*
X034100Y010100D02*
X033600Y009600D01*
X030100Y009600D01*
X031163Y008538D02*
X027538Y008538D01*
X027100Y008100D01*
X028538Y007475D02*
X022725Y007475D01*
X021600Y008600D01*
X020100Y010100D02*
X019350Y009350D01*
X016163Y009350D01*
X016163Y007288D01*
X015225Y007600D02*
X014163Y007600D01*
X012288Y005725D01*
X012788Y005725D02*
X013538Y006475D01*
X019850Y006225D02*
X020350Y006725D01*
X024725Y006725D01*
X025100Y007100D01*
X028663Y007100D01*
X029538Y007975D01*
X030600Y006975D02*
X030475Y006850D01*
X025350Y006850D01*
X024975Y006475D01*
X021225Y006475D01*
X021100Y006350D01*
X033100Y008100D02*
X034100Y007100D01*
X034100Y005600D02*
X033413Y004913D01*
X035100Y005600D02*
X036100Y005600D01*
X037600Y009100D02*
X036600Y010100D01*
X036100Y010100D01*
X009288Y001850D02*
X009225Y001913D01*
M02*
