G75*
%MOIN*%
%OFA0B0*%
%FSLAX24Y24*%
%IPPOS*%
%LPD*%
%AMOC8*
5,1,8,0,0,1.08239X$1,22.5*
%
%ADD10C,0.0400*%
%ADD11C,0.0600*%
%ADD12C,0.0680*%
%ADD13C,0.0640*%
%ADD14OC8,0.0600*%
%ADD15C,0.0600*%
%ADD16OC8,0.0595*%
%ADD17OC8,0.0680*%
D10*
X034680Y011680D03*
D11*
X036420Y011680D02*
X036940Y011680D01*
X036940Y010680D02*
X036420Y010680D01*
X036420Y009680D02*
X036940Y009680D01*
X036940Y008680D02*
X036420Y008680D01*
X036420Y007680D02*
X036940Y007680D01*
X039420Y007680D02*
X039940Y007680D01*
X039940Y008680D02*
X039420Y008680D01*
X039420Y009680D02*
X039940Y009680D01*
X039940Y010680D02*
X039420Y010680D01*
X039420Y011680D02*
X039940Y011680D01*
X039940Y012680D02*
X039420Y012680D01*
X039420Y013680D02*
X039940Y013680D01*
X036940Y013680D02*
X036420Y013680D01*
X036420Y012680D02*
X036940Y012680D01*
X029180Y010940D02*
X029180Y010420D01*
X028180Y010420D02*
X028180Y010940D01*
X027180Y010940D02*
X027180Y010420D01*
X026180Y010420D02*
X026180Y010940D01*
X025180Y010940D02*
X025180Y010420D01*
X024180Y010420D02*
X024180Y010940D01*
X023180Y010940D02*
X023180Y010420D01*
X022180Y010420D02*
X022180Y010940D01*
X021180Y010940D02*
X021180Y010420D01*
X020180Y010420D02*
X020180Y010940D01*
X019180Y010940D02*
X019180Y010420D01*
X018180Y010420D02*
X018180Y010940D01*
X017180Y010940D02*
X017180Y010420D01*
X016180Y010420D02*
X016180Y010940D01*
X014180Y010940D02*
X014180Y010420D01*
X013180Y010420D02*
X013180Y010940D01*
X012180Y010940D02*
X012180Y010420D01*
X011180Y010420D02*
X011180Y010940D01*
X010180Y010940D02*
X010180Y010420D01*
X009180Y010420D02*
X009180Y010940D01*
X008180Y010940D02*
X008180Y010420D01*
X007180Y010420D02*
X007180Y010940D01*
X006180Y010940D02*
X006180Y010420D01*
X005180Y010420D02*
X005180Y010940D01*
X004180Y010940D02*
X004180Y010420D01*
X003180Y010420D02*
X003180Y010940D01*
X002180Y010940D02*
X002180Y010420D01*
X001180Y010420D02*
X001180Y010940D01*
X001180Y007940D02*
X001180Y007420D01*
X002180Y007420D02*
X002180Y007940D01*
X003180Y007940D02*
X003180Y007420D01*
X004180Y007420D02*
X004180Y007940D01*
X005180Y007940D02*
X005180Y007420D01*
X006180Y007420D02*
X006180Y007940D01*
X007180Y007940D02*
X007180Y007420D01*
X008180Y007420D02*
X008180Y007940D01*
X009180Y007940D02*
X009180Y007420D01*
X010180Y007420D02*
X010180Y007940D01*
X011180Y007940D02*
X011180Y007420D01*
X012180Y007420D02*
X012180Y007940D01*
X013180Y007940D02*
X013180Y007420D01*
X014180Y007420D02*
X014180Y007940D01*
X016180Y007940D02*
X016180Y007420D01*
X017180Y007420D02*
X017180Y007940D01*
X018180Y007940D02*
X018180Y007420D01*
X019180Y007420D02*
X019180Y007940D01*
X020180Y007940D02*
X020180Y007420D01*
X021180Y007420D02*
X021180Y007940D01*
X022180Y007940D02*
X022180Y007420D01*
X023180Y007420D02*
X023180Y007940D01*
X024180Y007940D02*
X024180Y007420D01*
X025180Y007420D02*
X025180Y007940D01*
X026180Y007940D02*
X026180Y007420D01*
X027180Y007420D02*
X027180Y007940D01*
X028180Y007940D02*
X028180Y007420D01*
X029180Y007420D02*
X029180Y007940D01*
X028680Y005940D02*
X028680Y005420D01*
X029680Y005420D02*
X029680Y005940D01*
X030680Y005940D02*
X030680Y005420D01*
X031680Y005420D02*
X031680Y005940D01*
X032680Y005940D02*
X032680Y005420D01*
X033680Y005420D02*
X033680Y005940D01*
X034680Y005940D02*
X034680Y005420D01*
X034680Y002940D02*
X034680Y002420D01*
X033680Y002420D02*
X033680Y002940D01*
X032680Y002940D02*
X032680Y002420D01*
X031680Y002420D02*
X031680Y002940D01*
X030680Y002940D02*
X030680Y002420D01*
X029680Y002420D02*
X029680Y002940D01*
X028680Y002940D02*
X028680Y002420D01*
X027680Y002420D02*
X027680Y002940D01*
X025680Y002940D02*
X025680Y002420D01*
X024680Y002420D02*
X024680Y002940D01*
X023680Y002940D02*
X023680Y002420D01*
X022680Y002420D02*
X022680Y002940D01*
X021680Y002940D02*
X021680Y002420D01*
X020680Y002420D02*
X020680Y002940D01*
X019680Y002940D02*
X019680Y002420D01*
X018680Y002420D02*
X018680Y002940D01*
X016680Y002940D02*
X016680Y002420D01*
X015680Y002420D02*
X015680Y002940D01*
X014680Y002940D02*
X014680Y002420D01*
X013680Y002420D02*
X013680Y002940D01*
X012680Y002940D02*
X012680Y002420D01*
X011680Y002420D02*
X011680Y002940D01*
X010680Y002940D02*
X010680Y002420D01*
X009680Y002420D02*
X009680Y002940D01*
X007680Y002940D02*
X007680Y002420D01*
X006680Y002420D02*
X006680Y002940D01*
X005680Y002940D02*
X005680Y002420D01*
X004680Y002420D02*
X004680Y002940D01*
X003680Y002940D02*
X003680Y002420D01*
X002680Y002420D02*
X002680Y002940D01*
X001680Y002940D02*
X001680Y002420D01*
X000680Y002420D02*
X000680Y002940D01*
X000680Y005420D02*
X000680Y005940D01*
X001680Y005940D02*
X001680Y005420D01*
X002680Y005420D02*
X002680Y005940D01*
X003680Y005940D02*
X003680Y005420D01*
X004680Y005420D02*
X004680Y005940D01*
X005680Y005940D02*
X005680Y005420D01*
X006680Y005420D02*
X006680Y005940D01*
X007680Y005940D02*
X007680Y005420D01*
X009680Y005420D02*
X009680Y005940D01*
X010680Y005940D02*
X010680Y005420D01*
X011680Y005420D02*
X011680Y005940D01*
X012680Y005940D02*
X012680Y005420D01*
X013680Y005420D02*
X013680Y005940D01*
X014680Y005940D02*
X014680Y005420D01*
X015680Y005420D02*
X015680Y005940D01*
X016680Y005940D02*
X016680Y005420D01*
X018680Y005420D02*
X018680Y005940D01*
X019680Y005940D02*
X019680Y005420D01*
X020680Y005420D02*
X020680Y005940D01*
X021680Y005940D02*
X021680Y005420D01*
X022680Y005420D02*
X022680Y005940D01*
X023680Y005940D02*
X023680Y005420D01*
X024680Y005420D02*
X024680Y005940D01*
X025680Y005940D02*
X025680Y005420D01*
X027680Y005420D02*
X027680Y005940D01*
X025680Y011920D02*
X025680Y012440D01*
X024680Y012440D02*
X024680Y011920D01*
X023680Y011920D02*
X023680Y012440D01*
X022680Y012440D02*
X022680Y011920D01*
X021680Y011920D02*
X021680Y012440D01*
X020680Y012440D02*
X020680Y011920D01*
X019680Y011920D02*
X019680Y012440D01*
X018680Y012440D02*
X018680Y011920D01*
X018680Y014920D02*
X018680Y015440D01*
X019680Y015440D02*
X019680Y014920D01*
X020680Y014920D02*
X020680Y015440D01*
X021680Y015440D02*
X021680Y014920D01*
X022680Y014920D02*
X022680Y015440D01*
X023680Y015440D02*
X023680Y014920D01*
X024680Y014920D02*
X024680Y015440D01*
X025680Y015440D02*
X025680Y014920D01*
D12*
X000680Y001480D02*
X000680Y000880D01*
X001680Y000880D02*
X001680Y001480D01*
X002680Y001480D02*
X002680Y000880D01*
X003680Y000880D02*
X003680Y001480D01*
X004680Y001480D02*
X004680Y000880D01*
X005680Y000880D02*
X005680Y001480D01*
X006680Y001480D02*
X006680Y000880D01*
X007680Y000880D02*
X007680Y001480D01*
X008680Y001480D02*
X008680Y000880D01*
X009680Y000880D02*
X009680Y001480D01*
X010680Y001480D02*
X010680Y000880D01*
X011680Y000880D02*
X011680Y001480D01*
X012680Y001480D02*
X012680Y000880D01*
X013680Y000880D02*
X013680Y001480D01*
X014680Y001480D02*
X014680Y000880D01*
X015680Y000880D02*
X015680Y001480D01*
X016680Y001480D02*
X016680Y000880D01*
X017680Y000880D02*
X017680Y001480D01*
X018680Y001480D02*
X018680Y000880D01*
X019680Y000880D02*
X019680Y001480D01*
X020680Y001480D02*
X020680Y000880D01*
X021680Y000880D02*
X021680Y001480D01*
X022680Y001480D02*
X022680Y000880D01*
X023680Y000880D02*
X023680Y001480D01*
X024680Y001480D02*
X024680Y000880D01*
X025680Y000880D02*
X025680Y001480D01*
X026680Y001480D02*
X026680Y000880D01*
X027680Y000880D02*
X027680Y001480D01*
X028680Y001480D02*
X028680Y000880D01*
X029680Y000880D02*
X029680Y001480D01*
X030680Y001480D02*
X030680Y000880D01*
X031680Y000880D02*
X031680Y001480D01*
X032680Y001480D02*
X032680Y000880D01*
X033680Y000880D02*
X033680Y001480D01*
X034680Y001480D02*
X034680Y000880D01*
X035680Y000880D02*
X035680Y001480D01*
X036680Y001480D02*
X036680Y000880D01*
X037680Y000880D02*
X037680Y001480D01*
X038680Y001480D02*
X038680Y000880D01*
X039680Y000880D02*
X039680Y001480D01*
X009980Y013180D02*
X009380Y013180D01*
X006980Y013180D02*
X006380Y013180D01*
X004180Y013380D02*
X004180Y013980D01*
X003180Y013980D02*
X003180Y013380D01*
X002180Y013380D02*
X002180Y013980D01*
X006380Y015180D02*
X006980Y015180D01*
X009380Y015180D02*
X009980Y015180D01*
D13*
X012180Y012960D02*
X012180Y012400D01*
X013180Y012400D02*
X013180Y012960D01*
X014180Y012960D02*
X014180Y012400D01*
X027680Y012460D02*
X027680Y011900D01*
X028680Y011900D02*
X028680Y012460D01*
X028680Y013400D02*
X028680Y013960D01*
X027680Y013960D02*
X027680Y013400D01*
X027680Y014900D02*
X027680Y015460D01*
X028680Y015460D02*
X028680Y014900D01*
D14*
X038680Y015180D03*
X039680Y015180D03*
X030180Y010180D03*
X030180Y009180D03*
X025180Y006680D03*
X024180Y006680D03*
X010680Y012180D03*
X017180Y012680D03*
X017180Y013680D03*
X010680Y015180D03*
X010180Y006680D03*
X009180Y006680D03*
D15*
X031680Y008680D03*
X034680Y008680D03*
X034680Y014680D03*
X031680Y014680D03*
D16*
X031680Y011680D03*
D17*
X036680Y003680D03*
X037680Y003680D03*
X038680Y003680D03*
X039680Y003680D03*
X039680Y002680D03*
X038680Y002680D03*
X037680Y002680D03*
X036680Y002680D03*
M02*
