G75*
%MOIN*%
%OFA0B0*%
%FSLAX24Y24*%
%IPPOS*%
%LPD*%
%AMOC8*
5,1,8,0,0,1.08239X$1,22.5*
%
%ADD10C,0.0520*%
%ADD11C,0.0600*%
%ADD12C,0.0560*%
%ADD13OC8,0.0520*%
%ADD14C,0.0520*%
%ADD15OC8,0.0515*%
%ADD16OC8,0.0600*%
%ADD17C,0.0100*%
%ADD18C,0.0400*%
%ADD19C,0.0200*%
%ADD20C,0.0160*%
D10*
X000680Y002420D02*
X000680Y002940D01*
X001680Y002940D02*
X001680Y002420D01*
X002680Y002420D02*
X002680Y002940D01*
X003680Y002940D02*
X003680Y002420D01*
X004680Y002420D02*
X004680Y002940D01*
X005680Y002940D02*
X005680Y002420D01*
X006680Y002420D02*
X006680Y002940D01*
X007680Y002940D02*
X007680Y002420D01*
X009680Y002420D02*
X009680Y002940D01*
X010680Y002940D02*
X010680Y002420D01*
X011680Y002420D02*
X011680Y002940D01*
X012680Y002940D02*
X012680Y002420D01*
X013680Y002420D02*
X013680Y002940D01*
X014680Y002940D02*
X014680Y002420D01*
X015680Y002420D02*
X015680Y002940D01*
X016680Y002940D02*
X016680Y002420D01*
X018680Y002420D02*
X018680Y002940D01*
X019680Y002940D02*
X019680Y002420D01*
X020680Y002420D02*
X020680Y002940D01*
X021680Y002940D02*
X021680Y002420D01*
X022680Y002420D02*
X022680Y002940D01*
X023680Y002940D02*
X023680Y002420D01*
X024680Y002420D02*
X024680Y002940D01*
X025680Y002940D02*
X025680Y002420D01*
X027680Y002420D02*
X027680Y002940D01*
X028680Y002940D02*
X028680Y002420D01*
X029680Y002420D02*
X029680Y002940D01*
X030680Y002940D02*
X030680Y002420D01*
X031680Y002420D02*
X031680Y002940D01*
X032680Y002940D02*
X032680Y002420D01*
X033680Y002420D02*
X033680Y002940D01*
X034680Y002940D02*
X034680Y002420D01*
X034680Y005420D02*
X034680Y005940D01*
X033680Y005940D02*
X033680Y005420D01*
X032680Y005420D02*
X032680Y005940D01*
X031680Y005940D02*
X031680Y005420D01*
X030680Y005420D02*
X030680Y005940D01*
X029680Y005940D02*
X029680Y005420D01*
X028680Y005420D02*
X028680Y005940D01*
X027680Y005940D02*
X027680Y005420D01*
X025680Y005420D02*
X025680Y005940D01*
X024680Y005940D02*
X024680Y005420D01*
X023680Y005420D02*
X023680Y005940D01*
X022680Y005940D02*
X022680Y005420D01*
X021680Y005420D02*
X021680Y005940D01*
X020680Y005940D02*
X020680Y005420D01*
X019680Y005420D02*
X019680Y005940D01*
X018680Y005940D02*
X018680Y005420D01*
X016680Y005420D02*
X016680Y005940D01*
X015680Y005940D02*
X015680Y005420D01*
X014680Y005420D02*
X014680Y005940D01*
X013680Y005940D02*
X013680Y005420D01*
X012680Y005420D02*
X012680Y005940D01*
X011680Y005940D02*
X011680Y005420D01*
X010680Y005420D02*
X010680Y005940D01*
X009680Y005940D02*
X009680Y005420D01*
X007680Y005420D02*
X007680Y005940D01*
X006680Y005940D02*
X006680Y005420D01*
X005680Y005420D02*
X005680Y005940D01*
X004680Y005940D02*
X004680Y005420D01*
X003680Y005420D02*
X003680Y005940D01*
X002680Y005940D02*
X002680Y005420D01*
X001680Y005420D02*
X001680Y005940D01*
X000680Y005940D02*
X000680Y005420D01*
X001180Y007420D02*
X001180Y007940D01*
X002180Y007940D02*
X002180Y007420D01*
X003180Y007420D02*
X003180Y007940D01*
X004180Y007940D02*
X004180Y007420D01*
X005180Y007420D02*
X005180Y007940D01*
X006180Y007940D02*
X006180Y007420D01*
X007180Y007420D02*
X007180Y007940D01*
X008180Y007940D02*
X008180Y007420D01*
X009180Y007420D02*
X009180Y007940D01*
X010180Y007940D02*
X010180Y007420D01*
X011180Y007420D02*
X011180Y007940D01*
X012180Y007940D02*
X012180Y007420D01*
X013180Y007420D02*
X013180Y007940D01*
X014180Y007940D02*
X014180Y007420D01*
X016180Y007420D02*
X016180Y007940D01*
X017180Y007940D02*
X017180Y007420D01*
X018180Y007420D02*
X018180Y007940D01*
X019180Y007940D02*
X019180Y007420D01*
X020180Y007420D02*
X020180Y007940D01*
X021180Y007940D02*
X021180Y007420D01*
X022180Y007420D02*
X022180Y007940D01*
X023180Y007940D02*
X023180Y007420D01*
X024180Y007420D02*
X024180Y007940D01*
X025180Y007940D02*
X025180Y007420D01*
X026180Y007420D02*
X026180Y007940D01*
X027180Y007940D02*
X027180Y007420D01*
X028180Y007420D02*
X028180Y007940D01*
X029180Y007940D02*
X029180Y007420D01*
X029180Y010420D02*
X029180Y010940D01*
X028180Y010940D02*
X028180Y010420D01*
X027180Y010420D02*
X027180Y010940D01*
X026180Y010940D02*
X026180Y010420D01*
X025180Y010420D02*
X025180Y010940D01*
X024180Y010940D02*
X024180Y010420D01*
X023180Y010420D02*
X023180Y010940D01*
X022180Y010940D02*
X022180Y010420D01*
X021180Y010420D02*
X021180Y010940D01*
X020180Y010940D02*
X020180Y010420D01*
X019180Y010420D02*
X019180Y010940D01*
X018180Y010940D02*
X018180Y010420D01*
X017180Y010420D02*
X017180Y010940D01*
X016180Y010940D02*
X016180Y010420D01*
X014180Y010420D02*
X014180Y010940D01*
X013180Y010940D02*
X013180Y010420D01*
X012180Y010420D02*
X012180Y010940D01*
X011180Y010940D02*
X011180Y010420D01*
X010180Y010420D02*
X010180Y010940D01*
X009180Y010940D02*
X009180Y010420D01*
X008180Y010420D02*
X008180Y010940D01*
X007180Y010940D02*
X007180Y010420D01*
X006180Y010420D02*
X006180Y010940D01*
X005180Y010940D02*
X005180Y010420D01*
X004180Y010420D02*
X004180Y010940D01*
X003180Y010940D02*
X003180Y010420D01*
X002180Y010420D02*
X002180Y010940D01*
X001180Y010940D02*
X001180Y010420D01*
X018680Y011920D02*
X018680Y012440D01*
X019680Y012440D02*
X019680Y011920D01*
X020680Y011920D02*
X020680Y012440D01*
X021680Y012440D02*
X021680Y011920D01*
X022680Y011920D02*
X022680Y012440D01*
X023680Y012440D02*
X023680Y011920D01*
X024680Y011920D02*
X024680Y012440D01*
X025680Y012440D02*
X025680Y011920D01*
X025680Y014920D02*
X025680Y015440D01*
X024680Y015440D02*
X024680Y014920D01*
X023680Y014920D02*
X023680Y015440D01*
X022680Y015440D02*
X022680Y014920D01*
X021680Y014920D02*
X021680Y015440D01*
X020680Y015440D02*
X020680Y014920D01*
X019680Y014920D02*
X019680Y015440D01*
X018680Y015440D02*
X018680Y014920D01*
X036420Y013680D02*
X036940Y013680D01*
X036940Y012680D02*
X036420Y012680D01*
X036420Y011680D02*
X036940Y011680D01*
X036940Y010680D02*
X036420Y010680D01*
X036420Y009680D02*
X036940Y009680D01*
X036940Y008680D02*
X036420Y008680D01*
X036420Y007680D02*
X036940Y007680D01*
X039420Y007680D02*
X039940Y007680D01*
X039940Y008680D02*
X039420Y008680D01*
X039420Y009680D02*
X039940Y009680D01*
X039940Y010680D02*
X039420Y010680D01*
X039420Y011680D02*
X039940Y011680D01*
X039940Y012680D02*
X039420Y012680D01*
X039420Y013680D02*
X039940Y013680D01*
D11*
X009980Y013180D02*
X009380Y013180D01*
X006980Y013180D02*
X006380Y013180D01*
X004180Y013380D02*
X004180Y013980D01*
X003180Y013980D02*
X003180Y013380D01*
X002180Y013380D02*
X002180Y013980D01*
X006380Y015180D02*
X006980Y015180D01*
X009380Y015180D02*
X009980Y015180D01*
X009680Y001480D02*
X009680Y000880D01*
X008680Y000880D02*
X008680Y001480D01*
X007680Y001480D02*
X007680Y000880D01*
X006680Y000880D02*
X006680Y001480D01*
X005680Y001480D02*
X005680Y000880D01*
X004680Y000880D02*
X004680Y001480D01*
X003680Y001480D02*
X003680Y000880D01*
X002680Y000880D02*
X002680Y001480D01*
X001680Y001480D02*
X001680Y000880D01*
X000680Y000880D02*
X000680Y001480D01*
X010680Y001480D02*
X010680Y000880D01*
X011680Y000880D02*
X011680Y001480D01*
X012680Y001480D02*
X012680Y000880D01*
X013680Y000880D02*
X013680Y001480D01*
X014680Y001480D02*
X014680Y000880D01*
X015680Y000880D02*
X015680Y001480D01*
X016680Y001480D02*
X016680Y000880D01*
X017680Y000880D02*
X017680Y001480D01*
X018680Y001480D02*
X018680Y000880D01*
X019680Y000880D02*
X019680Y001480D01*
X020680Y001480D02*
X020680Y000880D01*
X021680Y000880D02*
X021680Y001480D01*
X022680Y001480D02*
X022680Y000880D01*
X023680Y000880D02*
X023680Y001480D01*
X024680Y001480D02*
X024680Y000880D01*
X025680Y000880D02*
X025680Y001480D01*
X026680Y001480D02*
X026680Y000880D01*
X027680Y000880D02*
X027680Y001480D01*
X028680Y001480D02*
X028680Y000880D01*
X029680Y000880D02*
X029680Y001480D01*
X030680Y001480D02*
X030680Y000880D01*
X031680Y000880D02*
X031680Y001480D01*
X032680Y001480D02*
X032680Y000880D01*
X033680Y000880D02*
X033680Y001480D01*
X034680Y001480D02*
X034680Y000880D01*
X035680Y000880D02*
X035680Y001480D01*
X036680Y001480D02*
X036680Y000880D01*
X037680Y000880D02*
X037680Y001480D01*
X038680Y001480D02*
X038680Y000880D01*
X039680Y000880D02*
X039680Y001480D01*
D12*
X028680Y011900D02*
X028680Y012460D01*
X027680Y012460D02*
X027680Y011900D01*
X027680Y013400D02*
X027680Y013960D01*
X028680Y013960D02*
X028680Y013400D01*
X028680Y014900D02*
X028680Y015460D01*
X027680Y015460D02*
X027680Y014900D01*
X014180Y012960D02*
X014180Y012400D01*
X013180Y012400D02*
X013180Y012960D01*
X012180Y012960D02*
X012180Y012400D01*
D13*
X010680Y012180D03*
X017180Y012680D03*
X017180Y013680D03*
X010680Y015180D03*
X030180Y010180D03*
X030180Y009180D03*
X025180Y006680D03*
X024180Y006680D03*
X010180Y006680D03*
X009180Y006680D03*
X038680Y015180D03*
X039680Y015180D03*
D14*
X034680Y014680D03*
X031680Y014680D03*
X031680Y008680D03*
X034680Y008680D03*
D15*
X031680Y011680D03*
D16*
X036680Y003680D03*
X037680Y003680D03*
X038680Y003680D03*
X039680Y003680D03*
X039680Y002680D03*
X038680Y002680D03*
X037680Y002680D03*
X036680Y002680D03*
D17*
X035680Y002830D02*
X035680Y003030D01*
X035680Y002830D02*
X034830Y001980D01*
X025530Y001980D01*
X025230Y002280D01*
X025230Y002980D01*
X024830Y003380D01*
X021130Y003380D01*
X019230Y005280D01*
X019230Y005980D01*
X018330Y006880D01*
X016130Y006880D01*
X015430Y007580D01*
X015430Y009180D01*
X016180Y009930D01*
X016180Y010680D01*
X017180Y010680D02*
X017180Y010630D01*
X015780Y009230D01*
X015780Y008530D01*
X016030Y006680D02*
X013630Y009080D01*
X013630Y011330D01*
X012630Y012330D01*
X012630Y013230D01*
X010680Y015180D01*
X009430Y015880D02*
X007480Y013930D01*
X007480Y012730D01*
X007455Y012705D01*
X008430Y011730D01*
X010980Y011730D01*
X011630Y011080D01*
X011630Y010380D01*
X012180Y009830D01*
X012180Y007680D01*
X013180Y007680D02*
X013180Y009030D01*
X013980Y009580D02*
X015780Y011380D01*
X016480Y011380D01*
X019680Y014580D01*
X019680Y015180D01*
X019830Y015880D02*
X020530Y015180D01*
X020680Y015180D01*
X019830Y015880D02*
X009430Y015880D01*
X003130Y012730D02*
X002180Y013680D01*
X003130Y012730D02*
X007430Y012730D01*
X007455Y012705D01*
X008030Y011830D02*
X006480Y011830D01*
X005630Y010980D01*
X005630Y009830D01*
X005180Y009380D01*
X005180Y007680D01*
X004730Y007380D02*
X004730Y009230D01*
X005180Y009680D01*
X005180Y010680D01*
X006180Y010680D02*
X006180Y010080D01*
X005730Y009630D01*
X005730Y007380D01*
X005330Y006980D01*
X005130Y006980D01*
X004230Y006080D01*
X004230Y005380D01*
X003830Y004980D01*
X003530Y004980D01*
X002830Y005680D01*
X002680Y005680D01*
X001830Y005680D02*
X002730Y004780D01*
X004630Y004780D01*
X005230Y005380D01*
X005230Y006080D01*
X006130Y006980D01*
X006330Y006980D01*
X006730Y007380D01*
X006730Y010230D01*
X007180Y010680D01*
X007730Y011330D02*
X007880Y011480D01*
X007730Y011330D02*
X007730Y007230D01*
X009280Y005680D01*
X009680Y005680D01*
X009980Y006230D02*
X009830Y006380D01*
X009480Y006380D01*
X009330Y006230D01*
X009030Y006230D01*
X008180Y007080D01*
X008180Y007680D01*
X007580Y006630D02*
X006380Y006630D01*
X007580Y006630D02*
X009230Y004980D01*
X010830Y004980D01*
X011530Y005680D01*
X011680Y005680D01*
X012530Y005680D02*
X011430Y004580D01*
X001930Y004580D01*
X001230Y005280D01*
X001230Y006080D01*
X002130Y006980D01*
X003480Y006980D01*
X004180Y007680D01*
X004730Y007380D02*
X003680Y006330D01*
X003680Y005680D01*
X001830Y005680D02*
X001680Y005680D01*
X003180Y007680D02*
X004530Y009030D01*
X004530Y009530D01*
X008630Y010380D02*
X008630Y011230D01*
X008030Y011830D01*
X008630Y010380D02*
X010630Y008380D01*
X010630Y007380D01*
X011030Y006980D01*
X012530Y006980D01*
X013680Y005830D01*
X013680Y005680D01*
X013130Y005380D02*
X013130Y006080D01*
X012830Y006380D01*
X010480Y006380D01*
X010330Y006230D01*
X009980Y006230D01*
X012530Y005680D02*
X012680Y005680D01*
X013130Y005380D02*
X013530Y004980D01*
X015830Y004980D01*
X016530Y005680D01*
X016680Y005680D01*
X015680Y005680D02*
X014830Y006530D01*
X014480Y006530D01*
X016030Y006680D02*
X017030Y006680D01*
X017430Y006280D01*
X017430Y006080D01*
X019130Y004380D01*
X019130Y002380D01*
X019680Y001830D01*
X019680Y001180D01*
X020680Y001180D02*
X021430Y000430D01*
X034880Y000430D01*
X035130Y000680D01*
X035130Y001580D01*
X035480Y001930D01*
X038580Y001930D01*
X039130Y002480D01*
X039130Y002780D01*
X039480Y003130D01*
X039780Y003130D01*
X040130Y003480D01*
X040130Y003880D01*
X038630Y005380D01*
X038630Y010430D01*
X038880Y010680D01*
X039680Y010680D01*
X038980Y010280D02*
X038980Y008530D01*
X039680Y007830D01*
X039680Y007680D01*
X032680Y005680D02*
X032530Y005680D01*
X031130Y004280D01*
X024230Y004280D01*
X023130Y005380D01*
X023130Y006080D01*
X022230Y006980D01*
X022030Y006980D01*
X021630Y007380D01*
X021630Y008080D01*
X019730Y009980D01*
X018880Y009980D01*
X018180Y010680D01*
X019180Y010680D02*
X019330Y010680D01*
X020830Y009180D01*
X024530Y009180D01*
X025630Y008080D01*
X025630Y006880D01*
X027830Y004680D01*
X030530Y004680D01*
X031530Y005680D01*
X031680Y005680D01*
X029680Y005680D02*
X029680Y006330D01*
X028630Y007380D01*
X028630Y008380D01*
X026630Y010380D01*
X026630Y011080D01*
X026330Y011380D01*
X021880Y011380D01*
X021180Y010680D01*
X020680Y010330D02*
X020680Y012180D01*
X020530Y013180D02*
X018830Y013180D01*
X017730Y012080D01*
X017730Y010280D01*
X018330Y009680D01*
X018380Y009680D01*
X019730Y008330D01*
X019730Y007280D01*
X020630Y006380D01*
X020830Y006380D01*
X021230Y005980D01*
X021230Y005280D01*
X022430Y004080D01*
X036130Y004080D01*
X036530Y004480D01*
X037430Y004480D01*
X037680Y004230D01*
X037680Y003680D01*
X037280Y004130D02*
X036480Y004130D01*
X036230Y003880D01*
X021630Y003880D01*
X020230Y005280D01*
X020230Y005980D01*
X019830Y006380D01*
X019630Y006380D01*
X018730Y007280D01*
X018730Y007980D01*
X018230Y008480D01*
X018230Y009330D01*
X017880Y009180D02*
X017730Y009330D01*
X017880Y009180D02*
X017880Y008530D01*
X020180Y008530D02*
X020630Y008080D01*
X020630Y007380D01*
X021030Y006980D01*
X021230Y006980D01*
X022130Y006080D01*
X022130Y005380D01*
X022830Y004680D01*
X024880Y006380D02*
X025580Y005680D01*
X025680Y005680D01*
X024880Y006380D02*
X024530Y006380D01*
X024380Y006230D01*
X024030Y006230D01*
X023180Y007080D01*
X023180Y007680D01*
X025330Y009380D02*
X026630Y008080D01*
X026630Y007380D01*
X027030Y006980D01*
X027230Y006980D01*
X028530Y005680D01*
X028680Y005680D01*
X027530Y003380D02*
X036330Y003380D01*
X036480Y003230D01*
X039230Y003230D01*
X039680Y003680D01*
X027530Y003380D02*
X026830Y002680D01*
X025680Y002680D01*
X027530Y008980D02*
X026830Y009680D01*
X027830Y009680D02*
X028030Y009680D01*
X028630Y010280D01*
X028630Y011230D01*
X027680Y012180D01*
X028830Y012930D02*
X025430Y012930D01*
X024680Y012180D01*
X023680Y012180D02*
X025930Y014430D01*
X028830Y014430D01*
X030680Y012580D01*
X031480Y012580D01*
X029530Y012230D02*
X028830Y012930D01*
X029530Y012230D02*
X036980Y012230D01*
X037530Y011680D01*
X039680Y011680D01*
X025330Y009380D02*
X023330Y009380D01*
X022180Y010530D01*
X022180Y010680D01*
X021580Y009980D02*
X021030Y009980D01*
X020680Y010330D01*
X020530Y013180D02*
X022530Y015180D01*
X022680Y015180D01*
D18*
X023280Y012930D03*
X021580Y009980D03*
X023480Y009730D03*
X026830Y009680D03*
X027830Y009680D03*
X027530Y008980D03*
X020180Y008530D03*
X018230Y009330D03*
X017730Y009330D03*
X017880Y008530D03*
X015780Y008530D03*
X013980Y009580D03*
X013180Y009030D03*
X010980Y008530D03*
X013180Y006830D03*
X014480Y006530D03*
X006380Y006630D03*
X004530Y009530D03*
X007880Y011480D03*
X022830Y004680D03*
X035680Y003030D03*
X037280Y004130D03*
X038980Y010280D03*
X037430Y011280D03*
X031480Y012580D03*
D19*
X031680Y011680D02*
X030180Y010180D01*
X030280Y009980D01*
X029680Y009380D01*
X029680Y006730D01*
X030180Y006230D01*
X030180Y005230D01*
X029880Y004930D01*
X029480Y004930D01*
X029180Y005230D01*
X029180Y006130D01*
X028380Y006930D01*
X027980Y006930D01*
X027680Y007230D01*
X027680Y008180D01*
X025680Y010180D01*
X026180Y010680D01*
X025680Y010180D02*
X025230Y009730D01*
X023480Y009730D01*
X026680Y012180D02*
X028180Y010680D01*
X029180Y010680D02*
X029680Y010680D01*
X030180Y010180D01*
X031680Y008680D01*
X032680Y009680D01*
X036680Y009680D01*
X037430Y008430D02*
X036680Y007680D01*
X031680Y007680D01*
X030180Y009180D01*
X026680Y012180D02*
X025680Y012180D01*
X023280Y012930D02*
X019430Y012930D01*
X018680Y012180D01*
X017180Y013680D02*
X014180Y010680D01*
X013180Y010680D02*
X013180Y011080D01*
X012180Y012080D01*
X012180Y012680D01*
X010630Y013180D02*
X009680Y013180D01*
X010630Y013180D02*
X012680Y011130D01*
X012680Y007230D01*
X012980Y006930D01*
X013180Y006930D01*
X013180Y006830D01*
X013180Y006930D02*
X014830Y006930D01*
X015330Y006430D01*
X016880Y006430D01*
X017180Y006130D01*
X017180Y002230D01*
X016680Y001730D01*
X016680Y001180D01*
X010980Y008530D02*
X010980Y010480D01*
X011180Y010680D01*
X017180Y013680D02*
X018680Y015180D01*
X036680Y013680D02*
X039680Y013680D01*
X037430Y011280D02*
X037430Y008430D01*
D20*
X000952Y000473D02*
X000920Y000460D01*
X001440Y000460D01*
X001408Y000473D01*
X001273Y000608D01*
X001200Y000785D01*
X001200Y001575D01*
X001273Y001752D01*
X001408Y001887D01*
X001585Y001960D01*
X001775Y001960D01*
X001952Y001887D01*
X002087Y001752D01*
X002160Y001575D01*
X002160Y000785D01*
X002087Y000608D01*
X001952Y000473D01*
X001920Y000460D01*
X002440Y000460D01*
X002408Y000473D01*
X002273Y000608D01*
X002200Y000785D01*
X002200Y001575D01*
X002273Y001752D01*
X002408Y001887D01*
X002585Y001960D01*
X002775Y001960D01*
X002952Y001887D01*
X003087Y001752D01*
X003160Y001575D01*
X003160Y000785D01*
X003087Y000608D01*
X002952Y000473D01*
X002920Y000460D01*
X003440Y000460D01*
X003408Y000473D01*
X003273Y000608D01*
X003200Y000785D01*
X003200Y001575D01*
X003273Y001752D01*
X003408Y001887D01*
X003585Y001960D01*
X003775Y001960D01*
X003952Y001887D01*
X004087Y001752D01*
X004160Y001575D01*
X004160Y000785D01*
X004087Y000608D01*
X003952Y000473D01*
X003920Y000460D01*
X004440Y000460D01*
X004408Y000473D01*
X004273Y000608D01*
X004200Y000785D01*
X004200Y001575D01*
X004273Y001752D01*
X004408Y001887D01*
X004585Y001960D01*
X004775Y001960D01*
X004952Y001887D01*
X005087Y001752D01*
X005160Y001575D01*
X005160Y000785D01*
X005087Y000608D01*
X004952Y000473D01*
X004920Y000460D01*
X005440Y000460D01*
X005408Y000473D01*
X005273Y000608D01*
X005200Y000785D01*
X005200Y001575D01*
X005273Y001752D01*
X005408Y001887D01*
X005585Y001960D01*
X005775Y001960D01*
X005952Y001887D01*
X006087Y001752D01*
X006160Y001575D01*
X006160Y000785D01*
X006087Y000608D01*
X005952Y000473D01*
X005920Y000460D01*
X006440Y000460D01*
X006408Y000473D01*
X006273Y000608D01*
X006200Y000785D01*
X006200Y001575D01*
X006273Y001752D01*
X006408Y001887D01*
X006585Y001960D01*
X006775Y001960D01*
X006952Y001887D01*
X007087Y001752D01*
X007160Y001575D01*
X007160Y000785D01*
X007087Y000608D01*
X006952Y000473D01*
X006920Y000460D01*
X007440Y000460D01*
X007408Y000473D01*
X007273Y000608D01*
X007200Y000785D01*
X007200Y001575D01*
X007273Y001752D01*
X007408Y001887D01*
X007585Y001960D01*
X007775Y001960D01*
X007952Y001887D01*
X008087Y001752D01*
X008160Y001575D01*
X008160Y000785D01*
X008087Y000608D01*
X007952Y000473D01*
X007920Y000460D01*
X008440Y000460D01*
X008408Y000473D01*
X008273Y000608D01*
X008200Y000785D01*
X008200Y001575D01*
X008273Y001752D01*
X008408Y001887D01*
X008585Y001960D01*
X008775Y001960D01*
X008952Y001887D01*
X009087Y001752D01*
X009160Y001575D01*
X009160Y000785D01*
X009087Y000608D01*
X008952Y000473D01*
X008920Y000460D01*
X009440Y000460D01*
X009408Y000473D01*
X009273Y000608D01*
X009200Y000785D01*
X009200Y001575D01*
X009273Y001752D01*
X009408Y001887D01*
X009585Y001960D01*
X009775Y001960D01*
X009952Y001887D01*
X010087Y001752D01*
X010160Y001575D01*
X010160Y000785D01*
X010087Y000608D01*
X009952Y000473D01*
X009920Y000460D01*
X010440Y000460D01*
X010408Y000473D01*
X010273Y000608D01*
X010200Y000785D01*
X010200Y001575D01*
X010273Y001752D01*
X010408Y001887D01*
X010585Y001960D01*
X010775Y001960D01*
X010952Y001887D01*
X011087Y001752D01*
X011160Y001575D01*
X011160Y000785D01*
X011087Y000608D01*
X010952Y000473D01*
X010920Y000460D01*
X011440Y000460D01*
X011408Y000473D01*
X011273Y000608D01*
X011200Y000785D01*
X011200Y001575D01*
X011273Y001752D01*
X011408Y001887D01*
X011585Y001960D01*
X011775Y001960D01*
X011952Y001887D01*
X012087Y001752D01*
X012160Y001575D01*
X012160Y000785D01*
X012087Y000608D01*
X011952Y000473D01*
X011920Y000460D01*
X012440Y000460D01*
X012408Y000473D01*
X012273Y000608D01*
X012200Y000785D01*
X012200Y001575D01*
X012273Y001752D01*
X012408Y001887D01*
X012585Y001960D01*
X012775Y001960D01*
X012952Y001887D01*
X013087Y001752D01*
X013160Y001575D01*
X013160Y000785D01*
X013087Y000608D01*
X012952Y000473D01*
X012920Y000460D01*
X013440Y000460D01*
X013408Y000473D01*
X013273Y000608D01*
X013200Y000785D01*
X013200Y001575D01*
X013273Y001752D01*
X013408Y001887D01*
X013585Y001960D01*
X013775Y001960D01*
X013952Y001887D01*
X014087Y001752D01*
X014160Y001575D01*
X014160Y000785D01*
X014087Y000608D01*
X013952Y000473D01*
X013920Y000460D01*
X014440Y000460D01*
X014408Y000473D01*
X014273Y000608D01*
X014200Y000785D01*
X014200Y001575D01*
X014273Y001752D01*
X014408Y001887D01*
X014585Y001960D01*
X014775Y001960D01*
X014952Y001887D01*
X015087Y001752D01*
X015160Y001575D01*
X015160Y000785D01*
X015087Y000608D01*
X014952Y000473D01*
X014920Y000460D01*
X015440Y000460D01*
X015408Y000473D01*
X015273Y000608D01*
X015200Y000785D01*
X015200Y001575D01*
X015273Y001752D01*
X015408Y001887D01*
X015585Y001960D01*
X015775Y001960D01*
X015952Y001887D01*
X016087Y001752D01*
X016160Y001575D01*
X016160Y000785D01*
X016087Y000608D01*
X015952Y000473D01*
X015920Y000460D01*
X016447Y000460D01*
X016428Y000469D01*
X016367Y000514D01*
X016314Y000567D01*
X016269Y000628D01*
X016235Y000696D01*
X016212Y000768D01*
X016200Y000842D01*
X016200Y001160D01*
X016660Y001160D01*
X016660Y001200D01*
X016660Y001960D01*
X016642Y001960D01*
X016568Y001948D01*
X016496Y001925D01*
X016428Y001891D01*
X016367Y001846D01*
X016314Y001793D01*
X016269Y001732D01*
X016235Y001664D01*
X016212Y001592D01*
X016200Y001518D01*
X016200Y001200D01*
X016660Y001200D01*
X016700Y001200D01*
X016700Y001960D01*
X016718Y001960D01*
X016792Y001948D01*
X016864Y001925D01*
X016932Y001891D01*
X016993Y001846D01*
X017046Y001793D01*
X017091Y001732D01*
X017125Y001664D01*
X017148Y001592D01*
X017160Y001518D01*
X017160Y001200D01*
X016700Y001200D01*
X016700Y001160D01*
X017160Y001160D01*
X017160Y000842D01*
X017148Y000768D01*
X017125Y000696D01*
X017091Y000628D01*
X017046Y000567D01*
X016993Y000514D01*
X016932Y000469D01*
X016913Y000460D01*
X017440Y000460D01*
X017408Y000473D01*
X017273Y000608D01*
X017200Y000785D01*
X017200Y001575D01*
X017273Y001752D01*
X017408Y001887D01*
X017585Y001960D01*
X017775Y001960D01*
X017952Y001887D01*
X018087Y001752D01*
X018160Y001575D01*
X018160Y000785D01*
X018087Y000608D01*
X017952Y000473D01*
X017920Y000460D01*
X018440Y000460D01*
X018408Y000473D01*
X018273Y000608D01*
X018200Y000785D01*
X018200Y001575D01*
X018273Y001752D01*
X018408Y001887D01*
X018585Y001960D01*
X018775Y001960D01*
X018952Y001887D01*
X019087Y001752D01*
X019160Y001575D01*
X019160Y000785D01*
X019087Y000608D01*
X018952Y000473D01*
X018920Y000460D01*
X019440Y000460D01*
X019408Y000473D01*
X019273Y000608D01*
X019200Y000785D01*
X019200Y001575D01*
X019273Y001752D01*
X019353Y001832D01*
X019035Y002150D01*
X019033Y002151D01*
X018929Y002047D01*
X018768Y001980D01*
X018592Y001980D01*
X018431Y002047D01*
X018307Y002171D01*
X018240Y002332D01*
X018240Y003028D01*
X018307Y003189D01*
X018431Y003313D01*
X018592Y003380D01*
X018768Y003380D01*
X018900Y003325D01*
X018900Y004285D01*
X017335Y005850D01*
X017200Y005985D01*
X017200Y006185D01*
X016935Y006450D01*
X015935Y006450D01*
X014620Y007765D01*
X014620Y007332D01*
X014553Y007171D01*
X014429Y007047D01*
X014268Y006980D01*
X014092Y006980D01*
X013931Y007047D01*
X013807Y007171D01*
X013740Y007332D01*
X013740Y008028D01*
X013807Y008189D01*
X013931Y008313D01*
X014030Y008354D01*
X013535Y008850D01*
X013522Y008863D01*
X013502Y008815D01*
X013410Y008723D01*
X013410Y008321D01*
X013429Y008313D01*
X013553Y008189D01*
X013620Y008028D01*
X013620Y007332D01*
X013553Y007171D01*
X013429Y007047D01*
X013268Y006980D01*
X013092Y006980D01*
X012931Y007047D01*
X012807Y007171D01*
X012740Y007332D01*
X012740Y008028D01*
X012807Y008189D01*
X012931Y008313D01*
X012950Y008321D01*
X012950Y008723D01*
X012858Y008815D01*
X012800Y008954D01*
X012800Y009106D01*
X012858Y009245D01*
X012965Y009352D01*
X013104Y009410D01*
X013256Y009410D01*
X013395Y009352D01*
X013400Y009347D01*
X013400Y010035D01*
X013268Y009980D01*
X013092Y009980D01*
X012931Y010047D01*
X012807Y010171D01*
X012740Y010332D01*
X012740Y011028D01*
X012768Y011096D01*
X011943Y011921D01*
X011900Y012024D01*
X011900Y012029D01*
X011790Y012139D01*
X011720Y012308D01*
X011720Y013051D01*
X011790Y013221D01*
X011919Y013350D01*
X012088Y013420D01*
X012115Y013420D01*
X010795Y014740D01*
X010498Y014740D01*
X010358Y014879D01*
X010252Y014773D01*
X010075Y014700D01*
X009285Y014700D01*
X009108Y014773D01*
X008973Y014908D01*
X008918Y015042D01*
X007710Y013835D01*
X007710Y012775D01*
X008525Y011960D01*
X010278Y011960D01*
X010240Y011998D01*
X010240Y012362D01*
X010498Y012620D01*
X010862Y012620D01*
X011120Y012362D01*
X011120Y011998D01*
X011079Y011957D01*
X011210Y011825D01*
X011827Y011209D01*
X011931Y011313D01*
X012092Y011380D01*
X012268Y011380D01*
X012429Y011313D01*
X012553Y011189D01*
X012620Y011028D01*
X012620Y010332D01*
X012553Y010171D01*
X012429Y010047D01*
X012330Y010006D01*
X012410Y009925D01*
X012410Y008321D01*
X012429Y008313D01*
X012553Y008189D01*
X012620Y008028D01*
X012620Y007332D01*
X012569Y007210D01*
X012625Y007210D01*
X012760Y007075D01*
X013495Y006340D01*
X013592Y006380D01*
X013768Y006380D01*
X013929Y006313D01*
X014053Y006189D01*
X014120Y006028D01*
X014120Y005332D01*
X014069Y005210D01*
X014291Y005210D01*
X014240Y005332D01*
X014240Y006028D01*
X014307Y006189D01*
X014308Y006190D01*
X014265Y006208D01*
X014158Y006315D01*
X014100Y006454D01*
X014100Y006606D01*
X014158Y006745D01*
X014265Y006852D01*
X014404Y006910D01*
X014556Y006910D01*
X014695Y006852D01*
X014787Y006760D01*
X014925Y006760D01*
X015402Y006284D01*
X015431Y006313D01*
X015592Y006380D01*
X015768Y006380D01*
X015929Y006313D01*
X016053Y006189D01*
X016120Y006028D01*
X016120Y005595D01*
X016240Y005715D01*
X016240Y006028D01*
X016307Y006189D01*
X016431Y006313D01*
X016592Y006380D01*
X016768Y006380D01*
X016929Y006313D01*
X017053Y006189D01*
X017120Y006028D01*
X017120Y005332D01*
X017053Y005171D01*
X016929Y005047D01*
X016768Y004980D01*
X016592Y004980D01*
X016431Y005047D01*
X016327Y005151D01*
X016060Y004885D01*
X015925Y004750D01*
X013435Y004750D01*
X013300Y004885D01*
X013300Y004885D01*
X013035Y005150D01*
X013035Y005150D01*
X013033Y005151D01*
X012929Y005047D01*
X012768Y004980D01*
X012592Y004980D01*
X012431Y005047D01*
X012327Y005151D01*
X011660Y004485D01*
X011525Y004350D01*
X001835Y004350D01*
X001135Y005050D01*
X001033Y005151D01*
X000929Y005047D01*
X000768Y004980D01*
X000592Y004980D01*
X000460Y005035D01*
X000460Y003325D01*
X000592Y003380D01*
X000768Y003380D01*
X000929Y003313D01*
X001053Y003189D01*
X001120Y003028D01*
X001120Y002332D01*
X001053Y002171D01*
X000929Y002047D01*
X000768Y001980D01*
X000592Y001980D01*
X000460Y002035D01*
X000460Y001908D01*
X000585Y001960D01*
X000775Y001960D01*
X000952Y001887D01*
X001087Y001752D01*
X001160Y001575D01*
X001160Y000785D01*
X001087Y000608D01*
X000952Y000473D01*
X000976Y000497D02*
X001384Y000497D01*
X001253Y000656D02*
X001107Y000656D01*
X001160Y000814D02*
X001200Y000814D01*
X001200Y000973D02*
X001160Y000973D01*
X001160Y001131D02*
X001200Y001131D01*
X001200Y001290D02*
X001160Y001290D01*
X001160Y001448D02*
X001200Y001448D01*
X001213Y001607D02*
X001147Y001607D01*
X001074Y001765D02*
X001286Y001765D01*
X001496Y001924D02*
X000864Y001924D01*
X000964Y002082D02*
X001396Y002082D01*
X001431Y002047D02*
X001592Y001980D01*
X001768Y001980D01*
X001929Y002047D01*
X002053Y002171D01*
X002120Y002332D01*
X002120Y003028D01*
X002053Y003189D01*
X001929Y003313D01*
X001768Y003380D01*
X001592Y003380D01*
X001431Y003313D01*
X001307Y003189D01*
X001240Y003028D01*
X001240Y002332D01*
X001307Y002171D01*
X001431Y002047D01*
X001278Y002241D02*
X001082Y002241D01*
X001120Y002399D02*
X001240Y002399D01*
X001240Y002558D02*
X001120Y002558D01*
X001120Y002716D02*
X001240Y002716D01*
X001240Y002875D02*
X001120Y002875D01*
X001118Y003033D02*
X001242Y003033D01*
X001309Y003192D02*
X001051Y003192D01*
X000840Y003350D02*
X001520Y003350D01*
X001840Y003350D02*
X002520Y003350D01*
X002592Y003380D02*
X002431Y003313D01*
X002307Y003189D01*
X002240Y003028D01*
X002240Y002332D01*
X002307Y002171D01*
X002431Y002047D01*
X002592Y001980D01*
X002768Y001980D01*
X002929Y002047D01*
X003053Y002171D01*
X003120Y002332D01*
X003120Y003028D01*
X003053Y003189D01*
X002929Y003313D01*
X002768Y003380D01*
X002592Y003380D01*
X002840Y003350D02*
X003520Y003350D01*
X003592Y003380D02*
X003431Y003313D01*
X003307Y003189D01*
X003240Y003028D01*
X003240Y002332D01*
X003307Y002171D01*
X003431Y002047D01*
X003592Y001980D01*
X003768Y001980D01*
X003929Y002047D01*
X004053Y002171D01*
X004120Y002332D01*
X004120Y003028D01*
X004053Y003189D01*
X003929Y003313D01*
X003768Y003380D01*
X003592Y003380D01*
X003840Y003350D02*
X004520Y003350D01*
X004592Y003380D02*
X004431Y003313D01*
X004307Y003189D01*
X004240Y003028D01*
X004240Y002332D01*
X004307Y002171D01*
X004431Y002047D01*
X004592Y001980D01*
X004768Y001980D01*
X004929Y002047D01*
X005053Y002171D01*
X005120Y002332D01*
X005120Y003028D01*
X005053Y003189D01*
X004929Y003313D01*
X004768Y003380D01*
X004592Y003380D01*
X004840Y003350D02*
X005520Y003350D01*
X005592Y003380D02*
X005431Y003313D01*
X005307Y003189D01*
X005240Y003028D01*
X005240Y002332D01*
X005307Y002171D01*
X005431Y002047D01*
X005592Y001980D01*
X005768Y001980D01*
X005929Y002047D01*
X006053Y002171D01*
X006120Y002332D01*
X006120Y003028D01*
X006053Y003189D01*
X005929Y003313D01*
X005768Y003380D01*
X005592Y003380D01*
X005840Y003350D02*
X006520Y003350D01*
X006592Y003380D02*
X006431Y003313D01*
X006307Y003189D01*
X006240Y003028D01*
X006240Y002332D01*
X006307Y002171D01*
X006431Y002047D01*
X006592Y001980D01*
X006768Y001980D01*
X006929Y002047D01*
X007053Y002171D01*
X007120Y002332D01*
X007120Y003028D01*
X007053Y003189D01*
X006929Y003313D01*
X006768Y003380D01*
X006592Y003380D01*
X006840Y003350D02*
X007520Y003350D01*
X007592Y003380D02*
X007431Y003313D01*
X007307Y003189D01*
X007240Y003028D01*
X007240Y002332D01*
X007307Y002171D01*
X007431Y002047D01*
X007592Y001980D01*
X007768Y001980D01*
X007929Y002047D01*
X008053Y002171D01*
X008120Y002332D01*
X008120Y003028D01*
X008053Y003189D01*
X007929Y003313D01*
X007768Y003380D01*
X007592Y003380D01*
X007840Y003350D02*
X009520Y003350D01*
X009592Y003380D02*
X009431Y003313D01*
X009307Y003189D01*
X009240Y003028D01*
X009240Y002332D01*
X009307Y002171D01*
X009431Y002047D01*
X009592Y001980D01*
X009768Y001980D01*
X009929Y002047D01*
X010053Y002171D01*
X010120Y002332D01*
X010120Y003028D01*
X010053Y003189D01*
X009929Y003313D01*
X009768Y003380D01*
X009592Y003380D01*
X009840Y003350D02*
X010520Y003350D01*
X010592Y003380D02*
X010431Y003313D01*
X010307Y003189D01*
X010240Y003028D01*
X010240Y002332D01*
X010307Y002171D01*
X010431Y002047D01*
X010592Y001980D01*
X010768Y001980D01*
X010929Y002047D01*
X011053Y002171D01*
X011120Y002332D01*
X011120Y003028D01*
X011053Y003189D01*
X010929Y003313D01*
X010768Y003380D01*
X010592Y003380D01*
X010840Y003350D02*
X011520Y003350D01*
X011592Y003380D02*
X011431Y003313D01*
X011307Y003189D01*
X011240Y003028D01*
X011240Y002332D01*
X011307Y002171D01*
X011431Y002047D01*
X011592Y001980D01*
X011768Y001980D01*
X011929Y002047D01*
X012053Y002171D01*
X012120Y002332D01*
X012120Y003028D01*
X012053Y003189D01*
X011929Y003313D01*
X011768Y003380D01*
X011592Y003380D01*
X011840Y003350D02*
X012520Y003350D01*
X012592Y003380D02*
X012431Y003313D01*
X012307Y003189D01*
X012240Y003028D01*
X012240Y002332D01*
X012307Y002171D01*
X012431Y002047D01*
X012592Y001980D01*
X012768Y001980D01*
X012929Y002047D01*
X013053Y002171D01*
X013120Y002332D01*
X013120Y003028D01*
X013053Y003189D01*
X012929Y003313D01*
X012768Y003380D01*
X012592Y003380D01*
X012840Y003350D02*
X013520Y003350D01*
X013592Y003380D02*
X013431Y003313D01*
X013307Y003189D01*
X013240Y003028D01*
X013240Y002332D01*
X013307Y002171D01*
X013431Y002047D01*
X013592Y001980D01*
X013768Y001980D01*
X013929Y002047D01*
X014053Y002171D01*
X014120Y002332D01*
X014120Y003028D01*
X014053Y003189D01*
X013929Y003313D01*
X013768Y003380D01*
X013592Y003380D01*
X013840Y003350D02*
X014520Y003350D01*
X014592Y003380D02*
X014431Y003313D01*
X014307Y003189D01*
X014240Y003028D01*
X014240Y002332D01*
X014307Y002171D01*
X014431Y002047D01*
X014592Y001980D01*
X014768Y001980D01*
X014929Y002047D01*
X015053Y002171D01*
X015120Y002332D01*
X015120Y003028D01*
X015053Y003189D01*
X014929Y003313D01*
X014768Y003380D01*
X014592Y003380D01*
X014840Y003350D02*
X015520Y003350D01*
X015592Y003380D02*
X015431Y003313D01*
X015307Y003189D01*
X015240Y003028D01*
X015240Y002332D01*
X015307Y002171D01*
X015431Y002047D01*
X015592Y001980D01*
X015768Y001980D01*
X015929Y002047D01*
X016053Y002171D01*
X016120Y002332D01*
X016120Y003028D01*
X016053Y003189D01*
X015929Y003313D01*
X015768Y003380D01*
X015592Y003380D01*
X015840Y003350D02*
X016520Y003350D01*
X016592Y003380D02*
X016431Y003313D01*
X016307Y003189D01*
X016240Y003028D01*
X016240Y002332D01*
X016307Y002171D01*
X016431Y002047D01*
X016592Y001980D01*
X016768Y001980D01*
X016929Y002047D01*
X017053Y002171D01*
X017120Y002332D01*
X017120Y003028D01*
X017053Y003189D01*
X016929Y003313D01*
X016768Y003380D01*
X016592Y003380D01*
X016840Y003350D02*
X018520Y003350D01*
X018309Y003192D02*
X017051Y003192D01*
X017118Y003033D02*
X018242Y003033D01*
X018240Y002875D02*
X017120Y002875D01*
X017120Y002716D02*
X018240Y002716D01*
X018240Y002558D02*
X017120Y002558D01*
X017120Y002399D02*
X018240Y002399D01*
X018278Y002241D02*
X017082Y002241D01*
X016964Y002082D02*
X018396Y002082D01*
X018496Y001924D02*
X017864Y001924D01*
X018074Y001765D02*
X018286Y001765D01*
X018213Y001607D02*
X018147Y001607D01*
X018160Y001448D02*
X018200Y001448D01*
X018200Y001290D02*
X018160Y001290D01*
X018160Y001131D02*
X018200Y001131D01*
X018200Y000973D02*
X018160Y000973D01*
X018160Y000814D02*
X018200Y000814D01*
X018253Y000656D02*
X018107Y000656D01*
X017976Y000497D02*
X018384Y000497D01*
X018976Y000497D02*
X019384Y000497D01*
X019253Y000656D02*
X019107Y000656D01*
X019160Y000814D02*
X019200Y000814D01*
X019200Y000973D02*
X019160Y000973D01*
X019160Y001131D02*
X019200Y001131D01*
X019200Y001290D02*
X019160Y001290D01*
X019160Y001448D02*
X019200Y001448D01*
X019213Y001607D02*
X019147Y001607D01*
X019074Y001765D02*
X019286Y001765D01*
X019261Y001924D02*
X018864Y001924D01*
X018964Y002082D02*
X019103Y002082D01*
X017496Y001924D02*
X016867Y001924D01*
X016700Y001924D02*
X016660Y001924D01*
X016660Y001765D02*
X016700Y001765D01*
X016700Y001607D02*
X016660Y001607D01*
X016660Y001448D02*
X016700Y001448D01*
X016700Y001290D02*
X016660Y001290D01*
X016200Y001290D02*
X016160Y001290D01*
X016160Y001448D02*
X016200Y001448D01*
X016216Y001607D02*
X016147Y001607D01*
X016074Y001765D02*
X016294Y001765D01*
X016493Y001924D02*
X015864Y001924D01*
X015964Y002082D02*
X016396Y002082D01*
X016278Y002241D02*
X016082Y002241D01*
X016120Y002399D02*
X016240Y002399D01*
X016240Y002558D02*
X016120Y002558D01*
X016120Y002716D02*
X016240Y002716D01*
X016240Y002875D02*
X016120Y002875D01*
X016118Y003033D02*
X016242Y003033D01*
X016309Y003192D02*
X016051Y003192D01*
X015309Y003192D02*
X015051Y003192D01*
X015118Y003033D02*
X015242Y003033D01*
X015240Y002875D02*
X015120Y002875D01*
X015120Y002716D02*
X015240Y002716D01*
X015240Y002558D02*
X015120Y002558D01*
X015120Y002399D02*
X015240Y002399D01*
X015278Y002241D02*
X015082Y002241D01*
X014964Y002082D02*
X015396Y002082D01*
X015496Y001924D02*
X014864Y001924D01*
X015074Y001765D02*
X015286Y001765D01*
X015213Y001607D02*
X015147Y001607D01*
X015160Y001448D02*
X015200Y001448D01*
X015200Y001290D02*
X015160Y001290D01*
X015160Y001131D02*
X015200Y001131D01*
X015200Y000973D02*
X015160Y000973D01*
X015160Y000814D02*
X015200Y000814D01*
X015253Y000656D02*
X015107Y000656D01*
X014976Y000497D02*
X015384Y000497D01*
X015976Y000497D02*
X016391Y000497D01*
X016256Y000656D02*
X016107Y000656D01*
X016160Y000814D02*
X016204Y000814D01*
X016200Y000973D02*
X016160Y000973D01*
X016160Y001131D02*
X016200Y001131D01*
X017160Y001131D02*
X017200Y001131D01*
X017200Y000973D02*
X017160Y000973D01*
X017156Y000814D02*
X017200Y000814D01*
X017253Y000656D02*
X017104Y000656D01*
X016969Y000497D02*
X017384Y000497D01*
X017200Y001290D02*
X017160Y001290D01*
X017160Y001448D02*
X017200Y001448D01*
X017213Y001607D02*
X017144Y001607D01*
X017066Y001765D02*
X017286Y001765D01*
X014496Y001924D02*
X013864Y001924D01*
X013964Y002082D02*
X014396Y002082D01*
X014278Y002241D02*
X014082Y002241D01*
X014120Y002399D02*
X014240Y002399D01*
X014240Y002558D02*
X014120Y002558D01*
X014120Y002716D02*
X014240Y002716D01*
X014240Y002875D02*
X014120Y002875D01*
X014118Y003033D02*
X014242Y003033D01*
X014309Y003192D02*
X014051Y003192D01*
X013309Y003192D02*
X013051Y003192D01*
X013118Y003033D02*
X013242Y003033D01*
X013240Y002875D02*
X013120Y002875D01*
X013120Y002716D02*
X013240Y002716D01*
X013240Y002558D02*
X013120Y002558D01*
X013120Y002399D02*
X013240Y002399D01*
X013278Y002241D02*
X013082Y002241D01*
X012964Y002082D02*
X013396Y002082D01*
X013496Y001924D02*
X012864Y001924D01*
X013074Y001765D02*
X013286Y001765D01*
X013213Y001607D02*
X013147Y001607D01*
X013160Y001448D02*
X013200Y001448D01*
X013200Y001290D02*
X013160Y001290D01*
X013160Y001131D02*
X013200Y001131D01*
X013200Y000973D02*
X013160Y000973D01*
X013160Y000814D02*
X013200Y000814D01*
X013253Y000656D02*
X013107Y000656D01*
X012976Y000497D02*
X013384Y000497D01*
X013976Y000497D02*
X014384Y000497D01*
X014253Y000656D02*
X014107Y000656D01*
X014160Y000814D02*
X014200Y000814D01*
X014200Y000973D02*
X014160Y000973D01*
X014160Y001131D02*
X014200Y001131D01*
X014200Y001290D02*
X014160Y001290D01*
X014160Y001448D02*
X014200Y001448D01*
X014213Y001607D02*
X014147Y001607D01*
X014074Y001765D02*
X014286Y001765D01*
X012496Y001924D02*
X011864Y001924D01*
X011964Y002082D02*
X012396Y002082D01*
X012278Y002241D02*
X012082Y002241D01*
X012120Y002399D02*
X012240Y002399D01*
X012240Y002558D02*
X012120Y002558D01*
X012120Y002716D02*
X012240Y002716D01*
X012240Y002875D02*
X012120Y002875D01*
X012118Y003033D02*
X012242Y003033D01*
X012309Y003192D02*
X012051Y003192D01*
X011309Y003192D02*
X011051Y003192D01*
X011118Y003033D02*
X011242Y003033D01*
X011240Y002875D02*
X011120Y002875D01*
X011120Y002716D02*
X011240Y002716D01*
X011240Y002558D02*
X011120Y002558D01*
X011120Y002399D02*
X011240Y002399D01*
X011278Y002241D02*
X011082Y002241D01*
X010964Y002082D02*
X011396Y002082D01*
X011496Y001924D02*
X010864Y001924D01*
X011074Y001765D02*
X011286Y001765D01*
X011213Y001607D02*
X011147Y001607D01*
X011160Y001448D02*
X011200Y001448D01*
X011200Y001290D02*
X011160Y001290D01*
X011160Y001131D02*
X011200Y001131D01*
X011200Y000973D02*
X011160Y000973D01*
X011160Y000814D02*
X011200Y000814D01*
X011253Y000656D02*
X011107Y000656D01*
X010976Y000497D02*
X011384Y000497D01*
X011976Y000497D02*
X012384Y000497D01*
X012253Y000656D02*
X012107Y000656D01*
X012160Y000814D02*
X012200Y000814D01*
X012200Y000973D02*
X012160Y000973D01*
X012160Y001131D02*
X012200Y001131D01*
X012200Y001290D02*
X012160Y001290D01*
X012160Y001448D02*
X012200Y001448D01*
X012213Y001607D02*
X012147Y001607D01*
X012074Y001765D02*
X012286Y001765D01*
X010496Y001924D02*
X009864Y001924D01*
X009964Y002082D02*
X010396Y002082D01*
X010278Y002241D02*
X010082Y002241D01*
X010120Y002399D02*
X010240Y002399D01*
X010240Y002558D02*
X010120Y002558D01*
X010120Y002716D02*
X010240Y002716D01*
X010240Y002875D02*
X010120Y002875D01*
X010118Y003033D02*
X010242Y003033D01*
X010309Y003192D02*
X010051Y003192D01*
X009309Y003192D02*
X008051Y003192D01*
X008118Y003033D02*
X009242Y003033D01*
X009240Y002875D02*
X008120Y002875D01*
X008120Y002716D02*
X009240Y002716D01*
X009240Y002558D02*
X008120Y002558D01*
X008120Y002399D02*
X009240Y002399D01*
X009278Y002241D02*
X008082Y002241D01*
X007964Y002082D02*
X009396Y002082D01*
X009496Y001924D02*
X008864Y001924D01*
X009074Y001765D02*
X009286Y001765D01*
X009213Y001607D02*
X009147Y001607D01*
X009160Y001448D02*
X009200Y001448D01*
X009200Y001290D02*
X009160Y001290D01*
X009160Y001131D02*
X009200Y001131D01*
X009200Y000973D02*
X009160Y000973D01*
X009160Y000814D02*
X009200Y000814D01*
X009253Y000656D02*
X009107Y000656D01*
X008976Y000497D02*
X009384Y000497D01*
X009976Y000497D02*
X010384Y000497D01*
X010253Y000656D02*
X010107Y000656D01*
X010160Y000814D02*
X010200Y000814D01*
X010200Y000973D02*
X010160Y000973D01*
X010160Y001131D02*
X010200Y001131D01*
X010200Y001290D02*
X010160Y001290D01*
X010160Y001448D02*
X010200Y001448D01*
X010213Y001607D02*
X010147Y001607D01*
X010074Y001765D02*
X010286Y001765D01*
X008496Y001924D02*
X007864Y001924D01*
X008074Y001765D02*
X008286Y001765D01*
X008213Y001607D02*
X008147Y001607D01*
X008160Y001448D02*
X008200Y001448D01*
X008200Y001290D02*
X008160Y001290D01*
X008160Y001131D02*
X008200Y001131D01*
X008200Y000973D02*
X008160Y000973D01*
X008160Y000814D02*
X008200Y000814D01*
X008253Y000656D02*
X008107Y000656D01*
X007976Y000497D02*
X008384Y000497D01*
X007384Y000497D02*
X006976Y000497D01*
X007107Y000656D02*
X007253Y000656D01*
X007200Y000814D02*
X007160Y000814D01*
X007160Y000973D02*
X007200Y000973D01*
X007200Y001131D02*
X007160Y001131D01*
X007160Y001290D02*
X007200Y001290D01*
X007200Y001448D02*
X007160Y001448D01*
X007147Y001607D02*
X007213Y001607D01*
X007286Y001765D02*
X007074Y001765D01*
X006864Y001924D02*
X007496Y001924D01*
X007396Y002082D02*
X006964Y002082D01*
X007082Y002241D02*
X007278Y002241D01*
X007240Y002399D02*
X007120Y002399D01*
X007120Y002558D02*
X007240Y002558D01*
X007240Y002716D02*
X007120Y002716D01*
X007120Y002875D02*
X007240Y002875D01*
X007242Y003033D02*
X007118Y003033D01*
X007051Y003192D02*
X007309Y003192D01*
X006309Y003192D02*
X006051Y003192D01*
X006118Y003033D02*
X006242Y003033D01*
X006240Y002875D02*
X006120Y002875D01*
X006120Y002716D02*
X006240Y002716D01*
X006240Y002558D02*
X006120Y002558D01*
X006120Y002399D02*
X006240Y002399D01*
X006278Y002241D02*
X006082Y002241D01*
X005964Y002082D02*
X006396Y002082D01*
X006496Y001924D02*
X005864Y001924D01*
X006074Y001765D02*
X006286Y001765D01*
X006213Y001607D02*
X006147Y001607D01*
X006160Y001448D02*
X006200Y001448D01*
X006200Y001290D02*
X006160Y001290D01*
X006160Y001131D02*
X006200Y001131D01*
X006200Y000973D02*
X006160Y000973D01*
X006160Y000814D02*
X006200Y000814D01*
X006253Y000656D02*
X006107Y000656D01*
X005976Y000497D02*
X006384Y000497D01*
X005384Y000497D02*
X004976Y000497D01*
X005107Y000656D02*
X005253Y000656D01*
X005200Y000814D02*
X005160Y000814D01*
X005160Y000973D02*
X005200Y000973D01*
X005200Y001131D02*
X005160Y001131D01*
X005160Y001290D02*
X005200Y001290D01*
X005200Y001448D02*
X005160Y001448D01*
X005147Y001607D02*
X005213Y001607D01*
X005286Y001765D02*
X005074Y001765D01*
X004864Y001924D02*
X005496Y001924D01*
X005396Y002082D02*
X004964Y002082D01*
X005082Y002241D02*
X005278Y002241D01*
X005240Y002399D02*
X005120Y002399D01*
X005120Y002558D02*
X005240Y002558D01*
X005240Y002716D02*
X005120Y002716D01*
X005120Y002875D02*
X005240Y002875D01*
X005242Y003033D02*
X005118Y003033D01*
X005051Y003192D02*
X005309Y003192D01*
X004309Y003192D02*
X004051Y003192D01*
X004118Y003033D02*
X004242Y003033D01*
X004240Y002875D02*
X004120Y002875D01*
X004120Y002716D02*
X004240Y002716D01*
X004240Y002558D02*
X004120Y002558D01*
X004120Y002399D02*
X004240Y002399D01*
X004278Y002241D02*
X004082Y002241D01*
X003964Y002082D02*
X004396Y002082D01*
X004496Y001924D02*
X003864Y001924D01*
X004074Y001765D02*
X004286Y001765D01*
X004213Y001607D02*
X004147Y001607D01*
X004160Y001448D02*
X004200Y001448D01*
X004200Y001290D02*
X004160Y001290D01*
X004160Y001131D02*
X004200Y001131D01*
X004200Y000973D02*
X004160Y000973D01*
X004160Y000814D02*
X004200Y000814D01*
X004253Y000656D02*
X004107Y000656D01*
X003976Y000497D02*
X004384Y000497D01*
X003384Y000497D02*
X002976Y000497D01*
X003107Y000656D02*
X003253Y000656D01*
X003200Y000814D02*
X003160Y000814D01*
X003160Y000973D02*
X003200Y000973D01*
X003200Y001131D02*
X003160Y001131D01*
X003160Y001290D02*
X003200Y001290D01*
X003200Y001448D02*
X003160Y001448D01*
X003147Y001607D02*
X003213Y001607D01*
X003286Y001765D02*
X003074Y001765D01*
X002864Y001924D02*
X003496Y001924D01*
X003396Y002082D02*
X002964Y002082D01*
X003082Y002241D02*
X003278Y002241D01*
X003240Y002399D02*
X003120Y002399D01*
X003120Y002558D02*
X003240Y002558D01*
X003240Y002716D02*
X003120Y002716D01*
X003120Y002875D02*
X003240Y002875D01*
X003242Y003033D02*
X003118Y003033D01*
X003051Y003192D02*
X003309Y003192D01*
X002309Y003192D02*
X002051Y003192D01*
X002118Y003033D02*
X002242Y003033D01*
X002240Y002875D02*
X002120Y002875D01*
X002120Y002716D02*
X002240Y002716D01*
X002240Y002558D02*
X002120Y002558D01*
X002120Y002399D02*
X002240Y002399D01*
X002278Y002241D02*
X002082Y002241D01*
X001964Y002082D02*
X002396Y002082D01*
X002496Y001924D02*
X001864Y001924D01*
X002074Y001765D02*
X002286Y001765D01*
X002213Y001607D02*
X002147Y001607D01*
X002160Y001448D02*
X002200Y001448D01*
X002200Y001290D02*
X002160Y001290D01*
X002160Y001131D02*
X002200Y001131D01*
X002200Y000973D02*
X002160Y000973D01*
X002160Y000814D02*
X002200Y000814D01*
X002253Y000656D02*
X002107Y000656D01*
X001976Y000497D02*
X002384Y000497D01*
X000496Y001924D02*
X000460Y001924D01*
X000460Y003350D02*
X000520Y003350D01*
X000460Y003509D02*
X018900Y003509D01*
X018900Y003667D02*
X000460Y003667D01*
X000460Y003826D02*
X018900Y003826D01*
X018900Y003984D02*
X000460Y003984D01*
X000460Y004143D02*
X018900Y004143D01*
X018884Y004301D02*
X000460Y004301D01*
X000460Y004460D02*
X001725Y004460D01*
X001567Y004618D02*
X000460Y004618D01*
X000460Y004777D02*
X001408Y004777D01*
X001250Y004935D02*
X000460Y004935D01*
X000976Y005094D02*
X001091Y005094D01*
X001033Y006209D02*
X000929Y006313D01*
X000768Y006380D01*
X000592Y006380D01*
X000460Y006325D01*
X000460Y015896D01*
X009121Y015896D01*
X007385Y014160D01*
X007250Y014025D01*
X007250Y013588D01*
X007075Y013660D01*
X006285Y013660D01*
X006108Y013587D01*
X005973Y013452D01*
X005900Y013275D01*
X005900Y013085D01*
X005952Y012960D01*
X004413Y012960D01*
X004432Y012969D01*
X004493Y013014D01*
X004546Y013067D01*
X004591Y013128D01*
X004625Y013196D01*
X004648Y013268D01*
X004660Y013342D01*
X004660Y013660D01*
X004200Y013660D01*
X004200Y013700D01*
X004160Y013700D01*
X004160Y014460D01*
X004142Y014460D01*
X004068Y014448D01*
X003996Y014425D01*
X003928Y014391D01*
X003867Y014346D01*
X003814Y014293D01*
X003769Y014232D01*
X003735Y014164D01*
X003712Y014092D01*
X003700Y014018D01*
X003700Y013700D01*
X004160Y013700D01*
X004160Y013660D01*
X003700Y013660D01*
X003700Y013342D01*
X003712Y013268D01*
X003735Y013196D01*
X003769Y013128D01*
X003814Y013067D01*
X003867Y013014D01*
X003928Y012969D01*
X003947Y012960D01*
X003420Y012960D01*
X003452Y012973D01*
X003587Y013108D01*
X003660Y013285D01*
X003660Y014075D01*
X003587Y014252D01*
X003452Y014387D01*
X003275Y014460D01*
X003085Y014460D01*
X002908Y014387D01*
X002773Y014252D01*
X002700Y014075D01*
X002700Y013485D01*
X002660Y013525D01*
X002660Y014075D01*
X002587Y014252D01*
X002452Y014387D01*
X002275Y014460D01*
X002085Y014460D01*
X001908Y014387D01*
X001773Y014252D01*
X001700Y014075D01*
X001700Y013285D01*
X001773Y013108D01*
X001908Y012973D01*
X002085Y012900D01*
X002275Y012900D01*
X002452Y012973D01*
X002507Y013028D01*
X003035Y012500D01*
X007335Y012500D01*
X007360Y012475D01*
X007775Y012060D01*
X006385Y012060D01*
X005535Y011210D01*
X005533Y011209D01*
X005429Y011313D01*
X005268Y011380D01*
X005092Y011380D01*
X004931Y011313D01*
X004807Y011189D01*
X004740Y011028D01*
X004740Y010332D01*
X004807Y010171D01*
X004931Y010047D01*
X004950Y010039D01*
X004950Y009775D01*
X004872Y009697D01*
X004852Y009745D01*
X004745Y009852D01*
X004606Y009910D01*
X004454Y009910D01*
X004315Y009852D01*
X004208Y009745D01*
X004150Y009606D01*
X004150Y009454D01*
X004208Y009315D01*
X004300Y009223D01*
X004300Y009125D01*
X003458Y008284D01*
X003429Y008313D01*
X003268Y008380D01*
X003092Y008380D01*
X002931Y008313D01*
X002807Y008189D01*
X002740Y008028D01*
X002740Y007332D01*
X002791Y007210D01*
X002569Y007210D01*
X002620Y007332D01*
X002620Y008028D01*
X002553Y008189D01*
X002429Y008313D01*
X002268Y008380D01*
X002092Y008380D01*
X001931Y008313D01*
X001807Y008189D01*
X001740Y008028D01*
X001740Y007332D01*
X001807Y007171D01*
X001901Y007077D01*
X001900Y007075D01*
X001033Y006209D01*
X001186Y006362D02*
X000812Y006362D01*
X000548Y006362D02*
X000460Y006362D01*
X000460Y006520D02*
X001345Y006520D01*
X001503Y006679D02*
X000460Y006679D01*
X000460Y006837D02*
X001662Y006837D01*
X001820Y006996D02*
X001305Y006996D01*
X001268Y006980D02*
X001429Y007047D01*
X001553Y007171D01*
X001620Y007332D01*
X001620Y008028D01*
X001553Y008189D01*
X001429Y008313D01*
X001268Y008380D01*
X001092Y008380D01*
X000931Y008313D01*
X000807Y008189D01*
X000740Y008028D01*
X000740Y007332D01*
X000807Y007171D01*
X000931Y007047D01*
X001092Y006980D01*
X001268Y006980D01*
X001055Y006996D02*
X000460Y006996D01*
X000460Y007154D02*
X000824Y007154D01*
X000748Y007313D02*
X000460Y007313D01*
X000460Y007471D02*
X000740Y007471D01*
X000740Y007630D02*
X000460Y007630D01*
X000460Y007788D02*
X000740Y007788D01*
X000740Y007947D02*
X000460Y007947D01*
X000460Y008105D02*
X000772Y008105D01*
X000881Y008264D02*
X000460Y008264D01*
X000460Y008422D02*
X003597Y008422D01*
X003755Y008581D02*
X000460Y008581D01*
X000460Y008739D02*
X003914Y008739D01*
X004072Y008898D02*
X000460Y008898D01*
X000460Y009056D02*
X004231Y009056D01*
X004300Y009215D02*
X000460Y009215D01*
X000460Y009373D02*
X004184Y009373D01*
X004150Y009532D02*
X000460Y009532D01*
X000460Y009690D02*
X004185Y009690D01*
X004311Y009849D02*
X000460Y009849D01*
X000460Y010007D02*
X001027Y010007D01*
X001092Y009980D02*
X001268Y009980D01*
X001429Y010047D01*
X001553Y010171D01*
X001620Y010332D01*
X001620Y011028D01*
X001553Y011189D01*
X001429Y011313D01*
X001268Y011380D01*
X001092Y011380D01*
X000931Y011313D01*
X000807Y011189D01*
X000740Y011028D01*
X000740Y010332D01*
X000807Y010171D01*
X000931Y010047D01*
X001092Y009980D01*
X001333Y010007D02*
X002027Y010007D01*
X002092Y009980D02*
X001931Y010047D01*
X001807Y010171D01*
X001740Y010332D01*
X001740Y011028D01*
X001807Y011189D01*
X001931Y011313D01*
X002092Y011380D01*
X002268Y011380D01*
X002429Y011313D01*
X002553Y011189D01*
X002620Y011028D01*
X002620Y010332D01*
X002553Y010171D01*
X002429Y010047D01*
X002268Y009980D01*
X002092Y009980D01*
X002333Y010007D02*
X003027Y010007D01*
X003092Y009980D02*
X003268Y009980D01*
X003429Y010047D01*
X003553Y010171D01*
X003620Y010332D01*
X003620Y011028D01*
X003553Y011189D01*
X003429Y011313D01*
X003268Y011380D01*
X003092Y011380D01*
X002931Y011313D01*
X002807Y011189D01*
X002740Y011028D01*
X002740Y010332D01*
X002807Y010171D01*
X002931Y010047D01*
X003092Y009980D01*
X003333Y010007D02*
X004027Y010007D01*
X004092Y009980D02*
X003931Y010047D01*
X003807Y010171D01*
X003740Y010332D01*
X003740Y011028D01*
X003807Y011189D01*
X003931Y011313D01*
X004092Y011380D01*
X004268Y011380D01*
X004429Y011313D01*
X004553Y011189D01*
X004620Y011028D01*
X004620Y010332D01*
X004553Y010171D01*
X004429Y010047D01*
X004268Y009980D01*
X004092Y009980D01*
X004333Y010007D02*
X004950Y010007D01*
X004950Y009849D02*
X004749Y009849D01*
X004812Y010166D02*
X004548Y010166D01*
X004616Y010324D02*
X004744Y010324D01*
X004740Y010483D02*
X004620Y010483D01*
X004620Y010641D02*
X004740Y010641D01*
X004740Y010800D02*
X004620Y010800D01*
X004620Y010958D02*
X004740Y010958D01*
X004777Y011117D02*
X004583Y011117D01*
X004467Y011275D02*
X004893Y011275D01*
X005467Y011275D02*
X005600Y011275D01*
X005758Y011434D02*
X000460Y011434D01*
X000460Y011592D02*
X005917Y011592D01*
X006075Y011751D02*
X000460Y011751D01*
X000460Y011909D02*
X006234Y011909D01*
X007450Y012385D02*
X000460Y012385D01*
X000460Y012543D02*
X002992Y012543D01*
X002833Y012702D02*
X000460Y012702D01*
X000460Y012860D02*
X002675Y012860D01*
X002516Y013019D02*
X002497Y013019D01*
X001863Y013019D02*
X000460Y013019D01*
X000460Y013177D02*
X001745Y013177D01*
X001700Y013336D02*
X000460Y013336D01*
X000460Y013494D02*
X001700Y013494D01*
X001700Y013653D02*
X000460Y013653D01*
X000460Y013811D02*
X001700Y013811D01*
X001700Y013970D02*
X000460Y013970D01*
X000460Y014128D02*
X001722Y014128D01*
X001808Y014287D02*
X000460Y014287D01*
X000460Y014445D02*
X002048Y014445D01*
X002312Y014445D02*
X003048Y014445D01*
X003312Y014445D02*
X004058Y014445D01*
X004160Y014445D02*
X004200Y014445D01*
X004200Y014460D02*
X004200Y013700D01*
X004660Y013700D01*
X004660Y014018D01*
X004648Y014092D01*
X004625Y014164D01*
X004591Y014232D01*
X004546Y014293D01*
X004493Y014346D01*
X004432Y014391D01*
X004364Y014425D01*
X004292Y014448D01*
X004218Y014460D01*
X004200Y014460D01*
X004302Y014445D02*
X007670Y014445D01*
X007828Y014604D02*
X000460Y014604D01*
X000460Y014762D02*
X006135Y014762D01*
X006108Y014773D02*
X005973Y014908D01*
X005900Y015085D01*
X005900Y015275D01*
X005973Y015452D01*
X006108Y015587D01*
X006285Y015660D01*
X007075Y015660D01*
X007252Y015587D01*
X007387Y015452D01*
X007460Y015275D01*
X007460Y015085D01*
X007387Y014908D01*
X007252Y014773D01*
X007075Y014700D01*
X006285Y014700D01*
X006108Y014773D01*
X005968Y014921D02*
X000460Y014921D01*
X000460Y015079D02*
X005902Y015079D01*
X005900Y015238D02*
X000460Y015238D01*
X000460Y015396D02*
X005950Y015396D01*
X006076Y015555D02*
X000460Y015555D01*
X000460Y015713D02*
X008938Y015713D01*
X009096Y015872D02*
X000460Y015872D01*
X002552Y014287D02*
X002808Y014287D01*
X002722Y014128D02*
X002638Y014128D01*
X002660Y013970D02*
X002700Y013970D01*
X002700Y013811D02*
X002660Y013811D01*
X002660Y013653D02*
X002700Y013653D01*
X002691Y013494D02*
X002700Y013494D01*
X003660Y013494D02*
X003700Y013494D01*
X003701Y013336D02*
X003660Y013336D01*
X003615Y013177D02*
X003745Y013177D01*
X003863Y013019D02*
X003497Y013019D01*
X004497Y013019D02*
X005927Y013019D01*
X005900Y013177D02*
X004615Y013177D01*
X004659Y013336D02*
X005925Y013336D01*
X006015Y013494D02*
X004660Y013494D01*
X004660Y013653D02*
X006266Y013653D01*
X007094Y013653D02*
X007250Y013653D01*
X007250Y013811D02*
X004660Y013811D01*
X004660Y013970D02*
X007250Y013970D01*
X007353Y014128D02*
X004637Y014128D01*
X004551Y014287D02*
X007511Y014287D01*
X008003Y014128D02*
X011407Y014128D01*
X011565Y013970D02*
X007845Y013970D01*
X007710Y013811D02*
X011724Y013811D01*
X011882Y013653D02*
X010065Y013653D01*
X010092Y013648D02*
X010018Y013660D01*
X009700Y013660D01*
X009700Y013200D01*
X009660Y013200D01*
X009660Y013660D01*
X009342Y013660D01*
X009268Y013648D01*
X009196Y013625D01*
X009128Y013591D01*
X009067Y013546D01*
X009014Y013493D01*
X008969Y013432D01*
X008935Y013364D01*
X008912Y013292D01*
X008900Y013218D01*
X008900Y013200D01*
X009660Y013200D01*
X009660Y013160D01*
X009700Y013160D01*
X009700Y013200D01*
X010460Y013200D01*
X010460Y013218D01*
X010448Y013292D01*
X010425Y013364D01*
X010391Y013432D01*
X010346Y013493D01*
X010293Y013546D01*
X010232Y013591D01*
X010164Y013625D01*
X010092Y013648D01*
X010345Y013494D02*
X012041Y013494D01*
X011905Y013336D02*
X010434Y013336D01*
X010460Y013160D02*
X009700Y013160D01*
X009700Y012700D01*
X010018Y012700D01*
X010092Y012712D01*
X010164Y012735D01*
X010232Y012769D01*
X010293Y012814D01*
X010346Y012867D01*
X010391Y012928D01*
X010425Y012996D01*
X010448Y013068D01*
X010460Y013142D01*
X010460Y013160D01*
X010432Y013019D02*
X011720Y013019D01*
X011720Y012860D02*
X010339Y012860D01*
X010027Y012702D02*
X011720Y012702D01*
X011720Y012543D02*
X010939Y012543D01*
X011098Y012385D02*
X011720Y012385D01*
X011754Y012226D02*
X011120Y012226D01*
X011120Y012068D02*
X011862Y012068D01*
X011955Y011909D02*
X011126Y011909D01*
X011285Y011751D02*
X012114Y011751D01*
X012272Y011592D02*
X011443Y011592D01*
X011602Y011434D02*
X012431Y011434D01*
X012467Y011275D02*
X012589Y011275D01*
X012583Y011117D02*
X012748Y011117D01*
X012740Y010958D02*
X012620Y010958D01*
X012620Y010800D02*
X012740Y010800D01*
X012740Y010641D02*
X012620Y010641D01*
X012620Y010483D02*
X012740Y010483D01*
X012744Y010324D02*
X012616Y010324D01*
X012548Y010166D02*
X012812Y010166D01*
X013027Y010007D02*
X012333Y010007D01*
X012410Y009849D02*
X013400Y009849D01*
X013400Y010007D02*
X013333Y010007D01*
X013400Y009690D02*
X012410Y009690D01*
X012410Y009532D02*
X013400Y009532D01*
X013400Y009373D02*
X013345Y009373D01*
X013015Y009373D02*
X012410Y009373D01*
X012410Y009215D02*
X012845Y009215D01*
X012800Y009056D02*
X012410Y009056D01*
X012410Y008898D02*
X012824Y008898D01*
X012934Y008739D02*
X012410Y008739D01*
X012410Y008581D02*
X012950Y008581D01*
X012950Y008422D02*
X012410Y008422D01*
X012479Y008264D02*
X012881Y008264D01*
X012772Y008105D02*
X012588Y008105D01*
X012620Y007947D02*
X012740Y007947D01*
X012740Y007788D02*
X012620Y007788D01*
X012620Y007630D02*
X012740Y007630D01*
X012740Y007471D02*
X012620Y007471D01*
X012612Y007313D02*
X012748Y007313D01*
X012681Y007154D02*
X012824Y007154D01*
X012840Y006996D02*
X013055Y006996D01*
X012998Y006837D02*
X014250Y006837D01*
X014305Y006996D02*
X015389Y006996D01*
X015231Y007154D02*
X014536Y007154D01*
X014612Y007313D02*
X015072Y007313D01*
X014914Y007471D02*
X014620Y007471D01*
X014620Y007630D02*
X014755Y007630D01*
X013740Y007630D02*
X013620Y007630D01*
X013620Y007788D02*
X013740Y007788D01*
X013740Y007947D02*
X013620Y007947D01*
X013588Y008105D02*
X013772Y008105D01*
X013881Y008264D02*
X013479Y008264D01*
X013410Y008422D02*
X013963Y008422D01*
X013804Y008581D02*
X013410Y008581D01*
X013426Y008739D02*
X013646Y008739D01*
X013620Y007471D02*
X013740Y007471D01*
X013748Y007313D02*
X013612Y007313D01*
X013536Y007154D02*
X013824Y007154D01*
X014055Y006996D02*
X013305Y006996D01*
X013157Y006679D02*
X014130Y006679D01*
X014100Y006520D02*
X013315Y006520D01*
X013474Y006362D02*
X013548Y006362D01*
X013812Y006362D02*
X014138Y006362D01*
X014039Y006203D02*
X014276Y006203D01*
X014247Y006045D02*
X014113Y006045D01*
X014120Y005886D02*
X014240Y005886D01*
X014240Y005728D02*
X014120Y005728D01*
X014120Y005569D02*
X014240Y005569D01*
X014240Y005411D02*
X014120Y005411D01*
X014087Y005252D02*
X014273Y005252D01*
X013250Y004935D02*
X012110Y004935D01*
X011952Y004777D02*
X013408Y004777D01*
X013091Y005094D02*
X012976Y005094D01*
X012384Y005094D02*
X012269Y005094D01*
X011793Y004618D02*
X018567Y004618D01*
X018725Y004460D02*
X011635Y004460D01*
X015324Y006362D02*
X015548Y006362D01*
X015812Y006362D02*
X016548Y006362D01*
X016812Y006362D02*
X017023Y006362D01*
X017039Y006203D02*
X017182Y006203D01*
X017200Y006045D02*
X017113Y006045D01*
X017120Y005886D02*
X017299Y005886D01*
X017457Y005728D02*
X017120Y005728D01*
X017120Y005569D02*
X017616Y005569D01*
X017774Y005411D02*
X017120Y005411D01*
X017087Y005252D02*
X017933Y005252D01*
X018091Y005094D02*
X016976Y005094D01*
X016384Y005094D02*
X016269Y005094D01*
X016110Y004935D02*
X018250Y004935D01*
X018408Y004777D02*
X015952Y004777D01*
X016120Y005728D02*
X016240Y005728D01*
X016240Y005886D02*
X016120Y005886D01*
X016113Y006045D02*
X016247Y006045D01*
X016321Y006203D02*
X016039Y006203D01*
X015865Y006520D02*
X015165Y006520D01*
X015007Y006679D02*
X015706Y006679D01*
X015548Y006837D02*
X014710Y006837D01*
X012575Y006610D02*
X010620Y006610D01*
X010620Y006680D01*
X010620Y006862D01*
X010427Y007055D01*
X010467Y007084D01*
X010516Y007133D01*
X010531Y007154D01*
X010531Y007154D01*
X010535Y007150D01*
X010935Y006750D01*
X012435Y006750D01*
X012575Y006610D01*
X012506Y006679D02*
X010620Y006679D01*
X010620Y006680D02*
X010180Y006680D01*
X010620Y006680D01*
X010620Y006837D02*
X010848Y006837D01*
X010689Y006996D02*
X010487Y006996D01*
X010180Y006996D02*
X010180Y006996D01*
X010180Y006980D02*
X010180Y006680D01*
X010180Y006680D01*
X010180Y006680D01*
X010180Y007680D01*
X010180Y007680D01*
X010180Y008380D01*
X010215Y008380D01*
X010283Y008369D01*
X010331Y008354D01*
X008535Y010150D01*
X008533Y010151D01*
X008429Y010047D01*
X008268Y009980D01*
X008092Y009980D01*
X007960Y010035D01*
X007960Y008325D01*
X008092Y008380D01*
X008268Y008380D01*
X008429Y008313D01*
X008553Y008189D01*
X008620Y008028D01*
X008620Y007332D01*
X008553Y007171D01*
X008484Y007102D01*
X008740Y006845D01*
X008740Y006862D01*
X008928Y007050D01*
X008807Y007171D01*
X008740Y007332D01*
X008740Y008028D01*
X008807Y008189D01*
X008931Y008313D01*
X009092Y008380D01*
X009268Y008380D01*
X009429Y008313D01*
X009553Y008189D01*
X009620Y008028D01*
X009620Y007332D01*
X009553Y007171D01*
X009432Y007050D01*
X009620Y006862D01*
X009620Y006610D01*
X009740Y006610D01*
X009740Y006680D01*
X010180Y006680D01*
X010180Y006680D01*
X009740Y006680D01*
X009740Y006862D01*
X009933Y007055D01*
X009893Y007084D01*
X009844Y007133D01*
X009804Y007189D01*
X009772Y007251D01*
X009751Y007317D01*
X009740Y007385D01*
X009740Y007680D01*
X010180Y007680D01*
X010180Y007680D01*
X010180Y008380D01*
X010145Y008380D01*
X010077Y008369D01*
X010011Y008348D01*
X009949Y008316D01*
X009893Y008276D01*
X009844Y008227D01*
X009804Y008171D01*
X009772Y008109D01*
X009751Y008043D01*
X009740Y007975D01*
X009740Y007680D01*
X010180Y007680D01*
X010180Y007680D01*
X010180Y006980D01*
X010180Y006837D02*
X010180Y006837D01*
X009873Y006996D02*
X009487Y006996D01*
X009536Y007154D02*
X009829Y007154D01*
X009752Y007313D02*
X009612Y007313D01*
X009620Y007471D02*
X009740Y007471D01*
X009740Y007630D02*
X009620Y007630D01*
X009620Y007788D02*
X009740Y007788D01*
X009740Y007947D02*
X009620Y007947D01*
X009588Y008105D02*
X009771Y008105D01*
X009881Y008264D02*
X009479Y008264D01*
X010180Y008264D02*
X010180Y008264D01*
X010180Y008105D02*
X010180Y008105D01*
X010180Y007947D02*
X010180Y007947D01*
X010180Y007788D02*
X010180Y007788D01*
X010180Y007630D02*
X010180Y007630D01*
X010180Y007471D02*
X010180Y007471D01*
X010180Y007313D02*
X010180Y007313D01*
X010180Y007154D02*
X010180Y007154D01*
X009740Y006837D02*
X009620Y006837D01*
X009620Y006679D02*
X009740Y006679D01*
X008873Y006996D02*
X008590Y006996D01*
X008536Y007154D02*
X008824Y007154D01*
X008748Y007313D02*
X008612Y007313D01*
X008620Y007471D02*
X008740Y007471D01*
X008740Y007630D02*
X008620Y007630D01*
X008620Y007788D02*
X008740Y007788D01*
X008740Y007947D02*
X008620Y007947D01*
X008588Y008105D02*
X008772Y008105D01*
X008881Y008264D02*
X008479Y008264D01*
X007960Y008422D02*
X010263Y008422D01*
X010104Y008581D02*
X007960Y008581D01*
X007960Y008739D02*
X009946Y008739D01*
X009787Y008898D02*
X007960Y008898D01*
X007960Y009056D02*
X009629Y009056D01*
X009470Y009215D02*
X007960Y009215D01*
X007960Y009373D02*
X009312Y009373D01*
X009153Y009532D02*
X007960Y009532D01*
X007960Y009690D02*
X008995Y009690D01*
X008836Y009849D02*
X007960Y009849D01*
X007960Y010007D02*
X008027Y010007D01*
X008333Y010007D02*
X008678Y010007D01*
X011760Y011275D02*
X011893Y011275D01*
X013324Y011962D02*
X013860Y011425D01*
X013860Y011242D01*
X013931Y011313D01*
X014092Y011380D01*
X014268Y011380D01*
X014421Y011317D01*
X016740Y013636D01*
X016740Y013862D01*
X016998Y014120D01*
X017224Y014120D01*
X018240Y015136D01*
X018240Y015528D01*
X018291Y015650D01*
X010100Y015650D01*
X010252Y015587D01*
X010358Y015481D01*
X010498Y015620D01*
X010862Y015620D01*
X011120Y015362D01*
X011120Y015065D01*
X012860Y013325D01*
X012860Y013291D01*
X012919Y013350D01*
X013088Y013420D01*
X013271Y013420D01*
X013441Y013350D01*
X013570Y013221D01*
X013640Y013051D01*
X013640Y012308D01*
X013570Y012139D01*
X013441Y012010D01*
X013324Y011962D01*
X013376Y011909D02*
X015013Y011909D01*
X014855Y011751D02*
X013535Y011751D01*
X013693Y011592D02*
X014696Y011592D01*
X014538Y011434D02*
X013852Y011434D01*
X013860Y011275D02*
X013893Y011275D01*
X014695Y010800D02*
X014874Y010800D01*
X014854Y010958D02*
X015033Y010958D01*
X015012Y011117D02*
X015191Y011117D01*
X015171Y011275D02*
X015350Y011275D01*
X015329Y011434D02*
X015508Y011434D01*
X015488Y011592D02*
X015667Y011592D01*
X015685Y011610D02*
X014620Y010545D01*
X014620Y010724D01*
X016740Y012844D01*
X016740Y012680D01*
X017180Y012680D01*
X017180Y012680D01*
X017180Y013120D01*
X017362Y013120D01*
X017620Y012862D01*
X017620Y012845D01*
X019376Y014602D01*
X019307Y014671D01*
X019240Y014832D01*
X019240Y015528D01*
X019291Y015650D01*
X019069Y015650D01*
X019120Y015528D01*
X019120Y014832D01*
X019053Y014671D01*
X018929Y014547D01*
X018768Y014480D01*
X018592Y014480D01*
X018439Y014543D01*
X017620Y013724D01*
X017620Y013498D01*
X017362Y013240D01*
X017136Y013240D01*
X017016Y013120D01*
X017180Y013120D01*
X017180Y012680D01*
X017180Y012680D01*
X016740Y012680D01*
X016740Y012498D01*
X016998Y012240D01*
X017015Y012240D01*
X016385Y011610D01*
X015685Y011610D01*
X015646Y011751D02*
X016525Y011751D01*
X016684Y011909D02*
X015805Y011909D01*
X015963Y012068D02*
X016842Y012068D01*
X017001Y012226D02*
X016122Y012226D01*
X016280Y012385D02*
X016853Y012385D01*
X016740Y012543D02*
X016439Y012543D01*
X016597Y012702D02*
X016740Y012702D01*
X015964Y012860D02*
X014640Y012860D01*
X014640Y012996D02*
X014640Y012690D01*
X014190Y012690D01*
X014190Y012670D01*
X014640Y012670D01*
X014640Y012364D01*
X014629Y012292D01*
X014606Y012223D01*
X014573Y012159D01*
X014531Y012100D01*
X014480Y012049D01*
X014421Y012007D01*
X014357Y011974D01*
X014288Y011951D01*
X014216Y011940D01*
X014190Y011940D01*
X014190Y012670D01*
X014170Y012670D01*
X014170Y011940D01*
X014144Y011940D01*
X014072Y011951D01*
X014003Y011974D01*
X013939Y012007D01*
X013880Y012049D01*
X013829Y012100D01*
X013787Y012159D01*
X013754Y012223D01*
X013731Y012292D01*
X013720Y012364D01*
X013720Y012670D01*
X014170Y012670D01*
X014170Y012690D01*
X014170Y013420D01*
X014144Y013420D01*
X014072Y013409D01*
X014003Y013386D01*
X013939Y013353D01*
X013880Y013311D01*
X013829Y013260D01*
X013787Y013201D01*
X013754Y013137D01*
X013731Y013068D01*
X013720Y012996D01*
X013720Y012690D01*
X014170Y012690D01*
X014190Y012690D01*
X014190Y013420D01*
X014216Y013420D01*
X014288Y013409D01*
X014357Y013386D01*
X014421Y013353D01*
X014480Y013311D01*
X014531Y013260D01*
X014573Y013201D01*
X014606Y013137D01*
X014629Y013068D01*
X014640Y012996D01*
X014636Y013019D02*
X016123Y013019D01*
X016281Y013177D02*
X014586Y013177D01*
X014446Y013336D02*
X016440Y013336D01*
X016598Y013494D02*
X012691Y013494D01*
X012533Y013653D02*
X016740Y013653D01*
X016740Y013811D02*
X012374Y013811D01*
X012216Y013970D02*
X016847Y013970D01*
X017232Y014128D02*
X012057Y014128D01*
X011899Y014287D02*
X017391Y014287D01*
X017549Y014445D02*
X011740Y014445D01*
X011582Y014604D02*
X017708Y014604D01*
X017866Y014762D02*
X011423Y014762D01*
X011265Y014921D02*
X018025Y014921D01*
X018183Y015079D02*
X011120Y015079D01*
X011120Y015238D02*
X018240Y015238D01*
X018240Y015396D02*
X011086Y015396D01*
X010928Y015555D02*
X018251Y015555D01*
X019109Y015555D02*
X019251Y015555D01*
X019240Y015396D02*
X019120Y015396D01*
X019120Y015238D02*
X019240Y015238D01*
X019240Y015079D02*
X019120Y015079D01*
X019120Y014921D02*
X019240Y014921D01*
X019269Y014762D02*
X019091Y014762D01*
X018986Y014604D02*
X019374Y014604D01*
X019220Y014445D02*
X018341Y014445D01*
X018183Y014287D02*
X019061Y014287D01*
X018903Y014128D02*
X018024Y014128D01*
X017865Y013970D02*
X018744Y013970D01*
X018586Y013811D02*
X017707Y013811D01*
X017620Y013653D02*
X018427Y013653D01*
X018269Y013494D02*
X017616Y013494D01*
X017458Y013336D02*
X018110Y013336D01*
X017952Y013177D02*
X017073Y013177D01*
X017180Y013019D02*
X017180Y013019D01*
X017180Y012860D02*
X017180Y012860D01*
X017180Y012702D02*
X017180Y012702D01*
X017620Y012860D02*
X017635Y012860D01*
X017793Y013019D02*
X017464Y013019D01*
X018829Y012854D02*
X018925Y012950D01*
X020625Y012950D01*
X020760Y013085D01*
X022327Y014651D01*
X022431Y014547D01*
X022592Y014480D01*
X022768Y014480D01*
X022929Y014547D01*
X023053Y014671D01*
X023120Y014832D01*
X023120Y015528D01*
X023053Y015689D01*
X022929Y015813D01*
X022768Y015880D01*
X022592Y015880D01*
X022431Y015813D01*
X022307Y015689D01*
X022240Y015528D01*
X022240Y015215D01*
X022120Y015095D01*
X022120Y015528D01*
X022053Y015689D01*
X021929Y015813D01*
X021768Y015880D01*
X021592Y015880D01*
X021431Y015813D01*
X021307Y015689D01*
X021240Y015528D01*
X021240Y014832D01*
X021307Y014671D01*
X021431Y014547D01*
X021530Y014506D01*
X020435Y013410D01*
X018835Y013410D01*
X019910Y014485D01*
X019910Y014539D01*
X019929Y014547D01*
X020053Y014671D01*
X020120Y014832D01*
X020120Y015265D01*
X020240Y015145D01*
X020240Y014832D01*
X020307Y014671D01*
X020431Y014547D01*
X020592Y014480D01*
X020768Y014480D01*
X020929Y014547D01*
X021053Y014671D01*
X021120Y014832D01*
X021120Y015528D01*
X021053Y015689D01*
X020929Y015813D01*
X020768Y015880D01*
X020592Y015880D01*
X020431Y015813D01*
X020327Y015709D01*
X020139Y015896D01*
X027531Y015896D01*
X027419Y015850D01*
X027290Y015721D01*
X027220Y015551D01*
X027220Y014808D01*
X027282Y014660D01*
X026042Y014660D01*
X026053Y014671D01*
X026120Y014832D01*
X026120Y015528D01*
X026053Y015689D01*
X025929Y015813D01*
X025768Y015880D01*
X025592Y015880D01*
X025431Y015813D01*
X025307Y015689D01*
X025240Y015528D01*
X025240Y014832D01*
X025307Y014671D01*
X025431Y014547D01*
X025592Y014480D01*
X025655Y014480D01*
X023958Y012784D01*
X023929Y012813D01*
X023768Y012880D01*
X023592Y012880D01*
X023431Y012813D01*
X023307Y012689D01*
X023240Y012528D01*
X023240Y011832D01*
X023307Y011671D01*
X023368Y011610D01*
X022992Y011610D01*
X023053Y011671D01*
X023120Y011832D01*
X023120Y012528D01*
X023053Y012689D01*
X022929Y012813D01*
X022768Y012880D01*
X022592Y012880D01*
X022431Y012813D01*
X022307Y012689D01*
X022240Y012528D01*
X022240Y011832D01*
X022307Y011671D01*
X022368Y011610D01*
X021992Y011610D01*
X022053Y011671D01*
X022120Y011832D01*
X022120Y012528D01*
X022053Y012689D01*
X021929Y012813D01*
X021768Y012880D01*
X021592Y012880D01*
X021431Y012813D01*
X021307Y012689D01*
X021240Y012528D01*
X021240Y011832D01*
X021307Y011671D01*
X021431Y011547D01*
X021592Y011480D01*
X021655Y011480D01*
X021458Y011284D01*
X021429Y011313D01*
X021268Y011380D01*
X021092Y011380D01*
X020931Y011313D01*
X020910Y011292D01*
X020910Y011539D01*
X020929Y011547D01*
X021053Y011671D01*
X021120Y011832D01*
X021120Y012528D01*
X021053Y012689D01*
X020929Y012813D01*
X020768Y012880D01*
X020592Y012880D01*
X020431Y012813D01*
X020307Y012689D01*
X020240Y012528D01*
X020240Y011832D01*
X020307Y011671D01*
X020431Y011547D01*
X020450Y011539D01*
X020450Y011292D01*
X020429Y011313D01*
X020268Y011380D01*
X020092Y011380D01*
X019931Y011313D01*
X019807Y011189D01*
X019740Y011028D01*
X019740Y010595D01*
X019620Y010715D01*
X019620Y011028D01*
X019553Y011189D01*
X019429Y011313D01*
X019268Y011380D01*
X019092Y011380D01*
X018931Y011313D01*
X018807Y011189D01*
X018740Y011028D01*
X018740Y010445D01*
X018620Y010565D01*
X018620Y011028D01*
X018553Y011189D01*
X018429Y011313D01*
X018268Y011380D01*
X018092Y011380D01*
X017960Y011325D01*
X017960Y011985D01*
X018240Y012265D01*
X018240Y012180D01*
X018680Y012180D01*
X019120Y012180D01*
X019120Y012475D01*
X019109Y012543D01*
X019246Y012543D01*
X019240Y012528D02*
X019307Y012689D01*
X019431Y012813D01*
X019592Y012880D01*
X019768Y012880D01*
X019929Y012813D01*
X020053Y012689D01*
X020120Y012528D01*
X020120Y011832D01*
X020053Y011671D01*
X019929Y011547D01*
X019768Y011480D01*
X019592Y011480D01*
X019431Y011547D01*
X019307Y011671D01*
X019240Y011832D01*
X019240Y012528D01*
X019109Y012543D02*
X019088Y012609D01*
X019056Y012671D01*
X019016Y012727D01*
X018967Y012776D01*
X018911Y012816D01*
X018849Y012848D01*
X018829Y012854D01*
X018835Y012860D02*
X019544Y012860D01*
X019816Y012860D02*
X020544Y012860D01*
X020694Y013019D02*
X024193Y013019D01*
X024352Y013177D02*
X020852Y013177D01*
X021011Y013336D02*
X024510Y013336D01*
X024669Y013494D02*
X021169Y013494D01*
X021328Y013653D02*
X024827Y013653D01*
X024986Y013811D02*
X021486Y013811D01*
X021645Y013970D02*
X025144Y013970D01*
X025303Y014128D02*
X021803Y014128D01*
X021962Y014287D02*
X025461Y014287D01*
X025620Y014445D02*
X022120Y014445D01*
X022279Y014604D02*
X022374Y014604D01*
X022986Y014604D02*
X023374Y014604D01*
X023431Y014547D02*
X023307Y014671D01*
X023240Y014832D01*
X023240Y015528D01*
X023307Y015689D01*
X023431Y015813D01*
X023592Y015880D01*
X023768Y015880D01*
X023929Y015813D01*
X024053Y015689D01*
X024120Y015528D01*
X024120Y014832D01*
X024053Y014671D01*
X023929Y014547D01*
X023768Y014480D01*
X023592Y014480D01*
X023431Y014547D01*
X023986Y014604D02*
X024374Y014604D01*
X024431Y014547D02*
X024307Y014671D01*
X024240Y014832D01*
X024240Y015528D01*
X024307Y015689D01*
X024431Y015813D01*
X024592Y015880D01*
X024768Y015880D01*
X024929Y015813D01*
X025053Y015689D01*
X025120Y015528D01*
X025120Y014832D01*
X025053Y014671D01*
X024929Y014547D01*
X024768Y014480D01*
X024592Y014480D01*
X024431Y014547D01*
X024269Y014762D02*
X024091Y014762D01*
X024120Y014921D02*
X024240Y014921D01*
X024240Y015079D02*
X024120Y015079D01*
X024120Y015238D02*
X024240Y015238D01*
X024240Y015396D02*
X024120Y015396D01*
X024109Y015555D02*
X024251Y015555D01*
X024331Y015713D02*
X024029Y015713D01*
X023788Y015872D02*
X024572Y015872D01*
X024788Y015872D02*
X025572Y015872D01*
X025788Y015872D02*
X027471Y015872D01*
X027287Y015713D02*
X026029Y015713D01*
X026109Y015555D02*
X027221Y015555D01*
X027220Y015396D02*
X026120Y015396D01*
X026120Y015238D02*
X027220Y015238D01*
X027220Y015079D02*
X026120Y015079D01*
X026120Y014921D02*
X027220Y014921D01*
X027239Y014762D02*
X026091Y014762D01*
X025374Y014604D02*
X024986Y014604D01*
X025091Y014762D02*
X025269Y014762D01*
X025240Y014921D02*
X025120Y014921D01*
X025120Y015079D02*
X025240Y015079D01*
X025240Y015238D02*
X025120Y015238D01*
X025120Y015396D02*
X025240Y015396D01*
X025251Y015555D02*
X025109Y015555D01*
X025029Y015713D02*
X025331Y015713D01*
X023572Y015872D02*
X022788Y015872D01*
X022572Y015872D02*
X021788Y015872D01*
X021572Y015872D02*
X020788Y015872D01*
X020572Y015872D02*
X020164Y015872D01*
X020322Y015713D02*
X020331Y015713D01*
X021029Y015713D02*
X021331Y015713D01*
X021251Y015555D02*
X021109Y015555D01*
X021120Y015396D02*
X021240Y015396D01*
X021240Y015238D02*
X021120Y015238D01*
X021120Y015079D02*
X021240Y015079D01*
X021240Y014921D02*
X021120Y014921D01*
X021091Y014762D02*
X021269Y014762D01*
X021374Y014604D02*
X020986Y014604D01*
X021470Y014445D02*
X019870Y014445D01*
X019986Y014604D02*
X020374Y014604D01*
X020269Y014762D02*
X020091Y014762D01*
X020120Y014921D02*
X020240Y014921D01*
X020240Y015079D02*
X020120Y015079D01*
X020120Y015238D02*
X020147Y015238D01*
X022029Y015713D02*
X022331Y015713D01*
X022251Y015555D02*
X022109Y015555D01*
X022120Y015396D02*
X022240Y015396D01*
X022240Y015238D02*
X022120Y015238D01*
X023120Y015238D02*
X023240Y015238D01*
X023240Y015396D02*
X023120Y015396D01*
X023109Y015555D02*
X023251Y015555D01*
X023331Y015713D02*
X023029Y015713D01*
X023120Y015079D02*
X023240Y015079D01*
X023240Y014921D02*
X023120Y014921D01*
X023091Y014762D02*
X023269Y014762D01*
X021311Y014287D02*
X019712Y014287D01*
X019553Y014128D02*
X021153Y014128D01*
X020994Y013970D02*
X019395Y013970D01*
X019236Y013811D02*
X020836Y013811D01*
X020677Y013653D02*
X019078Y013653D01*
X018919Y013494D02*
X020519Y013494D01*
X020816Y012860D02*
X021544Y012860D01*
X021816Y012860D02*
X022544Y012860D01*
X022816Y012860D02*
X023544Y012860D01*
X023816Y012860D02*
X024035Y012860D01*
X023319Y012702D02*
X023041Y012702D01*
X023114Y012543D02*
X023246Y012543D01*
X023240Y012385D02*
X023120Y012385D01*
X023120Y012226D02*
X023240Y012226D01*
X023240Y012068D02*
X023120Y012068D01*
X023120Y011909D02*
X023240Y011909D01*
X023274Y011751D02*
X023086Y011751D01*
X022274Y011751D02*
X022086Y011751D01*
X022120Y011909D02*
X022240Y011909D01*
X022240Y012068D02*
X022120Y012068D01*
X022120Y012226D02*
X022240Y012226D01*
X022240Y012385D02*
X022120Y012385D01*
X022114Y012543D02*
X022246Y012543D01*
X022319Y012702D02*
X022041Y012702D01*
X021319Y012702D02*
X021041Y012702D01*
X021114Y012543D02*
X021246Y012543D01*
X021240Y012385D02*
X021120Y012385D01*
X021120Y012226D02*
X021240Y012226D01*
X021240Y012068D02*
X021120Y012068D01*
X021120Y011909D02*
X021240Y011909D01*
X021274Y011751D02*
X021086Y011751D01*
X020974Y011592D02*
X021386Y011592D01*
X021608Y011434D02*
X020910Y011434D01*
X020450Y011434D02*
X017960Y011434D01*
X017960Y011592D02*
X018386Y011592D01*
X018393Y011584D02*
X018344Y011633D01*
X018304Y011689D01*
X018272Y011751D01*
X018251Y011817D01*
X018240Y011885D01*
X018240Y012180D01*
X018680Y012180D01*
X018680Y012180D01*
X019120Y012180D01*
X019120Y011885D01*
X019109Y011817D01*
X019088Y011751D01*
X019056Y011689D01*
X019016Y011633D01*
X018967Y011584D01*
X018911Y011544D01*
X018849Y011512D01*
X018783Y011491D01*
X018715Y011480D01*
X018680Y011480D01*
X018680Y012180D01*
X018680Y012180D01*
X018680Y012180D01*
X018680Y011480D01*
X018645Y011480D01*
X018577Y011491D01*
X018511Y011512D01*
X018449Y011544D01*
X018393Y011584D01*
X018273Y011751D02*
X017960Y011751D01*
X017960Y011909D02*
X018240Y011909D01*
X018240Y012068D02*
X018043Y012068D01*
X018201Y012226D02*
X018240Y012226D01*
X018680Y012068D02*
X018680Y012068D01*
X018680Y011909D02*
X018680Y011909D01*
X018680Y011751D02*
X018680Y011751D01*
X018680Y011592D02*
X018680Y011592D01*
X018974Y011592D02*
X019386Y011592D01*
X019274Y011751D02*
X019087Y011751D01*
X019120Y011909D02*
X019240Y011909D01*
X019240Y012068D02*
X019120Y012068D01*
X019120Y012226D02*
X019240Y012226D01*
X019240Y012385D02*
X019120Y012385D01*
X019034Y012702D02*
X019319Y012702D01*
X020041Y012702D02*
X020319Y012702D01*
X020246Y012543D02*
X020114Y012543D01*
X020120Y012385D02*
X020240Y012385D01*
X020240Y012226D02*
X020120Y012226D01*
X020120Y012068D02*
X020240Y012068D01*
X020240Y011909D02*
X020120Y011909D01*
X020086Y011751D02*
X020274Y011751D01*
X020386Y011592D02*
X019974Y011592D01*
X019893Y011275D02*
X019467Y011275D01*
X019583Y011117D02*
X019777Y011117D01*
X019740Y010958D02*
X019620Y010958D01*
X019620Y010800D02*
X019740Y010800D01*
X019740Y010641D02*
X019694Y010641D01*
X018740Y010641D02*
X018620Y010641D01*
X018620Y010800D02*
X018740Y010800D01*
X018740Y010958D02*
X018620Y010958D01*
X018583Y011117D02*
X018777Y011117D01*
X018893Y011275D02*
X018467Y011275D01*
X018703Y010483D02*
X018740Y010483D01*
X015172Y012068D02*
X014498Y012068D01*
X014607Y012226D02*
X015330Y012226D01*
X015489Y012385D02*
X014640Y012385D01*
X014640Y012543D02*
X015647Y012543D01*
X015806Y012702D02*
X014640Y012702D01*
X014190Y012702D02*
X014170Y012702D01*
X014170Y012860D02*
X014190Y012860D01*
X014190Y013019D02*
X014170Y013019D01*
X014170Y013177D02*
X014190Y013177D01*
X014190Y013336D02*
X014170Y013336D01*
X013914Y013336D02*
X013455Y013336D01*
X013588Y013177D02*
X013774Y013177D01*
X013724Y013019D02*
X013640Y013019D01*
X013640Y012860D02*
X013720Y012860D01*
X013720Y012702D02*
X013640Y012702D01*
X013640Y012543D02*
X013720Y012543D01*
X013720Y012385D02*
X013640Y012385D01*
X013606Y012226D02*
X013753Y012226D01*
X013862Y012068D02*
X013498Y012068D01*
X014170Y012068D02*
X014190Y012068D01*
X014190Y012226D02*
X014170Y012226D01*
X014170Y012385D02*
X014190Y012385D01*
X014190Y012543D02*
X014170Y012543D01*
X012905Y013336D02*
X012850Y013336D01*
X011772Y013177D02*
X009700Y013177D01*
X009660Y013177D02*
X007710Y013177D01*
X007710Y013019D02*
X008928Y013019D01*
X008935Y012996D02*
X008969Y012928D01*
X009014Y012867D01*
X009067Y012814D01*
X009128Y012769D01*
X009196Y012735D01*
X009268Y012712D01*
X009342Y012700D01*
X009660Y012700D01*
X009660Y013160D01*
X008900Y013160D01*
X008900Y013142D01*
X008912Y013068D01*
X008935Y012996D01*
X009021Y012860D02*
X007710Y012860D01*
X007784Y012702D02*
X009333Y012702D01*
X009660Y012702D02*
X009700Y012702D01*
X009700Y012860D02*
X009660Y012860D01*
X009660Y013019D02*
X009700Y013019D01*
X009700Y013336D02*
X009660Y013336D01*
X009660Y013494D02*
X009700Y013494D01*
X009700Y013653D02*
X009660Y013653D01*
X009295Y013653D02*
X007710Y013653D01*
X007710Y013494D02*
X009015Y013494D01*
X008926Y013336D02*
X007710Y013336D01*
X007942Y012543D02*
X010421Y012543D01*
X010262Y012385D02*
X008101Y012385D01*
X008259Y012226D02*
X010240Y012226D01*
X010240Y012068D02*
X008418Y012068D01*
X007767Y012068D02*
X000460Y012068D01*
X000460Y012226D02*
X007609Y012226D01*
X003893Y011275D02*
X003467Y011275D01*
X003583Y011117D02*
X003777Y011117D01*
X003740Y010958D02*
X003620Y010958D01*
X003620Y010800D02*
X003740Y010800D01*
X003740Y010641D02*
X003620Y010641D01*
X003620Y010483D02*
X003740Y010483D01*
X003744Y010324D02*
X003616Y010324D01*
X003548Y010166D02*
X003812Y010166D01*
X002812Y010166D02*
X002548Y010166D01*
X002616Y010324D02*
X002744Y010324D01*
X002740Y010483D02*
X002620Y010483D01*
X002620Y010641D02*
X002740Y010641D01*
X002740Y010800D02*
X002620Y010800D01*
X002620Y010958D02*
X002740Y010958D01*
X002777Y011117D02*
X002583Y011117D01*
X002467Y011275D02*
X002893Y011275D01*
X001893Y011275D02*
X001467Y011275D01*
X001583Y011117D02*
X001777Y011117D01*
X001740Y010958D02*
X001620Y010958D01*
X001620Y010800D02*
X001740Y010800D01*
X001740Y010641D02*
X001620Y010641D01*
X001620Y010483D02*
X001740Y010483D01*
X001744Y010324D02*
X001616Y010324D01*
X001548Y010166D02*
X001812Y010166D01*
X000812Y010166D02*
X000460Y010166D01*
X000460Y010324D02*
X000744Y010324D01*
X000740Y010483D02*
X000460Y010483D01*
X000460Y010641D02*
X000740Y010641D01*
X000740Y010800D02*
X000460Y010800D01*
X000460Y010958D02*
X000740Y010958D01*
X000777Y011117D02*
X000460Y011117D01*
X000460Y011275D02*
X000893Y011275D01*
X003660Y013653D02*
X003700Y013653D01*
X003700Y013811D02*
X003660Y013811D01*
X003660Y013970D02*
X003700Y013970D01*
X003723Y014128D02*
X003638Y014128D01*
X003552Y014287D02*
X003809Y014287D01*
X004160Y014287D02*
X004200Y014287D01*
X004200Y014128D02*
X004160Y014128D01*
X004160Y013970D02*
X004200Y013970D01*
X004200Y013811D02*
X004160Y013811D01*
X007225Y014762D02*
X007987Y014762D01*
X008145Y014921D02*
X007392Y014921D01*
X007458Y015079D02*
X008304Y015079D01*
X008462Y015238D02*
X007460Y015238D01*
X007410Y015396D02*
X008621Y015396D01*
X008779Y015555D02*
X007284Y015555D01*
X008796Y014921D02*
X008968Y014921D01*
X009135Y014762D02*
X008637Y014762D01*
X008479Y014604D02*
X010931Y014604D01*
X011090Y014445D02*
X008320Y014445D01*
X008162Y014287D02*
X011248Y014287D01*
X010476Y014762D02*
X010225Y014762D01*
X010284Y015555D02*
X010432Y015555D01*
X014620Y010641D02*
X014716Y010641D01*
X021085Y008950D02*
X024435Y008950D01*
X025031Y008354D01*
X025011Y008348D01*
X024949Y008316D01*
X024893Y008276D01*
X024844Y008227D01*
X024804Y008171D01*
X024772Y008109D01*
X024751Y008043D01*
X024740Y007975D01*
X024740Y007680D01*
X025180Y007680D01*
X025180Y006680D01*
X025180Y006680D01*
X025180Y007120D01*
X025180Y007680D01*
X025180Y007680D01*
X025180Y007680D01*
X024740Y007680D01*
X024740Y007385D01*
X024751Y007317D01*
X024772Y007251D01*
X024804Y007189D01*
X024844Y007133D01*
X024893Y007084D01*
X024933Y007055D01*
X024740Y006862D01*
X024740Y006680D01*
X025180Y006680D01*
X025180Y006680D01*
X024740Y006680D01*
X024740Y006610D01*
X024620Y006610D01*
X024620Y006862D01*
X024432Y007050D01*
X024553Y007171D01*
X024620Y007332D01*
X024620Y008028D01*
X024553Y008189D01*
X024429Y008313D01*
X024268Y008380D01*
X024092Y008380D01*
X023931Y008313D01*
X023807Y008189D01*
X023740Y008028D01*
X023740Y007332D01*
X023807Y007171D01*
X023928Y007050D01*
X023740Y006862D01*
X023740Y006845D01*
X023484Y007102D01*
X023553Y007171D01*
X023620Y007332D01*
X023620Y008028D01*
X023553Y008189D01*
X023429Y008313D01*
X023268Y008380D01*
X023092Y008380D01*
X022931Y008313D01*
X022807Y008189D01*
X022740Y008028D01*
X022740Y007332D01*
X022807Y007171D01*
X022931Y007047D01*
X022950Y007039D01*
X022950Y006985D01*
X023566Y006369D01*
X023431Y006313D01*
X023327Y006209D01*
X022460Y007075D01*
X022459Y007077D01*
X022553Y007171D01*
X022620Y007332D01*
X022620Y008028D01*
X022553Y008189D01*
X022429Y008313D01*
X022268Y008380D01*
X022092Y008380D01*
X021931Y008313D01*
X021827Y008209D01*
X021085Y008950D01*
X021138Y008898D02*
X024487Y008898D01*
X024646Y008739D02*
X021296Y008739D01*
X021455Y008581D02*
X024804Y008581D01*
X024963Y008422D02*
X021613Y008422D01*
X021772Y008264D02*
X021881Y008264D01*
X022479Y008264D02*
X022881Y008264D01*
X022772Y008105D02*
X022588Y008105D01*
X022620Y007947D02*
X022740Y007947D01*
X022740Y007788D02*
X022620Y007788D01*
X022620Y007630D02*
X022740Y007630D01*
X022740Y007471D02*
X022620Y007471D01*
X022612Y007313D02*
X022748Y007313D01*
X022824Y007154D02*
X022536Y007154D01*
X022540Y006996D02*
X022950Y006996D01*
X023098Y006837D02*
X022698Y006837D01*
X022857Y006679D02*
X023256Y006679D01*
X023415Y006520D02*
X023015Y006520D01*
X023174Y006362D02*
X023548Y006362D01*
X024620Y006679D02*
X024740Y006679D01*
X024740Y006837D02*
X024620Y006837D01*
X024487Y006996D02*
X024873Y006996D01*
X024829Y007154D02*
X024536Y007154D01*
X024612Y007313D02*
X024752Y007313D01*
X024740Y007471D02*
X024620Y007471D01*
X024620Y007630D02*
X024740Y007630D01*
X024740Y007788D02*
X024620Y007788D01*
X024620Y007947D02*
X024740Y007947D01*
X024771Y008105D02*
X024588Y008105D01*
X024479Y008264D02*
X024881Y008264D01*
X023881Y008264D02*
X023479Y008264D01*
X023588Y008105D02*
X023772Y008105D01*
X023740Y007947D02*
X023620Y007947D01*
X023620Y007788D02*
X023740Y007788D01*
X023740Y007630D02*
X023620Y007630D01*
X023620Y007471D02*
X023740Y007471D01*
X023748Y007313D02*
X023612Y007313D01*
X023536Y007154D02*
X023824Y007154D01*
X023873Y006996D02*
X023590Y006996D01*
X025180Y006996D02*
X025180Y006996D01*
X025180Y007154D02*
X025180Y007154D01*
X025180Y007313D02*
X025180Y007313D01*
X025180Y007471D02*
X025180Y007471D01*
X025180Y007630D02*
X025180Y007630D01*
X025180Y006837D02*
X025180Y006837D01*
X029960Y006846D02*
X029960Y008778D01*
X029998Y008740D01*
X030180Y008740D01*
X030362Y008740D01*
X030620Y008998D01*
X030620Y009180D01*
X030620Y009344D01*
X031240Y008724D01*
X031240Y008592D01*
X031307Y008431D01*
X031431Y008307D01*
X031592Y008240D01*
X031768Y008240D01*
X031929Y008307D01*
X032053Y008431D01*
X032120Y008592D01*
X032120Y008724D01*
X032796Y009400D01*
X036078Y009400D01*
X036171Y009307D01*
X036332Y009240D01*
X037028Y009240D01*
X037189Y009307D01*
X037313Y009431D01*
X037380Y009592D01*
X037380Y009768D01*
X037313Y009929D01*
X037189Y010053D01*
X037028Y010120D01*
X036332Y010120D01*
X036171Y010053D01*
X036078Y009960D01*
X032624Y009960D01*
X032521Y009917D01*
X031724Y009120D01*
X031636Y009120D01*
X030620Y010136D01*
X030620Y010224D01*
X031638Y011243D01*
X031861Y011243D01*
X032117Y011499D01*
X032117Y011861D01*
X031979Y012000D01*
X034378Y012000D01*
X034307Y011929D01*
X034240Y011768D01*
X034240Y011592D01*
X032117Y011592D01*
X032117Y011751D02*
X034240Y011751D01*
X034240Y011592D02*
X034307Y011431D01*
X034431Y011307D01*
X034592Y011240D01*
X034768Y011240D01*
X034929Y011307D01*
X035053Y011431D01*
X035120Y011592D01*
X035980Y011592D01*
X036047Y011431D01*
X036171Y011307D01*
X036332Y011240D01*
X037028Y011240D01*
X037189Y011307D01*
X037313Y011431D01*
X037354Y011530D01*
X037435Y011450D01*
X039039Y011450D01*
X039047Y011431D01*
X039171Y011307D01*
X039332Y011240D01*
X040028Y011240D01*
X040189Y011307D01*
X040270Y011388D01*
X040270Y010972D01*
X040189Y011053D01*
X040028Y011120D01*
X039332Y011120D01*
X039171Y011053D01*
X039047Y010929D01*
X039039Y010910D01*
X038785Y010910D01*
X038535Y010660D01*
X038400Y010525D01*
X038400Y005285D01*
X039525Y004160D01*
X039481Y004160D01*
X039200Y003879D01*
X039200Y003525D01*
X039160Y003485D01*
X039160Y003879D01*
X038879Y004160D01*
X038481Y004160D01*
X038200Y003879D01*
X038200Y003481D01*
X038221Y003460D01*
X038139Y003460D01*
X038160Y003481D01*
X038160Y003879D01*
X037910Y004129D01*
X037910Y004325D01*
X037775Y004460D01*
X037525Y004710D01*
X036435Y004710D01*
X036300Y004575D01*
X036035Y004310D01*
X031485Y004310D01*
X032327Y005151D01*
X032431Y005047D01*
X032592Y004980D01*
X032768Y004980D01*
X032929Y005047D01*
X033053Y005171D01*
X033120Y005332D01*
X033120Y006028D01*
X033053Y006189D01*
X032929Y006313D01*
X032768Y006380D01*
X032592Y006380D01*
X032431Y006313D01*
X032307Y006189D01*
X032240Y006028D01*
X032240Y005715D01*
X032120Y005595D01*
X032120Y006028D01*
X032053Y006189D01*
X031929Y006313D01*
X031768Y006380D01*
X031592Y006380D01*
X031431Y006313D01*
X031307Y006189D01*
X031240Y006028D01*
X031240Y005715D01*
X031120Y005595D01*
X031120Y006028D01*
X031053Y006189D01*
X030929Y006313D01*
X030768Y006380D01*
X030592Y006380D01*
X030446Y006319D01*
X030417Y006389D01*
X030339Y006467D01*
X029960Y006846D01*
X029969Y006837D02*
X038400Y006837D01*
X038400Y006679D02*
X030127Y006679D01*
X030286Y006520D02*
X038400Y006520D01*
X038400Y006362D02*
X034812Y006362D01*
X034768Y006380D02*
X034592Y006380D01*
X034431Y006313D01*
X034307Y006189D01*
X034240Y006028D01*
X034240Y005332D01*
X034307Y005171D01*
X034431Y005047D01*
X034592Y004980D01*
X034768Y004980D01*
X034929Y005047D01*
X035053Y005171D01*
X035120Y005332D01*
X035120Y006028D01*
X035053Y006189D01*
X034929Y006313D01*
X034768Y006380D01*
X034548Y006362D02*
X033812Y006362D01*
X033768Y006380D02*
X033592Y006380D01*
X033431Y006313D01*
X033307Y006189D01*
X033240Y006028D01*
X033240Y005332D01*
X033307Y005171D01*
X033431Y005047D01*
X033592Y004980D01*
X033768Y004980D01*
X033929Y005047D01*
X034053Y005171D01*
X034120Y005332D01*
X034120Y006028D01*
X034053Y006189D01*
X033929Y006313D01*
X033768Y006380D01*
X033548Y006362D02*
X032812Y006362D01*
X032548Y006362D02*
X031812Y006362D01*
X031548Y006362D02*
X030812Y006362D01*
X030548Y006362D02*
X030429Y006362D01*
X031039Y006203D02*
X031321Y006203D01*
X031247Y006045D02*
X031113Y006045D01*
X031120Y005886D02*
X031240Y005886D01*
X031240Y005728D02*
X031120Y005728D01*
X032120Y005728D02*
X032240Y005728D01*
X032240Y005886D02*
X032120Y005886D01*
X032113Y006045D02*
X032247Y006045D01*
X032321Y006203D02*
X032039Y006203D01*
X033039Y006203D02*
X033321Y006203D01*
X033247Y006045D02*
X033113Y006045D01*
X033120Y005886D02*
X033240Y005886D01*
X033240Y005728D02*
X033120Y005728D01*
X033120Y005569D02*
X033240Y005569D01*
X033240Y005411D02*
X033120Y005411D01*
X033087Y005252D02*
X033273Y005252D01*
X033384Y005094D02*
X032976Y005094D01*
X032384Y005094D02*
X032269Y005094D01*
X032110Y004935D02*
X038750Y004935D01*
X038908Y004777D02*
X031952Y004777D01*
X031793Y004618D02*
X036343Y004618D01*
X036184Y004460D02*
X031635Y004460D01*
X033976Y005094D02*
X034384Y005094D01*
X034273Y005252D02*
X034087Y005252D01*
X034120Y005411D02*
X034240Y005411D01*
X034240Y005569D02*
X034120Y005569D01*
X034120Y005728D02*
X034240Y005728D01*
X034240Y005886D02*
X034120Y005886D01*
X034113Y006045D02*
X034247Y006045D01*
X034321Y006203D02*
X034039Y006203D01*
X035039Y006203D02*
X038400Y006203D01*
X038400Y006045D02*
X035113Y006045D01*
X035120Y005886D02*
X038400Y005886D01*
X038400Y005728D02*
X035120Y005728D01*
X035120Y005569D02*
X038400Y005569D01*
X038400Y005411D02*
X035120Y005411D01*
X035087Y005252D02*
X038433Y005252D01*
X038591Y005094D02*
X034976Y005094D01*
X037617Y004618D02*
X039067Y004618D01*
X039225Y004460D02*
X037776Y004460D01*
X037910Y004301D02*
X039384Y004301D01*
X039464Y004143D02*
X038896Y004143D01*
X039055Y003984D02*
X039305Y003984D01*
X039200Y003826D02*
X039160Y003826D01*
X039160Y003667D02*
X039200Y003667D01*
X039183Y003509D02*
X039160Y003509D01*
X038200Y003509D02*
X038160Y003509D01*
X038160Y003667D02*
X038200Y003667D01*
X038200Y003826D02*
X038160Y003826D01*
X038055Y003984D02*
X038305Y003984D01*
X038464Y004143D02*
X037910Y004143D01*
X038400Y006996D02*
X029960Y006996D01*
X029960Y007154D02*
X038400Y007154D01*
X038400Y007313D02*
X037183Y007313D01*
X037171Y007304D02*
X037227Y007344D01*
X037276Y007393D01*
X037316Y007449D01*
X037348Y007511D01*
X037369Y007577D01*
X037380Y007645D01*
X037380Y007680D01*
X037380Y007715D01*
X037369Y007783D01*
X037348Y007849D01*
X037316Y007911D01*
X037276Y007967D01*
X037227Y008016D01*
X037171Y008056D01*
X037109Y008088D01*
X037043Y008109D01*
X036975Y008120D01*
X036680Y008120D01*
X036680Y007680D01*
X036680Y007680D01*
X037380Y007680D01*
X036680Y007680D01*
X036680Y007680D01*
X036680Y007240D01*
X036975Y007240D01*
X037043Y007251D01*
X037109Y007272D01*
X037171Y007304D01*
X037327Y007471D02*
X038400Y007471D01*
X038400Y007630D02*
X037377Y007630D01*
X037368Y007788D02*
X038400Y007788D01*
X038400Y007947D02*
X037290Y007947D01*
X037056Y008105D02*
X038400Y008105D01*
X038400Y008264D02*
X037084Y008264D01*
X037028Y008240D02*
X037189Y008307D01*
X037313Y008431D01*
X037380Y008592D01*
X037380Y008768D01*
X037313Y008929D01*
X037189Y009053D01*
X037028Y009120D01*
X036332Y009120D01*
X036171Y009053D01*
X036047Y008929D01*
X035980Y008768D01*
X035980Y008592D01*
X036047Y008431D01*
X036171Y008307D01*
X036332Y008240D01*
X037028Y008240D01*
X037304Y008422D02*
X038400Y008422D01*
X038400Y008581D02*
X037375Y008581D01*
X037380Y008739D02*
X038400Y008739D01*
X038400Y008898D02*
X037326Y008898D01*
X037182Y009056D02*
X038400Y009056D01*
X038400Y009215D02*
X032610Y009215D01*
X032452Y009056D02*
X034438Y009056D01*
X034431Y009053D02*
X034307Y008929D01*
X034240Y008768D01*
X034240Y008592D01*
X034307Y008431D01*
X034431Y008307D01*
X034592Y008240D01*
X034768Y008240D01*
X034929Y008307D01*
X035053Y008431D01*
X035120Y008592D01*
X035120Y008768D01*
X035053Y008929D01*
X034929Y009053D01*
X034768Y009120D01*
X034592Y009120D01*
X034431Y009053D01*
X034294Y008898D02*
X032293Y008898D01*
X032135Y008739D02*
X034240Y008739D01*
X034245Y008581D02*
X032115Y008581D01*
X032044Y008422D02*
X034316Y008422D01*
X034536Y008264D02*
X031824Y008264D01*
X031536Y008264D02*
X029960Y008264D01*
X029960Y008422D02*
X031316Y008422D01*
X031245Y008581D02*
X029960Y008581D01*
X029960Y008739D02*
X031225Y008739D01*
X031067Y008898D02*
X030520Y008898D01*
X030620Y009056D02*
X030908Y009056D01*
X030750Y009215D02*
X030620Y009215D01*
X030620Y009180D02*
X030180Y009180D01*
X030180Y009180D01*
X030620Y009180D01*
X030180Y009180D02*
X030180Y008740D01*
X030180Y009180D01*
X030180Y009180D01*
X030180Y009056D02*
X030180Y009056D01*
X030180Y008898D02*
X030180Y008898D01*
X031383Y009373D02*
X031977Y009373D01*
X031819Y009215D02*
X031541Y009215D01*
X031224Y009532D02*
X032136Y009532D01*
X032294Y009690D02*
X031066Y009690D01*
X030907Y009849D02*
X032453Y009849D01*
X032769Y009373D02*
X036105Y009373D01*
X036178Y009056D02*
X034922Y009056D01*
X035066Y008898D02*
X036034Y008898D01*
X035980Y008739D02*
X035120Y008739D01*
X035115Y008581D02*
X035985Y008581D01*
X036056Y008422D02*
X035044Y008422D01*
X034824Y008264D02*
X036276Y008264D01*
X036317Y008109D02*
X036251Y008088D01*
X036189Y008056D01*
X036133Y008016D01*
X036084Y007967D01*
X036044Y007911D01*
X036012Y007849D01*
X035991Y007783D01*
X035980Y007715D01*
X035980Y007680D01*
X036680Y007680D01*
X036680Y007680D01*
X036680Y007680D01*
X036680Y008120D01*
X036385Y008120D01*
X036317Y008109D01*
X036304Y008105D02*
X029960Y008105D01*
X029960Y007947D02*
X036070Y007947D01*
X035992Y007788D02*
X029960Y007788D01*
X029960Y007630D02*
X035983Y007630D01*
X035980Y007645D02*
X035991Y007577D01*
X036012Y007511D01*
X036044Y007449D01*
X036084Y007393D01*
X036133Y007344D01*
X036189Y007304D01*
X036251Y007272D01*
X036317Y007251D01*
X036385Y007240D01*
X036680Y007240D01*
X036680Y007680D01*
X035980Y007680D01*
X035980Y007645D01*
X036033Y007471D02*
X029960Y007471D01*
X029960Y007313D02*
X036177Y007313D01*
X036680Y007313D02*
X036680Y007313D01*
X036680Y007471D02*
X036680Y007471D01*
X036680Y007630D02*
X036680Y007630D01*
X036680Y007788D02*
X036680Y007788D01*
X036680Y007947D02*
X036680Y007947D01*
X036680Y008105D02*
X036680Y008105D01*
X037255Y009373D02*
X038400Y009373D01*
X038400Y009532D02*
X037355Y009532D01*
X037380Y009690D02*
X038400Y009690D01*
X038400Y009849D02*
X037346Y009849D01*
X037235Y010007D02*
X038400Y010007D01*
X038400Y010166D02*
X030620Y010166D01*
X030720Y010324D02*
X036154Y010324D01*
X036171Y010307D02*
X036332Y010240D01*
X037028Y010240D01*
X037189Y010307D01*
X037313Y010431D01*
X037380Y010592D01*
X037380Y010768D01*
X037313Y010929D01*
X037189Y011053D01*
X037028Y011120D01*
X036332Y011120D01*
X036171Y011053D01*
X036047Y010929D01*
X035980Y010768D01*
X035980Y010592D01*
X036047Y010431D01*
X036171Y010307D01*
X036026Y010483D02*
X030878Y010483D01*
X031037Y010641D02*
X035980Y010641D01*
X035993Y010800D02*
X031195Y010800D01*
X031354Y010958D02*
X036076Y010958D01*
X036324Y011117D02*
X031512Y011117D01*
X031894Y011275D02*
X034508Y011275D01*
X034306Y011434D02*
X032052Y011434D01*
X032070Y011909D02*
X034299Y011909D01*
X034982Y012000D02*
X035053Y011929D01*
X035120Y011768D01*
X035120Y011592D01*
X035120Y011751D02*
X035980Y011751D01*
X035980Y011768D02*
X035980Y011592D01*
X036046Y011434D02*
X035054Y011434D01*
X034852Y011275D02*
X036248Y011275D01*
X037036Y011117D02*
X039324Y011117D01*
X039248Y011275D02*
X037112Y011275D01*
X037314Y011434D02*
X039046Y011434D01*
X040036Y011117D02*
X040270Y011117D01*
X040270Y011275D02*
X040112Y011275D01*
X039076Y010958D02*
X037284Y010958D01*
X037367Y010800D02*
X038674Y010800D01*
X038516Y010641D02*
X037380Y010641D01*
X037334Y010483D02*
X038400Y010483D01*
X038400Y010324D02*
X037206Y010324D01*
X036125Y010007D02*
X030749Y010007D01*
X028180Y010680D02*
X027740Y010680D01*
X028180Y010680D01*
X028180Y010680D01*
X027740Y010680D02*
X027740Y010385D01*
X027751Y010317D01*
X027772Y010251D01*
X027804Y010189D01*
X027844Y010133D01*
X027893Y010084D01*
X027949Y010044D01*
X027969Y010034D01*
X027906Y010060D01*
X027754Y010060D01*
X027615Y010002D01*
X027508Y009895D01*
X027488Y009847D01*
X027330Y010006D01*
X027429Y010047D01*
X027553Y010171D01*
X027620Y010332D01*
X027620Y011028D01*
X027553Y011189D01*
X027429Y011313D01*
X027268Y011380D01*
X027092Y011380D01*
X026931Y011313D01*
X026827Y011209D01*
X026560Y011475D01*
X026425Y011610D01*
X025992Y011610D01*
X026016Y011633D01*
X026056Y011689D01*
X026088Y011751D01*
X026109Y011817D01*
X026120Y011885D01*
X026120Y012180D01*
X026120Y012475D01*
X026109Y012543D01*
X027220Y012543D01*
X027220Y012551D02*
X027220Y011808D01*
X027290Y011639D01*
X027419Y011510D01*
X027588Y011440D01*
X027771Y011440D01*
X027941Y011510D01*
X027983Y011552D01*
X028155Y011380D01*
X028145Y011380D01*
X028077Y011369D01*
X028011Y011348D01*
X027949Y011316D01*
X027893Y011276D01*
X027844Y011227D01*
X027804Y011171D01*
X027772Y011109D01*
X027751Y011043D01*
X027740Y010975D01*
X027740Y010680D01*
X027740Y010641D02*
X027620Y010641D01*
X027620Y010483D02*
X027740Y010483D01*
X027750Y010324D02*
X027616Y010324D01*
X027548Y010166D02*
X027821Y010166D01*
X027626Y010007D02*
X027333Y010007D01*
X027487Y009849D02*
X027488Y009849D01*
X027620Y010800D02*
X027740Y010800D01*
X027740Y010958D02*
X027620Y010958D01*
X027583Y011117D02*
X027776Y011117D01*
X027893Y011275D02*
X027467Y011275D01*
X028101Y011434D02*
X026602Y011434D01*
X026443Y011592D02*
X027337Y011592D01*
X027244Y011751D02*
X026087Y011751D01*
X026120Y011909D02*
X027220Y011909D01*
X027220Y012068D02*
X026120Y012068D01*
X026120Y012180D02*
X025680Y012180D01*
X026120Y012180D01*
X026120Y012226D02*
X027220Y012226D01*
X027220Y012385D02*
X026120Y012385D01*
X026109Y012543D02*
X026088Y012609D01*
X026056Y012671D01*
X026035Y012700D01*
X027282Y012700D01*
X027220Y012551D01*
X025680Y012180D02*
X025680Y012180D01*
X025680Y012180D01*
X025240Y012180D01*
X025240Y012415D01*
X025120Y012295D01*
X025120Y011832D01*
X025053Y011671D01*
X024992Y011610D01*
X025368Y011610D01*
X025344Y011633D01*
X025304Y011689D01*
X025272Y011751D01*
X025251Y011817D01*
X025240Y011885D01*
X025240Y012180D01*
X025680Y012180D01*
X025240Y012226D02*
X025120Y012226D01*
X025120Y012068D02*
X025240Y012068D01*
X025240Y011909D02*
X025120Y011909D01*
X025086Y011751D02*
X025273Y011751D01*
X025240Y012385D02*
X025210Y012385D01*
X026760Y011275D02*
X026893Y011275D01*
X029060Y014525D02*
X030775Y012810D01*
X031173Y012810D01*
X031265Y012902D01*
X031404Y012960D01*
X031556Y012960D01*
X031695Y012902D01*
X031802Y012795D01*
X031860Y012656D01*
X031860Y012504D01*
X031842Y012460D01*
X036035Y012460D01*
X035980Y012592D01*
X035980Y012768D01*
X036047Y012929D01*
X036171Y013053D01*
X036332Y013120D01*
X037028Y013120D01*
X037189Y013053D01*
X037313Y012929D01*
X037380Y012768D01*
X037380Y012592D01*
X037313Y012431D01*
X037209Y012327D01*
X037210Y012325D01*
X037625Y011910D01*
X039039Y011910D01*
X039047Y011929D01*
X039171Y012053D01*
X039332Y012120D01*
X040028Y012120D01*
X040189Y012053D01*
X040270Y011972D01*
X040270Y012388D01*
X040189Y012307D01*
X040028Y012240D01*
X039332Y012240D01*
X039171Y012307D01*
X039047Y012431D01*
X038980Y012592D01*
X038980Y012768D01*
X039047Y012929D01*
X039171Y013053D01*
X039332Y013120D01*
X040028Y013120D01*
X040189Y013053D01*
X040270Y012972D01*
X040270Y013388D01*
X040189Y013307D01*
X040028Y013240D01*
X039332Y013240D01*
X039171Y013307D01*
X039078Y013400D01*
X037282Y013400D01*
X037189Y013307D01*
X037028Y013240D01*
X036332Y013240D01*
X036171Y013307D01*
X036047Y013431D01*
X035980Y013592D01*
X035980Y013768D01*
X036047Y013929D01*
X036171Y014053D01*
X036332Y014120D01*
X037028Y014120D01*
X037189Y014053D01*
X037282Y013960D01*
X039078Y013960D01*
X039171Y014053D01*
X039332Y014120D01*
X040028Y014120D01*
X040189Y014053D01*
X040270Y013972D01*
X040270Y015896D01*
X028829Y015896D01*
X028941Y015850D01*
X029070Y015721D01*
X029140Y015551D01*
X029140Y014808D01*
X029070Y014639D01*
X029008Y014577D01*
X029060Y014525D01*
X029034Y014604D02*
X031240Y014604D01*
X031240Y014592D02*
X031307Y014431D01*
X031431Y014307D01*
X031592Y014240D01*
X031768Y014240D01*
X031929Y014307D01*
X032053Y014431D01*
X032120Y014592D01*
X032120Y014768D01*
X032053Y014929D01*
X031929Y015053D01*
X031768Y015120D01*
X031592Y015120D01*
X031431Y015053D01*
X031307Y014929D01*
X031240Y014768D01*
X031240Y014592D01*
X031301Y014445D02*
X029140Y014445D01*
X029299Y014287D02*
X031480Y014287D01*
X031880Y014287D02*
X034483Y014287D01*
X034511Y014272D02*
X034577Y014251D01*
X034645Y014240D01*
X034680Y014240D01*
X034715Y014240D01*
X034783Y014251D01*
X034849Y014272D01*
X034911Y014304D01*
X034967Y014344D01*
X035016Y014393D01*
X035056Y014449D01*
X035088Y014511D01*
X035109Y014577D01*
X035120Y014645D01*
X035120Y014680D01*
X035120Y014715D01*
X035109Y014783D01*
X035088Y014849D01*
X035056Y014911D01*
X035016Y014967D01*
X034967Y015016D01*
X034911Y015056D01*
X034849Y015088D01*
X034783Y015109D01*
X034715Y015120D01*
X034680Y015120D01*
X034680Y014680D01*
X034680Y014680D01*
X035120Y014680D01*
X034680Y014680D01*
X034680Y014680D01*
X034680Y014680D01*
X034240Y014680D01*
X034240Y014715D01*
X034251Y014783D01*
X034272Y014849D01*
X034304Y014911D01*
X034344Y014967D01*
X034393Y015016D01*
X034449Y015056D01*
X034511Y015088D01*
X034577Y015109D01*
X034645Y015120D01*
X034680Y015120D01*
X034680Y014680D01*
X034680Y014240D01*
X034680Y014680D01*
X034680Y014680D01*
X034240Y014680D01*
X034240Y014645D01*
X034251Y014577D01*
X034272Y014511D01*
X034304Y014449D01*
X034344Y014393D01*
X034393Y014344D01*
X034449Y014304D01*
X034511Y014272D01*
X034680Y014287D02*
X034680Y014287D01*
X034680Y014445D02*
X034680Y014445D01*
X034680Y014604D02*
X034680Y014604D01*
X034680Y014762D02*
X034680Y014762D01*
X034680Y014921D02*
X034680Y014921D01*
X034680Y015079D02*
X034680Y015079D01*
X034494Y015079D02*
X031866Y015079D01*
X032057Y014921D02*
X034311Y014921D01*
X034248Y014762D02*
X032120Y014762D01*
X032120Y014604D02*
X034247Y014604D01*
X034307Y014445D02*
X032059Y014445D01*
X031240Y014762D02*
X029121Y014762D01*
X029140Y014921D02*
X031303Y014921D01*
X031494Y015079D02*
X029140Y015079D01*
X029140Y015238D02*
X038240Y015238D01*
X038240Y015180D02*
X038240Y015362D01*
X038498Y015620D01*
X038680Y015620D01*
X038862Y015620D01*
X039120Y015362D01*
X039120Y015180D01*
X038680Y015180D01*
X038680Y015180D01*
X038680Y015180D01*
X038680Y015620D01*
X038680Y015180D01*
X039120Y015180D01*
X039120Y014998D01*
X038862Y014740D01*
X038680Y014740D01*
X038680Y015180D01*
X038680Y015180D01*
X038680Y015180D01*
X038240Y015180D01*
X038240Y014998D01*
X038498Y014740D01*
X038680Y014740D01*
X038680Y015180D01*
X038240Y015180D01*
X038240Y015079D02*
X034866Y015079D01*
X035049Y014921D02*
X038317Y014921D01*
X038476Y014762D02*
X035112Y014762D01*
X035113Y014604D02*
X040270Y014604D01*
X040270Y014762D02*
X039884Y014762D01*
X039862Y014740D02*
X040120Y014998D01*
X040120Y015362D01*
X039862Y015620D01*
X039498Y015620D01*
X039240Y015362D01*
X039240Y014998D01*
X039498Y014740D01*
X039862Y014740D01*
X040043Y014921D02*
X040270Y014921D01*
X040270Y015079D02*
X040120Y015079D01*
X040120Y015238D02*
X040270Y015238D01*
X040270Y015396D02*
X040086Y015396D01*
X039928Y015555D02*
X040270Y015555D01*
X040270Y015713D02*
X029073Y015713D01*
X029139Y015555D02*
X038432Y015555D01*
X038274Y015396D02*
X029140Y015396D01*
X028889Y015872D02*
X040270Y015872D01*
X039432Y015555D02*
X038928Y015555D01*
X039086Y015396D02*
X039274Y015396D01*
X039240Y015238D02*
X039120Y015238D01*
X039120Y015079D02*
X039240Y015079D01*
X039317Y014921D02*
X039043Y014921D01*
X038884Y014762D02*
X039476Y014762D01*
X038680Y014762D02*
X038680Y014762D01*
X038680Y014921D02*
X038680Y014921D01*
X038680Y015079D02*
X038680Y015079D01*
X038680Y015238D02*
X038680Y015238D01*
X038680Y015396D02*
X038680Y015396D01*
X038680Y015555D02*
X038680Y015555D01*
X040270Y014445D02*
X035053Y014445D01*
X034877Y014287D02*
X040270Y014287D01*
X040270Y014128D02*
X029457Y014128D01*
X029616Y013970D02*
X036087Y013970D01*
X035998Y013811D02*
X029774Y013811D01*
X029933Y013653D02*
X035980Y013653D01*
X036021Y013494D02*
X030091Y013494D01*
X030250Y013336D02*
X036142Y013336D01*
X036136Y013019D02*
X030567Y013019D01*
X030408Y013177D02*
X040270Y013177D01*
X040270Y013019D02*
X040224Y013019D01*
X040218Y013336D02*
X040270Y013336D01*
X039142Y013336D02*
X037218Y013336D01*
X037224Y013019D02*
X039136Y013019D01*
X039018Y012860D02*
X037342Y012860D01*
X037380Y012702D02*
X038980Y012702D01*
X039000Y012543D02*
X037360Y012543D01*
X037267Y012385D02*
X039093Y012385D01*
X039206Y012068D02*
X037468Y012068D01*
X037309Y012226D02*
X040270Y012226D01*
X040270Y012068D02*
X040154Y012068D01*
X040267Y012385D02*
X040270Y012385D01*
X039087Y013970D02*
X037273Y013970D01*
X036018Y012860D02*
X031737Y012860D01*
X031841Y012702D02*
X035980Y012702D01*
X036000Y012543D02*
X031860Y012543D01*
X031223Y012860D02*
X030725Y012860D01*
X034982Y012000D02*
X036118Y012000D01*
X036047Y011929D01*
X035980Y011768D01*
X036039Y011909D02*
X035061Y011909D01*
X018900Y003350D02*
X018840Y003350D01*
X002881Y008264D02*
X002479Y008264D01*
X002588Y008105D02*
X002772Y008105D01*
X002740Y007947D02*
X002620Y007947D01*
X002620Y007788D02*
X002740Y007788D01*
X002740Y007630D02*
X002620Y007630D01*
X002620Y007471D02*
X002740Y007471D01*
X002748Y007313D02*
X002612Y007313D01*
X001824Y007154D02*
X001536Y007154D01*
X001612Y007313D02*
X001748Y007313D01*
X001740Y007471D02*
X001620Y007471D01*
X001620Y007630D02*
X001740Y007630D01*
X001740Y007788D02*
X001620Y007788D01*
X001620Y007947D02*
X001740Y007947D01*
X001772Y008105D02*
X001588Y008105D01*
X001479Y008264D02*
X001881Y008264D01*
M02*
