%
M48
M72
T01C0.0240
T02C0.0315
T03C0.0320
T04C0.0360
T05C0.0400
%
T01
X14480Y6530
X13180Y6830
X10980Y8530
X13180Y9030
X13980Y9580
X15780Y8530
X17880Y8530
X17730Y9330
X18230Y9330
X20180Y8530
X23480Y9730
X21580Y9980
X26830Y9680
X27830Y9680
X27530Y8980
X31480Y12580
X37430Y11280
X38980Y10280
X37280Y4130
X35680Y3030
X22830Y4680
X6380Y6630
X4530Y9530
X7880Y11480
X23280Y12930
T02
X31680Y11680
T03
X29180Y10680
X28180Y10680
X27180Y10680
X26180Y10680
X25180Y10680
X24180Y10680
X23180Y10680
X22180Y10680
X21180Y10680
X20180Y10680
X19180Y10680
X18180Y10680
X17180Y10680
X16180Y10680
X14180Y10680
X13180Y10680
X12180Y10680
X11180Y10680
X10180Y10680
X9180Y10680
X8180Y10680
X7180Y10680
X6180Y10680
X5180Y10680
X4180Y10680
X3180Y10680
X2180Y10680
X1180Y10680
X1180Y7680
X2180Y7680
X3180Y7680
X4180Y7680
X5180Y7680
X6180Y7680
X7180Y7680
X8180Y7680
X9180Y7680
X10180Y7680
X11180Y7680
X12180Y7680
X13180Y7680
X14180Y7680
X16180Y7680
X17180Y7680
X18180Y7680
X19180Y7680
X20180Y7680
X21180Y7680
X22180Y7680
X23180Y7680
X24180Y7680
X25180Y7680
X26180Y7680
X27180Y7680
X28180Y7680
X29180Y7680
X31680Y8680
X30180Y9180
X30180Y10180
X34680Y8680
X36680Y8680
X36680Y9680
X36680Y10680
X36680Y11680
X34680Y11680
X36680Y12680
X36680Y13680
X34680Y14680
X31680Y14680
X25680Y15180
X24680Y15180
X23680Y15180
X22680Y15180
X21680Y15180
X20680Y15180
X19680Y15180
X18680Y15180
X17180Y13680
X17180Y12680
X18680Y12180
X19680Y12180
X20680Y12180
X21680Y12180
X22680Y12180
X23680Y12180
X24680Y12180
X25680Y12180
X36680Y7680
X39680Y7680
X39680Y8680
X39680Y9680
X39680Y10680
X39680Y11680
X39680Y12680
X39680Y13680
X39680Y15180
X38680Y15180
X25180Y6680
X24180Y6680
X23680Y5680
X22680Y5680
X21680Y5680
X20680Y5680
X19680Y5680
X18680Y5680
X16680Y5680
X15680Y5680
X14680Y5680
X13680Y5680
X12680Y5680
X11680Y5680
X10680Y5680
X9680Y5680
X7680Y5680
X6680Y5680
X5680Y5680
X4680Y5680
X3680Y5680
X2680Y5680
X1680Y5680
X680Y5680
X680Y2680
X1680Y2680
X2680Y2680
X3680Y2680
X4680Y2680
X5680Y2680
X6680Y2680
X7680Y2680
X9680Y2680
X10680Y2680
X11680Y2680
X12680Y2680
X13680Y2680
X14680Y2680
X15680Y2680
X16680Y2680
X18680Y2680
X19680Y2680
X20680Y2680
X21680Y2680
X22680Y2680
X23680Y2680
X24680Y2680
X25680Y2680
X27680Y2680
X28680Y2680
X29680Y2680
X30680Y2680
X31680Y2680
X32680Y2680
X33680Y2680
X34680Y2680
X34680Y5680
X33680Y5680
X32680Y5680
X31680Y5680
X30680Y5680
X29680Y5680
X28680Y5680
X27680Y5680
X25680Y5680
X24680Y5680
X10180Y6680
X9180Y6680
X10680Y12180
X10680Y15180
T04
X12180Y12680
X13180Y12680
X14180Y12680
X27680Y12180
X28680Y12180
X28680Y13680
X27680Y13680
X27680Y15180
X28680Y15180
T05
X680Y1180
X1680Y1180
X2680Y1180
X3680Y1180
X4680Y1180
X5680Y1180
X6680Y1180
X7680Y1180
X8680Y1180
X9680Y1180
X10680Y1180
X11680Y1180
X12680Y1180
X13680Y1180
X14680Y1180
X15680Y1180
X16680Y1180
X17680Y1180
X18680Y1180
X19680Y1180
X20680Y1180
X21680Y1180
X22680Y1180
X23680Y1180
X24680Y1180
X25680Y1180
X26680Y1180
X27680Y1180
X28680Y1180
X29680Y1180
X30680Y1180
X31680Y1180
X32680Y1180
X33680Y1180
X34680Y1180
X35680Y1180
X36680Y1180
X37680Y1180
X38680Y1180
X39680Y1180
X39680Y2680
X38680Y2680
X37680Y2680
X36680Y2680
X36680Y3680
X37680Y3680
X38680Y3680
X39680Y3680
X9680Y13180
X6680Y13180
X4180Y13680
X3180Y13680
X2180Y13680
X6680Y15180
X9680Y15180
M30
