G75*
%MOIN*%
%OFA0B0*%
%FSLAX24Y24*%
%IPPOS*%
%LPD*%
%AMOC8*
5,1,8,0,0,1.08239X$1,22.5*
%
%ADD10C,0.0000*%
D10*
X000180Y000180D02*
X000180Y016176D01*
X040550Y016176D01*
X040550Y000180D01*
X000180Y000180D01*
X034520Y011680D02*
X034522Y011705D01*
X034528Y011729D01*
X034537Y011753D01*
X034551Y011774D01*
X034567Y011793D01*
X034586Y011809D01*
X034607Y011823D01*
X034631Y011832D01*
X034655Y011838D01*
X034680Y011840D01*
X034705Y011838D01*
X034729Y011832D01*
X034753Y011823D01*
X034774Y011809D01*
X034793Y011793D01*
X034809Y011774D01*
X034823Y011753D01*
X034832Y011729D01*
X034838Y011705D01*
X034840Y011680D01*
X034838Y011655D01*
X034832Y011631D01*
X034823Y011607D01*
X034809Y011586D01*
X034793Y011567D01*
X034774Y011551D01*
X034753Y011537D01*
X034729Y011528D01*
X034705Y011522D01*
X034680Y011520D01*
X034655Y011522D01*
X034631Y011528D01*
X034607Y011537D01*
X034586Y011551D01*
X034567Y011567D01*
X034551Y011586D01*
X034537Y011607D01*
X034528Y011631D01*
X034522Y011655D01*
X034520Y011680D01*
M02*
