G75*
%MOIN*%
%OFA0B0*%
%FSLAX24Y24*%
%IPPOS*%
%LPD*%
%AMOC8*
5,1,8,0,0,1.08239X$1,22.5*
%
%ADD10C,0.0520*%
%ADD11C,0.0600*%
%ADD12C,0.0560*%
%ADD13OC8,0.0520*%
%ADD14C,0.0520*%
%ADD15OC8,0.0515*%
%ADD16OC8,0.0600*%
%ADD17C,0.0100*%
%ADD18C,0.0400*%
%ADD19C,0.0200*%
D10*
X000680Y002420D02*
X000680Y002940D01*
X001680Y002940D02*
X001680Y002420D01*
X002680Y002420D02*
X002680Y002940D01*
X003680Y002940D02*
X003680Y002420D01*
X004680Y002420D02*
X004680Y002940D01*
X005680Y002940D02*
X005680Y002420D01*
X006680Y002420D02*
X006680Y002940D01*
X007680Y002940D02*
X007680Y002420D01*
X009680Y002420D02*
X009680Y002940D01*
X010680Y002940D02*
X010680Y002420D01*
X011680Y002420D02*
X011680Y002940D01*
X012680Y002940D02*
X012680Y002420D01*
X013680Y002420D02*
X013680Y002940D01*
X014680Y002940D02*
X014680Y002420D01*
X015680Y002420D02*
X015680Y002940D01*
X016680Y002940D02*
X016680Y002420D01*
X018680Y002420D02*
X018680Y002940D01*
X019680Y002940D02*
X019680Y002420D01*
X020680Y002420D02*
X020680Y002940D01*
X021680Y002940D02*
X021680Y002420D01*
X022680Y002420D02*
X022680Y002940D01*
X023680Y002940D02*
X023680Y002420D01*
X024680Y002420D02*
X024680Y002940D01*
X025680Y002940D02*
X025680Y002420D01*
X027680Y002420D02*
X027680Y002940D01*
X028680Y002940D02*
X028680Y002420D01*
X029680Y002420D02*
X029680Y002940D01*
X030680Y002940D02*
X030680Y002420D01*
X031680Y002420D02*
X031680Y002940D01*
X032680Y002940D02*
X032680Y002420D01*
X033680Y002420D02*
X033680Y002940D01*
X034680Y002940D02*
X034680Y002420D01*
X034680Y005420D02*
X034680Y005940D01*
X033680Y005940D02*
X033680Y005420D01*
X032680Y005420D02*
X032680Y005940D01*
X031680Y005940D02*
X031680Y005420D01*
X030680Y005420D02*
X030680Y005940D01*
X029680Y005940D02*
X029680Y005420D01*
X028680Y005420D02*
X028680Y005940D01*
X027680Y005940D02*
X027680Y005420D01*
X025680Y005420D02*
X025680Y005940D01*
X024680Y005940D02*
X024680Y005420D01*
X023680Y005420D02*
X023680Y005940D01*
X022680Y005940D02*
X022680Y005420D01*
X021680Y005420D02*
X021680Y005940D01*
X020680Y005940D02*
X020680Y005420D01*
X019680Y005420D02*
X019680Y005940D01*
X018680Y005940D02*
X018680Y005420D01*
X016680Y005420D02*
X016680Y005940D01*
X015680Y005940D02*
X015680Y005420D01*
X014680Y005420D02*
X014680Y005940D01*
X013680Y005940D02*
X013680Y005420D01*
X012680Y005420D02*
X012680Y005940D01*
X011680Y005940D02*
X011680Y005420D01*
X010680Y005420D02*
X010680Y005940D01*
X009680Y005940D02*
X009680Y005420D01*
X007680Y005420D02*
X007680Y005940D01*
X006680Y005940D02*
X006680Y005420D01*
X005680Y005420D02*
X005680Y005940D01*
X004680Y005940D02*
X004680Y005420D01*
X003680Y005420D02*
X003680Y005940D01*
X002680Y005940D02*
X002680Y005420D01*
X001680Y005420D02*
X001680Y005940D01*
X000680Y005940D02*
X000680Y005420D01*
X001180Y007420D02*
X001180Y007940D01*
X002180Y007940D02*
X002180Y007420D01*
X003180Y007420D02*
X003180Y007940D01*
X004180Y007940D02*
X004180Y007420D01*
X005180Y007420D02*
X005180Y007940D01*
X006180Y007940D02*
X006180Y007420D01*
X007180Y007420D02*
X007180Y007940D01*
X008180Y007940D02*
X008180Y007420D01*
X009180Y007420D02*
X009180Y007940D01*
X010180Y007940D02*
X010180Y007420D01*
X011180Y007420D02*
X011180Y007940D01*
X012180Y007940D02*
X012180Y007420D01*
X013180Y007420D02*
X013180Y007940D01*
X014180Y007940D02*
X014180Y007420D01*
X016180Y007420D02*
X016180Y007940D01*
X017180Y007940D02*
X017180Y007420D01*
X018180Y007420D02*
X018180Y007940D01*
X019180Y007940D02*
X019180Y007420D01*
X020180Y007420D02*
X020180Y007940D01*
X021180Y007940D02*
X021180Y007420D01*
X022180Y007420D02*
X022180Y007940D01*
X023180Y007940D02*
X023180Y007420D01*
X024180Y007420D02*
X024180Y007940D01*
X025180Y007940D02*
X025180Y007420D01*
X026180Y007420D02*
X026180Y007940D01*
X027180Y007940D02*
X027180Y007420D01*
X028180Y007420D02*
X028180Y007940D01*
X029180Y007940D02*
X029180Y007420D01*
X029180Y010420D02*
X029180Y010940D01*
X028180Y010940D02*
X028180Y010420D01*
X027180Y010420D02*
X027180Y010940D01*
X026180Y010940D02*
X026180Y010420D01*
X025180Y010420D02*
X025180Y010940D01*
X024180Y010940D02*
X024180Y010420D01*
X023180Y010420D02*
X023180Y010940D01*
X022180Y010940D02*
X022180Y010420D01*
X021180Y010420D02*
X021180Y010940D01*
X020180Y010940D02*
X020180Y010420D01*
X019180Y010420D02*
X019180Y010940D01*
X018180Y010940D02*
X018180Y010420D01*
X017180Y010420D02*
X017180Y010940D01*
X016180Y010940D02*
X016180Y010420D01*
X014180Y010420D02*
X014180Y010940D01*
X013180Y010940D02*
X013180Y010420D01*
X012180Y010420D02*
X012180Y010940D01*
X011180Y010940D02*
X011180Y010420D01*
X010180Y010420D02*
X010180Y010940D01*
X009180Y010940D02*
X009180Y010420D01*
X008180Y010420D02*
X008180Y010940D01*
X007180Y010940D02*
X007180Y010420D01*
X006180Y010420D02*
X006180Y010940D01*
X005180Y010940D02*
X005180Y010420D01*
X004180Y010420D02*
X004180Y010940D01*
X003180Y010940D02*
X003180Y010420D01*
X002180Y010420D02*
X002180Y010940D01*
X001180Y010940D02*
X001180Y010420D01*
X018680Y011920D02*
X018680Y012440D01*
X019680Y012440D02*
X019680Y011920D01*
X020680Y011920D02*
X020680Y012440D01*
X021680Y012440D02*
X021680Y011920D01*
X022680Y011920D02*
X022680Y012440D01*
X023680Y012440D02*
X023680Y011920D01*
X024680Y011920D02*
X024680Y012440D01*
X025680Y012440D02*
X025680Y011920D01*
X025680Y014920D02*
X025680Y015440D01*
X024680Y015440D02*
X024680Y014920D01*
X023680Y014920D02*
X023680Y015440D01*
X022680Y015440D02*
X022680Y014920D01*
X021680Y014920D02*
X021680Y015440D01*
X020680Y015440D02*
X020680Y014920D01*
X019680Y014920D02*
X019680Y015440D01*
X018680Y015440D02*
X018680Y014920D01*
X036420Y013680D02*
X036940Y013680D01*
X036940Y012680D02*
X036420Y012680D01*
X036420Y011680D02*
X036940Y011680D01*
X036940Y010680D02*
X036420Y010680D01*
X036420Y009680D02*
X036940Y009680D01*
X036940Y008680D02*
X036420Y008680D01*
X036420Y007680D02*
X036940Y007680D01*
X039420Y007680D02*
X039940Y007680D01*
X039940Y008680D02*
X039420Y008680D01*
X039420Y009680D02*
X039940Y009680D01*
X039940Y010680D02*
X039420Y010680D01*
X039420Y011680D02*
X039940Y011680D01*
X039940Y012680D02*
X039420Y012680D01*
X039420Y013680D02*
X039940Y013680D01*
D11*
X000680Y001480D02*
X000680Y000880D01*
X001680Y000880D02*
X001680Y001480D01*
X002680Y001480D02*
X002680Y000880D01*
X003680Y000880D02*
X003680Y001480D01*
X004680Y001480D02*
X004680Y000880D01*
X005680Y000880D02*
X005680Y001480D01*
X006680Y001480D02*
X006680Y000880D01*
X007680Y000880D02*
X007680Y001480D01*
X008680Y001480D02*
X008680Y000880D01*
X009680Y000880D02*
X009680Y001480D01*
X010680Y001480D02*
X010680Y000880D01*
X011680Y000880D02*
X011680Y001480D01*
X012680Y001480D02*
X012680Y000880D01*
X013680Y000880D02*
X013680Y001480D01*
X014680Y001480D02*
X014680Y000880D01*
X015680Y000880D02*
X015680Y001480D01*
X016680Y001480D02*
X016680Y000880D01*
X017680Y000880D02*
X017680Y001480D01*
X018680Y001480D02*
X018680Y000880D01*
X019680Y000880D02*
X019680Y001480D01*
X020680Y001480D02*
X020680Y000880D01*
X021680Y000880D02*
X021680Y001480D01*
X022680Y001480D02*
X022680Y000880D01*
X023680Y000880D02*
X023680Y001480D01*
X024680Y001480D02*
X024680Y000880D01*
X025680Y000880D02*
X025680Y001480D01*
X026680Y001480D02*
X026680Y000880D01*
X027680Y000880D02*
X027680Y001480D01*
X028680Y001480D02*
X028680Y000880D01*
X029680Y000880D02*
X029680Y001480D01*
X030680Y001480D02*
X030680Y000880D01*
X031680Y000880D02*
X031680Y001480D01*
X032680Y001480D02*
X032680Y000880D01*
X033680Y000880D02*
X033680Y001480D01*
X034680Y001480D02*
X034680Y000880D01*
X035680Y000880D02*
X035680Y001480D01*
X036680Y001480D02*
X036680Y000880D01*
X037680Y000880D02*
X037680Y001480D01*
X038680Y001480D02*
X038680Y000880D01*
X039680Y000880D02*
X039680Y001480D01*
X009980Y013180D02*
X009380Y013180D01*
X006980Y013180D02*
X006380Y013180D01*
X004180Y013380D02*
X004180Y013980D01*
X003180Y013980D02*
X003180Y013380D01*
X002180Y013380D02*
X002180Y013980D01*
X006380Y015180D02*
X006980Y015180D01*
X009380Y015180D02*
X009980Y015180D01*
D12*
X012180Y012960D02*
X012180Y012400D01*
X013180Y012400D02*
X013180Y012960D01*
X014180Y012960D02*
X014180Y012400D01*
X027680Y012460D02*
X027680Y011900D01*
X028680Y011900D02*
X028680Y012460D01*
X028680Y013400D02*
X028680Y013960D01*
X027680Y013960D02*
X027680Y013400D01*
X027680Y014900D02*
X027680Y015460D01*
X028680Y015460D02*
X028680Y014900D01*
D13*
X038680Y015180D03*
X039680Y015180D03*
X030180Y010180D03*
X030180Y009180D03*
X025180Y006680D03*
X024180Y006680D03*
X010680Y012180D03*
X017180Y012680D03*
X017180Y013680D03*
X010680Y015180D03*
X010180Y006680D03*
X009180Y006680D03*
D14*
X031680Y008680D03*
X034680Y008680D03*
X034680Y014680D03*
X031680Y014680D03*
D15*
X031680Y011680D03*
D16*
X036680Y003680D03*
X037680Y003680D03*
X038680Y003680D03*
X039680Y003680D03*
X039680Y002680D03*
X038680Y002680D03*
X037680Y002680D03*
X036680Y002680D03*
D17*
X036680Y001180D01*
X035680Y001180D02*
X035680Y002530D01*
X034230Y003980D01*
X034230Y006730D01*
X029580Y011380D01*
X028580Y011380D01*
X028230Y011730D01*
X028230Y012630D01*
X028680Y013080D01*
X028680Y013680D01*
X027680Y013680D02*
X025330Y013680D01*
X023830Y015180D01*
X023680Y015180D01*
X024680Y015180D02*
X024830Y015180D01*
X025530Y015880D01*
X026980Y015880D01*
X027680Y015180D01*
X027530Y014430D02*
X026780Y015180D01*
X025680Y015180D01*
X024230Y014480D02*
X021530Y014480D01*
X021130Y014880D01*
X021130Y015580D01*
X020830Y015880D01*
X020380Y015880D01*
X019680Y015180D01*
X020680Y015180D02*
X020680Y015030D01*
X023130Y012580D01*
X023130Y011880D01*
X023530Y011480D01*
X024230Y011480D01*
X024630Y011080D01*
X024630Y010380D01*
X027180Y007830D01*
X027180Y007680D01*
X026630Y007380D02*
X026630Y008080D01*
X024730Y009980D01*
X024030Y009980D01*
X023630Y010380D01*
X023630Y011080D01*
X023330Y011380D01*
X023030Y011380D01*
X022630Y010980D01*
X022630Y010280D01*
X022330Y009980D01*
X021580Y009980D01*
X020630Y010280D02*
X019680Y009330D01*
X018230Y009330D01*
X017730Y009330D02*
X018380Y009980D01*
X019480Y009980D01*
X020180Y010680D01*
X020630Y010980D02*
X020630Y010280D01*
X020630Y010980D02*
X021680Y012030D01*
X021680Y012180D01*
X022530Y012180D02*
X020230Y014480D01*
X011380Y014480D01*
X010680Y015180D01*
X009680Y015180D01*
X007980Y012730D02*
X004130Y012730D01*
X003180Y013680D01*
X001130Y011780D02*
X000530Y011180D01*
X000530Y008330D01*
X001180Y007680D01*
X001630Y007280D02*
X001630Y009380D01*
X000730Y010280D01*
X000730Y011080D01*
X001230Y011580D01*
X007280Y011580D01*
X008180Y010680D01*
X009630Y010380D02*
X009630Y011080D01*
X007980Y012730D01*
X007380Y011780D02*
X001130Y011780D01*
X001880Y011380D02*
X001180Y010680D01*
X002180Y010680D02*
X002180Y008530D01*
X002730Y007980D01*
X002730Y006480D01*
X003230Y005980D01*
X003230Y005280D01*
X003730Y004780D01*
X005780Y004780D01*
X006680Y005680D01*
X007130Y005380D02*
X007130Y006580D01*
X006180Y007530D01*
X006180Y007680D01*
X006630Y007380D02*
X006630Y008380D01*
X004630Y010380D01*
X004630Y011080D01*
X004330Y011380D01*
X001880Y011380D01*
X003180Y010680D02*
X003180Y008530D01*
X003730Y007980D01*
X003730Y006480D01*
X004230Y005980D01*
X004230Y005280D01*
X004530Y004980D01*
X004980Y004980D01*
X005680Y005680D01*
X004680Y005680D02*
X004680Y008030D01*
X004180Y008530D01*
X004180Y010680D01*
X004530Y009530D02*
X005630Y008430D01*
X005630Y007380D01*
X006380Y006630D01*
X006630Y007380D02*
X007680Y006330D01*
X007680Y005680D01*
X007130Y005380D02*
X007530Y004980D01*
X008080Y004980D01*
X009480Y006380D01*
X009830Y006380D01*
X009980Y006230D01*
X010330Y006230D01*
X010480Y006380D01*
X013830Y006380D01*
X014530Y005680D01*
X014680Y005680D01*
X014480Y006530D02*
X013730Y007280D01*
X013730Y007980D01*
X012830Y008880D01*
X008530Y008880D01*
X007330Y007680D01*
X007180Y007680D01*
X009430Y004580D02*
X010530Y005680D01*
X010680Y005680D01*
X009430Y004580D02*
X002930Y004580D01*
X002180Y005330D01*
X002180Y007680D01*
X001630Y007280D02*
X000680Y006330D01*
X000680Y005680D01*
X000680Y002680D02*
X000680Y001180D01*
X001680Y001180D02*
X001680Y002680D01*
X002680Y002680D02*
X002680Y001180D01*
X003680Y001180D02*
X003680Y002680D01*
X004680Y002680D02*
X004680Y001180D01*
X005680Y001180D02*
X005680Y002680D01*
X006680Y002680D02*
X006680Y001180D01*
X007680Y001180D02*
X007680Y002680D01*
X008680Y001180D02*
X009680Y002180D01*
X009680Y002680D01*
X010680Y002680D02*
X010680Y002180D01*
X009680Y001180D01*
X010680Y001180D02*
X011680Y002180D01*
X011680Y002680D01*
X012680Y002680D02*
X012680Y002180D01*
X011680Y001180D01*
X012680Y001180D02*
X013680Y002180D01*
X013680Y002680D01*
X014680Y002680D02*
X014680Y002180D01*
X013680Y001180D01*
X014680Y001180D02*
X015680Y002180D01*
X015680Y002680D01*
X016680Y002680D02*
X016680Y002180D01*
X015680Y001180D01*
X018680Y001180D02*
X018680Y002680D01*
X019680Y002680D02*
X019680Y002180D01*
X020680Y001180D01*
X021680Y001180D02*
X020680Y002180D01*
X020680Y002680D01*
X021680Y002680D02*
X021680Y002180D01*
X022680Y001180D01*
X023680Y001180D02*
X022680Y002180D01*
X022680Y002680D01*
X023680Y002680D02*
X023680Y002180D01*
X024680Y001180D01*
X025680Y001180D02*
X024680Y002180D01*
X024680Y002680D01*
X026680Y001180D02*
X027680Y002180D01*
X027680Y002680D01*
X028680Y002680D02*
X028680Y002180D01*
X027680Y001180D01*
X028680Y001180D02*
X029680Y002180D01*
X029680Y002680D01*
X030680Y002680D02*
X030680Y002180D01*
X029680Y001180D01*
X030680Y001180D02*
X031680Y002180D01*
X031680Y002680D01*
X032680Y002680D02*
X032680Y002180D01*
X031680Y001180D01*
X032680Y001180D02*
X033680Y002180D01*
X033680Y002680D01*
X034680Y002680D02*
X034680Y002180D01*
X033680Y001180D01*
X034680Y001180D02*
X035430Y000430D01*
X036880Y000430D01*
X037130Y000680D01*
X037130Y002780D01*
X037480Y003130D01*
X038780Y003130D01*
X039130Y003480D01*
X039130Y003880D01*
X038880Y004130D01*
X038630Y004130D01*
X030830Y011930D01*
X030830Y012730D01*
X028680Y014880D01*
X028680Y015180D01*
X028830Y014430D02*
X027530Y014430D01*
X028830Y014430D02*
X030630Y012630D01*
X030630Y010930D01*
X036680Y004880D01*
X036680Y003680D01*
X036230Y003130D02*
X036680Y002680D01*
X035680Y003030D02*
X035680Y004680D01*
X034680Y005680D01*
X033680Y005680D02*
X033530Y005680D01*
X032130Y004280D01*
X018930Y004280D01*
X016230Y006980D01*
X016030Y006980D01*
X015730Y007280D01*
X015730Y008480D01*
X015780Y008530D01*
X017880Y008530D02*
X020180Y008530D01*
X020180Y007680D02*
X020330Y007680D01*
X021630Y006380D01*
X021980Y006380D01*
X022680Y005680D01*
X022980Y006380D02*
X023680Y005680D01*
X023880Y006380D02*
X024580Y005680D01*
X024680Y005680D01*
X023880Y006380D02*
X023630Y006380D01*
X022330Y007680D01*
X022180Y007680D01*
X021330Y007680D02*
X022630Y006380D01*
X022980Y006380D01*
X021680Y005680D02*
X020980Y006380D01*
X020630Y006380D01*
X019330Y007680D01*
X019180Y007680D01*
X018330Y007680D02*
X019630Y006380D01*
X019980Y006380D01*
X020680Y005680D01*
X019680Y005680D02*
X018980Y006380D01*
X018630Y006380D01*
X017330Y007680D01*
X017180Y007680D01*
X018180Y007680D02*
X018330Y007680D01*
X018330Y005680D02*
X016330Y007680D01*
X016180Y007680D01*
X013730Y009580D02*
X013180Y009030D01*
X012980Y009030D01*
X012030Y009980D01*
X010030Y009980D01*
X009630Y010380D01*
X012180Y010680D02*
X012180Y011680D01*
X013180Y012680D01*
X013180Y012630D01*
X014330Y011480D01*
X019830Y011480D01*
X020530Y012180D01*
X020680Y012180D01*
X022530Y012180D02*
X022680Y012180D01*
X023180Y010680D02*
X023180Y010530D01*
X025730Y007980D01*
X025730Y007280D01*
X027330Y005680D01*
X027680Y005680D01*
X029530Y004680D02*
X022830Y004680D01*
X018680Y005680D02*
X018330Y005680D01*
X021180Y007680D02*
X021330Y007680D01*
X025330Y010680D02*
X026330Y009680D01*
X026830Y009680D01*
X027530Y009380D02*
X027830Y009680D01*
X028180Y009830D02*
X027630Y010380D01*
X027630Y011080D01*
X024230Y014480D01*
X028680Y012180D02*
X029080Y012180D01*
X036230Y005030D01*
X036230Y003130D01*
X037680Y002680D02*
X037680Y001180D01*
X038680Y001180D02*
X038680Y002680D01*
X039680Y002680D02*
X039680Y001180D01*
X038680Y003680D02*
X038230Y004130D01*
X037280Y004130D01*
X030680Y005680D02*
X030530Y005680D01*
X029530Y004680D01*
X027330Y006980D02*
X027030Y006980D01*
X026630Y007380D01*
X027330Y006980D02*
X027630Y007280D01*
X027630Y008080D01*
X027180Y008530D01*
X027180Y010680D01*
X028180Y009830D02*
X028180Y007680D01*
X027530Y008980D02*
X027530Y009380D01*
X025330Y010680D02*
X025180Y010680D01*
X031480Y012580D02*
X034830Y009230D01*
X036980Y009230D01*
X037530Y008680D01*
X039680Y008680D01*
X039680Y009680D02*
X038530Y009680D01*
X036980Y011230D01*
X035730Y011230D01*
X032280Y014680D01*
X031680Y014680D01*
X038980Y011980D02*
X039680Y012680D01*
X038980Y011980D02*
X038980Y010280D01*
X013980Y009580D02*
X013730Y009580D01*
X007880Y011480D02*
X007680Y011480D01*
X007380Y011780D01*
D18*
X007880Y011480D03*
X004530Y009530D03*
X010980Y008530D03*
X013180Y009030D03*
X013980Y009580D03*
X015780Y008530D03*
X017880Y008530D03*
X017730Y009330D03*
X018230Y009330D03*
X020180Y008530D03*
X023480Y009730D03*
X021580Y009980D03*
X026830Y009680D03*
X027830Y009680D03*
X027530Y008980D03*
X031480Y012580D03*
X037430Y011280D03*
X038980Y010280D03*
X037280Y004130D03*
X035680Y003030D03*
X022830Y004680D03*
X014480Y006530D03*
X013180Y006830D03*
X006380Y006630D03*
X023280Y012930D03*
D19*
X024930Y012930D01*
X025680Y012180D01*
X028180Y010680D02*
X029680Y009180D01*
X028680Y008180D01*
X028680Y007230D01*
X028180Y006730D01*
X028180Y005230D01*
X027880Y004930D01*
X027480Y004930D01*
X025780Y006630D01*
X025230Y006630D01*
X025180Y006680D01*
X025180Y007680D01*
X024180Y007680D02*
X023480Y008380D01*
X023480Y008930D01*
X015180Y008930D01*
X015180Y005230D01*
X017680Y002730D01*
X017680Y001180D01*
X024180Y006680D02*
X024180Y007680D01*
X023480Y008930D02*
X023480Y009730D01*
X019680Y012180D02*
X018180Y013680D01*
X017180Y013680D01*
X017180Y012680D02*
X014180Y012680D01*
X013380Y013480D01*
X011980Y013480D01*
X011680Y013180D01*
X009680Y013180D01*
X009180Y013680D01*
X004180Y013680D01*
X010680Y012180D02*
X011180Y011680D01*
X012180Y012680D01*
X011180Y011680D02*
X011180Y010680D01*
X013180Y010680D02*
X014180Y010680D01*
X015180Y009680D01*
X015180Y008930D01*
X010980Y008530D02*
X010030Y008530D01*
X009180Y007680D01*
X009180Y006680D01*
X010180Y006680D02*
X010230Y006830D01*
X013180Y006830D01*
X010180Y006680D02*
X010180Y007680D01*
X017180Y012680D02*
X017680Y012180D01*
X018680Y012180D01*
X029680Y009180D02*
X030180Y009180D01*
X031680Y011680D02*
X031080Y012280D01*
X031080Y014780D01*
X031480Y015180D01*
X032180Y015180D01*
X033630Y013730D01*
X036630Y013730D01*
X036680Y013680D01*
X036680Y012680D01*
X039680Y013680D02*
X039680Y015180D01*
X038680Y015180D02*
X038180Y014680D01*
X037430Y014680D01*
X037430Y011280D01*
X036680Y010680D02*
X036680Y009680D01*
X037430Y014680D02*
X034680Y014680D01*
M02*
