%
M48
M72
T01C0.0240
T02C0.0320
T03C0.0360
T04C0.0400
%
T01
X11567Y2780
X17417Y2980
X19967Y2280
X27767Y4830
X24467Y8130
X31567Y8480
X33867Y12330
X13317Y13180
X11217Y14230
X9217Y12230
X12017Y7780
X13017Y7430
X12517Y7280
T02
X8417Y6180
X7417Y6180
X6417Y6180
X5417Y6180
X4417Y6180
X3417Y6180
X2417Y6180
X1417Y6180
X1417Y7680
X1417Y8680
X1417Y10680
X2417Y10680
X3417Y10680
X4417Y10680
X5417Y10680
X6417Y10680
X7417Y10680
X8417Y10680
X10917Y9680
X11917Y9680
X12917Y9680
X13917Y9680
X14917Y9680
X15917Y9680
X16917Y9680
X17917Y9680
X18917Y9680
X19917Y9680
X20917Y9680
X21917Y9680
X22917Y9680
X23917Y9680
X24917Y9680
X25917Y9680
X26917Y9680
X27917Y9680
X28917Y9680
X29917Y9680
X30917Y9680
X31917Y9680
X33917Y10180
X34917Y10180
X35917Y10180
X36917Y10180
X37917Y10180
X38917Y10180
X39917Y10180
X33417Y8680
X34417Y6680
X36417Y6680
X34417Y5680
X33417Y5680
X31917Y3680
X30917Y3680
X29917Y3680
X28917Y3680
X27917Y3680
X26917Y3680
X25917Y3680
X24917Y3680
X23917Y3680
X22917Y3680
X21917Y3680
X20917Y3680
X19917Y3680
X18917Y3680
X17917Y3680
X16917Y3680
X15917Y3680
X14917Y3680
X13917Y3680
X12917Y3680
X13917Y2680
X16917Y2680
X17917Y2680
X20917Y2680
X8417Y3180
X7417Y3180
X6417Y3180
X5417Y3180
X4417Y3180
X3417Y3180
X2417Y3180
X1417Y3180
X13917Y11180
X14917Y11180
X15917Y11180
X16917Y11180
X17917Y11180
X18917Y11180
X8417Y13680
X7417Y13680
X6417Y13680
X5417Y13680
X4417Y13680
X3417Y13680
X2417Y13680
X1417Y13680
X32917Y12180
X32917Y11180
X33917Y13180
X34917Y13180
X35917Y13180
X36917Y13180
X37917Y13180
X38917Y13180
X39917Y13180
X39417Y6680
X39417Y3680
X36417Y3680
T03
X12417Y11180
X10417Y11180
X10417Y12180
X12417Y12180
X12417Y13180
X10417Y13180
T04
X917Y1180
X1917Y1180
X2917Y1180
X3917Y1180
X4917Y1180
X5917Y1180
X6917Y1180
X7917Y1180
X8917Y1180
X9917Y1180
X10917Y1180
X11917Y1180
X12917Y1180
X13917Y1180
X14917Y1180
X15917Y1180
X16917Y1180
X17917Y1180
X18917Y1180
X19917Y1180
X20917Y1180
X21917Y1180
X22917Y1180
X23917Y1180
X24917Y1180
X25917Y1180
X26917Y1180
X27917Y1180
X28917Y1180
X29917Y1180
X30917Y1180
X31917Y1180
X32917Y1180
X33917Y1180
X34917Y1180
X35917Y1180
X36917Y1180
X37917Y1180
X38917Y1180
X39917Y1180
X9417Y7680
X8417Y7680
X7417Y7680
X6417Y7680
X5417Y7680
X4417Y7680
X3417Y7680
X2417Y7680
X2417Y8680
X3417Y8680
X4417Y8680
X5417Y8680
X6417Y8680
X7417Y8680
X8417Y8680
X9417Y8680
X15417Y12680
X16417Y12680
X17417Y12680
X18417Y12680
X19417Y12680
X20417Y12680
X21417Y12680
X22417Y12680
X23417Y12680
X24417Y12680
X25417Y12680
X26417Y12680
X27417Y12680
X28417Y12680
X29417Y12680
X30417Y12680
X31417Y12680
X31417Y13680
X30417Y13680
X29417Y13680
X28417Y13680
X27417Y13680
X26417Y13680
X25417Y13680
X24417Y13680
X23417Y13680
X22417Y13680
X21417Y13680
X20417Y13680
X19417Y13680
X18417Y13680
X17417Y13680
X16417Y13680
X15417Y13680
M30
