G75*
%MOIN*%
%OFA0B0*%
%FSLAX24Y24*%
%IPPOS*%
%LPD*%
%AMOC8*
5,1,8,0,0,1.08239X$1,22.5*
%
%ADD10C,0.0030*%
%ADD11C,0.0060*%
%ADD12C,0.0050*%
%ADD13C,0.0100*%
%ADD14C,0.0120*%
%ADD15C,0.0040*%
%ADD16R,0.0150X0.0200*%
%ADD17R,0.0200X0.0150*%
D10*
X000611Y002195D02*
X000611Y002340D01*
X000660Y002388D01*
X000757Y002388D01*
X000805Y002340D01*
X000805Y002195D01*
X000902Y002195D02*
X000611Y002195D01*
X000611Y002490D02*
X000611Y002586D01*
X000611Y002538D02*
X000902Y002538D01*
X000902Y002490D02*
X000902Y002586D01*
X000902Y002686D02*
X000611Y002686D01*
X000902Y002880D01*
X000611Y002880D01*
X000708Y002981D02*
X000611Y003077D01*
X000902Y003077D01*
X000902Y002981D02*
X000902Y003174D01*
X002160Y009695D02*
X002111Y009743D01*
X002111Y009840D01*
X002160Y009888D01*
X002353Y009695D01*
X002402Y009743D01*
X002402Y009840D01*
X002353Y009888D01*
X002160Y009888D01*
X002160Y009990D02*
X002111Y010038D01*
X002111Y010135D01*
X002160Y010183D01*
X002353Y009990D01*
X002402Y010038D01*
X002402Y010135D01*
X002353Y010183D01*
X002160Y010183D01*
X002160Y009990D02*
X002353Y009990D01*
X002353Y009695D02*
X002160Y009695D01*
X003111Y009743D02*
X003160Y009695D01*
X003111Y009743D02*
X003111Y009840D01*
X003160Y009888D01*
X003208Y009888D01*
X003402Y009695D01*
X003402Y009888D01*
X003353Y009990D02*
X003160Y009990D01*
X003111Y010038D01*
X003111Y010135D01*
X003160Y010183D01*
X003353Y009990D01*
X003402Y010038D01*
X003402Y010135D01*
X003353Y010183D01*
X003160Y010183D01*
X004111Y010135D02*
X004111Y010038D01*
X004160Y009990D01*
X004353Y009990D01*
X004160Y010183D01*
X004353Y010183D01*
X004402Y010135D01*
X004402Y010038D01*
X004353Y009990D01*
X004257Y009888D02*
X004257Y009695D01*
X004111Y009840D01*
X004402Y009840D01*
X004111Y010135D02*
X004160Y010183D01*
X005111Y010135D02*
X005111Y010038D01*
X005160Y009990D01*
X005353Y009990D01*
X005160Y010183D01*
X005353Y010183D01*
X005402Y010135D01*
X005402Y010038D01*
X005353Y009990D01*
X005353Y009888D02*
X005305Y009888D01*
X005257Y009840D01*
X005257Y009695D01*
X005353Y009695D01*
X005402Y009743D01*
X005402Y009840D01*
X005353Y009888D01*
X005160Y009792D02*
X005257Y009695D01*
X005160Y009792D02*
X005111Y009888D01*
X005111Y010135D02*
X005160Y010183D01*
X006111Y010135D02*
X006111Y010038D01*
X006160Y009990D01*
X006353Y009990D01*
X006160Y010183D01*
X006353Y010183D01*
X006402Y010135D01*
X006402Y010038D01*
X006353Y009990D01*
X006353Y009888D02*
X006402Y009840D01*
X006402Y009743D01*
X006353Y009695D01*
X006305Y009695D01*
X006257Y009743D01*
X006257Y009840D01*
X006305Y009888D01*
X006353Y009888D01*
X006257Y009840D02*
X006208Y009888D01*
X006160Y009888D01*
X006111Y009840D01*
X006111Y009743D01*
X006160Y009695D01*
X006208Y009695D01*
X006257Y009743D01*
X007111Y009792D02*
X007208Y009888D01*
X007402Y009888D01*
X007353Y009990D02*
X007160Y010183D01*
X007353Y010183D01*
X007402Y010135D01*
X007402Y010038D01*
X007353Y009990D01*
X007160Y009990D01*
X007111Y010038D01*
X007111Y010135D01*
X007160Y010183D01*
X007257Y009888D02*
X007257Y009695D01*
X007208Y009695D02*
X007111Y009792D01*
X007208Y009695D02*
X007402Y009695D01*
X008111Y009743D02*
X008111Y009840D01*
X008160Y009888D01*
X008160Y009990D02*
X008111Y010038D01*
X008111Y010135D01*
X008160Y010183D01*
X008353Y009990D01*
X008402Y010038D01*
X008402Y010135D01*
X008353Y010183D01*
X008160Y010183D01*
X008160Y009990D02*
X008353Y009990D01*
X008353Y009888D02*
X008402Y009840D01*
X008402Y009743D01*
X008353Y009695D01*
X008160Y009695D01*
X008111Y009743D01*
X009111Y010195D02*
X009402Y010195D01*
X009402Y010388D01*
X009353Y010490D02*
X009160Y010683D01*
X009353Y010683D01*
X009402Y010635D01*
X009402Y010538D01*
X009353Y010490D01*
X009160Y010490D01*
X009111Y010538D01*
X009111Y010635D01*
X009160Y010683D01*
X009111Y010388D02*
X009111Y010195D01*
X009257Y010195D02*
X009257Y010292D01*
X006160Y010183D02*
X006111Y010135D01*
D11*
X006167Y009180D02*
X006667Y009180D01*
X006917Y008930D01*
X007167Y009180D01*
X007667Y009180D01*
X007917Y008930D01*
X008167Y009180D01*
X008667Y009180D01*
X008917Y008930D01*
X009167Y009180D01*
X009667Y009180D01*
X009917Y008930D01*
X009917Y007430D01*
X009667Y007180D01*
X009167Y007180D01*
X008917Y007430D01*
X008667Y007180D01*
X008167Y007180D01*
X007917Y007430D01*
X007667Y007180D01*
X007167Y007180D01*
X006917Y007430D01*
X006667Y007180D01*
X006167Y007180D01*
X005917Y007430D01*
X005667Y007180D01*
X005167Y007180D01*
X004917Y007430D01*
X004667Y007180D01*
X004167Y007180D01*
X003917Y007430D01*
X003667Y007180D01*
X003167Y007180D01*
X002917Y007430D01*
X002667Y007180D01*
X002167Y007180D01*
X001917Y007430D01*
X001917Y008930D01*
X002167Y009180D01*
X002667Y009180D01*
X002917Y008930D01*
X003167Y009180D01*
X003667Y009180D01*
X003917Y008930D01*
X004167Y009180D01*
X004667Y009180D01*
X004917Y008930D01*
X005167Y009180D01*
X005667Y009180D01*
X005917Y008930D01*
X006167Y009180D01*
X009917Y010780D02*
X010017Y010680D01*
X010817Y010680D01*
X010917Y010780D01*
X010917Y011580D01*
X010817Y011680D01*
X010917Y011780D01*
X010917Y012580D01*
X010817Y012680D01*
X010917Y012780D01*
X010917Y013580D01*
X010817Y013680D01*
X010017Y013680D01*
X009917Y013580D01*
X009917Y012780D01*
X010017Y012680D01*
X009917Y012580D01*
X009917Y011780D01*
X010017Y011680D01*
X009917Y011580D01*
X009917Y010780D01*
X008917Y011030D02*
X008917Y013330D01*
X000917Y013330D01*
X000917Y012580D01*
X000956Y012578D01*
X000995Y012572D01*
X001033Y012563D01*
X001070Y012550D01*
X001106Y012533D01*
X001139Y012513D01*
X001171Y012489D01*
X001200Y012463D01*
X001226Y012434D01*
X001250Y012402D01*
X001270Y012369D01*
X001287Y012333D01*
X001300Y012296D01*
X001309Y012258D01*
X001315Y012219D01*
X001317Y012180D01*
X001315Y012141D01*
X001309Y012102D01*
X001300Y012064D01*
X001287Y012027D01*
X001270Y011991D01*
X001250Y011958D01*
X001226Y011926D01*
X001200Y011897D01*
X001171Y011871D01*
X001139Y011847D01*
X001106Y011827D01*
X001070Y011810D01*
X001033Y011797D01*
X000995Y011788D01*
X000956Y011782D01*
X000917Y011780D01*
X000917Y011030D01*
X008917Y011030D01*
X010567Y010180D02*
X012267Y010180D01*
X012284Y010178D01*
X012301Y010174D01*
X012317Y010167D01*
X012331Y010157D01*
X012344Y010144D01*
X012354Y010130D01*
X012361Y010114D01*
X012365Y010097D01*
X012367Y010080D01*
X012367Y009280D01*
X012417Y009330D02*
X012417Y007030D01*
X012456Y007028D01*
X012495Y007022D01*
X012533Y007013D01*
X012570Y007000D01*
X012606Y006983D01*
X012639Y006963D01*
X012671Y006939D01*
X012700Y006913D01*
X012726Y006884D01*
X012750Y006852D01*
X012770Y006819D01*
X012787Y006783D01*
X012800Y006746D01*
X012809Y006708D01*
X012815Y006669D01*
X012817Y006630D01*
X012815Y006591D01*
X012809Y006552D01*
X012800Y006514D01*
X012787Y006477D01*
X012770Y006441D01*
X012750Y006408D01*
X012726Y006376D01*
X012700Y006347D01*
X012671Y006321D01*
X012639Y006297D01*
X012606Y006277D01*
X012570Y006260D01*
X012533Y006247D01*
X012495Y006238D01*
X012456Y006232D01*
X012417Y006230D01*
X012417Y004030D01*
X032417Y004030D01*
X032417Y009330D01*
X012417Y009330D01*
X012367Y009280D02*
X012365Y009263D01*
X012361Y009246D01*
X012354Y009230D01*
X012344Y009216D01*
X012331Y009203D01*
X012317Y009193D01*
X012301Y009186D01*
X012284Y009182D01*
X012267Y009180D01*
X010567Y009180D01*
X010550Y009182D01*
X010533Y009186D01*
X010517Y009193D01*
X010503Y009203D01*
X010490Y009216D01*
X010480Y009230D01*
X010473Y009246D01*
X010469Y009263D01*
X010467Y009280D01*
X010467Y010080D01*
X010469Y010097D01*
X010473Y010114D01*
X010480Y010130D01*
X010490Y010144D01*
X010503Y010157D01*
X010517Y010167D01*
X010533Y010174D01*
X010550Y010178D01*
X010567Y010180D01*
X011267Y009680D02*
X011317Y009680D01*
X011517Y009680D02*
X011567Y009680D01*
X012017Y010680D02*
X011917Y010780D01*
X011917Y011580D01*
X012017Y011680D01*
X011917Y011780D01*
X011917Y012580D01*
X012017Y012680D01*
X011917Y012780D01*
X011917Y013580D01*
X012017Y013680D01*
X012817Y013680D01*
X012917Y013580D01*
X012917Y012780D01*
X012817Y012680D01*
X012917Y012580D01*
X012917Y011780D01*
X012817Y011680D01*
X012917Y011580D01*
X012917Y010780D01*
X012817Y010680D01*
X012017Y010680D01*
X013417Y010980D02*
X013417Y011380D01*
X013419Y011406D01*
X013424Y011432D01*
X013432Y011457D01*
X013444Y011480D01*
X013458Y011502D01*
X013476Y011521D01*
X013495Y011539D01*
X013517Y011553D01*
X013540Y011565D01*
X013565Y011573D01*
X013591Y011578D01*
X013617Y011580D01*
X019217Y011580D01*
X019243Y011578D01*
X019269Y011573D01*
X019294Y011565D01*
X019317Y011553D01*
X019339Y011539D01*
X019358Y011521D01*
X019376Y011502D01*
X019390Y011480D01*
X019402Y011457D01*
X019410Y011432D01*
X019415Y011406D01*
X019417Y011380D01*
X019417Y010980D01*
X019415Y010954D01*
X019410Y010928D01*
X019402Y010903D01*
X019390Y010880D01*
X019376Y010858D01*
X019358Y010839D01*
X019339Y010821D01*
X019317Y010807D01*
X019294Y010795D01*
X019269Y010787D01*
X019243Y010782D01*
X019217Y010780D01*
X013617Y010780D01*
X013567Y010830D02*
X013567Y011530D01*
X014267Y011530D01*
X014267Y010830D01*
X013567Y010830D01*
X013617Y010780D02*
X013591Y010782D01*
X013565Y010787D01*
X013540Y010795D01*
X013517Y010807D01*
X013495Y010821D01*
X013476Y010839D01*
X013458Y010858D01*
X013444Y010880D01*
X013432Y010903D01*
X013424Y010928D01*
X013419Y010954D01*
X013417Y010980D01*
X014917Y012430D02*
X015167Y012180D01*
X015667Y012180D01*
X015917Y012430D01*
X016167Y012180D01*
X016667Y012180D01*
X016917Y012430D01*
X017167Y012180D01*
X017667Y012180D01*
X017917Y012430D01*
X018167Y012180D01*
X018667Y012180D01*
X018917Y012430D01*
X019167Y012180D01*
X019667Y012180D01*
X019917Y012430D01*
X020167Y012180D01*
X020667Y012180D01*
X020917Y012430D01*
X021167Y012180D01*
X021667Y012180D01*
X021917Y012430D01*
X022167Y012180D01*
X022667Y012180D01*
X022917Y012430D01*
X023167Y012180D01*
X023667Y012180D01*
X023917Y012430D01*
X024167Y012180D01*
X024667Y012180D01*
X024917Y012430D01*
X025167Y012180D01*
X025667Y012180D01*
X025917Y012430D01*
X026167Y012180D01*
X026667Y012180D01*
X026917Y012430D01*
X027167Y012180D01*
X027667Y012180D01*
X027917Y012430D01*
X028167Y012180D01*
X028667Y012180D01*
X028917Y012430D01*
X029167Y012180D01*
X029667Y012180D01*
X029917Y012430D01*
X030167Y012180D01*
X030667Y012180D01*
X030917Y012430D01*
X031167Y012180D01*
X031667Y012180D01*
X031917Y012430D01*
X031917Y013930D01*
X031667Y014180D01*
X031167Y014180D01*
X030917Y013930D01*
X030667Y014180D01*
X030167Y014180D01*
X029917Y013930D01*
X029667Y014180D01*
X029167Y014180D01*
X028917Y013930D01*
X028667Y014180D01*
X028167Y014180D01*
X027917Y013930D01*
X027667Y014180D01*
X027167Y014180D01*
X026917Y013930D01*
X026667Y014180D01*
X026167Y014180D01*
X025917Y013930D01*
X025667Y014180D01*
X025167Y014180D01*
X024917Y013930D01*
X024667Y014180D01*
X024167Y014180D01*
X023917Y013930D01*
X023667Y014180D01*
X023167Y014180D01*
X022917Y013930D01*
X022667Y014180D01*
X022167Y014180D01*
X021917Y013930D01*
X021667Y014180D01*
X021167Y014180D01*
X020917Y013930D01*
X020667Y014180D01*
X020167Y014180D01*
X019917Y013930D01*
X019667Y014180D01*
X019167Y014180D01*
X018917Y013930D01*
X018667Y014180D01*
X018167Y014180D01*
X017917Y013930D01*
X017667Y014180D01*
X017167Y014180D01*
X016917Y013930D01*
X016667Y014180D01*
X016167Y014180D01*
X015917Y013930D01*
X015667Y014180D01*
X015167Y014180D01*
X014917Y013930D01*
X014917Y012430D01*
X025992Y008351D02*
X025992Y007710D01*
X026312Y007710D01*
X026419Y007817D01*
X026419Y008030D01*
X026312Y008137D01*
X025992Y008137D01*
X025774Y008030D02*
X025774Y007710D01*
X025561Y007710D02*
X025561Y008030D01*
X025667Y008137D01*
X025774Y008030D01*
X025561Y008030D02*
X025454Y008137D01*
X025347Y008137D01*
X025347Y007710D01*
X025130Y007817D02*
X025023Y007924D01*
X024809Y007924D01*
X024703Y008030D01*
X024809Y008137D01*
X025130Y008137D01*
X025130Y007817D02*
X025023Y007710D01*
X024703Y007710D01*
X024487Y007710D02*
X024380Y007710D01*
X024380Y007817D01*
X024487Y007817D01*
X024487Y007710D01*
X024163Y007817D02*
X024163Y008137D01*
X023736Y008137D02*
X023736Y007817D01*
X023843Y007710D01*
X023949Y007817D01*
X024056Y007710D01*
X024163Y007817D01*
X023518Y007817D02*
X023518Y008137D01*
X023091Y008137D02*
X023091Y007817D01*
X023198Y007710D01*
X023305Y007817D01*
X023411Y007710D01*
X023518Y007817D01*
X022874Y007817D02*
X022874Y008137D01*
X022447Y008137D02*
X022447Y007817D01*
X022553Y007710D01*
X022660Y007817D01*
X022767Y007710D01*
X022874Y007817D01*
X026636Y007817D02*
X026743Y007924D01*
X027063Y007924D01*
X027063Y008030D02*
X027063Y007710D01*
X026743Y007710D01*
X026636Y007817D01*
X026743Y008137D02*
X026957Y008137D01*
X027063Y008030D01*
X027281Y007924D02*
X027601Y008137D01*
X027818Y008030D02*
X027925Y008137D01*
X028138Y008137D01*
X028245Y008030D01*
X028245Y007924D01*
X027818Y007924D01*
X027818Y008030D02*
X027818Y007817D01*
X027925Y007710D01*
X028138Y007710D01*
X028462Y007710D02*
X028462Y008137D01*
X028462Y007924D02*
X028676Y008137D01*
X028783Y008137D01*
X029322Y008030D02*
X029322Y007817D01*
X029429Y007710D01*
X029749Y007710D01*
X029966Y007817D02*
X030073Y007710D01*
X030287Y007710D01*
X030393Y007817D01*
X030393Y008030D01*
X030287Y008137D01*
X030073Y008137D01*
X029966Y008030D01*
X029966Y007817D01*
X029749Y008137D02*
X029429Y008137D01*
X029322Y008030D01*
X029106Y007817D02*
X029106Y007710D01*
X029000Y007710D01*
X029000Y007817D01*
X029106Y007817D01*
X027601Y007710D02*
X027281Y007924D01*
X027281Y007710D02*
X027281Y008351D01*
X030611Y008137D02*
X030611Y007710D01*
X030824Y007710D02*
X030824Y008030D01*
X030931Y008137D01*
X031038Y008030D01*
X031038Y007710D01*
X030824Y008030D02*
X030718Y008137D01*
X030611Y008137D01*
X033017Y008080D02*
X033017Y007930D01*
X033067Y007880D01*
X033067Y006480D01*
X033017Y006430D01*
X033017Y006280D01*
X033019Y006263D01*
X033023Y006246D01*
X033030Y006230D01*
X033040Y006216D01*
X033053Y006203D01*
X033067Y006193D01*
X033083Y006186D01*
X033100Y006182D01*
X033117Y006180D01*
X033717Y006180D01*
X033734Y006182D01*
X033751Y006186D01*
X033767Y006193D01*
X033781Y006203D01*
X033794Y006216D01*
X033804Y006230D01*
X033811Y006246D01*
X033815Y006263D01*
X033817Y006280D01*
X033817Y006430D01*
X033767Y006480D01*
X033767Y007880D01*
X033817Y007930D01*
X033817Y008080D01*
X033815Y008097D01*
X033811Y008114D01*
X033804Y008130D01*
X033794Y008144D01*
X033781Y008157D01*
X033767Y008167D01*
X033751Y008174D01*
X033734Y008178D01*
X033717Y008180D01*
X033117Y008180D01*
X033100Y008178D01*
X033083Y008174D01*
X033067Y008167D01*
X033053Y008157D01*
X033040Y008144D01*
X033030Y008130D01*
X033023Y008114D01*
X033019Y008097D01*
X033017Y008080D01*
X034017Y007130D02*
X034817Y007130D01*
X034834Y007128D01*
X034851Y007124D01*
X034867Y007117D01*
X034881Y007107D01*
X034894Y007094D01*
X034904Y007080D01*
X034911Y007064D01*
X034915Y007047D01*
X034917Y007030D01*
X034917Y005330D01*
X034915Y005313D01*
X034911Y005296D01*
X034904Y005280D01*
X034894Y005266D01*
X034881Y005253D01*
X034867Y005243D01*
X034851Y005236D01*
X034834Y005232D01*
X034817Y005230D01*
X034017Y005230D01*
X034000Y005232D01*
X033983Y005236D01*
X033967Y005243D01*
X033953Y005253D01*
X033940Y005266D01*
X033930Y005280D01*
X033923Y005296D01*
X033919Y005313D01*
X033917Y005330D01*
X033917Y007030D01*
X033919Y007047D01*
X033923Y007064D01*
X033930Y007080D01*
X033940Y007094D01*
X033953Y007107D01*
X033967Y007117D01*
X033983Y007124D01*
X034000Y007128D01*
X034017Y007130D01*
X035567Y007280D02*
X035567Y003080D01*
X035569Y003050D01*
X035574Y003020D01*
X035583Y002991D01*
X035596Y002964D01*
X035611Y002938D01*
X035630Y002914D01*
X035651Y002893D01*
X035675Y002874D01*
X035701Y002859D01*
X035728Y002846D01*
X035757Y002837D01*
X035787Y002832D01*
X035817Y002830D01*
X040017Y002830D01*
X040047Y002832D01*
X040077Y002837D01*
X040106Y002846D01*
X040133Y002859D01*
X040159Y002874D01*
X040183Y002893D01*
X040204Y002914D01*
X040223Y002938D01*
X040238Y002964D01*
X040251Y002991D01*
X040260Y003020D01*
X040265Y003050D01*
X040267Y003080D01*
X040267Y007280D01*
X040265Y007310D01*
X040260Y007340D01*
X040251Y007369D01*
X040238Y007396D01*
X040223Y007422D01*
X040204Y007446D01*
X040183Y007467D01*
X040159Y007486D01*
X040133Y007501D01*
X040106Y007514D01*
X040077Y007523D01*
X040047Y007528D01*
X040017Y007530D01*
X035817Y007530D01*
X035787Y007528D01*
X035757Y007523D01*
X035728Y007514D01*
X035701Y007501D01*
X035675Y007486D01*
X035651Y007467D01*
X035630Y007446D01*
X035611Y007422D01*
X035596Y007396D01*
X035583Y007369D01*
X035574Y007340D01*
X035569Y007310D01*
X035567Y007280D01*
X036917Y006680D02*
X037547Y006680D01*
X038287Y006680D02*
X038917Y006680D01*
X034417Y006330D02*
X034417Y006280D01*
X034417Y006080D02*
X034417Y006030D01*
X033417Y010530D02*
X033417Y011280D01*
X032917Y011530D02*
X032917Y011580D01*
X033417Y011280D02*
X033456Y011282D01*
X033495Y011288D01*
X033533Y011297D01*
X033570Y011310D01*
X033606Y011327D01*
X033639Y011347D01*
X033671Y011371D01*
X033700Y011397D01*
X033726Y011426D01*
X033750Y011458D01*
X033770Y011491D01*
X033787Y011527D01*
X033800Y011564D01*
X033809Y011602D01*
X033815Y011641D01*
X033817Y011680D01*
X033815Y011719D01*
X033809Y011758D01*
X033800Y011796D01*
X033787Y011833D01*
X033770Y011869D01*
X033750Y011902D01*
X033726Y011934D01*
X033700Y011963D01*
X033671Y011989D01*
X033639Y012013D01*
X033606Y012033D01*
X033570Y012050D01*
X033533Y012063D01*
X033495Y012072D01*
X033456Y012078D01*
X033417Y012080D01*
X033417Y012830D01*
X040417Y012830D01*
X040417Y010530D01*
X033417Y010530D01*
X033317Y010730D02*
X032517Y010730D01*
X032500Y010732D01*
X032483Y010736D01*
X032467Y010743D01*
X032453Y010753D01*
X032440Y010766D01*
X032430Y010780D01*
X032423Y010796D01*
X032419Y010813D01*
X032417Y010830D01*
X032417Y012530D01*
X032419Y012547D01*
X032423Y012564D01*
X032430Y012580D01*
X032440Y012594D01*
X032453Y012607D01*
X032467Y012617D01*
X032483Y012624D01*
X032500Y012628D01*
X032517Y012630D01*
X033317Y012630D01*
X033334Y012628D01*
X033351Y012624D01*
X033367Y012617D01*
X033381Y012607D01*
X033394Y012594D01*
X033404Y012580D01*
X033411Y012564D01*
X033415Y012547D01*
X033417Y012530D01*
X033417Y010830D01*
X033415Y010813D01*
X033411Y010796D01*
X033404Y010780D01*
X033394Y010766D01*
X033381Y010753D01*
X033367Y010743D01*
X033351Y010736D01*
X033334Y010732D01*
X033317Y010730D01*
X032917Y011780D02*
X032917Y011830D01*
X012187Y005826D02*
X012187Y005399D01*
X011760Y005826D01*
X011653Y005826D01*
X011546Y005719D01*
X011546Y005506D01*
X011653Y005399D01*
X011653Y005182D02*
X011546Y005075D01*
X011546Y004861D01*
X011653Y004755D01*
X011760Y004755D01*
X011866Y004861D01*
X011866Y005075D01*
X011973Y005182D01*
X012080Y005182D01*
X012187Y005075D01*
X012187Y004861D01*
X012080Y004755D01*
X012080Y004537D02*
X011546Y004537D01*
X012080Y004537D02*
X012187Y004430D01*
X012187Y004217D01*
X012080Y004110D01*
X011546Y004110D01*
X011439Y004968D02*
X012293Y004968D01*
X008917Y005830D02*
X008917Y003530D01*
X000917Y003530D01*
X000917Y004280D01*
X000956Y004282D01*
X000995Y004288D01*
X001033Y004297D01*
X001070Y004310D01*
X001106Y004327D01*
X001139Y004347D01*
X001171Y004371D01*
X001200Y004397D01*
X001226Y004426D01*
X001250Y004458D01*
X001270Y004491D01*
X001287Y004527D01*
X001300Y004564D01*
X001309Y004602D01*
X001315Y004641D01*
X001317Y004680D01*
X001315Y004719D01*
X001309Y004758D01*
X001300Y004796D01*
X001287Y004833D01*
X001270Y004869D01*
X001250Y004902D01*
X001226Y004934D01*
X001200Y004963D01*
X001171Y004989D01*
X001139Y005013D01*
X001106Y005033D01*
X001070Y005050D01*
X001033Y005063D01*
X000995Y005072D01*
X000956Y005078D01*
X000917Y005080D01*
X000917Y005830D01*
X008917Y005830D01*
X001917Y007330D02*
X001917Y009030D01*
X001915Y009047D01*
X001911Y009064D01*
X001904Y009080D01*
X001894Y009094D01*
X001881Y009107D01*
X001867Y009117D01*
X001851Y009124D01*
X001834Y009128D01*
X001817Y009130D01*
X001017Y009130D01*
X001000Y009128D01*
X000983Y009124D01*
X000967Y009117D01*
X000953Y009107D01*
X000940Y009094D01*
X000930Y009080D01*
X000923Y009064D01*
X000919Y009047D01*
X000917Y009030D01*
X000917Y007330D01*
X000919Y007313D01*
X000923Y007296D01*
X000930Y007280D01*
X000940Y007266D01*
X000953Y007253D01*
X000967Y007243D01*
X000983Y007236D01*
X001000Y007232D01*
X001017Y007230D01*
X001817Y007230D01*
X001834Y007232D01*
X001851Y007236D01*
X001867Y007243D01*
X001881Y007253D01*
X001894Y007266D01*
X001904Y007280D01*
X001911Y007296D01*
X001915Y007313D01*
X001917Y007330D01*
X001417Y008030D02*
X001417Y008080D01*
X001417Y008280D02*
X001417Y008330D01*
X014517Y003080D02*
X014667Y003080D01*
X014717Y003030D01*
X016117Y003030D01*
X016167Y003080D01*
X016317Y003080D01*
X016334Y003078D01*
X016351Y003074D01*
X016367Y003067D01*
X016381Y003057D01*
X016394Y003044D01*
X016404Y003030D01*
X016411Y003014D01*
X016415Y002997D01*
X016417Y002980D01*
X016417Y002380D01*
X016415Y002363D01*
X016411Y002346D01*
X016404Y002330D01*
X016394Y002316D01*
X016381Y002303D01*
X016367Y002293D01*
X016351Y002286D01*
X016334Y002282D01*
X016317Y002280D01*
X016167Y002280D01*
X016117Y002330D01*
X014717Y002330D01*
X014667Y002280D01*
X014517Y002280D01*
X014500Y002282D01*
X014483Y002286D01*
X014467Y002293D01*
X014453Y002303D01*
X014440Y002316D01*
X014430Y002330D01*
X014423Y002346D01*
X014419Y002363D01*
X014417Y002380D01*
X014417Y002980D01*
X014419Y002997D01*
X014423Y003014D01*
X014430Y003030D01*
X014440Y003044D01*
X014453Y003057D01*
X014467Y003067D01*
X014483Y003074D01*
X014500Y003078D01*
X014517Y003080D01*
X018417Y002980D02*
X018417Y002380D01*
X018419Y002363D01*
X018423Y002346D01*
X018430Y002330D01*
X018440Y002316D01*
X018453Y002303D01*
X018467Y002293D01*
X018483Y002286D01*
X018500Y002282D01*
X018517Y002280D01*
X018667Y002280D01*
X018717Y002330D01*
X020117Y002330D01*
X020167Y002280D01*
X020317Y002280D01*
X020334Y002282D01*
X020351Y002286D01*
X020367Y002293D01*
X020381Y002303D01*
X020394Y002316D01*
X020404Y002330D01*
X020411Y002346D01*
X020415Y002363D01*
X020417Y002380D01*
X020417Y002980D01*
X020415Y002997D01*
X020411Y003014D01*
X020404Y003030D01*
X020394Y003044D01*
X020381Y003057D01*
X020367Y003067D01*
X020351Y003074D01*
X020334Y003078D01*
X020317Y003080D01*
X020167Y003080D01*
X020117Y003030D01*
X018717Y003030D01*
X018667Y003080D01*
X018517Y003080D01*
X018500Y003078D01*
X018483Y003074D01*
X018467Y003067D01*
X018453Y003057D01*
X018440Y003044D01*
X018430Y003030D01*
X018423Y003014D01*
X018419Y002997D01*
X018417Y002980D01*
D12*
X007432Y004555D02*
X007131Y004555D01*
X007432Y004855D01*
X007432Y004930D01*
X007356Y005005D01*
X007206Y005005D01*
X007131Y004930D01*
X006971Y004930D02*
X006896Y005005D01*
X006746Y005005D01*
X006671Y004930D01*
X006671Y004630D01*
X006746Y004555D01*
X006896Y004555D01*
X006971Y004630D01*
X006514Y004555D02*
X006364Y004555D01*
X006439Y004555D02*
X006439Y005005D01*
X006364Y005005D02*
X006514Y005005D01*
X002782Y006630D02*
X002782Y006705D01*
X002706Y006780D01*
X002481Y006780D01*
X002481Y006630D01*
X002556Y006555D01*
X002706Y006555D01*
X002782Y006630D01*
X002631Y006930D02*
X002481Y006780D01*
X002631Y006930D02*
X002782Y007005D01*
X002171Y007005D02*
X002171Y006555D01*
X002021Y006555D02*
X002321Y006555D01*
X002021Y006855D02*
X002171Y007005D01*
X009181Y009355D02*
X009482Y009355D01*
X009331Y009355D02*
X009331Y009805D01*
X009181Y009655D01*
X011421Y008980D02*
X011421Y008680D01*
X011496Y008605D01*
X011646Y008605D01*
X011721Y008680D01*
X011881Y008605D02*
X012182Y008605D01*
X012031Y008605D02*
X012031Y009055D01*
X011881Y008905D01*
X011721Y008980D02*
X011646Y009055D01*
X011496Y009055D01*
X011421Y008980D01*
X011667Y010805D02*
X011742Y010880D01*
X011742Y010955D01*
X011667Y011030D01*
X011291Y011030D01*
X011291Y010955D02*
X011291Y011105D01*
X011215Y011205D02*
X011101Y011318D01*
X011442Y011318D01*
X011442Y011205D02*
X011442Y011432D01*
X011516Y011566D02*
X011366Y011566D01*
X011291Y011491D01*
X011291Y011265D01*
X011742Y011265D01*
X011592Y011265D02*
X011592Y011491D01*
X011516Y011566D01*
X011441Y011726D02*
X011291Y011876D01*
X011742Y011876D01*
X011742Y011726D02*
X011742Y012026D01*
X011442Y012205D02*
X011215Y012432D01*
X011158Y012432D01*
X011101Y012375D01*
X011101Y012262D01*
X011158Y012205D01*
X011442Y012205D02*
X011442Y012432D01*
X013101Y012375D02*
X013101Y012262D01*
X013158Y012205D01*
X013101Y012375D02*
X013158Y012432D01*
X013215Y012432D01*
X013442Y012205D01*
X013442Y012432D01*
X013442Y012155D02*
X013667Y012155D01*
X013742Y012080D01*
X013742Y011930D01*
X013667Y011855D01*
X013442Y011855D01*
X013592Y011855D02*
X013742Y011705D01*
X013902Y011705D02*
X013902Y012155D01*
X014202Y011705D01*
X014202Y012155D01*
X014362Y012005D02*
X014513Y012155D01*
X014513Y011705D01*
X014663Y011705D02*
X014362Y011705D01*
X013442Y011705D02*
X013442Y012155D01*
X013442Y011432D02*
X013442Y011205D01*
X013442Y011318D02*
X013101Y011318D01*
X013215Y011205D01*
X013155Y011345D02*
X013155Y011005D01*
X013042Y011005D02*
X013269Y011005D01*
X013042Y011232D02*
X013155Y011345D01*
X015242Y011555D02*
X015542Y011555D01*
X015392Y011555D02*
X015392Y012005D01*
X015242Y011855D01*
X013442Y013262D02*
X013385Y013205D01*
X013442Y013262D02*
X013442Y013375D01*
X013385Y013432D01*
X013328Y013432D01*
X013272Y013375D01*
X013272Y013318D01*
X013272Y013375D02*
X013215Y013432D01*
X013158Y013432D01*
X013101Y013375D01*
X013101Y013262D01*
X013158Y013205D01*
X011442Y013262D02*
X011385Y013205D01*
X011442Y013262D02*
X011442Y013375D01*
X011385Y013432D01*
X011328Y013432D01*
X011272Y013375D01*
X011272Y013318D01*
X011272Y013375D02*
X011215Y013432D01*
X011158Y013432D01*
X011101Y013375D01*
X011101Y013262D01*
X011158Y013205D01*
X009742Y012026D02*
X009742Y011726D01*
X009441Y012026D01*
X009366Y012026D01*
X009291Y011951D01*
X009291Y011801D01*
X009366Y011726D01*
X009366Y011566D02*
X009516Y011566D01*
X009592Y011491D01*
X009592Y011265D01*
X009742Y011265D02*
X009291Y011265D01*
X009291Y011491D01*
X009366Y011566D01*
X009291Y011105D02*
X009291Y010955D01*
X009291Y011030D02*
X009667Y011030D01*
X009742Y010955D01*
X009742Y010880D01*
X009667Y010805D01*
X000742Y011055D02*
X000742Y011205D01*
X000742Y011130D02*
X000291Y011130D01*
X000291Y011055D02*
X000291Y011205D01*
X000366Y011362D02*
X000667Y011362D01*
X000742Y011437D01*
X000742Y011587D01*
X000667Y011662D01*
X000667Y011822D02*
X000742Y011822D01*
X000667Y011822D02*
X000366Y012123D01*
X000291Y012123D01*
X000291Y011822D01*
X000366Y011662D02*
X000291Y011587D01*
X000291Y011437D01*
X000366Y011362D01*
X031042Y014430D02*
X031117Y014355D01*
X031267Y014355D01*
X031342Y014430D01*
X031342Y014505D01*
X031267Y014580D01*
X031192Y014580D01*
X031267Y014580D02*
X031342Y014655D01*
X031342Y014730D01*
X031267Y014805D01*
X031117Y014805D01*
X031042Y014730D01*
X031502Y014580D02*
X031802Y014580D01*
X031727Y014355D02*
X031727Y014805D01*
X031502Y014580D01*
X032866Y011573D02*
X032941Y011573D01*
X033016Y011498D01*
X033016Y011347D01*
X032941Y011272D01*
X032866Y011272D01*
X032791Y011347D01*
X032791Y011498D01*
X032866Y011573D01*
X033016Y011498D02*
X033092Y011573D01*
X033167Y011573D01*
X033242Y011498D01*
X033242Y011347D01*
X033167Y011272D01*
X033092Y011272D01*
X033016Y011347D01*
X032866Y011112D02*
X032791Y011037D01*
X032791Y010887D01*
X032866Y010812D01*
X033167Y010812D01*
X033242Y010887D01*
X033242Y011037D01*
X033167Y011112D01*
X033242Y010655D02*
X033242Y010505D01*
X033242Y010580D02*
X032791Y010580D01*
X032791Y010505D02*
X032791Y010655D01*
X035942Y008370D02*
X036017Y008445D01*
X036167Y008445D01*
X036242Y008370D01*
X036242Y008070D01*
X036167Y007995D01*
X036017Y007995D01*
X035942Y008070D01*
X035942Y008370D01*
X036402Y008370D02*
X036402Y008070D01*
X036477Y007995D01*
X036627Y007995D01*
X036702Y008070D01*
X036702Y008220D01*
X036552Y008220D01*
X036402Y008370D02*
X036477Y008445D01*
X036627Y008445D01*
X036702Y008370D01*
X036862Y008295D02*
X037013Y008445D01*
X037013Y007995D01*
X037163Y007995D02*
X036862Y007995D01*
X036242Y007995D02*
X036092Y008145D01*
X035266Y006945D02*
X035266Y006645D01*
X035041Y006870D01*
X035492Y006870D01*
X035417Y006484D02*
X035492Y006409D01*
X035492Y006259D01*
X035417Y006184D01*
X035116Y006184D01*
X035041Y006259D01*
X035041Y006409D01*
X035116Y006484D01*
X036992Y003405D02*
X036992Y002955D01*
X036842Y002955D02*
X037142Y002955D01*
X036842Y003255D02*
X036992Y003405D01*
D13*
X035317Y002580D02*
X035317Y007280D01*
X035319Y007324D01*
X035325Y007367D01*
X035334Y007409D01*
X035347Y007451D01*
X035364Y007491D01*
X035384Y007530D01*
X035407Y007567D01*
X035434Y007601D01*
X035463Y007634D01*
X035496Y007663D01*
X035530Y007690D01*
X035567Y007713D01*
X035606Y007733D01*
X035646Y007750D01*
X035688Y007763D01*
X035730Y007772D01*
X035773Y007778D01*
X035817Y007780D01*
X040017Y007780D01*
X040061Y007778D01*
X040104Y007772D01*
X040146Y007763D01*
X040188Y007750D01*
X040228Y007733D01*
X040267Y007713D01*
X040304Y007690D01*
X040338Y007663D01*
X040371Y007634D01*
X040400Y007601D01*
X040427Y007567D01*
X040450Y007530D01*
X040470Y007491D01*
X040487Y007451D01*
X040500Y007409D01*
X040509Y007367D01*
X040515Y007324D01*
X040517Y007280D01*
X040517Y003080D01*
X040515Y003036D01*
X040509Y002993D01*
X040500Y002951D01*
X040487Y002909D01*
X040470Y002869D01*
X040450Y002830D01*
X040427Y002793D01*
X040400Y002759D01*
X040371Y002726D01*
X040338Y002697D01*
X040304Y002670D01*
X040267Y002647D01*
X040228Y002627D01*
X040188Y002610D01*
X040146Y002597D01*
X040104Y002588D01*
X040061Y002582D01*
X040017Y002580D01*
X035317Y002580D01*
X034717Y006080D02*
X034417Y006080D01*
X034117Y006080D01*
X034117Y006280D02*
X034417Y006280D01*
X034717Y006280D01*
X033217Y011580D02*
X032917Y011580D01*
X032617Y011580D01*
X032617Y011780D02*
X032917Y011780D01*
X033217Y011780D01*
X011517Y009980D02*
X011517Y009680D01*
X011517Y009380D01*
X011317Y009380D02*
X011317Y009680D01*
X011317Y009980D01*
X001717Y008280D02*
X001417Y008280D01*
X001117Y008280D01*
X001117Y008080D02*
X001417Y008080D01*
X001717Y008080D01*
D14*
X037547Y007180D02*
X037547Y006680D01*
X037547Y006180D01*
X037787Y006180D02*
X038037Y006180D01*
X038037Y007180D01*
X037787Y007180D01*
X037787Y006180D01*
X038287Y006180D02*
X038287Y006680D01*
X038287Y007180D01*
D15*
X032887Y006734D02*
X032887Y006617D01*
X032828Y006559D01*
X032887Y006434D02*
X032770Y006317D01*
X032770Y006375D02*
X032770Y006200D01*
X032887Y006200D02*
X032536Y006200D01*
X032536Y006375D01*
X032595Y006434D01*
X032712Y006434D01*
X032770Y006375D01*
X032595Y006559D02*
X032536Y006617D01*
X032536Y006734D01*
X032595Y006793D01*
X032653Y006793D01*
X032712Y006734D01*
X032770Y006793D01*
X032828Y006793D01*
X032887Y006734D01*
X032712Y006734D02*
X032712Y006676D01*
X020311Y002092D02*
X020253Y002150D01*
X020136Y002150D01*
X020078Y002092D01*
X019952Y002092D02*
X019952Y001975D01*
X019894Y001917D01*
X019718Y001917D01*
X019718Y001800D02*
X019718Y002150D01*
X019894Y002150D01*
X019952Y002092D01*
X019835Y001917D02*
X019952Y001800D01*
X020078Y001800D02*
X020311Y002034D01*
X020311Y002092D01*
X020311Y001800D02*
X020078Y001800D01*
X016311Y001800D02*
X016078Y001800D01*
X016194Y001800D02*
X016194Y002150D01*
X016078Y002034D01*
X015952Y002092D02*
X015894Y002150D01*
X015718Y002150D01*
X015718Y001800D01*
X015718Y001917D02*
X015894Y001917D01*
X015952Y001975D01*
X015952Y002092D01*
X015835Y001917D02*
X015952Y001800D01*
D16*
X016492Y002680D03*
X018342Y002680D03*
X020492Y002680D03*
X014342Y002680D03*
D17*
X033417Y006105D03*
X033417Y008255D03*
M02*
