G75*
%MOIN*%
%OFA0B0*%
%FSLAX24Y24*%
%IPPOS*%
%LPD*%
%AMOC8*
5,1,8,0,0,1.08239X$1,22.5*
%
%ADD10C,0.0600*%
%ADD11OC8,0.0600*%
%ADD12OC8,0.0520*%
%ADD13C,0.0520*%
%ADD14C,0.0520*%
%ADD15C,0.0560*%
%ADD16C,0.0200*%
%ADD17C,0.0400*%
%ADD18C,0.0100*%
D10*
X000917Y000880D02*
X000917Y001480D01*
X001917Y001480D02*
X001917Y000880D01*
X002917Y000880D02*
X002917Y001480D01*
X003917Y001480D02*
X003917Y000880D01*
X004917Y000880D02*
X004917Y001480D01*
X005917Y001480D02*
X005917Y000880D01*
X006917Y000880D02*
X006917Y001480D01*
X007917Y001480D02*
X007917Y000880D01*
X008917Y000880D02*
X008917Y001480D01*
X009917Y001480D02*
X009917Y000880D01*
X010917Y000880D02*
X010917Y001480D01*
X011917Y001480D02*
X011917Y000880D01*
X012917Y000880D02*
X012917Y001480D01*
X013917Y001480D02*
X013917Y000880D01*
X014917Y000880D02*
X014917Y001480D01*
X015917Y001480D02*
X015917Y000880D01*
X016917Y000880D02*
X016917Y001480D01*
X017917Y001480D02*
X017917Y000880D01*
X018917Y000880D02*
X018917Y001480D01*
X019917Y001480D02*
X019917Y000880D01*
X020917Y000880D02*
X020917Y001480D01*
X021917Y001480D02*
X021917Y000880D01*
X022917Y000880D02*
X022917Y001480D01*
X023917Y001480D02*
X023917Y000880D01*
X024917Y000880D02*
X024917Y001480D01*
X025917Y001480D02*
X025917Y000880D01*
X026917Y000880D02*
X026917Y001480D01*
X027917Y001480D02*
X027917Y000880D01*
X028917Y000880D02*
X028917Y001480D01*
X029917Y001480D02*
X029917Y000880D01*
X030917Y000880D02*
X030917Y001480D01*
X031917Y001480D02*
X031917Y000880D01*
X032917Y000880D02*
X032917Y001480D01*
X033917Y001480D02*
X033917Y000880D01*
X034917Y000880D02*
X034917Y001480D01*
X035917Y001480D02*
X035917Y000880D01*
X036917Y000880D02*
X036917Y001480D01*
X037917Y001480D02*
X037917Y000880D01*
X038917Y000880D02*
X038917Y001480D01*
X039917Y001480D02*
X039917Y000880D01*
D11*
X009417Y007680D03*
X008417Y007680D03*
X007417Y007680D03*
X006417Y007680D03*
X005417Y007680D03*
X004417Y007680D03*
X003417Y007680D03*
X002417Y007680D03*
X002417Y008680D03*
X003417Y008680D03*
X004417Y008680D03*
X005417Y008680D03*
X006417Y008680D03*
X007417Y008680D03*
X008417Y008680D03*
X009417Y008680D03*
X015417Y012680D03*
X016417Y012680D03*
X017417Y012680D03*
X018417Y012680D03*
X019417Y012680D03*
X020417Y012680D03*
X021417Y012680D03*
X022417Y012680D03*
X023417Y012680D03*
X024417Y012680D03*
X025417Y012680D03*
X026417Y012680D03*
X027417Y012680D03*
X028417Y012680D03*
X029417Y012680D03*
X030417Y012680D03*
X031417Y012680D03*
X031417Y013680D03*
X030417Y013680D03*
X029417Y013680D03*
X028417Y013680D03*
X027417Y013680D03*
X026417Y013680D03*
X025417Y013680D03*
X024417Y013680D03*
X023417Y013680D03*
X022417Y013680D03*
X021417Y013680D03*
X020417Y013680D03*
X019417Y013680D03*
X018417Y013680D03*
X017417Y013680D03*
X016417Y013680D03*
X015417Y013680D03*
D12*
X011917Y009680D03*
X010917Y009680D03*
X001417Y008680D03*
X001417Y007680D03*
X013917Y002680D03*
X016917Y002680D03*
X017917Y002680D03*
X020917Y002680D03*
X033417Y005680D03*
X034417Y005680D03*
X034417Y006680D03*
X033417Y008680D03*
X032917Y011180D03*
X032917Y012180D03*
D13*
X033917Y012920D02*
X033917Y013440D01*
X034917Y013440D02*
X034917Y012920D01*
X035917Y012920D02*
X035917Y013440D01*
X036917Y013440D02*
X036917Y012920D01*
X037917Y012920D02*
X037917Y013440D01*
X038917Y013440D02*
X038917Y012920D01*
X039917Y012920D02*
X039917Y013440D01*
X039917Y010440D02*
X039917Y009920D01*
X038917Y009920D02*
X038917Y010440D01*
X037917Y010440D02*
X037917Y009920D01*
X036917Y009920D02*
X036917Y010440D01*
X035917Y010440D02*
X035917Y009920D01*
X034917Y009920D02*
X034917Y010440D01*
X033917Y010440D02*
X033917Y009920D01*
X031917Y009940D02*
X031917Y009420D01*
X030917Y009420D02*
X030917Y009940D01*
X029917Y009940D02*
X029917Y009420D01*
X028917Y009420D02*
X028917Y009940D01*
X027917Y009940D02*
X027917Y009420D01*
X026917Y009420D02*
X026917Y009940D01*
X025917Y009940D02*
X025917Y009420D01*
X024917Y009420D02*
X024917Y009940D01*
X023917Y009940D02*
X023917Y009420D01*
X022917Y009420D02*
X022917Y009940D01*
X021917Y009940D02*
X021917Y009420D01*
X020917Y009420D02*
X020917Y009940D01*
X019917Y009940D02*
X019917Y009420D01*
X018917Y009420D02*
X018917Y009940D01*
X017917Y009940D02*
X017917Y009420D01*
X016917Y009420D02*
X016917Y009940D01*
X015917Y009940D02*
X015917Y009420D01*
X014917Y009420D02*
X014917Y009940D01*
X013917Y009940D02*
X013917Y009420D01*
X012917Y009420D02*
X012917Y009940D01*
X013917Y010920D02*
X013917Y011440D01*
X014917Y011440D02*
X014917Y010920D01*
X015917Y010920D02*
X015917Y011440D01*
X016917Y011440D02*
X016917Y010920D01*
X017917Y010920D02*
X017917Y011440D01*
X018917Y011440D02*
X018917Y010920D01*
X008417Y010940D02*
X008417Y010420D01*
X007417Y010420D02*
X007417Y010940D01*
X006417Y010940D02*
X006417Y010420D01*
X005417Y010420D02*
X005417Y010940D01*
X004417Y010940D02*
X004417Y010420D01*
X003417Y010420D02*
X003417Y010940D01*
X002417Y010940D02*
X002417Y010420D01*
X001417Y010420D02*
X001417Y010940D01*
X001417Y013420D02*
X001417Y013940D01*
X002417Y013940D02*
X002417Y013420D01*
X003417Y013420D02*
X003417Y013940D01*
X004417Y013940D02*
X004417Y013420D01*
X005417Y013420D02*
X005417Y013940D01*
X006417Y013940D02*
X006417Y013420D01*
X007417Y013420D02*
X007417Y013940D01*
X008417Y013940D02*
X008417Y013420D01*
X008417Y006440D02*
X008417Y005920D01*
X007417Y005920D02*
X007417Y006440D01*
X006417Y006440D02*
X006417Y005920D01*
X005417Y005920D02*
X005417Y006440D01*
X004417Y006440D02*
X004417Y005920D01*
X003417Y005920D02*
X003417Y006440D01*
X002417Y006440D02*
X002417Y005920D01*
X001417Y005920D02*
X001417Y006440D01*
X001417Y003440D02*
X001417Y002920D01*
X002417Y002920D02*
X002417Y003440D01*
X003417Y003440D02*
X003417Y002920D01*
X004417Y002920D02*
X004417Y003440D01*
X005417Y003440D02*
X005417Y002920D01*
X006417Y002920D02*
X006417Y003440D01*
X007417Y003440D02*
X007417Y002920D01*
X008417Y002920D02*
X008417Y003440D01*
X012917Y003420D02*
X012917Y003940D01*
X013917Y003940D02*
X013917Y003420D01*
X014917Y003420D02*
X014917Y003940D01*
X015917Y003940D02*
X015917Y003420D01*
X016917Y003420D02*
X016917Y003940D01*
X017917Y003940D02*
X017917Y003420D01*
X018917Y003420D02*
X018917Y003940D01*
X019917Y003940D02*
X019917Y003420D01*
X020917Y003420D02*
X020917Y003940D01*
X021917Y003940D02*
X021917Y003420D01*
X022917Y003420D02*
X022917Y003940D01*
X023917Y003940D02*
X023917Y003420D01*
X024917Y003420D02*
X024917Y003940D01*
X025917Y003940D02*
X025917Y003420D01*
X026917Y003420D02*
X026917Y003940D01*
X027917Y003940D02*
X027917Y003420D01*
X028917Y003420D02*
X028917Y003940D01*
X029917Y003940D02*
X029917Y003420D01*
X030917Y003420D02*
X030917Y003940D01*
X031917Y003940D02*
X031917Y003420D01*
D14*
X036417Y003680D03*
X039417Y003680D03*
X039417Y006680D03*
X036417Y006680D03*
D15*
X012697Y011180D02*
X012137Y011180D01*
X010697Y011180D02*
X010137Y011180D01*
X010137Y012180D02*
X010697Y012180D01*
X012137Y012180D02*
X012697Y012180D01*
X012697Y013180D02*
X012137Y013180D01*
X010697Y013180D02*
X010137Y013180D01*
D16*
X009967Y013180D02*
X010417Y013180D01*
X009967Y013180D02*
X009217Y012430D01*
X009217Y012230D01*
X006417Y010680D02*
X005667Y011430D01*
X003667Y011430D01*
X001417Y013680D01*
X005417Y010680D02*
X006167Y009930D01*
X007667Y009930D01*
X008417Y010680D01*
X008367Y010530D01*
X011017Y007880D01*
X011017Y007530D01*
X014417Y004130D01*
X014417Y003230D01*
X014717Y002930D01*
X015117Y002930D01*
X015417Y003230D01*
X015417Y004130D01*
X015717Y004430D01*
X016117Y004430D01*
X016417Y004130D01*
X016417Y002480D01*
X016717Y002180D01*
X017417Y002180D01*
X017417Y002980D01*
X017417Y002180D02*
X017417Y001680D01*
X016917Y001180D01*
X008417Y003180D02*
X007667Y002430D01*
X006167Y002430D01*
X005417Y003180D01*
X001417Y006180D02*
X001417Y007680D01*
X012917Y009680D02*
X013867Y008730D01*
X027967Y008730D01*
X028917Y009680D01*
X031417Y012180D01*
X032917Y012180D01*
X033917Y013180D01*
X034667Y013930D01*
X035167Y013930D01*
X035917Y013180D01*
X036667Y013930D01*
X037417Y013930D01*
X037417Y009730D01*
X036417Y008730D01*
X036417Y006680D01*
X034417Y005680D02*
X033417Y005680D01*
X039417Y003680D02*
X039917Y004180D01*
X039917Y010180D01*
X032917Y010680D02*
X031917Y009680D01*
X030917Y009680D01*
X032917Y010680D02*
X032917Y011180D01*
X030417Y012680D02*
X029417Y012680D01*
X025417Y012680D02*
X024417Y012680D01*
X022417Y012680D02*
X021917Y012180D01*
X021417Y012680D01*
X021917Y012180D02*
X021917Y009680D01*
X018417Y012680D02*
X017417Y012680D01*
X016417Y012680D01*
X015417Y012680D01*
X013917Y011180D02*
X013917Y010680D01*
X012917Y009680D01*
X037417Y013930D02*
X038167Y013930D01*
X038917Y013180D01*
D17*
X033867Y012330D03*
X031567Y008480D03*
X024467Y008130D03*
X027767Y004830D03*
X019967Y002280D03*
X017417Y002980D03*
X011567Y002780D03*
X012517Y007280D03*
X013017Y007430D03*
X012017Y007780D03*
X009217Y012230D03*
X013317Y013180D03*
X011217Y014230D03*
D18*
X012267Y014230D01*
X013317Y013180D01*
X012417Y013180D02*
X011767Y013180D01*
X010567Y014380D01*
X003267Y014380D01*
X002567Y013680D01*
X002417Y013680D01*
X006417Y013680D02*
X006417Y013530D01*
X011267Y008680D01*
X011267Y007680D01*
X014917Y004030D01*
X014917Y003680D01*
X015917Y003680D02*
X015917Y001180D01*
X015467Y001580D02*
X015467Y000680D01*
X015717Y000430D01*
X024167Y000430D01*
X024917Y001180D01*
X024917Y001130D01*
X025617Y000430D01*
X035117Y000430D01*
X035367Y000680D01*
X035367Y001580D01*
X037917Y004130D01*
X037917Y010180D01*
X038917Y010180D02*
X038917Y012330D01*
X039367Y012780D01*
X039367Y013580D01*
X038617Y014330D01*
X015417Y014330D01*
X013167Y012080D01*
X013167Y011930D01*
X012417Y011180D01*
X011467Y011030D02*
X011467Y007830D01*
X012617Y006680D01*
X015067Y006680D01*
X017917Y003830D01*
X017917Y003680D01*
X017917Y002680D01*
X016917Y002680D02*
X016917Y003680D01*
X018467Y003980D02*
X018467Y001630D01*
X018917Y001180D01*
X019467Y001630D02*
X019917Y001180D01*
X019467Y001630D02*
X019467Y004080D01*
X020567Y005180D01*
X028767Y005180D01*
X032367Y008780D01*
X032367Y009480D01*
X034917Y012030D01*
X034917Y013180D01*
X036917Y013180D02*
X036917Y013030D01*
X034367Y010480D01*
X034367Y009630D01*
X033417Y008680D01*
X030917Y006180D01*
X030917Y003680D01*
X030467Y003980D02*
X030467Y003280D01*
X030767Y002980D01*
X031067Y002980D01*
X031467Y003380D01*
X031467Y005880D01*
X035467Y009880D01*
X035467Y010580D01*
X035767Y010880D01*
X036217Y010880D01*
X036917Y010180D01*
X035917Y010180D02*
X035917Y003180D01*
X033917Y001180D01*
X031917Y001180D02*
X030167Y002930D01*
X024817Y002930D01*
X024067Y003680D01*
X023917Y003680D01*
X023067Y003680D02*
X024017Y002730D01*
X029367Y002730D01*
X030917Y001180D01*
X029917Y001180D02*
X028567Y002530D01*
X023217Y002530D01*
X022067Y003680D01*
X021917Y003680D01*
X021067Y003680D02*
X022417Y002330D01*
X027767Y002330D01*
X028917Y001180D01*
X026917Y001180D02*
X026167Y001930D01*
X021067Y001930D01*
X020717Y002280D01*
X019967Y002280D01*
X020917Y003680D02*
X021067Y003680D01*
X022917Y003680D02*
X023067Y003680D01*
X027767Y004830D02*
X028917Y003680D01*
X029067Y003680D01*
X029767Y004380D01*
X030067Y004380D01*
X030467Y003980D01*
X028817Y007430D02*
X013017Y007430D01*
X012667Y007280D02*
X013067Y006880D01*
X015567Y006880D01*
X018467Y003980D01*
X014067Y001930D02*
X012917Y003080D01*
X012917Y003680D01*
X011917Y002930D02*
X011667Y003180D01*
X011667Y003780D01*
X007967Y007480D01*
X007967Y007780D01*
X007617Y008130D01*
X002317Y008130D01*
X001967Y008480D01*
X001967Y008880D01*
X003417Y010330D01*
X003417Y010680D01*
X004417Y010680D02*
X004417Y008680D01*
X003417Y008680D01*
X002417Y008680D01*
X001367Y008130D02*
X000967Y008530D01*
X000967Y008830D01*
X002417Y010280D01*
X002417Y010680D01*
X001417Y010680D02*
X001417Y009580D01*
X000767Y008930D01*
X000767Y005980D01*
X002667Y004080D01*
X008967Y004080D01*
X011467Y001580D01*
X011467Y000680D01*
X011717Y000430D01*
X013167Y000430D01*
X013917Y001180D01*
X015117Y001930D02*
X015467Y001580D01*
X015117Y001930D02*
X014067Y001930D01*
X011917Y001180D02*
X011917Y002930D01*
X011567Y002780D02*
X010067Y004280D01*
X003467Y004280D01*
X001967Y005780D01*
X001967Y007730D01*
X001567Y008130D01*
X001367Y008130D01*
X002417Y007680D02*
X002417Y006180D01*
X003417Y006180D02*
X003417Y007680D01*
X004417Y007680D02*
X004417Y006180D01*
X005417Y006180D02*
X005417Y007680D01*
X006417Y007680D02*
X006417Y006180D01*
X007417Y006180D02*
X007417Y007680D01*
X007417Y008680D02*
X006417Y008680D01*
X005417Y008680D01*
X004417Y008680D01*
X007417Y008680D02*
X008417Y008680D01*
X009417Y008680D01*
X012017Y007780D02*
X028867Y007780D01*
X030367Y009280D01*
X030367Y009980D01*
X032017Y011630D01*
X032967Y011630D01*
X033667Y012330D01*
X033867Y012330D01*
X030867Y012480D02*
X030867Y013230D01*
X030417Y013680D01*
X029967Y013580D02*
X029967Y013880D01*
X030217Y014130D01*
X030967Y014130D01*
X031417Y013680D01*
X029967Y013580D02*
X029617Y013230D01*
X029317Y013230D01*
X028967Y012880D01*
X028967Y012580D01*
X027467Y011080D01*
X027467Y009380D01*
X027067Y008980D01*
X019767Y008980D01*
X019467Y009280D01*
X019467Y009980D01*
X018917Y010530D01*
X018917Y011180D01*
X018267Y011880D02*
X017617Y011880D01*
X016917Y011180D01*
X016367Y010880D02*
X016367Y011580D01*
X015717Y012230D01*
X015217Y012230D01*
X014967Y012480D01*
X014967Y013230D01*
X015417Y013680D01*
X018267Y011880D02*
X018867Y012480D01*
X018867Y013780D01*
X019217Y014130D01*
X027617Y014130D01*
X028067Y013680D01*
X028417Y013680D01*
X026917Y013180D02*
X026417Y013680D01*
X026917Y013180D02*
X026917Y009680D01*
X027917Y009680D02*
X028067Y009680D01*
X030867Y012480D01*
X025917Y013180D02*
X025417Y013680D01*
X024417Y013680D02*
X023917Y013180D01*
X023917Y009680D01*
X022917Y009680D02*
X022917Y012830D01*
X022517Y013230D01*
X021867Y013230D01*
X021417Y013680D01*
X020917Y013180D02*
X020417Y013680D01*
X019917Y013180D02*
X019417Y013680D01*
X019917Y013180D02*
X019917Y009680D01*
X020917Y009680D02*
X020917Y013180D01*
X025917Y013180D02*
X025917Y009680D01*
X028817Y007430D02*
X029867Y008480D01*
X031567Y008480D01*
X024467Y008130D02*
X013617Y008130D01*
X012467Y009280D01*
X012467Y009730D01*
X011667Y010530D01*
X011667Y012830D01*
X010817Y013680D01*
X008417Y013680D01*
X010417Y012180D02*
X010417Y012080D01*
X011467Y011030D01*
X013917Y010180D02*
X014917Y011180D01*
X015917Y011180D02*
X014917Y010180D01*
X014917Y009680D01*
X013917Y009680D02*
X013917Y010180D01*
X016367Y010880D02*
X016917Y010330D01*
X016917Y009680D01*
X012667Y007280D02*
X012517Y007280D01*
X008567Y003880D02*
X010917Y001530D01*
X010917Y001180D01*
X008917Y001180D02*
X008167Y001930D01*
X004817Y001930D01*
X003567Y003180D01*
X003417Y003180D01*
X002267Y003880D02*
X008567Y003880D01*
X002267Y003880D02*
X001567Y003180D01*
X001417Y003180D01*
M02*
