G75*
%MOIN*%
%OFA0B0*%
%FSLAX24Y24*%
%IPPOS*%
%LPD*%
%AMOC8*
5,1,8,0,0,1.08239X$1,22.5*
%
%ADD10C,0.0680*%
%ADD11OC8,0.0600*%
%ADD12C,0.0600*%
%ADD13OC8,0.0680*%
D10*
X000680Y000880D02*
X000680Y001480D01*
X001680Y001480D02*
X001680Y000880D01*
X002680Y000880D02*
X002680Y001480D01*
X003680Y001480D02*
X003680Y000880D01*
X004680Y000880D02*
X004680Y001480D01*
X005680Y001480D02*
X005680Y000880D01*
X006680Y000880D02*
X006680Y001480D01*
X007680Y001480D02*
X007680Y000880D01*
X008680Y000880D02*
X008680Y001480D01*
X009680Y001480D02*
X009680Y000880D01*
X010680Y000880D02*
X010680Y001480D01*
X011680Y001480D02*
X011680Y000880D01*
X012680Y000880D02*
X012680Y001480D01*
X013680Y001480D02*
X013680Y000880D01*
X014680Y000880D02*
X014680Y001480D01*
X015680Y001480D02*
X015680Y000880D01*
X016680Y000880D02*
X016680Y001480D01*
X017680Y001480D02*
X017680Y000880D01*
X018680Y000880D02*
X018680Y001480D01*
X019680Y001480D02*
X019680Y000880D01*
X020680Y000880D02*
X020680Y001480D01*
X021680Y001480D02*
X021680Y000880D01*
X022680Y000880D02*
X022680Y001480D01*
X023680Y001480D02*
X023680Y000880D01*
X024680Y000880D02*
X024680Y001480D01*
X025680Y001480D02*
X025680Y000880D01*
X026680Y000880D02*
X026680Y001480D01*
X027680Y001480D02*
X027680Y000880D01*
X028680Y000880D02*
X028680Y001480D01*
X029680Y001480D02*
X029680Y000880D01*
X030680Y000880D02*
X030680Y001480D01*
X031680Y001480D02*
X031680Y000880D01*
X032680Y000880D02*
X032680Y001480D01*
X033680Y001480D02*
X033680Y000880D01*
X034680Y000880D02*
X034680Y001480D01*
X035680Y001480D02*
X035680Y000880D01*
X036680Y000880D02*
X036680Y001480D01*
X037680Y001480D02*
X037680Y000880D01*
X038680Y000880D02*
X038680Y001480D01*
X039680Y001480D02*
X039680Y000880D01*
D11*
X032680Y007680D03*
X032680Y008680D03*
X030180Y011680D03*
X029180Y011680D03*
X031680Y013180D03*
X031680Y014180D03*
X023180Y011680D03*
X022180Y011680D03*
X019680Y016180D03*
X019680Y017180D03*
X001180Y017180D03*
X001180Y016180D03*
X001180Y009180D03*
X001180Y008180D03*
D12*
X002180Y008920D02*
X002180Y009440D01*
X003180Y009440D02*
X003180Y008920D01*
X004180Y008920D02*
X004180Y009440D01*
X005180Y009440D02*
X005180Y008920D01*
X006180Y008920D02*
X006180Y009440D01*
X007180Y009440D02*
X007180Y008920D01*
X008180Y008920D02*
X008180Y009440D01*
X009180Y009440D02*
X009180Y008920D01*
X010180Y008920D02*
X010180Y009440D01*
X011180Y009440D02*
X011180Y008920D01*
X012180Y008920D02*
X012180Y009440D01*
X013180Y009440D02*
X013180Y008920D01*
X014180Y008920D02*
X014180Y009440D01*
X015180Y009440D02*
X015180Y008920D01*
X016180Y008920D02*
X016180Y009440D01*
X017180Y009440D02*
X017180Y008920D01*
X018920Y008180D02*
X019440Y008180D01*
X019920Y007680D02*
X020440Y007680D01*
X019440Y007180D02*
X018920Y007180D01*
X019920Y006680D02*
X020440Y006680D01*
X019440Y006180D02*
X018920Y006180D01*
X019920Y005680D02*
X020440Y005680D01*
X019440Y005180D02*
X018920Y005180D01*
X019920Y004680D02*
X020440Y004680D01*
X019440Y004180D02*
X018920Y004180D01*
X019920Y003680D02*
X020440Y003680D01*
X019440Y003180D02*
X018920Y003180D01*
X017180Y002920D02*
X017180Y003440D01*
X016180Y003440D02*
X016180Y002920D01*
X015180Y002920D02*
X015180Y003440D01*
X014180Y003440D02*
X014180Y002920D01*
X013180Y002920D02*
X013180Y003440D01*
X012180Y003440D02*
X012180Y002920D01*
X011180Y002920D02*
X011180Y003440D01*
X010180Y003440D02*
X010180Y002920D01*
X009180Y002920D02*
X009180Y003440D01*
X008180Y003440D02*
X008180Y002920D01*
X007180Y002920D02*
X007180Y003440D01*
X006180Y003440D02*
X006180Y002920D01*
X005180Y002920D02*
X005180Y003440D01*
X004180Y003440D02*
X004180Y002920D01*
X003180Y002920D02*
X003180Y003440D01*
X002180Y003440D02*
X002180Y002920D01*
X019920Y008680D02*
X020440Y008680D01*
X020440Y009680D02*
X019920Y009680D01*
X019920Y010680D02*
X020440Y010680D01*
X022920Y010680D02*
X023440Y010680D01*
X023440Y009680D02*
X022920Y009680D01*
X022920Y008680D02*
X023440Y008680D01*
X023440Y007680D02*
X022920Y007680D01*
X022920Y006680D02*
X023440Y006680D01*
X023440Y005680D02*
X022920Y005680D01*
X022920Y004680D02*
X023440Y004680D01*
X023440Y003680D02*
X022920Y003680D01*
X025920Y003180D02*
X026440Y003180D01*
X026920Y003680D02*
X027440Y003680D01*
X026440Y004180D02*
X025920Y004180D01*
X026920Y004680D02*
X027440Y004680D01*
X026440Y005180D02*
X025920Y005180D01*
X026920Y005680D02*
X027440Y005680D01*
X026440Y006180D02*
X025920Y006180D01*
X026920Y006680D02*
X027440Y006680D01*
X026440Y007180D02*
X025920Y007180D01*
X026920Y007680D02*
X027440Y007680D01*
X026440Y008180D02*
X025920Y008180D01*
X026920Y008680D02*
X027440Y008680D01*
X027440Y009680D02*
X026920Y009680D01*
X026920Y010680D02*
X027440Y010680D01*
X029920Y010680D02*
X030440Y010680D01*
X032680Y010920D02*
X032680Y011440D01*
X033680Y011440D02*
X033680Y010920D01*
X034680Y010920D02*
X034680Y011440D01*
X035680Y011440D02*
X035680Y010920D01*
X036680Y010920D02*
X036680Y011440D01*
X037680Y011440D02*
X037680Y010920D01*
X038680Y010920D02*
X038680Y011440D01*
X039680Y011440D02*
X039680Y010920D01*
X039680Y008940D02*
X039680Y008420D01*
X038680Y008420D02*
X038680Y008940D01*
X037680Y008940D02*
X037680Y008420D01*
X036680Y008420D02*
X036680Y008940D01*
X035680Y008940D02*
X035680Y008420D01*
X034680Y008420D02*
X034680Y008940D01*
X033680Y008940D02*
X033680Y008420D01*
X030440Y008680D02*
X029920Y008680D01*
X029920Y009680D02*
X030440Y009680D01*
X030440Y007680D02*
X029920Y007680D01*
X029920Y006680D02*
X030440Y006680D01*
X030440Y005680D02*
X029920Y005680D01*
X029920Y004680D02*
X030440Y004680D01*
X030440Y003680D02*
X029920Y003680D01*
X033680Y005420D02*
X033680Y005940D01*
X034680Y005940D02*
X034680Y005420D01*
X035680Y005420D02*
X035680Y005940D01*
X036680Y005940D02*
X036680Y005420D01*
X037680Y005420D02*
X037680Y005940D01*
X038680Y005940D02*
X038680Y005420D01*
X039680Y005420D02*
X039680Y005940D01*
X039680Y013920D02*
X039680Y014440D01*
X038680Y014440D02*
X038680Y013920D01*
X037680Y013920D02*
X037680Y014440D01*
X036680Y014440D02*
X036680Y013920D01*
X035680Y013920D02*
X035680Y014440D01*
X034680Y014440D02*
X034680Y013920D01*
X033680Y013920D02*
X033680Y014440D01*
X032680Y014440D02*
X032680Y013920D01*
X027680Y013920D02*
X027680Y014440D01*
X026680Y014440D02*
X026680Y013920D01*
X025680Y013920D02*
X025680Y014440D01*
X024680Y014440D02*
X024680Y013920D01*
X023680Y013920D02*
X023680Y014440D01*
X022680Y014440D02*
X022680Y013920D01*
X021680Y013920D02*
X021680Y014440D01*
X020680Y014440D02*
X020680Y013920D01*
X017180Y011440D02*
X017180Y010920D01*
X016180Y010920D02*
X016180Y011440D01*
X015180Y011440D02*
X015180Y010920D01*
X014180Y010920D02*
X014180Y011440D01*
X013180Y011440D02*
X013180Y010920D01*
X012180Y010920D02*
X012180Y011440D01*
X011180Y011440D02*
X011180Y010920D01*
X010180Y010920D02*
X010180Y011440D01*
X009180Y011440D02*
X009180Y010920D01*
X008180Y010920D02*
X008180Y011440D01*
X007180Y011440D02*
X007180Y010920D01*
X006180Y010920D02*
X006180Y011440D01*
X005180Y011440D02*
X005180Y010920D01*
X004180Y010920D02*
X004180Y011440D01*
X003180Y011440D02*
X003180Y010920D01*
X002180Y010920D02*
X002180Y011440D01*
X002180Y016920D02*
X002180Y017440D01*
X003180Y017440D02*
X003180Y016920D01*
X004180Y016920D02*
X004180Y017440D01*
X005180Y017440D02*
X005180Y016920D01*
X006180Y016920D02*
X006180Y017440D01*
X007180Y017440D02*
X007180Y016920D01*
X008180Y016920D02*
X008180Y017440D01*
X009180Y017440D02*
X009180Y016920D01*
X010180Y016920D02*
X010180Y017440D01*
X011180Y017440D02*
X011180Y016920D01*
X012180Y016920D02*
X012180Y017440D01*
X013180Y017440D02*
X013180Y016920D01*
X014180Y016920D02*
X014180Y017440D01*
X015180Y017440D02*
X015180Y016920D01*
X016180Y016920D02*
X016180Y017440D01*
X017180Y017440D02*
X017180Y016920D01*
X020680Y016920D02*
X020680Y017440D01*
X021680Y017440D02*
X021680Y016920D01*
X022680Y016920D02*
X022680Y017440D01*
X023680Y017440D02*
X023680Y016920D01*
X024680Y016920D02*
X024680Y017440D01*
X025680Y017440D02*
X025680Y016920D01*
X026680Y016920D02*
X026680Y017440D01*
X027680Y017440D02*
X027680Y016920D01*
D13*
X032680Y016680D03*
X033680Y016680D03*
X034680Y016680D03*
X035680Y016680D03*
X036680Y016680D03*
X037680Y016680D03*
X038680Y016680D03*
X039680Y016680D03*
X039680Y015680D03*
X038680Y015680D03*
X037680Y015680D03*
X036680Y015680D03*
X035680Y015680D03*
X034680Y015680D03*
X033680Y015680D03*
X032680Y015680D03*
M02*
