%
M48
M72
T01C0.0240
T02C0.0320
T03C0.0400
%
T01
X8118Y4368
X5743Y4743
X4805Y5930
X3118Y7430
X1618Y5993
X3743Y9805
X7305Y12243
X11243Y14118
X13243Y13743
X14618Y12243
X18930Y13743
X20305Y13493
X22055Y13493
X20680Y12493
X19180Y11868
X19680Y11680
X21555Y10618
X22493Y11055
X24243Y10118
X24868Y9680
X25743Y10743
X26493Y11930
X28618Y11430
X30993Y11993
X29618Y12743
X29993Y13180
X29055Y13930
X29930Y14305
X28868Y14618
X30305Y15368
X32118Y15368
X33118Y14805
X33743Y12368
X31618Y10868
X32555Y10055
X34118Y10118
X31055Y9305
X31805Y8743
X31805Y8055
X31430Y7680
X32618Y7118
X34493Y7868
X37118Y6743
X36118Y4618
X34368Y4618
X33305Y4430
X32180Y4618
X31055Y2993
X30305Y2743
X29493Y2868
X30055Y1993
X27430Y2493
X25680Y2305
X22868Y2305
X22118Y2743
X18180Y2680
X16680Y2305
X20805Y5118
X18180Y6305
X18180Y6805
X17680Y7743
X16618Y8180
X17805Y8555
X18305Y9305
X15805Y9868
X12555Y8180
X12805Y5305
X11118Y5305
X10555Y4805
X21055Y8743
X21243Y9805
X24493Y7493
X24055Y6180
X25055Y5680
X24680Y5118
X28555Y4118
X29118Y6743
X29118Y7243
X29118Y8430
X28743Y9493
X28243Y9493
X21618Y7118
X23805Y12743
X20118Y14493
X17805Y14868
X20368Y16118
X19118Y16430
X18680Y16805
X23555Y15118
X24055Y15118
X25305Y14868
X27243Y15618
X26493Y15868
X25305Y15868
X12368Y15368
X35180Y1868
T02
X30180Y3680
X30180Y4680
X30180Y5680
X30180Y6680
X30180Y7680
X30180Y8680
X30180Y9680
X30180Y10680
X30180Y11680
X29180Y11680
X27180Y10680
X27180Y9680
X27180Y8680
X26180Y8180
X27180Y7680
X26180Y7180
X27180Y6680
X26180Y6180
X27180Y5680
X26180Y5180
X27180Y4680
X26180Y4180
X27180Y3680
X26180Y3180
X23180Y3680
X23180Y4680
X23180Y5680
X23180Y6680
X23180Y7680
X23180Y8680
X23180Y9680
X23180Y10680
X23180Y11680
X22180Y11680
X20180Y10680
X20180Y9680
X20180Y8680
X19180Y8180
X20180Y7680
X19180Y7180
X20180Y6680
X19180Y6180
X20180Y5680
X19180Y5180
X20180Y4680
X19180Y4180
X20180Y3680
X19180Y3180
X17180Y3180
X16180Y3180
X15180Y3180
X14180Y3180
X13180Y3180
X12180Y3180
X11180Y3180
X10180Y3180
X9180Y3180
X8180Y3180
X7180Y3180
X6180Y3180
X5180Y3180
X4180Y3180
X3180Y3180
X2180Y3180
X1180Y8180
X1180Y9180
X2180Y9180
X3180Y9180
X4180Y9180
X5180Y9180
X6180Y9180
X7180Y9180
X8180Y9180
X9180Y9180
X10180Y9180
X11180Y9180
X12180Y9180
X13180Y9180
X14180Y9180
X15180Y9180
X16180Y9180
X17180Y9180
X17180Y11180
X16180Y11180
X15180Y11180
X14180Y11180
X13180Y11180
X12180Y11180
X11180Y11180
X10180Y11180
X9180Y11180
X8180Y11180
X7180Y11180
X6180Y11180
X5180Y11180
X4180Y11180
X3180Y11180
X2180Y11180
X1180Y16180
X1180Y17180
X2180Y17180
X3180Y17180
X4180Y17180
X5180Y17180
X6180Y17180
X7180Y17180
X8180Y17180
X9180Y17180
X10180Y17180
X11180Y17180
X12180Y17180
X13180Y17180
X14180Y17180
X15180Y17180
X16180Y17180
X17180Y17180
X19680Y17180
X20680Y17180
X21680Y17180
X22680Y17180
X23680Y17180
X24680Y17180
X25680Y17180
X26680Y17180
X27680Y17180
X27680Y14180
X26680Y14180
X25680Y14180
X24680Y14180
X23680Y14180
X22680Y14180
X21680Y14180
X20680Y14180
X19680Y16180
X31680Y14180
X32680Y14180
X33680Y14180
X34680Y14180
X35680Y14180
X36680Y14180
X37680Y14180
X38680Y14180
X39680Y14180
X39680Y11180
X38680Y11180
X37680Y11180
X36680Y11180
X35680Y11180
X34680Y11180
X33680Y11180
X32680Y11180
X31680Y13180
X32680Y8680
X33680Y8680
X34680Y8680
X35680Y8680
X36680Y8680
X37680Y8680
X38680Y8680
X39680Y8680
X39680Y5680
X38680Y5680
X37680Y5680
X36680Y5680
X35680Y5680
X34680Y5680
X33680Y5680
X32680Y7680
T03
X680Y1180
X1680Y1180
X2680Y1180
X3680Y1180
X4680Y1180
X5680Y1180
X6680Y1180
X7680Y1180
X8680Y1180
X9680Y1180
X10680Y1180
X11680Y1180
X12680Y1180
X13680Y1180
X14680Y1180
X15680Y1180
X16680Y1180
X17680Y1180
X18680Y1180
X19680Y1180
X20680Y1180
X21680Y1180
X22680Y1180
X23680Y1180
X24680Y1180
X25680Y1180
X26680Y1180
X27680Y1180
X28680Y1180
X29680Y1180
X30680Y1180
X31680Y1180
X32680Y1180
X33680Y1180
X34680Y1180
X35680Y1180
X36680Y1180
X37680Y1180
X38680Y1180
X39680Y1180
X39680Y15680
X38680Y15680
X37680Y15680
X36680Y15680
X35680Y15680
X34680Y15680
X33680Y15680
X32680Y15680
X32680Y16680
X33680Y16680
X34680Y16680
X35680Y16680
X36680Y16680
X37680Y16680
X38680Y16680
X39680Y16680
M30
