G75*
%MOIN*%
%OFA0B0*%
%FSLAX24Y24*%
%IPPOS*%
%LPD*%
%AMOC8*
5,1,8,0,0,1.08239X$1,22.5*
%
%ADD10C,0.1330*%
%ADD11OC8,0.0600*%
%ADD12C,0.0600*%
%ADD13OC8,0.0760*%
%ADD14C,0.0640*%
%ADD15C,0.1386*%
%ADD16C,0.0907*%
%ADD17C,0.0680*%
%ADD18C,0.0600*%
%ADD19OC8,0.0680*%
D10*
X004416Y001180D03*
X032916Y001180D03*
X032916Y015680D03*
X004416Y015680D03*
D11*
X010416Y014680D03*
X011416Y014680D03*
X012416Y014680D03*
X014416Y014180D03*
X017416Y014180D03*
X018416Y014180D03*
X021416Y014180D03*
X023316Y014180D03*
X020906Y012180D03*
X019916Y011180D03*
X019916Y010180D03*
X020916Y010180D03*
X021916Y010180D03*
X022916Y010180D03*
X023916Y010180D03*
X024916Y010180D03*
X027416Y013080D03*
X029916Y013080D03*
X018926Y012180D03*
X017416Y012180D03*
X016416Y012180D03*
X013416Y011680D03*
X012416Y011680D03*
X011416Y011680D03*
X010416Y011680D03*
X011416Y010180D03*
X011416Y009180D03*
X011416Y008180D03*
X013416Y008680D03*
X011416Y006680D03*
X011416Y005680D03*
X011416Y004680D03*
X013416Y004680D03*
X012416Y002680D03*
X010906Y002680D03*
X008926Y002680D03*
X009916Y001680D03*
X012416Y001680D03*
X013416Y001680D03*
X014916Y001180D03*
X015916Y001180D03*
X016916Y001180D03*
X018916Y002680D03*
X020416Y003180D03*
X018916Y003680D03*
X018916Y005180D03*
X018916Y006180D03*
X020416Y006180D03*
X020916Y007180D03*
X021916Y007180D03*
X022916Y007180D03*
X023916Y007180D03*
X024916Y007180D03*
X025416Y006180D03*
X024916Y004680D03*
X024916Y003680D03*
X024516Y002180D03*
X021916Y002280D03*
X019916Y001180D03*
X029416Y001180D03*
X030416Y001180D03*
X022416Y006180D03*
X019916Y007180D03*
X018916Y008180D03*
X018916Y009180D03*
X008416Y009180D03*
X008416Y008180D03*
X008416Y006680D03*
X008416Y005680D03*
X008416Y004680D03*
X008416Y010180D03*
D12*
X022516Y014180D03*
X027416Y012280D03*
X029916Y012280D03*
X021916Y003080D03*
X025316Y002180D03*
D13*
X017916Y002180D03*
X017916Y003180D03*
X017916Y004180D03*
X017916Y005180D03*
X014916Y005180D03*
X014916Y004180D03*
X014916Y003180D03*
X014916Y002180D03*
X014916Y007180D03*
X014916Y008180D03*
X014916Y009180D03*
X014916Y010180D03*
X017916Y010180D03*
X017916Y009180D03*
X017916Y008180D03*
X017916Y007180D03*
D14*
X022416Y011900D02*
X022416Y012460D01*
X023416Y012460D02*
X023416Y011900D01*
X024416Y011900D02*
X024416Y012460D01*
X006916Y009460D02*
X006916Y008900D01*
X005916Y008900D02*
X005916Y009460D01*
X004916Y009460D02*
X004916Y008900D01*
X004916Y007960D02*
X004916Y007400D01*
X005916Y007400D02*
X005916Y007960D01*
X006916Y007960D02*
X006916Y007400D01*
D15*
X006872Y006137D03*
X005416Y004680D03*
X006872Y003223D03*
X006872Y010723D03*
X005416Y012180D03*
X006872Y013637D03*
D16*
X004195Y013853D03*
X004195Y010507D03*
X004195Y006353D03*
X004195Y003007D03*
D17*
X026916Y014380D02*
X026916Y014980D01*
X027916Y014980D02*
X027916Y014380D01*
X028916Y014380D02*
X028916Y014980D01*
X029916Y014980D02*
X029916Y014380D01*
X031116Y011180D02*
X031716Y011180D01*
X031716Y010180D02*
X031116Y010180D01*
X031116Y009180D02*
X031716Y009180D01*
X031716Y008180D02*
X031116Y008180D01*
X031116Y007180D02*
X031716Y007180D01*
X031716Y006180D02*
X031116Y006180D01*
X031116Y005180D02*
X031716Y005180D01*
X031716Y004180D02*
X031116Y004180D01*
X031116Y003180D02*
X031716Y003180D01*
X031716Y002180D02*
X031116Y002180D01*
D18*
X029676Y002180D02*
X029156Y002180D01*
X029156Y003180D02*
X029676Y003180D01*
X029676Y004180D02*
X029156Y004180D01*
X029156Y005180D02*
X029676Y005180D01*
X029676Y006180D02*
X029156Y006180D01*
X029156Y007180D02*
X029676Y007180D01*
X029676Y008180D02*
X029156Y008180D01*
X029156Y009180D02*
X029676Y009180D01*
X029676Y010180D02*
X029156Y010180D01*
X026676Y010180D02*
X026156Y010180D01*
X026156Y009180D02*
X026676Y009180D01*
X026676Y008180D02*
X026156Y008180D01*
X026156Y007180D02*
X026676Y007180D01*
X026676Y006180D02*
X026156Y006180D01*
X026156Y005180D02*
X026676Y005180D01*
X026676Y004180D02*
X026156Y004180D01*
X026156Y003180D02*
X026676Y003180D01*
X026676Y002180D02*
X026156Y002180D01*
D19*
X009916Y002680D03*
X019916Y012180D03*
M02*
