G75*
%MOIN*%
%OFA0B0*%
%FSLAX24Y24*%
%IPPOS*%
%LPD*%
%AMOC8*
5,1,8,0,0,1.08239X$1,22.5*
%
%ADD10C,0.0000*%
D10*
X003416Y000180D02*
X003416Y016676D01*
X033786Y016676D01*
X033786Y000180D01*
X003416Y000180D01*
X003791Y001180D02*
X003793Y001230D01*
X003799Y001279D01*
X003809Y001328D01*
X003822Y001375D01*
X003840Y001422D01*
X003861Y001467D01*
X003885Y001510D01*
X003913Y001551D01*
X003944Y001590D01*
X003978Y001626D01*
X004015Y001660D01*
X004055Y001690D01*
X004096Y001717D01*
X004140Y001741D01*
X004185Y001761D01*
X004232Y001777D01*
X004280Y001790D01*
X004329Y001799D01*
X004379Y001804D01*
X004428Y001805D01*
X004478Y001802D01*
X004527Y001795D01*
X004576Y001784D01*
X004623Y001770D01*
X004669Y001751D01*
X004714Y001729D01*
X004757Y001704D01*
X004797Y001675D01*
X004835Y001643D01*
X004871Y001609D01*
X004904Y001571D01*
X004933Y001531D01*
X004959Y001489D01*
X004982Y001445D01*
X005001Y001399D01*
X005017Y001352D01*
X005029Y001303D01*
X005037Y001254D01*
X005041Y001205D01*
X005041Y001155D01*
X005037Y001106D01*
X005029Y001057D01*
X005017Y001008D01*
X005001Y000961D01*
X004982Y000915D01*
X004959Y000871D01*
X004933Y000829D01*
X004904Y000789D01*
X004871Y000751D01*
X004835Y000717D01*
X004797Y000685D01*
X004757Y000656D01*
X004714Y000631D01*
X004669Y000609D01*
X004623Y000590D01*
X004576Y000576D01*
X004527Y000565D01*
X004478Y000558D01*
X004428Y000555D01*
X004379Y000556D01*
X004329Y000561D01*
X004280Y000570D01*
X004232Y000583D01*
X004185Y000599D01*
X004140Y000619D01*
X004096Y000643D01*
X004055Y000670D01*
X004015Y000700D01*
X003978Y000734D01*
X003944Y000770D01*
X003913Y000809D01*
X003885Y000850D01*
X003861Y000893D01*
X003840Y000938D01*
X003822Y000985D01*
X003809Y001032D01*
X003799Y001081D01*
X003793Y001130D01*
X003791Y001180D01*
X003782Y003007D02*
X003784Y003047D01*
X003790Y003088D01*
X003800Y003127D01*
X003813Y003165D01*
X003831Y003202D01*
X003852Y003236D01*
X003876Y003269D01*
X003903Y003299D01*
X003933Y003326D01*
X003966Y003350D01*
X004000Y003371D01*
X004037Y003389D01*
X004075Y003402D01*
X004114Y003412D01*
X004155Y003418D01*
X004195Y003420D01*
X004235Y003418D01*
X004276Y003412D01*
X004315Y003402D01*
X004353Y003389D01*
X004390Y003371D01*
X004424Y003350D01*
X004457Y003326D01*
X004487Y003299D01*
X004514Y003269D01*
X004538Y003236D01*
X004559Y003202D01*
X004577Y003165D01*
X004590Y003127D01*
X004600Y003088D01*
X004606Y003047D01*
X004608Y003007D01*
X004606Y002967D01*
X004600Y002926D01*
X004590Y002887D01*
X004577Y002849D01*
X004559Y002812D01*
X004538Y002778D01*
X004514Y002745D01*
X004487Y002715D01*
X004457Y002688D01*
X004424Y002664D01*
X004390Y002643D01*
X004353Y002625D01*
X004315Y002612D01*
X004276Y002602D01*
X004235Y002596D01*
X004195Y002594D01*
X004155Y002596D01*
X004114Y002602D01*
X004075Y002612D01*
X004037Y002625D01*
X004000Y002643D01*
X003966Y002664D01*
X003933Y002688D01*
X003903Y002715D01*
X003876Y002745D01*
X003852Y002778D01*
X003831Y002812D01*
X003813Y002849D01*
X003800Y002887D01*
X003790Y002926D01*
X003784Y002967D01*
X003782Y003007D01*
X003782Y006353D02*
X003784Y006393D01*
X003790Y006434D01*
X003800Y006473D01*
X003813Y006511D01*
X003831Y006548D01*
X003852Y006582D01*
X003876Y006615D01*
X003903Y006645D01*
X003933Y006672D01*
X003966Y006696D01*
X004000Y006717D01*
X004037Y006735D01*
X004075Y006748D01*
X004114Y006758D01*
X004155Y006764D01*
X004195Y006766D01*
X004235Y006764D01*
X004276Y006758D01*
X004315Y006748D01*
X004353Y006735D01*
X004390Y006717D01*
X004424Y006696D01*
X004457Y006672D01*
X004487Y006645D01*
X004514Y006615D01*
X004538Y006582D01*
X004559Y006548D01*
X004577Y006511D01*
X004590Y006473D01*
X004600Y006434D01*
X004606Y006393D01*
X004608Y006353D01*
X004606Y006313D01*
X004600Y006272D01*
X004590Y006233D01*
X004577Y006195D01*
X004559Y006158D01*
X004538Y006124D01*
X004514Y006091D01*
X004487Y006061D01*
X004457Y006034D01*
X004424Y006010D01*
X004390Y005989D01*
X004353Y005971D01*
X004315Y005958D01*
X004276Y005948D01*
X004235Y005942D01*
X004195Y005940D01*
X004155Y005942D01*
X004114Y005948D01*
X004075Y005958D01*
X004037Y005971D01*
X004000Y005989D01*
X003966Y006010D01*
X003933Y006034D01*
X003903Y006061D01*
X003876Y006091D01*
X003852Y006124D01*
X003831Y006158D01*
X003813Y006195D01*
X003800Y006233D01*
X003790Y006272D01*
X003784Y006313D01*
X003782Y006353D01*
X003782Y010507D02*
X003784Y010547D01*
X003790Y010588D01*
X003800Y010627D01*
X003813Y010665D01*
X003831Y010702D01*
X003852Y010736D01*
X003876Y010769D01*
X003903Y010799D01*
X003933Y010826D01*
X003966Y010850D01*
X004000Y010871D01*
X004037Y010889D01*
X004075Y010902D01*
X004114Y010912D01*
X004155Y010918D01*
X004195Y010920D01*
X004235Y010918D01*
X004276Y010912D01*
X004315Y010902D01*
X004353Y010889D01*
X004390Y010871D01*
X004424Y010850D01*
X004457Y010826D01*
X004487Y010799D01*
X004514Y010769D01*
X004538Y010736D01*
X004559Y010702D01*
X004577Y010665D01*
X004590Y010627D01*
X004600Y010588D01*
X004606Y010547D01*
X004608Y010507D01*
X004606Y010467D01*
X004600Y010426D01*
X004590Y010387D01*
X004577Y010349D01*
X004559Y010312D01*
X004538Y010278D01*
X004514Y010245D01*
X004487Y010215D01*
X004457Y010188D01*
X004424Y010164D01*
X004390Y010143D01*
X004353Y010125D01*
X004315Y010112D01*
X004276Y010102D01*
X004235Y010096D01*
X004195Y010094D01*
X004155Y010096D01*
X004114Y010102D01*
X004075Y010112D01*
X004037Y010125D01*
X004000Y010143D01*
X003966Y010164D01*
X003933Y010188D01*
X003903Y010215D01*
X003876Y010245D01*
X003852Y010278D01*
X003831Y010312D01*
X003813Y010349D01*
X003800Y010387D01*
X003790Y010426D01*
X003784Y010467D01*
X003782Y010507D01*
X003782Y013853D02*
X003784Y013893D01*
X003790Y013934D01*
X003800Y013973D01*
X003813Y014011D01*
X003831Y014048D01*
X003852Y014082D01*
X003876Y014115D01*
X003903Y014145D01*
X003933Y014172D01*
X003966Y014196D01*
X004000Y014217D01*
X004037Y014235D01*
X004075Y014248D01*
X004114Y014258D01*
X004155Y014264D01*
X004195Y014266D01*
X004235Y014264D01*
X004276Y014258D01*
X004315Y014248D01*
X004353Y014235D01*
X004390Y014217D01*
X004424Y014196D01*
X004457Y014172D01*
X004487Y014145D01*
X004514Y014115D01*
X004538Y014082D01*
X004559Y014048D01*
X004577Y014011D01*
X004590Y013973D01*
X004600Y013934D01*
X004606Y013893D01*
X004608Y013853D01*
X004606Y013813D01*
X004600Y013772D01*
X004590Y013733D01*
X004577Y013695D01*
X004559Y013658D01*
X004538Y013624D01*
X004514Y013591D01*
X004487Y013561D01*
X004457Y013534D01*
X004424Y013510D01*
X004390Y013489D01*
X004353Y013471D01*
X004315Y013458D01*
X004276Y013448D01*
X004235Y013442D01*
X004195Y013440D01*
X004155Y013442D01*
X004114Y013448D01*
X004075Y013458D01*
X004037Y013471D01*
X004000Y013489D01*
X003966Y013510D01*
X003933Y013534D01*
X003903Y013561D01*
X003876Y013591D01*
X003852Y013624D01*
X003831Y013658D01*
X003813Y013695D01*
X003800Y013733D01*
X003790Y013772D01*
X003784Y013813D01*
X003782Y013853D01*
X003791Y015680D02*
X003793Y015730D01*
X003799Y015779D01*
X003809Y015828D01*
X003822Y015875D01*
X003840Y015922D01*
X003861Y015967D01*
X003885Y016010D01*
X003913Y016051D01*
X003944Y016090D01*
X003978Y016126D01*
X004015Y016160D01*
X004055Y016190D01*
X004096Y016217D01*
X004140Y016241D01*
X004185Y016261D01*
X004232Y016277D01*
X004280Y016290D01*
X004329Y016299D01*
X004379Y016304D01*
X004428Y016305D01*
X004478Y016302D01*
X004527Y016295D01*
X004576Y016284D01*
X004623Y016270D01*
X004669Y016251D01*
X004714Y016229D01*
X004757Y016204D01*
X004797Y016175D01*
X004835Y016143D01*
X004871Y016109D01*
X004904Y016071D01*
X004933Y016031D01*
X004959Y015989D01*
X004982Y015945D01*
X005001Y015899D01*
X005017Y015852D01*
X005029Y015803D01*
X005037Y015754D01*
X005041Y015705D01*
X005041Y015655D01*
X005037Y015606D01*
X005029Y015557D01*
X005017Y015508D01*
X005001Y015461D01*
X004982Y015415D01*
X004959Y015371D01*
X004933Y015329D01*
X004904Y015289D01*
X004871Y015251D01*
X004835Y015217D01*
X004797Y015185D01*
X004757Y015156D01*
X004714Y015131D01*
X004669Y015109D01*
X004623Y015090D01*
X004576Y015076D01*
X004527Y015065D01*
X004478Y015058D01*
X004428Y015055D01*
X004379Y015056D01*
X004329Y015061D01*
X004280Y015070D01*
X004232Y015083D01*
X004185Y015099D01*
X004140Y015119D01*
X004096Y015143D01*
X004055Y015170D01*
X004015Y015200D01*
X003978Y015234D01*
X003944Y015270D01*
X003913Y015309D01*
X003885Y015350D01*
X003861Y015393D01*
X003840Y015438D01*
X003822Y015485D01*
X003809Y015532D01*
X003799Y015581D01*
X003793Y015630D01*
X003791Y015680D01*
X032291Y015680D02*
X032293Y015730D01*
X032299Y015779D01*
X032309Y015828D01*
X032322Y015875D01*
X032340Y015922D01*
X032361Y015967D01*
X032385Y016010D01*
X032413Y016051D01*
X032444Y016090D01*
X032478Y016126D01*
X032515Y016160D01*
X032555Y016190D01*
X032596Y016217D01*
X032640Y016241D01*
X032685Y016261D01*
X032732Y016277D01*
X032780Y016290D01*
X032829Y016299D01*
X032879Y016304D01*
X032928Y016305D01*
X032978Y016302D01*
X033027Y016295D01*
X033076Y016284D01*
X033123Y016270D01*
X033169Y016251D01*
X033214Y016229D01*
X033257Y016204D01*
X033297Y016175D01*
X033335Y016143D01*
X033371Y016109D01*
X033404Y016071D01*
X033433Y016031D01*
X033459Y015989D01*
X033482Y015945D01*
X033501Y015899D01*
X033517Y015852D01*
X033529Y015803D01*
X033537Y015754D01*
X033541Y015705D01*
X033541Y015655D01*
X033537Y015606D01*
X033529Y015557D01*
X033517Y015508D01*
X033501Y015461D01*
X033482Y015415D01*
X033459Y015371D01*
X033433Y015329D01*
X033404Y015289D01*
X033371Y015251D01*
X033335Y015217D01*
X033297Y015185D01*
X033257Y015156D01*
X033214Y015131D01*
X033169Y015109D01*
X033123Y015090D01*
X033076Y015076D01*
X033027Y015065D01*
X032978Y015058D01*
X032928Y015055D01*
X032879Y015056D01*
X032829Y015061D01*
X032780Y015070D01*
X032732Y015083D01*
X032685Y015099D01*
X032640Y015119D01*
X032596Y015143D01*
X032555Y015170D01*
X032515Y015200D01*
X032478Y015234D01*
X032444Y015270D01*
X032413Y015309D01*
X032385Y015350D01*
X032361Y015393D01*
X032340Y015438D01*
X032322Y015485D01*
X032309Y015532D01*
X032299Y015581D01*
X032293Y015630D01*
X032291Y015680D01*
X032291Y001180D02*
X032293Y001230D01*
X032299Y001279D01*
X032309Y001328D01*
X032322Y001375D01*
X032340Y001422D01*
X032361Y001467D01*
X032385Y001510D01*
X032413Y001551D01*
X032444Y001590D01*
X032478Y001626D01*
X032515Y001660D01*
X032555Y001690D01*
X032596Y001717D01*
X032640Y001741D01*
X032685Y001761D01*
X032732Y001777D01*
X032780Y001790D01*
X032829Y001799D01*
X032879Y001804D01*
X032928Y001805D01*
X032978Y001802D01*
X033027Y001795D01*
X033076Y001784D01*
X033123Y001770D01*
X033169Y001751D01*
X033214Y001729D01*
X033257Y001704D01*
X033297Y001675D01*
X033335Y001643D01*
X033371Y001609D01*
X033404Y001571D01*
X033433Y001531D01*
X033459Y001489D01*
X033482Y001445D01*
X033501Y001399D01*
X033517Y001352D01*
X033529Y001303D01*
X033537Y001254D01*
X033541Y001205D01*
X033541Y001155D01*
X033537Y001106D01*
X033529Y001057D01*
X033517Y001008D01*
X033501Y000961D01*
X033482Y000915D01*
X033459Y000871D01*
X033433Y000829D01*
X033404Y000789D01*
X033371Y000751D01*
X033335Y000717D01*
X033297Y000685D01*
X033257Y000656D01*
X033214Y000631D01*
X033169Y000609D01*
X033123Y000590D01*
X033076Y000576D01*
X033027Y000565D01*
X032978Y000558D01*
X032928Y000555D01*
X032879Y000556D01*
X032829Y000561D01*
X032780Y000570D01*
X032732Y000583D01*
X032685Y000599D01*
X032640Y000619D01*
X032596Y000643D01*
X032555Y000670D01*
X032515Y000700D01*
X032478Y000734D01*
X032444Y000770D01*
X032413Y000809D01*
X032385Y000850D01*
X032361Y000893D01*
X032340Y000938D01*
X032322Y000985D01*
X032309Y001032D01*
X032299Y001081D01*
X032293Y001130D01*
X032291Y001180D01*
M02*
