%
M48
M72
T01C0.0240
T02C0.0320
T03C0.0400
%
T01
X2790Y3490
X3780Y3490
X4770Y3490
X5760Y3490
X6750Y3490
X8550Y4120
X9180Y3580
X10260Y4120
X11790Y3490
X15120Y5560
X14040Y5650
X12060Y6910
X11700Y7270
X11340Y6910
X10620Y7630
X8460Y7450
X7920Y7450
X5760Y7810
X3600Y7270
X7740Y9340
X9810Y9250
X10800Y9250
X12690Y9340
X13050Y9700
X13590Y8710
X10800Y10600
X9810Y10960
X9270Y10960
X8550Y11320
X8190Y10960
X7290Y11680
X5400Y12040
X4320Y12490
X3600Y11770
X5670Y13030
X4050Y13660
X4950Y14020
X7380Y14020
X7380Y14560
X8100Y14740
X10170Y14110
X10710Y14290
X11250Y14290
X12960Y15550
X14850Y15190
X14580Y14380
X14580Y13840
X15930Y14110
X17550Y15550
X18180Y15640
X19170Y15190
X19710Y14650
X20520Y15010
X21780Y14110
X22230Y14740
X24030Y15280
X27540Y13030
X28170Y12670
X25830Y12670
X28530Y11320
X24750Y11140
X23670Y10600
X22770Y10240
X21960Y11140
X20700Y10510
X13860Y11590
X13050Y11320
X12690Y11770
X11520Y10960
X9450Y11680
X7740Y13120
X9000Y13480
X23040Y6550
X23040Y6010
X23400Y3580
X24750Y3490
X26640Y3490
X28620Y3490
X31590Y3850
X30780Y5650
X20700Y3490
X17550Y3670
T02
X17680Y4940
X16680Y4940
X15680Y4940
X14680Y4940
X13680Y4940
X12680Y4940
X10180Y4940
X9180Y4940
X8180Y4940
X7180Y4940
X6180Y4940
X5180Y4940
X4180Y4940
X3180Y4940
X2180Y4940
X2180Y6440
X3180Y6440
X4180Y6440
X5180Y6440
X6180Y6440
X7180Y6440
X8180Y6440
X9180Y6440
X10180Y6440
X12680Y6440
X13680Y6440
X14680Y6440
X15680Y6440
X16680Y6440
X17680Y6440
X18680Y6440
X19680Y6440
X20680Y6440
X20680Y4940
X19680Y4940
X18680Y4940
X24180Y4940
X25180Y4940
X26180Y4940
X27180Y4940
X28180Y4940
X29180Y4940
X30180Y4940
X31180Y4940
X32180Y4940
X32180Y6440
X31180Y6440
X30180Y6440
X29180Y6440
X28180Y6440
X27180Y6440
X26180Y6440
X25180Y6440
X24180Y6440
X24180Y8440
X25180Y8440
X26180Y8440
X27180Y8440
X28180Y8440
X29180Y8440
X30180Y8440
X31180Y8440
X32180Y8440
X32180Y9940
X31180Y9940
X30180Y9940
X29180Y9940
X28180Y9940
X27180Y9940
X26180Y9940
X25180Y9940
X24180Y9940
X22180Y9940
X21180Y9940
X20180Y9940
X19180Y9940
X18180Y9940
X17180Y9940
X16180Y9940
X15180Y9940
X14180Y9940
X12180Y9940
X11180Y9940
X10180Y9940
X9180Y9940
X8180Y9940
X7180Y9940
X6180Y9940
X5180Y9940
X4180Y9940
X4180Y8440
X5180Y8440
X6180Y8440
X7180Y8440
X8180Y8440
X9180Y8440
X10180Y8440
X11180Y8440
X12180Y8440
X14180Y8440
X15180Y8440
X16180Y8440
X17180Y8440
X18180Y8440
X19180Y8440
X20180Y8440
X21180Y8440
X22180Y8440
X22180Y11940
X21180Y11940
X20180Y11940
X19180Y11940
X18180Y11940
X18180Y13440
X19180Y13440
X20180Y13440
X21180Y13440
X22180Y13440
X23180Y13440
X24180Y13440
X25180Y13440
X26180Y13440
X26180Y11940
X25180Y11940
X24180Y11940
X23180Y11940
T03
X22680Y16440
X23680Y16440
X24680Y16440
X25680Y16440
X26680Y16440
X27680Y16440
X28680Y16440
X29680Y16440
X30680Y16440
X31680Y16440
X32680Y16440
X33680Y16440
X21680Y16440
X20680Y16440
X19680Y16440
X18680Y16440
X17680Y16440
X16680Y16440
X15680Y16440
X14680Y16440
X13680Y16440
X12680Y16440
X11680Y16440
X10680Y16440
X9680Y16440
X8680Y16440
X7680Y16440
X6680Y16440
X5680Y16440
X4680Y16440
X3680Y16440
X2680Y16440
X1680Y16440
X680Y16440
M30
