G75*
%MOIN*%
%OFA0B0*%
%FSLAX24Y24*%
%IPPOS*%
%LPD*%
%AMOC8*
5,1,8,0,0,1.08239X$1,22.5*
%
%ADD10R,0.0680X0.2630*%
%ADD11C,0.0600*%
%ADD12C,0.0680*%
D10*
X002180Y001940D03*
X003180Y001940D03*
X004180Y001940D03*
X005180Y001940D03*
X006180Y001940D03*
X007180Y001940D03*
X008180Y001940D03*
X009180Y001940D03*
X010180Y001940D03*
X011180Y001940D03*
X012180Y001940D03*
X013180Y001940D03*
X014180Y001940D03*
X015180Y001940D03*
X016180Y001940D03*
X017180Y001940D03*
X018180Y001940D03*
X019180Y001940D03*
X020180Y001940D03*
X021180Y001940D03*
X022180Y001940D03*
X023180Y001940D03*
X024180Y001940D03*
X025180Y001940D03*
X026180Y001940D03*
X027180Y001940D03*
X028180Y001940D03*
X029180Y001940D03*
X030180Y001940D03*
X031180Y001940D03*
X032180Y001940D03*
D11*
X032180Y004680D02*
X032180Y005200D01*
X031180Y005200D02*
X031180Y004680D01*
X030180Y004680D02*
X030180Y005200D01*
X029180Y005200D02*
X029180Y004680D01*
X028180Y004680D02*
X028180Y005200D01*
X027180Y005200D02*
X027180Y004680D01*
X026180Y004680D02*
X026180Y005200D01*
X025180Y005200D02*
X025180Y004680D01*
X024180Y004680D02*
X024180Y005200D01*
X024180Y006180D02*
X024180Y006700D01*
X025180Y006700D02*
X025180Y006180D01*
X026180Y006180D02*
X026180Y006700D01*
X027180Y006700D02*
X027180Y006180D01*
X028180Y006180D02*
X028180Y006700D01*
X029180Y006700D02*
X029180Y006180D01*
X030180Y006180D02*
X030180Y006700D01*
X031180Y006700D02*
X031180Y006180D01*
X032180Y006180D02*
X032180Y006700D01*
X032180Y008180D02*
X032180Y008700D01*
X031180Y008700D02*
X031180Y008180D01*
X030180Y008180D02*
X030180Y008700D01*
X029180Y008700D02*
X029180Y008180D01*
X028180Y008180D02*
X028180Y008700D01*
X027180Y008700D02*
X027180Y008180D01*
X026180Y008180D02*
X026180Y008700D01*
X025180Y008700D02*
X025180Y008180D01*
X024180Y008180D02*
X024180Y008700D01*
X024180Y009680D02*
X024180Y010200D01*
X025180Y010200D02*
X025180Y009680D01*
X026180Y009680D02*
X026180Y010200D01*
X027180Y010200D02*
X027180Y009680D01*
X028180Y009680D02*
X028180Y010200D01*
X029180Y010200D02*
X029180Y009680D01*
X030180Y009680D02*
X030180Y010200D01*
X031180Y010200D02*
X031180Y009680D01*
X032180Y009680D02*
X032180Y010200D01*
X026180Y011680D02*
X026180Y012200D01*
X025180Y012200D02*
X025180Y011680D01*
X024180Y011680D02*
X024180Y012200D01*
X023180Y012200D02*
X023180Y011680D01*
X022180Y011680D02*
X022180Y012200D01*
X021180Y012200D02*
X021180Y011680D01*
X020180Y011680D02*
X020180Y012200D01*
X019180Y012200D02*
X019180Y011680D01*
X018180Y011680D02*
X018180Y012200D01*
X018180Y013180D02*
X018180Y013700D01*
X019180Y013700D02*
X019180Y013180D01*
X020180Y013180D02*
X020180Y013700D01*
X021180Y013700D02*
X021180Y013180D01*
X022180Y013180D02*
X022180Y013700D01*
X023180Y013700D02*
X023180Y013180D01*
X024180Y013180D02*
X024180Y013700D01*
X025180Y013700D02*
X025180Y013180D01*
X026180Y013180D02*
X026180Y013700D01*
X022180Y010200D02*
X022180Y009680D01*
X021180Y009680D02*
X021180Y010200D01*
X020180Y010200D02*
X020180Y009680D01*
X019180Y009680D02*
X019180Y010200D01*
X018180Y010200D02*
X018180Y009680D01*
X017180Y009680D02*
X017180Y010200D01*
X016180Y010200D02*
X016180Y009680D01*
X015180Y009680D02*
X015180Y010200D01*
X014180Y010200D02*
X014180Y009680D01*
X014180Y008700D02*
X014180Y008180D01*
X015180Y008180D02*
X015180Y008700D01*
X016180Y008700D02*
X016180Y008180D01*
X017180Y008180D02*
X017180Y008700D01*
X018180Y008700D02*
X018180Y008180D01*
X019180Y008180D02*
X019180Y008700D01*
X020180Y008700D02*
X020180Y008180D01*
X021180Y008180D02*
X021180Y008700D01*
X022180Y008700D02*
X022180Y008180D01*
X020680Y006700D02*
X020680Y006180D01*
X019680Y006180D02*
X019680Y006700D01*
X018680Y006700D02*
X018680Y006180D01*
X017680Y006180D02*
X017680Y006700D01*
X016680Y006700D02*
X016680Y006180D01*
X015680Y006180D02*
X015680Y006700D01*
X014680Y006700D02*
X014680Y006180D01*
X013680Y006180D02*
X013680Y006700D01*
X012680Y006700D02*
X012680Y006180D01*
X012680Y005200D02*
X012680Y004680D01*
X013680Y004680D02*
X013680Y005200D01*
X014680Y005200D02*
X014680Y004680D01*
X015680Y004680D02*
X015680Y005200D01*
X016680Y005200D02*
X016680Y004680D01*
X017680Y004680D02*
X017680Y005200D01*
X018680Y005200D02*
X018680Y004680D01*
X019680Y004680D02*
X019680Y005200D01*
X020680Y005200D02*
X020680Y004680D01*
X012180Y008180D02*
X012180Y008700D01*
X011180Y008700D02*
X011180Y008180D01*
X010180Y008180D02*
X010180Y008700D01*
X009180Y008700D02*
X009180Y008180D01*
X008180Y008180D02*
X008180Y008700D01*
X007180Y008700D02*
X007180Y008180D01*
X006180Y008180D02*
X006180Y008700D01*
X005180Y008700D02*
X005180Y008180D01*
X004180Y008180D02*
X004180Y008700D01*
X004180Y009680D02*
X004180Y010200D01*
X005180Y010200D02*
X005180Y009680D01*
X006180Y009680D02*
X006180Y010200D01*
X007180Y010200D02*
X007180Y009680D01*
X008180Y009680D02*
X008180Y010200D01*
X009180Y010200D02*
X009180Y009680D01*
X010180Y009680D02*
X010180Y010200D01*
X011180Y010200D02*
X011180Y009680D01*
X012180Y009680D02*
X012180Y010200D01*
X010180Y006700D02*
X010180Y006180D01*
X009180Y006180D02*
X009180Y006700D01*
X008180Y006700D02*
X008180Y006180D01*
X007180Y006180D02*
X007180Y006700D01*
X006180Y006700D02*
X006180Y006180D01*
X005180Y006180D02*
X005180Y006700D01*
X004180Y006700D02*
X004180Y006180D01*
X003180Y006180D02*
X003180Y006700D01*
X002180Y006700D02*
X002180Y006180D01*
X002180Y005200D02*
X002180Y004680D01*
X003180Y004680D02*
X003180Y005200D01*
X004180Y005200D02*
X004180Y004680D01*
X005180Y004680D02*
X005180Y005200D01*
X006180Y005200D02*
X006180Y004680D01*
X007180Y004680D02*
X007180Y005200D01*
X008180Y005200D02*
X008180Y004680D01*
X009180Y004680D02*
X009180Y005200D01*
X010180Y005200D02*
X010180Y004680D01*
D12*
X009680Y016140D02*
X009680Y016740D01*
X008680Y016740D02*
X008680Y016140D01*
X007680Y016140D02*
X007680Y016740D01*
X006680Y016740D02*
X006680Y016140D01*
X005680Y016140D02*
X005680Y016740D01*
X004680Y016740D02*
X004680Y016140D01*
X003680Y016140D02*
X003680Y016740D01*
X002680Y016740D02*
X002680Y016140D01*
X001680Y016140D02*
X001680Y016740D01*
X000680Y016740D02*
X000680Y016140D01*
X010680Y016140D02*
X010680Y016740D01*
X011680Y016740D02*
X011680Y016140D01*
X012680Y016140D02*
X012680Y016740D01*
X013680Y016740D02*
X013680Y016140D01*
X014680Y016140D02*
X014680Y016740D01*
X015680Y016740D02*
X015680Y016140D01*
X016680Y016140D02*
X016680Y016740D01*
X017680Y016740D02*
X017680Y016140D01*
X018680Y016140D02*
X018680Y016740D01*
X019680Y016740D02*
X019680Y016140D01*
X020680Y016140D02*
X020680Y016740D01*
X021680Y016740D02*
X021680Y016140D01*
X022680Y016140D02*
X022680Y016740D01*
X023680Y016740D02*
X023680Y016140D01*
X024680Y016140D02*
X024680Y016740D01*
X025680Y016740D02*
X025680Y016140D01*
X026680Y016140D02*
X026680Y016740D01*
X027680Y016740D02*
X027680Y016140D01*
X028680Y016140D02*
X028680Y016740D01*
X029680Y016740D02*
X029680Y016140D01*
X030680Y016140D02*
X030680Y016740D01*
X031680Y016740D02*
X031680Y016140D01*
X032680Y016140D02*
X032680Y016740D01*
X033680Y016740D02*
X033680Y016140D01*
M02*
