G75*
%MOIN*%
%OFA0B0*%
%FSLAX24Y24*%
%IPPOS*%
%LPD*%
%AMOC8*
5,1,8,0,0,1.08239X$1,22.5*
%
%ADD10C,0.0020*%
D10*
X025318Y014450D02*
X025318Y014670D01*
X025391Y014670D02*
X025244Y014670D01*
X025465Y014633D02*
X025502Y014670D01*
X025575Y014670D01*
X025612Y014633D01*
X025612Y014597D01*
X025575Y014560D01*
X025502Y014560D01*
X025465Y014523D01*
X025465Y014487D01*
X025502Y014450D01*
X025575Y014450D01*
X025612Y014487D01*
X025686Y014450D02*
X025760Y014523D01*
X025723Y014523D02*
X025833Y014523D01*
X025833Y014450D02*
X025833Y014670D01*
X025723Y014670D01*
X025686Y014633D01*
X025686Y014560D01*
X025723Y014523D01*
X025907Y014670D02*
X026054Y014670D01*
X025981Y014670D02*
X025981Y014450D01*
X026128Y014487D02*
X026165Y014450D01*
X026238Y014450D01*
X026275Y014487D01*
X026275Y014633D01*
X026238Y014670D01*
X026165Y014670D01*
X026128Y014633D01*
X027744Y014670D02*
X027891Y014670D01*
X027818Y014670D02*
X027818Y014450D01*
X027965Y014487D02*
X028002Y014450D01*
X028075Y014450D01*
X028112Y014487D01*
X028075Y014560D02*
X028002Y014560D01*
X027965Y014523D01*
X027965Y014487D01*
X028075Y014560D02*
X028112Y014597D01*
X028112Y014633D01*
X028075Y014670D01*
X028002Y014670D01*
X027965Y014633D01*
X028186Y014633D02*
X028186Y014560D01*
X028223Y014523D01*
X028333Y014523D01*
X028333Y014450D02*
X028333Y014670D01*
X028223Y014670D01*
X028186Y014633D01*
X028260Y014523D02*
X028186Y014450D01*
X024170Y014690D02*
X024170Y014910D01*
X024097Y014837D01*
X024023Y014910D01*
X024023Y014690D01*
X023949Y014727D02*
X023912Y014690D01*
X023839Y014690D01*
X023802Y014727D01*
X023802Y014763D01*
X023839Y014800D01*
X023949Y014800D01*
X023949Y014727D01*
X023949Y014800D02*
X023876Y014873D01*
X023802Y014910D01*
X023728Y014873D02*
X023728Y014837D01*
X023691Y014800D01*
X023618Y014800D01*
X023581Y014763D01*
X023581Y014727D01*
X023618Y014690D01*
X023691Y014690D01*
X023728Y014727D01*
X023728Y014763D01*
X023691Y014800D01*
X023618Y014800D02*
X023581Y014837D01*
X023581Y014873D01*
X023618Y014910D01*
X023691Y014910D01*
X023728Y014873D01*
X023170Y014910D02*
X023170Y014690D01*
X023023Y014690D02*
X023023Y014910D01*
X023097Y014837D01*
X023170Y014910D01*
X022949Y014873D02*
X022949Y014837D01*
X022912Y014800D01*
X022839Y014800D01*
X022802Y014763D01*
X022802Y014727D01*
X022839Y014690D01*
X022912Y014690D01*
X022949Y014727D01*
X022949Y014763D01*
X022912Y014800D01*
X022839Y014800D02*
X022802Y014837D01*
X022802Y014873D01*
X022839Y014910D01*
X022912Y014910D01*
X022949Y014873D01*
X022728Y014873D02*
X022728Y014727D01*
X022581Y014873D01*
X022581Y014727D01*
X022618Y014690D01*
X022691Y014690D01*
X022728Y014727D01*
X022728Y014873D02*
X022691Y014910D01*
X022618Y014910D01*
X022581Y014873D01*
M02*
