G75*
%MOIN*%
%OFA0B0*%
%FSLAX24Y24*%
%IPPOS*%
%LPD*%
%AMOC8*
5,1,8,0,0,1.08239X$1,22.5*
%
%ADD10C,0.0000*%
D10*
X000180Y000180D02*
X000180Y017676D01*
X040550Y017676D01*
X040550Y000180D01*
X000180Y000180D01*
X000792Y004080D02*
X000794Y004130D01*
X000800Y004179D01*
X000810Y004228D01*
X000823Y004275D01*
X000841Y004322D01*
X000862Y004367D01*
X000886Y004410D01*
X000914Y004451D01*
X000945Y004490D01*
X000979Y004526D01*
X001016Y004560D01*
X001056Y004590D01*
X001097Y004617D01*
X001141Y004641D01*
X001186Y004661D01*
X001233Y004677D01*
X001281Y004690D01*
X001330Y004699D01*
X001380Y004704D01*
X001429Y004705D01*
X001479Y004702D01*
X001528Y004695D01*
X001577Y004684D01*
X001624Y004670D01*
X001670Y004651D01*
X001715Y004629D01*
X001758Y004604D01*
X001798Y004575D01*
X001836Y004543D01*
X001872Y004509D01*
X001905Y004471D01*
X001934Y004431D01*
X001960Y004389D01*
X001983Y004345D01*
X002002Y004299D01*
X002018Y004252D01*
X002030Y004203D01*
X002038Y004154D01*
X002042Y004105D01*
X002042Y004055D01*
X002038Y004006D01*
X002030Y003957D01*
X002018Y003908D01*
X002002Y003861D01*
X001983Y003815D01*
X001960Y003771D01*
X001934Y003729D01*
X001905Y003689D01*
X001872Y003651D01*
X001836Y003617D01*
X001798Y003585D01*
X001758Y003556D01*
X001715Y003531D01*
X001670Y003509D01*
X001624Y003490D01*
X001577Y003476D01*
X001528Y003465D01*
X001479Y003458D01*
X001429Y003455D01*
X001380Y003456D01*
X001330Y003461D01*
X001281Y003470D01*
X001233Y003483D01*
X001186Y003499D01*
X001141Y003519D01*
X001097Y003543D01*
X001056Y003570D01*
X001016Y003600D01*
X000979Y003634D01*
X000945Y003670D01*
X000914Y003709D01*
X000886Y003750D01*
X000862Y003793D01*
X000841Y003838D01*
X000823Y003885D01*
X000810Y003932D01*
X000800Y003981D01*
X000794Y004030D01*
X000792Y004080D01*
X000792Y016280D02*
X000794Y016330D01*
X000800Y016379D01*
X000810Y016428D01*
X000823Y016475D01*
X000841Y016522D01*
X000862Y016567D01*
X000886Y016610D01*
X000914Y016651D01*
X000945Y016690D01*
X000979Y016726D01*
X001016Y016760D01*
X001056Y016790D01*
X001097Y016817D01*
X001141Y016841D01*
X001186Y016861D01*
X001233Y016877D01*
X001281Y016890D01*
X001330Y016899D01*
X001380Y016904D01*
X001429Y016905D01*
X001479Y016902D01*
X001528Y016895D01*
X001577Y016884D01*
X001624Y016870D01*
X001670Y016851D01*
X001715Y016829D01*
X001758Y016804D01*
X001798Y016775D01*
X001836Y016743D01*
X001872Y016709D01*
X001905Y016671D01*
X001934Y016631D01*
X001960Y016589D01*
X001983Y016545D01*
X002002Y016499D01*
X002018Y016452D01*
X002030Y016403D01*
X002038Y016354D01*
X002042Y016305D01*
X002042Y016255D01*
X002038Y016206D01*
X002030Y016157D01*
X002018Y016108D01*
X002002Y016061D01*
X001983Y016015D01*
X001960Y015971D01*
X001934Y015929D01*
X001905Y015889D01*
X001872Y015851D01*
X001836Y015817D01*
X001798Y015785D01*
X001758Y015756D01*
X001715Y015731D01*
X001670Y015709D01*
X001624Y015690D01*
X001577Y015676D01*
X001528Y015665D01*
X001479Y015658D01*
X001429Y015655D01*
X001380Y015656D01*
X001330Y015661D01*
X001281Y015670D01*
X001233Y015683D01*
X001186Y015699D01*
X001141Y015719D01*
X001097Y015743D01*
X001056Y015770D01*
X001016Y015800D01*
X000979Y015834D01*
X000945Y015870D01*
X000914Y015909D01*
X000886Y015950D01*
X000862Y015993D01*
X000841Y016038D01*
X000823Y016085D01*
X000810Y016132D01*
X000800Y016181D01*
X000794Y016230D01*
X000792Y016280D01*
X030318Y016280D02*
X030320Y016330D01*
X030326Y016379D01*
X030336Y016428D01*
X030349Y016475D01*
X030367Y016522D01*
X030388Y016567D01*
X030412Y016610D01*
X030440Y016651D01*
X030471Y016690D01*
X030505Y016726D01*
X030542Y016760D01*
X030582Y016790D01*
X030623Y016817D01*
X030667Y016841D01*
X030712Y016861D01*
X030759Y016877D01*
X030807Y016890D01*
X030856Y016899D01*
X030906Y016904D01*
X030955Y016905D01*
X031005Y016902D01*
X031054Y016895D01*
X031103Y016884D01*
X031150Y016870D01*
X031196Y016851D01*
X031241Y016829D01*
X031284Y016804D01*
X031324Y016775D01*
X031362Y016743D01*
X031398Y016709D01*
X031431Y016671D01*
X031460Y016631D01*
X031486Y016589D01*
X031509Y016545D01*
X031528Y016499D01*
X031544Y016452D01*
X031556Y016403D01*
X031564Y016354D01*
X031568Y016305D01*
X031568Y016255D01*
X031564Y016206D01*
X031556Y016157D01*
X031544Y016108D01*
X031528Y016061D01*
X031509Y016015D01*
X031486Y015971D01*
X031460Y015929D01*
X031431Y015889D01*
X031398Y015851D01*
X031362Y015817D01*
X031324Y015785D01*
X031284Y015756D01*
X031241Y015731D01*
X031196Y015709D01*
X031150Y015690D01*
X031103Y015676D01*
X031054Y015665D01*
X031005Y015658D01*
X030955Y015655D01*
X030906Y015656D01*
X030856Y015661D01*
X030807Y015670D01*
X030759Y015683D01*
X030712Y015699D01*
X030667Y015719D01*
X030623Y015743D01*
X030582Y015770D01*
X030542Y015800D01*
X030505Y015834D01*
X030471Y015870D01*
X030440Y015909D01*
X030412Y015950D01*
X030388Y015993D01*
X030367Y016038D01*
X030349Y016085D01*
X030336Y016132D01*
X030326Y016181D01*
X030320Y016230D01*
X030318Y016280D01*
X030318Y004080D02*
X030320Y004130D01*
X030326Y004179D01*
X030336Y004228D01*
X030349Y004275D01*
X030367Y004322D01*
X030388Y004367D01*
X030412Y004410D01*
X030440Y004451D01*
X030471Y004490D01*
X030505Y004526D01*
X030542Y004560D01*
X030582Y004590D01*
X030623Y004617D01*
X030667Y004641D01*
X030712Y004661D01*
X030759Y004677D01*
X030807Y004690D01*
X030856Y004699D01*
X030906Y004704D01*
X030955Y004705D01*
X031005Y004702D01*
X031054Y004695D01*
X031103Y004684D01*
X031150Y004670D01*
X031196Y004651D01*
X031241Y004629D01*
X031284Y004604D01*
X031324Y004575D01*
X031362Y004543D01*
X031398Y004509D01*
X031431Y004471D01*
X031460Y004431D01*
X031486Y004389D01*
X031509Y004345D01*
X031528Y004299D01*
X031544Y004252D01*
X031556Y004203D01*
X031564Y004154D01*
X031568Y004105D01*
X031568Y004055D01*
X031564Y004006D01*
X031556Y003957D01*
X031544Y003908D01*
X031528Y003861D01*
X031509Y003815D01*
X031486Y003771D01*
X031460Y003729D01*
X031431Y003689D01*
X031398Y003651D01*
X031362Y003617D01*
X031324Y003585D01*
X031284Y003556D01*
X031241Y003531D01*
X031196Y003509D01*
X031150Y003490D01*
X031103Y003476D01*
X031054Y003465D01*
X031005Y003458D01*
X030955Y003455D01*
X030906Y003456D01*
X030856Y003461D01*
X030807Y003470D01*
X030759Y003483D01*
X030712Y003499D01*
X030667Y003519D01*
X030623Y003543D01*
X030582Y003570D01*
X030542Y003600D01*
X030505Y003634D01*
X030471Y003670D01*
X030440Y003709D01*
X030412Y003750D01*
X030388Y003793D01*
X030367Y003838D01*
X030349Y003885D01*
X030336Y003932D01*
X030326Y003981D01*
X030320Y004030D01*
X030318Y004080D01*
M02*
