G75*
%MOIN*%
%OFA0B0*%
%FSLAX24Y24*%
%IPPOS*%
%LPD*%
%AMOC8*
5,1,8,0,0,1.08239X$1,22.5*
%
%ADD10C,0.0680*%
%ADD11OC8,0.0680*%
%ADD12OC8,0.0600*%
%ADD13C,0.0600*%
%ADD14R,0.0595X0.0595*%
%ADD15C,0.1330*%
%ADD16C,0.0640*%
D10*
X000680Y000880D02*
X000680Y001480D01*
X001680Y001480D02*
X001680Y000880D01*
X002680Y000880D02*
X002680Y001480D01*
X003680Y001480D02*
X003680Y000880D01*
X004680Y000880D02*
X004680Y001480D01*
X005680Y001480D02*
X005680Y000880D01*
X006680Y000880D02*
X006680Y001480D01*
X007680Y001480D02*
X007680Y000880D01*
X008680Y000880D02*
X008680Y001480D01*
X009680Y001480D02*
X009680Y000880D01*
X010680Y000880D02*
X010680Y001480D01*
X011680Y001480D02*
X011680Y000880D01*
X012680Y000880D02*
X012680Y001480D01*
X013680Y001480D02*
X013680Y000880D01*
X014680Y000880D02*
X014680Y001480D01*
X015680Y001480D02*
X015680Y000880D01*
X016680Y000880D02*
X016680Y001480D01*
X017680Y001480D02*
X017680Y000880D01*
X018680Y000880D02*
X018680Y001480D01*
X019680Y001480D02*
X019680Y000880D01*
X020680Y000880D02*
X020680Y001480D01*
X021680Y001480D02*
X021680Y000880D01*
X022680Y000880D02*
X022680Y001480D01*
X023680Y001480D02*
X023680Y000880D01*
X024680Y000880D02*
X024680Y001480D01*
X025680Y001480D02*
X025680Y000880D01*
X026680Y000880D02*
X026680Y001480D01*
X027680Y001480D02*
X027680Y000880D01*
X028680Y000880D02*
X028680Y001480D01*
X029680Y001480D02*
X029680Y000880D01*
X030680Y000880D02*
X030680Y001480D01*
X031680Y001480D02*
X031680Y000880D01*
X032680Y000880D02*
X032680Y001480D01*
X033680Y001480D02*
X033680Y000880D01*
X034680Y000880D02*
X034680Y001480D01*
X035680Y001480D02*
X035680Y000880D01*
X036680Y000880D02*
X036680Y001480D01*
X037680Y001480D02*
X037680Y000880D01*
X038680Y000880D02*
X038680Y001480D01*
X039680Y001480D02*
X039680Y000880D01*
X012980Y004680D02*
X012380Y004680D01*
X012380Y005680D02*
X012980Y005680D01*
X012980Y006680D02*
X012380Y006680D01*
X012380Y007680D02*
X012980Y007680D01*
X012980Y008680D02*
X012380Y008680D01*
X012380Y009680D02*
X012980Y009680D01*
X012980Y010680D02*
X012380Y010680D01*
X012380Y011680D02*
X012980Y011680D01*
D11*
X037680Y011180D03*
X038680Y011180D03*
X038680Y010180D03*
X037680Y010180D03*
X037680Y009180D03*
X038680Y009180D03*
X038680Y008180D03*
X037680Y008180D03*
X037680Y007180D03*
X038680Y007180D03*
X038680Y012180D03*
X037680Y012180D03*
X037680Y013180D03*
X038680Y013180D03*
X038680Y014180D03*
X037680Y014180D03*
D12*
X037690Y016180D03*
X039670Y016180D03*
X038680Y017180D03*
X032680Y005180D03*
X032680Y004180D03*
X004680Y010680D03*
X004680Y011680D03*
D13*
X007920Y011680D02*
X008440Y011680D01*
X008440Y012680D02*
X007920Y012680D01*
X010920Y012680D02*
X011440Y012680D01*
X011440Y011680D02*
X010920Y011680D01*
X010920Y010680D02*
X011440Y010680D01*
X011440Y009680D02*
X010920Y009680D01*
X010920Y008680D02*
X011440Y008680D01*
X011440Y007680D02*
X010920Y007680D01*
X010920Y006680D02*
X011440Y006680D01*
X011440Y005680D02*
X010920Y005680D01*
X008440Y005680D02*
X007920Y005680D01*
X007920Y006680D02*
X008440Y006680D01*
X008440Y007680D02*
X007920Y007680D01*
X007920Y008680D02*
X008440Y008680D01*
X008440Y009680D02*
X007920Y009680D01*
X007920Y010680D02*
X008440Y010680D01*
X032920Y010180D02*
X033440Y010180D01*
X033440Y009180D02*
X032920Y009180D01*
X032920Y008180D02*
X033440Y008180D01*
X033440Y007180D02*
X032920Y007180D01*
X033680Y005940D02*
X033680Y005420D01*
X034680Y005420D02*
X034680Y005940D01*
X035680Y005940D02*
X035680Y005420D01*
X036680Y005420D02*
X036680Y005940D01*
X037680Y005940D02*
X037680Y005420D01*
X038680Y005420D02*
X038680Y005940D01*
X039680Y005940D02*
X039680Y005420D01*
X036440Y007180D02*
X035920Y007180D01*
X035920Y008180D02*
X036440Y008180D01*
X036440Y009180D02*
X035920Y009180D01*
X035920Y010180D02*
X036440Y010180D01*
X036440Y011180D02*
X035920Y011180D01*
X035920Y012180D02*
X036440Y012180D01*
X036440Y013180D02*
X035920Y013180D01*
X035920Y014180D02*
X036440Y014180D01*
X033440Y014180D02*
X032920Y014180D01*
X032920Y013180D02*
X033440Y013180D01*
X033440Y012180D02*
X032920Y012180D01*
X032920Y011180D02*
X033440Y011180D01*
X033680Y002940D02*
X033680Y002420D01*
X034680Y002420D02*
X034680Y002940D01*
X035680Y002940D02*
X035680Y002420D01*
X036680Y002420D02*
X036680Y002940D01*
X037680Y002940D02*
X037680Y002420D01*
X038680Y002420D02*
X038680Y002940D01*
X039680Y002940D02*
X039680Y002420D01*
D14*
X020065Y006174D03*
X019065Y006174D03*
X019065Y007174D03*
X020065Y007174D03*
X020065Y008174D03*
X019065Y008174D03*
X019065Y009174D03*
X020065Y009174D03*
X020065Y010174D03*
X019065Y010174D03*
X019065Y011174D03*
X020065Y011174D03*
X020065Y012174D03*
X019065Y012174D03*
X019065Y013174D03*
X020065Y013174D03*
X016565Y013174D03*
X015565Y013174D03*
X015565Y012174D03*
X016565Y012174D03*
X016565Y011174D03*
X015565Y011174D03*
X015565Y010174D03*
X016565Y010174D03*
X016565Y009174D03*
X015565Y009174D03*
X015565Y008174D03*
X016565Y008174D03*
X016565Y007174D03*
X015565Y007174D03*
X015565Y006174D03*
X016565Y006174D03*
X002415Y007174D03*
X001415Y007174D03*
X001415Y008174D03*
X002415Y008174D03*
X002415Y009174D03*
X001415Y009174D03*
X001415Y010174D03*
X002415Y010174D03*
X002415Y011174D03*
X001415Y011174D03*
X001415Y012174D03*
X002415Y012174D03*
X002415Y013174D03*
X001415Y013174D03*
X003581Y016280D03*
X004581Y016280D03*
X005581Y016280D03*
X006581Y016280D03*
X007581Y016280D03*
X008581Y016280D03*
X009581Y016280D03*
X010581Y016280D03*
X011581Y016280D03*
X012581Y016280D03*
X013581Y016280D03*
X014581Y016280D03*
X015581Y016280D03*
X016581Y016280D03*
D15*
X030943Y016280D03*
X030943Y004080D03*
X001417Y004080D03*
X001417Y016280D03*
D16*
X022180Y016460D02*
X022180Y015900D01*
X023180Y015900D02*
X023180Y016460D01*
X024180Y016460D02*
X024180Y015900D01*
X025680Y015900D02*
X025680Y016460D01*
X026680Y016460D02*
X026680Y015900D01*
X027680Y015900D02*
X027680Y016460D01*
X024180Y013960D02*
X024180Y013400D01*
X023180Y013400D02*
X023180Y013960D01*
X022180Y013960D02*
X022180Y013400D01*
X034180Y015900D02*
X034180Y016460D01*
X035180Y016460D02*
X035180Y015900D01*
M02*
