G75*
%MOIN*%
%OFA0B0*%
%FSLAX24Y24*%
%IPPOS*%
%LPD*%
%AMOC8*
5,1,8,0,0,1.08239X$1,22.5*
%
%ADD10C,0.0600*%
%ADD11OC8,0.0600*%
%ADD12OC8,0.0520*%
%ADD13C,0.0520*%
%ADD14R,0.0515X0.0515*%
%ADD15C,0.0560*%
%ADD16C,0.0200*%
%ADD17C,0.0400*%
%ADD18C,0.0100*%
D10*
X000680Y000880D02*
X000680Y001480D01*
X001680Y001480D02*
X001680Y000880D01*
X002680Y000880D02*
X002680Y001480D01*
X003680Y001480D02*
X003680Y000880D01*
X004680Y000880D02*
X004680Y001480D01*
X005680Y001480D02*
X005680Y000880D01*
X006680Y000880D02*
X006680Y001480D01*
X007680Y001480D02*
X007680Y000880D01*
X008680Y000880D02*
X008680Y001480D01*
X009680Y001480D02*
X009680Y000880D01*
X010680Y000880D02*
X010680Y001480D01*
X011680Y001480D02*
X011680Y000880D01*
X012680Y000880D02*
X012680Y001480D01*
X013680Y001480D02*
X013680Y000880D01*
X014680Y000880D02*
X014680Y001480D01*
X015680Y001480D02*
X015680Y000880D01*
X016680Y000880D02*
X016680Y001480D01*
X017680Y001480D02*
X017680Y000880D01*
X018680Y000880D02*
X018680Y001480D01*
X019680Y001480D02*
X019680Y000880D01*
X020680Y000880D02*
X020680Y001480D01*
X021680Y001480D02*
X021680Y000880D01*
X022680Y000880D02*
X022680Y001480D01*
X023680Y001480D02*
X023680Y000880D01*
X024680Y000880D02*
X024680Y001480D01*
X025680Y001480D02*
X025680Y000880D01*
X026680Y000880D02*
X026680Y001480D01*
X027680Y001480D02*
X027680Y000880D01*
X028680Y000880D02*
X028680Y001480D01*
X029680Y001480D02*
X029680Y000880D01*
X030680Y000880D02*
X030680Y001480D01*
X031680Y001480D02*
X031680Y000880D01*
X032680Y000880D02*
X032680Y001480D01*
X033680Y001480D02*
X033680Y000880D01*
X034680Y000880D02*
X034680Y001480D01*
X035680Y001480D02*
X035680Y000880D01*
X036680Y000880D02*
X036680Y001480D01*
X037680Y001480D02*
X037680Y000880D01*
X038680Y000880D02*
X038680Y001480D01*
X039680Y001480D02*
X039680Y000880D01*
X012980Y004680D02*
X012380Y004680D01*
X012380Y005680D02*
X012980Y005680D01*
X012980Y006680D02*
X012380Y006680D01*
X012380Y007680D02*
X012980Y007680D01*
X012980Y008680D02*
X012380Y008680D01*
X012380Y009680D02*
X012980Y009680D01*
X012980Y010680D02*
X012380Y010680D01*
X012380Y011680D02*
X012980Y011680D01*
D11*
X037680Y011180D03*
X038680Y011180D03*
X038680Y010180D03*
X037680Y010180D03*
X037680Y009180D03*
X038680Y009180D03*
X038680Y008180D03*
X037680Y008180D03*
X037680Y007180D03*
X038680Y007180D03*
X038680Y012180D03*
X037680Y012180D03*
X037680Y013180D03*
X038680Y013180D03*
X038680Y014180D03*
X037680Y014180D03*
D12*
X037690Y016180D03*
X039670Y016180D03*
X038680Y017180D03*
X032680Y005180D03*
X032680Y004180D03*
X004680Y010680D03*
X004680Y011680D03*
D13*
X007920Y011680D02*
X008440Y011680D01*
X008440Y012680D02*
X007920Y012680D01*
X010920Y012680D02*
X011440Y012680D01*
X011440Y011680D02*
X010920Y011680D01*
X010920Y010680D02*
X011440Y010680D01*
X011440Y009680D02*
X010920Y009680D01*
X010920Y008680D02*
X011440Y008680D01*
X011440Y007680D02*
X010920Y007680D01*
X010920Y006680D02*
X011440Y006680D01*
X011440Y005680D02*
X010920Y005680D01*
X008440Y005680D02*
X007920Y005680D01*
X007920Y006680D02*
X008440Y006680D01*
X008440Y007680D02*
X007920Y007680D01*
X007920Y008680D02*
X008440Y008680D01*
X008440Y009680D02*
X007920Y009680D01*
X007920Y010680D02*
X008440Y010680D01*
X032920Y010180D02*
X033440Y010180D01*
X033440Y009180D02*
X032920Y009180D01*
X032920Y008180D02*
X033440Y008180D01*
X033440Y007180D02*
X032920Y007180D01*
X033680Y005940D02*
X033680Y005420D01*
X034680Y005420D02*
X034680Y005940D01*
X035680Y005940D02*
X035680Y005420D01*
X036680Y005420D02*
X036680Y005940D01*
X037680Y005940D02*
X037680Y005420D01*
X038680Y005420D02*
X038680Y005940D01*
X039680Y005940D02*
X039680Y005420D01*
X036440Y007180D02*
X035920Y007180D01*
X035920Y008180D02*
X036440Y008180D01*
X036440Y009180D02*
X035920Y009180D01*
X035920Y010180D02*
X036440Y010180D01*
X036440Y011180D02*
X035920Y011180D01*
X035920Y012180D02*
X036440Y012180D01*
X036440Y013180D02*
X035920Y013180D01*
X035920Y014180D02*
X036440Y014180D01*
X033440Y014180D02*
X032920Y014180D01*
X032920Y013180D02*
X033440Y013180D01*
X033440Y012180D02*
X032920Y012180D01*
X032920Y011180D02*
X033440Y011180D01*
X033680Y002940D02*
X033680Y002420D01*
X034680Y002420D02*
X034680Y002940D01*
X035680Y002940D02*
X035680Y002420D01*
X036680Y002420D02*
X036680Y002940D01*
X037680Y002940D02*
X037680Y002420D01*
X038680Y002420D02*
X038680Y002940D01*
X039680Y002940D02*
X039680Y002420D01*
D14*
X020065Y006174D03*
X019065Y006174D03*
X019065Y007174D03*
X020065Y007174D03*
X020065Y008174D03*
X019065Y008174D03*
X019065Y009174D03*
X020065Y009174D03*
X020065Y010174D03*
X019065Y010174D03*
X019065Y011174D03*
X020065Y011174D03*
X020065Y012174D03*
X019065Y012174D03*
X019065Y013174D03*
X020065Y013174D03*
X016565Y013174D03*
X015565Y013174D03*
X015565Y012174D03*
X016565Y012174D03*
X016565Y011174D03*
X015565Y011174D03*
X015565Y010174D03*
X016565Y010174D03*
X016565Y009174D03*
X015565Y009174D03*
X015565Y008174D03*
X016565Y008174D03*
X016565Y007174D03*
X015565Y007174D03*
X015565Y006174D03*
X016565Y006174D03*
X002415Y007174D03*
X001415Y007174D03*
X001415Y008174D03*
X002415Y008174D03*
X002415Y009174D03*
X001415Y009174D03*
X001415Y010174D03*
X002415Y010174D03*
X002415Y011174D03*
X001415Y011174D03*
X001415Y012174D03*
X002415Y012174D03*
X002415Y013174D03*
X001415Y013174D03*
X003581Y016280D03*
X004581Y016280D03*
X005581Y016280D03*
X006581Y016280D03*
X007581Y016280D03*
X008581Y016280D03*
X009581Y016280D03*
X010581Y016280D03*
X011581Y016280D03*
X012581Y016280D03*
X013581Y016280D03*
X014581Y016280D03*
X015581Y016280D03*
X016581Y016280D03*
D15*
X022180Y016460D02*
X022180Y015900D01*
X023180Y015900D02*
X023180Y016460D01*
X024180Y016460D02*
X024180Y015900D01*
X025680Y015900D02*
X025680Y016460D01*
X026680Y016460D02*
X026680Y015900D01*
X027680Y015900D02*
X027680Y016460D01*
X024180Y013960D02*
X024180Y013400D01*
X023180Y013400D02*
X023180Y013960D01*
X022180Y013960D02*
X022180Y013400D01*
X034180Y015900D02*
X034180Y016460D01*
X035180Y016460D02*
X035180Y015900D01*
D16*
X034180Y016180D02*
X033118Y017243D01*
X025243Y017243D01*
X024180Y016180D01*
X024430Y016555D01*
X023805Y017180D01*
X004493Y017180D01*
X003618Y016305D01*
X003581Y016280D01*
X005180Y013493D02*
X005243Y013430D01*
X011118Y013430D01*
X011180Y013493D01*
X011305Y013618D01*
X015180Y013618D01*
X015555Y013993D01*
X016555Y013993D01*
X007305Y011555D02*
X004805Y011555D01*
X004680Y011680D01*
X005180Y007930D02*
X007930Y007930D01*
X008180Y007680D01*
X007368Y006493D02*
X003055Y006493D01*
X002430Y007118D01*
X002415Y007174D01*
X008180Y005680D02*
X008680Y006180D01*
X013243Y006180D01*
X014305Y007243D01*
X015493Y007243D01*
X015565Y007174D01*
X015618Y007180D01*
X015930Y007493D01*
X016055Y007493D01*
X016243Y007680D01*
X018430Y007680D01*
X018930Y007180D01*
X019055Y007180D01*
X019065Y007174D01*
X019618Y006680D02*
X020055Y007118D01*
X020065Y007174D01*
X020118Y007055D01*
X020805Y006368D01*
X031618Y006368D01*
X032680Y005305D01*
X032680Y005180D01*
X033180Y005680D01*
X033680Y005680D01*
X034680Y005680D02*
X035680Y005680D01*
X036430Y006430D01*
X036930Y006430D01*
X037680Y005680D01*
X038680Y005680D01*
X019618Y006680D02*
X017055Y006680D01*
X016618Y007118D01*
X016565Y007174D01*
D17*
X014743Y006805D03*
X014555Y005743D03*
X011368Y003430D03*
X009305Y002618D03*
X007368Y006493D03*
X005180Y007930D03*
X006555Y008618D03*
X009618Y009743D03*
X010368Y008868D03*
X007305Y011555D03*
X005180Y013493D03*
X003993Y013743D03*
X004243Y014243D03*
X010305Y014680D03*
X010680Y014055D03*
X011180Y013493D03*
X012180Y014055D03*
X016555Y013993D03*
X020993Y010243D03*
X022305Y008555D03*
X024368Y006993D03*
X026243Y007368D03*
X029930Y007368D03*
X030868Y005930D03*
X031368Y005930D03*
X024993Y004868D03*
X025493Y002305D03*
X018805Y003055D03*
X018180Y002118D03*
X032243Y002305D03*
X029555Y009680D03*
X028305Y009930D03*
X026993Y009930D03*
X025743Y011993D03*
X026993Y012368D03*
X027680Y012555D03*
D18*
X027305Y012930D01*
X019930Y012930D01*
X020065Y013174D01*
X020055Y013118D01*
X019805Y012868D01*
X019493Y012868D01*
X019368Y012743D01*
X017055Y012743D01*
X016680Y013118D01*
X016618Y013118D01*
X016565Y013174D01*
X016055Y013618D02*
X015618Y013180D01*
X015565Y013174D01*
X015555Y013118D01*
X003243Y013118D01*
X002743Y013618D01*
X001868Y013618D01*
X001430Y013180D01*
X001415Y013174D01*
X001868Y012618D02*
X007368Y012618D01*
X007805Y012180D01*
X015555Y012180D01*
X015565Y012174D01*
X015618Y012180D01*
X016055Y012618D01*
X016868Y012618D01*
X016993Y012493D01*
X018743Y012493D01*
X019055Y012180D01*
X019065Y012174D01*
X019118Y012180D01*
X019555Y012618D01*
X026743Y012618D01*
X026993Y012368D01*
X025743Y011993D02*
X032993Y011993D01*
X033180Y012180D01*
X036180Y012180D02*
X037180Y013180D01*
X037680Y013180D01*
X038680Y013180D02*
X038680Y012180D01*
X038680Y011180D01*
X038680Y010180D01*
X038680Y009180D01*
X038680Y008180D01*
X038680Y007180D01*
X037680Y007180D02*
X037243Y007618D01*
X033743Y007618D01*
X033180Y008180D01*
X033180Y009180D02*
X030993Y006993D01*
X024368Y006993D01*
X024243Y006618D02*
X022305Y008555D01*
X020930Y009305D02*
X020118Y010118D01*
X020065Y010174D01*
X020055Y010118D01*
X019680Y009743D01*
X016243Y009743D01*
X016211Y009774D01*
X016180Y009743D01*
X015368Y009743D01*
X014805Y009180D01*
X012243Y009180D01*
X012180Y009243D01*
X009618Y009243D01*
X009618Y009743D01*
X009618Y009243D02*
X003305Y009243D01*
X002430Y010118D01*
X002415Y010174D01*
X001868Y010618D02*
X001430Y010180D01*
X001415Y010174D01*
X000805Y009743D02*
X000805Y015368D01*
X007680Y015368D01*
X008555Y016243D01*
X008581Y016280D01*
X008430Y016055D01*
X010180Y014305D01*
X010430Y014305D01*
X010555Y014430D01*
X022430Y014430D01*
X023180Y013680D01*
X023211Y014649D02*
X024180Y013680D01*
X023243Y014680D02*
X023211Y014649D01*
X023180Y014680D01*
X010305Y014680D01*
X010055Y014118D02*
X010118Y014055D01*
X010680Y014055D01*
X010868Y013680D02*
X011243Y014055D01*
X012180Y014055D01*
X010868Y013680D02*
X010180Y013680D01*
X009993Y013868D01*
X004118Y013868D01*
X003993Y013743D01*
X004368Y014118D02*
X010055Y014118D01*
X007618Y016305D02*
X007581Y016280D01*
X007618Y016305D02*
X008055Y016743D01*
X020680Y016743D01*
X021993Y015430D01*
X022430Y015430D01*
X023180Y016180D01*
X023618Y015805D02*
X023618Y016930D01*
X022930Y016930D01*
X022180Y016180D01*
X023618Y015805D02*
X024305Y015118D01*
X039180Y015118D01*
X039180Y002305D01*
X038868Y001993D01*
X036368Y001993D01*
X035680Y002680D01*
X034680Y002680D02*
X033930Y001930D01*
X024430Y001930D01*
X023680Y001180D01*
X025493Y002305D02*
X032243Y002305D01*
X033680Y002680D02*
X034368Y003368D01*
X036993Y003368D01*
X037680Y002680D01*
X038680Y002680D02*
X036368Y004993D01*
X034493Y004993D01*
X034118Y005368D01*
X034118Y006618D01*
X024243Y006618D01*
X026243Y007368D02*
X024305Y009305D01*
X020930Y009305D01*
X021680Y009555D02*
X020993Y010243D01*
X019743Y010618D02*
X019305Y010180D01*
X019118Y010180D01*
X019065Y010174D01*
X019055Y010180D01*
X018743Y010493D01*
X016993Y010493D01*
X016868Y010618D01*
X016055Y010618D01*
X015618Y010180D01*
X015565Y010174D01*
X015555Y010180D01*
X004555Y010180D01*
X004118Y010618D01*
X001868Y010618D01*
X001430Y011180D02*
X001415Y011174D01*
X001430Y011180D02*
X001868Y011618D01*
X004118Y011618D01*
X004555Y011180D01*
X015555Y011180D01*
X015565Y011174D01*
X015618Y011180D01*
X016055Y011618D01*
X016868Y011618D01*
X016993Y011493D01*
X018743Y011493D01*
X019055Y011180D01*
X019065Y011174D01*
X019118Y011180D01*
X019305Y011180D01*
X019743Y011618D01*
X027618Y011618D01*
X029555Y009680D01*
X028305Y009930D02*
X027118Y011118D01*
X020118Y011118D01*
X020065Y011174D01*
X020055Y011118D01*
X019930Y011118D01*
X019555Y010743D01*
X018743Y010743D01*
X018618Y010868D01*
X016868Y010868D01*
X016618Y011118D01*
X016565Y011174D01*
X016868Y011868D02*
X018618Y011868D01*
X018743Y011743D01*
X019555Y011743D01*
X019930Y012118D01*
X020055Y012118D01*
X020065Y012174D01*
X019065Y013174D02*
X019055Y013180D01*
X018618Y013618D01*
X016055Y013618D01*
X016565Y012174D02*
X016618Y012118D01*
X016868Y011868D01*
X019743Y010618D02*
X026305Y010618D01*
X026993Y009930D01*
X027743Y009555D02*
X021680Y009555D01*
X020065Y009174D02*
X020055Y009118D01*
X019680Y008743D01*
X018743Y008743D01*
X018618Y008868D01*
X016868Y008868D01*
X016618Y009118D01*
X016565Y009174D01*
X016868Y008618D02*
X016055Y008618D01*
X015618Y008180D01*
X015565Y008174D01*
X015555Y008180D01*
X007805Y008180D01*
X007368Y008618D01*
X006555Y008618D01*
X001868Y008618D01*
X001430Y008180D01*
X001415Y008174D01*
X002415Y008174D02*
X002430Y008118D01*
X003368Y007180D01*
X013868Y007180D01*
X014430Y007743D01*
X015930Y007743D01*
X016305Y008118D01*
X016555Y008118D01*
X016565Y008174D01*
X016618Y008118D01*
X016805Y007930D01*
X018555Y007930D01*
X018743Y007743D01*
X019680Y007743D01*
X020055Y008118D01*
X020065Y008174D01*
X019065Y008174D02*
X019055Y008180D01*
X018743Y008493D01*
X016993Y008493D01*
X016868Y008618D01*
X016211Y009774D02*
X016555Y010118D01*
X016565Y010174D01*
X012680Y010680D02*
X011180Y010680D01*
X011180Y011680D02*
X012680Y011680D01*
X010368Y008868D02*
X008368Y008868D01*
X008180Y008680D01*
X011180Y008680D02*
X012680Y008680D01*
X012680Y007680D02*
X011180Y007680D01*
X011180Y006680D02*
X012680Y006680D01*
X014743Y006805D02*
X014930Y006805D01*
X015555Y006180D01*
X015565Y006174D01*
X014555Y005743D02*
X018680Y005743D01*
X019055Y006118D01*
X019065Y006174D01*
X014180Y005243D02*
X012743Y003805D01*
X009680Y003805D01*
X008180Y002305D01*
X008180Y000430D01*
X008930Y000430D01*
X009680Y001180D01*
X008680Y001180D02*
X008680Y002493D01*
X009180Y002993D01*
X018743Y002993D01*
X018805Y003055D01*
X018180Y002118D02*
X018180Y000743D01*
X018493Y000430D01*
X032930Y000430D01*
X033680Y001180D01*
X031368Y005930D02*
X028118Y002680D01*
X015243Y002680D01*
X014180Y001618D01*
X014180Y000430D01*
X012430Y000430D01*
X011680Y001180D01*
X012930Y001930D02*
X009993Y001930D01*
X009305Y002618D01*
X011368Y003430D02*
X023555Y003430D01*
X024993Y004868D01*
X030180Y005243D02*
X014180Y005243D01*
X012680Y005680D02*
X011180Y005680D01*
X012680Y004680D02*
X007493Y004680D01*
X007493Y005993D01*
X008180Y006680D01*
X001415Y009174D02*
X001368Y009180D01*
X000805Y009743D01*
X001415Y012174D02*
X001430Y012180D01*
X001868Y012618D01*
X004243Y014243D02*
X004368Y014118D01*
X023243Y014680D02*
X038180Y014680D01*
X038680Y014180D01*
X038680Y013180D01*
X037680Y012180D02*
X037180Y012180D01*
X036180Y011180D01*
X037180Y011180D02*
X037680Y011180D01*
X037180Y011180D02*
X036180Y010180D01*
X037180Y010180D02*
X037680Y010180D01*
X037180Y010180D02*
X036180Y009180D01*
X037180Y009180D02*
X037680Y009180D01*
X037180Y009180D02*
X036180Y008180D01*
X030868Y005930D02*
X030180Y005243D01*
X029930Y007368D02*
X027743Y009555D01*
X036180Y013180D02*
X037180Y014180D01*
X037680Y014180D01*
X035180Y016180D02*
X034368Y015368D01*
X026493Y015368D01*
X025680Y016180D01*
X035180Y016180D02*
X035618Y016618D01*
X038118Y016618D01*
X038680Y017180D01*
X013680Y001180D02*
X012930Y001930D01*
M02*
