%
M48
M72
T01C0.0240
T02C0.0320
T03C0.0360
T04C0.0400
T05C0.0550
%
T01
X4805Y2305
X5805Y2930
X6680Y4805
X6180Y5180
X11055Y6305
X12180Y5555
X15430Y5555
X16430Y5555
X19055Y6305
X20430Y6305
X18305Y7055
X17680Y7055
X17305Y7430
X19055Y7805
X21805Y7430
X24180Y7055
X25680Y7430
X26055Y7805
X24805Y8555
X27680Y9055
X28680Y9055
X30555Y8555
X32680Y9180
X33055Y9555
X33430Y9930
X30930Y10305
X29180Y10055
X28805Y9680
X23180Y11305
X23555Y12180
X12805Y7805
X14055Y7555
X8430Y7055
X6180Y8055
X4305Y7805
X8430Y9555
X6305Y10930
X6055Y12055
X25180Y6055
X23305Y5555
X22805Y5555
X21055Y5180
X19180Y4805
X22930Y4805
X26055Y4805
X26930Y4805
X28555Y4930
X26930Y5430
X27180Y7055
X28055Y7305
X32680Y6055
X30680Y3805
X28180Y1930
X13680Y3055
X12680Y3055
T02
X12180Y3680
X11180Y3680
X10180Y3680
X9180Y3680
X7180Y3680
X6180Y3680
X5180Y3680
X4180Y3680
X3180Y3680
X2180Y3680
X1180Y3680
X1180Y6680
X2180Y6680
X3180Y6680
X4180Y6680
X5180Y6680
X6180Y6680
X7180Y6680
X4680Y8680
X6680Y9180
X9180Y9680
X10180Y9680
X11180Y9680
X12180Y9680
X13180Y9680
X14180Y9680
X15180Y9680
X16180Y9680
X17180Y9680
X18180Y9680
X19180Y9680
X20180Y9680
X21180Y9680
X22180Y9680
X23180Y9680
X24180Y9680
X25180Y9680
X26180Y9680
X27180Y9680
X28180Y9680
X29680Y8680
X29680Y7680
X29680Y6680
X29680Y5680
X31180Y5680
X29680Y4680
X29680Y3680
X28180Y3680
X27180Y3680
X26180Y3680
X25180Y3680
X24180Y3680
X23180Y3680
X22180Y3680
X21180Y3680
X20180Y3680
X19180Y3680
X18180Y3680
X17180Y3680
X16180Y3680
X15180Y3680
X14180Y3680
X13180Y3680
X17680Y2680
X18680Y2680
X31180Y2680
X6680Y10180
X4680Y11680
X1680Y11680
X9180Y11680
X10180Y11680
X11680Y11680
X12680Y11680
X14180Y11680
X15180Y11680
X16680Y11680
X17680Y11680
X19180Y11680
X20180Y11680
X21680Y11680
X22680Y11680
X24180Y11680
X25180Y11680
X26180Y11680
X27180Y11680
X28180Y11680
X29180Y11680
X30180Y11680
X1680Y8680
T03
X6680Y11680
X7680Y11680
T04
X680Y1180
X1680Y1180
X2680Y1180
X3680Y1180
X4680Y1180
X5680Y1180
X6680Y1180
X7680Y1180
X8680Y1180
X9680Y1180
X10680Y1180
X11680Y1180
X12680Y1180
X13680Y1180
X14680Y1180
X15680Y1180
X16680Y1180
X17680Y1180
X18680Y1180
X19680Y1180
X20680Y1180
X21680Y1180
X22680Y1180
X23680Y1180
X24680Y1180
X25680Y1180
X26680Y1180
X27680Y1180
X28680Y1180
X29680Y1180
X30680Y1180
X31680Y1180
X32680Y1180
X33680Y1180
X34680Y1180
X35680Y1180
X36680Y1180
X37680Y1180
X38680Y1180
X39680Y1180
X39680Y2680
X38680Y2680
X37680Y2680
X36680Y2680
X35680Y2680
X34680Y2680
X34680Y3680
X35680Y3680
X36680Y3680
X37680Y3680
X38680Y3680
X39680Y3680
X34180Y11680
X33180Y11680
X32180Y11680
X36795Y12170
X38565Y12170
T05
X39060Y11190
X36300Y11190
M30
