G75*
%MOIN*%
%OFA0B0*%
%FSLAX24Y24*%
%IPPOS*%
%LPD*%
%AMOC8*
5,1,8,0,0,1.08239X$1,22.5*
%
%ADD10C,0.0600*%
%ADD11OC8,0.0680*%
%ADD12C,0.0680*%
%ADD13OC8,0.0600*%
%ADD14C,0.0600*%
%ADD15R,0.0474X0.0647*%
%ADD16R,0.0552X0.0647*%
%ADD17R,0.0710X0.0540*%
%ADD18R,0.0720X0.0060*%
%ADD19R,0.0680X0.0680*%
%ADD20R,0.0905X0.0905*%
%ADD21C,0.0640*%
D10*
X001180Y003420D02*
X001180Y003940D01*
X002180Y003940D02*
X002180Y003420D01*
X003180Y003420D02*
X003180Y003940D01*
X004180Y003940D02*
X004180Y003420D01*
X005180Y003420D02*
X005180Y003940D01*
X006180Y003940D02*
X006180Y003420D01*
X007180Y003420D02*
X007180Y003940D01*
X009180Y003940D02*
X009180Y003420D01*
X010180Y003420D02*
X010180Y003940D01*
X011180Y003940D02*
X011180Y003420D01*
X012180Y003420D02*
X012180Y003940D01*
X013180Y003940D02*
X013180Y003420D01*
X014180Y003420D02*
X014180Y003940D01*
X015180Y003940D02*
X015180Y003420D01*
X016180Y003420D02*
X016180Y003940D01*
X017180Y003940D02*
X017180Y003420D01*
X018180Y003420D02*
X018180Y003940D01*
X019180Y003940D02*
X019180Y003420D01*
X020180Y003420D02*
X020180Y003940D01*
X021180Y003940D02*
X021180Y003420D01*
X022180Y003420D02*
X022180Y003940D01*
X023180Y003940D02*
X023180Y003420D01*
X024180Y003420D02*
X024180Y003940D01*
X025180Y003940D02*
X025180Y003420D01*
X026180Y003420D02*
X026180Y003940D01*
X027180Y003940D02*
X027180Y003420D01*
X028180Y003420D02*
X028180Y003940D01*
X029420Y003680D02*
X029940Y003680D01*
X029940Y004680D02*
X029420Y004680D01*
X029420Y005680D02*
X029940Y005680D01*
X029940Y006680D02*
X029420Y006680D01*
X029420Y007680D02*
X029940Y007680D01*
X029940Y008680D02*
X029420Y008680D01*
X028180Y009420D02*
X028180Y009940D01*
X027180Y009940D02*
X027180Y009420D01*
X026180Y009420D02*
X026180Y009940D01*
X025180Y009940D02*
X025180Y009420D01*
X024180Y009420D02*
X024180Y009940D01*
X023180Y009940D02*
X023180Y009420D01*
X022180Y009420D02*
X022180Y009940D01*
X021180Y009940D02*
X021180Y009420D01*
X020180Y009420D02*
X020180Y009940D01*
X019180Y009940D02*
X019180Y009420D01*
X018180Y009420D02*
X018180Y009940D01*
X017180Y009940D02*
X017180Y009420D01*
X016180Y009420D02*
X016180Y009940D01*
X015180Y009940D02*
X015180Y009420D01*
X014180Y009420D02*
X014180Y009940D01*
X013180Y009940D02*
X013180Y009420D01*
X012180Y009420D02*
X012180Y009940D01*
X011180Y009940D02*
X011180Y009420D01*
X010180Y009420D02*
X010180Y009940D01*
X009180Y009940D02*
X009180Y009420D01*
X007180Y006940D02*
X007180Y006420D01*
X006180Y006420D02*
X006180Y006940D01*
X005180Y006940D02*
X005180Y006420D01*
X004180Y006420D02*
X004180Y006940D01*
X003180Y006940D02*
X003180Y006420D01*
X002180Y006420D02*
X002180Y006940D01*
X001180Y006940D02*
X001180Y006420D01*
X024180Y011420D02*
X024180Y011940D01*
X025180Y011940D02*
X025180Y011420D01*
X026180Y011420D02*
X026180Y011940D01*
X027180Y011940D02*
X027180Y011420D01*
X028180Y011420D02*
X028180Y011940D01*
X029180Y011940D02*
X029180Y011420D01*
X030180Y011420D02*
X030180Y011940D01*
D11*
X034680Y003680D03*
X035680Y003680D03*
X036680Y003680D03*
X037680Y003680D03*
X038680Y003680D03*
X039680Y003680D03*
X039680Y002680D03*
X038680Y002680D03*
X037680Y002680D03*
X036680Y002680D03*
X035680Y002680D03*
X034680Y002680D03*
D12*
X000680Y001480D02*
X000680Y000880D01*
X001680Y000880D02*
X001680Y001480D01*
X002680Y001480D02*
X002680Y000880D01*
X003680Y000880D02*
X003680Y001480D01*
X004680Y001480D02*
X004680Y000880D01*
X005680Y000880D02*
X005680Y001480D01*
X006680Y001480D02*
X006680Y000880D01*
X007680Y000880D02*
X007680Y001480D01*
X008680Y001480D02*
X008680Y000880D01*
X009680Y000880D02*
X009680Y001480D01*
X010680Y001480D02*
X010680Y000880D01*
X011680Y000880D02*
X011680Y001480D01*
X012680Y001480D02*
X012680Y000880D01*
X013680Y000880D02*
X013680Y001480D01*
X014680Y001480D02*
X014680Y000880D01*
X015680Y000880D02*
X015680Y001480D01*
X016680Y001480D02*
X016680Y000880D01*
X017680Y000880D02*
X017680Y001480D01*
X018680Y001480D02*
X018680Y000880D01*
X019680Y000880D02*
X019680Y001480D01*
X020680Y001480D02*
X020680Y000880D01*
X021680Y000880D02*
X021680Y001480D01*
X022680Y001480D02*
X022680Y000880D01*
X023680Y000880D02*
X023680Y001480D01*
X024680Y001480D02*
X024680Y000880D01*
X025680Y000880D02*
X025680Y001480D01*
X026680Y001480D02*
X026680Y000880D01*
X027680Y000880D02*
X027680Y001480D01*
X028680Y001480D02*
X028680Y000880D01*
X029680Y000880D02*
X029680Y001480D01*
X030680Y001480D02*
X030680Y000880D01*
X031680Y000880D02*
X031680Y001480D01*
X032680Y001480D02*
X032680Y000880D01*
X033680Y000880D02*
X033680Y001480D01*
X034680Y001480D02*
X034680Y000880D01*
X035680Y000880D02*
X035680Y001480D01*
X036680Y001480D02*
X036680Y000880D01*
X037680Y000880D02*
X037680Y001480D01*
X038680Y001480D02*
X038680Y000880D01*
X039680Y000880D02*
X039680Y001480D01*
X034180Y011380D02*
X034180Y011980D01*
X033180Y011980D02*
X033180Y011380D01*
X032180Y011380D02*
X032180Y011980D01*
D13*
X022680Y011680D03*
X021680Y011680D03*
X020180Y011680D03*
X019180Y011680D03*
X017680Y011680D03*
X016680Y011680D03*
X015180Y011680D03*
X014180Y011680D03*
X012680Y011680D03*
X011680Y011680D03*
X010180Y011680D03*
X009180Y011680D03*
X006680Y010180D03*
X006680Y009180D03*
X017680Y002680D03*
X018680Y002680D03*
X031180Y002680D03*
X031180Y005680D03*
D14*
X004680Y008680D03*
X001680Y008680D03*
X001680Y011680D03*
X004680Y011680D03*
D15*
X032306Y007613D03*
X033054Y007613D03*
X033054Y006747D03*
D16*
X032385Y006747D03*
D17*
X034180Y006880D03*
X034180Y007480D03*
D18*
X034180Y007180D03*
D19*
X036795Y012170D03*
X038565Y012170D03*
D20*
X039060Y011190D03*
X036300Y011190D03*
D21*
X007680Y011400D02*
X007680Y011960D01*
X006680Y011960D02*
X006680Y011400D01*
M02*
