G75*
%MOIN*%
%OFA0B0*%
%FSLAX24Y24*%
%IPPOS*%
%LPD*%
%AMOC8*
5,1,8,0,0,1.08239X$1,22.5*
%
%ADD10C,0.0030*%
%ADD11C,0.0060*%
%ADD12C,0.0020*%
%ADD13C,0.0050*%
%ADD14R,0.0200X0.0150*%
%ADD15C,0.0100*%
%ADD16C,0.0120*%
%ADD17C,0.0040*%
D10*
X000375Y002195D02*
X000375Y002340D01*
X000423Y002388D01*
X000520Y002388D01*
X000568Y002340D01*
X000568Y002195D01*
X000665Y002195D02*
X000375Y002195D01*
X000375Y002490D02*
X000375Y002586D01*
X000375Y002538D02*
X000665Y002538D01*
X000665Y002490D02*
X000665Y002586D01*
X000665Y002686D02*
X000375Y002686D01*
X000665Y002880D01*
X000375Y002880D01*
X000472Y002981D02*
X000375Y003077D01*
X000665Y003077D01*
X000665Y002981D02*
X000665Y003174D01*
X009195Y010395D02*
X009292Y010492D01*
X009388Y010395D01*
X009388Y010685D01*
X009490Y010685D02*
X009635Y010685D01*
X009683Y010637D01*
X009683Y010540D01*
X009635Y010492D01*
X009490Y010492D01*
X009586Y010492D02*
X009683Y010395D01*
X009490Y010395D02*
X009490Y010685D01*
X009195Y010685D02*
X009195Y010395D01*
X011695Y010395D02*
X011695Y010685D01*
X011840Y010685D01*
X011888Y010637D01*
X011888Y010540D01*
X011840Y010492D01*
X011695Y010492D01*
X011792Y010492D02*
X011888Y010395D01*
X011990Y010395D02*
X012135Y010395D01*
X012183Y010443D01*
X012183Y010637D01*
X012135Y010685D01*
X011990Y010685D01*
X011990Y010395D01*
X014195Y010395D02*
X014292Y010395D01*
X014243Y010395D02*
X014243Y010685D01*
X014195Y010685D02*
X014292Y010685D01*
X014391Y010637D02*
X014391Y010443D01*
X014440Y010395D01*
X014537Y010395D01*
X014585Y010443D01*
X014585Y010637D01*
X014537Y010685D01*
X014440Y010685D01*
X014391Y010637D01*
X014686Y010685D02*
X014831Y010685D01*
X014880Y010637D01*
X014880Y010540D01*
X014831Y010492D01*
X014686Y010492D01*
X014783Y010492D02*
X014880Y010395D01*
X014981Y010443D02*
X015029Y010395D01*
X015126Y010395D01*
X015174Y010443D01*
X015174Y010637D01*
X015126Y010685D01*
X015029Y010685D01*
X014981Y010637D01*
X014981Y010443D01*
X015077Y010492D02*
X015174Y010395D01*
X014686Y010395D02*
X014686Y010685D01*
X016695Y010685D02*
X016695Y010395D01*
X016888Y010395D02*
X016888Y010685D01*
X016792Y010588D01*
X016695Y010685D01*
X016990Y010685D02*
X017135Y010685D01*
X017183Y010637D01*
X017183Y010540D01*
X017135Y010492D01*
X016990Y010492D01*
X017086Y010492D02*
X017183Y010395D01*
X017284Y010395D02*
X017478Y010395D01*
X017579Y010443D02*
X017627Y010395D01*
X017724Y010395D01*
X017772Y010443D01*
X017772Y010637D01*
X017724Y010685D01*
X017627Y010685D01*
X017579Y010637D01*
X017579Y010443D01*
X017676Y010492D02*
X017772Y010395D01*
X017381Y010540D02*
X017284Y010540D01*
X017284Y010685D02*
X017284Y010395D01*
X016990Y010395D02*
X016990Y010685D01*
X017284Y010685D02*
X017478Y010685D01*
X019695Y010685D02*
X019695Y010395D01*
X019888Y010395D02*
X019888Y010685D01*
X019792Y010588D01*
X019695Y010685D01*
X019990Y010588D02*
X020086Y010685D01*
X020086Y010395D01*
X019990Y010395D02*
X020183Y010395D01*
X021695Y010395D02*
X021695Y010685D01*
X021695Y010540D02*
X021888Y010540D01*
X021990Y010540D02*
X022183Y010540D01*
X022183Y010588D02*
X022183Y010395D01*
X022284Y010395D02*
X022478Y010395D01*
X022284Y010395D02*
X022284Y010685D01*
X022183Y010588D02*
X022086Y010685D01*
X021990Y010588D01*
X021990Y010395D01*
X021888Y010395D02*
X021888Y010685D01*
X022579Y010685D02*
X022772Y010685D01*
X022676Y010685D02*
X022676Y010395D01*
X034375Y005772D02*
X034665Y005772D01*
X034520Y005772D02*
X034520Y005579D01*
X034568Y005478D02*
X034617Y005478D01*
X034665Y005429D01*
X034665Y005333D01*
X034617Y005284D01*
X034520Y005333D02*
X034520Y005429D01*
X034568Y005478D01*
X034665Y005579D02*
X034375Y005579D01*
X034423Y005478D02*
X034375Y005429D01*
X034375Y005333D01*
X034423Y005284D01*
X034472Y005284D01*
X034520Y005333D01*
X034375Y005183D02*
X034375Y004990D01*
X034665Y004990D01*
X034665Y004888D02*
X034568Y004792D01*
X034568Y004840D02*
X034568Y004695D01*
X034665Y004695D02*
X034375Y004695D01*
X034375Y004840D01*
X034423Y004888D01*
X034520Y004888D01*
X034568Y004840D01*
X034520Y004990D02*
X034520Y005086D01*
X035375Y004990D02*
X035472Y005086D01*
X035375Y005183D01*
X035665Y005183D01*
X035665Y005284D02*
X035665Y005381D01*
X035665Y005333D02*
X035375Y005333D01*
X035375Y005381D02*
X035375Y005284D01*
X035375Y004990D02*
X035665Y004990D01*
X035665Y004888D02*
X035375Y004888D01*
X035375Y004695D02*
X035665Y004888D01*
X035665Y004695D02*
X035375Y004695D01*
X036375Y004695D02*
X036665Y004695D01*
X036568Y004792D01*
X036665Y004888D01*
X036375Y004888D01*
X036472Y004990D02*
X036375Y005086D01*
X036472Y005183D01*
X036665Y005183D01*
X036665Y005284D02*
X036665Y005381D01*
X036665Y005333D02*
X036375Y005333D01*
X036375Y005381D02*
X036375Y005284D01*
X036520Y005183D02*
X036520Y004990D01*
X036472Y004990D02*
X036665Y004990D01*
X037375Y005086D02*
X037472Y005183D01*
X037665Y005183D01*
X037665Y005284D02*
X037375Y005284D01*
X037520Y005183D02*
X037520Y004990D01*
X037472Y004990D02*
X037375Y005086D01*
X037472Y004990D02*
X037665Y004990D01*
X037665Y004888D02*
X037375Y004888D01*
X037520Y004888D02*
X037520Y004695D01*
X037665Y004695D02*
X037375Y004695D01*
X038375Y004695D02*
X038375Y004840D01*
X038423Y004888D01*
X038472Y004888D01*
X038520Y004840D01*
X038520Y004695D01*
X038665Y004695D02*
X038665Y004840D01*
X038617Y004888D01*
X038568Y004888D01*
X038520Y004840D01*
X038617Y004990D02*
X038375Y004990D01*
X038375Y005183D02*
X038617Y005183D01*
X038665Y005135D01*
X038665Y005038D01*
X038617Y004990D01*
X038617Y005284D02*
X038665Y005333D01*
X038665Y005429D01*
X038617Y005478D01*
X038568Y005478D01*
X038520Y005429D01*
X038520Y005333D01*
X038472Y005284D01*
X038423Y005284D01*
X038375Y005333D01*
X038375Y005429D01*
X038423Y005478D01*
X038375Y005579D02*
X038375Y005724D01*
X038423Y005772D01*
X038520Y005772D01*
X038568Y005724D01*
X038568Y005579D01*
X038568Y005676D02*
X038665Y005772D01*
X038617Y005874D02*
X038665Y005922D01*
X038665Y006019D01*
X038617Y006067D01*
X038423Y006067D01*
X038375Y006019D01*
X038375Y005922D01*
X038423Y005874D01*
X038617Y005874D01*
X038568Y005970D02*
X038665Y006067D01*
X039375Y006176D02*
X039472Y006079D01*
X039665Y006079D01*
X039617Y005978D02*
X039665Y005929D01*
X039665Y005833D01*
X039617Y005784D01*
X039617Y005683D02*
X039375Y005683D01*
X039423Y005784D02*
X039472Y005784D01*
X039520Y005833D01*
X039520Y005929D01*
X039568Y005978D01*
X039617Y005978D01*
X039520Y006079D02*
X039520Y006272D01*
X039472Y006272D02*
X039665Y006272D01*
X039665Y006374D02*
X039375Y006374D01*
X039472Y006272D02*
X039375Y006176D01*
X039568Y006374D02*
X039375Y006567D01*
X039520Y006422D02*
X039665Y006567D01*
X039423Y005978D02*
X039375Y005929D01*
X039375Y005833D01*
X039423Y005784D01*
X039617Y005683D02*
X039665Y005635D01*
X039665Y005538D01*
X039617Y005490D01*
X039375Y005490D01*
X039423Y005388D02*
X039472Y005388D01*
X039520Y005340D01*
X039520Y005195D01*
X039665Y005195D02*
X039375Y005195D01*
X039375Y005340D01*
X039423Y005388D01*
X039520Y005340D02*
X039568Y005388D01*
X039617Y005388D01*
X039665Y005340D01*
X039665Y005195D01*
X038665Y005579D02*
X038375Y005579D01*
X037665Y005676D02*
X037375Y005676D01*
X037375Y005772D02*
X037375Y005579D01*
X037665Y005478D02*
X037665Y005284D01*
X036665Y005577D02*
X036375Y005577D01*
X036375Y005481D02*
X036375Y005674D01*
X038375Y004695D02*
X038665Y004695D01*
X038470Y010195D02*
X038470Y010485D01*
X038374Y010485D02*
X038567Y010485D01*
X038272Y010485D02*
X038079Y010485D01*
X038079Y010195D01*
X038272Y010195D01*
X038176Y010340D02*
X038079Y010340D01*
X037978Y010292D02*
X037978Y010243D01*
X037929Y010195D01*
X037833Y010195D01*
X037784Y010243D01*
X037833Y010340D02*
X037929Y010340D01*
X037978Y010292D01*
X037978Y010437D02*
X037929Y010485D01*
X037833Y010485D01*
X037784Y010437D01*
X037784Y010388D01*
X037833Y010340D01*
X037683Y010195D02*
X037490Y010195D01*
X037490Y010485D01*
X037683Y010485D01*
X037586Y010340D02*
X037490Y010340D01*
X037388Y010340D02*
X037340Y010292D01*
X037195Y010292D01*
X037292Y010292D02*
X037388Y010195D01*
X037388Y010340D02*
X037388Y010437D01*
X037340Y010485D01*
X037195Y010485D01*
X037195Y010195D01*
D11*
X002817Y002010D02*
X002710Y002117D01*
X002710Y002437D01*
X003137Y002437D02*
X003137Y002117D01*
X003030Y002010D01*
X002924Y002117D01*
X002817Y002010D01*
X003355Y002117D02*
X003461Y002010D01*
X003568Y002117D01*
X003675Y002010D01*
X003782Y002117D01*
X003782Y002437D01*
X003999Y002437D02*
X003999Y002117D01*
X004106Y002010D01*
X004213Y002117D01*
X004319Y002010D01*
X004426Y002117D01*
X004426Y002437D01*
X004966Y002330D02*
X005073Y002224D01*
X005286Y002224D01*
X005393Y002117D01*
X005286Y002010D01*
X004966Y002010D01*
X004750Y002010D02*
X004750Y002117D01*
X004644Y002117D01*
X004644Y002010D01*
X004750Y002010D01*
X005610Y002010D02*
X005610Y002437D01*
X005717Y002437D01*
X005824Y002330D01*
X005931Y002437D01*
X006038Y002330D01*
X006038Y002010D01*
X005824Y002010D02*
X005824Y002330D01*
X006255Y002437D02*
X006575Y002437D01*
X006682Y002330D01*
X006682Y002117D01*
X006575Y002010D01*
X006255Y002010D01*
X006255Y002651D01*
X007006Y002437D02*
X007220Y002437D01*
X007327Y002330D01*
X007327Y002010D01*
X007006Y002010D01*
X006900Y002117D01*
X007006Y002224D01*
X007327Y002224D01*
X007544Y002224D02*
X007864Y002437D01*
X008081Y002330D02*
X008188Y002437D01*
X008402Y002437D01*
X008508Y002330D01*
X008508Y002224D01*
X008081Y002224D01*
X008081Y002330D02*
X008081Y002117D01*
X008188Y002010D01*
X008402Y002010D01*
X008726Y002010D02*
X008726Y002437D01*
X008939Y002437D02*
X009046Y002437D01*
X008939Y002437D02*
X008726Y002224D01*
X009263Y002117D02*
X009370Y002117D01*
X009370Y002010D01*
X009263Y002010D01*
X009263Y002117D01*
X009585Y002117D02*
X009692Y002010D01*
X010012Y002010D01*
X010230Y002117D02*
X010337Y002010D01*
X010550Y002010D01*
X010657Y002117D01*
X010657Y002330D01*
X010550Y002437D01*
X010337Y002437D01*
X010230Y002330D01*
X010230Y002117D01*
X010874Y002010D02*
X010874Y002437D01*
X010981Y002437D01*
X011088Y002330D01*
X011195Y002437D01*
X011301Y002330D01*
X011301Y002010D01*
X011088Y002010D02*
X011088Y002330D01*
X010012Y002437D02*
X009692Y002437D01*
X009585Y002330D01*
X009585Y002117D01*
X007864Y002010D02*
X007544Y002224D01*
X007544Y002010D02*
X007544Y002651D01*
X005393Y002437D02*
X005073Y002437D01*
X004966Y002330D01*
X003355Y002437D02*
X003355Y002117D01*
X000680Y004030D02*
X000680Y004780D01*
X000719Y004782D01*
X000758Y004788D01*
X000796Y004797D01*
X000833Y004810D01*
X000869Y004827D01*
X000902Y004847D01*
X000934Y004871D01*
X000963Y004897D01*
X000989Y004926D01*
X001013Y004958D01*
X001033Y004991D01*
X001050Y005027D01*
X001063Y005064D01*
X001072Y005102D01*
X001078Y005141D01*
X001080Y005180D01*
X001078Y005219D01*
X001072Y005258D01*
X001063Y005296D01*
X001050Y005333D01*
X001033Y005369D01*
X001013Y005402D01*
X000989Y005434D01*
X000963Y005463D01*
X000934Y005489D01*
X000902Y005513D01*
X000869Y005533D01*
X000833Y005550D01*
X000796Y005563D01*
X000758Y005572D01*
X000719Y005578D01*
X000680Y005580D01*
X000680Y006330D01*
X007680Y006330D01*
X007680Y004030D01*
X000680Y004030D01*
X008680Y004030D02*
X008680Y006230D01*
X008719Y006232D01*
X008758Y006238D01*
X008796Y006247D01*
X008833Y006260D01*
X008869Y006277D01*
X008902Y006297D01*
X008934Y006321D01*
X008963Y006347D01*
X008989Y006376D01*
X009013Y006408D01*
X009033Y006441D01*
X009050Y006477D01*
X009063Y006514D01*
X009072Y006552D01*
X009078Y006591D01*
X009080Y006630D01*
X009078Y006669D01*
X009072Y006708D01*
X009063Y006746D01*
X009050Y006783D01*
X009033Y006819D01*
X009013Y006852D01*
X008989Y006884D01*
X008963Y006913D01*
X008934Y006939D01*
X008902Y006963D01*
X008869Y006983D01*
X008833Y007000D01*
X008796Y007013D01*
X008758Y007022D01*
X008719Y007028D01*
X008680Y007030D01*
X008680Y009330D01*
X028680Y009330D01*
X028680Y004030D01*
X008680Y004030D01*
X014610Y006410D02*
X014824Y006410D01*
X014717Y006410D02*
X014717Y007051D01*
X014610Y007051D02*
X014824Y007051D01*
X015040Y006944D02*
X015040Y006517D01*
X015146Y006410D01*
X015360Y006410D01*
X015467Y006517D01*
X015684Y006410D02*
X016111Y006410D01*
X015898Y006410D02*
X015898Y007051D01*
X015684Y006837D01*
X015467Y006944D02*
X015360Y007051D01*
X015146Y007051D01*
X015040Y006944D01*
X007180Y008830D02*
X007180Y010530D01*
X007178Y010547D01*
X007174Y010564D01*
X007167Y010580D01*
X007157Y010594D01*
X007144Y010607D01*
X007130Y010617D01*
X007114Y010624D01*
X007097Y010628D01*
X007080Y010630D01*
X006280Y010630D01*
X006263Y010628D01*
X006246Y010624D01*
X006230Y010617D01*
X006216Y010607D01*
X006203Y010594D01*
X006193Y010580D01*
X006186Y010564D01*
X006182Y010547D01*
X006180Y010530D01*
X006180Y008830D01*
X006182Y008813D01*
X006186Y008796D01*
X006193Y008780D01*
X006203Y008766D01*
X006216Y008753D01*
X006230Y008743D01*
X006246Y008736D01*
X006263Y008732D01*
X006280Y008730D01*
X007080Y008730D01*
X007097Y008732D01*
X007114Y008736D01*
X007130Y008743D01*
X007144Y008753D01*
X007157Y008766D01*
X007167Y008780D01*
X007174Y008796D01*
X007178Y008813D01*
X007180Y008830D01*
X005530Y008080D02*
X005530Y012280D01*
X005528Y012310D01*
X005523Y012340D01*
X005514Y012369D01*
X005501Y012396D01*
X005486Y012422D01*
X005467Y012446D01*
X005446Y012467D01*
X005422Y012486D01*
X005396Y012501D01*
X005369Y012514D01*
X005340Y012523D01*
X005310Y012528D01*
X005280Y012530D01*
X001080Y012530D01*
X001050Y012528D01*
X001020Y012523D01*
X000991Y012514D01*
X000964Y012501D01*
X000938Y012486D01*
X000914Y012467D01*
X000893Y012446D01*
X000874Y012422D01*
X000859Y012396D01*
X000846Y012369D01*
X000837Y012340D01*
X000832Y012310D01*
X000830Y012280D01*
X000830Y008080D01*
X000832Y008050D01*
X000837Y008020D01*
X000846Y007991D01*
X000859Y007964D01*
X000874Y007938D01*
X000893Y007914D01*
X000914Y007893D01*
X000938Y007874D01*
X000964Y007859D01*
X000991Y007846D01*
X001020Y007837D01*
X001050Y007832D01*
X001080Y007830D01*
X005280Y007830D01*
X005310Y007832D01*
X005340Y007837D01*
X005369Y007846D01*
X005396Y007859D01*
X005422Y007874D01*
X005446Y007893D01*
X005467Y007914D01*
X005486Y007938D01*
X005501Y007964D01*
X005514Y007991D01*
X005523Y008020D01*
X005528Y008050D01*
X005530Y008080D01*
X001680Y009180D02*
X001680Y009810D01*
X001680Y010550D02*
X001680Y011180D01*
X006180Y011280D02*
X006280Y011180D01*
X007080Y011180D01*
X007180Y011280D01*
X007280Y011180D01*
X008080Y011180D01*
X008180Y011280D01*
X008180Y012080D01*
X008080Y012180D01*
X007280Y012180D01*
X007180Y012080D01*
X007080Y012180D01*
X006280Y012180D01*
X006180Y012080D01*
X006180Y011280D01*
X009680Y012280D02*
X009727Y012278D01*
X009775Y012272D01*
X009821Y012263D01*
X009867Y012250D01*
X009911Y012234D01*
X009955Y012213D01*
X009996Y012190D01*
X010035Y012164D01*
X010072Y012134D01*
X010107Y012101D01*
X010139Y012066D01*
X010168Y012029D01*
X009680Y011080D02*
X009635Y011082D01*
X009589Y011087D01*
X009545Y011095D01*
X009501Y011107D01*
X009458Y011123D01*
X009416Y011141D01*
X009376Y011163D01*
X009338Y011187D01*
X009302Y011214D01*
X009267Y011244D01*
X009236Y011277D01*
X009206Y011312D01*
X009680Y011080D02*
X009725Y011082D01*
X009771Y011087D01*
X009815Y011095D01*
X009859Y011107D01*
X009902Y011123D01*
X009944Y011141D01*
X009984Y011163D01*
X010022Y011187D01*
X010058Y011214D01*
X010093Y011244D01*
X010124Y011277D01*
X010154Y011312D01*
X009680Y012280D02*
X009634Y012278D01*
X009588Y012273D01*
X009542Y012264D01*
X009497Y012252D01*
X009454Y012236D01*
X009412Y012217D01*
X009371Y012194D01*
X009332Y012169D01*
X009296Y012141D01*
X009261Y012110D01*
X009229Y012076D01*
X009200Y012040D01*
X012180Y012280D02*
X012227Y012278D01*
X012275Y012272D01*
X012321Y012263D01*
X012367Y012250D01*
X012411Y012234D01*
X012455Y012213D01*
X012496Y012190D01*
X012535Y012164D01*
X012572Y012134D01*
X012607Y012101D01*
X012639Y012066D01*
X012668Y012029D01*
X012180Y011080D02*
X012135Y011082D01*
X012089Y011087D01*
X012045Y011095D01*
X012001Y011107D01*
X011958Y011123D01*
X011916Y011141D01*
X011876Y011163D01*
X011838Y011187D01*
X011802Y011214D01*
X011767Y011244D01*
X011736Y011277D01*
X011706Y011312D01*
X012180Y011080D02*
X012225Y011082D01*
X012271Y011087D01*
X012315Y011095D01*
X012359Y011107D01*
X012402Y011123D01*
X012444Y011141D01*
X012484Y011163D01*
X012522Y011187D01*
X012558Y011214D01*
X012593Y011244D01*
X012624Y011277D01*
X012654Y011312D01*
X012180Y012280D02*
X012134Y012278D01*
X012088Y012273D01*
X012042Y012264D01*
X011997Y012252D01*
X011954Y012236D01*
X011912Y012217D01*
X011871Y012194D01*
X011832Y012169D01*
X011796Y012141D01*
X011761Y012110D01*
X011729Y012076D01*
X011700Y012040D01*
X014680Y012280D02*
X014727Y012278D01*
X014775Y012272D01*
X014821Y012263D01*
X014867Y012250D01*
X014911Y012234D01*
X014955Y012213D01*
X014996Y012190D01*
X015035Y012164D01*
X015072Y012134D01*
X015107Y012101D01*
X015139Y012066D01*
X015168Y012029D01*
X014680Y011080D02*
X014635Y011082D01*
X014589Y011087D01*
X014545Y011095D01*
X014501Y011107D01*
X014458Y011123D01*
X014416Y011141D01*
X014376Y011163D01*
X014338Y011187D01*
X014302Y011214D01*
X014267Y011244D01*
X014236Y011277D01*
X014206Y011312D01*
X014680Y011080D02*
X014725Y011082D01*
X014771Y011087D01*
X014815Y011095D01*
X014859Y011107D01*
X014902Y011123D01*
X014944Y011141D01*
X014984Y011163D01*
X015022Y011187D01*
X015058Y011214D01*
X015093Y011244D01*
X015124Y011277D01*
X015154Y011312D01*
X014680Y012280D02*
X014634Y012278D01*
X014588Y012273D01*
X014542Y012264D01*
X014497Y012252D01*
X014454Y012236D01*
X014412Y012217D01*
X014371Y012194D01*
X014332Y012169D01*
X014296Y012141D01*
X014261Y012110D01*
X014229Y012076D01*
X014200Y012040D01*
X017180Y012280D02*
X017227Y012278D01*
X017275Y012272D01*
X017321Y012263D01*
X017367Y012250D01*
X017411Y012234D01*
X017455Y012213D01*
X017496Y012190D01*
X017535Y012164D01*
X017572Y012134D01*
X017607Y012101D01*
X017639Y012066D01*
X017668Y012029D01*
X017180Y011080D02*
X017135Y011082D01*
X017089Y011087D01*
X017045Y011095D01*
X017001Y011107D01*
X016958Y011123D01*
X016916Y011141D01*
X016876Y011163D01*
X016838Y011187D01*
X016802Y011214D01*
X016767Y011244D01*
X016736Y011277D01*
X016706Y011312D01*
X017180Y011080D02*
X017225Y011082D01*
X017271Y011087D01*
X017315Y011095D01*
X017359Y011107D01*
X017402Y011123D01*
X017444Y011141D01*
X017484Y011163D01*
X017522Y011187D01*
X017558Y011214D01*
X017593Y011244D01*
X017624Y011277D01*
X017654Y011312D01*
X017180Y012280D02*
X017134Y012278D01*
X017088Y012273D01*
X017042Y012264D01*
X016997Y012252D01*
X016954Y012236D01*
X016912Y012217D01*
X016871Y012194D01*
X016832Y012169D01*
X016796Y012141D01*
X016761Y012110D01*
X016729Y012076D01*
X016700Y012040D01*
X019680Y012280D02*
X019727Y012278D01*
X019775Y012272D01*
X019821Y012263D01*
X019867Y012250D01*
X019911Y012234D01*
X019955Y012213D01*
X019996Y012190D01*
X020035Y012164D01*
X020072Y012134D01*
X020107Y012101D01*
X020139Y012066D01*
X020168Y012029D01*
X019680Y011080D02*
X019635Y011082D01*
X019589Y011087D01*
X019545Y011095D01*
X019501Y011107D01*
X019458Y011123D01*
X019416Y011141D01*
X019376Y011163D01*
X019338Y011187D01*
X019302Y011214D01*
X019267Y011244D01*
X019236Y011277D01*
X019206Y011312D01*
X019680Y011080D02*
X019725Y011082D01*
X019771Y011087D01*
X019815Y011095D01*
X019859Y011107D01*
X019902Y011123D01*
X019944Y011141D01*
X019984Y011163D01*
X020022Y011187D01*
X020058Y011214D01*
X020093Y011244D01*
X020124Y011277D01*
X020154Y011312D01*
X019680Y012280D02*
X019634Y012278D01*
X019588Y012273D01*
X019542Y012264D01*
X019497Y012252D01*
X019454Y012236D01*
X019412Y012217D01*
X019371Y012194D01*
X019332Y012169D01*
X019296Y012141D01*
X019261Y012110D01*
X019229Y012076D01*
X019200Y012040D01*
X022180Y012280D02*
X022227Y012278D01*
X022275Y012272D01*
X022321Y012263D01*
X022367Y012250D01*
X022411Y012234D01*
X022455Y012213D01*
X022496Y012190D01*
X022535Y012164D01*
X022572Y012134D01*
X022607Y012101D01*
X022639Y012066D01*
X022668Y012029D01*
X022180Y011080D02*
X022135Y011082D01*
X022089Y011087D01*
X022045Y011095D01*
X022001Y011107D01*
X021958Y011123D01*
X021916Y011141D01*
X021876Y011163D01*
X021838Y011187D01*
X021802Y011214D01*
X021767Y011244D01*
X021736Y011277D01*
X021706Y011312D01*
X022180Y011080D02*
X022225Y011082D01*
X022271Y011087D01*
X022315Y011095D01*
X022359Y011107D01*
X022402Y011123D01*
X022444Y011141D01*
X022484Y011163D01*
X022522Y011187D01*
X022558Y011214D01*
X022593Y011244D01*
X022624Y011277D01*
X022654Y011312D01*
X023680Y011480D02*
X023680Y011880D01*
X023682Y011906D01*
X023687Y011932D01*
X023695Y011957D01*
X023707Y011980D01*
X023721Y012002D01*
X023739Y012021D01*
X023758Y012039D01*
X023780Y012053D01*
X023803Y012065D01*
X023828Y012073D01*
X023854Y012078D01*
X023880Y012080D01*
X030480Y012080D01*
X030530Y012030D02*
X029830Y012030D01*
X029830Y011330D01*
X030530Y011330D01*
X030530Y012030D01*
X030480Y012080D02*
X030506Y012078D01*
X030532Y012073D01*
X030557Y012065D01*
X030580Y012053D01*
X030602Y012039D01*
X030621Y012021D01*
X030639Y012002D01*
X030653Y011980D01*
X030665Y011957D01*
X030673Y011932D01*
X030678Y011906D01*
X030680Y011880D01*
X030680Y011480D01*
X030678Y011454D01*
X030673Y011428D01*
X030665Y011403D01*
X030653Y011380D01*
X030639Y011358D01*
X030621Y011339D01*
X030602Y011321D01*
X030580Y011307D01*
X030557Y011295D01*
X030532Y011287D01*
X030506Y011282D01*
X030480Y011280D01*
X023880Y011280D01*
X023854Y011282D01*
X023828Y011287D01*
X023803Y011295D01*
X023780Y011307D01*
X023758Y011321D01*
X023739Y011339D01*
X023721Y011358D01*
X023707Y011380D01*
X023695Y011403D01*
X023687Y011428D01*
X023682Y011454D01*
X023680Y011480D01*
X022180Y012280D02*
X022134Y012278D01*
X022088Y012273D01*
X022042Y012264D01*
X021997Y012252D01*
X021954Y012236D01*
X021912Y012217D01*
X021871Y012194D01*
X021832Y012169D01*
X021796Y012141D01*
X021761Y012110D01*
X021729Y012076D01*
X021700Y012040D01*
X029480Y009180D02*
X029880Y009180D01*
X029906Y009178D01*
X029932Y009173D01*
X029957Y009165D01*
X029980Y009153D01*
X030002Y009139D01*
X030021Y009121D01*
X030039Y009102D01*
X030053Y009080D01*
X030065Y009057D01*
X030073Y009032D01*
X030078Y009006D01*
X030080Y008980D01*
X030080Y003380D01*
X030030Y003330D02*
X029330Y003330D01*
X029330Y004030D01*
X030030Y004030D01*
X030030Y003330D01*
X030080Y003380D02*
X030078Y003354D01*
X030073Y003328D01*
X030065Y003303D01*
X030053Y003280D01*
X030039Y003258D01*
X030021Y003239D01*
X030002Y003221D01*
X029980Y003207D01*
X029957Y003195D01*
X029932Y003187D01*
X029906Y003182D01*
X029880Y003180D01*
X029480Y003180D01*
X029454Y003182D01*
X029428Y003187D01*
X029403Y003195D01*
X029380Y003207D01*
X029358Y003221D01*
X029339Y003239D01*
X029321Y003258D01*
X029307Y003280D01*
X029295Y003303D01*
X029287Y003328D01*
X029282Y003354D01*
X029280Y003380D01*
X029280Y008980D01*
X029282Y009006D01*
X029287Y009032D01*
X029295Y009057D01*
X029307Y009080D01*
X029321Y009102D01*
X029339Y009121D01*
X029358Y009139D01*
X029380Y009153D01*
X029403Y009165D01*
X029428Y009173D01*
X029454Y009178D01*
X029480Y009180D01*
X033880Y007830D02*
X034480Y007830D01*
X034497Y007828D01*
X034514Y007824D01*
X034530Y007817D01*
X034544Y007807D01*
X034557Y007794D01*
X034567Y007780D01*
X034574Y007764D01*
X034578Y007747D01*
X034580Y007730D01*
X034580Y006630D01*
X034578Y006613D01*
X034574Y006596D01*
X034567Y006580D01*
X034557Y006566D01*
X034544Y006553D01*
X034530Y006543D01*
X034514Y006536D01*
X034497Y006532D01*
X034480Y006530D01*
X033880Y006530D01*
X033863Y006532D01*
X033846Y006536D01*
X033830Y006543D01*
X033816Y006553D01*
X033803Y006566D01*
X033793Y006580D01*
X033786Y006596D01*
X033782Y006613D01*
X033780Y006630D01*
X033780Y007730D01*
X033782Y007747D01*
X033786Y007764D01*
X033793Y007780D01*
X033803Y007794D01*
X033816Y007807D01*
X033830Y007817D01*
X033846Y007824D01*
X033863Y007828D01*
X033880Y007830D01*
X031480Y005180D02*
X030880Y005180D01*
X030863Y005178D01*
X030846Y005174D01*
X030830Y005167D01*
X030816Y005157D01*
X030803Y005144D01*
X030793Y005130D01*
X030786Y005114D01*
X030782Y005097D01*
X030780Y005080D01*
X030780Y004930D01*
X030830Y004880D01*
X030830Y003480D01*
X030780Y003430D01*
X030780Y003280D01*
X030782Y003263D01*
X030786Y003246D01*
X030793Y003230D01*
X030803Y003216D01*
X030816Y003203D01*
X030830Y003193D01*
X030846Y003186D01*
X030863Y003182D01*
X030880Y003180D01*
X031480Y003180D01*
X031497Y003182D01*
X031514Y003186D01*
X031530Y003193D01*
X031544Y003203D01*
X031557Y003216D01*
X031567Y003230D01*
X031574Y003246D01*
X031578Y003263D01*
X031580Y003280D01*
X031580Y003430D01*
X031530Y003480D01*
X031530Y004880D01*
X031580Y004930D01*
X031580Y005080D01*
X031578Y005097D01*
X031574Y005114D01*
X031567Y005130D01*
X031557Y005144D01*
X031544Y005157D01*
X031530Y005167D01*
X031514Y005174D01*
X031497Y005178D01*
X031480Y005180D01*
X034180Y003930D02*
X034430Y004180D01*
X034930Y004180D01*
X035180Y003930D01*
X035430Y004180D01*
X035930Y004180D01*
X036180Y003930D01*
X036430Y004180D01*
X036930Y004180D01*
X037180Y003930D01*
X037430Y004180D01*
X037930Y004180D01*
X038180Y003930D01*
X038430Y004180D01*
X038930Y004180D01*
X039180Y003930D01*
X039430Y004180D01*
X039930Y004180D01*
X040180Y003930D01*
X040180Y002430D01*
X039930Y002180D01*
X039430Y002180D01*
X039180Y002430D01*
X038930Y002180D01*
X038430Y002180D01*
X038180Y002430D01*
X037930Y002180D01*
X037430Y002180D01*
X037180Y002430D01*
X036930Y002180D01*
X036430Y002180D01*
X036180Y002430D01*
X035930Y002180D01*
X035430Y002180D01*
X035180Y002430D01*
X034930Y002180D01*
X034430Y002180D01*
X034180Y002430D01*
X034180Y003930D01*
X019130Y003080D02*
X019130Y002280D01*
X019128Y002263D01*
X019124Y002246D01*
X019117Y002230D01*
X019107Y002216D01*
X019094Y002203D01*
X019080Y002193D01*
X019064Y002186D01*
X019047Y002182D01*
X019030Y002180D01*
X017330Y002180D01*
X017313Y002182D01*
X017296Y002186D01*
X017280Y002193D01*
X017266Y002203D01*
X017253Y002216D01*
X017243Y002230D01*
X017236Y002246D01*
X017232Y002263D01*
X017230Y002280D01*
X017230Y003080D01*
X017232Y003097D01*
X017236Y003114D01*
X017243Y003130D01*
X017253Y003144D01*
X017266Y003157D01*
X017280Y003167D01*
X017296Y003174D01*
X017313Y003178D01*
X017330Y003180D01*
X019030Y003180D01*
X019047Y003178D01*
X019064Y003174D01*
X019080Y003167D01*
X019094Y003157D01*
X019107Y003144D01*
X019117Y003130D01*
X019124Y003114D01*
X019128Y003097D01*
X019130Y003080D01*
X018330Y002680D02*
X018280Y002680D01*
X018080Y002680D02*
X018030Y002680D01*
X006680Y009530D02*
X006680Y009580D01*
X006680Y009780D02*
X006680Y009830D01*
X031680Y011430D02*
X031930Y011180D01*
X032430Y011180D01*
X032680Y011430D01*
X032930Y011180D01*
X033430Y011180D01*
X033680Y011430D01*
X033930Y011180D01*
X034430Y011180D01*
X034680Y011430D01*
X034680Y011930D01*
X034430Y012180D01*
X033930Y012180D01*
X033680Y011930D01*
X033430Y012180D01*
X032930Y012180D01*
X032680Y011930D01*
X032430Y012180D01*
X031930Y012180D01*
X031680Y011930D01*
X031680Y011430D01*
D12*
X032190Y010910D02*
X032190Y010800D01*
X032263Y010837D01*
X032300Y010837D01*
X032337Y010800D01*
X032337Y010727D01*
X032300Y010690D01*
X032227Y010690D01*
X032190Y010727D01*
X032190Y010910D02*
X032337Y010910D01*
X032411Y010910D02*
X032411Y010763D01*
X032484Y010690D01*
X032558Y010763D01*
X032558Y010910D01*
X033190Y010910D02*
X033190Y010690D01*
X033190Y010763D02*
X033300Y010763D01*
X033337Y010800D01*
X033337Y010873D01*
X033300Y010910D01*
X033190Y010910D01*
X033263Y010763D02*
X033337Y010690D01*
X034190Y010727D02*
X034190Y010873D01*
X034227Y010910D01*
X034300Y010910D01*
X034337Y010873D01*
X034337Y010800D02*
X034263Y010800D01*
X034337Y010800D02*
X034337Y010727D01*
X034300Y010690D01*
X034227Y010690D01*
X034190Y010727D01*
X034227Y012690D02*
X034300Y012690D01*
X034337Y012727D01*
X034337Y012800D01*
X034263Y012800D01*
X034190Y012727D02*
X034227Y012690D01*
X034190Y012727D02*
X034190Y012873D01*
X034227Y012910D01*
X034300Y012910D01*
X034337Y012873D01*
X033337Y012873D02*
X033337Y012800D01*
X033300Y012763D01*
X033190Y012763D01*
X033190Y012690D02*
X033190Y012910D01*
X033300Y012910D01*
X033337Y012873D01*
X033263Y012763D02*
X033337Y012690D01*
X032558Y012763D02*
X032558Y012910D01*
X032558Y012763D02*
X032484Y012690D01*
X032411Y012763D01*
X032411Y012910D01*
X032337Y012910D02*
X032190Y012910D01*
X032190Y012800D01*
X032263Y012837D01*
X032300Y012837D01*
X032337Y012800D01*
X032337Y012727D01*
X032300Y012690D01*
X032227Y012690D01*
X032190Y012727D01*
X006779Y012690D02*
X006669Y012800D01*
X006632Y012763D02*
X006779Y012910D01*
X006632Y012910D02*
X006632Y012690D01*
X006558Y012690D02*
X006411Y012690D01*
X006411Y012910D01*
X006337Y012873D02*
X006300Y012910D01*
X006227Y012910D01*
X006190Y012873D01*
X006190Y012727D01*
X006227Y012690D01*
X006300Y012690D01*
X006337Y012727D01*
X031200Y003542D02*
X031420Y003542D01*
X031420Y003469D02*
X031420Y003616D01*
X031273Y003469D02*
X031200Y003542D01*
X031237Y003395D02*
X031310Y003395D01*
X031347Y003358D01*
X031347Y003248D01*
X031420Y003248D02*
X031200Y003248D01*
X031200Y003358D01*
X031237Y003395D01*
X031347Y003321D02*
X031420Y003395D01*
D13*
X029855Y003032D02*
X029855Y002805D01*
X029855Y002918D02*
X029515Y002918D01*
X029628Y002805D01*
X029155Y003205D02*
X028705Y003205D01*
X028705Y003430D01*
X028780Y003505D01*
X028930Y003505D01*
X029005Y003430D01*
X029005Y003205D01*
X029005Y003355D02*
X029155Y003505D01*
X029155Y003665D02*
X028705Y003665D01*
X029155Y003966D01*
X028705Y003966D01*
X028855Y004126D02*
X028705Y004276D01*
X029155Y004276D01*
X029155Y004126D02*
X029155Y004426D01*
X034655Y006549D02*
X034730Y006474D01*
X034805Y006474D01*
X034880Y006549D01*
X034880Y006699D01*
X034955Y006774D01*
X035030Y006774D01*
X035105Y006699D01*
X035105Y006549D01*
X035030Y006474D01*
X034655Y006549D02*
X034655Y006699D01*
X034730Y006774D01*
X035030Y006934D02*
X035105Y007009D01*
X035105Y007084D01*
X035030Y007159D01*
X034655Y007159D01*
X034655Y007084D02*
X034655Y007234D01*
X034805Y007395D02*
X034655Y007545D01*
X035105Y007545D01*
X035105Y007395D02*
X035105Y007695D01*
X035680Y010590D02*
X035680Y013190D01*
X036680Y013190D01*
X036680Y013280D01*
X038680Y013280D01*
X038680Y013190D01*
X039680Y013190D01*
X039680Y010590D01*
X035680Y010590D01*
X031505Y011455D02*
X031205Y011455D01*
X031355Y011455D02*
X031355Y011905D01*
X031205Y011755D01*
X030859Y011855D02*
X030859Y011515D01*
X030746Y011515D02*
X030973Y011515D01*
X030746Y011742D02*
X030859Y011855D01*
X030460Y011155D02*
X030310Y011155D01*
X030235Y011080D01*
X030074Y011155D02*
X030074Y010705D01*
X029774Y011155D01*
X029774Y010705D01*
X029614Y010705D02*
X029464Y010855D01*
X029539Y010855D02*
X029314Y010855D01*
X029314Y010705D02*
X029314Y011155D01*
X029539Y011155D01*
X029614Y011080D01*
X029614Y010930D01*
X029539Y010855D01*
X030235Y010705D02*
X030535Y011005D01*
X030535Y011080D01*
X030460Y011155D01*
X030535Y010705D02*
X030235Y010705D01*
X036680Y013190D02*
X038680Y013190D01*
X039355Y004805D02*
X039355Y004355D01*
X039205Y004355D02*
X039505Y004355D01*
X039665Y004355D02*
X039966Y004655D01*
X039966Y004730D01*
X039891Y004805D01*
X039740Y004805D01*
X039665Y004730D01*
X039355Y004805D02*
X039205Y004655D01*
X039665Y004355D02*
X039966Y004355D01*
X034655Y002005D02*
X034655Y001555D01*
X034505Y001555D02*
X034805Y001555D01*
X034505Y001855D02*
X034655Y002005D01*
X007073Y004855D02*
X006772Y004855D01*
X007073Y005155D01*
X007073Y005230D01*
X006998Y005305D01*
X006847Y005305D01*
X006772Y005230D01*
X006612Y005230D02*
X006537Y005305D01*
X006387Y005305D01*
X006312Y005230D01*
X006312Y004930D01*
X006387Y004855D01*
X006537Y004855D01*
X006612Y004930D01*
X006155Y004855D02*
X006005Y004855D01*
X006080Y004855D02*
X006080Y005305D01*
X006005Y005305D02*
X006155Y005305D01*
X005405Y009105D02*
X005405Y009405D01*
X005405Y009255D02*
X004955Y009255D01*
X005105Y009105D01*
X003965Y009780D02*
X003890Y009705D01*
X003590Y009705D01*
X003515Y009780D01*
X003515Y009930D01*
X003590Y010005D01*
X003890Y010005D01*
X003965Y009930D01*
X003965Y009780D01*
X003815Y009855D02*
X003965Y010005D01*
X003890Y010165D02*
X003590Y010165D01*
X003515Y010240D01*
X003515Y010391D01*
X003590Y010466D01*
X003740Y010466D02*
X003740Y010316D01*
X003890Y010466D02*
X003965Y010391D01*
X003965Y010240D01*
X003890Y010165D01*
X003890Y010466D02*
X003740Y010466D01*
X003665Y010626D02*
X003515Y010776D01*
X003965Y010776D01*
X003965Y010626D02*
X003965Y010926D01*
D14*
X031180Y005255D03*
X031180Y003105D03*
D15*
X018280Y002980D02*
X018280Y002680D01*
X018280Y002380D01*
X018080Y002380D02*
X018080Y002680D01*
X018080Y002980D01*
X005780Y007580D02*
X001080Y007580D01*
X001036Y007582D01*
X000993Y007588D01*
X000951Y007597D01*
X000909Y007610D01*
X000869Y007627D01*
X000830Y007647D01*
X000793Y007670D01*
X000759Y007697D01*
X000726Y007726D01*
X000697Y007759D01*
X000670Y007793D01*
X000647Y007830D01*
X000627Y007869D01*
X000610Y007909D01*
X000597Y007951D01*
X000588Y007993D01*
X000582Y008036D01*
X000580Y008080D01*
X000580Y012280D01*
X000582Y012324D01*
X000588Y012367D01*
X000597Y012409D01*
X000610Y012451D01*
X000627Y012491D01*
X000647Y012530D01*
X000670Y012567D01*
X000697Y012601D01*
X000726Y012634D01*
X000759Y012663D01*
X000793Y012690D01*
X000830Y012713D01*
X000869Y012733D01*
X000909Y012750D01*
X000951Y012763D01*
X000993Y012772D01*
X001036Y012778D01*
X001080Y012780D01*
X005280Y012780D01*
X005324Y012778D01*
X005367Y012772D01*
X005409Y012763D01*
X005451Y012750D01*
X005491Y012733D01*
X005530Y012713D01*
X005567Y012690D01*
X005601Y012663D01*
X005634Y012634D01*
X005663Y012601D01*
X005690Y012567D01*
X005713Y012530D01*
X005733Y012491D01*
X005750Y012451D01*
X005763Y012409D01*
X005772Y012367D01*
X005778Y012324D01*
X005780Y012280D01*
X005780Y007580D01*
X006380Y009580D02*
X006680Y009580D01*
X006980Y009580D01*
X006980Y009780D02*
X006680Y009780D01*
X006380Y009780D01*
X008985Y011283D02*
X009015Y011235D01*
X009048Y011190D01*
X009084Y011147D01*
X009122Y011106D01*
X009164Y011069D01*
X009208Y011034D01*
X009254Y011003D01*
X009303Y010974D01*
X009353Y010950D01*
X009405Y010929D01*
X009459Y010911D01*
X009513Y010898D01*
X009568Y010888D01*
X009624Y010882D01*
X009680Y010880D01*
X008974Y012056D02*
X009001Y012103D01*
X009031Y012148D01*
X009064Y012191D01*
X009100Y012231D01*
X009139Y012269D01*
X009180Y012304D01*
X009223Y012337D01*
X009268Y012366D01*
X009316Y012392D01*
X009365Y012415D01*
X009415Y012435D01*
X009466Y012451D01*
X009519Y012464D01*
X009572Y012473D01*
X009626Y012478D01*
X009680Y012480D01*
X010291Y011163D02*
X010255Y011124D01*
X010216Y011086D01*
X010176Y011052D01*
X010133Y011020D01*
X010088Y010992D01*
X010041Y010966D01*
X009992Y010943D01*
X009942Y010924D01*
X009891Y010908D01*
X009839Y010896D01*
X009787Y010887D01*
X009733Y010882D01*
X009680Y010880D01*
X010295Y012192D02*
X010259Y012232D01*
X010220Y012270D01*
X010179Y012305D01*
X010136Y012337D01*
X010091Y012367D01*
X010044Y012393D01*
X009995Y012415D01*
X009944Y012435D01*
X009893Y012451D01*
X009841Y012464D01*
X009787Y012473D01*
X009734Y012478D01*
X009680Y012480D01*
X011485Y011283D02*
X011515Y011235D01*
X011548Y011190D01*
X011584Y011147D01*
X011622Y011106D01*
X011664Y011069D01*
X011708Y011034D01*
X011754Y011003D01*
X011803Y010974D01*
X011853Y010950D01*
X011905Y010929D01*
X011959Y010911D01*
X012013Y010898D01*
X012068Y010888D01*
X012124Y010882D01*
X012180Y010880D01*
X011474Y012056D02*
X011501Y012103D01*
X011531Y012148D01*
X011564Y012191D01*
X011600Y012231D01*
X011639Y012269D01*
X011680Y012304D01*
X011723Y012337D01*
X011768Y012366D01*
X011816Y012392D01*
X011865Y012415D01*
X011915Y012435D01*
X011966Y012451D01*
X012019Y012464D01*
X012072Y012473D01*
X012126Y012478D01*
X012180Y012480D01*
X012791Y011163D02*
X012755Y011124D01*
X012716Y011086D01*
X012676Y011052D01*
X012633Y011020D01*
X012588Y010992D01*
X012541Y010966D01*
X012492Y010943D01*
X012442Y010924D01*
X012391Y010908D01*
X012339Y010896D01*
X012287Y010887D01*
X012233Y010882D01*
X012180Y010880D01*
X012795Y012192D02*
X012759Y012232D01*
X012720Y012270D01*
X012679Y012305D01*
X012636Y012337D01*
X012591Y012367D01*
X012544Y012393D01*
X012495Y012415D01*
X012444Y012435D01*
X012393Y012451D01*
X012341Y012464D01*
X012287Y012473D01*
X012234Y012478D01*
X012180Y012480D01*
X013985Y011283D02*
X014015Y011235D01*
X014048Y011190D01*
X014084Y011147D01*
X014122Y011106D01*
X014164Y011069D01*
X014208Y011034D01*
X014254Y011003D01*
X014303Y010974D01*
X014353Y010950D01*
X014405Y010929D01*
X014459Y010911D01*
X014513Y010898D01*
X014568Y010888D01*
X014624Y010882D01*
X014680Y010880D01*
X013974Y012056D02*
X014001Y012103D01*
X014031Y012148D01*
X014064Y012191D01*
X014100Y012231D01*
X014139Y012269D01*
X014180Y012304D01*
X014223Y012337D01*
X014268Y012366D01*
X014316Y012392D01*
X014365Y012415D01*
X014415Y012435D01*
X014466Y012451D01*
X014519Y012464D01*
X014572Y012473D01*
X014626Y012478D01*
X014680Y012480D01*
X015291Y011163D02*
X015255Y011124D01*
X015216Y011086D01*
X015176Y011052D01*
X015133Y011020D01*
X015088Y010992D01*
X015041Y010966D01*
X014992Y010943D01*
X014942Y010924D01*
X014891Y010908D01*
X014839Y010896D01*
X014787Y010887D01*
X014733Y010882D01*
X014680Y010880D01*
X015295Y012192D02*
X015259Y012232D01*
X015220Y012270D01*
X015179Y012305D01*
X015136Y012337D01*
X015091Y012367D01*
X015044Y012393D01*
X014995Y012415D01*
X014944Y012435D01*
X014893Y012451D01*
X014841Y012464D01*
X014787Y012473D01*
X014734Y012478D01*
X014680Y012480D01*
X016485Y011283D02*
X016515Y011235D01*
X016548Y011190D01*
X016584Y011147D01*
X016622Y011106D01*
X016664Y011069D01*
X016708Y011034D01*
X016754Y011003D01*
X016803Y010974D01*
X016853Y010950D01*
X016905Y010929D01*
X016959Y010911D01*
X017013Y010898D01*
X017068Y010888D01*
X017124Y010882D01*
X017180Y010880D01*
X016474Y012056D02*
X016501Y012103D01*
X016531Y012148D01*
X016564Y012191D01*
X016600Y012231D01*
X016639Y012269D01*
X016680Y012304D01*
X016723Y012337D01*
X016768Y012366D01*
X016816Y012392D01*
X016865Y012415D01*
X016915Y012435D01*
X016966Y012451D01*
X017019Y012464D01*
X017072Y012473D01*
X017126Y012478D01*
X017180Y012480D01*
X017791Y011163D02*
X017755Y011124D01*
X017716Y011086D01*
X017676Y011052D01*
X017633Y011020D01*
X017588Y010992D01*
X017541Y010966D01*
X017492Y010943D01*
X017442Y010924D01*
X017391Y010908D01*
X017339Y010896D01*
X017287Y010887D01*
X017233Y010882D01*
X017180Y010880D01*
X017795Y012192D02*
X017759Y012232D01*
X017720Y012270D01*
X017679Y012305D01*
X017636Y012337D01*
X017591Y012367D01*
X017544Y012393D01*
X017495Y012415D01*
X017444Y012435D01*
X017393Y012451D01*
X017341Y012464D01*
X017287Y012473D01*
X017234Y012478D01*
X017180Y012480D01*
X018985Y011283D02*
X019015Y011235D01*
X019048Y011190D01*
X019084Y011147D01*
X019122Y011106D01*
X019164Y011069D01*
X019208Y011034D01*
X019254Y011003D01*
X019303Y010974D01*
X019353Y010950D01*
X019405Y010929D01*
X019459Y010911D01*
X019513Y010898D01*
X019568Y010888D01*
X019624Y010882D01*
X019680Y010880D01*
X018974Y012056D02*
X019001Y012103D01*
X019031Y012148D01*
X019064Y012191D01*
X019100Y012231D01*
X019139Y012269D01*
X019180Y012304D01*
X019223Y012337D01*
X019268Y012366D01*
X019316Y012392D01*
X019365Y012415D01*
X019415Y012435D01*
X019466Y012451D01*
X019519Y012464D01*
X019572Y012473D01*
X019626Y012478D01*
X019680Y012480D01*
X020291Y011163D02*
X020255Y011124D01*
X020216Y011086D01*
X020176Y011052D01*
X020133Y011020D01*
X020088Y010992D01*
X020041Y010966D01*
X019992Y010943D01*
X019942Y010924D01*
X019891Y010908D01*
X019839Y010896D01*
X019787Y010887D01*
X019733Y010882D01*
X019680Y010880D01*
X020295Y012192D02*
X020259Y012232D01*
X020220Y012270D01*
X020179Y012305D01*
X020136Y012337D01*
X020091Y012367D01*
X020044Y012393D01*
X019995Y012415D01*
X019944Y012435D01*
X019893Y012451D01*
X019841Y012464D01*
X019787Y012473D01*
X019734Y012478D01*
X019680Y012480D01*
X021485Y011283D02*
X021515Y011235D01*
X021548Y011190D01*
X021584Y011147D01*
X021622Y011106D01*
X021664Y011069D01*
X021708Y011034D01*
X021754Y011003D01*
X021803Y010974D01*
X021853Y010950D01*
X021905Y010929D01*
X021959Y010911D01*
X022013Y010898D01*
X022068Y010888D01*
X022124Y010882D01*
X022180Y010880D01*
X021474Y012056D02*
X021501Y012103D01*
X021531Y012148D01*
X021564Y012191D01*
X021600Y012231D01*
X021639Y012269D01*
X021680Y012304D01*
X021723Y012337D01*
X021768Y012366D01*
X021816Y012392D01*
X021865Y012415D01*
X021915Y012435D01*
X021966Y012451D01*
X022019Y012464D01*
X022072Y012473D01*
X022126Y012478D01*
X022180Y012480D01*
X022791Y011163D02*
X022755Y011124D01*
X022716Y011086D01*
X022676Y011052D01*
X022633Y011020D01*
X022588Y010992D01*
X022541Y010966D01*
X022492Y010943D01*
X022442Y010924D01*
X022391Y010908D01*
X022339Y010896D01*
X022287Y010887D01*
X022233Y010882D01*
X022180Y010880D01*
X022795Y012192D02*
X022759Y012232D01*
X022720Y012270D01*
X022679Y012305D01*
X022636Y012337D01*
X022591Y012367D01*
X022544Y012393D01*
X022495Y012415D01*
X022444Y012435D01*
X022393Y012451D01*
X022341Y012464D01*
X022287Y012473D01*
X022234Y012478D01*
X022180Y012480D01*
D16*
X002180Y010550D02*
X001680Y010550D01*
X001180Y010550D01*
X001180Y010300D02*
X001180Y010050D01*
X002180Y010050D01*
X002180Y010300D01*
X001180Y010300D01*
X001180Y009810D02*
X001680Y009810D01*
X002180Y009810D01*
D17*
X031950Y008410D02*
X031950Y008027D01*
X032027Y007950D01*
X032180Y007950D01*
X032257Y008027D01*
X032257Y008410D01*
X032410Y008334D02*
X032410Y008257D01*
X032487Y008180D01*
X032641Y008180D01*
X032717Y008103D01*
X032717Y008027D01*
X032641Y007950D01*
X032487Y007950D01*
X032410Y008027D01*
X032564Y007873D02*
X032564Y008487D01*
X032641Y008410D02*
X032717Y008334D01*
X032641Y008410D02*
X032487Y008410D01*
X032410Y008334D01*
X032871Y008180D02*
X033178Y008180D01*
X033101Y007950D02*
X033101Y008410D01*
X032871Y008180D01*
M02*
