G75*
%MOIN*%
%OFA0B0*%
%FSLAX24Y24*%
%IPPOS*%
%LPD*%
%AMOC8*
5,1,8,0,0,1.08239X$1,22.5*
%
%ADD10C,0.0520*%
%ADD11OC8,0.0600*%
%ADD12C,0.0600*%
%ADD13OC8,0.0520*%
%ADD14C,0.0520*%
%ADD15R,0.0394X0.0567*%
%ADD16R,0.0472X0.0567*%
%ADD17R,0.0630X0.0460*%
%ADD18R,0.0600X0.0600*%
%ADD19R,0.0825X0.0825*%
%ADD20C,0.0560*%
%ADD21C,0.0100*%
%ADD22C,0.0400*%
%ADD23C,0.0200*%
D10*
X001180Y003420D02*
X001180Y003940D01*
X002180Y003940D02*
X002180Y003420D01*
X003180Y003420D02*
X003180Y003940D01*
X004180Y003940D02*
X004180Y003420D01*
X005180Y003420D02*
X005180Y003940D01*
X006180Y003940D02*
X006180Y003420D01*
X007180Y003420D02*
X007180Y003940D01*
X009180Y003940D02*
X009180Y003420D01*
X010180Y003420D02*
X010180Y003940D01*
X011180Y003940D02*
X011180Y003420D01*
X012180Y003420D02*
X012180Y003940D01*
X013180Y003940D02*
X013180Y003420D01*
X014180Y003420D02*
X014180Y003940D01*
X015180Y003940D02*
X015180Y003420D01*
X016180Y003420D02*
X016180Y003940D01*
X017180Y003940D02*
X017180Y003420D01*
X018180Y003420D02*
X018180Y003940D01*
X019180Y003940D02*
X019180Y003420D01*
X020180Y003420D02*
X020180Y003940D01*
X021180Y003940D02*
X021180Y003420D01*
X022180Y003420D02*
X022180Y003940D01*
X023180Y003940D02*
X023180Y003420D01*
X024180Y003420D02*
X024180Y003940D01*
X025180Y003940D02*
X025180Y003420D01*
X026180Y003420D02*
X026180Y003940D01*
X027180Y003940D02*
X027180Y003420D01*
X028180Y003420D02*
X028180Y003940D01*
X029420Y003680D02*
X029940Y003680D01*
X029940Y004680D02*
X029420Y004680D01*
X029420Y005680D02*
X029940Y005680D01*
X029940Y006680D02*
X029420Y006680D01*
X029420Y007680D02*
X029940Y007680D01*
X029940Y008680D02*
X029420Y008680D01*
X028180Y009420D02*
X028180Y009940D01*
X027180Y009940D02*
X027180Y009420D01*
X026180Y009420D02*
X026180Y009940D01*
X025180Y009940D02*
X025180Y009420D01*
X024180Y009420D02*
X024180Y009940D01*
X023180Y009940D02*
X023180Y009420D01*
X022180Y009420D02*
X022180Y009940D01*
X021180Y009940D02*
X021180Y009420D01*
X020180Y009420D02*
X020180Y009940D01*
X019180Y009940D02*
X019180Y009420D01*
X018180Y009420D02*
X018180Y009940D01*
X017180Y009940D02*
X017180Y009420D01*
X016180Y009420D02*
X016180Y009940D01*
X015180Y009940D02*
X015180Y009420D01*
X014180Y009420D02*
X014180Y009940D01*
X013180Y009940D02*
X013180Y009420D01*
X012180Y009420D02*
X012180Y009940D01*
X011180Y009940D02*
X011180Y009420D01*
X010180Y009420D02*
X010180Y009940D01*
X009180Y009940D02*
X009180Y009420D01*
X007180Y006940D02*
X007180Y006420D01*
X006180Y006420D02*
X006180Y006940D01*
X005180Y006940D02*
X005180Y006420D01*
X004180Y006420D02*
X004180Y006940D01*
X003180Y006940D02*
X003180Y006420D01*
X002180Y006420D02*
X002180Y006940D01*
X001180Y006940D02*
X001180Y006420D01*
X024180Y011420D02*
X024180Y011940D01*
X025180Y011940D02*
X025180Y011420D01*
X026180Y011420D02*
X026180Y011940D01*
X027180Y011940D02*
X027180Y011420D01*
X028180Y011420D02*
X028180Y011940D01*
X029180Y011940D02*
X029180Y011420D01*
X030180Y011420D02*
X030180Y011940D01*
D11*
X034680Y003680D03*
X035680Y003680D03*
X036680Y003680D03*
X037680Y003680D03*
X038680Y003680D03*
X039680Y003680D03*
X039680Y002680D03*
X038680Y002680D03*
X037680Y002680D03*
X036680Y002680D03*
X035680Y002680D03*
X034680Y002680D03*
D12*
X034680Y001480D02*
X034680Y000880D01*
X033680Y000880D02*
X033680Y001480D01*
X032680Y001480D02*
X032680Y000880D01*
X031680Y000880D02*
X031680Y001480D01*
X030680Y001480D02*
X030680Y000880D01*
X029680Y000880D02*
X029680Y001480D01*
X028680Y001480D02*
X028680Y000880D01*
X027680Y000880D02*
X027680Y001480D01*
X026680Y001480D02*
X026680Y000880D01*
X025680Y000880D02*
X025680Y001480D01*
X024680Y001480D02*
X024680Y000880D01*
X023680Y000880D02*
X023680Y001480D01*
X022680Y001480D02*
X022680Y000880D01*
X021680Y000880D02*
X021680Y001480D01*
X020680Y001480D02*
X020680Y000880D01*
X019680Y000880D02*
X019680Y001480D01*
X018680Y001480D02*
X018680Y000880D01*
X017680Y000880D02*
X017680Y001480D01*
X016680Y001480D02*
X016680Y000880D01*
X015680Y000880D02*
X015680Y001480D01*
X014680Y001480D02*
X014680Y000880D01*
X013680Y000880D02*
X013680Y001480D01*
X012680Y001480D02*
X012680Y000880D01*
X011680Y000880D02*
X011680Y001480D01*
X010680Y001480D02*
X010680Y000880D01*
X009680Y000880D02*
X009680Y001480D01*
X008680Y001480D02*
X008680Y000880D01*
X007680Y000880D02*
X007680Y001480D01*
X006680Y001480D02*
X006680Y000880D01*
X005680Y000880D02*
X005680Y001480D01*
X004680Y001480D02*
X004680Y000880D01*
X003680Y000880D02*
X003680Y001480D01*
X002680Y001480D02*
X002680Y000880D01*
X001680Y000880D02*
X001680Y001480D01*
X000680Y001480D02*
X000680Y000880D01*
X032180Y011380D02*
X032180Y011980D01*
X033180Y011980D02*
X033180Y011380D01*
X034180Y011380D02*
X034180Y011980D01*
X035680Y001480D02*
X035680Y000880D01*
X036680Y000880D02*
X036680Y001480D01*
X037680Y001480D02*
X037680Y000880D01*
X038680Y000880D02*
X038680Y001480D01*
X039680Y001480D02*
X039680Y000880D01*
D13*
X031180Y002680D03*
X031180Y005680D03*
X018680Y002680D03*
X017680Y002680D03*
X006680Y009180D03*
X006680Y010180D03*
X009180Y011680D03*
X010180Y011680D03*
X011680Y011680D03*
X012680Y011680D03*
X014180Y011680D03*
X015180Y011680D03*
X016680Y011680D03*
X017680Y011680D03*
X019180Y011680D03*
X020180Y011680D03*
X021680Y011680D03*
X022680Y011680D03*
D14*
X004680Y011680D03*
X001680Y011680D03*
X001680Y008680D03*
X004680Y008680D03*
D15*
X032306Y007613D03*
X033054Y007613D03*
X033054Y006747D03*
D16*
X032385Y006747D03*
D17*
X034180Y006880D03*
X034180Y007480D03*
D18*
X036795Y012170D03*
X038565Y012170D03*
D19*
X039060Y011190D03*
X036300Y011190D03*
D20*
X007680Y011400D02*
X007680Y011960D01*
X006680Y011960D02*
X006680Y011400D01*
D21*
X002180Y000430D02*
X023930Y000430D01*
X024680Y001180D01*
X025680Y001180D02*
X026430Y001930D01*
X028180Y001930D01*
X026180Y002680D02*
X030555Y002680D01*
X031055Y003180D01*
X031305Y003180D01*
X030680Y003805D01*
X031305Y003180D02*
X035180Y003180D01*
X035680Y003680D01*
X036680Y003680D02*
X037180Y003180D01*
X037930Y003180D01*
X038180Y003430D01*
X038180Y004930D01*
X030430Y004930D01*
X029680Y005680D01*
X030430Y005805D02*
X030430Y007555D01*
X029805Y007555D01*
X029680Y007680D01*
X026180Y007680D01*
X026055Y007805D01*
X025680Y007430D02*
X027930Y007430D01*
X028055Y007305D01*
X027180Y007055D02*
X024180Y007055D01*
X025055Y006180D02*
X023180Y006180D01*
X022930Y005930D01*
X016805Y005930D01*
X016430Y005555D01*
X016180Y006305D02*
X015430Y005555D01*
X016180Y006305D02*
X019055Y006305D01*
X020430Y006305D02*
X020555Y006430D01*
X027055Y006430D01*
X028555Y004930D01*
X027430Y004430D02*
X028180Y003680D01*
X028930Y003555D02*
X028930Y004180D01*
X037180Y004180D01*
X037680Y003680D01*
X038680Y003680D02*
X038680Y005180D01*
X031055Y005180D01*
X030430Y005805D01*
X031180Y005680D02*
X033055Y005680D01*
X033055Y006680D01*
X033054Y006747D01*
X033055Y006805D01*
X034180Y006805D01*
X034180Y006880D01*
X034180Y007480D02*
X034180Y007555D01*
X034180Y010930D01*
X034430Y010930D01*
X035305Y011805D01*
X036430Y011805D01*
X036795Y012170D01*
X034180Y010930D02*
X033930Y010930D01*
X033180Y011680D01*
X030930Y010305D02*
X030805Y010430D01*
X023930Y010430D01*
X023180Y009680D01*
X022180Y009680D02*
X021430Y010430D01*
X020680Y010430D01*
X020680Y009305D01*
X020305Y008930D01*
X018305Y008930D01*
X016555Y007180D01*
X010430Y007180D01*
X009930Y007680D01*
X004430Y007680D01*
X004305Y007805D01*
X002930Y007430D02*
X007555Y007430D01*
X008305Y006680D01*
X028930Y006680D01*
X029680Y006680D01*
X028930Y006680D02*
X028930Y004180D01*
X027430Y004430D02*
X005930Y004430D01*
X005180Y003680D01*
X003180Y003680D02*
X003180Y002055D01*
X002555Y002055D01*
X002180Y001680D01*
X002180Y000430D01*
X001680Y001180D02*
X000930Y001930D01*
X000680Y001930D01*
X000680Y004055D01*
X002430Y005805D01*
X011930Y005805D01*
X012180Y005555D01*
X012055Y005180D02*
X011680Y005555D01*
X003055Y005555D01*
X001180Y003680D01*
X004805Y002305D02*
X008805Y002305D01*
X010180Y003680D01*
X009180Y003680D02*
X008430Y002930D01*
X005805Y002930D01*
X003430Y001930D02*
X002680Y001180D01*
X003430Y001930D02*
X009430Y001930D01*
X011180Y003680D01*
X011805Y002180D02*
X012680Y003055D01*
X013680Y003055D02*
X012555Y001930D01*
X011430Y001930D01*
X010680Y001180D01*
X009680Y001180D02*
X010680Y002180D01*
X011805Y002180D01*
X014180Y003680D02*
X015930Y001930D01*
X019930Y001930D01*
X020680Y001180D01*
X018180Y002180D02*
X024680Y002180D01*
X025180Y001680D01*
X025180Y000430D01*
X032930Y000430D01*
X033680Y001180D01*
X034680Y001180D02*
X034680Y002680D01*
X035680Y002680D02*
X035680Y001180D01*
X036680Y001180D02*
X036680Y002680D01*
X037680Y002680D02*
X037680Y001180D01*
X038680Y001180D02*
X038680Y002680D01*
X039680Y002680D02*
X039680Y001180D01*
X028930Y003555D02*
X028305Y002930D01*
X026930Y002930D01*
X026180Y003680D01*
X026180Y002680D02*
X025180Y003680D01*
X026055Y004805D02*
X022930Y004805D01*
X023430Y005430D02*
X026930Y005430D01*
X026555Y005180D02*
X021055Y005180D01*
X019055Y005180D01*
X018805Y004930D01*
X011930Y004930D01*
X011680Y005180D01*
X006180Y005180D01*
X007555Y006305D02*
X011055Y006305D01*
X010555Y007430D02*
X013930Y007430D01*
X014055Y007555D01*
X013305Y007805D02*
X012805Y007805D01*
X013305Y007805D02*
X015180Y009680D01*
X013430Y010930D02*
X027430Y010930D01*
X028180Y011680D01*
X028305Y012555D02*
X029180Y011680D01*
X028305Y012555D02*
X011055Y012555D01*
X010180Y011680D01*
X009180Y011680D02*
X008430Y012430D01*
X006430Y012430D01*
X006055Y012055D01*
X005930Y011680D02*
X005430Y012180D01*
X002180Y012180D01*
X001680Y011680D01*
X005930Y011680D02*
X006680Y011680D01*
X006305Y010930D02*
X010930Y010930D01*
X011680Y011680D01*
X012180Y011555D02*
X012180Y012180D01*
X013680Y012180D01*
X014180Y011680D01*
X015180Y011680D02*
X015680Y011180D01*
X023055Y011180D01*
X023180Y011305D01*
X022680Y011680D02*
X024180Y011680D01*
X023555Y012180D02*
X018180Y012180D01*
X017680Y011680D01*
X013430Y010930D02*
X012680Y011680D01*
X012180Y011555D02*
X011305Y010680D01*
X008805Y010680D01*
X006180Y008055D01*
X002930Y007430D02*
X002180Y006680D01*
X007180Y006680D02*
X007555Y006305D01*
X010555Y007430D02*
X008430Y009555D01*
X017305Y007430D02*
X018055Y008180D01*
X030180Y008180D01*
X032305Y006055D01*
X032680Y006055D01*
X033055Y007555D02*
X033054Y007613D01*
X033055Y007555D02*
X034180Y007555D01*
X029680Y008680D02*
X029555Y008555D01*
X024805Y008555D01*
X025055Y008930D02*
X027555Y008930D01*
X027680Y009055D01*
X028680Y009055D02*
X028805Y009180D01*
X032680Y009180D01*
X033055Y009555D02*
X028930Y009555D01*
X028805Y009680D01*
X029180Y010055D02*
X029305Y009930D01*
X033430Y009930D01*
X025055Y008930D02*
X024930Y009055D01*
X024555Y009055D01*
X024430Y008930D01*
X021930Y008930D01*
X021180Y009680D01*
X021805Y007430D02*
X018680Y007430D01*
X018305Y007055D01*
X019055Y005555D02*
X022805Y005555D01*
X023305Y005555D02*
X023430Y005430D01*
X025055Y006180D02*
X025180Y006055D01*
X026555Y005180D02*
X026930Y004805D01*
X021180Y003680D02*
X020430Y002930D01*
X019055Y002930D01*
X018805Y003180D01*
X018555Y003180D01*
X018180Y002805D01*
X018180Y002180D01*
X018680Y005180D02*
X012055Y005180D01*
X018680Y005180D02*
X019055Y005555D01*
D22*
X021055Y005180D03*
X022805Y005555D03*
X023305Y005555D03*
X025180Y006055D03*
X026930Y005430D03*
X028555Y004930D03*
X026930Y004805D03*
X026055Y004805D03*
X022930Y004805D03*
X019180Y004805D03*
X016430Y005555D03*
X015430Y005555D03*
X012180Y005555D03*
X011055Y006305D03*
X008430Y007055D03*
X006180Y008055D03*
X004305Y007805D03*
X008430Y009555D03*
X006305Y010930D03*
X006055Y012055D03*
X012805Y007805D03*
X014055Y007555D03*
X017305Y007430D03*
X017680Y007055D03*
X018305Y007055D03*
X019055Y006305D03*
X020430Y006305D03*
X021805Y007430D03*
X024180Y007055D03*
X025680Y007430D03*
X026055Y007805D03*
X024805Y008555D03*
X027680Y009055D03*
X028680Y009055D03*
X030555Y008555D03*
X032680Y009180D03*
X033055Y009555D03*
X033430Y009930D03*
X030930Y010305D03*
X029180Y010055D03*
X028805Y009680D03*
X023180Y011305D03*
X023555Y012180D03*
X019055Y007805D03*
X027180Y007055D03*
X028055Y007305D03*
X032680Y006055D03*
X030680Y003805D03*
X028180Y001930D03*
X013680Y003055D03*
X012680Y003055D03*
X006680Y004805D03*
X006180Y005180D03*
X005805Y002930D03*
X004805Y002305D03*
D23*
X006805Y004680D02*
X019055Y004680D01*
X019180Y004805D01*
X018680Y002680D02*
X018930Y002430D01*
X030930Y002430D01*
X031180Y002680D01*
X032385Y006747D02*
X032305Y006805D01*
X030555Y008555D01*
X032430Y008680D02*
X032805Y008680D01*
X033930Y009805D01*
X033930Y010680D01*
X033055Y010680D01*
X032180Y011555D01*
X032180Y011680D01*
X031055Y012555D02*
X030180Y011680D01*
X029180Y010680D01*
X020180Y010680D01*
X020180Y009680D01*
X019055Y007805D02*
X018430Y007805D01*
X017680Y007055D01*
X017555Y006930D01*
X008555Y006930D01*
X008430Y007055D01*
X006680Y009180D02*
X002180Y009180D01*
X001680Y008680D01*
X004680Y011680D02*
X006180Y010180D01*
X006680Y010180D01*
X006680Y004805D02*
X006805Y004680D01*
X031055Y012555D02*
X033430Y012555D01*
X034180Y011805D01*
X034180Y011680D01*
X035180Y012680D01*
X038055Y012680D01*
X038565Y012170D01*
X032430Y008680D02*
X032430Y007680D01*
X032306Y007613D01*
M02*
