G75*
%MOIN*%
%OFA0B0*%
%FSLAX24Y24*%
%IPPOS*%
%LPD*%
%AMOC8*
5,1,8,0,0,1.08239X$1,22.5*
%
%ADD10C,0.0520*%
%ADD11C,0.0600*%
%ADD12OC8,0.0520*%
%ADD13C,0.0200*%
%ADD14C,0.0400*%
%ADD15C,0.0160*%
%ADD16C,0.0100*%
D10*
X001680Y003920D02*
X001680Y004440D01*
X002680Y004440D02*
X002680Y003920D01*
X003680Y003920D02*
X003680Y004440D01*
X004680Y004440D02*
X004680Y003920D01*
X005680Y003920D02*
X005680Y004440D01*
X006680Y004440D02*
X006680Y003920D01*
X007680Y003920D02*
X007680Y004440D01*
X008680Y004440D02*
X008680Y003920D01*
X009680Y003920D02*
X009680Y004440D01*
X010680Y004440D02*
X010680Y003920D01*
X011680Y003920D02*
X011680Y004440D01*
X012680Y004440D02*
X012680Y003920D01*
X013680Y003920D02*
X013680Y004440D01*
X014680Y004440D02*
X014680Y003920D01*
X017180Y003920D02*
X017180Y004440D01*
X018180Y004440D02*
X018180Y003920D01*
X019180Y003920D02*
X019180Y004440D01*
X020180Y004440D02*
X020180Y003920D01*
X021180Y003920D02*
X021180Y004440D01*
X022180Y004440D02*
X022180Y003920D01*
X023180Y003920D02*
X023180Y004440D01*
X024180Y004440D02*
X024180Y003920D01*
X025180Y003920D02*
X025180Y004440D01*
X026180Y004440D02*
X026180Y003920D01*
X027180Y003920D02*
X027180Y004440D01*
X028180Y004440D02*
X028180Y003920D01*
X029180Y003920D02*
X029180Y004440D01*
X030180Y004440D02*
X030180Y003920D01*
X031920Y003680D02*
X032440Y003680D01*
X034920Y003680D02*
X035440Y003680D01*
X036420Y003680D02*
X036940Y003680D01*
X039420Y003680D02*
X039940Y003680D01*
X039940Y004680D02*
X039420Y004680D01*
X036940Y004680D02*
X036420Y004680D01*
X035440Y004680D02*
X034920Y004680D01*
X032440Y004680D02*
X031920Y004680D01*
X031920Y005680D02*
X032440Y005680D01*
X034920Y005680D02*
X035440Y005680D01*
X036420Y005680D02*
X036940Y005680D01*
X039420Y005680D02*
X039940Y005680D01*
X039940Y006680D02*
X039420Y006680D01*
X036940Y006680D02*
X036420Y006680D01*
X035440Y006680D02*
X034920Y006680D01*
X032440Y006680D02*
X031920Y006680D01*
X031920Y007680D02*
X032440Y007680D01*
X034920Y007680D02*
X035440Y007680D01*
X036420Y007680D02*
X036940Y007680D01*
X039420Y007680D02*
X039940Y007680D01*
X039940Y008680D02*
X039420Y008680D01*
X036940Y008680D02*
X036420Y008680D01*
X035440Y008680D02*
X034920Y008680D01*
X032440Y008680D02*
X031920Y008680D01*
X031920Y009680D02*
X032440Y009680D01*
X030180Y009920D02*
X030180Y010440D01*
X029180Y010440D02*
X029180Y009920D01*
X028180Y009920D02*
X028180Y010440D01*
X027180Y010440D02*
X027180Y009920D01*
X026180Y009920D02*
X026180Y010440D01*
X025180Y010440D02*
X025180Y009920D01*
X024180Y009920D02*
X024180Y010440D01*
X023180Y010440D02*
X023180Y009920D01*
X022180Y009920D02*
X022180Y010440D01*
X021180Y010440D02*
X021180Y009920D01*
X020180Y009920D02*
X020180Y010440D01*
X019180Y010440D02*
X019180Y009920D01*
X018180Y009920D02*
X018180Y010440D01*
X017180Y010440D02*
X017180Y009920D01*
X014680Y009920D02*
X014680Y010440D01*
X013680Y010440D02*
X013680Y009920D01*
X012680Y009920D02*
X012680Y010440D01*
X011680Y010440D02*
X011680Y009920D01*
X010680Y009920D02*
X010680Y010440D01*
X009680Y010440D02*
X009680Y009920D01*
X008680Y009920D02*
X008680Y010440D01*
X007680Y010440D02*
X007680Y009920D01*
X006680Y009920D02*
X006680Y010440D01*
X005680Y010440D02*
X005680Y009920D01*
X004680Y009920D02*
X004680Y010440D01*
X003680Y010440D02*
X003680Y009920D01*
X002680Y009920D02*
X002680Y010440D01*
X001680Y010440D02*
X001680Y009920D01*
X034920Y009680D02*
X035440Y009680D01*
X036420Y009680D02*
X036940Y009680D01*
X039420Y009680D02*
X039940Y009680D01*
D11*
X000680Y001480D02*
X000680Y000880D01*
X001680Y000880D02*
X001680Y001480D01*
X002680Y001480D02*
X002680Y000880D01*
X003680Y000880D02*
X003680Y001480D01*
X004680Y001480D02*
X004680Y000880D01*
X005680Y000880D02*
X005680Y001480D01*
X006680Y001480D02*
X006680Y000880D01*
X007680Y000880D02*
X007680Y001480D01*
X008680Y001480D02*
X008680Y000880D01*
X009680Y000880D02*
X009680Y001480D01*
X010680Y001480D02*
X010680Y000880D01*
X011680Y000880D02*
X011680Y001480D01*
X012680Y001480D02*
X012680Y000880D01*
X013680Y000880D02*
X013680Y001480D01*
X014680Y001480D02*
X014680Y000880D01*
X015680Y000880D02*
X015680Y001480D01*
X016680Y001480D02*
X016680Y000880D01*
X017680Y000880D02*
X017680Y001480D01*
X018680Y001480D02*
X018680Y000880D01*
X019680Y000880D02*
X019680Y001480D01*
X020680Y001480D02*
X020680Y000880D01*
X021680Y000880D02*
X021680Y001480D01*
X022680Y001480D02*
X022680Y000880D01*
X023680Y000880D02*
X023680Y001480D01*
X024680Y001480D02*
X024680Y000880D01*
X025680Y000880D02*
X025680Y001480D01*
X026680Y001480D02*
X026680Y000880D01*
X027680Y000880D02*
X027680Y001480D01*
X028680Y001480D02*
X028680Y000880D01*
X029680Y000880D02*
X029680Y001480D01*
X030680Y001480D02*
X030680Y000880D01*
X031680Y000880D02*
X031680Y001480D01*
X032680Y001480D02*
X032680Y000880D01*
X033680Y000880D02*
X033680Y001480D01*
X034680Y001480D02*
X034680Y000880D01*
X035680Y000880D02*
X035680Y001480D01*
X036680Y001480D02*
X036680Y000880D01*
X037680Y000880D02*
X037680Y001480D01*
X038680Y001480D02*
X038680Y000880D01*
X039680Y000880D02*
X039680Y001480D01*
D12*
X016180Y009180D03*
X016180Y010180D03*
X000680Y010180D03*
X000680Y009180D03*
X034180Y010680D03*
X035180Y010680D03*
X038680Y010680D03*
X039680Y010680D03*
D13*
X038680Y010680D02*
X038180Y011180D01*
X034980Y011180D01*
X034480Y010680D01*
X034180Y010680D01*
X035180Y010680D02*
X035180Y010180D01*
X037130Y010180D01*
X037630Y009680D01*
X039680Y009680D01*
X035180Y009680D02*
X035180Y008680D01*
X035180Y009680D02*
X035180Y010180D01*
X038930Y006930D02*
X039680Y007680D01*
X038930Y006930D02*
X038930Y006430D01*
X039680Y005680D01*
X039680Y004680D01*
X038680Y003680D01*
X036680Y003680D01*
X035180Y004680D02*
X034430Y005430D01*
X034430Y005930D01*
X035180Y006680D01*
X032180Y005680D02*
X031880Y005980D01*
X027580Y005980D01*
X028780Y005580D02*
X026180Y005580D01*
X024430Y007330D01*
X015630Y007330D01*
X015580Y007380D01*
X014930Y006730D01*
X015580Y007380D02*
X015580Y008580D01*
X016180Y010180D02*
X015230Y011130D01*
X013380Y011130D01*
X013180Y010930D01*
X012430Y010930D01*
X012230Y011130D01*
X011130Y011130D01*
X006780Y009130D02*
X004780Y009130D01*
X019830Y005830D02*
X023730Y005830D01*
X023830Y005930D01*
X028780Y005580D02*
X030180Y004180D01*
X030680Y003680D01*
X032180Y003680D01*
X019280Y003330D02*
X017680Y001730D01*
X017680Y001180D01*
X016230Y002680D02*
X014730Y004180D01*
X014680Y004180D01*
D14*
X015230Y004730D03*
X014230Y005830D03*
X013330Y005830D03*
X014930Y006730D03*
X019830Y005830D03*
X023830Y005930D03*
X024130Y005230D03*
X027580Y005980D03*
X028780Y006980D03*
X031030Y007230D03*
X030180Y008380D03*
X030880Y010880D03*
X024030Y011530D03*
X023530Y011530D03*
X022830Y011330D03*
X014380Y008830D03*
X015580Y008580D03*
X018730Y008730D03*
X011130Y011130D03*
X009880Y011030D03*
X012630Y011330D03*
X007130Y009530D03*
X006780Y009130D03*
X004780Y009130D03*
X003680Y007530D03*
X005480Y006330D03*
X007130Y005830D03*
X007280Y004880D03*
X011680Y003330D03*
X009380Y002480D03*
X004480Y002880D03*
X016230Y002680D03*
X019180Y002330D03*
X020980Y002980D03*
X019780Y003180D03*
X019280Y003330D03*
X025280Y003280D03*
X029030Y003280D03*
X010180Y009030D03*
X004530Y011030D03*
D15*
X003758Y011434D02*
X000460Y011434D01*
X000460Y011275D02*
X003600Y011275D01*
X003441Y011117D02*
X000460Y011117D01*
X000460Y010958D02*
X003283Y010958D01*
X003033Y010709D02*
X002929Y010813D01*
X002768Y010880D01*
X002592Y010880D01*
X002431Y010813D01*
X002307Y010689D01*
X002240Y010528D01*
X002240Y009832D01*
X002307Y009671D01*
X002431Y009547D01*
X002592Y009480D01*
X002768Y009480D01*
X002929Y009547D01*
X003053Y009671D01*
X003120Y009832D01*
X003120Y010145D01*
X003240Y010265D01*
X003240Y009832D01*
X003307Y009671D01*
X003431Y009547D01*
X003450Y009539D01*
X003450Y007837D01*
X003358Y007745D01*
X003300Y007606D01*
X003300Y007454D01*
X003358Y007315D01*
X003465Y007208D01*
X003513Y007188D01*
X000585Y004260D01*
X000460Y004135D01*
X000460Y008778D01*
X000498Y008740D01*
X000680Y008740D01*
X000862Y008740D01*
X001120Y008998D01*
X001120Y009180D01*
X001120Y009362D01*
X000862Y009620D01*
X000680Y009620D01*
X000680Y009180D01*
X000680Y009180D01*
X001120Y009180D01*
X000680Y009180D01*
X000680Y009180D01*
X000680Y009620D01*
X000498Y009620D01*
X000460Y009582D01*
X000460Y009778D01*
X000498Y009740D01*
X000862Y009740D01*
X001120Y009998D01*
X001120Y010362D01*
X000862Y010620D01*
X000498Y010620D01*
X000460Y010582D01*
X000460Y012396D01*
X004721Y012396D01*
X004700Y012375D01*
X003033Y010709D01*
X002943Y010800D02*
X003124Y010800D01*
X002417Y010800D02*
X001943Y010800D01*
X001929Y010813D02*
X001768Y010880D01*
X001592Y010880D01*
X001431Y010813D01*
X001307Y010689D01*
X001240Y010528D01*
X001240Y009832D01*
X001307Y009671D01*
X001431Y009547D01*
X001592Y009480D01*
X001768Y009480D01*
X001929Y009547D01*
X002053Y009671D01*
X002120Y009832D01*
X002120Y010528D01*
X002053Y010689D01*
X001929Y010813D01*
X001417Y010800D02*
X000460Y010800D01*
X000460Y010641D02*
X001287Y010641D01*
X001240Y010483D02*
X001000Y010483D01*
X001120Y010324D02*
X001240Y010324D01*
X001240Y010166D02*
X001120Y010166D01*
X001120Y010007D02*
X001240Y010007D01*
X001240Y009849D02*
X000971Y009849D01*
X001299Y009690D02*
X000460Y009690D01*
X000680Y009532D02*
X000680Y009532D01*
X000951Y009532D02*
X001468Y009532D01*
X001892Y009532D02*
X002468Y009532D01*
X002299Y009690D02*
X002061Y009690D01*
X002120Y009849D02*
X002240Y009849D01*
X002240Y010007D02*
X002120Y010007D01*
X002120Y010166D02*
X002240Y010166D01*
X002240Y010324D02*
X002120Y010324D01*
X002120Y010483D02*
X002240Y010483D01*
X002287Y010641D02*
X002073Y010641D01*
X003141Y010166D02*
X003240Y010166D01*
X003240Y010007D02*
X003120Y010007D01*
X003120Y009849D02*
X003240Y009849D01*
X003299Y009690D02*
X003061Y009690D01*
X002892Y009532D02*
X003450Y009532D01*
X003450Y009373D02*
X001109Y009373D01*
X001120Y009215D02*
X003450Y009215D01*
X003450Y009056D02*
X001120Y009056D01*
X001020Y008898D02*
X003450Y008898D01*
X003450Y008739D02*
X000460Y008739D01*
X000460Y008581D02*
X003450Y008581D01*
X003450Y008422D02*
X000460Y008422D01*
X000460Y008264D02*
X003450Y008264D01*
X003450Y008105D02*
X000460Y008105D01*
X000460Y007947D02*
X003450Y007947D01*
X003401Y007788D02*
X000460Y007788D01*
X000460Y007630D02*
X003310Y007630D01*
X003300Y007471D02*
X000460Y007471D01*
X000460Y007313D02*
X003360Y007313D01*
X003479Y007154D02*
X000460Y007154D01*
X000460Y006996D02*
X003320Y006996D01*
X003162Y006837D02*
X000460Y006837D01*
X000460Y006679D02*
X003003Y006679D01*
X002845Y006520D02*
X000460Y006520D01*
X000460Y006362D02*
X002686Y006362D01*
X002528Y006203D02*
X000460Y006203D01*
X000460Y006045D02*
X002369Y006045D01*
X002211Y005886D02*
X000460Y005886D01*
X000460Y005728D02*
X002052Y005728D01*
X001894Y005569D02*
X000460Y005569D01*
X000460Y005411D02*
X001735Y005411D01*
X001577Y005252D02*
X000460Y005252D01*
X000460Y005094D02*
X001418Y005094D01*
X001260Y004935D02*
X000460Y004935D01*
X000460Y004777D02*
X001101Y004777D01*
X000943Y004618D02*
X000460Y004618D01*
X000460Y004460D02*
X000784Y004460D01*
X000626Y004301D02*
X000460Y004301D01*
X000460Y004143D02*
X000467Y004143D01*
X004830Y004854D02*
X006060Y006085D01*
X006060Y006575D01*
X005925Y006710D01*
X004660Y007975D01*
X004660Y009185D01*
X004725Y009250D01*
X004925Y009250D01*
X005060Y009385D01*
X005327Y009651D01*
X005431Y009547D01*
X005592Y009480D01*
X005768Y009480D01*
X005929Y009547D01*
X006053Y009671D01*
X006120Y009832D01*
X006120Y010295D01*
X006240Y010415D01*
X006240Y009832D01*
X006307Y009671D01*
X006431Y009547D01*
X006592Y009480D01*
X006750Y009480D01*
X006750Y009454D01*
X006808Y009315D01*
X006900Y009223D01*
X006900Y006137D01*
X006808Y006045D01*
X006750Y005906D01*
X006750Y005754D01*
X006768Y005710D01*
X006035Y005710D01*
X005135Y004810D01*
X005033Y004709D01*
X004929Y004813D01*
X004830Y004854D01*
X004910Y004935D02*
X005260Y004935D01*
X005418Y005094D02*
X005069Y005094D01*
X005227Y005252D02*
X005577Y005252D01*
X005735Y005411D02*
X005386Y005411D01*
X005544Y005569D02*
X005894Y005569D01*
X005703Y005728D02*
X006761Y005728D01*
X006750Y005886D02*
X005861Y005886D01*
X006020Y006045D02*
X006808Y006045D01*
X006900Y006203D02*
X006060Y006203D01*
X006060Y006362D02*
X006900Y006362D01*
X006900Y006520D02*
X006060Y006520D01*
X005957Y006679D02*
X006900Y006679D01*
X006900Y006837D02*
X005798Y006837D01*
X005640Y006996D02*
X006900Y006996D01*
X006900Y007154D02*
X005481Y007154D01*
X005323Y007313D02*
X006900Y007313D01*
X006900Y007471D02*
X005164Y007471D01*
X005006Y007630D02*
X006900Y007630D01*
X006900Y007788D02*
X004847Y007788D01*
X004689Y007947D02*
X006900Y007947D01*
X006900Y008105D02*
X004660Y008105D01*
X004660Y008264D02*
X006900Y008264D01*
X006900Y008422D02*
X004660Y008422D01*
X004660Y008581D02*
X006900Y008581D01*
X006900Y008739D02*
X004660Y008739D01*
X004660Y008898D02*
X006900Y008898D01*
X006900Y009056D02*
X004660Y009056D01*
X004690Y009215D02*
X006900Y009215D01*
X006784Y009373D02*
X005048Y009373D01*
X005207Y009532D02*
X005468Y009532D01*
X005892Y009532D02*
X006468Y009532D01*
X006299Y009690D02*
X006061Y009690D01*
X006120Y009849D02*
X006240Y009849D01*
X006240Y010007D02*
X006120Y010007D01*
X006120Y010166D02*
X006240Y010166D01*
X006240Y010324D02*
X006149Y010324D01*
X003917Y011592D02*
X000460Y011592D01*
X000460Y011751D02*
X004075Y011751D01*
X004234Y011909D02*
X000460Y011909D01*
X000460Y012068D02*
X004392Y012068D01*
X004551Y012226D02*
X000460Y012226D01*
X000460Y012385D02*
X004709Y012385D01*
X014207Y009532D02*
X014468Y009532D01*
X014431Y009547D02*
X014592Y009480D01*
X014768Y009480D01*
X014929Y009547D01*
X015053Y009671D01*
X015120Y009832D01*
X015120Y010315D01*
X015900Y009535D01*
X015906Y009528D01*
X015740Y009362D01*
X015740Y009180D01*
X016180Y009180D01*
X016620Y009180D01*
X016620Y009265D01*
X016700Y009185D01*
X016835Y009050D01*
X018513Y009050D01*
X018423Y008960D01*
X016582Y008960D01*
X016620Y008998D01*
X016620Y009180D01*
X016180Y009180D01*
X016180Y009180D01*
X016180Y009180D01*
X015740Y009180D01*
X015740Y009160D01*
X014885Y009160D01*
X014722Y008997D01*
X014702Y009045D01*
X014595Y009152D01*
X014456Y009210D01*
X014304Y009210D01*
X014165Y009152D01*
X014073Y009060D01*
X013735Y009060D01*
X014327Y009651D01*
X014431Y009547D01*
X014892Y009532D02*
X015903Y009532D01*
X015745Y009690D02*
X015061Y009690D01*
X015120Y009849D02*
X015586Y009849D01*
X015428Y010007D02*
X015120Y010007D01*
X015120Y010166D02*
X015269Y010166D01*
X015751Y009373D02*
X014048Y009373D01*
X013890Y009215D02*
X015740Y009215D01*
X016620Y009215D02*
X016670Y009215D01*
X016620Y009056D02*
X016829Y009056D01*
X015835Y008500D02*
X015635Y008700D01*
X015075Y008700D01*
X014760Y008385D01*
X014625Y008250D01*
X007360Y008250D01*
X007360Y006137D01*
X007452Y006045D01*
X007510Y005906D01*
X007510Y005754D01*
X007492Y005710D01*
X012968Y005710D01*
X012950Y005754D01*
X012950Y005906D01*
X013008Y006045D01*
X013115Y006152D01*
X013254Y006210D01*
X013406Y006210D01*
X013545Y006152D01*
X013636Y006061D01*
X014050Y006475D01*
X014050Y006475D01*
X014185Y006610D01*
X019485Y006610D01*
X019585Y006710D01*
X024975Y006710D01*
X026902Y004784D01*
X026931Y004813D01*
X027092Y004880D01*
X027268Y004880D01*
X027429Y004813D01*
X027553Y004689D01*
X027620Y004528D01*
X027620Y003945D01*
X027740Y004065D01*
X027740Y004528D01*
X027807Y004689D01*
X027931Y004813D01*
X028092Y004880D01*
X028268Y004880D01*
X028429Y004813D01*
X028553Y004689D01*
X028620Y004528D01*
X028620Y003832D01*
X028553Y003671D01*
X028429Y003547D01*
X028268Y003480D01*
X028092Y003480D01*
X027931Y003547D01*
X027910Y003568D01*
X027910Y001904D01*
X027952Y001887D01*
X028087Y001752D01*
X028160Y001575D01*
X028160Y000985D01*
X028200Y001025D01*
X028200Y001575D01*
X028273Y001752D01*
X028408Y001887D01*
X028450Y001904D01*
X028450Y003525D01*
X028585Y003660D01*
X028745Y003820D01*
X028740Y003832D01*
X028740Y004528D01*
X028807Y004689D01*
X028931Y004813D01*
X029092Y004880D01*
X029268Y004880D01*
X029429Y004813D01*
X029553Y004689D01*
X029620Y004528D01*
X029620Y003832D01*
X029553Y003671D01*
X029429Y003547D01*
X029338Y003509D01*
X029352Y003495D01*
X029410Y003356D01*
X029410Y003204D01*
X029352Y003065D01*
X029260Y002973D01*
X029260Y001925D01*
X029353Y001832D01*
X029408Y001887D01*
X029585Y001960D01*
X029775Y001960D01*
X029952Y001887D01*
X030087Y001752D01*
X030160Y001575D01*
X030160Y000785D01*
X030087Y000608D01*
X029952Y000473D01*
X029920Y000460D01*
X030440Y000460D01*
X030408Y000473D01*
X030273Y000608D01*
X030200Y000785D01*
X030200Y001575D01*
X030273Y001752D01*
X030408Y001887D01*
X030585Y001960D01*
X030775Y001960D01*
X030952Y001887D01*
X031087Y001752D01*
X031160Y001575D01*
X031160Y001025D01*
X031200Y000985D01*
X031200Y001575D01*
X031273Y001752D01*
X031408Y001887D01*
X031450Y001904D01*
X031450Y002425D01*
X032265Y003240D01*
X032180Y003240D01*
X032180Y003680D01*
X032180Y003680D01*
X032180Y004120D01*
X032475Y004120D01*
X032543Y004109D01*
X032609Y004088D01*
X032650Y004067D01*
X032650Y004291D01*
X032528Y004240D01*
X031832Y004240D01*
X031671Y004307D01*
X031547Y004431D01*
X031480Y004592D01*
X031480Y004768D01*
X031547Y004929D01*
X031671Y005053D01*
X031832Y005120D01*
X032528Y005120D01*
X032650Y005069D01*
X032650Y005291D01*
X032528Y005240D01*
X031832Y005240D01*
X031671Y005307D01*
X031547Y005431D01*
X031480Y005592D01*
X031480Y005700D01*
X027837Y005700D01*
X027795Y005658D01*
X027656Y005600D01*
X027504Y005600D01*
X027365Y005658D01*
X027258Y005765D01*
X027200Y005904D01*
X027200Y006056D01*
X027258Y006195D01*
X027365Y006302D01*
X027504Y006360D01*
X027656Y006360D01*
X027795Y006302D01*
X027837Y006260D01*
X028675Y006260D01*
X027235Y007700D01*
X027100Y007835D01*
X027100Y009050D01*
X018947Y009050D01*
X019052Y008945D01*
X019110Y008806D01*
X019110Y008654D01*
X019052Y008515D01*
X018945Y008408D01*
X018806Y008350D01*
X018654Y008350D01*
X018515Y008408D01*
X018423Y008500D01*
X015835Y008500D01*
X015754Y008581D02*
X014956Y008581D01*
X014797Y008422D02*
X018501Y008422D01*
X018959Y008422D02*
X027100Y008422D01*
X027100Y008264D02*
X014639Y008264D01*
X014691Y009056D02*
X014781Y009056D01*
X019072Y008898D02*
X027100Y008898D01*
X027100Y008739D02*
X019110Y008739D01*
X019079Y008581D02*
X027100Y008581D01*
X027100Y008105D02*
X007360Y008105D01*
X007360Y007947D02*
X027100Y007947D01*
X027147Y007788D02*
X007360Y007788D01*
X007360Y007630D02*
X027305Y007630D01*
X027464Y007471D02*
X007360Y007471D01*
X007360Y007313D02*
X027622Y007313D01*
X027781Y007154D02*
X007360Y007154D01*
X007360Y006996D02*
X027939Y006996D01*
X028098Y006837D02*
X007360Y006837D01*
X007360Y006679D02*
X019553Y006679D01*
X014095Y006520D02*
X007360Y006520D01*
X007360Y006362D02*
X013936Y006362D01*
X013778Y006203D02*
X013422Y006203D01*
X013238Y006203D02*
X007360Y006203D01*
X007452Y006045D02*
X013008Y006045D01*
X012950Y005886D02*
X007510Y005886D01*
X007499Y005728D02*
X012961Y005728D01*
X015592Y004850D02*
X017020Y004850D01*
X016931Y004813D01*
X016807Y004689D01*
X016740Y004528D01*
X016740Y003832D01*
X016807Y003671D01*
X016931Y003547D01*
X017092Y003480D01*
X017155Y003480D01*
X016485Y002810D01*
X016350Y002675D01*
X016350Y002625D01*
X016285Y002560D01*
X012775Y002560D01*
X012060Y003275D01*
X012060Y003406D01*
X012002Y003545D01*
X011965Y003583D01*
X012053Y003671D01*
X012120Y003832D01*
X012120Y004528D01*
X012069Y004650D01*
X012291Y004650D01*
X012240Y004528D01*
X012240Y003832D01*
X012307Y003671D01*
X012431Y003547D01*
X012592Y003480D01*
X012768Y003480D01*
X012929Y003547D01*
X013053Y003671D01*
X013120Y003832D01*
X013120Y004528D01*
X013069Y004650D01*
X013291Y004650D01*
X013240Y004528D01*
X013240Y003832D01*
X013307Y003671D01*
X013431Y003547D01*
X013592Y003480D01*
X013768Y003480D01*
X013929Y003547D01*
X014053Y003671D01*
X014120Y003832D01*
X014120Y004528D01*
X014069Y004650D01*
X014293Y004650D01*
X014272Y004609D01*
X014251Y004543D01*
X014240Y004475D01*
X014240Y004180D01*
X014680Y004180D01*
X015120Y004180D01*
X015120Y004364D01*
X015154Y004350D01*
X015306Y004350D01*
X015445Y004408D01*
X015552Y004515D01*
X015610Y004654D01*
X015610Y004806D01*
X015592Y004850D01*
X015610Y004777D02*
X016894Y004777D01*
X016777Y004618D02*
X015595Y004618D01*
X015497Y004460D02*
X016740Y004460D01*
X016740Y004301D02*
X015120Y004301D01*
X015120Y004180D02*
X014680Y004180D01*
X014680Y004180D01*
X014680Y003480D01*
X014715Y003480D01*
X014783Y003491D01*
X014849Y003512D01*
X014911Y003544D01*
X014967Y003584D01*
X015016Y003633D01*
X015056Y003689D01*
X015088Y003751D01*
X015109Y003817D01*
X015120Y003885D01*
X015120Y004180D01*
X015120Y004143D02*
X016740Y004143D01*
X016740Y003984D02*
X015120Y003984D01*
X015111Y003826D02*
X016743Y003826D01*
X016811Y003667D02*
X015040Y003667D01*
X014837Y003509D02*
X017024Y003509D01*
X017025Y003350D02*
X012060Y003350D01*
X012017Y003509D02*
X012524Y003509D01*
X012311Y003667D02*
X012049Y003667D01*
X012117Y003826D02*
X012243Y003826D01*
X012240Y003984D02*
X012120Y003984D01*
X012120Y004143D02*
X012240Y004143D01*
X012240Y004301D02*
X012120Y004301D01*
X012120Y004460D02*
X012240Y004460D01*
X012277Y004618D02*
X012083Y004618D01*
X013083Y004618D02*
X013277Y004618D01*
X013240Y004460D02*
X013120Y004460D01*
X013120Y004301D02*
X013240Y004301D01*
X013240Y004143D02*
X013120Y004143D01*
X013120Y003984D02*
X013240Y003984D01*
X013243Y003826D02*
X013117Y003826D01*
X013049Y003667D02*
X013311Y003667D01*
X013524Y003509D02*
X012836Y003509D01*
X013836Y003509D02*
X014523Y003509D01*
X014511Y003512D02*
X014577Y003491D01*
X014645Y003480D01*
X014680Y003480D01*
X014680Y004180D01*
X014680Y004180D01*
X014680Y004180D01*
X014240Y004180D01*
X014240Y003885D01*
X014251Y003817D01*
X014272Y003751D01*
X014304Y003689D01*
X014344Y003633D01*
X014393Y003584D01*
X014449Y003544D01*
X014511Y003512D01*
X014680Y003509D02*
X014680Y003509D01*
X014680Y003667D02*
X014680Y003667D01*
X014680Y003826D02*
X014680Y003826D01*
X014680Y003984D02*
X014680Y003984D01*
X014240Y003984D02*
X014120Y003984D01*
X014117Y003826D02*
X014249Y003826D01*
X014320Y003667D02*
X014049Y003667D01*
X014120Y004143D02*
X014240Y004143D01*
X014240Y004301D02*
X014120Y004301D01*
X014120Y004460D02*
X014240Y004460D01*
X014277Y004618D02*
X014083Y004618D01*
X014680Y004143D02*
X014680Y004143D01*
X016866Y003192D02*
X012144Y003192D01*
X012302Y003033D02*
X016708Y003033D01*
X016549Y002875D02*
X012461Y002875D01*
X012619Y002716D02*
X016391Y002716D01*
X017874Y002399D02*
X017953Y002399D01*
X018033Y002558D02*
X018112Y002558D01*
X018191Y002716D02*
X018270Y002716D01*
X018350Y002875D02*
X018429Y002875D01*
X018508Y003033D02*
X018587Y003033D01*
X018667Y003192D02*
X018746Y003192D01*
X018825Y003350D02*
X018900Y003350D01*
X018900Y003346D02*
X017464Y001910D01*
X017408Y001887D01*
X017273Y001752D01*
X017200Y001575D01*
X017200Y000785D01*
X017252Y000660D01*
X017107Y000660D01*
X017125Y000696D01*
X017148Y000768D01*
X017160Y000842D01*
X017160Y001160D01*
X016700Y001160D01*
X016700Y001200D01*
X017160Y001200D01*
X017160Y001518D01*
X017148Y001592D01*
X017125Y001664D01*
X017107Y001700D01*
X017175Y001700D01*
X017310Y001835D01*
X018914Y003438D01*
X018900Y003406D01*
X018900Y003346D01*
X017795Y002241D02*
X017716Y002241D01*
X017636Y002082D02*
X017557Y002082D01*
X017478Y001924D02*
X017399Y001924D01*
X017286Y001765D02*
X017240Y001765D01*
X017213Y001607D02*
X017144Y001607D01*
X017160Y001448D02*
X017200Y001448D01*
X017200Y001290D02*
X017160Y001290D01*
X016660Y001200D02*
X016660Y001160D01*
X016200Y001160D01*
X016200Y000842D01*
X016212Y000768D01*
X016235Y000696D01*
X016253Y000660D01*
X016108Y000660D01*
X016160Y000785D01*
X016160Y001575D01*
X016108Y001700D01*
X016253Y001700D01*
X016235Y001664D01*
X016212Y001592D01*
X016200Y001518D01*
X016200Y001200D01*
X016660Y001200D01*
X016200Y001131D02*
X016160Y001131D01*
X016160Y000973D02*
X016200Y000973D01*
X016204Y000814D02*
X016160Y000814D01*
X017156Y000814D02*
X017200Y000814D01*
X017200Y000973D02*
X017160Y000973D01*
X017160Y001131D02*
X017200Y001131D01*
X016200Y001290D02*
X016160Y001290D01*
X016160Y001448D02*
X016200Y001448D01*
X016216Y001607D02*
X016147Y001607D01*
X026750Y004935D02*
X031553Y004935D01*
X031484Y004777D02*
X030465Y004777D01*
X030467Y004776D02*
X030411Y004816D01*
X030349Y004848D01*
X030283Y004869D01*
X030215Y004880D01*
X030180Y004880D01*
X030180Y004180D01*
X030620Y004180D01*
X030620Y004475D01*
X030609Y004543D01*
X030588Y004609D01*
X030556Y004671D01*
X030516Y004727D01*
X030467Y004776D01*
X030180Y004777D02*
X030180Y004777D01*
X030180Y004880D02*
X030145Y004880D01*
X030077Y004869D01*
X030011Y004848D01*
X029949Y004816D01*
X029893Y004776D01*
X029844Y004727D01*
X029804Y004671D01*
X029772Y004609D01*
X029751Y004543D01*
X029740Y004475D01*
X029740Y004180D01*
X030180Y004180D01*
X030180Y004180D01*
X030180Y004180D01*
X030620Y004180D01*
X030620Y003885D01*
X030609Y003817D01*
X030588Y003751D01*
X030556Y003689D01*
X030516Y003633D01*
X030467Y003584D01*
X030411Y003544D01*
X030349Y003512D01*
X030283Y003491D01*
X030215Y003480D01*
X030180Y003480D01*
X030180Y004180D01*
X030180Y004180D01*
X030180Y004180D01*
X030180Y004880D01*
X029895Y004777D02*
X029466Y004777D01*
X029583Y004618D02*
X029777Y004618D01*
X029740Y004460D02*
X029620Y004460D01*
X029620Y004301D02*
X029740Y004301D01*
X029740Y004180D02*
X029740Y003885D01*
X029751Y003817D01*
X029772Y003751D01*
X029804Y003689D01*
X029844Y003633D01*
X029893Y003584D01*
X029949Y003544D01*
X030011Y003512D01*
X030077Y003491D01*
X030145Y003480D01*
X030180Y003480D01*
X030180Y004180D01*
X029740Y004180D01*
X029740Y004143D02*
X029620Y004143D01*
X030180Y004143D02*
X030180Y004143D01*
X030180Y004301D02*
X030180Y004301D01*
X030180Y004460D02*
X030180Y004460D01*
X030180Y004618D02*
X030180Y004618D01*
X030583Y004618D02*
X031480Y004618D01*
X031535Y004460D02*
X030620Y004460D01*
X030620Y004301D02*
X031685Y004301D01*
X031817Y004109D02*
X031885Y004120D01*
X032180Y004120D01*
X032180Y003680D01*
X032180Y003680D01*
X032180Y003680D01*
X031480Y003680D01*
X031480Y003715D01*
X031491Y003783D01*
X031512Y003849D01*
X031544Y003911D01*
X031584Y003967D01*
X031633Y004016D01*
X031689Y004056D01*
X031751Y004088D01*
X031817Y004109D01*
X031602Y003984D02*
X030620Y003984D01*
X030611Y003826D02*
X031505Y003826D01*
X031480Y003680D02*
X031480Y003645D01*
X031491Y003577D01*
X031512Y003511D01*
X031544Y003449D01*
X031584Y003393D01*
X031633Y003344D01*
X031689Y003304D01*
X031751Y003272D01*
X031817Y003251D01*
X031885Y003240D01*
X032180Y003240D01*
X032180Y003680D01*
X031480Y003680D01*
X031480Y003667D02*
X030540Y003667D01*
X030337Y003509D02*
X031514Y003509D01*
X031628Y003350D02*
X029410Y003350D01*
X029339Y003509D02*
X030023Y003509D01*
X030180Y003509D02*
X030180Y003509D01*
X030180Y003667D02*
X030180Y003667D01*
X030180Y003826D02*
X030180Y003826D01*
X030180Y003984D02*
X030180Y003984D01*
X029740Y003984D02*
X029620Y003984D01*
X029617Y003826D02*
X029749Y003826D01*
X029820Y003667D02*
X029549Y003667D01*
X028743Y003826D02*
X028617Y003826D01*
X028620Y003984D02*
X028740Y003984D01*
X028740Y004143D02*
X028620Y004143D01*
X028620Y004301D02*
X028740Y004301D01*
X028740Y004460D02*
X028620Y004460D01*
X028583Y004618D02*
X028777Y004618D01*
X028894Y004777D02*
X028466Y004777D01*
X027894Y004777D02*
X027466Y004777D01*
X027583Y004618D02*
X027777Y004618D01*
X027740Y004460D02*
X027620Y004460D01*
X027620Y004301D02*
X027740Y004301D01*
X027740Y004143D02*
X027620Y004143D01*
X027620Y003984D02*
X027659Y003984D01*
X028549Y003667D02*
X028592Y003667D01*
X028450Y003509D02*
X028336Y003509D01*
X028450Y003350D02*
X027910Y003350D01*
X027910Y003509D02*
X028024Y003509D01*
X027910Y003192D02*
X028450Y003192D01*
X028450Y003033D02*
X027910Y003033D01*
X027910Y002875D02*
X028450Y002875D01*
X028450Y002716D02*
X027910Y002716D01*
X027910Y002558D02*
X028450Y002558D01*
X028450Y002399D02*
X027910Y002399D01*
X027910Y002241D02*
X028450Y002241D01*
X028450Y002082D02*
X027910Y002082D01*
X027910Y001924D02*
X028450Y001924D01*
X028286Y001765D02*
X028074Y001765D01*
X028147Y001607D02*
X028213Y001607D01*
X028200Y001448D02*
X028160Y001448D01*
X028160Y001290D02*
X028200Y001290D01*
X028200Y001131D02*
X028160Y001131D01*
X029976Y000497D02*
X030384Y000497D01*
X030253Y000656D02*
X030107Y000656D01*
X030160Y000814D02*
X030200Y000814D01*
X030200Y000973D02*
X030160Y000973D01*
X030160Y001131D02*
X030200Y001131D01*
X030200Y001290D02*
X030160Y001290D01*
X030160Y001448D02*
X030200Y001448D01*
X030213Y001607D02*
X030147Y001607D01*
X030074Y001765D02*
X030286Y001765D01*
X030496Y001924D02*
X029864Y001924D01*
X029496Y001924D02*
X029262Y001924D01*
X029260Y002082D02*
X031450Y002082D01*
X031450Y002241D02*
X029260Y002241D01*
X029260Y002399D02*
X031450Y002399D01*
X031582Y002558D02*
X029260Y002558D01*
X029260Y002716D02*
X031741Y002716D01*
X031899Y002875D02*
X029260Y002875D01*
X029320Y003033D02*
X032058Y003033D01*
X032216Y003192D02*
X029405Y003192D01*
X032180Y003350D02*
X032180Y003350D01*
X032180Y003509D02*
X032180Y003509D01*
X032180Y003667D02*
X032180Y003667D01*
X032180Y003826D02*
X032180Y003826D01*
X032180Y003984D02*
X032180Y003984D01*
X032650Y004143D02*
X030620Y004143D01*
X031769Y005094D02*
X026592Y005094D01*
X026433Y005252D02*
X031803Y005252D01*
X031567Y005411D02*
X026275Y005411D01*
X026116Y005569D02*
X031490Y005569D01*
X032557Y005252D02*
X032650Y005252D01*
X032650Y005094D02*
X032591Y005094D01*
X033510Y005094D02*
X034371Y005094D01*
X034271Y005193D02*
X034543Y004921D01*
X034480Y004768D01*
X034480Y004592D01*
X034547Y004431D01*
X034671Y004307D01*
X034832Y004240D01*
X035528Y004240D01*
X035689Y004307D01*
X035813Y004431D01*
X035880Y004592D01*
X035880Y004768D01*
X035813Y004929D01*
X035689Y005053D01*
X035528Y005120D01*
X035136Y005120D01*
X035016Y005240D01*
X035528Y005240D01*
X035689Y005307D01*
X035750Y005368D01*
X035750Y005285D01*
X036076Y004958D01*
X036047Y004929D01*
X035980Y004768D01*
X035980Y004592D01*
X036047Y004431D01*
X036171Y004307D01*
X036332Y004240D01*
X037028Y004240D01*
X037189Y004307D01*
X037313Y004431D01*
X037380Y004592D01*
X037380Y004768D01*
X037313Y004929D01*
X037189Y005053D01*
X037028Y005120D01*
X036565Y005120D01*
X036445Y005240D01*
X037028Y005240D01*
X037189Y005307D01*
X037313Y005431D01*
X037380Y005592D01*
X037380Y005768D01*
X037313Y005929D01*
X037189Y006053D01*
X037028Y006120D01*
X036332Y006120D01*
X036210Y006069D01*
X036210Y006291D01*
X036332Y006240D01*
X037028Y006240D01*
X037189Y006307D01*
X037313Y006431D01*
X037380Y006592D01*
X037380Y006768D01*
X037313Y006929D01*
X037189Y007053D01*
X037028Y007120D01*
X036332Y007120D01*
X036171Y007053D01*
X036077Y006959D01*
X036075Y006960D01*
X035709Y007327D01*
X035813Y007431D01*
X035880Y007592D01*
X035880Y007768D01*
X035813Y007929D01*
X035689Y008053D01*
X035528Y008120D01*
X034832Y008120D01*
X034710Y008069D01*
X034710Y008291D01*
X034832Y008240D01*
X035528Y008240D01*
X035689Y008307D01*
X035813Y008431D01*
X035880Y008592D01*
X035880Y008768D01*
X035813Y008929D01*
X035689Y009053D01*
X035528Y009120D01*
X035460Y009120D01*
X035460Y009240D01*
X035528Y009240D01*
X035689Y009307D01*
X035813Y009431D01*
X035880Y009592D01*
X035880Y009768D01*
X035825Y009900D01*
X036035Y009900D01*
X035980Y009768D01*
X035980Y009592D01*
X036047Y009431D01*
X036171Y009307D01*
X036332Y009240D01*
X037028Y009240D01*
X037189Y009307D01*
X037313Y009431D01*
X037363Y009551D01*
X037471Y009443D01*
X037574Y009400D01*
X039078Y009400D01*
X039171Y009307D01*
X039332Y009240D01*
X040028Y009240D01*
X040189Y009307D01*
X040270Y009388D01*
X040270Y008972D01*
X040227Y009016D01*
X040171Y009056D01*
X040270Y009056D01*
X040171Y009056D02*
X040109Y009088D01*
X040043Y009109D01*
X039975Y009120D01*
X039680Y009120D01*
X039680Y008680D01*
X039680Y008680D01*
X039680Y008240D01*
X039975Y008240D01*
X040043Y008251D01*
X040109Y008272D01*
X040171Y008304D01*
X040227Y008344D01*
X040270Y008388D01*
X040270Y007972D01*
X040227Y008016D01*
X040171Y008056D01*
X040109Y008088D01*
X040043Y008109D01*
X039975Y008120D01*
X039680Y008120D01*
X039680Y007680D01*
X039680Y007680D01*
X039680Y007240D01*
X039975Y007240D01*
X040043Y007251D01*
X040109Y007272D01*
X040171Y007304D01*
X040227Y007344D01*
X040270Y007388D01*
X040270Y006972D01*
X040189Y007053D01*
X040028Y007120D01*
X039332Y007120D01*
X039171Y007053D01*
X039047Y006929D01*
X038980Y006768D01*
X038980Y006592D01*
X039047Y006431D01*
X039171Y006307D01*
X039332Y006240D01*
X040028Y006240D01*
X040189Y006307D01*
X040270Y006388D01*
X040270Y005972D01*
X040227Y006016D01*
X040171Y006056D01*
X040109Y006088D01*
X040043Y006109D01*
X039975Y006120D01*
X039680Y006120D01*
X039680Y005680D01*
X039680Y005680D01*
X039680Y005240D01*
X039975Y005240D01*
X040043Y005251D01*
X040109Y005272D01*
X040171Y005304D01*
X040227Y005344D01*
X040270Y005388D01*
X040270Y004972D01*
X040227Y005016D01*
X040171Y005056D01*
X040109Y005088D01*
X040043Y005109D01*
X039975Y005120D01*
X039680Y005120D01*
X039680Y004680D01*
X039680Y004680D01*
X039680Y004240D01*
X039975Y004240D01*
X040043Y004251D01*
X040109Y004272D01*
X040171Y004304D01*
X040227Y004344D01*
X040270Y004388D01*
X040270Y003972D01*
X040189Y004053D01*
X040028Y004120D01*
X039332Y004120D01*
X039171Y004053D01*
X039047Y003929D01*
X038980Y003768D01*
X038980Y003592D01*
X039047Y003431D01*
X039171Y003307D01*
X039332Y003240D01*
X040028Y003240D01*
X040189Y003307D01*
X040270Y003388D01*
X040270Y000460D01*
X039920Y000460D01*
X039952Y000473D01*
X040087Y000608D01*
X040160Y000785D01*
X040160Y001575D01*
X040087Y001752D01*
X039952Y001887D01*
X039775Y001960D01*
X039585Y001960D01*
X039408Y001887D01*
X039273Y001752D01*
X039200Y001575D01*
X039200Y000785D01*
X039273Y000608D01*
X039408Y000473D01*
X039440Y000460D01*
X038920Y000460D01*
X038952Y000473D01*
X039087Y000608D01*
X039160Y000785D01*
X039160Y001575D01*
X039087Y001752D01*
X038952Y001887D01*
X038775Y001960D01*
X038585Y001960D01*
X038408Y001887D01*
X038273Y001752D01*
X038200Y001575D01*
X038200Y000785D01*
X038273Y000608D01*
X038408Y000473D01*
X038440Y000460D01*
X037920Y000460D01*
X037952Y000473D01*
X038087Y000608D01*
X038160Y000785D01*
X038160Y001575D01*
X038087Y001752D01*
X037952Y001887D01*
X037775Y001960D01*
X037585Y001960D01*
X037408Y001887D01*
X037273Y001752D01*
X037200Y001575D01*
X037200Y000785D01*
X037273Y000608D01*
X037408Y000473D01*
X037440Y000460D01*
X036920Y000460D01*
X036952Y000473D01*
X037087Y000608D01*
X037160Y000785D01*
X037160Y001575D01*
X037087Y001752D01*
X036952Y001887D01*
X036775Y001960D01*
X036585Y001960D01*
X036408Y001887D01*
X036273Y001752D01*
X036200Y001575D01*
X036200Y000785D01*
X036273Y000608D01*
X036408Y000473D01*
X036440Y000460D01*
X035920Y000460D01*
X035952Y000473D01*
X036087Y000608D01*
X036160Y000785D01*
X036160Y001575D01*
X036087Y001752D01*
X035952Y001887D01*
X035775Y001960D01*
X035585Y001960D01*
X035408Y001887D01*
X035273Y001752D01*
X035200Y001575D01*
X035200Y000785D01*
X035273Y000608D01*
X035408Y000473D01*
X035440Y000460D01*
X034920Y000460D01*
X034952Y000473D01*
X035087Y000608D01*
X035160Y000785D01*
X035160Y001575D01*
X035087Y001752D01*
X034952Y001887D01*
X034775Y001960D01*
X034585Y001960D01*
X034408Y001887D01*
X034273Y001752D01*
X034200Y001575D01*
X034200Y000785D01*
X034273Y000608D01*
X034408Y000473D01*
X034440Y000460D01*
X033920Y000460D01*
X033952Y000473D01*
X034087Y000608D01*
X034160Y000785D01*
X034160Y001575D01*
X034087Y001752D01*
X033952Y001887D01*
X033775Y001960D01*
X033585Y001960D01*
X033460Y001908D01*
X033460Y003185D01*
X033510Y003235D01*
X033510Y007525D01*
X032710Y008325D01*
X032709Y008327D01*
X032813Y008431D01*
X032880Y008592D01*
X032880Y008768D01*
X032813Y008929D01*
X032689Y009053D01*
X032528Y009120D01*
X031832Y009120D01*
X031671Y009053D01*
X031652Y009034D01*
X031110Y009575D01*
X030975Y009710D01*
X030569Y009710D01*
X030620Y009832D01*
X030620Y010265D01*
X031435Y009450D01*
X031539Y009450D01*
X031547Y009431D01*
X031671Y009307D01*
X031832Y009240D01*
X032528Y009240D01*
X032689Y009307D01*
X032813Y009431D01*
X032854Y009530D01*
X034250Y008135D01*
X034250Y007435D01*
X034650Y007035D01*
X034651Y007033D01*
X034547Y006929D01*
X034480Y006768D01*
X034480Y006592D01*
X034543Y006439D01*
X034193Y006089D01*
X034150Y005986D01*
X034150Y005374D01*
X034193Y005271D01*
X034271Y005193D01*
X034212Y005252D02*
X033510Y005252D01*
X033510Y005411D02*
X034150Y005411D01*
X034150Y005569D02*
X033510Y005569D01*
X033510Y005728D02*
X034150Y005728D01*
X034150Y005886D02*
X033510Y005886D01*
X033510Y006045D02*
X034174Y006045D01*
X034307Y006203D02*
X033510Y006203D01*
X033510Y006362D02*
X034466Y006362D01*
X034510Y006520D02*
X033510Y006520D01*
X033510Y006679D02*
X034480Y006679D01*
X034509Y006837D02*
X033510Y006837D01*
X033510Y006996D02*
X034613Y006996D01*
X034531Y007154D02*
X033510Y007154D01*
X033510Y007313D02*
X034372Y007313D01*
X034250Y007471D02*
X033510Y007471D01*
X033406Y007630D02*
X034250Y007630D01*
X034250Y007788D02*
X033247Y007788D01*
X033089Y007947D02*
X034250Y007947D01*
X034250Y008105D02*
X032930Y008105D01*
X032772Y008264D02*
X034121Y008264D01*
X033963Y008422D02*
X032804Y008422D01*
X032875Y008581D02*
X033804Y008581D01*
X033646Y008739D02*
X032880Y008739D01*
X032826Y008898D02*
X033487Y008898D01*
X033329Y009056D02*
X032682Y009056D01*
X032755Y009373D02*
X033012Y009373D01*
X033170Y009215D02*
X031471Y009215D01*
X031605Y009373D02*
X031312Y009373D01*
X031353Y009532D02*
X031154Y009532D01*
X031195Y009690D02*
X030995Y009690D01*
X031036Y009849D02*
X030620Y009849D01*
X030620Y010007D02*
X030878Y010007D01*
X030719Y010166D02*
X030620Y010166D01*
X032236Y010800D02*
X033740Y010800D01*
X033740Y010862D02*
X033740Y010680D01*
X034180Y010680D01*
X034620Y010680D01*
X034620Y010862D01*
X034362Y011120D01*
X034180Y011120D01*
X034180Y010680D01*
X034180Y010680D01*
X034180Y010680D01*
X034620Y010680D01*
X034620Y010498D01*
X034362Y010240D01*
X034180Y010240D01*
X034180Y010680D01*
X034180Y010680D01*
X034180Y010680D01*
X034180Y011120D01*
X033998Y011120D01*
X033740Y010862D01*
X033836Y010958D02*
X032077Y010958D01*
X031919Y011117D02*
X033994Y011117D01*
X034180Y011117D02*
X034180Y011117D01*
X034180Y010958D02*
X034180Y010958D01*
X034366Y011117D02*
X034994Y011117D01*
X034998Y011120D02*
X034740Y010862D01*
X034740Y010498D01*
X034900Y010338D01*
X034900Y010120D01*
X034832Y010120D01*
X034671Y010053D01*
X034547Y009929D01*
X034480Y009768D01*
X034480Y009592D01*
X034547Y009431D01*
X034671Y009307D01*
X034832Y009240D01*
X034900Y009240D01*
X034900Y009120D01*
X034832Y009120D01*
X034671Y009053D01*
X034547Y008929D01*
X034480Y008768D01*
X034480Y008592D01*
X034506Y008529D01*
X031585Y011450D01*
X031585Y011450D01*
X031450Y011585D01*
X030639Y012396D01*
X040270Y012396D01*
X040270Y009972D01*
X040189Y010053D01*
X040028Y010120D01*
X039332Y010120D01*
X039171Y010053D01*
X039078Y009960D01*
X037746Y009960D01*
X037367Y010339D01*
X037289Y010417D01*
X037186Y010460D01*
X035582Y010460D01*
X035620Y010498D01*
X035620Y010862D01*
X035362Y011120D01*
X034998Y011120D01*
X034836Y010958D02*
X034524Y010958D01*
X034620Y010800D02*
X034740Y010800D01*
X034740Y010641D02*
X034620Y010641D01*
X034605Y010483D02*
X034755Y010483D01*
X034900Y010324D02*
X034446Y010324D01*
X034180Y010324D02*
X034180Y010324D01*
X034180Y010240D02*
X034180Y010680D01*
X033740Y010680D01*
X033740Y010498D01*
X033998Y010240D01*
X034180Y010240D01*
X033914Y010324D02*
X032711Y010324D01*
X032553Y010483D02*
X033755Y010483D01*
X033740Y010641D02*
X032394Y010641D01*
X032870Y010166D02*
X034900Y010166D01*
X034625Y010007D02*
X033028Y010007D01*
X033187Y009849D02*
X034514Y009849D01*
X034480Y009690D02*
X033345Y009690D01*
X033504Y009532D02*
X034505Y009532D01*
X034605Y009373D02*
X033662Y009373D01*
X033821Y009215D02*
X034900Y009215D01*
X034678Y009056D02*
X033979Y009056D01*
X034138Y008898D02*
X034534Y008898D01*
X034480Y008739D02*
X034296Y008739D01*
X034455Y008581D02*
X034485Y008581D01*
X034710Y008264D02*
X034776Y008264D01*
X034796Y008105D02*
X034710Y008105D01*
X035564Y008105D02*
X036296Y008105D01*
X036332Y008120D02*
X036171Y008053D01*
X036047Y007929D01*
X035980Y007768D01*
X035980Y007592D01*
X036047Y007431D01*
X036171Y007307D01*
X036332Y007240D01*
X037028Y007240D01*
X037189Y007307D01*
X037313Y007431D01*
X037380Y007592D01*
X037380Y007768D01*
X037313Y007929D01*
X037189Y008053D01*
X037028Y008120D01*
X036332Y008120D01*
X036332Y008240D02*
X037028Y008240D01*
X037189Y008307D01*
X037313Y008431D01*
X037380Y008592D01*
X037380Y008768D01*
X037313Y008929D01*
X037189Y009053D01*
X037028Y009120D01*
X036332Y009120D01*
X036171Y009053D01*
X036047Y008929D01*
X035980Y008768D01*
X035980Y008592D01*
X036047Y008431D01*
X036171Y008307D01*
X036332Y008240D01*
X036276Y008264D02*
X035584Y008264D01*
X035804Y008422D02*
X036056Y008422D01*
X035985Y008581D02*
X035875Y008581D01*
X035880Y008739D02*
X035980Y008739D01*
X036034Y008898D02*
X035826Y008898D01*
X035682Y009056D02*
X036178Y009056D01*
X036105Y009373D02*
X035755Y009373D01*
X035460Y009215D02*
X040270Y009215D01*
X040255Y009373D02*
X040270Y009373D01*
X039680Y009120D02*
X039385Y009120D01*
X039317Y009109D01*
X039251Y009088D01*
X039189Y009056D01*
X037182Y009056D01*
X037326Y008898D02*
X039037Y008898D01*
X039044Y008911D02*
X039012Y008849D01*
X038991Y008783D01*
X038980Y008715D01*
X038980Y008680D01*
X039680Y008680D01*
X039680Y008680D01*
X039680Y008680D01*
X039680Y009120D01*
X039680Y009056D02*
X039680Y009056D01*
X039680Y008898D02*
X039680Y008898D01*
X039680Y008739D02*
X039680Y008739D01*
X039680Y008680D02*
X038980Y008680D01*
X038980Y008645D01*
X038991Y008577D01*
X039012Y008511D01*
X039044Y008449D01*
X039084Y008393D01*
X039133Y008344D01*
X039189Y008304D01*
X039251Y008272D01*
X039317Y008251D01*
X039385Y008240D01*
X039680Y008240D01*
X039680Y008680D01*
X039680Y008581D02*
X039680Y008581D01*
X039680Y008422D02*
X039680Y008422D01*
X039680Y008264D02*
X039680Y008264D01*
X039680Y008120D02*
X039385Y008120D01*
X039317Y008109D01*
X039251Y008088D01*
X039189Y008056D01*
X039133Y008016D01*
X039084Y007967D01*
X039044Y007911D01*
X039012Y007849D01*
X038991Y007783D01*
X038980Y007715D01*
X038980Y007680D01*
X039680Y007680D01*
X039680Y007680D01*
X039680Y007680D01*
X039680Y008120D01*
X039680Y008105D02*
X039680Y008105D01*
X039304Y008105D02*
X037064Y008105D01*
X037084Y008264D02*
X039278Y008264D01*
X039064Y008422D02*
X037304Y008422D01*
X037375Y008581D02*
X038990Y008581D01*
X038984Y008739D02*
X037380Y008739D01*
X039044Y008911D02*
X039084Y008967D01*
X039133Y009016D01*
X039189Y009056D01*
X039105Y009373D02*
X037255Y009373D01*
X037355Y009532D02*
X037383Y009532D01*
X037699Y010007D02*
X039125Y010007D01*
X038862Y010240D02*
X038680Y010240D01*
X038680Y010680D01*
X039120Y010680D01*
X039120Y010862D01*
X038862Y011120D01*
X038680Y011120D01*
X038680Y010680D01*
X038680Y010680D01*
X038680Y010680D01*
X039120Y010680D01*
X039120Y010498D01*
X038862Y010240D01*
X038946Y010324D02*
X039414Y010324D01*
X039498Y010240D02*
X039862Y010240D01*
X040120Y010498D01*
X040120Y010862D01*
X039862Y011120D01*
X039498Y011120D01*
X039240Y010862D01*
X039240Y010498D01*
X039498Y010240D01*
X039946Y010324D02*
X040270Y010324D01*
X040270Y010166D02*
X037540Y010166D01*
X037382Y010324D02*
X038414Y010324D01*
X038498Y010240D02*
X038240Y010498D01*
X038240Y010680D01*
X038680Y010680D01*
X038680Y010680D01*
X038680Y010680D01*
X038680Y011120D01*
X038498Y011120D01*
X038240Y010862D01*
X038240Y010680D01*
X038680Y010680D01*
X038680Y010240D01*
X038498Y010240D01*
X038680Y010324D02*
X038680Y010324D01*
X038680Y010483D02*
X038680Y010483D01*
X038680Y010641D02*
X038680Y010641D01*
X038680Y010800D02*
X038680Y010800D01*
X039120Y010800D02*
X039240Y010800D01*
X039240Y010641D02*
X039120Y010641D01*
X039105Y010483D02*
X039255Y010483D01*
X040105Y010483D02*
X040270Y010483D01*
X040270Y010641D02*
X040120Y010641D01*
X040120Y010800D02*
X040270Y010800D01*
X040270Y010958D02*
X040024Y010958D01*
X039866Y011117D02*
X040270Y011117D01*
X040270Y011275D02*
X031760Y011275D01*
X031602Y011434D02*
X040270Y011434D01*
X040270Y011592D02*
X031443Y011592D01*
X031450Y011585D02*
X031450Y011585D01*
X031285Y011751D02*
X040270Y011751D01*
X040270Y011909D02*
X031126Y011909D01*
X030968Y012068D02*
X040270Y012068D01*
X040270Y012226D02*
X030809Y012226D01*
X030651Y012385D02*
X040270Y012385D01*
X039494Y011117D02*
X038866Y011117D01*
X038680Y011117D02*
X038680Y011117D01*
X038680Y010958D02*
X038680Y010958D01*
X038494Y011117D02*
X035366Y011117D01*
X035524Y010958D02*
X038336Y010958D01*
X038240Y010800D02*
X035620Y010800D01*
X035620Y010641D02*
X038240Y010641D01*
X038255Y010483D02*
X035605Y010483D01*
X034180Y010483D02*
X034180Y010483D01*
X034180Y010641D02*
X034180Y010641D01*
X034180Y010800D02*
X034180Y010800D01*
X035846Y009849D02*
X036014Y009849D01*
X035980Y009690D02*
X035880Y009690D01*
X035855Y009532D02*
X036005Y009532D01*
X040235Y010007D02*
X040270Y010007D01*
X039336Y010958D02*
X039024Y010958D01*
X031678Y009056D02*
X031629Y009056D01*
X035796Y007947D02*
X036064Y007947D01*
X035988Y007788D02*
X035872Y007788D01*
X035880Y007630D02*
X035980Y007630D01*
X036030Y007471D02*
X035830Y007471D01*
X035723Y007313D02*
X036165Y007313D01*
X035881Y007154D02*
X040270Y007154D01*
X040270Y006996D02*
X040247Y006996D01*
X040270Y007313D02*
X040183Y007313D01*
X039680Y007313D02*
X039680Y007313D01*
X039680Y007240D02*
X039680Y007680D01*
X038980Y007680D01*
X038980Y007645D01*
X038991Y007577D01*
X039012Y007511D01*
X039044Y007449D01*
X039084Y007393D01*
X039133Y007344D01*
X039189Y007304D01*
X039251Y007272D01*
X039317Y007251D01*
X039385Y007240D01*
X039680Y007240D01*
X039680Y007471D02*
X039680Y007471D01*
X039680Y007630D02*
X039680Y007630D01*
X039680Y007788D02*
X039680Y007788D01*
X039680Y007947D02*
X039680Y007947D01*
X040056Y008105D02*
X040270Y008105D01*
X040270Y008264D02*
X040082Y008264D01*
X039070Y007947D02*
X037296Y007947D01*
X037372Y007788D02*
X038992Y007788D01*
X038983Y007630D02*
X037380Y007630D01*
X037330Y007471D02*
X039033Y007471D01*
X039177Y007313D02*
X037195Y007313D01*
X037247Y006996D02*
X039113Y006996D01*
X039009Y006837D02*
X037351Y006837D01*
X037380Y006679D02*
X038980Y006679D01*
X039010Y006520D02*
X037350Y006520D01*
X037244Y006362D02*
X039116Y006362D01*
X039251Y006088D02*
X039189Y006056D01*
X039133Y006016D01*
X039084Y005967D01*
X039044Y005911D01*
X039012Y005849D01*
X038991Y005783D01*
X038980Y005715D01*
X038980Y005680D01*
X039680Y005680D01*
X039680Y005680D01*
X039680Y005680D01*
X039680Y006120D01*
X039385Y006120D01*
X039317Y006109D01*
X039251Y006088D01*
X039173Y006045D02*
X037198Y006045D01*
X037331Y005886D02*
X039031Y005886D01*
X038982Y005728D02*
X037380Y005728D01*
X037370Y005569D02*
X038993Y005569D01*
X038991Y005577D02*
X039012Y005511D01*
X039044Y005449D01*
X039084Y005393D01*
X039133Y005344D01*
X039189Y005304D01*
X039251Y005272D01*
X039317Y005251D01*
X039385Y005240D01*
X039680Y005240D01*
X039680Y005680D01*
X038980Y005680D01*
X038980Y005645D01*
X038991Y005577D01*
X039072Y005411D02*
X037293Y005411D01*
X037057Y005252D02*
X039313Y005252D01*
X039317Y005109D02*
X039251Y005088D01*
X039189Y005056D01*
X039133Y005016D01*
X039084Y004967D01*
X039044Y004911D01*
X039012Y004849D01*
X038991Y004783D01*
X038980Y004715D01*
X038980Y004680D01*
X039680Y004680D01*
X039680Y004680D01*
X039680Y004680D01*
X039680Y005120D01*
X039385Y005120D01*
X039317Y005109D01*
X039269Y005094D02*
X037091Y005094D01*
X037307Y004935D02*
X039061Y004935D01*
X038990Y004777D02*
X037376Y004777D01*
X037380Y004618D02*
X038984Y004618D01*
X038980Y004645D02*
X038991Y004577D01*
X039012Y004511D01*
X039044Y004449D01*
X039084Y004393D01*
X039133Y004344D01*
X039189Y004304D01*
X039251Y004272D01*
X039317Y004251D01*
X039385Y004240D01*
X039680Y004240D01*
X039680Y004680D01*
X038980Y004680D01*
X038980Y004645D01*
X039039Y004460D02*
X037325Y004460D01*
X037175Y004301D02*
X039195Y004301D01*
X039680Y004301D02*
X039680Y004301D01*
X039680Y004460D02*
X039680Y004460D01*
X039680Y004618D02*
X039680Y004618D01*
X039680Y004777D02*
X039680Y004777D01*
X039680Y004935D02*
X039680Y004935D01*
X039680Y005094D02*
X039680Y005094D01*
X039680Y005252D02*
X039680Y005252D01*
X040047Y005252D02*
X040270Y005252D01*
X040270Y005094D02*
X040091Y005094D01*
X039680Y005411D02*
X039680Y005411D01*
X039680Y005569D02*
X039680Y005569D01*
X039680Y005728D02*
X039680Y005728D01*
X039680Y005886D02*
X039680Y005886D01*
X039680Y006045D02*
X039680Y006045D01*
X040187Y006045D02*
X040270Y006045D01*
X040270Y006203D02*
X036210Y006203D01*
X036113Y006996D02*
X036040Y006996D01*
X040244Y006362D02*
X040270Y006362D01*
X036053Y004935D02*
X035807Y004935D01*
X035876Y004777D02*
X035984Y004777D01*
X035980Y004618D02*
X035880Y004618D01*
X035825Y004460D02*
X036035Y004460D01*
X036185Y004301D02*
X035675Y004301D01*
X035528Y004120D02*
X035689Y004053D01*
X035813Y003929D01*
X035880Y003768D01*
X035880Y003592D01*
X035813Y003431D01*
X035689Y003307D01*
X035528Y003240D01*
X034832Y003240D01*
X034671Y003307D01*
X034547Y003431D01*
X034480Y003592D01*
X034480Y003768D01*
X034547Y003929D01*
X034671Y004053D01*
X034832Y004120D01*
X035528Y004120D01*
X035758Y003984D02*
X036102Y003984D01*
X036084Y003967D02*
X036044Y003911D01*
X036012Y003849D01*
X035991Y003783D01*
X035980Y003715D01*
X035980Y003680D01*
X036680Y003680D01*
X036680Y003680D01*
X036680Y004120D01*
X036975Y004120D01*
X037043Y004109D01*
X037109Y004088D01*
X037171Y004056D01*
X037227Y004016D01*
X037276Y003967D01*
X037316Y003911D01*
X037348Y003849D01*
X037369Y003783D01*
X037380Y003715D01*
X037380Y003680D01*
X036680Y003680D01*
X036680Y003680D01*
X036680Y003240D01*
X036975Y003240D01*
X037043Y003251D01*
X037109Y003272D01*
X037171Y003304D01*
X037227Y003344D01*
X037276Y003393D01*
X037316Y003449D01*
X037348Y003511D01*
X037369Y003577D01*
X037380Y003645D01*
X037380Y003680D01*
X036680Y003680D01*
X036680Y003680D01*
X036680Y003680D01*
X036680Y004120D01*
X036385Y004120D01*
X036317Y004109D01*
X036251Y004088D01*
X036189Y004056D01*
X036133Y004016D01*
X036084Y003967D01*
X036005Y003826D02*
X035856Y003826D01*
X035880Y003667D02*
X035980Y003667D01*
X035980Y003680D02*
X035980Y003645D01*
X035991Y003577D01*
X036012Y003511D01*
X036044Y003449D01*
X036084Y003393D01*
X036133Y003344D01*
X036189Y003304D01*
X036251Y003272D01*
X036317Y003251D01*
X036385Y003240D01*
X036680Y003240D01*
X036680Y003680D01*
X035980Y003680D01*
X036014Y003509D02*
X035845Y003509D01*
X035732Y003350D02*
X036128Y003350D01*
X036680Y003350D02*
X036680Y003350D01*
X036680Y003509D02*
X036680Y003509D01*
X036680Y003667D02*
X036680Y003667D01*
X036680Y003826D02*
X036680Y003826D01*
X036680Y003984D02*
X036680Y003984D01*
X037258Y003984D02*
X039102Y003984D01*
X039004Y003826D02*
X037355Y003826D01*
X037380Y003667D02*
X038980Y003667D01*
X039015Y003509D02*
X037346Y003509D01*
X037232Y003350D02*
X039128Y003350D01*
X040232Y003350D02*
X040270Y003350D01*
X040270Y003192D02*
X033467Y003192D01*
X033460Y003033D02*
X040270Y003033D01*
X040270Y002875D02*
X033460Y002875D01*
X033460Y002716D02*
X040270Y002716D01*
X040270Y002558D02*
X033460Y002558D01*
X033460Y002399D02*
X040270Y002399D01*
X040270Y002241D02*
X033460Y002241D01*
X033460Y002082D02*
X040270Y002082D01*
X040270Y001924D02*
X039864Y001924D01*
X040074Y001765D02*
X040270Y001765D01*
X040270Y001607D02*
X040147Y001607D01*
X040160Y001448D02*
X040270Y001448D01*
X040270Y001290D02*
X040160Y001290D01*
X040160Y001131D02*
X040270Y001131D01*
X040270Y000973D02*
X040160Y000973D01*
X040160Y000814D02*
X040270Y000814D01*
X040270Y000656D02*
X040107Y000656D01*
X039976Y000497D02*
X040270Y000497D01*
X039384Y000497D02*
X038976Y000497D01*
X039107Y000656D02*
X039253Y000656D01*
X039200Y000814D02*
X039160Y000814D01*
X039160Y000973D02*
X039200Y000973D01*
X039200Y001131D02*
X039160Y001131D01*
X039160Y001290D02*
X039200Y001290D01*
X039200Y001448D02*
X039160Y001448D01*
X039147Y001607D02*
X039213Y001607D01*
X039286Y001765D02*
X039074Y001765D01*
X038864Y001924D02*
X039496Y001924D01*
X038496Y001924D02*
X037864Y001924D01*
X038074Y001765D02*
X038286Y001765D01*
X038213Y001607D02*
X038147Y001607D01*
X038160Y001448D02*
X038200Y001448D01*
X038200Y001290D02*
X038160Y001290D01*
X038160Y001131D02*
X038200Y001131D01*
X038200Y000973D02*
X038160Y000973D01*
X038160Y000814D02*
X038200Y000814D01*
X038253Y000656D02*
X038107Y000656D01*
X037976Y000497D02*
X038384Y000497D01*
X037384Y000497D02*
X036976Y000497D01*
X036384Y000497D02*
X035976Y000497D01*
X036107Y000656D02*
X036253Y000656D01*
X036200Y000814D02*
X036160Y000814D01*
X036160Y000973D02*
X036200Y000973D01*
X036200Y001131D02*
X036160Y001131D01*
X036160Y001290D02*
X036200Y001290D01*
X036200Y001448D02*
X036160Y001448D01*
X036147Y001607D02*
X036213Y001607D01*
X036286Y001765D02*
X036074Y001765D01*
X035864Y001924D02*
X036496Y001924D01*
X036864Y001924D02*
X037496Y001924D01*
X037286Y001765D02*
X037074Y001765D01*
X037147Y001607D02*
X037213Y001607D01*
X037200Y001448D02*
X037160Y001448D01*
X037160Y001290D02*
X037200Y001290D01*
X037200Y001131D02*
X037160Y001131D01*
X037160Y000973D02*
X037200Y000973D01*
X037200Y000814D02*
X037160Y000814D01*
X037107Y000656D02*
X037253Y000656D01*
X035384Y000497D02*
X034976Y000497D01*
X034384Y000497D02*
X033976Y000497D01*
X034107Y000656D02*
X034253Y000656D01*
X034200Y000814D02*
X034160Y000814D01*
X034160Y000973D02*
X034200Y000973D01*
X034200Y001131D02*
X034160Y001131D01*
X034160Y001290D02*
X034200Y001290D01*
X034200Y001448D02*
X034160Y001448D01*
X034147Y001607D02*
X034213Y001607D01*
X034286Y001765D02*
X034074Y001765D01*
X033864Y001924D02*
X034496Y001924D01*
X034864Y001924D02*
X035496Y001924D01*
X035286Y001765D02*
X035074Y001765D01*
X035147Y001607D02*
X035213Y001607D01*
X035200Y001448D02*
X035160Y001448D01*
X035160Y001290D02*
X035200Y001290D01*
X035200Y001131D02*
X035160Y001131D01*
X035160Y000973D02*
X035200Y000973D01*
X035200Y000814D02*
X035160Y000814D01*
X035107Y000656D02*
X035253Y000656D01*
X033496Y001924D02*
X033460Y001924D01*
X031450Y001924D02*
X030864Y001924D01*
X031074Y001765D02*
X031286Y001765D01*
X031213Y001607D02*
X031147Y001607D01*
X031160Y001448D02*
X031200Y001448D01*
X031200Y001290D02*
X031160Y001290D01*
X031160Y001131D02*
X031200Y001131D01*
X033510Y003350D02*
X034628Y003350D01*
X034515Y003509D02*
X033510Y003509D01*
X033510Y003667D02*
X034480Y003667D01*
X034504Y003826D02*
X033510Y003826D01*
X033510Y003984D02*
X034602Y003984D01*
X033510Y004143D02*
X040270Y004143D01*
X040270Y004301D02*
X040165Y004301D01*
X040258Y003984D02*
X040270Y003984D01*
X035941Y005094D02*
X035591Y005094D01*
X035557Y005252D02*
X035783Y005252D01*
X034529Y004935D02*
X033510Y004935D01*
X033510Y004777D02*
X034484Y004777D01*
X034480Y004618D02*
X033510Y004618D01*
X033510Y004460D02*
X034535Y004460D01*
X034685Y004301D02*
X033510Y004301D01*
X028573Y006362D02*
X025324Y006362D01*
X025165Y006520D02*
X028415Y006520D01*
X028256Y006679D02*
X025007Y006679D01*
X025482Y006203D02*
X027266Y006203D01*
X027200Y006045D02*
X025641Y006045D01*
X025799Y005886D02*
X027208Y005886D01*
X027295Y005728D02*
X025958Y005728D01*
X005101Y004777D02*
X004966Y004777D01*
X000680Y008740D02*
X000680Y009180D01*
X000680Y009180D01*
X000680Y008740D01*
X000680Y008898D02*
X000680Y008898D01*
X000680Y009056D02*
X000680Y009056D01*
X000680Y009215D02*
X000680Y009215D01*
X000680Y009373D02*
X000680Y009373D01*
D16*
X002680Y010180D02*
X002830Y010180D01*
X004930Y012280D01*
X030430Y012280D01*
X031355Y011355D01*
X030880Y010880D01*
X031355Y011355D02*
X034480Y008230D01*
X034480Y007530D01*
X034880Y007130D01*
X035580Y007130D01*
X035980Y006730D01*
X035980Y005380D01*
X036680Y004680D01*
X032880Y005830D02*
X032880Y003530D01*
X031680Y002330D01*
X031680Y001180D01*
X031430Y000430D02*
X030680Y001180D01*
X029680Y001180D02*
X029030Y001830D01*
X029030Y003280D01*
X028680Y003430D02*
X028680Y001180D01*
X027930Y000430D01*
X026480Y000430D01*
X026230Y000680D01*
X026230Y001580D01*
X025730Y002080D01*
X025730Y004530D01*
X023980Y006280D01*
X019780Y006280D01*
X019330Y005830D01*
X014230Y005830D01*
X013730Y005830D02*
X014280Y006380D01*
X019580Y006380D01*
X019680Y006480D01*
X024880Y006480D01*
X027180Y004180D01*
X027130Y004180D01*
X026680Y003730D01*
X026680Y001180D01*
X027680Y001180D02*
X027680Y003680D01*
X028180Y004180D01*
X028680Y003430D02*
X029180Y003930D01*
X029180Y004180D01*
X032680Y003030D02*
X033080Y003430D01*
X033080Y006630D01*
X032480Y007230D01*
X031030Y007230D01*
X030180Y008380D02*
X028780Y006980D01*
X029030Y006230D02*
X027330Y007930D01*
X027330Y009280D01*
X027305Y009305D01*
X027280Y009280D01*
X016930Y009280D01*
X016580Y009630D01*
X016130Y009630D01*
X014880Y010880D01*
X013530Y010880D01*
X012830Y010180D01*
X012680Y010180D01*
X013380Y009030D02*
X014530Y010180D01*
X014680Y010180D01*
X015280Y011680D02*
X016630Y010330D01*
X016630Y009880D01*
X017030Y009480D01*
X023330Y009480D01*
X024030Y010180D01*
X024180Y010180D01*
X024730Y010480D02*
X024730Y009780D01*
X025030Y009480D01*
X026480Y009480D01*
X027180Y010180D01*
X027305Y009305D02*
X028180Y010180D01*
X029180Y010180D02*
X029880Y009480D01*
X030880Y009480D01*
X031430Y008930D01*
X031430Y008580D01*
X031780Y008230D01*
X032480Y008230D01*
X033280Y007430D01*
X033280Y003330D01*
X033230Y003280D01*
X033230Y000780D01*
X032880Y000430D01*
X031430Y000430D01*
X032680Y001180D02*
X032680Y003030D01*
X025280Y003280D02*
X023430Y003280D01*
X022480Y002330D01*
X019180Y002330D01*
X019130Y002680D02*
X019030Y002680D01*
X018130Y001780D01*
X018130Y000680D01*
X017880Y000430D01*
X010430Y000430D01*
X009680Y001180D01*
X009430Y001930D02*
X008680Y001180D01*
X007930Y000430D01*
X004480Y000430D01*
X004230Y000680D01*
X004230Y001580D01*
X003680Y002130D01*
X003680Y004180D01*
X004130Y004480D02*
X004130Y002730D01*
X005680Y001180D01*
X003680Y001180D02*
X002680Y002180D01*
X002680Y004180D01*
X004830Y006330D01*
X005480Y006330D01*
X005830Y006180D02*
X004130Y004480D01*
X005230Y004580D02*
X005230Y003780D01*
X005530Y003480D01*
X007030Y003480D01*
X007680Y004130D01*
X007680Y004180D01*
X009380Y002480D01*
X009430Y001930D02*
X017080Y001930D01*
X019180Y004030D01*
X019180Y004180D01*
X018180Y004180D02*
X016580Y002580D01*
X016580Y002530D01*
X016380Y002330D01*
X012680Y002330D01*
X011680Y003330D01*
X010380Y004880D02*
X009680Y004180D01*
X009580Y005080D02*
X008680Y004180D01*
X007680Y005280D02*
X007280Y004880D01*
X006530Y004880D01*
X005830Y004180D01*
X005680Y004180D01*
X005230Y004580D02*
X006130Y005480D01*
X021730Y005480D01*
X023030Y004180D01*
X023180Y004180D01*
X024030Y004180D02*
X022480Y002630D01*
X020830Y002630D01*
X019630Y003830D01*
X019630Y004580D01*
X019130Y005080D01*
X009580Y005080D01*
X010380Y004880D02*
X014830Y004880D01*
X014980Y004730D01*
X015230Y004730D01*
X017180Y004180D02*
X017330Y004180D01*
X018030Y004880D01*
X018330Y004880D01*
X018630Y004580D01*
X018630Y003780D01*
X016980Y002130D01*
X005230Y002130D01*
X004480Y002880D01*
X000680Y004030D02*
X000680Y001180D01*
X000680Y004030D02*
X004130Y007480D01*
X004130Y011130D01*
X005080Y012080D01*
X029130Y012080D01*
X031530Y009680D01*
X032180Y009680D01*
X029180Y010180D02*
X027480Y011880D01*
X023380Y011880D01*
X022830Y011330D01*
X023530Y011530D02*
X024180Y010880D01*
X024330Y010880D01*
X024730Y010480D01*
X024830Y011530D02*
X026180Y010180D01*
X024830Y011530D02*
X024030Y011530D01*
X019180Y010180D02*
X019030Y010180D01*
X017330Y011880D01*
X005380Y011880D01*
X004530Y011030D01*
X005130Y010480D02*
X005730Y011080D01*
X007930Y011080D01*
X008680Y010330D01*
X008680Y010180D01*
X008680Y010380D01*
X009980Y011680D01*
X015280Y011680D01*
X012630Y011330D02*
X012480Y011480D01*
X010980Y011480D01*
X010530Y011030D01*
X009880Y011030D01*
X008130Y010580D02*
X007830Y010880D01*
X006380Y010880D01*
X005680Y010180D01*
X005130Y010480D02*
X005130Y009780D01*
X004830Y009480D01*
X004630Y009480D01*
X004430Y009280D01*
X004430Y007880D01*
X005830Y006480D01*
X005830Y006180D01*
X007130Y005830D02*
X007130Y008480D01*
X014530Y008480D01*
X014980Y008930D01*
X015730Y008930D01*
X015930Y008730D01*
X018730Y008730D01*
X014380Y008830D02*
X010480Y008830D01*
X010330Y008680D01*
X009330Y008680D01*
X008130Y009880D01*
X008130Y010580D01*
X007130Y009530D02*
X007130Y008480D01*
X010180Y009030D02*
X013380Y009030D01*
X003680Y010180D02*
X003680Y007530D01*
X007680Y005280D02*
X019930Y005280D01*
X021030Y004180D01*
X021180Y004180D01*
X022180Y004180D02*
X020980Y002980D01*
X019780Y003180D02*
X019630Y003180D01*
X019130Y002680D01*
X024030Y004180D02*
X024180Y004180D01*
X025180Y004180D02*
X024130Y005230D01*
X029030Y006230D02*
X032480Y006230D01*
X032880Y005830D01*
X013730Y005830D02*
X013330Y005830D01*
M02*
