G75*
%MOIN*%
%OFA0B0*%
%FSLAX24Y24*%
%IPPOS*%
%LPD*%
%AMOC8*
5,1,8,0,0,1.08239X$1,22.5*
%
%ADD10C,0.0600*%
%ADD11C,0.0680*%
%ADD12OC8,0.0600*%
D10*
X001680Y003920D02*
X001680Y004440D01*
X002680Y004440D02*
X002680Y003920D01*
X003680Y003920D02*
X003680Y004440D01*
X004680Y004440D02*
X004680Y003920D01*
X005680Y003920D02*
X005680Y004440D01*
X006680Y004440D02*
X006680Y003920D01*
X007680Y003920D02*
X007680Y004440D01*
X008680Y004440D02*
X008680Y003920D01*
X009680Y003920D02*
X009680Y004440D01*
X010680Y004440D02*
X010680Y003920D01*
X011680Y003920D02*
X011680Y004440D01*
X012680Y004440D02*
X012680Y003920D01*
X013680Y003920D02*
X013680Y004440D01*
X014680Y004440D02*
X014680Y003920D01*
X017180Y003920D02*
X017180Y004440D01*
X018180Y004440D02*
X018180Y003920D01*
X019180Y003920D02*
X019180Y004440D01*
X020180Y004440D02*
X020180Y003920D01*
X021180Y003920D02*
X021180Y004440D01*
X022180Y004440D02*
X022180Y003920D01*
X023180Y003920D02*
X023180Y004440D01*
X024180Y004440D02*
X024180Y003920D01*
X025180Y003920D02*
X025180Y004440D01*
X026180Y004440D02*
X026180Y003920D01*
X027180Y003920D02*
X027180Y004440D01*
X028180Y004440D02*
X028180Y003920D01*
X029180Y003920D02*
X029180Y004440D01*
X030180Y004440D02*
X030180Y003920D01*
X031920Y003680D02*
X032440Y003680D01*
X034920Y003680D02*
X035440Y003680D01*
X036420Y003680D02*
X036940Y003680D01*
X039420Y003680D02*
X039940Y003680D01*
X039940Y004680D02*
X039420Y004680D01*
X036940Y004680D02*
X036420Y004680D01*
X035440Y004680D02*
X034920Y004680D01*
X032440Y004680D02*
X031920Y004680D01*
X031920Y005680D02*
X032440Y005680D01*
X034920Y005680D02*
X035440Y005680D01*
X036420Y005680D02*
X036940Y005680D01*
X039420Y005680D02*
X039940Y005680D01*
X039940Y006680D02*
X039420Y006680D01*
X036940Y006680D02*
X036420Y006680D01*
X035440Y006680D02*
X034920Y006680D01*
X032440Y006680D02*
X031920Y006680D01*
X031920Y007680D02*
X032440Y007680D01*
X034920Y007680D02*
X035440Y007680D01*
X036420Y007680D02*
X036940Y007680D01*
X039420Y007680D02*
X039940Y007680D01*
X039940Y008680D02*
X039420Y008680D01*
X036940Y008680D02*
X036420Y008680D01*
X035440Y008680D02*
X034920Y008680D01*
X032440Y008680D02*
X031920Y008680D01*
X031920Y009680D02*
X032440Y009680D01*
X030180Y009920D02*
X030180Y010440D01*
X029180Y010440D02*
X029180Y009920D01*
X028180Y009920D02*
X028180Y010440D01*
X027180Y010440D02*
X027180Y009920D01*
X026180Y009920D02*
X026180Y010440D01*
X025180Y010440D02*
X025180Y009920D01*
X024180Y009920D02*
X024180Y010440D01*
X023180Y010440D02*
X023180Y009920D01*
X022180Y009920D02*
X022180Y010440D01*
X021180Y010440D02*
X021180Y009920D01*
X020180Y009920D02*
X020180Y010440D01*
X019180Y010440D02*
X019180Y009920D01*
X018180Y009920D02*
X018180Y010440D01*
X017180Y010440D02*
X017180Y009920D01*
X014680Y009920D02*
X014680Y010440D01*
X013680Y010440D02*
X013680Y009920D01*
X012680Y009920D02*
X012680Y010440D01*
X011680Y010440D02*
X011680Y009920D01*
X010680Y009920D02*
X010680Y010440D01*
X009680Y010440D02*
X009680Y009920D01*
X008680Y009920D02*
X008680Y010440D01*
X007680Y010440D02*
X007680Y009920D01*
X006680Y009920D02*
X006680Y010440D01*
X005680Y010440D02*
X005680Y009920D01*
X004680Y009920D02*
X004680Y010440D01*
X003680Y010440D02*
X003680Y009920D01*
X002680Y009920D02*
X002680Y010440D01*
X001680Y010440D02*
X001680Y009920D01*
X034920Y009680D02*
X035440Y009680D01*
X036420Y009680D02*
X036940Y009680D01*
X039420Y009680D02*
X039940Y009680D01*
D11*
X000680Y001480D02*
X000680Y000880D01*
X001680Y000880D02*
X001680Y001480D01*
X002680Y001480D02*
X002680Y000880D01*
X003680Y000880D02*
X003680Y001480D01*
X004680Y001480D02*
X004680Y000880D01*
X005680Y000880D02*
X005680Y001480D01*
X006680Y001480D02*
X006680Y000880D01*
X007680Y000880D02*
X007680Y001480D01*
X008680Y001480D02*
X008680Y000880D01*
X009680Y000880D02*
X009680Y001480D01*
X010680Y001480D02*
X010680Y000880D01*
X011680Y000880D02*
X011680Y001480D01*
X012680Y001480D02*
X012680Y000880D01*
X013680Y000880D02*
X013680Y001480D01*
X014680Y001480D02*
X014680Y000880D01*
X015680Y000880D02*
X015680Y001480D01*
X016680Y001480D02*
X016680Y000880D01*
X017680Y000880D02*
X017680Y001480D01*
X018680Y001480D02*
X018680Y000880D01*
X019680Y000880D02*
X019680Y001480D01*
X020680Y001480D02*
X020680Y000880D01*
X021680Y000880D02*
X021680Y001480D01*
X022680Y001480D02*
X022680Y000880D01*
X023680Y000880D02*
X023680Y001480D01*
X024680Y001480D02*
X024680Y000880D01*
X025680Y000880D02*
X025680Y001480D01*
X026680Y001480D02*
X026680Y000880D01*
X027680Y000880D02*
X027680Y001480D01*
X028680Y001480D02*
X028680Y000880D01*
X029680Y000880D02*
X029680Y001480D01*
X030680Y001480D02*
X030680Y000880D01*
X031680Y000880D02*
X031680Y001480D01*
X032680Y001480D02*
X032680Y000880D01*
X033680Y000880D02*
X033680Y001480D01*
X034680Y001480D02*
X034680Y000880D01*
X035680Y000880D02*
X035680Y001480D01*
X036680Y001480D02*
X036680Y000880D01*
X037680Y000880D02*
X037680Y001480D01*
X038680Y001480D02*
X038680Y000880D01*
X039680Y000880D02*
X039680Y001480D01*
D12*
X016180Y009180D03*
X016180Y010180D03*
X000680Y010180D03*
X000680Y009180D03*
X034180Y010680D03*
X035180Y010680D03*
X038680Y010680D03*
X039680Y010680D03*
M02*
