%
M48
M72
T01C0.0240
T02C0.0320
T03C0.0400
%
T01
X4480Y2880
X9380Y2480
X11680Y3330
X15230Y4730
X14230Y5830
X13330Y5830
X14930Y6730
X19830Y5830
X23830Y5930
X24130Y5230
X27580Y5980
X28780Y6980
X31030Y7230
X30180Y8380
X30880Y10880
X24030Y11530
X23530Y11530
X22830Y11330
X14380Y8830
X15580Y8580
X18730Y8730
X11130Y11130
X9880Y11030
X12630Y11330
X7130Y9530
X6780Y9130
X4780Y9130
X3680Y7530
X5480Y6330
X7130Y5830
X7280Y4880
X16230Y2680
X19180Y2330
X20980Y2980
X19780Y3180
X19280Y3330
X25280Y3280
X29030Y3280
X10180Y9030
X4530Y11030
T02
X4680Y10180
X3680Y10180
X2680Y10180
X1680Y10180
X680Y10180
X680Y9180
X5680Y10180
X6680Y10180
X7680Y10180
X8680Y10180
X9680Y10180
X10680Y10180
X11680Y10180
X12680Y10180
X13680Y10180
X14680Y10180
X16180Y10180
X17180Y10180
X18180Y10180
X19180Y10180
X20180Y10180
X21180Y10180
X22180Y10180
X23180Y10180
X24180Y10180
X25180Y10180
X26180Y10180
X27180Y10180
X28180Y10180
X29180Y10180
X30180Y10180
X32180Y9680
X32180Y8680
X32180Y7680
X32180Y6680
X32180Y5680
X32180Y4680
X30180Y4180
X29180Y4180
X28180Y4180
X27180Y4180
X26180Y4180
X25180Y4180
X24180Y4180
X23180Y4180
X22180Y4180
X21180Y4180
X20180Y4180
X19180Y4180
X18180Y4180
X17180Y4180
X14680Y4180
X13680Y4180
X12680Y4180
X11680Y4180
X10680Y4180
X9680Y4180
X8680Y4180
X7680Y4180
X6680Y4180
X5680Y4180
X4680Y4180
X3680Y4180
X2680Y4180
X1680Y4180
X16180Y9180
X32180Y3680
X35180Y3680
X36680Y3680
X36680Y4680
X35180Y4680
X35180Y5680
X36680Y5680
X36680Y6680
X35180Y6680
X35180Y7680
X36680Y7680
X36680Y8680
X35180Y8680
X35180Y9680
X36680Y9680
X35180Y10680
X34180Y10680
X38680Y10680
X39680Y10680
X39680Y9680
X39680Y8680
X39680Y7680
X39680Y6680
X39680Y5680
X39680Y4680
X39680Y3680
T03
X680Y1180
X1680Y1180
X2680Y1180
X3680Y1180
X4680Y1180
X5680Y1180
X6680Y1180
X7680Y1180
X8680Y1180
X9680Y1180
X10680Y1180
X11680Y1180
X12680Y1180
X13680Y1180
X14680Y1180
X15680Y1180
X16680Y1180
X17680Y1180
X18680Y1180
X19680Y1180
X20680Y1180
X21680Y1180
X22680Y1180
X23680Y1180
X24680Y1180
X25680Y1180
X26680Y1180
X27680Y1180
X28680Y1180
X29680Y1180
X30680Y1180
X31680Y1180
X32680Y1180
X33680Y1180
X34680Y1180
X35680Y1180
X36680Y1180
X37680Y1180
X38680Y1180
X39680Y1180
M30
