G75*
%MOIN*%
%OFA0B0*%
%FSLAX24Y24*%
%IPPOS*%
%LPD*%
%AMOC8*
5,1,8,0,0,1.08239X$1,22.5*
%
%ADD10C,0.0600*%
%ADD11OC8,0.0600*%
%ADD12OC8,0.0520*%
%ADD13C,0.0520*%
%ADD14C,0.0560*%
%ADD15C,0.0200*%
%ADD16C,0.0400*%
%ADD17C,0.0160*%
%ADD18C,0.0100*%
D10*
X000680Y000880D02*
X000680Y001480D01*
X001680Y001480D02*
X001680Y000880D01*
X002680Y000880D02*
X002680Y001480D01*
X003680Y001480D02*
X003680Y000880D01*
X004680Y000880D02*
X004680Y001480D01*
X005680Y001480D02*
X005680Y000880D01*
X006680Y000880D02*
X006680Y001480D01*
X007680Y001480D02*
X007680Y000880D01*
X008680Y000880D02*
X008680Y001480D01*
X009680Y001480D02*
X009680Y000880D01*
X010680Y000880D02*
X010680Y001480D01*
X011680Y001480D02*
X011680Y000880D01*
X012680Y000880D02*
X012680Y001480D01*
X013680Y001480D02*
X013680Y000880D01*
X014680Y000880D02*
X014680Y001480D01*
X015680Y001480D02*
X015680Y000880D01*
X016680Y000880D02*
X016680Y001480D01*
X017680Y001480D02*
X017680Y000880D01*
X018680Y000880D02*
X018680Y001480D01*
X019680Y001480D02*
X019680Y000880D01*
X020680Y000880D02*
X020680Y001480D01*
X021680Y001480D02*
X021680Y000880D01*
X022680Y000880D02*
X022680Y001480D01*
X023680Y001480D02*
X023680Y000880D01*
X024680Y000880D02*
X024680Y001480D01*
X025680Y001480D02*
X025680Y000880D01*
X026680Y000880D02*
X026680Y001480D01*
X027680Y001480D02*
X027680Y000880D01*
X028680Y000880D02*
X028680Y001480D01*
X029680Y001480D02*
X029680Y000880D01*
X030680Y000880D02*
X030680Y001480D01*
X031680Y001480D02*
X031680Y000880D01*
X032680Y000880D02*
X032680Y001480D01*
X033680Y001480D02*
X033680Y000880D01*
X034680Y000880D02*
X034680Y001480D01*
X035680Y001480D02*
X035680Y000880D01*
X036680Y000880D02*
X036680Y001480D01*
X037680Y001480D02*
X037680Y000880D01*
X038680Y000880D02*
X038680Y001480D01*
X039680Y001480D02*
X039680Y000880D01*
D11*
X029180Y010680D03*
X028180Y010680D03*
X027180Y010680D03*
X026180Y010680D03*
X025180Y010680D03*
X024180Y010680D03*
X023180Y010680D03*
X022180Y010680D03*
X021180Y010680D03*
X020180Y010680D03*
X019180Y010680D03*
X018180Y010680D03*
X017180Y010680D03*
X017180Y011680D03*
X018180Y011680D03*
X019180Y011680D03*
X020180Y011680D03*
X021180Y011680D03*
X022180Y011680D03*
X023180Y011680D03*
X024180Y011680D03*
X025180Y011680D03*
X026180Y011680D03*
X027180Y011680D03*
X028180Y011680D03*
X029180Y011680D03*
X031180Y011680D03*
X008680Y008680D03*
X007680Y008680D03*
X006680Y008680D03*
X005680Y008680D03*
X004680Y008680D03*
X003680Y008680D03*
X002680Y008680D03*
X001680Y008680D03*
X001680Y007680D03*
X002680Y007680D03*
X003680Y007680D03*
X004680Y007680D03*
X005680Y007680D03*
X006680Y007680D03*
X007680Y007680D03*
X008680Y007680D03*
D12*
X010680Y006180D03*
X010680Y005180D03*
X018680Y004680D03*
X018680Y003680D03*
X001180Y005180D03*
X001180Y006180D03*
D13*
X002180Y005920D02*
X002180Y006440D01*
X003180Y006440D02*
X003180Y005920D01*
X004180Y005920D02*
X004180Y006440D01*
X005180Y006440D02*
X005180Y005920D01*
X006180Y005920D02*
X006180Y006440D01*
X007180Y006440D02*
X007180Y005920D01*
X008180Y005920D02*
X008180Y006440D01*
X009180Y006440D02*
X009180Y005920D01*
X011680Y005920D02*
X011680Y006440D01*
X012680Y006440D02*
X012680Y005920D01*
X013680Y005920D02*
X013680Y006440D01*
X014680Y006440D02*
X014680Y005920D01*
X015680Y005920D02*
X015680Y006440D01*
X016680Y006440D02*
X016680Y005920D01*
X017680Y005920D02*
X017680Y006440D01*
X019680Y008420D02*
X019680Y008940D01*
X020680Y008940D02*
X020680Y008420D01*
X021680Y008420D02*
X021680Y008940D01*
X022680Y008940D02*
X022680Y008420D01*
X023680Y008420D02*
X023680Y008940D01*
X024680Y008940D02*
X024680Y008420D01*
X025680Y008420D02*
X025680Y008940D01*
X026680Y008940D02*
X026680Y008420D01*
X027680Y008420D02*
X027680Y008940D01*
X028680Y008940D02*
X028680Y008420D01*
X029680Y008420D02*
X029680Y008940D01*
X030680Y008940D02*
X030680Y008420D01*
X031680Y008420D02*
X031680Y008940D01*
X032680Y008940D02*
X032680Y008420D01*
X033680Y008420D02*
X033680Y008940D01*
X034680Y008940D02*
X034680Y008420D01*
X035680Y008420D02*
X035680Y008940D01*
X036680Y008940D02*
X036680Y008420D01*
X037680Y008420D02*
X037680Y008940D01*
X038680Y008940D02*
X038680Y008420D01*
X038680Y002940D02*
X038680Y002420D01*
X037680Y002420D02*
X037680Y002940D01*
X036680Y002940D02*
X036680Y002420D01*
X035680Y002420D02*
X035680Y002940D01*
X034680Y002940D02*
X034680Y002420D01*
X033680Y002420D02*
X033680Y002940D01*
X032680Y002940D02*
X032680Y002420D01*
X031680Y002420D02*
X031680Y002940D01*
X030680Y002940D02*
X030680Y002420D01*
X029680Y002420D02*
X029680Y002940D01*
X028680Y002940D02*
X028680Y002420D01*
X027680Y002420D02*
X027680Y002940D01*
X026680Y002940D02*
X026680Y002420D01*
X025680Y002420D02*
X025680Y002940D01*
X024680Y002940D02*
X024680Y002420D01*
X023680Y002420D02*
X023680Y002940D01*
X022680Y002940D02*
X022680Y002420D01*
X021680Y002420D02*
X021680Y002940D01*
X020680Y002940D02*
X020680Y002420D01*
X019680Y002420D02*
X019680Y002940D01*
X017680Y002920D02*
X017680Y003440D01*
X016680Y003440D02*
X016680Y002920D01*
X015680Y002920D02*
X015680Y003440D01*
X014680Y003440D02*
X014680Y002920D01*
X013680Y002920D02*
X013680Y003440D01*
X012680Y003440D02*
X012680Y002920D01*
X011680Y002920D02*
X011680Y003440D01*
X009180Y003440D02*
X009180Y002920D01*
X008180Y002920D02*
X008180Y003440D01*
X007180Y003440D02*
X007180Y002920D01*
X006180Y002920D02*
X006180Y003440D01*
X005180Y003440D02*
X005180Y002920D01*
X004180Y002920D02*
X004180Y003440D01*
X003180Y003440D02*
X003180Y002920D01*
X002180Y002920D02*
X002180Y003440D01*
D14*
X012180Y007900D02*
X012180Y008460D01*
X013180Y008460D02*
X013180Y007900D01*
X014180Y007900D02*
X014180Y008460D01*
X014180Y010400D02*
X014180Y010960D01*
X013180Y010960D02*
X013180Y010400D01*
X012180Y010400D02*
X012180Y010960D01*
D15*
X014180Y010680D02*
X014180Y009180D01*
X014230Y009130D01*
X015680Y009130D01*
X019180Y005630D01*
X019180Y004480D01*
X018730Y004030D01*
X018730Y003730D01*
X018680Y003680D01*
X018680Y002980D01*
X017680Y001980D01*
X017680Y001180D01*
X016680Y001180D02*
X016680Y001480D01*
X017630Y002430D01*
X017630Y003130D01*
X017680Y003180D01*
X017680Y003680D01*
X018430Y004430D01*
X016680Y006180D01*
X013680Y007680D02*
X012930Y006930D01*
X012430Y006930D01*
X011680Y006180D01*
X010680Y006180D02*
X010680Y006430D01*
X008930Y008180D01*
X008430Y008180D01*
X008180Y007930D01*
X008180Y007430D01*
X007930Y007180D01*
X003180Y007180D01*
X002180Y006180D01*
X005680Y003630D02*
X005980Y003930D01*
X006430Y003930D01*
X007180Y003180D01*
X006180Y002230D02*
X005680Y002730D01*
X005680Y003630D01*
X006180Y002230D02*
X016780Y002230D01*
X020030Y003430D02*
X023930Y003430D01*
X024680Y002680D01*
X018680Y004680D02*
X018430Y004430D01*
X013680Y007680D02*
X013680Y008680D01*
X014180Y009180D01*
X017180Y010680D02*
X017680Y011180D01*
X018430Y011180D01*
X018680Y011430D01*
X018680Y011930D01*
X018930Y012180D01*
X022430Y012180D01*
X022680Y011930D01*
X022680Y010430D01*
X023180Y009930D01*
X023180Y008230D01*
X023680Y007730D01*
X025980Y007730D01*
X026130Y007880D01*
X026930Y007880D01*
D16*
X026930Y007880D03*
X024180Y007330D03*
X022880Y006630D03*
X021330Y006180D03*
X024280Y006280D03*
X027930Y006630D03*
X024880Y004830D03*
X023880Y003830D03*
X024680Y003530D03*
X020030Y003430D03*
X017180Y002580D03*
X016780Y002230D03*
X019080Y001930D03*
X030130Y004130D03*
X033880Y006980D03*
X025180Y009580D03*
X027030Y009880D03*
X022430Y007630D03*
D17*
X000952Y000473D02*
X000920Y000460D01*
X001440Y000460D01*
X001408Y000473D01*
X001273Y000608D01*
X001200Y000785D01*
X001200Y001575D01*
X001273Y001752D01*
X001408Y001887D01*
X001585Y001960D01*
X001775Y001960D01*
X001952Y001887D01*
X002087Y001752D01*
X002160Y001575D01*
X002160Y000785D01*
X002087Y000608D01*
X001952Y000473D01*
X001920Y000460D01*
X002440Y000460D01*
X002408Y000473D01*
X002273Y000608D01*
X002200Y000785D01*
X002200Y001575D01*
X002273Y001752D01*
X002408Y001887D01*
X002585Y001960D01*
X002775Y001960D01*
X002952Y001887D01*
X003087Y001752D01*
X003160Y001575D01*
X003160Y000785D01*
X003087Y000608D01*
X002952Y000473D01*
X002920Y000460D01*
X003440Y000460D01*
X003408Y000473D01*
X003273Y000608D01*
X003200Y000785D01*
X003200Y001575D01*
X003273Y001752D01*
X003408Y001887D01*
X003585Y001960D01*
X003775Y001960D01*
X003952Y001887D01*
X004087Y001752D01*
X004160Y001575D01*
X004160Y000785D01*
X004087Y000608D01*
X003952Y000473D01*
X003920Y000460D01*
X004440Y000460D01*
X004408Y000473D01*
X004273Y000608D01*
X004200Y000785D01*
X004200Y001575D01*
X004273Y001752D01*
X004353Y001832D01*
X004350Y001835D01*
X003533Y002651D01*
X003429Y002547D01*
X003268Y002480D01*
X003092Y002480D01*
X002931Y002547D01*
X002807Y002671D01*
X002740Y002832D01*
X002740Y003528D01*
X002807Y003689D01*
X002931Y003813D01*
X003092Y003880D01*
X003268Y003880D01*
X003429Y003813D01*
X003553Y003689D01*
X003620Y003528D01*
X003620Y003215D01*
X003740Y003095D01*
X003740Y003528D01*
X003807Y003689D01*
X003931Y003813D01*
X004030Y003854D01*
X002635Y005250D01*
X001935Y005250D01*
X001635Y005550D01*
X001500Y005685D01*
X001500Y005878D01*
X001362Y005740D01*
X000998Y005740D01*
X000740Y005998D01*
X000740Y006362D01*
X000998Y006620D01*
X001362Y006620D01*
X001500Y006482D01*
X001500Y007175D01*
X001525Y007200D01*
X001481Y007200D01*
X001200Y007481D01*
X001200Y007879D01*
X001481Y008160D01*
X001879Y008160D01*
X002032Y008007D01*
X002350Y008325D01*
X002353Y008328D01*
X002200Y008481D01*
X002200Y008879D01*
X002481Y009160D01*
X002879Y009160D01*
X003160Y008879D01*
X003160Y008481D01*
X003139Y008460D01*
X003221Y008460D01*
X003200Y008481D01*
X003200Y008879D01*
X003481Y009160D01*
X003879Y009160D01*
X004160Y008879D01*
X004160Y008481D01*
X004139Y008460D01*
X004221Y008460D01*
X004200Y008481D01*
X004200Y008879D01*
X004481Y009160D01*
X004879Y009160D01*
X005160Y008879D01*
X005160Y008481D01*
X005139Y008460D01*
X005221Y008460D01*
X005200Y008481D01*
X005200Y008879D01*
X005481Y009160D01*
X005879Y009160D01*
X006160Y008879D01*
X006160Y008481D01*
X006139Y008460D01*
X006221Y008460D01*
X006200Y008481D01*
X006200Y008879D01*
X006481Y009160D01*
X006879Y009160D01*
X007160Y008879D01*
X007160Y008481D01*
X007139Y008460D01*
X007221Y008460D01*
X007200Y008481D01*
X007200Y008879D01*
X007481Y009160D01*
X007835Y009160D01*
X010535Y011860D01*
X015475Y011860D01*
X015610Y011725D01*
X016700Y010635D01*
X016700Y010660D01*
X017160Y010660D01*
X017160Y010700D01*
X017160Y011160D01*
X016981Y011160D01*
X016700Y010879D01*
X016700Y010700D01*
X017160Y010700D01*
X017200Y010700D01*
X017200Y011160D01*
X017379Y011160D01*
X017660Y010879D01*
X017660Y010700D01*
X017200Y010700D01*
X017200Y010660D01*
X017660Y010660D01*
X017660Y010481D01*
X017379Y010200D01*
X017200Y010200D01*
X017200Y010660D01*
X017160Y010660D01*
X017160Y010200D01*
X017135Y010200D01*
X020988Y006347D01*
X021008Y006395D01*
X021115Y006502D01*
X021254Y006560D01*
X021406Y006560D01*
X021545Y006502D01*
X021637Y006410D01*
X022563Y006410D01*
X022558Y006415D01*
X022500Y006554D01*
X022500Y006685D01*
X021135Y008050D01*
X021033Y008151D01*
X020929Y008047D01*
X020768Y007980D01*
X020592Y007980D01*
X020431Y008047D01*
X020307Y008171D01*
X020240Y008332D01*
X020240Y009028D01*
X020307Y009189D01*
X020431Y009313D01*
X020592Y009380D01*
X020768Y009380D01*
X020929Y009313D01*
X021000Y009242D01*
X021000Y010175D01*
X021025Y010200D01*
X020981Y010200D01*
X020700Y010481D01*
X020700Y010879D01*
X020981Y011160D01*
X021375Y011160D01*
X021335Y011200D01*
X020981Y011200D01*
X020700Y011481D01*
X020700Y011879D01*
X020981Y012160D01*
X021379Y012160D01*
X021660Y011879D01*
X021660Y011525D01*
X021700Y011485D01*
X021700Y011879D01*
X021981Y012160D01*
X022379Y012160D01*
X022660Y011879D01*
X022660Y011481D01*
X022379Y011200D01*
X021981Y011200D01*
X021860Y011321D01*
X021860Y011039D01*
X021981Y011160D01*
X022379Y011160D01*
X022660Y010879D01*
X022660Y010481D01*
X022410Y010231D01*
X022410Y009292D01*
X022431Y009313D01*
X022592Y009380D01*
X022768Y009380D01*
X022929Y009313D01*
X023053Y009189D01*
X023120Y009028D01*
X023120Y008332D01*
X023053Y008171D01*
X022929Y008047D01*
X022910Y008039D01*
X022910Y007975D01*
X024025Y006860D01*
X024160Y006725D01*
X024160Y006642D01*
X024204Y006660D01*
X024356Y006660D01*
X024495Y006602D01*
X024587Y006510D01*
X027568Y006510D01*
X027550Y006554D01*
X027550Y006706D01*
X027608Y006845D01*
X027700Y006937D01*
X027700Y007825D01*
X027110Y007235D01*
X026975Y007100D01*
X024487Y007100D01*
X024395Y007008D01*
X024256Y006950D01*
X024104Y006950D01*
X023965Y007008D01*
X023858Y007115D01*
X023800Y007254D01*
X023800Y007406D01*
X023858Y007545D01*
X023965Y007652D01*
X024104Y007710D01*
X024256Y007710D01*
X024395Y007652D01*
X024487Y007560D01*
X026785Y007560D01*
X027351Y008127D01*
X027307Y008171D01*
X027240Y008332D01*
X027240Y009028D01*
X027307Y009189D01*
X027431Y009313D01*
X027592Y009380D01*
X027705Y009380D01*
X027372Y009713D01*
X027352Y009665D01*
X027245Y009558D01*
X027106Y009500D01*
X026975Y009500D01*
X026830Y009354D01*
X026929Y009313D01*
X027053Y009189D01*
X027120Y009028D01*
X027120Y008332D01*
X027053Y008171D01*
X026929Y008047D01*
X026768Y007980D01*
X026592Y007980D01*
X026431Y008047D01*
X026327Y008151D01*
X026325Y008150D01*
X025925Y007750D01*
X024435Y007750D01*
X024300Y007885D01*
X024033Y008151D01*
X023929Y008047D01*
X023768Y007980D01*
X023592Y007980D01*
X023431Y008047D01*
X023307Y008171D01*
X023240Y008332D01*
X023240Y009028D01*
X023307Y009189D01*
X023431Y009313D01*
X023592Y009380D01*
X023768Y009380D01*
X023929Y009313D01*
X024053Y009189D01*
X024120Y009028D01*
X024120Y008715D01*
X024240Y008595D01*
X024240Y009028D01*
X024307Y009189D01*
X024431Y009313D01*
X024450Y009321D01*
X024450Y009435D01*
X023532Y010353D01*
X023379Y010200D01*
X022981Y010200D01*
X022700Y010481D01*
X022700Y010879D01*
X022981Y011160D01*
X023379Y011160D01*
X023532Y011007D01*
X023850Y011325D01*
X023850Y011325D01*
X023853Y011328D01*
X023700Y011481D01*
X023700Y011879D01*
X023981Y012160D01*
X024379Y012160D01*
X024532Y012007D01*
X024921Y012396D01*
X000460Y012396D01*
X000460Y001908D01*
X000585Y001960D01*
X000775Y001960D01*
X000952Y001887D01*
X001087Y001752D01*
X001160Y001575D01*
X001160Y000785D01*
X001087Y000608D01*
X000952Y000473D01*
X000976Y000497D02*
X001384Y000497D01*
X001253Y000656D02*
X001107Y000656D01*
X001160Y000814D02*
X001200Y000814D01*
X001200Y000973D02*
X001160Y000973D01*
X001160Y001131D02*
X001200Y001131D01*
X001200Y001290D02*
X001160Y001290D01*
X001160Y001448D02*
X001200Y001448D01*
X001213Y001607D02*
X001147Y001607D01*
X001074Y001765D02*
X001286Y001765D01*
X001496Y001924D02*
X000864Y001924D01*
X000496Y001924D02*
X000460Y001924D01*
X000460Y002082D02*
X004103Y002082D01*
X004261Y001924D02*
X003864Y001924D01*
X004074Y001765D02*
X004286Y001765D01*
X004213Y001607D02*
X004147Y001607D01*
X004160Y001448D02*
X004200Y001448D01*
X004200Y001290D02*
X004160Y001290D01*
X004160Y001131D02*
X004200Y001131D01*
X004200Y000973D02*
X004160Y000973D01*
X004160Y000814D02*
X004200Y000814D01*
X004253Y000656D02*
X004107Y000656D01*
X003976Y000497D02*
X004384Y000497D01*
X003384Y000497D02*
X002976Y000497D01*
X003107Y000656D02*
X003253Y000656D01*
X003200Y000814D02*
X003160Y000814D01*
X003160Y000973D02*
X003200Y000973D01*
X003200Y001131D02*
X003160Y001131D01*
X003160Y001290D02*
X003200Y001290D01*
X003200Y001448D02*
X003160Y001448D01*
X003147Y001607D02*
X003213Y001607D01*
X003286Y001765D02*
X003074Y001765D01*
X002864Y001924D02*
X003496Y001924D01*
X002496Y001924D02*
X001864Y001924D01*
X002074Y001765D02*
X002286Y001765D01*
X002213Y001607D02*
X002147Y001607D01*
X002160Y001448D02*
X002200Y001448D01*
X002200Y001290D02*
X002160Y001290D01*
X002160Y001131D02*
X002200Y001131D01*
X002200Y000973D02*
X002160Y000973D01*
X002160Y000814D02*
X002200Y000814D01*
X002253Y000656D02*
X002107Y000656D01*
X001976Y000497D02*
X002384Y000497D01*
X003944Y002241D02*
X000460Y002241D01*
X000460Y002399D02*
X003786Y002399D01*
X003627Y002558D02*
X003440Y002558D01*
X002920Y002558D02*
X002440Y002558D01*
X002429Y002547D02*
X002553Y002671D01*
X002620Y002832D01*
X002620Y003528D01*
X002553Y003689D01*
X002429Y003813D01*
X002268Y003880D01*
X002092Y003880D01*
X001931Y003813D01*
X001807Y003689D01*
X001740Y003528D01*
X001740Y002832D01*
X001807Y002671D01*
X001931Y002547D01*
X002092Y002480D01*
X002268Y002480D01*
X002429Y002547D01*
X002572Y002716D02*
X002788Y002716D01*
X002740Y002875D02*
X002620Y002875D01*
X002620Y003033D02*
X002740Y003033D01*
X002740Y003192D02*
X002620Y003192D01*
X002620Y003350D02*
X002740Y003350D01*
X002740Y003509D02*
X002620Y003509D01*
X002562Y003667D02*
X002798Y003667D01*
X002961Y003826D02*
X002399Y003826D01*
X001961Y003826D02*
X000460Y003826D01*
X000460Y003984D02*
X003901Y003984D01*
X003961Y003826D02*
X003399Y003826D01*
X003562Y003667D02*
X003798Y003667D01*
X003740Y003509D02*
X003620Y003509D01*
X003620Y003350D02*
X003740Y003350D01*
X003740Y003192D02*
X003644Y003192D01*
X001740Y003192D02*
X000460Y003192D01*
X000460Y003350D02*
X001740Y003350D01*
X001740Y003509D02*
X000460Y003509D01*
X000460Y003667D02*
X001798Y003667D01*
X001740Y003033D02*
X000460Y003033D01*
X000460Y002875D02*
X001740Y002875D01*
X001788Y002716D02*
X000460Y002716D01*
X000460Y002558D02*
X001920Y002558D01*
X000460Y004143D02*
X003742Y004143D01*
X003584Y004301D02*
X000460Y004301D01*
X000460Y004460D02*
X003425Y004460D01*
X003267Y004618D02*
X000460Y004618D01*
X000460Y004777D02*
X000961Y004777D01*
X000998Y004740D02*
X000740Y004998D01*
X000740Y005180D01*
X001180Y005180D01*
X001180Y005180D01*
X001180Y005620D01*
X001362Y005620D01*
X001620Y005362D01*
X001620Y005180D01*
X001180Y005180D01*
X001180Y005180D01*
X001180Y005180D01*
X001180Y005620D01*
X000998Y005620D01*
X000740Y005362D01*
X000740Y005180D01*
X001180Y005180D01*
X001620Y005180D01*
X001620Y004998D01*
X001362Y004740D01*
X001180Y004740D01*
X001180Y005180D01*
X001180Y005180D01*
X001180Y004740D01*
X000998Y004740D01*
X001180Y004777D02*
X001180Y004777D01*
X001180Y004935D02*
X001180Y004935D01*
X001180Y005094D02*
X001180Y005094D01*
X001557Y004935D02*
X002950Y004935D01*
X003108Y004777D02*
X001399Y004777D01*
X001620Y005094D02*
X002791Y005094D01*
X001933Y005252D02*
X001620Y005252D01*
X001572Y005411D02*
X001774Y005411D01*
X001616Y005569D02*
X001413Y005569D01*
X001500Y005728D02*
X000460Y005728D01*
X000460Y005886D02*
X000852Y005886D01*
X000740Y006045D02*
X000460Y006045D01*
X000460Y006203D02*
X000740Y006203D01*
X000740Y006362D02*
X000460Y006362D01*
X000460Y006520D02*
X000898Y006520D01*
X000460Y006679D02*
X001500Y006679D01*
X001500Y006520D02*
X001462Y006520D01*
X001500Y006837D02*
X000460Y006837D01*
X000460Y006996D02*
X001500Y006996D01*
X001500Y007154D02*
X000460Y007154D01*
X000460Y007313D02*
X001369Y007313D01*
X001210Y007471D02*
X000460Y007471D01*
X000460Y007630D02*
X001200Y007630D01*
X001200Y007788D02*
X000460Y007788D01*
X000460Y007947D02*
X001268Y007947D01*
X001426Y008105D02*
X000460Y008105D01*
X000460Y008264D02*
X001418Y008264D01*
X001481Y008200D02*
X001879Y008200D01*
X002160Y008481D01*
X002160Y008879D01*
X001879Y009160D01*
X001481Y009160D01*
X001200Y008879D01*
X001200Y008481D01*
X001481Y008200D01*
X001934Y008105D02*
X002130Y008105D01*
X002288Y008264D02*
X001942Y008264D01*
X002101Y008422D02*
X002259Y008422D01*
X002200Y008581D02*
X002160Y008581D01*
X002160Y008739D02*
X002200Y008739D01*
X002219Y008898D02*
X002141Y008898D01*
X001983Y009056D02*
X002377Y009056D01*
X002983Y009056D02*
X003377Y009056D01*
X003219Y008898D02*
X003141Y008898D01*
X003160Y008739D02*
X003200Y008739D01*
X003200Y008581D02*
X003160Y008581D01*
X003983Y009056D02*
X004377Y009056D01*
X004219Y008898D02*
X004141Y008898D01*
X004160Y008739D02*
X004200Y008739D01*
X004200Y008581D02*
X004160Y008581D01*
X005160Y008581D02*
X005200Y008581D01*
X005200Y008739D02*
X005160Y008739D01*
X005141Y008898D02*
X005219Y008898D01*
X005377Y009056D02*
X004983Y009056D01*
X005983Y009056D02*
X006377Y009056D01*
X006219Y008898D02*
X006141Y008898D01*
X006160Y008739D02*
X006200Y008739D01*
X006200Y008581D02*
X006160Y008581D01*
X007160Y008581D02*
X007200Y008581D01*
X007200Y008739D02*
X007160Y008739D01*
X007141Y008898D02*
X007219Y008898D01*
X007377Y009056D02*
X006983Y009056D01*
X007889Y009215D02*
X000460Y009215D01*
X000460Y009373D02*
X008048Y009373D01*
X008206Y009532D02*
X000460Y009532D01*
X000460Y009690D02*
X008365Y009690D01*
X008523Y009849D02*
X000460Y009849D01*
X000460Y010007D02*
X008682Y010007D01*
X008840Y010166D02*
X000460Y010166D01*
X000460Y010324D02*
X008999Y010324D01*
X009157Y010483D02*
X000460Y010483D01*
X000460Y010641D02*
X009316Y010641D01*
X009474Y010800D02*
X000460Y010800D01*
X000460Y010958D02*
X009633Y010958D01*
X009791Y011117D02*
X000460Y011117D01*
X000460Y011275D02*
X009950Y011275D01*
X010108Y011434D02*
X000460Y011434D01*
X000460Y011592D02*
X010267Y011592D01*
X010425Y011751D02*
X000460Y011751D01*
X000460Y011909D02*
X016730Y011909D01*
X016700Y011879D02*
X016700Y011481D01*
X016981Y011200D01*
X017379Y011200D01*
X017660Y011481D01*
X017660Y011879D01*
X017379Y012160D01*
X016981Y012160D01*
X016700Y011879D01*
X016700Y011751D02*
X015585Y011751D01*
X015743Y011592D02*
X016700Y011592D01*
X016748Y011434D02*
X015902Y011434D01*
X016060Y011275D02*
X016906Y011275D01*
X016938Y011117D02*
X016219Y011117D01*
X016377Y010958D02*
X016779Y010958D01*
X016700Y010800D02*
X016536Y010800D01*
X016694Y010641D02*
X016700Y010641D01*
X017160Y010641D02*
X017200Y010641D01*
X017200Y010800D02*
X017160Y010800D01*
X017160Y010958D02*
X017200Y010958D01*
X017200Y011117D02*
X017160Y011117D01*
X017422Y011117D02*
X017938Y011117D01*
X017981Y011160D02*
X017700Y010879D01*
X017700Y010481D01*
X017981Y010200D01*
X018379Y010200D01*
X018660Y010481D01*
X018660Y010879D01*
X018379Y011160D01*
X017981Y011160D01*
X017981Y011200D02*
X018379Y011200D01*
X018660Y011481D01*
X018660Y011879D01*
X018379Y012160D01*
X017981Y012160D01*
X017700Y011879D01*
X017700Y011481D01*
X017981Y011200D01*
X017906Y011275D02*
X017454Y011275D01*
X017612Y011434D02*
X017748Y011434D01*
X017700Y011592D02*
X017660Y011592D01*
X017660Y011751D02*
X017700Y011751D01*
X017730Y011909D02*
X017630Y011909D01*
X017471Y012068D02*
X017889Y012068D01*
X018471Y012068D02*
X018889Y012068D01*
X018981Y012160D02*
X018700Y011879D01*
X018700Y011481D01*
X018981Y011200D01*
X019379Y011200D01*
X019660Y011481D01*
X019660Y011879D01*
X019379Y012160D01*
X018981Y012160D01*
X019471Y012068D02*
X019889Y012068D01*
X019981Y012160D02*
X019700Y011879D01*
X019700Y011481D01*
X019981Y011200D01*
X020379Y011200D01*
X020660Y011481D01*
X020660Y011879D01*
X020379Y012160D01*
X019981Y012160D01*
X019730Y011909D02*
X019630Y011909D01*
X019660Y011751D02*
X019700Y011751D01*
X019700Y011592D02*
X019660Y011592D01*
X019612Y011434D02*
X019748Y011434D01*
X019906Y011275D02*
X019454Y011275D01*
X019379Y011160D02*
X018981Y011160D01*
X018700Y010879D01*
X018700Y010481D01*
X018981Y010200D01*
X019379Y010200D01*
X019660Y010481D01*
X019660Y010879D01*
X019379Y011160D01*
X019422Y011117D02*
X019938Y011117D01*
X019981Y011160D02*
X019700Y010879D01*
X019700Y010481D01*
X019981Y010200D01*
X020379Y010200D01*
X020660Y010481D01*
X020660Y010879D01*
X020379Y011160D01*
X019981Y011160D01*
X019779Y010958D02*
X019581Y010958D01*
X019660Y010800D02*
X019700Y010800D01*
X019700Y010641D02*
X019660Y010641D01*
X019660Y010483D02*
X019700Y010483D01*
X019857Y010324D02*
X019503Y010324D01*
X018857Y010324D02*
X018503Y010324D01*
X018660Y010483D02*
X018700Y010483D01*
X018700Y010641D02*
X018660Y010641D01*
X018660Y010800D02*
X018700Y010800D01*
X018779Y010958D02*
X018581Y010958D01*
X018422Y011117D02*
X018938Y011117D01*
X018906Y011275D02*
X018454Y011275D01*
X018612Y011434D02*
X018748Y011434D01*
X018700Y011592D02*
X018660Y011592D01*
X018660Y011751D02*
X018700Y011751D01*
X018730Y011909D02*
X018630Y011909D01*
X016889Y012068D02*
X000460Y012068D01*
X000460Y012226D02*
X024751Y012226D01*
X024909Y012385D02*
X000460Y012385D01*
X009365Y009690D02*
X013900Y009690D01*
X013900Y009532D02*
X009207Y009532D01*
X009048Y009373D02*
X013900Y009373D01*
X013900Y009296D02*
X013521Y008917D01*
X013447Y008843D01*
X013441Y008850D01*
X013271Y008920D01*
X013088Y008920D01*
X012919Y008850D01*
X012790Y008721D01*
X012720Y008551D01*
X012720Y008045D01*
X012640Y007965D01*
X012640Y008551D01*
X012570Y008721D01*
X012441Y008850D01*
X012271Y008920D01*
X012088Y008920D01*
X011919Y008850D01*
X011790Y008721D01*
X011720Y008551D01*
X011720Y007808D01*
X011790Y007639D01*
X011877Y007552D01*
X011850Y007525D01*
X011000Y006675D01*
X011000Y006482D01*
X010934Y006548D01*
X010917Y006589D01*
X010839Y006667D01*
X009092Y008414D01*
X009160Y008481D01*
X009160Y008879D01*
X008879Y009160D01*
X008835Y009160D01*
X010875Y011200D01*
X011786Y011200D01*
X011754Y011137D01*
X011731Y011068D01*
X011720Y010996D01*
X011720Y010690D01*
X012170Y010690D01*
X012170Y010670D01*
X012190Y010670D01*
X012190Y010690D01*
X012640Y010690D01*
X012640Y010996D01*
X012629Y011068D01*
X012606Y011137D01*
X012574Y011200D01*
X012782Y011200D01*
X012720Y011051D01*
X012720Y010308D01*
X012790Y010139D01*
X012919Y010010D01*
X013088Y009940D01*
X013271Y009940D01*
X013441Y010010D01*
X013570Y010139D01*
X013640Y010308D01*
X013640Y011051D01*
X013578Y011200D01*
X013782Y011200D01*
X013720Y011051D01*
X013720Y010308D01*
X013790Y010139D01*
X013900Y010029D01*
X013900Y009296D01*
X013819Y009215D02*
X008890Y009215D01*
X008983Y009056D02*
X013660Y009056D01*
X013502Y008898D02*
X013326Y008898D01*
X013034Y008898D02*
X012326Y008898D01*
X012552Y008739D02*
X012808Y008739D01*
X012732Y008581D02*
X012628Y008581D01*
X012640Y008422D02*
X012720Y008422D01*
X012720Y008264D02*
X012640Y008264D01*
X012640Y008105D02*
X012720Y008105D01*
X011720Y008105D02*
X009401Y008105D01*
X009559Y007947D02*
X011720Y007947D01*
X011728Y007788D02*
X009718Y007788D01*
X009876Y007630D02*
X011800Y007630D01*
X011796Y007471D02*
X010035Y007471D01*
X010193Y007313D02*
X011637Y007313D01*
X011479Y007154D02*
X010352Y007154D01*
X010510Y006996D02*
X011320Y006996D01*
X011162Y006837D02*
X010669Y006837D01*
X010827Y006679D02*
X011003Y006679D01*
X011000Y006520D02*
X010962Y006520D01*
X012120Y006224D02*
X012240Y006344D01*
X012240Y006180D01*
X012680Y006180D01*
X013120Y006180D01*
X013120Y006475D01*
X013109Y006543D01*
X013088Y006609D01*
X013056Y006671D01*
X013051Y006677D01*
X013089Y006693D01*
X013167Y006771D01*
X013913Y007517D01*
X013919Y007510D01*
X013950Y007497D01*
X013950Y006792D01*
X013929Y006813D01*
X013768Y006880D01*
X013592Y006880D01*
X013431Y006813D01*
X013307Y006689D01*
X013240Y006528D01*
X013240Y005832D01*
X013307Y005671D01*
X013431Y005547D01*
X013592Y005480D01*
X013768Y005480D01*
X013929Y005547D01*
X013950Y005568D01*
X013950Y003792D01*
X013929Y003813D01*
X013768Y003880D01*
X013592Y003880D01*
X013431Y003813D01*
X013307Y003689D01*
X013240Y003528D01*
X013240Y003095D01*
X013120Y003215D01*
X013120Y003528D01*
X013053Y003689D01*
X012929Y003813D01*
X012768Y003880D01*
X012592Y003880D01*
X012431Y003813D01*
X012307Y003689D01*
X012240Y003528D01*
X012240Y002832D01*
X012307Y002671D01*
X012431Y002547D01*
X012520Y002510D01*
X011840Y002510D01*
X011929Y002547D01*
X012053Y002671D01*
X012120Y002832D01*
X012120Y003528D01*
X012053Y003689D01*
X011929Y003813D01*
X011768Y003880D01*
X011592Y003880D01*
X011431Y003813D01*
X011307Y003689D01*
X011240Y003528D01*
X011240Y002832D01*
X011307Y002671D01*
X011431Y002547D01*
X011520Y002510D01*
X009342Y002510D01*
X009349Y002512D01*
X009411Y002544D01*
X009467Y002584D01*
X009516Y002633D01*
X009556Y002689D01*
X009588Y002751D01*
X009609Y002817D01*
X009620Y002885D01*
X009620Y003180D01*
X009620Y003475D01*
X009609Y003543D01*
X009588Y003609D01*
X009556Y003671D01*
X009516Y003727D01*
X009467Y003776D01*
X009411Y003816D01*
X009349Y003848D01*
X009283Y003869D01*
X009215Y003880D01*
X009180Y003880D01*
X009180Y003180D01*
X009180Y003180D01*
X009620Y003180D01*
X009180Y003180D01*
X009180Y003180D01*
X009180Y003880D01*
X009145Y003880D01*
X009098Y003872D01*
X010240Y005015D01*
X010240Y004998D01*
X010498Y004740D01*
X010680Y004740D01*
X010862Y004740D01*
X011120Y004998D01*
X011120Y005180D01*
X011120Y005362D01*
X010954Y005528D01*
X011245Y005820D01*
X011307Y005671D01*
X011431Y005547D01*
X011592Y005480D01*
X011768Y005480D01*
X011929Y005547D01*
X012053Y005671D01*
X012120Y005832D01*
X012120Y006224D01*
X012120Y006203D02*
X012240Y006203D01*
X012240Y006180D02*
X012240Y005885D01*
X012251Y005817D01*
X012272Y005751D01*
X012304Y005689D01*
X012344Y005633D01*
X012393Y005584D01*
X012449Y005544D01*
X012511Y005512D01*
X012577Y005491D01*
X012645Y005480D01*
X012680Y005480D01*
X012715Y005480D01*
X012783Y005491D01*
X012849Y005512D01*
X012911Y005544D01*
X012967Y005584D01*
X013016Y005633D01*
X013056Y005689D01*
X013088Y005751D01*
X013109Y005817D01*
X013120Y005885D01*
X013120Y006180D01*
X012680Y006180D01*
X012680Y006180D01*
X012680Y005480D01*
X012680Y006180D01*
X012680Y006180D01*
X012680Y006180D01*
X012240Y006180D01*
X012240Y006045D02*
X012120Y006045D01*
X012120Y005886D02*
X012240Y005886D01*
X012284Y005728D02*
X012077Y005728D01*
X011951Y005569D02*
X012415Y005569D01*
X012680Y005569D02*
X012680Y005569D01*
X012680Y005728D02*
X012680Y005728D01*
X012680Y005886D02*
X012680Y005886D01*
X013076Y005728D02*
X013283Y005728D01*
X013240Y005886D02*
X013120Y005886D01*
X013120Y006045D02*
X013240Y006045D01*
X013240Y006203D02*
X013120Y006203D01*
X013120Y006362D02*
X013240Y006362D01*
X013240Y006520D02*
X013113Y006520D01*
X013055Y006679D02*
X013303Y006679D01*
X013233Y006837D02*
X013489Y006837D01*
X013391Y006996D02*
X013950Y006996D01*
X013950Y007154D02*
X013550Y007154D01*
X013708Y007313D02*
X013950Y007313D01*
X013950Y007471D02*
X013867Y007471D01*
X014410Y007471D02*
X016943Y007471D01*
X017102Y007313D02*
X014410Y007313D01*
X014410Y007154D02*
X017260Y007154D01*
X017419Y006996D02*
X014410Y006996D01*
X014410Y006837D02*
X014490Y006837D01*
X014511Y006848D02*
X014449Y006816D01*
X014410Y006788D01*
X014410Y007497D01*
X014441Y007510D01*
X014570Y007639D01*
X014640Y007808D01*
X014640Y008551D01*
X014570Y008721D01*
X014441Y008850D01*
X014440Y008850D01*
X015564Y008850D01*
X017551Y006863D01*
X017431Y006813D01*
X017307Y006689D01*
X017240Y006528D01*
X017240Y005832D01*
X017307Y005671D01*
X017431Y005547D01*
X017592Y005480D01*
X017768Y005480D01*
X017929Y005547D01*
X018053Y005671D01*
X018120Y005832D01*
X018120Y006294D01*
X018900Y005514D01*
X018900Y005082D01*
X018862Y005120D01*
X018680Y005120D01*
X018680Y004680D01*
X018680Y004680D01*
X018680Y004680D01*
X018240Y004680D01*
X018240Y004862D01*
X018498Y005120D01*
X018680Y005120D01*
X018680Y004680D01*
X018240Y004680D01*
X018240Y004498D01*
X018498Y004240D01*
X018544Y004240D01*
X018493Y004189D01*
X018450Y004086D01*
X018450Y004072D01*
X018240Y003862D01*
X018240Y003498D01*
X018400Y003338D01*
X018400Y003096D01*
X018103Y002799D01*
X018109Y002817D01*
X018120Y002885D01*
X018120Y003180D01*
X018120Y003475D01*
X018109Y003543D01*
X018088Y003609D01*
X018056Y003671D01*
X018016Y003727D01*
X017967Y003776D01*
X017911Y003816D01*
X017849Y003848D01*
X017783Y003869D01*
X017715Y003880D01*
X017680Y003880D01*
X017680Y003180D01*
X017680Y003180D01*
X018120Y003180D01*
X017680Y003180D01*
X017680Y003180D01*
X017680Y003880D01*
X017645Y003880D01*
X017577Y003869D01*
X017511Y003848D01*
X017449Y003816D01*
X017393Y003776D01*
X017344Y003727D01*
X017329Y003706D01*
X017275Y003760D01*
X016925Y004110D01*
X016435Y004110D01*
X016300Y003975D01*
X016031Y003706D01*
X016016Y003727D01*
X015967Y003776D01*
X015911Y003816D01*
X015849Y003848D01*
X015783Y003869D01*
X015715Y003880D01*
X015680Y003880D01*
X015680Y003180D01*
X015680Y003180D01*
X015680Y003180D01*
X015240Y003180D01*
X015240Y003475D01*
X015251Y003543D01*
X015272Y003609D01*
X015304Y003671D01*
X015344Y003727D01*
X015393Y003776D01*
X015449Y003816D01*
X015511Y003848D01*
X015577Y003869D01*
X015645Y003880D01*
X015680Y003880D01*
X015680Y003180D01*
X015240Y003180D01*
X015240Y002885D01*
X015251Y002817D01*
X015272Y002751D01*
X015293Y002710D01*
X015069Y002710D01*
X015120Y002832D01*
X015120Y003528D01*
X015053Y003689D01*
X014929Y003813D01*
X014768Y003880D01*
X014592Y003880D01*
X014431Y003813D01*
X014410Y003792D01*
X014410Y005572D01*
X014449Y005544D01*
X014511Y005512D01*
X014577Y005491D01*
X014645Y005480D01*
X014680Y005480D01*
X014715Y005480D01*
X014783Y005491D01*
X014849Y005512D01*
X014911Y005544D01*
X014967Y005584D01*
X015016Y005633D01*
X015056Y005689D01*
X015088Y005751D01*
X015109Y005817D01*
X015120Y005885D01*
X015120Y006180D01*
X015120Y006475D01*
X015109Y006543D01*
X015088Y006609D01*
X015056Y006671D01*
X015016Y006727D01*
X014967Y006776D01*
X014911Y006816D01*
X014849Y006848D01*
X014783Y006869D01*
X014715Y006880D01*
X014680Y006880D01*
X014680Y006180D01*
X014680Y006180D01*
X015120Y006180D01*
X014680Y006180D01*
X014680Y006180D01*
X014680Y006880D01*
X014645Y006880D01*
X014577Y006869D01*
X014511Y006848D01*
X014680Y006837D02*
X014680Y006837D01*
X014870Y006837D02*
X015489Y006837D01*
X015431Y006813D02*
X015307Y006689D01*
X015240Y006528D01*
X015240Y005832D01*
X015307Y005671D01*
X015431Y005547D01*
X015592Y005480D01*
X015768Y005480D01*
X015929Y005547D01*
X016053Y005671D01*
X016120Y005832D01*
X016120Y006528D01*
X016053Y006689D01*
X015929Y006813D01*
X015768Y006880D01*
X015592Y006880D01*
X015431Y006813D01*
X015303Y006679D02*
X015051Y006679D01*
X015113Y006520D02*
X015240Y006520D01*
X015240Y006362D02*
X015120Y006362D01*
X015120Y006203D02*
X015240Y006203D01*
X015240Y006045D02*
X015120Y006045D01*
X015120Y005886D02*
X015240Y005886D01*
X015283Y005728D02*
X015076Y005728D01*
X014945Y005569D02*
X015409Y005569D01*
X015951Y005569D02*
X016415Y005569D01*
X016393Y005584D02*
X016449Y005544D01*
X016511Y005512D01*
X016577Y005491D01*
X016645Y005480D01*
X016680Y005480D01*
X016715Y005480D01*
X016783Y005491D01*
X016849Y005512D01*
X016911Y005544D01*
X016967Y005584D01*
X017016Y005633D01*
X017056Y005689D01*
X017088Y005751D01*
X017109Y005817D01*
X017120Y005885D01*
X017120Y006180D01*
X017120Y006475D01*
X017109Y006543D01*
X017088Y006609D01*
X017056Y006671D01*
X017016Y006727D01*
X016967Y006776D01*
X016911Y006816D01*
X016849Y006848D01*
X016783Y006869D01*
X016715Y006880D01*
X016680Y006880D01*
X016680Y006180D01*
X017120Y006180D01*
X016680Y006180D01*
X016680Y006180D01*
X016680Y006180D01*
X016680Y005480D01*
X016680Y006180D01*
X016680Y006180D01*
X016680Y006180D01*
X016240Y006180D01*
X016240Y006475D01*
X016251Y006543D01*
X016272Y006609D01*
X016304Y006671D01*
X016344Y006727D01*
X016393Y006776D01*
X016449Y006816D01*
X016511Y006848D01*
X016577Y006869D01*
X016645Y006880D01*
X016680Y006880D01*
X016680Y006180D01*
X016240Y006180D01*
X016240Y005885D01*
X016251Y005817D01*
X016272Y005751D01*
X016304Y005689D01*
X016344Y005633D01*
X016393Y005584D01*
X016284Y005728D02*
X016077Y005728D01*
X016120Y005886D02*
X016240Y005886D01*
X016680Y005886D02*
X016680Y005886D01*
X016680Y005728D02*
X016680Y005728D01*
X016680Y005569D02*
X016680Y005569D01*
X016945Y005569D02*
X017409Y005569D01*
X017283Y005728D02*
X017076Y005728D01*
X017120Y005886D02*
X017240Y005886D01*
X017240Y006045D02*
X017120Y006045D01*
X017120Y006203D02*
X017240Y006203D01*
X017240Y006362D02*
X017120Y006362D01*
X017113Y006520D02*
X017240Y006520D01*
X017303Y006679D02*
X017051Y006679D01*
X016680Y006679D02*
X016680Y006679D01*
X016680Y006520D02*
X016680Y006520D01*
X016680Y006362D02*
X016680Y006362D01*
X016680Y006203D02*
X016680Y006203D01*
X016680Y006045D02*
X016680Y006045D01*
X016240Y006045D02*
X016120Y006045D01*
X016120Y006203D02*
X016240Y006203D01*
X016240Y006362D02*
X016120Y006362D01*
X016120Y006520D02*
X016247Y006520D01*
X016309Y006679D02*
X016057Y006679D01*
X015871Y006837D02*
X016490Y006837D01*
X016680Y006837D02*
X016680Y006837D01*
X016870Y006837D02*
X017489Y006837D01*
X018120Y006203D02*
X018211Y006203D01*
X018120Y006045D02*
X018370Y006045D01*
X018528Y005886D02*
X018120Y005886D01*
X018077Y005728D02*
X018687Y005728D01*
X018845Y005569D02*
X017951Y005569D01*
X018900Y005411D02*
X014410Y005411D01*
X014410Y005569D02*
X014415Y005569D01*
X014680Y005569D02*
X014680Y005569D01*
X014680Y005480D02*
X014680Y006180D01*
X014680Y006180D01*
X014680Y005480D01*
X014410Y005252D02*
X018900Y005252D01*
X018889Y005094D02*
X018900Y005094D01*
X018680Y005094D02*
X018680Y005094D01*
X018680Y004935D02*
X018680Y004935D01*
X018680Y004777D02*
X018680Y004777D01*
X018313Y004935D02*
X014410Y004935D01*
X014410Y004777D02*
X018240Y004777D01*
X018240Y004618D02*
X014410Y004618D01*
X013950Y004618D02*
X009843Y004618D01*
X010002Y004777D02*
X010461Y004777D01*
X010680Y004777D02*
X010680Y004777D01*
X010680Y004740D02*
X010680Y005180D01*
X011120Y005180D01*
X010680Y005180D01*
X010680Y005180D01*
X010680Y005180D01*
X010680Y004740D01*
X010680Y004935D02*
X010680Y004935D01*
X010680Y005094D02*
X010680Y005094D01*
X011057Y004935D02*
X013950Y004935D01*
X013950Y004777D02*
X010899Y004777D01*
X010303Y004935D02*
X010160Y004935D01*
X011120Y005094D02*
X013950Y005094D01*
X014410Y005094D02*
X018471Y005094D01*
X018278Y004460D02*
X014410Y004460D01*
X014410Y004301D02*
X018437Y004301D01*
X018474Y004143D02*
X014410Y004143D01*
X014410Y003984D02*
X016309Y003984D01*
X016150Y003826D02*
X015893Y003826D01*
X015680Y003826D02*
X015680Y003826D01*
X015467Y003826D02*
X014899Y003826D01*
X014461Y003826D02*
X014410Y003826D01*
X013950Y003826D02*
X013899Y003826D01*
X013950Y003984D02*
X009209Y003984D01*
X009180Y003826D02*
X009180Y003826D01*
X009393Y003826D02*
X011461Y003826D01*
X011899Y003826D02*
X012461Y003826D01*
X012899Y003826D02*
X013461Y003826D01*
X013298Y003667D02*
X013062Y003667D01*
X013120Y003509D02*
X013240Y003509D01*
X013240Y003350D02*
X013120Y003350D01*
X013144Y003192D02*
X013240Y003192D01*
X012240Y003192D02*
X012120Y003192D01*
X012120Y003350D02*
X012240Y003350D01*
X012240Y003509D02*
X012120Y003509D01*
X012062Y003667D02*
X012298Y003667D01*
X011298Y003667D02*
X009558Y003667D01*
X009615Y003509D02*
X011240Y003509D01*
X011240Y003350D02*
X009620Y003350D01*
X009620Y003192D02*
X011240Y003192D01*
X011240Y003033D02*
X009620Y003033D01*
X009180Y003192D02*
X009180Y003192D01*
X009180Y003350D02*
X009180Y003350D01*
X009180Y003509D02*
X009180Y003509D01*
X009180Y003667D02*
X009180Y003667D01*
X009368Y004143D02*
X013950Y004143D01*
X013950Y004301D02*
X009526Y004301D01*
X009685Y004460D02*
X013950Y004460D01*
X015062Y003667D02*
X015302Y003667D01*
X015245Y003509D02*
X015120Y003509D01*
X015120Y003350D02*
X015240Y003350D01*
X015240Y003192D02*
X015120Y003192D01*
X015120Y003033D02*
X015240Y003033D01*
X015680Y003192D02*
X015680Y003192D01*
X015680Y003350D02*
X015680Y003350D01*
X015680Y003509D02*
X015680Y003509D01*
X015680Y003667D02*
X015680Y003667D01*
X017051Y003984D02*
X018362Y003984D01*
X018240Y003826D02*
X017893Y003826D01*
X017680Y003826D02*
X017680Y003826D01*
X017467Y003826D02*
X017210Y003826D01*
X017680Y003667D02*
X017680Y003667D01*
X017680Y003509D02*
X017680Y003509D01*
X017680Y003350D02*
X017680Y003350D01*
X017680Y003192D02*
X017680Y003192D01*
X017680Y003180D02*
X017680Y002480D01*
X017715Y002480D01*
X017783Y002491D01*
X017801Y002497D01*
X017521Y002217D01*
X017443Y002139D01*
X017400Y002036D01*
X017400Y001879D01*
X017273Y001752D01*
X017200Y001575D01*
X017200Y000785D01*
X017252Y000660D01*
X017107Y000660D01*
X017125Y000696D01*
X017148Y000768D01*
X017160Y000842D01*
X017160Y001160D01*
X016700Y001160D01*
X016700Y001200D01*
X017160Y001200D01*
X017160Y001518D01*
X017148Y001592D01*
X017125Y001664D01*
X017091Y001732D01*
X017046Y001793D01*
X016993Y001846D01*
X016940Y001885D01*
X016995Y001908D01*
X017102Y002015D01*
X017160Y002154D01*
X017160Y002200D01*
X017256Y002200D01*
X017395Y002258D01*
X017502Y002365D01*
X017557Y002497D01*
X017577Y002491D01*
X017645Y002480D01*
X017680Y002480D01*
X017680Y003180D01*
X017680Y003180D01*
X017680Y003033D02*
X017680Y003033D01*
X018120Y003033D02*
X018337Y003033D01*
X018400Y003192D02*
X018120Y003192D01*
X018120Y003350D02*
X018388Y003350D01*
X018240Y003509D02*
X018115Y003509D01*
X018058Y003667D02*
X018240Y003667D01*
X018179Y002875D02*
X018118Y002875D01*
X017680Y002875D02*
X017680Y002875D01*
X017680Y002716D02*
X017680Y002716D01*
X017680Y002558D02*
X017680Y002558D01*
X017703Y002399D02*
X017516Y002399D01*
X017545Y002241D02*
X017353Y002241D01*
X017419Y002082D02*
X017130Y002082D01*
X017011Y001924D02*
X017400Y001924D01*
X017286Y001765D02*
X017066Y001765D01*
X017144Y001607D02*
X017213Y001607D01*
X017200Y001448D02*
X017160Y001448D01*
X016700Y001448D02*
X016660Y001448D01*
X016660Y001607D02*
X016700Y001607D01*
X016700Y001765D02*
X016660Y001765D01*
X016700Y001852D02*
X016700Y001200D01*
X016660Y001200D01*
X016660Y001868D01*
X016700Y001852D01*
X016535Y001938D02*
X016496Y001925D01*
X016428Y001891D01*
X016367Y001846D01*
X016314Y001793D01*
X016269Y001732D01*
X016235Y001664D01*
X016212Y001592D01*
X016200Y001518D01*
X016200Y001200D01*
X016660Y001200D01*
X016660Y001160D01*
X016200Y001160D01*
X016200Y000985D01*
X016160Y001025D01*
X016160Y001575D01*
X016087Y001752D01*
X015952Y001887D01*
X015800Y001950D01*
X016523Y001950D01*
X016535Y001938D01*
X016493Y001924D02*
X015864Y001924D01*
X016074Y001765D02*
X016294Y001765D01*
X016216Y001607D02*
X016147Y001607D01*
X016160Y001448D02*
X016200Y001448D01*
X016200Y001290D02*
X016160Y001290D01*
X016160Y001131D02*
X016200Y001131D01*
X016660Y001290D02*
X016700Y001290D01*
X017160Y001290D02*
X017200Y001290D01*
X017200Y001131D02*
X017160Y001131D01*
X017160Y000973D02*
X017200Y000973D01*
X017200Y000814D02*
X017156Y000814D01*
X012420Y002558D02*
X011940Y002558D01*
X012072Y002716D02*
X012288Y002716D01*
X012240Y002875D02*
X012120Y002875D01*
X012120Y003033D02*
X012240Y003033D01*
X011240Y002875D02*
X009618Y002875D01*
X009570Y002716D02*
X011288Y002716D01*
X011420Y002558D02*
X009430Y002558D01*
X015072Y002716D02*
X015290Y002716D01*
X015242Y002875D02*
X015120Y002875D01*
X013950Y005252D02*
X011120Y005252D01*
X011072Y005411D02*
X013950Y005411D01*
X013409Y005569D02*
X012945Y005569D01*
X012680Y006045D02*
X012680Y006045D01*
X011409Y005569D02*
X010994Y005569D01*
X011153Y005728D02*
X011283Y005728D01*
X014680Y005728D02*
X014680Y005728D01*
X014680Y005886D02*
X014680Y005886D01*
X014680Y006045D02*
X014680Y006045D01*
X014680Y006203D02*
X014680Y006203D01*
X014680Y006362D02*
X014680Y006362D01*
X014680Y006520D02*
X014680Y006520D01*
X014680Y006679D02*
X014680Y006679D01*
X013950Y006837D02*
X013871Y006837D01*
X014560Y007630D02*
X016785Y007630D01*
X016626Y007788D02*
X014632Y007788D01*
X014640Y007947D02*
X016468Y007947D01*
X016309Y008105D02*
X014640Y008105D01*
X014640Y008264D02*
X016151Y008264D01*
X015992Y008422D02*
X014640Y008422D01*
X014628Y008581D02*
X015834Y008581D01*
X015675Y008739D02*
X014552Y008739D01*
X012034Y008898D02*
X009141Y008898D01*
X009160Y008739D02*
X011808Y008739D01*
X011732Y008581D02*
X009160Y008581D01*
X009101Y008422D02*
X011720Y008422D01*
X011720Y008264D02*
X009242Y008264D01*
X009524Y009849D02*
X013900Y009849D01*
X013900Y010007D02*
X013433Y010007D01*
X013581Y010166D02*
X013779Y010166D01*
X013720Y010324D02*
X013640Y010324D01*
X013640Y010483D02*
X013720Y010483D01*
X013720Y010641D02*
X013640Y010641D01*
X013640Y010800D02*
X013720Y010800D01*
X013720Y010958D02*
X013640Y010958D01*
X013613Y011117D02*
X013747Y011117D01*
X012747Y011117D02*
X012613Y011117D01*
X012640Y010958D02*
X012720Y010958D01*
X012720Y010800D02*
X012640Y010800D01*
X012640Y010670D02*
X012190Y010670D01*
X012190Y009940D01*
X012216Y009940D01*
X012288Y009951D01*
X012357Y009974D01*
X012421Y010007D01*
X012480Y010049D01*
X012531Y010100D01*
X012573Y010159D01*
X012606Y010223D01*
X012629Y010292D01*
X012640Y010364D01*
X012640Y010670D01*
X012640Y010641D02*
X012720Y010641D01*
X012720Y010483D02*
X012640Y010483D01*
X012634Y010324D02*
X012720Y010324D01*
X012779Y010166D02*
X012577Y010166D01*
X012422Y010007D02*
X012927Y010007D01*
X012190Y010007D02*
X012170Y010007D01*
X012170Y009940D02*
X012170Y010670D01*
X011720Y010670D01*
X011720Y010364D01*
X011731Y010292D01*
X011754Y010223D01*
X011787Y010159D01*
X011829Y010100D01*
X011880Y010049D01*
X011939Y010007D01*
X012003Y009974D01*
X012072Y009951D01*
X012144Y009940D01*
X012170Y009940D01*
X011938Y010007D02*
X009682Y010007D01*
X009841Y010166D02*
X011783Y010166D01*
X011726Y010324D02*
X009999Y010324D01*
X010158Y010483D02*
X011720Y010483D01*
X012170Y010483D02*
X012190Y010483D01*
X012190Y010324D02*
X012170Y010324D01*
X012170Y010166D02*
X012190Y010166D01*
X012170Y010641D02*
X012190Y010641D01*
X011720Y010641D02*
X010316Y010641D01*
X010475Y010800D02*
X011720Y010800D01*
X011720Y010958D02*
X010633Y010958D01*
X010792Y011117D02*
X011747Y011117D01*
X017160Y010483D02*
X017200Y010483D01*
X017200Y010324D02*
X017160Y010324D01*
X017170Y010166D02*
X021000Y010166D01*
X021000Y010007D02*
X017328Y010007D01*
X017487Y009849D02*
X021000Y009849D01*
X021000Y009690D02*
X017645Y009690D01*
X017804Y009532D02*
X021000Y009532D01*
X021000Y009373D02*
X020784Y009373D01*
X020576Y009373D02*
X019784Y009373D01*
X019768Y009380D02*
X019592Y009380D01*
X019431Y009313D01*
X019307Y009189D01*
X019240Y009028D01*
X019240Y008332D01*
X019307Y008171D01*
X019431Y008047D01*
X019592Y007980D01*
X019768Y007980D01*
X019929Y008047D01*
X020053Y008171D01*
X020120Y008332D01*
X020120Y009028D01*
X020053Y009189D01*
X019929Y009313D01*
X019768Y009380D01*
X019576Y009373D02*
X017962Y009373D01*
X018121Y009215D02*
X019332Y009215D01*
X019252Y009056D02*
X018279Y009056D01*
X018438Y008898D02*
X019240Y008898D01*
X019240Y008739D02*
X018596Y008739D01*
X018755Y008581D02*
X019240Y008581D01*
X019240Y008422D02*
X018913Y008422D01*
X019072Y008264D02*
X019269Y008264D01*
X019230Y008105D02*
X019373Y008105D01*
X019389Y007947D02*
X021238Y007947D01*
X021080Y008105D02*
X020987Y008105D01*
X021397Y007788D02*
X019547Y007788D01*
X019706Y007630D02*
X021555Y007630D01*
X021714Y007471D02*
X019864Y007471D01*
X020023Y007313D02*
X021872Y007313D01*
X022031Y007154D02*
X020181Y007154D01*
X020340Y006996D02*
X022189Y006996D01*
X022348Y006837D02*
X020498Y006837D01*
X020657Y006679D02*
X022500Y006679D01*
X022514Y006520D02*
X021502Y006520D01*
X021158Y006520D02*
X020815Y006520D01*
X020974Y006362D02*
X020994Y006362D01*
X023573Y007313D02*
X023800Y007313D01*
X023827Y007471D02*
X023414Y007471D01*
X023256Y007630D02*
X023942Y007630D01*
X024418Y007630D02*
X026854Y007630D01*
X027013Y007788D02*
X025963Y007788D01*
X026122Y007947D02*
X027171Y007947D01*
X027330Y008105D02*
X026987Y008105D01*
X027091Y008264D02*
X027269Y008264D01*
X027240Y008422D02*
X027120Y008422D01*
X027120Y008581D02*
X027240Y008581D01*
X027240Y008739D02*
X027120Y008739D01*
X027120Y008898D02*
X027240Y008898D01*
X027252Y009056D02*
X027108Y009056D01*
X027028Y009215D02*
X027332Y009215D01*
X027576Y009373D02*
X026848Y009373D01*
X027182Y009532D02*
X027553Y009532D01*
X027395Y009690D02*
X027363Y009690D01*
X024450Y009373D02*
X023784Y009373D01*
X023576Y009373D02*
X022784Y009373D01*
X022576Y009373D02*
X022410Y009373D01*
X022410Y009532D02*
X024353Y009532D01*
X024195Y009690D02*
X022410Y009690D01*
X022410Y009849D02*
X024036Y009849D01*
X023878Y010007D02*
X022410Y010007D01*
X022410Y010166D02*
X023719Y010166D01*
X023561Y010324D02*
X023503Y010324D01*
X022857Y010324D02*
X022503Y010324D01*
X022660Y010483D02*
X022700Y010483D01*
X022700Y010641D02*
X022660Y010641D01*
X022660Y010800D02*
X022700Y010800D01*
X022779Y010958D02*
X022581Y010958D01*
X022422Y011117D02*
X022938Y011117D01*
X022981Y011200D02*
X023379Y011200D01*
X023660Y011481D01*
X023660Y011879D01*
X023379Y012160D01*
X022981Y012160D01*
X022700Y011879D01*
X022700Y011481D01*
X022981Y011200D01*
X022906Y011275D02*
X022454Y011275D01*
X021938Y011117D02*
X021860Y011117D01*
X021860Y011275D02*
X021906Y011275D01*
X022612Y011434D02*
X022748Y011434D01*
X022700Y011592D02*
X022660Y011592D01*
X022660Y011751D02*
X022700Y011751D01*
X022730Y011909D02*
X022630Y011909D01*
X022471Y012068D02*
X022889Y012068D01*
X023471Y012068D02*
X023889Y012068D01*
X023730Y011909D02*
X023630Y011909D01*
X023660Y011751D02*
X023700Y011751D01*
X023700Y011592D02*
X023660Y011592D01*
X023612Y011434D02*
X023748Y011434D01*
X023800Y011275D02*
X023454Y011275D01*
X023422Y011117D02*
X023641Y011117D01*
X021700Y011592D02*
X021660Y011592D01*
X021660Y011751D02*
X021700Y011751D01*
X021730Y011909D02*
X021630Y011909D01*
X021471Y012068D02*
X021889Y012068D01*
X020889Y012068D02*
X020471Y012068D01*
X020630Y011909D02*
X020730Y011909D01*
X020700Y011751D02*
X020660Y011751D01*
X020660Y011592D02*
X020700Y011592D01*
X020748Y011434D02*
X020612Y011434D01*
X020454Y011275D02*
X020906Y011275D01*
X020938Y011117D02*
X020422Y011117D01*
X020581Y010958D02*
X020779Y010958D01*
X020700Y010800D02*
X020660Y010800D01*
X020660Y010641D02*
X020700Y010641D01*
X020700Y010483D02*
X020660Y010483D01*
X020503Y010324D02*
X020857Y010324D01*
X020332Y009215D02*
X020028Y009215D01*
X020108Y009056D02*
X020252Y009056D01*
X020240Y008898D02*
X020120Y008898D01*
X020120Y008739D02*
X020240Y008739D01*
X020240Y008581D02*
X020120Y008581D01*
X020120Y008422D02*
X020240Y008422D01*
X020269Y008264D02*
X020091Y008264D01*
X019987Y008105D02*
X020373Y008105D01*
X022939Y007947D02*
X024238Y007947D01*
X024080Y008105D02*
X023987Y008105D01*
X023373Y008105D02*
X022987Y008105D01*
X023091Y008264D02*
X023269Y008264D01*
X023240Y008422D02*
X023120Y008422D01*
X023120Y008581D02*
X023240Y008581D01*
X023240Y008739D02*
X023120Y008739D01*
X023120Y008898D02*
X023240Y008898D01*
X023252Y009056D02*
X023108Y009056D01*
X023028Y009215D02*
X023332Y009215D01*
X024028Y009215D02*
X024332Y009215D01*
X024252Y009056D02*
X024108Y009056D01*
X024120Y008898D02*
X024240Y008898D01*
X024240Y008739D02*
X024120Y008739D01*
X026280Y008105D02*
X026373Y008105D01*
X027505Y007630D02*
X027700Y007630D01*
X027700Y007788D02*
X027663Y007788D01*
X027700Y007471D02*
X027346Y007471D01*
X027188Y007313D02*
X027700Y007313D01*
X027700Y007154D02*
X027029Y007154D01*
X027700Y006996D02*
X024365Y006996D01*
X024048Y006837D02*
X027604Y006837D01*
X027550Y006679D02*
X024160Y006679D01*
X024577Y006520D02*
X027564Y006520D01*
X029220Y006045D02*
X030569Y006045D01*
X030728Y006203D02*
X029378Y006203D01*
X029537Y006362D02*
X030886Y006362D01*
X031045Y006520D02*
X029695Y006520D01*
X029854Y006679D02*
X031203Y006679D01*
X031362Y006837D02*
X030012Y006837D01*
X030171Y006996D02*
X031520Y006996D01*
X031679Y007154D02*
X030329Y007154D01*
X030488Y007313D02*
X031837Y007313D01*
X031996Y007471D02*
X030646Y007471D01*
X030805Y007630D02*
X032154Y007630D01*
X032313Y007788D02*
X030963Y007788D01*
X031122Y007947D02*
X032471Y007947D01*
X032511Y008012D02*
X032531Y008006D01*
X029035Y004510D01*
X027685Y004510D01*
X031327Y008151D01*
X031431Y008047D01*
X031592Y007980D01*
X031768Y007980D01*
X031929Y008047D01*
X032053Y008171D01*
X032120Y008332D01*
X032120Y009028D01*
X032053Y009189D01*
X031929Y009313D01*
X031768Y009380D01*
X031592Y009380D01*
X031431Y009313D01*
X031307Y009189D01*
X031240Y009028D01*
X031240Y008715D01*
X031120Y008595D01*
X031120Y009028D01*
X031053Y009189D01*
X030929Y009313D01*
X030768Y009380D01*
X030592Y009380D01*
X030460Y009325D01*
X030460Y010635D01*
X031025Y011200D01*
X031379Y011200D01*
X031660Y011481D01*
X031660Y011879D01*
X031639Y011900D01*
X034985Y011900D01*
X037530Y009354D01*
X037431Y009313D01*
X037307Y009189D01*
X037240Y009028D01*
X037240Y008332D01*
X037307Y008171D01*
X037431Y008047D01*
X037592Y007980D01*
X037768Y007980D01*
X037929Y008047D01*
X038053Y008171D01*
X038120Y008332D01*
X038120Y008765D01*
X038240Y008645D01*
X038240Y008332D01*
X038307Y008171D01*
X038431Y008047D01*
X038530Y008006D01*
X037735Y007210D01*
X034187Y007210D01*
X034095Y007302D01*
X033956Y007360D01*
X033804Y007360D01*
X033665Y007302D01*
X033558Y007195D01*
X033500Y007056D01*
X033500Y006904D01*
X033558Y006765D01*
X033665Y006658D01*
X033804Y006600D01*
X033956Y006600D01*
X034095Y006658D01*
X034187Y006750D01*
X037925Y006750D01*
X039225Y008050D01*
X039360Y008185D01*
X039360Y009175D01*
X036139Y012396D01*
X040270Y012396D01*
X040270Y000460D01*
X039920Y000460D01*
X039952Y000473D01*
X040087Y000608D01*
X040160Y000785D01*
X040160Y001575D01*
X040087Y001752D01*
X039952Y001887D01*
X039775Y001960D01*
X039585Y001960D01*
X039408Y001887D01*
X039273Y001752D01*
X039200Y001575D01*
X039200Y000785D01*
X039273Y000608D01*
X039408Y000473D01*
X039440Y000460D01*
X038920Y000460D01*
X038952Y000473D01*
X039087Y000608D01*
X039160Y000785D01*
X039160Y001575D01*
X039087Y001752D01*
X038952Y001887D01*
X038775Y001960D01*
X038585Y001960D01*
X038408Y001887D01*
X038273Y001752D01*
X038200Y001575D01*
X038200Y000785D01*
X038273Y000608D01*
X038408Y000473D01*
X038440Y000460D01*
X037920Y000460D01*
X037952Y000473D01*
X038087Y000608D01*
X038160Y000785D01*
X038160Y001575D01*
X038087Y001752D01*
X037952Y001887D01*
X037775Y001960D01*
X037585Y001960D01*
X037408Y001887D01*
X037273Y001752D01*
X037200Y001575D01*
X037200Y000785D01*
X037273Y000608D01*
X037408Y000473D01*
X037440Y000460D01*
X036920Y000460D01*
X036952Y000473D01*
X037087Y000608D01*
X037160Y000785D01*
X037160Y001575D01*
X037087Y001752D01*
X036952Y001887D01*
X036775Y001960D01*
X036585Y001960D01*
X036408Y001887D01*
X036273Y001752D01*
X036200Y001575D01*
X036200Y000785D01*
X036273Y000608D01*
X036408Y000473D01*
X036440Y000460D01*
X035920Y000460D01*
X035952Y000473D01*
X036087Y000608D01*
X036160Y000785D01*
X036160Y001575D01*
X036087Y001752D01*
X035952Y001887D01*
X035775Y001960D01*
X035585Y001960D01*
X035408Y001887D01*
X035273Y001752D01*
X035200Y001575D01*
X035200Y000785D01*
X035273Y000608D01*
X035408Y000473D01*
X035440Y000460D01*
X034920Y000460D01*
X034952Y000473D01*
X035087Y000608D01*
X035160Y000785D01*
X035160Y001575D01*
X035087Y001752D01*
X034952Y001887D01*
X034775Y001960D01*
X034585Y001960D01*
X034408Y001887D01*
X034273Y001752D01*
X034200Y001575D01*
X034200Y000785D01*
X034273Y000608D01*
X034408Y000473D01*
X034440Y000460D01*
X033920Y000460D01*
X033952Y000473D01*
X034087Y000608D01*
X034160Y000785D01*
X034160Y001575D01*
X034087Y001752D01*
X033952Y001887D01*
X033775Y001960D01*
X033585Y001960D01*
X033408Y001887D01*
X033273Y001752D01*
X033200Y001575D01*
X033200Y000785D01*
X033273Y000608D01*
X033408Y000473D01*
X033440Y000460D01*
X032920Y000460D01*
X032952Y000473D01*
X033087Y000608D01*
X033160Y000785D01*
X033160Y001575D01*
X033087Y001752D01*
X032952Y001887D01*
X032818Y001942D01*
X032910Y002035D01*
X032910Y002039D01*
X032929Y002047D01*
X033053Y002171D01*
X033120Y002332D01*
X033120Y002915D01*
X033240Y002795D01*
X033240Y002332D01*
X033307Y002171D01*
X033431Y002047D01*
X033592Y001980D01*
X033768Y001980D01*
X033929Y002047D01*
X034053Y002171D01*
X034120Y002332D01*
X034120Y002765D01*
X034240Y002645D01*
X034240Y002332D01*
X034307Y002171D01*
X034431Y002047D01*
X034592Y001980D01*
X034768Y001980D01*
X034929Y002047D01*
X035053Y002171D01*
X035120Y002332D01*
X035120Y003028D01*
X035053Y003189D01*
X034929Y003313D01*
X034768Y003380D01*
X034592Y003380D01*
X034431Y003313D01*
X034327Y003209D01*
X033660Y003875D01*
X033525Y004010D01*
X030492Y004010D01*
X030510Y004054D01*
X030510Y004185D01*
X034402Y008076D01*
X034431Y008047D01*
X034592Y007980D01*
X034768Y007980D01*
X034929Y008047D01*
X035053Y008171D01*
X035120Y008332D01*
X035120Y009028D01*
X035053Y009189D01*
X034929Y009313D01*
X034768Y009380D01*
X034592Y009380D01*
X034431Y009313D01*
X034307Y009189D01*
X034240Y009028D01*
X034240Y008565D01*
X034120Y008445D01*
X034120Y009028D01*
X034053Y009189D01*
X033929Y009313D01*
X033768Y009380D01*
X033592Y009380D01*
X033431Y009313D01*
X033307Y009189D01*
X033240Y009028D01*
X033240Y008715D01*
X033120Y008595D01*
X033120Y008680D01*
X033120Y008975D01*
X033109Y009043D01*
X033088Y009109D01*
X033056Y009171D01*
X033016Y009227D01*
X032967Y009276D01*
X032911Y009316D01*
X032849Y009348D01*
X032783Y009369D01*
X032715Y009380D01*
X032680Y009380D01*
X032680Y008680D01*
X032680Y008680D01*
X033120Y008680D01*
X032680Y008680D01*
X032680Y008680D01*
X032680Y008680D01*
X032240Y008680D01*
X032240Y008975D01*
X032251Y009043D01*
X032272Y009109D01*
X032304Y009171D01*
X032344Y009227D01*
X032393Y009276D01*
X032449Y009316D01*
X032511Y009348D01*
X032577Y009369D01*
X032645Y009380D01*
X032680Y009380D01*
X032680Y008680D01*
X032240Y008680D01*
X032240Y008385D01*
X032251Y008317D01*
X032272Y008251D01*
X032304Y008189D01*
X032344Y008133D01*
X032393Y008084D01*
X032449Y008044D01*
X032511Y008012D01*
X032373Y008105D02*
X031987Y008105D01*
X032091Y008264D02*
X032268Y008264D01*
X032240Y008422D02*
X032120Y008422D01*
X032120Y008581D02*
X032240Y008581D01*
X032240Y008739D02*
X032120Y008739D01*
X032120Y008898D02*
X032240Y008898D01*
X032255Y009056D02*
X032108Y009056D01*
X032680Y009056D02*
X032680Y009056D01*
X032680Y008898D02*
X032680Y008898D01*
X032680Y008739D02*
X032680Y008739D01*
X033120Y008739D02*
X033240Y008739D01*
X033240Y008898D02*
X033120Y008898D01*
X033105Y009056D02*
X033252Y009056D01*
X033332Y009215D02*
X033024Y009215D01*
X032759Y009373D02*
X033576Y009373D01*
X033784Y009373D02*
X034576Y009373D01*
X034784Y009373D02*
X035576Y009373D01*
X035592Y009380D02*
X035431Y009313D01*
X035307Y009189D01*
X035240Y009028D01*
X035240Y008332D01*
X035307Y008171D01*
X035431Y008047D01*
X035592Y007980D01*
X035768Y007980D01*
X035929Y008047D01*
X036053Y008171D01*
X036120Y008332D01*
X036120Y009028D01*
X036053Y009189D01*
X035929Y009313D01*
X035768Y009380D01*
X035592Y009380D01*
X035784Y009373D02*
X036576Y009373D01*
X036592Y009380D02*
X036431Y009313D01*
X036307Y009189D01*
X036240Y009028D01*
X036240Y008332D01*
X036307Y008171D01*
X036431Y008047D01*
X036592Y007980D01*
X036768Y007980D01*
X036929Y008047D01*
X037053Y008171D01*
X037120Y008332D01*
X037120Y009028D01*
X037053Y009189D01*
X036929Y009313D01*
X036768Y009380D01*
X036592Y009380D01*
X036784Y009373D02*
X037512Y009373D01*
X037353Y009532D02*
X030460Y009532D01*
X030460Y009690D02*
X037195Y009690D01*
X037036Y009849D02*
X030460Y009849D01*
X030460Y010007D02*
X036878Y010007D01*
X036719Y010166D02*
X030460Y010166D01*
X030460Y010324D02*
X036561Y010324D01*
X036402Y010483D02*
X030460Y010483D01*
X030466Y010641D02*
X036244Y010641D01*
X036085Y010800D02*
X030625Y010800D01*
X030783Y010958D02*
X035927Y010958D01*
X035768Y011117D02*
X030942Y011117D01*
X031454Y011275D02*
X035610Y011275D01*
X035451Y011434D02*
X031612Y011434D01*
X031660Y011592D02*
X035293Y011592D01*
X035134Y011751D02*
X031660Y011751D01*
X036151Y012385D02*
X040270Y012385D01*
X040270Y012226D02*
X036309Y012226D01*
X036468Y012068D02*
X040270Y012068D01*
X040270Y011909D02*
X036626Y011909D01*
X036785Y011751D02*
X040270Y011751D01*
X040270Y011592D02*
X036943Y011592D01*
X037102Y011434D02*
X040270Y011434D01*
X040270Y011275D02*
X037260Y011275D01*
X037419Y011117D02*
X040270Y011117D01*
X040270Y010958D02*
X037577Y010958D01*
X037736Y010800D02*
X040270Y010800D01*
X040270Y010641D02*
X037894Y010641D01*
X038053Y010483D02*
X040270Y010483D01*
X040270Y010324D02*
X038211Y010324D01*
X038370Y010166D02*
X040270Y010166D01*
X040270Y010007D02*
X038528Y010007D01*
X038687Y009849D02*
X040270Y009849D01*
X040270Y009690D02*
X038845Y009690D01*
X039004Y009532D02*
X040270Y009532D01*
X040270Y009373D02*
X039162Y009373D01*
X039321Y009215D02*
X040270Y009215D01*
X040270Y009056D02*
X039360Y009056D01*
X039360Y008898D02*
X040270Y008898D01*
X040270Y008739D02*
X039360Y008739D01*
X039360Y008581D02*
X040270Y008581D01*
X040270Y008422D02*
X039360Y008422D01*
X039360Y008264D02*
X040270Y008264D01*
X040270Y008105D02*
X039280Y008105D01*
X039122Y007947D02*
X040270Y007947D01*
X040270Y007788D02*
X038963Y007788D01*
X038805Y007630D02*
X040270Y007630D01*
X040270Y007471D02*
X038646Y007471D01*
X038488Y007313D02*
X040270Y007313D01*
X040270Y007154D02*
X038329Y007154D01*
X038171Y006996D02*
X040270Y006996D01*
X040270Y006837D02*
X038012Y006837D01*
X037837Y007313D02*
X034070Y007313D01*
X033796Y007471D02*
X037996Y007471D01*
X038154Y007630D02*
X033955Y007630D01*
X034113Y007788D02*
X038313Y007788D01*
X038471Y007947D02*
X034272Y007947D01*
X034987Y008105D02*
X035373Y008105D01*
X035269Y008264D02*
X035091Y008264D01*
X035120Y008422D02*
X035240Y008422D01*
X035240Y008581D02*
X035120Y008581D01*
X035120Y008739D02*
X035240Y008739D01*
X035240Y008898D02*
X035120Y008898D01*
X035108Y009056D02*
X035252Y009056D01*
X035332Y009215D02*
X035028Y009215D01*
X034332Y009215D02*
X034028Y009215D01*
X034108Y009056D02*
X034252Y009056D01*
X034240Y008898D02*
X034120Y008898D01*
X034120Y008739D02*
X034240Y008739D01*
X034240Y008581D02*
X034120Y008581D01*
X032680Y009215D02*
X032680Y009215D01*
X032680Y009373D02*
X032680Y009373D01*
X032601Y009373D02*
X031784Y009373D01*
X031576Y009373D02*
X030784Y009373D01*
X030576Y009373D02*
X030460Y009373D01*
X031028Y009215D02*
X031332Y009215D01*
X031252Y009056D02*
X031108Y009056D01*
X031120Y008898D02*
X031240Y008898D01*
X031240Y008739D02*
X031120Y008739D01*
X032028Y009215D02*
X032336Y009215D01*
X031373Y008105D02*
X031280Y008105D01*
X033638Y007313D02*
X033690Y007313D01*
X033541Y007154D02*
X033479Y007154D01*
X033500Y006996D02*
X033321Y006996D01*
X033162Y006837D02*
X033528Y006837D01*
X033644Y006679D02*
X033004Y006679D01*
X032845Y006520D02*
X040270Y006520D01*
X040270Y006362D02*
X032687Y006362D01*
X032528Y006203D02*
X040270Y006203D01*
X040270Y006045D02*
X032370Y006045D01*
X032211Y005886D02*
X040270Y005886D01*
X040270Y005728D02*
X032053Y005728D01*
X031894Y005569D02*
X040270Y005569D01*
X040270Y005411D02*
X031736Y005411D01*
X031577Y005252D02*
X040270Y005252D01*
X040270Y005094D02*
X031419Y005094D01*
X031260Y004935D02*
X040270Y004935D01*
X040270Y004777D02*
X031102Y004777D01*
X030943Y004618D02*
X040270Y004618D01*
X040270Y004460D02*
X030785Y004460D01*
X030626Y004301D02*
X040270Y004301D01*
X040270Y004143D02*
X030510Y004143D01*
X029143Y004618D02*
X027793Y004618D01*
X027952Y004777D02*
X029301Y004777D01*
X029460Y004935D02*
X028110Y004935D01*
X028269Y005094D02*
X029618Y005094D01*
X029777Y005252D02*
X028427Y005252D01*
X028586Y005411D02*
X029935Y005411D01*
X030094Y005569D02*
X028744Y005569D01*
X028903Y005728D02*
X030252Y005728D01*
X030411Y005886D02*
X029061Y005886D01*
X034116Y006679D02*
X040270Y006679D01*
X038373Y008105D02*
X037987Y008105D01*
X038091Y008264D02*
X038269Y008264D01*
X038240Y008422D02*
X038120Y008422D01*
X038120Y008581D02*
X038240Y008581D01*
X038146Y008739D02*
X038120Y008739D01*
X037240Y008739D02*
X037120Y008739D01*
X037120Y008581D02*
X037240Y008581D01*
X037240Y008422D02*
X037120Y008422D01*
X037091Y008264D02*
X037269Y008264D01*
X037373Y008105D02*
X036987Y008105D01*
X036373Y008105D02*
X035987Y008105D01*
X036091Y008264D02*
X036269Y008264D01*
X036240Y008422D02*
X036120Y008422D01*
X036120Y008581D02*
X036240Y008581D01*
X036240Y008739D02*
X036120Y008739D01*
X036120Y008898D02*
X036240Y008898D01*
X036252Y009056D02*
X036108Y009056D01*
X036028Y009215D02*
X036332Y009215D01*
X037028Y009215D02*
X037332Y009215D01*
X037252Y009056D02*
X037108Y009056D01*
X037120Y008898D02*
X037240Y008898D01*
X024592Y012068D02*
X024471Y012068D01*
X017779Y010958D02*
X017581Y010958D01*
X017660Y010800D02*
X017700Y010800D01*
X017700Y010641D02*
X017660Y010641D01*
X017660Y010483D02*
X017700Y010483D01*
X017857Y010324D02*
X017503Y010324D01*
X023097Y007788D02*
X024397Y007788D01*
X023842Y007154D02*
X023731Y007154D01*
X023890Y006996D02*
X023995Y006996D01*
X033551Y003984D02*
X040270Y003984D01*
X040270Y003826D02*
X033710Y003826D01*
X033868Y003667D02*
X040270Y003667D01*
X040270Y003509D02*
X034027Y003509D01*
X034185Y003350D02*
X034520Y003350D01*
X034840Y003350D02*
X035520Y003350D01*
X035592Y003380D02*
X035431Y003313D01*
X035307Y003189D01*
X035240Y003028D01*
X035240Y002332D01*
X035307Y002171D01*
X035431Y002047D01*
X035592Y001980D01*
X035768Y001980D01*
X035929Y002047D01*
X036053Y002171D01*
X036120Y002332D01*
X036120Y003028D01*
X036053Y003189D01*
X035929Y003313D01*
X035768Y003380D01*
X035592Y003380D01*
X035840Y003350D02*
X036520Y003350D01*
X036592Y003380D02*
X036431Y003313D01*
X036307Y003189D01*
X036240Y003028D01*
X036240Y002332D01*
X036307Y002171D01*
X036431Y002047D01*
X036592Y001980D01*
X036768Y001980D01*
X036929Y002047D01*
X037053Y002171D01*
X037120Y002332D01*
X037120Y003028D01*
X037053Y003189D01*
X036929Y003313D01*
X036768Y003380D01*
X036592Y003380D01*
X036840Y003350D02*
X037520Y003350D01*
X037592Y003380D02*
X037431Y003313D01*
X037307Y003189D01*
X037240Y003028D01*
X037240Y002332D01*
X037307Y002171D01*
X037431Y002047D01*
X037592Y001980D01*
X037768Y001980D01*
X037929Y002047D01*
X038053Y002171D01*
X038120Y002332D01*
X038120Y003028D01*
X038053Y003189D01*
X037929Y003313D01*
X037768Y003380D01*
X037592Y003380D01*
X037840Y003350D02*
X038520Y003350D01*
X038592Y003380D02*
X038431Y003313D01*
X038307Y003189D01*
X038240Y003028D01*
X038240Y002332D01*
X038307Y002171D01*
X038431Y002047D01*
X038592Y001980D01*
X038768Y001980D01*
X038929Y002047D01*
X039053Y002171D01*
X039120Y002332D01*
X039120Y003028D01*
X039053Y003189D01*
X038929Y003313D01*
X038768Y003380D01*
X038592Y003380D01*
X038840Y003350D02*
X040270Y003350D01*
X040270Y003192D02*
X039051Y003192D01*
X039118Y003033D02*
X040270Y003033D01*
X040270Y002875D02*
X039120Y002875D01*
X039120Y002716D02*
X040270Y002716D01*
X040270Y002558D02*
X039120Y002558D01*
X039120Y002399D02*
X040270Y002399D01*
X040270Y002241D02*
X039082Y002241D01*
X038964Y002082D02*
X040270Y002082D01*
X040270Y001924D02*
X039864Y001924D01*
X040074Y001765D02*
X040270Y001765D01*
X040270Y001607D02*
X040147Y001607D01*
X040160Y001448D02*
X040270Y001448D01*
X040270Y001290D02*
X040160Y001290D01*
X040160Y001131D02*
X040270Y001131D01*
X040270Y000973D02*
X040160Y000973D01*
X040160Y000814D02*
X040270Y000814D01*
X040270Y000656D02*
X040107Y000656D01*
X039976Y000497D02*
X040270Y000497D01*
X039384Y000497D02*
X038976Y000497D01*
X039107Y000656D02*
X039253Y000656D01*
X039200Y000814D02*
X039160Y000814D01*
X039160Y000973D02*
X039200Y000973D01*
X039200Y001131D02*
X039160Y001131D01*
X039160Y001290D02*
X039200Y001290D01*
X039200Y001448D02*
X039160Y001448D01*
X039147Y001607D02*
X039213Y001607D01*
X039286Y001765D02*
X039074Y001765D01*
X038864Y001924D02*
X039496Y001924D01*
X038496Y001924D02*
X037864Y001924D01*
X037964Y002082D02*
X038396Y002082D01*
X038278Y002241D02*
X038082Y002241D01*
X038120Y002399D02*
X038240Y002399D01*
X038240Y002558D02*
X038120Y002558D01*
X038120Y002716D02*
X038240Y002716D01*
X038240Y002875D02*
X038120Y002875D01*
X038118Y003033D02*
X038242Y003033D01*
X038309Y003192D02*
X038051Y003192D01*
X037309Y003192D02*
X037051Y003192D01*
X037118Y003033D02*
X037242Y003033D01*
X037240Y002875D02*
X037120Y002875D01*
X037120Y002716D02*
X037240Y002716D01*
X037240Y002558D02*
X037120Y002558D01*
X037120Y002399D02*
X037240Y002399D01*
X037278Y002241D02*
X037082Y002241D01*
X036964Y002082D02*
X037396Y002082D01*
X037496Y001924D02*
X036864Y001924D01*
X037074Y001765D02*
X037286Y001765D01*
X037213Y001607D02*
X037147Y001607D01*
X037160Y001448D02*
X037200Y001448D01*
X037200Y001290D02*
X037160Y001290D01*
X037160Y001131D02*
X037200Y001131D01*
X037200Y000973D02*
X037160Y000973D01*
X037160Y000814D02*
X037200Y000814D01*
X037253Y000656D02*
X037107Y000656D01*
X036976Y000497D02*
X037384Y000497D01*
X037976Y000497D02*
X038384Y000497D01*
X038253Y000656D02*
X038107Y000656D01*
X038160Y000814D02*
X038200Y000814D01*
X038200Y000973D02*
X038160Y000973D01*
X038160Y001131D02*
X038200Y001131D01*
X038200Y001290D02*
X038160Y001290D01*
X038160Y001448D02*
X038200Y001448D01*
X038213Y001607D02*
X038147Y001607D01*
X038074Y001765D02*
X038286Y001765D01*
X036496Y001924D02*
X035864Y001924D01*
X035964Y002082D02*
X036396Y002082D01*
X036278Y002241D02*
X036082Y002241D01*
X036120Y002399D02*
X036240Y002399D01*
X036240Y002558D02*
X036120Y002558D01*
X036120Y002716D02*
X036240Y002716D01*
X036240Y002875D02*
X036120Y002875D01*
X036118Y003033D02*
X036242Y003033D01*
X036309Y003192D02*
X036051Y003192D01*
X035309Y003192D02*
X035051Y003192D01*
X035118Y003033D02*
X035242Y003033D01*
X035240Y002875D02*
X035120Y002875D01*
X035120Y002716D02*
X035240Y002716D01*
X035240Y002558D02*
X035120Y002558D01*
X035120Y002399D02*
X035240Y002399D01*
X035278Y002241D02*
X035082Y002241D01*
X034964Y002082D02*
X035396Y002082D01*
X035496Y001924D02*
X034864Y001924D01*
X035074Y001765D02*
X035286Y001765D01*
X035213Y001607D02*
X035147Y001607D01*
X035160Y001448D02*
X035200Y001448D01*
X035200Y001290D02*
X035160Y001290D01*
X035160Y001131D02*
X035200Y001131D01*
X035200Y000973D02*
X035160Y000973D01*
X035160Y000814D02*
X035200Y000814D01*
X035253Y000656D02*
X035107Y000656D01*
X034976Y000497D02*
X035384Y000497D01*
X035976Y000497D02*
X036384Y000497D01*
X036253Y000656D02*
X036107Y000656D01*
X036160Y000814D02*
X036200Y000814D01*
X036200Y000973D02*
X036160Y000973D01*
X036160Y001131D02*
X036200Y001131D01*
X036200Y001290D02*
X036160Y001290D01*
X036160Y001448D02*
X036200Y001448D01*
X036213Y001607D02*
X036147Y001607D01*
X036074Y001765D02*
X036286Y001765D01*
X034496Y001924D02*
X033864Y001924D01*
X033964Y002082D02*
X034396Y002082D01*
X034278Y002241D02*
X034082Y002241D01*
X034120Y002399D02*
X034240Y002399D01*
X034240Y002558D02*
X034120Y002558D01*
X034120Y002716D02*
X034169Y002716D01*
X033240Y002716D02*
X033120Y002716D01*
X033120Y002558D02*
X033240Y002558D01*
X033240Y002399D02*
X033120Y002399D01*
X033082Y002241D02*
X033278Y002241D01*
X033396Y002082D02*
X032964Y002082D01*
X032864Y001924D02*
X033496Y001924D01*
X033286Y001765D02*
X033074Y001765D01*
X033147Y001607D02*
X033213Y001607D01*
X033200Y001448D02*
X033160Y001448D01*
X033160Y001290D02*
X033200Y001290D01*
X033200Y001131D02*
X033160Y001131D01*
X033160Y000973D02*
X033200Y000973D01*
X033200Y000814D02*
X033160Y000814D01*
X033107Y000656D02*
X033253Y000656D01*
X033384Y000497D02*
X032976Y000497D01*
X033976Y000497D02*
X034384Y000497D01*
X034253Y000656D02*
X034107Y000656D01*
X034160Y000814D02*
X034200Y000814D01*
X034200Y000973D02*
X034160Y000973D01*
X034160Y001131D02*
X034200Y001131D01*
X034200Y001290D02*
X034160Y001290D01*
X034160Y001448D02*
X034200Y001448D01*
X034213Y001607D02*
X034147Y001607D01*
X034074Y001765D02*
X034286Y001765D01*
X033160Y002875D02*
X033120Y002875D01*
X001377Y009056D02*
X000460Y009056D01*
X000460Y008898D02*
X001219Y008898D01*
X001200Y008739D02*
X000460Y008739D01*
X000460Y008581D02*
X001200Y008581D01*
X001259Y008422D02*
X000460Y008422D01*
X000460Y005569D02*
X000947Y005569D01*
X000788Y005411D02*
X000460Y005411D01*
X000460Y005252D02*
X000740Y005252D01*
X001180Y005252D02*
X001180Y005252D01*
X001180Y005411D02*
X001180Y005411D01*
X001180Y005569D02*
X001180Y005569D01*
X000740Y005094D02*
X000460Y005094D01*
X000460Y004935D02*
X000803Y004935D01*
D18*
X001730Y005780D02*
X002030Y005480D01*
X002730Y005480D01*
X005030Y003180D01*
X005180Y003180D01*
X006180Y003180D02*
X006330Y003180D01*
X007030Y002480D01*
X008330Y002480D01*
X008730Y002880D01*
X008730Y003830D01*
X010630Y005730D01*
X010830Y005730D01*
X011230Y006130D01*
X011230Y006580D01*
X012080Y007430D01*
X012430Y007430D01*
X013180Y008180D01*
X014180Y008180D02*
X014180Y003680D01*
X013680Y003180D01*
X013530Y002480D02*
X012830Y003180D01*
X012680Y003180D01*
X013530Y002480D02*
X015830Y002480D01*
X016230Y002880D01*
X016230Y003580D01*
X016530Y003880D01*
X016830Y003880D01*
X017180Y003530D01*
X017180Y002580D01*
X018130Y002030D02*
X018130Y000680D01*
X017880Y000430D01*
X016430Y000430D01*
X015680Y001180D01*
X018130Y002030D02*
X019930Y003830D01*
X023880Y003830D01*
X024030Y004180D02*
X024680Y003530D01*
X025130Y002980D02*
X025930Y003780D01*
X033430Y003780D01*
X034530Y002680D01*
X034680Y002680D01*
X033680Y002680D02*
X032780Y003580D01*
X027730Y003580D01*
X027230Y003080D01*
X027230Y002380D01*
X026830Y001980D01*
X026530Y001980D01*
X026230Y001680D01*
X026230Y000780D01*
X025880Y000430D01*
X023480Y000430D01*
X023230Y000680D01*
X023230Y001580D01*
X022880Y001930D01*
X019080Y001930D01*
X023680Y001180D02*
X024430Y001930D01*
X024780Y001930D01*
X025130Y002280D01*
X025130Y002980D01*
X027680Y002680D02*
X027830Y002680D01*
X028530Y003380D01*
X029830Y003380D01*
X030230Y002980D01*
X030230Y002280D01*
X030580Y001930D01*
X030930Y001930D01*
X031680Y001180D01*
X030680Y001180D02*
X029930Y001930D01*
X029580Y001930D01*
X028830Y002680D01*
X028680Y002680D01*
X032130Y001580D02*
X032130Y000680D01*
X031880Y000430D01*
X027430Y000430D01*
X026680Y001180D01*
X032130Y001580D02*
X032680Y002130D01*
X032680Y002680D01*
X030130Y004130D02*
X034680Y008680D01*
X033680Y008680D02*
X033530Y008680D01*
X029130Y004280D01*
X024230Y004280D01*
X022680Y005830D01*
X021180Y005830D01*
X015380Y011630D01*
X010630Y011630D01*
X007680Y008680D01*
X007880Y008230D02*
X008230Y008580D01*
X008230Y008880D01*
X010780Y011430D01*
X015280Y011430D01*
X022530Y004180D01*
X024030Y004180D01*
X024330Y004480D02*
X022630Y006180D01*
X021330Y006180D01*
X022880Y006630D02*
X021230Y008280D01*
X021230Y010080D01*
X021630Y010480D01*
X021630Y011230D01*
X021180Y011680D01*
X022180Y010680D02*
X022180Y008330D01*
X022430Y008080D01*
X022430Y007630D01*
X022680Y007880D02*
X023930Y006630D01*
X023930Y006130D01*
X024130Y005930D01*
X028030Y005930D01*
X030230Y008130D01*
X030230Y010230D01*
X027980Y010230D01*
X027730Y010480D01*
X027730Y010780D01*
X027380Y011130D01*
X027080Y011130D01*
X026530Y011680D01*
X026180Y011680D01*
X025730Y011880D02*
X025730Y011130D01*
X026180Y010680D01*
X025980Y010230D02*
X025630Y010580D01*
X025630Y010880D01*
X025380Y011130D01*
X024630Y011130D01*
X024180Y010680D01*
X023730Y010880D02*
X024080Y011230D01*
X024380Y011230D01*
X024730Y011580D01*
X024730Y011880D01*
X025180Y012330D01*
X027530Y012330D01*
X028180Y011680D01*
X027980Y011230D02*
X027630Y011580D01*
X027630Y011880D01*
X027380Y012130D01*
X025980Y012130D01*
X025730Y011880D01*
X027980Y011230D02*
X029380Y011230D01*
X030280Y012130D01*
X035080Y012130D01*
X038530Y008680D01*
X038680Y008680D01*
X039130Y009080D02*
X039130Y008280D01*
X037830Y006980D01*
X033880Y006980D01*
X030680Y008280D02*
X027230Y004830D01*
X024880Y004830D01*
X024330Y004480D02*
X027330Y004480D01*
X031530Y008680D01*
X031680Y008680D01*
X030680Y008680D02*
X030680Y008280D01*
X029680Y007880D02*
X028080Y006280D01*
X024280Y006280D01*
X024180Y007330D02*
X026880Y007330D01*
X027680Y008130D01*
X027680Y008680D01*
X028130Y008280D02*
X028130Y009280D01*
X027180Y010230D01*
X025980Y010230D01*
X027030Y009880D02*
X026230Y009080D01*
X026230Y008380D01*
X025830Y007980D01*
X024530Y007980D01*
X023830Y008680D01*
X023680Y008680D01*
X022680Y008680D02*
X022680Y007880D01*
X024680Y008680D02*
X024680Y009530D01*
X023730Y010480D01*
X023730Y010880D01*
X025180Y010680D02*
X025180Y009580D01*
X027930Y008080D02*
X028130Y008280D01*
X027930Y008080D02*
X027930Y006630D01*
X029680Y007880D02*
X029680Y008680D01*
X030230Y010230D02*
X030230Y010730D01*
X031180Y011680D01*
X029830Y012330D02*
X029180Y011680D01*
X029830Y012330D02*
X035880Y012330D01*
X039130Y009080D01*
X009680Y001180D02*
X008930Y001930D01*
X004580Y001930D01*
X003330Y003180D01*
X003180Y003180D01*
X008180Y003180D02*
X008180Y005330D01*
X008680Y005830D01*
X008680Y007680D01*
X007880Y008230D02*
X002580Y008230D01*
X002230Y007880D01*
X002230Y007580D01*
X001730Y007080D01*
X001730Y005780D01*
M02*
