G75*
%MOIN*%
%OFA0B0*%
%FSLAX24Y24*%
%IPPOS*%
%LPD*%
%AMOC8*
5,1,8,0,0,1.08239X$1,22.5*
%
%ADD10C,0.0680*%
%ADD11OC8,0.0680*%
%ADD12OC8,0.0600*%
%ADD13C,0.0600*%
%ADD14C,0.0640*%
D10*
X000680Y000880D02*
X000680Y001480D01*
X001680Y001480D02*
X001680Y000880D01*
X002680Y000880D02*
X002680Y001480D01*
X003680Y001480D02*
X003680Y000880D01*
X004680Y000880D02*
X004680Y001480D01*
X005680Y001480D02*
X005680Y000880D01*
X006680Y000880D02*
X006680Y001480D01*
X007680Y001480D02*
X007680Y000880D01*
X008680Y000880D02*
X008680Y001480D01*
X009680Y001480D02*
X009680Y000880D01*
X010680Y000880D02*
X010680Y001480D01*
X011680Y001480D02*
X011680Y000880D01*
X012680Y000880D02*
X012680Y001480D01*
X013680Y001480D02*
X013680Y000880D01*
X014680Y000880D02*
X014680Y001480D01*
X015680Y001480D02*
X015680Y000880D01*
X016680Y000880D02*
X016680Y001480D01*
X017680Y001480D02*
X017680Y000880D01*
X018680Y000880D02*
X018680Y001480D01*
X019680Y001480D02*
X019680Y000880D01*
X020680Y000880D02*
X020680Y001480D01*
X021680Y001480D02*
X021680Y000880D01*
X022680Y000880D02*
X022680Y001480D01*
X023680Y001480D02*
X023680Y000880D01*
X024680Y000880D02*
X024680Y001480D01*
X025680Y001480D02*
X025680Y000880D01*
X026680Y000880D02*
X026680Y001480D01*
X027680Y001480D02*
X027680Y000880D01*
X028680Y000880D02*
X028680Y001480D01*
X029680Y001480D02*
X029680Y000880D01*
X030680Y000880D02*
X030680Y001480D01*
X031680Y001480D02*
X031680Y000880D01*
X032680Y000880D02*
X032680Y001480D01*
X033680Y001480D02*
X033680Y000880D01*
X034680Y000880D02*
X034680Y001480D01*
X035680Y001480D02*
X035680Y000880D01*
X036680Y000880D02*
X036680Y001480D01*
X037680Y001480D02*
X037680Y000880D01*
X038680Y000880D02*
X038680Y001480D01*
X039680Y001480D02*
X039680Y000880D01*
D11*
X029180Y010680D03*
X028180Y010680D03*
X027180Y010680D03*
X026180Y010680D03*
X025180Y010680D03*
X024180Y010680D03*
X023180Y010680D03*
X022180Y010680D03*
X021180Y010680D03*
X020180Y010680D03*
X019180Y010680D03*
X018180Y010680D03*
X017180Y010680D03*
X017180Y011680D03*
X018180Y011680D03*
X019180Y011680D03*
X020180Y011680D03*
X021180Y011680D03*
X022180Y011680D03*
X023180Y011680D03*
X024180Y011680D03*
X025180Y011680D03*
X026180Y011680D03*
X027180Y011680D03*
X028180Y011680D03*
X029180Y011680D03*
X031180Y011680D03*
X008680Y008680D03*
X007680Y008680D03*
X006680Y008680D03*
X005680Y008680D03*
X004680Y008680D03*
X003680Y008680D03*
X002680Y008680D03*
X001680Y008680D03*
X001680Y007680D03*
X002680Y007680D03*
X003680Y007680D03*
X004680Y007680D03*
X005680Y007680D03*
X006680Y007680D03*
X007680Y007680D03*
X008680Y007680D03*
D12*
X010680Y006180D03*
X010680Y005180D03*
X018680Y004680D03*
X018680Y003680D03*
X001180Y005180D03*
X001180Y006180D03*
D13*
X002180Y005920D02*
X002180Y006440D01*
X003180Y006440D02*
X003180Y005920D01*
X004180Y005920D02*
X004180Y006440D01*
X005180Y006440D02*
X005180Y005920D01*
X006180Y005920D02*
X006180Y006440D01*
X007180Y006440D02*
X007180Y005920D01*
X008180Y005920D02*
X008180Y006440D01*
X009180Y006440D02*
X009180Y005920D01*
X011680Y005920D02*
X011680Y006440D01*
X012680Y006440D02*
X012680Y005920D01*
X013680Y005920D02*
X013680Y006440D01*
X014680Y006440D02*
X014680Y005920D01*
X015680Y005920D02*
X015680Y006440D01*
X016680Y006440D02*
X016680Y005920D01*
X017680Y005920D02*
X017680Y006440D01*
X019680Y008420D02*
X019680Y008940D01*
X020680Y008940D02*
X020680Y008420D01*
X021680Y008420D02*
X021680Y008940D01*
X022680Y008940D02*
X022680Y008420D01*
X023680Y008420D02*
X023680Y008940D01*
X024680Y008940D02*
X024680Y008420D01*
X025680Y008420D02*
X025680Y008940D01*
X026680Y008940D02*
X026680Y008420D01*
X027680Y008420D02*
X027680Y008940D01*
X028680Y008940D02*
X028680Y008420D01*
X029680Y008420D02*
X029680Y008940D01*
X030680Y008940D02*
X030680Y008420D01*
X031680Y008420D02*
X031680Y008940D01*
X032680Y008940D02*
X032680Y008420D01*
X033680Y008420D02*
X033680Y008940D01*
X034680Y008940D02*
X034680Y008420D01*
X035680Y008420D02*
X035680Y008940D01*
X036680Y008940D02*
X036680Y008420D01*
X037680Y008420D02*
X037680Y008940D01*
X038680Y008940D02*
X038680Y008420D01*
X038680Y002940D02*
X038680Y002420D01*
X037680Y002420D02*
X037680Y002940D01*
X036680Y002940D02*
X036680Y002420D01*
X035680Y002420D02*
X035680Y002940D01*
X034680Y002940D02*
X034680Y002420D01*
X033680Y002420D02*
X033680Y002940D01*
X032680Y002940D02*
X032680Y002420D01*
X031680Y002420D02*
X031680Y002940D01*
X030680Y002940D02*
X030680Y002420D01*
X029680Y002420D02*
X029680Y002940D01*
X028680Y002940D02*
X028680Y002420D01*
X027680Y002420D02*
X027680Y002940D01*
X026680Y002940D02*
X026680Y002420D01*
X025680Y002420D02*
X025680Y002940D01*
X024680Y002940D02*
X024680Y002420D01*
X023680Y002420D02*
X023680Y002940D01*
X022680Y002940D02*
X022680Y002420D01*
X021680Y002420D02*
X021680Y002940D01*
X020680Y002940D02*
X020680Y002420D01*
X019680Y002420D02*
X019680Y002940D01*
X017680Y002920D02*
X017680Y003440D01*
X016680Y003440D02*
X016680Y002920D01*
X015680Y002920D02*
X015680Y003440D01*
X014680Y003440D02*
X014680Y002920D01*
X013680Y002920D02*
X013680Y003440D01*
X012680Y003440D02*
X012680Y002920D01*
X011680Y002920D02*
X011680Y003440D01*
X009180Y003440D02*
X009180Y002920D01*
X008180Y002920D02*
X008180Y003440D01*
X007180Y003440D02*
X007180Y002920D01*
X006180Y002920D02*
X006180Y003440D01*
X005180Y003440D02*
X005180Y002920D01*
X004180Y002920D02*
X004180Y003440D01*
X003180Y003440D02*
X003180Y002920D01*
X002180Y002920D02*
X002180Y003440D01*
D14*
X012180Y007900D02*
X012180Y008460D01*
X013180Y008460D02*
X013180Y007900D01*
X014180Y007900D02*
X014180Y008460D01*
X014180Y010400D02*
X014180Y010960D01*
X013180Y010960D02*
X013180Y010400D01*
X012180Y010400D02*
X012180Y010960D01*
M02*
