G75*
%MOIN*%
%OFA0B0*%
%FSLAX24Y24*%
%IPPOS*%
%LPD*%
%AMOC8*
5,1,8,0,0,1.08239X$1,22.5*
%
%ADD10C,0.0600*%
%ADD11OC8,0.0600*%
%ADD12OC8,0.0520*%
%ADD13C,0.0520*%
%ADD14C,0.0560*%
%ADD15C,0.0200*%
%ADD16C,0.0400*%
%ADD17C,0.0100*%
D10*
X000680Y000880D02*
X000680Y001480D01*
X001680Y001480D02*
X001680Y000880D01*
X002680Y000880D02*
X002680Y001480D01*
X003680Y001480D02*
X003680Y000880D01*
X004680Y000880D02*
X004680Y001480D01*
X005680Y001480D02*
X005680Y000880D01*
X006680Y000880D02*
X006680Y001480D01*
X007680Y001480D02*
X007680Y000880D01*
X008680Y000880D02*
X008680Y001480D01*
X009680Y001480D02*
X009680Y000880D01*
X010680Y000880D02*
X010680Y001480D01*
X011680Y001480D02*
X011680Y000880D01*
X012680Y000880D02*
X012680Y001480D01*
X013680Y001480D02*
X013680Y000880D01*
X014680Y000880D02*
X014680Y001480D01*
X015680Y001480D02*
X015680Y000880D01*
X016680Y000880D02*
X016680Y001480D01*
X017680Y001480D02*
X017680Y000880D01*
X018680Y000880D02*
X018680Y001480D01*
X019680Y001480D02*
X019680Y000880D01*
X020680Y000880D02*
X020680Y001480D01*
X021680Y001480D02*
X021680Y000880D01*
X022680Y000880D02*
X022680Y001480D01*
X023680Y001480D02*
X023680Y000880D01*
X024680Y000880D02*
X024680Y001480D01*
X025680Y001480D02*
X025680Y000880D01*
X026680Y000880D02*
X026680Y001480D01*
X027680Y001480D02*
X027680Y000880D01*
X028680Y000880D02*
X028680Y001480D01*
X029680Y001480D02*
X029680Y000880D01*
X030680Y000880D02*
X030680Y001480D01*
X031680Y001480D02*
X031680Y000880D01*
X032680Y000880D02*
X032680Y001480D01*
X033680Y001480D02*
X033680Y000880D01*
X034680Y000880D02*
X034680Y001480D01*
X035680Y001480D02*
X035680Y000880D01*
X036680Y000880D02*
X036680Y001480D01*
X037680Y001480D02*
X037680Y000880D01*
X038680Y000880D02*
X038680Y001480D01*
X039680Y001480D02*
X039680Y000880D01*
D11*
X029180Y010680D03*
X028180Y010680D03*
X027180Y010680D03*
X026180Y010680D03*
X025180Y010680D03*
X024180Y010680D03*
X023180Y010680D03*
X022180Y010680D03*
X021180Y010680D03*
X020180Y010680D03*
X019180Y010680D03*
X018180Y010680D03*
X017180Y010680D03*
X017180Y011680D03*
X018180Y011680D03*
X019180Y011680D03*
X020180Y011680D03*
X021180Y011680D03*
X022180Y011680D03*
X023180Y011680D03*
X024180Y011680D03*
X025180Y011680D03*
X026180Y011680D03*
X027180Y011680D03*
X028180Y011680D03*
X029180Y011680D03*
X031180Y011680D03*
X008680Y008680D03*
X007680Y008680D03*
X006680Y008680D03*
X005680Y008680D03*
X004680Y008680D03*
X003680Y008680D03*
X002680Y008680D03*
X001680Y008680D03*
X001680Y007680D03*
X002680Y007680D03*
X003680Y007680D03*
X004680Y007680D03*
X005680Y007680D03*
X006680Y007680D03*
X007680Y007680D03*
X008680Y007680D03*
D12*
X010680Y006180D03*
X010680Y005180D03*
X018680Y004680D03*
X018680Y003680D03*
X001180Y005180D03*
X001180Y006180D03*
D13*
X002180Y005920D02*
X002180Y006440D01*
X003180Y006440D02*
X003180Y005920D01*
X004180Y005920D02*
X004180Y006440D01*
X005180Y006440D02*
X005180Y005920D01*
X006180Y005920D02*
X006180Y006440D01*
X007180Y006440D02*
X007180Y005920D01*
X008180Y005920D02*
X008180Y006440D01*
X009180Y006440D02*
X009180Y005920D01*
X011680Y005920D02*
X011680Y006440D01*
X012680Y006440D02*
X012680Y005920D01*
X013680Y005920D02*
X013680Y006440D01*
X014680Y006440D02*
X014680Y005920D01*
X015680Y005920D02*
X015680Y006440D01*
X016680Y006440D02*
X016680Y005920D01*
X017680Y005920D02*
X017680Y006440D01*
X019680Y008420D02*
X019680Y008940D01*
X020680Y008940D02*
X020680Y008420D01*
X021680Y008420D02*
X021680Y008940D01*
X022680Y008940D02*
X022680Y008420D01*
X023680Y008420D02*
X023680Y008940D01*
X024680Y008940D02*
X024680Y008420D01*
X025680Y008420D02*
X025680Y008940D01*
X026680Y008940D02*
X026680Y008420D01*
X027680Y008420D02*
X027680Y008940D01*
X028680Y008940D02*
X028680Y008420D01*
X029680Y008420D02*
X029680Y008940D01*
X030680Y008940D02*
X030680Y008420D01*
X031680Y008420D02*
X031680Y008940D01*
X032680Y008940D02*
X032680Y008420D01*
X033680Y008420D02*
X033680Y008940D01*
X034680Y008940D02*
X034680Y008420D01*
X035680Y008420D02*
X035680Y008940D01*
X036680Y008940D02*
X036680Y008420D01*
X037680Y008420D02*
X037680Y008940D01*
X038680Y008940D02*
X038680Y008420D01*
X038680Y002940D02*
X038680Y002420D01*
X037680Y002420D02*
X037680Y002940D01*
X036680Y002940D02*
X036680Y002420D01*
X035680Y002420D02*
X035680Y002940D01*
X034680Y002940D02*
X034680Y002420D01*
X033680Y002420D02*
X033680Y002940D01*
X032680Y002940D02*
X032680Y002420D01*
X031680Y002420D02*
X031680Y002940D01*
X030680Y002940D02*
X030680Y002420D01*
X029680Y002420D02*
X029680Y002940D01*
X028680Y002940D02*
X028680Y002420D01*
X027680Y002420D02*
X027680Y002940D01*
X026680Y002940D02*
X026680Y002420D01*
X025680Y002420D02*
X025680Y002940D01*
X024680Y002940D02*
X024680Y002420D01*
X023680Y002420D02*
X023680Y002940D01*
X022680Y002940D02*
X022680Y002420D01*
X021680Y002420D02*
X021680Y002940D01*
X020680Y002940D02*
X020680Y002420D01*
X019680Y002420D02*
X019680Y002940D01*
X017680Y002920D02*
X017680Y003440D01*
X016680Y003440D02*
X016680Y002920D01*
X015680Y002920D02*
X015680Y003440D01*
X014680Y003440D02*
X014680Y002920D01*
X013680Y002920D02*
X013680Y003440D01*
X012680Y003440D02*
X012680Y002920D01*
X011680Y002920D02*
X011680Y003440D01*
X009180Y003440D02*
X009180Y002920D01*
X008180Y002920D02*
X008180Y003440D01*
X007180Y003440D02*
X007180Y002920D01*
X006180Y002920D02*
X006180Y003440D01*
X005180Y003440D02*
X005180Y002920D01*
X004180Y002920D02*
X004180Y003440D01*
X003180Y003440D02*
X003180Y002920D01*
X002180Y002920D02*
X002180Y003440D01*
D14*
X012180Y007900D02*
X012180Y008460D01*
X013180Y008460D02*
X013180Y007900D01*
X014180Y007900D02*
X014180Y008460D01*
X014180Y010400D02*
X014180Y010960D01*
X013180Y010960D02*
X013180Y010400D01*
X012180Y010400D02*
X012180Y010960D01*
D15*
X012180Y010680D02*
X012180Y009530D01*
X015930Y009530D01*
X015980Y009480D01*
X017180Y010680D01*
X015980Y009480D02*
X015980Y006980D01*
X015930Y006930D01*
X016680Y006180D01*
X015930Y006930D02*
X015430Y006930D01*
X014680Y006180D01*
X012680Y006180D02*
X011680Y007180D01*
X011680Y008680D01*
X012180Y009180D01*
X012180Y009530D01*
X011680Y006180D02*
X010680Y006180D01*
X011730Y005230D02*
X012680Y006180D01*
X011730Y005230D02*
X010730Y005230D01*
X010680Y005180D01*
X009180Y003680D01*
X007680Y005180D01*
X001180Y005180D01*
X001180Y006180D02*
X002180Y006180D01*
X009180Y003680D02*
X009180Y003180D01*
X015680Y003180D02*
X015680Y002230D01*
X016680Y001230D01*
X016680Y001180D01*
X017930Y001980D02*
X018680Y001230D01*
X018680Y001180D01*
X017930Y001980D02*
X017180Y001980D01*
X016930Y002230D01*
X016780Y002230D01*
X018680Y003680D02*
X018930Y003430D01*
X020030Y003430D01*
X026930Y007880D02*
X031880Y007880D01*
X032680Y008680D01*
D16*
X033880Y006980D03*
X027930Y006630D03*
X024280Y006280D03*
X022880Y006630D03*
X021330Y006180D03*
X024180Y007330D03*
X022430Y007630D03*
X026930Y007880D03*
X025180Y009580D03*
X027030Y009880D03*
X024880Y004830D03*
X023880Y003830D03*
X024680Y003530D03*
X020030Y003430D03*
X017180Y002580D03*
X016780Y002230D03*
X019080Y001930D03*
X030130Y004130D03*
D17*
X024780Y004130D01*
X024230Y003580D01*
X024230Y001630D01*
X024680Y001180D01*
X025230Y001630D02*
X025680Y001180D01*
X025230Y001630D02*
X025230Y002980D01*
X024680Y003530D01*
X023880Y003830D02*
X024880Y004830D01*
X023680Y003530D02*
X022880Y004330D01*
X022880Y006630D01*
X022680Y006330D02*
X021130Y007880D01*
X021130Y010080D01*
X020630Y010580D01*
X020630Y011230D01*
X020180Y011680D01*
X019630Y011230D02*
X019180Y011680D01*
X018630Y011230D02*
X018180Y011680D01*
X017180Y011680D02*
X014280Y011680D01*
X013280Y010680D01*
X013180Y010680D01*
X018180Y010680D02*
X018180Y009030D01*
X020380Y006830D01*
X020380Y003280D01*
X019780Y002680D01*
X019680Y002680D01*
X020680Y002680D02*
X020680Y006830D01*
X018630Y008880D01*
X018630Y011230D01*
X019630Y011230D02*
X019630Y010580D01*
X020130Y010080D01*
X020130Y008380D01*
X021680Y006830D01*
X021680Y002680D01*
X021330Y003180D02*
X021130Y002980D01*
X021130Y002280D01*
X020830Y001980D01*
X019530Y001980D01*
X018130Y003380D01*
X018130Y003580D01*
X017830Y003880D01*
X015530Y003880D01*
X015130Y003480D01*
X015130Y001630D01*
X014680Y001180D01*
X013680Y003180D02*
X011680Y001180D01*
X010680Y001180D02*
X009930Y001930D01*
X009580Y001930D01*
X008730Y002780D01*
X008730Y003480D01*
X008330Y003880D01*
X003030Y003880D01*
X002330Y003180D01*
X002180Y003180D01*
X004180Y003180D02*
X004330Y003180D01*
X005580Y001930D01*
X007930Y001930D01*
X008680Y001180D01*
X011230Y000680D02*
X011480Y000430D01*
X018930Y000430D01*
X019680Y001180D01*
X019080Y001930D02*
X018780Y002230D01*
X017780Y002230D01*
X017430Y002580D01*
X017180Y002580D01*
X014680Y003180D02*
X014680Y004330D01*
X013130Y005880D01*
X013130Y007230D01*
X012180Y008180D01*
X008680Y008680D02*
X007680Y008680D01*
X006680Y008680D01*
X005680Y008680D01*
X004680Y008680D01*
X003680Y008680D01*
X002680Y008680D01*
X001680Y008680D01*
X001680Y007680D02*
X003180Y006180D01*
X004180Y006180D02*
X002680Y007680D01*
X003680Y007680D02*
X005180Y006180D01*
X006180Y006180D02*
X004680Y007680D01*
X005680Y007680D02*
X007180Y006180D01*
X008180Y006180D02*
X006680Y007680D01*
X007680Y007680D02*
X009180Y006180D01*
X011680Y003180D02*
X011680Y002130D01*
X011230Y001680D01*
X011230Y000680D01*
X021330Y003180D02*
X021330Y006180D01*
X022680Y006330D02*
X022680Y002680D01*
X023680Y002680D02*
X023680Y003530D01*
X025680Y002680D02*
X025830Y002680D01*
X026580Y001930D01*
X026880Y001930D01*
X027230Y001580D01*
X027230Y000680D01*
X027480Y000430D01*
X032930Y000430D01*
X033680Y001180D01*
X032680Y001180D02*
X032230Y001630D01*
X032230Y002980D01*
X031430Y003780D01*
X027930Y003780D01*
X026830Y002680D01*
X026680Y002680D01*
X028130Y002980D02*
X028130Y001630D01*
X027680Y001180D01*
X028680Y001180D02*
X029130Y001630D01*
X029130Y002980D01*
X029530Y003380D01*
X029830Y003380D01*
X030530Y002680D01*
X030680Y002680D01*
X031530Y002680D02*
X030630Y003580D01*
X028730Y003580D01*
X028130Y002980D01*
X029680Y002680D02*
X029680Y001180D01*
X031530Y002680D02*
X031680Y002680D01*
X032280Y005930D02*
X035530Y002680D01*
X035680Y002680D01*
X036680Y002680D02*
X036830Y002680D01*
X037530Y001980D01*
X038830Y001980D01*
X039130Y002280D01*
X039130Y003080D01*
X034680Y007530D01*
X026780Y007530D01*
X026130Y008180D01*
X026130Y009430D01*
X025330Y010230D01*
X024980Y010230D01*
X024630Y010580D01*
X024630Y011880D01*
X024380Y012130D01*
X023980Y012130D01*
X023630Y011780D01*
X023630Y011430D01*
X023180Y010980D01*
X023180Y010680D01*
X023730Y010580D02*
X023730Y011230D01*
X024180Y011680D01*
X025180Y011680D02*
X025630Y011230D01*
X025630Y010480D01*
X026680Y009430D01*
X026680Y008680D01*
X025680Y008680D02*
X025680Y009580D01*
X025330Y009930D01*
X025030Y009930D01*
X024230Y009130D01*
X024230Y008280D01*
X025530Y006980D01*
X033880Y006980D01*
X034030Y007330D02*
X026180Y007330D01*
X025180Y008330D01*
X025180Y009580D01*
X026630Y009780D02*
X026880Y009530D01*
X027680Y009530D01*
X028530Y008680D01*
X028680Y008680D01*
X026630Y009780D02*
X026630Y010880D01*
X026280Y011230D01*
X025980Y011230D01*
X025630Y011580D01*
X025630Y011880D01*
X025180Y012330D01*
X023830Y012330D01*
X023180Y011680D01*
X022630Y011230D02*
X022180Y011680D01*
X022630Y011230D02*
X022630Y010480D01*
X022230Y010080D01*
X022230Y008280D01*
X022530Y007980D01*
X022580Y007980D01*
X024280Y006280D01*
X024130Y005930D02*
X022430Y007630D01*
X023230Y008280D02*
X023230Y010080D01*
X023730Y010580D01*
X021680Y010180D02*
X021180Y010680D01*
X020680Y010180D02*
X020180Y010680D01*
X019680Y010180D02*
X019180Y010680D01*
X019680Y010180D02*
X019680Y008680D01*
X020680Y008680D02*
X020680Y010180D01*
X021680Y010180D02*
X021680Y008680D01*
X023230Y008280D02*
X024180Y007330D01*
X027930Y006630D02*
X033580Y006630D01*
X037530Y002680D01*
X037680Y002680D01*
X038680Y002680D02*
X034030Y007330D01*
X032280Y005930D02*
X024130Y005930D01*
X033530Y010680D02*
X035530Y008680D01*
X035680Y008680D01*
X036530Y008680D02*
X034080Y011130D01*
X028630Y011130D01*
X028180Y010680D01*
X027630Y010480D02*
X027630Y011230D01*
X027180Y011680D01*
X026730Y011880D02*
X026730Y011130D01*
X027180Y010680D01*
X027630Y010480D02*
X027030Y009880D01*
X029180Y010680D02*
X033530Y010680D01*
X034080Y012130D02*
X026980Y012130D01*
X026730Y011880D01*
X034080Y012130D02*
X037530Y008680D01*
X037680Y008680D01*
X036680Y008680D02*
X036530Y008680D01*
M02*
