G75*
%MOIN*%
%OFA0B0*%
%FSLAX24Y24*%
%IPPOS*%
%LPD*%
%AMOC8*
5,1,8,0,0,1.08239X$1,22.5*
%
%ADD10C,0.0000*%
D10*
X000180Y000180D02*
X000180Y010176D01*
X016050Y010176D01*
X016050Y000180D01*
X000180Y000180D01*
X000555Y001180D02*
X000557Y001230D01*
X000563Y001279D01*
X000573Y001328D01*
X000586Y001375D01*
X000604Y001422D01*
X000625Y001467D01*
X000649Y001510D01*
X000677Y001551D01*
X000708Y001590D01*
X000742Y001626D01*
X000779Y001660D01*
X000819Y001690D01*
X000860Y001717D01*
X000904Y001741D01*
X000949Y001761D01*
X000996Y001777D01*
X001044Y001790D01*
X001093Y001799D01*
X001143Y001804D01*
X001192Y001805D01*
X001242Y001802D01*
X001291Y001795D01*
X001340Y001784D01*
X001387Y001770D01*
X001433Y001751D01*
X001478Y001729D01*
X001521Y001704D01*
X001561Y001675D01*
X001599Y001643D01*
X001635Y001609D01*
X001668Y001571D01*
X001697Y001531D01*
X001723Y001489D01*
X001746Y001445D01*
X001765Y001399D01*
X001781Y001352D01*
X001793Y001303D01*
X001801Y001254D01*
X001805Y001205D01*
X001805Y001155D01*
X001801Y001106D01*
X001793Y001057D01*
X001781Y001008D01*
X001765Y000961D01*
X001746Y000915D01*
X001723Y000871D01*
X001697Y000829D01*
X001668Y000789D01*
X001635Y000751D01*
X001599Y000717D01*
X001561Y000685D01*
X001521Y000656D01*
X001478Y000631D01*
X001433Y000609D01*
X001387Y000590D01*
X001340Y000576D01*
X001291Y000565D01*
X001242Y000558D01*
X001192Y000555D01*
X001143Y000556D01*
X001093Y000561D01*
X001044Y000570D01*
X000996Y000583D01*
X000949Y000599D01*
X000904Y000619D01*
X000860Y000643D01*
X000819Y000670D01*
X000779Y000700D01*
X000742Y000734D01*
X000708Y000770D01*
X000677Y000809D01*
X000649Y000850D01*
X000625Y000893D01*
X000604Y000938D01*
X000586Y000985D01*
X000573Y001032D01*
X000563Y001081D01*
X000557Y001130D01*
X000555Y001180D01*
X000555Y009180D02*
X000557Y009230D01*
X000563Y009279D01*
X000573Y009328D01*
X000586Y009375D01*
X000604Y009422D01*
X000625Y009467D01*
X000649Y009510D01*
X000677Y009551D01*
X000708Y009590D01*
X000742Y009626D01*
X000779Y009660D01*
X000819Y009690D01*
X000860Y009717D01*
X000904Y009741D01*
X000949Y009761D01*
X000996Y009777D01*
X001044Y009790D01*
X001093Y009799D01*
X001143Y009804D01*
X001192Y009805D01*
X001242Y009802D01*
X001291Y009795D01*
X001340Y009784D01*
X001387Y009770D01*
X001433Y009751D01*
X001478Y009729D01*
X001521Y009704D01*
X001561Y009675D01*
X001599Y009643D01*
X001635Y009609D01*
X001668Y009571D01*
X001697Y009531D01*
X001723Y009489D01*
X001746Y009445D01*
X001765Y009399D01*
X001781Y009352D01*
X001793Y009303D01*
X001801Y009254D01*
X001805Y009205D01*
X001805Y009155D01*
X001801Y009106D01*
X001793Y009057D01*
X001781Y009008D01*
X001765Y008961D01*
X001746Y008915D01*
X001723Y008871D01*
X001697Y008829D01*
X001668Y008789D01*
X001635Y008751D01*
X001599Y008717D01*
X001561Y008685D01*
X001521Y008656D01*
X001478Y008631D01*
X001433Y008609D01*
X001387Y008590D01*
X001340Y008576D01*
X001291Y008565D01*
X001242Y008558D01*
X001192Y008555D01*
X001143Y008556D01*
X001093Y008561D01*
X001044Y008570D01*
X000996Y008583D01*
X000949Y008599D01*
X000904Y008619D01*
X000860Y008643D01*
X000819Y008670D01*
X000779Y008700D01*
X000742Y008734D01*
X000708Y008770D01*
X000677Y008809D01*
X000649Y008850D01*
X000625Y008893D01*
X000604Y008938D01*
X000586Y008985D01*
X000573Y009032D01*
X000563Y009081D01*
X000557Y009130D01*
X000555Y009180D01*
X012555Y009180D02*
X012557Y009230D01*
X012563Y009279D01*
X012573Y009328D01*
X012586Y009375D01*
X012604Y009422D01*
X012625Y009467D01*
X012649Y009510D01*
X012677Y009551D01*
X012708Y009590D01*
X012742Y009626D01*
X012779Y009660D01*
X012819Y009690D01*
X012860Y009717D01*
X012904Y009741D01*
X012949Y009761D01*
X012996Y009777D01*
X013044Y009790D01*
X013093Y009799D01*
X013143Y009804D01*
X013192Y009805D01*
X013242Y009802D01*
X013291Y009795D01*
X013340Y009784D01*
X013387Y009770D01*
X013433Y009751D01*
X013478Y009729D01*
X013521Y009704D01*
X013561Y009675D01*
X013599Y009643D01*
X013635Y009609D01*
X013668Y009571D01*
X013697Y009531D01*
X013723Y009489D01*
X013746Y009445D01*
X013765Y009399D01*
X013781Y009352D01*
X013793Y009303D01*
X013801Y009254D01*
X013805Y009205D01*
X013805Y009155D01*
X013801Y009106D01*
X013793Y009057D01*
X013781Y009008D01*
X013765Y008961D01*
X013746Y008915D01*
X013723Y008871D01*
X013697Y008829D01*
X013668Y008789D01*
X013635Y008751D01*
X013599Y008717D01*
X013561Y008685D01*
X013521Y008656D01*
X013478Y008631D01*
X013433Y008609D01*
X013387Y008590D01*
X013340Y008576D01*
X013291Y008565D01*
X013242Y008558D01*
X013192Y008555D01*
X013143Y008556D01*
X013093Y008561D01*
X013044Y008570D01*
X012996Y008583D01*
X012949Y008599D01*
X012904Y008619D01*
X012860Y008643D01*
X012819Y008670D01*
X012779Y008700D01*
X012742Y008734D01*
X012708Y008770D01*
X012677Y008809D01*
X012649Y008850D01*
X012625Y008893D01*
X012604Y008938D01*
X012586Y008985D01*
X012573Y009032D01*
X012563Y009081D01*
X012557Y009130D01*
X012555Y009180D01*
X012555Y001180D02*
X012557Y001230D01*
X012563Y001279D01*
X012573Y001328D01*
X012586Y001375D01*
X012604Y001422D01*
X012625Y001467D01*
X012649Y001510D01*
X012677Y001551D01*
X012708Y001590D01*
X012742Y001626D01*
X012779Y001660D01*
X012819Y001690D01*
X012860Y001717D01*
X012904Y001741D01*
X012949Y001761D01*
X012996Y001777D01*
X013044Y001790D01*
X013093Y001799D01*
X013143Y001804D01*
X013192Y001805D01*
X013242Y001802D01*
X013291Y001795D01*
X013340Y001784D01*
X013387Y001770D01*
X013433Y001751D01*
X013478Y001729D01*
X013521Y001704D01*
X013561Y001675D01*
X013599Y001643D01*
X013635Y001609D01*
X013668Y001571D01*
X013697Y001531D01*
X013723Y001489D01*
X013746Y001445D01*
X013765Y001399D01*
X013781Y001352D01*
X013793Y001303D01*
X013801Y001254D01*
X013805Y001205D01*
X013805Y001155D01*
X013801Y001106D01*
X013793Y001057D01*
X013781Y001008D01*
X013765Y000961D01*
X013746Y000915D01*
X013723Y000871D01*
X013697Y000829D01*
X013668Y000789D01*
X013635Y000751D01*
X013599Y000717D01*
X013561Y000685D01*
X013521Y000656D01*
X013478Y000631D01*
X013433Y000609D01*
X013387Y000590D01*
X013340Y000576D01*
X013291Y000565D01*
X013242Y000558D01*
X013192Y000555D01*
X013143Y000556D01*
X013093Y000561D01*
X013044Y000570D01*
X012996Y000583D01*
X012949Y000599D01*
X012904Y000619D01*
X012860Y000643D01*
X012819Y000670D01*
X012779Y000700D01*
X012742Y000734D01*
X012708Y000770D01*
X012677Y000809D01*
X012649Y000850D01*
X012625Y000893D01*
X012604Y000938D01*
X012586Y000985D01*
X012573Y001032D01*
X012563Y001081D01*
X012557Y001130D01*
X012555Y001180D01*
M02*
