%
M48
M72
T01C0.0320
T02C0.0360
T03C0.0400
T04C0.0440
T05C0.1250
%
T01
X3680Y3180
X3680Y4180
X4180Y5680
X4180Y6680
X6180Y6180
X6180Y5180
X6180Y7180
X6180Y8180
X5180Y8180
X5680Y9180
X2680Y9180
X2180Y8180
X2180Y7180
X1180Y7180
X9180Y7180
X9180Y8180
X9180Y9180
X10180Y9180
X9180Y6180
X9180Y5180
X11180Y5180
X11180Y6180
X13180Y6180
X13180Y5180
X13180Y4180
X13180Y3180
X11180Y3180
X11180Y2180
T02
X14680Y6680
X14680Y7680
T03
X14680Y4680
X14680Y3680
X14680Y2680
T04
X9180Y2180
X9180Y3680
X5180Y3680
X5180Y2180
X5180Y680
X9180Y680
T05
X1180Y1180
X13180Y1180
X13180Y9180
X1180Y9180
M30
