G75*
%MOIN*%
%OFA0B0*%
%FSLAX24Y24*%
%IPPOS*%
%LPD*%
%AMOC8*
5,1,8,0,0,1.08239X$1,22.5*
%
%ADD10C,0.0030*%
%ADD11C,0.0060*%
%ADD12C,0.0050*%
%ADD13C,0.0100*%
%ADD14R,0.0200X0.1000*%
%ADD15R,0.0750X0.0300*%
%ADD16R,0.0150X0.0200*%
%ADD17C,0.0040*%
D10*
X015375Y002243D02*
X015423Y002195D01*
X015617Y002195D01*
X015665Y002243D01*
X015665Y002340D01*
X015617Y002388D01*
X015520Y002388D01*
X015520Y002292D01*
X015423Y002388D02*
X015375Y002340D01*
X015375Y002243D01*
X015423Y003195D02*
X015375Y003243D01*
X015375Y003340D01*
X015423Y003388D01*
X015472Y003388D01*
X015665Y003195D01*
X015665Y003388D01*
X015568Y003490D02*
X015665Y003586D01*
X015568Y003683D01*
X015375Y003683D01*
X015423Y003784D02*
X015375Y003833D01*
X015375Y003929D01*
X015423Y003978D01*
X015617Y003978D01*
X015665Y003929D01*
X015665Y003833D01*
X015617Y003784D01*
X015423Y003784D01*
X015375Y003490D02*
X015568Y003490D01*
X015568Y004695D02*
X015375Y004695D01*
X015568Y004695D02*
X015665Y004792D01*
X015568Y004888D01*
X015375Y004888D01*
X015423Y004990D02*
X015375Y005038D01*
X015375Y005135D01*
X015423Y005183D01*
X015617Y005183D01*
X015665Y005135D01*
X015665Y005038D01*
X015617Y004990D01*
X015423Y004990D01*
X015423Y006195D02*
X015617Y006195D01*
X015665Y006243D01*
X015665Y006340D01*
X015617Y006388D01*
X015520Y006388D01*
X015520Y006292D01*
X015423Y006388D02*
X015375Y006340D01*
X015375Y006243D01*
X015423Y006195D01*
X015375Y007195D02*
X015568Y007195D01*
X015665Y007292D01*
X015568Y007388D01*
X015375Y007388D01*
X015423Y007490D02*
X015375Y007538D01*
X015375Y007635D01*
X015423Y007683D01*
X015423Y007784D02*
X015375Y007833D01*
X015375Y007929D01*
X015423Y007978D01*
X015617Y007978D02*
X015665Y007929D01*
X015665Y007833D01*
X015617Y007784D01*
X015423Y007784D01*
X015617Y007683D02*
X015665Y007635D01*
X015665Y007538D01*
X015617Y007490D01*
X015423Y007490D01*
D11*
X015180Y007280D02*
X015180Y008080D01*
X015080Y008180D01*
X014280Y008180D01*
X014180Y008080D01*
X014180Y007280D01*
X014280Y007180D01*
X014180Y007080D01*
X014180Y006280D01*
X014280Y006180D01*
X015080Y006180D01*
X015180Y006280D01*
X015180Y007080D01*
X015080Y007180D01*
X015180Y007280D01*
X013680Y006530D02*
X013680Y004830D01*
X013678Y004813D01*
X013674Y004796D01*
X013667Y004780D01*
X013657Y004766D01*
X013644Y004753D01*
X013630Y004743D01*
X013614Y004736D01*
X013597Y004732D01*
X013580Y004730D01*
X012780Y004730D01*
X012780Y004630D02*
X013580Y004630D01*
X013597Y004628D01*
X013614Y004624D01*
X013630Y004617D01*
X013644Y004607D01*
X013657Y004594D01*
X013667Y004580D01*
X013674Y004564D01*
X013678Y004547D01*
X013680Y004530D01*
X013680Y002830D01*
X013678Y002813D01*
X013674Y002796D01*
X013667Y002780D01*
X013657Y002766D01*
X013644Y002753D01*
X013630Y002743D01*
X013614Y002736D01*
X013597Y002732D01*
X013580Y002730D01*
X012780Y002730D01*
X012763Y002732D01*
X012746Y002736D01*
X012730Y002743D01*
X012716Y002753D01*
X012703Y002766D01*
X012693Y002780D01*
X012686Y002796D01*
X012682Y002813D01*
X012680Y002830D01*
X012680Y004530D01*
X012682Y004547D01*
X012686Y004564D01*
X012693Y004580D01*
X012703Y004594D01*
X012716Y004607D01*
X012730Y004617D01*
X012746Y004624D01*
X012763Y004628D01*
X012780Y004630D01*
X012780Y004730D02*
X012763Y004732D01*
X012746Y004736D01*
X012730Y004743D01*
X012716Y004753D01*
X012703Y004766D01*
X012693Y004780D01*
X012686Y004796D01*
X012682Y004813D01*
X012680Y004830D01*
X012680Y006530D01*
X012682Y006547D01*
X012686Y006564D01*
X012693Y006580D01*
X012703Y006594D01*
X012716Y006607D01*
X012730Y006617D01*
X012746Y006624D01*
X012763Y006628D01*
X012780Y006630D01*
X013580Y006630D01*
X013597Y006628D01*
X013614Y006624D01*
X013630Y006617D01*
X013644Y006607D01*
X013657Y006594D01*
X013667Y006580D01*
X013674Y006564D01*
X013678Y006547D01*
X013680Y006530D01*
X013180Y005830D02*
X013180Y005780D01*
X013180Y005580D02*
X013180Y005530D01*
X014180Y004930D02*
X014430Y005180D01*
X014930Y005180D01*
X015180Y004930D01*
X015180Y004430D01*
X014930Y004180D01*
X015180Y003930D01*
X015180Y003430D01*
X014930Y003180D01*
X015180Y002930D01*
X015180Y002430D01*
X014930Y002180D01*
X014430Y002180D01*
X014180Y002430D01*
X014180Y002930D01*
X014430Y003180D01*
X014180Y003430D01*
X014180Y003930D01*
X014430Y004180D01*
X014180Y004430D01*
X014180Y004930D01*
X013180Y003830D02*
X013180Y003780D01*
X013180Y003580D02*
X013180Y003530D01*
X010180Y002680D02*
X010182Y002743D01*
X010188Y002805D01*
X010198Y002867D01*
X010211Y002929D01*
X010229Y002989D01*
X010250Y003048D01*
X010275Y003106D01*
X010304Y003162D01*
X010336Y003216D01*
X010371Y003268D01*
X010409Y003317D01*
X010451Y003365D01*
X010495Y003409D01*
X010543Y003451D01*
X010592Y003489D01*
X010644Y003524D01*
X010698Y003556D01*
X010754Y003585D01*
X010812Y003610D01*
X010871Y003631D01*
X010931Y003649D01*
X010993Y003662D01*
X011055Y003672D01*
X011117Y003678D01*
X011180Y003680D01*
X011243Y003678D01*
X011305Y003672D01*
X011367Y003662D01*
X011429Y003649D01*
X011489Y003631D01*
X011548Y003610D01*
X011606Y003585D01*
X011662Y003556D01*
X011716Y003524D01*
X011768Y003489D01*
X011817Y003451D01*
X011865Y003409D01*
X011909Y003365D01*
X011951Y003317D01*
X011989Y003268D01*
X012024Y003216D01*
X012056Y003162D01*
X012085Y003106D01*
X012110Y003048D01*
X012131Y002989D01*
X012149Y002929D01*
X012162Y002867D01*
X012172Y002805D01*
X012178Y002743D01*
X012180Y002680D01*
X012178Y002617D01*
X012172Y002555D01*
X012162Y002493D01*
X012149Y002431D01*
X012131Y002371D01*
X012110Y002312D01*
X012085Y002254D01*
X012056Y002198D01*
X012024Y002144D01*
X011989Y002092D01*
X011951Y002043D01*
X011909Y001995D01*
X011865Y001951D01*
X011817Y001909D01*
X011768Y001871D01*
X011716Y001836D01*
X011662Y001804D01*
X011606Y001775D01*
X011548Y001750D01*
X011489Y001729D01*
X011429Y001711D01*
X011367Y001698D01*
X011305Y001688D01*
X011243Y001682D01*
X011180Y001680D01*
X011117Y001682D01*
X011055Y001688D01*
X010993Y001698D01*
X010931Y001711D01*
X010871Y001729D01*
X010812Y001750D01*
X010754Y001775D01*
X010698Y001804D01*
X010644Y001836D01*
X010592Y001871D01*
X010543Y001909D01*
X010495Y001951D01*
X010451Y001995D01*
X010409Y002043D01*
X010371Y002092D01*
X010336Y002144D01*
X010304Y002198D01*
X010275Y002254D01*
X010250Y002312D01*
X010229Y002371D01*
X010211Y002431D01*
X010198Y002493D01*
X010188Y002555D01*
X010182Y002617D01*
X010180Y002680D01*
X010680Y002230D02*
X010680Y002130D01*
X010580Y002130D01*
X010680Y002130D02*
X010680Y002030D01*
X010680Y002130D02*
X010780Y002130D01*
X007980Y001680D02*
X007980Y002680D01*
X006380Y002680D01*
X006380Y001680D01*
X007980Y001680D01*
X007580Y001930D02*
X007180Y002180D01*
X007180Y001930D01*
X007180Y002180D02*
X006930Y002180D01*
X007180Y002180D02*
X007180Y002430D01*
X007180Y002180D02*
X007580Y002430D01*
X007580Y001930D01*
X007780Y002180D02*
X007180Y002180D01*
X007980Y003180D02*
X006380Y003180D01*
X006380Y004180D01*
X007980Y004180D01*
X007980Y003180D01*
X007430Y003680D02*
X007180Y003680D01*
X007180Y003930D01*
X007180Y003680D02*
X007180Y003430D01*
X007180Y003680D02*
X006780Y003430D01*
X006780Y003930D01*
X007180Y003680D01*
X006580Y003680D01*
X006680Y004680D02*
X008680Y004680D01*
X008680Y008680D01*
X007930Y008680D01*
X007928Y008650D01*
X007923Y008620D01*
X007914Y008591D01*
X007901Y008564D01*
X007886Y008538D01*
X007867Y008514D01*
X007846Y008493D01*
X007822Y008474D01*
X007796Y008459D01*
X007769Y008446D01*
X007740Y008437D01*
X007710Y008432D01*
X007680Y008430D01*
X007650Y008432D01*
X007620Y008437D01*
X007591Y008446D01*
X007564Y008459D01*
X007538Y008474D01*
X007514Y008493D01*
X007493Y008514D01*
X007474Y008538D01*
X007459Y008564D01*
X007446Y008591D01*
X007437Y008620D01*
X007432Y008650D01*
X007430Y008680D01*
X006680Y008680D01*
X006680Y004680D01*
X004280Y004230D02*
X004180Y004230D01*
X004180Y004130D01*
X004180Y004230D02*
X004080Y004230D01*
X004180Y004230D02*
X004180Y004330D01*
X002680Y003680D02*
X002682Y003743D01*
X002688Y003805D01*
X002698Y003867D01*
X002711Y003929D01*
X002729Y003989D01*
X002750Y004048D01*
X002775Y004106D01*
X002804Y004162D01*
X002836Y004216D01*
X002871Y004268D01*
X002909Y004317D01*
X002951Y004365D01*
X002995Y004409D01*
X003043Y004451D01*
X003092Y004489D01*
X003144Y004524D01*
X003198Y004556D01*
X003254Y004585D01*
X003312Y004610D01*
X003371Y004631D01*
X003431Y004649D01*
X003493Y004662D01*
X003555Y004672D01*
X003617Y004678D01*
X003680Y004680D01*
X003743Y004678D01*
X003805Y004672D01*
X003867Y004662D01*
X003929Y004649D01*
X003989Y004631D01*
X004048Y004610D01*
X004106Y004585D01*
X004162Y004556D01*
X004216Y004524D01*
X004268Y004489D01*
X004317Y004451D01*
X004365Y004409D01*
X004409Y004365D01*
X004451Y004317D01*
X004489Y004268D01*
X004524Y004216D01*
X004556Y004162D01*
X004585Y004106D01*
X004610Y004048D01*
X004631Y003989D01*
X004649Y003929D01*
X004662Y003867D01*
X004672Y003805D01*
X004678Y003743D01*
X004680Y003680D01*
X004678Y003617D01*
X004672Y003555D01*
X004662Y003493D01*
X004649Y003431D01*
X004631Y003371D01*
X004610Y003312D01*
X004585Y003254D01*
X004556Y003198D01*
X004524Y003144D01*
X004489Y003092D01*
X004451Y003043D01*
X004409Y002995D01*
X004365Y002951D01*
X004317Y002909D01*
X004268Y002871D01*
X004216Y002836D01*
X004162Y002804D01*
X004106Y002775D01*
X004048Y002750D01*
X003989Y002729D01*
X003929Y002711D01*
X003867Y002698D01*
X003805Y002688D01*
X003743Y002682D01*
X003680Y002680D01*
X003617Y002682D01*
X003555Y002688D01*
X003493Y002698D01*
X003431Y002711D01*
X003371Y002729D01*
X003312Y002750D01*
X003254Y002775D01*
X003198Y002804D01*
X003144Y002836D01*
X003092Y002871D01*
X003043Y002909D01*
X002995Y002951D01*
X002951Y002995D01*
X002909Y003043D01*
X002871Y003092D01*
X002836Y003144D01*
X002804Y003198D01*
X002775Y003254D01*
X002750Y003312D01*
X002729Y003371D01*
X002711Y003431D01*
X002698Y003493D01*
X002688Y003555D01*
X002682Y003617D01*
X002680Y003680D01*
X003180Y006180D02*
X003182Y006243D01*
X003188Y006305D01*
X003198Y006367D01*
X003211Y006429D01*
X003229Y006489D01*
X003250Y006548D01*
X003275Y006606D01*
X003304Y006662D01*
X003336Y006716D01*
X003371Y006768D01*
X003409Y006817D01*
X003451Y006865D01*
X003495Y006909D01*
X003543Y006951D01*
X003592Y006989D01*
X003644Y007024D01*
X003698Y007056D01*
X003754Y007085D01*
X003812Y007110D01*
X003871Y007131D01*
X003931Y007149D01*
X003993Y007162D01*
X004055Y007172D01*
X004117Y007178D01*
X004180Y007180D01*
X004243Y007178D01*
X004305Y007172D01*
X004367Y007162D01*
X004429Y007149D01*
X004489Y007131D01*
X004548Y007110D01*
X004606Y007085D01*
X004662Y007056D01*
X004716Y007024D01*
X004768Y006989D01*
X004817Y006951D01*
X004865Y006909D01*
X004909Y006865D01*
X004951Y006817D01*
X004989Y006768D01*
X005024Y006716D01*
X005056Y006662D01*
X005085Y006606D01*
X005110Y006548D01*
X005131Y006489D01*
X005149Y006429D01*
X005162Y006367D01*
X005172Y006305D01*
X005178Y006243D01*
X005180Y006180D01*
X005178Y006117D01*
X005172Y006055D01*
X005162Y005993D01*
X005149Y005931D01*
X005131Y005871D01*
X005110Y005812D01*
X005085Y005754D01*
X005056Y005698D01*
X005024Y005644D01*
X004989Y005592D01*
X004951Y005543D01*
X004909Y005495D01*
X004865Y005451D01*
X004817Y005409D01*
X004768Y005371D01*
X004716Y005336D01*
X004662Y005304D01*
X004606Y005275D01*
X004548Y005250D01*
X004489Y005229D01*
X004429Y005211D01*
X004367Y005198D01*
X004305Y005188D01*
X004243Y005182D01*
X004180Y005180D01*
X004117Y005182D01*
X004055Y005188D01*
X003993Y005198D01*
X003931Y005211D01*
X003871Y005229D01*
X003812Y005250D01*
X003754Y005275D01*
X003698Y005304D01*
X003644Y005336D01*
X003592Y005371D01*
X003543Y005409D01*
X003495Y005451D01*
X003451Y005495D01*
X003409Y005543D01*
X003371Y005592D01*
X003336Y005644D01*
X003304Y005698D01*
X003275Y005754D01*
X003250Y005812D01*
X003229Y005871D01*
X003211Y005931D01*
X003198Y005993D01*
X003188Y006055D01*
X003182Y006117D01*
X003180Y006180D01*
X002530Y006680D02*
X000830Y006680D01*
X000813Y006682D01*
X000796Y006686D01*
X000780Y006693D01*
X000766Y006703D01*
X000753Y006716D01*
X000743Y006730D01*
X000736Y006746D01*
X000732Y006763D01*
X000730Y006780D01*
X000730Y007580D01*
X000732Y007597D01*
X000736Y007614D01*
X000743Y007630D01*
X000753Y007644D01*
X000766Y007657D01*
X000780Y007667D01*
X000796Y007674D01*
X000813Y007678D01*
X000830Y007680D01*
X002530Y007680D01*
X002547Y007678D01*
X002564Y007674D01*
X002580Y007667D01*
X002594Y007657D01*
X002607Y007644D01*
X002617Y007630D01*
X002624Y007614D01*
X002628Y007597D01*
X002630Y007580D01*
X002630Y006780D01*
X002628Y006763D01*
X002624Y006746D01*
X002617Y006730D01*
X002607Y006716D01*
X002594Y006703D01*
X002580Y006693D01*
X002564Y006686D01*
X002547Y006682D01*
X002530Y006680D01*
X001830Y007180D02*
X001780Y007180D01*
X001580Y007180D02*
X001530Y007180D01*
X002680Y007880D02*
X002680Y008480D01*
X002682Y008497D01*
X002686Y008514D01*
X002693Y008530D01*
X002703Y008544D01*
X002716Y008557D01*
X002730Y008567D01*
X002746Y008574D01*
X002763Y008578D01*
X002780Y008580D01*
X002930Y008580D01*
X002980Y008530D01*
X004380Y008530D01*
X004430Y008580D01*
X004580Y008580D01*
X004597Y008578D01*
X004614Y008574D01*
X004630Y008567D01*
X004644Y008557D01*
X004657Y008544D01*
X004667Y008530D01*
X004674Y008514D01*
X004678Y008497D01*
X004680Y008480D01*
X004680Y007880D01*
X004678Y007863D01*
X004674Y007846D01*
X004667Y007830D01*
X004657Y007816D01*
X004644Y007803D01*
X004630Y007793D01*
X004614Y007786D01*
X004597Y007782D01*
X004580Y007780D01*
X004430Y007780D01*
X004380Y007830D01*
X002980Y007830D01*
X002930Y007780D01*
X002780Y007780D01*
X002763Y007782D01*
X002746Y007786D01*
X002730Y007793D01*
X002716Y007803D01*
X002703Y007816D01*
X002693Y007830D01*
X002686Y007846D01*
X002682Y007863D01*
X002680Y007880D01*
X003280Y008780D02*
X003430Y008780D01*
X003480Y008830D01*
X004880Y008830D01*
X004930Y008780D01*
X005080Y008780D01*
X005097Y008782D01*
X005114Y008786D01*
X005130Y008793D01*
X005144Y008803D01*
X005157Y008816D01*
X005167Y008830D01*
X005174Y008846D01*
X005178Y008863D01*
X005180Y008880D01*
X005180Y009480D01*
X005178Y009497D01*
X005174Y009514D01*
X005167Y009530D01*
X005157Y009544D01*
X005144Y009557D01*
X005130Y009567D01*
X005114Y009574D01*
X005097Y009578D01*
X005080Y009580D01*
X004930Y009580D01*
X004880Y009530D01*
X003480Y009530D01*
X003430Y009580D01*
X003280Y009580D01*
X003263Y009578D01*
X003246Y009574D01*
X003230Y009567D01*
X003216Y009557D01*
X003203Y009544D01*
X003193Y009530D01*
X003186Y009514D01*
X003182Y009497D01*
X003180Y009480D01*
X003180Y008880D01*
X003182Y008863D01*
X003186Y008846D01*
X003193Y008830D01*
X003203Y008816D01*
X003216Y008803D01*
X003230Y008793D01*
X003246Y008786D01*
X003263Y008782D01*
X003280Y008780D01*
X004680Y006830D02*
X004680Y006730D01*
X004780Y006730D01*
X004680Y006730D02*
X004680Y006630D01*
X004680Y006730D02*
X004580Y006730D01*
X008730Y008780D02*
X008730Y009580D01*
X008732Y009597D01*
X008736Y009614D01*
X008743Y009630D01*
X008753Y009644D01*
X008766Y009657D01*
X008780Y009667D01*
X008796Y009674D01*
X008813Y009678D01*
X008830Y009680D01*
X010530Y009680D01*
X010547Y009678D01*
X010564Y009674D01*
X010580Y009667D01*
X010594Y009657D01*
X010607Y009644D01*
X010617Y009630D01*
X010624Y009614D01*
X010628Y009597D01*
X010630Y009580D01*
X010630Y008780D01*
X010628Y008763D01*
X010624Y008746D01*
X010617Y008730D01*
X010607Y008716D01*
X010594Y008703D01*
X010580Y008693D01*
X010564Y008686D01*
X010547Y008682D01*
X010530Y008680D01*
X008830Y008680D01*
X008813Y008682D01*
X008796Y008686D01*
X008780Y008693D01*
X008766Y008703D01*
X008753Y008716D01*
X008743Y008730D01*
X008736Y008746D01*
X008732Y008763D01*
X008730Y008780D01*
X009530Y009180D02*
X009580Y009180D01*
X009780Y009180D02*
X009830Y009180D01*
X011680Y006330D02*
X011680Y006230D01*
X011780Y006230D01*
X011680Y006230D02*
X011680Y006130D01*
X011680Y006230D02*
X011580Y006230D01*
X010180Y005680D02*
X010182Y005743D01*
X010188Y005805D01*
X010198Y005867D01*
X010211Y005929D01*
X010229Y005989D01*
X010250Y006048D01*
X010275Y006106D01*
X010304Y006162D01*
X010336Y006216D01*
X010371Y006268D01*
X010409Y006317D01*
X010451Y006365D01*
X010495Y006409D01*
X010543Y006451D01*
X010592Y006489D01*
X010644Y006524D01*
X010698Y006556D01*
X010754Y006585D01*
X010812Y006610D01*
X010871Y006631D01*
X010931Y006649D01*
X010993Y006662D01*
X011055Y006672D01*
X011117Y006678D01*
X011180Y006680D01*
X011243Y006678D01*
X011305Y006672D01*
X011367Y006662D01*
X011429Y006649D01*
X011489Y006631D01*
X011548Y006610D01*
X011606Y006585D01*
X011662Y006556D01*
X011716Y006524D01*
X011768Y006489D01*
X011817Y006451D01*
X011865Y006409D01*
X011909Y006365D01*
X011951Y006317D01*
X011989Y006268D01*
X012024Y006216D01*
X012056Y006162D01*
X012085Y006106D01*
X012110Y006048D01*
X012131Y005989D01*
X012149Y005929D01*
X012162Y005867D01*
X012172Y005805D01*
X012178Y005743D01*
X012180Y005680D01*
X012178Y005617D01*
X012172Y005555D01*
X012162Y005493D01*
X012149Y005431D01*
X012131Y005371D01*
X012110Y005312D01*
X012085Y005254D01*
X012056Y005198D01*
X012024Y005144D01*
X011989Y005092D01*
X011951Y005043D01*
X011909Y004995D01*
X011865Y004951D01*
X011817Y004909D01*
X011768Y004871D01*
X011716Y004836D01*
X011662Y004804D01*
X011606Y004775D01*
X011548Y004750D01*
X011489Y004729D01*
X011429Y004711D01*
X011367Y004698D01*
X011305Y004688D01*
X011243Y004682D01*
X011180Y004680D01*
X011117Y004682D01*
X011055Y004688D01*
X010993Y004698D01*
X010931Y004711D01*
X010871Y004729D01*
X010812Y004750D01*
X010754Y004775D01*
X010698Y004804D01*
X010644Y004836D01*
X010592Y004871D01*
X010543Y004909D01*
X010495Y004951D01*
X010451Y004995D01*
X010409Y005043D01*
X010371Y005092D01*
X010336Y005144D01*
X010304Y005198D01*
X010275Y005254D01*
X010250Y005312D01*
X010229Y005371D01*
X010211Y005431D01*
X010198Y005493D01*
X010188Y005555D01*
X010182Y005617D01*
X010180Y005680D01*
X007980Y001180D02*
X006380Y001180D01*
X006380Y000180D01*
X007980Y000180D01*
X007980Y001180D01*
X007430Y000680D02*
X007180Y000680D01*
X007180Y000930D01*
X007180Y000680D02*
X007180Y000430D01*
X007180Y000680D02*
X006780Y000430D01*
X006780Y000930D01*
X007180Y000680D01*
X006580Y000680D01*
D12*
X001880Y003705D02*
X001730Y003705D01*
X001655Y003780D01*
X001655Y004080D01*
X001730Y004155D01*
X001880Y004155D01*
X001955Y004080D01*
X002115Y004080D02*
X002190Y004155D01*
X002341Y004155D01*
X002416Y004080D01*
X002416Y004005D01*
X002115Y003705D01*
X002416Y003705D01*
X001955Y003780D02*
X001880Y003705D01*
X002230Y005705D02*
X002380Y005705D01*
X002455Y005780D01*
X002615Y005705D02*
X002916Y005705D01*
X002766Y005705D02*
X002766Y006155D01*
X002615Y006005D01*
X002455Y006080D02*
X002380Y006155D01*
X002230Y006155D01*
X002155Y006080D01*
X002155Y005780D01*
X002230Y005705D01*
X010155Y007480D02*
X010230Y007405D01*
X010380Y007405D01*
X010455Y007480D01*
X010615Y007480D02*
X010690Y007405D01*
X010841Y007405D01*
X010916Y007480D01*
X010916Y007630D01*
X010841Y007705D01*
X010766Y007705D01*
X010615Y007630D01*
X010615Y007855D01*
X010916Y007855D01*
X010455Y007780D02*
X010380Y007855D01*
X010230Y007855D01*
X010155Y007780D01*
X010155Y007480D01*
X014905Y002005D02*
X014905Y001705D01*
X014905Y001855D02*
X014455Y001855D01*
X014605Y001705D01*
X011416Y001580D02*
X011416Y001505D01*
X011341Y001430D01*
X011416Y001355D01*
X011416Y001280D01*
X011341Y001205D01*
X011190Y001205D01*
X011115Y001280D01*
X010955Y001280D02*
X010880Y001205D01*
X010730Y001205D01*
X010655Y001280D01*
X010655Y001580D01*
X010730Y001655D01*
X010880Y001655D01*
X010955Y001580D01*
X011115Y001580D02*
X011190Y001655D01*
X011341Y001655D01*
X011416Y001580D01*
X011341Y001430D02*
X011266Y001430D01*
D13*
X012880Y003580D02*
X013180Y003580D01*
X013480Y003580D01*
X013480Y003780D02*
X013180Y003780D01*
X012880Y003780D01*
X012880Y005580D02*
X013180Y005580D01*
X013480Y005580D01*
X013480Y005780D02*
X013180Y005780D01*
X012880Y005780D01*
X009780Y008880D02*
X009780Y009180D01*
X009780Y009480D01*
X009580Y009480D02*
X009580Y009180D01*
X009580Y008880D01*
X001780Y007480D02*
X001780Y007180D01*
X001780Y006880D01*
X001580Y006880D02*
X001580Y007180D01*
X001580Y007480D01*
D14*
X007730Y003680D03*
X006630Y002180D03*
X007730Y000680D03*
D15*
X008355Y000680D03*
X008355Y002180D03*
X008355Y003680D03*
X006005Y003680D03*
X006005Y002180D03*
X006005Y000680D03*
D16*
X004755Y008180D03*
X005255Y009180D03*
X003105Y009180D03*
X002605Y008180D03*
D17*
X002982Y008127D02*
X003157Y008127D01*
X003215Y008185D01*
X003215Y008302D01*
X003157Y008360D01*
X002982Y008360D01*
X002982Y008010D01*
X003099Y008127D02*
X003215Y008010D01*
X003341Y008010D02*
X003574Y008244D01*
X003574Y008302D01*
X003516Y008360D01*
X003399Y008360D01*
X003341Y008302D01*
X003341Y008010D02*
X003574Y008010D01*
X003482Y009010D02*
X003482Y009360D01*
X003657Y009360D01*
X003715Y009302D01*
X003715Y009185D01*
X003657Y009127D01*
X003482Y009127D01*
X003599Y009127D02*
X003715Y009010D01*
X003841Y009010D02*
X004074Y009010D01*
X003958Y009010D02*
X003958Y009360D01*
X003841Y009244D01*
M02*
