G75*
%MOIN*%
%OFA0B0*%
%FSLAX24Y24*%
%IPPOS*%
%LPD*%
%AMOC8*
5,1,8,0,0,1.08239X$1,22.5*
%
%ADD10C,0.0600*%
%ADD11OC8,0.0680*%
%ADD12C,0.0680*%
%ADD13OC8,0.0600*%
%ADD14C,0.0600*%
%ADD15C,0.0640*%
D10*
X001180Y002420D02*
X001180Y002940D01*
X002180Y002940D02*
X002180Y002420D01*
X003180Y002420D02*
X003180Y002940D01*
X004180Y002940D02*
X004180Y002420D01*
X005180Y002420D02*
X005180Y002940D01*
X006180Y002940D02*
X006180Y002420D01*
X007180Y002420D02*
X007180Y002940D01*
X008180Y002940D02*
X008180Y002420D01*
X010680Y002420D02*
X010680Y002940D01*
X011680Y002940D02*
X011680Y002420D01*
X012680Y002420D02*
X012680Y002940D01*
X013680Y002940D02*
X013680Y002420D01*
X014680Y002420D02*
X014680Y002940D01*
X015680Y002940D02*
X015680Y002420D01*
X016680Y002420D02*
X016680Y002940D01*
X017680Y002940D02*
X017680Y002420D01*
X020680Y002920D02*
X020680Y003440D01*
X021680Y003440D02*
X021680Y002920D01*
X022680Y002920D02*
X022680Y003440D01*
X023680Y003440D02*
X023680Y002920D01*
X024680Y002920D02*
X024680Y003440D01*
X025680Y003440D02*
X025680Y002920D01*
X026680Y002920D02*
X026680Y003440D01*
X027680Y003440D02*
X027680Y002920D01*
X030680Y002920D02*
X030680Y003440D01*
X031680Y003440D02*
X031680Y002920D01*
X032680Y002920D02*
X032680Y003440D01*
X033680Y003440D02*
X033680Y002920D01*
X034680Y002920D02*
X034680Y003440D01*
X035680Y003440D02*
X035680Y002920D01*
X036680Y002920D02*
X036680Y003440D01*
X037680Y003440D02*
X037680Y002920D01*
X037680Y005920D02*
X037680Y006440D01*
X036680Y006440D02*
X036680Y005920D01*
X035680Y005920D02*
X035680Y006440D01*
X034680Y006440D02*
X034680Y005920D01*
X033680Y005920D02*
X033680Y006440D01*
X032680Y006440D02*
X032680Y005920D01*
X031680Y005920D02*
X031680Y006440D01*
X030680Y006440D02*
X030680Y005920D01*
X027680Y005920D02*
X027680Y006440D01*
X026680Y006440D02*
X026680Y005920D01*
X025680Y005920D02*
X025680Y006440D01*
X024680Y006440D02*
X024680Y005920D01*
X023680Y005920D02*
X023680Y006440D01*
X022680Y006440D02*
X022680Y005920D01*
X021680Y005920D02*
X021680Y006440D01*
X020680Y006440D02*
X020680Y005920D01*
X017680Y005940D02*
X017680Y005420D01*
X016680Y005420D02*
X016680Y005940D01*
X015680Y005940D02*
X015680Y005420D01*
X014680Y005420D02*
X014680Y005940D01*
X013680Y005940D02*
X013680Y005420D01*
X012680Y005420D02*
X012680Y005940D01*
X011680Y005940D02*
X011680Y005420D01*
X010680Y005420D02*
X010680Y005940D01*
X008180Y005940D02*
X008180Y005420D01*
X007180Y005420D02*
X007180Y005940D01*
X006180Y005940D02*
X006180Y005420D01*
X005180Y005420D02*
X005180Y005940D01*
X004180Y005940D02*
X004180Y005420D01*
X003180Y005420D02*
X003180Y005940D01*
X002180Y005940D02*
X002180Y005420D01*
X001180Y005420D02*
X001180Y005940D01*
D11*
X001180Y007180D03*
X002180Y007180D03*
X003180Y007180D03*
X004180Y007180D03*
X005180Y007180D03*
X006180Y007180D03*
X007180Y007180D03*
X008180Y007180D03*
X008180Y008180D03*
X007180Y008180D03*
X006180Y008180D03*
X005180Y008180D03*
X004180Y008180D03*
X003180Y008180D03*
X002180Y008180D03*
X001180Y008180D03*
D12*
X000680Y001480D02*
X000680Y000880D01*
X001680Y000880D02*
X001680Y001480D01*
X002680Y001480D02*
X002680Y000880D01*
X003680Y000880D02*
X003680Y001480D01*
X004680Y001480D02*
X004680Y000880D01*
X005680Y000880D02*
X005680Y001480D01*
X006680Y001480D02*
X006680Y000880D01*
X007680Y000880D02*
X007680Y001480D01*
X008680Y001480D02*
X008680Y000880D01*
X009680Y000880D02*
X009680Y001480D01*
X010680Y001480D02*
X010680Y000880D01*
X011680Y000880D02*
X011680Y001480D01*
X012680Y001480D02*
X012680Y000880D01*
X013680Y000880D02*
X013680Y001480D01*
X014680Y001480D02*
X014680Y000880D01*
X015680Y000880D02*
X015680Y001480D01*
X016680Y001480D02*
X016680Y000880D01*
X017680Y000880D02*
X017680Y001480D01*
X018680Y001480D02*
X018680Y000880D01*
X019680Y000880D02*
X019680Y001480D01*
X020680Y001480D02*
X020680Y000880D01*
X021680Y000880D02*
X021680Y001480D01*
X022680Y001480D02*
X022680Y000880D01*
X023680Y000880D02*
X023680Y001480D01*
X024680Y001480D02*
X024680Y000880D01*
X025680Y000880D02*
X025680Y001480D01*
X026680Y001480D02*
X026680Y000880D01*
X027680Y000880D02*
X027680Y001480D01*
X028680Y001480D02*
X028680Y000880D01*
X029680Y000880D02*
X029680Y001480D01*
X030680Y001480D02*
X030680Y000880D01*
X031680Y000880D02*
X031680Y001480D01*
X032680Y001480D02*
X032680Y000880D01*
X033680Y000880D02*
X033680Y001480D01*
X034680Y001480D02*
X034680Y000880D01*
X035680Y000880D02*
X035680Y001480D01*
X036680Y001480D02*
X036680Y000880D01*
X037680Y000880D02*
X037680Y001480D01*
X038680Y001480D02*
X038680Y000880D01*
X039680Y000880D02*
X039680Y001480D01*
X015680Y008880D02*
X015680Y009480D01*
X014680Y009480D02*
X014680Y008880D01*
X013680Y008880D02*
X013680Y009480D01*
X012680Y009480D02*
X012680Y008880D01*
D13*
X017180Y007680D03*
X018180Y007680D03*
X019680Y006180D03*
X019680Y005180D03*
X024680Y007680D03*
X025680Y007680D03*
X026680Y008680D03*
X026680Y009680D03*
X025680Y010680D03*
X024680Y010680D03*
X019180Y010680D03*
X018180Y010680D03*
X017180Y010680D03*
X019180Y009680D03*
X030680Y010680D03*
X031680Y010680D03*
X032680Y010680D03*
X032680Y009680D03*
X038680Y010680D03*
X039680Y010680D03*
X039680Y007680D03*
X038680Y007680D03*
X031680Y007680D03*
X030680Y007680D03*
X029680Y006180D03*
X029680Y005180D03*
X009180Y004680D03*
X009180Y003680D03*
D14*
X020680Y007680D03*
X021680Y007680D03*
X022680Y007680D03*
X023680Y007680D03*
X023680Y010680D03*
X022680Y010680D03*
X021680Y010680D03*
X020680Y010680D03*
X034180Y010680D03*
X035180Y010680D03*
X036180Y010680D03*
X037180Y010680D03*
X037180Y007680D03*
X036180Y007680D03*
X035180Y007680D03*
X034180Y007680D03*
D15*
X029180Y008900D02*
X029180Y009460D01*
X028180Y009460D02*
X028180Y008900D01*
X010680Y008900D02*
X010680Y009460D01*
X009680Y009460D02*
X009680Y008900D01*
M02*
