G75*
%MOIN*%
%OFA0B0*%
%FSLAX24Y24*%
%IPPOS*%
%LPD*%
%AMOC8*
5,1,8,0,0,1.08239X$1,22.5*
%
%ADD10R,0.0680X0.2630*%
%ADD11OC8,0.0680*%
%ADD12C,0.0600*%
%ADD13C,0.0640*%
%ADD14OC8,0.1080*%
%ADD15C,0.0600*%
%ADD16R,0.0820X0.0820*%
%ADD17C,0.0820*%
%ADD18C,0.2080*%
%ADD19OC8,0.0600*%
%ADD20OC8,0.0640*%
D10*
X001680Y001940D03*
X002680Y001940D03*
X003680Y001940D03*
X004680Y001940D03*
X005680Y001940D03*
X006680Y001940D03*
X007680Y001940D03*
X008680Y001940D03*
X009680Y001940D03*
X010680Y001940D03*
X011680Y001940D03*
X012680Y001940D03*
X013680Y001940D03*
X014680Y001940D03*
X015680Y001940D03*
X016680Y001940D03*
X017680Y001940D03*
X018680Y001940D03*
X019680Y001940D03*
X020680Y001940D03*
X021680Y001940D03*
X022680Y001940D03*
X023680Y001940D03*
X024680Y001940D03*
X025680Y001940D03*
X026680Y001940D03*
X027680Y001940D03*
X028680Y001940D03*
X029680Y001940D03*
X030680Y001940D03*
X031680Y001940D03*
D11*
X031680Y004940D03*
X030680Y004940D03*
X029680Y004940D03*
X028680Y004940D03*
X027680Y004940D03*
X026680Y004940D03*
X025680Y004940D03*
X024680Y004940D03*
X023680Y004940D03*
X022680Y004940D03*
X021680Y004940D03*
X020680Y004940D03*
X019680Y004940D03*
X018680Y004940D03*
X017680Y004940D03*
X016680Y004940D03*
X015680Y004940D03*
X014680Y004940D03*
X013680Y004940D03*
X012680Y004940D03*
X011680Y004940D03*
X010680Y004940D03*
X009680Y004940D03*
X008680Y004940D03*
X007680Y004940D03*
X006680Y004940D03*
X005680Y004940D03*
X004680Y004940D03*
X003680Y004940D03*
X002680Y004940D03*
X001680Y004940D03*
X001680Y005940D03*
X002680Y005940D03*
X003680Y005940D03*
X004680Y005940D03*
X005680Y005940D03*
X006680Y005940D03*
X007680Y005940D03*
X008680Y005940D03*
X009680Y005940D03*
X010680Y005940D03*
X011680Y005940D03*
X012680Y005940D03*
X013680Y005940D03*
X014680Y005940D03*
X015680Y005940D03*
X016680Y005940D03*
X017680Y005940D03*
X018680Y005940D03*
X019680Y005940D03*
X020680Y005940D03*
X021680Y005940D03*
X022680Y005940D03*
X023680Y005940D03*
X024680Y005940D03*
X025680Y005940D03*
X026680Y005940D03*
X027680Y005940D03*
X028680Y005940D03*
X029680Y005940D03*
X030680Y005940D03*
X031680Y005940D03*
D12*
X032920Y005440D02*
X033440Y005440D01*
X033440Y006440D02*
X032920Y006440D01*
X032920Y007440D02*
X033440Y007440D01*
X033440Y008440D02*
X032920Y008440D01*
X031940Y008440D02*
X031420Y008440D01*
X031420Y009440D02*
X031940Y009440D01*
X032920Y009440D02*
X033440Y009440D01*
X033440Y010440D02*
X032920Y010440D01*
X031940Y010440D02*
X031420Y010440D01*
X031420Y011440D02*
X031940Y011440D01*
X032920Y011440D02*
X033440Y011440D01*
X031940Y012440D02*
X031420Y012440D01*
X031420Y013440D02*
X031940Y013440D01*
X031940Y014440D02*
X031420Y014440D01*
X031420Y015440D02*
X031940Y015440D01*
X032920Y015440D02*
X033440Y015440D01*
X033440Y016440D02*
X032920Y016440D01*
X031940Y016440D02*
X031420Y016440D01*
X031420Y017440D02*
X031940Y017440D01*
X032920Y017440D02*
X033440Y017440D01*
X033440Y018440D02*
X032920Y018440D01*
X031940Y018440D02*
X031420Y018440D01*
X031420Y019440D02*
X031940Y019440D01*
X032920Y019440D02*
X033440Y019440D01*
X033440Y020440D02*
X032920Y020440D01*
X032920Y021440D02*
X033440Y021440D01*
X035920Y021440D02*
X036440Y021440D01*
X036440Y020440D02*
X035920Y020440D01*
X035920Y019440D02*
X036440Y019440D01*
X036440Y018440D02*
X035920Y018440D01*
X035920Y017440D02*
X036440Y017440D01*
X036440Y016440D02*
X035920Y016440D01*
X035920Y015440D02*
X036440Y015440D01*
X036440Y014440D02*
X035920Y014440D01*
X033440Y014440D02*
X032920Y014440D01*
X035920Y011440D02*
X036440Y011440D01*
X036440Y010440D02*
X035920Y010440D01*
X035920Y009440D02*
X036440Y009440D01*
X036440Y008440D02*
X035920Y008440D01*
X035920Y007440D02*
X036440Y007440D01*
X036440Y006440D02*
X035920Y006440D01*
X035920Y005440D02*
X036440Y005440D01*
X025940Y008440D02*
X025420Y008440D01*
X025420Y009440D02*
X025940Y009440D01*
X025940Y010440D02*
X025420Y010440D01*
X025420Y011440D02*
X025940Y011440D01*
X025940Y012440D02*
X025420Y012440D01*
X025420Y013440D02*
X025940Y013440D01*
X025940Y014440D02*
X025420Y014440D01*
X025420Y015440D02*
X025940Y015440D01*
X025940Y016440D02*
X025420Y016440D01*
X025420Y017440D02*
X025940Y017440D01*
X025940Y018440D02*
X025420Y018440D01*
X025420Y019440D02*
X025940Y019440D01*
X022180Y017200D02*
X022180Y016680D01*
X021180Y016680D02*
X021180Y017200D01*
X020180Y017200D02*
X020180Y016680D01*
X019180Y016680D02*
X019180Y017200D01*
X018180Y017200D02*
X018180Y016680D01*
X017180Y016680D02*
X017180Y017200D01*
X016180Y017200D02*
X016180Y016680D01*
X015180Y016680D02*
X015180Y017200D01*
X014680Y018680D02*
X014680Y019200D01*
X013680Y019200D02*
X013680Y018680D01*
X012680Y018680D02*
X012680Y019200D01*
X011680Y019200D02*
X011680Y018680D01*
X010680Y018680D02*
X010680Y019200D01*
X009680Y019200D02*
X009680Y018680D01*
X008680Y018680D02*
X008680Y019200D01*
X007680Y019200D02*
X007680Y018680D01*
X006680Y018680D02*
X006680Y019200D01*
X005680Y019200D02*
X005680Y018680D01*
X004680Y018680D02*
X004680Y019200D01*
X003680Y019200D02*
X003680Y018680D01*
X002680Y018680D02*
X002680Y019200D01*
X003180Y017200D02*
X003180Y016680D01*
X004180Y016680D02*
X004180Y017200D01*
X005180Y017200D02*
X005180Y016680D01*
X006180Y016680D02*
X006180Y017200D01*
X007180Y017200D02*
X007180Y016680D01*
X008180Y016680D02*
X008180Y017200D01*
X009180Y017200D02*
X009180Y016680D01*
X010180Y016680D02*
X010180Y017200D01*
X010180Y014200D02*
X010180Y013680D01*
X010180Y013200D02*
X010180Y012680D01*
X009180Y012680D02*
X009180Y013200D01*
X009180Y013680D02*
X009180Y014200D01*
X008180Y014200D02*
X008180Y013680D01*
X008180Y013200D02*
X008180Y012680D01*
X007180Y012680D02*
X007180Y013200D01*
X007180Y013680D02*
X007180Y014200D01*
X006180Y014200D02*
X006180Y013680D01*
X006180Y013200D02*
X006180Y012680D01*
X005180Y012680D02*
X005180Y013200D01*
X005180Y013680D02*
X005180Y014200D01*
X004180Y014200D02*
X004180Y013680D01*
X004180Y013200D02*
X004180Y012680D01*
X003180Y012680D02*
X003180Y013200D01*
X003180Y013680D02*
X003180Y014200D01*
X002680Y011700D02*
X002680Y011180D01*
X003680Y011180D02*
X003680Y011700D01*
X004680Y011700D02*
X004680Y011180D01*
X005680Y011180D02*
X005680Y011700D01*
X006680Y011700D02*
X006680Y011180D01*
X007680Y011180D02*
X007680Y011700D01*
X008680Y011700D02*
X008680Y011180D01*
X009680Y011180D02*
X009680Y011700D01*
X010680Y011700D02*
X010680Y011180D01*
X011680Y011180D02*
X011680Y011700D01*
X011180Y012680D02*
X011180Y013200D01*
X014180Y011700D02*
X014180Y011180D01*
X015180Y011180D02*
X015180Y011700D01*
X016180Y011700D02*
X016180Y011180D01*
X017180Y011180D02*
X017180Y011700D01*
X018180Y011700D02*
X018180Y011180D01*
X019180Y011180D02*
X019180Y011700D01*
X020180Y011700D02*
X020180Y011180D01*
X021180Y011180D02*
X021180Y011700D01*
X022180Y011700D02*
X022180Y011180D01*
X023180Y011180D02*
X023180Y011700D01*
X023180Y012680D02*
X023180Y013200D01*
X022180Y013200D02*
X022180Y012680D01*
X021180Y012680D02*
X021180Y013200D01*
X021180Y013680D02*
X021180Y014200D01*
X022180Y014200D02*
X022180Y013680D01*
X020180Y013680D02*
X020180Y014200D01*
X019180Y014200D02*
X019180Y013680D01*
X019180Y013200D02*
X019180Y012680D01*
X018180Y012680D02*
X018180Y013200D01*
X018180Y013680D02*
X018180Y014200D01*
X017180Y014200D02*
X017180Y013680D01*
X017180Y013200D02*
X017180Y012680D01*
X016180Y012680D02*
X016180Y013200D01*
X016180Y013680D02*
X016180Y014200D01*
X015180Y014200D02*
X015180Y013680D01*
X015180Y013200D02*
X015180Y012680D01*
X020180Y012680D02*
X020180Y013200D01*
X020180Y008700D02*
X020180Y008180D01*
X019180Y008180D02*
X019180Y008700D01*
X018180Y008700D02*
X018180Y008180D01*
X017180Y008180D02*
X017180Y008700D01*
X016180Y008700D02*
X016180Y008180D01*
X015180Y008180D02*
X015180Y008700D01*
X014180Y008700D02*
X014180Y008180D01*
X011680Y008180D02*
X011680Y008700D01*
X010680Y008700D02*
X010680Y008180D01*
X009680Y008180D02*
X009680Y008700D01*
X008680Y008700D02*
X008680Y008180D01*
X007680Y008180D02*
X007680Y008700D01*
X006680Y008700D02*
X006680Y008180D01*
X005680Y008180D02*
X005680Y008700D01*
X004680Y008700D02*
X004680Y008180D01*
X003680Y008180D02*
X003680Y008700D01*
X002680Y008700D02*
X002680Y008180D01*
X015680Y018680D02*
X015680Y019200D01*
X016680Y019200D02*
X016680Y018680D01*
X017680Y018680D02*
X017680Y019200D01*
X017680Y024680D02*
X017680Y025200D01*
X016680Y025200D02*
X016680Y024680D01*
X015680Y024680D02*
X015680Y025200D01*
X014680Y025200D02*
X014680Y024680D01*
X013680Y024680D02*
X013680Y025200D01*
X012680Y025200D02*
X012680Y024680D01*
X011680Y024680D02*
X011680Y025200D01*
X010680Y025200D02*
X010680Y024680D01*
X009680Y024680D02*
X009680Y025200D01*
X008680Y025200D02*
X008680Y024680D01*
X007680Y024680D02*
X007680Y025200D01*
X006680Y025200D02*
X006680Y024680D01*
X005680Y024680D02*
X005680Y025200D01*
X004680Y025200D02*
X004680Y024680D01*
X003680Y024680D02*
X003680Y025200D01*
X002680Y025200D02*
X002680Y024680D01*
X021180Y008700D02*
X021180Y008180D01*
X022180Y008180D02*
X022180Y008700D01*
X023180Y008700D02*
X023180Y008180D01*
D13*
X030180Y025160D02*
X030180Y025720D01*
X031180Y025720D02*
X031180Y025160D01*
X033180Y025160D02*
X033180Y025720D01*
X034180Y025720D02*
X034180Y025160D01*
D14*
X026930Y025440D03*
X026930Y021440D03*
X019930Y023440D03*
D15*
X024680Y018940D03*
X024680Y017940D03*
D16*
X038121Y021621D03*
D17*
X039239Y021074D03*
X038121Y020531D03*
X039239Y019983D03*
X038121Y019440D03*
X039239Y018897D03*
X038121Y018349D03*
X039239Y017806D03*
X038121Y017259D03*
D18*
X038680Y014519D03*
X038680Y024361D03*
D19*
X036180Y023440D03*
X036180Y022440D03*
X035180Y022440D03*
X033180Y023440D03*
X031680Y020940D03*
X030680Y020940D03*
X035180Y012440D03*
X036180Y012440D03*
X013180Y011440D03*
X013180Y010440D03*
X001680Y010440D03*
X001680Y011440D03*
X001680Y023940D03*
X001680Y024940D03*
D20*
X037680Y010940D03*
X038680Y010940D03*
X038680Y009940D03*
X037680Y009940D03*
X037680Y008940D03*
X038680Y008940D03*
X038680Y007940D03*
X037680Y007940D03*
X037680Y006940D03*
X038680Y006940D03*
X038680Y005940D03*
X037680Y005940D03*
M02*
