G75*
%MOIN*%
%OFA0B0*%
%FSLAX24Y24*%
%IPPOS*%
%LPD*%
%AMOC8*
5,1,8,0,0,1.08239X$1,22.5*
%
%ADD10C,0.0020*%
%ADD11C,0.0040*%
%ADD12C,0.0080*%
%ADD13C,0.0060*%
%ADD14R,0.1000X0.1000*%
%ADD15C,0.0100*%
%ADD16C,0.0050*%
%ADD17C,0.0070*%
%ADD18C,0.0160*%
%ADD19R,0.0230X0.0160*%
%ADD20R,0.0150X0.0200*%
D10*
X001527Y003950D02*
X001600Y003950D01*
X001637Y003987D01*
X001637Y004060D01*
X001563Y004060D01*
X001490Y003987D02*
X001527Y003950D01*
X001490Y003987D02*
X001490Y004133D01*
X001527Y004170D01*
X001600Y004170D01*
X001637Y004133D01*
X002190Y004133D02*
X002190Y003987D01*
X002227Y003950D01*
X002300Y003950D01*
X002337Y003987D01*
X002337Y004133D01*
X002300Y004170D01*
X002227Y004170D01*
X002190Y004133D01*
X002411Y004133D02*
X002411Y004097D01*
X002448Y004060D01*
X002521Y004060D01*
X002558Y004023D01*
X002558Y003987D01*
X002521Y003950D01*
X002448Y003950D01*
X002411Y003987D01*
X002411Y004133D02*
X002448Y004170D01*
X002521Y004170D01*
X002558Y004133D01*
X002632Y004133D02*
X002632Y003987D01*
X002669Y003950D01*
X002742Y003950D01*
X002779Y003987D01*
X002779Y004133D02*
X002742Y004170D01*
X002669Y004170D01*
X002632Y004133D01*
X003490Y004060D02*
X003637Y004060D01*
X003711Y004060D02*
X003784Y004097D01*
X003821Y004097D01*
X003858Y004060D01*
X003858Y003987D01*
X003821Y003950D01*
X003748Y003950D01*
X003711Y003987D01*
X003711Y004060D02*
X003711Y004170D01*
X003858Y004170D01*
X003932Y004170D02*
X003932Y004023D01*
X004005Y003950D01*
X004079Y004023D01*
X004079Y004170D01*
X004490Y004097D02*
X004563Y004170D01*
X004637Y004097D01*
X004637Y003950D01*
X004711Y003950D02*
X004858Y003950D01*
X004932Y003950D02*
X005079Y003950D01*
X005005Y004060D02*
X004932Y004060D01*
X004932Y004170D02*
X004932Y003950D01*
X004932Y004170D02*
X005079Y004170D01*
X004711Y004170D02*
X004711Y003950D01*
X004637Y004060D02*
X004490Y004060D01*
X004490Y004097D02*
X004490Y003950D01*
X003563Y003987D02*
X003563Y004133D01*
X005490Y004170D02*
X005637Y004170D01*
X005563Y004170D02*
X005563Y003950D01*
X005711Y003987D02*
X005748Y003950D01*
X005821Y003950D01*
X005858Y003987D01*
X005858Y004133D02*
X005821Y004170D01*
X005748Y004170D01*
X005711Y004133D01*
X005711Y003987D01*
X006390Y003950D02*
X006500Y003950D01*
X006537Y003987D01*
X006537Y004133D01*
X006500Y004170D01*
X006390Y004170D01*
X006390Y003950D01*
X006611Y003950D02*
X006611Y004097D01*
X006684Y004170D01*
X006758Y004097D01*
X006758Y003950D01*
X006832Y003950D02*
X006979Y004097D01*
X006979Y004133D01*
X006942Y004170D01*
X006869Y004170D01*
X006832Y004133D01*
X006758Y004060D02*
X006611Y004060D01*
X006832Y003950D02*
X006979Y003950D01*
X007490Y003950D02*
X007563Y003950D01*
X007527Y003950D02*
X007527Y004170D01*
X007563Y004170D02*
X007490Y004170D01*
X007637Y004170D02*
X007747Y004170D01*
X007784Y004133D01*
X007784Y004060D01*
X007747Y004023D01*
X007637Y004023D01*
X007637Y003950D02*
X007637Y004170D01*
X007711Y004023D02*
X007784Y003950D01*
X007858Y003987D02*
X007895Y003950D01*
X007968Y003950D01*
X008005Y003987D01*
X008005Y004023D01*
X007968Y004060D01*
X007932Y004060D01*
X007968Y004060D02*
X008005Y004097D01*
X008005Y004133D01*
X007968Y004170D01*
X007895Y004170D01*
X007858Y004133D01*
X008490Y004170D02*
X008563Y004170D01*
X008527Y004170D02*
X008527Y003950D01*
X008563Y003950D02*
X008490Y003950D01*
X008637Y003950D02*
X008637Y004170D01*
X008747Y004170D01*
X008784Y004133D01*
X008784Y004060D01*
X008747Y004023D01*
X008637Y004023D01*
X008711Y004023D02*
X008784Y003950D01*
X008858Y004060D02*
X009005Y004060D01*
X008968Y003950D02*
X008968Y004170D01*
X008858Y004060D01*
X009490Y003950D02*
X009563Y003950D01*
X009527Y003950D02*
X009527Y004170D01*
X009563Y004170D02*
X009490Y004170D01*
X009637Y004170D02*
X009747Y004170D01*
X009784Y004133D01*
X009784Y004060D01*
X009747Y004023D01*
X009637Y004023D01*
X009637Y003950D02*
X009637Y004170D01*
X009711Y004023D02*
X009784Y003950D01*
X009858Y003987D02*
X009895Y003950D01*
X009968Y003950D01*
X010005Y003987D01*
X010005Y004060D01*
X009968Y004097D01*
X009932Y004097D01*
X009858Y004060D01*
X009858Y004170D01*
X010005Y004170D01*
X010490Y004170D02*
X010563Y004170D01*
X010527Y004170D02*
X010527Y003950D01*
X010563Y003950D02*
X010490Y003950D01*
X010637Y003950D02*
X010637Y004170D01*
X010747Y004170D01*
X010784Y004133D01*
X010784Y004060D01*
X010747Y004023D01*
X010637Y004023D01*
X010711Y004023D02*
X010784Y003950D01*
X010858Y003987D02*
X010895Y003950D01*
X010968Y003950D01*
X011005Y003987D01*
X011005Y004023D01*
X010968Y004060D01*
X010858Y004060D01*
X010858Y003987D01*
X010858Y004060D02*
X010932Y004133D01*
X011005Y004170D01*
X011490Y004170D02*
X011563Y004170D01*
X011527Y004170D02*
X011527Y003950D01*
X011563Y003950D02*
X011490Y003950D01*
X011637Y003950D02*
X011637Y004170D01*
X011747Y004170D01*
X011784Y004133D01*
X011784Y004060D01*
X011747Y004023D01*
X011637Y004023D01*
X011711Y004023D02*
X011784Y003950D01*
X011858Y003950D02*
X011858Y003987D01*
X012005Y004133D01*
X012005Y004170D01*
X011858Y004170D01*
X012390Y004133D02*
X012390Y003987D01*
X012427Y003950D01*
X012500Y003950D01*
X012537Y003987D01*
X012611Y003950D02*
X012758Y003950D01*
X012832Y003950D02*
X012832Y004170D01*
X012869Y004060D02*
X012979Y003950D01*
X012832Y004023D02*
X012979Y004170D01*
X012611Y004170D02*
X012611Y003950D01*
X012537Y004133D02*
X012500Y004170D01*
X012427Y004170D01*
X012390Y004133D01*
X013390Y004170D02*
X013390Y003950D01*
X013390Y004023D02*
X013500Y004023D01*
X013537Y004060D01*
X013537Y004133D01*
X013500Y004170D01*
X013390Y004170D01*
X013463Y004023D02*
X013537Y003950D01*
X013611Y003950D02*
X013611Y004170D01*
X013758Y004170D01*
X013832Y004170D02*
X013942Y004170D01*
X013979Y004133D01*
X013979Y004060D01*
X013942Y004023D01*
X013832Y004023D01*
X013832Y003950D02*
X013832Y004170D01*
X013905Y004023D02*
X013979Y003950D01*
X013684Y004060D02*
X013611Y004060D01*
X014390Y004170D02*
X014390Y003950D01*
X014500Y003950D01*
X014537Y003987D01*
X014537Y004133D01*
X014500Y004170D01*
X014390Y004170D01*
X014611Y004133D02*
X014611Y003987D01*
X014648Y003950D01*
X014721Y003950D01*
X014758Y003987D01*
X014758Y004133D01*
X014721Y004170D01*
X014648Y004170D01*
X014611Y004133D01*
X014684Y004023D02*
X014758Y003950D01*
X014832Y003950D02*
X014979Y003950D01*
X014905Y003950D02*
X014905Y004170D01*
X014832Y004097D01*
X015390Y004170D02*
X015390Y003950D01*
X015500Y003950D01*
X015537Y003987D01*
X015537Y004133D01*
X015500Y004170D01*
X015390Y004170D01*
X015611Y004097D02*
X015684Y004170D01*
X015758Y004097D01*
X015758Y003950D01*
X015832Y003950D02*
X015979Y003950D01*
X015905Y003950D02*
X015905Y004170D01*
X015832Y004097D01*
X015758Y004060D02*
X015611Y004060D01*
X015611Y004097D02*
X015611Y003950D01*
X016390Y003950D02*
X016500Y003950D01*
X016537Y003987D01*
X016537Y004133D01*
X016500Y004170D01*
X016390Y004170D01*
X016390Y003950D01*
X016611Y003987D02*
X016648Y003950D01*
X016721Y003950D01*
X016758Y003987D01*
X016758Y004133D01*
X016721Y004170D01*
X016648Y004170D01*
X016611Y004133D01*
X016611Y003987D01*
X016684Y004023D02*
X016758Y003950D01*
X016832Y003987D02*
X016869Y003950D01*
X016942Y003950D01*
X016979Y003987D01*
X016979Y004023D01*
X016942Y004060D01*
X016905Y004060D01*
X016942Y004060D02*
X016979Y004097D01*
X016979Y004133D01*
X016942Y004170D01*
X016869Y004170D01*
X016832Y004133D01*
X017390Y004170D02*
X017390Y003950D01*
X017500Y003950D01*
X017537Y003987D01*
X017537Y004133D01*
X017500Y004170D01*
X017390Y004170D01*
X017611Y004097D02*
X017684Y004170D01*
X017758Y004097D01*
X017758Y003950D01*
X017832Y003987D02*
X017869Y003950D01*
X017942Y003950D01*
X017979Y003987D01*
X017979Y004023D01*
X017942Y004060D01*
X017905Y004060D01*
X017942Y004060D02*
X017979Y004097D01*
X017979Y004133D01*
X017942Y004170D01*
X017869Y004170D01*
X017832Y004133D01*
X017758Y004060D02*
X017611Y004060D01*
X017611Y004097D02*
X017611Y003950D01*
X018390Y003950D02*
X018463Y003950D01*
X018427Y003950D02*
X018427Y004170D01*
X018463Y004170D02*
X018390Y004170D01*
X018537Y004133D02*
X018537Y003987D01*
X018574Y003950D01*
X018647Y003950D01*
X018684Y003987D01*
X018684Y004133D01*
X018647Y004170D01*
X018574Y004170D01*
X018537Y004133D01*
X018758Y004170D02*
X018868Y004170D01*
X018905Y004133D01*
X018905Y004060D01*
X018868Y004023D01*
X018758Y004023D01*
X018758Y003950D02*
X018758Y004170D01*
X018832Y004023D02*
X018905Y003950D01*
X019390Y003950D02*
X019463Y003950D01*
X019427Y003950D02*
X019427Y004170D01*
X019463Y004170D02*
X019390Y004170D01*
X019537Y004133D02*
X019537Y003987D01*
X019574Y003950D01*
X019647Y003950D01*
X019684Y003987D01*
X019684Y004133D01*
X019647Y004170D01*
X019574Y004170D01*
X019537Y004133D01*
X019758Y004170D02*
X019758Y003950D01*
X019832Y004023D01*
X019905Y003950D01*
X019905Y004170D01*
X020490Y004170D02*
X020563Y004097D01*
X020637Y004170D01*
X020637Y003950D01*
X020711Y003950D02*
X020711Y004170D01*
X020821Y004170D01*
X020858Y004133D01*
X020858Y004060D01*
X020821Y004023D01*
X020711Y004023D01*
X020784Y004023D02*
X020858Y003950D01*
X020490Y003950D02*
X020490Y004170D01*
X021490Y004170D02*
X021563Y004097D01*
X021637Y004170D01*
X021637Y003950D01*
X021711Y003950D02*
X021784Y004023D01*
X021858Y003950D01*
X021858Y004170D01*
X021711Y004170D02*
X021711Y003950D01*
X021490Y003950D02*
X021490Y004170D01*
X022690Y004133D02*
X022690Y003987D01*
X022727Y003950D01*
X022800Y003950D01*
X022837Y003987D01*
X022837Y004060D01*
X022763Y004060D01*
X022690Y004133D02*
X022727Y004170D01*
X022800Y004170D01*
X022837Y004133D01*
X023490Y004060D02*
X023637Y004060D01*
X023711Y004097D02*
X023784Y004170D01*
X023784Y003950D01*
X023711Y003950D02*
X023858Y003950D01*
X023932Y003950D02*
X024079Y004097D01*
X024079Y004133D01*
X024042Y004170D01*
X023969Y004170D01*
X023932Y004133D01*
X023932Y003950D02*
X024079Y003950D01*
X024490Y003987D02*
X024490Y004133D01*
X024527Y004170D01*
X024600Y004170D01*
X024637Y004133D01*
X024711Y004133D02*
X024711Y004097D01*
X024748Y004060D01*
X024821Y004060D01*
X024858Y004023D01*
X024858Y003987D01*
X024821Y003950D01*
X024748Y003950D01*
X024711Y003987D01*
X024637Y003987D02*
X024600Y003950D01*
X024527Y003950D01*
X024490Y003987D01*
X024711Y004133D02*
X024748Y004170D01*
X024821Y004170D01*
X024858Y004133D01*
X025490Y004060D02*
X025637Y004060D01*
X025711Y004097D02*
X025784Y004170D01*
X025784Y003950D01*
X025711Y003950D02*
X025858Y003950D01*
X025932Y003950D02*
X026079Y004097D01*
X026079Y004133D01*
X026042Y004170D01*
X025969Y004170D01*
X025932Y004133D01*
X025932Y003950D02*
X026079Y003950D01*
X026390Y003950D02*
X026390Y004170D01*
X026500Y004170D01*
X026537Y004133D01*
X026537Y003987D01*
X026500Y003950D01*
X026390Y003950D01*
X026611Y003987D02*
X026611Y004133D01*
X026648Y004170D01*
X026721Y004170D01*
X026758Y004133D01*
X026758Y003987D01*
X026721Y003950D01*
X026648Y003950D01*
X026611Y003987D01*
X026684Y004023D02*
X026758Y003950D01*
X026832Y003950D02*
X026979Y004097D01*
X026979Y004133D01*
X026942Y004170D01*
X026869Y004170D01*
X026832Y004133D01*
X026832Y003950D02*
X026979Y003950D01*
X027490Y004060D02*
X027637Y004060D01*
X027711Y004060D02*
X027784Y004097D01*
X027821Y004097D01*
X027858Y004060D01*
X027858Y003987D01*
X027821Y003950D01*
X027748Y003950D01*
X027711Y003987D01*
X027711Y004060D02*
X027711Y004170D01*
X027858Y004170D01*
X028490Y004170D02*
X028563Y004170D01*
X028527Y004170D02*
X028527Y003950D01*
X028563Y003950D02*
X028490Y003950D01*
X028637Y003950D02*
X028637Y004170D01*
X028747Y004170D01*
X028784Y004133D01*
X028784Y004060D01*
X028747Y004023D01*
X028637Y004023D01*
X028711Y004023D02*
X028784Y003950D01*
X028858Y003987D02*
X028895Y003950D01*
X028968Y003950D01*
X029005Y003987D01*
X029005Y004133D01*
X028968Y004170D01*
X028895Y004170D01*
X028858Y004133D01*
X028858Y004097D01*
X028895Y004060D01*
X029005Y004060D01*
X029490Y004060D02*
X029637Y004060D01*
X029711Y004060D02*
X029784Y004097D01*
X029821Y004097D01*
X029858Y004060D01*
X029858Y003987D01*
X029821Y003950D01*
X029748Y003950D01*
X029711Y003987D01*
X029711Y004060D02*
X029711Y004170D01*
X029858Y004170D01*
X029563Y004133D02*
X029563Y003987D01*
X030390Y004023D02*
X030500Y004023D01*
X030537Y004060D01*
X030537Y004133D01*
X030500Y004170D01*
X030390Y004170D01*
X030390Y003950D01*
X030463Y004023D02*
X030537Y003950D01*
X030611Y003987D02*
X030648Y003950D01*
X030721Y003950D01*
X030758Y003987D01*
X030758Y004023D01*
X030721Y004060D01*
X030648Y004060D01*
X030611Y004097D01*
X030611Y004133D01*
X030648Y004170D01*
X030721Y004170D01*
X030758Y004133D01*
X030832Y004170D02*
X030979Y004170D01*
X030905Y004170D02*
X030905Y003950D01*
X031390Y003987D02*
X031390Y004133D01*
X031427Y004170D01*
X031500Y004170D01*
X031537Y004133D01*
X031537Y004060D02*
X031463Y004060D01*
X031537Y004060D02*
X031537Y003987D01*
X031500Y003950D01*
X031427Y003950D01*
X031390Y003987D01*
X031611Y003950D02*
X031611Y004170D01*
X031758Y003950D01*
X031758Y004170D01*
X031832Y004170D02*
X031942Y004170D01*
X031979Y004133D01*
X031979Y003987D01*
X031942Y003950D01*
X031832Y003950D01*
X031832Y004170D01*
X031868Y006950D02*
X031905Y006987D01*
X031868Y006950D02*
X031795Y006950D01*
X031758Y006987D01*
X031758Y007133D01*
X031795Y007170D01*
X031868Y007170D01*
X031905Y007133D01*
X031979Y007170D02*
X031979Y006950D01*
X031979Y007060D02*
X032126Y007060D01*
X032126Y007170D02*
X032126Y006950D01*
X031684Y006987D02*
X031684Y007133D01*
X031647Y007170D01*
X031574Y007170D01*
X031537Y007133D01*
X031537Y006987D01*
X031574Y006950D01*
X031647Y006950D01*
X031684Y006987D01*
X031463Y006950D02*
X031390Y006950D01*
X031427Y006950D02*
X031427Y007170D01*
X031463Y007170D02*
X031390Y007170D01*
X030858Y007170D02*
X030858Y007133D01*
X030711Y006987D01*
X030711Y006950D01*
X030637Y006987D02*
X030637Y007133D01*
X030600Y007170D01*
X030490Y007170D01*
X030490Y006950D01*
X030600Y006950D01*
X030637Y006987D01*
X030711Y007170D02*
X030858Y007170D01*
X029858Y007170D02*
X029784Y007133D01*
X029711Y007060D01*
X029821Y007060D01*
X029858Y007023D01*
X029858Y006987D01*
X029821Y006950D01*
X029748Y006950D01*
X029711Y006987D01*
X029711Y007060D01*
X029637Y006987D02*
X029637Y007133D01*
X029600Y007170D01*
X029490Y007170D01*
X029490Y006950D01*
X029600Y006950D01*
X029637Y006987D01*
X028858Y006987D02*
X028821Y006950D01*
X028748Y006950D01*
X028711Y006987D01*
X028711Y007060D02*
X028784Y007097D01*
X028821Y007097D01*
X028858Y007060D01*
X028858Y006987D01*
X028711Y007060D02*
X028711Y007170D01*
X028858Y007170D01*
X028637Y007133D02*
X028600Y007170D01*
X028490Y007170D01*
X028490Y006950D01*
X028600Y006950D01*
X028637Y006987D01*
X028637Y007133D01*
X027858Y007060D02*
X027711Y007060D01*
X027821Y007170D01*
X027821Y006950D01*
X027637Y006987D02*
X027637Y007133D01*
X027600Y007170D01*
X027490Y007170D01*
X027490Y006950D01*
X027600Y006950D01*
X027637Y006987D01*
X026858Y006987D02*
X026821Y006950D01*
X026748Y006950D01*
X026711Y006987D01*
X026637Y006987D02*
X026637Y007133D01*
X026600Y007170D01*
X026490Y007170D01*
X026490Y006950D01*
X026600Y006950D01*
X026637Y006987D01*
X026711Y007133D02*
X026748Y007170D01*
X026821Y007170D01*
X026858Y007133D01*
X026858Y007097D01*
X026821Y007060D01*
X026858Y007023D01*
X026858Y006987D01*
X026821Y007060D02*
X026784Y007060D01*
X025858Y007097D02*
X025858Y007133D01*
X025821Y007170D01*
X025748Y007170D01*
X025711Y007133D01*
X025637Y007133D02*
X025600Y007170D01*
X025490Y007170D01*
X025490Y006950D01*
X025600Y006950D01*
X025637Y006987D01*
X025637Y007133D01*
X025711Y006950D02*
X025858Y007097D01*
X025858Y006950D02*
X025711Y006950D01*
X024858Y006950D02*
X024711Y006950D01*
X024784Y006950D02*
X024784Y007170D01*
X024711Y007097D01*
X024637Y007133D02*
X024600Y007170D01*
X024490Y007170D01*
X024490Y006950D01*
X024600Y006950D01*
X024637Y006987D01*
X024637Y007133D01*
X023858Y007133D02*
X023711Y006987D01*
X023748Y006950D01*
X023821Y006950D01*
X023858Y006987D01*
X023858Y007133D01*
X023821Y007170D01*
X023748Y007170D01*
X023711Y007133D01*
X023711Y006987D01*
X023637Y006987D02*
X023637Y007133D01*
X023600Y007170D01*
X023490Y007170D01*
X023490Y006950D01*
X023600Y006950D01*
X023637Y006987D01*
X022670Y006987D02*
X022450Y006987D01*
X022450Y007023D02*
X022450Y006950D01*
X022487Y007097D02*
X022633Y007097D01*
X022670Y007134D01*
X022670Y007207D01*
X022633Y007244D01*
X022487Y007244D01*
X022450Y007207D01*
X022450Y007134D01*
X022487Y007097D01*
X022670Y007023D02*
X022670Y006950D01*
X022670Y007318D02*
X022450Y007318D01*
X022450Y007428D01*
X022487Y007465D01*
X022560Y007465D01*
X022597Y007428D01*
X022597Y007318D01*
X022597Y007392D02*
X022670Y007465D01*
X022670Y007539D02*
X022670Y007649D01*
X022633Y007686D01*
X022487Y007686D01*
X022450Y007649D01*
X022450Y007539D01*
X022670Y007539D01*
X022487Y007760D02*
X022560Y007834D01*
X022670Y007834D01*
X022560Y007834D02*
X022487Y007907D01*
X022450Y007907D01*
X022450Y007760D02*
X022487Y007760D01*
X021979Y007170D02*
X021979Y006950D01*
X021832Y007170D01*
X021832Y006950D01*
X021758Y006950D02*
X021611Y006950D01*
X021611Y007170D01*
X021758Y007170D01*
X021684Y007060D02*
X021611Y007060D01*
X021537Y007060D02*
X021390Y007060D01*
X021390Y007097D02*
X021463Y007170D01*
X021537Y007097D01*
X021537Y006950D01*
X021390Y006950D02*
X021390Y007097D01*
X021079Y007133D02*
X021042Y007170D01*
X020969Y007170D01*
X020932Y007133D01*
X020932Y007097D01*
X020969Y007060D01*
X021079Y007060D01*
X021079Y006987D02*
X021079Y007133D01*
X021079Y006987D02*
X021042Y006950D01*
X020969Y006950D01*
X020932Y006987D01*
X020858Y006950D02*
X020711Y006950D01*
X020784Y006950D02*
X020784Y007170D01*
X020711Y007097D01*
X020637Y007097D02*
X020637Y006950D01*
X020637Y007060D02*
X020490Y007060D01*
X020490Y007097D02*
X020563Y007170D01*
X020637Y007097D01*
X020490Y007097D02*
X020490Y006950D01*
X020079Y006987D02*
X020042Y006950D01*
X019969Y006950D01*
X019932Y006987D01*
X019932Y007023D01*
X019969Y007060D01*
X020042Y007060D01*
X020079Y007023D01*
X020079Y006987D01*
X020042Y007060D02*
X020079Y007097D01*
X020079Y007133D01*
X020042Y007170D01*
X019969Y007170D01*
X019932Y007133D01*
X019932Y007097D01*
X019969Y007060D01*
X019858Y006950D02*
X019711Y006950D01*
X019784Y006950D02*
X019784Y007170D01*
X019711Y007097D01*
X019637Y007097D02*
X019637Y006950D01*
X019637Y007060D02*
X019490Y007060D01*
X019490Y007097D02*
X019563Y007170D01*
X019637Y007097D01*
X019490Y007097D02*
X019490Y006950D01*
X019079Y007133D02*
X019079Y007170D01*
X018932Y007170D01*
X018784Y007170D02*
X018784Y006950D01*
X018711Y006950D02*
X018858Y006950D01*
X018932Y006950D02*
X018932Y006987D01*
X019079Y007133D01*
X018784Y007170D02*
X018711Y007097D01*
X018637Y007097D02*
X018637Y006950D01*
X018637Y007060D02*
X018490Y007060D01*
X018490Y007097D02*
X018563Y007170D01*
X018637Y007097D01*
X018490Y007097D02*
X018490Y006950D01*
X018079Y006987D02*
X018079Y007023D01*
X018042Y007060D01*
X017932Y007060D01*
X017932Y006987D01*
X017969Y006950D01*
X018042Y006950D01*
X018079Y006987D01*
X018005Y007133D02*
X018079Y007170D01*
X018005Y007133D02*
X017932Y007060D01*
X017858Y006950D02*
X017711Y006950D01*
X017784Y006950D02*
X017784Y007170D01*
X017711Y007097D01*
X017637Y007097D02*
X017637Y006950D01*
X017637Y007060D02*
X017490Y007060D01*
X017490Y007097D02*
X017563Y007170D01*
X017637Y007097D01*
X017490Y007097D02*
X017490Y006950D01*
X017079Y006987D02*
X017042Y006950D01*
X016969Y006950D01*
X016932Y006987D01*
X016932Y007060D02*
X017005Y007097D01*
X017042Y007097D01*
X017079Y007060D01*
X017079Y006987D01*
X016932Y007060D02*
X016932Y007170D01*
X017079Y007170D01*
X016784Y007170D02*
X016784Y006950D01*
X016711Y006950D02*
X016858Y006950D01*
X016711Y007097D02*
X016784Y007170D01*
X016637Y007097D02*
X016637Y006950D01*
X016637Y007060D02*
X016490Y007060D01*
X016490Y007097D02*
X016563Y007170D01*
X016637Y007097D01*
X016490Y007097D02*
X016490Y006950D01*
X016079Y007060D02*
X015932Y007060D01*
X016042Y007170D01*
X016042Y006950D01*
X015858Y006950D02*
X015711Y006950D01*
X015784Y006950D02*
X015784Y007170D01*
X015711Y007097D01*
X015637Y007097D02*
X015637Y006950D01*
X015637Y007060D02*
X015490Y007060D01*
X015490Y007097D02*
X015563Y007170D01*
X015637Y007097D01*
X015490Y007097D02*
X015490Y006950D01*
X015079Y006987D02*
X015042Y006950D01*
X014969Y006950D01*
X014932Y006987D01*
X014858Y006950D02*
X014711Y006950D01*
X014784Y006950D02*
X014784Y007170D01*
X014711Y007097D01*
X014637Y007097D02*
X014637Y006950D01*
X014637Y007060D02*
X014490Y007060D01*
X014490Y007097D02*
X014563Y007170D01*
X014637Y007097D01*
X014490Y007097D02*
X014490Y006950D01*
X014079Y006950D02*
X013932Y006950D01*
X014079Y007097D01*
X014079Y007133D01*
X014042Y007170D01*
X013969Y007170D01*
X013932Y007133D01*
X013784Y007170D02*
X013784Y006950D01*
X013711Y006950D02*
X013858Y006950D01*
X013711Y007097D02*
X013784Y007170D01*
X013637Y007097D02*
X013563Y007170D01*
X013490Y007097D01*
X013490Y006950D01*
X013490Y007060D02*
X013637Y007060D01*
X013637Y007097D02*
X013637Y006950D01*
X013079Y006950D02*
X012932Y006950D01*
X013005Y006950D02*
X013005Y007170D01*
X012932Y007097D01*
X012858Y006950D02*
X012711Y006950D01*
X012784Y006950D02*
X012784Y007170D01*
X012711Y007097D01*
X012637Y007097D02*
X012637Y006950D01*
X012637Y007060D02*
X012490Y007060D01*
X012490Y007097D02*
X012563Y007170D01*
X012637Y007097D01*
X012490Y007097D02*
X012490Y006950D01*
X012079Y006987D02*
X012042Y006950D01*
X011969Y006950D01*
X011932Y006987D01*
X012079Y007133D01*
X012079Y006987D01*
X012079Y007133D02*
X012042Y007170D01*
X011969Y007170D01*
X011932Y007133D01*
X011932Y006987D01*
X011858Y006950D02*
X011711Y006950D01*
X011784Y006950D02*
X011784Y007170D01*
X011711Y007097D01*
X011637Y007097D02*
X011637Y006950D01*
X011637Y007060D02*
X011490Y007060D01*
X011490Y007097D02*
X011563Y007170D01*
X011637Y007097D01*
X011490Y007097D02*
X011490Y006950D01*
X010858Y006987D02*
X010858Y007133D01*
X010821Y007170D01*
X010748Y007170D01*
X010711Y007133D01*
X010711Y007097D01*
X010748Y007060D01*
X010858Y007060D01*
X010858Y006987D02*
X010821Y006950D01*
X010748Y006950D01*
X010711Y006987D01*
X010637Y006950D02*
X010637Y007097D01*
X010563Y007170D01*
X010490Y007097D01*
X010490Y006950D01*
X010490Y007060D02*
X010637Y007060D01*
X009858Y007023D02*
X009858Y006987D01*
X009821Y006950D01*
X009748Y006950D01*
X009711Y006987D01*
X009711Y007023D01*
X009748Y007060D01*
X009821Y007060D01*
X009858Y007023D01*
X009821Y007060D02*
X009858Y007097D01*
X009858Y007133D01*
X009821Y007170D01*
X009748Y007170D01*
X009711Y007133D01*
X009711Y007097D01*
X009748Y007060D01*
X009637Y007060D02*
X009490Y007060D01*
X009490Y007097D02*
X009563Y007170D01*
X009637Y007097D01*
X009637Y006950D01*
X009490Y006950D02*
X009490Y007097D01*
X008858Y007133D02*
X008711Y006987D01*
X008711Y006950D01*
X008637Y006950D02*
X008637Y007097D01*
X008563Y007170D01*
X008490Y007097D01*
X008490Y006950D01*
X008490Y007060D02*
X008637Y007060D01*
X008711Y007170D02*
X008858Y007170D01*
X008858Y007133D01*
X007858Y007170D02*
X007784Y007133D01*
X007711Y007060D01*
X007821Y007060D01*
X007858Y007023D01*
X007858Y006987D01*
X007821Y006950D01*
X007748Y006950D01*
X007711Y006987D01*
X007711Y007060D01*
X007637Y007060D02*
X007490Y007060D01*
X007490Y007097D02*
X007563Y007170D01*
X007637Y007097D01*
X007637Y006950D01*
X007490Y006950D02*
X007490Y007097D01*
X006858Y007060D02*
X006858Y006987D01*
X006821Y006950D01*
X006748Y006950D01*
X006711Y006987D01*
X006711Y007060D02*
X006784Y007097D01*
X006821Y007097D01*
X006858Y007060D01*
X006858Y007170D02*
X006711Y007170D01*
X006711Y007060D01*
X006637Y007060D02*
X006490Y007060D01*
X006490Y007097D02*
X006563Y007170D01*
X006637Y007097D01*
X006637Y006950D01*
X006490Y006950D02*
X006490Y007097D01*
X005858Y007060D02*
X005711Y007060D01*
X005821Y007170D01*
X005821Y006950D01*
X005637Y006950D02*
X005637Y007097D01*
X005563Y007170D01*
X005490Y007097D01*
X005490Y006950D01*
X005490Y007060D02*
X005637Y007060D01*
X004858Y007023D02*
X004858Y006987D01*
X004821Y006950D01*
X004748Y006950D01*
X004711Y006987D01*
X004637Y006950D02*
X004637Y007097D01*
X004563Y007170D01*
X004490Y007097D01*
X004490Y006950D01*
X004490Y007060D02*
X004637Y007060D01*
X004711Y007133D02*
X004748Y007170D01*
X004821Y007170D01*
X004858Y007133D01*
X004858Y007097D01*
X004821Y007060D01*
X004858Y007023D01*
X004821Y007060D02*
X004784Y007060D01*
X003858Y007097D02*
X003858Y007133D01*
X003821Y007170D01*
X003748Y007170D01*
X003711Y007133D01*
X003637Y007097D02*
X003637Y006950D01*
X003711Y006950D02*
X003858Y007097D01*
X003858Y006950D02*
X003711Y006950D01*
X003637Y007060D02*
X003490Y007060D01*
X003490Y007097D02*
X003563Y007170D01*
X003637Y007097D01*
X003490Y007097D02*
X003490Y006950D01*
X002858Y006950D02*
X002711Y006950D01*
X002784Y006950D02*
X002784Y007170D01*
X002711Y007097D01*
X002637Y007097D02*
X002563Y007170D01*
X002490Y007097D01*
X002490Y006950D01*
X002490Y007060D02*
X002637Y007060D01*
X002637Y007097D02*
X002637Y006950D01*
X001858Y006987D02*
X001821Y006950D01*
X001748Y006950D01*
X001711Y006987D01*
X001858Y007133D01*
X001858Y006987D01*
X001858Y007133D02*
X001821Y007170D01*
X001748Y007170D01*
X001711Y007133D01*
X001711Y006987D01*
X001637Y006950D02*
X001637Y007097D01*
X001563Y007170D01*
X001490Y007097D01*
X001490Y006950D01*
X001490Y007060D02*
X001637Y007060D01*
X014932Y007133D02*
X014969Y007170D01*
X015042Y007170D01*
X015079Y007133D01*
X015079Y007097D01*
X015042Y007060D01*
X015079Y007023D01*
X015079Y006987D01*
X015042Y007060D02*
X015005Y007060D01*
X023563Y004133D02*
X023563Y003987D01*
X039721Y019468D02*
X039861Y019562D01*
X039861Y019616D02*
X039861Y019709D01*
X039861Y019662D02*
X039721Y019662D01*
X039768Y019616D01*
X039721Y019562D02*
X039861Y019468D01*
D11*
X034293Y023970D02*
X034059Y023970D01*
X034176Y023970D02*
X034176Y024320D01*
X034059Y024204D01*
X033934Y024262D02*
X033934Y024145D01*
X033875Y024087D01*
X033700Y024087D01*
X033817Y024087D02*
X033934Y023970D01*
X033700Y023970D02*
X033700Y024320D01*
X033875Y024320D01*
X033934Y024262D01*
X020670Y010270D02*
X020747Y010194D01*
X020747Y010117D01*
X020670Y010040D01*
X020747Y009963D01*
X020747Y009887D01*
X020670Y009810D01*
X020516Y009810D01*
X020440Y009887D01*
X020286Y009887D02*
X020209Y009810D01*
X020056Y009810D01*
X019979Y009887D01*
X019979Y010194D01*
X020056Y010270D01*
X020209Y010270D01*
X020286Y010194D01*
X020440Y010194D02*
X020516Y010270D01*
X020670Y010270D01*
X020670Y010040D02*
X020593Y010040D01*
X019826Y009810D02*
X019672Y009810D01*
X019749Y009810D02*
X019749Y010270D01*
X019672Y010270D02*
X019826Y010270D01*
X009247Y009810D02*
X008940Y009810D01*
X009093Y009810D02*
X009093Y010270D01*
X008940Y010117D01*
X008786Y010194D02*
X008709Y010270D01*
X008556Y010270D01*
X008479Y010194D01*
X008479Y009887D01*
X008556Y009810D01*
X008709Y009810D01*
X008786Y009887D01*
X008326Y009810D02*
X008172Y009810D01*
X008249Y009810D02*
X008249Y010270D01*
X008172Y010270D02*
X008326Y010270D01*
X008356Y020960D02*
X008279Y021037D01*
X008279Y021190D01*
X008356Y021267D01*
X008509Y021267D01*
X008586Y021190D01*
X008586Y021037D01*
X008509Y020960D01*
X008356Y020960D01*
X008126Y020960D02*
X007896Y020960D01*
X007819Y021037D01*
X007819Y021190D01*
X007896Y021267D01*
X008126Y021267D01*
X007665Y021037D02*
X007665Y020960D01*
X007589Y020960D01*
X007589Y021037D01*
X007665Y021037D01*
X007435Y021267D02*
X007358Y021267D01*
X007205Y021113D01*
X007205Y020960D02*
X007205Y021267D01*
X007051Y021190D02*
X006975Y021267D01*
X006821Y021267D01*
X006745Y021190D01*
X006745Y021037D01*
X006821Y020960D01*
X006975Y020960D01*
X007051Y021113D02*
X006745Y021113D01*
X006591Y020960D02*
X006361Y021113D01*
X006591Y021267D01*
X006361Y021420D02*
X006361Y020960D01*
X006207Y020960D02*
X005977Y020960D01*
X005901Y021037D01*
X005977Y021113D01*
X006207Y021113D01*
X006207Y021190D02*
X006207Y020960D01*
X006207Y021190D02*
X006131Y021267D01*
X005977Y021267D01*
X005747Y021190D02*
X005670Y021267D01*
X005440Y021267D01*
X005440Y021420D02*
X005440Y020960D01*
X005670Y020960D01*
X005747Y021037D01*
X005747Y021190D01*
X005287Y021190D02*
X005210Y021267D01*
X005133Y021190D01*
X005133Y020960D01*
X004980Y020960D02*
X004980Y021267D01*
X005056Y021267D01*
X005133Y021190D01*
X005287Y021190D02*
X005287Y020960D01*
X004826Y021037D02*
X004750Y021113D01*
X004596Y021113D01*
X004519Y021190D01*
X004596Y021267D01*
X004826Y021267D01*
X004826Y021037D02*
X004750Y020960D01*
X004519Y020960D01*
X004366Y020960D02*
X004289Y020960D01*
X004289Y021037D01*
X004366Y021037D01*
X004366Y020960D01*
X004136Y021037D02*
X004136Y021267D01*
X004136Y021037D02*
X004059Y020960D01*
X003982Y021037D01*
X003905Y020960D01*
X003829Y021037D01*
X003829Y021267D01*
X003675Y021267D02*
X003675Y021037D01*
X003599Y020960D01*
X003522Y021037D01*
X003445Y020960D01*
X003368Y021037D01*
X003368Y021267D01*
X003215Y021267D02*
X003215Y021037D01*
X003138Y020960D01*
X003061Y021037D01*
X002985Y020960D01*
X002908Y021037D01*
X002908Y021267D01*
X007051Y021190D02*
X007051Y021113D01*
X008740Y020960D02*
X008740Y021267D01*
X008816Y021267D01*
X008893Y021190D01*
X008970Y021267D01*
X009047Y021190D01*
X009047Y020960D01*
X008893Y020960D02*
X008893Y021190D01*
D12*
X000730Y003240D02*
X000730Y000390D01*
X000980Y000140D01*
X032380Y000140D01*
X032630Y000390D01*
X032630Y003240D01*
X037578Y013377D02*
X037578Y025503D01*
X039680Y025503D01*
X039680Y013377D02*
X037578Y013377D01*
D13*
X036630Y012940D02*
X036630Y011940D01*
X036628Y011923D01*
X036624Y011906D01*
X036617Y011890D01*
X036607Y011876D01*
X036594Y011863D01*
X036580Y011853D01*
X036564Y011846D01*
X036547Y011842D01*
X036530Y011840D01*
X034830Y011840D01*
X034813Y011842D01*
X034796Y011846D01*
X034780Y011853D01*
X034766Y011863D01*
X034753Y011876D01*
X034743Y011890D01*
X034736Y011906D01*
X034732Y011923D01*
X034730Y011940D01*
X034730Y012940D01*
X034732Y012957D01*
X034736Y012974D01*
X034743Y012990D01*
X034753Y013004D01*
X034766Y013017D01*
X034780Y013027D01*
X034796Y013034D01*
X034813Y013038D01*
X034830Y013040D01*
X036530Y013040D01*
X036547Y013038D01*
X036564Y013034D01*
X036580Y013027D01*
X036594Y013017D01*
X036607Y013004D01*
X036617Y012990D01*
X036624Y012974D01*
X036628Y012957D01*
X036630Y012940D01*
X035830Y012440D02*
X035780Y012440D01*
X035580Y012440D02*
X035530Y012440D01*
X035830Y011940D02*
X035080Y011940D01*
X035078Y011901D01*
X035072Y011862D01*
X035063Y011824D01*
X035050Y011787D01*
X035033Y011751D01*
X035013Y011718D01*
X034989Y011686D01*
X034963Y011657D01*
X034934Y011631D01*
X034902Y011607D01*
X034869Y011587D01*
X034833Y011570D01*
X034796Y011557D01*
X034758Y011548D01*
X034719Y011542D01*
X034680Y011540D01*
X034641Y011542D01*
X034602Y011548D01*
X034564Y011557D01*
X034527Y011570D01*
X034491Y011587D01*
X034458Y011607D01*
X034426Y011631D01*
X034397Y011657D01*
X034371Y011686D01*
X034347Y011718D01*
X034327Y011751D01*
X034310Y011787D01*
X034297Y011824D01*
X034288Y011862D01*
X034282Y011901D01*
X034280Y011940D01*
X033530Y011940D01*
X033530Y004940D01*
X035830Y004940D01*
X035830Y011940D01*
X037180Y011290D02*
X037330Y011440D01*
X039030Y011440D01*
X039180Y011290D01*
X039180Y010590D01*
X039030Y010440D01*
X039180Y010290D01*
X039180Y009590D01*
X039030Y009440D01*
X039180Y009290D01*
X039180Y008590D01*
X039030Y008440D01*
X039180Y008290D01*
X039180Y007590D01*
X039030Y007440D01*
X039180Y007290D01*
X039180Y006590D01*
X039030Y006440D01*
X039180Y006290D01*
X039180Y005590D01*
X039030Y005440D01*
X037330Y005440D01*
X037180Y005590D01*
X037180Y006290D01*
X037330Y006440D01*
X037180Y006590D01*
X037180Y007290D01*
X037330Y007440D01*
X037180Y007590D01*
X037180Y008290D01*
X037330Y008440D01*
X037180Y008590D01*
X037180Y009290D01*
X037330Y009440D01*
X037180Y009590D01*
X037180Y010290D01*
X037330Y010440D01*
X037180Y010590D01*
X037180Y011290D01*
X035830Y013940D02*
X033530Y013940D01*
X033530Y021940D01*
X034280Y021940D01*
X034282Y021901D01*
X034288Y021862D01*
X034297Y021824D01*
X034310Y021787D01*
X034327Y021751D01*
X034347Y021718D01*
X034371Y021686D01*
X034397Y021657D01*
X034426Y021631D01*
X034458Y021607D01*
X034491Y021587D01*
X034527Y021570D01*
X034564Y021557D01*
X034602Y021548D01*
X034641Y021542D01*
X034680Y021540D01*
X034719Y021542D01*
X034758Y021548D01*
X034796Y021557D01*
X034833Y021570D01*
X034869Y021587D01*
X034902Y021607D01*
X034934Y021631D01*
X034963Y021657D01*
X034989Y021686D01*
X035013Y021718D01*
X035033Y021751D01*
X035050Y021787D01*
X035063Y021824D01*
X035072Y021862D01*
X035078Y021901D01*
X035080Y021940D01*
X035830Y021940D01*
X035830Y013940D01*
X031280Y019890D02*
X031280Y007990D01*
X026080Y007990D01*
X026080Y019890D01*
X028180Y019890D01*
X028182Y019846D01*
X028188Y019803D01*
X028197Y019761D01*
X028210Y019719D01*
X028227Y019679D01*
X028247Y019640D01*
X028270Y019603D01*
X028297Y019569D01*
X028326Y019536D01*
X028359Y019507D01*
X028393Y019480D01*
X028430Y019457D01*
X028469Y019437D01*
X028509Y019420D01*
X028551Y019407D01*
X028593Y019398D01*
X028636Y019392D01*
X028680Y019390D01*
X028724Y019392D01*
X028767Y019398D01*
X028809Y019407D01*
X028851Y019420D01*
X028891Y019437D01*
X028930Y019457D01*
X028967Y019480D01*
X029001Y019507D01*
X029034Y019536D01*
X029063Y019569D01*
X029090Y019603D01*
X029113Y019640D01*
X029133Y019679D01*
X029150Y019719D01*
X029163Y019761D01*
X029172Y019803D01*
X029178Y019846D01*
X029180Y019890D01*
X031280Y019890D01*
X032030Y020340D02*
X030330Y020340D01*
X030313Y020342D01*
X030296Y020346D01*
X030280Y020353D01*
X030266Y020363D01*
X030253Y020376D01*
X030243Y020390D01*
X030236Y020406D01*
X030232Y020423D01*
X030230Y020440D01*
X030230Y021440D01*
X030232Y021457D01*
X030236Y021474D01*
X030243Y021490D01*
X030253Y021504D01*
X030266Y021517D01*
X030280Y021527D01*
X030296Y021534D01*
X030313Y021538D01*
X030330Y021540D01*
X032030Y021540D01*
X032047Y021538D01*
X032064Y021534D01*
X032080Y021527D01*
X032094Y021517D01*
X032107Y021504D01*
X032117Y021490D01*
X032124Y021474D01*
X032128Y021457D01*
X032130Y021440D01*
X032130Y020440D01*
X032128Y020423D01*
X032124Y020406D01*
X032117Y020390D01*
X032107Y020376D01*
X032094Y020363D01*
X032080Y020353D01*
X032064Y020346D01*
X032047Y020342D01*
X032030Y020340D01*
X031330Y020940D02*
X031280Y020940D01*
X031080Y020940D02*
X031030Y020940D01*
X033780Y023040D02*
X033930Y023040D01*
X033980Y023090D01*
X035380Y023090D01*
X035430Y023040D01*
X035580Y023040D01*
X035597Y023042D01*
X035614Y023046D01*
X035630Y023053D01*
X035644Y023063D01*
X035657Y023076D01*
X035667Y023090D01*
X035674Y023106D01*
X035678Y023123D01*
X035680Y023140D01*
X035680Y023740D01*
X035678Y023757D01*
X035674Y023774D01*
X035667Y023790D01*
X035657Y023804D01*
X035644Y023817D01*
X035630Y023827D01*
X035614Y023834D01*
X035597Y023838D01*
X035580Y023840D01*
X035430Y023840D01*
X035380Y023790D01*
X033980Y023790D01*
X033930Y023840D01*
X033780Y023840D01*
X033763Y023838D01*
X033746Y023834D01*
X033730Y023827D01*
X033716Y023817D01*
X033703Y023804D01*
X033693Y023790D01*
X033686Y023774D01*
X033682Y023757D01*
X033680Y023740D01*
X033680Y023140D01*
X033682Y023123D01*
X033686Y023106D01*
X033693Y023090D01*
X033703Y023076D01*
X033716Y023063D01*
X033730Y023053D01*
X033746Y023046D01*
X033763Y023042D01*
X033780Y023040D01*
X034730Y022940D02*
X034730Y021940D01*
X034732Y021923D01*
X034736Y021906D01*
X034743Y021890D01*
X034753Y021876D01*
X034766Y021863D01*
X034780Y021853D01*
X034796Y021846D01*
X034813Y021842D01*
X034830Y021840D01*
X036530Y021840D01*
X036547Y021842D01*
X036564Y021846D01*
X036580Y021853D01*
X036594Y021863D01*
X036607Y021876D01*
X036617Y021890D01*
X036624Y021906D01*
X036628Y021923D01*
X036630Y021940D01*
X036630Y022940D01*
X036628Y022957D01*
X036624Y022974D01*
X036617Y022990D01*
X036607Y023004D01*
X036594Y023017D01*
X036580Y023027D01*
X036564Y023034D01*
X036547Y023038D01*
X036530Y023040D01*
X034830Y023040D01*
X034813Y023038D01*
X034796Y023034D01*
X034780Y023027D01*
X034766Y023017D01*
X034753Y023004D01*
X034743Y022990D01*
X034736Y022974D01*
X034732Y022957D01*
X034730Y022940D01*
X035530Y022440D02*
X035580Y022440D01*
X035780Y022440D02*
X035830Y022440D01*
X034580Y024940D02*
X033780Y024940D01*
X033680Y025040D01*
X033580Y024940D01*
X032780Y024940D01*
X032680Y025040D01*
X032680Y025840D01*
X032780Y025940D01*
X033580Y025940D01*
X033680Y025840D01*
X033780Y025940D01*
X034580Y025940D01*
X034680Y025840D01*
X034680Y025040D01*
X034580Y024940D01*
X031680Y025040D02*
X031680Y025840D01*
X031580Y025940D01*
X030780Y025940D01*
X030680Y025840D01*
X030580Y025940D01*
X029780Y025940D01*
X029680Y025840D01*
X029680Y025040D01*
X029780Y024940D01*
X030580Y024940D01*
X030680Y025040D01*
X030780Y024940D01*
X031580Y024940D01*
X031680Y025040D01*
X027030Y024840D02*
X027030Y022040D01*
X027030Y020840D02*
X021680Y020840D01*
X021680Y022940D01*
X023930Y022940D01*
X023930Y023940D01*
X021680Y023940D01*
X021680Y026040D01*
X027030Y026040D01*
X025671Y026077D02*
X025587Y026168D01*
X025499Y026257D01*
X025409Y026343D01*
X025316Y026425D01*
X025221Y026505D01*
X025123Y026582D01*
X025023Y026656D01*
X024921Y026727D01*
X024816Y026794D01*
X024709Y026858D01*
X024601Y026919D01*
X024490Y026976D01*
X024378Y027030D01*
X024264Y027080D01*
X024149Y027126D01*
X024032Y027169D01*
X023914Y027208D01*
X023795Y027244D01*
X023674Y027275D01*
X023553Y027303D01*
X023431Y027327D01*
X023308Y027347D01*
X023185Y027364D01*
X023061Y027376D01*
X022937Y027385D01*
X022813Y027389D01*
X022688Y027390D01*
X022564Y027387D01*
X022440Y027379D01*
X022316Y027368D01*
X022192Y027353D01*
X022069Y027334D01*
X021947Y027312D01*
X021825Y027285D01*
X021705Y027255D01*
X021585Y027220D01*
X021467Y027183D01*
X021349Y027141D01*
X021234Y027096D01*
X021119Y027047D01*
X021006Y026994D01*
X020895Y026938D01*
X020786Y026879D01*
X020679Y026816D01*
X020573Y026749D01*
X020470Y026680D01*
X020369Y026607D01*
X020271Y026531D01*
X020175Y026452D01*
X020081Y026370D01*
X019990Y026285D01*
X019902Y026198D01*
X019816Y026107D01*
X019734Y026014D01*
X019654Y025918D01*
X019578Y025820D01*
X019504Y025720D01*
X019434Y025617D01*
X019367Y025512D01*
X019304Y025405D01*
X019243Y025296D01*
X019187Y025186D01*
X019133Y025073D01*
X019084Y024959D01*
X019038Y024844D01*
X018995Y024727D01*
X018957Y024608D01*
X018922Y024489D01*
X018891Y024369D01*
X018863Y024247D01*
X018840Y024125D01*
X018820Y024002D01*
X018804Y023879D01*
X018793Y023755D01*
X018785Y023631D01*
X018781Y023506D01*
X018780Y023382D01*
X018784Y023258D01*
X018792Y023133D01*
X018804Y023010D01*
X018819Y022886D01*
X018838Y022763D01*
X018862Y022641D01*
X018889Y022520D01*
X018920Y022399D01*
X018954Y022280D01*
X018993Y022161D01*
X019035Y022044D01*
X019081Y021928D01*
X019130Y021814D01*
X019183Y021702D01*
X019240Y021591D01*
X019300Y021482D01*
X019363Y021375D01*
X019430Y021270D01*
X019500Y021167D01*
X019573Y021066D01*
X019649Y020968D01*
X019728Y020872D01*
X019811Y020779D01*
X019896Y020688D01*
X019984Y020600D01*
X020075Y020515D01*
X020168Y020433D01*
X020264Y020354D01*
X020363Y020278D01*
X020464Y020205D01*
X020567Y020135D01*
X020672Y020069D01*
X020779Y020006D01*
X020888Y019946D01*
X020999Y019890D01*
X021112Y019837D01*
X021226Y019788D01*
X021342Y019742D01*
X021459Y019700D01*
X021577Y019662D01*
X021697Y019628D01*
X021817Y019597D01*
X021939Y019570D01*
X022061Y019547D01*
X022184Y019528D01*
X022308Y019513D01*
X022431Y019501D01*
X022556Y019494D01*
X022680Y019490D01*
X021730Y018840D02*
X023880Y018840D01*
X023880Y018790D01*
X023880Y018090D01*
X023880Y018040D01*
X021730Y018040D01*
X021713Y018042D01*
X021696Y018046D01*
X021680Y018053D01*
X021666Y018063D01*
X021653Y018076D01*
X021643Y018090D01*
X021636Y018106D01*
X021632Y018123D01*
X021630Y018140D01*
X021630Y018740D01*
X021632Y018757D01*
X021636Y018774D01*
X021643Y018790D01*
X021653Y018804D01*
X021666Y018817D01*
X021680Y018827D01*
X021696Y018834D01*
X021713Y018838D01*
X021730Y018840D01*
X022380Y018440D02*
X022580Y018440D01*
X022580Y018640D01*
X022730Y018640D02*
X022730Y018240D01*
X022880Y018240D01*
X022880Y018640D01*
X022730Y018640D01*
X022580Y018440D02*
X022580Y018240D01*
X023030Y018240D02*
X023030Y018440D01*
X023030Y018640D01*
X023030Y018440D02*
X023230Y018440D01*
X023880Y018090D02*
X024030Y018090D01*
X024030Y018790D01*
X023880Y018790D01*
X023180Y016940D02*
X022480Y016940D01*
X022680Y016540D02*
X022682Y016560D01*
X022688Y016578D01*
X022697Y016596D01*
X022709Y016611D01*
X022724Y016623D01*
X022742Y016632D01*
X022760Y016638D01*
X022780Y016640D01*
X022800Y016638D01*
X022818Y016632D01*
X022836Y016623D01*
X022851Y016611D01*
X022863Y016596D01*
X022872Y016578D01*
X022878Y016560D01*
X022880Y016540D01*
X022878Y016520D01*
X022872Y016502D01*
X022863Y016484D01*
X022851Y016469D01*
X022836Y016457D01*
X022818Y016448D01*
X022800Y016442D01*
X022780Y016440D01*
X022760Y016442D01*
X022742Y016448D01*
X022724Y016457D01*
X022709Y016469D01*
X022697Y016484D01*
X022688Y016502D01*
X022682Y016520D01*
X022680Y016540D01*
X023180Y016940D02*
X023180Y013940D01*
X022480Y013940D01*
X021880Y013940D02*
X021480Y013940D01*
X020880Y013940D02*
X020480Y013940D01*
X019880Y013940D02*
X019480Y013940D01*
X018880Y013940D02*
X018480Y013940D01*
X017880Y013940D02*
X017480Y013940D01*
X016880Y013940D02*
X016480Y013940D01*
X015880Y013940D02*
X015480Y013940D01*
X014880Y013940D02*
X014180Y013940D01*
X014180Y016940D01*
X014880Y016940D01*
X015480Y016940D02*
X015880Y016940D01*
X016480Y016940D02*
X016880Y016940D01*
X017480Y016940D02*
X017880Y016940D01*
X018480Y016940D02*
X018880Y016940D01*
X019480Y016940D02*
X019880Y016940D01*
X020480Y016940D02*
X020880Y016940D01*
X021480Y016940D02*
X021880Y016940D01*
X018180Y019290D02*
X018180Y024590D01*
X002180Y024590D01*
X002180Y022340D01*
X002219Y022338D01*
X002258Y022332D01*
X002296Y022323D01*
X002333Y022310D01*
X002369Y022293D01*
X002402Y022273D01*
X002434Y022249D01*
X002463Y022223D01*
X002489Y022194D01*
X002513Y022162D01*
X002533Y022129D01*
X002550Y022093D01*
X002563Y022056D01*
X002572Y022018D01*
X002578Y021979D01*
X002580Y021940D01*
X002578Y021901D01*
X002572Y021862D01*
X002563Y021824D01*
X002550Y021787D01*
X002533Y021751D01*
X002513Y021718D01*
X002489Y021686D01*
X002463Y021657D01*
X002434Y021631D01*
X002402Y021607D01*
X002369Y021587D01*
X002333Y021570D01*
X002296Y021557D01*
X002258Y021548D01*
X002219Y021542D01*
X002180Y021540D01*
X002180Y019290D01*
X018180Y019290D01*
X014092Y021620D02*
X013665Y021620D01*
X014092Y022047D01*
X014092Y022154D01*
X013986Y022261D01*
X013772Y022261D01*
X013665Y022154D01*
X013448Y022154D02*
X013341Y022261D01*
X013128Y022261D01*
X013021Y022154D01*
X013021Y022047D01*
X013128Y021940D01*
X013341Y021940D01*
X013448Y021834D01*
X013448Y021727D01*
X013341Y021620D01*
X013128Y021620D01*
X013021Y021727D01*
X012803Y021727D02*
X012803Y022261D01*
X012376Y022261D02*
X012376Y021727D01*
X012483Y021620D01*
X012697Y021620D01*
X012803Y021727D01*
X013234Y021513D02*
X013234Y022367D01*
X011180Y016940D02*
X010480Y016940D01*
X010680Y016540D02*
X010682Y016560D01*
X010688Y016578D01*
X010697Y016596D01*
X010709Y016611D01*
X010724Y016623D01*
X010742Y016632D01*
X010760Y016638D01*
X010780Y016640D01*
X010800Y016638D01*
X010818Y016632D01*
X010836Y016623D01*
X010851Y016611D01*
X010863Y016596D01*
X010872Y016578D01*
X010878Y016560D01*
X010880Y016540D01*
X010878Y016520D01*
X010872Y016502D01*
X010863Y016484D01*
X010851Y016469D01*
X010836Y016457D01*
X010818Y016448D01*
X010800Y016442D01*
X010780Y016440D01*
X010760Y016442D01*
X010742Y016448D01*
X010724Y016457D01*
X010709Y016469D01*
X010697Y016484D01*
X010688Y016502D01*
X010682Y016520D01*
X010680Y016540D01*
X011180Y016940D02*
X011180Y013940D01*
X010480Y013940D01*
X009880Y013940D02*
X009480Y013940D01*
X008880Y013940D02*
X008480Y013940D01*
X007880Y013940D02*
X007480Y013940D01*
X006880Y013940D02*
X006480Y013940D01*
X005880Y013940D02*
X005480Y013940D01*
X004880Y013940D02*
X004480Y013940D01*
X003880Y013940D02*
X003480Y013940D01*
X002880Y013940D02*
X002180Y013940D01*
X002180Y016940D01*
X002880Y016940D01*
X003480Y016940D02*
X003880Y016940D01*
X004480Y016940D02*
X004880Y016940D01*
X005480Y016940D02*
X005880Y016940D01*
X006480Y016940D02*
X006880Y016940D01*
X007480Y016940D02*
X007880Y016940D01*
X008480Y016940D02*
X008880Y016940D01*
X009480Y016940D02*
X009880Y016940D01*
X010830Y013290D02*
X011530Y013290D01*
X011530Y012590D01*
X010830Y012590D01*
X010830Y013290D01*
X011480Y013340D02*
X002880Y013340D01*
X002854Y013338D01*
X002828Y013333D01*
X002803Y013325D01*
X002780Y013313D01*
X002758Y013299D01*
X002739Y013281D01*
X002721Y013262D01*
X002707Y013240D01*
X002695Y013217D01*
X002687Y013192D01*
X002682Y013166D01*
X002680Y013140D01*
X002680Y012740D01*
X002682Y012714D01*
X002687Y012688D01*
X002695Y012663D01*
X002707Y012640D01*
X002721Y012618D01*
X002739Y012599D01*
X002758Y012581D01*
X002780Y012567D01*
X002803Y012555D01*
X002828Y012547D01*
X002854Y012542D01*
X002880Y012540D01*
X011480Y012540D01*
X011506Y012542D01*
X011532Y012547D01*
X011557Y012555D01*
X011580Y012567D01*
X011602Y012581D01*
X011621Y012599D01*
X011639Y012618D01*
X011653Y012640D01*
X011665Y012663D01*
X011673Y012688D01*
X011678Y012714D01*
X011680Y012740D01*
X011680Y013140D01*
X011678Y013166D01*
X011673Y013192D01*
X011665Y013217D01*
X011653Y013240D01*
X011639Y013262D01*
X011621Y013281D01*
X011602Y013299D01*
X011580Y013313D01*
X011557Y013325D01*
X011532Y013333D01*
X011506Y013338D01*
X011480Y013340D01*
X012680Y011890D02*
X013680Y011890D01*
X013697Y011888D01*
X013714Y011884D01*
X013730Y011877D01*
X013744Y011867D01*
X013757Y011854D01*
X013767Y011840D01*
X013774Y011824D01*
X013778Y011807D01*
X013780Y011790D01*
X013780Y010090D01*
X013778Y010073D01*
X013774Y010056D01*
X013767Y010040D01*
X013757Y010026D01*
X013744Y010013D01*
X013730Y010003D01*
X013714Y009996D01*
X013697Y009992D01*
X013680Y009990D01*
X012680Y009990D01*
X012663Y009992D01*
X012646Y009996D01*
X012630Y010003D01*
X012616Y010013D01*
X012603Y010026D01*
X012593Y010040D01*
X012586Y010056D01*
X012582Y010073D01*
X012580Y010090D01*
X012580Y011790D01*
X012582Y011807D01*
X012586Y011824D01*
X012593Y011840D01*
X012603Y011854D01*
X012616Y011867D01*
X012630Y011877D01*
X012646Y011884D01*
X012663Y011888D01*
X012680Y011890D01*
X012180Y011090D02*
X012180Y008790D01*
X002180Y008790D01*
X002180Y009540D01*
X002219Y009542D01*
X002258Y009548D01*
X002296Y009557D01*
X002333Y009570D01*
X002369Y009587D01*
X002402Y009607D01*
X002434Y009631D01*
X002463Y009657D01*
X002489Y009686D01*
X002513Y009718D01*
X002533Y009751D01*
X002550Y009787D01*
X002563Y009824D01*
X002572Y009862D01*
X002578Y009901D01*
X002580Y009940D01*
X002578Y009979D01*
X002572Y010018D01*
X002563Y010056D01*
X002550Y010093D01*
X002533Y010129D01*
X002513Y010162D01*
X002489Y010194D01*
X002463Y010223D01*
X002434Y010249D01*
X002402Y010273D01*
X002369Y010293D01*
X002333Y010310D01*
X002296Y010323D01*
X002258Y010332D01*
X002219Y010338D01*
X002180Y010340D01*
X002180Y011090D01*
X012180Y011090D01*
X013180Y011090D02*
X013180Y011040D01*
X013180Y010840D02*
X013180Y010790D01*
X013680Y011090D02*
X013680Y010340D01*
X013719Y010338D01*
X013758Y010332D01*
X013796Y010323D01*
X013833Y010310D01*
X013869Y010293D01*
X013902Y010273D01*
X013934Y010249D01*
X013963Y010223D01*
X013989Y010194D01*
X014013Y010162D01*
X014033Y010129D01*
X014050Y010093D01*
X014063Y010056D01*
X014072Y010018D01*
X014078Y009979D01*
X014080Y009940D01*
X014078Y009901D01*
X014072Y009862D01*
X014063Y009824D01*
X014050Y009787D01*
X014033Y009751D01*
X014013Y009718D01*
X013989Y009686D01*
X013963Y009657D01*
X013934Y009631D01*
X013902Y009607D01*
X013869Y009587D01*
X013833Y009570D01*
X013796Y009557D01*
X013758Y009548D01*
X013719Y009542D01*
X013680Y009540D01*
X013680Y008790D01*
X023680Y008790D01*
X023680Y011090D01*
X013680Y011090D01*
X014880Y012540D02*
X023480Y012540D01*
X023530Y012590D02*
X022830Y012590D01*
X022830Y013290D01*
X023530Y013290D01*
X023530Y012590D01*
X023480Y012540D02*
X023506Y012542D01*
X023532Y012547D01*
X023557Y012555D01*
X023580Y012567D01*
X023602Y012581D01*
X023621Y012599D01*
X023639Y012618D01*
X023653Y012640D01*
X023665Y012663D01*
X023673Y012688D01*
X023678Y012714D01*
X023680Y012740D01*
X023680Y013140D01*
X023678Y013166D01*
X023673Y013192D01*
X023665Y013217D01*
X023653Y013240D01*
X023639Y013262D01*
X023621Y013281D01*
X023602Y013299D01*
X023580Y013313D01*
X023557Y013325D01*
X023532Y013333D01*
X023506Y013338D01*
X023480Y013340D01*
X014880Y013340D01*
X014854Y013338D01*
X014828Y013333D01*
X014803Y013325D01*
X014780Y013313D01*
X014758Y013299D01*
X014739Y013281D01*
X014721Y013262D01*
X014707Y013240D01*
X014695Y013217D01*
X014687Y013192D01*
X014682Y013166D01*
X014680Y013140D01*
X014680Y012740D01*
X014682Y012714D01*
X014687Y012688D01*
X014695Y012663D01*
X014707Y012640D01*
X014721Y012618D01*
X014739Y012599D01*
X014758Y012581D01*
X014780Y012567D01*
X014803Y012555D01*
X014828Y012547D01*
X014854Y012542D01*
X014880Y012540D01*
X014930Y006440D02*
X014430Y006440D01*
X014180Y006190D01*
X013930Y006440D01*
X013430Y006440D01*
X013180Y006190D01*
X012930Y006440D01*
X012430Y006440D01*
X012180Y006190D01*
X011930Y006440D01*
X011430Y006440D01*
X011180Y006190D01*
X010930Y006440D01*
X010430Y006440D01*
X010180Y006190D01*
X009930Y006440D01*
X009430Y006440D01*
X009180Y006190D01*
X008930Y006440D01*
X008430Y006440D01*
X008180Y006190D01*
X007930Y006440D01*
X007430Y006440D01*
X007180Y006190D01*
X006930Y006440D01*
X006430Y006440D01*
X006180Y006190D01*
X005930Y006440D01*
X005430Y006440D01*
X005180Y006190D01*
X004930Y006440D01*
X004430Y006440D01*
X004180Y006190D01*
X003930Y006440D01*
X003430Y006440D01*
X003180Y006190D01*
X002930Y006440D01*
X002430Y006440D01*
X002180Y006190D01*
X001930Y006440D01*
X001430Y006440D01*
X001180Y006190D01*
X001180Y004690D01*
X001430Y004440D01*
X001930Y004440D01*
X002180Y004690D01*
X002430Y004440D01*
X002930Y004440D01*
X003180Y004690D01*
X003430Y004440D01*
X003930Y004440D01*
X004180Y004690D01*
X004430Y004440D01*
X004930Y004440D01*
X005180Y004690D01*
X005430Y004440D01*
X005930Y004440D01*
X006180Y004690D01*
X006430Y004440D01*
X006930Y004440D01*
X007180Y004690D01*
X007430Y004440D01*
X007930Y004440D01*
X008180Y004690D01*
X008430Y004440D01*
X008930Y004440D01*
X009180Y004690D01*
X009430Y004440D01*
X009930Y004440D01*
X010180Y004690D01*
X010430Y004440D01*
X010930Y004440D01*
X011180Y004690D01*
X011430Y004440D01*
X011930Y004440D01*
X012180Y004690D01*
X012430Y004440D01*
X012930Y004440D01*
X013180Y004690D01*
X013430Y004440D01*
X013930Y004440D01*
X014180Y004690D01*
X014430Y004440D01*
X014930Y004440D01*
X015180Y004690D01*
X015430Y004440D01*
X015930Y004440D01*
X016180Y004690D01*
X016430Y004440D01*
X016930Y004440D01*
X017180Y004690D01*
X017430Y004440D01*
X017930Y004440D01*
X018180Y004690D01*
X018430Y004440D01*
X018930Y004440D01*
X019180Y004690D01*
X019430Y004440D01*
X019930Y004440D01*
X020180Y004690D01*
X020430Y004440D01*
X020930Y004440D01*
X021180Y004690D01*
X021430Y004440D01*
X021930Y004440D01*
X022180Y004690D01*
X022430Y004440D01*
X022930Y004440D01*
X023180Y004690D01*
X023430Y004440D01*
X023930Y004440D01*
X024180Y004690D01*
X024430Y004440D01*
X024930Y004440D01*
X025180Y004690D01*
X025430Y004440D01*
X025930Y004440D01*
X026180Y004690D01*
X026430Y004440D01*
X026930Y004440D01*
X027180Y004690D01*
X027430Y004440D01*
X027930Y004440D01*
X028180Y004690D01*
X028430Y004440D01*
X028930Y004440D01*
X029180Y004690D01*
X029430Y004440D01*
X029930Y004440D01*
X030180Y004690D01*
X030430Y004440D01*
X030930Y004440D01*
X031180Y004690D01*
X031430Y004440D01*
X031930Y004440D01*
X032180Y004690D01*
X032180Y006190D01*
X031930Y006440D01*
X031430Y006440D01*
X031180Y006190D01*
X030930Y006440D01*
X030430Y006440D01*
X030180Y006190D01*
X029930Y006440D01*
X029430Y006440D01*
X029180Y006190D01*
X028930Y006440D01*
X028430Y006440D01*
X028180Y006190D01*
X027930Y006440D01*
X027430Y006440D01*
X027180Y006190D01*
X026930Y006440D01*
X026430Y006440D01*
X026180Y006190D01*
X025930Y006440D01*
X025430Y006440D01*
X025180Y006190D01*
X024930Y006440D01*
X024430Y006440D01*
X024180Y006190D01*
X023930Y006440D01*
X023430Y006440D01*
X023180Y006190D01*
X022930Y006440D01*
X022430Y006440D01*
X022180Y006190D01*
X021930Y006440D01*
X021430Y006440D01*
X021180Y006190D01*
X020930Y006440D01*
X020430Y006440D01*
X020180Y006190D01*
X019930Y006440D01*
X019430Y006440D01*
X019180Y006190D01*
X018930Y006440D01*
X018430Y006440D01*
X018180Y006190D01*
X017930Y006440D01*
X017430Y006440D01*
X017180Y006190D01*
X016930Y006440D01*
X016430Y006440D01*
X016180Y006190D01*
X015930Y006440D01*
X015430Y006440D01*
X015180Y006190D01*
X014930Y006440D01*
X002280Y010090D02*
X002280Y011790D01*
X002278Y011807D01*
X002274Y011824D01*
X002267Y011840D01*
X002257Y011854D01*
X002244Y011867D01*
X002230Y011877D01*
X002214Y011884D01*
X002197Y011888D01*
X002180Y011890D01*
X001180Y011890D01*
X001163Y011888D01*
X001146Y011884D01*
X001130Y011877D01*
X001116Y011867D01*
X001103Y011854D01*
X001093Y011840D01*
X001086Y011824D01*
X001082Y011807D01*
X001080Y011790D01*
X001080Y010090D01*
X001082Y010073D01*
X001086Y010056D01*
X001093Y010040D01*
X001103Y010026D01*
X001116Y010013D01*
X001130Y010003D01*
X001146Y009996D01*
X001163Y009992D01*
X001180Y009990D01*
X002180Y009990D01*
X002197Y009992D01*
X002214Y009996D01*
X002230Y010003D01*
X002244Y010013D01*
X002257Y010026D01*
X002267Y010040D01*
X002274Y010056D01*
X002278Y010073D01*
X002280Y010090D01*
X001680Y010790D02*
X001680Y010840D01*
X001680Y011040D02*
X001680Y011090D01*
X000730Y003240D02*
X000730Y002440D01*
X001180Y023490D02*
X002180Y023490D01*
X002197Y023492D01*
X002214Y023496D01*
X002230Y023503D01*
X002244Y023513D01*
X002257Y023526D01*
X002267Y023540D01*
X002274Y023556D01*
X002278Y023573D01*
X002280Y023590D01*
X002280Y025290D01*
X002278Y025307D01*
X002274Y025324D01*
X002267Y025340D01*
X002257Y025354D01*
X002244Y025367D01*
X002230Y025377D01*
X002214Y025384D01*
X002197Y025388D01*
X002180Y025390D01*
X001180Y025390D01*
X001163Y025388D01*
X001146Y025384D01*
X001130Y025377D01*
X001116Y025367D01*
X001103Y025354D01*
X001093Y025340D01*
X001086Y025324D01*
X001082Y025307D01*
X001080Y025290D01*
X001080Y023590D01*
X001082Y023573D01*
X001086Y023556D01*
X001093Y023540D01*
X001103Y023526D01*
X001116Y023513D01*
X001130Y023503D01*
X001146Y023496D01*
X001163Y023492D01*
X001180Y023490D01*
X001680Y024290D02*
X001680Y024340D01*
X001680Y024540D02*
X001680Y024590D01*
X022680Y019490D02*
X022802Y019491D01*
X022923Y019495D01*
X023045Y019503D01*
X023166Y019514D01*
X023287Y019529D01*
X023407Y019548D01*
X023527Y019571D01*
X023645Y019598D01*
X023763Y019628D01*
X023880Y019661D01*
X023996Y019698D01*
X024111Y019739D01*
X024224Y019784D01*
X024336Y019831D01*
X024447Y019883D01*
X024556Y019937D01*
X024663Y019995D01*
X024768Y020056D01*
X024871Y020121D01*
X024972Y020188D01*
X025072Y020259D01*
X025168Y020333D01*
X025263Y020409D01*
X025355Y020489D01*
X025445Y020571D01*
X025532Y020656D01*
X025617Y020744D01*
X025698Y020834D01*
D14*
X031680Y005940D03*
D15*
X035580Y012140D02*
X035580Y012440D01*
X035580Y012740D01*
X035780Y012740D02*
X035780Y012440D01*
X035780Y012140D01*
X031280Y020640D02*
X031280Y020940D01*
X031280Y021240D01*
X031080Y021240D02*
X031080Y020940D01*
X031080Y020640D01*
X035580Y022140D02*
X035580Y022440D01*
X035580Y022740D01*
X035780Y022740D02*
X035780Y022440D01*
X035780Y022140D01*
X026180Y023440D02*
X025680Y023440D01*
X025930Y023690D02*
X025930Y023190D01*
X019180Y023190D02*
X019180Y023690D01*
X018930Y015940D02*
X018930Y015810D01*
X018930Y015690D01*
X018930Y014940D01*
X019430Y014940D01*
X019430Y015690D01*
X019430Y015810D01*
X019430Y015940D01*
X018930Y015940D01*
X018930Y015810D02*
X019430Y015810D01*
X019430Y015690D02*
X018930Y015690D01*
X018430Y015690D02*
X018430Y015810D01*
X018430Y015940D01*
X017930Y015940D01*
X017930Y015810D01*
X017930Y015690D01*
X017930Y014940D01*
X018430Y014940D01*
X018430Y015690D01*
X017930Y015690D01*
X017930Y015810D02*
X018430Y015810D01*
X017430Y015810D02*
X017430Y015690D01*
X016930Y015690D01*
X016930Y014940D01*
X017430Y014940D01*
X017430Y015690D01*
X017430Y015810D02*
X017430Y015940D01*
X016930Y015940D01*
X016930Y015810D01*
X016930Y015690D01*
X016930Y015810D02*
X017430Y015810D01*
X016430Y015810D02*
X016430Y015690D01*
X015930Y015690D01*
X015930Y014940D01*
X016430Y014940D01*
X016430Y015690D01*
X016430Y015810D02*
X016430Y015940D01*
X015930Y015940D01*
X015930Y015810D01*
X015930Y015690D01*
X015930Y015810D02*
X016430Y015810D01*
X015430Y015810D02*
X015430Y015690D01*
X014930Y015690D01*
X014930Y014940D01*
X015430Y014940D01*
X015430Y015690D01*
X015430Y015810D02*
X015430Y015940D01*
X014930Y015940D01*
X014930Y015810D01*
X014930Y015690D01*
X014930Y015810D02*
X015430Y015810D01*
X019930Y015810D02*
X019930Y015690D01*
X019930Y014940D01*
X020430Y014940D01*
X020430Y015690D01*
X020430Y015810D01*
X020430Y015940D01*
X019930Y015940D01*
X019930Y015810D01*
X020430Y015810D01*
X020430Y015690D02*
X019930Y015690D01*
X020930Y015690D02*
X020930Y014940D01*
X021430Y014940D01*
X021430Y015690D01*
X021430Y015810D01*
X021430Y015940D01*
X020930Y015940D01*
X020930Y015810D01*
X020930Y015690D01*
X021430Y015690D01*
X021430Y015810D02*
X020930Y015810D01*
X021930Y015810D02*
X021930Y015690D01*
X021930Y014940D01*
X022430Y014940D01*
X022430Y015690D01*
X022430Y015810D01*
X022430Y015940D01*
X021930Y015940D01*
X021930Y015810D01*
X022430Y015810D01*
X022430Y015690D02*
X021930Y015690D01*
X013480Y011040D02*
X013180Y011040D01*
X012880Y011040D01*
X012880Y010840D02*
X013180Y010840D01*
X013480Y010840D01*
X010430Y014940D02*
X009930Y014940D01*
X009930Y015690D01*
X010430Y015690D01*
X010430Y015810D01*
X010430Y015940D01*
X009930Y015940D01*
X009930Y015810D01*
X009930Y015690D01*
X009930Y015810D02*
X010430Y015810D01*
X010430Y015690D02*
X010430Y014940D01*
X009430Y014940D02*
X009430Y015690D01*
X009430Y015810D01*
X009430Y015940D01*
X008930Y015940D01*
X008930Y015810D01*
X008930Y015690D01*
X008930Y014940D01*
X009430Y014940D01*
X008430Y014940D02*
X008430Y015690D01*
X008430Y015810D01*
X008430Y015940D01*
X007930Y015940D01*
X007930Y015810D01*
X007930Y015690D01*
X007930Y014940D01*
X008430Y014940D01*
X007430Y014940D02*
X007430Y015690D01*
X007430Y015810D01*
X007430Y015940D01*
X006930Y015940D01*
X006930Y015810D01*
X006930Y015690D01*
X006930Y014940D01*
X007430Y014940D01*
X006430Y014940D02*
X006430Y015690D01*
X006430Y015810D01*
X006430Y015940D01*
X005930Y015940D01*
X005930Y015810D01*
X005930Y015690D01*
X005930Y014940D01*
X006430Y014940D01*
X005430Y014940D02*
X005430Y015690D01*
X005430Y015810D01*
X005430Y015940D01*
X004930Y015940D01*
X004930Y015810D01*
X004930Y015690D01*
X004930Y014940D01*
X005430Y014940D01*
X005430Y015690D02*
X004930Y015690D01*
X004930Y015810D02*
X005430Y015810D01*
X005930Y015810D02*
X006430Y015810D01*
X006430Y015690D02*
X005930Y015690D01*
X006930Y015690D02*
X007430Y015690D01*
X007430Y015810D02*
X006930Y015810D01*
X007930Y015810D02*
X008430Y015810D01*
X008430Y015690D02*
X007930Y015690D01*
X008930Y015690D02*
X009430Y015690D01*
X009430Y015810D02*
X008930Y015810D01*
X004430Y015810D02*
X004430Y015690D01*
X003930Y015690D01*
X003930Y014940D01*
X004430Y014940D01*
X004430Y015690D01*
X004430Y015810D02*
X004430Y015940D01*
X003930Y015940D01*
X003930Y015810D01*
X003930Y015690D01*
X003930Y015810D02*
X004430Y015810D01*
X003430Y015810D02*
X003430Y015690D01*
X002930Y015690D01*
X002930Y014940D01*
X003430Y014940D01*
X003430Y015690D01*
X003430Y015810D02*
X003430Y015940D01*
X002930Y015940D01*
X002930Y015810D01*
X002930Y015690D01*
X002930Y015810D02*
X003430Y015810D01*
X001980Y011040D02*
X001680Y011040D01*
X001380Y011040D01*
X001380Y010840D02*
X001680Y010840D01*
X001980Y010840D01*
X001980Y024340D02*
X001680Y024340D01*
X001380Y024340D01*
X001380Y024540D02*
X001680Y024540D01*
X001980Y024540D01*
D16*
X011335Y016635D02*
X011785Y016635D01*
X011785Y016485D02*
X011785Y016785D01*
X011485Y016485D02*
X011335Y016635D01*
X011410Y016324D02*
X011335Y016249D01*
X011335Y016099D01*
X011410Y016024D01*
X011485Y016024D01*
X011560Y016099D01*
X011560Y016249D01*
X011635Y016324D01*
X011710Y016324D01*
X011785Y016249D01*
X011785Y016099D01*
X011710Y016024D01*
X011859Y013115D02*
X011859Y012775D01*
X011746Y012775D02*
X011973Y012775D01*
X011746Y013002D02*
X011859Y013115D01*
X011395Y012415D02*
X011395Y011965D01*
X011245Y011965D02*
X011545Y011965D01*
X011245Y012265D02*
X011395Y012415D01*
X011084Y012415D02*
X011084Y011965D01*
X010784Y012415D01*
X010784Y011965D01*
X010624Y011965D02*
X010474Y012115D01*
X010549Y012115D02*
X010324Y012115D01*
X010324Y011965D02*
X010324Y012415D01*
X010549Y012415D01*
X010624Y012340D01*
X010624Y012190D01*
X010549Y012115D01*
X022324Y012115D02*
X022549Y012115D01*
X022624Y012190D01*
X022624Y012340D01*
X022549Y012415D01*
X022324Y012415D01*
X022324Y011965D01*
X022474Y012115D02*
X022624Y011965D01*
X022784Y011965D02*
X022784Y012415D01*
X023084Y011965D01*
X023084Y012415D01*
X023245Y012340D02*
X023320Y012415D01*
X023470Y012415D01*
X023545Y012340D01*
X023545Y012265D01*
X023245Y011965D01*
X023545Y011965D01*
X023746Y012775D02*
X023973Y012775D01*
X023859Y012775D02*
X023859Y013115D01*
X023746Y013002D01*
X023710Y016024D02*
X023785Y016099D01*
X023785Y016249D01*
X023710Y016324D01*
X023635Y016324D01*
X023560Y016249D01*
X023560Y016099D01*
X023485Y016024D01*
X023410Y016024D01*
X023335Y016099D01*
X023335Y016249D01*
X023410Y016324D01*
X023410Y016485D02*
X023335Y016560D01*
X023335Y016710D01*
X023410Y016785D01*
X023485Y016785D01*
X023785Y016485D01*
X023785Y016785D01*
X023745Y017415D02*
X023445Y017415D01*
X023595Y017415D02*
X023595Y017865D01*
X023445Y017715D01*
X023284Y017790D02*
X023284Y017490D01*
X023209Y017415D01*
X023059Y017415D01*
X022984Y017490D01*
X022984Y017790D01*
X023059Y017865D01*
X023209Y017865D01*
X023284Y017790D01*
X023134Y017565D02*
X023284Y017415D01*
X021155Y022390D02*
X020705Y022390D01*
X021155Y022390D02*
X021155Y022690D01*
X021155Y022850D02*
X021155Y023000D01*
X021155Y022925D02*
X020855Y022925D01*
X020855Y022850D01*
X020705Y022925D02*
X020630Y022925D01*
X020855Y023157D02*
X020855Y023307D01*
X020780Y023232D02*
X021080Y023232D01*
X021155Y023307D01*
X021155Y023464D02*
X021155Y023539D01*
X021080Y023539D01*
X021080Y023464D01*
X021155Y023464D01*
X021080Y023694D02*
X021155Y023769D01*
X021155Y023919D01*
X021080Y023994D01*
X021005Y023994D01*
X020930Y023919D01*
X020930Y023844D01*
X020930Y023919D02*
X020855Y023994D01*
X020780Y023994D01*
X020705Y023919D01*
X020705Y023769D01*
X020780Y023694D01*
X020705Y024155D02*
X021005Y024155D01*
X021155Y024305D01*
X021005Y024455D01*
X020705Y024455D01*
X027205Y024155D02*
X027655Y024155D01*
X027655Y024005D02*
X027655Y024305D01*
X027355Y024005D02*
X027205Y024155D01*
X027280Y023844D02*
X027205Y023769D01*
X027205Y023619D01*
X027280Y023544D01*
X027580Y023544D01*
X027655Y023619D01*
X027655Y023769D01*
X027580Y023844D01*
X027430Y023844D01*
X027430Y023694D01*
X030324Y024390D02*
X030399Y024315D01*
X030474Y024315D01*
X030549Y024390D01*
X030549Y024765D01*
X030474Y024765D02*
X030624Y024765D01*
X030784Y024765D02*
X030784Y024315D01*
X030784Y024465D02*
X031009Y024465D01*
X031084Y024540D01*
X031084Y024690D01*
X031009Y024765D01*
X030784Y024765D01*
X031245Y024690D02*
X031320Y024765D01*
X031470Y024765D01*
X031545Y024690D01*
X031545Y024615D01*
X031245Y024315D01*
X031545Y024315D01*
X033324Y024390D02*
X033399Y024315D01*
X033549Y024315D01*
X033624Y024390D01*
X033624Y024465D01*
X033549Y024540D01*
X033399Y024540D01*
X033324Y024615D01*
X033324Y024690D01*
X033399Y024765D01*
X033549Y024765D01*
X033624Y024690D01*
X033784Y024765D02*
X033784Y024465D01*
X033934Y024315D01*
X034084Y024465D01*
X034084Y024765D01*
X034245Y024690D02*
X034320Y024765D01*
X034470Y024765D01*
X034545Y024690D01*
X034545Y024615D01*
X034245Y024315D01*
X034545Y024315D01*
X035759Y021665D02*
X035684Y021590D01*
X035684Y021290D01*
X035759Y021215D01*
X035909Y021215D01*
X035984Y021290D01*
X036145Y021215D02*
X036445Y021215D01*
X036295Y021215D02*
X036295Y021665D01*
X036145Y021515D01*
X035984Y021590D02*
X035909Y021665D01*
X035759Y021665D01*
X031870Y020165D02*
X031870Y019715D01*
X031945Y019940D02*
X031645Y019940D01*
X031870Y020165D01*
X031484Y020090D02*
X031409Y020165D01*
X031259Y020165D01*
X031184Y020090D01*
X031184Y019790D01*
X031259Y019715D01*
X031409Y019715D01*
X031484Y019790D01*
X034555Y016308D02*
X034780Y016082D01*
X034780Y016383D01*
X035005Y016308D02*
X034555Y016308D01*
X034630Y015922D02*
X034555Y015847D01*
X034555Y015697D01*
X034630Y015622D01*
X034930Y015622D01*
X035005Y015697D01*
X035005Y015847D01*
X034930Y015922D01*
X035005Y015465D02*
X035005Y015315D01*
X035005Y015390D02*
X034555Y015390D01*
X034555Y015315D02*
X034555Y015465D01*
X039355Y011065D02*
X039430Y010915D01*
X039580Y010765D01*
X039580Y010990D01*
X039655Y011065D01*
X039730Y011065D01*
X039805Y010990D01*
X039805Y010840D01*
X039730Y010765D01*
X039580Y010765D01*
X039580Y010065D02*
X039730Y010065D01*
X039805Y009990D01*
X039805Y009840D01*
X039730Y009765D01*
X039580Y009765D02*
X039505Y009915D01*
X039505Y009990D01*
X039580Y010065D01*
X039355Y010065D02*
X039355Y009765D01*
X039580Y009765D01*
X039580Y009065D02*
X039580Y008765D01*
X039355Y008990D01*
X039805Y008990D01*
X039730Y008065D02*
X039805Y007990D01*
X039805Y007840D01*
X039730Y007765D01*
X039580Y007915D02*
X039580Y007990D01*
X039655Y008065D01*
X039730Y008065D01*
X039580Y007990D02*
X039505Y008065D01*
X039430Y008065D01*
X039355Y007990D01*
X039355Y007840D01*
X039430Y007765D01*
X039430Y007065D02*
X039355Y006990D01*
X039355Y006840D01*
X039430Y006765D01*
X039430Y007065D02*
X039505Y007065D01*
X039805Y006765D01*
X039805Y007065D01*
X039805Y006065D02*
X039805Y005765D01*
X039805Y005915D02*
X039355Y005915D01*
X039505Y005765D01*
X038395Y005215D02*
X038395Y004765D01*
X038245Y004765D02*
X038545Y004765D01*
X038245Y005065D02*
X038395Y005215D01*
X038084Y005140D02*
X038084Y004990D01*
X038009Y004915D01*
X037784Y004915D01*
X037784Y004765D02*
X037784Y005215D01*
X038009Y005215D01*
X038084Y005140D01*
X037624Y005215D02*
X037474Y005215D01*
X037549Y005215D02*
X037549Y004840D01*
X037474Y004765D01*
X037399Y004765D01*
X037324Y004840D01*
X035005Y005765D02*
X035005Y005915D01*
X035005Y005840D02*
X034555Y005840D01*
X034555Y005765D02*
X034555Y005915D01*
X034630Y006072D02*
X034930Y006072D01*
X035005Y006147D01*
X035005Y006297D01*
X034930Y006372D01*
X035005Y006532D02*
X034705Y006833D01*
X034630Y006833D01*
X034555Y006758D01*
X034555Y006607D01*
X034630Y006532D01*
X034630Y006372D02*
X034555Y006297D01*
X034555Y006147D01*
X034630Y006072D01*
X035005Y006532D02*
X035005Y006833D01*
D17*
X027070Y020020D02*
X027070Y020861D01*
X027175Y020756D02*
X027280Y020650D01*
X027175Y020756D02*
X026965Y020756D01*
X026860Y020650D01*
X026860Y020545D01*
X026965Y020440D01*
X027175Y020440D01*
X027280Y020335D01*
X027280Y020230D01*
X027175Y020125D01*
X026965Y020125D01*
X026860Y020230D01*
X026635Y020230D02*
X026635Y020756D01*
X026215Y020756D02*
X026215Y020230D01*
X026320Y020125D01*
X026530Y020125D01*
X026635Y020230D01*
X027504Y020125D02*
X027924Y020125D01*
X027714Y020125D02*
X027714Y020756D01*
X027504Y020545D01*
D18*
X024380Y018640D02*
X024230Y018640D01*
X024180Y018240D02*
X024380Y018240D01*
D19*
X024165Y018240D03*
X024165Y018640D03*
D20*
X033605Y023440D03*
X035755Y023440D03*
M02*
