G75*
%MOIN*%
%OFA0B0*%
%FSLAX24Y24*%
%IPPOS*%
%LPD*%
%AMOC8*
5,1,8,0,0,1.08239X$1,22.5*
%
%ADD10R,0.0600X0.2550*%
%ADD11OC8,0.0600*%
%ADD12C,0.0520*%
%ADD13C,0.0560*%
%ADD14OC8,0.1000*%
%ADD15C,0.0520*%
%ADD16R,0.0740X0.0740*%
%ADD17C,0.0740*%
%ADD18C,0.2000*%
%ADD19OC8,0.0520*%
%ADD20OC8,0.0560*%
%ADD21C,0.0100*%
%ADD22C,0.0400*%
%ADD23C,0.0200*%
%ADD24C,0.0160*%
D10*
X001680Y001940D03*
X002680Y001940D03*
X003680Y001940D03*
X004680Y001940D03*
X005680Y001940D03*
X006680Y001940D03*
X007680Y001940D03*
X008680Y001940D03*
X009680Y001940D03*
X010680Y001940D03*
X011680Y001940D03*
X012680Y001940D03*
X013680Y001940D03*
X014680Y001940D03*
X015680Y001940D03*
X016680Y001940D03*
X017680Y001940D03*
X018680Y001940D03*
X019680Y001940D03*
X020680Y001940D03*
X021680Y001940D03*
X022680Y001940D03*
X023680Y001940D03*
X024680Y001940D03*
X025680Y001940D03*
X026680Y001940D03*
X027680Y001940D03*
X028680Y001940D03*
X029680Y001940D03*
X030680Y001940D03*
X031680Y001940D03*
D11*
X031680Y004940D03*
X030680Y004940D03*
X029680Y004940D03*
X028680Y004940D03*
X027680Y004940D03*
X026680Y004940D03*
X025680Y004940D03*
X024680Y004940D03*
X023680Y004940D03*
X022680Y004940D03*
X021680Y004940D03*
X020680Y004940D03*
X019680Y004940D03*
X018680Y004940D03*
X017680Y004940D03*
X016680Y004940D03*
X015680Y004940D03*
X014680Y004940D03*
X013680Y004940D03*
X012680Y004940D03*
X011680Y004940D03*
X010680Y004940D03*
X009680Y004940D03*
X008680Y004940D03*
X007680Y004940D03*
X006680Y004940D03*
X005680Y004940D03*
X004680Y004940D03*
X003680Y004940D03*
X002680Y004940D03*
X001680Y004940D03*
X001680Y005940D03*
X002680Y005940D03*
X003680Y005940D03*
X004680Y005940D03*
X005680Y005940D03*
X006680Y005940D03*
X007680Y005940D03*
X008680Y005940D03*
X009680Y005940D03*
X010680Y005940D03*
X011680Y005940D03*
X012680Y005940D03*
X013680Y005940D03*
X014680Y005940D03*
X015680Y005940D03*
X016680Y005940D03*
X017680Y005940D03*
X018680Y005940D03*
X019680Y005940D03*
X020680Y005940D03*
X021680Y005940D03*
X022680Y005940D03*
X023680Y005940D03*
X024680Y005940D03*
X025680Y005940D03*
X026680Y005940D03*
X027680Y005940D03*
X028680Y005940D03*
X029680Y005940D03*
X030680Y005940D03*
X031680Y005940D03*
D12*
X032920Y005440D02*
X033440Y005440D01*
X033440Y006440D02*
X032920Y006440D01*
X032920Y007440D02*
X033440Y007440D01*
X033440Y008440D02*
X032920Y008440D01*
X031940Y008440D02*
X031420Y008440D01*
X031420Y009440D02*
X031940Y009440D01*
X032920Y009440D02*
X033440Y009440D01*
X033440Y010440D02*
X032920Y010440D01*
X031940Y010440D02*
X031420Y010440D01*
X031420Y011440D02*
X031940Y011440D01*
X032920Y011440D02*
X033440Y011440D01*
X031940Y012440D02*
X031420Y012440D01*
X031420Y013440D02*
X031940Y013440D01*
X031940Y014440D02*
X031420Y014440D01*
X031420Y015440D02*
X031940Y015440D01*
X032920Y015440D02*
X033440Y015440D01*
X033440Y016440D02*
X032920Y016440D01*
X031940Y016440D02*
X031420Y016440D01*
X031420Y017440D02*
X031940Y017440D01*
X032920Y017440D02*
X033440Y017440D01*
X033440Y018440D02*
X032920Y018440D01*
X031940Y018440D02*
X031420Y018440D01*
X031420Y019440D02*
X031940Y019440D01*
X032920Y019440D02*
X033440Y019440D01*
X033440Y020440D02*
X032920Y020440D01*
X032920Y021440D02*
X033440Y021440D01*
X035920Y021440D02*
X036440Y021440D01*
X036440Y020440D02*
X035920Y020440D01*
X035920Y019440D02*
X036440Y019440D01*
X036440Y018440D02*
X035920Y018440D01*
X035920Y017440D02*
X036440Y017440D01*
X036440Y016440D02*
X035920Y016440D01*
X035920Y015440D02*
X036440Y015440D01*
X036440Y014440D02*
X035920Y014440D01*
X033440Y014440D02*
X032920Y014440D01*
X035920Y011440D02*
X036440Y011440D01*
X036440Y010440D02*
X035920Y010440D01*
X035920Y009440D02*
X036440Y009440D01*
X036440Y008440D02*
X035920Y008440D01*
X035920Y007440D02*
X036440Y007440D01*
X036440Y006440D02*
X035920Y006440D01*
X035920Y005440D02*
X036440Y005440D01*
X025940Y008440D02*
X025420Y008440D01*
X025420Y009440D02*
X025940Y009440D01*
X025940Y010440D02*
X025420Y010440D01*
X025420Y011440D02*
X025940Y011440D01*
X025940Y012440D02*
X025420Y012440D01*
X025420Y013440D02*
X025940Y013440D01*
X025940Y014440D02*
X025420Y014440D01*
X025420Y015440D02*
X025940Y015440D01*
X025940Y016440D02*
X025420Y016440D01*
X025420Y017440D02*
X025940Y017440D01*
X025940Y018440D02*
X025420Y018440D01*
X025420Y019440D02*
X025940Y019440D01*
X022180Y017200D02*
X022180Y016680D01*
X021180Y016680D02*
X021180Y017200D01*
X020180Y017200D02*
X020180Y016680D01*
X019180Y016680D02*
X019180Y017200D01*
X018180Y017200D02*
X018180Y016680D01*
X017180Y016680D02*
X017180Y017200D01*
X016180Y017200D02*
X016180Y016680D01*
X015180Y016680D02*
X015180Y017200D01*
X014680Y018680D02*
X014680Y019200D01*
X013680Y019200D02*
X013680Y018680D01*
X012680Y018680D02*
X012680Y019200D01*
X011680Y019200D02*
X011680Y018680D01*
X010680Y018680D02*
X010680Y019200D01*
X009680Y019200D02*
X009680Y018680D01*
X008680Y018680D02*
X008680Y019200D01*
X007680Y019200D02*
X007680Y018680D01*
X006680Y018680D02*
X006680Y019200D01*
X005680Y019200D02*
X005680Y018680D01*
X004680Y018680D02*
X004680Y019200D01*
X003680Y019200D02*
X003680Y018680D01*
X002680Y018680D02*
X002680Y019200D01*
X003180Y017200D02*
X003180Y016680D01*
X004180Y016680D02*
X004180Y017200D01*
X005180Y017200D02*
X005180Y016680D01*
X006180Y016680D02*
X006180Y017200D01*
X007180Y017200D02*
X007180Y016680D01*
X008180Y016680D02*
X008180Y017200D01*
X009180Y017200D02*
X009180Y016680D01*
X010180Y016680D02*
X010180Y017200D01*
X010180Y014200D02*
X010180Y013680D01*
X010180Y013200D02*
X010180Y012680D01*
X009180Y012680D02*
X009180Y013200D01*
X009180Y013680D02*
X009180Y014200D01*
X008180Y014200D02*
X008180Y013680D01*
X008180Y013200D02*
X008180Y012680D01*
X007180Y012680D02*
X007180Y013200D01*
X007180Y013680D02*
X007180Y014200D01*
X006180Y014200D02*
X006180Y013680D01*
X006180Y013200D02*
X006180Y012680D01*
X005180Y012680D02*
X005180Y013200D01*
X005180Y013680D02*
X005180Y014200D01*
X004180Y014200D02*
X004180Y013680D01*
X004180Y013200D02*
X004180Y012680D01*
X003180Y012680D02*
X003180Y013200D01*
X003180Y013680D02*
X003180Y014200D01*
X002680Y011700D02*
X002680Y011180D01*
X003680Y011180D02*
X003680Y011700D01*
X004680Y011700D02*
X004680Y011180D01*
X005680Y011180D02*
X005680Y011700D01*
X006680Y011700D02*
X006680Y011180D01*
X007680Y011180D02*
X007680Y011700D01*
X008680Y011700D02*
X008680Y011180D01*
X009680Y011180D02*
X009680Y011700D01*
X010680Y011700D02*
X010680Y011180D01*
X011680Y011180D02*
X011680Y011700D01*
X011180Y012680D02*
X011180Y013200D01*
X014180Y011700D02*
X014180Y011180D01*
X015180Y011180D02*
X015180Y011700D01*
X016180Y011700D02*
X016180Y011180D01*
X017180Y011180D02*
X017180Y011700D01*
X018180Y011700D02*
X018180Y011180D01*
X019180Y011180D02*
X019180Y011700D01*
X020180Y011700D02*
X020180Y011180D01*
X021180Y011180D02*
X021180Y011700D01*
X022180Y011700D02*
X022180Y011180D01*
X023180Y011180D02*
X023180Y011700D01*
X023180Y012680D02*
X023180Y013200D01*
X022180Y013200D02*
X022180Y012680D01*
X021180Y012680D02*
X021180Y013200D01*
X021180Y013680D02*
X021180Y014200D01*
X022180Y014200D02*
X022180Y013680D01*
X020180Y013680D02*
X020180Y014200D01*
X019180Y014200D02*
X019180Y013680D01*
X019180Y013200D02*
X019180Y012680D01*
X018180Y012680D02*
X018180Y013200D01*
X018180Y013680D02*
X018180Y014200D01*
X017180Y014200D02*
X017180Y013680D01*
X017180Y013200D02*
X017180Y012680D01*
X016180Y012680D02*
X016180Y013200D01*
X016180Y013680D02*
X016180Y014200D01*
X015180Y014200D02*
X015180Y013680D01*
X015180Y013200D02*
X015180Y012680D01*
X020180Y012680D02*
X020180Y013200D01*
X020180Y008700D02*
X020180Y008180D01*
X019180Y008180D02*
X019180Y008700D01*
X018180Y008700D02*
X018180Y008180D01*
X017180Y008180D02*
X017180Y008700D01*
X016180Y008700D02*
X016180Y008180D01*
X015180Y008180D02*
X015180Y008700D01*
X014180Y008700D02*
X014180Y008180D01*
X011680Y008180D02*
X011680Y008700D01*
X010680Y008700D02*
X010680Y008180D01*
X009680Y008180D02*
X009680Y008700D01*
X008680Y008700D02*
X008680Y008180D01*
X007680Y008180D02*
X007680Y008700D01*
X006680Y008700D02*
X006680Y008180D01*
X005680Y008180D02*
X005680Y008700D01*
X004680Y008700D02*
X004680Y008180D01*
X003680Y008180D02*
X003680Y008700D01*
X002680Y008700D02*
X002680Y008180D01*
X015680Y018680D02*
X015680Y019200D01*
X016680Y019200D02*
X016680Y018680D01*
X017680Y018680D02*
X017680Y019200D01*
X017680Y024680D02*
X017680Y025200D01*
X016680Y025200D02*
X016680Y024680D01*
X015680Y024680D02*
X015680Y025200D01*
X014680Y025200D02*
X014680Y024680D01*
X013680Y024680D02*
X013680Y025200D01*
X012680Y025200D02*
X012680Y024680D01*
X011680Y024680D02*
X011680Y025200D01*
X010680Y025200D02*
X010680Y024680D01*
X009680Y024680D02*
X009680Y025200D01*
X008680Y025200D02*
X008680Y024680D01*
X007680Y024680D02*
X007680Y025200D01*
X006680Y025200D02*
X006680Y024680D01*
X005680Y024680D02*
X005680Y025200D01*
X004680Y025200D02*
X004680Y024680D01*
X003680Y024680D02*
X003680Y025200D01*
X002680Y025200D02*
X002680Y024680D01*
X021180Y008700D02*
X021180Y008180D01*
X022180Y008180D02*
X022180Y008700D01*
X023180Y008700D02*
X023180Y008180D01*
D13*
X030180Y025160D02*
X030180Y025720D01*
X031180Y025720D02*
X031180Y025160D01*
X033180Y025160D02*
X033180Y025720D01*
X034180Y025720D02*
X034180Y025160D01*
D14*
X026930Y025440D03*
X026930Y021440D03*
X019930Y023440D03*
D15*
X024680Y018940D03*
X024680Y017940D03*
D16*
X038121Y021621D03*
D17*
X039239Y021074D03*
X038121Y020531D03*
X039239Y019983D03*
X038121Y019440D03*
X039239Y018897D03*
X038121Y018349D03*
X039239Y017806D03*
X038121Y017259D03*
D18*
X038680Y014519D03*
X038680Y024361D03*
D19*
X036180Y023440D03*
X036180Y022440D03*
X035180Y022440D03*
X033180Y023440D03*
X031680Y020940D03*
X030680Y020940D03*
X035180Y012440D03*
X036180Y012440D03*
X013180Y011440D03*
X013180Y010440D03*
X001680Y010440D03*
X001680Y011440D03*
X001680Y023940D03*
X001680Y024940D03*
D20*
X037680Y010940D03*
X038680Y010940D03*
X038680Y009940D03*
X037680Y009940D03*
X037680Y008940D03*
X038680Y008940D03*
X038680Y007940D03*
X037680Y007940D03*
X037680Y006940D03*
X038680Y006940D03*
X038680Y005940D03*
X037680Y005940D03*
D21*
X035680Y003940D01*
X008680Y003940D01*
X007680Y004940D01*
X007680Y001940D01*
X008680Y001940D02*
X008680Y003565D01*
X008805Y003565D01*
X009680Y003565D02*
X010055Y003565D01*
X009680Y003565D02*
X009680Y001940D01*
X010680Y001940D02*
X010680Y003565D01*
X010805Y003565D01*
X011680Y003565D02*
X011805Y003565D01*
X011680Y003565D02*
X011680Y001940D01*
X012680Y001940D02*
X012805Y001940D01*
X012805Y003565D01*
X013805Y003565D02*
X013805Y001940D01*
X013680Y001940D01*
X014680Y001940D02*
X014805Y001940D01*
X014805Y003565D01*
X015680Y003565D02*
X015680Y001940D01*
X016680Y001940D02*
X016805Y001940D01*
X016805Y003565D01*
X017805Y003565D02*
X017805Y001940D01*
X017680Y001940D01*
X018680Y001940D02*
X018680Y003565D01*
X018805Y003565D01*
X019680Y003565D02*
X019805Y003565D01*
X019680Y003565D02*
X019680Y001940D01*
X020680Y001940D02*
X020680Y003565D01*
X020805Y003565D01*
X021680Y003565D02*
X021805Y003565D01*
X021680Y003565D02*
X021680Y001940D01*
X023680Y001940D02*
X023805Y001940D01*
X023805Y003565D01*
X024680Y003565D02*
X024680Y001940D01*
X025680Y001940D02*
X025805Y001940D01*
X025805Y003565D01*
X026680Y003565D02*
X026680Y001940D01*
X027680Y001940D02*
X027805Y001940D01*
X027805Y003565D01*
X028680Y003565D02*
X028805Y003565D01*
X028680Y003565D02*
X028680Y001940D01*
X030680Y001940D02*
X030805Y001940D01*
X030805Y003565D01*
X033055Y004440D02*
X010180Y004440D01*
X009680Y004940D01*
X010055Y005440D02*
X007180Y005440D01*
X006680Y005940D01*
X007180Y006315D02*
X007305Y006440D01*
X010180Y006440D01*
X010680Y005940D01*
X011180Y006065D02*
X011180Y004940D01*
X010680Y004940D01*
X010055Y005440D02*
X010180Y005565D01*
X011180Y006065D02*
X011805Y006690D01*
X031555Y006690D01*
X032305Y005940D01*
X033555Y005940D01*
X035555Y007940D01*
X036680Y007940D01*
X037680Y008940D01*
X036680Y008940D02*
X035555Y008940D01*
X033555Y006940D01*
X014430Y006940D01*
X013930Y007440D01*
X012555Y007440D01*
X012430Y007065D02*
X012180Y007315D01*
X003805Y007315D01*
X002680Y008440D01*
X002180Y008815D02*
X002180Y005940D01*
X002680Y005940D01*
X001680Y005940D02*
X001680Y009940D01*
X001555Y009940D01*
X001180Y010315D01*
X001180Y014690D01*
X002055Y014690D01*
X002680Y014315D02*
X002680Y012190D01*
X002805Y012190D01*
X003180Y011815D01*
X003180Y009190D01*
X002555Y009190D01*
X002180Y008815D01*
X002680Y007565D02*
X003805Y006440D01*
X006180Y006440D01*
X006430Y006690D01*
X007305Y006690D01*
X007555Y006940D01*
X008305Y006940D02*
X008930Y006940D01*
X009055Y006815D01*
X009680Y008440D02*
X010430Y009190D01*
X011055Y009190D01*
X012805Y010940D01*
X011805Y010690D02*
X013305Y012190D01*
X013680Y012190D01*
X013055Y013565D02*
X015180Y011440D01*
X015680Y010815D02*
X015680Y014315D01*
X016055Y014690D01*
X023930Y014690D01*
X023930Y012190D01*
X023180Y011440D01*
X022180Y011440D02*
X021430Y012190D01*
X018930Y012190D01*
X018180Y012940D01*
X017430Y012190D02*
X016930Y012190D01*
X016180Y012940D01*
X017430Y012190D02*
X018180Y011440D01*
X018680Y010315D02*
X016430Y010315D01*
X016180Y010065D01*
X014430Y010065D01*
X013430Y009065D01*
X013305Y008690D02*
X012805Y009190D01*
X011430Y009190D01*
X010680Y008440D01*
X012180Y007815D02*
X013930Y007815D01*
X014055Y007690D01*
X017430Y007690D01*
X017930Y007190D01*
X018430Y007190D01*
X018555Y007315D01*
X018180Y007690D02*
X018055Y007565D01*
X018180Y007690D02*
X020430Y007690D01*
X021180Y008440D01*
X021180Y009315D02*
X019805Y009315D01*
X019555Y009565D02*
X019680Y009690D01*
X023805Y009690D01*
X024555Y008940D01*
X025680Y009440D02*
X026180Y008940D01*
X028555Y008940D01*
X028555Y009690D01*
X028180Y009315D02*
X027805Y009315D01*
X025680Y011440D01*
X025680Y013440D02*
X027680Y011440D01*
X029555Y010940D02*
X037680Y010940D01*
X038180Y010815D02*
X038180Y013315D01*
X037180Y014315D01*
X037180Y022940D01*
X021430Y022940D01*
X020180Y024190D01*
X013430Y024190D01*
X012680Y024940D01*
X015680Y024940D02*
X016430Y025690D01*
X019055Y025690D01*
X019930Y024815D01*
X019305Y025940D02*
X021930Y023315D01*
X020805Y020815D02*
X019430Y022190D01*
X020805Y020815D02*
X025180Y020815D01*
X026055Y019940D02*
X030305Y015690D01*
X031680Y015440D02*
X027305Y019815D01*
X026055Y019940D02*
X017180Y019940D01*
X017055Y019815D01*
X017430Y019690D02*
X024555Y019690D01*
X025305Y018940D01*
X026305Y018940D01*
X025680Y018440D02*
X025180Y018440D01*
X024680Y018940D01*
X024680Y017940D02*
X025180Y017440D01*
X025680Y017440D01*
X025680Y016440D02*
X025430Y016190D01*
X022430Y016190D01*
X023555Y015065D01*
X023555Y015565D02*
X025680Y013440D01*
X022430Y016190D02*
X014805Y016190D01*
X014680Y016315D01*
X013430Y017440D02*
X012680Y018190D01*
X009430Y018190D01*
X008680Y018940D01*
X008930Y019690D02*
X009680Y018940D01*
X008930Y019690D02*
X004555Y019690D01*
X004305Y019440D01*
X004055Y019440D01*
X003805Y019690D01*
X001930Y019690D01*
X002680Y020065D02*
X002805Y020190D01*
X012430Y020190D01*
X013680Y018940D01*
X014930Y020190D01*
X030055Y020190D01*
X031305Y018940D01*
X032680Y018940D01*
X033180Y019440D01*
X035180Y019440D01*
X036180Y018440D01*
X036180Y020440D02*
X036930Y021190D01*
X036930Y021940D01*
X033680Y021940D01*
X033180Y021440D01*
X031555Y021440D01*
X031430Y021315D01*
X031180Y021315D01*
X031180Y020815D01*
X030805Y020440D01*
X014680Y020440D01*
X014180Y019940D01*
X015055Y020690D02*
X007805Y020690D01*
X010680Y019940D02*
X004305Y019940D01*
X004180Y019815D01*
X006680Y018940D02*
X007805Y017815D01*
X009180Y017815D01*
X010180Y017815D02*
X010555Y017440D01*
X012305Y017440D01*
X012680Y016440D02*
X012430Y016190D01*
X005930Y016190D01*
X005805Y016315D01*
X005430Y016315D01*
X004930Y015815D01*
X003305Y015815D01*
X002430Y015440D02*
X010055Y015440D01*
X010180Y015565D01*
X010805Y015315D02*
X011305Y014815D01*
X011305Y013690D01*
X011055Y013690D01*
X010680Y013315D01*
X010680Y012190D01*
X010430Y012190D01*
X009680Y011440D01*
X009180Y012065D02*
X008305Y012940D01*
X008180Y012940D01*
X007930Y012190D02*
X005930Y012190D01*
X005180Y012940D01*
X004930Y012190D02*
X005680Y011440D01*
X004680Y011440D02*
X003180Y012940D01*
X004680Y012190D02*
X004930Y012190D01*
X004680Y012190D02*
X004680Y014315D01*
X003930Y015065D01*
X001180Y015065D01*
X001180Y024065D01*
X001555Y024440D01*
X001805Y024440D01*
X002055Y024190D01*
X007930Y024190D01*
X008680Y024940D01*
X004680Y025940D02*
X019305Y025940D01*
X015180Y020815D02*
X015055Y020690D01*
X016680Y018940D02*
X017430Y019690D01*
X015680Y018940D02*
X016930Y017690D01*
X024055Y017690D01*
X024305Y017440D01*
X017930Y015065D02*
X017055Y015940D01*
X005680Y015940D01*
X006055Y014940D02*
X010805Y014940D01*
X011055Y014690D01*
X011055Y013940D01*
X010180Y013940D01*
X010680Y014565D02*
X010555Y014690D01*
X006930Y014690D01*
X006180Y013940D01*
X005680Y014565D02*
X006055Y014940D01*
X002805Y014690D02*
X002805Y014440D01*
X002680Y014315D01*
X003680Y011440D02*
X004430Y010690D01*
X011805Y010690D01*
X011555Y010315D02*
X007180Y010315D01*
X008180Y009940D02*
X009805Y009940D01*
X008180Y009940D02*
X006680Y008440D01*
X005680Y008440D02*
X003805Y010315D01*
X007930Y012190D02*
X008680Y011440D01*
X013305Y008690D02*
X013555Y008690D01*
X014555Y009690D01*
X015180Y009565D02*
X019555Y009565D01*
X020305Y009940D02*
X018305Y009940D01*
X020305Y009940D02*
X020555Y010190D01*
X021430Y010190D02*
X021680Y009940D01*
X026305Y009940D01*
X028555Y008940D02*
X030930Y008940D01*
X031680Y009440D02*
X032680Y010440D01*
X033180Y010440D01*
X033555Y008940D02*
X034680Y010065D01*
X035680Y009940D02*
X037055Y009940D01*
X037555Y010440D01*
X037805Y010440D01*
X038180Y010815D01*
X037680Y009940D02*
X036680Y008940D01*
X035680Y009940D02*
X033180Y007440D01*
X032430Y007690D02*
X024305Y007690D01*
X024055Y007440D01*
X022055Y007440D01*
X021930Y007565D01*
X022680Y007815D02*
X022805Y007690D01*
X023805Y007690D01*
X023930Y007815D01*
X025055Y006440D02*
X022180Y006440D01*
X021680Y005940D01*
X021180Y006315D02*
X021055Y006440D01*
X020305Y006440D01*
X020180Y006315D01*
X020055Y005940D02*
X019680Y005940D01*
X020055Y005940D02*
X020555Y005440D01*
X026055Y005440D01*
X026180Y005565D01*
X026680Y005940D02*
X027180Y005440D01*
X028055Y005440D01*
X027180Y006315D02*
X027305Y006440D01*
X029180Y006440D01*
X029680Y005940D01*
X029430Y007190D02*
X020555Y007190D01*
X020430Y007315D01*
X019180Y006065D02*
X019180Y005440D01*
X020180Y005440D01*
X020680Y004940D01*
X018680Y005940D02*
X018180Y005440D01*
X016305Y005440D01*
X016180Y005565D01*
X015680Y005940D02*
X016180Y006440D01*
X017055Y006440D01*
X017180Y006315D01*
X018180Y006315D02*
X018305Y006440D01*
X018805Y006440D01*
X019180Y006065D01*
X015180Y009565D02*
X014680Y009065D01*
X013805Y007065D02*
X012430Y007065D01*
X009430Y004190D02*
X008680Y004940D01*
X009430Y004190D02*
X033180Y004190D01*
X034930Y005940D01*
X036680Y005940D01*
X037680Y006940D01*
X036680Y006940D02*
X035555Y006940D01*
X033055Y004440D01*
X036680Y006940D02*
X037680Y007940D01*
X033555Y008940D02*
X032805Y008940D01*
X032430Y008565D01*
X032430Y007690D01*
X029555Y007315D02*
X029430Y007190D01*
X025180Y006315D02*
X025055Y006440D01*
X033180Y011440D02*
X033680Y011940D01*
X035555Y011940D01*
X035680Y012065D01*
X036180Y012940D02*
X036930Y013690D01*
X036930Y015440D01*
X036180Y015440D01*
X033930Y013940D02*
X032180Y013940D01*
X031680Y014440D01*
X030930Y012940D02*
X036180Y012940D01*
X030930Y012940D02*
X030930Y012065D01*
X031055Y019940D02*
X032680Y019940D01*
X033180Y020440D01*
X011680Y018940D02*
X010680Y019940D01*
X004680Y025940D02*
X003680Y024940D01*
X006180Y006440D02*
X005680Y005940D01*
X005680Y004940D02*
X005680Y001940D01*
X004680Y001940D02*
X004680Y004940D01*
X006680Y004940D02*
X006680Y001940D01*
X002680Y001940D02*
X002680Y004940D01*
D22*
X003180Y006565D03*
X002680Y007565D03*
X003805Y010315D03*
X007180Y010315D03*
X009805Y009940D03*
X011555Y010315D03*
X012805Y010940D03*
X014555Y009690D03*
X014680Y009065D03*
X013430Y009065D03*
X012180Y007815D03*
X012555Y007440D03*
X013805Y007065D03*
X016180Y005565D03*
X017180Y006315D03*
X018180Y006315D03*
X018555Y007315D03*
X018055Y007565D03*
X020430Y007315D03*
X021930Y007565D03*
X022680Y007815D03*
X023930Y007815D03*
X024555Y008940D03*
X026305Y009940D03*
X028180Y009315D03*
X028555Y009690D03*
X029555Y010940D03*
X030930Y012065D03*
X027680Y011440D03*
X030930Y008940D03*
X029555Y007315D03*
X027180Y006315D03*
X026180Y005565D03*
X025180Y006315D03*
X028055Y005440D03*
X027805Y003565D03*
X028805Y003565D03*
X029805Y003565D03*
X030805Y003565D03*
X031680Y003565D03*
X026680Y003565D03*
X025805Y003565D03*
X024680Y003565D03*
X023805Y003565D03*
X022680Y003565D03*
X021805Y003565D03*
X020805Y003565D03*
X019805Y003565D03*
X018805Y003565D03*
X017805Y003565D03*
X016805Y003565D03*
X015680Y003565D03*
X014805Y003565D03*
X013805Y003565D03*
X012805Y003565D03*
X011805Y003565D03*
X010805Y003565D03*
X010055Y003565D03*
X008805Y003565D03*
X010180Y005565D03*
X009055Y006815D03*
X008305Y006940D03*
X007555Y006940D03*
X007180Y006315D03*
X015680Y010815D03*
X013680Y012190D03*
X013055Y013565D03*
X010680Y014565D03*
X010805Y015315D03*
X010180Y015565D03*
X012680Y016440D03*
X014180Y016440D03*
X014680Y016315D03*
X015805Y015565D03*
X017930Y015065D03*
X013430Y017440D03*
X012305Y017440D03*
X010180Y017815D03*
X009180Y017815D03*
X005680Y015940D03*
X005680Y014565D03*
X003305Y015815D03*
X002430Y015440D03*
X002055Y014690D03*
X002805Y014690D03*
X009180Y012065D03*
X018305Y009940D03*
X018680Y010315D03*
X019805Y009315D03*
X020555Y010190D03*
X021430Y010190D03*
X021180Y009315D03*
X021180Y006315D03*
X020180Y006315D03*
X033930Y013940D03*
X036055Y013315D03*
X035680Y012065D03*
X034680Y010065D03*
X030305Y015690D03*
X026305Y018940D03*
X027305Y019815D03*
X025180Y020815D03*
X021930Y023315D03*
X019430Y022190D03*
X017055Y019815D03*
X015180Y020815D03*
X014180Y019940D03*
X007805Y020690D03*
X004180Y019815D03*
X002680Y020065D03*
X001930Y019690D03*
X019930Y024815D03*
X031055Y019940D03*
X024305Y017440D03*
X023555Y015565D03*
X023555Y015065D03*
D23*
X023180Y012940D02*
X022680Y012940D01*
X022680Y010940D01*
X022430Y010690D01*
X018930Y010690D01*
X018805Y010815D01*
X018555Y010815D01*
X018430Y010690D01*
X017805Y010690D01*
X017180Y011315D01*
X017180Y011440D01*
X016055Y010315D01*
X013305Y010315D01*
X013180Y010440D01*
X014180Y008440D02*
X011680Y008440D01*
X011180Y012940D02*
X013805Y015565D01*
X015805Y015565D01*
X014618Y016878D02*
X014180Y016440D01*
X014618Y016878D02*
X014555Y016940D01*
X010180Y016940D01*
X009180Y016940D01*
X008180Y016940D01*
X007180Y016940D01*
X006180Y016940D01*
X005180Y016940D01*
X004180Y016940D02*
X003180Y016940D01*
X002680Y011440D02*
X001680Y011440D01*
X003180Y006565D02*
X003180Y005440D01*
X003680Y004940D01*
X003680Y001940D01*
X001680Y001940D02*
X001680Y004940D01*
X014618Y016878D02*
X014680Y016940D01*
X015180Y016940D01*
X016180Y016940D01*
X017180Y016940D01*
X022180Y016940D02*
X028180Y016940D01*
X031680Y013440D01*
X035930Y013440D01*
X036055Y013315D01*
X035180Y012440D02*
X034930Y012190D01*
X032430Y012190D01*
X031680Y011440D01*
X031680Y008440D02*
X025680Y008440D01*
X023180Y008440D01*
X022680Y003565D02*
X022680Y001940D01*
X029680Y001940D02*
X029680Y003565D01*
X029805Y003565D01*
X031680Y003565D02*
X031680Y001940D01*
X031680Y004940D02*
X032680Y004940D01*
X033180Y005440D01*
X031680Y020940D02*
X035680Y020940D01*
X036180Y021440D01*
X035180Y022440D02*
X034930Y022190D01*
X031680Y022190D01*
X030680Y021190D01*
X030680Y020940D01*
X019930Y023440D02*
X002180Y023440D01*
X001680Y023940D01*
D24*
X002120Y023940D01*
X002120Y023980D01*
X008017Y023980D01*
X008140Y024103D01*
X008402Y024365D01*
X008442Y024324D01*
X008596Y024260D01*
X008764Y024260D01*
X008918Y024324D01*
X009036Y024442D01*
X009100Y024596D01*
X009100Y025284D01*
X009036Y025438D01*
X008918Y025556D01*
X008764Y025620D01*
X008596Y025620D01*
X008442Y025556D01*
X008324Y025438D01*
X008260Y025284D01*
X008260Y024817D01*
X008100Y024657D01*
X008100Y025284D01*
X008036Y025438D01*
X007918Y025556D01*
X007764Y025620D01*
X007596Y025620D01*
X007442Y025556D01*
X007324Y025438D01*
X007260Y025284D01*
X007260Y024596D01*
X007324Y024442D01*
X007366Y024400D01*
X006994Y024400D01*
X007036Y024442D01*
X007100Y024596D01*
X007100Y025284D01*
X007036Y025438D01*
X006918Y025556D01*
X006764Y025620D01*
X006596Y025620D01*
X006442Y025556D01*
X006324Y025438D01*
X006260Y025284D01*
X006260Y024596D01*
X006324Y024442D01*
X006366Y024400D01*
X005994Y024400D01*
X006036Y024442D01*
X006100Y024596D01*
X006100Y025284D01*
X006036Y025438D01*
X005918Y025556D01*
X005764Y025620D01*
X005596Y025620D01*
X005442Y025556D01*
X005324Y025438D01*
X005260Y025284D01*
X005260Y024596D01*
X005324Y024442D01*
X005366Y024400D01*
X004994Y024400D01*
X005036Y024442D01*
X005100Y024596D01*
X005100Y025284D01*
X005036Y025438D01*
X004918Y025556D01*
X004764Y025620D01*
X004657Y025620D01*
X004767Y025730D01*
X016173Y025730D01*
X015958Y025515D01*
X015918Y025556D01*
X015764Y025620D01*
X015596Y025620D01*
X015442Y025556D01*
X015324Y025438D01*
X015260Y025284D01*
X015260Y024596D01*
X015324Y024442D01*
X015366Y024400D01*
X014994Y024400D01*
X015036Y024442D01*
X015100Y024596D01*
X015100Y025284D01*
X015036Y025438D01*
X014918Y025556D01*
X014764Y025620D01*
X014596Y025620D01*
X014442Y025556D01*
X014324Y025438D01*
X014260Y025284D01*
X014260Y024596D01*
X014324Y024442D01*
X014366Y024400D01*
X013994Y024400D01*
X014036Y024442D01*
X014100Y024596D01*
X014100Y025284D01*
X014036Y025438D01*
X013918Y025556D01*
X013764Y025620D01*
X013596Y025620D01*
X013442Y025556D01*
X013324Y025438D01*
X013260Y025284D01*
X013260Y024657D01*
X013100Y024817D01*
X013100Y025284D01*
X013036Y025438D01*
X012918Y025556D01*
X012764Y025620D01*
X012596Y025620D01*
X012442Y025556D01*
X012324Y025438D01*
X012260Y025284D01*
X012260Y024596D01*
X012324Y024442D01*
X012442Y024324D01*
X012596Y024260D01*
X012764Y024260D01*
X012918Y024324D01*
X012958Y024365D01*
X013343Y023980D01*
X019508Y023980D01*
X019250Y023722D01*
X019250Y023470D01*
X019900Y023470D01*
X019900Y023410D01*
X019960Y023410D01*
X019960Y023470D01*
X020603Y023470D01*
X021343Y022730D01*
X034848Y022730D01*
X034740Y022622D01*
X034740Y022440D01*
X035180Y022440D01*
X035620Y022440D01*
X035620Y022622D01*
X035512Y022730D01*
X035876Y022730D01*
X035760Y022614D01*
X035760Y022266D01*
X035876Y022150D01*
X035512Y022150D01*
X035620Y022258D01*
X035620Y022440D01*
X035180Y022440D01*
X035180Y022440D01*
X035180Y022440D01*
X034740Y022440D01*
X034740Y022258D01*
X034848Y022150D01*
X033593Y022150D01*
X033303Y021860D01*
X032836Y021860D01*
X032682Y021796D01*
X032564Y021678D01*
X032552Y021650D01*
X031468Y021650D01*
X031345Y021527D01*
X031343Y021525D01*
X031093Y021525D01*
X030970Y021402D01*
X030970Y021272D01*
X030862Y021380D01*
X030680Y021380D01*
X030680Y020940D01*
X030680Y020940D01*
X030680Y020940D01*
X030240Y020940D01*
X030240Y021122D01*
X030498Y021380D01*
X030680Y021380D01*
X030680Y020940D01*
X030240Y020940D01*
X030240Y020758D01*
X030348Y020650D01*
X025501Y020650D01*
X025540Y020743D01*
X025540Y020887D01*
X025485Y021019D01*
X025384Y021120D01*
X025252Y021175D01*
X025108Y021175D01*
X024976Y021120D01*
X024881Y021025D01*
X020892Y021025D01*
X019790Y022127D01*
X019790Y022262D01*
X019735Y022394D01*
X019634Y022495D01*
X019502Y022550D01*
X019358Y022550D01*
X019226Y022495D01*
X019125Y022394D01*
X019070Y022262D01*
X019070Y022118D01*
X019125Y021986D01*
X019226Y021885D01*
X019358Y021830D01*
X019493Y021830D01*
X020595Y020728D01*
X020673Y020650D01*
X015501Y020650D01*
X015540Y020743D01*
X015540Y020887D01*
X015485Y021019D01*
X015384Y021120D01*
X015252Y021175D01*
X015108Y021175D01*
X014976Y021120D01*
X014875Y021019D01*
X014826Y020900D01*
X008104Y020900D01*
X008009Y020995D01*
X007877Y021050D01*
X007733Y021050D01*
X007601Y020995D01*
X007500Y020894D01*
X007445Y020762D01*
X007445Y020618D01*
X007500Y020486D01*
X007586Y020400D01*
X002812Y020400D01*
X002752Y020425D01*
X002608Y020425D01*
X002476Y020370D01*
X002375Y020269D01*
X002320Y020137D01*
X002320Y019993D01*
X002359Y019900D01*
X002229Y019900D01*
X002134Y019995D01*
X002002Y020050D01*
X001858Y020050D01*
X001726Y019995D01*
X001625Y019894D01*
X001570Y019762D01*
X001570Y019618D01*
X001625Y019486D01*
X001726Y019385D01*
X001858Y019330D01*
X002002Y019330D01*
X002134Y019385D01*
X002229Y019480D01*
X002366Y019480D01*
X002324Y019438D01*
X002260Y019284D01*
X002260Y018596D01*
X002324Y018442D01*
X002442Y018324D01*
X002596Y018260D01*
X002764Y018260D01*
X002918Y018324D01*
X003036Y018442D01*
X003100Y018596D01*
X003100Y019284D01*
X003036Y019438D01*
X002994Y019480D01*
X003366Y019480D01*
X003324Y019438D01*
X003260Y019284D01*
X003260Y018596D01*
X003324Y018442D01*
X003442Y018324D01*
X003596Y018260D01*
X003764Y018260D01*
X003918Y018324D01*
X004036Y018442D01*
X004100Y018596D01*
X004100Y019230D01*
X004260Y019230D01*
X004260Y018596D01*
X004324Y018442D01*
X004442Y018324D01*
X004596Y018260D01*
X004764Y018260D01*
X004918Y018324D01*
X005036Y018442D01*
X005100Y018596D01*
X005100Y019284D01*
X005036Y019438D01*
X004994Y019480D01*
X005366Y019480D01*
X005324Y019438D01*
X005260Y019284D01*
X005260Y018596D01*
X005324Y018442D01*
X005442Y018324D01*
X005596Y018260D01*
X005764Y018260D01*
X005918Y018324D01*
X006036Y018442D01*
X006100Y018596D01*
X006100Y019284D01*
X006036Y019438D01*
X005994Y019480D01*
X006366Y019480D01*
X006324Y019438D01*
X006260Y019284D01*
X006260Y018596D01*
X006324Y018442D01*
X006442Y018324D01*
X006596Y018260D01*
X006764Y018260D01*
X006918Y018324D01*
X006958Y018365D01*
X007595Y017728D01*
X007718Y017605D01*
X008060Y017605D01*
X007942Y017556D01*
X007824Y017438D01*
X007760Y017284D01*
X007760Y017200D01*
X007600Y017200D01*
X007600Y017284D01*
X007536Y017438D01*
X007418Y017556D01*
X007264Y017620D01*
X007096Y017620D01*
X006942Y017556D01*
X006824Y017438D01*
X006760Y017284D01*
X006760Y017200D01*
X006600Y017200D01*
X006600Y017284D01*
X006536Y017438D01*
X006418Y017556D01*
X006264Y017620D01*
X006096Y017620D01*
X005942Y017556D01*
X005824Y017438D01*
X005760Y017284D01*
X005760Y017200D01*
X005600Y017200D01*
X005600Y017284D01*
X005536Y017438D01*
X005418Y017556D01*
X005264Y017620D01*
X005096Y017620D01*
X004942Y017556D01*
X004824Y017438D01*
X004760Y017284D01*
X004760Y016596D01*
X004824Y016442D01*
X004942Y016324D01*
X005083Y016265D01*
X004843Y016025D01*
X003604Y016025D01*
X003509Y016120D01*
X003377Y016175D01*
X003233Y016175D01*
X003101Y016120D01*
X003000Y016019D01*
X002945Y015887D01*
X002945Y015743D01*
X002984Y015650D01*
X002729Y015650D01*
X002634Y015745D01*
X002502Y015800D01*
X002358Y015800D01*
X002226Y015745D01*
X002125Y015644D01*
X002070Y015512D01*
X002070Y015368D01*
X002109Y015275D01*
X001390Y015275D01*
X001390Y023608D01*
X001498Y023500D01*
X001680Y023500D01*
X001862Y023500D01*
X002120Y023758D01*
X002120Y023940D01*
X001680Y023940D01*
X001680Y023940D01*
X001680Y023500D01*
X001680Y023940D01*
X001680Y023940D01*
X001680Y023849D02*
X001680Y023849D01*
X001680Y023691D02*
X001680Y023691D01*
X001680Y023532D02*
X001680Y023532D01*
X001894Y023532D02*
X019250Y023532D01*
X019250Y023410D02*
X019250Y023158D01*
X019648Y022760D01*
X019900Y022760D01*
X019900Y023410D01*
X019250Y023410D01*
X019250Y023374D02*
X001390Y023374D01*
X001390Y023532D02*
X001466Y023532D01*
X001390Y023215D02*
X019250Y023215D01*
X019352Y023057D02*
X001390Y023057D01*
X001390Y022898D02*
X019510Y022898D01*
X019900Y022898D02*
X019960Y022898D01*
X019960Y022760D02*
X020212Y022760D01*
X020610Y023158D01*
X020610Y023410D01*
X019960Y023410D01*
X019960Y022760D01*
X019960Y023057D02*
X019900Y023057D01*
X019900Y023215D02*
X019960Y023215D01*
X019960Y023374D02*
X019900Y023374D01*
X020350Y022898D02*
X021175Y022898D01*
X021333Y022740D02*
X001390Y022740D01*
X001390Y022581D02*
X034740Y022581D01*
X034740Y022423D02*
X019707Y022423D01*
X019789Y022264D02*
X034740Y022264D01*
X035620Y022264D02*
X035762Y022264D01*
X035760Y022423D02*
X035620Y022423D01*
X035620Y022581D02*
X035760Y022581D01*
X035876Y023150D02*
X033484Y023150D01*
X033600Y023266D01*
X033600Y023614D01*
X033354Y023860D01*
X033006Y023860D01*
X032760Y023614D01*
X032760Y023266D01*
X032876Y023150D01*
X022251Y023150D01*
X022290Y023243D01*
X022290Y023387D01*
X022235Y023519D01*
X022134Y023620D01*
X022002Y023675D01*
X021867Y023675D01*
X019392Y026150D01*
X004593Y026150D01*
X004470Y026027D01*
X003958Y025515D01*
X003918Y025556D01*
X003764Y025620D01*
X003596Y025620D01*
X003442Y025556D01*
X003324Y025438D01*
X003260Y025284D01*
X003260Y024596D01*
X003324Y024442D01*
X003366Y024400D01*
X002994Y024400D01*
X003036Y024442D01*
X003100Y024596D01*
X003100Y025284D01*
X003036Y025438D01*
X002918Y025556D01*
X002764Y025620D01*
X002596Y025620D01*
X002442Y025556D01*
X002324Y025438D01*
X002260Y025284D01*
X002260Y024596D01*
X002324Y024442D01*
X002366Y024400D01*
X002142Y024400D01*
X002015Y024527D01*
X001938Y024604D01*
X002100Y024766D01*
X002100Y025114D01*
X001854Y025360D01*
X001506Y025360D01*
X001260Y025114D01*
X001260Y024766D01*
X001422Y024604D01*
X001093Y024275D01*
X001010Y024192D01*
X001010Y026156D01*
X030033Y026156D01*
X030003Y026146D01*
X029939Y026113D01*
X029880Y026071D01*
X029829Y026020D01*
X029787Y025961D01*
X029754Y025897D01*
X029731Y025828D01*
X029720Y025756D01*
X029720Y025450D01*
X030170Y025450D01*
X030170Y025430D01*
X030190Y025430D01*
X030190Y025450D01*
X030640Y025450D01*
X030640Y025756D01*
X030629Y025828D01*
X030606Y025897D01*
X030573Y025961D01*
X030531Y026020D01*
X030480Y026071D01*
X030421Y026113D01*
X030357Y026146D01*
X030327Y026156D01*
X031083Y026156D01*
X030931Y026093D01*
X030807Y025969D01*
X030740Y025808D01*
X030740Y025072D01*
X030807Y024911D01*
X030931Y024787D01*
X031092Y024720D01*
X031268Y024720D01*
X031429Y024787D01*
X031553Y024911D01*
X031620Y025072D01*
X031620Y025808D01*
X031553Y025969D01*
X031429Y026093D01*
X031277Y026156D01*
X033083Y026156D01*
X032931Y026093D01*
X032807Y025969D01*
X032740Y025808D01*
X032740Y025072D01*
X032807Y024911D01*
X032931Y024787D01*
X033092Y024720D01*
X033268Y024720D01*
X033429Y024787D01*
X033553Y024911D01*
X033620Y025072D01*
X033620Y025808D01*
X033553Y025969D01*
X033429Y026093D01*
X033277Y026156D01*
X034083Y026156D01*
X033931Y026093D01*
X033807Y025969D01*
X033740Y025808D01*
X033740Y025072D01*
X033807Y024911D01*
X033931Y024787D01*
X034092Y024720D01*
X034268Y024720D01*
X034429Y024787D01*
X034553Y024911D01*
X034620Y025072D01*
X034620Y025808D01*
X034553Y025969D01*
X034429Y026093D01*
X034277Y026156D01*
X039770Y026156D01*
X039770Y024775D01*
X039761Y024809D01*
X039608Y025074D01*
X039392Y025289D01*
X039128Y025442D01*
X038833Y025521D01*
X038527Y025521D01*
X038232Y025442D01*
X037968Y025289D01*
X037752Y025074D01*
X037599Y024809D01*
X037520Y024514D01*
X037520Y024209D01*
X037599Y023914D01*
X037752Y023649D01*
X037968Y023433D01*
X038232Y023280D01*
X038527Y023201D01*
X038833Y023201D01*
X039128Y023280D01*
X039392Y023433D01*
X039608Y023649D01*
X039761Y023914D01*
X039770Y023947D01*
X039770Y014933D01*
X039761Y014966D01*
X039608Y015231D01*
X039392Y015447D01*
X039128Y015600D01*
X038833Y015679D01*
X038527Y015679D01*
X038232Y015600D01*
X037968Y015447D01*
X037752Y015231D01*
X037599Y014966D01*
X037520Y014671D01*
X037520Y014366D01*
X037554Y014238D01*
X037390Y014402D01*
X037390Y023027D01*
X037267Y023150D01*
X036484Y023150D01*
X036600Y023266D01*
X036600Y023614D01*
X036354Y023860D01*
X036006Y023860D01*
X035760Y023614D01*
X035760Y023266D01*
X035876Y023150D01*
X035811Y023215D02*
X033549Y023215D01*
X033600Y023374D02*
X035760Y023374D01*
X035760Y023532D02*
X033600Y023532D01*
X033523Y023691D02*
X035837Y023691D01*
X035995Y023849D02*
X033365Y023849D01*
X032995Y023849D02*
X021693Y023849D01*
X021851Y023691D02*
X032837Y023691D01*
X032760Y023532D02*
X022222Y023532D01*
X022290Y023374D02*
X032760Y023374D01*
X032811Y023215D02*
X022278Y023215D01*
X021534Y024008D02*
X037574Y024008D01*
X037531Y024166D02*
X021376Y024166D01*
X021217Y024325D02*
X037520Y024325D01*
X037520Y024483D02*
X021059Y024483D01*
X020900Y024642D02*
X037554Y024642D01*
X037597Y024800D02*
X034442Y024800D01*
X034573Y024959D02*
X037685Y024959D01*
X037795Y025117D02*
X034620Y025117D01*
X034620Y025276D02*
X037954Y025276D01*
X038218Y025434D02*
X034620Y025434D01*
X034620Y025593D02*
X039770Y025593D01*
X039770Y025751D02*
X034620Y025751D01*
X034578Y025910D02*
X039770Y025910D01*
X039770Y026068D02*
X034454Y026068D01*
X033906Y026068D02*
X033454Y026068D01*
X033578Y025910D02*
X033782Y025910D01*
X033740Y025751D02*
X033620Y025751D01*
X033620Y025593D02*
X033740Y025593D01*
X033740Y025434D02*
X033620Y025434D01*
X033620Y025276D02*
X033740Y025276D01*
X033740Y025117D02*
X033620Y025117D01*
X033573Y024959D02*
X033787Y024959D01*
X033918Y024800D02*
X033442Y024800D01*
X032918Y024800D02*
X031442Y024800D01*
X031573Y024959D02*
X032787Y024959D01*
X032740Y025117D02*
X031620Y025117D01*
X031620Y025276D02*
X032740Y025276D01*
X032740Y025434D02*
X031620Y025434D01*
X031620Y025593D02*
X032740Y025593D01*
X032740Y025751D02*
X031620Y025751D01*
X031578Y025910D02*
X032782Y025910D01*
X032906Y026068D02*
X031454Y026068D01*
X030906Y026068D02*
X030482Y026068D01*
X030600Y025910D02*
X030782Y025910D01*
X030740Y025751D02*
X030640Y025751D01*
X030640Y025593D02*
X030740Y025593D01*
X030740Y025434D02*
X030190Y025434D01*
X030190Y025430D02*
X030640Y025430D01*
X030640Y025124D01*
X030629Y025052D01*
X030606Y024983D01*
X030573Y024919D01*
X030531Y024860D01*
X030480Y024809D01*
X030421Y024767D01*
X030357Y024734D01*
X030288Y024711D01*
X030216Y024700D01*
X030190Y024700D01*
X030190Y025430D01*
X030170Y025430D02*
X030170Y024700D01*
X030144Y024700D01*
X030072Y024711D01*
X030003Y024734D01*
X029939Y024767D01*
X029880Y024809D01*
X029829Y024860D01*
X029787Y024919D01*
X029754Y024983D01*
X029731Y025052D01*
X029720Y025124D01*
X029720Y025430D01*
X030170Y025430D01*
X030170Y025434D02*
X027590Y025434D01*
X027590Y025276D02*
X029720Y025276D01*
X029721Y025117D02*
X027540Y025117D01*
X027590Y025167D02*
X027203Y024780D01*
X026657Y024780D01*
X026270Y025167D01*
X026270Y025713D01*
X026657Y026100D01*
X027203Y026100D01*
X027590Y025713D01*
X027590Y025167D01*
X027382Y024959D02*
X029766Y024959D01*
X029893Y024800D02*
X027223Y024800D01*
X026637Y024800D02*
X020742Y024800D01*
X020583Y024959D02*
X026478Y024959D01*
X026320Y025117D02*
X020425Y025117D01*
X020266Y025276D02*
X026270Y025276D01*
X026270Y025434D02*
X020108Y025434D01*
X019949Y025593D02*
X026270Y025593D01*
X026308Y025751D02*
X019791Y025751D01*
X019632Y025910D02*
X026466Y025910D01*
X026625Y026068D02*
X019474Y026068D01*
X019377Y023849D02*
X002120Y023849D01*
X002053Y023691D02*
X019250Y023691D01*
X020610Y023374D02*
X020699Y023374D01*
X020610Y023215D02*
X020858Y023215D01*
X021016Y023057D02*
X020508Y023057D01*
X019811Y022106D02*
X033549Y022106D01*
X033390Y021947D02*
X027356Y021947D01*
X027203Y022100D02*
X026657Y022100D01*
X026270Y021713D01*
X026270Y021167D01*
X026657Y020780D01*
X027203Y020780D01*
X027590Y021167D01*
X027590Y021713D01*
X027203Y022100D01*
X027515Y021789D02*
X032675Y021789D01*
X031448Y021630D02*
X027590Y021630D01*
X027590Y021472D02*
X031040Y021472D01*
X030970Y021313D02*
X030929Y021313D01*
X030680Y021313D02*
X030680Y021313D01*
X030680Y021155D02*
X030680Y021155D01*
X030680Y020996D02*
X030680Y020996D01*
X030431Y021313D02*
X027590Y021313D01*
X027578Y021155D02*
X030272Y021155D01*
X030240Y020996D02*
X027419Y020996D01*
X027261Y020838D02*
X030240Y020838D01*
X030319Y020679D02*
X025513Y020679D01*
X025540Y020838D02*
X026599Y020838D01*
X026441Y020996D02*
X025495Y020996D01*
X025301Y021155D02*
X026282Y021155D01*
X026270Y021313D02*
X020604Y021313D01*
X020762Y021155D02*
X025059Y021155D01*
X026270Y021472D02*
X020445Y021472D01*
X020287Y021630D02*
X026270Y021630D01*
X026345Y021789D02*
X020128Y021789D01*
X019970Y021947D02*
X026504Y021947D01*
X026312Y019980D02*
X026984Y019980D01*
X026945Y019887D01*
X026945Y019743D01*
X027000Y019611D01*
X027101Y019510D01*
X027233Y019455D01*
X027368Y019455D01*
X031105Y015718D01*
X031064Y015678D01*
X031000Y015524D01*
X031000Y015356D01*
X031064Y015202D01*
X031182Y015084D01*
X031336Y015020D01*
X032024Y015020D01*
X032178Y015084D01*
X032296Y015202D01*
X032360Y015356D01*
X032360Y015524D01*
X032296Y015678D01*
X032178Y015796D01*
X032024Y015860D01*
X031557Y015860D01*
X031397Y016020D01*
X032024Y016020D01*
X032178Y016084D01*
X032296Y016202D01*
X032360Y016356D01*
X032360Y016524D01*
X032296Y016678D01*
X032178Y016796D01*
X032024Y016860D01*
X031336Y016860D01*
X031182Y016796D01*
X031064Y016678D01*
X031000Y016524D01*
X031000Y016417D01*
X027665Y019752D01*
X027665Y019887D01*
X027626Y019980D01*
X029968Y019980D01*
X031095Y018853D01*
X031167Y018781D01*
X031064Y018678D01*
X031000Y018524D01*
X031000Y018356D01*
X031064Y018202D01*
X031182Y018084D01*
X031336Y018020D01*
X032024Y018020D01*
X032178Y018084D01*
X032296Y018202D01*
X032360Y018356D01*
X032360Y018524D01*
X032296Y018678D01*
X032244Y018730D01*
X032616Y018730D01*
X032564Y018678D01*
X032500Y018524D01*
X032500Y018356D01*
X032564Y018202D01*
X032682Y018084D01*
X032836Y018020D01*
X033524Y018020D01*
X033678Y018084D01*
X033796Y018202D01*
X033860Y018356D01*
X033860Y018524D01*
X033796Y018678D01*
X033678Y018796D01*
X033524Y018860D01*
X032897Y018860D01*
X033057Y019020D01*
X033524Y019020D01*
X033678Y019084D01*
X033796Y019202D01*
X033808Y019230D01*
X035093Y019230D01*
X035605Y018718D01*
X035564Y018678D01*
X035500Y018524D01*
X035500Y018356D01*
X035564Y018202D01*
X035682Y018084D01*
X035836Y018020D01*
X036524Y018020D01*
X036678Y018084D01*
X036796Y018202D01*
X036860Y018356D01*
X036860Y018524D01*
X036796Y018678D01*
X036678Y018796D01*
X036524Y018860D01*
X036057Y018860D01*
X035897Y019020D01*
X036524Y019020D01*
X036678Y019084D01*
X036796Y019202D01*
X036860Y019356D01*
X036860Y019524D01*
X036796Y019678D01*
X036678Y019796D01*
X036524Y019860D01*
X035836Y019860D01*
X035682Y019796D01*
X035564Y019678D01*
X035500Y019524D01*
X035500Y019417D01*
X035390Y019527D01*
X035267Y019650D01*
X033808Y019650D01*
X033796Y019678D01*
X033678Y019796D01*
X033524Y019860D01*
X032897Y019860D01*
X033057Y020020D01*
X033524Y020020D01*
X033678Y020084D01*
X033796Y020202D01*
X033860Y020356D01*
X033860Y020524D01*
X033796Y020678D01*
X033794Y020680D01*
X035566Y020680D01*
X035564Y020678D01*
X035500Y020524D01*
X035500Y020356D01*
X035564Y020202D01*
X035682Y020084D01*
X035836Y020020D01*
X036524Y020020D01*
X036678Y020084D01*
X036796Y020202D01*
X036860Y020356D01*
X036860Y020524D01*
X036796Y020678D01*
X036755Y020718D01*
X036970Y020933D01*
X036970Y015650D01*
X036808Y015650D01*
X036796Y015678D01*
X036678Y015796D01*
X036524Y015860D01*
X035836Y015860D01*
X035682Y015796D01*
X035564Y015678D01*
X035500Y015524D01*
X035500Y015356D01*
X035564Y015202D01*
X035682Y015084D01*
X035836Y015020D01*
X036524Y015020D01*
X036678Y015084D01*
X036720Y015126D01*
X036720Y014754D01*
X036678Y014796D01*
X036524Y014860D01*
X035836Y014860D01*
X035682Y014796D01*
X035564Y014678D01*
X035500Y014524D01*
X035500Y014356D01*
X035564Y014202D01*
X035682Y014084D01*
X035836Y014020D01*
X036524Y014020D01*
X036678Y014084D01*
X036720Y014126D01*
X036720Y013777D01*
X036390Y013447D01*
X036360Y013519D01*
X036259Y013620D01*
X036127Y013675D01*
X036042Y013675D01*
X035982Y013700D01*
X034199Y013700D01*
X034235Y013736D01*
X034290Y013868D01*
X034290Y014012D01*
X034235Y014144D01*
X034134Y014245D01*
X034002Y014300D01*
X033858Y014300D01*
X033857Y014299D01*
X033869Y014337D01*
X033880Y014405D01*
X033880Y014440D01*
X033880Y014475D01*
X033869Y014543D01*
X033848Y014609D01*
X033816Y014671D01*
X033776Y014727D01*
X033727Y014776D01*
X033671Y014816D01*
X033609Y014848D01*
X033543Y014869D01*
X033475Y014880D01*
X033180Y014880D01*
X033180Y014440D01*
X033180Y014440D01*
X033880Y014440D01*
X033180Y014440D01*
X033180Y014440D01*
X033180Y014440D01*
X032480Y014440D01*
X032480Y014475D01*
X032491Y014543D01*
X032512Y014609D01*
X032544Y014671D01*
X032584Y014727D01*
X032633Y014776D01*
X032689Y014816D01*
X032751Y014848D01*
X032817Y014869D01*
X032885Y014880D01*
X033180Y014880D01*
X033180Y014440D01*
X032480Y014440D01*
X032480Y014405D01*
X032491Y014337D01*
X032512Y014271D01*
X032544Y014209D01*
X032584Y014153D01*
X032588Y014150D01*
X032267Y014150D01*
X032255Y014162D01*
X032296Y014202D01*
X032360Y014356D01*
X032360Y014524D01*
X032296Y014678D01*
X032178Y014796D01*
X032024Y014860D01*
X031336Y014860D01*
X031182Y014796D01*
X031064Y014678D01*
X031000Y014524D01*
X031000Y014488D01*
X030104Y015384D01*
X030233Y015330D01*
X030377Y015330D01*
X030509Y015385D01*
X030610Y015486D01*
X030665Y015618D01*
X030665Y015762D01*
X030610Y015894D01*
X030509Y015995D01*
X030377Y016050D01*
X030242Y016050D01*
X026312Y019980D01*
X026405Y019887D02*
X026945Y019887D01*
X026951Y019728D02*
X026564Y019728D01*
X026722Y019570D02*
X027041Y019570D01*
X026881Y019411D02*
X027412Y019411D01*
X027570Y019253D02*
X027039Y019253D01*
X027198Y019094D02*
X027729Y019094D01*
X027887Y018936D02*
X027356Y018936D01*
X027515Y018777D02*
X028046Y018777D01*
X028204Y018619D02*
X027673Y018619D01*
X027832Y018460D02*
X028363Y018460D01*
X028521Y018302D02*
X027990Y018302D01*
X028149Y018143D02*
X028680Y018143D01*
X028838Y017985D02*
X028307Y017985D01*
X028466Y017826D02*
X028997Y017826D01*
X029155Y017668D02*
X028624Y017668D01*
X028783Y017509D02*
X029314Y017509D01*
X029472Y017351D02*
X028941Y017351D01*
X029100Y017192D02*
X029631Y017192D01*
X029789Y017034D02*
X029258Y017034D01*
X029417Y016875D02*
X029948Y016875D01*
X030106Y016717D02*
X029575Y016717D01*
X029734Y016558D02*
X030265Y016558D01*
X030423Y016400D02*
X029892Y016400D01*
X030051Y016241D02*
X030582Y016241D01*
X030740Y016083D02*
X030209Y016083D01*
X030580Y015924D02*
X030899Y015924D01*
X031057Y015766D02*
X030663Y015766D01*
X030660Y015607D02*
X031035Y015607D01*
X031000Y015449D02*
X030573Y015449D01*
X030198Y015290D02*
X031028Y015290D01*
X031135Y015132D02*
X030356Y015132D01*
X030515Y014973D02*
X036720Y014973D01*
X036720Y014815D02*
X036633Y014815D01*
X037390Y014815D02*
X037558Y014815D01*
X037520Y014656D02*
X037390Y014656D01*
X037390Y014498D02*
X037520Y014498D01*
X037527Y014339D02*
X037453Y014339D01*
X037390Y014973D02*
X037603Y014973D01*
X037694Y015132D02*
X037390Y015132D01*
X037390Y015290D02*
X037811Y015290D01*
X037970Y015449D02*
X037390Y015449D01*
X037390Y015607D02*
X038260Y015607D01*
X037390Y015766D02*
X039770Y015766D01*
X039770Y015924D02*
X037390Y015924D01*
X037390Y016083D02*
X039770Y016083D01*
X039770Y016241D02*
X037390Y016241D01*
X037390Y016400D02*
X039770Y016400D01*
X039770Y016558D02*
X037390Y016558D01*
X037390Y016717D02*
X039770Y016717D01*
X039770Y016875D02*
X038487Y016875D01*
X038421Y016810D02*
X038570Y016959D01*
X038651Y017153D01*
X038651Y017364D01*
X038570Y017559D01*
X038421Y017708D01*
X038226Y017789D01*
X038016Y017789D01*
X037821Y017708D01*
X037672Y017559D01*
X037591Y017364D01*
X037591Y017153D01*
X037672Y016959D01*
X037821Y016810D01*
X038016Y016729D01*
X038226Y016729D01*
X038421Y016810D01*
X038601Y017034D02*
X039770Y017034D01*
X039770Y017192D02*
X038651Y017192D01*
X038651Y017351D02*
X038954Y017351D01*
X038939Y017357D02*
X039134Y017276D01*
X039344Y017276D01*
X039539Y017357D01*
X039688Y017506D01*
X039769Y017701D01*
X039769Y017912D01*
X039688Y018106D01*
X039539Y018255D01*
X039344Y018336D01*
X039134Y018336D01*
X038939Y018255D01*
X038790Y018106D01*
X038709Y017912D01*
X038709Y017701D01*
X038790Y017506D01*
X038939Y017357D01*
X038788Y017509D02*
X038591Y017509D01*
X038462Y017668D02*
X038723Y017668D01*
X038709Y017826D02*
X038242Y017826D01*
X038226Y017819D02*
X038421Y017900D01*
X038570Y018049D01*
X038651Y018244D01*
X038651Y018455D01*
X038570Y018650D01*
X038421Y018799D01*
X038226Y018879D01*
X038016Y018879D01*
X037821Y018799D01*
X037672Y018650D01*
X037591Y018455D01*
X037591Y018244D01*
X037672Y018049D01*
X037821Y017900D01*
X038016Y017819D01*
X038226Y017819D01*
X038000Y017826D02*
X037390Y017826D01*
X037390Y017668D02*
X037780Y017668D01*
X037651Y017509D02*
X037390Y017509D01*
X037390Y017351D02*
X037591Y017351D01*
X037591Y017192D02*
X037390Y017192D01*
X037390Y017034D02*
X037641Y017034D01*
X037755Y016875D02*
X037390Y016875D01*
X036970Y016875D02*
X030542Y016875D01*
X030700Y016717D02*
X031103Y016717D01*
X031014Y016558D02*
X030859Y016558D01*
X031182Y017084D02*
X031336Y017020D01*
X032024Y017020D01*
X032178Y017084D01*
X032296Y017202D01*
X032360Y017356D01*
X032360Y017524D01*
X032296Y017678D01*
X032178Y017796D01*
X032024Y017860D01*
X031336Y017860D01*
X031182Y017796D01*
X031064Y017678D01*
X031000Y017524D01*
X031000Y017356D01*
X031064Y017202D01*
X031182Y017084D01*
X031304Y017034D02*
X030383Y017034D01*
X030225Y017192D02*
X031074Y017192D01*
X031002Y017351D02*
X030066Y017351D01*
X029908Y017509D02*
X031000Y017509D01*
X031060Y017668D02*
X029749Y017668D01*
X029591Y017826D02*
X031254Y017826D01*
X031123Y018143D02*
X029274Y018143D01*
X029432Y017985D02*
X036970Y017985D01*
X036970Y018143D02*
X036737Y018143D01*
X036837Y018302D02*
X036970Y018302D01*
X036970Y018460D02*
X036860Y018460D01*
X036821Y018619D02*
X036970Y018619D01*
X036970Y018777D02*
X036697Y018777D01*
X036970Y018936D02*
X035981Y018936D01*
X035546Y018777D02*
X033697Y018777D01*
X033821Y018619D02*
X035539Y018619D01*
X035500Y018460D02*
X033860Y018460D01*
X033837Y018302D02*
X035523Y018302D01*
X035623Y018143D02*
X033737Y018143D01*
X033606Y017826D02*
X035754Y017826D01*
X035682Y017796D02*
X035564Y017678D01*
X035500Y017524D01*
X035500Y017356D01*
X035564Y017202D01*
X035682Y017084D01*
X035836Y017020D01*
X036524Y017020D01*
X036678Y017084D01*
X036796Y017202D01*
X036860Y017356D01*
X036860Y017524D01*
X036796Y017678D01*
X036678Y017796D01*
X036524Y017860D01*
X035836Y017860D01*
X035682Y017796D01*
X035560Y017668D02*
X033800Y017668D01*
X033796Y017678D02*
X033678Y017796D01*
X033524Y017860D01*
X032836Y017860D01*
X032682Y017796D01*
X032564Y017678D01*
X032500Y017524D01*
X032500Y017356D01*
X032564Y017202D01*
X032682Y017084D01*
X032836Y017020D01*
X033524Y017020D01*
X033678Y017084D01*
X033796Y017202D01*
X033860Y017356D01*
X033860Y017524D01*
X033796Y017678D01*
X033860Y017509D02*
X035500Y017509D01*
X035502Y017351D02*
X033858Y017351D01*
X033786Y017192D02*
X035574Y017192D01*
X035804Y017034D02*
X033556Y017034D01*
X033524Y016860D02*
X033678Y016796D01*
X033796Y016678D01*
X033860Y016524D01*
X033860Y016356D01*
X033796Y016202D01*
X033678Y016084D01*
X033524Y016020D01*
X032836Y016020D01*
X032682Y016084D01*
X032564Y016202D01*
X032500Y016356D01*
X032500Y016524D01*
X032564Y016678D01*
X032682Y016796D01*
X032836Y016860D01*
X033524Y016860D01*
X033757Y016717D02*
X035603Y016717D01*
X035564Y016678D02*
X035682Y016796D01*
X035836Y016860D01*
X036524Y016860D01*
X036678Y016796D01*
X036796Y016678D01*
X036860Y016524D01*
X036860Y016356D01*
X036796Y016202D01*
X036678Y016084D01*
X036524Y016020D01*
X035836Y016020D01*
X035682Y016084D01*
X035564Y016202D01*
X035500Y016356D01*
X035500Y016524D01*
X035564Y016678D01*
X035514Y016558D02*
X033846Y016558D01*
X033860Y016400D02*
X035500Y016400D01*
X035548Y016241D02*
X033812Y016241D01*
X033674Y016083D02*
X035686Y016083D01*
X035652Y015766D02*
X033708Y015766D01*
X033678Y015796D02*
X033524Y015860D01*
X032836Y015860D01*
X032682Y015796D01*
X032564Y015678D01*
X032500Y015524D01*
X032500Y015356D01*
X032564Y015202D01*
X032682Y015084D01*
X032836Y015020D01*
X033524Y015020D01*
X033678Y015084D01*
X033796Y015202D01*
X033860Y015356D01*
X033860Y015524D01*
X033796Y015678D01*
X033678Y015796D01*
X033825Y015607D02*
X035535Y015607D01*
X035500Y015449D02*
X033860Y015449D01*
X033832Y015290D02*
X035528Y015290D01*
X035635Y015132D02*
X033725Y015132D01*
X033673Y014815D02*
X035727Y014815D01*
X035555Y014656D02*
X033824Y014656D01*
X033876Y014498D02*
X035500Y014498D01*
X035507Y014339D02*
X033869Y014339D01*
X034199Y014181D02*
X035586Y014181D01*
X035832Y014022D02*
X034286Y014022D01*
X034288Y013864D02*
X036720Y013864D01*
X036720Y014022D02*
X036528Y014022D01*
X036648Y013705D02*
X034204Y013705D01*
X034848Y012730D02*
X034740Y012622D01*
X034740Y012440D01*
X035180Y012440D01*
X035620Y012440D01*
X035620Y012622D01*
X035512Y012730D01*
X035876Y012730D01*
X035760Y012614D01*
X035760Y012422D01*
X035752Y012425D01*
X035620Y012425D01*
X035620Y012440D01*
X035180Y012440D01*
X035180Y012440D01*
X035180Y012440D01*
X034740Y012440D01*
X034740Y012258D01*
X034848Y012150D01*
X033593Y012150D01*
X033470Y012027D01*
X033303Y011860D01*
X032836Y011860D01*
X032682Y011796D01*
X032564Y011678D01*
X032500Y011524D01*
X032500Y011356D01*
X032564Y011202D01*
X032616Y011150D01*
X032272Y011150D01*
X032276Y011153D01*
X032316Y011209D01*
X032348Y011271D01*
X032369Y011337D01*
X032380Y011405D01*
X032380Y011440D01*
X032380Y011475D01*
X032369Y011543D01*
X032348Y011609D01*
X032316Y011671D01*
X032276Y011727D01*
X032227Y011776D01*
X032171Y011816D01*
X032109Y011848D01*
X032043Y011869D01*
X031975Y011880D01*
X031680Y011880D01*
X031680Y011440D01*
X031680Y011440D01*
X032380Y011440D01*
X031680Y011440D01*
X031680Y011440D01*
X031680Y011880D01*
X031385Y011880D01*
X031317Y011869D01*
X031251Y011848D01*
X031192Y011817D01*
X031235Y011861D01*
X031290Y011993D01*
X031290Y012039D01*
X031336Y012020D01*
X032024Y012020D01*
X032178Y012084D01*
X032296Y012202D01*
X032360Y012356D01*
X032360Y012524D01*
X032296Y012678D01*
X032244Y012730D01*
X034848Y012730D01*
X034740Y012596D02*
X032330Y012596D01*
X032360Y012437D02*
X034740Y012437D01*
X034740Y012279D02*
X032328Y012279D01*
X032214Y012120D02*
X033563Y012120D01*
X033405Y011962D02*
X031277Y011962D01*
X031106Y011748D02*
X031002Y011705D01*
X030858Y011705D01*
X030726Y011760D01*
X030625Y011861D01*
X030570Y011993D01*
X030570Y012137D01*
X030625Y012269D01*
X030720Y012364D01*
X030720Y013027D01*
X030843Y013150D01*
X031116Y013150D01*
X031064Y013202D01*
X031000Y013356D01*
X031000Y013524D01*
X031064Y013678D01*
X031069Y013683D01*
X028072Y016680D01*
X026294Y016680D01*
X026296Y016678D01*
X026360Y016524D01*
X026360Y016356D01*
X026296Y016202D01*
X026178Y016084D01*
X026024Y016020D01*
X025557Y016020D01*
X025517Y015980D01*
X022937Y015980D01*
X023220Y015697D01*
X023250Y015769D01*
X023351Y015870D01*
X023483Y015925D01*
X023627Y015925D01*
X023759Y015870D01*
X023860Y015769D01*
X023915Y015637D01*
X023915Y015502D01*
X025000Y014417D01*
X025000Y014524D01*
X025064Y014678D01*
X025182Y014796D01*
X025336Y014860D01*
X026024Y014860D01*
X026178Y014796D01*
X026296Y014678D01*
X026360Y014524D01*
X026360Y014356D01*
X026296Y014202D01*
X026178Y014084D01*
X026024Y014020D01*
X025397Y014020D01*
X025557Y013860D01*
X026024Y013860D01*
X026178Y013796D01*
X026296Y013678D01*
X026360Y013524D01*
X026360Y013356D01*
X026296Y013202D01*
X026255Y013162D01*
X027617Y011800D01*
X027752Y011800D01*
X027884Y011745D01*
X027985Y011644D01*
X028040Y011512D01*
X028040Y011368D01*
X027985Y011236D01*
X027884Y011135D01*
X027752Y011080D01*
X027608Y011080D01*
X027476Y011135D01*
X027375Y011236D01*
X027320Y011368D01*
X027320Y011503D01*
X026360Y012463D01*
X026360Y012356D01*
X026296Y012202D01*
X026178Y012084D01*
X026024Y012020D01*
X025336Y012020D01*
X025182Y012084D01*
X025064Y012202D01*
X025000Y012356D01*
X025000Y012524D01*
X025064Y012678D01*
X025182Y012796D01*
X025336Y012860D01*
X025963Y012860D01*
X025803Y013020D01*
X025336Y013020D01*
X025182Y013084D01*
X025064Y013202D01*
X025000Y013356D01*
X025000Y013524D01*
X025064Y013678D01*
X025105Y013718D01*
X024140Y014683D01*
X024140Y012103D01*
X024017Y011980D01*
X023600Y011563D01*
X023600Y011096D01*
X023536Y010942D01*
X023418Y010824D01*
X023264Y010760D01*
X023096Y010760D01*
X022942Y010824D01*
X022824Y010942D01*
X022760Y011096D01*
X022760Y011784D01*
X022824Y011938D01*
X022942Y012056D01*
X023096Y012120D01*
X023264Y012120D01*
X023418Y012056D01*
X023458Y012015D01*
X023720Y012277D01*
X023720Y014480D01*
X022494Y014480D01*
X022536Y014438D01*
X022600Y014284D01*
X022600Y013596D01*
X022536Y013442D01*
X022534Y013440D01*
X022536Y013438D01*
X022600Y013284D01*
X022600Y012596D01*
X022536Y012442D01*
X022418Y012324D01*
X022264Y012260D01*
X022096Y012260D01*
X021942Y012324D01*
X021824Y012442D01*
X021760Y012596D01*
X021760Y013284D01*
X021824Y013438D01*
X021826Y013440D01*
X021824Y013442D01*
X021760Y013596D01*
X021760Y014284D01*
X021824Y014438D01*
X021866Y014480D01*
X021494Y014480D01*
X021536Y014438D01*
X021600Y014284D01*
X021600Y013596D01*
X021536Y013442D01*
X021534Y013440D01*
X021536Y013438D01*
X021600Y013284D01*
X021600Y012596D01*
X021536Y012442D01*
X021494Y012400D01*
X021517Y012400D01*
X021640Y012277D01*
X021902Y012015D01*
X021942Y012056D01*
X022096Y012120D01*
X022264Y012120D01*
X022418Y012056D01*
X022536Y011938D01*
X022600Y011784D01*
X022600Y011096D01*
X022536Y010942D01*
X022418Y010824D01*
X022264Y010760D01*
X022096Y010760D01*
X021942Y010824D01*
X021824Y010942D01*
X021760Y011096D01*
X021760Y011563D01*
X021600Y011723D01*
X021600Y011096D01*
X021536Y010942D01*
X021418Y010824D01*
X021264Y010760D01*
X021096Y010760D01*
X020942Y010824D01*
X020824Y010942D01*
X020760Y011096D01*
X020760Y011784D01*
X020824Y011938D01*
X020866Y011980D01*
X020494Y011980D01*
X020536Y011938D01*
X020600Y011784D01*
X020600Y011096D01*
X020536Y010942D01*
X020418Y010824D01*
X020264Y010760D01*
X020096Y010760D01*
X019942Y010824D01*
X019824Y010942D01*
X019760Y011096D01*
X019760Y011784D01*
X019824Y011938D01*
X019866Y011980D01*
X019494Y011980D01*
X019536Y011938D01*
X019600Y011784D01*
X019600Y011096D01*
X019536Y010942D01*
X019418Y010824D01*
X019264Y010760D01*
X019096Y010760D01*
X018942Y010824D01*
X018824Y010942D01*
X018760Y011096D01*
X018760Y011784D01*
X018824Y011938D01*
X018866Y011980D01*
X018843Y011980D01*
X018458Y012365D01*
X018418Y012324D01*
X018264Y012260D01*
X018096Y012260D01*
X017942Y012324D01*
X017824Y012442D01*
X017760Y012596D01*
X017760Y013284D01*
X017824Y013438D01*
X017826Y013440D01*
X017824Y013442D01*
X017760Y013596D01*
X017760Y014284D01*
X017824Y014438D01*
X017866Y014480D01*
X017494Y014480D01*
X017536Y014438D01*
X017600Y014284D01*
X017600Y013596D01*
X017536Y013442D01*
X017534Y013440D01*
X017536Y013438D01*
X017600Y013284D01*
X017600Y012596D01*
X017536Y012442D01*
X017494Y012400D01*
X017517Y012400D01*
X017640Y012277D01*
X017902Y012015D01*
X017942Y012056D01*
X018096Y012120D01*
X018264Y012120D01*
X018418Y012056D01*
X018536Y011938D01*
X018600Y011784D01*
X018600Y011096D01*
X018536Y010942D01*
X018418Y010824D01*
X018264Y010760D01*
X018096Y010760D01*
X017942Y010824D01*
X017824Y010942D01*
X017760Y011096D01*
X017760Y011563D01*
X017620Y011703D01*
X017620Y011440D01*
X017180Y011440D01*
X017180Y011440D01*
X017620Y011440D01*
X017620Y011145D01*
X017609Y011077D01*
X017588Y011011D01*
X017556Y010949D01*
X017516Y010893D01*
X017467Y010844D01*
X017411Y010804D01*
X017349Y010772D01*
X017283Y010751D01*
X017215Y010740D01*
X017180Y010740D01*
X017180Y011440D01*
X017180Y011440D01*
X017180Y011440D01*
X016740Y011440D01*
X016740Y011735D01*
X016751Y011803D01*
X016592Y011803D01*
X016600Y011784D02*
X016536Y011938D01*
X016418Y012056D01*
X016264Y012120D01*
X016096Y012120D01*
X015942Y012056D01*
X015890Y012004D01*
X015890Y012376D01*
X015942Y012324D01*
X016096Y012260D01*
X016264Y012260D01*
X016418Y012324D01*
X016458Y012365D01*
X016841Y011982D01*
X016804Y011931D01*
X016772Y011869D01*
X016751Y011803D01*
X016600Y011784D02*
X016600Y011096D01*
X016536Y010942D01*
X016418Y010824D01*
X016264Y010760D01*
X016096Y010760D01*
X016040Y010783D01*
X016040Y010743D01*
X015985Y010611D01*
X015884Y010510D01*
X015752Y010455D01*
X015608Y010455D01*
X015476Y010510D01*
X015375Y010611D01*
X015320Y010743D01*
X015320Y010783D01*
X015264Y010760D01*
X015096Y010760D01*
X014942Y010824D01*
X014824Y010942D01*
X014760Y011096D01*
X014760Y011563D01*
X014600Y011723D01*
X014600Y011096D01*
X014536Y010942D01*
X014418Y010824D01*
X014264Y010760D01*
X014096Y010760D01*
X013942Y010824D01*
X013824Y010942D01*
X013760Y011096D01*
X013760Y011784D01*
X013785Y011844D01*
X013752Y011830D01*
X013608Y011830D01*
X013476Y011885D01*
X013386Y011974D01*
X013272Y011860D01*
X013354Y011860D01*
X013600Y011614D01*
X013600Y011266D01*
X013354Y011020D01*
X013162Y011020D01*
X013165Y011012D01*
X013165Y010880D01*
X013180Y010880D01*
X013180Y010440D01*
X013180Y010440D01*
X013620Y010440D01*
X013620Y010622D01*
X013362Y010880D01*
X013180Y010880D01*
X013180Y010440D01*
X013180Y010440D01*
X013620Y010440D01*
X013620Y010258D01*
X013362Y010000D01*
X013180Y010000D01*
X013180Y010440D01*
X013180Y010440D01*
X013180Y010440D01*
X012740Y010440D01*
X012740Y010578D01*
X011562Y009400D01*
X012892Y009400D01*
X013095Y009197D01*
X013125Y009269D01*
X013226Y009370D01*
X013358Y009425D01*
X013493Y009425D01*
X014343Y010275D01*
X016093Y010275D01*
X016343Y010525D01*
X018381Y010525D01*
X018476Y010620D01*
X018608Y010675D01*
X018752Y010675D01*
X018884Y010620D01*
X018985Y010519D01*
X019040Y010387D01*
X019040Y010243D01*
X019001Y010150D01*
X020195Y010150D01*
X020195Y010262D01*
X020250Y010394D01*
X020351Y010495D01*
X020483Y010550D01*
X020627Y010550D01*
X020759Y010495D01*
X020860Y010394D01*
X020915Y010262D01*
X020915Y010118D01*
X020860Y009986D01*
X020774Y009900D01*
X021211Y009900D01*
X021125Y009986D01*
X021070Y010118D01*
X021070Y010262D01*
X021125Y010394D01*
X021226Y010495D01*
X021358Y010550D01*
X021502Y010550D01*
X021634Y010495D01*
X021735Y010394D01*
X021790Y010262D01*
X021790Y010150D01*
X025116Y010150D01*
X025064Y010202D01*
X025000Y010356D01*
X025000Y010524D01*
X025064Y010678D01*
X025182Y010796D01*
X025336Y010860D01*
X025963Y010860D01*
X025803Y011020D01*
X025336Y011020D01*
X025182Y011084D01*
X025064Y011202D01*
X025000Y011356D01*
X025000Y011524D01*
X025064Y011678D01*
X025182Y011796D01*
X025336Y011860D01*
X026024Y011860D01*
X026178Y011796D01*
X026296Y011678D01*
X026360Y011524D01*
X026360Y011356D01*
X026296Y011202D01*
X026255Y011162D01*
X027886Y009531D01*
X027976Y009620D01*
X028108Y009675D01*
X028195Y009675D01*
X028195Y009762D01*
X028250Y009894D01*
X028351Y009995D01*
X028483Y010050D01*
X028627Y010050D01*
X028759Y009995D01*
X028860Y009894D01*
X028915Y009762D01*
X028915Y009618D01*
X028860Y009486D01*
X028765Y009391D01*
X028765Y009150D01*
X030631Y009150D01*
X030726Y009245D01*
X030858Y009300D01*
X031002Y009300D01*
X031028Y009289D01*
X031000Y009356D01*
X031000Y009524D01*
X031064Y009678D01*
X031182Y009796D01*
X031336Y009860D01*
X031803Y009860D01*
X031963Y010020D01*
X031336Y010020D01*
X031182Y010084D01*
X031064Y010202D01*
X031000Y010356D01*
X031000Y010524D01*
X031064Y010678D01*
X031116Y010730D01*
X029854Y010730D01*
X029759Y010635D01*
X029627Y010580D01*
X029483Y010580D01*
X029351Y010635D01*
X029250Y010736D01*
X029195Y010868D01*
X029195Y011012D01*
X029250Y011144D01*
X029351Y011245D01*
X029483Y011300D01*
X029627Y011300D01*
X029759Y011245D01*
X029854Y011150D01*
X031088Y011150D01*
X031084Y011153D01*
X031044Y011209D01*
X031012Y011271D01*
X030991Y011337D01*
X030980Y011405D01*
X030980Y011440D01*
X031680Y011440D01*
X031680Y011440D01*
X030980Y011440D01*
X030980Y011475D01*
X030991Y011543D01*
X031012Y011609D01*
X031044Y011671D01*
X031084Y011727D01*
X031106Y011748D01*
X031030Y011645D02*
X027985Y011645D01*
X028040Y011486D02*
X030982Y011486D01*
X030994Y011328D02*
X028023Y011328D01*
X027918Y011169D02*
X029275Y011169D01*
X029195Y011011D02*
X026406Y011011D01*
X026263Y011169D02*
X027442Y011169D01*
X027337Y011328D02*
X026348Y011328D01*
X026360Y011486D02*
X027320Y011486D01*
X027178Y011645D02*
X026310Y011645D01*
X026161Y011803D02*
X027020Y011803D01*
X026861Y011962D02*
X023999Y011962D01*
X024140Y012120D02*
X025146Y012120D01*
X025032Y012279D02*
X024140Y012279D01*
X024140Y012437D02*
X025000Y012437D01*
X025030Y012596D02*
X024140Y012596D01*
X024140Y012754D02*
X025140Y012754D01*
X025213Y013071D02*
X024140Y013071D01*
X024140Y012913D02*
X025910Y012913D01*
X026346Y013071D02*
X030764Y013071D01*
X030720Y012913D02*
X026504Y012913D01*
X026663Y012754D02*
X030720Y012754D01*
X030720Y012596D02*
X026821Y012596D01*
X026980Y012437D02*
X030720Y012437D01*
X030634Y012279D02*
X027138Y012279D01*
X027297Y012120D02*
X030570Y012120D01*
X030583Y011962D02*
X027455Y011962D01*
X027614Y011803D02*
X030683Y011803D01*
X031073Y011169D02*
X029835Y011169D01*
X029818Y010694D02*
X031080Y010694D01*
X031005Y010535D02*
X026882Y010535D01*
X027040Y010377D02*
X031000Y010377D01*
X031057Y010218D02*
X027199Y010218D01*
X027357Y010060D02*
X031241Y010060D01*
X031129Y009743D02*
X028915Y009743D01*
X028901Y009584D02*
X031025Y009584D01*
X031000Y009426D02*
X028800Y009426D01*
X028765Y009267D02*
X030779Y009267D01*
X031276Y009045D02*
X031336Y009020D01*
X032024Y009020D01*
X032178Y009084D01*
X032296Y009202D01*
X032360Y009356D01*
X032360Y009524D01*
X032296Y009678D01*
X032255Y009718D01*
X032652Y010115D01*
X032682Y010084D01*
X032836Y010020D01*
X033524Y010020D01*
X033678Y010084D01*
X033796Y010202D01*
X033860Y010356D01*
X033860Y010524D01*
X033796Y010678D01*
X033744Y010730D01*
X035588Y010730D01*
X035584Y010727D01*
X035544Y010671D01*
X035512Y010609D01*
X035491Y010543D01*
X035480Y010475D01*
X035480Y010440D01*
X036180Y010440D01*
X036880Y010440D01*
X036880Y010475D01*
X036869Y010543D01*
X036848Y010609D01*
X036816Y010671D01*
X036776Y010727D01*
X036772Y010730D01*
X037268Y010730D01*
X037408Y010590D01*
X036968Y010150D01*
X036772Y010150D01*
X036776Y010153D01*
X036816Y010209D01*
X036848Y010271D01*
X036869Y010337D01*
X036880Y010405D01*
X036880Y010440D01*
X036180Y010440D01*
X036180Y010440D01*
X036180Y010440D01*
X035480Y010440D01*
X035480Y010405D01*
X035491Y010337D01*
X035512Y010271D01*
X035544Y010209D01*
X035584Y010153D01*
X035590Y010147D01*
X035470Y010027D01*
X033860Y008417D01*
X033860Y008524D01*
X033796Y008678D01*
X033693Y008781D01*
X033765Y008853D01*
X034617Y009705D01*
X034752Y009705D01*
X034884Y009760D01*
X034985Y009861D01*
X035040Y009993D01*
X035040Y010137D01*
X034985Y010269D01*
X034884Y010370D01*
X034752Y010425D01*
X034608Y010425D01*
X034476Y010370D01*
X034375Y010269D01*
X034320Y010137D01*
X034320Y010002D01*
X033855Y009537D01*
X033796Y009678D01*
X033678Y009796D01*
X033524Y009860D01*
X032836Y009860D01*
X032682Y009796D01*
X032564Y009678D01*
X032500Y009524D01*
X032500Y009356D01*
X032564Y009202D01*
X032667Y009099D01*
X032343Y008775D01*
X032284Y008716D01*
X032276Y008727D01*
X032227Y008776D01*
X032171Y008816D01*
X032109Y008848D01*
X032043Y008869D01*
X031975Y008880D01*
X031680Y008880D01*
X031680Y008440D01*
X031680Y008440D01*
X031680Y008880D01*
X031385Y008880D01*
X031317Y008869D01*
X031286Y008859D01*
X031290Y008868D01*
X031290Y009012D01*
X031276Y009045D01*
X031290Y008950D02*
X032518Y008950D01*
X032658Y009109D02*
X032202Y009109D01*
X032323Y009267D02*
X032537Y009267D01*
X032500Y009426D02*
X032360Y009426D01*
X032335Y009584D02*
X032525Y009584D01*
X032629Y009743D02*
X032279Y009743D01*
X032438Y009901D02*
X034219Y009901D01*
X034320Y010060D02*
X033619Y010060D01*
X033803Y010218D02*
X034354Y010218D01*
X034491Y010377D02*
X033860Y010377D01*
X033855Y010535D02*
X035490Y010535D01*
X035485Y010377D02*
X034869Y010377D01*
X035006Y010218D02*
X035539Y010218D01*
X035503Y010060D02*
X035040Y010060D01*
X035002Y009901D02*
X035344Y009901D01*
X035186Y009743D02*
X034842Y009743D01*
X035027Y009584D02*
X034496Y009584D01*
X034337Y009426D02*
X034869Y009426D01*
X034710Y009267D02*
X034179Y009267D01*
X034020Y009109D02*
X034552Y009109D01*
X034393Y008950D02*
X033862Y008950D01*
X033703Y008792D02*
X034235Y008792D01*
X034076Y008633D02*
X033815Y008633D01*
X033860Y008475D02*
X033918Y008475D01*
X034752Y007841D02*
X035159Y007841D01*
X035317Y007999D02*
X034911Y007999D01*
X035069Y008158D02*
X035581Y008158D01*
X035584Y008153D02*
X035544Y008209D01*
X035512Y008271D01*
X035491Y008337D01*
X035480Y008405D01*
X035480Y008440D01*
X036180Y008440D01*
X036880Y008440D01*
X036880Y008475D01*
X036869Y008543D01*
X036848Y008609D01*
X036816Y008671D01*
X036776Y008727D01*
X036770Y008733D01*
X036890Y008853D01*
X037537Y009500D01*
X037862Y009500D01*
X038120Y009758D01*
X038120Y010122D01*
X037952Y010290D01*
X038267Y010605D01*
X038330Y010668D01*
X038498Y010500D01*
X038862Y010500D01*
X039120Y010758D01*
X039120Y011122D01*
X038862Y011380D01*
X038498Y011380D01*
X038390Y011272D01*
X038390Y013396D01*
X038527Y013359D01*
X038833Y013359D01*
X039128Y013438D01*
X039392Y013591D01*
X039608Y013806D01*
X039761Y014071D01*
X039770Y014105D01*
X039770Y003940D01*
X035977Y003940D01*
X037537Y005500D01*
X037862Y005500D01*
X038120Y005758D01*
X038120Y006122D01*
X037862Y006380D01*
X037498Y006380D01*
X037240Y006122D01*
X037240Y005797D01*
X036860Y005417D01*
X036860Y005524D01*
X036796Y005678D01*
X036744Y005730D01*
X036767Y005730D01*
X036890Y005853D01*
X037537Y006500D01*
X037862Y006500D01*
X038120Y006758D01*
X038120Y007122D01*
X037862Y007380D01*
X037498Y007380D01*
X037240Y007122D01*
X037240Y006797D01*
X036860Y006417D01*
X036860Y006524D01*
X036796Y006678D01*
X036744Y006730D01*
X036767Y006730D01*
X036890Y006853D01*
X036890Y006853D01*
X037537Y007500D01*
X037862Y007500D01*
X038120Y007758D01*
X038120Y008122D01*
X037862Y008380D01*
X037498Y008380D01*
X037240Y008122D01*
X037240Y007797D01*
X036860Y007417D01*
X036860Y007524D01*
X036796Y007678D01*
X036744Y007730D01*
X036767Y007730D01*
X036890Y007853D01*
X037537Y008500D01*
X037862Y008500D01*
X038120Y008758D01*
X038120Y009122D01*
X037862Y009380D01*
X037498Y009380D01*
X037240Y009122D01*
X037240Y008797D01*
X036880Y008437D01*
X036880Y008440D01*
X036180Y008440D01*
X036180Y008440D01*
X036180Y008440D01*
X035480Y008440D01*
X035480Y008475D01*
X035491Y008543D01*
X035508Y008596D01*
X033765Y006853D01*
X033693Y006781D01*
X033796Y006678D01*
X033855Y006537D01*
X035468Y008150D01*
X035588Y008150D01*
X035584Y008153D01*
X035498Y008316D02*
X035228Y008316D01*
X035386Y008475D02*
X035480Y008475D01*
X035000Y007682D02*
X034594Y007682D01*
X034435Y007524D02*
X034842Y007524D01*
X034683Y007365D02*
X034277Y007365D01*
X034118Y007207D02*
X034525Y007207D01*
X034366Y007048D02*
X033960Y007048D01*
X033801Y006890D02*
X034208Y006890D01*
X034049Y006731D02*
X033743Y006731D01*
X033840Y006573D02*
X033891Y006573D01*
X032588Y005730D02*
X032584Y005727D01*
X032544Y005671D01*
X032512Y005609D01*
X032491Y005543D01*
X032480Y005475D01*
X032480Y005440D01*
X033180Y005440D01*
X033180Y005000D01*
X033318Y005000D01*
X032968Y004650D01*
X032069Y004650D01*
X032160Y004741D01*
X032160Y004920D01*
X031700Y004920D01*
X031700Y004960D01*
X031660Y004960D01*
X031660Y005420D01*
X031481Y005420D01*
X031200Y005139D01*
X031200Y004960D01*
X031660Y004960D01*
X031660Y004920D01*
X031200Y004920D01*
X031200Y004741D01*
X031291Y004650D01*
X031041Y004650D01*
X031140Y004749D01*
X031140Y005131D01*
X030871Y005400D01*
X030489Y005400D01*
X030220Y005131D01*
X030220Y004749D01*
X030319Y004650D01*
X030041Y004650D01*
X030140Y004749D01*
X030140Y005131D01*
X029871Y005400D01*
X029489Y005400D01*
X029220Y005131D01*
X029220Y004749D01*
X029319Y004650D01*
X029041Y004650D01*
X029140Y004749D01*
X029140Y005131D01*
X028871Y005400D01*
X028489Y005400D01*
X028385Y005295D01*
X028415Y005368D01*
X028415Y005512D01*
X028385Y005585D01*
X028489Y005480D01*
X028871Y005480D01*
X029140Y005749D01*
X029140Y006131D01*
X029041Y006230D01*
X029093Y006230D01*
X029220Y006103D01*
X029220Y005749D01*
X029489Y005480D01*
X029871Y005480D01*
X030140Y005749D01*
X030140Y006131D01*
X029871Y006400D01*
X029517Y006400D01*
X029437Y006480D01*
X031468Y006480D01*
X031548Y006400D01*
X031489Y006400D01*
X031220Y006131D01*
X031220Y005749D01*
X031489Y005480D01*
X031871Y005480D01*
X032140Y005749D01*
X032140Y005808D01*
X032218Y005730D01*
X032588Y005730D01*
X032519Y005622D02*
X032012Y005622D01*
X032140Y005780D02*
X032168Y005780D01*
X032480Y005463D02*
X028415Y005463D01*
X028394Y005305D02*
X028389Y005305D01*
X028966Y005305D02*
X029394Y005305D01*
X029235Y005146D02*
X029125Y005146D01*
X029140Y004988D02*
X029220Y004988D01*
X029220Y004829D02*
X029140Y004829D01*
X029061Y004671D02*
X029299Y004671D01*
X030061Y004671D02*
X030299Y004671D01*
X030220Y004829D02*
X030140Y004829D01*
X030140Y004988D02*
X030220Y004988D01*
X030235Y005146D02*
X030125Y005146D01*
X029966Y005305D02*
X030394Y005305D01*
X030489Y005480D02*
X030871Y005480D01*
X031140Y005749D01*
X031140Y006131D01*
X030871Y006400D01*
X030489Y006400D01*
X030220Y006131D01*
X030220Y005749D01*
X030489Y005480D01*
X030348Y005622D02*
X030012Y005622D01*
X030140Y005780D02*
X030220Y005780D01*
X030220Y005939D02*
X030140Y005939D01*
X030140Y006097D02*
X030220Y006097D01*
X030345Y006256D02*
X030015Y006256D01*
X029503Y006414D02*
X031534Y006414D01*
X031345Y006256D02*
X031015Y006256D01*
X031140Y006097D02*
X031220Y006097D01*
X031220Y005939D02*
X031140Y005939D01*
X031140Y005780D02*
X031220Y005780D01*
X031348Y005622D02*
X031012Y005622D01*
X030966Y005305D02*
X031366Y005305D01*
X031207Y005146D02*
X031125Y005146D01*
X031140Y004988D02*
X031200Y004988D01*
X031200Y004829D02*
X031140Y004829D01*
X031061Y004671D02*
X031271Y004671D01*
X031660Y004988D02*
X031700Y004988D01*
X031700Y004960D02*
X031700Y005420D01*
X031879Y005420D01*
X032160Y005139D01*
X032160Y004960D01*
X031700Y004960D01*
X031700Y005146D02*
X031660Y005146D01*
X031660Y005305D02*
X031700Y005305D01*
X031994Y005305D02*
X032501Y005305D01*
X032491Y005337D02*
X032512Y005271D01*
X032544Y005209D01*
X032584Y005153D01*
X032633Y005104D01*
X032689Y005064D01*
X032751Y005032D01*
X032817Y005011D01*
X032885Y005000D01*
X033180Y005000D01*
X033180Y005440D01*
X033180Y005440D01*
X033180Y005440D01*
X032480Y005440D01*
X032480Y005405D01*
X032491Y005337D01*
X032592Y005146D02*
X032153Y005146D01*
X032160Y004988D02*
X033306Y004988D01*
X033180Y005146D02*
X033180Y005146D01*
X033180Y005305D02*
X033180Y005305D01*
X033147Y004829D02*
X032160Y004829D01*
X032089Y004671D02*
X032989Y004671D01*
X036073Y004037D02*
X039770Y004037D01*
X039770Y004195D02*
X036232Y004195D01*
X036390Y004354D02*
X039770Y004354D01*
X039770Y004512D02*
X036549Y004512D01*
X036707Y004671D02*
X039770Y004671D01*
X039770Y004829D02*
X036866Y004829D01*
X037024Y004988D02*
X039770Y004988D01*
X039770Y005146D02*
X037183Y005146D01*
X037341Y005305D02*
X039770Y005305D01*
X039770Y005463D02*
X037500Y005463D01*
X037065Y005622D02*
X036819Y005622D01*
X036817Y005780D02*
X037223Y005780D01*
X037240Y005939D02*
X036975Y005939D01*
X037134Y006097D02*
X037240Y006097D01*
X037292Y006256D02*
X037373Y006256D01*
X037451Y006414D02*
X039770Y006414D01*
X039770Y006256D02*
X038987Y006256D01*
X038862Y006380D02*
X039120Y006122D01*
X039120Y005758D01*
X038862Y005500D01*
X038498Y005500D01*
X038240Y005758D01*
X038240Y006122D01*
X038498Y006380D01*
X038862Y006380D01*
X038862Y006500D02*
X039120Y006758D01*
X039120Y007122D01*
X038862Y007380D01*
X038498Y007380D01*
X038240Y007122D01*
X038240Y006758D01*
X038498Y006500D01*
X038862Y006500D01*
X038935Y006573D02*
X039770Y006573D01*
X039770Y006731D02*
X039093Y006731D01*
X039120Y006890D02*
X039770Y006890D01*
X039770Y007048D02*
X039120Y007048D01*
X039036Y007207D02*
X039770Y007207D01*
X039770Y007365D02*
X038877Y007365D01*
X038862Y007500D02*
X038498Y007500D01*
X038240Y007758D01*
X038240Y008122D01*
X038498Y008380D01*
X038862Y008380D01*
X039120Y008122D01*
X039120Y007758D01*
X038862Y007500D01*
X038886Y007524D02*
X039770Y007524D01*
X039770Y007682D02*
X039044Y007682D01*
X039120Y007841D02*
X039770Y007841D01*
X039770Y007999D02*
X039120Y007999D01*
X039085Y008158D02*
X039770Y008158D01*
X039770Y008316D02*
X038926Y008316D01*
X038862Y008500D02*
X039120Y008758D01*
X039120Y009122D01*
X038862Y009380D01*
X038498Y009380D01*
X038240Y009122D01*
X038240Y008758D01*
X038498Y008500D01*
X038862Y008500D01*
X038995Y008633D02*
X039770Y008633D01*
X039770Y008475D02*
X037511Y008475D01*
X037434Y008316D02*
X037353Y008316D01*
X037275Y008158D02*
X037194Y008158D01*
X037240Y007999D02*
X037036Y007999D01*
X036877Y007841D02*
X037240Y007841D01*
X037125Y007682D02*
X036792Y007682D01*
X036860Y007524D02*
X036967Y007524D01*
X037243Y007207D02*
X037324Y007207D01*
X037402Y007365D02*
X037483Y007365D01*
X037877Y007365D02*
X038483Y007365D01*
X038474Y007524D02*
X037886Y007524D01*
X038044Y007682D02*
X038316Y007682D01*
X038240Y007841D02*
X038120Y007841D01*
X038120Y007999D02*
X038240Y007999D01*
X038275Y008158D02*
X038085Y008158D01*
X037926Y008316D02*
X038434Y008316D01*
X038365Y008633D02*
X037995Y008633D01*
X038120Y008792D02*
X038240Y008792D01*
X038240Y008950D02*
X038120Y008950D01*
X038120Y009109D02*
X038240Y009109D01*
X038385Y009267D02*
X037975Y009267D01*
X037946Y009584D02*
X038414Y009584D01*
X038498Y009500D02*
X038862Y009500D01*
X039120Y009758D01*
X039120Y010122D01*
X038862Y010380D01*
X038498Y010380D01*
X038240Y010122D01*
X038240Y009758D01*
X038498Y009500D01*
X038255Y009743D02*
X038105Y009743D01*
X038120Y009901D02*
X038240Y009901D01*
X038240Y010060D02*
X038120Y010060D01*
X038024Y010218D02*
X038336Y010218D01*
X038494Y010377D02*
X038039Y010377D01*
X038197Y010535D02*
X038463Y010535D01*
X038267Y010605D02*
X038267Y010605D01*
X038897Y010535D02*
X039770Y010535D01*
X039770Y010377D02*
X038866Y010377D01*
X039024Y010218D02*
X039770Y010218D01*
X039770Y010060D02*
X039120Y010060D01*
X039120Y009901D02*
X039770Y009901D01*
X039770Y009743D02*
X039105Y009743D01*
X038946Y009584D02*
X039770Y009584D01*
X039770Y009426D02*
X037463Y009426D01*
X037385Y009267D02*
X037304Y009267D01*
X037240Y009109D02*
X037145Y009109D01*
X037240Y008950D02*
X036987Y008950D01*
X036828Y008792D02*
X037235Y008792D01*
X037076Y008633D02*
X036835Y008633D01*
X036880Y008475D02*
X036918Y008475D01*
X038036Y007207D02*
X038324Y007207D01*
X038240Y007048D02*
X038120Y007048D01*
X038120Y006890D02*
X038240Y006890D01*
X038267Y006731D02*
X038093Y006731D01*
X037935Y006573D02*
X038425Y006573D01*
X038373Y006256D02*
X037987Y006256D01*
X038120Y006097D02*
X038240Y006097D01*
X038240Y005939D02*
X038120Y005939D01*
X038120Y005780D02*
X038240Y005780D01*
X038376Y005622D02*
X037984Y005622D01*
X038984Y005622D02*
X039770Y005622D01*
X039770Y005780D02*
X039120Y005780D01*
X039120Y005939D02*
X039770Y005939D01*
X039770Y006097D02*
X039120Y006097D01*
X037240Y006890D02*
X036926Y006890D01*
X036768Y006731D02*
X037174Y006731D01*
X037016Y006573D02*
X036840Y006573D01*
X037085Y007048D02*
X037240Y007048D01*
X036906Y005463D02*
X036860Y005463D01*
X032220Y007900D02*
X032220Y008100D01*
X032171Y008064D01*
X032109Y008032D01*
X032043Y008011D01*
X031975Y008000D01*
X031680Y008000D01*
X031680Y008440D01*
X031680Y008440D01*
X031680Y008440D01*
X030980Y008440D01*
X030980Y008475D01*
X030991Y008543D01*
X031003Y008581D01*
X031002Y008580D01*
X030858Y008580D01*
X030726Y008635D01*
X030631Y008730D01*
X026272Y008730D01*
X026276Y008727D01*
X026316Y008671D01*
X026348Y008609D01*
X026369Y008543D01*
X026380Y008475D01*
X026380Y008440D01*
X025680Y008440D01*
X025680Y008440D01*
X025680Y008440D01*
X025680Y008880D01*
X025943Y008880D01*
X025803Y009020D01*
X025336Y009020D01*
X025182Y009084D01*
X025064Y009202D01*
X025000Y009356D01*
X025000Y009524D01*
X025064Y009678D01*
X025116Y009730D01*
X024062Y009730D01*
X024492Y009300D01*
X024627Y009300D01*
X024759Y009245D01*
X024860Y009144D01*
X024915Y009012D01*
X024915Y008868D01*
X024860Y008736D01*
X024759Y008635D01*
X024627Y008580D01*
X024483Y008580D01*
X024351Y008635D01*
X024250Y008736D01*
X024195Y008868D01*
X024195Y009003D01*
X023718Y009480D01*
X021501Y009480D01*
X021540Y009387D01*
X021540Y009243D01*
X021485Y009111D01*
X021424Y009050D01*
X021536Y008938D01*
X021600Y008784D01*
X021600Y008096D01*
X021536Y007942D01*
X021418Y007824D01*
X021264Y007760D01*
X021096Y007760D01*
X020942Y007824D01*
X020902Y007865D01*
X020646Y007609D01*
X020735Y007519D01*
X020784Y007400D01*
X021609Y007400D01*
X021570Y007493D01*
X021570Y007637D01*
X021625Y007769D01*
X021726Y007870D01*
X021846Y007920D01*
X021824Y007942D01*
X021760Y008096D01*
X021760Y008784D01*
X021824Y008938D01*
X021942Y009056D01*
X022096Y009120D01*
X022264Y009120D01*
X022418Y009056D01*
X022536Y008938D01*
X022600Y008784D01*
X022600Y008172D01*
X022608Y008175D01*
X022740Y008175D01*
X022740Y008440D01*
X023180Y008440D01*
X023180Y008440D01*
X023180Y009140D01*
X023215Y009140D01*
X023283Y009129D01*
X023349Y009108D01*
X023411Y009076D01*
X023467Y009036D01*
X023516Y008987D01*
X023556Y008931D01*
X023588Y008869D01*
X023609Y008803D01*
X023620Y008735D01*
X023620Y008440D01*
X023180Y008440D01*
X023180Y008440D01*
X023180Y008440D01*
X023180Y009140D01*
X023145Y009140D01*
X023077Y009129D01*
X023011Y009108D01*
X022949Y009076D01*
X022893Y009036D01*
X022844Y008987D01*
X022804Y008931D01*
X022772Y008869D01*
X022751Y008803D01*
X022740Y008735D01*
X022740Y008440D01*
X023180Y008440D01*
X023620Y008440D01*
X023620Y008145D01*
X023609Y008077D01*
X023588Y008011D01*
X023556Y007949D01*
X023520Y007900D01*
X023576Y007900D01*
X023625Y008019D01*
X023726Y008120D01*
X023858Y008175D01*
X024002Y008175D01*
X024134Y008120D01*
X024235Y008019D01*
X024284Y007900D01*
X032220Y007900D01*
X032220Y007999D02*
X024243Y007999D01*
X024044Y008158D02*
X025081Y008158D01*
X025084Y008153D02*
X025133Y008104D01*
X025189Y008064D01*
X025251Y008032D01*
X025317Y008011D01*
X025385Y008000D01*
X025680Y008000D01*
X025975Y008000D01*
X026043Y008011D01*
X026109Y008032D01*
X026171Y008064D01*
X026227Y008104D01*
X026276Y008153D01*
X026316Y008209D01*
X026348Y008271D01*
X026369Y008337D01*
X026380Y008405D01*
X026380Y008440D01*
X025680Y008440D01*
X025680Y008000D01*
X025680Y008440D01*
X025680Y008440D01*
X025680Y008440D01*
X024980Y008440D01*
X024980Y008475D01*
X024991Y008543D01*
X025012Y008609D01*
X025044Y008671D01*
X025084Y008727D01*
X025133Y008776D01*
X025189Y008816D01*
X025251Y008848D01*
X025317Y008869D01*
X025385Y008880D01*
X025680Y008880D01*
X025680Y008440D01*
X024980Y008440D01*
X024980Y008405D01*
X024991Y008337D01*
X025012Y008271D01*
X025044Y008209D01*
X025084Y008153D01*
X024998Y008316D02*
X023620Y008316D01*
X023620Y008158D02*
X023816Y008158D01*
X023617Y007999D02*
X023582Y007999D01*
X023620Y008475D02*
X024980Y008475D01*
X025025Y008633D02*
X024755Y008633D01*
X024883Y008792D02*
X025155Y008792D01*
X024915Y008950D02*
X025873Y008950D01*
X025680Y008792D02*
X025680Y008792D01*
X025680Y008633D02*
X025680Y008633D01*
X025680Y008475D02*
X025680Y008475D01*
X025680Y008316D02*
X025680Y008316D01*
X025680Y008158D02*
X025680Y008158D01*
X026279Y008158D02*
X031081Y008158D01*
X031084Y008153D02*
X031133Y008104D01*
X031189Y008064D01*
X031251Y008032D01*
X031317Y008011D01*
X031385Y008000D01*
X031680Y008000D01*
X031680Y008440D01*
X030980Y008440D01*
X030980Y008405D01*
X030991Y008337D01*
X031012Y008271D01*
X031044Y008209D01*
X031084Y008153D01*
X030998Y008316D02*
X026362Y008316D01*
X026380Y008475D02*
X030980Y008475D01*
X030730Y008633D02*
X026335Y008633D01*
X025158Y009109D02*
X024875Y009109D01*
X025037Y009267D02*
X024706Y009267D01*
X025000Y009426D02*
X024366Y009426D01*
X024208Y009584D02*
X025025Y009584D01*
X024195Y008950D02*
X023542Y008950D01*
X023611Y008792D02*
X024227Y008792D01*
X024355Y008633D02*
X023620Y008633D01*
X023180Y008633D02*
X023180Y008633D01*
X023180Y008475D02*
X023180Y008475D01*
X023180Y008792D02*
X023180Y008792D01*
X023180Y008950D02*
X023180Y008950D01*
X023180Y009109D02*
X023180Y009109D01*
X023347Y009109D02*
X024089Y009109D01*
X023931Y009267D02*
X021540Y009267D01*
X021524Y009426D02*
X023772Y009426D01*
X023013Y009109D02*
X022291Y009109D01*
X022069Y009109D02*
X021483Y009109D01*
X021524Y008950D02*
X021836Y008950D01*
X021763Y008792D02*
X021597Y008792D01*
X021600Y008633D02*
X021760Y008633D01*
X021760Y008475D02*
X021600Y008475D01*
X021600Y008316D02*
X021760Y008316D01*
X021760Y008158D02*
X021600Y008158D01*
X021560Y007999D02*
X021800Y007999D01*
X021696Y007841D02*
X021434Y007841D01*
X021589Y007682D02*
X020719Y007682D01*
X020731Y007524D02*
X021570Y007524D01*
X020926Y007841D02*
X020877Y007841D01*
X022600Y008316D02*
X022740Y008316D01*
X022740Y008475D02*
X022600Y008475D01*
X022600Y008633D02*
X022740Y008633D01*
X022749Y008792D02*
X022597Y008792D01*
X022524Y008950D02*
X022818Y008950D01*
X021210Y009901D02*
X020775Y009901D01*
X020891Y010060D02*
X021094Y010060D01*
X021070Y010218D02*
X020915Y010218D01*
X020867Y010377D02*
X021118Y010377D01*
X021322Y010535D02*
X020663Y010535D01*
X020447Y010535D02*
X018969Y010535D01*
X019040Y010377D02*
X020243Y010377D01*
X020195Y010218D02*
X019029Y010218D01*
X018914Y010852D02*
X018446Y010852D01*
X018564Y011011D02*
X018796Y011011D01*
X018760Y011169D02*
X018600Y011169D01*
X018600Y011328D02*
X018760Y011328D01*
X018760Y011486D02*
X018600Y011486D01*
X018600Y011645D02*
X018760Y011645D01*
X018768Y011803D02*
X018592Y011803D01*
X018512Y011962D02*
X018848Y011962D01*
X018703Y012120D02*
X017797Y012120D01*
X017638Y012279D02*
X018052Y012279D01*
X018308Y012279D02*
X018544Y012279D01*
X017829Y012437D02*
X017531Y012437D01*
X017600Y012596D02*
X017760Y012596D01*
X017760Y012754D02*
X017600Y012754D01*
X017600Y012913D02*
X017760Y012913D01*
X017760Y013071D02*
X017600Y013071D01*
X017600Y013230D02*
X017760Y013230D01*
X017803Y013388D02*
X017557Y013388D01*
X017579Y013547D02*
X017781Y013547D01*
X017760Y013705D02*
X017600Y013705D01*
X017600Y013864D02*
X017760Y013864D01*
X017760Y014022D02*
X017600Y014022D01*
X017600Y014181D02*
X017760Y014181D01*
X017783Y014339D02*
X017577Y014339D01*
X017609Y014900D02*
X015968Y014900D01*
X015593Y014525D01*
X015521Y014453D01*
X015418Y014556D01*
X015264Y014620D01*
X015096Y014620D01*
X014942Y014556D01*
X014824Y014438D01*
X014760Y014284D01*
X014760Y013596D01*
X014824Y013442D01*
X014826Y013440D01*
X014824Y013438D01*
X014760Y013284D01*
X014760Y012596D01*
X014824Y012442D01*
X014942Y012324D01*
X015096Y012260D01*
X015264Y012260D01*
X015418Y012324D01*
X015470Y012376D01*
X015470Y012004D01*
X015418Y012056D01*
X015264Y012120D01*
X015096Y012120D01*
X014942Y012056D01*
X014902Y012015D01*
X013415Y013502D01*
X013415Y013637D01*
X013360Y013769D01*
X013259Y013870D01*
X013127Y013925D01*
X012983Y013925D01*
X012851Y013870D01*
X012750Y013769D01*
X012695Y013637D01*
X012695Y013493D01*
X012750Y013361D01*
X012851Y013260D01*
X012983Y013205D01*
X013118Y013205D01*
X013788Y012535D01*
X013752Y012550D01*
X013608Y012550D01*
X013476Y012495D01*
X013381Y012400D01*
X013218Y012400D01*
X013095Y012277D01*
X012100Y011282D01*
X012100Y011784D01*
X012036Y011938D01*
X011918Y012056D01*
X011764Y012120D01*
X011596Y012120D01*
X011442Y012056D01*
X011324Y011938D01*
X011260Y011784D01*
X011260Y011096D01*
X011324Y010942D01*
X011366Y010900D01*
X010994Y010900D01*
X011036Y010942D01*
X011100Y011096D01*
X011100Y011784D01*
X011036Y011938D01*
X010918Y012056D01*
X010865Y012078D01*
X010890Y012103D01*
X010890Y012348D01*
X010893Y012344D01*
X010949Y012304D01*
X011011Y012272D01*
X011077Y012251D01*
X011145Y012240D01*
X011180Y012240D01*
X011215Y012240D01*
X011283Y012251D01*
X011349Y012272D01*
X011411Y012304D01*
X011467Y012344D01*
X011516Y012393D01*
X011556Y012449D01*
X011588Y012511D01*
X011609Y012577D01*
X011620Y012645D01*
X011620Y012940D01*
X011620Y013235D01*
X011609Y013303D01*
X011588Y013369D01*
X011556Y013431D01*
X011516Y013487D01*
X011467Y013536D01*
X011456Y013544D01*
X011515Y013603D01*
X011515Y014902D01*
X011392Y015025D01*
X011165Y015252D01*
X011165Y015387D01*
X011110Y015519D01*
X011009Y015620D01*
X010877Y015675D01*
X010733Y015675D01*
X010601Y015620D01*
X010540Y015559D01*
X010540Y015637D01*
X010501Y015730D01*
X016968Y015730D01*
X017570Y015128D01*
X017570Y014993D01*
X017609Y014900D01*
X017578Y014973D02*
X011444Y014973D01*
X011515Y014815D02*
X015883Y014815D01*
X015724Y014656D02*
X011515Y014656D01*
X011515Y014498D02*
X014884Y014498D01*
X014783Y014339D02*
X011515Y014339D01*
X011515Y014181D02*
X014760Y014181D01*
X014760Y014022D02*
X011515Y014022D01*
X011515Y013864D02*
X012844Y013864D01*
X012723Y013705D02*
X011515Y013705D01*
X011459Y013547D02*
X012695Y013547D01*
X012739Y013388D02*
X011578Y013388D01*
X011620Y013230D02*
X012924Y013230D01*
X013252Y013071D02*
X011620Y013071D01*
X011620Y012940D02*
X011180Y012940D01*
X011180Y012940D01*
X011620Y012940D01*
X011620Y012913D02*
X013410Y012913D01*
X013569Y012754D02*
X011620Y012754D01*
X011612Y012596D02*
X013727Y012596D01*
X013418Y012437D02*
X011547Y012437D01*
X011361Y012279D02*
X013097Y012279D01*
X012938Y012120D02*
X010890Y012120D01*
X010890Y012279D02*
X010999Y012279D01*
X011180Y012279D02*
X011180Y012279D01*
X011180Y012240D02*
X011180Y012940D01*
X011180Y012940D01*
X011180Y012240D01*
X011180Y012437D02*
X011180Y012437D01*
X011180Y012596D02*
X011180Y012596D01*
X011180Y012754D02*
X011180Y012754D01*
X011180Y012913D02*
X011180Y012913D01*
X011012Y011962D02*
X011348Y011962D01*
X011268Y011803D02*
X011092Y011803D01*
X011100Y011645D02*
X011260Y011645D01*
X011260Y011486D02*
X011100Y011486D01*
X011100Y011328D02*
X011260Y011328D01*
X011260Y011169D02*
X011100Y011169D01*
X011064Y011011D02*
X011296Y011011D01*
X012100Y011328D02*
X012146Y011328D01*
X012100Y011486D02*
X012304Y011486D01*
X012463Y011645D02*
X012100Y011645D01*
X012092Y011803D02*
X012621Y011803D01*
X012780Y011962D02*
X012012Y011962D01*
X013374Y011962D02*
X013399Y011962D01*
X013411Y011803D02*
X013768Y011803D01*
X013760Y011645D02*
X013569Y011645D01*
X013600Y011486D02*
X013760Y011486D01*
X013760Y011328D02*
X013600Y011328D01*
X013503Y011169D02*
X013760Y011169D01*
X013796Y011011D02*
X013165Y011011D01*
X013180Y010852D02*
X013180Y010852D01*
X013180Y010694D02*
X013180Y010694D01*
X013180Y010535D02*
X013180Y010535D01*
X013180Y010440D02*
X012740Y010440D01*
X012740Y010258D01*
X012998Y010000D01*
X013180Y010000D01*
X013180Y010440D01*
X013180Y010377D02*
X013180Y010377D01*
X013180Y010218D02*
X013180Y010218D01*
X013180Y010060D02*
X013180Y010060D01*
X013422Y010060D02*
X014128Y010060D01*
X014286Y010218D02*
X013580Y010218D01*
X013620Y010377D02*
X016195Y010377D01*
X015909Y010535D02*
X018391Y010535D01*
X017914Y010852D02*
X017474Y010852D01*
X017587Y011011D02*
X017796Y011011D01*
X017760Y011169D02*
X017620Y011169D01*
X017620Y011328D02*
X017760Y011328D01*
X017760Y011486D02*
X017620Y011486D01*
X017620Y011645D02*
X017678Y011645D01*
X017180Y011440D02*
X017180Y010740D01*
X017145Y010740D01*
X017077Y010751D01*
X017011Y010772D01*
X016949Y010804D01*
X016893Y010844D01*
X016844Y010893D01*
X016804Y010949D01*
X016772Y011011D01*
X016751Y011077D01*
X016740Y011145D01*
X016740Y011440D01*
X017180Y011440D01*
X017180Y011328D02*
X017180Y011328D01*
X017180Y011169D02*
X017180Y011169D01*
X017180Y011011D02*
X017180Y011011D01*
X017180Y010852D02*
X017180Y010852D01*
X016886Y010852D02*
X016446Y010852D01*
X016564Y011011D02*
X016773Y011011D01*
X016740Y011169D02*
X016600Y011169D01*
X016600Y011328D02*
X016740Y011328D01*
X016740Y011486D02*
X016600Y011486D01*
X016600Y011645D02*
X016740Y011645D01*
X016826Y011962D02*
X016512Y011962D01*
X016703Y012120D02*
X015890Y012120D01*
X015890Y012279D02*
X016052Y012279D01*
X016308Y012279D02*
X016544Y012279D01*
X015470Y012279D02*
X015308Y012279D01*
X015470Y012120D02*
X014797Y012120D01*
X014638Y012279D02*
X015052Y012279D01*
X014829Y012437D02*
X014480Y012437D01*
X014321Y012596D02*
X014760Y012596D01*
X014760Y012754D02*
X014163Y012754D01*
X014004Y012913D02*
X014760Y012913D01*
X014760Y013071D02*
X013846Y013071D01*
X013687Y013230D02*
X014760Y013230D01*
X014803Y013388D02*
X013529Y013388D01*
X013415Y013547D02*
X014781Y013547D01*
X014760Y013705D02*
X013387Y013705D01*
X013266Y013864D02*
X014760Y013864D01*
X015476Y014498D02*
X015566Y014498D01*
X017091Y015607D02*
X011022Y015607D01*
X011139Y015449D02*
X017249Y015449D01*
X017408Y015290D02*
X011165Y015290D01*
X011285Y015132D02*
X017566Y015132D01*
X021577Y014339D02*
X021783Y014339D01*
X021760Y014181D02*
X021600Y014181D01*
X021600Y014022D02*
X021760Y014022D01*
X021760Y013864D02*
X021600Y013864D01*
X021600Y013705D02*
X021760Y013705D01*
X021781Y013547D02*
X021579Y013547D01*
X021557Y013388D02*
X021803Y013388D01*
X021760Y013230D02*
X021600Y013230D01*
X021600Y013071D02*
X021760Y013071D01*
X021760Y012913D02*
X021600Y012913D01*
X021600Y012754D02*
X021760Y012754D01*
X021760Y012596D02*
X021600Y012596D01*
X021531Y012437D02*
X021829Y012437D01*
X021638Y012279D02*
X022052Y012279D01*
X022308Y012279D02*
X022999Y012279D01*
X023011Y012272D02*
X023077Y012251D01*
X023145Y012240D01*
X023180Y012240D01*
X023215Y012240D01*
X023283Y012251D01*
X023349Y012272D01*
X023411Y012304D01*
X023467Y012344D01*
X023516Y012393D01*
X023556Y012449D01*
X023588Y012511D01*
X023609Y012577D01*
X023620Y012645D01*
X023620Y012940D01*
X023620Y013235D01*
X023609Y013303D01*
X023588Y013369D01*
X023556Y013431D01*
X023516Y013487D01*
X023467Y013536D01*
X023411Y013576D01*
X023349Y013608D01*
X023283Y013629D01*
X023215Y013640D01*
X023180Y013640D01*
X023180Y012940D01*
X023180Y012940D01*
X023620Y012940D01*
X023180Y012940D01*
X023180Y012940D01*
X023180Y012940D01*
X022740Y012940D01*
X022740Y013235D01*
X022751Y013303D01*
X022772Y013369D01*
X022804Y013431D01*
X022844Y013487D01*
X022893Y013536D01*
X022949Y013576D01*
X023011Y013608D01*
X023077Y013629D01*
X023145Y013640D01*
X023180Y013640D01*
X023180Y012940D01*
X023180Y012240D01*
X023180Y012940D01*
X023180Y012940D01*
X022740Y012940D01*
X022740Y012645D01*
X022751Y012577D01*
X022772Y012511D01*
X022804Y012449D01*
X022844Y012393D01*
X022893Y012344D01*
X022949Y012304D01*
X023011Y012272D01*
X023180Y012279D02*
X023180Y012279D01*
X023180Y012437D02*
X023180Y012437D01*
X023180Y012596D02*
X023180Y012596D01*
X023180Y012754D02*
X023180Y012754D01*
X023180Y012913D02*
X023180Y012913D01*
X023180Y013071D02*
X023180Y013071D01*
X023180Y013230D02*
X023180Y013230D01*
X023180Y013388D02*
X023180Y013388D01*
X023180Y013547D02*
X023180Y013547D01*
X022908Y013547D02*
X022579Y013547D01*
X022600Y013705D02*
X023720Y013705D01*
X023720Y013547D02*
X023452Y013547D01*
X023578Y013388D02*
X023720Y013388D01*
X023720Y013230D02*
X023620Y013230D01*
X023620Y013071D02*
X023720Y013071D01*
X023720Y012913D02*
X023620Y012913D01*
X023620Y012754D02*
X023720Y012754D01*
X023720Y012596D02*
X023612Y012596D01*
X023547Y012437D02*
X023720Y012437D01*
X023720Y012279D02*
X023361Y012279D01*
X023563Y012120D02*
X021797Y012120D01*
X022512Y011962D02*
X022848Y011962D01*
X022768Y011803D02*
X022592Y011803D01*
X022600Y011645D02*
X022760Y011645D01*
X022760Y011486D02*
X022600Y011486D01*
X022600Y011328D02*
X022760Y011328D01*
X022760Y011169D02*
X022600Y011169D01*
X022564Y011011D02*
X022796Y011011D01*
X022914Y010852D02*
X022446Y010852D01*
X021914Y010852D02*
X021446Y010852D01*
X021564Y011011D02*
X021796Y011011D01*
X021760Y011169D02*
X021600Y011169D01*
X021600Y011328D02*
X021760Y011328D01*
X021760Y011486D02*
X021600Y011486D01*
X021600Y011645D02*
X021678Y011645D01*
X020848Y011962D02*
X020512Y011962D01*
X020592Y011803D02*
X020768Y011803D01*
X020760Y011645D02*
X020600Y011645D01*
X020600Y011486D02*
X020760Y011486D01*
X020760Y011328D02*
X020600Y011328D01*
X020600Y011169D02*
X020760Y011169D01*
X020796Y011011D02*
X020564Y011011D01*
X020446Y010852D02*
X020914Y010852D01*
X021538Y010535D02*
X025005Y010535D01*
X025000Y010377D02*
X021742Y010377D01*
X021790Y010218D02*
X025057Y010218D01*
X025080Y010694D02*
X016019Y010694D01*
X015451Y010535D02*
X013620Y010535D01*
X013549Y010694D02*
X015341Y010694D01*
X014914Y010852D02*
X014446Y010852D01*
X014564Y011011D02*
X014796Y011011D01*
X014760Y011169D02*
X014600Y011169D01*
X014600Y011328D02*
X014760Y011328D01*
X014760Y011486D02*
X014600Y011486D01*
X014600Y011645D02*
X014678Y011645D01*
X013914Y010852D02*
X013390Y010852D01*
X012740Y010535D02*
X012697Y010535D01*
X012740Y010377D02*
X012539Y010377D01*
X012380Y010218D02*
X012780Y010218D01*
X012938Y010060D02*
X012221Y010060D01*
X012063Y009901D02*
X013969Y009901D01*
X013811Y009743D02*
X011904Y009743D01*
X011746Y009584D02*
X013652Y009584D01*
X013494Y009426D02*
X011587Y009426D01*
X011311Y009743D02*
X010113Y009743D01*
X010110Y009736D02*
X010165Y009868D01*
X010165Y010012D01*
X010126Y010105D01*
X011256Y010105D01*
X011351Y010010D01*
X011483Y009955D01*
X011523Y009955D01*
X010968Y009400D01*
X010343Y009400D01*
X009958Y009015D01*
X009918Y009056D01*
X009764Y009120D01*
X009596Y009120D01*
X009442Y009056D01*
X009324Y008938D01*
X009260Y008784D01*
X009260Y008096D01*
X009324Y007942D01*
X009442Y007824D01*
X009596Y007760D01*
X009764Y007760D01*
X009918Y007824D01*
X010036Y007942D01*
X010100Y008096D01*
X010100Y008563D01*
X010260Y008723D01*
X010260Y008096D01*
X010324Y007942D01*
X010442Y007824D01*
X010596Y007760D01*
X010764Y007760D01*
X010918Y007824D01*
X011036Y007942D01*
X011100Y008096D01*
X011100Y008563D01*
X011240Y008703D01*
X011240Y008440D01*
X011680Y008440D01*
X012120Y008440D01*
X012120Y008735D01*
X012109Y008803D01*
X012088Y008869D01*
X012056Y008931D01*
X012020Y008980D01*
X012718Y008980D01*
X013095Y008603D01*
X013218Y008480D01*
X013642Y008480D01*
X013740Y008578D01*
X013740Y008440D01*
X014180Y008440D01*
X014620Y008440D01*
X014620Y008705D01*
X014752Y008705D01*
X014760Y008708D01*
X014760Y008096D01*
X014824Y007942D01*
X014866Y007900D01*
X014520Y007900D01*
X014556Y007949D01*
X014588Y008011D01*
X014609Y008077D01*
X014620Y008145D01*
X014620Y008440D01*
X014180Y008440D01*
X014180Y008440D01*
X014180Y008440D01*
X013740Y008440D01*
X013740Y008145D01*
X013751Y008077D01*
X013768Y008025D01*
X012479Y008025D01*
X012384Y008120D01*
X012252Y008175D01*
X012120Y008175D01*
X012120Y008440D01*
X011680Y008440D01*
X011680Y008440D01*
X011680Y007740D01*
X011715Y007740D01*
X011783Y007751D01*
X011820Y007763D01*
X011820Y007743D01*
X011875Y007611D01*
X011961Y007525D01*
X003892Y007525D01*
X003657Y007760D01*
X003764Y007760D01*
X003918Y007824D01*
X004036Y007942D01*
X004100Y008096D01*
X004100Y008784D01*
X004036Y008938D01*
X003918Y009056D01*
X003764Y009120D01*
X003596Y009120D01*
X003442Y009056D01*
X003324Y008938D01*
X003260Y008784D01*
X003260Y008157D01*
X003100Y008317D01*
X003100Y008784D01*
X003036Y008938D01*
X002994Y008980D01*
X003267Y008980D01*
X003390Y009103D01*
X003390Y010876D01*
X003442Y010824D01*
X003596Y010760D01*
X003764Y010760D01*
X003918Y010824D01*
X003958Y010865D01*
X004220Y010603D01*
X004343Y010480D01*
X006859Y010480D01*
X006820Y010387D01*
X006820Y010243D01*
X006875Y010111D01*
X006976Y010010D01*
X007108Y009955D01*
X007252Y009955D01*
X007384Y010010D01*
X007479Y010105D01*
X008048Y010105D01*
X007970Y010027D01*
X006958Y009015D01*
X006918Y009056D01*
X006764Y009120D01*
X006596Y009120D01*
X006442Y009056D01*
X006324Y008938D01*
X006260Y008784D01*
X006260Y008096D01*
X006324Y007942D01*
X006442Y007824D01*
X006596Y007760D01*
X006764Y007760D01*
X006918Y007824D01*
X007036Y007942D01*
X007100Y008096D01*
X007100Y008563D01*
X007260Y008723D01*
X007260Y008096D01*
X007324Y007942D01*
X007442Y007824D01*
X007596Y007760D01*
X007764Y007760D01*
X007918Y007824D01*
X008036Y007942D01*
X008100Y008096D01*
X008100Y008784D01*
X008036Y008938D01*
X007918Y009056D01*
X007764Y009120D01*
X007657Y009120D01*
X008267Y009730D01*
X009506Y009730D01*
X009601Y009635D01*
X009733Y009580D01*
X009877Y009580D01*
X010009Y009635D01*
X010110Y009736D01*
X010165Y009901D02*
X011469Y009901D01*
X011301Y010060D02*
X010145Y010060D01*
X009886Y009584D02*
X011152Y009584D01*
X010994Y009426D02*
X007962Y009426D01*
X007804Y009267D02*
X010210Y009267D01*
X010052Y009109D02*
X009791Y009109D01*
X009569Y009109D02*
X008791Y009109D01*
X008764Y009120D02*
X008596Y009120D01*
X008442Y009056D01*
X008324Y008938D01*
X008260Y008784D01*
X008260Y008096D01*
X008324Y007942D01*
X008442Y007824D01*
X008596Y007760D01*
X008764Y007760D01*
X008918Y007824D01*
X009036Y007942D01*
X009100Y008096D01*
X009100Y008784D01*
X009036Y008938D01*
X008918Y009056D01*
X008764Y009120D01*
X008569Y009109D02*
X007791Y009109D01*
X008024Y008950D02*
X008336Y008950D01*
X008263Y008792D02*
X008097Y008792D01*
X008100Y008633D02*
X008260Y008633D01*
X008260Y008475D02*
X008100Y008475D01*
X008100Y008316D02*
X008260Y008316D01*
X008260Y008158D02*
X008100Y008158D01*
X008060Y007999D02*
X008300Y007999D01*
X008426Y007841D02*
X007934Y007841D01*
X007426Y007841D02*
X006934Y007841D01*
X007060Y007999D02*
X007300Y007999D01*
X007260Y008158D02*
X007100Y008158D01*
X007100Y008316D02*
X007260Y008316D01*
X007260Y008475D02*
X007100Y008475D01*
X007170Y008633D02*
X007260Y008633D01*
X007052Y009109D02*
X006791Y009109D01*
X006569Y009109D02*
X005791Y009109D01*
X005764Y009120D02*
X005596Y009120D01*
X005442Y009056D01*
X005402Y009015D01*
X004165Y010252D01*
X004165Y010387D01*
X004110Y010519D01*
X004009Y010620D01*
X003877Y010675D01*
X003733Y010675D01*
X003601Y010620D01*
X003500Y010519D01*
X003445Y010387D01*
X003445Y010243D01*
X003500Y010111D01*
X003601Y010010D01*
X003733Y009955D01*
X003868Y009955D01*
X004703Y009120D01*
X004596Y009120D01*
X004442Y009056D01*
X004324Y008938D01*
X004260Y008784D01*
X004260Y008096D01*
X004324Y007942D01*
X004442Y007824D01*
X004596Y007760D01*
X004764Y007760D01*
X004918Y007824D01*
X005036Y007942D01*
X005100Y008096D01*
X005100Y008723D01*
X005260Y008563D01*
X005260Y008096D01*
X005324Y007942D01*
X005442Y007824D01*
X005596Y007760D01*
X005764Y007760D01*
X005918Y007824D01*
X006036Y007942D01*
X006100Y008096D01*
X006100Y008784D01*
X006036Y008938D01*
X005918Y009056D01*
X005764Y009120D01*
X005569Y009109D02*
X005308Y009109D01*
X005150Y009267D02*
X007210Y009267D01*
X007369Y009426D02*
X004991Y009426D01*
X004833Y009584D02*
X007527Y009584D01*
X007686Y009743D02*
X004674Y009743D01*
X004516Y009901D02*
X007844Y009901D01*
X008003Y010060D02*
X007434Y010060D01*
X006926Y010060D02*
X004357Y010060D01*
X004199Y010218D02*
X006831Y010218D01*
X006820Y010377D02*
X004165Y010377D01*
X004094Y010535D02*
X004288Y010535D01*
X004129Y010694D02*
X003390Y010694D01*
X003390Y010852D02*
X003414Y010852D01*
X003390Y010535D02*
X003516Y010535D01*
X003445Y010377D02*
X003390Y010377D01*
X003390Y010218D02*
X003456Y010218D01*
X003390Y010060D02*
X003551Y010060D01*
X003390Y009901D02*
X003922Y009901D01*
X004080Y009743D02*
X003390Y009743D01*
X003390Y009584D02*
X004239Y009584D01*
X004398Y009426D02*
X003390Y009426D01*
X003390Y009267D02*
X004556Y009267D01*
X004569Y009109D02*
X003791Y009109D01*
X003569Y009109D02*
X003390Y009109D01*
X003336Y008950D02*
X003024Y008950D01*
X003097Y008792D02*
X003263Y008792D01*
X003260Y008633D02*
X003100Y008633D01*
X003100Y008475D02*
X003260Y008475D01*
X003260Y008316D02*
X003101Y008316D01*
X003259Y008158D02*
X003260Y008158D01*
X003934Y007841D02*
X004426Y007841D01*
X004300Y007999D02*
X004060Y007999D01*
X004100Y008158D02*
X004260Y008158D01*
X004260Y008316D02*
X004100Y008316D01*
X004100Y008475D02*
X004260Y008475D01*
X004260Y008633D02*
X004100Y008633D01*
X004097Y008792D02*
X004263Y008792D01*
X004336Y008950D02*
X004024Y008950D01*
X002970Y009400D02*
X002468Y009400D01*
X002093Y009025D01*
X001970Y008902D01*
X001970Y006301D01*
X001890Y006381D01*
X001890Y010027D01*
X001890Y010027D01*
X002120Y010258D01*
X002120Y010440D01*
X002120Y010622D01*
X001862Y010880D01*
X001680Y010880D01*
X001680Y010440D01*
X001680Y010440D01*
X002120Y010440D01*
X001680Y010440D01*
X001680Y010440D01*
X001680Y010880D01*
X001498Y010880D01*
X001390Y010772D01*
X001390Y011136D01*
X001506Y011020D01*
X001854Y011020D01*
X002014Y011180D01*
X002260Y011180D01*
X002260Y011096D01*
X002324Y010942D01*
X002442Y010824D01*
X002596Y010760D01*
X002764Y010760D01*
X002918Y010824D01*
X002970Y010876D01*
X002970Y009400D01*
X002970Y009426D02*
X001890Y009426D01*
X001890Y009584D02*
X002970Y009584D01*
X002970Y009743D02*
X001890Y009743D01*
X001890Y009901D02*
X002970Y009901D01*
X002970Y010060D02*
X001922Y010060D01*
X002080Y010218D02*
X002970Y010218D01*
X002970Y010377D02*
X002120Y010377D01*
X002120Y010535D02*
X002970Y010535D01*
X002970Y010694D02*
X002049Y010694D01*
X001890Y010852D02*
X002414Y010852D01*
X002296Y011011D02*
X001390Y011011D01*
X001390Y010852D02*
X001470Y010852D01*
X001680Y010852D02*
X001680Y010852D01*
X001680Y010694D02*
X001680Y010694D01*
X001680Y010535D02*
X001680Y010535D01*
X001093Y010105D02*
X001010Y010188D01*
X001010Y003940D01*
X002470Y003940D01*
X002470Y004499D01*
X002220Y004749D01*
X002220Y005131D01*
X002489Y005400D01*
X002871Y005400D01*
X002947Y005324D01*
X002920Y005388D01*
X002920Y005529D01*
X002871Y005480D01*
X002489Y005480D01*
X002239Y005730D01*
X002121Y005730D01*
X001871Y005480D01*
X001489Y005480D01*
X001220Y005749D01*
X001220Y006131D01*
X001470Y006381D01*
X001470Y009730D01*
X001468Y009730D01*
X001093Y010105D01*
X001138Y010060D02*
X001010Y010060D01*
X001010Y009901D02*
X001297Y009901D01*
X001455Y009743D02*
X001010Y009743D01*
X001010Y009584D02*
X001470Y009584D01*
X001470Y009426D02*
X001010Y009426D01*
X001010Y009267D02*
X001470Y009267D01*
X001470Y009109D02*
X001010Y009109D01*
X001010Y008950D02*
X001470Y008950D01*
X001470Y008792D02*
X001010Y008792D01*
X001010Y008633D02*
X001470Y008633D01*
X001470Y008475D02*
X001010Y008475D01*
X001010Y008316D02*
X001470Y008316D01*
X001470Y008158D02*
X001010Y008158D01*
X001010Y007999D02*
X001470Y007999D01*
X001470Y007841D02*
X001010Y007841D01*
X001010Y007682D02*
X001470Y007682D01*
X001470Y007524D02*
X001010Y007524D01*
X001010Y007365D02*
X001470Y007365D01*
X001470Y007207D02*
X001010Y007207D01*
X001010Y007048D02*
X001470Y007048D01*
X001470Y006890D02*
X001010Y006890D01*
X001010Y006731D02*
X001470Y006731D01*
X001470Y006573D02*
X001010Y006573D01*
X001010Y006414D02*
X001470Y006414D01*
X001345Y006256D02*
X001010Y006256D01*
X001010Y006097D02*
X001220Y006097D01*
X001220Y005939D02*
X001010Y005939D01*
X001010Y005780D02*
X001220Y005780D01*
X001348Y005622D02*
X001010Y005622D01*
X001010Y005463D02*
X002920Y005463D01*
X002394Y005305D02*
X001994Y005305D01*
X001879Y005420D02*
X001700Y005420D01*
X001700Y004960D01*
X002160Y004960D01*
X002160Y005139D01*
X001879Y005420D01*
X001700Y005305D02*
X001660Y005305D01*
X001660Y005420D02*
X001481Y005420D01*
X001200Y005139D01*
X001200Y004960D01*
X001660Y004960D01*
X001660Y005420D01*
X001660Y005146D02*
X001700Y005146D01*
X001700Y004988D02*
X001660Y004988D01*
X001660Y004960D02*
X001700Y004960D01*
X001700Y004920D01*
X002160Y004920D01*
X002160Y004741D01*
X001879Y004460D01*
X001700Y004460D01*
X001700Y004920D01*
X001660Y004920D01*
X001660Y004460D01*
X001481Y004460D01*
X001200Y004741D01*
X001200Y004920D01*
X001660Y004920D01*
X001660Y004960D01*
X001660Y004829D02*
X001700Y004829D01*
X001700Y004671D02*
X001660Y004671D01*
X001660Y004512D02*
X001700Y004512D01*
X001931Y004512D02*
X002457Y004512D01*
X002470Y004354D02*
X001010Y004354D01*
X001010Y004512D02*
X001429Y004512D01*
X001271Y004671D02*
X001010Y004671D01*
X001010Y004829D02*
X001200Y004829D01*
X001200Y004988D02*
X001010Y004988D01*
X001010Y005146D02*
X001207Y005146D01*
X001366Y005305D02*
X001010Y005305D01*
X002012Y005622D02*
X002348Y005622D01*
X002235Y005146D02*
X002153Y005146D01*
X002160Y004988D02*
X002220Y004988D01*
X002220Y004829D02*
X002160Y004829D01*
X002089Y004671D02*
X002299Y004671D01*
X002470Y004195D02*
X001010Y004195D01*
X001010Y004037D02*
X002470Y004037D01*
X001970Y006414D02*
X001890Y006414D01*
X001890Y006573D02*
X001970Y006573D01*
X001970Y006731D02*
X001890Y006731D01*
X001890Y006890D02*
X001970Y006890D01*
X001970Y007048D02*
X001890Y007048D01*
X001890Y007207D02*
X001970Y007207D01*
X001970Y007365D02*
X001890Y007365D01*
X001890Y007524D02*
X001970Y007524D01*
X001970Y007682D02*
X001890Y007682D01*
X001890Y007841D02*
X001970Y007841D01*
X001970Y007999D02*
X001890Y007999D01*
X001890Y008158D02*
X001970Y008158D01*
X001970Y008316D02*
X001890Y008316D01*
X001890Y008475D02*
X001970Y008475D01*
X001970Y008633D02*
X001890Y008633D01*
X001890Y008792D02*
X001970Y008792D01*
X002018Y008950D02*
X001890Y008950D01*
X001890Y009109D02*
X002177Y009109D01*
X002335Y009267D02*
X001890Y009267D01*
X002946Y010852D02*
X002970Y010852D01*
X002260Y011169D02*
X002003Y011169D01*
X003946Y010852D02*
X003971Y010852D01*
X006024Y008950D02*
X006336Y008950D01*
X006263Y008792D02*
X006097Y008792D01*
X006100Y008633D02*
X006260Y008633D01*
X006260Y008475D02*
X006100Y008475D01*
X006100Y008316D02*
X006260Y008316D01*
X006260Y008158D02*
X006100Y008158D01*
X006060Y007999D02*
X006300Y007999D01*
X006426Y007841D02*
X005934Y007841D01*
X005426Y007841D02*
X004934Y007841D01*
X005060Y007999D02*
X005300Y007999D01*
X005260Y008158D02*
X005100Y008158D01*
X005100Y008316D02*
X005260Y008316D01*
X005260Y008475D02*
X005100Y008475D01*
X005100Y008633D02*
X005190Y008633D01*
X003735Y007682D02*
X011845Y007682D01*
X011680Y007740D02*
X011680Y008440D01*
X011680Y008440D01*
X011680Y008440D01*
X011240Y008440D01*
X011240Y008145D01*
X011251Y008077D01*
X011272Y008011D01*
X011304Y007949D01*
X011344Y007893D01*
X011393Y007844D01*
X011449Y007804D01*
X011511Y007772D01*
X011577Y007751D01*
X011645Y007740D01*
X011680Y007740D01*
X011680Y007841D02*
X011680Y007841D01*
X011680Y007999D02*
X011680Y007999D01*
X011680Y008158D02*
X011680Y008158D01*
X011680Y008316D02*
X011680Y008316D01*
X012120Y008316D02*
X013740Y008316D01*
X013740Y008158D02*
X012294Y008158D01*
X012120Y008475D02*
X013740Y008475D01*
X013065Y008633D02*
X012120Y008633D01*
X012111Y008792D02*
X012906Y008792D01*
X012748Y008950D02*
X012042Y008950D01*
X011240Y008633D02*
X011170Y008633D01*
X011100Y008475D02*
X011240Y008475D01*
X011240Y008316D02*
X011100Y008316D01*
X011100Y008158D02*
X011240Y008158D01*
X011278Y007999D02*
X011060Y007999D01*
X010934Y007841D02*
X011399Y007841D01*
X010426Y007841D02*
X009934Y007841D01*
X010060Y007999D02*
X010300Y007999D01*
X010260Y008158D02*
X010100Y008158D01*
X010100Y008316D02*
X010260Y008316D01*
X010260Y008475D02*
X010100Y008475D01*
X010170Y008633D02*
X010260Y008633D01*
X009336Y008950D02*
X009024Y008950D01*
X009097Y008792D02*
X009263Y008792D01*
X009260Y008633D02*
X009100Y008633D01*
X009100Y008475D02*
X009260Y008475D01*
X009260Y008316D02*
X009100Y008316D01*
X009100Y008158D02*
X009260Y008158D01*
X009300Y007999D02*
X009060Y007999D01*
X008934Y007841D02*
X009426Y007841D01*
X009724Y009584D02*
X008121Y009584D01*
X013025Y009267D02*
X013124Y009267D01*
X014620Y008633D02*
X014760Y008633D01*
X014760Y008475D02*
X014620Y008475D01*
X014620Y008316D02*
X014760Y008316D01*
X014760Y008158D02*
X014620Y008158D01*
X014582Y007999D02*
X014800Y007999D01*
X019446Y010852D02*
X019914Y010852D01*
X019796Y011011D02*
X019564Y011011D01*
X019600Y011169D02*
X019760Y011169D01*
X019760Y011328D02*
X019600Y011328D01*
X019600Y011486D02*
X019760Y011486D01*
X019760Y011645D02*
X019600Y011645D01*
X019592Y011803D02*
X019768Y011803D01*
X019848Y011962D02*
X019512Y011962D01*
X022531Y012437D02*
X022813Y012437D01*
X022748Y012596D02*
X022600Y012596D01*
X022600Y012754D02*
X022740Y012754D01*
X022740Y012913D02*
X022600Y012913D01*
X022600Y013071D02*
X022740Y013071D01*
X022740Y013230D02*
X022600Y013230D01*
X022557Y013388D02*
X022782Y013388D01*
X022600Y013864D02*
X023720Y013864D01*
X023720Y014022D02*
X022600Y014022D01*
X022600Y014181D02*
X023720Y014181D01*
X023720Y014339D02*
X022577Y014339D01*
X024140Y014339D02*
X024484Y014339D01*
X024642Y014181D02*
X024140Y014181D01*
X024140Y014022D02*
X024801Y014022D01*
X024959Y013864D02*
X024140Y013864D01*
X024140Y013705D02*
X025091Y013705D01*
X025010Y013547D02*
X024140Y013547D01*
X024140Y013388D02*
X025000Y013388D01*
X025053Y013230D02*
X024140Y013230D01*
X025553Y013864D02*
X030889Y013864D01*
X030730Y014022D02*
X026028Y014022D01*
X026274Y014181D02*
X030572Y014181D01*
X030413Y014339D02*
X026353Y014339D01*
X026360Y014498D02*
X030255Y014498D01*
X030096Y014656D02*
X026305Y014656D01*
X026133Y014815D02*
X029938Y014815D01*
X029779Y014973D02*
X024444Y014973D01*
X024602Y014815D02*
X025227Y014815D01*
X025336Y015020D02*
X025182Y015084D01*
X025064Y015202D01*
X025000Y015356D01*
X025000Y015524D01*
X025064Y015678D01*
X025182Y015796D01*
X025336Y015860D01*
X026024Y015860D01*
X026178Y015796D01*
X026296Y015678D01*
X026360Y015524D01*
X026360Y015356D01*
X026296Y015202D01*
X026178Y015084D01*
X026024Y015020D01*
X025336Y015020D01*
X025135Y015132D02*
X024285Y015132D01*
X024127Y015290D02*
X025028Y015290D01*
X025000Y015449D02*
X023968Y015449D01*
X023915Y015607D02*
X025035Y015607D01*
X025152Y015766D02*
X023862Y015766D01*
X023629Y015924D02*
X028828Y015924D01*
X028670Y016083D02*
X026174Y016083D01*
X026312Y016241D02*
X028511Y016241D01*
X028353Y016400D02*
X026360Y016400D01*
X026346Y016558D02*
X028194Y016558D01*
X028613Y016875D02*
X028823Y016875D01*
X028771Y016717D02*
X028981Y016717D01*
X028930Y016558D02*
X029140Y016558D01*
X029088Y016400D02*
X029298Y016400D01*
X029247Y016241D02*
X029457Y016241D01*
X029405Y016083D02*
X029615Y016083D01*
X029564Y015924D02*
X029774Y015924D01*
X029722Y015766D02*
X029932Y015766D01*
X029945Y015753D02*
X029945Y015618D01*
X029999Y015489D01*
X028400Y017087D01*
X028327Y017160D01*
X028232Y017200D01*
X026294Y017200D01*
X026296Y017202D01*
X026360Y017356D01*
X026360Y017524D01*
X026296Y017678D01*
X026178Y017796D01*
X026024Y017860D01*
X025336Y017860D01*
X025182Y017796D01*
X025152Y017765D01*
X025088Y017829D01*
X025100Y017856D01*
X025100Y018024D01*
X025036Y018178D01*
X024918Y018296D01*
X024764Y018360D01*
X024596Y018360D01*
X024442Y018296D01*
X024324Y018178D01*
X024260Y018024D01*
X024260Y017856D01*
X024283Y017800D01*
X024242Y017800D01*
X024142Y017900D01*
X017017Y017900D01*
X016657Y018260D01*
X016764Y018260D01*
X016918Y018324D01*
X017036Y018442D01*
X017100Y018596D01*
X017100Y019063D01*
X017240Y019203D01*
X017240Y018940D01*
X017680Y018940D01*
X018120Y018940D01*
X018120Y019235D01*
X018109Y019303D01*
X018088Y019369D01*
X018056Y019431D01*
X018020Y019480D01*
X024468Y019480D01*
X024590Y019358D01*
X024442Y019296D01*
X024324Y019178D01*
X024260Y019024D01*
X024260Y018856D01*
X024324Y018702D01*
X024442Y018584D01*
X024596Y018520D01*
X024764Y018520D01*
X024791Y018532D01*
X024970Y018353D01*
X025024Y018299D01*
X025064Y018202D01*
X025182Y018084D01*
X025336Y018020D01*
X026024Y018020D01*
X026178Y018084D01*
X026296Y018202D01*
X026360Y018356D01*
X026360Y018524D01*
X026337Y018580D01*
X026377Y018580D01*
X026509Y018635D01*
X026610Y018736D01*
X026665Y018868D01*
X026665Y019012D01*
X026650Y019048D01*
X029945Y015753D01*
X029950Y015607D02*
X029881Y015607D01*
X029462Y015290D02*
X026332Y015290D01*
X026360Y015449D02*
X029304Y015449D01*
X029145Y015607D02*
X026325Y015607D01*
X026208Y015766D02*
X028987Y015766D01*
X029621Y015132D02*
X026225Y015132D01*
X025055Y014656D02*
X024761Y014656D01*
X024919Y014498D02*
X025000Y014498D01*
X024325Y014498D02*
X024140Y014498D01*
X024140Y014656D02*
X024167Y014656D01*
X023248Y015766D02*
X023151Y015766D01*
X022993Y015924D02*
X023481Y015924D01*
X026358Y017351D02*
X028347Y017351D01*
X028251Y017192D02*
X028506Y017192D01*
X028454Y017034D02*
X028664Y017034D01*
X028189Y017509D02*
X026360Y017509D01*
X026300Y017668D02*
X028030Y017668D01*
X027872Y017826D02*
X026106Y017826D01*
X026237Y018143D02*
X027555Y018143D01*
X027713Y017985D02*
X025100Y017985D01*
X025091Y017826D02*
X025254Y017826D01*
X025123Y018143D02*
X025051Y018143D01*
X025021Y018302D02*
X024905Y018302D01*
X024863Y018460D02*
X018062Y018460D01*
X018056Y018449D02*
X018088Y018511D01*
X018109Y018577D01*
X018120Y018645D01*
X018120Y018940D01*
X017680Y018940D01*
X017680Y018940D01*
X017680Y018240D01*
X017715Y018240D01*
X017783Y018251D01*
X017849Y018272D01*
X017911Y018304D01*
X017967Y018344D01*
X018016Y018393D01*
X018056Y018449D01*
X018116Y018619D02*
X024408Y018619D01*
X024293Y018777D02*
X018120Y018777D01*
X018120Y018936D02*
X024260Y018936D01*
X024289Y019094D02*
X018120Y019094D01*
X018117Y019253D02*
X024399Y019253D01*
X024537Y019411D02*
X018066Y019411D01*
X017680Y018940D02*
X017680Y018940D01*
X017680Y018940D01*
X017680Y018240D01*
X017645Y018240D01*
X017577Y018251D01*
X017511Y018272D01*
X017449Y018304D01*
X017393Y018344D01*
X017344Y018393D01*
X017304Y018449D01*
X017272Y018511D01*
X017251Y018577D01*
X017240Y018645D01*
X017240Y018940D01*
X017680Y018940D01*
X017680Y018936D02*
X017680Y018936D01*
X017680Y018777D02*
X017680Y018777D01*
X017680Y018619D02*
X017680Y018619D01*
X017680Y018460D02*
X017680Y018460D01*
X017680Y018302D02*
X017680Y018302D01*
X017906Y018302D02*
X024455Y018302D01*
X024309Y018143D02*
X016774Y018143D01*
X016864Y018302D02*
X017454Y018302D01*
X017298Y018460D02*
X017043Y018460D01*
X017100Y018619D02*
X017244Y018619D01*
X017240Y018777D02*
X017100Y018777D01*
X017100Y018936D02*
X017240Y018936D01*
X017240Y019094D02*
X017131Y019094D01*
X016932Y017985D02*
X024260Y017985D01*
X024273Y017826D02*
X024216Y017826D01*
X026337Y018302D02*
X027396Y018302D01*
X027238Y018460D02*
X026360Y018460D01*
X026470Y018619D02*
X027079Y018619D01*
X026921Y018777D02*
X026627Y018777D01*
X026665Y018936D02*
X026762Y018936D01*
X027689Y019728D02*
X030220Y019728D01*
X030378Y019570D02*
X027847Y019570D01*
X028006Y019411D02*
X030537Y019411D01*
X030695Y019253D02*
X028164Y019253D01*
X028323Y019094D02*
X030854Y019094D01*
X031012Y018936D02*
X028481Y018936D01*
X028640Y018777D02*
X031163Y018777D01*
X031095Y018853D02*
X031095Y018853D01*
X031039Y018619D02*
X028798Y018619D01*
X028957Y018460D02*
X031000Y018460D01*
X031023Y018302D02*
X029115Y018302D01*
X030061Y019887D02*
X027665Y019887D01*
X032321Y018619D02*
X032539Y018619D01*
X032500Y018460D02*
X032360Y018460D01*
X032337Y018302D02*
X032523Y018302D01*
X032623Y018143D02*
X032237Y018143D01*
X032106Y017826D02*
X032754Y017826D01*
X032560Y017668D02*
X032300Y017668D01*
X032360Y017509D02*
X032500Y017509D01*
X032502Y017351D02*
X032358Y017351D01*
X032286Y017192D02*
X032574Y017192D01*
X032804Y017034D02*
X032056Y017034D01*
X032257Y016717D02*
X032603Y016717D01*
X032514Y016558D02*
X032346Y016558D01*
X032360Y016400D02*
X032500Y016400D01*
X032548Y016241D02*
X032312Y016241D01*
X032174Y016083D02*
X032686Y016083D01*
X032652Y015766D02*
X032208Y015766D01*
X032325Y015607D02*
X032535Y015607D01*
X032500Y015449D02*
X032360Y015449D01*
X032332Y015290D02*
X032528Y015290D01*
X032635Y015132D02*
X032225Y015132D01*
X032133Y014815D02*
X032687Y014815D01*
X032536Y014656D02*
X032305Y014656D01*
X032360Y014498D02*
X032484Y014498D01*
X032491Y014339D02*
X032353Y014339D01*
X032274Y014181D02*
X032565Y014181D01*
X033180Y014498D02*
X033180Y014498D01*
X033180Y014656D02*
X033180Y014656D01*
X033180Y014815D02*
X033180Y014815D01*
X031227Y014815D02*
X030673Y014815D01*
X030832Y014656D02*
X031055Y014656D01*
X031000Y014498D02*
X030990Y014498D01*
X031047Y013705D02*
X026269Y013705D01*
X026350Y013547D02*
X031010Y013547D01*
X031000Y013388D02*
X026360Y013388D01*
X026307Y013230D02*
X031053Y013230D01*
X031680Y011803D02*
X031680Y011803D01*
X031680Y011645D02*
X031680Y011645D01*
X031680Y011486D02*
X031680Y011486D01*
X032189Y011803D02*
X032699Y011803D01*
X032550Y011645D02*
X032330Y011645D01*
X032378Y011486D02*
X032500Y011486D01*
X032512Y011328D02*
X032366Y011328D01*
X032287Y011169D02*
X032597Y011169D01*
X033780Y010694D02*
X035560Y010694D01*
X036800Y010694D02*
X037304Y010694D01*
X037353Y010535D02*
X036870Y010535D01*
X036875Y010377D02*
X037195Y010377D01*
X037036Y010218D02*
X036821Y010218D01*
X038390Y011328D02*
X038445Y011328D01*
X038390Y011486D02*
X039770Y011486D01*
X039770Y011328D02*
X038915Y011328D01*
X039073Y011169D02*
X039770Y011169D01*
X039770Y011011D02*
X039120Y011011D01*
X039120Y010852D02*
X039770Y010852D01*
X039770Y010694D02*
X039056Y010694D01*
X038390Y011645D02*
X039770Y011645D01*
X039770Y011803D02*
X038390Y011803D01*
X038390Y011962D02*
X039770Y011962D01*
X039770Y012120D02*
X038390Y012120D01*
X038390Y012279D02*
X039770Y012279D01*
X039770Y012437D02*
X038390Y012437D01*
X038390Y012596D02*
X039770Y012596D01*
X039770Y012754D02*
X038390Y012754D01*
X038390Y012913D02*
X039770Y012913D01*
X039770Y013071D02*
X038390Y013071D01*
X038390Y013230D02*
X039770Y013230D01*
X039770Y013388D02*
X038942Y013388D01*
X039316Y013547D02*
X039770Y013547D01*
X039770Y013705D02*
X039507Y013705D01*
X039641Y013864D02*
X039770Y013864D01*
X039770Y014022D02*
X039733Y014022D01*
X038418Y013388D02*
X038390Y013388D01*
X036490Y013547D02*
X036333Y013547D01*
X035760Y012596D02*
X035620Y012596D01*
X035620Y012437D02*
X035760Y012437D01*
X032741Y010060D02*
X032596Y010060D01*
X031844Y009901D02*
X028853Y009901D01*
X028257Y009901D02*
X027516Y009901D01*
X027674Y009743D02*
X028195Y009743D01*
X027940Y009584D02*
X027833Y009584D01*
X026723Y010694D02*
X029292Y010694D01*
X029202Y010852D02*
X026565Y010852D01*
X025812Y011011D02*
X023564Y011011D01*
X023600Y011169D02*
X025097Y011169D01*
X025012Y011328D02*
X023600Y011328D01*
X023600Y011486D02*
X025000Y011486D01*
X025050Y011645D02*
X023682Y011645D01*
X023840Y011803D02*
X025199Y011803D01*
X025317Y010852D02*
X023446Y010852D01*
X026214Y012120D02*
X026703Y012120D01*
X026544Y012279D02*
X026328Y012279D01*
X026360Y012437D02*
X026386Y012437D01*
X031493Y015924D02*
X036970Y015924D01*
X036970Y015766D02*
X036708Y015766D01*
X036674Y016083D02*
X036970Y016083D01*
X036970Y016241D02*
X036812Y016241D01*
X036860Y016400D02*
X036970Y016400D01*
X036970Y016558D02*
X036846Y016558D01*
X036757Y016717D02*
X036970Y016717D01*
X036970Y017034D02*
X036556Y017034D01*
X036786Y017192D02*
X036970Y017192D01*
X036970Y017351D02*
X036858Y017351D01*
X036860Y017509D02*
X036970Y017509D01*
X036970Y017668D02*
X036800Y017668D01*
X036970Y017826D02*
X036606Y017826D01*
X037390Y017985D02*
X037736Y017985D01*
X037633Y018143D02*
X037390Y018143D01*
X037390Y018302D02*
X037591Y018302D01*
X037593Y018460D02*
X037390Y018460D01*
X037390Y018619D02*
X037659Y018619D01*
X037799Y018777D02*
X037390Y018777D01*
X037390Y018936D02*
X037954Y018936D01*
X038016Y018910D02*
X038226Y018910D01*
X038421Y018991D01*
X038570Y019140D01*
X038651Y019335D01*
X038651Y019545D01*
X038570Y019740D01*
X038421Y019889D01*
X038226Y019970D01*
X038016Y019970D01*
X037821Y019889D01*
X037672Y019740D01*
X037591Y019545D01*
X037591Y019335D01*
X037672Y019140D01*
X037821Y018991D01*
X038016Y018910D01*
X038288Y018936D02*
X038709Y018936D01*
X038709Y019002D02*
X038709Y018791D01*
X038790Y018596D01*
X038939Y018447D01*
X039134Y018367D01*
X039344Y018367D01*
X039539Y018447D01*
X039688Y018596D01*
X039769Y018791D01*
X039769Y019002D01*
X039688Y019197D01*
X039539Y019346D01*
X039344Y019427D01*
X039134Y019427D01*
X038939Y019346D01*
X038790Y019197D01*
X038709Y019002D01*
X038747Y019094D02*
X038525Y019094D01*
X038617Y019253D02*
X038845Y019253D01*
X038651Y019411D02*
X039096Y019411D01*
X039134Y019453D02*
X039344Y019453D01*
X039539Y019534D01*
X039688Y019683D01*
X039769Y019878D01*
X039769Y020089D01*
X039688Y020284D01*
X039539Y020433D01*
X039344Y020513D01*
X039134Y020513D01*
X038939Y020433D01*
X038790Y020284D01*
X038709Y020089D01*
X038709Y019878D01*
X038790Y019683D01*
X038939Y019534D01*
X039134Y019453D01*
X039382Y019411D02*
X039770Y019411D01*
X039770Y019253D02*
X039633Y019253D01*
X039731Y019094D02*
X039770Y019094D01*
X039769Y018936D02*
X039770Y018936D01*
X039763Y018777D02*
X039770Y018777D01*
X039770Y018619D02*
X039698Y018619D01*
X039770Y018460D02*
X039552Y018460D01*
X039428Y018302D02*
X039770Y018302D01*
X039770Y018143D02*
X039652Y018143D01*
X039739Y017985D02*
X039770Y017985D01*
X039769Y017826D02*
X039770Y017826D01*
X039755Y017668D02*
X039770Y017668D01*
X039770Y017509D02*
X039690Y017509D01*
X039770Y017351D02*
X039524Y017351D01*
X038739Y017985D02*
X038506Y017985D01*
X038609Y018143D02*
X038826Y018143D01*
X038651Y018302D02*
X039050Y018302D01*
X038926Y018460D02*
X038649Y018460D01*
X038583Y018619D02*
X038781Y018619D01*
X038715Y018777D02*
X038443Y018777D01*
X037717Y019094D02*
X037390Y019094D01*
X037390Y019253D02*
X037625Y019253D01*
X037591Y019411D02*
X037390Y019411D01*
X037390Y019570D02*
X037601Y019570D01*
X037667Y019728D02*
X037390Y019728D01*
X037390Y019887D02*
X037818Y019887D01*
X037908Y020045D02*
X037390Y020045D01*
X037390Y020204D02*
X037698Y020204D01*
X037672Y020230D02*
X037821Y020081D01*
X038016Y020001D01*
X038226Y020001D01*
X038421Y020081D01*
X038570Y020230D01*
X038651Y020425D01*
X038651Y020636D01*
X038570Y020831D01*
X038421Y020980D01*
X038226Y021061D01*
X038016Y021061D01*
X037821Y020980D01*
X037672Y020831D01*
X037591Y020636D01*
X037591Y020425D01*
X037672Y020230D01*
X037617Y020362D02*
X037390Y020362D01*
X037390Y020521D02*
X037591Y020521D01*
X037609Y020679D02*
X037390Y020679D01*
X037390Y020838D02*
X037678Y020838D01*
X037860Y020996D02*
X037390Y020996D01*
X037390Y021155D02*
X037621Y021155D01*
X037591Y021185D02*
X037685Y021091D01*
X038557Y021091D01*
X038651Y021185D01*
X038651Y022057D01*
X038557Y022151D01*
X037685Y022151D01*
X037591Y022057D01*
X037591Y021185D01*
X037591Y021313D02*
X037390Y021313D01*
X037390Y021472D02*
X037591Y021472D01*
X037591Y021630D02*
X037390Y021630D01*
X037390Y021789D02*
X037591Y021789D01*
X037591Y021947D02*
X037390Y021947D01*
X037390Y022106D02*
X037639Y022106D01*
X037390Y022264D02*
X039770Y022264D01*
X039770Y022106D02*
X038603Y022106D01*
X038651Y021947D02*
X039770Y021947D01*
X039770Y021789D02*
X038651Y021789D01*
X038651Y021630D02*
X039770Y021630D01*
X039770Y021472D02*
X039591Y021472D01*
X039539Y021523D02*
X039344Y021604D01*
X039134Y021604D01*
X038939Y021523D01*
X038790Y021374D01*
X038709Y021179D01*
X038709Y020968D01*
X038790Y020774D01*
X038939Y020625D01*
X039134Y020544D01*
X039344Y020544D01*
X039539Y020625D01*
X039688Y020774D01*
X039769Y020968D01*
X039769Y021179D01*
X039688Y021374D01*
X039539Y021523D01*
X039714Y021313D02*
X039770Y021313D01*
X039769Y021155D02*
X039770Y021155D01*
X039769Y020996D02*
X039770Y020996D01*
X039770Y020838D02*
X039715Y020838D01*
X039770Y020679D02*
X039594Y020679D01*
X039770Y020521D02*
X038651Y020521D01*
X038633Y020679D02*
X038884Y020679D01*
X038763Y020838D02*
X038563Y020838D01*
X038709Y020996D02*
X038382Y020996D01*
X038621Y021155D02*
X038709Y021155D01*
X038764Y021313D02*
X038651Y021313D01*
X038651Y021472D02*
X038887Y021472D01*
X039770Y022423D02*
X037390Y022423D01*
X037390Y022581D02*
X039770Y022581D01*
X039770Y022740D02*
X037390Y022740D01*
X037390Y022898D02*
X039770Y022898D01*
X039770Y023057D02*
X037360Y023057D01*
X038071Y023374D02*
X036600Y023374D01*
X036600Y023532D02*
X037869Y023532D01*
X037728Y023691D02*
X036523Y023691D01*
X036365Y023849D02*
X037636Y023849D01*
X038476Y023215D02*
X036549Y023215D01*
X038884Y023215D02*
X039770Y023215D01*
X039770Y023374D02*
X039289Y023374D01*
X039491Y023532D02*
X039770Y023532D01*
X039770Y023691D02*
X039632Y023691D01*
X039724Y023849D02*
X039770Y023849D01*
X039763Y024800D02*
X039770Y024800D01*
X039770Y024959D02*
X039675Y024959D01*
X039770Y025117D02*
X039565Y025117D01*
X039406Y025276D02*
X039770Y025276D01*
X039770Y025434D02*
X039142Y025434D01*
X036970Y020838D02*
X036875Y020838D01*
X036795Y020679D02*
X036970Y020679D01*
X036970Y020521D02*
X036860Y020521D01*
X036860Y020362D02*
X036970Y020362D01*
X036970Y020204D02*
X036797Y020204D01*
X036970Y020045D02*
X036584Y020045D01*
X036746Y019728D02*
X036970Y019728D01*
X036970Y019570D02*
X036841Y019570D01*
X036860Y019411D02*
X036970Y019411D01*
X036970Y019253D02*
X036817Y019253D01*
X036688Y019094D02*
X036970Y019094D01*
X036970Y019887D02*
X032924Y019887D01*
X033584Y020045D02*
X035776Y020045D01*
X035563Y020204D02*
X033797Y020204D01*
X033860Y020362D02*
X035500Y020362D01*
X035500Y020521D02*
X033860Y020521D01*
X033795Y020679D02*
X035565Y020679D01*
X035614Y019728D02*
X033746Y019728D01*
X033688Y019094D02*
X035229Y019094D01*
X035387Y018936D02*
X032973Y018936D01*
X035347Y019570D02*
X035519Y019570D01*
X038334Y020045D02*
X038709Y020045D01*
X038709Y019887D02*
X038424Y019887D01*
X038575Y019728D02*
X038771Y019728D01*
X038641Y019570D02*
X038903Y019570D01*
X039575Y019570D02*
X039770Y019570D01*
X039770Y019728D02*
X039707Y019728D01*
X039769Y019887D02*
X039770Y019887D01*
X039769Y020045D02*
X039770Y020045D01*
X039770Y020204D02*
X039722Y020204D01*
X039770Y020362D02*
X039610Y020362D01*
X038868Y020362D02*
X038625Y020362D01*
X038543Y020204D02*
X038757Y020204D01*
X039100Y015607D02*
X039770Y015607D01*
X039770Y015449D02*
X039390Y015449D01*
X039549Y015290D02*
X039770Y015290D01*
X039770Y015132D02*
X039666Y015132D01*
X039757Y014973D02*
X039770Y014973D01*
X034061Y009743D02*
X033731Y009743D01*
X033835Y009584D02*
X033902Y009584D01*
X032360Y008792D02*
X032205Y008792D01*
X031680Y008792D02*
X031680Y008792D01*
X031680Y008633D02*
X031680Y008633D01*
X031680Y008475D02*
X031680Y008475D01*
X031680Y008316D02*
X031680Y008316D01*
X031680Y008158D02*
X031680Y008158D01*
X029220Y006097D02*
X029140Y006097D01*
X029140Y005939D02*
X029220Y005939D01*
X029220Y005780D02*
X029140Y005780D01*
X029012Y005622D02*
X029348Y005622D01*
X023319Y005230D02*
X023220Y005131D01*
X023220Y004749D01*
X023319Y004650D01*
X023069Y004650D01*
X023160Y004741D01*
X023160Y004920D01*
X022700Y004920D01*
X022700Y004960D01*
X023160Y004960D01*
X023160Y005139D01*
X023069Y005230D01*
X023319Y005230D01*
X023235Y005146D02*
X023153Y005146D01*
X023160Y004988D02*
X023220Y004988D01*
X023220Y004829D02*
X023160Y004829D01*
X023089Y004671D02*
X023299Y004671D01*
X022660Y004920D02*
X022200Y004920D01*
X022200Y004741D01*
X022291Y004650D01*
X022041Y004650D01*
X022140Y004749D01*
X022140Y005131D01*
X022041Y005230D01*
X022291Y005230D01*
X022200Y005139D01*
X022200Y004960D01*
X022660Y004960D01*
X022660Y004920D01*
X022271Y004671D02*
X022061Y004671D01*
X022140Y004829D02*
X022200Y004829D01*
X022200Y004988D02*
X022140Y004988D01*
X022125Y005146D02*
X022207Y005146D01*
X038975Y009267D02*
X039770Y009267D01*
X039770Y009109D02*
X039120Y009109D01*
X039120Y008950D02*
X039770Y008950D01*
X039770Y008792D02*
X039120Y008792D01*
X020644Y020679D02*
X015513Y020679D01*
X015540Y020838D02*
X020485Y020838D01*
X020327Y020996D02*
X015495Y020996D01*
X015301Y021155D02*
X020168Y021155D01*
X020010Y021313D02*
X001390Y021313D01*
X001390Y021155D02*
X015059Y021155D01*
X014865Y020996D02*
X008007Y020996D01*
X007603Y020996D02*
X001390Y020996D01*
X001390Y020838D02*
X007476Y020838D01*
X007445Y020679D02*
X001390Y020679D01*
X001390Y020521D02*
X007486Y020521D01*
X006313Y019411D02*
X006047Y019411D01*
X006100Y019253D02*
X006260Y019253D01*
X006260Y019094D02*
X006100Y019094D01*
X006100Y018936D02*
X006260Y018936D01*
X006260Y018777D02*
X006100Y018777D01*
X006100Y018619D02*
X006260Y018619D01*
X006317Y018460D02*
X006043Y018460D01*
X005864Y018302D02*
X006496Y018302D01*
X006864Y018302D02*
X007021Y018302D01*
X007180Y018143D02*
X001390Y018143D01*
X001390Y017985D02*
X007338Y017985D01*
X007497Y017826D02*
X001390Y017826D01*
X001390Y017668D02*
X007655Y017668D01*
X007465Y017509D02*
X007895Y017509D01*
X007788Y017351D02*
X007572Y017351D01*
X006895Y017509D02*
X006465Y017509D01*
X006572Y017351D02*
X006788Y017351D01*
X005895Y017509D02*
X005465Y017509D01*
X005572Y017351D02*
X005788Y017351D01*
X004895Y017509D02*
X004465Y017509D01*
X004418Y017556D02*
X004264Y017620D01*
X004096Y017620D01*
X003942Y017556D01*
X003824Y017438D01*
X003760Y017284D01*
X003760Y017200D01*
X003600Y017200D01*
X003600Y017284D01*
X003536Y017438D01*
X003418Y017556D01*
X003264Y017620D01*
X003096Y017620D01*
X002942Y017556D01*
X002824Y017438D01*
X002760Y017284D01*
X002760Y016596D01*
X002824Y016442D01*
X002942Y016324D01*
X003096Y016260D01*
X003264Y016260D01*
X003418Y016324D01*
X003536Y016442D01*
X003600Y016596D01*
X003600Y016680D01*
X003760Y016680D01*
X003760Y016596D01*
X003824Y016442D01*
X003942Y016324D01*
X004096Y016260D01*
X004264Y016260D01*
X004418Y016324D01*
X004536Y016442D01*
X004600Y016596D01*
X004600Y017284D01*
X004536Y017438D01*
X004418Y017556D01*
X004572Y017351D02*
X004788Y017351D01*
X004760Y017192D02*
X004600Y017192D01*
X004600Y017034D02*
X004760Y017034D01*
X004760Y016875D02*
X004600Y016875D01*
X004600Y016717D02*
X004760Y016717D01*
X004776Y016558D02*
X004584Y016558D01*
X004493Y016400D02*
X004867Y016400D01*
X005059Y016241D02*
X001390Y016241D01*
X001390Y016083D02*
X003063Y016083D01*
X002960Y015924D02*
X001390Y015924D01*
X001390Y015766D02*
X002275Y015766D01*
X002110Y015607D02*
X001390Y015607D01*
X001390Y015449D02*
X002070Y015449D01*
X002102Y015290D02*
X001390Y015290D01*
X002585Y015766D02*
X002945Y015766D01*
X003547Y016083D02*
X004901Y016083D01*
X003867Y016400D02*
X003493Y016400D01*
X003584Y016558D02*
X003776Y016558D01*
X002867Y016400D02*
X001390Y016400D01*
X001390Y016558D02*
X002776Y016558D01*
X002760Y016717D02*
X001390Y016717D01*
X001390Y016875D02*
X002760Y016875D01*
X002760Y017034D02*
X001390Y017034D01*
X001390Y017192D02*
X002760Y017192D01*
X002788Y017351D02*
X001390Y017351D01*
X001390Y017509D02*
X002895Y017509D01*
X003465Y017509D02*
X003895Y017509D01*
X003788Y017351D02*
X003572Y017351D01*
X003496Y018302D02*
X002864Y018302D01*
X003043Y018460D02*
X003317Y018460D01*
X003260Y018619D02*
X003100Y018619D01*
X003100Y018777D02*
X003260Y018777D01*
X003260Y018936D02*
X003100Y018936D01*
X003100Y019094D02*
X003260Y019094D01*
X003260Y019253D02*
X003100Y019253D01*
X003047Y019411D02*
X003313Y019411D01*
X004100Y019094D02*
X004260Y019094D01*
X004260Y018936D02*
X004100Y018936D01*
X004100Y018777D02*
X004260Y018777D01*
X004260Y018619D02*
X004100Y018619D01*
X004043Y018460D02*
X004317Y018460D01*
X004496Y018302D02*
X003864Y018302D01*
X004864Y018302D02*
X005496Y018302D01*
X005317Y018460D02*
X005043Y018460D01*
X005100Y018619D02*
X005260Y018619D01*
X005260Y018777D02*
X005100Y018777D01*
X005100Y018936D02*
X005260Y018936D01*
X005260Y019094D02*
X005100Y019094D01*
X005100Y019253D02*
X005260Y019253D01*
X005313Y019411D02*
X005047Y019411D01*
X002313Y019411D02*
X002160Y019411D01*
X002260Y019253D02*
X001390Y019253D01*
X001390Y019411D02*
X001700Y019411D01*
X001590Y019570D02*
X001390Y019570D01*
X001390Y019728D02*
X001570Y019728D01*
X001622Y019887D02*
X001390Y019887D01*
X001390Y020045D02*
X001846Y020045D01*
X002014Y020045D02*
X002320Y020045D01*
X002348Y020204D02*
X001390Y020204D01*
X001390Y020362D02*
X002468Y020362D01*
X002260Y019094D02*
X001390Y019094D01*
X001390Y018936D02*
X002260Y018936D01*
X002260Y018777D02*
X001390Y018777D01*
X001390Y018619D02*
X002260Y018619D01*
X002317Y018460D02*
X001390Y018460D01*
X001390Y018302D02*
X002496Y018302D01*
X001390Y021472D02*
X019851Y021472D01*
X019693Y021630D02*
X001390Y021630D01*
X001390Y021789D02*
X019534Y021789D01*
X019164Y021947D02*
X001390Y021947D01*
X001390Y022106D02*
X019075Y022106D01*
X019071Y022264D02*
X001390Y022264D01*
X001390Y022423D02*
X019153Y022423D01*
X015307Y024483D02*
X015053Y024483D01*
X015100Y024642D02*
X015260Y024642D01*
X015260Y024800D02*
X015100Y024800D01*
X015100Y024959D02*
X015260Y024959D01*
X015260Y025117D02*
X015100Y025117D01*
X015100Y025276D02*
X015260Y025276D01*
X015322Y025434D02*
X015038Y025434D01*
X014830Y025593D02*
X015530Y025593D01*
X015830Y025593D02*
X016036Y025593D01*
X014530Y025593D02*
X013830Y025593D01*
X014038Y025434D02*
X014322Y025434D01*
X014260Y025276D02*
X014100Y025276D01*
X014100Y025117D02*
X014260Y025117D01*
X014260Y024959D02*
X014100Y024959D01*
X014100Y024800D02*
X014260Y024800D01*
X014260Y024642D02*
X014100Y024642D01*
X014053Y024483D02*
X014307Y024483D01*
X013260Y024800D02*
X013117Y024800D01*
X013100Y024959D02*
X013260Y024959D01*
X013260Y025117D02*
X013100Y025117D01*
X013100Y025276D02*
X013260Y025276D01*
X013322Y025434D02*
X013038Y025434D01*
X012830Y025593D02*
X013530Y025593D01*
X012530Y025593D02*
X011830Y025593D01*
X011764Y025620D02*
X011918Y025556D01*
X012036Y025438D01*
X012100Y025284D01*
X012100Y024596D01*
X012036Y024442D01*
X011918Y024324D01*
X011764Y024260D01*
X011596Y024260D01*
X011442Y024324D01*
X011324Y024442D01*
X011260Y024596D01*
X011260Y025284D01*
X011324Y025438D01*
X011442Y025556D01*
X011596Y025620D01*
X011764Y025620D01*
X011530Y025593D02*
X010830Y025593D01*
X010764Y025620D02*
X010918Y025556D01*
X011036Y025438D01*
X011100Y025284D01*
X011100Y024596D01*
X011036Y024442D01*
X010918Y024324D01*
X010764Y024260D01*
X010596Y024260D01*
X010442Y024324D01*
X010324Y024442D01*
X010260Y024596D01*
X010260Y025284D01*
X010324Y025438D01*
X010442Y025556D01*
X010596Y025620D01*
X010764Y025620D01*
X010530Y025593D02*
X009830Y025593D01*
X009764Y025620D02*
X009596Y025620D01*
X009442Y025556D01*
X009324Y025438D01*
X009260Y025284D01*
X009260Y024596D01*
X009324Y024442D01*
X009442Y024324D01*
X009596Y024260D01*
X009764Y024260D01*
X009918Y024324D01*
X010036Y024442D01*
X010100Y024596D01*
X010100Y025284D01*
X010036Y025438D01*
X009918Y025556D01*
X009764Y025620D01*
X009530Y025593D02*
X008830Y025593D01*
X009038Y025434D02*
X009322Y025434D01*
X009260Y025276D02*
X009100Y025276D01*
X009100Y025117D02*
X009260Y025117D01*
X009260Y024959D02*
X009100Y024959D01*
X009100Y024800D02*
X009260Y024800D01*
X009260Y024642D02*
X009100Y024642D01*
X009053Y024483D02*
X009307Y024483D01*
X009441Y024325D02*
X008919Y024325D01*
X008441Y024325D02*
X008362Y024325D01*
X008203Y024166D02*
X013157Y024166D01*
X013315Y024008D02*
X008045Y024008D01*
X007307Y024483D02*
X007053Y024483D01*
X007100Y024642D02*
X007260Y024642D01*
X007260Y024800D02*
X007100Y024800D01*
X007100Y024959D02*
X007260Y024959D01*
X007260Y025117D02*
X007100Y025117D01*
X007100Y025276D02*
X007260Y025276D01*
X007322Y025434D02*
X007038Y025434D01*
X006830Y025593D02*
X007530Y025593D01*
X007830Y025593D02*
X008530Y025593D01*
X008322Y025434D02*
X008038Y025434D01*
X008100Y025276D02*
X008260Y025276D01*
X008260Y025117D02*
X008100Y025117D01*
X008100Y024959D02*
X008260Y024959D01*
X008243Y024800D02*
X008100Y024800D01*
X006530Y025593D02*
X005830Y025593D01*
X006038Y025434D02*
X006322Y025434D01*
X006260Y025276D02*
X006100Y025276D01*
X006100Y025117D02*
X006260Y025117D01*
X006260Y024959D02*
X006100Y024959D01*
X006100Y024800D02*
X006260Y024800D01*
X006260Y024642D02*
X006100Y024642D01*
X006053Y024483D02*
X006307Y024483D01*
X005307Y024483D02*
X005053Y024483D01*
X005100Y024642D02*
X005260Y024642D01*
X005260Y024800D02*
X005100Y024800D01*
X005100Y024959D02*
X005260Y024959D01*
X005260Y025117D02*
X005100Y025117D01*
X005100Y025276D02*
X005260Y025276D01*
X005322Y025434D02*
X005038Y025434D01*
X004830Y025593D02*
X005530Y025593D01*
X004511Y026068D02*
X001010Y026068D01*
X001010Y025910D02*
X004353Y025910D01*
X004194Y025751D02*
X001010Y025751D01*
X001010Y025593D02*
X002530Y025593D01*
X002322Y025434D02*
X001010Y025434D01*
X001010Y025276D02*
X001422Y025276D01*
X001263Y025117D02*
X001010Y025117D01*
X001010Y024959D02*
X001260Y024959D01*
X001260Y024800D02*
X001010Y024800D01*
X001010Y024642D02*
X001384Y024642D01*
X001301Y024483D02*
X001010Y024483D01*
X001010Y024325D02*
X001143Y024325D01*
X001976Y024642D02*
X002260Y024642D01*
X002260Y024800D02*
X002100Y024800D01*
X002100Y024959D02*
X002260Y024959D01*
X002260Y025117D02*
X002097Y025117D01*
X001938Y025276D02*
X002260Y025276D01*
X002830Y025593D02*
X003530Y025593D01*
X003322Y025434D02*
X003038Y025434D01*
X003100Y025276D02*
X003260Y025276D01*
X003260Y025117D02*
X003100Y025117D01*
X003100Y024959D02*
X003260Y024959D01*
X003260Y024800D02*
X003100Y024800D01*
X003100Y024642D02*
X003260Y024642D01*
X003307Y024483D02*
X003053Y024483D01*
X002307Y024483D02*
X002059Y024483D01*
X003830Y025593D02*
X004036Y025593D01*
X010038Y025434D02*
X010322Y025434D01*
X010260Y025276D02*
X010100Y025276D01*
X010100Y025117D02*
X010260Y025117D01*
X010260Y024959D02*
X010100Y024959D01*
X010100Y024800D02*
X010260Y024800D01*
X010260Y024642D02*
X010100Y024642D01*
X010053Y024483D02*
X010307Y024483D01*
X010441Y024325D02*
X009919Y024325D01*
X010919Y024325D02*
X011441Y024325D01*
X011307Y024483D02*
X011053Y024483D01*
X011100Y024642D02*
X011260Y024642D01*
X011260Y024800D02*
X011100Y024800D01*
X011100Y024959D02*
X011260Y024959D01*
X011260Y025117D02*
X011100Y025117D01*
X011100Y025276D02*
X011260Y025276D01*
X011322Y025434D02*
X011038Y025434D01*
X012038Y025434D02*
X012322Y025434D01*
X012260Y025276D02*
X012100Y025276D01*
X012100Y025117D02*
X012260Y025117D01*
X012260Y024959D02*
X012100Y024959D01*
X012100Y024800D02*
X012260Y024800D01*
X012260Y024642D02*
X012100Y024642D01*
X012053Y024483D02*
X012307Y024483D01*
X012441Y024325D02*
X011919Y024325D01*
X012919Y024325D02*
X012998Y024325D01*
X010588Y015607D02*
X010540Y015607D01*
X027235Y026068D02*
X029878Y026068D01*
X029760Y025910D02*
X027394Y025910D01*
X027552Y025751D02*
X029720Y025751D01*
X029720Y025593D02*
X027590Y025593D01*
X030170Y025276D02*
X030190Y025276D01*
X030190Y025117D02*
X030170Y025117D01*
X030170Y024959D02*
X030190Y024959D01*
X030190Y024800D02*
X030170Y024800D01*
X030467Y024800D02*
X030918Y024800D01*
X030787Y024959D02*
X030594Y024959D01*
X030639Y025117D02*
X030740Y025117D01*
X030740Y025276D02*
X030640Y025276D01*
M02*
