G75*
%MOIN*%
%OFA0B0*%
%FSLAX24Y24*%
%IPPOS*%
%LPD*%
%AMOC8*
5,1,8,0,0,1.08239X$1,22.5*
%
%ADD10C,0.0000*%
D10*
X000680Y000140D02*
X032680Y000140D01*
X032680Y003440D01*
X041680Y003440D01*
X041680Y022936D01*
X000180Y022936D01*
X000180Y003440D01*
X000680Y003440D01*
X000680Y000140D01*
X037975Y012940D02*
X037977Y012970D01*
X037983Y013000D01*
X037992Y013029D01*
X038005Y013056D01*
X038022Y013081D01*
X038041Y013104D01*
X038064Y013125D01*
X038089Y013142D01*
X038115Y013156D01*
X038144Y013166D01*
X038173Y013173D01*
X038203Y013176D01*
X038234Y013175D01*
X038264Y013170D01*
X038293Y013161D01*
X038320Y013149D01*
X038346Y013134D01*
X038370Y013115D01*
X038391Y013093D01*
X038409Y013069D01*
X038424Y013042D01*
X038435Y013014D01*
X038443Y012985D01*
X038447Y012955D01*
X038447Y012925D01*
X038443Y012895D01*
X038435Y012866D01*
X038424Y012838D01*
X038409Y012811D01*
X038391Y012787D01*
X038370Y012765D01*
X038346Y012746D01*
X038320Y012731D01*
X038293Y012719D01*
X038264Y012710D01*
X038234Y012705D01*
X038203Y012704D01*
X038173Y012707D01*
X038144Y012714D01*
X038115Y012724D01*
X038089Y012738D01*
X038064Y012755D01*
X038041Y012776D01*
X038022Y012799D01*
X038005Y012824D01*
X037992Y012851D01*
X037983Y012880D01*
X037977Y012910D01*
X037975Y012940D01*
X039944Y010971D02*
X039946Y011001D01*
X039952Y011031D01*
X039961Y011060D01*
X039974Y011087D01*
X039991Y011112D01*
X040010Y011135D01*
X040033Y011156D01*
X040058Y011173D01*
X040084Y011187D01*
X040113Y011197D01*
X040142Y011204D01*
X040172Y011207D01*
X040203Y011206D01*
X040233Y011201D01*
X040262Y011192D01*
X040289Y011180D01*
X040315Y011165D01*
X040339Y011146D01*
X040360Y011124D01*
X040378Y011100D01*
X040393Y011073D01*
X040404Y011045D01*
X040412Y011016D01*
X040416Y010986D01*
X040416Y010956D01*
X040412Y010926D01*
X040404Y010897D01*
X040393Y010869D01*
X040378Y010842D01*
X040360Y010818D01*
X040339Y010796D01*
X040315Y010777D01*
X040289Y010762D01*
X040262Y010750D01*
X040233Y010741D01*
X040203Y010736D01*
X040172Y010735D01*
X040142Y010738D01*
X040113Y010745D01*
X040084Y010755D01*
X040058Y010769D01*
X040033Y010786D01*
X040010Y010807D01*
X039991Y010830D01*
X039974Y010855D01*
X039961Y010882D01*
X039952Y010911D01*
X039946Y010941D01*
X039944Y010971D01*
X040928Y010971D02*
X040930Y011001D01*
X040936Y011031D01*
X040945Y011060D01*
X040958Y011087D01*
X040975Y011112D01*
X040994Y011135D01*
X041017Y011156D01*
X041042Y011173D01*
X041068Y011187D01*
X041097Y011197D01*
X041126Y011204D01*
X041156Y011207D01*
X041187Y011206D01*
X041217Y011201D01*
X041246Y011192D01*
X041273Y011180D01*
X041299Y011165D01*
X041323Y011146D01*
X041344Y011124D01*
X041362Y011100D01*
X041377Y011073D01*
X041388Y011045D01*
X041396Y011016D01*
X041400Y010986D01*
X041400Y010956D01*
X041396Y010926D01*
X041388Y010897D01*
X041377Y010869D01*
X041362Y010842D01*
X041344Y010818D01*
X041323Y010796D01*
X041299Y010777D01*
X041273Y010762D01*
X041246Y010750D01*
X041217Y010741D01*
X041187Y010736D01*
X041156Y010735D01*
X041126Y010738D01*
X041097Y010745D01*
X041068Y010755D01*
X041042Y010769D01*
X041017Y010786D01*
X040994Y010807D01*
X040975Y010830D01*
X040958Y010855D01*
X040945Y010882D01*
X040936Y010911D01*
X040930Y010941D01*
X040928Y010971D01*
X040928Y014909D02*
X040930Y014939D01*
X040936Y014969D01*
X040945Y014998D01*
X040958Y015025D01*
X040975Y015050D01*
X040994Y015073D01*
X041017Y015094D01*
X041042Y015111D01*
X041068Y015125D01*
X041097Y015135D01*
X041126Y015142D01*
X041156Y015145D01*
X041187Y015144D01*
X041217Y015139D01*
X041246Y015130D01*
X041273Y015118D01*
X041299Y015103D01*
X041323Y015084D01*
X041344Y015062D01*
X041362Y015038D01*
X041377Y015011D01*
X041388Y014983D01*
X041396Y014954D01*
X041400Y014924D01*
X041400Y014894D01*
X041396Y014864D01*
X041388Y014835D01*
X041377Y014807D01*
X041362Y014780D01*
X041344Y014756D01*
X041323Y014734D01*
X041299Y014715D01*
X041273Y014700D01*
X041246Y014688D01*
X041217Y014679D01*
X041187Y014674D01*
X041156Y014673D01*
X041126Y014676D01*
X041097Y014683D01*
X041068Y014693D01*
X041042Y014707D01*
X041017Y014724D01*
X040994Y014745D01*
X040975Y014768D01*
X040958Y014793D01*
X040945Y014820D01*
X040936Y014849D01*
X040930Y014879D01*
X040928Y014909D01*
X039944Y014909D02*
X039946Y014939D01*
X039952Y014969D01*
X039961Y014998D01*
X039974Y015025D01*
X039991Y015050D01*
X040010Y015073D01*
X040033Y015094D01*
X040058Y015111D01*
X040084Y015125D01*
X040113Y015135D01*
X040142Y015142D01*
X040172Y015145D01*
X040203Y015144D01*
X040233Y015139D01*
X040262Y015130D01*
X040289Y015118D01*
X040315Y015103D01*
X040339Y015084D01*
X040360Y015062D01*
X040378Y015038D01*
X040393Y015011D01*
X040404Y014983D01*
X040412Y014954D01*
X040416Y014924D01*
X040416Y014894D01*
X040412Y014864D01*
X040404Y014835D01*
X040393Y014807D01*
X040378Y014780D01*
X040360Y014756D01*
X040339Y014734D01*
X040315Y014715D01*
X040289Y014700D01*
X040262Y014688D01*
X040233Y014679D01*
X040203Y014674D01*
X040172Y014673D01*
X040142Y014676D01*
X040113Y014683D01*
X040084Y014693D01*
X040058Y014707D01*
X040033Y014724D01*
X040010Y014745D01*
X039991Y014768D01*
X039974Y014793D01*
X039961Y014820D01*
X039952Y014849D01*
X039946Y014879D01*
X039944Y014909D01*
X039555Y021940D02*
X039557Y021990D01*
X039563Y022039D01*
X039573Y022088D01*
X039586Y022135D01*
X039604Y022182D01*
X039625Y022227D01*
X039649Y022270D01*
X039677Y022311D01*
X039708Y022350D01*
X039742Y022386D01*
X039779Y022420D01*
X039819Y022450D01*
X039860Y022477D01*
X039904Y022501D01*
X039949Y022521D01*
X039996Y022537D01*
X040044Y022550D01*
X040093Y022559D01*
X040143Y022564D01*
X040192Y022565D01*
X040242Y022562D01*
X040291Y022555D01*
X040340Y022544D01*
X040387Y022530D01*
X040433Y022511D01*
X040478Y022489D01*
X040521Y022464D01*
X040561Y022435D01*
X040599Y022403D01*
X040635Y022369D01*
X040668Y022331D01*
X040697Y022291D01*
X040723Y022249D01*
X040746Y022205D01*
X040765Y022159D01*
X040781Y022112D01*
X040793Y022063D01*
X040801Y022014D01*
X040805Y021965D01*
X040805Y021915D01*
X040801Y021866D01*
X040793Y021817D01*
X040781Y021768D01*
X040765Y021721D01*
X040746Y021675D01*
X040723Y021631D01*
X040697Y021589D01*
X040668Y021549D01*
X040635Y021511D01*
X040599Y021477D01*
X040561Y021445D01*
X040521Y021416D01*
X040478Y021391D01*
X040433Y021369D01*
X040387Y021350D01*
X040340Y021336D01*
X040291Y021325D01*
X040242Y021318D01*
X040192Y021315D01*
X040143Y021316D01*
X040093Y021321D01*
X040044Y021330D01*
X039996Y021343D01*
X039949Y021359D01*
X039904Y021379D01*
X039860Y021403D01*
X039819Y021430D01*
X039779Y021460D01*
X039742Y021494D01*
X039708Y021530D01*
X039677Y021569D01*
X039649Y021610D01*
X039625Y021653D01*
X039604Y021698D01*
X039586Y021745D01*
X039573Y021792D01*
X039563Y021841D01*
X039557Y021890D01*
X039555Y021940D01*
X039555Y004440D02*
X039557Y004490D01*
X039563Y004539D01*
X039573Y004588D01*
X039586Y004635D01*
X039604Y004682D01*
X039625Y004727D01*
X039649Y004770D01*
X039677Y004811D01*
X039708Y004850D01*
X039742Y004886D01*
X039779Y004920D01*
X039819Y004950D01*
X039860Y004977D01*
X039904Y005001D01*
X039949Y005021D01*
X039996Y005037D01*
X040044Y005050D01*
X040093Y005059D01*
X040143Y005064D01*
X040192Y005065D01*
X040242Y005062D01*
X040291Y005055D01*
X040340Y005044D01*
X040387Y005030D01*
X040433Y005011D01*
X040478Y004989D01*
X040521Y004964D01*
X040561Y004935D01*
X040599Y004903D01*
X040635Y004869D01*
X040668Y004831D01*
X040697Y004791D01*
X040723Y004749D01*
X040746Y004705D01*
X040765Y004659D01*
X040781Y004612D01*
X040793Y004563D01*
X040801Y004514D01*
X040805Y004465D01*
X040805Y004415D01*
X040801Y004366D01*
X040793Y004317D01*
X040781Y004268D01*
X040765Y004221D01*
X040746Y004175D01*
X040723Y004131D01*
X040697Y004089D01*
X040668Y004049D01*
X040635Y004011D01*
X040599Y003977D01*
X040561Y003945D01*
X040521Y003916D01*
X040478Y003891D01*
X040433Y003869D01*
X040387Y003850D01*
X040340Y003836D01*
X040291Y003825D01*
X040242Y003818D01*
X040192Y003815D01*
X040143Y003816D01*
X040093Y003821D01*
X040044Y003830D01*
X039996Y003843D01*
X039949Y003859D01*
X039904Y003879D01*
X039860Y003903D01*
X039819Y003930D01*
X039779Y003960D01*
X039742Y003994D01*
X039708Y004030D01*
X039677Y004069D01*
X039649Y004110D01*
X039625Y004153D01*
X039604Y004198D01*
X039586Y004245D01*
X039573Y004292D01*
X039563Y004341D01*
X039557Y004390D01*
X039555Y004440D01*
M02*
