G75*
%MOIN*%
%OFA0B0*%
%FSLAX24Y24*%
%IPPOS*%
%LPD*%
%AMOC8*
5,1,8,0,0,1.08239X$1,22.5*
%
%ADD10R,0.0600X0.2550*%
%ADD11OC8,0.0520*%
%ADD12OC8,0.0600*%
%ADD13C,0.0520*%
%ADD14C,0.0520*%
%ADD15OC8,0.0630*%
%ADD16C,0.0630*%
%ADD17C,0.0560*%
%ADD18C,0.0860*%
%ADD19C,0.0660*%
%ADD20C,0.1102*%
%ADD21OC8,0.0560*%
%ADD22C,0.0100*%
%ADD23C,0.0400*%
%ADD24C,0.0200*%
%ADD25C,0.0160*%
D10*
X001680Y001940D03*
X002680Y001940D03*
X003680Y001940D03*
X004680Y001940D03*
X005680Y001940D03*
X006680Y001940D03*
X007680Y001940D03*
X008680Y001940D03*
X009680Y001940D03*
X010680Y001940D03*
X011680Y001940D03*
X012680Y001940D03*
X013680Y001940D03*
X014680Y001940D03*
X015680Y001940D03*
X016680Y001940D03*
X017680Y001940D03*
X018680Y001940D03*
X019680Y001940D03*
X020680Y001940D03*
X021680Y001940D03*
X022680Y001940D03*
X023680Y001940D03*
X024680Y001940D03*
X025680Y001940D03*
X026680Y001940D03*
X027680Y001940D03*
X028680Y001940D03*
X029680Y001940D03*
X030680Y001940D03*
X031680Y001940D03*
D11*
X036180Y004440D03*
X037180Y004440D03*
X034680Y005940D03*
X034680Y006940D03*
X034180Y008440D03*
X032680Y008440D03*
X032680Y009440D03*
X035680Y010440D03*
X035680Y011440D03*
X034180Y011440D03*
X020680Y011440D03*
X020680Y010440D03*
X012180Y010440D03*
X012180Y011440D03*
X000680Y011440D03*
X000680Y010440D03*
X001180Y018440D03*
X002680Y019940D03*
X003680Y019940D03*
X001180Y021440D03*
X010180Y021440D03*
X010180Y020440D03*
X016180Y020440D03*
X017680Y019940D03*
X018680Y019940D03*
X019680Y021440D03*
X022680Y021440D03*
X024180Y021440D03*
X025180Y021440D03*
X024180Y020440D03*
X028180Y021440D03*
X029680Y019940D03*
X030680Y019940D03*
X032180Y020440D03*
X032180Y021440D03*
X033680Y018940D03*
X034680Y018940D03*
X016180Y021440D03*
D12*
X010680Y013940D03*
X010680Y005940D03*
X009680Y005940D03*
X008680Y005940D03*
X007680Y005940D03*
X006680Y005940D03*
X005680Y005940D03*
X004680Y005940D03*
X003680Y005940D03*
X002680Y005940D03*
X001680Y005940D03*
X001680Y004940D03*
X002680Y004940D03*
X003680Y004940D03*
X004680Y004940D03*
X005680Y004940D03*
X006680Y004940D03*
X007680Y004940D03*
X008680Y004940D03*
X009680Y004940D03*
X010680Y004940D03*
X011680Y004940D03*
X012680Y004940D03*
X013680Y004940D03*
X014680Y004940D03*
X015680Y004940D03*
X016680Y004940D03*
X017680Y004940D03*
X018680Y004940D03*
X019680Y004940D03*
X020680Y004940D03*
X021680Y004940D03*
X022680Y004940D03*
X023680Y004940D03*
X024680Y004940D03*
X025680Y004940D03*
X026680Y004940D03*
X027680Y004940D03*
X028680Y004940D03*
X029680Y004940D03*
X030680Y004940D03*
X031680Y004940D03*
X031680Y005940D03*
X030680Y005940D03*
X029680Y005940D03*
X028680Y005940D03*
X027680Y005940D03*
X026680Y005940D03*
X025680Y005940D03*
X024680Y005940D03*
X023680Y005940D03*
X022680Y005940D03*
X021680Y005940D03*
X020680Y005940D03*
X019680Y005940D03*
X018680Y005940D03*
X017680Y005940D03*
X016680Y005940D03*
X015680Y005940D03*
X014680Y005940D03*
X013680Y005940D03*
X012680Y005940D03*
X011680Y005940D03*
D13*
X010680Y008180D02*
X010680Y008700D01*
X009680Y008700D02*
X009680Y008180D01*
X008680Y008180D02*
X008680Y008700D01*
X007680Y008700D02*
X007680Y008180D01*
X006680Y008180D02*
X006680Y008700D01*
X005680Y008700D02*
X005680Y008180D01*
X004680Y008180D02*
X004680Y008700D01*
X003680Y008700D02*
X003680Y008180D01*
X002680Y008180D02*
X002680Y008700D01*
X001680Y008700D02*
X001680Y008180D01*
X001680Y011180D02*
X001680Y011700D01*
X002680Y011700D02*
X002680Y011180D01*
X003680Y011180D02*
X003680Y011700D01*
X004680Y011700D02*
X004680Y011180D01*
X005680Y011180D02*
X005680Y011700D01*
X006680Y011700D02*
X006680Y011180D01*
X007680Y011180D02*
X007680Y011700D01*
X008680Y011700D02*
X008680Y011180D01*
X009680Y011180D02*
X009680Y011700D01*
X010680Y011700D02*
X010680Y011180D01*
X013180Y011180D02*
X013180Y011700D01*
X014180Y011700D02*
X014180Y011180D01*
X015180Y011180D02*
X015180Y011700D01*
X016180Y011700D02*
X016180Y011180D01*
X017180Y011180D02*
X017180Y011700D01*
X018180Y011700D02*
X018180Y011180D01*
X019180Y011180D02*
X019180Y011700D01*
X018680Y012680D02*
X018680Y013200D01*
X017680Y013200D02*
X017680Y012680D01*
X016680Y012680D02*
X016680Y013200D01*
X015680Y013200D02*
X015680Y012680D01*
X014680Y012680D02*
X014680Y013200D01*
X013680Y013200D02*
X013680Y012680D01*
X012680Y012680D02*
X012680Y013200D01*
X009680Y013200D02*
X009680Y012680D01*
X008680Y012680D02*
X008680Y013200D01*
X007680Y013200D02*
X007680Y012680D01*
X006680Y012680D02*
X006680Y013200D01*
X005680Y013200D02*
X005680Y012680D01*
X004680Y012680D02*
X004680Y013200D01*
X003680Y013200D02*
X003680Y012680D01*
X002680Y012680D02*
X002680Y013200D01*
X001680Y013200D02*
X001680Y012680D01*
X001680Y014180D02*
X001680Y014700D01*
X002680Y014700D02*
X002680Y014180D01*
X003680Y014180D02*
X003680Y014700D01*
X004680Y014700D02*
X004680Y014180D01*
X005680Y014180D02*
X005680Y014700D01*
X006680Y014700D02*
X006680Y014180D01*
X007680Y014180D02*
X007680Y014700D01*
X008680Y014700D02*
X008680Y014180D01*
X008680Y017180D02*
X008680Y017700D01*
X007680Y017700D02*
X007680Y017180D01*
X006680Y017180D02*
X006680Y017700D01*
X005680Y017700D02*
X005680Y017180D01*
X004680Y017180D02*
X004680Y017700D01*
X003680Y017700D02*
X003680Y017180D01*
X002680Y017180D02*
X002680Y017700D01*
X001680Y017700D02*
X001680Y017180D01*
X012680Y018680D02*
X012680Y019200D01*
X013680Y019200D02*
X013680Y018680D01*
X014680Y018680D02*
X014680Y019200D01*
X015680Y019200D02*
X015680Y018680D01*
X016680Y018680D02*
X016680Y019200D01*
X017680Y019200D02*
X017680Y018680D01*
X018680Y018680D02*
X018680Y019200D01*
X019680Y019200D02*
X019680Y018680D01*
X020680Y018680D02*
X020680Y019200D01*
X021680Y019200D02*
X021680Y018680D01*
X022680Y018680D02*
X022680Y019200D01*
X023680Y019200D02*
X023680Y018680D01*
X024680Y018680D02*
X024680Y019200D01*
X025680Y019200D02*
X025680Y018680D01*
X027420Y018940D02*
X027940Y018940D01*
X027940Y017940D02*
X027420Y017940D01*
X027420Y016940D02*
X027940Y016940D01*
X027940Y015940D02*
X027420Y015940D01*
X027420Y014940D02*
X027940Y014940D01*
X027940Y013940D02*
X027420Y013940D01*
X025680Y013200D02*
X025680Y012680D01*
X024680Y012680D02*
X024680Y013200D01*
X023680Y013200D02*
X023680Y012680D01*
X022680Y012680D02*
X022680Y013200D01*
X021680Y013200D02*
X021680Y012680D01*
X020680Y012680D02*
X020680Y013200D01*
X019680Y013200D02*
X019680Y012680D01*
X021680Y011700D02*
X021680Y011180D01*
X022680Y011180D02*
X022680Y011700D01*
X023680Y011700D02*
X023680Y011180D01*
X024680Y011180D02*
X024680Y011700D01*
X025680Y011700D02*
X025680Y011180D01*
X026680Y011180D02*
X026680Y011700D01*
X027680Y011700D02*
X027680Y011180D01*
X028680Y011180D02*
X028680Y011700D01*
X029680Y011700D02*
X029680Y011180D01*
X030680Y011180D02*
X030680Y011700D01*
X030420Y012940D02*
X030940Y012940D01*
X030940Y013940D02*
X030420Y013940D01*
X030420Y014940D02*
X030940Y014940D01*
X030940Y015940D02*
X030420Y015940D01*
X030420Y016940D02*
X030940Y016940D01*
X030940Y017940D02*
X030420Y017940D01*
X030420Y018940D02*
X030940Y018940D01*
X027940Y012940D02*
X027420Y012940D01*
X027680Y008700D02*
X027680Y008180D01*
X026680Y008180D02*
X026680Y008700D01*
X025680Y008700D02*
X025680Y008180D01*
X024680Y008180D02*
X024680Y008700D01*
X023680Y008700D02*
X023680Y008180D01*
X022680Y008180D02*
X022680Y008700D01*
X021680Y008700D02*
X021680Y008180D01*
X019180Y008180D02*
X019180Y008700D01*
X018180Y008700D02*
X018180Y008180D01*
X017180Y008180D02*
X017180Y008700D01*
X016180Y008700D02*
X016180Y008180D01*
X015180Y008180D02*
X015180Y008700D01*
X014180Y008700D02*
X014180Y008180D01*
X013180Y008180D02*
X013180Y008700D01*
X028680Y008700D02*
X028680Y008180D01*
X029680Y008180D02*
X029680Y008700D01*
X030680Y008700D02*
X030680Y008180D01*
D14*
X035680Y007940D03*
X035680Y006940D03*
X035680Y005940D03*
X038680Y005940D03*
X038680Y006940D03*
X038680Y007940D03*
X038680Y008940D03*
X035680Y008940D03*
X014130Y020940D03*
X012230Y020940D03*
D15*
X033180Y013440D03*
D16*
X034180Y013440D03*
D17*
X034180Y015660D02*
X034180Y016220D01*
X033180Y016220D02*
X033180Y015660D01*
X033680Y021160D02*
X033680Y021720D01*
X034680Y021720D02*
X034680Y021160D01*
D18*
X038211Y014909D03*
X038211Y013924D03*
X040180Y012940D03*
X038211Y011956D03*
X038211Y010971D03*
D19*
X037680Y017456D03*
X039680Y017456D03*
X039680Y018440D03*
X037680Y018440D03*
X037680Y019424D03*
X039680Y019424D03*
D20*
X038814Y020054D03*
X036814Y020054D03*
X036814Y016826D03*
X038814Y016826D03*
D21*
X007680Y019440D03*
X006680Y019440D03*
X005680Y019440D03*
X005680Y020440D03*
X006680Y020440D03*
X007680Y020440D03*
D22*
X008100Y020860D01*
X010170Y020860D01*
X010665Y021355D01*
X014310Y021355D01*
X014625Y021040D01*
X026415Y021040D01*
X028350Y019105D01*
X028350Y016765D01*
X027720Y016135D01*
X027720Y015955D01*
X027680Y015940D01*
X028530Y014965D02*
X028530Y019195D01*
X025875Y021850D01*
X005580Y021850D01*
X003690Y019960D01*
X003680Y019940D01*
X009360Y018115D02*
X014265Y013210D01*
X014265Y012175D01*
X014580Y011860D01*
X014580Y011005D01*
X013050Y009475D01*
X012600Y009475D01*
X009135Y006010D01*
X009135Y005785D01*
X008730Y005380D01*
X008100Y005380D01*
X007695Y004975D01*
X007680Y004940D01*
X007695Y004930D01*
X007695Y001960D01*
X007680Y001940D01*
X006705Y001960D02*
X006680Y001940D01*
X006705Y001960D02*
X006705Y004930D01*
X006680Y004940D01*
X006525Y005470D02*
X007920Y005470D01*
X008370Y005920D01*
X008640Y005920D01*
X008680Y005940D01*
X007695Y005965D02*
X007680Y005940D01*
X007695Y005965D02*
X009090Y007360D01*
X009090Y008665D01*
X010665Y010240D01*
X010665Y011410D01*
X010680Y011440D01*
X008680Y011440D02*
X008640Y011410D01*
X008640Y010240D01*
X007110Y008710D01*
X007110Y007000D01*
X006210Y006100D01*
X006210Y005785D01*
X006525Y005470D01*
X006680Y005940D02*
X008640Y007900D01*
X008640Y008440D01*
X008680Y008440D01*
X006680Y008440D02*
X006660Y008440D01*
X006660Y006910D01*
X005715Y005965D01*
X005680Y005940D01*
X005680Y004940D02*
X005670Y004930D01*
X005670Y001960D01*
X005680Y001940D01*
X004680Y001940D02*
X004680Y004940D01*
X002700Y004930D02*
X002680Y004940D01*
X002700Y004930D02*
X002700Y001960D01*
X002680Y001940D01*
X008680Y001940D02*
X008685Y001960D01*
X008685Y004930D01*
X008680Y004940D01*
X009675Y004930D02*
X009680Y004940D01*
X009720Y004975D01*
X010125Y005380D01*
X010125Y006505D01*
X012915Y009295D01*
X013140Y009295D01*
X014760Y010915D01*
X014760Y011860D01*
X015075Y012175D01*
X015075Y013390D01*
X009990Y018475D01*
X013320Y015640D02*
X013320Y015415D01*
X015255Y013480D01*
X015255Y012220D01*
X015570Y011905D01*
X015570Y011005D01*
X013680Y009115D01*
X013005Y009115D01*
X012150Y008260D01*
X012150Y005425D01*
X011700Y004975D01*
X011680Y004940D01*
X011700Y004930D01*
X011700Y001960D01*
X011680Y001940D01*
X012680Y001940D02*
X012690Y001960D01*
X012690Y004930D01*
X012680Y004940D01*
X013680Y004940D02*
X013680Y001940D01*
X014670Y001960D02*
X014680Y001940D01*
X014670Y001960D02*
X014670Y004930D01*
X014680Y004940D01*
X015680Y004940D02*
X015705Y004930D01*
X015705Y001960D01*
X015680Y001940D01*
X016680Y001940D02*
X016695Y001960D01*
X016695Y004930D01*
X016680Y004940D01*
X017235Y005740D02*
X017595Y005380D01*
X018270Y005380D01*
X018675Y004975D01*
X018680Y004940D01*
X018675Y004930D01*
X018675Y001960D01*
X018680Y001940D01*
X019665Y001960D02*
X019680Y001940D01*
X019665Y001960D02*
X019665Y004930D01*
X019680Y004940D01*
X019665Y004975D01*
X019215Y005425D01*
X019215Y006055D01*
X017190Y008080D01*
X017190Y008440D01*
X017180Y008440D01*
X018180Y008440D02*
X018180Y010600D01*
X018765Y011185D01*
X018765Y012175D01*
X019260Y012670D01*
X019260Y017530D01*
X020655Y018925D01*
X020680Y018940D01*
X022680Y018940D02*
X022680Y016045D01*
X020070Y013435D01*
X020070Y011455D01*
X020655Y010870D01*
X020835Y010870D01*
X022680Y009025D01*
X022680Y008440D01*
X023175Y009115D02*
X023985Y009115D01*
X024660Y008440D01*
X024680Y008440D01*
X025110Y008980D02*
X025650Y008440D01*
X025680Y008440D01*
X026100Y008845D02*
X026100Y007360D01*
X024680Y005940D01*
X024680Y004940D02*
X024705Y004930D01*
X024705Y001960D01*
X024680Y001940D01*
X023680Y001940D02*
X023670Y001960D01*
X023670Y004930D01*
X023680Y004940D01*
X021690Y004930D02*
X021680Y004940D01*
X021690Y004930D02*
X021690Y001960D01*
X021680Y001940D01*
X020700Y001960D02*
X020680Y001940D01*
X020700Y001960D02*
X020700Y004930D01*
X020680Y004940D01*
X017685Y004930D02*
X017680Y004940D01*
X017685Y004930D02*
X017685Y001960D01*
X017680Y001940D01*
X010680Y001940D02*
X010665Y001960D01*
X010665Y004930D01*
X010680Y004940D01*
X009675Y004930D02*
X009675Y001960D01*
X009680Y001940D01*
X017235Y005740D02*
X017235Y006010D01*
X016875Y006370D01*
X015435Y006370D01*
X013365Y008440D01*
X013180Y008440D01*
X008370Y007135D02*
X007875Y006640D01*
X006255Y008170D02*
X005850Y007765D01*
X004500Y007765D01*
X003825Y008440D01*
X003680Y008440D01*
X005680Y008440D02*
X005715Y008440D01*
X005715Y008620D01*
X008100Y011005D01*
X008100Y012535D01*
X007695Y012940D01*
X007680Y012940D01*
X007695Y012985D01*
X007695Y014425D01*
X007680Y014440D01*
X007290Y014200D02*
X007290Y014875D01*
X007515Y015100D01*
X009540Y015100D01*
X010665Y013975D01*
X010680Y013940D01*
X008685Y014425D02*
X008685Y012985D01*
X008680Y012940D01*
X008640Y012940D01*
X008280Y012580D01*
X008280Y010915D01*
X006255Y008890D01*
X006255Y008170D01*
X006705Y010105D02*
X006705Y011410D01*
X006680Y011440D01*
X006705Y012265D02*
X007515Y011455D01*
X007650Y011455D01*
X007680Y011440D01*
X006705Y012265D02*
X004365Y012265D01*
X003690Y012940D01*
X003680Y012940D01*
X003285Y012715D02*
X003285Y013390D01*
X003645Y013750D01*
X006840Y013750D01*
X007290Y014200D01*
X008680Y014440D02*
X008685Y014425D01*
X003285Y012715D02*
X002700Y012130D01*
X002700Y011455D01*
X002680Y011440D01*
X020250Y012445D02*
X021285Y011410D01*
X021285Y011005D01*
X023175Y009115D01*
X025110Y008980D02*
X025110Y011860D01*
X024840Y012130D01*
X024660Y012130D01*
X024255Y012535D01*
X024255Y013210D01*
X023265Y014200D01*
X023265Y019375D01*
X023490Y019600D01*
X024840Y019600D01*
X025470Y018970D01*
X025650Y018970D01*
X025680Y018940D01*
X026100Y018520D02*
X026100Y019375D01*
X025695Y019780D01*
X023400Y019780D01*
X023085Y019465D01*
X023085Y016180D01*
X020250Y013345D01*
X020250Y012445D01*
X023715Y014740D02*
X025290Y013165D01*
X025290Y009655D01*
X026100Y008845D01*
X026280Y008800D02*
X026640Y008440D01*
X026680Y008440D01*
X026280Y008800D02*
X026280Y011680D01*
X025695Y012265D01*
X025695Y012940D01*
X025680Y012940D01*
X027000Y011950D02*
X027270Y011680D01*
X027270Y010690D01*
X029250Y008710D01*
X029250Y007000D01*
X030240Y006010D01*
X030240Y005380D01*
X030680Y004940D01*
X030690Y004930D01*
X030690Y001960D01*
X030680Y001940D01*
X028680Y001940D02*
X028665Y001960D01*
X028665Y004930D01*
X028680Y004940D01*
X029250Y004750D02*
X029250Y005515D01*
X029655Y005920D01*
X029680Y005940D01*
X030645Y005965D02*
X030680Y005940D01*
X030690Y005920D01*
X031140Y005470D01*
X031140Y004570D01*
X029295Y004705D02*
X029295Y004435D01*
X029295Y004705D02*
X029250Y004750D01*
X027680Y004940D02*
X027675Y004930D01*
X027675Y001960D01*
X027680Y001940D01*
X026685Y001960D02*
X026680Y001940D01*
X026685Y001960D02*
X026685Y004930D01*
X026680Y004940D01*
X025695Y004930D02*
X025680Y004940D01*
X025695Y004930D02*
X025695Y001960D01*
X025680Y001940D01*
X030645Y005965D02*
X030645Y007495D01*
X029700Y008440D01*
X029680Y008440D01*
X034605Y008440D02*
X034605Y010420D01*
X033705Y011320D01*
X033705Y014605D01*
X036090Y016990D01*
X036090Y017080D01*
X037440Y018430D01*
X037665Y018430D01*
X037680Y018440D01*
X037395Y018430D01*
X034695Y021130D01*
X034695Y021400D01*
X034680Y021440D01*
X027680Y018940D02*
X027675Y018925D01*
X027675Y018790D01*
X027000Y018115D01*
X027000Y011950D01*
X027680Y013940D02*
X027720Y013975D01*
X027720Y014155D01*
X028530Y014965D01*
X023715Y014740D02*
X023715Y018925D01*
X023680Y018940D01*
X024680Y018940D02*
X024705Y018925D01*
X024840Y018925D01*
X025515Y018250D01*
X025830Y018250D01*
X026100Y018520D01*
X034180Y011440D02*
X034155Y011410D01*
X036090Y009475D01*
X036090Y008935D01*
X038655Y006370D01*
X038655Y005965D01*
X038680Y005940D01*
X035680Y006940D02*
X035640Y006955D01*
X035640Y007405D01*
X034605Y008440D01*
D23*
X031140Y004570D03*
X029295Y004435D03*
X008370Y007135D03*
X007875Y006640D03*
X006705Y010105D03*
X013320Y015640D03*
X009360Y018115D03*
X009990Y018475D03*
D24*
X008235Y018475D02*
X008235Y016990D01*
X008505Y016720D01*
X008595Y016720D01*
X011160Y014155D01*
X011160Y012940D01*
X009680Y012940D01*
X011160Y012940D02*
X012680Y012940D01*
X012735Y012895D01*
X014175Y011455D01*
X014180Y011440D01*
X014085Y011410D01*
X013140Y010465D01*
X012195Y010465D01*
X012180Y010440D01*
X012180Y011440D02*
X012195Y011455D01*
X013140Y011455D01*
X013180Y011440D01*
X018675Y012940D02*
X018680Y012940D01*
X018675Y012940D02*
X018675Y017935D01*
X017685Y018925D01*
X017680Y018940D01*
X018680Y019940D02*
X018675Y019960D01*
X018225Y020410D01*
X016245Y020410D01*
X016180Y020440D01*
X016155Y020455D01*
X010215Y020455D01*
X010180Y020440D01*
X010125Y020365D01*
X008235Y018475D01*
X001260Y018475D01*
X001180Y018440D01*
X001170Y018430D01*
X001170Y010915D01*
X000765Y010510D01*
X000680Y010440D01*
X000720Y010420D01*
X000720Y005920D01*
X001665Y004975D01*
X001680Y004940D01*
X001665Y004840D01*
X001665Y001960D01*
X001680Y001940D01*
X003680Y001940D02*
X003690Y001960D01*
X003690Y004930D01*
X003680Y004940D01*
X003645Y005020D01*
X003645Y005290D01*
X003195Y005740D01*
X003195Y009925D01*
X001680Y011440D01*
X020680Y010440D02*
X020700Y010420D01*
X020700Y009385D01*
X021645Y008440D01*
X021680Y008440D01*
X021690Y008350D01*
X022185Y007855D01*
X022185Y005740D01*
X022635Y005290D01*
X022635Y005020D01*
X022680Y004940D01*
X022680Y001940D01*
X029680Y001940D02*
X029700Y001960D01*
X029700Y004930D01*
X029680Y004940D01*
X031680Y004940D02*
X031770Y004975D01*
X033705Y004975D01*
X034650Y005920D01*
X034680Y005940D01*
X035680Y005940D02*
X035685Y005965D01*
X036135Y006415D01*
X036135Y007270D01*
X035685Y007720D01*
X035685Y007900D01*
X035680Y007940D01*
X030680Y008440D02*
X030645Y008440D01*
X030645Y010555D01*
X030150Y011050D01*
X030150Y012400D01*
X029700Y012850D01*
X029655Y012940D01*
X030645Y013930D01*
X030680Y013940D01*
X029655Y012940D02*
X027680Y012940D01*
X024680Y011440D02*
X024660Y011455D01*
X024570Y011455D01*
X023805Y012220D01*
X021420Y012220D01*
X020700Y012940D01*
X020680Y012940D01*
X029700Y018925D02*
X030645Y017980D01*
X030680Y017940D01*
X029700Y018925D02*
X029700Y019915D01*
X029680Y019940D01*
X029790Y019960D01*
X030240Y020410D01*
X032085Y020410D01*
X032180Y020440D01*
X032220Y020455D01*
X032715Y020455D01*
X033660Y021400D01*
X033680Y021440D01*
X031680Y004940D02*
X031680Y001940D01*
D25*
X030900Y003940D02*
X030900Y004301D01*
X030936Y004265D01*
X031068Y004210D01*
X031212Y004210D01*
X031344Y004265D01*
X031445Y004366D01*
X031484Y004460D01*
X031660Y004460D01*
X031660Y004920D01*
X031700Y004920D01*
X031700Y004960D01*
X031660Y004960D01*
X031660Y005420D01*
X031481Y005420D01*
X031350Y005289D01*
X031350Y005557D01*
X031140Y005767D01*
X031140Y006131D01*
X030871Y006400D01*
X030855Y006400D01*
X030855Y007582D01*
X030697Y007740D01*
X030715Y007740D01*
X030783Y007751D01*
X030849Y007772D01*
X030911Y007804D01*
X030967Y007844D01*
X031016Y007893D01*
X031056Y007949D01*
X031088Y008011D01*
X031109Y008077D01*
X031120Y008145D01*
X031120Y008440D01*
X031120Y008735D01*
X031109Y008803D01*
X031088Y008869D01*
X031056Y008931D01*
X031016Y008987D01*
X030967Y009036D01*
X030911Y009076D01*
X030849Y009108D01*
X030783Y009129D01*
X030715Y009140D01*
X030680Y009140D01*
X030680Y008440D01*
X030680Y008440D01*
X031120Y008440D01*
X030680Y008440D01*
X030680Y008440D01*
X030680Y008440D01*
X030240Y008440D01*
X030240Y008735D01*
X030251Y008803D01*
X030272Y008869D01*
X030304Y008931D01*
X030344Y008987D01*
X030393Y009036D01*
X030449Y009076D01*
X030511Y009108D01*
X030577Y009129D01*
X030645Y009140D01*
X030680Y009140D01*
X030680Y008440D01*
X030240Y008440D01*
X030240Y008197D01*
X030100Y008337D01*
X030100Y008784D01*
X030036Y008938D01*
X029918Y009056D01*
X029764Y009120D01*
X029596Y009120D01*
X029442Y009056D01*
X029324Y008938D01*
X029323Y008934D01*
X027480Y010777D01*
X027480Y010808D01*
X027596Y010760D01*
X027764Y010760D01*
X027918Y010824D01*
X028036Y010942D01*
X028100Y011096D01*
X028100Y011784D01*
X028036Y011938D01*
X027918Y012056D01*
X027764Y012120D01*
X027596Y012120D01*
X027442Y012056D01*
X027324Y011938D01*
X027320Y011927D01*
X027210Y012037D01*
X027210Y012553D01*
X027251Y012532D01*
X027317Y012511D01*
X027385Y012500D01*
X027680Y012500D01*
X027975Y012500D01*
X028043Y012511D01*
X028109Y012532D01*
X028171Y012564D01*
X028227Y012604D01*
X028276Y012653D01*
X028316Y012709D01*
X028348Y012771D01*
X028369Y012837D01*
X028380Y012905D01*
X028380Y012940D01*
X028380Y012975D01*
X028369Y013043D01*
X028348Y013109D01*
X028316Y013171D01*
X028276Y013227D01*
X028227Y013276D01*
X028171Y013316D01*
X028109Y013348D01*
X028043Y013369D01*
X027975Y013380D01*
X027680Y013380D01*
X027680Y012940D01*
X027680Y012940D01*
X028380Y012940D01*
X027680Y012940D01*
X027680Y012940D01*
X027680Y013380D01*
X027385Y013380D01*
X027317Y013369D01*
X027251Y013348D01*
X027210Y013327D01*
X027210Y013572D01*
X027336Y013520D01*
X028024Y013520D01*
X028178Y013584D01*
X028296Y013702D01*
X028360Y013856D01*
X028360Y014024D01*
X028296Y014178D01*
X028178Y014296D01*
X028164Y014302D01*
X028617Y014755D01*
X028740Y014878D01*
X028740Y019282D01*
X026085Y021937D01*
X025962Y022060D01*
X005493Y022060D01*
X003793Y020360D01*
X003506Y020360D01*
X003260Y020114D01*
X003260Y019766D01*
X003506Y019520D01*
X003854Y019520D01*
X004100Y019766D01*
X004100Y020073D01*
X005667Y021640D01*
X009786Y021640D01*
X009760Y021614D01*
X009760Y021266D01*
X009956Y021070D01*
X008013Y021070D01*
X007823Y020880D01*
X007498Y020880D01*
X007240Y020622D01*
X007240Y020258D01*
X007498Y020000D01*
X007862Y020000D01*
X008120Y020258D01*
X008120Y020583D01*
X008187Y020650D01*
X009768Y020650D01*
X009740Y020622D01*
X009740Y020440D01*
X010180Y020440D01*
X010620Y020440D01*
X010620Y020622D01*
X010425Y020818D01*
X010752Y021145D01*
X011860Y021145D01*
X011810Y021024D01*
X011810Y020856D01*
X011874Y020702D01*
X011992Y020584D01*
X012146Y020520D01*
X012314Y020520D01*
X012468Y020584D01*
X012586Y020702D01*
X012650Y020856D01*
X012650Y021024D01*
X012600Y021145D01*
X013760Y021145D01*
X013710Y021024D01*
X013710Y020856D01*
X013774Y020702D01*
X013892Y020584D01*
X014046Y020520D01*
X014214Y020520D01*
X014368Y020584D01*
X014486Y020702D01*
X014539Y020830D01*
X015948Y020830D01*
X015740Y020622D01*
X015740Y020440D01*
X016180Y020440D01*
X016620Y020440D01*
X016620Y020622D01*
X016412Y020830D01*
X023948Y020830D01*
X023740Y020622D01*
X023740Y020440D01*
X024180Y020440D01*
X024620Y020440D01*
X024620Y020622D01*
X024412Y020830D01*
X026328Y020830D01*
X027798Y019360D01*
X027336Y019360D01*
X027182Y019296D01*
X027064Y019178D01*
X027000Y019024D01*
X027000Y018856D01*
X027064Y018702D01*
X027177Y018589D01*
X026913Y018325D01*
X026790Y018202D01*
X026790Y012109D01*
X026764Y012120D01*
X026596Y012120D01*
X026442Y012056D01*
X026324Y011938D01*
X026323Y011934D01*
X025925Y012332D01*
X026036Y012442D01*
X026100Y012596D01*
X026100Y013284D01*
X026036Y013438D01*
X025918Y013556D01*
X025764Y013620D01*
X025596Y013620D01*
X025442Y013556D01*
X025324Y013438D01*
X025321Y013431D01*
X023925Y014827D01*
X023925Y018331D01*
X024036Y018442D01*
X024100Y018596D01*
X024100Y019284D01*
X024056Y019390D01*
X024304Y019390D01*
X024260Y019284D01*
X024260Y018596D01*
X024324Y018442D01*
X024442Y018324D01*
X024596Y018260D01*
X024764Y018260D01*
X024918Y018324D01*
X025031Y018437D01*
X025305Y018163D01*
X025428Y018040D01*
X025917Y018040D01*
X026187Y018310D01*
X026310Y018433D01*
X026310Y019462D01*
X025905Y019867D01*
X025782Y019990D01*
X023313Y019990D01*
X022998Y019675D01*
X022890Y019567D01*
X022764Y019620D01*
X022596Y019620D01*
X022442Y019556D01*
X022324Y019438D01*
X022260Y019284D01*
X022260Y018596D01*
X022324Y018442D01*
X022442Y018324D01*
X022470Y018312D01*
X022470Y016132D01*
X019983Y013645D01*
X019901Y013563D01*
X019764Y013620D01*
X019596Y013620D01*
X019470Y013568D01*
X019470Y017443D01*
X020397Y018370D01*
X020442Y018324D01*
X020596Y018260D01*
X020764Y018260D01*
X020918Y018324D01*
X021036Y018442D01*
X021100Y018596D01*
X021100Y019284D01*
X021036Y019438D01*
X020918Y019556D01*
X020764Y019620D01*
X020596Y019620D01*
X020442Y019556D01*
X020324Y019438D01*
X020260Y019284D01*
X020260Y018827D01*
X020100Y018667D01*
X020100Y019284D01*
X020036Y019438D01*
X019918Y019556D01*
X019764Y019620D01*
X019596Y019620D01*
X019442Y019556D01*
X019324Y019438D01*
X019260Y019284D01*
X019260Y018596D01*
X019324Y018442D01*
X019442Y018324D01*
X019596Y018260D01*
X019693Y018260D01*
X019050Y017617D01*
X019050Y013404D01*
X019036Y013438D01*
X018935Y013539D01*
X018935Y017987D01*
X018895Y018082D01*
X018735Y018243D01*
X018783Y018251D01*
X018849Y018272D01*
X018911Y018304D01*
X018967Y018344D01*
X019016Y018393D01*
X019056Y018449D01*
X019088Y018511D01*
X019109Y018577D01*
X019120Y018645D01*
X019120Y018940D01*
X019120Y019235D01*
X019109Y019303D01*
X019088Y019369D01*
X019056Y019431D01*
X019016Y019487D01*
X018967Y019536D01*
X018927Y019565D01*
X019120Y019758D01*
X019120Y019940D01*
X019120Y020122D01*
X018862Y020380D01*
X018680Y020380D01*
X018680Y019940D01*
X018680Y019940D01*
X019120Y019940D01*
X018680Y019940D01*
X018680Y019940D01*
X018680Y018940D01*
X018680Y018940D01*
X019120Y018940D01*
X018680Y018940D01*
X018680Y018940D01*
X018680Y019500D01*
X018680Y019940D01*
X018680Y019940D01*
X018680Y019940D01*
X018240Y019940D01*
X018240Y020122D01*
X018498Y020380D01*
X018680Y020380D01*
X018680Y019940D01*
X018240Y019940D01*
X018240Y019758D01*
X018433Y019565D01*
X018393Y019536D01*
X018344Y019487D01*
X018304Y019431D01*
X018272Y019369D01*
X018251Y019303D01*
X018240Y019235D01*
X018240Y018940D01*
X018680Y018940D01*
X018680Y018940D01*
X018240Y018940D01*
X018240Y018738D01*
X018100Y018878D01*
X018100Y019284D01*
X018036Y019438D01*
X017918Y019556D01*
X017898Y019564D01*
X018100Y019766D01*
X018100Y020114D01*
X017854Y020360D01*
X017506Y020360D01*
X017260Y020114D01*
X017260Y019766D01*
X017462Y019564D01*
X017442Y019556D01*
X017324Y019438D01*
X017260Y019284D01*
X017260Y018596D01*
X017324Y018442D01*
X017442Y018324D01*
X017596Y018260D01*
X017764Y018260D01*
X017918Y018324D01*
X017918Y018324D01*
X018415Y017827D01*
X018415Y013529D01*
X018324Y013438D01*
X018260Y013284D01*
X018260Y012596D01*
X018324Y012442D01*
X018442Y012324D01*
X018566Y012273D01*
X018555Y012262D01*
X018555Y011932D01*
X018516Y011987D01*
X018467Y012036D01*
X018411Y012076D01*
X018349Y012108D01*
X018283Y012129D01*
X018215Y012140D01*
X018180Y012140D01*
X018180Y011440D01*
X018180Y011440D01*
X018180Y011440D01*
X017740Y011440D01*
X017740Y011735D01*
X017751Y011803D01*
X017609Y011803D01*
X017588Y011869D01*
X017556Y011931D01*
X017516Y011987D01*
X017467Y012036D01*
X017411Y012076D01*
X017349Y012108D01*
X017283Y012129D01*
X017215Y012140D01*
X017180Y012140D01*
X017180Y011440D01*
X017620Y011440D01*
X017620Y011735D01*
X017609Y011803D01*
X017751Y011803D02*
X017772Y011869D01*
X017804Y011931D01*
X017844Y011987D01*
X017893Y012036D01*
X017949Y012076D01*
X018011Y012108D01*
X018077Y012129D01*
X018145Y012140D01*
X018180Y012140D01*
X018180Y011440D01*
X017740Y011440D01*
X017740Y011145D01*
X017751Y011077D01*
X017772Y011011D01*
X017804Y010949D01*
X017844Y010893D01*
X017893Y010844D01*
X017949Y010804D01*
X018011Y010772D01*
X018044Y010761D01*
X017970Y010687D01*
X017970Y009068D01*
X017942Y009056D01*
X017824Y008938D01*
X017760Y008784D01*
X017760Y008096D01*
X017824Y007942D01*
X017942Y007824D01*
X018096Y007760D01*
X018264Y007760D01*
X018418Y007824D01*
X018536Y007942D01*
X018600Y008096D01*
X018600Y008784D01*
X018536Y008938D01*
X018418Y009056D01*
X018390Y009068D01*
X018390Y010513D01*
X018823Y010946D01*
X018824Y010942D01*
X018942Y010824D01*
X019096Y010760D01*
X019264Y010760D01*
X019418Y010824D01*
X019536Y010942D01*
X019600Y011096D01*
X019600Y011784D01*
X019536Y011938D01*
X019418Y012056D01*
X019264Y012120D01*
X019096Y012120D01*
X018975Y012070D01*
X018975Y012088D01*
X019327Y012440D01*
X019442Y012324D01*
X019596Y012260D01*
X019764Y012260D01*
X019860Y012300D01*
X019860Y011368D01*
X020423Y010805D01*
X020240Y010622D01*
X020240Y010440D01*
X020680Y010440D01*
X020680Y010000D01*
X020862Y010000D01*
X021120Y010258D01*
X021120Y010288D01*
X022397Y009011D01*
X022324Y008938D01*
X022260Y008784D01*
X022260Y008096D01*
X022324Y007942D01*
X022442Y007824D01*
X022596Y007760D01*
X022764Y007760D01*
X022918Y007824D01*
X023036Y007942D01*
X023100Y008096D01*
X023100Y008784D01*
X023036Y008938D01*
X022918Y009056D01*
X022890Y009068D01*
X022890Y009103D01*
X022965Y009028D01*
X023088Y008905D01*
X023310Y008905D01*
X023260Y008784D01*
X023260Y008096D01*
X023324Y007942D01*
X023442Y007824D01*
X023596Y007760D01*
X023764Y007760D01*
X023918Y007824D01*
X024036Y007942D01*
X024100Y008096D01*
X024100Y008703D01*
X024260Y008543D01*
X024260Y008096D01*
X024324Y007942D01*
X024442Y007824D01*
X024596Y007760D01*
X024764Y007760D01*
X024918Y007824D01*
X025036Y007942D01*
X025100Y008096D01*
X025100Y008693D01*
X025260Y008533D01*
X025260Y008096D01*
X025324Y007942D01*
X025442Y007824D01*
X025596Y007760D01*
X025764Y007760D01*
X025890Y007812D01*
X025890Y007447D01*
X024843Y006400D01*
X024489Y006400D01*
X024220Y006131D01*
X024220Y005749D01*
X024489Y005480D01*
X024871Y005480D01*
X025140Y005749D01*
X025140Y006103D01*
X026310Y007273D01*
X026310Y007976D01*
X026324Y007942D01*
X026442Y007824D01*
X026596Y007760D01*
X026764Y007760D01*
X026918Y007824D01*
X027036Y007942D01*
X027100Y008096D01*
X027100Y008784D01*
X027036Y008938D01*
X026918Y009056D01*
X026764Y009120D01*
X026596Y009120D01*
X026490Y009076D01*
X026490Y010804D01*
X026596Y010760D01*
X026764Y010760D01*
X026918Y010824D01*
X027036Y010942D01*
X027060Y011000D01*
X027060Y010603D01*
X028559Y009104D01*
X028442Y009056D01*
X028324Y008938D01*
X028260Y008784D01*
X028260Y008096D01*
X028324Y007942D01*
X028442Y007824D01*
X028596Y007760D01*
X028764Y007760D01*
X028918Y007824D01*
X029036Y007942D01*
X029040Y007952D01*
X029040Y006913D01*
X029553Y006400D01*
X029489Y006400D01*
X029220Y006131D01*
X029220Y005782D01*
X029040Y005602D01*
X029040Y005231D01*
X028871Y005400D01*
X028489Y005400D01*
X028220Y005131D01*
X028220Y004749D01*
X028455Y004514D01*
X028455Y003940D01*
X027885Y003940D01*
X027885Y004494D01*
X028140Y004749D01*
X028140Y005131D01*
X027871Y005400D01*
X027489Y005400D01*
X027220Y005131D01*
X027220Y004749D01*
X027465Y004504D01*
X027465Y003940D01*
X026895Y003940D01*
X026895Y004504D01*
X027140Y004749D01*
X027140Y005131D01*
X026871Y005400D01*
X026489Y005400D01*
X026220Y005131D01*
X026220Y004749D01*
X026475Y004494D01*
X026475Y003940D01*
X025905Y003940D01*
X025905Y004514D01*
X026140Y004749D01*
X026140Y005131D01*
X025871Y005400D01*
X025489Y005400D01*
X025220Y005131D01*
X025220Y004749D01*
X025485Y004484D01*
X025485Y003940D01*
X024915Y003940D01*
X024915Y004524D01*
X025140Y004749D01*
X025140Y005131D01*
X024871Y005400D01*
X024489Y005400D01*
X024220Y005131D01*
X024220Y004749D01*
X024489Y004480D01*
X024495Y004480D01*
X024495Y003940D01*
X023880Y003940D01*
X023880Y004489D01*
X024140Y004749D01*
X024140Y005131D01*
X023871Y005400D01*
X023489Y005400D01*
X023220Y005131D01*
X023220Y004749D01*
X023460Y004509D01*
X023460Y003940D01*
X021900Y003940D01*
X021900Y004509D01*
X022140Y004749D01*
X022140Y005131D01*
X021871Y005400D01*
X021489Y005400D01*
X021220Y005131D01*
X021220Y004749D01*
X021480Y004489D01*
X021480Y003940D01*
X020910Y003940D01*
X020910Y004519D01*
X021140Y004749D01*
X021140Y005131D01*
X020871Y005400D01*
X020489Y005400D01*
X020220Y005131D01*
X020220Y004749D01*
X020489Y004480D01*
X020490Y004480D01*
X020490Y003940D01*
X019875Y003940D01*
X019875Y004484D01*
X020140Y004749D01*
X020140Y005131D01*
X019871Y005400D01*
X019537Y005400D01*
X019425Y005512D01*
X019425Y005544D01*
X019489Y005480D01*
X019871Y005480D01*
X020140Y005749D01*
X020140Y006131D01*
X019871Y006400D01*
X019489Y006400D01*
X019328Y006239D01*
X019302Y006265D01*
X017562Y008005D01*
X017600Y008096D01*
X017600Y008784D01*
X017536Y008938D01*
X017418Y009056D01*
X017264Y009120D01*
X017096Y009120D01*
X016942Y009056D01*
X016824Y008938D01*
X016760Y008784D01*
X016760Y008096D01*
X016824Y007942D01*
X016942Y007824D01*
X017096Y007760D01*
X017213Y007760D01*
X018573Y006400D01*
X018489Y006400D01*
X018220Y006131D01*
X018220Y005749D01*
X018489Y005480D01*
X018871Y005480D01*
X019005Y005614D01*
X019005Y005338D01*
X019220Y005123D01*
X019220Y004749D01*
X019455Y004514D01*
X019455Y003940D01*
X018885Y003940D01*
X018885Y004494D01*
X019140Y004749D01*
X019140Y005131D01*
X018871Y005400D01*
X018547Y005400D01*
X018357Y005590D01*
X017981Y005590D01*
X018140Y005749D01*
X018140Y006131D01*
X017871Y006400D01*
X017489Y006400D01*
X017316Y006226D01*
X016962Y006580D01*
X015522Y006580D01*
X014319Y007783D01*
X014418Y007824D01*
X014536Y007942D01*
X014600Y008096D01*
X014600Y008784D01*
X014536Y008938D01*
X014418Y009056D01*
X014264Y009120D01*
X014096Y009120D01*
X013942Y009056D01*
X013824Y008938D01*
X013760Y008784D01*
X013760Y008342D01*
X013600Y008502D01*
X013600Y008784D01*
X013550Y008905D01*
X013767Y008905D01*
X013890Y009028D01*
X015780Y010918D01*
X015780Y011048D01*
X015824Y010942D01*
X015942Y010824D01*
X016096Y010760D01*
X016264Y010760D01*
X016418Y010824D01*
X016536Y010942D01*
X016600Y011096D01*
X016600Y011784D01*
X016536Y011938D01*
X016418Y012056D01*
X016264Y012120D01*
X016096Y012120D01*
X015942Y012056D01*
X015824Y011938D01*
X015780Y011832D01*
X015780Y011992D01*
X015657Y012115D01*
X015465Y012307D01*
X015465Y012314D01*
X015596Y012260D01*
X015764Y012260D01*
X015918Y012324D01*
X016036Y012442D01*
X016100Y012596D01*
X016100Y013284D01*
X016036Y013438D01*
X015918Y013556D01*
X015764Y013620D01*
X015596Y013620D01*
X015465Y013566D01*
X015465Y013567D01*
X015342Y013690D01*
X013611Y015421D01*
X013625Y015436D01*
X013680Y015568D01*
X013680Y015712D01*
X013625Y015844D01*
X013524Y015945D01*
X013392Y016000D01*
X013248Y016000D01*
X013116Y015945D01*
X013015Y015844D01*
X012986Y015776D01*
X010350Y018412D01*
X010350Y018547D01*
X010295Y018679D01*
X010194Y018780D01*
X010062Y018835D01*
X009918Y018835D01*
X009786Y018780D01*
X009685Y018679D01*
X009630Y018547D01*
X009630Y018403D01*
X009665Y018319D01*
X009564Y018420D01*
X009432Y018475D01*
X009288Y018475D01*
X009156Y018420D01*
X009055Y018319D01*
X009000Y018187D01*
X009000Y018043D01*
X009055Y017911D01*
X009156Y017810D01*
X009288Y017755D01*
X009423Y017755D01*
X013569Y013609D01*
X013442Y013556D01*
X013324Y013438D01*
X013260Y013284D01*
X013260Y012596D01*
X013324Y012442D01*
X013442Y012324D01*
X013596Y012260D01*
X013764Y012260D01*
X013918Y012324D01*
X014036Y012442D01*
X014055Y012488D01*
X014055Y012122D01*
X014011Y012108D01*
X013949Y012076D01*
X013893Y012036D01*
X013844Y011987D01*
X013804Y011931D01*
X013772Y011869D01*
X013751Y011803D01*
X013592Y011803D01*
X013600Y011784D02*
X013536Y011938D01*
X013418Y012056D01*
X013264Y012120D01*
X013096Y012120D01*
X012942Y012056D01*
X012824Y011938D01*
X012760Y011784D01*
X012760Y011715D01*
X012499Y011715D01*
X012354Y011860D01*
X012006Y011860D01*
X011760Y011614D01*
X011760Y011266D01*
X012006Y011020D01*
X012354Y011020D01*
X012529Y011195D01*
X012760Y011195D01*
X012760Y011096D01*
X012824Y010942D01*
X012942Y010824D01*
X013096Y010760D01*
X013264Y010760D01*
X013418Y010824D01*
X013536Y010942D01*
X013600Y011096D01*
X013600Y011784D01*
X013600Y011645D02*
X013740Y011645D01*
X013740Y011735D02*
X013740Y011440D01*
X014180Y011440D01*
X014180Y011440D01*
X013740Y011440D01*
X013740Y011145D01*
X013751Y011077D01*
X013772Y011011D01*
X013804Y010949D01*
X013844Y010893D01*
X013893Y010844D01*
X013949Y010804D01*
X014011Y010772D01*
X014041Y010763D01*
X012963Y009685D01*
X012513Y009685D01*
X011120Y008292D01*
X011120Y008440D01*
X011120Y008735D01*
X011109Y008803D01*
X011088Y008869D01*
X011056Y008931D01*
X011016Y008987D01*
X010967Y009036D01*
X010911Y009076D01*
X010849Y009108D01*
X010783Y009129D01*
X010715Y009140D01*
X010680Y009140D01*
X010680Y008440D01*
X010680Y008440D01*
X011120Y008440D01*
X010680Y008440D01*
X010680Y008440D01*
X010680Y008440D01*
X010240Y008440D01*
X010240Y008735D01*
X010251Y008803D01*
X010272Y008869D01*
X010304Y008931D01*
X010344Y008987D01*
X010393Y009036D01*
X010449Y009076D01*
X010511Y009108D01*
X010577Y009129D01*
X010645Y009140D01*
X010680Y009140D01*
X010680Y008440D01*
X010240Y008440D01*
X010240Y008145D01*
X010251Y008077D01*
X010272Y008011D01*
X010304Y007949D01*
X010344Y007893D01*
X010393Y007844D01*
X010449Y007804D01*
X010511Y007772D01*
X010577Y007751D01*
X010579Y007751D01*
X009049Y006221D01*
X008871Y006400D01*
X008489Y006400D01*
X008220Y006131D01*
X008220Y006067D01*
X008160Y006007D01*
X008140Y005987D01*
X008140Y006113D01*
X009300Y007273D01*
X009300Y008000D01*
X009324Y007942D01*
X009442Y007824D01*
X009596Y007760D01*
X009764Y007760D01*
X009918Y007824D01*
X010036Y007942D01*
X010100Y008096D01*
X010100Y008784D01*
X010036Y008938D01*
X009918Y009056D01*
X009819Y009097D01*
X010875Y010153D01*
X010875Y010806D01*
X010918Y010824D01*
X011036Y010942D01*
X011100Y011096D01*
X011100Y011784D01*
X011036Y011938D01*
X010918Y012056D01*
X010764Y012120D01*
X010596Y012120D01*
X010442Y012056D01*
X010324Y011938D01*
X010260Y011784D01*
X010260Y011096D01*
X010324Y010942D01*
X010442Y010824D01*
X010455Y010819D01*
X010455Y010327D01*
X009045Y008917D01*
X009036Y008938D01*
X008918Y009056D01*
X008764Y009120D01*
X008596Y009120D01*
X008442Y009056D01*
X008324Y008938D01*
X008260Y008784D01*
X008260Y008096D01*
X008324Y007942D01*
X008355Y007912D01*
X006843Y006400D01*
X006807Y006400D01*
X007320Y006913D01*
X007320Y007952D01*
X007324Y007942D01*
X007442Y007824D01*
X007596Y007760D01*
X007764Y007760D01*
X007918Y007824D01*
X008036Y007942D01*
X008100Y008096D01*
X008100Y008784D01*
X008036Y008938D01*
X007918Y009056D01*
X007801Y009104D01*
X008850Y010153D01*
X008850Y010796D01*
X008918Y010824D01*
X009036Y010942D01*
X009100Y011096D01*
X009100Y011784D01*
X009036Y011938D01*
X008918Y012056D01*
X008764Y012120D01*
X008596Y012120D01*
X008490Y012076D01*
X008490Y012304D01*
X008596Y012260D01*
X008764Y012260D01*
X008918Y012324D01*
X009036Y012442D01*
X009100Y012596D01*
X009100Y013284D01*
X009036Y013438D01*
X008918Y013556D01*
X008895Y013566D01*
X008895Y013814D01*
X008918Y013824D01*
X009036Y013942D01*
X009100Y014096D01*
X009100Y014784D01*
X009056Y014890D01*
X009453Y014890D01*
X010220Y014123D01*
X010220Y013749D01*
X010489Y013480D01*
X010871Y013480D01*
X011140Y013749D01*
X011140Y014131D01*
X010871Y014400D01*
X010537Y014400D01*
X009627Y015310D01*
X007428Y015310D01*
X007305Y015187D01*
X007080Y014962D01*
X007080Y014832D01*
X007036Y014938D01*
X006918Y015056D01*
X006764Y015120D01*
X006596Y015120D01*
X006442Y015056D01*
X006324Y014938D01*
X006260Y014784D01*
X006260Y014096D01*
X006317Y013960D01*
X006043Y013960D01*
X006100Y014096D01*
X006100Y014784D01*
X006036Y014938D01*
X005918Y015056D01*
X005764Y015120D01*
X005596Y015120D01*
X005442Y015056D01*
X005324Y014938D01*
X005260Y014784D01*
X005260Y014096D01*
X005317Y013960D01*
X005043Y013960D01*
X005100Y014096D01*
X005100Y014784D01*
X005036Y014938D01*
X004918Y015056D01*
X004764Y015120D01*
X004596Y015120D01*
X004442Y015056D01*
X004324Y014938D01*
X004260Y014784D01*
X004260Y014096D01*
X004317Y013960D01*
X004043Y013960D01*
X004100Y014096D01*
X004100Y014784D01*
X004036Y014938D01*
X003918Y015056D01*
X003764Y015120D01*
X003596Y015120D01*
X003442Y015056D01*
X003324Y014938D01*
X003260Y014784D01*
X003260Y014096D01*
X003324Y013942D01*
X003432Y013834D01*
X003075Y013477D01*
X003075Y013344D01*
X003036Y013438D01*
X002918Y013556D01*
X002764Y013620D01*
X002596Y013620D01*
X002442Y013556D01*
X002324Y013438D01*
X002260Y013284D01*
X002260Y012596D01*
X002324Y012442D01*
X002442Y012324D01*
X002552Y012279D01*
X002490Y012217D01*
X002490Y012076D01*
X002442Y012056D01*
X002324Y011938D01*
X002260Y011784D01*
X002260Y011228D01*
X002100Y011388D01*
X002100Y011784D01*
X002036Y011938D01*
X001918Y012056D01*
X001764Y012120D01*
X001596Y012120D01*
X001442Y012056D01*
X001324Y011938D01*
X001260Y011784D01*
X001260Y011096D01*
X001324Y010942D01*
X001442Y010824D01*
X001596Y010760D01*
X001764Y010760D01*
X001918Y010824D01*
X001923Y010829D01*
X002935Y009817D01*
X002935Y009039D01*
X002918Y009056D01*
X002764Y009120D01*
X002596Y009120D01*
X002442Y009056D01*
X002324Y008938D01*
X002260Y008784D01*
X002260Y008096D01*
X002324Y007942D01*
X002442Y007824D01*
X002596Y007760D01*
X002764Y007760D01*
X002918Y007824D01*
X002935Y007841D01*
X002935Y006336D01*
X002871Y006400D01*
X002489Y006400D01*
X002220Y006131D01*
X002220Y005749D01*
X002489Y005480D01*
X002871Y005480D01*
X002979Y005588D01*
X003048Y005520D01*
X003328Y005239D01*
X003220Y005131D01*
X003220Y004749D01*
X003430Y004539D01*
X003430Y003940D01*
X002910Y003940D01*
X002910Y004519D01*
X003140Y004749D01*
X003140Y005131D01*
X002871Y005400D01*
X002489Y005400D01*
X002220Y005131D01*
X002220Y004749D01*
X002489Y004480D01*
X002490Y004480D01*
X002490Y003940D01*
X000460Y003940D01*
X000460Y010038D01*
X000498Y010000D01*
X000680Y010000D01*
X000862Y010000D01*
X001120Y010258D01*
X001120Y010440D01*
X001120Y010622D01*
X000862Y010880D01*
X000680Y010880D01*
X000680Y010440D01*
X000680Y010440D01*
X001120Y010440D01*
X000680Y010440D01*
X000680Y010440D01*
X000680Y010880D01*
X000498Y010880D01*
X000460Y010842D01*
X000460Y011066D01*
X000506Y011020D01*
X000854Y011020D01*
X001100Y011266D01*
X001100Y011614D01*
X000854Y011860D01*
X000506Y011860D01*
X000460Y011814D01*
X000460Y022656D01*
X039616Y022656D01*
X039413Y022453D01*
X039275Y022120D01*
X039275Y021760D01*
X039413Y021427D01*
X039667Y021173D01*
X040000Y021035D01*
X040360Y021035D01*
X040693Y021173D01*
X040947Y021427D01*
X041085Y021760D01*
X041085Y022120D01*
X040947Y022453D01*
X040744Y022656D01*
X041400Y022656D01*
X041400Y015370D01*
X041267Y015425D01*
X041062Y015425D01*
X040872Y015346D01*
X040727Y015201D01*
X040672Y015069D01*
X040618Y015201D01*
X040472Y015346D01*
X040283Y015425D01*
X040077Y015425D01*
X039888Y015346D01*
X039742Y015201D01*
X039664Y015011D01*
X039664Y014806D01*
X039742Y014616D01*
X039888Y014471D01*
X040077Y014392D01*
X040283Y014392D01*
X040472Y014471D01*
X040618Y014616D01*
X040672Y014748D01*
X040727Y014616D01*
X040872Y014471D01*
X041062Y014392D01*
X041267Y014392D01*
X041400Y014447D01*
X041400Y011433D01*
X041267Y011488D01*
X041062Y011488D01*
X040872Y011409D01*
X040727Y011264D01*
X040672Y011132D01*
X040618Y011264D01*
X040472Y011409D01*
X040283Y011488D01*
X040077Y011488D01*
X039888Y011409D01*
X039742Y011264D01*
X039664Y011074D01*
X039664Y010869D01*
X039742Y010679D01*
X039888Y010534D01*
X040077Y010455D01*
X040283Y010455D01*
X040472Y010534D01*
X040618Y010679D01*
X040672Y010811D01*
X040727Y010679D01*
X040872Y010534D01*
X041062Y010455D01*
X041267Y010455D01*
X041400Y010510D01*
X041400Y003940D01*
X040952Y003940D01*
X041085Y004260D01*
X041085Y004620D01*
X040947Y004953D01*
X040693Y005207D01*
X040360Y005345D01*
X040000Y005345D01*
X039667Y005207D01*
X039413Y004953D01*
X039275Y004620D01*
X039275Y004260D01*
X039408Y003940D01*
X030900Y003940D01*
X030900Y004037D02*
X035961Y004037D01*
X035998Y004000D02*
X036180Y004000D01*
X036362Y004000D01*
X036620Y004258D01*
X036620Y004440D01*
X036620Y004622D01*
X036362Y004880D01*
X036180Y004880D01*
X036180Y004440D01*
X036620Y004440D01*
X036180Y004440D01*
X036180Y004440D01*
X036180Y004440D01*
X036180Y004000D01*
X036180Y004440D01*
X036180Y004440D01*
X036180Y004440D01*
X035740Y004440D01*
X035740Y004622D01*
X035998Y004880D01*
X036180Y004880D01*
X036180Y004440D01*
X035740Y004440D01*
X035740Y004258D01*
X035998Y004000D01*
X036180Y004037D02*
X036180Y004037D01*
X036180Y004195D02*
X036180Y004195D01*
X036180Y004354D02*
X036180Y004354D01*
X036180Y004512D02*
X036180Y004512D01*
X036180Y004671D02*
X036180Y004671D01*
X036180Y004829D02*
X036180Y004829D01*
X036413Y004829D02*
X036975Y004829D01*
X037006Y004860D02*
X036760Y004614D01*
X036760Y004266D01*
X037006Y004020D01*
X037354Y004020D01*
X037600Y004266D01*
X037600Y004614D01*
X037354Y004860D01*
X037006Y004860D01*
X036817Y004671D02*
X036572Y004671D01*
X036620Y004512D02*
X036760Y004512D01*
X036760Y004354D02*
X036620Y004354D01*
X036557Y004195D02*
X036831Y004195D01*
X036990Y004037D02*
X036399Y004037D01*
X035803Y004195D02*
X030900Y004195D01*
X031433Y004354D02*
X035740Y004354D01*
X035740Y004512D02*
X031931Y004512D01*
X031879Y004460D02*
X032160Y004741D01*
X032160Y004920D01*
X031700Y004920D01*
X031700Y004460D01*
X031879Y004460D01*
X031700Y004512D02*
X031660Y004512D01*
X031660Y004671D02*
X031700Y004671D01*
X031700Y004829D02*
X031660Y004829D01*
X031700Y004960D02*
X032160Y004960D01*
X032160Y005139D01*
X031879Y005420D01*
X031700Y005420D01*
X031700Y004960D01*
X031700Y004988D02*
X031660Y004988D01*
X031660Y005146D02*
X031700Y005146D01*
X031700Y005305D02*
X031660Y005305D01*
X031489Y005480D02*
X031871Y005480D01*
X032140Y005749D01*
X032140Y006131D01*
X031871Y006400D01*
X031489Y006400D01*
X031220Y006131D01*
X031220Y005749D01*
X031489Y005480D01*
X031350Y005463D02*
X041400Y005463D01*
X041400Y005305D02*
X040458Y005305D01*
X040754Y005146D02*
X041400Y005146D01*
X041400Y004988D02*
X040912Y004988D01*
X040998Y004829D02*
X041400Y004829D01*
X041400Y004671D02*
X041064Y004671D01*
X041085Y004512D02*
X041400Y004512D01*
X041400Y004354D02*
X041085Y004354D01*
X041058Y004195D02*
X041400Y004195D01*
X041400Y004037D02*
X040992Y004037D01*
X039368Y004037D02*
X037370Y004037D01*
X037529Y004195D02*
X039302Y004195D01*
X039275Y004354D02*
X037600Y004354D01*
X037600Y004512D02*
X039275Y004512D01*
X039296Y004671D02*
X037543Y004671D01*
X037385Y004829D02*
X039362Y004829D01*
X039448Y004988D02*
X032160Y004988D01*
X032153Y005146D02*
X039606Y005146D01*
X039902Y005305D02*
X031994Y005305D01*
X031366Y005305D02*
X031350Y005305D01*
X031348Y005622D02*
X031285Y005622D01*
X031220Y005780D02*
X031140Y005780D01*
X031140Y005939D02*
X031220Y005939D01*
X031220Y006097D02*
X031140Y006097D01*
X031015Y006256D02*
X031345Y006256D01*
X030855Y006414D02*
X038314Y006414D01*
X038437Y006291D02*
X038324Y006178D01*
X038260Y006024D01*
X038260Y005856D01*
X038324Y005702D01*
X038442Y005584D01*
X038596Y005520D01*
X038764Y005520D01*
X038918Y005584D01*
X039036Y005702D01*
X039100Y005856D01*
X039100Y006024D01*
X039036Y006178D01*
X038918Y006296D01*
X038865Y006318D01*
X038865Y006457D01*
X038791Y006531D01*
X038918Y006584D01*
X039036Y006702D01*
X039100Y006856D01*
X039100Y007024D01*
X039036Y007178D01*
X038918Y007296D01*
X038764Y007360D01*
X038596Y007360D01*
X038442Y007296D01*
X038324Y007178D01*
X038271Y007051D01*
X036300Y009022D01*
X036300Y009562D01*
X035842Y010020D01*
X035854Y010020D01*
X036100Y010266D01*
X036100Y010614D01*
X035854Y010860D01*
X035506Y010860D01*
X035260Y010614D01*
X035260Y010602D01*
X034598Y011264D01*
X034600Y011266D01*
X034600Y011614D01*
X034354Y011860D01*
X034006Y011860D01*
X033915Y011769D01*
X033915Y013036D01*
X034086Y012965D01*
X034274Y012965D01*
X034449Y013037D01*
X034583Y013171D01*
X034655Y013346D01*
X034655Y013534D01*
X034583Y013709D01*
X034449Y013843D01*
X034274Y013915D01*
X034086Y013915D01*
X033915Y013844D01*
X033915Y014518D01*
X036103Y016706D01*
X036103Y016684D01*
X036211Y016423D01*
X036411Y016223D01*
X036672Y016115D01*
X036955Y016115D01*
X037217Y016223D01*
X037417Y016423D01*
X037525Y016684D01*
X037525Y016967D01*
X037524Y016970D01*
X037561Y016958D01*
X037640Y016946D01*
X037652Y016946D01*
X037652Y017427D01*
X037708Y017427D01*
X037708Y016946D01*
X037720Y016946D01*
X037799Y016958D01*
X037876Y016983D01*
X037947Y017020D01*
X038012Y017067D01*
X038069Y017124D01*
X038116Y017188D01*
X038153Y017260D01*
X038177Y017336D01*
X038190Y017416D01*
X038190Y017427D01*
X037708Y017427D01*
X037708Y017484D01*
X038190Y017484D01*
X038190Y017496D01*
X038177Y017575D01*
X038153Y017652D01*
X038116Y017723D01*
X038069Y017788D01*
X038012Y017845D01*
X037947Y017892D01*
X037876Y017928D01*
X037799Y017953D01*
X037789Y017955D01*
X037958Y018025D01*
X038095Y018162D01*
X038170Y018343D01*
X038170Y018537D01*
X038095Y018718D01*
X037958Y018855D01*
X037777Y018930D01*
X037583Y018930D01*
X037402Y018855D01*
X037335Y018787D01*
X036779Y019343D01*
X036955Y019343D01*
X037190Y019440D01*
X037190Y019327D01*
X037265Y019147D01*
X037402Y019009D01*
X037583Y018934D01*
X037777Y018934D01*
X037958Y019009D01*
X038095Y019147D01*
X038170Y019327D01*
X038170Y019522D01*
X038095Y019702D01*
X037958Y019840D01*
X037777Y019914D01*
X037583Y019914D01*
X037514Y019886D01*
X037525Y019913D01*
X037525Y020196D01*
X037417Y020457D01*
X037217Y020657D01*
X036955Y020765D01*
X036672Y020765D01*
X036411Y020657D01*
X036211Y020457D01*
X036103Y020196D01*
X036103Y020019D01*
X035099Y021023D01*
X035120Y021072D01*
X035120Y021808D01*
X035053Y021969D01*
X034929Y022093D01*
X034768Y022160D01*
X034592Y022160D01*
X034431Y022093D01*
X034307Y021969D01*
X034240Y021808D01*
X034240Y021072D01*
X034307Y020911D01*
X034431Y020787D01*
X034592Y020720D01*
X034768Y020720D01*
X034796Y020732D01*
X037121Y018407D01*
X035880Y017167D01*
X035880Y017077D01*
X034620Y015817D01*
X034620Y016308D01*
X034553Y016469D01*
X034429Y016593D01*
X034268Y016660D01*
X034092Y016660D01*
X033931Y016593D01*
X033807Y016469D01*
X033740Y016308D01*
X033740Y015572D01*
X033807Y015411D01*
X033931Y015287D01*
X034043Y015240D01*
X033495Y014692D01*
X033495Y013797D01*
X033377Y013915D01*
X032983Y013915D01*
X032705Y013637D01*
X032705Y013243D01*
X032983Y012965D01*
X033377Y012965D01*
X033495Y013083D01*
X033495Y011233D01*
X033618Y011110D01*
X034395Y010333D01*
X034395Y008819D01*
X034354Y008860D01*
X034006Y008860D01*
X033760Y008614D01*
X033760Y008266D01*
X034006Y008020D01*
X034354Y008020D01*
X034541Y008207D01*
X035430Y007318D01*
X035430Y007284D01*
X035324Y007178D01*
X035260Y007024D01*
X035260Y006856D01*
X035324Y006702D01*
X035442Y006584D01*
X035596Y006520D01*
X035764Y006520D01*
X035918Y006584D01*
X036036Y006702D01*
X036100Y006856D01*
X036100Y007024D01*
X036036Y007178D01*
X035918Y007296D01*
X035850Y007324D01*
X035850Y007492D01*
X035819Y007523D01*
X035849Y007532D01*
X035911Y007564D01*
X035967Y007604D01*
X036016Y007653D01*
X036056Y007709D01*
X036088Y007771D01*
X036109Y007837D01*
X036120Y007905D01*
X036120Y007940D01*
X036120Y007975D01*
X036109Y008043D01*
X036088Y008109D01*
X036056Y008171D01*
X036016Y008227D01*
X035967Y008276D01*
X035911Y008316D01*
X036412Y008316D01*
X036571Y008158D02*
X036063Y008158D01*
X036116Y007999D02*
X036729Y007999D01*
X036888Y007841D02*
X036110Y007841D01*
X036120Y007940D02*
X035680Y007940D01*
X035680Y007940D01*
X035680Y008380D01*
X035715Y008380D01*
X035783Y008369D01*
X035849Y008348D01*
X035911Y008316D01*
X035680Y008316D02*
X035680Y008316D01*
X035680Y008380D02*
X035680Y007940D01*
X036120Y007940D01*
X036036Y007682D02*
X037046Y007682D01*
X037205Y007524D02*
X035822Y007524D01*
X035850Y007365D02*
X037363Y007365D01*
X037522Y007207D02*
X036007Y007207D01*
X036090Y007048D02*
X037680Y007048D01*
X037839Y006890D02*
X036100Y006890D01*
X036048Y006731D02*
X037997Y006731D01*
X038156Y006573D02*
X035890Y006573D01*
X035849Y006348D02*
X035783Y006369D01*
X035715Y006380D01*
X035680Y006380D01*
X035680Y005940D01*
X036120Y005940D01*
X036120Y005975D01*
X036109Y006043D01*
X036088Y006109D01*
X036056Y006171D01*
X036016Y006227D01*
X035967Y006276D01*
X035911Y006316D01*
X035849Y006348D01*
X035987Y006256D02*
X038402Y006256D01*
X038437Y006291D02*
X036031Y008697D01*
X035918Y008584D01*
X035764Y008520D01*
X035596Y008520D01*
X035442Y008584D01*
X035324Y008702D01*
X035260Y008856D01*
X035260Y009024D01*
X035324Y009178D01*
X035442Y009296D01*
X035596Y009360D01*
X035764Y009360D01*
X035880Y009312D01*
X035880Y009388D01*
X034815Y010453D01*
X034815Y008527D01*
X035263Y008079D01*
X035272Y008109D01*
X035304Y008171D01*
X035344Y008227D01*
X035393Y008276D01*
X035449Y008316D01*
X035026Y008316D01*
X035184Y008158D02*
X035297Y008158D01*
X035449Y008316D02*
X035511Y008348D01*
X035577Y008369D01*
X035645Y008380D01*
X035680Y008380D01*
X035680Y008158D02*
X035680Y008158D01*
X035680Y007999D02*
X035680Y007999D01*
X035680Y007940D02*
X035680Y007940D01*
X035066Y007682D02*
X030755Y007682D01*
X030855Y007524D02*
X035225Y007524D01*
X035383Y007365D02*
X030855Y007365D01*
X030855Y007207D02*
X034353Y007207D01*
X034260Y007114D02*
X034260Y006766D01*
X034506Y006520D01*
X034854Y006520D01*
X035100Y006766D01*
X035100Y007114D01*
X034854Y007360D01*
X034506Y007360D01*
X034260Y007114D01*
X034260Y007048D02*
X030855Y007048D01*
X030855Y006890D02*
X034260Y006890D01*
X034295Y006731D02*
X030855Y006731D01*
X030855Y006573D02*
X034454Y006573D01*
X034498Y006380D02*
X034240Y006122D01*
X034240Y005940D01*
X034680Y005940D01*
X034680Y005940D01*
X034680Y006380D01*
X034862Y006380D01*
X035120Y006122D01*
X035120Y005940D01*
X034680Y005940D01*
X034680Y005940D01*
X034680Y005940D01*
X034680Y006380D01*
X034498Y006380D01*
X034373Y006256D02*
X032015Y006256D01*
X032140Y006097D02*
X034240Y006097D01*
X034240Y005940D02*
X034240Y005758D01*
X034498Y005500D01*
X034680Y005500D01*
X034862Y005500D01*
X035120Y005758D01*
X035120Y005940D01*
X034680Y005940D01*
X034680Y005500D01*
X034680Y005940D01*
X034680Y005940D01*
X034240Y005940D01*
X034240Y005939D02*
X032140Y005939D01*
X032140Y005780D02*
X034240Y005780D01*
X034376Y005622D02*
X032012Y005622D01*
X032160Y004829D02*
X035947Y004829D01*
X035788Y004671D02*
X032089Y004671D01*
X034680Y005622D02*
X034680Y005622D01*
X034680Y005780D02*
X034680Y005780D01*
X034680Y005939D02*
X034680Y005939D01*
X034680Y006097D02*
X034680Y006097D01*
X034680Y006256D02*
X034680Y006256D01*
X034987Y006256D02*
X035373Y006256D01*
X035393Y006276D02*
X035344Y006227D01*
X035304Y006171D01*
X035272Y006109D01*
X035251Y006043D01*
X035240Y005975D01*
X035240Y005940D01*
X035680Y005940D01*
X035680Y005940D01*
X035680Y005940D01*
X036120Y005940D01*
X036120Y005905D01*
X036109Y005837D01*
X036088Y005771D01*
X036056Y005709D01*
X036016Y005653D01*
X035967Y005604D01*
X035911Y005564D01*
X035849Y005532D01*
X035783Y005511D01*
X035715Y005500D01*
X035680Y005500D01*
X035680Y005940D01*
X035680Y005940D01*
X035680Y005940D01*
X035680Y006380D01*
X035645Y006380D01*
X035577Y006369D01*
X035511Y006348D01*
X035449Y006316D01*
X035393Y006276D01*
X035268Y006097D02*
X035120Y006097D01*
X035120Y005939D02*
X035240Y005939D01*
X035240Y005940D02*
X035240Y005905D01*
X035251Y005837D01*
X035272Y005771D01*
X035304Y005709D01*
X035344Y005653D01*
X035393Y005604D01*
X035449Y005564D01*
X035511Y005532D01*
X035577Y005511D01*
X035645Y005500D01*
X035680Y005500D01*
X035680Y005940D01*
X035240Y005940D01*
X035269Y005780D02*
X035120Y005780D01*
X034984Y005622D02*
X035376Y005622D01*
X035680Y005622D02*
X035680Y005622D01*
X035680Y005780D02*
X035680Y005780D01*
X035680Y005939D02*
X035680Y005939D01*
X035680Y006097D02*
X035680Y006097D01*
X035680Y006256D02*
X035680Y006256D01*
X035470Y006573D02*
X034906Y006573D01*
X035065Y006731D02*
X035312Y006731D01*
X035260Y006890D02*
X035100Y006890D01*
X035100Y007048D02*
X035270Y007048D01*
X035353Y007207D02*
X035007Y007207D01*
X034908Y007841D02*
X030961Y007841D01*
X031082Y007999D02*
X034749Y007999D01*
X034591Y008158D02*
X034491Y008158D01*
X034867Y008475D02*
X036254Y008475D01*
X036095Y008633D02*
X035967Y008633D01*
X036372Y008950D02*
X038260Y008950D01*
X038260Y009024D02*
X038260Y008856D01*
X038324Y008702D01*
X038442Y008584D01*
X038596Y008520D01*
X038764Y008520D01*
X038918Y008584D01*
X039036Y008702D01*
X039100Y008856D01*
X039100Y009024D01*
X039036Y009178D01*
X038918Y009296D01*
X038764Y009360D01*
X038596Y009360D01*
X038442Y009296D01*
X038324Y009178D01*
X038260Y009024D01*
X038295Y009109D02*
X036300Y009109D01*
X036300Y009267D02*
X038413Y009267D01*
X038947Y009267D02*
X041400Y009267D01*
X041400Y009109D02*
X039065Y009109D01*
X039100Y008950D02*
X041400Y008950D01*
X041400Y008792D02*
X039073Y008792D01*
X038967Y008633D02*
X041400Y008633D01*
X041400Y008475D02*
X036847Y008475D01*
X036689Y008633D02*
X038393Y008633D01*
X038287Y008792D02*
X036530Y008792D01*
X036300Y009426D02*
X041400Y009426D01*
X041400Y009584D02*
X036278Y009584D01*
X036119Y009743D02*
X041400Y009743D01*
X041400Y009901D02*
X035961Y009901D01*
X035893Y010060D02*
X041400Y010060D01*
X041400Y010218D02*
X036052Y010218D01*
X036100Y010377D02*
X041400Y010377D01*
X040871Y010535D02*
X040474Y010535D01*
X040624Y010694D02*
X040721Y010694D01*
X039886Y010535D02*
X038609Y010535D01*
X038546Y010471D02*
X038712Y010637D01*
X038801Y010854D01*
X038801Y011089D01*
X038712Y011306D01*
X038554Y011464D01*
X038712Y011622D01*
X038801Y011838D01*
X038801Y012073D01*
X038712Y012290D01*
X038546Y012456D01*
X038469Y012488D01*
X038504Y012502D01*
X038649Y012648D01*
X038728Y012837D01*
X038728Y013043D01*
X038649Y013232D01*
X038504Y013378D01*
X038469Y013392D01*
X038546Y013424D01*
X038712Y013590D01*
X038801Y013807D01*
X038801Y014042D01*
X038712Y014258D01*
X038554Y014416D01*
X038712Y014574D01*
X038801Y014791D01*
X038801Y015026D01*
X038712Y015243D01*
X038546Y015409D01*
X038329Y015499D01*
X038094Y015499D01*
X037877Y015409D01*
X037711Y015243D01*
X037621Y015026D01*
X037621Y014791D01*
X037711Y014574D01*
X037869Y014416D01*
X037711Y014258D01*
X037621Y014042D01*
X037621Y013807D01*
X037711Y013590D01*
X037877Y013424D01*
X037954Y013392D01*
X037919Y013378D01*
X037774Y013232D01*
X037695Y013043D01*
X037695Y012837D01*
X037774Y012648D01*
X037919Y012502D01*
X037954Y012488D01*
X037877Y012456D01*
X037711Y012290D01*
X037621Y012073D01*
X037621Y011838D01*
X037711Y011622D01*
X037869Y011464D01*
X037711Y011306D01*
X037621Y011089D01*
X037621Y010854D01*
X037711Y010637D01*
X037877Y010471D01*
X038094Y010381D01*
X038329Y010381D01*
X038546Y010471D01*
X038735Y010694D02*
X039736Y010694D01*
X039671Y010852D02*
X038801Y010852D01*
X038801Y011011D02*
X039664Y011011D01*
X039703Y011169D02*
X038768Y011169D01*
X038690Y011328D02*
X039806Y011328D01*
X040073Y011486D02*
X038576Y011486D01*
X038721Y011645D02*
X041400Y011645D01*
X041400Y011803D02*
X038787Y011803D01*
X038801Y011962D02*
X041400Y011962D01*
X041400Y012120D02*
X038782Y012120D01*
X038716Y012279D02*
X041400Y012279D01*
X041400Y012437D02*
X040526Y012437D01*
X040500Y012418D02*
X040577Y012475D01*
X040645Y012543D01*
X040702Y012620D01*
X040745Y012706D01*
X040775Y012797D01*
X040790Y012892D01*
X040790Y012892D01*
X040228Y012892D01*
X040228Y012988D01*
X040790Y012988D01*
X040775Y013083D01*
X040745Y013174D01*
X040702Y013260D01*
X040645Y013337D01*
X040577Y013405D01*
X040500Y013462D01*
X040414Y013505D01*
X040323Y013535D01*
X040228Y013550D01*
X040228Y013550D01*
X040228Y012988D01*
X040132Y012988D01*
X040132Y013550D01*
X040037Y013535D01*
X039946Y013505D01*
X039860Y013462D01*
X039783Y013405D01*
X039715Y013337D01*
X039658Y013260D01*
X039615Y013174D01*
X039585Y013083D01*
X039570Y012988D01*
X039570Y012988D01*
X040132Y012988D01*
X040132Y012892D01*
X040228Y012892D01*
X040228Y012330D01*
X040323Y012345D01*
X040414Y012375D01*
X040500Y012418D01*
X040684Y012596D02*
X041400Y012596D01*
X041400Y012754D02*
X040761Y012754D01*
X040790Y012988D02*
X040790Y012988D01*
X040777Y013071D02*
X041400Y013071D01*
X041400Y012913D02*
X040228Y012913D01*
X040132Y012913D02*
X038728Y012913D01*
X038716Y013071D02*
X039583Y013071D01*
X039643Y013230D02*
X038650Y013230D01*
X038479Y013388D02*
X039765Y013388D01*
X040132Y013388D02*
X040228Y013388D01*
X040228Y013230D02*
X040132Y013230D01*
X040132Y013071D02*
X040228Y013071D01*
X040132Y012892D02*
X039570Y012892D01*
X039585Y012797D01*
X039615Y012706D01*
X039658Y012620D01*
X039715Y012543D01*
X039783Y012475D01*
X039860Y012418D01*
X039946Y012375D01*
X040037Y012345D01*
X040132Y012330D01*
X040132Y012330D01*
X040132Y012892D01*
X040132Y012754D02*
X040228Y012754D01*
X040228Y012596D02*
X040132Y012596D01*
X040132Y012437D02*
X040228Y012437D01*
X040228Y012330D02*
X040228Y012330D01*
X039834Y012437D02*
X038565Y012437D01*
X038597Y012596D02*
X039676Y012596D01*
X039599Y012754D02*
X038693Y012754D01*
X039570Y012892D02*
X039570Y012892D01*
X040595Y013388D02*
X041400Y013388D01*
X041400Y013230D02*
X040717Y013230D01*
X040250Y013547D02*
X041400Y013547D01*
X041400Y013705D02*
X038759Y013705D01*
X038801Y013864D02*
X041400Y013864D01*
X041400Y014022D02*
X038801Y014022D01*
X038744Y014181D02*
X041400Y014181D01*
X041400Y014339D02*
X038631Y014339D01*
X038635Y014498D02*
X039861Y014498D01*
X039726Y014656D02*
X038746Y014656D01*
X038801Y014815D02*
X039664Y014815D01*
X039664Y014973D02*
X038801Y014973D01*
X038758Y015132D02*
X039714Y015132D01*
X039831Y015290D02*
X038664Y015290D01*
X038450Y015449D02*
X041400Y015449D01*
X041400Y015607D02*
X035004Y015607D01*
X034846Y015449D02*
X037973Y015449D01*
X037759Y015290D02*
X034687Y015290D01*
X034529Y015132D02*
X037665Y015132D01*
X037621Y014973D02*
X034370Y014973D01*
X034212Y014815D02*
X037621Y014815D01*
X037677Y014656D02*
X034053Y014656D01*
X033915Y014498D02*
X037788Y014498D01*
X037792Y014339D02*
X033915Y014339D01*
X033915Y014181D02*
X037679Y014181D01*
X037621Y014022D02*
X033915Y014022D01*
X033915Y013864D02*
X033961Y013864D01*
X034399Y013864D02*
X037621Y013864D01*
X037664Y013705D02*
X034584Y013705D01*
X034650Y013547D02*
X037755Y013547D01*
X037944Y013388D02*
X034655Y013388D01*
X034607Y013230D02*
X037773Y013230D01*
X037707Y013071D02*
X034483Y013071D01*
X033915Y012913D02*
X037695Y012913D01*
X037730Y012754D02*
X033915Y012754D01*
X033915Y012596D02*
X037826Y012596D01*
X037858Y012437D02*
X033915Y012437D01*
X033915Y012279D02*
X037707Y012279D01*
X037641Y012120D02*
X033915Y012120D01*
X033915Y011962D02*
X037621Y011962D01*
X037636Y011803D02*
X035911Y011803D01*
X035854Y011860D02*
X035506Y011860D01*
X035260Y011614D01*
X035260Y011266D01*
X035506Y011020D01*
X035854Y011020D01*
X036100Y011266D01*
X036100Y011614D01*
X035854Y011860D01*
X036069Y011645D02*
X037702Y011645D01*
X037847Y011486D02*
X036100Y011486D01*
X036100Y011328D02*
X037733Y011328D01*
X037655Y011169D02*
X036003Y011169D01*
X035357Y011169D02*
X034693Y011169D01*
X034600Y011328D02*
X035260Y011328D01*
X035260Y011486D02*
X034600Y011486D01*
X034569Y011645D02*
X035291Y011645D01*
X035449Y011803D02*
X034411Y011803D01*
X033949Y011803D02*
X033915Y011803D01*
X033495Y011803D02*
X031092Y011803D01*
X031100Y011784D02*
X031036Y011938D01*
X030918Y012056D01*
X030764Y012120D01*
X030596Y012120D01*
X030442Y012056D01*
X030324Y011938D01*
X030260Y011784D01*
X030260Y011096D01*
X030324Y010942D01*
X030442Y010824D01*
X030596Y010760D01*
X030764Y010760D01*
X030918Y010824D01*
X031036Y010942D01*
X031100Y011096D01*
X031100Y011784D01*
X031100Y011645D02*
X033495Y011645D01*
X033495Y011486D02*
X031100Y011486D01*
X031100Y011328D02*
X033495Y011328D01*
X033559Y011169D02*
X031100Y011169D01*
X031064Y011011D02*
X033717Y011011D01*
X033876Y010852D02*
X030946Y010852D01*
X030414Y010852D02*
X029946Y010852D01*
X029918Y010824D02*
X030036Y010942D01*
X030100Y011096D01*
X030100Y011784D01*
X030036Y011938D01*
X029918Y012056D01*
X029764Y012120D01*
X029596Y012120D01*
X029442Y012056D01*
X029324Y011938D01*
X029260Y011784D01*
X029260Y011096D01*
X029324Y010942D01*
X029442Y010824D01*
X029596Y010760D01*
X029764Y010760D01*
X029918Y010824D01*
X030064Y011011D02*
X030296Y011011D01*
X030260Y011169D02*
X030100Y011169D01*
X030100Y011328D02*
X030260Y011328D01*
X030260Y011486D02*
X030100Y011486D01*
X030100Y011645D02*
X030260Y011645D01*
X030268Y011803D02*
X030092Y011803D01*
X030012Y011962D02*
X030348Y011962D01*
X031012Y011962D02*
X033495Y011962D01*
X033495Y012120D02*
X027210Y012120D01*
X027210Y012279D02*
X033495Y012279D01*
X033495Y012437D02*
X027210Y012437D01*
X026790Y012437D02*
X026031Y012437D01*
X025978Y012279D02*
X026790Y012279D01*
X026790Y012120D02*
X026137Y012120D01*
X026295Y011962D02*
X026348Y011962D01*
X027285Y011962D02*
X027348Y011962D01*
X028012Y011962D02*
X028348Y011962D01*
X028324Y011938D02*
X028260Y011784D01*
X028260Y011096D01*
X028324Y010942D01*
X028442Y010824D01*
X028596Y010760D01*
X028764Y010760D01*
X028918Y010824D01*
X029036Y010942D01*
X029100Y011096D01*
X029100Y011784D01*
X029036Y011938D01*
X028918Y012056D01*
X028764Y012120D01*
X028596Y012120D01*
X028442Y012056D01*
X028324Y011938D01*
X028268Y011803D02*
X028092Y011803D01*
X028100Y011645D02*
X028260Y011645D01*
X028260Y011486D02*
X028100Y011486D01*
X028100Y011328D02*
X028260Y011328D01*
X028260Y011169D02*
X028100Y011169D01*
X028064Y011011D02*
X028296Y011011D01*
X028414Y010852D02*
X027946Y010852D01*
X027722Y010535D02*
X034193Y010535D01*
X034351Y010377D02*
X027880Y010377D01*
X028039Y010218D02*
X034395Y010218D01*
X034395Y010060D02*
X028197Y010060D01*
X028356Y009901D02*
X034395Y009901D01*
X034395Y009743D02*
X033000Y009743D01*
X033120Y009622D02*
X032862Y009880D01*
X032680Y009880D01*
X032680Y009440D01*
X032680Y009440D01*
X033120Y009440D01*
X033120Y009622D01*
X033120Y009584D02*
X034395Y009584D01*
X034395Y009426D02*
X033120Y009426D01*
X033120Y009440D02*
X032680Y009440D01*
X032680Y009440D01*
X032680Y009440D01*
X032240Y009440D01*
X032240Y009622D01*
X032498Y009880D01*
X032680Y009880D01*
X032680Y009440D01*
X032680Y009000D01*
X032862Y009000D01*
X033120Y009258D01*
X033120Y009440D01*
X033120Y009267D02*
X034395Y009267D01*
X034395Y009109D02*
X032971Y009109D01*
X032854Y008860D02*
X032506Y008860D01*
X032260Y008614D01*
X032260Y008266D01*
X032506Y008020D01*
X032854Y008020D01*
X033100Y008266D01*
X033100Y008614D01*
X032854Y008860D01*
X032922Y008792D02*
X033938Y008792D01*
X033779Y008633D02*
X033081Y008633D01*
X033100Y008475D02*
X033760Y008475D01*
X033760Y008316D02*
X033100Y008316D01*
X032991Y008158D02*
X033869Y008158D01*
X034815Y008633D02*
X035393Y008633D01*
X035287Y008792D02*
X034815Y008792D01*
X034815Y008950D02*
X035260Y008950D01*
X035295Y009109D02*
X034815Y009109D01*
X034815Y009267D02*
X035413Y009267D01*
X035684Y009584D02*
X034815Y009584D01*
X034815Y009426D02*
X035842Y009426D01*
X035525Y009743D02*
X034815Y009743D01*
X034815Y009901D02*
X035367Y009901D01*
X035208Y010060D02*
X034815Y010060D01*
X034815Y010218D02*
X035050Y010218D01*
X034891Y010377D02*
X034815Y010377D01*
X035168Y010694D02*
X035340Y010694D01*
X035498Y010852D02*
X035010Y010852D01*
X034851Y011011D02*
X037621Y011011D01*
X037622Y010852D02*
X035862Y010852D01*
X036020Y010694D02*
X037688Y010694D01*
X037814Y010535D02*
X036100Y010535D01*
X034034Y010694D02*
X027563Y010694D01*
X027128Y010535D02*
X026490Y010535D01*
X026490Y010377D02*
X027286Y010377D01*
X027445Y010218D02*
X026490Y010218D01*
X026490Y010060D02*
X027603Y010060D01*
X027762Y009901D02*
X026490Y009901D01*
X026490Y009743D02*
X027920Y009743D01*
X028079Y009584D02*
X026490Y009584D01*
X026490Y009426D02*
X028237Y009426D01*
X028396Y009267D02*
X026490Y009267D01*
X026490Y009109D02*
X026569Y009109D01*
X026791Y009109D02*
X027569Y009109D01*
X027596Y009120D02*
X027442Y009056D01*
X027324Y008938D01*
X027260Y008784D01*
X027260Y008096D01*
X027324Y007942D01*
X027442Y007824D01*
X027596Y007760D01*
X027764Y007760D01*
X027918Y007824D01*
X028036Y007942D01*
X028100Y008096D01*
X028100Y008784D01*
X028036Y008938D01*
X027918Y009056D01*
X027764Y009120D01*
X027596Y009120D01*
X027791Y009109D02*
X028554Y009109D01*
X028336Y008950D02*
X028024Y008950D01*
X028097Y008792D02*
X028263Y008792D01*
X028260Y008633D02*
X028100Y008633D01*
X028100Y008475D02*
X028260Y008475D01*
X028260Y008316D02*
X028100Y008316D01*
X028100Y008158D02*
X028260Y008158D01*
X028300Y007999D02*
X028060Y007999D01*
X027934Y007841D02*
X028426Y007841D01*
X028934Y007841D02*
X029040Y007841D01*
X029040Y007682D02*
X026310Y007682D01*
X026310Y007524D02*
X029040Y007524D01*
X029040Y007365D02*
X026310Y007365D01*
X026243Y007207D02*
X029040Y007207D01*
X029040Y007048D02*
X026085Y007048D01*
X025926Y006890D02*
X029064Y006890D01*
X029222Y006731D02*
X025768Y006731D01*
X025609Y006573D02*
X029381Y006573D01*
X029539Y006414D02*
X025451Y006414D01*
X025489Y006400D02*
X025220Y006131D01*
X025220Y005749D01*
X025489Y005480D01*
X025871Y005480D01*
X026140Y005749D01*
X026140Y006131D01*
X025871Y006400D01*
X025489Y006400D01*
X025345Y006256D02*
X025292Y006256D01*
X025220Y006097D02*
X025140Y006097D01*
X025140Y005939D02*
X025220Y005939D01*
X025220Y005780D02*
X025140Y005780D01*
X025012Y005622D02*
X025348Y005622D01*
X025394Y005305D02*
X024966Y005305D01*
X025125Y005146D02*
X025235Y005146D01*
X025220Y004988D02*
X025140Y004988D01*
X025140Y004829D02*
X025220Y004829D01*
X025299Y004671D02*
X025061Y004671D01*
X024915Y004512D02*
X025457Y004512D01*
X025485Y004354D02*
X024915Y004354D01*
X024915Y004195D02*
X025485Y004195D01*
X025485Y004037D02*
X024915Y004037D01*
X024495Y004037D02*
X023880Y004037D01*
X023880Y004195D02*
X024495Y004195D01*
X024495Y004354D02*
X023880Y004354D01*
X023903Y004512D02*
X024457Y004512D01*
X024299Y004671D02*
X024061Y004671D01*
X024140Y004829D02*
X024220Y004829D01*
X024220Y004988D02*
X024140Y004988D01*
X024125Y005146D02*
X024235Y005146D01*
X024394Y005305D02*
X023966Y005305D01*
X023871Y005480D02*
X023489Y005480D01*
X023220Y005749D01*
X023220Y006131D01*
X023489Y006400D01*
X023871Y006400D01*
X024140Y006131D01*
X024140Y005749D01*
X023871Y005480D01*
X024012Y005622D02*
X024348Y005622D01*
X024220Y005780D02*
X024140Y005780D01*
X024140Y005939D02*
X024220Y005939D01*
X024220Y006097D02*
X024140Y006097D01*
X024015Y006256D02*
X024345Y006256D01*
X024857Y006414D02*
X019153Y006414D01*
X019311Y006256D02*
X019345Y006256D01*
X018994Y006573D02*
X025016Y006573D01*
X025174Y006731D02*
X018836Y006731D01*
X018677Y006890D02*
X025333Y006890D01*
X025491Y007048D02*
X018519Y007048D01*
X018360Y007207D02*
X025650Y007207D01*
X025808Y007365D02*
X018202Y007365D01*
X018043Y007524D02*
X025890Y007524D01*
X025890Y007682D02*
X017885Y007682D01*
X017926Y007841D02*
X017726Y007841D01*
X017800Y007999D02*
X017568Y007999D01*
X017600Y008158D02*
X017760Y008158D01*
X017760Y008316D02*
X017600Y008316D01*
X017600Y008475D02*
X017760Y008475D01*
X017760Y008633D02*
X017600Y008633D01*
X017597Y008792D02*
X017763Y008792D01*
X017836Y008950D02*
X017524Y008950D01*
X017291Y009109D02*
X017970Y009109D01*
X017970Y009267D02*
X014129Y009267D01*
X014069Y009109D02*
X013970Y009109D01*
X013836Y008950D02*
X013812Y008950D01*
X013763Y008792D02*
X013597Y008792D01*
X013600Y008633D02*
X013760Y008633D01*
X013760Y008475D02*
X013627Y008475D01*
X014600Y008475D02*
X014760Y008475D01*
X014760Y008633D02*
X014600Y008633D01*
X014597Y008792D02*
X014763Y008792D01*
X014760Y008784D02*
X014824Y008938D01*
X014942Y009056D01*
X015096Y009120D01*
X015264Y009120D01*
X015418Y009056D01*
X015536Y008938D01*
X015600Y008784D01*
X015600Y008096D01*
X015536Y007942D01*
X015418Y007824D01*
X015264Y007760D01*
X015096Y007760D01*
X014942Y007824D01*
X014824Y007942D01*
X014760Y008096D01*
X014760Y008784D01*
X014836Y008950D02*
X014524Y008950D01*
X014291Y009109D02*
X015069Y009109D01*
X015291Y009109D02*
X016069Y009109D01*
X016096Y009120D02*
X015942Y009056D01*
X015824Y008938D01*
X015760Y008784D01*
X015760Y008096D01*
X015824Y007942D01*
X015942Y007824D01*
X016096Y007760D01*
X016264Y007760D01*
X016418Y007824D01*
X016536Y007942D01*
X016600Y008096D01*
X016600Y008784D01*
X016536Y008938D01*
X016418Y009056D01*
X016264Y009120D01*
X016096Y009120D01*
X016291Y009109D02*
X017069Y009109D01*
X016836Y008950D02*
X016524Y008950D01*
X016597Y008792D02*
X016763Y008792D01*
X016760Y008633D02*
X016600Y008633D01*
X016600Y008475D02*
X016760Y008475D01*
X016760Y008316D02*
X016600Y008316D01*
X016600Y008158D02*
X016760Y008158D01*
X016800Y007999D02*
X016560Y007999D01*
X016434Y007841D02*
X016926Y007841D01*
X017291Y007682D02*
X014420Y007682D01*
X014434Y007841D02*
X014926Y007841D01*
X014800Y007999D02*
X014560Y007999D01*
X014600Y008158D02*
X014760Y008158D01*
X014760Y008316D02*
X014600Y008316D01*
X015434Y007841D02*
X015926Y007841D01*
X015800Y007999D02*
X015560Y007999D01*
X015600Y008158D02*
X015760Y008158D01*
X015760Y008316D02*
X015600Y008316D01*
X015600Y008475D02*
X015760Y008475D01*
X015760Y008633D02*
X015600Y008633D01*
X015597Y008792D02*
X015763Y008792D01*
X015836Y008950D02*
X015524Y008950D01*
X014446Y009584D02*
X017970Y009584D01*
X017970Y009426D02*
X014288Y009426D01*
X014605Y009743D02*
X017970Y009743D01*
X017970Y009901D02*
X014763Y009901D01*
X014922Y010060D02*
X017970Y010060D01*
X017970Y010218D02*
X015080Y010218D01*
X015239Y010377D02*
X017970Y010377D01*
X017970Y010535D02*
X015397Y010535D01*
X015556Y010694D02*
X017977Y010694D01*
X017886Y010852D02*
X017474Y010852D01*
X017467Y010844D02*
X017516Y010893D01*
X017556Y010949D01*
X017588Y011011D01*
X017609Y011077D01*
X017620Y011145D01*
X017620Y011440D01*
X017180Y011440D01*
X017180Y011440D01*
X017180Y011440D01*
X017180Y010740D01*
X017215Y010740D01*
X017283Y010751D01*
X017349Y010772D01*
X017411Y010804D01*
X017467Y010844D01*
X017587Y011011D02*
X017773Y011011D01*
X017740Y011169D02*
X017620Y011169D01*
X017620Y011328D02*
X017740Y011328D01*
X017740Y011486D02*
X017620Y011486D01*
X017620Y011645D02*
X017740Y011645D01*
X017826Y011962D02*
X017534Y011962D01*
X017311Y012120D02*
X018049Y012120D01*
X018180Y012120D02*
X018180Y012120D01*
X018311Y012120D02*
X018555Y012120D01*
X018555Y011962D02*
X018534Y011962D01*
X018180Y011962D02*
X018180Y011962D01*
X018180Y011803D02*
X018180Y011803D01*
X018180Y011645D02*
X018180Y011645D01*
X018180Y011486D02*
X018180Y011486D01*
X017180Y011486D02*
X017180Y011486D01*
X017180Y011440D02*
X017180Y012140D01*
X017145Y012140D01*
X017077Y012129D01*
X017011Y012108D01*
X016949Y012076D01*
X016893Y012036D01*
X016844Y011987D01*
X016804Y011931D01*
X016772Y011869D01*
X016751Y011803D01*
X016592Y011803D01*
X016600Y011645D02*
X016740Y011645D01*
X016740Y011735D02*
X016740Y011440D01*
X017180Y011440D01*
X017180Y011440D01*
X017180Y011440D01*
X017180Y010740D01*
X017145Y010740D01*
X017077Y010751D01*
X017011Y010772D01*
X016949Y010804D01*
X016893Y010844D01*
X016844Y010893D01*
X016804Y010949D01*
X016772Y011011D01*
X016751Y011077D01*
X016740Y011145D01*
X016740Y011440D01*
X017180Y011440D01*
X017180Y011328D02*
X017180Y011328D01*
X017180Y011169D02*
X017180Y011169D01*
X017180Y011011D02*
X017180Y011011D01*
X017180Y010852D02*
X017180Y010852D01*
X016886Y010852D02*
X016446Y010852D01*
X016564Y011011D02*
X016773Y011011D01*
X016740Y011169D02*
X016600Y011169D01*
X016600Y011328D02*
X016740Y011328D01*
X016740Y011486D02*
X016600Y011486D01*
X016740Y011735D02*
X016751Y011803D01*
X016826Y011962D02*
X016512Y011962D01*
X017049Y012120D02*
X015652Y012120D01*
X015552Y012279D02*
X015493Y012279D01*
X015808Y012279D02*
X016552Y012279D01*
X016596Y012260D02*
X016764Y012260D01*
X016918Y012324D01*
X017036Y012442D01*
X017100Y012596D01*
X017100Y013284D01*
X017036Y013438D01*
X016918Y013556D01*
X016764Y013620D01*
X016596Y013620D01*
X016442Y013556D01*
X016324Y013438D01*
X016260Y013284D01*
X016260Y012596D01*
X016324Y012442D01*
X016442Y012324D01*
X016596Y012260D01*
X016808Y012279D02*
X017552Y012279D01*
X017596Y012260D02*
X017764Y012260D01*
X017918Y012324D01*
X018036Y012442D01*
X018100Y012596D01*
X018100Y013284D01*
X018036Y013438D01*
X017918Y013556D01*
X017764Y013620D01*
X017596Y013620D01*
X017442Y013556D01*
X017324Y013438D01*
X017260Y013284D01*
X017260Y012596D01*
X017324Y012442D01*
X017442Y012324D01*
X017596Y012260D01*
X017808Y012279D02*
X018552Y012279D01*
X018329Y012437D02*
X018031Y012437D01*
X018100Y012596D02*
X018260Y012596D01*
X018260Y012754D02*
X018100Y012754D01*
X018100Y012913D02*
X018260Y012913D01*
X018260Y013071D02*
X018100Y013071D01*
X018100Y013230D02*
X018260Y013230D01*
X018303Y013388D02*
X018057Y013388D01*
X017927Y013547D02*
X018415Y013547D01*
X018415Y013705D02*
X015327Y013705D01*
X015168Y013864D02*
X018415Y013864D01*
X018415Y014022D02*
X015010Y014022D01*
X014851Y014181D02*
X018415Y014181D01*
X018415Y014339D02*
X014693Y014339D01*
X014534Y014498D02*
X018415Y014498D01*
X018415Y014656D02*
X014376Y014656D01*
X014217Y014815D02*
X018415Y014815D01*
X018415Y014973D02*
X014059Y014973D01*
X013900Y015132D02*
X018415Y015132D01*
X018415Y015290D02*
X013742Y015290D01*
X013630Y015449D02*
X018415Y015449D01*
X018415Y015607D02*
X013680Y015607D01*
X013658Y015766D02*
X018415Y015766D01*
X018415Y015924D02*
X013545Y015924D01*
X013095Y015924D02*
X012838Y015924D01*
X012679Y016083D02*
X018415Y016083D01*
X018415Y016241D02*
X012521Y016241D01*
X012362Y016400D02*
X018415Y016400D01*
X018415Y016558D02*
X012204Y016558D01*
X012045Y016717D02*
X018415Y016717D01*
X018415Y016875D02*
X011887Y016875D01*
X011728Y017034D02*
X018415Y017034D01*
X018415Y017192D02*
X011570Y017192D01*
X011411Y017351D02*
X018415Y017351D01*
X018415Y017509D02*
X011253Y017509D01*
X011094Y017668D02*
X018415Y017668D01*
X018415Y017826D02*
X010936Y017826D01*
X010777Y017985D02*
X018258Y017985D01*
X018099Y018143D02*
X010619Y018143D01*
X010460Y018302D02*
X012496Y018302D01*
X012442Y018324D02*
X012596Y018260D01*
X012764Y018260D01*
X012918Y018324D01*
X013036Y018442D01*
X013100Y018596D01*
X013100Y019284D01*
X013036Y019438D01*
X012918Y019556D01*
X012764Y019620D01*
X012596Y019620D01*
X012442Y019556D01*
X012324Y019438D01*
X012260Y019284D01*
X012260Y018596D01*
X012324Y018442D01*
X012442Y018324D01*
X012317Y018460D02*
X010350Y018460D01*
X010320Y018619D02*
X012260Y018619D01*
X012260Y018777D02*
X010197Y018777D01*
X009783Y018777D02*
X001465Y018777D01*
X001362Y018880D02*
X001180Y018880D01*
X001180Y018440D01*
X001180Y018440D01*
X001620Y018440D01*
X001620Y018622D01*
X001362Y018880D01*
X001180Y018880D02*
X000998Y018880D01*
X000740Y018622D01*
X000740Y018440D01*
X001180Y018440D01*
X001180Y018440D01*
X001180Y018440D01*
X001180Y018880D01*
X001180Y018777D02*
X001180Y018777D01*
X001180Y018619D02*
X001180Y018619D01*
X001180Y018460D02*
X001180Y018460D01*
X001180Y018440D02*
X000740Y018440D01*
X000740Y018258D01*
X000998Y018000D01*
X001180Y018000D01*
X001362Y018000D01*
X001620Y018258D01*
X001620Y018440D01*
X001180Y018440D01*
X001180Y018000D01*
X001180Y018440D01*
X001180Y018440D01*
X001180Y018302D02*
X001180Y018302D01*
X001180Y018143D02*
X001180Y018143D01*
X001371Y017985D02*
X000460Y017985D01*
X000460Y018143D02*
X000855Y018143D01*
X000740Y018302D02*
X000460Y018302D01*
X000460Y018460D02*
X000740Y018460D01*
X000740Y018619D02*
X000460Y018619D01*
X000460Y018777D02*
X000895Y018777D01*
X000460Y018936D02*
X012260Y018936D01*
X012260Y019094D02*
X007956Y019094D01*
X007862Y019000D02*
X008120Y019258D01*
X008120Y019622D01*
X007862Y019880D01*
X007498Y019880D01*
X007240Y019622D01*
X007240Y019258D01*
X007498Y019000D01*
X007862Y019000D01*
X008115Y019253D02*
X012260Y019253D01*
X012313Y019411D02*
X008120Y019411D01*
X008120Y019570D02*
X012475Y019570D01*
X012885Y019570D02*
X013475Y019570D01*
X013442Y019556D02*
X013324Y019438D01*
X013260Y019284D01*
X013260Y018596D01*
X013324Y018442D01*
X013442Y018324D01*
X013596Y018260D01*
X013764Y018260D01*
X013918Y018324D01*
X014036Y018442D01*
X014100Y018596D01*
X014100Y019284D01*
X014036Y019438D01*
X013918Y019556D01*
X013764Y019620D01*
X013596Y019620D01*
X013442Y019556D01*
X013313Y019411D02*
X013047Y019411D01*
X013100Y019253D02*
X013260Y019253D01*
X013260Y019094D02*
X013100Y019094D01*
X013100Y018936D02*
X013260Y018936D01*
X013260Y018777D02*
X013100Y018777D01*
X013100Y018619D02*
X013260Y018619D01*
X013317Y018460D02*
X013043Y018460D01*
X012864Y018302D02*
X013496Y018302D01*
X013864Y018302D02*
X014496Y018302D01*
X014442Y018324D02*
X014596Y018260D01*
X014764Y018260D01*
X014918Y018324D01*
X015036Y018442D01*
X015100Y018596D01*
X015100Y019284D01*
X015036Y019438D01*
X014918Y019556D01*
X014764Y019620D01*
X014596Y019620D01*
X014442Y019556D01*
X014324Y019438D01*
X014260Y019284D01*
X014260Y018596D01*
X014324Y018442D01*
X014442Y018324D01*
X014317Y018460D02*
X014043Y018460D01*
X014100Y018619D02*
X014260Y018619D01*
X014260Y018777D02*
X014100Y018777D01*
X014100Y018936D02*
X014260Y018936D01*
X014260Y019094D02*
X014100Y019094D01*
X014100Y019253D02*
X014260Y019253D01*
X014313Y019411D02*
X014047Y019411D01*
X013885Y019570D02*
X014475Y019570D01*
X014885Y019570D02*
X015475Y019570D01*
X015442Y019556D02*
X015324Y019438D01*
X015260Y019284D01*
X015260Y018596D01*
X015324Y018442D01*
X015442Y018324D01*
X015596Y018260D01*
X015764Y018260D01*
X015918Y018324D01*
X016036Y018442D01*
X016100Y018596D01*
X016100Y019284D01*
X016036Y019438D01*
X015918Y019556D01*
X015764Y019620D01*
X015596Y019620D01*
X015442Y019556D01*
X015313Y019411D02*
X015047Y019411D01*
X015100Y019253D02*
X015260Y019253D01*
X015260Y019094D02*
X015100Y019094D01*
X015100Y018936D02*
X015260Y018936D01*
X015260Y018777D02*
X015100Y018777D01*
X015100Y018619D02*
X015260Y018619D01*
X015317Y018460D02*
X015043Y018460D01*
X014864Y018302D02*
X015496Y018302D01*
X015864Y018302D02*
X016496Y018302D01*
X016442Y018324D02*
X016596Y018260D01*
X016764Y018260D01*
X016918Y018324D01*
X017036Y018442D01*
X017100Y018596D01*
X017100Y019284D01*
X017036Y019438D01*
X016918Y019556D01*
X016764Y019620D01*
X016596Y019620D01*
X016442Y019556D01*
X016324Y019438D01*
X016260Y019284D01*
X016260Y018596D01*
X016324Y018442D01*
X016442Y018324D01*
X016317Y018460D02*
X016043Y018460D01*
X016100Y018619D02*
X016260Y018619D01*
X016260Y018777D02*
X016100Y018777D01*
X016100Y018936D02*
X016260Y018936D01*
X016260Y019094D02*
X016100Y019094D01*
X016100Y019253D02*
X016260Y019253D01*
X016313Y019411D02*
X016047Y019411D01*
X015885Y019570D02*
X016475Y019570D01*
X016885Y019570D02*
X017456Y019570D01*
X017313Y019411D02*
X017047Y019411D01*
X017100Y019253D02*
X017260Y019253D01*
X017260Y019094D02*
X017100Y019094D01*
X017100Y018936D02*
X017260Y018936D01*
X017260Y018777D02*
X017100Y018777D01*
X017100Y018619D02*
X017260Y018619D01*
X017317Y018460D02*
X017043Y018460D01*
X016864Y018302D02*
X017496Y018302D01*
X017864Y018302D02*
X017941Y018302D01*
X018201Y018777D02*
X018240Y018777D01*
X018240Y018936D02*
X018100Y018936D01*
X018100Y019094D02*
X018240Y019094D01*
X018243Y019253D02*
X018100Y019253D01*
X018047Y019411D02*
X018294Y019411D01*
X018428Y019570D02*
X017903Y019570D01*
X018062Y019728D02*
X018270Y019728D01*
X018240Y019887D02*
X018100Y019887D01*
X018100Y020045D02*
X018240Y020045D01*
X018321Y020204D02*
X018010Y020204D01*
X018480Y020362D02*
X016620Y020362D01*
X016620Y020440D02*
X016180Y020440D01*
X016180Y020440D01*
X016180Y020000D01*
X016362Y020000D01*
X016620Y020258D01*
X016620Y020440D01*
X016620Y020521D02*
X023740Y020521D01*
X023740Y020440D02*
X023740Y020258D01*
X023998Y020000D01*
X024180Y020000D01*
X024362Y020000D01*
X024620Y020258D01*
X024620Y020440D01*
X024180Y020440D01*
X024180Y020440D01*
X024180Y020000D01*
X024180Y020440D01*
X024180Y020440D01*
X024180Y020440D01*
X023740Y020440D01*
X023740Y020362D02*
X018880Y020362D01*
X018680Y020362D02*
X018680Y020362D01*
X018680Y020204D02*
X018680Y020204D01*
X018680Y020045D02*
X018680Y020045D01*
X018680Y019887D02*
X018680Y019887D01*
X018680Y019728D02*
X018680Y019728D01*
X018680Y019570D02*
X018680Y019570D01*
X018680Y019411D02*
X018680Y019411D01*
X018680Y019253D02*
X018680Y019253D01*
X018680Y019094D02*
X018680Y019094D01*
X019120Y019094D02*
X019260Y019094D01*
X019260Y018936D02*
X019120Y018936D01*
X019120Y018777D02*
X019260Y018777D01*
X019260Y018619D02*
X019116Y018619D01*
X019062Y018460D02*
X019317Y018460D01*
X019496Y018302D02*
X018906Y018302D01*
X018835Y018143D02*
X019576Y018143D01*
X019418Y017985D02*
X018935Y017985D01*
X018935Y017826D02*
X019259Y017826D01*
X019101Y017668D02*
X018935Y017668D01*
X018935Y017509D02*
X019050Y017509D01*
X019050Y017351D02*
X018935Y017351D01*
X018935Y017192D02*
X019050Y017192D01*
X019050Y017034D02*
X018935Y017034D01*
X018935Y016875D02*
X019050Y016875D01*
X019050Y016717D02*
X018935Y016717D01*
X018935Y016558D02*
X019050Y016558D01*
X019050Y016400D02*
X018935Y016400D01*
X018935Y016241D02*
X019050Y016241D01*
X019050Y016083D02*
X018935Y016083D01*
X018935Y015924D02*
X019050Y015924D01*
X019050Y015766D02*
X018935Y015766D01*
X018935Y015607D02*
X019050Y015607D01*
X019050Y015449D02*
X018935Y015449D01*
X018935Y015290D02*
X019050Y015290D01*
X019050Y015132D02*
X018935Y015132D01*
X018935Y014973D02*
X019050Y014973D01*
X019050Y014815D02*
X018935Y014815D01*
X018935Y014656D02*
X019050Y014656D01*
X019050Y014498D02*
X018935Y014498D01*
X018935Y014339D02*
X019050Y014339D01*
X019050Y014181D02*
X018935Y014181D01*
X018935Y014022D02*
X019050Y014022D01*
X019050Y013864D02*
X018935Y013864D01*
X018935Y013705D02*
X019050Y013705D01*
X019050Y013547D02*
X018935Y013547D01*
X019470Y013705D02*
X020043Y013705D01*
X020202Y013864D02*
X019470Y013864D01*
X019470Y014022D02*
X020360Y014022D01*
X020519Y014181D02*
X019470Y014181D01*
X019470Y014339D02*
X020677Y014339D01*
X020836Y014498D02*
X019470Y014498D01*
X019470Y014656D02*
X020994Y014656D01*
X021153Y014815D02*
X019470Y014815D01*
X019470Y014973D02*
X021311Y014973D01*
X021470Y015132D02*
X019470Y015132D01*
X019470Y015290D02*
X021628Y015290D01*
X021787Y015449D02*
X019470Y015449D01*
X019470Y015607D02*
X021945Y015607D01*
X022104Y015766D02*
X019470Y015766D01*
X019470Y015924D02*
X022262Y015924D01*
X022421Y016083D02*
X019470Y016083D01*
X019470Y016241D02*
X022470Y016241D01*
X022470Y016400D02*
X019470Y016400D01*
X019470Y016558D02*
X022470Y016558D01*
X022470Y016717D02*
X019470Y016717D01*
X019470Y016875D02*
X022470Y016875D01*
X022470Y017034D02*
X019470Y017034D01*
X019470Y017192D02*
X022470Y017192D01*
X022470Y017351D02*
X019470Y017351D01*
X019536Y017509D02*
X022470Y017509D01*
X022470Y017668D02*
X019695Y017668D01*
X019853Y017826D02*
X022470Y017826D01*
X022470Y017985D02*
X020012Y017985D01*
X020170Y018143D02*
X022470Y018143D01*
X022470Y018302D02*
X021864Y018302D01*
X021918Y018324D02*
X022036Y018442D01*
X022100Y018596D01*
X022100Y019284D01*
X022036Y019438D01*
X021918Y019556D01*
X021764Y019620D01*
X021596Y019620D01*
X021442Y019556D01*
X021324Y019438D01*
X021260Y019284D01*
X021260Y018596D01*
X021324Y018442D01*
X021442Y018324D01*
X021596Y018260D01*
X021764Y018260D01*
X021918Y018324D01*
X022043Y018460D02*
X022317Y018460D01*
X022260Y018619D02*
X022100Y018619D01*
X022100Y018777D02*
X022260Y018777D01*
X022260Y018936D02*
X022100Y018936D01*
X022100Y019094D02*
X022260Y019094D01*
X022260Y019253D02*
X022100Y019253D01*
X022047Y019411D02*
X022313Y019411D01*
X022475Y019570D02*
X021885Y019570D01*
X021475Y019570D02*
X020885Y019570D01*
X021047Y019411D02*
X021313Y019411D01*
X021260Y019253D02*
X021100Y019253D01*
X021100Y019094D02*
X021260Y019094D01*
X021260Y018936D02*
X021100Y018936D01*
X021100Y018777D02*
X021260Y018777D01*
X021260Y018619D02*
X021100Y018619D01*
X021043Y018460D02*
X021317Y018460D01*
X021496Y018302D02*
X020864Y018302D01*
X020496Y018302D02*
X020329Y018302D01*
X020210Y018777D02*
X020100Y018777D01*
X020100Y018936D02*
X020260Y018936D01*
X020260Y019094D02*
X020100Y019094D01*
X020100Y019253D02*
X020260Y019253D01*
X020313Y019411D02*
X020047Y019411D01*
X019885Y019570D02*
X020475Y019570D01*
X019475Y019570D02*
X018932Y019570D01*
X019066Y019411D02*
X019313Y019411D01*
X019260Y019253D02*
X019117Y019253D01*
X019090Y019728D02*
X023051Y019728D01*
X022893Y019570D02*
X022885Y019570D01*
X023210Y019887D02*
X019120Y019887D01*
X019120Y020045D02*
X023953Y020045D01*
X023794Y020204D02*
X019039Y020204D01*
X017350Y020204D02*
X016566Y020204D01*
X016407Y020045D02*
X017260Y020045D01*
X017260Y019887D02*
X004100Y019887D01*
X004100Y020045D02*
X005453Y020045D01*
X005498Y020000D02*
X005862Y020000D01*
X006120Y020258D01*
X006120Y020622D01*
X005862Y020880D01*
X005498Y020880D01*
X005240Y020622D01*
X005240Y020258D01*
X005498Y020000D01*
X005498Y019880D02*
X005240Y019622D01*
X005240Y019258D01*
X005498Y019000D01*
X005862Y019000D01*
X006120Y019258D01*
X006120Y019622D01*
X005862Y019880D01*
X005498Y019880D01*
X005346Y019728D02*
X004062Y019728D01*
X003904Y019570D02*
X005240Y019570D01*
X005240Y019411D02*
X000460Y019411D01*
X000460Y019253D02*
X005245Y019253D01*
X005404Y019094D02*
X000460Y019094D01*
X000460Y019570D02*
X002456Y019570D01*
X002506Y019520D02*
X002854Y019520D01*
X003100Y019766D01*
X003100Y020114D01*
X002854Y020360D01*
X002506Y020360D01*
X002260Y020114D01*
X002260Y019766D01*
X002506Y019520D01*
X002298Y019728D02*
X000460Y019728D01*
X000460Y019887D02*
X002260Y019887D01*
X002260Y020045D02*
X000460Y020045D01*
X000460Y020204D02*
X002350Y020204D01*
X003010Y020204D02*
X003350Y020204D01*
X003260Y020045D02*
X003100Y020045D01*
X003100Y019887D02*
X003260Y019887D01*
X003298Y019728D02*
X003062Y019728D01*
X002904Y019570D02*
X003456Y019570D01*
X004231Y020204D02*
X005294Y020204D01*
X005240Y020362D02*
X004389Y020362D01*
X004548Y020521D02*
X005240Y020521D01*
X005297Y020679D02*
X004706Y020679D01*
X004865Y020838D02*
X005455Y020838D01*
X005182Y021155D02*
X009871Y021155D01*
X009760Y021313D02*
X005340Y021313D01*
X005499Y021472D02*
X009760Y021472D01*
X009776Y021630D02*
X005657Y021630D01*
X005380Y021947D02*
X000460Y021947D01*
X000460Y021789D02*
X000935Y021789D01*
X001006Y021860D02*
X000760Y021614D01*
X000760Y021266D01*
X001006Y021020D01*
X001354Y021020D01*
X001600Y021266D01*
X001600Y021614D01*
X001354Y021860D01*
X001006Y021860D01*
X000776Y021630D02*
X000460Y021630D01*
X000460Y021472D02*
X000760Y021472D01*
X000760Y021313D02*
X000460Y021313D01*
X000460Y021155D02*
X000871Y021155D01*
X000460Y020996D02*
X004429Y020996D01*
X004271Y020838D02*
X000460Y020838D01*
X000460Y020679D02*
X004112Y020679D01*
X003954Y020521D02*
X000460Y020521D01*
X000460Y020362D02*
X003795Y020362D01*
X005023Y020996D02*
X007939Y020996D01*
X007455Y020838D02*
X006905Y020838D01*
X006862Y020880D02*
X007120Y020622D01*
X007120Y020258D01*
X006862Y020000D01*
X006498Y020000D01*
X006240Y020258D01*
X006240Y020622D01*
X006498Y020880D01*
X006862Y020880D01*
X007063Y020679D02*
X007297Y020679D01*
X007240Y020521D02*
X007120Y020521D01*
X007120Y020362D02*
X007240Y020362D01*
X007294Y020204D02*
X007066Y020204D01*
X006907Y020045D02*
X007453Y020045D01*
X007346Y019728D02*
X007014Y019728D01*
X007120Y019622D02*
X006862Y019880D01*
X006498Y019880D01*
X006240Y019622D01*
X006240Y019258D01*
X006498Y019000D01*
X006862Y019000D01*
X007120Y019258D01*
X007120Y019622D01*
X007120Y019570D02*
X007240Y019570D01*
X007240Y019411D02*
X007120Y019411D01*
X007115Y019253D02*
X007245Y019253D01*
X007404Y019094D02*
X006956Y019094D01*
X006404Y019094D02*
X005956Y019094D01*
X006115Y019253D02*
X006245Y019253D01*
X006240Y019411D02*
X006120Y019411D01*
X006120Y019570D02*
X006240Y019570D01*
X006346Y019728D02*
X006014Y019728D01*
X005907Y020045D02*
X006453Y020045D01*
X006294Y020204D02*
X006066Y020204D01*
X006120Y020362D02*
X006240Y020362D01*
X006240Y020521D02*
X006120Y020521D01*
X006063Y020679D02*
X006297Y020679D01*
X006455Y020838D02*
X005905Y020838D01*
X004905Y021472D02*
X001600Y021472D01*
X001584Y021630D02*
X005063Y021630D01*
X005222Y021789D02*
X001425Y021789D01*
X001600Y021313D02*
X004746Y021313D01*
X004588Y021155D02*
X001489Y021155D01*
X000460Y022106D02*
X033428Y022106D01*
X033439Y022113D02*
X033380Y022071D01*
X033329Y022020D01*
X033287Y021961D01*
X033254Y021897D01*
X033231Y021828D01*
X033220Y021756D01*
X033220Y021450D01*
X033670Y021450D01*
X033670Y022180D01*
X033644Y022180D01*
X033572Y022169D01*
X033503Y022146D01*
X033439Y022113D01*
X033279Y021947D02*
X026075Y021947D01*
X026233Y021789D02*
X027935Y021789D01*
X028006Y021860D02*
X027760Y021614D01*
X027760Y021266D01*
X028006Y021020D01*
X028354Y021020D01*
X028600Y021266D01*
X028600Y021614D01*
X028354Y021860D01*
X028006Y021860D01*
X027776Y021630D02*
X026392Y021630D01*
X026550Y021472D02*
X027760Y021472D01*
X027760Y021313D02*
X026709Y021313D01*
X026867Y021155D02*
X027871Y021155D01*
X028489Y021155D02*
X031871Y021155D01*
X031760Y021266D02*
X032006Y021020D01*
X032354Y021020D01*
X032600Y021266D01*
X032600Y021614D01*
X032354Y021860D01*
X032006Y021860D01*
X031760Y021614D01*
X031760Y021266D01*
X031760Y021313D02*
X028600Y021313D01*
X028600Y021472D02*
X031760Y021472D01*
X031776Y021630D02*
X028584Y021630D01*
X028425Y021789D02*
X031935Y021789D01*
X032425Y021789D02*
X033225Y021789D01*
X033220Y021630D02*
X032584Y021630D01*
X032600Y021472D02*
X033220Y021472D01*
X033220Y021430D02*
X033220Y021124D01*
X033231Y021052D01*
X033254Y020983D01*
X033287Y020919D01*
X033329Y020860D01*
X033380Y020809D01*
X033439Y020767D01*
X033503Y020734D01*
X033572Y020711D01*
X033644Y020700D01*
X033670Y020700D01*
X033670Y021430D01*
X033690Y021430D01*
X033690Y021450D01*
X034140Y021450D01*
X034140Y021756D01*
X034129Y021828D01*
X034106Y021897D01*
X034073Y021961D01*
X034031Y022020D01*
X033980Y022071D01*
X033921Y022113D01*
X033857Y022146D01*
X033788Y022169D01*
X033716Y022180D01*
X033690Y022180D01*
X033690Y021450D01*
X033670Y021450D01*
X033670Y021430D01*
X033220Y021430D01*
X033220Y021313D02*
X032600Y021313D01*
X032489Y021155D02*
X033220Y021155D01*
X033250Y020996D02*
X027026Y020996D01*
X027184Y020838D02*
X031955Y020838D01*
X031998Y020880D02*
X031740Y020622D01*
X031740Y020440D01*
X032180Y020440D01*
X032180Y020440D01*
X032180Y020880D01*
X032362Y020880D01*
X032620Y020622D01*
X032620Y020440D01*
X032180Y020440D01*
X032180Y020440D01*
X032180Y020440D01*
X032180Y020880D01*
X031998Y020880D01*
X032180Y020838D02*
X032180Y020838D01*
X032180Y020679D02*
X032180Y020679D01*
X032180Y020521D02*
X032180Y020521D01*
X032180Y020440D02*
X031740Y020440D01*
X031740Y020258D01*
X031998Y020000D01*
X032180Y020000D01*
X032362Y020000D01*
X032620Y020258D01*
X032620Y020440D01*
X032180Y020440D01*
X032180Y020000D01*
X032180Y020440D01*
X032180Y020440D01*
X032180Y020362D02*
X032180Y020362D01*
X032180Y020204D02*
X032180Y020204D01*
X032180Y020045D02*
X032180Y020045D01*
X032407Y020045D02*
X035483Y020045D01*
X035641Y019887D02*
X031100Y019887D01*
X031100Y019766D02*
X031100Y020114D01*
X030854Y020360D01*
X030506Y020360D01*
X030260Y020114D01*
X030260Y019766D01*
X030506Y019520D01*
X030854Y019520D01*
X031100Y019766D01*
X031062Y019728D02*
X035800Y019728D01*
X035958Y019570D02*
X030904Y019570D01*
X031024Y019360D02*
X030336Y019360D01*
X030182Y019296D01*
X030064Y019178D01*
X030000Y019024D01*
X030000Y018856D01*
X030064Y018702D01*
X030182Y018584D01*
X030336Y018520D01*
X031024Y018520D01*
X031178Y018584D01*
X031296Y018702D01*
X031360Y018856D01*
X031360Y019024D01*
X031296Y019178D01*
X031178Y019296D01*
X031024Y019360D01*
X031221Y019253D02*
X033399Y019253D01*
X033506Y019360D02*
X033260Y019114D01*
X033260Y018766D01*
X033506Y018520D01*
X033854Y018520D01*
X034100Y018766D01*
X034100Y019114D01*
X033854Y019360D01*
X033506Y019360D01*
X033260Y019094D02*
X031331Y019094D01*
X031360Y018936D02*
X033260Y018936D01*
X033260Y018777D02*
X031327Y018777D01*
X031212Y018619D02*
X033408Y018619D01*
X033952Y018619D02*
X034408Y018619D01*
X034506Y018520D02*
X034260Y018766D01*
X034260Y019114D01*
X034506Y019360D01*
X034854Y019360D01*
X035100Y019114D01*
X035100Y018766D01*
X034854Y018520D01*
X034506Y018520D01*
X034260Y018777D02*
X034100Y018777D01*
X034100Y018936D02*
X034260Y018936D01*
X034260Y019094D02*
X034100Y019094D01*
X033961Y019253D02*
X034399Y019253D01*
X034961Y019253D02*
X036275Y019253D01*
X036117Y019411D02*
X028611Y019411D01*
X028740Y019253D02*
X030139Y019253D01*
X030029Y019094D02*
X028740Y019094D01*
X028740Y018936D02*
X030000Y018936D01*
X030033Y018777D02*
X028740Y018777D01*
X028740Y018619D02*
X030148Y018619D01*
X030251Y018348D02*
X030189Y018316D01*
X030133Y018276D01*
X030084Y018227D01*
X030044Y018171D01*
X030012Y018109D01*
X029991Y018043D01*
X029980Y017975D01*
X029980Y017940D01*
X030680Y017940D01*
X030680Y017940D01*
X030680Y018380D01*
X030975Y018380D01*
X031043Y018369D01*
X031109Y018348D01*
X031171Y018316D01*
X031227Y018276D01*
X031276Y018227D01*
X031316Y018171D01*
X031348Y018109D01*
X031369Y018043D01*
X031380Y017975D01*
X031380Y017940D01*
X030680Y017940D01*
X030680Y017940D01*
X030680Y017500D01*
X030975Y017500D01*
X031043Y017511D01*
X031109Y017532D01*
X031171Y017564D01*
X031227Y017604D01*
X031276Y017653D01*
X031316Y017709D01*
X031348Y017771D01*
X031369Y017837D01*
X031380Y017905D01*
X031380Y017940D01*
X030680Y017940D01*
X030680Y017940D01*
X030680Y017940D01*
X030680Y018380D01*
X030385Y018380D01*
X030317Y018369D01*
X030251Y018348D01*
X030169Y018302D02*
X028740Y018302D01*
X028740Y018460D02*
X037068Y018460D01*
X037015Y018302D02*
X031191Y018302D01*
X031330Y018143D02*
X036856Y018143D01*
X036698Y017985D02*
X031378Y017985D01*
X031366Y017826D02*
X036539Y017826D01*
X036381Y017668D02*
X031286Y017668D01*
X031032Y017509D02*
X036222Y017509D01*
X036064Y017351D02*
X031046Y017351D01*
X031024Y017360D02*
X031178Y017296D01*
X031296Y017178D01*
X031360Y017024D01*
X031360Y016856D01*
X031296Y016702D01*
X031178Y016584D01*
X031024Y016520D01*
X030336Y016520D01*
X030182Y016584D01*
X030064Y016702D01*
X030000Y016856D01*
X030000Y017024D01*
X030064Y017178D01*
X030182Y017296D01*
X030336Y017360D01*
X031024Y017360D01*
X031282Y017192D02*
X035905Y017192D01*
X035837Y017034D02*
X031356Y017034D01*
X031360Y016875D02*
X035678Y016875D01*
X035520Y016717D02*
X031302Y016717D01*
X031115Y016558D02*
X032867Y016558D01*
X032880Y016571D02*
X032829Y016520D01*
X032787Y016461D01*
X032754Y016397D01*
X032731Y016328D01*
X032720Y016256D01*
X032720Y015950D01*
X033170Y015950D01*
X033170Y016680D01*
X033144Y016680D01*
X033072Y016669D01*
X033003Y016646D01*
X032939Y016613D01*
X032880Y016571D01*
X032755Y016400D02*
X028740Y016400D01*
X028740Y016558D02*
X030245Y016558D01*
X030317Y016369D02*
X030251Y016348D01*
X030189Y016316D01*
X030133Y016276D01*
X030084Y016227D01*
X030044Y016171D01*
X030012Y016109D01*
X029991Y016043D01*
X029980Y015975D01*
X029980Y015940D01*
X030680Y015940D01*
X030680Y015940D01*
X030680Y016380D01*
X030975Y016380D01*
X031043Y016369D01*
X031109Y016348D01*
X031171Y016316D01*
X031227Y016276D01*
X031276Y016227D01*
X031316Y016171D01*
X031348Y016109D01*
X031369Y016043D01*
X031380Y015975D01*
X031380Y015940D01*
X030680Y015940D01*
X030680Y015940D01*
X030680Y015500D01*
X030975Y015500D01*
X031043Y015511D01*
X031109Y015532D01*
X031171Y015564D01*
X031227Y015604D01*
X031276Y015653D01*
X031316Y015709D01*
X031348Y015771D01*
X031369Y015837D01*
X031380Y015905D01*
X031380Y015940D01*
X030680Y015940D01*
X030680Y015940D01*
X030680Y015940D01*
X030680Y016380D01*
X030385Y016380D01*
X030317Y016369D01*
X030099Y016241D02*
X028740Y016241D01*
X028740Y016083D02*
X030004Y016083D01*
X029980Y015940D02*
X029980Y015905D01*
X029991Y015837D01*
X030012Y015771D01*
X030044Y015709D01*
X030084Y015653D01*
X030133Y015604D01*
X030189Y015564D01*
X030251Y015532D01*
X030317Y015511D01*
X030385Y015500D01*
X030680Y015500D01*
X030680Y015940D01*
X029980Y015940D01*
X029980Y015924D02*
X028740Y015924D01*
X028740Y015766D02*
X030015Y015766D01*
X030131Y015607D02*
X028740Y015607D01*
X028740Y015449D02*
X032771Y015449D01*
X032787Y015419D02*
X032829Y015360D01*
X032880Y015309D01*
X032939Y015267D01*
X033003Y015234D01*
X033072Y015211D01*
X033144Y015200D01*
X033170Y015200D01*
X033170Y015930D01*
X033190Y015930D01*
X033190Y015950D01*
X033640Y015950D01*
X033640Y016256D01*
X033629Y016328D01*
X033606Y016397D01*
X033573Y016461D01*
X033531Y016520D01*
X033480Y016571D01*
X033421Y016613D01*
X033357Y016646D01*
X033288Y016669D01*
X033216Y016680D01*
X033190Y016680D01*
X033190Y015950D01*
X033170Y015950D01*
X033170Y015930D01*
X032720Y015930D01*
X032720Y015624D01*
X032731Y015552D01*
X032754Y015483D01*
X032787Y015419D01*
X032907Y015290D02*
X031184Y015290D01*
X031178Y015296D02*
X031024Y015360D01*
X030336Y015360D01*
X030182Y015296D01*
X030064Y015178D01*
X030000Y015024D01*
X030000Y014856D01*
X030064Y014702D01*
X030182Y014584D01*
X030336Y014520D01*
X031024Y014520D01*
X031178Y014584D01*
X031296Y014702D01*
X031360Y014856D01*
X031360Y015024D01*
X031296Y015178D01*
X031178Y015296D01*
X031315Y015132D02*
X033935Y015132D01*
X033928Y015290D02*
X033453Y015290D01*
X033480Y015309D02*
X033531Y015360D01*
X033573Y015419D01*
X033606Y015483D01*
X033629Y015552D01*
X033640Y015624D01*
X033640Y015930D01*
X033190Y015930D01*
X033190Y015200D01*
X033216Y015200D01*
X033288Y015211D01*
X033357Y015234D01*
X033421Y015267D01*
X033480Y015309D01*
X033589Y015449D02*
X033791Y015449D01*
X033740Y015607D02*
X033637Y015607D01*
X033640Y015766D02*
X033740Y015766D01*
X033740Y015924D02*
X033640Y015924D01*
X033640Y016083D02*
X033740Y016083D01*
X033740Y016241D02*
X033640Y016241D01*
X033605Y016400D02*
X033778Y016400D01*
X033896Y016558D02*
X033493Y016558D01*
X033190Y016558D02*
X033170Y016558D01*
X033170Y016400D02*
X033190Y016400D01*
X033190Y016241D02*
X033170Y016241D01*
X033170Y016083D02*
X033190Y016083D01*
X033190Y015924D02*
X033170Y015924D01*
X033170Y015766D02*
X033190Y015766D01*
X033190Y015607D02*
X033170Y015607D01*
X033170Y015449D02*
X033190Y015449D01*
X033190Y015290D02*
X033170Y015290D01*
X032723Y015607D02*
X031229Y015607D01*
X031345Y015766D02*
X032720Y015766D01*
X032720Y015924D02*
X031380Y015924D01*
X031356Y016083D02*
X032720Y016083D01*
X032720Y016241D02*
X031261Y016241D01*
X030680Y016241D02*
X030680Y016241D01*
X030680Y016083D02*
X030680Y016083D01*
X030680Y015924D02*
X030680Y015924D01*
X030680Y015766D02*
X030680Y015766D01*
X030680Y015607D02*
X030680Y015607D01*
X030176Y015290D02*
X028740Y015290D01*
X028740Y015132D02*
X030045Y015132D01*
X030000Y014973D02*
X028740Y014973D01*
X028677Y014815D02*
X030017Y014815D01*
X030110Y014656D02*
X028518Y014656D01*
X028360Y014498D02*
X033495Y014498D01*
X033495Y014656D02*
X031250Y014656D01*
X031343Y014815D02*
X033618Y014815D01*
X033776Y014973D02*
X031360Y014973D01*
X031109Y014348D02*
X031043Y014369D01*
X030975Y014380D01*
X030680Y014380D01*
X030680Y013940D01*
X030680Y013940D01*
X031380Y013940D01*
X031380Y013975D01*
X031369Y014043D01*
X031348Y014109D01*
X031316Y014171D01*
X031276Y014227D01*
X031227Y014276D01*
X031171Y014316D01*
X031109Y014348D01*
X031126Y014339D02*
X033495Y014339D01*
X033495Y014181D02*
X031309Y014181D01*
X031372Y014022D02*
X033495Y014022D01*
X033495Y013864D02*
X033428Y013864D01*
X032932Y013864D02*
X031373Y013864D01*
X031369Y013837D02*
X031380Y013905D01*
X031380Y013940D01*
X030680Y013940D01*
X030680Y013940D01*
X030680Y013500D01*
X030975Y013500D01*
X031043Y013511D01*
X031109Y013532D01*
X031171Y013564D01*
X031227Y013604D01*
X031276Y013653D01*
X031316Y013709D01*
X031348Y013771D01*
X031369Y013837D01*
X031313Y013705D02*
X032773Y013705D01*
X032705Y013547D02*
X031137Y013547D01*
X031024Y013360D02*
X030336Y013360D01*
X030182Y013296D01*
X030064Y013178D01*
X030000Y013024D01*
X030000Y012856D01*
X030064Y012702D01*
X030182Y012584D01*
X030336Y012520D01*
X031024Y012520D01*
X031178Y012584D01*
X031296Y012702D01*
X031360Y012856D01*
X031360Y013024D01*
X031296Y013178D01*
X031178Y013296D01*
X031024Y013360D01*
X031244Y013230D02*
X032719Y013230D01*
X032705Y013388D02*
X027210Y013388D01*
X027210Y013547D02*
X027272Y013547D01*
X026790Y013547D02*
X025927Y013547D01*
X026057Y013388D02*
X026790Y013388D01*
X026790Y013230D02*
X026100Y013230D01*
X026100Y013071D02*
X026790Y013071D01*
X026790Y012913D02*
X026100Y012913D01*
X026100Y012754D02*
X026790Y012754D01*
X026790Y012596D02*
X026100Y012596D01*
X027680Y012596D02*
X027680Y012596D01*
X027680Y012500D02*
X027680Y012940D01*
X027680Y012940D01*
X027680Y012500D01*
X027680Y012754D02*
X027680Y012754D01*
X027680Y012913D02*
X027680Y012913D01*
X027680Y013071D02*
X027680Y013071D01*
X027680Y013230D02*
X027680Y013230D01*
X028088Y013547D02*
X030223Y013547D01*
X030251Y013532D02*
X030317Y013511D01*
X030385Y013500D01*
X030680Y013500D01*
X030680Y013940D01*
X030680Y013940D01*
X030680Y013940D01*
X029980Y013940D01*
X029980Y013975D01*
X029991Y014043D01*
X030012Y014109D01*
X030044Y014171D01*
X030084Y014227D01*
X030133Y014276D01*
X030189Y014316D01*
X030251Y014348D01*
X030317Y014369D01*
X030385Y014380D01*
X030680Y014380D01*
X030680Y013940D01*
X029980Y013940D01*
X029980Y013905D01*
X029991Y013837D01*
X030012Y013771D01*
X030044Y013709D01*
X030084Y013653D01*
X030133Y013604D01*
X030189Y013564D01*
X030251Y013532D01*
X030047Y013705D02*
X028297Y013705D01*
X028360Y013864D02*
X029987Y013864D01*
X029988Y014022D02*
X028360Y014022D01*
X028293Y014181D02*
X030051Y014181D01*
X030234Y014339D02*
X028201Y014339D01*
X026790Y014339D02*
X024413Y014339D01*
X024571Y014181D02*
X026790Y014181D01*
X026790Y014022D02*
X024730Y014022D01*
X024888Y013864D02*
X026790Y013864D01*
X026790Y013705D02*
X025047Y013705D01*
X025205Y013547D02*
X025433Y013547D01*
X024254Y014498D02*
X026790Y014498D01*
X026790Y014656D02*
X024096Y014656D01*
X023937Y014815D02*
X026790Y014815D01*
X026790Y014973D02*
X023925Y014973D01*
X023925Y015132D02*
X026790Y015132D01*
X026790Y015290D02*
X023925Y015290D01*
X023925Y015449D02*
X026790Y015449D01*
X026790Y015607D02*
X023925Y015607D01*
X023925Y015766D02*
X026790Y015766D01*
X026790Y015924D02*
X023925Y015924D01*
X023925Y016083D02*
X026790Y016083D01*
X026790Y016241D02*
X023925Y016241D01*
X023925Y016400D02*
X026790Y016400D01*
X026790Y016558D02*
X023925Y016558D01*
X023925Y016717D02*
X026790Y016717D01*
X026790Y016875D02*
X023925Y016875D01*
X023925Y017034D02*
X026790Y017034D01*
X026790Y017192D02*
X023925Y017192D01*
X023925Y017351D02*
X026790Y017351D01*
X026790Y017509D02*
X023925Y017509D01*
X023925Y017668D02*
X026790Y017668D01*
X026790Y017826D02*
X023925Y017826D01*
X023925Y017985D02*
X026790Y017985D01*
X026790Y018143D02*
X026020Y018143D01*
X026179Y018302D02*
X026890Y018302D01*
X027048Y018460D02*
X026310Y018460D01*
X026310Y018619D02*
X027148Y018619D01*
X027033Y018777D02*
X026310Y018777D01*
X026310Y018936D02*
X027000Y018936D01*
X027029Y019094D02*
X026310Y019094D01*
X026310Y019253D02*
X027139Y019253D01*
X027588Y019570D02*
X026202Y019570D01*
X026310Y019411D02*
X027747Y019411D01*
X028452Y019570D02*
X029428Y019570D01*
X029498Y019500D02*
X029680Y019500D01*
X029862Y019500D01*
X030120Y019758D01*
X030120Y019940D01*
X030120Y020122D01*
X029862Y020380D01*
X029680Y020380D01*
X029680Y019940D01*
X030120Y019940D01*
X029680Y019940D01*
X029680Y019940D01*
X029680Y019940D01*
X029680Y019500D01*
X029680Y019940D01*
X029680Y019940D01*
X029680Y019940D01*
X029240Y019940D01*
X029240Y020122D01*
X029498Y020380D01*
X029680Y020380D01*
X029680Y019940D01*
X029240Y019940D01*
X029240Y019758D01*
X029498Y019500D01*
X029680Y019570D02*
X029680Y019570D01*
X029680Y019728D02*
X029680Y019728D01*
X029680Y019887D02*
X029680Y019887D01*
X029680Y020045D02*
X029680Y020045D01*
X029680Y020204D02*
X029680Y020204D01*
X029680Y020362D02*
X029680Y020362D01*
X029880Y020362D02*
X031740Y020362D01*
X031740Y020521D02*
X027501Y020521D01*
X027343Y020679D02*
X031797Y020679D01*
X032405Y020838D02*
X033352Y020838D01*
X033670Y020838D02*
X033690Y020838D01*
X033690Y020700D02*
X033716Y020700D01*
X033788Y020711D01*
X033857Y020734D01*
X033921Y020767D01*
X033980Y020809D01*
X034031Y020860D01*
X034073Y020919D01*
X034106Y020983D01*
X034129Y021052D01*
X034140Y021124D01*
X034140Y021430D01*
X033690Y021430D01*
X033690Y020700D01*
X033670Y020996D02*
X033690Y020996D01*
X033690Y021155D02*
X033670Y021155D01*
X033670Y021313D02*
X033690Y021313D01*
X033690Y021472D02*
X033670Y021472D01*
X033670Y021630D02*
X033690Y021630D01*
X033690Y021789D02*
X033670Y021789D01*
X033670Y021947D02*
X033690Y021947D01*
X033690Y022106D02*
X033670Y022106D01*
X033932Y022106D02*
X034461Y022106D01*
X034298Y021947D02*
X034081Y021947D01*
X034135Y021789D02*
X034240Y021789D01*
X034240Y021630D02*
X034140Y021630D01*
X034140Y021472D02*
X034240Y021472D01*
X034240Y021313D02*
X034140Y021313D01*
X034140Y021155D02*
X034240Y021155D01*
X034272Y020996D02*
X034110Y020996D01*
X034008Y020838D02*
X034380Y020838D01*
X034849Y020679D02*
X032563Y020679D01*
X032620Y020521D02*
X035007Y020521D01*
X035166Y020362D02*
X032620Y020362D01*
X032566Y020204D02*
X035324Y020204D01*
X035601Y020521D02*
X036274Y020521D01*
X036172Y020362D02*
X035760Y020362D01*
X035918Y020204D02*
X036106Y020204D01*
X036103Y020045D02*
X036077Y020045D01*
X037353Y020521D02*
X038274Y020521D01*
X038211Y020457D02*
X038103Y020196D01*
X038103Y019913D01*
X038211Y019651D01*
X038411Y019451D01*
X038672Y019343D01*
X038955Y019343D01*
X039190Y019440D01*
X039190Y019327D01*
X039265Y019147D01*
X039402Y019009D01*
X039583Y018934D01*
X039777Y018934D01*
X039958Y019009D01*
X040095Y019147D01*
X040170Y019327D01*
X040170Y019522D01*
X040095Y019702D01*
X039958Y019840D01*
X039777Y019914D01*
X039583Y019914D01*
X039514Y019886D01*
X039525Y019913D01*
X039525Y020196D01*
X039417Y020457D01*
X039217Y020657D01*
X038955Y020765D01*
X038672Y020765D01*
X038411Y020657D01*
X038211Y020457D01*
X038172Y020362D02*
X037456Y020362D01*
X037522Y020204D02*
X038106Y020204D01*
X038103Y020045D02*
X037525Y020045D01*
X037514Y019887D02*
X037516Y019887D01*
X037844Y019887D02*
X038114Y019887D01*
X038069Y019728D02*
X038179Y019728D01*
X038150Y019570D02*
X038293Y019570D01*
X038170Y019411D02*
X038508Y019411D01*
X038139Y019253D02*
X039221Y019253D01*
X039190Y019411D02*
X039120Y019411D01*
X039317Y019094D02*
X038043Y019094D01*
X037781Y018936D02*
X039579Y018936D01*
X039583Y018930D02*
X039402Y018855D01*
X039265Y018718D01*
X039190Y018537D01*
X039190Y018343D01*
X039265Y018162D01*
X039402Y018025D01*
X039571Y017955D01*
X039561Y017953D01*
X039484Y017928D01*
X039413Y017892D01*
X039348Y017845D01*
X039291Y017788D01*
X039244Y017723D01*
X039207Y017652D01*
X039183Y017575D01*
X039170Y017496D01*
X039170Y017484D01*
X039652Y017484D01*
X039652Y017427D01*
X039708Y017427D01*
X039708Y016946D01*
X039720Y016946D01*
X039799Y016958D01*
X039876Y016983D01*
X039947Y017020D01*
X040012Y017067D01*
X040069Y017124D01*
X040116Y017188D01*
X040153Y017260D01*
X040177Y017336D01*
X040190Y017416D01*
X040190Y017427D01*
X039708Y017427D01*
X039708Y017484D01*
X040190Y017484D01*
X040190Y017496D01*
X040177Y017575D01*
X040153Y017652D01*
X040116Y017723D01*
X040069Y017788D01*
X040012Y017845D01*
X039947Y017892D01*
X039876Y017928D01*
X039799Y017953D01*
X039789Y017955D01*
X039958Y018025D01*
X040095Y018162D01*
X040170Y018343D01*
X040170Y018537D01*
X040095Y018718D01*
X039958Y018855D01*
X039777Y018930D01*
X039583Y018930D01*
X039781Y018936D02*
X041400Y018936D01*
X041400Y019094D02*
X040043Y019094D01*
X040139Y019253D02*
X041400Y019253D01*
X041400Y019411D02*
X040170Y019411D01*
X040150Y019570D02*
X041400Y019570D01*
X041400Y019728D02*
X040069Y019728D01*
X039844Y019887D02*
X041400Y019887D01*
X041400Y020045D02*
X039525Y020045D01*
X039522Y020204D02*
X041400Y020204D01*
X041400Y020362D02*
X039456Y020362D01*
X039353Y020521D02*
X041400Y020521D01*
X041400Y020679D02*
X039164Y020679D01*
X038464Y020679D02*
X037164Y020679D01*
X036464Y020679D02*
X035443Y020679D01*
X035284Y020838D02*
X041400Y020838D01*
X041400Y020996D02*
X035126Y020996D01*
X035120Y021155D02*
X039711Y021155D01*
X039527Y021313D02*
X035120Y021313D01*
X035120Y021472D02*
X039394Y021472D01*
X039329Y021630D02*
X035120Y021630D01*
X035120Y021789D02*
X039275Y021789D01*
X039275Y021947D02*
X035062Y021947D01*
X034899Y022106D02*
X039275Y022106D01*
X039335Y022264D02*
X000460Y022264D01*
X000460Y022423D02*
X039400Y022423D01*
X039541Y022581D02*
X000460Y022581D01*
X007907Y020045D02*
X009953Y020045D01*
X009998Y020000D02*
X010180Y020000D01*
X010362Y020000D01*
X010620Y020258D01*
X010620Y020440D01*
X010180Y020440D01*
X010180Y020440D01*
X010180Y020000D01*
X010180Y020440D01*
X010180Y020440D01*
X010180Y020440D01*
X009740Y020440D01*
X009740Y020258D01*
X009998Y020000D01*
X010180Y020045D02*
X010180Y020045D01*
X010180Y020204D02*
X010180Y020204D01*
X010180Y020362D02*
X010180Y020362D01*
X010566Y020204D02*
X015794Y020204D01*
X015740Y020258D02*
X015998Y020000D01*
X016180Y020000D01*
X016180Y020440D01*
X016180Y020440D01*
X016180Y020440D01*
X015740Y020440D01*
X015740Y020258D01*
X015740Y020362D02*
X010620Y020362D01*
X010620Y020521D02*
X012145Y020521D01*
X012315Y020521D02*
X014045Y020521D01*
X014215Y020521D02*
X015740Y020521D01*
X015797Y020679D02*
X014463Y020679D01*
X013797Y020679D02*
X012563Y020679D01*
X012642Y020838D02*
X013718Y020838D01*
X013710Y020996D02*
X012650Y020996D01*
X011897Y020679D02*
X010563Y020679D01*
X010445Y020838D02*
X011818Y020838D01*
X011810Y020996D02*
X010603Y020996D01*
X009740Y020521D02*
X008120Y020521D01*
X008120Y020362D02*
X009740Y020362D01*
X009794Y020204D02*
X008066Y020204D01*
X008014Y019728D02*
X017298Y019728D01*
X016180Y020045D02*
X016180Y020045D01*
X016180Y020204D02*
X016180Y020204D01*
X016180Y020362D02*
X016180Y020362D01*
X016563Y020679D02*
X023797Y020679D01*
X024180Y020362D02*
X024180Y020362D01*
X024180Y020204D02*
X024180Y020204D01*
X024180Y020045D02*
X024180Y020045D01*
X024407Y020045D02*
X027113Y020045D01*
X027271Y019887D02*
X025885Y019887D01*
X026044Y019728D02*
X027430Y019728D01*
X027977Y020045D02*
X029240Y020045D01*
X029240Y019887D02*
X028135Y019887D01*
X028294Y019728D02*
X029270Y019728D01*
X029932Y019570D02*
X030456Y019570D01*
X030298Y019728D02*
X030090Y019728D01*
X030120Y019887D02*
X030260Y019887D01*
X030260Y020045D02*
X030120Y020045D01*
X030039Y020204D02*
X030350Y020204D01*
X031010Y020204D02*
X031794Y020204D01*
X031953Y020045D02*
X031100Y020045D01*
X029480Y020362D02*
X027660Y020362D01*
X027818Y020204D02*
X029321Y020204D01*
X026954Y020204D02*
X024566Y020204D01*
X024620Y020362D02*
X026796Y020362D01*
X026637Y020521D02*
X024620Y020521D01*
X024563Y020679D02*
X026479Y020679D01*
X024260Y019253D02*
X024100Y019253D01*
X024100Y019094D02*
X024260Y019094D01*
X024260Y018936D02*
X024100Y018936D01*
X024100Y018777D02*
X024260Y018777D01*
X024260Y018619D02*
X024100Y018619D01*
X024043Y018460D02*
X024317Y018460D01*
X024496Y018302D02*
X023925Y018302D01*
X023925Y018143D02*
X025325Y018143D01*
X025166Y018302D02*
X024864Y018302D01*
X028740Y018143D02*
X030030Y018143D01*
X029982Y017985D02*
X028740Y017985D01*
X028740Y017826D02*
X029994Y017826D01*
X029991Y017837D02*
X030012Y017771D01*
X030044Y017709D01*
X030084Y017653D01*
X030133Y017604D01*
X030189Y017564D01*
X030251Y017532D01*
X030317Y017511D01*
X030385Y017500D01*
X030680Y017500D01*
X030680Y017940D01*
X029980Y017940D01*
X029980Y017905D01*
X029991Y017837D01*
X030074Y017668D02*
X028740Y017668D01*
X028740Y017509D02*
X030328Y017509D01*
X030314Y017351D02*
X028740Y017351D01*
X028740Y017192D02*
X030078Y017192D01*
X030004Y017034D02*
X028740Y017034D01*
X028740Y016875D02*
X030000Y016875D01*
X030058Y016717D02*
X028740Y016717D01*
X030680Y017509D02*
X030680Y017509D01*
X030680Y017668D02*
X030680Y017668D01*
X030680Y017826D02*
X030680Y017826D01*
X030680Y017985D02*
X030680Y017985D01*
X030680Y018143D02*
X030680Y018143D01*
X030680Y018302D02*
X030680Y018302D01*
X034464Y016558D02*
X035361Y016558D01*
X035203Y016400D02*
X034582Y016400D01*
X034620Y016241D02*
X035044Y016241D01*
X034886Y016083D02*
X034620Y016083D01*
X034620Y015924D02*
X034727Y015924D01*
X035163Y015766D02*
X041400Y015766D01*
X041400Y015924D02*
X035321Y015924D01*
X035480Y016083D02*
X041400Y016083D01*
X041400Y016241D02*
X039235Y016241D01*
X039217Y016223D02*
X039417Y016423D01*
X039525Y016684D01*
X039525Y016967D01*
X039524Y016970D01*
X039561Y016958D01*
X039640Y016946D01*
X039652Y016946D01*
X039652Y017427D01*
X039218Y017427D01*
X039217Y017429D01*
X038955Y017537D01*
X038672Y017537D01*
X038411Y017429D01*
X038211Y017229D01*
X038103Y016967D01*
X038103Y016684D01*
X038211Y016423D01*
X038411Y016223D01*
X038672Y016115D01*
X038955Y016115D01*
X039217Y016223D01*
X039393Y016400D02*
X041400Y016400D01*
X041400Y016558D02*
X039473Y016558D01*
X039525Y016717D02*
X041400Y016717D01*
X041400Y016875D02*
X039525Y016875D01*
X039652Y017034D02*
X039708Y017034D01*
X039708Y017192D02*
X039652Y017192D01*
X039652Y017351D02*
X039708Y017351D01*
X040118Y017192D02*
X041400Y017192D01*
X041400Y017034D02*
X039967Y017034D01*
X040180Y017351D02*
X041400Y017351D01*
X041400Y017509D02*
X040188Y017509D01*
X040144Y017668D02*
X041400Y017668D01*
X041400Y017826D02*
X040031Y017826D01*
X039861Y017985D02*
X041400Y017985D01*
X041400Y018143D02*
X040076Y018143D01*
X040153Y018302D02*
X041400Y018302D01*
X041400Y018460D02*
X040170Y018460D01*
X040136Y018619D02*
X041400Y018619D01*
X041400Y018777D02*
X040036Y018777D01*
X039324Y018777D02*
X038036Y018777D01*
X038136Y018619D02*
X039224Y018619D01*
X039190Y018460D02*
X038170Y018460D01*
X038153Y018302D02*
X039207Y018302D01*
X039284Y018143D02*
X038076Y018143D01*
X037861Y017985D02*
X039499Y017985D01*
X039329Y017826D02*
X038031Y017826D01*
X038144Y017668D02*
X039216Y017668D01*
X039172Y017509D02*
X039023Y017509D01*
X038605Y017509D02*
X038188Y017509D01*
X038180Y017351D02*
X038333Y017351D01*
X038196Y017192D02*
X038118Y017192D01*
X038130Y017034D02*
X037967Y017034D01*
X038103Y016875D02*
X037525Y016875D01*
X037525Y016717D02*
X038103Y016717D01*
X038155Y016558D02*
X037473Y016558D01*
X037393Y016400D02*
X038234Y016400D01*
X038393Y016241D02*
X037235Y016241D01*
X036393Y016241D02*
X035638Y016241D01*
X035797Y016400D02*
X036234Y016400D01*
X036155Y016558D02*
X035955Y016558D01*
X036844Y017537D02*
X037367Y018060D01*
X037402Y018025D01*
X037571Y017955D01*
X037561Y017953D01*
X037484Y017928D01*
X037413Y017892D01*
X037348Y017845D01*
X037291Y017788D01*
X037244Y017723D01*
X037207Y017652D01*
X037183Y017575D01*
X037170Y017496D01*
X037170Y017484D01*
X037652Y017484D01*
X037652Y017427D01*
X037218Y017427D01*
X037217Y017429D01*
X036955Y017537D01*
X036844Y017537D01*
X037023Y017509D02*
X037172Y017509D01*
X037216Y017668D02*
X036975Y017668D01*
X037133Y017826D02*
X037329Y017826D01*
X037292Y017985D02*
X037499Y017985D01*
X037652Y017351D02*
X037708Y017351D01*
X037708Y017192D02*
X037652Y017192D01*
X037652Y017034D02*
X037708Y017034D01*
X036909Y018619D02*
X034952Y018619D01*
X035100Y018777D02*
X036751Y018777D01*
X036592Y018936D02*
X035100Y018936D01*
X035100Y019094D02*
X036434Y019094D01*
X036869Y019253D02*
X037221Y019253D01*
X037190Y019411D02*
X037120Y019411D01*
X037028Y019094D02*
X037317Y019094D01*
X037186Y018936D02*
X037579Y018936D01*
X039514Y019887D02*
X039516Y019887D01*
X040649Y021155D02*
X041400Y021155D01*
X041400Y021313D02*
X040833Y021313D01*
X040966Y021472D02*
X041400Y021472D01*
X041400Y021630D02*
X041031Y021630D01*
X041085Y021789D02*
X041400Y021789D01*
X041400Y021947D02*
X041085Y021947D01*
X041085Y022106D02*
X041400Y022106D01*
X041400Y022264D02*
X041025Y022264D01*
X040960Y022423D02*
X041400Y022423D01*
X041400Y022581D02*
X040819Y022581D01*
X040816Y015290D02*
X040529Y015290D01*
X040646Y015132D02*
X040698Y015132D01*
X040710Y014656D02*
X040634Y014656D01*
X040499Y014498D02*
X040845Y014498D01*
X040228Y013547D02*
X040132Y013547D01*
X040132Y013550D02*
X040132Y013550D01*
X040110Y013547D02*
X038668Y013547D01*
X040287Y011486D02*
X041057Y011486D01*
X041271Y011486D02*
X041400Y011486D01*
X040790Y011328D02*
X040554Y011328D01*
X040657Y011169D02*
X040687Y011169D01*
X038918Y008296D02*
X038764Y008360D01*
X038596Y008360D01*
X038442Y008296D01*
X038324Y008178D01*
X038260Y008024D01*
X038260Y007856D01*
X038324Y007702D01*
X038442Y007584D01*
X038596Y007520D01*
X038764Y007520D01*
X038918Y007584D01*
X039036Y007702D01*
X039100Y007856D01*
X039100Y008024D01*
X039036Y008178D01*
X038918Y008296D01*
X038870Y008316D02*
X041400Y008316D01*
X041400Y008158D02*
X039045Y008158D01*
X039100Y007999D02*
X041400Y007999D01*
X041400Y007841D02*
X039093Y007841D01*
X039016Y007682D02*
X041400Y007682D01*
X041400Y007524D02*
X038772Y007524D01*
X038588Y007524D02*
X037798Y007524D01*
X037640Y007682D02*
X038344Y007682D01*
X038267Y007841D02*
X037481Y007841D01*
X037323Y007999D02*
X038260Y007999D01*
X038315Y008158D02*
X037164Y008158D01*
X037006Y008316D02*
X038490Y008316D01*
X037957Y007365D02*
X041400Y007365D01*
X041400Y007207D02*
X039007Y007207D01*
X039090Y007048D02*
X041400Y007048D01*
X041400Y006890D02*
X039100Y006890D01*
X039048Y006731D02*
X041400Y006731D01*
X041400Y006573D02*
X038890Y006573D01*
X038865Y006414D02*
X041400Y006414D01*
X041400Y006256D02*
X038958Y006256D01*
X039070Y006097D02*
X041400Y006097D01*
X041400Y005939D02*
X039100Y005939D01*
X039068Y005780D02*
X041400Y005780D01*
X041400Y005622D02*
X038955Y005622D01*
X038405Y005622D02*
X035984Y005622D01*
X036091Y005780D02*
X038292Y005780D01*
X038260Y005939D02*
X036120Y005939D01*
X036092Y006097D02*
X038290Y006097D01*
X038353Y007207D02*
X038115Y007207D01*
X034395Y008950D02*
X031042Y008950D01*
X031111Y008792D02*
X032438Y008792D01*
X032498Y009000D02*
X032240Y009258D01*
X032240Y009440D01*
X032680Y009440D01*
X032680Y009440D01*
X032680Y009000D01*
X032498Y009000D01*
X032389Y009109D02*
X030847Y009109D01*
X030680Y009109D02*
X030680Y009109D01*
X030680Y008950D02*
X030680Y008950D01*
X030680Y008792D02*
X030680Y008792D01*
X030680Y008633D02*
X030680Y008633D01*
X030680Y008475D02*
X030680Y008475D01*
X031120Y008475D02*
X032260Y008475D01*
X032260Y008316D02*
X031120Y008316D01*
X031120Y008158D02*
X032369Y008158D01*
X032279Y008633D02*
X031120Y008633D01*
X030318Y008950D02*
X030024Y008950D01*
X030097Y008792D02*
X030249Y008792D01*
X030240Y008633D02*
X030100Y008633D01*
X030100Y008475D02*
X030240Y008475D01*
X030240Y008316D02*
X030121Y008316D01*
X029336Y008950D02*
X029307Y008950D01*
X029148Y009109D02*
X029569Y009109D01*
X029791Y009109D02*
X030513Y009109D01*
X028990Y009267D02*
X032240Y009267D01*
X032240Y009426D02*
X028831Y009426D01*
X028673Y009584D02*
X032240Y009584D01*
X032360Y009743D02*
X028514Y009743D01*
X028946Y010852D02*
X029414Y010852D01*
X029296Y011011D02*
X029064Y011011D01*
X029100Y011169D02*
X029260Y011169D01*
X029260Y011328D02*
X029100Y011328D01*
X029100Y011486D02*
X029260Y011486D01*
X029260Y011645D02*
X029100Y011645D01*
X029092Y011803D02*
X029268Y011803D01*
X029348Y011962D02*
X029012Y011962D01*
X028214Y012596D02*
X030171Y012596D01*
X030042Y012754D02*
X028339Y012754D01*
X028380Y012913D02*
X030000Y012913D01*
X030020Y013071D02*
X028360Y013071D01*
X028273Y013230D02*
X030116Y013230D01*
X030680Y013547D02*
X030680Y013547D01*
X030680Y013705D02*
X030680Y013705D01*
X030680Y013864D02*
X030680Y013864D01*
X030680Y014022D02*
X030680Y014022D01*
X030680Y014181D02*
X030680Y014181D01*
X030680Y014339D02*
X030680Y014339D01*
X031340Y013071D02*
X032877Y013071D01*
X033483Y013071D02*
X033495Y013071D01*
X033495Y012913D02*
X031360Y012913D01*
X031318Y012754D02*
X033495Y012754D01*
X033495Y012596D02*
X031189Y012596D01*
X027060Y010852D02*
X026946Y010852D01*
X027060Y010694D02*
X026490Y010694D01*
X022300Y009109D02*
X021847Y009109D01*
X021849Y009108D02*
X021783Y009129D01*
X021715Y009140D01*
X021680Y009140D01*
X021680Y008440D01*
X022120Y008440D01*
X022120Y008735D01*
X022109Y008803D01*
X022088Y008869D01*
X022056Y008931D01*
X022016Y008987D01*
X021967Y009036D01*
X021911Y009076D01*
X021849Y009108D01*
X021680Y009109D02*
X021680Y009109D01*
X021680Y009140D02*
X021645Y009140D01*
X021577Y009129D01*
X021511Y009108D01*
X021449Y009076D01*
X021393Y009036D01*
X021344Y008987D01*
X021304Y008931D01*
X021272Y008869D01*
X021251Y008803D01*
X021240Y008735D01*
X021240Y008440D01*
X021680Y008440D01*
X021680Y008440D01*
X021680Y008440D01*
X022120Y008440D01*
X022120Y008145D01*
X022109Y008077D01*
X022088Y008011D01*
X022056Y007949D01*
X022016Y007893D01*
X021967Y007844D01*
X021911Y007804D01*
X021849Y007772D01*
X021783Y007751D01*
X021715Y007740D01*
X021680Y007740D01*
X021680Y008440D01*
X021680Y008440D01*
X021680Y008440D01*
X021680Y009140D01*
X021513Y009109D02*
X019347Y009109D01*
X019349Y009108D02*
X019283Y009129D01*
X019215Y009140D01*
X019180Y009140D01*
X019180Y008440D01*
X019620Y008440D01*
X019620Y008735D01*
X019609Y008803D01*
X019588Y008869D01*
X019556Y008931D01*
X019516Y008987D01*
X019467Y009036D01*
X019411Y009076D01*
X019349Y009108D01*
X019180Y009109D02*
X019180Y009109D01*
X019180Y009140D02*
X019145Y009140D01*
X019077Y009129D01*
X019011Y009108D01*
X018949Y009076D01*
X018893Y009036D01*
X018844Y008987D01*
X018804Y008931D01*
X018772Y008869D01*
X018751Y008803D01*
X018740Y008735D01*
X018740Y008440D01*
X019180Y008440D01*
X019180Y008440D01*
X019180Y008440D01*
X019620Y008440D01*
X019620Y008145D01*
X019609Y008077D01*
X019588Y008011D01*
X019556Y007949D01*
X019516Y007893D01*
X019467Y007844D01*
X019411Y007804D01*
X019349Y007772D01*
X019283Y007751D01*
X019215Y007740D01*
X019180Y007740D01*
X019180Y008440D01*
X019180Y008440D01*
X019180Y008440D01*
X019180Y009140D01*
X019013Y009109D02*
X018390Y009109D01*
X018390Y009267D02*
X022141Y009267D01*
X021983Y009426D02*
X018390Y009426D01*
X018390Y009584D02*
X021824Y009584D01*
X021665Y009743D02*
X018390Y009743D01*
X018390Y009901D02*
X021507Y009901D01*
X021348Y010060D02*
X020922Y010060D01*
X021080Y010218D02*
X021190Y010218D01*
X020680Y010218D02*
X020680Y010218D01*
X020680Y010060D02*
X020680Y010060D01*
X020680Y010000D02*
X020680Y010440D01*
X020680Y010440D01*
X020680Y010440D01*
X020240Y010440D01*
X020240Y010258D01*
X020498Y010000D01*
X020680Y010000D01*
X020438Y010060D02*
X018390Y010060D01*
X018390Y010218D02*
X020280Y010218D01*
X020240Y010377D02*
X018390Y010377D01*
X018412Y010535D02*
X020240Y010535D01*
X020311Y010694D02*
X018571Y010694D01*
X018729Y010852D02*
X018914Y010852D01*
X019446Y010852D02*
X020376Y010852D01*
X020217Y011011D02*
X019564Y011011D01*
X019600Y011169D02*
X020059Y011169D01*
X019900Y011328D02*
X019600Y011328D01*
X019600Y011486D02*
X019860Y011486D01*
X019860Y011645D02*
X019600Y011645D01*
X019592Y011803D02*
X019860Y011803D01*
X019860Y011962D02*
X019512Y011962D01*
X019860Y012120D02*
X019007Y012120D01*
X019166Y012279D02*
X019552Y012279D01*
X019808Y012279D02*
X019860Y012279D01*
X019329Y012437D02*
X019324Y012437D01*
X017329Y012437D02*
X017031Y012437D01*
X017100Y012596D02*
X017260Y012596D01*
X017260Y012754D02*
X017100Y012754D01*
X017100Y012913D02*
X017260Y012913D01*
X017260Y013071D02*
X017100Y013071D01*
X017100Y013230D02*
X017260Y013230D01*
X017303Y013388D02*
X017057Y013388D01*
X016927Y013547D02*
X017433Y013547D01*
X016433Y013547D02*
X015927Y013547D01*
X016057Y013388D02*
X016303Y013388D01*
X016260Y013230D02*
X016100Y013230D01*
X016100Y013071D02*
X016260Y013071D01*
X016260Y012913D02*
X016100Y012913D01*
X016100Y012754D02*
X016260Y012754D01*
X016260Y012596D02*
X016100Y012596D01*
X016031Y012437D02*
X016329Y012437D01*
X015848Y011962D02*
X015780Y011962D01*
X017180Y011962D02*
X017180Y011962D01*
X017180Y012120D02*
X017180Y012120D01*
X017180Y011803D02*
X017180Y011803D01*
X017180Y011645D02*
X017180Y011645D01*
X015796Y011011D02*
X015780Y011011D01*
X015714Y010852D02*
X015914Y010852D01*
X013972Y010694D02*
X012549Y010694D01*
X012620Y010622D02*
X012362Y010880D01*
X012180Y010880D01*
X012180Y010440D01*
X012180Y010440D01*
X012620Y010440D01*
X012620Y010622D01*
X012620Y010535D02*
X013813Y010535D01*
X013655Y010377D02*
X012620Y010377D01*
X012620Y010440D02*
X012620Y010258D01*
X012362Y010000D01*
X012180Y010000D01*
X012180Y010440D01*
X012180Y010440D01*
X012180Y010440D01*
X011740Y010440D01*
X011740Y010622D01*
X011998Y010880D01*
X012180Y010880D01*
X012180Y010440D01*
X012620Y010440D01*
X012580Y010218D02*
X013496Y010218D01*
X013338Y010060D02*
X012422Y010060D01*
X012180Y010060D02*
X012180Y010060D01*
X012180Y010000D02*
X012180Y010440D01*
X012180Y010440D01*
X011740Y010440D01*
X011740Y010258D01*
X011998Y010000D01*
X012180Y010000D01*
X012180Y010218D02*
X012180Y010218D01*
X012180Y010377D02*
X012180Y010377D01*
X012180Y010535D02*
X012180Y010535D01*
X012180Y010694D02*
X012180Y010694D01*
X012180Y010852D02*
X012180Y010852D01*
X012390Y010852D02*
X012914Y010852D01*
X012796Y011011D02*
X011064Y011011D01*
X011100Y011169D02*
X011857Y011169D01*
X011760Y011328D02*
X011100Y011328D01*
X011100Y011486D02*
X011760Y011486D01*
X011791Y011645D02*
X011100Y011645D01*
X011092Y011803D02*
X011949Y011803D01*
X012411Y011803D02*
X012768Y011803D01*
X012848Y011962D02*
X011012Y011962D01*
X010348Y011962D02*
X010012Y011962D01*
X010036Y011938D02*
X009918Y012056D01*
X009764Y012120D01*
X009596Y012120D01*
X009442Y012056D01*
X009324Y011938D01*
X009260Y011784D01*
X009260Y011096D01*
X009324Y010942D01*
X009442Y010824D01*
X009596Y010760D01*
X009764Y010760D01*
X009918Y010824D01*
X010036Y010942D01*
X010100Y011096D01*
X010100Y011784D01*
X010036Y011938D01*
X010092Y011803D02*
X010268Y011803D01*
X010260Y011645D02*
X010100Y011645D01*
X010100Y011486D02*
X010260Y011486D01*
X010260Y011328D02*
X010100Y011328D01*
X010100Y011169D02*
X010260Y011169D01*
X010296Y011011D02*
X010064Y011011D01*
X009946Y010852D02*
X010414Y010852D01*
X010455Y010694D02*
X008850Y010694D01*
X008850Y010535D02*
X010455Y010535D01*
X010455Y010377D02*
X008850Y010377D01*
X008850Y010218D02*
X010346Y010218D01*
X010188Y010060D02*
X008756Y010060D01*
X008598Y009901D02*
X010029Y009901D01*
X009871Y009743D02*
X008439Y009743D01*
X008281Y009584D02*
X009712Y009584D01*
X009554Y009426D02*
X008122Y009426D01*
X007964Y009267D02*
X009395Y009267D01*
X009237Y009109D02*
X008791Y009109D01*
X008569Y009109D02*
X007805Y009109D01*
X008024Y008950D02*
X008336Y008950D01*
X008263Y008792D02*
X008097Y008792D01*
X008100Y008633D02*
X008260Y008633D01*
X008260Y008475D02*
X008100Y008475D01*
X008100Y008316D02*
X008260Y008316D01*
X008260Y008158D02*
X008100Y008158D01*
X008060Y007999D02*
X008300Y007999D01*
X008284Y007841D02*
X007934Y007841D01*
X008125Y007682D02*
X007320Y007682D01*
X007320Y007524D02*
X007967Y007524D01*
X007808Y007365D02*
X007320Y007365D01*
X007320Y007207D02*
X007650Y007207D01*
X007491Y007048D02*
X007320Y007048D01*
X007333Y006890D02*
X007296Y006890D01*
X007174Y006731D02*
X007138Y006731D01*
X007016Y006573D02*
X006979Y006573D01*
X006857Y006414D02*
X006821Y006414D01*
X008140Y006097D02*
X008220Y006097D01*
X008282Y006256D02*
X008345Y006256D01*
X008441Y006414D02*
X009242Y006414D01*
X009084Y006256D02*
X009015Y006256D01*
X009401Y006573D02*
X008599Y006573D01*
X008758Y006731D02*
X009559Y006731D01*
X009718Y006890D02*
X008916Y006890D01*
X009075Y007048D02*
X009876Y007048D01*
X010035Y007207D02*
X009233Y007207D01*
X009300Y007365D02*
X010193Y007365D01*
X010352Y007524D02*
X009300Y007524D01*
X009300Y007682D02*
X010510Y007682D01*
X010399Y007841D02*
X009934Y007841D01*
X010060Y007999D02*
X010278Y007999D01*
X010240Y008158D02*
X010100Y008158D01*
X010100Y008316D02*
X010240Y008316D01*
X010240Y008475D02*
X010100Y008475D01*
X010100Y008633D02*
X010240Y008633D01*
X010249Y008792D02*
X010097Y008792D01*
X010024Y008950D02*
X010318Y008950D01*
X010513Y009109D02*
X009830Y009109D01*
X009989Y009267D02*
X012095Y009267D01*
X011937Y009109D02*
X010847Y009109D01*
X010680Y009109D02*
X010680Y009109D01*
X010680Y008950D02*
X010680Y008950D01*
X010680Y008792D02*
X010680Y008792D01*
X010680Y008633D02*
X010680Y008633D01*
X010680Y008475D02*
X010680Y008475D01*
X011120Y008475D02*
X011303Y008475D01*
X011461Y008633D02*
X011120Y008633D01*
X011111Y008792D02*
X011620Y008792D01*
X011778Y008950D02*
X011042Y008950D01*
X010147Y009426D02*
X012254Y009426D01*
X012412Y009584D02*
X010306Y009584D01*
X010464Y009743D02*
X013021Y009743D01*
X013179Y009901D02*
X010623Y009901D01*
X010781Y010060D02*
X011938Y010060D01*
X011780Y010218D02*
X010875Y010218D01*
X010875Y010377D02*
X011740Y010377D01*
X011740Y010535D02*
X010875Y010535D01*
X010875Y010694D02*
X011811Y010694D01*
X011970Y010852D02*
X010946Y010852D01*
X009414Y010852D02*
X008946Y010852D01*
X009064Y011011D02*
X009296Y011011D01*
X009260Y011169D02*
X009100Y011169D01*
X009100Y011328D02*
X009260Y011328D01*
X009260Y011486D02*
X009100Y011486D01*
X009100Y011645D02*
X009260Y011645D01*
X009268Y011803D02*
X009092Y011803D01*
X009012Y011962D02*
X009348Y011962D01*
X009511Y012272D02*
X009577Y012251D01*
X009645Y012240D01*
X009680Y012240D01*
X009715Y012240D01*
X009783Y012251D01*
X009849Y012272D01*
X009911Y012304D01*
X009967Y012344D01*
X010016Y012393D01*
X010056Y012449D01*
X010088Y012511D01*
X010109Y012577D01*
X010120Y012645D01*
X010120Y012940D01*
X010120Y013235D01*
X010109Y013303D01*
X010088Y013369D01*
X010056Y013431D01*
X010016Y013487D01*
X009967Y013536D01*
X009911Y013576D01*
X009849Y013608D01*
X009783Y013629D01*
X009715Y013640D01*
X009680Y013640D01*
X009680Y012940D01*
X009680Y012940D01*
X010120Y012940D01*
X009680Y012940D01*
X009680Y012940D01*
X009680Y012940D01*
X009240Y012940D01*
X009240Y013235D01*
X009251Y013303D01*
X009272Y013369D01*
X009304Y013431D01*
X009344Y013487D01*
X009393Y013536D01*
X009449Y013576D01*
X009511Y013608D01*
X009577Y013629D01*
X009645Y013640D01*
X009680Y013640D01*
X009680Y012940D01*
X009680Y012240D01*
X009680Y012940D01*
X009680Y012940D01*
X009240Y012940D01*
X009240Y012645D01*
X009251Y012577D01*
X009272Y012511D01*
X009304Y012449D01*
X009344Y012393D01*
X009393Y012344D01*
X009449Y012304D01*
X009511Y012272D01*
X009499Y012279D02*
X008808Y012279D01*
X008552Y012279D02*
X008490Y012279D01*
X008490Y012120D02*
X014049Y012120D01*
X014055Y012279D02*
X013808Y012279D01*
X013552Y012279D02*
X012861Y012279D01*
X012849Y012272D02*
X012911Y012304D01*
X012967Y012344D01*
X013016Y012393D01*
X013056Y012449D01*
X013088Y012511D01*
X013109Y012577D01*
X013120Y012645D01*
X013120Y012940D01*
X013120Y013235D01*
X013109Y013303D01*
X013088Y013369D01*
X013056Y013431D01*
X013016Y013487D01*
X012967Y013536D01*
X012911Y013576D01*
X012849Y013608D01*
X012783Y013629D01*
X012715Y013640D01*
X012680Y013640D01*
X012680Y012940D01*
X013120Y012940D01*
X012680Y012940D01*
X012680Y012940D01*
X012680Y012940D01*
X012680Y012240D01*
X012715Y012240D01*
X012783Y012251D01*
X012849Y012272D01*
X012680Y012279D02*
X012680Y012279D01*
X012680Y012240D02*
X012680Y012940D01*
X012680Y012940D01*
X012680Y012940D01*
X012240Y012940D01*
X012240Y013235D01*
X012251Y013303D01*
X012272Y013369D01*
X012304Y013431D01*
X012344Y013487D01*
X012393Y013536D01*
X012449Y013576D01*
X012511Y013608D01*
X012577Y013629D01*
X012645Y013640D01*
X012680Y013640D01*
X012680Y012940D01*
X012240Y012940D01*
X012240Y012645D01*
X012251Y012577D01*
X012272Y012511D01*
X012304Y012449D01*
X012344Y012393D01*
X012393Y012344D01*
X012449Y012304D01*
X012511Y012272D01*
X012577Y012251D01*
X012645Y012240D01*
X012680Y012240D01*
X012499Y012279D02*
X009861Y012279D01*
X009680Y012279D02*
X009680Y012279D01*
X009680Y012437D02*
X009680Y012437D01*
X009680Y012596D02*
X009680Y012596D01*
X009680Y012754D02*
X009680Y012754D01*
X009680Y012913D02*
X009680Y012913D01*
X009680Y013071D02*
X009680Y013071D01*
X009680Y013230D02*
X009680Y013230D01*
X009680Y013388D02*
X009680Y013388D01*
X009680Y013547D02*
X009680Y013547D01*
X009952Y013547D02*
X010423Y013547D01*
X010264Y013705D02*
X008895Y013705D01*
X008927Y013547D02*
X009408Y013547D01*
X009282Y013388D02*
X009057Y013388D01*
X009100Y013230D02*
X009240Y013230D01*
X009240Y013071D02*
X009100Y013071D01*
X009100Y012913D02*
X009240Y012913D01*
X009240Y012754D02*
X009100Y012754D01*
X009100Y012596D02*
X009248Y012596D01*
X009313Y012437D02*
X009031Y012437D01*
X010047Y012437D02*
X012313Y012437D01*
X012248Y012596D02*
X010112Y012596D01*
X010120Y012754D02*
X012240Y012754D01*
X012240Y012913D02*
X010120Y012913D01*
X010120Y013071D02*
X012240Y013071D01*
X012240Y013230D02*
X010120Y013230D01*
X010078Y013388D02*
X012282Y013388D01*
X012408Y013547D02*
X010937Y013547D01*
X011096Y013705D02*
X013473Y013705D01*
X013433Y013547D02*
X012952Y013547D01*
X013078Y013388D02*
X013303Y013388D01*
X013260Y013230D02*
X013120Y013230D01*
X013120Y013071D02*
X013260Y013071D01*
X013260Y012913D02*
X013120Y012913D01*
X013120Y012754D02*
X013260Y012754D01*
X013260Y012596D02*
X013112Y012596D01*
X013047Y012437D02*
X013329Y012437D01*
X014031Y012437D02*
X014055Y012437D01*
X013826Y011962D02*
X013512Y011962D01*
X013751Y011803D02*
X013740Y011735D01*
X013740Y011486D02*
X013600Y011486D01*
X013600Y011328D02*
X013740Y011328D01*
X013740Y011169D02*
X013600Y011169D01*
X013564Y011011D02*
X013773Y011011D01*
X013886Y010852D02*
X013446Y010852D01*
X012760Y011169D02*
X012503Y011169D01*
X012680Y012437D02*
X012680Y012437D01*
X012680Y012596D02*
X012680Y012596D01*
X012680Y012754D02*
X012680Y012754D01*
X012680Y012913D02*
X012680Y012913D01*
X012680Y013071D02*
X012680Y013071D01*
X012680Y013230D02*
X012680Y013230D01*
X012680Y013388D02*
X012680Y013388D01*
X012680Y013547D02*
X012680Y013547D01*
X013156Y014022D02*
X011140Y014022D01*
X011140Y013864D02*
X013314Y013864D01*
X012997Y014181D02*
X011090Y014181D01*
X010932Y014339D02*
X012839Y014339D01*
X012680Y014498D02*
X010439Y014498D01*
X010281Y014656D02*
X012522Y014656D01*
X012363Y014815D02*
X010122Y014815D01*
X009964Y014973D02*
X012205Y014973D01*
X012046Y015132D02*
X009805Y015132D01*
X009647Y015290D02*
X011888Y015290D01*
X011729Y015449D02*
X000460Y015449D01*
X000460Y015607D02*
X011571Y015607D01*
X011412Y015766D02*
X000460Y015766D01*
X000460Y015924D02*
X011254Y015924D01*
X011095Y016083D02*
X000460Y016083D01*
X000460Y016241D02*
X010937Y016241D01*
X010778Y016400D02*
X000460Y016400D01*
X000460Y016558D02*
X010620Y016558D01*
X010461Y016717D02*
X000460Y016717D01*
X000460Y016875D02*
X001391Y016875D01*
X001442Y016824D02*
X001596Y016760D01*
X001764Y016760D01*
X001918Y016824D01*
X002036Y016942D01*
X002100Y017096D01*
X002100Y017784D01*
X002036Y017938D01*
X001918Y018056D01*
X001764Y018120D01*
X001596Y018120D01*
X001442Y018056D01*
X001324Y017938D01*
X001260Y017784D01*
X001260Y017096D01*
X001324Y016942D01*
X001442Y016824D01*
X001286Y017034D02*
X000460Y017034D01*
X000460Y017192D02*
X001260Y017192D01*
X001260Y017351D02*
X000460Y017351D01*
X000460Y017509D02*
X001260Y017509D01*
X001260Y017668D02*
X000460Y017668D01*
X000460Y017826D02*
X001278Y017826D01*
X001505Y018143D02*
X009000Y018143D01*
X008918Y018056D02*
X008764Y018120D01*
X008596Y018120D01*
X008442Y018056D01*
X008324Y017938D01*
X008260Y017784D01*
X008260Y017096D01*
X008324Y016942D01*
X008442Y016824D01*
X008596Y016760D01*
X008764Y016760D01*
X008918Y016824D01*
X009036Y016942D01*
X009100Y017096D01*
X009100Y017784D01*
X009036Y017938D01*
X008918Y018056D01*
X008989Y017985D02*
X009024Y017985D01*
X009082Y017826D02*
X009140Y017826D01*
X009100Y017668D02*
X009510Y017668D01*
X009669Y017509D02*
X009100Y017509D01*
X009100Y017351D02*
X009827Y017351D01*
X009986Y017192D02*
X009100Y017192D01*
X009074Y017034D02*
X010144Y017034D01*
X010303Y016875D02*
X008969Y016875D01*
X008391Y016875D02*
X007969Y016875D01*
X007918Y016824D02*
X008036Y016942D01*
X008100Y017096D01*
X008100Y017784D01*
X008036Y017938D01*
X007918Y018056D01*
X007764Y018120D01*
X007596Y018120D01*
X007442Y018056D01*
X007324Y017938D01*
X007260Y017784D01*
X007260Y017096D01*
X007324Y016942D01*
X007442Y016824D01*
X007596Y016760D01*
X007764Y016760D01*
X007918Y016824D01*
X008074Y017034D02*
X008286Y017034D01*
X008260Y017192D02*
X008100Y017192D01*
X008100Y017351D02*
X008260Y017351D01*
X008260Y017509D02*
X008100Y017509D01*
X008100Y017668D02*
X008260Y017668D01*
X008278Y017826D02*
X008082Y017826D01*
X007989Y017985D02*
X008371Y017985D01*
X009048Y018302D02*
X001620Y018302D01*
X001620Y018460D02*
X009252Y018460D01*
X009468Y018460D02*
X009630Y018460D01*
X009660Y018619D02*
X001620Y018619D01*
X002324Y017938D02*
X002442Y018056D01*
X002596Y018120D01*
X002764Y018120D01*
X002918Y018056D01*
X003036Y017938D01*
X003100Y017784D01*
X003100Y017096D01*
X003036Y016942D01*
X002918Y016824D01*
X002764Y016760D01*
X002596Y016760D01*
X002442Y016824D01*
X002324Y016942D01*
X002260Y017096D01*
X002260Y017784D01*
X002324Y017938D01*
X002371Y017985D02*
X001989Y017985D01*
X002082Y017826D02*
X002278Y017826D01*
X002260Y017668D02*
X002100Y017668D01*
X002100Y017509D02*
X002260Y017509D01*
X002260Y017351D02*
X002100Y017351D01*
X002100Y017192D02*
X002260Y017192D01*
X002286Y017034D02*
X002074Y017034D01*
X001969Y016875D02*
X002391Y016875D01*
X002969Y016875D02*
X003391Y016875D01*
X003442Y016824D02*
X003596Y016760D01*
X003764Y016760D01*
X003918Y016824D01*
X004036Y016942D01*
X004100Y017096D01*
X004100Y017784D01*
X004036Y017938D01*
X003918Y018056D01*
X003764Y018120D01*
X003596Y018120D01*
X003442Y018056D01*
X003324Y017938D01*
X003260Y017784D01*
X003260Y017096D01*
X003324Y016942D01*
X003442Y016824D01*
X003286Y017034D02*
X003074Y017034D01*
X003100Y017192D02*
X003260Y017192D01*
X003260Y017351D02*
X003100Y017351D01*
X003100Y017509D02*
X003260Y017509D01*
X003260Y017668D02*
X003100Y017668D01*
X003082Y017826D02*
X003278Y017826D01*
X003371Y017985D02*
X002989Y017985D01*
X003989Y017985D02*
X004371Y017985D01*
X004324Y017938D02*
X004260Y017784D01*
X004260Y017096D01*
X004324Y016942D01*
X004442Y016824D01*
X004596Y016760D01*
X004764Y016760D01*
X004918Y016824D01*
X005036Y016942D01*
X005100Y017096D01*
X005100Y017784D01*
X005036Y017938D01*
X004918Y018056D01*
X004764Y018120D01*
X004596Y018120D01*
X004442Y018056D01*
X004324Y017938D01*
X004278Y017826D02*
X004082Y017826D01*
X004100Y017668D02*
X004260Y017668D01*
X004260Y017509D02*
X004100Y017509D01*
X004100Y017351D02*
X004260Y017351D01*
X004260Y017192D02*
X004100Y017192D01*
X004074Y017034D02*
X004286Y017034D01*
X004391Y016875D02*
X003969Y016875D01*
X004969Y016875D02*
X005391Y016875D01*
X005442Y016824D02*
X005596Y016760D01*
X005764Y016760D01*
X005918Y016824D01*
X006036Y016942D01*
X006100Y017096D01*
X006100Y017784D01*
X006036Y017938D01*
X005918Y018056D01*
X005764Y018120D01*
X005596Y018120D01*
X005442Y018056D01*
X005324Y017938D01*
X005260Y017784D01*
X005260Y017096D01*
X005324Y016942D01*
X005442Y016824D01*
X005286Y017034D02*
X005074Y017034D01*
X005100Y017192D02*
X005260Y017192D01*
X005260Y017351D02*
X005100Y017351D01*
X005100Y017509D02*
X005260Y017509D01*
X005260Y017668D02*
X005100Y017668D01*
X005082Y017826D02*
X005278Y017826D01*
X005371Y017985D02*
X004989Y017985D01*
X005989Y017985D02*
X006371Y017985D01*
X006324Y017938D02*
X006260Y017784D01*
X006260Y017096D01*
X006324Y016942D01*
X006442Y016824D01*
X006596Y016760D01*
X006764Y016760D01*
X006918Y016824D01*
X007036Y016942D01*
X007100Y017096D01*
X007100Y017784D01*
X007036Y017938D01*
X006918Y018056D01*
X006764Y018120D01*
X006596Y018120D01*
X006442Y018056D01*
X006324Y017938D01*
X006278Y017826D02*
X006082Y017826D01*
X006100Y017668D02*
X006260Y017668D01*
X006260Y017509D02*
X006100Y017509D01*
X006100Y017351D02*
X006260Y017351D01*
X006260Y017192D02*
X006100Y017192D01*
X006074Y017034D02*
X006286Y017034D01*
X006391Y016875D02*
X005969Y016875D01*
X006969Y016875D02*
X007391Y016875D01*
X007286Y017034D02*
X007074Y017034D01*
X007100Y017192D02*
X007260Y017192D01*
X007260Y017351D02*
X007100Y017351D01*
X007100Y017509D02*
X007260Y017509D01*
X007260Y017668D02*
X007100Y017668D01*
X007082Y017826D02*
X007278Y017826D01*
X007371Y017985D02*
X006989Y017985D01*
X010407Y020045D02*
X015953Y020045D01*
X007408Y015290D02*
X000460Y015290D01*
X000460Y015132D02*
X007250Y015132D01*
X007091Y014973D02*
X007001Y014973D01*
X006359Y014973D02*
X006001Y014973D01*
X006087Y014815D02*
X006273Y014815D01*
X006260Y014656D02*
X006100Y014656D01*
X006100Y014498D02*
X006260Y014498D01*
X006260Y014339D02*
X006100Y014339D01*
X006100Y014181D02*
X006260Y014181D01*
X006291Y014022D02*
X006069Y014022D01*
X005291Y014022D02*
X005069Y014022D01*
X005100Y014181D02*
X005260Y014181D01*
X005260Y014339D02*
X005100Y014339D01*
X005100Y014498D02*
X005260Y014498D01*
X005260Y014656D02*
X005100Y014656D01*
X005087Y014815D02*
X005273Y014815D01*
X005359Y014973D02*
X005001Y014973D01*
X004359Y014973D02*
X004001Y014973D01*
X004087Y014815D02*
X004273Y014815D01*
X004260Y014656D02*
X004100Y014656D01*
X004100Y014498D02*
X004260Y014498D01*
X004260Y014339D02*
X004100Y014339D01*
X004100Y014181D02*
X004260Y014181D01*
X004291Y014022D02*
X004069Y014022D01*
X003403Y013864D02*
X002957Y013864D01*
X002918Y013824D02*
X003036Y013942D01*
X003100Y014096D01*
X003100Y014784D01*
X003036Y014938D01*
X002918Y015056D01*
X002764Y015120D01*
X002596Y015120D01*
X002442Y015056D01*
X002324Y014938D01*
X002260Y014784D01*
X002260Y014096D01*
X002324Y013942D01*
X002442Y013824D01*
X002596Y013760D01*
X002764Y013760D01*
X002918Y013824D01*
X003069Y014022D02*
X003291Y014022D01*
X003260Y014181D02*
X003100Y014181D01*
X003100Y014339D02*
X003260Y014339D01*
X003260Y014498D02*
X003100Y014498D01*
X003100Y014656D02*
X003260Y014656D01*
X003273Y014815D02*
X003087Y014815D01*
X003001Y014973D02*
X003359Y014973D01*
X002359Y014973D02*
X002001Y014973D01*
X002036Y014938D02*
X001918Y015056D01*
X001764Y015120D01*
X001596Y015120D01*
X001442Y015056D01*
X001324Y014938D01*
X001260Y014784D01*
X001260Y014096D01*
X001324Y013942D01*
X001442Y013824D01*
X001596Y013760D01*
X001764Y013760D01*
X001918Y013824D01*
X002036Y013942D01*
X002100Y014096D01*
X002100Y014784D01*
X002036Y014938D01*
X002087Y014815D02*
X002273Y014815D01*
X002260Y014656D02*
X002100Y014656D01*
X002100Y014498D02*
X002260Y014498D01*
X002260Y014339D02*
X002100Y014339D01*
X002100Y014181D02*
X002260Y014181D01*
X002291Y014022D02*
X002069Y014022D01*
X001957Y013864D02*
X002403Y013864D01*
X002433Y013547D02*
X001927Y013547D01*
X001918Y013556D02*
X001764Y013620D01*
X001596Y013620D01*
X001442Y013556D01*
X001324Y013438D01*
X001260Y013284D01*
X001260Y012596D01*
X001324Y012442D01*
X001442Y012324D01*
X001596Y012260D01*
X001764Y012260D01*
X001918Y012324D01*
X002036Y012442D01*
X002100Y012596D01*
X002100Y013284D01*
X002036Y013438D01*
X001918Y013556D01*
X002057Y013388D02*
X002303Y013388D01*
X002260Y013230D02*
X002100Y013230D01*
X002100Y013071D02*
X002260Y013071D01*
X002260Y012913D02*
X002100Y012913D01*
X002100Y012754D02*
X002260Y012754D01*
X002260Y012596D02*
X002100Y012596D01*
X002031Y012437D02*
X002329Y012437D01*
X002552Y012279D02*
X001808Y012279D01*
X001552Y012279D02*
X000460Y012279D01*
X000460Y012437D02*
X001329Y012437D01*
X001260Y012596D02*
X000460Y012596D01*
X000460Y012754D02*
X001260Y012754D01*
X001260Y012913D02*
X000460Y012913D01*
X000460Y013071D02*
X001260Y013071D01*
X001260Y013230D02*
X000460Y013230D01*
X000460Y013388D02*
X001303Y013388D01*
X001433Y013547D02*
X000460Y013547D01*
X000460Y013705D02*
X003303Y013705D01*
X003145Y013547D02*
X002927Y013547D01*
X003057Y013388D02*
X003075Y013388D01*
X001403Y013864D02*
X000460Y013864D01*
X000460Y014022D02*
X001291Y014022D01*
X001260Y014181D02*
X000460Y014181D01*
X000460Y014339D02*
X001260Y014339D01*
X001260Y014498D02*
X000460Y014498D01*
X000460Y014656D02*
X001260Y014656D01*
X001273Y014815D02*
X000460Y014815D01*
X000460Y014973D02*
X001359Y014973D01*
X000460Y012120D02*
X002490Y012120D01*
X002348Y011962D02*
X002012Y011962D01*
X002092Y011803D02*
X002268Y011803D01*
X002260Y011645D02*
X002100Y011645D01*
X002100Y011486D02*
X002260Y011486D01*
X002260Y011328D02*
X002160Y011328D01*
X002059Y010694D02*
X001049Y010694D01*
X001120Y010535D02*
X002217Y010535D01*
X002376Y010377D02*
X001120Y010377D01*
X001080Y010218D02*
X002534Y010218D01*
X002693Y010060D02*
X000922Y010060D01*
X000680Y010060D02*
X000680Y010060D01*
X000680Y010000D02*
X000680Y010440D01*
X000680Y010440D01*
X000680Y010000D01*
X000680Y010218D02*
X000680Y010218D01*
X000680Y010377D02*
X000680Y010377D01*
X000680Y010535D02*
X000680Y010535D01*
X000680Y010694D02*
X000680Y010694D01*
X000680Y010852D02*
X000680Y010852D01*
X000890Y010852D02*
X001414Y010852D01*
X001296Y011011D02*
X000460Y011011D01*
X000460Y010852D02*
X000470Y010852D01*
X001003Y011169D02*
X001260Y011169D01*
X001260Y011328D02*
X001100Y011328D01*
X001100Y011486D02*
X001260Y011486D01*
X001260Y011645D02*
X001069Y011645D01*
X000911Y011803D02*
X001268Y011803D01*
X001348Y011962D02*
X000460Y011962D01*
X000460Y009901D02*
X002851Y009901D01*
X002935Y009743D02*
X000460Y009743D01*
X000460Y009584D02*
X002935Y009584D01*
X002935Y009426D02*
X000460Y009426D01*
X000460Y009267D02*
X002935Y009267D01*
X002935Y009109D02*
X002791Y009109D01*
X002569Y009109D02*
X001791Y009109D01*
X001764Y009120D02*
X001596Y009120D01*
X001442Y009056D01*
X001324Y008938D01*
X001260Y008784D01*
X001260Y008096D01*
X001324Y007942D01*
X001442Y007824D01*
X001596Y007760D01*
X001764Y007760D01*
X001918Y007824D01*
X002036Y007942D01*
X002100Y008096D01*
X002100Y008784D01*
X002036Y008938D01*
X001918Y009056D01*
X001764Y009120D01*
X001569Y009109D02*
X000460Y009109D01*
X000460Y008950D02*
X001336Y008950D01*
X001263Y008792D02*
X000460Y008792D01*
X000460Y008633D02*
X001260Y008633D01*
X001260Y008475D02*
X000460Y008475D01*
X000460Y008316D02*
X001260Y008316D01*
X001260Y008158D02*
X000460Y008158D01*
X000460Y007999D02*
X001300Y007999D01*
X001426Y007841D02*
X000460Y007841D01*
X000460Y007682D02*
X002935Y007682D01*
X002935Y007524D02*
X000460Y007524D01*
X000460Y007365D02*
X002935Y007365D01*
X002935Y007207D02*
X000460Y007207D01*
X000460Y007048D02*
X002935Y007048D01*
X002935Y006890D02*
X000460Y006890D01*
X000460Y006731D02*
X002935Y006731D01*
X002935Y006573D02*
X000460Y006573D01*
X000460Y006414D02*
X002935Y006414D01*
X002345Y006256D02*
X002015Y006256D01*
X002140Y006131D02*
X001871Y006400D01*
X001489Y006400D01*
X001220Y006131D01*
X001220Y005749D01*
X001489Y005480D01*
X001871Y005480D01*
X002140Y005749D01*
X002140Y006131D01*
X002140Y006097D02*
X002220Y006097D01*
X002220Y005939D02*
X002140Y005939D01*
X002140Y005780D02*
X002220Y005780D01*
X002348Y005622D02*
X002012Y005622D01*
X001879Y005420D02*
X001700Y005420D01*
X001700Y004960D01*
X002160Y004960D01*
X002160Y005139D01*
X001879Y005420D01*
X001994Y005305D02*
X002394Y005305D01*
X002235Y005146D02*
X002153Y005146D01*
X002160Y004988D02*
X002220Y004988D01*
X002160Y004920D02*
X001700Y004920D01*
X001700Y004960D01*
X001660Y004960D01*
X001660Y005420D01*
X001481Y005420D01*
X001200Y005139D01*
X001200Y004960D01*
X001660Y004960D01*
X001660Y004920D01*
X001700Y004920D01*
X001700Y004460D01*
X001879Y004460D01*
X002160Y004741D01*
X002160Y004920D01*
X002160Y004829D02*
X002220Y004829D01*
X002299Y004671D02*
X002089Y004671D01*
X001931Y004512D02*
X002457Y004512D01*
X002490Y004354D02*
X000460Y004354D01*
X000460Y004512D02*
X001429Y004512D01*
X001481Y004460D02*
X001660Y004460D01*
X001660Y004920D01*
X001200Y004920D01*
X001200Y004741D01*
X001481Y004460D01*
X001660Y004512D02*
X001700Y004512D01*
X001700Y004671D02*
X001660Y004671D01*
X001660Y004829D02*
X001700Y004829D01*
X001700Y004988D02*
X001660Y004988D01*
X001660Y005146D02*
X001700Y005146D01*
X001700Y005305D02*
X001660Y005305D01*
X001366Y005305D02*
X000460Y005305D01*
X000460Y005463D02*
X003104Y005463D01*
X002966Y005305D02*
X003263Y005305D01*
X003235Y005146D02*
X003125Y005146D01*
X003140Y004988D02*
X003220Y004988D01*
X003220Y004829D02*
X003140Y004829D01*
X003061Y004671D02*
X003299Y004671D01*
X003430Y004512D02*
X002910Y004512D01*
X002910Y004354D02*
X003430Y004354D01*
X003430Y004195D02*
X002910Y004195D01*
X002910Y004037D02*
X003430Y004037D01*
X002490Y004037D02*
X000460Y004037D01*
X000460Y004195D02*
X002490Y004195D01*
X001271Y004671D02*
X000460Y004671D01*
X000460Y004829D02*
X001200Y004829D01*
X001200Y004988D02*
X000460Y004988D01*
X000460Y005146D02*
X001207Y005146D01*
X001348Y005622D02*
X000460Y005622D01*
X000460Y005780D02*
X001220Y005780D01*
X001220Y005939D02*
X000460Y005939D01*
X000460Y006097D02*
X001220Y006097D01*
X001345Y006256D02*
X000460Y006256D01*
X001934Y007841D02*
X002426Y007841D01*
X002300Y007999D02*
X002060Y007999D01*
X002100Y008158D02*
X002260Y008158D01*
X002260Y008316D02*
X002100Y008316D01*
X002100Y008475D02*
X002260Y008475D01*
X002260Y008633D02*
X002100Y008633D01*
X002097Y008792D02*
X002263Y008792D01*
X002336Y008950D02*
X002024Y008950D01*
X002934Y007841D02*
X002935Y007841D01*
X007320Y007841D02*
X007426Y007841D01*
X009300Y007841D02*
X009426Y007841D01*
X009300Y007999D02*
X009300Y007999D01*
X011120Y008316D02*
X011144Y008316D01*
X009078Y008950D02*
X009024Y008950D01*
X014578Y007524D02*
X017450Y007524D01*
X017608Y007365D02*
X014737Y007365D01*
X014895Y007207D02*
X017767Y007207D01*
X017925Y007048D02*
X015054Y007048D01*
X015212Y006890D02*
X018084Y006890D01*
X018242Y006731D02*
X015371Y006731D01*
X016969Y006573D02*
X018401Y006573D01*
X018559Y006414D02*
X017128Y006414D01*
X017286Y006256D02*
X017345Y006256D01*
X018015Y006256D02*
X018345Y006256D01*
X018220Y006097D02*
X018140Y006097D01*
X018140Y005939D02*
X018220Y005939D01*
X018220Y005780D02*
X018140Y005780D01*
X018012Y005622D02*
X018348Y005622D01*
X018484Y005463D02*
X019005Y005463D01*
X019039Y005305D02*
X018966Y005305D01*
X019125Y005146D02*
X019197Y005146D01*
X019220Y004988D02*
X019140Y004988D01*
X019140Y004829D02*
X019220Y004829D01*
X019299Y004671D02*
X019061Y004671D01*
X018903Y004512D02*
X019455Y004512D01*
X019455Y004354D02*
X018885Y004354D01*
X018885Y004195D02*
X019455Y004195D01*
X019455Y004037D02*
X018885Y004037D01*
X019875Y004037D02*
X020490Y004037D01*
X020490Y004195D02*
X019875Y004195D01*
X019875Y004354D02*
X020490Y004354D01*
X020457Y004512D02*
X019903Y004512D01*
X020061Y004671D02*
X020299Y004671D01*
X020220Y004829D02*
X020140Y004829D01*
X020140Y004988D02*
X020220Y004988D01*
X020235Y005146D02*
X020125Y005146D01*
X019966Y005305D02*
X020394Y005305D01*
X020489Y005480D02*
X020871Y005480D01*
X021140Y005749D01*
X021140Y006131D01*
X020871Y006400D01*
X020489Y006400D01*
X020220Y006131D01*
X020220Y005749D01*
X020489Y005480D01*
X020348Y005622D02*
X020012Y005622D01*
X020140Y005780D02*
X020220Y005780D01*
X020220Y005939D02*
X020140Y005939D01*
X020140Y006097D02*
X020220Y006097D01*
X020345Y006256D02*
X020015Y006256D01*
X021015Y006256D02*
X021345Y006256D01*
X021220Y006131D02*
X021489Y006400D01*
X021871Y006400D01*
X022140Y006131D01*
X022140Y005749D01*
X021871Y005480D01*
X021489Y005480D01*
X021220Y005749D01*
X021220Y006131D01*
X021220Y006097D02*
X021140Y006097D01*
X021140Y005939D02*
X021220Y005939D01*
X021220Y005780D02*
X021140Y005780D01*
X021012Y005622D02*
X021348Y005622D01*
X022012Y005622D02*
X022348Y005622D01*
X022220Y005749D02*
X022489Y005480D01*
X022871Y005480D01*
X023140Y005749D01*
X023140Y006131D01*
X022871Y006400D01*
X022489Y006400D01*
X022220Y006131D01*
X022220Y005749D01*
X022220Y005780D02*
X022140Y005780D01*
X022140Y005939D02*
X022220Y005939D01*
X022220Y006097D02*
X022140Y006097D01*
X022015Y006256D02*
X022345Y006256D01*
X023015Y006256D02*
X023345Y006256D01*
X023220Y006097D02*
X023140Y006097D01*
X023140Y005939D02*
X023220Y005939D01*
X023220Y005780D02*
X023140Y005780D01*
X023012Y005622D02*
X023348Y005622D01*
X022879Y005420D02*
X022700Y005420D01*
X022700Y004960D01*
X023160Y004960D01*
X023160Y005139D01*
X022879Y005420D01*
X022994Y005305D02*
X023394Y005305D01*
X023235Y005146D02*
X023153Y005146D01*
X023160Y004988D02*
X023220Y004988D01*
X023160Y004920D02*
X022700Y004920D01*
X022700Y004960D01*
X022660Y004960D01*
X022660Y005420D01*
X022481Y005420D01*
X022200Y005139D01*
X022200Y004960D01*
X022660Y004960D01*
X022660Y004920D01*
X022700Y004920D01*
X022700Y004460D01*
X022879Y004460D01*
X023160Y004741D01*
X023160Y004920D01*
X023160Y004829D02*
X023220Y004829D01*
X023299Y004671D02*
X023089Y004671D01*
X022931Y004512D02*
X023457Y004512D01*
X023460Y004354D02*
X021900Y004354D01*
X021903Y004512D02*
X022429Y004512D01*
X022481Y004460D02*
X022660Y004460D01*
X022660Y004920D01*
X022200Y004920D01*
X022200Y004741D01*
X022481Y004460D01*
X022660Y004512D02*
X022700Y004512D01*
X022700Y004671D02*
X022660Y004671D01*
X022660Y004829D02*
X022700Y004829D01*
X022700Y004988D02*
X022660Y004988D01*
X022660Y005146D02*
X022700Y005146D01*
X022700Y005305D02*
X022660Y005305D01*
X022366Y005305D02*
X021966Y005305D01*
X022125Y005146D02*
X022207Y005146D01*
X022200Y004988D02*
X022140Y004988D01*
X022140Y004829D02*
X022200Y004829D01*
X022271Y004671D02*
X022061Y004671D01*
X021457Y004512D02*
X020910Y004512D01*
X020910Y004354D02*
X021480Y004354D01*
X021480Y004195D02*
X020910Y004195D01*
X020910Y004037D02*
X021480Y004037D01*
X021900Y004037D02*
X023460Y004037D01*
X023460Y004195D02*
X021900Y004195D01*
X021299Y004671D02*
X021061Y004671D01*
X021140Y004829D02*
X021220Y004829D01*
X021220Y004988D02*
X021140Y004988D01*
X021125Y005146D02*
X021235Y005146D01*
X021394Y005305D02*
X020966Y005305D01*
X019474Y005463D02*
X029040Y005463D01*
X029040Y005305D02*
X028966Y005305D01*
X028871Y005480D02*
X028489Y005480D01*
X028220Y005749D01*
X028220Y006131D01*
X028489Y006400D01*
X028871Y006400D01*
X029140Y006131D01*
X029140Y005749D01*
X028871Y005480D01*
X029012Y005622D02*
X029060Y005622D01*
X029140Y005780D02*
X029218Y005780D01*
X029220Y005939D02*
X029140Y005939D01*
X029140Y006097D02*
X029220Y006097D01*
X029345Y006256D02*
X029015Y006256D01*
X028345Y006256D02*
X028015Y006256D01*
X028140Y006131D02*
X027871Y006400D01*
X027489Y006400D01*
X027220Y006131D01*
X027220Y005749D01*
X027489Y005480D01*
X027871Y005480D01*
X028140Y005749D01*
X028140Y006131D01*
X028140Y006097D02*
X028220Y006097D01*
X028220Y005939D02*
X028140Y005939D01*
X028140Y005780D02*
X028220Y005780D01*
X028348Y005622D02*
X028012Y005622D01*
X027348Y005622D02*
X027012Y005622D01*
X027140Y005749D02*
X026871Y005480D01*
X026489Y005480D01*
X026220Y005749D01*
X026220Y006131D01*
X026489Y006400D01*
X026871Y006400D01*
X027140Y006131D01*
X027140Y005749D01*
X027140Y005780D02*
X027220Y005780D01*
X027220Y005939D02*
X027140Y005939D01*
X027140Y006097D02*
X027220Y006097D01*
X027345Y006256D02*
X027015Y006256D01*
X026345Y006256D02*
X026015Y006256D01*
X026140Y006097D02*
X026220Y006097D01*
X026220Y005939D02*
X026140Y005939D01*
X026140Y005780D02*
X026220Y005780D01*
X026348Y005622D02*
X026012Y005622D01*
X025966Y005305D02*
X026394Y005305D01*
X026235Y005146D02*
X026125Y005146D01*
X026140Y004988D02*
X026220Y004988D01*
X026220Y004829D02*
X026140Y004829D01*
X026061Y004671D02*
X026299Y004671D01*
X026457Y004512D02*
X025905Y004512D01*
X025905Y004354D02*
X026475Y004354D01*
X026475Y004195D02*
X025905Y004195D01*
X025905Y004037D02*
X026475Y004037D01*
X026895Y004037D02*
X027465Y004037D01*
X027465Y004195D02*
X026895Y004195D01*
X026895Y004354D02*
X027465Y004354D01*
X027457Y004512D02*
X026903Y004512D01*
X027061Y004671D02*
X027299Y004671D01*
X027220Y004829D02*
X027140Y004829D01*
X027140Y004988D02*
X027220Y004988D01*
X027235Y005146D02*
X027125Y005146D01*
X026966Y005305D02*
X027394Y005305D01*
X027966Y005305D02*
X028394Y005305D01*
X028235Y005146D02*
X028125Y005146D01*
X028140Y004988D02*
X028220Y004988D01*
X028220Y004829D02*
X028140Y004829D01*
X028061Y004671D02*
X028299Y004671D01*
X028455Y004512D02*
X027903Y004512D01*
X027885Y004354D02*
X028455Y004354D01*
X028455Y004195D02*
X027885Y004195D01*
X027885Y004037D02*
X028455Y004037D01*
X027426Y007841D02*
X026934Y007841D01*
X027060Y007999D02*
X027300Y007999D01*
X027260Y008158D02*
X027100Y008158D01*
X027100Y008316D02*
X027260Y008316D01*
X027260Y008475D02*
X027100Y008475D01*
X027100Y008633D02*
X027260Y008633D01*
X027263Y008792D02*
X027097Y008792D01*
X027024Y008950D02*
X027336Y008950D01*
X025260Y008475D02*
X025100Y008475D01*
X025100Y008633D02*
X025160Y008633D01*
X025100Y008316D02*
X025260Y008316D01*
X025260Y008158D02*
X025100Y008158D01*
X025060Y007999D02*
X025300Y007999D01*
X025426Y007841D02*
X024934Y007841D01*
X024426Y007841D02*
X023934Y007841D01*
X024060Y007999D02*
X024300Y007999D01*
X024260Y008158D02*
X024100Y008158D01*
X024100Y008316D02*
X024260Y008316D01*
X024260Y008475D02*
X024100Y008475D01*
X024100Y008633D02*
X024170Y008633D01*
X023260Y008633D02*
X023100Y008633D01*
X023100Y008475D02*
X023260Y008475D01*
X023260Y008316D02*
X023100Y008316D01*
X023100Y008158D02*
X023260Y008158D01*
X023300Y007999D02*
X023060Y007999D01*
X022934Y007841D02*
X023426Y007841D01*
X022426Y007841D02*
X021961Y007841D01*
X022082Y007999D02*
X022300Y007999D01*
X022260Y008158D02*
X022120Y008158D01*
X022120Y008316D02*
X022260Y008316D01*
X022260Y008475D02*
X022120Y008475D01*
X022120Y008633D02*
X022260Y008633D01*
X022263Y008792D02*
X022111Y008792D01*
X022042Y008950D02*
X022336Y008950D01*
X023024Y008950D02*
X023043Y008950D01*
X023097Y008792D02*
X023263Y008792D01*
X021680Y008792D02*
X021680Y008792D01*
X021680Y008950D02*
X021680Y008950D01*
X021680Y008633D02*
X021680Y008633D01*
X021680Y008475D02*
X021680Y008475D01*
X021680Y008440D02*
X021240Y008440D01*
X021240Y008145D01*
X021251Y008077D01*
X021272Y008011D01*
X021304Y007949D01*
X021344Y007893D01*
X021393Y007844D01*
X021449Y007804D01*
X021511Y007772D01*
X021577Y007751D01*
X021645Y007740D01*
X021680Y007740D01*
X021680Y008440D01*
X021680Y008316D02*
X021680Y008316D01*
X021680Y008158D02*
X021680Y008158D01*
X021680Y007999D02*
X021680Y007999D01*
X021680Y007841D02*
X021680Y007841D01*
X021399Y007841D02*
X019461Y007841D01*
X019582Y007999D02*
X021278Y007999D01*
X021240Y008158D02*
X019620Y008158D01*
X019620Y008316D02*
X021240Y008316D01*
X021240Y008475D02*
X019620Y008475D01*
X019620Y008633D02*
X021240Y008633D01*
X021249Y008792D02*
X019611Y008792D01*
X019542Y008950D02*
X021318Y008950D01*
X019180Y008950D02*
X019180Y008950D01*
X019180Y008792D02*
X019180Y008792D01*
X019180Y008633D02*
X019180Y008633D01*
X019180Y008475D02*
X019180Y008475D01*
X019180Y008440D02*
X018740Y008440D01*
X018740Y008145D01*
X018751Y008077D01*
X018772Y008011D01*
X018804Y007949D01*
X018844Y007893D01*
X018893Y007844D01*
X018949Y007804D01*
X019011Y007772D01*
X019077Y007751D01*
X019145Y007740D01*
X019180Y007740D01*
X019180Y008440D01*
X019180Y008316D02*
X019180Y008316D01*
X019180Y008158D02*
X019180Y008158D01*
X019180Y007999D02*
X019180Y007999D01*
X019180Y007841D02*
X019180Y007841D01*
X018899Y007841D02*
X018434Y007841D01*
X018560Y007999D02*
X018778Y007999D01*
X018740Y008158D02*
X018600Y008158D01*
X018600Y008316D02*
X018740Y008316D01*
X018740Y008475D02*
X018600Y008475D01*
X018600Y008633D02*
X018740Y008633D01*
X018749Y008792D02*
X018597Y008792D01*
X018524Y008950D02*
X018818Y008950D01*
X020680Y010377D02*
X020680Y010377D01*
X026310Y007841D02*
X026426Y007841D01*
X032680Y009109D02*
X032680Y009109D01*
X032680Y009267D02*
X032680Y009267D01*
X032680Y009426D02*
X032680Y009426D01*
X032680Y009584D02*
X032680Y009584D01*
X032680Y009743D02*
X032680Y009743D01*
X010220Y013864D02*
X008957Y013864D01*
X009069Y014022D02*
X010220Y014022D01*
X010162Y014181D02*
X009100Y014181D01*
X009100Y014339D02*
X010004Y014339D01*
X009845Y014498D02*
X009100Y014498D01*
X009100Y014656D02*
X009687Y014656D01*
X009528Y014815D02*
X009087Y014815D01*
M02*
