%
M48
M72
T01C0.0240
T02C0.0320
T03C0.0360
T04C0.0400
%
T01
X8555Y3368
X4930Y4430
X20243Y6743
X29118Y7930
X29493Y4118
T02
X29680Y2680
X28680Y2680
X27680Y2680
X26680Y2680
X25680Y2680
X24680Y2680
X24680Y3680
X23180Y3680
X22180Y3680
X21180Y3680
X20180Y3680
X19180Y3680
X18180Y3680
X17180Y3680
X16180Y3680
X15180Y3680
X14180Y3680
X13180Y3680
X12180Y3680
X11180Y3680
X10180Y3680
X10180Y2680
X9180Y2680
X8180Y2680
X7180Y2680
X6180Y2680
X5180Y2680
X4180Y2680
X3180Y2680
X2180Y2680
X1180Y2680
X1180Y5680
X2180Y5680
X3180Y5680
X4180Y5680
X5180Y5680
X6180Y5680
X7180Y5680
X8180Y5680
X10180Y9680
X11180Y9680
X12180Y9680
X13180Y9680
X14180Y9680
X15180Y9680
X16180Y9680
X17180Y9680
X18180Y9680
X19180Y9680
X20180Y9680
X21180Y9680
X22180Y9680
X23180Y9680
X25180Y10180
X27680Y9680
X30180Y10680
X31680Y10180
X32680Y10180
X30680Y9680
X29680Y8680
X28680Y8680
X27680Y8180
X24680Y8180
X25680Y5680
X26680Y5680
X27680Y5680
X28680Y5680
X29680Y5680
X30680Y5680
X31680Y5680
X32680Y5680
X33680Y5680
X34680Y5680
X37180Y6180
X37180Y7180
X37180Y8180
X37180Y9180
X40180Y9180
X40180Y8180
X40180Y7180
X40180Y6180
X39680Y4680
X38680Y4680
X34680Y2680
X33680Y2680
X32680Y2680
X31680Y2680
X30680Y2680
X38180Y10680
X39180Y10680
X36170Y11180
X34190Y11180
X35180Y12180
X38180Y12180
X39180Y12180
X30180Y11680
X25180Y11180
X23180Y11180
X20180Y11180
X19180Y11680
X18180Y11680
X16180Y11180
X15180Y11180
X13680Y11180
X11630Y11680
X9730Y11680
X7680Y11180
X7680Y12180
X13680Y12180
T03
X27180Y11680
X28180Y11680
X31680Y11680
X32680Y11680
T04
X680Y1180
X1680Y1180
X2680Y1180
X3680Y1180
X4680Y1180
X5680Y1180
X6680Y1180
X7680Y1180
X8680Y1180
X9680Y1180
X10680Y1180
X11680Y1180
X12680Y1180
X13680Y1180
X14680Y1180
X15680Y1180
X16680Y1180
X17680Y1180
X18680Y1180
X19680Y1180
X20680Y1180
X21680Y1180
X22680Y1180
X23680Y1180
X24680Y1180
X25680Y1180
X26680Y1180
X27680Y1180
X28680Y1180
X29680Y1180
X30680Y1180
X31680Y1180
X32680Y1180
X33680Y1180
X34680Y1180
X35680Y1180
X36680Y1180
X37680Y1180
X38680Y1180
X39680Y1180
X35680Y7180
X34680Y7180
X33680Y7180
X32680Y7180
X31680Y7180
X30680Y7180
X29680Y7180
X28680Y7180
X8180Y7680
X7180Y7680
X6180Y7680
X5180Y7680
X4180Y7680
X3180Y7680
X2180Y7680
X1180Y7680
X1180Y8680
X2180Y8680
X3180Y8680
X4180Y8680
X5180Y8680
X6180Y8680
X7180Y8680
X8180Y8680
M30
