G75*
%MOIN*%
%OFA0B0*%
%FSLAX24Y24*%
%IPPOS*%
%LPD*%
%AMOC8*
5,1,8,0,0,1.08239X$1,22.5*
%
%ADD10C,0.0600*%
%ADD11OC8,0.0680*%
%ADD12C,0.0680*%
%ADD13OC8,0.0600*%
%ADD14C,0.0600*%
%ADD15OC8,0.0710*%
%ADD16C,0.0710*%
%ADD17C,0.0640*%
D10*
X001180Y002420D02*
X001180Y002940D01*
X002180Y002940D02*
X002180Y002420D01*
X003180Y002420D02*
X003180Y002940D01*
X004180Y002940D02*
X004180Y002420D01*
X005180Y002420D02*
X005180Y002940D01*
X006180Y002940D02*
X006180Y002420D01*
X007180Y002420D02*
X007180Y002940D01*
X008180Y002940D02*
X008180Y002420D01*
X010180Y003420D02*
X010180Y003940D01*
X011180Y003940D02*
X011180Y003420D01*
X012180Y003420D02*
X012180Y003940D01*
X013180Y003940D02*
X013180Y003420D01*
X014180Y003420D02*
X014180Y003940D01*
X015180Y003940D02*
X015180Y003420D01*
X016180Y003420D02*
X016180Y003940D01*
X017180Y003940D02*
X017180Y003420D01*
X018180Y003420D02*
X018180Y003940D01*
X019180Y003940D02*
X019180Y003420D01*
X020180Y003420D02*
X020180Y003940D01*
X021180Y003940D02*
X021180Y003420D01*
X022180Y003420D02*
X022180Y003940D01*
X023180Y003940D02*
X023180Y003420D01*
X025680Y002940D02*
X025680Y002420D01*
X026680Y002420D02*
X026680Y002940D01*
X027680Y002940D02*
X027680Y002420D01*
X028680Y002420D02*
X028680Y002940D01*
X029680Y002940D02*
X029680Y002420D01*
X030680Y002420D02*
X030680Y002940D01*
X031680Y002940D02*
X031680Y002420D01*
X032680Y002420D02*
X032680Y002940D01*
X033680Y002940D02*
X033680Y002420D01*
X034680Y002420D02*
X034680Y002940D01*
X034680Y005420D02*
X034680Y005940D01*
X033680Y005940D02*
X033680Y005420D01*
X032680Y005420D02*
X032680Y005940D01*
X031680Y005940D02*
X031680Y005420D01*
X030680Y005420D02*
X030680Y005940D01*
X029680Y005940D02*
X029680Y005420D01*
X028680Y005420D02*
X028680Y005940D01*
X027680Y005940D02*
X027680Y005420D01*
X026680Y005420D02*
X026680Y005940D01*
X025680Y005940D02*
X025680Y005420D01*
X023180Y009420D02*
X023180Y009940D01*
X022180Y009940D02*
X022180Y009420D01*
X021180Y009420D02*
X021180Y009940D01*
X020180Y009940D02*
X020180Y009420D01*
X019180Y009420D02*
X019180Y009940D01*
X018180Y009940D02*
X018180Y009420D01*
X017180Y009420D02*
X017180Y009940D01*
X016180Y009940D02*
X016180Y009420D01*
X015180Y009420D02*
X015180Y009940D01*
X014180Y009940D02*
X014180Y009420D01*
X013180Y009420D02*
X013180Y009940D01*
X012180Y009940D02*
X012180Y009420D01*
X011180Y009420D02*
X011180Y009940D01*
X010180Y009940D02*
X010180Y009420D01*
X008180Y005940D02*
X008180Y005420D01*
X007180Y005420D02*
X007180Y005940D01*
X006180Y005940D02*
X006180Y005420D01*
X005180Y005420D02*
X005180Y005940D01*
X004180Y005940D02*
X004180Y005420D01*
X003180Y005420D02*
X003180Y005940D01*
X002180Y005940D02*
X002180Y005420D01*
X001180Y005420D02*
X001180Y005940D01*
D11*
X001180Y007680D03*
X002180Y007680D03*
X003180Y007680D03*
X004180Y007680D03*
X005180Y007680D03*
X006180Y007680D03*
X007180Y007680D03*
X008180Y007680D03*
X008180Y008680D03*
X007180Y008680D03*
X006180Y008680D03*
X005180Y008680D03*
X004180Y008680D03*
X003180Y008680D03*
X002180Y008680D03*
X001180Y008680D03*
D12*
X000680Y001480D02*
X000680Y000880D01*
X001680Y000880D02*
X001680Y001480D01*
X002680Y001480D02*
X002680Y000880D01*
X003680Y000880D02*
X003680Y001480D01*
X004680Y001480D02*
X004680Y000880D01*
X005680Y000880D02*
X005680Y001480D01*
X006680Y001480D02*
X006680Y000880D01*
X007680Y000880D02*
X007680Y001480D01*
X008680Y001480D02*
X008680Y000880D01*
X009680Y000880D02*
X009680Y001480D01*
X010680Y001480D02*
X010680Y000880D01*
X011680Y000880D02*
X011680Y001480D01*
X012680Y001480D02*
X012680Y000880D01*
X013680Y000880D02*
X013680Y001480D01*
X014680Y001480D02*
X014680Y000880D01*
X015680Y000880D02*
X015680Y001480D01*
X016680Y001480D02*
X016680Y000880D01*
X017680Y000880D02*
X017680Y001480D01*
X018680Y001480D02*
X018680Y000880D01*
X019680Y000880D02*
X019680Y001480D01*
X020680Y001480D02*
X020680Y000880D01*
X021680Y000880D02*
X021680Y001480D01*
X022680Y001480D02*
X022680Y000880D01*
X023680Y000880D02*
X023680Y001480D01*
X024680Y001480D02*
X024680Y000880D01*
X025680Y000880D02*
X025680Y001480D01*
X026680Y001480D02*
X026680Y000880D01*
X027680Y000880D02*
X027680Y001480D01*
X028680Y001480D02*
X028680Y000880D01*
X029680Y000880D02*
X029680Y001480D01*
X030680Y001480D02*
X030680Y000880D01*
X031680Y000880D02*
X031680Y001480D01*
X032680Y001480D02*
X032680Y000880D01*
X033680Y000880D02*
X033680Y001480D01*
X034680Y001480D02*
X034680Y000880D01*
X035680Y000880D02*
X035680Y001480D01*
X036680Y001480D02*
X036680Y000880D01*
X037680Y000880D02*
X037680Y001480D01*
X038680Y001480D02*
X038680Y000880D01*
X039680Y000880D02*
X039680Y001480D01*
X035680Y006880D02*
X035680Y007480D01*
X034680Y007480D02*
X034680Y006880D01*
X033680Y006880D02*
X033680Y007480D01*
X032680Y007480D02*
X032680Y006880D01*
X031680Y006880D02*
X031680Y007480D01*
X030680Y007480D02*
X030680Y006880D01*
X029680Y006880D02*
X029680Y007480D01*
X028680Y007480D02*
X028680Y006880D01*
D13*
X027680Y008180D03*
X028680Y008680D03*
X029680Y008680D03*
X030680Y009680D03*
X031680Y010180D03*
X032680Y010180D03*
X030180Y010680D03*
X027680Y009680D03*
X024680Y008180D03*
X023180Y011180D03*
X020180Y011180D03*
X019180Y011680D03*
X018180Y011680D03*
X016180Y011180D03*
X015180Y011180D03*
X013680Y011180D03*
X013680Y012180D03*
X007680Y012180D03*
X007680Y011180D03*
X030180Y011680D03*
X034190Y011180D03*
X036170Y011180D03*
X038180Y010680D03*
X039180Y010680D03*
X039180Y012180D03*
X038180Y012180D03*
X035180Y012180D03*
X038680Y004680D03*
X039680Y004680D03*
X024680Y003680D03*
X024680Y002680D03*
X010180Y002680D03*
X009180Y002680D03*
D14*
X009730Y011680D03*
X011630Y011680D03*
X037180Y009180D03*
X037180Y008180D03*
X037180Y007180D03*
X037180Y006180D03*
X040180Y006180D03*
X040180Y007180D03*
X040180Y008180D03*
X040180Y009180D03*
D15*
X025180Y010180D03*
D16*
X025180Y011180D03*
D17*
X027180Y011400D02*
X027180Y011960D01*
X028180Y011960D02*
X028180Y011400D01*
X031680Y011400D02*
X031680Y011960D01*
X032680Y011960D02*
X032680Y011400D01*
M02*
