G75*
%MOIN*%
%OFA0B0*%
%FSLAX24Y24*%
%IPPOS*%
%LPD*%
%AMOC8*
5,1,8,0,0,1.08239X$1,22.5*
%
%ADD10C,0.1330*%
%ADD11C,0.0640*%
%ADD12OC8,0.0640*%
%ADD13OC8,0.0710*%
%ADD14C,0.0710*%
%ADD15C,0.0820*%
%ADD16C,0.0720*%
%ADD17C,0.0596*%
%ADD18C,0.0680*%
%ADD19C,0.0760*%
%ADD20OC8,0.0720*%
%ADD21OC8,0.0930*%
%ADD22C,0.1830*%
%ADD23C,0.1580*%
%ADD24C,0.0674*%
%ADD25C,0.1576*%
%ADD26C,0.0965*%
D10*
X001180Y002180D03*
X005680Y020680D03*
X001180Y024680D03*
X001180Y029180D03*
X019180Y029180D03*
X019180Y002180D03*
D11*
X012180Y008900D02*
X012180Y009460D01*
X011180Y009460D02*
X011180Y008900D01*
X010180Y008900D02*
X010180Y009460D01*
X009180Y009460D02*
X009180Y008900D01*
X008180Y008900D02*
X008180Y009460D01*
X007180Y009460D02*
X007180Y008900D01*
X006180Y008900D02*
X006180Y009460D01*
X005180Y009460D02*
X005180Y008900D01*
X005180Y011900D02*
X005180Y012460D01*
X006180Y012460D02*
X006180Y011900D01*
X007180Y011900D02*
X007180Y012460D01*
X008180Y012460D02*
X008180Y011900D01*
X009180Y011900D02*
X009180Y012460D01*
X010180Y012460D02*
X010180Y011900D01*
X011180Y011900D02*
X011180Y012460D01*
X012180Y012460D02*
X012180Y011900D01*
X013180Y012900D02*
X013180Y013460D01*
X013180Y015900D02*
X013180Y016460D01*
X006960Y026180D02*
X006400Y026180D01*
X006400Y027180D02*
X006960Y027180D01*
X006960Y028180D02*
X006400Y028180D01*
X006400Y029180D02*
X006960Y029180D01*
X003960Y029180D02*
X003400Y029180D01*
X003400Y028180D02*
X003960Y028180D01*
X003960Y027180D02*
X003400Y027180D01*
X003400Y026180D02*
X003960Y026180D01*
D12*
X007680Y028180D03*
X007680Y029180D03*
X013180Y027680D03*
X013180Y026680D03*
X014180Y016180D03*
X014180Y013180D03*
X014180Y012180D03*
X013180Y012180D03*
X015180Y012180D03*
X015180Y009180D03*
X014180Y009180D03*
X013680Y008180D03*
X013180Y009180D03*
X010680Y008180D03*
X009680Y007680D03*
X009680Y006680D03*
X008670Y006680D03*
X007680Y007680D03*
X006690Y006680D03*
X006680Y004180D03*
X009680Y004180D03*
X003680Y009180D03*
X002180Y009180D03*
X001180Y009180D03*
X001180Y012180D03*
X002180Y012180D03*
X003680Y012180D03*
X009180Y013180D03*
X010180Y013180D03*
X016180Y009180D03*
X017180Y009180D03*
D13*
X011480Y005180D03*
X010680Y023180D03*
X011680Y027680D03*
X014680Y026680D03*
X006180Y024680D03*
X003680Y024680D03*
X001680Y026680D03*
D14*
X001680Y027680D03*
X002680Y024680D03*
X007180Y024680D03*
X010680Y022180D03*
X010680Y027680D03*
X015680Y026680D03*
X012880Y005180D03*
D15*
X011680Y014430D03*
X012180Y015180D03*
X011180Y015180D03*
D16*
X006680Y015000D02*
X006680Y014360D01*
X005680Y014360D02*
X005680Y015000D01*
X004680Y015000D02*
X004680Y014360D01*
X006680Y006000D02*
X006680Y005360D01*
X007680Y005360D02*
X007680Y006000D01*
X008680Y006000D02*
X008680Y005360D01*
X008180Y003000D02*
X008180Y002360D01*
X009180Y002360D02*
X009180Y003000D01*
X010180Y003000D02*
X010180Y002360D01*
X013180Y002360D02*
X013180Y003000D01*
X014180Y003000D02*
X014180Y002360D01*
X015180Y002360D02*
X015180Y003000D01*
X016180Y003000D02*
X016180Y002360D01*
X016180Y029360D02*
X016180Y030000D01*
X015180Y030000D02*
X015180Y029360D01*
X014180Y029360D02*
X014180Y030000D01*
X013180Y030000D02*
X013180Y029360D01*
X012180Y029360D02*
X012180Y030000D01*
X011180Y030000D02*
X011180Y029360D01*
X010180Y029360D02*
X010180Y030000D01*
X017180Y030000D02*
X017180Y029360D01*
D17*
X017196Y025938D02*
X017196Y025422D01*
X019164Y025422D02*
X019164Y025938D01*
X019164Y021938D02*
X019164Y021422D01*
X017196Y021422D02*
X017196Y021938D01*
X011164Y018438D02*
X011164Y017922D01*
X009196Y017922D02*
X009196Y018438D01*
D18*
X011180Y002980D02*
X011180Y002380D01*
X012180Y002380D02*
X012180Y002980D01*
D19*
X007680Y022680D03*
X008180Y025180D03*
X007680Y026180D03*
X003680Y022680D03*
X011680Y026180D03*
X012180Y025180D03*
D20*
X001680Y021130D03*
X001680Y015230D03*
D21*
X001680Y013680D03*
X001680Y022680D03*
D22*
X003480Y006200D03*
X014960Y005180D03*
D23*
X016180Y007070D03*
X017361Y005180D03*
X005370Y004980D03*
X003480Y003799D03*
D24*
X016841Y010076D02*
X016841Y010670D01*
X017511Y011111D02*
X017511Y011706D01*
X018180Y010670D02*
X018180Y010076D01*
X018849Y011111D02*
X018849Y011706D01*
X019519Y010670D02*
X019519Y010076D01*
D25*
X018180Y017578D03*
D26*
X014180Y017238D02*
X014180Y018123D01*
X014180Y023238D02*
X014180Y024123D01*
M02*
