%
M48
M72
T01C0.0230
T02C0.0276
T03C0.0320
T04C0.0354
T05C0.0360
T06C0.0400
T07C0.0440
T08C0.0520
T09C0.0590
T10C0.0900
T11C0.1250
T12C0.1496
%
T01
X1930Y3430
X3430Y2180
X6180Y2680
X3680Y10430
X3430Y15430
X2930Y15930
X11680Y10430
T02
X11164Y18180
X9196Y18180
X17196Y21680
X19164Y21680
X19164Y25680
X17196Y25680
T03
X15680Y26680
X14680Y26680
X13180Y26680
X13180Y27680
X11680Y27680
X10680Y27680
X10680Y23180
X10680Y22180
X7180Y24680
X6180Y24680
X6680Y26180
X6680Y27180
X6680Y28180
X6680Y29180
X7680Y29180
X7680Y28180
X3680Y28180
X3680Y27180
X3680Y26180
X3680Y24680
X2680Y24680
X1680Y26680
X1680Y27680
X3680Y29180
X11180Y15180
X11680Y14430
X12180Y15180
X13180Y16180
X14180Y16180
X14180Y13180
X14180Y12180
X13180Y12180
X13180Y13180
X12180Y12180
X11180Y12180
X10180Y12180
X10180Y13180
X9180Y13180
X9180Y12180
X8180Y12180
X7180Y12180
X6180Y12180
X5180Y12180
X3680Y12180
X2180Y12180
X1180Y12180
X1180Y9180
X2180Y9180
X3680Y9180
X5180Y9180
X6180Y9180
X7180Y9180
X8180Y9180
X9180Y9180
X10180Y9180
X10680Y8180
X11180Y9180
X12180Y9180
X13180Y9180
X13680Y8180
X14180Y9180
X15180Y9180
X16180Y9180
X17180Y9180
X15180Y12180
X12880Y5180
X11480Y5180
X9680Y4180
X9680Y6680
X9680Y7680
X8670Y6680
X7680Y7680
X6690Y6680
X6680Y4180
T04
X16841Y10373
X17511Y11408
X18180Y10373
X18849Y11408
X19519Y10373
T05
X12180Y2680
X11180Y2680
T06
X10180Y2680
X9180Y2680
X8180Y2680
X7680Y5680
X6680Y5680
X8680Y5680
X13180Y2680
X14180Y2680
X15180Y2680
X16180Y2680
X6680Y14680
X5680Y14680
X4680Y14680
X1680Y15230
X1680Y21130
X10180Y29680
X11180Y29680
X12180Y29680
X13180Y29680
X14180Y29680
X15180Y29680
X16180Y29680
X17180Y29680
T07
X12180Y25180
X11680Y26180
X8180Y25180
X7680Y26180
X7680Y22680
X3680Y22680
T08
X1680Y22680
X1680Y13680
T09
X14180Y17680
X14180Y23680
T10
X16180Y7070
X17361Y5180
X5370Y4980
X3480Y3799
T11
X1180Y2180
X3480Y6200
X5680Y20680
X1180Y24680
X1180Y29180
X14960Y5180
X19180Y2180
X19180Y29180
T12
X18180Y17578
M30
