G75*
%MOIN*%
%OFA0B0*%
%FSLAX24Y24*%
%IPPOS*%
%LPD*%
%AMOC8*
5,1,8,0,0,1.08239X$1,22.5*
%
%ADD10C,0.0560*%
%ADD11OC8,0.0560*%
%ADD12OC8,0.0630*%
%ADD13C,0.0630*%
%ADD14C,0.0740*%
%ADD15C,0.0640*%
%ADD16C,0.0516*%
%ADD17C,0.0600*%
%ADD18C,0.0680*%
%ADD19OC8,0.0640*%
%ADD20OC8,0.0850*%
%ADD21C,0.1750*%
%ADD22C,0.1500*%
%ADD23C,0.0594*%
%ADD24C,0.0885*%
%ADD25C,0.0300*%
%ADD26C,0.0390*%
%ADD27C,0.0160*%
D10*
X005180Y008900D02*
X005180Y009460D01*
X006180Y009460D02*
X006180Y008900D01*
X007180Y008900D02*
X007180Y009460D01*
X008180Y009460D02*
X008180Y008900D01*
X009180Y008900D02*
X009180Y009460D01*
X010180Y009460D02*
X010180Y008900D01*
X011180Y008900D02*
X011180Y009460D01*
X012180Y009460D02*
X012180Y008900D01*
X012180Y011900D02*
X012180Y012460D01*
X011180Y012460D02*
X011180Y011900D01*
X010180Y011900D02*
X010180Y012460D01*
X009180Y012460D02*
X009180Y011900D01*
X008180Y011900D02*
X008180Y012460D01*
X007180Y012460D02*
X007180Y011900D01*
X006180Y011900D02*
X006180Y012460D01*
X005180Y012460D02*
X005180Y011900D01*
X013180Y012900D02*
X013180Y013460D01*
X013180Y015900D02*
X013180Y016460D01*
X006960Y026180D02*
X006400Y026180D01*
X006400Y027180D02*
X006960Y027180D01*
X006960Y028180D02*
X006400Y028180D01*
X006400Y029180D02*
X006960Y029180D01*
X003960Y029180D02*
X003400Y029180D01*
X003400Y028180D02*
X003960Y028180D01*
X003960Y027180D02*
X003400Y027180D01*
X003400Y026180D02*
X003960Y026180D01*
D11*
X007680Y028180D03*
X007680Y029180D03*
X013180Y027680D03*
X013180Y026680D03*
X014180Y016180D03*
X014180Y013180D03*
X014180Y012180D03*
X013180Y012180D03*
X015180Y012180D03*
X015180Y009180D03*
X014180Y009180D03*
X013680Y008180D03*
X013180Y009180D03*
X010680Y008180D03*
X009680Y007680D03*
X009680Y006680D03*
X008670Y006680D03*
X007680Y007680D03*
X006690Y006680D03*
X006680Y004180D03*
X009680Y004180D03*
X003680Y009180D03*
X002180Y009180D03*
X001180Y009180D03*
X001180Y012180D03*
X002180Y012180D03*
X003680Y012180D03*
X009180Y013180D03*
X010180Y013180D03*
X016180Y009180D03*
X017180Y009180D03*
D12*
X011480Y005180D03*
X010680Y023180D03*
X011680Y027680D03*
X014680Y026680D03*
X006180Y024680D03*
X003680Y024680D03*
X001680Y026680D03*
D13*
X001680Y027680D03*
X002680Y024680D03*
X007180Y024680D03*
X010680Y022180D03*
X010680Y027680D03*
X015680Y026680D03*
X012880Y005180D03*
D14*
X011680Y014430D03*
X012180Y015180D03*
X011180Y015180D03*
D15*
X006680Y015000D02*
X006680Y014360D01*
X005680Y014360D02*
X005680Y015000D01*
X004680Y015000D02*
X004680Y014360D01*
X006680Y006000D02*
X006680Y005360D01*
X007680Y005360D02*
X007680Y006000D01*
X008680Y006000D02*
X008680Y005360D01*
X008180Y003000D02*
X008180Y002360D01*
X009180Y002360D02*
X009180Y003000D01*
X010180Y003000D02*
X010180Y002360D01*
X013180Y002360D02*
X013180Y003000D01*
X014180Y003000D02*
X014180Y002360D01*
X015180Y002360D02*
X015180Y003000D01*
X016180Y003000D02*
X016180Y002360D01*
X016180Y029360D02*
X016180Y030000D01*
X015180Y030000D02*
X015180Y029360D01*
X014180Y029360D02*
X014180Y030000D01*
X013180Y030000D02*
X013180Y029360D01*
X012180Y029360D02*
X012180Y030000D01*
X011180Y030000D02*
X011180Y029360D01*
X010180Y029360D02*
X010180Y030000D01*
X017180Y030000D02*
X017180Y029360D01*
D16*
X017196Y025938D02*
X017196Y025422D01*
X019164Y025422D02*
X019164Y025938D01*
X019164Y021938D02*
X019164Y021422D01*
X017196Y021422D02*
X017196Y021938D01*
X011164Y018438D02*
X011164Y017922D01*
X009196Y017922D02*
X009196Y018438D01*
D17*
X011180Y002980D02*
X011180Y002380D01*
X012180Y002380D02*
X012180Y002980D01*
D18*
X007680Y022680D03*
X008180Y025180D03*
X007680Y026180D03*
X003680Y022680D03*
X011680Y026180D03*
X012180Y025180D03*
D19*
X001680Y021130D03*
X001680Y015230D03*
D20*
X001680Y013680D03*
X001680Y022680D03*
D21*
X003480Y006200D03*
X014960Y005180D03*
D22*
X016180Y007070D03*
X017361Y005180D03*
X005370Y004980D03*
X003480Y003799D03*
D23*
X016841Y010076D02*
X016841Y010670D01*
X017511Y011111D02*
X017511Y011706D01*
X018180Y010670D02*
X018180Y010076D01*
X018849Y011111D02*
X018849Y011706D01*
X019519Y010670D02*
X019519Y010076D01*
D24*
X014180Y017238D02*
X014180Y018123D01*
X014180Y023238D02*
X014180Y024123D01*
D25*
X012680Y024180D02*
X014180Y025680D01*
X013180Y025680D01*
X011930Y026930D01*
X011180Y026930D01*
X010930Y026680D01*
X010430Y026680D01*
X008180Y028930D01*
X007930Y028930D01*
X007680Y029180D01*
X008180Y025180D02*
X008180Y024430D01*
X007930Y024180D01*
X009680Y024180D01*
X011680Y026180D01*
X013180Y027680D02*
X017180Y027680D01*
X017180Y029680D01*
X017196Y025680D02*
X014180Y025680D01*
X012680Y024180D02*
X010430Y024180D01*
X009930Y023680D01*
X009680Y023680D01*
X009680Y022680D01*
X002930Y015930D01*
X003430Y015430D02*
X009680Y021680D01*
X010930Y020430D01*
X017680Y020430D01*
X018930Y021680D01*
X019164Y021680D01*
X013180Y016180D02*
X005180Y016180D01*
X004930Y015930D01*
X004680Y015930D01*
X004680Y014680D01*
X006180Y012180D02*
X006180Y011680D01*
X005430Y010930D01*
X003430Y010930D01*
X002180Y012180D01*
X003430Y010430D02*
X003680Y010430D01*
X005430Y010430D01*
X006180Y009680D01*
X006180Y009180D01*
X007180Y008680D02*
X006430Y007930D01*
X004930Y007930D01*
X003680Y009180D01*
X003430Y010430D02*
X002180Y009180D01*
X001180Y009180D02*
X001180Y007680D01*
X004430Y007680D01*
X004680Y007430D01*
X006930Y007430D01*
X007430Y006930D01*
X008180Y006930D01*
X008430Y006680D01*
X008670Y006680D01*
X010430Y006180D02*
X008680Y004430D01*
X008180Y004430D01*
X008180Y002680D01*
X006180Y002680D01*
X003430Y002180D02*
X003180Y002430D01*
X002930Y002430D01*
X001930Y003430D01*
X007180Y008680D02*
X007180Y009180D01*
X010430Y006180D02*
X011680Y006180D01*
X012680Y005180D01*
X012880Y005180D01*
X014180Y009180D02*
X014180Y010430D01*
X011680Y010430D01*
X015180Y012180D02*
X015430Y012430D01*
X017680Y012430D01*
X018680Y011430D01*
X018849Y011408D01*
X010680Y022180D02*
X010180Y022180D01*
X009680Y021680D01*
X007430Y023680D02*
X007930Y024180D01*
X007430Y023680D02*
X005930Y023680D01*
X005430Y024180D01*
X004430Y024180D01*
X004180Y024430D01*
X003930Y024430D01*
X003680Y024680D01*
D26*
X002930Y015930D03*
X003430Y015430D03*
X003680Y010430D03*
X001930Y003430D03*
X003430Y002180D03*
X006180Y002680D03*
X011680Y010430D03*
D27*
X002024Y001532D02*
X001902Y001410D01*
X018458Y001410D01*
X018336Y001532D01*
X018197Y001773D01*
X018125Y002041D01*
X018125Y002319D01*
X018197Y002587D01*
X018336Y002828D01*
X018532Y003024D01*
X018773Y003163D01*
X019041Y003235D01*
X019319Y003235D01*
X019587Y003163D01*
X019750Y003069D01*
X019750Y009658D01*
X019702Y009634D01*
X019630Y009610D01*
X019556Y009599D01*
X019527Y009599D01*
X019527Y010364D01*
X019510Y010364D01*
X019510Y009599D01*
X019481Y009599D01*
X019407Y009610D01*
X019335Y009634D01*
X019268Y009668D01*
X019208Y009712D01*
X019155Y009765D01*
X019110Y009826D01*
X019076Y009893D01*
X019053Y009964D01*
X019041Y010038D01*
X019041Y010364D01*
X019510Y010364D01*
X019510Y010381D01*
X019041Y010381D01*
X019041Y010653D01*
X018948Y010614D01*
X018750Y010614D01*
X018657Y010653D01*
X018657Y010381D01*
X018189Y010381D01*
X018189Y010364D01*
X018657Y010364D01*
X018657Y010038D01*
X018645Y009964D01*
X018622Y009893D01*
X018588Y009826D01*
X018544Y009765D01*
X018491Y009712D01*
X018430Y009668D01*
X018363Y009634D01*
X018292Y009610D01*
X018218Y009599D01*
X018189Y009599D01*
X018189Y010364D01*
X018171Y010364D01*
X018171Y009599D01*
X018142Y009599D01*
X018068Y009610D01*
X017997Y009634D01*
X017930Y009668D01*
X017869Y009712D01*
X017816Y009765D01*
X017772Y009826D01*
X017738Y009893D01*
X017715Y009964D01*
X017703Y010038D01*
X017703Y010364D01*
X018171Y010364D01*
X018171Y010381D01*
X017703Y010381D01*
X017703Y010653D01*
X017610Y010614D01*
X017412Y010614D01*
X017339Y010644D01*
X017339Y009977D01*
X017263Y009794D01*
X017129Y009660D01*
X017379Y009660D01*
X017660Y009379D01*
X017660Y008981D01*
X017379Y008700D01*
X016981Y008700D01*
X016700Y008981D01*
X016700Y009379D01*
X016900Y009579D01*
X016743Y009579D01*
X016560Y009654D01*
X016420Y009794D01*
X016344Y009977D01*
X016344Y010769D01*
X016420Y010952D01*
X016560Y011092D01*
X016743Y011167D01*
X016940Y011167D01*
X017014Y011137D01*
X017014Y011804D01*
X017089Y011987D01*
X017182Y012080D01*
X015660Y012080D01*
X015660Y011981D01*
X015379Y011700D01*
X014981Y011700D01*
X014700Y011981D01*
X014700Y012379D01*
X014981Y012660D01*
X015165Y012660D01*
X015232Y012727D01*
X015360Y012780D01*
X017750Y012780D01*
X017878Y012727D01*
X017977Y012628D01*
X018523Y012082D01*
X018568Y012127D01*
X018750Y012203D01*
X018948Y012203D01*
X019131Y012127D01*
X019271Y011987D01*
X019346Y011804D01*
X019346Y011116D01*
X019407Y011135D01*
X019481Y011147D01*
X019510Y011147D01*
X019510Y010382D01*
X019527Y010382D01*
X019527Y011147D01*
X019556Y011147D01*
X019630Y011135D01*
X019702Y011112D01*
X019750Y011088D01*
X019750Y028291D01*
X019587Y028197D01*
X019319Y028125D01*
X019041Y028125D01*
X018773Y028197D01*
X018532Y028336D01*
X018336Y028532D01*
X018197Y028773D01*
X018125Y029041D01*
X018125Y029319D01*
X018197Y029587D01*
X018336Y029828D01*
X018458Y029950D01*
X017700Y029950D01*
X017700Y029257D01*
X017621Y029065D01*
X017530Y028975D01*
X017530Y027610D01*
X017477Y027482D01*
X017378Y027383D01*
X017250Y027330D01*
X013509Y027330D01*
X013379Y027200D01*
X012981Y027200D01*
X012700Y027481D01*
X012700Y027879D01*
X012981Y028160D01*
X013379Y028160D01*
X013509Y028030D01*
X016830Y028030D01*
X016830Y028975D01*
X016739Y029065D01*
X016680Y029208D01*
X016621Y029065D01*
X016475Y028919D01*
X016283Y028840D01*
X016077Y028840D01*
X015885Y028919D01*
X015739Y029065D01*
X015680Y029208D01*
X015621Y029065D01*
X015475Y028919D01*
X015283Y028840D01*
X015077Y028840D01*
X014885Y028919D01*
X014739Y029065D01*
X014667Y029240D01*
X014643Y029168D01*
X014608Y029098D01*
X014561Y029034D01*
X014506Y028979D01*
X014442Y028932D01*
X014372Y028897D01*
X014297Y028872D01*
X014219Y028860D01*
X014200Y028860D01*
X014200Y029660D01*
X014160Y029660D01*
X014160Y028860D01*
X014141Y028860D01*
X014063Y028872D01*
X013988Y028897D01*
X013918Y028932D01*
X013854Y028979D01*
X013799Y029034D01*
X013752Y029098D01*
X013717Y029168D01*
X013692Y029243D01*
X013680Y029321D01*
X013680Y029660D01*
X014160Y029660D01*
X014160Y029700D01*
X013680Y029700D01*
X013680Y029950D01*
X013680Y029950D01*
X013680Y029700D01*
X013200Y029700D01*
X013200Y029660D01*
X013680Y029660D01*
X013680Y029321D01*
X013668Y029243D01*
X013643Y029168D01*
X013608Y029098D01*
X013561Y029034D01*
X013506Y028979D01*
X013442Y028932D01*
X013372Y028897D01*
X013297Y028872D01*
X013219Y028860D01*
X013200Y028860D01*
X013200Y029660D01*
X013160Y029660D01*
X013160Y028860D01*
X013141Y028860D01*
X013063Y028872D01*
X012988Y028897D01*
X012918Y028932D01*
X012854Y028979D01*
X012799Y029034D01*
X012752Y029098D01*
X012717Y029168D01*
X012692Y029243D01*
X012680Y029321D01*
X012680Y029660D01*
X013160Y029660D01*
X013160Y029700D01*
X012680Y029700D01*
X012680Y029950D01*
X012680Y029950D01*
X012680Y029700D01*
X012200Y029700D01*
X012200Y029660D01*
X012680Y029660D01*
X012680Y029321D01*
X012668Y029243D01*
X012643Y029168D01*
X012608Y029098D01*
X012561Y029034D01*
X012506Y028979D01*
X012442Y028932D01*
X012372Y028897D01*
X012297Y028872D01*
X012219Y028860D01*
X012200Y028860D01*
X012200Y029660D01*
X012160Y029660D01*
X012160Y028860D01*
X012141Y028860D01*
X012063Y028872D01*
X011988Y028897D01*
X011918Y028932D01*
X011854Y028979D01*
X011799Y029034D01*
X011752Y029098D01*
X011717Y029168D01*
X011693Y029240D01*
X011621Y029065D01*
X011475Y028919D01*
X011283Y028840D01*
X011077Y028840D01*
X010885Y028919D01*
X010870Y028935D01*
X010858Y028907D01*
X010633Y028682D01*
X010339Y028560D01*
X010021Y028560D01*
X009727Y028682D01*
X009502Y028907D01*
X009380Y029201D01*
X009380Y029950D01*
X001902Y029950D01*
X002024Y029828D01*
X002163Y029587D01*
X002235Y029319D01*
X002235Y029041D01*
X002163Y028773D01*
X002024Y028532D01*
X001828Y028336D01*
X001587Y028197D01*
X001580Y028195D01*
X001782Y028195D01*
X001972Y028117D01*
X002117Y027972D01*
X002195Y027782D01*
X002195Y027578D01*
X002117Y027388D01*
X001972Y027243D01*
X001855Y027195D01*
X001893Y027195D01*
X002195Y026893D01*
X002195Y026467D01*
X001893Y026165D01*
X001467Y026165D01*
X001165Y026467D01*
X001165Y026893D01*
X001467Y027195D01*
X001505Y027195D01*
X001388Y027243D01*
X001243Y027388D01*
X001165Y027578D01*
X001165Y027782D01*
X001243Y027972D01*
X001388Y028117D01*
X001573Y028193D01*
X001319Y028125D01*
X001041Y028125D01*
X000773Y028197D01*
X000610Y028291D01*
X000610Y025569D01*
X000773Y025663D01*
X001041Y025735D01*
X001319Y025735D01*
X001587Y025663D01*
X001828Y025524D01*
X002024Y025328D01*
X002163Y025087D01*
X002213Y024899D01*
X002243Y024972D01*
X002388Y025117D01*
X002578Y025195D01*
X002782Y025195D01*
X002972Y025117D01*
X003117Y024972D01*
X003165Y024855D01*
X003165Y024893D01*
X003467Y025195D01*
X003893Y025195D01*
X004195Y024893D01*
X004195Y024780D01*
X004250Y024780D01*
X004378Y024727D01*
X004575Y024530D01*
X005500Y024530D01*
X005628Y024477D01*
X006075Y024030D01*
X007285Y024030D01*
X007633Y024378D01*
X007732Y024477D01*
X007830Y024575D01*
X007830Y024766D01*
X007722Y024874D01*
X007640Y025073D01*
X007640Y025287D01*
X007722Y025486D01*
X007874Y025638D01*
X008073Y025720D01*
X008287Y025720D01*
X008486Y025638D01*
X008638Y025486D01*
X008720Y025287D01*
X008720Y025073D01*
X008638Y024874D01*
X008530Y024766D01*
X008530Y024530D01*
X009535Y024530D01*
X011140Y026135D01*
X011140Y026287D01*
X011216Y026471D01*
X011128Y026383D01*
X011000Y026330D01*
X010360Y026330D01*
X010232Y026383D01*
X010133Y026482D01*
X008035Y028580D01*
X007931Y028580D01*
X008140Y028371D01*
X008140Y028180D01*
X007680Y028180D01*
X007680Y028180D01*
X007680Y028180D01*
X007680Y028640D01*
X007725Y028640D01*
X007665Y028700D01*
X007481Y028700D01*
X007320Y028861D01*
X007232Y028773D01*
X007055Y028700D01*
X006305Y028700D01*
X006128Y028773D01*
X005993Y028908D01*
X005920Y029085D01*
X005920Y029275D01*
X005993Y029452D01*
X006128Y029587D01*
X006305Y029660D01*
X007055Y029660D01*
X007232Y029587D01*
X007320Y029499D01*
X007481Y029660D01*
X007879Y029660D01*
X008160Y029379D01*
X008160Y029280D01*
X008250Y029280D01*
X008378Y029227D01*
X010575Y027030D01*
X010785Y027030D01*
X010883Y027128D01*
X010982Y027227D01*
X011110Y027280D01*
X011352Y027280D01*
X011165Y027467D01*
X011165Y027578D01*
X011163Y027564D01*
X011139Y027490D01*
X011103Y027421D01*
X011058Y027358D01*
X011002Y027302D01*
X010939Y027257D01*
X010870Y027221D01*
X010796Y027197D01*
X010719Y027185D01*
X010680Y027185D01*
X010680Y027680D01*
X010680Y027680D01*
X010680Y028175D01*
X010719Y028175D01*
X010796Y028163D01*
X010870Y028139D01*
X010939Y028103D01*
X011002Y028058D01*
X011058Y028002D01*
X011103Y027939D01*
X011139Y027870D01*
X011163Y027796D01*
X011165Y027782D01*
X011165Y027893D01*
X011467Y028195D01*
X011893Y028195D01*
X012195Y027893D01*
X012195Y027467D01*
X012006Y027277D01*
X012128Y027227D01*
X012720Y026635D01*
X012720Y026680D01*
X013180Y026680D01*
X013180Y026680D01*
X013180Y027140D01*
X013371Y027140D01*
X013640Y026871D01*
X013640Y026680D01*
X013180Y026680D01*
X013180Y026680D01*
X013180Y026680D01*
X013180Y027140D01*
X012989Y027140D01*
X012720Y026871D01*
X012720Y026680D01*
X013180Y026680D01*
X013640Y026680D01*
X013640Y026489D01*
X013371Y026220D01*
X013180Y026220D01*
X013180Y026680D01*
X013180Y026680D01*
X013180Y026220D01*
X013135Y026220D01*
X013325Y026030D01*
X016738Y026030D01*
X016808Y026197D01*
X016936Y026326D01*
X017105Y026396D01*
X017287Y026396D01*
X017455Y026326D01*
X017584Y026197D01*
X017654Y026029D01*
X017654Y025331D01*
X017584Y025163D01*
X017455Y025034D01*
X017287Y024964D01*
X017105Y024964D01*
X016936Y025034D01*
X016808Y025163D01*
X016738Y025330D01*
X014325Y025330D01*
X012977Y023982D01*
X012977Y023982D01*
X012878Y023883D01*
X012750Y023830D01*
X010575Y023830D01*
X010128Y023383D01*
X010030Y023343D01*
X010030Y022610D01*
X009977Y022482D01*
X009878Y022383D01*
X003310Y015815D01*
X003306Y015806D01*
X003315Y015810D01*
X009482Y021977D01*
X009883Y022378D01*
X009982Y022477D01*
X010110Y022530D01*
X010302Y022530D01*
X010388Y022617D01*
X010553Y022685D01*
X010475Y022685D01*
X010185Y022975D01*
X010185Y023180D01*
X010680Y023180D01*
X010680Y023180D01*
X010680Y023675D01*
X010885Y023675D01*
X011175Y023385D01*
X011175Y023180D01*
X010680Y023180D01*
X010680Y023180D01*
X010680Y023180D01*
X010680Y023675D01*
X010475Y023675D01*
X010185Y023385D01*
X010185Y023180D01*
X010680Y023180D01*
X011175Y023180D01*
X011175Y022975D01*
X010885Y022685D01*
X010807Y022685D01*
X010972Y022617D01*
X011117Y022472D01*
X011195Y022282D01*
X011195Y022078D01*
X011117Y021888D01*
X010972Y021743D01*
X010782Y021665D01*
X010578Y021665D01*
X010388Y021743D01*
X010313Y021818D01*
X010175Y021680D01*
X011075Y020780D01*
X017535Y020780D01*
X018706Y021951D01*
X018706Y022029D01*
X018776Y022197D01*
X018905Y022326D01*
X019073Y022396D01*
X019255Y022396D01*
X019424Y022326D01*
X019552Y022197D01*
X019622Y022029D01*
X019622Y021331D01*
X019552Y021163D01*
X019424Y021034D01*
X019255Y020964D01*
X019073Y020964D01*
X018905Y021034D01*
X018842Y021097D01*
X017977Y020232D01*
X017878Y020133D01*
X017750Y020080D01*
X010860Y020080D01*
X010732Y020133D01*
X010633Y020232D01*
X010633Y020232D01*
X009680Y021185D01*
X004775Y016280D01*
X004785Y016280D01*
X004883Y016378D01*
X004982Y016477D01*
X005110Y016530D01*
X012700Y016530D01*
X012700Y016555D01*
X012773Y016732D01*
X012908Y016867D01*
X013085Y016940D01*
X013275Y016940D01*
X013452Y016867D01*
X013587Y016732D01*
X013660Y016555D01*
X013660Y015805D01*
X013587Y015628D01*
X013452Y015493D01*
X013275Y015420D01*
X013085Y015420D01*
X012908Y015493D01*
X012773Y015628D01*
X012700Y015805D01*
X012700Y015830D01*
X005325Y015830D01*
X005128Y015633D01*
X005030Y015593D01*
X005030Y015481D01*
X005227Y015678D01*
X005521Y015800D01*
X005839Y015800D01*
X006133Y015678D01*
X006358Y015453D01*
X006380Y015400D01*
X006418Y015428D01*
X006488Y015463D01*
X006563Y015488D01*
X006641Y015500D01*
X006660Y015500D01*
X006660Y014700D01*
X006700Y014700D01*
X006700Y015500D01*
X006719Y015500D01*
X006797Y015488D01*
X006872Y015463D01*
X006942Y015428D01*
X007006Y015381D01*
X007061Y015326D01*
X007108Y015262D01*
X010636Y015262D01*
X010630Y015223D02*
X010644Y015309D01*
X010670Y015391D01*
X010710Y015468D01*
X010760Y015538D01*
X010822Y015600D01*
X010892Y015650D01*
X010969Y015690D01*
X011051Y015716D01*
X011137Y015730D01*
X011180Y015730D01*
X011223Y015730D01*
X011309Y015716D01*
X011391Y015690D01*
X011468Y015650D01*
X011538Y015600D01*
X011600Y015538D01*
X011650Y015468D01*
X011668Y015434D01*
X011697Y015503D01*
X011857Y015663D01*
X012067Y015750D01*
X012293Y015750D01*
X012503Y015663D01*
X012663Y015503D01*
X012750Y015293D01*
X012750Y015067D01*
X012663Y014857D01*
X012503Y014697D01*
X012293Y014610D01*
X012222Y014610D01*
X012250Y014543D01*
X012250Y014317D01*
X012163Y014107D01*
X012003Y013947D01*
X011793Y013860D01*
X011567Y013860D01*
X011357Y013947D01*
X011197Y014107D01*
X011110Y014317D01*
X011110Y014543D01*
X011146Y014630D01*
X011137Y014630D01*
X011051Y014644D01*
X010969Y014670D01*
X010892Y014710D01*
X010822Y014760D01*
X010760Y014822D01*
X010710Y014892D01*
X010670Y014969D01*
X010644Y015051D01*
X010630Y015137D01*
X010630Y015180D01*
X011180Y015180D01*
X011180Y015180D01*
X011180Y015730D01*
X011180Y015180D01*
X011180Y015180D01*
X010630Y015180D01*
X010630Y015223D01*
X010635Y015104D02*
X007170Y015104D01*
X007168Y015117D02*
X007143Y015192D01*
X007108Y015262D01*
X007168Y015117D02*
X007180Y015039D01*
X007180Y014700D01*
X006700Y014700D01*
X006700Y014660D01*
X007180Y014660D01*
X007180Y014321D01*
X007168Y014243D01*
X007143Y014168D01*
X007108Y014098D01*
X007061Y014034D01*
X007006Y013979D01*
X006942Y013932D01*
X006872Y013897D01*
X006797Y013872D01*
X006719Y013860D01*
X006700Y013860D01*
X006700Y014660D01*
X006660Y014660D01*
X006660Y013860D01*
X006641Y013860D01*
X006563Y013872D01*
X006488Y013897D01*
X006418Y013932D01*
X006380Y013960D01*
X006358Y013907D01*
X006133Y013682D01*
X005839Y013560D01*
X005521Y013560D01*
X005227Y013682D01*
X005002Y013907D01*
X004990Y013935D01*
X004975Y013919D01*
X004783Y013840D01*
X004577Y013840D01*
X004385Y013919D01*
X004239Y014065D01*
X004160Y014257D01*
X004160Y015103D01*
X004239Y015295D01*
X004330Y015385D01*
X004330Y015835D01*
X003810Y015315D01*
X003765Y015206D01*
X003654Y015095D01*
X003509Y015035D01*
X003351Y015035D01*
X003206Y015095D01*
X003095Y015206D01*
X003035Y015351D01*
X003035Y015509D01*
X003054Y015554D01*
X003009Y015535D01*
X002851Y015535D01*
X002706Y015595D01*
X002595Y015706D01*
X002535Y015851D01*
X002535Y016009D01*
X002595Y016154D01*
X002706Y016265D01*
X002815Y016310D01*
X009330Y022825D01*
X009330Y023750D01*
X009363Y023830D01*
X008075Y023830D01*
X007745Y023500D01*
X007843Y023500D01*
X008144Y023375D01*
X008375Y023144D01*
X008500Y022843D01*
X008500Y022517D01*
X008375Y022216D01*
X008144Y021985D01*
X007843Y021860D01*
X007517Y021860D01*
X007216Y021985D01*
X006985Y022216D01*
X006860Y022517D01*
X006860Y022843D01*
X006985Y023144D01*
X007170Y023330D01*
X005860Y023330D01*
X005732Y023383D01*
X005633Y023482D01*
X005285Y023830D01*
X004360Y023830D01*
X004232Y023883D01*
X004133Y023982D01*
X004035Y024080D01*
X003860Y024080D01*
X003732Y024133D01*
X003700Y024165D01*
X003467Y024165D01*
X003165Y024467D01*
X003165Y024505D01*
X003117Y024388D01*
X002972Y024243D01*
X002782Y024165D01*
X002578Y024165D01*
X002388Y024243D01*
X002243Y024388D01*
X002213Y024461D01*
X002163Y024273D01*
X002024Y024032D01*
X001828Y023836D01*
X001587Y023697D01*
X001319Y023625D01*
X001041Y023625D01*
X000773Y023697D01*
X000610Y023791D01*
X000610Y012685D01*
X000865Y012940D01*
X001495Y012940D01*
X001878Y012557D01*
X001981Y012660D01*
X002379Y012660D01*
X002660Y012379D01*
X002660Y012195D01*
X003575Y011280D01*
X005285Y011280D01*
X005732Y011727D01*
X005700Y011805D01*
X005700Y012555D01*
X005773Y012732D01*
X005908Y012867D01*
X006085Y012940D01*
X006275Y012940D01*
X006452Y012867D01*
X006587Y012732D01*
X006660Y012555D01*
X006660Y011805D01*
X006587Y011628D01*
X006502Y011543D01*
X006477Y011482D01*
X006378Y011383D01*
X005675Y010680D01*
X006378Y009977D01*
X006477Y009878D01*
X006502Y009817D01*
X006587Y009732D01*
X006660Y009555D01*
X006660Y008805D01*
X006587Y008628D01*
X006452Y008493D01*
X006275Y008420D01*
X006085Y008420D01*
X005908Y008493D01*
X005773Y008628D01*
X005700Y008805D01*
X005700Y009555D01*
X005732Y009633D01*
X005285Y010080D01*
X003867Y010080D01*
X003759Y010035D01*
X003601Y010035D01*
X003551Y010056D01*
X002660Y009165D01*
X002660Y008981D01*
X002379Y008700D01*
X001981Y008700D01*
X001700Y008981D01*
X001700Y009379D01*
X001981Y009660D01*
X002165Y009660D01*
X003133Y010628D01*
X003133Y010628D01*
X003185Y010680D01*
X003133Y010732D01*
X003133Y010732D01*
X002165Y011700D01*
X001981Y011700D01*
X001878Y011803D01*
X001495Y011420D01*
X000865Y011420D01*
X000610Y011675D01*
X000610Y003069D01*
X000773Y003163D01*
X001041Y003235D01*
X001319Y003235D01*
X001587Y003163D01*
X001828Y003024D01*
X002024Y002828D01*
X002163Y002587D01*
X002235Y002319D01*
X002235Y002041D01*
X002163Y001773D01*
X002024Y001532D01*
X001964Y001473D02*
X018396Y001473D01*
X018279Y001631D02*
X002081Y001631D01*
X002168Y001790D02*
X003341Y001790D01*
X003351Y001785D02*
X003509Y001785D01*
X003654Y001845D01*
X003765Y001956D01*
X003825Y002101D01*
X003825Y002259D01*
X003765Y002404D01*
X003654Y002515D01*
X003545Y002560D01*
X003477Y002628D01*
X003378Y002727D01*
X003250Y002780D01*
X003075Y002780D01*
X002310Y003545D01*
X002265Y003654D01*
X002154Y003765D01*
X002009Y003825D01*
X001851Y003825D01*
X001706Y003765D01*
X001595Y003654D01*
X001535Y003509D01*
X001535Y003351D01*
X001595Y003206D01*
X001706Y003095D01*
X001815Y003050D01*
X002732Y002133D01*
X002860Y002080D01*
X003035Y002080D01*
X003050Y002065D01*
X003095Y001956D01*
X003206Y001845D01*
X003351Y001785D01*
X003519Y001790D02*
X018192Y001790D01*
X018150Y001948D02*
X016464Y001948D01*
X016442Y001932D02*
X016506Y001979D01*
X016561Y002034D01*
X016608Y002098D01*
X016643Y002168D01*
X016668Y002243D01*
X016680Y002321D01*
X016680Y002660D01*
X016200Y002660D01*
X016200Y002700D01*
X016680Y002700D01*
X016680Y003039D01*
X016668Y003117D01*
X016643Y003192D01*
X016608Y003262D01*
X016561Y003326D01*
X016506Y003381D01*
X016442Y003428D01*
X016372Y003463D01*
X016297Y003488D01*
X016219Y003500D01*
X016200Y003500D01*
X016200Y002700D01*
X016160Y002700D01*
X016160Y003500D01*
X016141Y003500D01*
X016063Y003488D01*
X015988Y003463D01*
X015918Y003428D01*
X015854Y003381D01*
X015799Y003326D01*
X015752Y003262D01*
X015717Y003192D01*
X015693Y003120D01*
X015621Y003295D01*
X015475Y003441D01*
X015283Y003520D01*
X015077Y003520D01*
X014885Y003441D01*
X014739Y003295D01*
X014680Y003152D01*
X014621Y003295D01*
X014475Y003441D01*
X014283Y003520D01*
X014077Y003520D01*
X013885Y003441D01*
X013739Y003295D01*
X013667Y003120D01*
X013643Y003192D01*
X013608Y003262D01*
X013561Y003326D01*
X013506Y003381D01*
X013442Y003428D01*
X013372Y003463D01*
X013297Y003488D01*
X013219Y003500D01*
X013200Y003500D01*
X013200Y002700D01*
X013160Y002700D01*
X013160Y003500D01*
X013141Y003500D01*
X013063Y003488D01*
X012988Y003463D01*
X012918Y003428D01*
X012854Y003381D01*
X012799Y003326D01*
X012752Y003262D01*
X012717Y003192D01*
X012692Y003117D01*
X012680Y003039D01*
X012680Y002700D01*
X013160Y002700D01*
X013160Y002660D01*
X013200Y002660D01*
X013200Y001860D01*
X013219Y001860D01*
X013297Y001872D01*
X013372Y001897D01*
X013442Y001932D01*
X013506Y001979D01*
X013561Y002034D01*
X013608Y002098D01*
X013643Y002168D01*
X013667Y002240D01*
X013739Y002065D01*
X013885Y001919D01*
X014077Y001840D01*
X014283Y001840D01*
X014475Y001919D01*
X014621Y002065D01*
X014680Y002208D01*
X014739Y002065D01*
X014885Y001919D01*
X015077Y001840D01*
X015283Y001840D01*
X015475Y001919D01*
X015621Y002065D01*
X015693Y002240D01*
X015717Y002168D01*
X015752Y002098D01*
X015799Y002034D01*
X015854Y001979D01*
X015918Y001932D01*
X015988Y001897D01*
X016063Y001872D01*
X016141Y001860D01*
X016160Y001860D01*
X016160Y002660D01*
X016200Y002660D01*
X016200Y001860D01*
X016219Y001860D01*
X016297Y001872D01*
X016372Y001897D01*
X016442Y001932D01*
X016200Y001948D02*
X016160Y001948D01*
X016160Y002107D02*
X016200Y002107D01*
X016200Y002265D02*
X016160Y002265D01*
X016160Y002424D02*
X016200Y002424D01*
X016200Y002582D02*
X016160Y002582D01*
X016160Y002741D02*
X016200Y002741D01*
X016200Y002899D02*
X016160Y002899D01*
X016160Y003058D02*
X016200Y003058D01*
X016200Y003216D02*
X016160Y003216D01*
X016160Y003375D02*
X016200Y003375D01*
X016513Y003375D02*
X019750Y003375D01*
X019750Y003533D02*
X008530Y003533D01*
X008530Y003385D02*
X008530Y004080D01*
X008750Y004080D01*
X008878Y004133D01*
X010575Y005830D01*
X011535Y005830D01*
X012383Y004982D01*
X012420Y004945D01*
X012443Y004888D01*
X012588Y004743D01*
X012778Y004665D01*
X012982Y004665D01*
X013172Y004743D01*
X013317Y004888D01*
X013395Y005078D01*
X013395Y005282D01*
X013317Y005472D01*
X013172Y005617D01*
X012982Y005695D01*
X012778Y005695D01*
X012694Y005661D01*
X011878Y006477D01*
X011750Y006530D01*
X010360Y006530D01*
X010232Y006477D01*
X010133Y006378D01*
X009200Y005445D01*
X009200Y006103D01*
X009121Y006295D01*
X009042Y006373D01*
X009150Y006481D01*
X009150Y006879D01*
X008869Y007160D01*
X008471Y007160D01*
X008458Y007147D01*
X008378Y007227D01*
X008250Y007280D01*
X007959Y007280D01*
X008160Y007481D01*
X008160Y007879D01*
X007879Y008160D01*
X007481Y008160D01*
X007200Y007879D01*
X007200Y007655D01*
X007128Y007727D01*
X007000Y007780D01*
X006775Y007780D01*
X007378Y008383D01*
X007477Y008482D01*
X007502Y008543D01*
X007587Y008628D01*
X007660Y008805D01*
X007660Y009555D01*
X007587Y009732D01*
X007452Y009867D01*
X007275Y009940D01*
X007085Y009940D01*
X006908Y009867D01*
X006773Y009732D01*
X006700Y009555D01*
X006700Y008805D01*
X006732Y008727D01*
X006285Y008280D01*
X005075Y008280D01*
X004160Y009195D01*
X004160Y009379D01*
X003879Y009660D01*
X003481Y009660D01*
X003200Y009379D01*
X003200Y008981D01*
X003481Y008700D01*
X003665Y008700D01*
X004335Y008030D01*
X001530Y008030D01*
X001530Y008851D01*
X001660Y008981D01*
X001660Y009379D01*
X001379Y009660D01*
X000981Y009660D01*
X000700Y009379D01*
X000700Y008981D01*
X000830Y008851D01*
X000830Y007610D01*
X000883Y007482D01*
X000982Y007383D01*
X001110Y007330D01*
X004285Y007330D01*
X004383Y007232D01*
X004482Y007133D01*
X004610Y007080D01*
X006411Y007080D01*
X006210Y006879D01*
X006210Y006481D01*
X006318Y006373D01*
X006239Y006295D01*
X006160Y006103D01*
X006160Y005533D01*
X005908Y005785D01*
X005559Y005930D01*
X005181Y005930D01*
X004832Y005785D01*
X004564Y005518D01*
X004420Y005169D01*
X004420Y004791D01*
X004564Y004442D01*
X004832Y004175D01*
X005181Y004030D01*
X005559Y004030D01*
X005908Y004175D01*
X006175Y004442D01*
X006320Y004791D01*
X006320Y004985D01*
X006385Y004919D01*
X006577Y004840D01*
X006783Y004840D01*
X006975Y004919D01*
X007121Y005065D01*
X007180Y005208D01*
X007239Y005065D01*
X007385Y004919D01*
X007577Y004840D01*
X007783Y004840D01*
X007975Y004919D01*
X008121Y005065D01*
X008180Y005208D01*
X008239Y005065D01*
X008385Y004919D01*
X008577Y004840D01*
X008595Y004840D01*
X008535Y004780D01*
X008110Y004780D01*
X007982Y004727D01*
X007883Y004628D01*
X007830Y004500D01*
X007830Y003385D01*
X007739Y003295D01*
X007660Y003103D01*
X007660Y003030D01*
X006367Y003030D01*
X006259Y003075D01*
X006101Y003075D01*
X005956Y003015D01*
X005845Y002904D01*
X005785Y002759D01*
X005785Y002601D01*
X005845Y002456D01*
X005956Y002345D01*
X006101Y002285D01*
X006259Y002285D01*
X006367Y002330D01*
X007660Y002330D01*
X007660Y002257D01*
X007739Y002065D01*
X007885Y001919D01*
X008077Y001840D01*
X008283Y001840D01*
X008475Y001919D01*
X008621Y002065D01*
X008693Y002240D01*
X008717Y002168D01*
X008752Y002098D01*
X008799Y002034D01*
X008854Y001979D01*
X008918Y001932D01*
X008988Y001897D01*
X009063Y001872D01*
X009141Y001860D01*
X009160Y001860D01*
X009160Y002660D01*
X009200Y002660D01*
X009200Y002700D01*
X009680Y002700D01*
X010160Y002700D01*
X010160Y003500D01*
X010141Y003500D01*
X010063Y003488D01*
X009988Y003463D01*
X009918Y003428D01*
X009854Y003381D01*
X009799Y003326D01*
X009752Y003262D01*
X009717Y003192D01*
X009692Y003117D01*
X009680Y003039D01*
X009680Y002700D01*
X009680Y003039D01*
X009668Y003117D01*
X009643Y003192D01*
X009608Y003262D01*
X009561Y003326D01*
X009506Y003381D01*
X009442Y003428D01*
X009372Y003463D01*
X009297Y003488D01*
X009219Y003500D01*
X009200Y003500D01*
X009200Y002700D01*
X009160Y002700D01*
X009160Y003500D01*
X009141Y003500D01*
X009063Y003488D01*
X008988Y003463D01*
X008918Y003428D01*
X008854Y003381D01*
X008799Y003326D01*
X008752Y003262D01*
X008717Y003192D01*
X008693Y003120D01*
X008621Y003295D01*
X008530Y003385D01*
X008541Y003375D02*
X008847Y003375D01*
X008729Y003216D02*
X008653Y003216D01*
X008530Y003692D02*
X019750Y003692D01*
X019750Y003850D02*
X010001Y003850D01*
X009871Y003720D02*
X009680Y003720D01*
X009680Y004180D01*
X010140Y004180D01*
X010140Y004371D01*
X009871Y004640D01*
X009680Y004640D01*
X009680Y004180D01*
X009680Y004180D01*
X009680Y004180D01*
X010140Y004180D01*
X010140Y003989D01*
X009871Y003720D01*
X009680Y003720D02*
X009680Y004180D01*
X009680Y004180D01*
X009680Y004180D01*
X009220Y004180D01*
X009220Y004371D01*
X009489Y004640D01*
X009680Y004640D01*
X009680Y004180D01*
X009220Y004180D01*
X009220Y003989D01*
X009489Y003720D01*
X009680Y003720D01*
X009680Y003850D02*
X009680Y003850D01*
X009680Y004009D02*
X009680Y004009D01*
X009680Y004167D02*
X009680Y004167D01*
X009680Y004326D02*
X009680Y004326D01*
X009680Y004484D02*
X009680Y004484D01*
X009546Y004801D02*
X011159Y004801D01*
X011275Y004685D02*
X010985Y004975D01*
X010985Y005180D01*
X011480Y005180D01*
X011975Y005180D01*
X011975Y005385D01*
X011685Y005675D01*
X011480Y005675D01*
X011480Y005180D01*
X011480Y005180D01*
X011480Y005180D01*
X011975Y005180D01*
X011975Y004975D01*
X011685Y004685D01*
X011480Y004685D01*
X011480Y005180D01*
X011480Y005180D01*
X011480Y005180D01*
X011480Y005675D01*
X011275Y005675D01*
X010985Y005385D01*
X010985Y005180D01*
X011480Y005180D01*
X011480Y004685D01*
X011275Y004685D01*
X011480Y004801D02*
X011480Y004801D01*
X011480Y004960D02*
X011480Y004960D01*
X011480Y005118D02*
X011480Y005118D01*
X011480Y005277D02*
X011480Y005277D01*
X011480Y005435D02*
X011480Y005435D01*
X011480Y005594D02*
X011480Y005594D01*
X011613Y005752D02*
X010497Y005752D01*
X010338Y005594D02*
X011193Y005594D01*
X011035Y005435D02*
X010180Y005435D01*
X010021Y005277D02*
X010985Y005277D01*
X010985Y005118D02*
X009863Y005118D01*
X009704Y004960D02*
X011000Y004960D01*
X011801Y004801D02*
X012531Y004801D01*
X012406Y004960D02*
X011960Y004960D01*
X011975Y005118D02*
X012247Y005118D01*
X012089Y005277D02*
X011975Y005277D01*
X011930Y005435D02*
X011925Y005435D01*
X011772Y005594D02*
X011767Y005594D01*
X012286Y006069D02*
X014349Y006069D01*
X014299Y006040D02*
X014099Y005840D01*
X013958Y005595D01*
X013885Y005322D01*
X013885Y005038D01*
X013958Y004765D01*
X014099Y004520D01*
X014299Y004320D01*
X014545Y004178D01*
X014818Y004105D01*
X015101Y004105D01*
X015374Y004178D01*
X015620Y004320D01*
X015820Y004520D01*
X015961Y004765D01*
X016035Y005038D01*
X016035Y005322D01*
X015961Y005595D01*
X015820Y005840D01*
X015620Y006040D01*
X015374Y006182D01*
X015101Y006255D01*
X014818Y006255D01*
X014545Y006182D01*
X014299Y006040D01*
X014170Y005911D02*
X012444Y005911D01*
X012603Y005752D02*
X014048Y005752D01*
X013957Y005594D02*
X013195Y005594D01*
X013332Y005435D02*
X013915Y005435D01*
X013885Y005277D02*
X013395Y005277D01*
X013395Y005118D02*
X013885Y005118D01*
X013906Y004960D02*
X013346Y004960D01*
X013229Y004801D02*
X013948Y004801D01*
X014029Y004643D02*
X009387Y004643D01*
X009333Y004484D02*
X009229Y004484D01*
X009220Y004326D02*
X009070Y004326D01*
X009220Y004167D02*
X008912Y004167D01*
X009220Y004009D02*
X008530Y004009D01*
X008530Y003850D02*
X009359Y003850D01*
X009513Y003375D02*
X009847Y003375D01*
X009729Y003216D02*
X009631Y003216D01*
X009677Y003058D02*
X009683Y003058D01*
X009680Y002899D02*
X009680Y002899D01*
X009680Y002741D02*
X009680Y002741D01*
X009680Y002660D02*
X009680Y002321D01*
X009692Y002243D01*
X009717Y002168D01*
X009752Y002098D01*
X009799Y002034D01*
X009854Y001979D01*
X009918Y001932D01*
X009988Y001897D01*
X010063Y001872D01*
X010141Y001860D01*
X010160Y001860D01*
X010160Y002660D01*
X010200Y002660D01*
X010200Y002700D01*
X010680Y002700D01*
X010680Y003039D01*
X010668Y003117D01*
X010643Y003192D01*
X010608Y003262D01*
X010561Y003326D01*
X010506Y003381D01*
X010442Y003428D01*
X010372Y003463D01*
X010297Y003488D01*
X010219Y003500D01*
X010200Y003500D01*
X010200Y002700D01*
X010160Y002700D01*
X010160Y002660D01*
X009680Y002660D01*
X009200Y002660D01*
X009200Y001860D01*
X009219Y001860D01*
X009297Y001872D01*
X009372Y001897D01*
X009442Y001932D01*
X009506Y001979D01*
X009561Y002034D01*
X009608Y002098D01*
X009643Y002168D01*
X009668Y002243D01*
X009680Y002321D01*
X009680Y002660D01*
X009680Y002582D02*
X009680Y002582D01*
X009680Y002424D02*
X009680Y002424D01*
X009671Y002265D02*
X009689Y002265D01*
X009748Y002107D02*
X009612Y002107D01*
X009464Y001948D02*
X009896Y001948D01*
X010160Y001948D02*
X010200Y001948D01*
X010200Y001860D02*
X010219Y001860D01*
X010297Y001872D01*
X010372Y001897D01*
X010442Y001932D01*
X010506Y001979D01*
X010561Y002034D01*
X010608Y002098D01*
X010643Y002168D01*
X010668Y002243D01*
X010680Y002321D01*
X010680Y002660D01*
X010200Y002660D01*
X010200Y001860D01*
X010200Y002107D02*
X010160Y002107D01*
X010160Y002265D02*
X010200Y002265D01*
X010200Y002424D02*
X010160Y002424D01*
X010160Y002582D02*
X010200Y002582D01*
X010200Y002741D02*
X010160Y002741D01*
X010160Y002899D02*
X010200Y002899D01*
X010200Y003058D02*
X010160Y003058D01*
X010160Y003216D02*
X010200Y003216D01*
X010200Y003375D02*
X010160Y003375D01*
X010513Y003375D02*
X010906Y003375D01*
X010928Y003391D02*
X010867Y003346D01*
X010814Y003293D01*
X010769Y003232D01*
X010735Y003164D01*
X010712Y003092D01*
X010700Y003018D01*
X010700Y002690D01*
X011170Y002690D01*
X011170Y003460D01*
X011142Y003460D01*
X011068Y003448D01*
X010996Y003425D01*
X010928Y003391D01*
X010762Y003216D02*
X010631Y003216D01*
X010677Y003058D02*
X010706Y003058D01*
X010700Y002899D02*
X010680Y002899D01*
X010680Y002741D02*
X010700Y002741D01*
X010700Y002670D02*
X010700Y002342D01*
X010712Y002268D01*
X010735Y002196D01*
X010769Y002128D01*
X010814Y002067D01*
X010867Y002014D01*
X010928Y001969D01*
X010996Y001935D01*
X011068Y001912D01*
X011142Y001900D01*
X011170Y001900D01*
X011170Y002670D01*
X010700Y002670D01*
X010700Y002582D02*
X010680Y002582D01*
X010680Y002424D02*
X010700Y002424D01*
X010713Y002265D02*
X010671Y002265D01*
X010612Y002107D02*
X010785Y002107D01*
X010971Y001948D02*
X010464Y001948D01*
X011170Y001948D02*
X011190Y001948D01*
X011190Y001900D02*
X011218Y001900D01*
X011292Y001912D01*
X011364Y001935D01*
X011432Y001969D01*
X011493Y002014D01*
X011546Y002067D01*
X011591Y002128D01*
X011625Y002196D01*
X011648Y002268D01*
X011660Y002342D01*
X011660Y002670D01*
X011190Y002670D01*
X011190Y002690D01*
X011170Y002690D01*
X011170Y002670D01*
X011190Y002670D01*
X011190Y001900D01*
X011389Y001948D02*
X011916Y001948D01*
X011897Y001956D02*
X012081Y001880D01*
X012279Y001880D01*
X012463Y001956D01*
X012604Y002097D01*
X012680Y002281D01*
X012680Y003079D01*
X012604Y003263D01*
X012463Y003404D01*
X012279Y003480D01*
X012081Y003480D01*
X011897Y003404D01*
X011756Y003263D01*
X011680Y003079D01*
X011680Y002281D01*
X011756Y002097D01*
X011897Y001956D01*
X011752Y002107D02*
X011575Y002107D01*
X011647Y002265D02*
X011686Y002265D01*
X011680Y002424D02*
X011660Y002424D01*
X011660Y002582D02*
X011680Y002582D01*
X011660Y002690D02*
X011660Y003018D01*
X011648Y003092D01*
X011625Y003164D01*
X011591Y003232D01*
X011546Y003293D01*
X011493Y003346D01*
X011432Y003391D01*
X011364Y003425D01*
X011292Y003448D01*
X011218Y003460D01*
X011190Y003460D01*
X011190Y002690D01*
X011660Y002690D01*
X011660Y002741D02*
X011680Y002741D01*
X011680Y002899D02*
X011660Y002899D01*
X011654Y003058D02*
X011680Y003058D01*
X011737Y003216D02*
X011598Y003216D01*
X011454Y003375D02*
X011867Y003375D01*
X012493Y003375D02*
X012847Y003375D01*
X012729Y003216D02*
X012623Y003216D01*
X012680Y003058D02*
X012683Y003058D01*
X012680Y002899D02*
X012680Y002899D01*
X012680Y002741D02*
X012680Y002741D01*
X012680Y002660D02*
X012680Y002321D01*
X012692Y002243D01*
X012717Y002168D01*
X012752Y002098D01*
X012799Y002034D01*
X012854Y001979D01*
X012918Y001932D01*
X012988Y001897D01*
X013063Y001872D01*
X013141Y001860D01*
X013160Y001860D01*
X013160Y002660D01*
X012680Y002660D01*
X012680Y002582D02*
X012680Y002582D01*
X012680Y002424D02*
X012680Y002424D01*
X012674Y002265D02*
X012689Y002265D01*
X012748Y002107D02*
X012608Y002107D01*
X012444Y001948D02*
X012896Y001948D01*
X013160Y001948D02*
X013200Y001948D01*
X013200Y002107D02*
X013160Y002107D01*
X013160Y002265D02*
X013200Y002265D01*
X013200Y002424D02*
X013160Y002424D01*
X013160Y002582D02*
X013200Y002582D01*
X013200Y002741D02*
X013160Y002741D01*
X013160Y002899D02*
X013200Y002899D01*
X013200Y003058D02*
X013160Y003058D01*
X013160Y003216D02*
X013200Y003216D01*
X013200Y003375D02*
X013160Y003375D01*
X013513Y003375D02*
X013819Y003375D01*
X013707Y003216D02*
X013631Y003216D01*
X013612Y002107D02*
X013722Y002107D01*
X013857Y001948D02*
X013464Y001948D01*
X014503Y001948D02*
X014857Y001948D01*
X014722Y002107D02*
X014638Y002107D01*
X015503Y001948D02*
X015896Y001948D01*
X015748Y002107D02*
X015638Y002107D01*
X015653Y003216D02*
X015729Y003216D01*
X015847Y003375D02*
X015541Y003375D01*
X015332Y004167D02*
X019750Y004167D01*
X019750Y004009D02*
X010140Y004009D01*
X010140Y004167D02*
X014587Y004167D01*
X014294Y004326D02*
X010140Y004326D01*
X010027Y004484D02*
X014135Y004484D01*
X014541Y003375D02*
X014819Y003375D01*
X014707Y003216D02*
X014653Y003216D01*
X015625Y004326D02*
X016992Y004326D01*
X017005Y004319D02*
X017103Y004285D01*
X017205Y004262D01*
X017281Y004253D01*
X017281Y005100D01*
X016434Y005100D01*
X016443Y005024D01*
X016466Y004922D01*
X016501Y004824D01*
X016546Y004729D01*
X016601Y004641D01*
X016667Y004559D01*
X016740Y004485D01*
X016822Y004420D01*
X016911Y004365D01*
X017005Y004319D01*
X017281Y004326D02*
X017441Y004326D01*
X017441Y004253D02*
X017517Y004262D01*
X017619Y004285D01*
X017718Y004319D01*
X017812Y004365D01*
X017900Y004420D01*
X017982Y004485D01*
X018056Y004559D01*
X018121Y004641D01*
X018176Y004729D01*
X018222Y004824D01*
X018256Y004922D01*
X018279Y005024D01*
X018288Y005100D01*
X017441Y005100D01*
X017441Y004253D01*
X017441Y004484D02*
X017281Y004484D01*
X017281Y004643D02*
X017441Y004643D01*
X017441Y004801D02*
X017281Y004801D01*
X017281Y004960D02*
X017441Y004960D01*
X017441Y005100D02*
X017281Y005100D01*
X017281Y005260D01*
X016434Y005260D01*
X016443Y005336D01*
X016466Y005438D01*
X016501Y005536D01*
X016546Y005631D01*
X016601Y005719D01*
X016667Y005801D01*
X016740Y005875D01*
X016822Y005940D01*
X016911Y005995D01*
X017005Y006041D01*
X017103Y006075D01*
X017205Y006098D01*
X017281Y006107D01*
X017281Y005260D01*
X017441Y005260D01*
X017441Y006107D01*
X017517Y006098D01*
X017619Y006075D01*
X017718Y006041D01*
X017812Y005995D01*
X017900Y005940D01*
X017982Y005875D01*
X018056Y005801D01*
X018121Y005719D01*
X018176Y005631D01*
X018222Y005536D01*
X018256Y005438D01*
X018279Y005336D01*
X018288Y005260D01*
X017441Y005260D01*
X017441Y005100D01*
X017441Y005118D02*
X019750Y005118D01*
X019750Y004960D02*
X018265Y004960D01*
X018211Y004801D02*
X019750Y004801D01*
X019750Y004643D02*
X018122Y004643D01*
X017980Y004484D02*
X019750Y004484D01*
X019750Y004326D02*
X017730Y004326D01*
X017281Y005118D02*
X016035Y005118D01*
X016035Y005277D02*
X016436Y005277D01*
X016465Y005435D02*
X016004Y005435D01*
X015962Y005594D02*
X016528Y005594D01*
X016628Y005752D02*
X015871Y005752D01*
X015749Y005911D02*
X016786Y005911D01*
X017086Y006069D02*
X015570Y006069D01*
X015642Y006264D02*
X015375Y006532D01*
X015230Y006881D01*
X015230Y007259D01*
X015375Y007608D01*
X015642Y007875D01*
X015991Y008020D01*
X016369Y008020D01*
X016718Y007875D01*
X016985Y007608D01*
X017130Y007259D01*
X017130Y006881D01*
X016985Y006532D01*
X016718Y006264D01*
X016369Y006120D01*
X015991Y006120D01*
X015642Y006264D01*
X015731Y006228D02*
X015204Y006228D01*
X015369Y006545D02*
X010140Y006545D01*
X010140Y006489D02*
X010140Y006680D01*
X010140Y006871D01*
X009871Y007140D01*
X009680Y007140D01*
X009680Y006680D01*
X009680Y006680D01*
X010140Y006680D01*
X009680Y006680D01*
X009680Y006680D01*
X009680Y006680D01*
X009220Y006680D01*
X009220Y006871D01*
X009489Y007140D01*
X009680Y007140D01*
X009680Y006680D01*
X009680Y006220D01*
X009871Y006220D01*
X010140Y006489D01*
X010141Y006386D02*
X010037Y006386D01*
X009983Y006228D02*
X009878Y006228D01*
X009824Y006069D02*
X009200Y006069D01*
X009200Y005911D02*
X009666Y005911D01*
X009507Y005752D02*
X009200Y005752D01*
X009200Y005594D02*
X009349Y005594D01*
X009489Y006220D02*
X009220Y006489D01*
X009220Y006680D01*
X009680Y006680D01*
X009680Y006680D01*
X009680Y006220D01*
X009489Y006220D01*
X009482Y006228D02*
X009149Y006228D01*
X009055Y006386D02*
X009323Y006386D01*
X009220Y006545D02*
X009150Y006545D01*
X009150Y006703D02*
X009220Y006703D01*
X009220Y006862D02*
X009150Y006862D01*
X009009Y007020D02*
X009369Y007020D01*
X009481Y007200D02*
X009879Y007200D01*
X010160Y007481D01*
X010160Y007879D01*
X009879Y008160D01*
X009481Y008160D01*
X009200Y007879D01*
X009200Y007481D01*
X009481Y007200D01*
X009344Y007337D02*
X008016Y007337D01*
X008160Y007496D02*
X009200Y007496D01*
X009200Y007654D02*
X008160Y007654D01*
X008160Y007813D02*
X009200Y007813D01*
X009292Y007971D02*
X008068Y007971D01*
X007909Y008130D02*
X009451Y008130D01*
X009339Y008447D02*
X010021Y008447D01*
X010085Y008420D02*
X010241Y008420D01*
X010200Y008379D01*
X010200Y007981D01*
X010481Y007700D01*
X010879Y007700D01*
X011160Y007981D01*
X011160Y008379D01*
X011090Y008448D01*
X011144Y008440D01*
X011180Y008440D01*
X011216Y008440D01*
X011288Y008451D01*
X011357Y008474D01*
X011421Y008507D01*
X011480Y008549D01*
X011531Y008600D01*
X011573Y008659D01*
X011606Y008723D01*
X011629Y008792D01*
X011640Y008864D01*
X011640Y009180D01*
X011640Y009496D01*
X011629Y009568D01*
X011606Y009637D01*
X011573Y009701D01*
X011531Y009760D01*
X011480Y009811D01*
X011421Y009853D01*
X011357Y009886D01*
X011288Y009909D01*
X011216Y009920D01*
X011180Y009920D01*
X011180Y009180D01*
X011640Y009180D01*
X011180Y009180D01*
X011180Y009180D01*
X011180Y009180D01*
X011180Y008440D01*
X011180Y009180D01*
X011180Y009180D01*
X011180Y009180D01*
X010720Y009180D01*
X010720Y009496D01*
X010731Y009568D01*
X010754Y009637D01*
X010787Y009701D01*
X010829Y009760D01*
X010880Y009811D01*
X010939Y009853D01*
X011003Y009886D01*
X011072Y009909D01*
X011144Y009920D01*
X011180Y009920D01*
X011180Y009180D01*
X010720Y009180D01*
X010720Y008864D01*
X010731Y008792D01*
X010754Y008723D01*
X010786Y008660D01*
X010600Y008660D01*
X010660Y008805D01*
X010660Y009555D01*
X010587Y009732D01*
X010452Y009867D01*
X010275Y009940D01*
X010085Y009940D01*
X009908Y009867D01*
X009773Y009732D01*
X009700Y009555D01*
X009700Y008805D01*
X009773Y008628D01*
X009908Y008493D01*
X010085Y008420D01*
X010200Y008288D02*
X007283Y008288D01*
X007441Y008447D02*
X008021Y008447D01*
X008085Y008420D02*
X008275Y008420D01*
X008452Y008493D01*
X008587Y008628D01*
X008660Y008805D01*
X008660Y009555D01*
X008587Y009732D01*
X008452Y009867D01*
X008275Y009940D01*
X008085Y009940D01*
X007908Y009867D01*
X007773Y009732D01*
X007700Y009555D01*
X007700Y008805D01*
X007773Y008628D01*
X007908Y008493D01*
X008085Y008420D01*
X008339Y008447D02*
X009021Y008447D01*
X009085Y008420D02*
X009275Y008420D01*
X009452Y008493D01*
X009587Y008628D01*
X009660Y008805D01*
X009660Y009555D01*
X009587Y009732D01*
X009452Y009867D01*
X009275Y009940D01*
X009085Y009940D01*
X008908Y009867D01*
X008773Y009732D01*
X008700Y009555D01*
X008700Y008805D01*
X008773Y008628D01*
X008908Y008493D01*
X009085Y008420D01*
X008796Y008605D02*
X008564Y008605D01*
X008643Y008764D02*
X008717Y008764D01*
X008700Y008922D02*
X008660Y008922D01*
X008660Y009081D02*
X008700Y009081D01*
X008700Y009239D02*
X008660Y009239D01*
X008660Y009398D02*
X008700Y009398D01*
X008700Y009556D02*
X008660Y009556D01*
X008594Y009715D02*
X008766Y009715D01*
X008923Y009873D02*
X008437Y009873D01*
X007923Y009873D02*
X007437Y009873D01*
X007594Y009715D02*
X007766Y009715D01*
X007700Y009556D02*
X007660Y009556D01*
X007660Y009398D02*
X007700Y009398D01*
X007700Y009239D02*
X007660Y009239D01*
X007660Y009081D02*
X007700Y009081D01*
X007700Y008922D02*
X007660Y008922D01*
X007643Y008764D02*
X007717Y008764D01*
X007796Y008605D02*
X007564Y008605D01*
X007451Y008130D02*
X007124Y008130D01*
X006966Y007971D02*
X007292Y007971D01*
X007200Y007813D02*
X006807Y007813D01*
X006452Y008447D02*
X006339Y008447D01*
X006293Y008288D02*
X005067Y008288D01*
X005085Y008420D02*
X005275Y008420D01*
X005452Y008493D01*
X005587Y008628D01*
X005660Y008805D01*
X005660Y009555D01*
X005587Y009732D01*
X005452Y009867D01*
X005275Y009940D01*
X005085Y009940D01*
X004908Y009867D01*
X004773Y009732D01*
X004700Y009555D01*
X004700Y008805D01*
X004773Y008628D01*
X004908Y008493D01*
X005085Y008420D01*
X005021Y008447D02*
X004908Y008447D01*
X004796Y008605D02*
X004750Y008605D01*
X004717Y008764D02*
X004591Y008764D01*
X004700Y008922D02*
X004433Y008922D01*
X004274Y009081D02*
X004700Y009081D01*
X004700Y009239D02*
X004160Y009239D01*
X004141Y009398D02*
X004700Y009398D01*
X004700Y009556D02*
X003983Y009556D01*
X003526Y010032D02*
X005334Y010032D01*
X005437Y009873D02*
X005492Y009873D01*
X005594Y009715D02*
X005651Y009715D01*
X005660Y009556D02*
X005700Y009556D01*
X005700Y009398D02*
X005660Y009398D01*
X005660Y009239D02*
X005700Y009239D01*
X005700Y009081D02*
X005660Y009081D01*
X005660Y008922D02*
X005700Y008922D01*
X005717Y008764D02*
X005643Y008764D01*
X005564Y008605D02*
X005796Y008605D01*
X006021Y008447D02*
X005339Y008447D01*
X004766Y009715D02*
X003209Y009715D01*
X003051Y009556D02*
X003377Y009556D01*
X003219Y009398D02*
X002892Y009398D01*
X002734Y009239D02*
X003200Y009239D01*
X003200Y009081D02*
X002660Y009081D01*
X002601Y008922D02*
X003259Y008922D01*
X003418Y008764D02*
X002442Y008764D01*
X001918Y008764D02*
X001530Y008764D01*
X001530Y008605D02*
X003760Y008605D01*
X003919Y008447D02*
X001530Y008447D01*
X001530Y008288D02*
X004077Y008288D01*
X004236Y008130D02*
X001530Y008130D01*
X001601Y008922D02*
X001759Y008922D01*
X001700Y009081D02*
X001660Y009081D01*
X001660Y009239D02*
X001700Y009239D01*
X001719Y009398D02*
X001641Y009398D01*
X001483Y009556D02*
X001877Y009556D01*
X002220Y009715D02*
X000610Y009715D01*
X000610Y009873D02*
X002378Y009873D01*
X002537Y010032D02*
X000610Y010032D01*
X000610Y010190D02*
X002695Y010190D01*
X002854Y010349D02*
X000610Y010349D01*
X000610Y010507D02*
X003012Y010507D01*
X003171Y010666D02*
X000610Y010666D01*
X000610Y010824D02*
X003041Y010824D01*
X002883Y010983D02*
X000610Y010983D01*
X000610Y011141D02*
X002724Y011141D01*
X002566Y011300D02*
X000610Y011300D01*
X000610Y011458D02*
X000827Y011458D01*
X000669Y011617D02*
X000610Y011617D01*
X000610Y012726D02*
X000651Y012726D01*
X000610Y012885D02*
X000810Y012885D01*
X000610Y013043D02*
X008720Y013043D01*
X008720Y012989D02*
X008875Y012834D01*
X008773Y012732D01*
X008700Y012555D01*
X008700Y011805D01*
X008773Y011628D01*
X008908Y011493D01*
X009085Y011420D01*
X009275Y011420D01*
X009452Y011493D01*
X009587Y011628D01*
X009660Y011805D01*
X009660Y012555D01*
X009587Y012732D01*
X009485Y012834D01*
X009640Y012989D01*
X009640Y013180D01*
X009640Y013371D01*
X009371Y013640D01*
X009180Y013640D01*
X009180Y013180D01*
X009640Y013180D01*
X009180Y013180D01*
X009180Y013180D01*
X009180Y013180D01*
X009180Y013180D01*
X008720Y013180D01*
X008720Y013371D01*
X008989Y013640D01*
X009180Y013640D01*
X009180Y013180D01*
X008720Y013180D01*
X008720Y012989D01*
X008825Y012885D02*
X008360Y012885D01*
X008357Y012886D02*
X008288Y012909D01*
X008216Y012920D01*
X008180Y012920D01*
X008180Y012180D01*
X008640Y012180D01*
X008640Y012496D01*
X008629Y012568D01*
X008606Y012637D01*
X008573Y012701D01*
X008531Y012760D01*
X008480Y012811D01*
X008421Y012853D01*
X008357Y012886D01*
X008180Y012885D02*
X008180Y012885D01*
X008180Y012920D02*
X008144Y012920D01*
X008072Y012909D01*
X008003Y012886D01*
X007939Y012853D01*
X007880Y012811D01*
X007829Y012760D01*
X007787Y012701D01*
X007754Y012637D01*
X007731Y012568D01*
X007720Y012496D01*
X007720Y012180D01*
X008180Y012180D01*
X008180Y012180D01*
X008180Y012180D01*
X008640Y012180D01*
X008640Y011864D01*
X008629Y011792D01*
X008606Y011723D01*
X008573Y011659D01*
X008531Y011600D01*
X008480Y011549D01*
X008421Y011507D01*
X008357Y011474D01*
X008288Y011451D01*
X008216Y011440D01*
X008180Y011440D01*
X008180Y012180D01*
X008180Y012180D01*
X008180Y012180D01*
X008180Y012920D01*
X008000Y012885D02*
X007409Y012885D01*
X007452Y012867D02*
X007275Y012940D01*
X007085Y012940D01*
X006908Y012867D01*
X006773Y012732D01*
X006700Y012555D01*
X006700Y011805D01*
X006773Y011628D01*
X006908Y011493D01*
X007085Y011420D01*
X007275Y011420D01*
X007452Y011493D01*
X007587Y011628D01*
X007660Y011805D01*
X007660Y012555D01*
X007587Y012732D01*
X007452Y012867D01*
X007589Y012726D02*
X007805Y012726D01*
X007731Y012568D02*
X007655Y012568D01*
X007660Y012409D02*
X007720Y012409D01*
X007720Y012251D02*
X007660Y012251D01*
X007720Y012180D02*
X007720Y011864D01*
X007731Y011792D01*
X007754Y011723D01*
X007787Y011659D01*
X007829Y011600D01*
X007880Y011549D01*
X007939Y011507D01*
X008003Y011474D01*
X008072Y011451D01*
X008144Y011440D01*
X008180Y011440D01*
X008180Y012180D01*
X007720Y012180D01*
X007720Y012092D02*
X007660Y012092D01*
X007660Y011934D02*
X007720Y011934D01*
X007737Y011775D02*
X007648Y011775D01*
X007575Y011617D02*
X007817Y011617D01*
X008052Y011458D02*
X007367Y011458D01*
X006993Y011458D02*
X006453Y011458D01*
X006575Y011617D02*
X006785Y011617D01*
X006712Y011775D02*
X006648Y011775D01*
X006660Y011934D02*
X006700Y011934D01*
X006700Y012092D02*
X006660Y012092D01*
X006660Y012251D02*
X006700Y012251D01*
X006700Y012409D02*
X006660Y012409D01*
X006655Y012568D02*
X006705Y012568D01*
X006771Y012726D02*
X006589Y012726D01*
X006409Y012885D02*
X006951Y012885D01*
X007021Y013994D02*
X011310Y013994D01*
X011178Y014153D02*
X007135Y014153D01*
X007178Y014311D02*
X011112Y014311D01*
X011110Y014470D02*
X007180Y014470D01*
X007180Y014628D02*
X011145Y014628D01*
X010796Y014787D02*
X007180Y014787D01*
X007180Y014945D02*
X010682Y014945D01*
X010685Y015421D02*
X006952Y015421D01*
X006700Y015421D02*
X006660Y015421D01*
X006660Y015262D02*
X006700Y015262D01*
X006700Y015104D02*
X006660Y015104D01*
X006660Y014945D02*
X006700Y014945D01*
X006700Y014787D02*
X006660Y014787D01*
X006660Y014628D02*
X006700Y014628D01*
X006700Y014470D02*
X006660Y014470D01*
X006660Y014311D02*
X006700Y014311D01*
X006700Y014153D02*
X006660Y014153D01*
X006660Y013994D02*
X006700Y013994D01*
X006287Y013836D02*
X012877Y013836D01*
X012908Y013867D02*
X012773Y013732D01*
X012700Y013555D01*
X012700Y012805D01*
X012773Y012628D01*
X012861Y012540D01*
X012700Y012379D01*
X012700Y011981D01*
X012981Y011700D01*
X013379Y011700D01*
X013660Y011981D01*
X013660Y012379D01*
X013499Y012540D01*
X013587Y012628D01*
X013660Y012805D01*
X013660Y013555D01*
X013587Y013732D01*
X013452Y013867D01*
X013275Y013940D01*
X013085Y013940D01*
X012908Y013867D01*
X012750Y013677D02*
X006122Y013677D01*
X005951Y012885D02*
X005360Y012885D01*
X005357Y012886D02*
X005288Y012909D01*
X005216Y012920D01*
X005180Y012920D01*
X005180Y012180D01*
X005640Y012180D01*
X005640Y012496D01*
X005629Y012568D01*
X005606Y012637D01*
X005573Y012701D01*
X005531Y012760D01*
X005480Y012811D01*
X005421Y012853D01*
X005357Y012886D01*
X005180Y012885D02*
X005180Y012885D01*
X005180Y012920D02*
X005144Y012920D01*
X005072Y012909D01*
X005003Y012886D01*
X004939Y012853D01*
X004880Y012811D01*
X004829Y012760D01*
X004787Y012701D01*
X004754Y012637D01*
X004731Y012568D01*
X004720Y012496D01*
X004720Y012180D01*
X005180Y012180D01*
X005180Y012180D01*
X005180Y012180D01*
X005640Y012180D01*
X005640Y011864D01*
X005629Y011792D01*
X005606Y011723D01*
X005573Y011659D01*
X005531Y011600D01*
X005480Y011549D01*
X005421Y011507D01*
X005357Y011474D01*
X005288Y011451D01*
X005216Y011440D01*
X005180Y011440D01*
X005180Y012180D01*
X005180Y012180D01*
X005180Y012180D01*
X005180Y012920D01*
X005000Y012885D02*
X001550Y012885D01*
X001630Y013075D02*
X001630Y013630D01*
X001730Y013630D01*
X001730Y013730D01*
X002285Y013730D01*
X002285Y013931D01*
X001931Y014285D01*
X001730Y014285D01*
X001730Y013730D01*
X001630Y013730D01*
X001630Y014285D01*
X001429Y014285D01*
X001075Y013931D01*
X001075Y013730D01*
X001630Y013730D01*
X001630Y013630D01*
X001075Y013630D01*
X001075Y013429D01*
X001429Y013075D01*
X001630Y013075D01*
X001730Y013075D02*
X001730Y013630D01*
X002285Y013630D01*
X002285Y013429D01*
X001931Y013075D01*
X001730Y013075D01*
X001730Y013202D02*
X001630Y013202D01*
X001630Y013360D02*
X001730Y013360D01*
X001730Y013519D02*
X001630Y013519D01*
X001630Y013677D02*
X000610Y013677D01*
X000610Y013519D02*
X001075Y013519D01*
X001144Y013360D02*
X000610Y013360D01*
X000610Y013202D02*
X001303Y013202D01*
X001709Y012726D02*
X004805Y012726D01*
X004731Y012568D02*
X003971Y012568D01*
X003879Y012660D02*
X003481Y012660D01*
X003200Y012379D01*
X003200Y011981D01*
X003481Y011700D01*
X003879Y011700D01*
X004160Y011981D01*
X004160Y012379D01*
X003879Y012660D01*
X004130Y012409D02*
X004720Y012409D01*
X004720Y012251D02*
X004160Y012251D01*
X004160Y012092D02*
X004720Y012092D01*
X004720Y012180D02*
X004720Y011864D01*
X004731Y011792D01*
X004754Y011723D01*
X004787Y011659D01*
X004829Y011600D01*
X004880Y011549D01*
X004939Y011507D01*
X005003Y011474D01*
X005072Y011451D01*
X005144Y011440D01*
X005180Y011440D01*
X005180Y012180D01*
X004720Y012180D01*
X004720Y011934D02*
X004112Y011934D01*
X003954Y011775D02*
X004737Y011775D01*
X004817Y011617D02*
X003238Y011617D01*
X003080Y011775D02*
X003406Y011775D01*
X003248Y011934D02*
X002921Y011934D01*
X002763Y012092D02*
X003200Y012092D01*
X003200Y012251D02*
X002660Y012251D01*
X002630Y012409D02*
X003230Y012409D01*
X003389Y012568D02*
X002471Y012568D01*
X002057Y013202D02*
X008720Y013202D01*
X008720Y013360D02*
X002216Y013360D01*
X002285Y013519D02*
X008868Y013519D01*
X009180Y013519D02*
X009180Y013519D01*
X009180Y013360D02*
X009180Y013360D01*
X009180Y013202D02*
X009180Y013202D01*
X009492Y013519D02*
X009840Y013519D01*
X009700Y013379D02*
X009981Y013660D01*
X010379Y013660D01*
X010660Y013379D01*
X010660Y012981D01*
X010499Y012820D01*
X010587Y012732D01*
X010660Y012555D01*
X010660Y011805D01*
X010587Y011628D01*
X010452Y011493D01*
X010275Y011420D01*
X010085Y011420D01*
X009908Y011493D01*
X009773Y011628D01*
X009700Y011805D01*
X009700Y012555D01*
X009773Y012732D01*
X009861Y012820D01*
X009700Y012981D01*
X009700Y013379D01*
X009700Y013360D02*
X009640Y013360D01*
X009640Y013202D02*
X009700Y013202D01*
X009700Y013043D02*
X009640Y013043D01*
X009535Y012885D02*
X009797Y012885D01*
X009771Y012726D02*
X009589Y012726D01*
X009655Y012568D02*
X009705Y012568D01*
X009700Y012409D02*
X009660Y012409D01*
X009660Y012251D02*
X009700Y012251D01*
X009700Y012092D02*
X009660Y012092D01*
X009660Y011934D02*
X009700Y011934D01*
X009712Y011775D02*
X009648Y011775D01*
X009575Y011617D02*
X009785Y011617D01*
X009993Y011458D02*
X009367Y011458D01*
X008993Y011458D02*
X008308Y011458D01*
X008180Y011458D02*
X008180Y011458D01*
X008180Y011617D02*
X008180Y011617D01*
X008180Y011775D02*
X008180Y011775D01*
X008180Y011934D02*
X008180Y011934D01*
X008180Y012092D02*
X008180Y012092D01*
X008180Y012251D02*
X008180Y012251D01*
X008180Y012409D02*
X008180Y012409D01*
X008180Y012568D02*
X008180Y012568D01*
X008180Y012726D02*
X008180Y012726D01*
X008555Y012726D02*
X008771Y012726D01*
X008705Y012568D02*
X008629Y012568D01*
X008640Y012409D02*
X008700Y012409D01*
X008700Y012251D02*
X008640Y012251D01*
X008640Y012092D02*
X008700Y012092D01*
X008700Y011934D02*
X008640Y011934D01*
X008623Y011775D02*
X008712Y011775D01*
X008785Y011617D02*
X008543Y011617D01*
X009437Y009873D02*
X009923Y009873D01*
X009766Y009715D02*
X009594Y009715D01*
X009660Y009556D02*
X009700Y009556D01*
X009700Y009398D02*
X009660Y009398D01*
X009660Y009239D02*
X009700Y009239D01*
X009700Y009081D02*
X009660Y009081D01*
X009660Y008922D02*
X009700Y008922D01*
X009717Y008764D02*
X009643Y008764D01*
X009564Y008605D02*
X009796Y008605D01*
X009909Y008130D02*
X010200Y008130D01*
X010210Y007971D02*
X010068Y007971D01*
X010160Y007813D02*
X010369Y007813D01*
X010160Y007654D02*
X015421Y007654D01*
X015328Y007496D02*
X010160Y007496D01*
X010016Y007337D02*
X015262Y007337D01*
X015230Y007179D02*
X008426Y007179D01*
X009680Y007020D02*
X009680Y007020D01*
X009680Y006862D02*
X009680Y006862D01*
X009680Y006703D02*
X009680Y006703D01*
X009680Y006545D02*
X009680Y006545D01*
X009680Y006386D02*
X009680Y006386D01*
X009680Y006228D02*
X009680Y006228D01*
X010140Y006703D02*
X015304Y006703D01*
X015238Y006862D02*
X010140Y006862D01*
X009991Y007020D02*
X015230Y007020D01*
X015520Y006386D02*
X011969Y006386D01*
X012127Y006228D02*
X014715Y006228D01*
X013871Y007720D02*
X014140Y007989D01*
X014140Y008180D01*
X014140Y008371D01*
X013871Y008640D01*
X013680Y008640D01*
X013680Y008180D01*
X014140Y008180D01*
X013680Y008180D01*
X013680Y008180D01*
X013680Y008180D01*
X013680Y007720D01*
X013871Y007720D01*
X013963Y007813D02*
X015579Y007813D01*
X015873Y007971D02*
X014122Y007971D01*
X014140Y008130D02*
X019750Y008130D01*
X019750Y008288D02*
X014140Y008288D01*
X014064Y008447D02*
X019750Y008447D01*
X019750Y008605D02*
X013906Y008605D01*
X013981Y008700D02*
X014379Y008700D01*
X014660Y008981D01*
X014660Y009379D01*
X014530Y009509D01*
X014530Y010500D01*
X014477Y010628D01*
X014378Y010727D01*
X014250Y010780D01*
X011867Y010780D01*
X011759Y010825D01*
X011601Y010825D01*
X011456Y010765D01*
X011345Y010654D01*
X011285Y010509D01*
X011285Y010351D01*
X011345Y010206D01*
X011456Y010095D01*
X011601Y010035D01*
X011759Y010035D01*
X011867Y010080D01*
X013830Y010080D01*
X013830Y009509D01*
X013700Y009379D01*
X013700Y008981D01*
X013981Y008700D01*
X013918Y008764D02*
X013414Y008764D01*
X013371Y008720D02*
X013640Y008989D01*
X013640Y009180D01*
X013640Y009371D01*
X013371Y009640D01*
X013180Y009640D01*
X013180Y009180D01*
X013180Y009180D01*
X013640Y009180D01*
X013180Y009180D01*
X013180Y009180D01*
X013180Y009180D01*
X012720Y009180D01*
X012720Y009371D01*
X012989Y009640D01*
X013180Y009640D01*
X013180Y009180D01*
X013180Y008720D01*
X013371Y008720D01*
X013454Y008605D02*
X012564Y008605D01*
X012587Y008628D02*
X012660Y008805D01*
X012660Y009555D01*
X012587Y009732D01*
X012452Y009867D01*
X012275Y009940D01*
X012085Y009940D01*
X011908Y009867D01*
X011773Y009732D01*
X011700Y009555D01*
X011700Y008805D01*
X011773Y008628D01*
X011908Y008493D01*
X012085Y008420D01*
X012275Y008420D01*
X012452Y008493D01*
X012587Y008628D01*
X012643Y008764D02*
X012946Y008764D01*
X012989Y008720D02*
X012720Y008989D01*
X012720Y009180D01*
X013180Y009180D01*
X013180Y009180D01*
X013180Y008720D01*
X012989Y008720D01*
X013180Y008764D02*
X013180Y008764D01*
X013180Y008922D02*
X013180Y008922D01*
X013180Y009081D02*
X013180Y009081D01*
X013180Y009239D02*
X013180Y009239D01*
X013180Y009398D02*
X013180Y009398D01*
X013180Y009556D02*
X013180Y009556D01*
X013455Y009556D02*
X013830Y009556D01*
X013830Y009715D02*
X012594Y009715D01*
X012660Y009556D02*
X012905Y009556D01*
X012747Y009398D02*
X012660Y009398D01*
X012660Y009239D02*
X012720Y009239D01*
X012720Y009081D02*
X012660Y009081D01*
X012660Y008922D02*
X012787Y008922D01*
X012339Y008447D02*
X013296Y008447D01*
X013220Y008371D02*
X013220Y008180D01*
X013680Y008180D01*
X013680Y008180D01*
X013680Y008180D01*
X013680Y008640D01*
X013489Y008640D01*
X013220Y008371D01*
X013220Y008288D02*
X011160Y008288D01*
X011160Y008130D02*
X013220Y008130D01*
X013220Y008180D02*
X013220Y007989D01*
X013489Y007720D01*
X013680Y007720D01*
X013680Y008180D01*
X013220Y008180D01*
X013238Y007971D02*
X011150Y007971D01*
X010991Y007813D02*
X013397Y007813D01*
X013680Y007813D02*
X013680Y007813D01*
X013680Y007971D02*
X013680Y007971D01*
X013680Y008130D02*
X013680Y008130D01*
X013680Y008288D02*
X013680Y008288D01*
X013680Y008447D02*
X013680Y008447D01*
X013680Y008605D02*
X013680Y008605D01*
X013759Y008922D02*
X013573Y008922D01*
X013640Y009081D02*
X013700Y009081D01*
X013700Y009239D02*
X013640Y009239D01*
X013613Y009398D02*
X013719Y009398D01*
X013830Y009873D02*
X012437Y009873D01*
X011923Y009873D02*
X011383Y009873D01*
X011180Y009873D02*
X011180Y009873D01*
X011180Y009715D02*
X011180Y009715D01*
X011180Y009556D02*
X011180Y009556D01*
X011180Y009398D02*
X011180Y009398D01*
X011180Y009239D02*
X011180Y009239D01*
X011180Y009081D02*
X011180Y009081D01*
X011180Y008922D02*
X011180Y008922D01*
X011180Y008764D02*
X011180Y008764D01*
X011180Y008605D02*
X011180Y008605D01*
X011180Y008447D02*
X011180Y008447D01*
X011103Y008447D02*
X011092Y008447D01*
X011257Y008447D02*
X012021Y008447D01*
X011796Y008605D02*
X011534Y008605D01*
X011619Y008764D02*
X011717Y008764D01*
X011700Y008922D02*
X011640Y008922D01*
X011640Y009081D02*
X011700Y009081D01*
X011700Y009239D02*
X011640Y009239D01*
X011640Y009398D02*
X011700Y009398D01*
X011700Y009556D02*
X011631Y009556D01*
X011564Y009715D02*
X011766Y009715D01*
X011361Y010190D02*
X006165Y010190D01*
X006323Y010032D02*
X013830Y010032D01*
X014439Y010666D02*
X016344Y010666D01*
X016344Y010507D02*
X014527Y010507D01*
X014530Y010349D02*
X016344Y010349D01*
X016344Y010190D02*
X014530Y010190D01*
X014530Y010032D02*
X016344Y010032D01*
X016387Y009873D02*
X014530Y009873D01*
X014530Y009715D02*
X016500Y009715D01*
X016371Y009640D02*
X016180Y009640D01*
X016180Y009180D01*
X016640Y009180D01*
X016640Y009371D01*
X016371Y009640D01*
X016455Y009556D02*
X016877Y009556D01*
X016719Y009398D02*
X016613Y009398D01*
X016640Y009239D02*
X016700Y009239D01*
X016640Y009180D02*
X016180Y009180D01*
X016180Y009180D01*
X016180Y009180D01*
X016180Y008720D01*
X016371Y008720D01*
X016640Y008989D01*
X016640Y009180D01*
X016640Y009081D02*
X016700Y009081D01*
X016759Y008922D02*
X016573Y008922D01*
X016414Y008764D02*
X016918Y008764D01*
X017442Y008764D02*
X019750Y008764D01*
X019750Y008922D02*
X017601Y008922D01*
X017660Y009081D02*
X019750Y009081D01*
X019750Y009239D02*
X017660Y009239D01*
X017641Y009398D02*
X019750Y009398D01*
X019750Y009556D02*
X017483Y009556D01*
X017183Y009715D02*
X017866Y009715D01*
X017748Y009873D02*
X017296Y009873D01*
X017339Y010032D02*
X017704Y010032D01*
X017703Y010190D02*
X017339Y010190D01*
X017339Y010349D02*
X017703Y010349D01*
X017703Y010507D02*
X017339Y010507D01*
X017014Y011141D02*
X017004Y011141D01*
X017014Y011300D02*
X006294Y011300D01*
X006136Y011141D02*
X016679Y011141D01*
X016451Y010983D02*
X005977Y010983D01*
X005819Y010824D02*
X011599Y010824D01*
X011761Y010824D02*
X016367Y010824D01*
X017014Y011458D02*
X012367Y011458D01*
X012452Y011493D02*
X012587Y011628D01*
X012660Y011805D01*
X012660Y012555D01*
X012587Y012732D01*
X012452Y012867D01*
X012275Y012940D01*
X012085Y012940D01*
X011908Y012867D01*
X011773Y012732D01*
X011700Y012555D01*
X011700Y011805D01*
X011773Y011628D01*
X011908Y011493D01*
X012085Y011420D01*
X012275Y011420D01*
X012452Y011493D01*
X012575Y011617D02*
X017014Y011617D01*
X017014Y011775D02*
X015454Y011775D01*
X015612Y011934D02*
X017067Y011934D01*
X017879Y012726D02*
X019750Y012726D01*
X019750Y012568D02*
X018037Y012568D01*
X018196Y012409D02*
X019750Y012409D01*
X019750Y012251D02*
X018354Y012251D01*
X018513Y012092D02*
X018533Y012092D01*
X018008Y011607D02*
X018352Y011263D01*
X018352Y011116D01*
X018292Y011135D01*
X018218Y011147D01*
X018189Y011147D01*
X018189Y010382D01*
X018171Y010382D01*
X018171Y011147D01*
X018142Y011147D01*
X018068Y011135D01*
X018008Y011116D01*
X018008Y011607D01*
X018008Y011458D02*
X018157Y011458D01*
X018008Y011300D02*
X018316Y011300D01*
X018352Y011141D02*
X018257Y011141D01*
X018189Y011141D02*
X018171Y011141D01*
X018103Y011141D02*
X018008Y011141D01*
X018171Y010983D02*
X018189Y010983D01*
X018189Y010824D02*
X018171Y010824D01*
X018171Y010666D02*
X018189Y010666D01*
X018189Y010507D02*
X018171Y010507D01*
X018171Y010349D02*
X018189Y010349D01*
X018189Y010190D02*
X018171Y010190D01*
X018171Y010032D02*
X018189Y010032D01*
X018189Y009873D02*
X018171Y009873D01*
X018171Y009715D02*
X018189Y009715D01*
X018494Y009715D02*
X019205Y009715D01*
X019086Y009873D02*
X018612Y009873D01*
X018656Y010032D02*
X019042Y010032D01*
X019041Y010190D02*
X018657Y010190D01*
X018657Y010349D02*
X019041Y010349D01*
X019041Y010507D02*
X018657Y010507D01*
X019346Y011141D02*
X019442Y011141D01*
X019510Y011141D02*
X019527Y011141D01*
X019595Y011141D02*
X019750Y011141D01*
X019750Y011300D02*
X019346Y011300D01*
X019346Y011458D02*
X019750Y011458D01*
X019750Y011617D02*
X019346Y011617D01*
X019346Y011775D02*
X019750Y011775D01*
X019750Y011934D02*
X019293Y011934D01*
X019166Y012092D02*
X019750Y012092D01*
X019750Y012885D02*
X014535Y012885D01*
X014640Y012989D02*
X014640Y013180D01*
X014640Y013371D01*
X014371Y013640D01*
X014180Y013640D01*
X014180Y013180D01*
X014180Y013180D01*
X014640Y013180D01*
X014180Y013180D01*
X014180Y013180D01*
X014180Y013180D01*
X013720Y013180D01*
X013720Y013371D01*
X013989Y013640D01*
X014180Y013640D01*
X014180Y013180D01*
X014180Y012720D01*
X014371Y012720D01*
X014640Y012989D01*
X014640Y013043D02*
X019750Y013043D01*
X019750Y013202D02*
X014640Y013202D01*
X014640Y013360D02*
X019750Y013360D01*
X019750Y013519D02*
X014492Y013519D01*
X014180Y013519D02*
X014180Y013519D01*
X014180Y013360D02*
X014180Y013360D01*
X014180Y013202D02*
X014180Y013202D01*
X014180Y013180D02*
X013720Y013180D01*
X013720Y012989D01*
X013989Y012720D01*
X014180Y012720D01*
X014180Y013180D01*
X014180Y013180D01*
X014180Y013043D02*
X014180Y013043D01*
X014180Y012885D02*
X014180Y012885D01*
X014180Y012726D02*
X014180Y012726D01*
X014377Y012726D02*
X015231Y012726D01*
X014889Y012568D02*
X014471Y012568D01*
X014379Y012660D02*
X013981Y012660D01*
X013700Y012379D01*
X013700Y011981D01*
X013981Y011700D01*
X014379Y011700D01*
X014660Y011981D01*
X014660Y012379D01*
X014379Y012660D01*
X014630Y012409D02*
X014730Y012409D01*
X014700Y012251D02*
X014660Y012251D01*
X014660Y012092D02*
X014700Y012092D01*
X014748Y011934D02*
X014612Y011934D01*
X014454Y011775D02*
X014906Y011775D01*
X013906Y011775D02*
X013454Y011775D01*
X013612Y011934D02*
X013748Y011934D01*
X013700Y012092D02*
X013660Y012092D01*
X013660Y012251D02*
X013700Y012251D01*
X013730Y012409D02*
X013630Y012409D01*
X013526Y012568D02*
X013889Y012568D01*
X013983Y012726D02*
X013627Y012726D01*
X013660Y012885D02*
X013825Y012885D01*
X013720Y013043D02*
X013660Y013043D01*
X013660Y013202D02*
X013720Y013202D01*
X013720Y013360D02*
X013660Y013360D01*
X013660Y013519D02*
X013868Y013519D01*
X013610Y013677D02*
X019750Y013677D01*
X019750Y013836D02*
X013483Y013836D01*
X012700Y013519D02*
X010520Y013519D01*
X010660Y013360D02*
X012700Y013360D01*
X012700Y013202D02*
X010660Y013202D01*
X010660Y013043D02*
X012700Y013043D01*
X012700Y012885D02*
X012409Y012885D01*
X012589Y012726D02*
X012733Y012726D01*
X012655Y012568D02*
X012834Y012568D01*
X012730Y012409D02*
X012660Y012409D01*
X012660Y012251D02*
X012700Y012251D01*
X012700Y012092D02*
X012660Y012092D01*
X012660Y011934D02*
X012748Y011934D01*
X012648Y011775D02*
X012906Y011775D01*
X011993Y011458D02*
X011367Y011458D01*
X011452Y011493D02*
X011275Y011420D01*
X011085Y011420D01*
X010908Y011493D01*
X010773Y011628D01*
X010700Y011805D01*
X010700Y012555D01*
X010773Y012732D01*
X010908Y012867D01*
X011085Y012940D01*
X011275Y012940D01*
X011452Y012867D01*
X011587Y012732D01*
X011660Y012555D01*
X011660Y011805D01*
X011587Y011628D01*
X011452Y011493D01*
X011575Y011617D02*
X011785Y011617D01*
X011712Y011775D02*
X011648Y011775D01*
X011660Y011934D02*
X011700Y011934D01*
X011700Y012092D02*
X011660Y012092D01*
X011660Y012251D02*
X011700Y012251D01*
X011700Y012409D02*
X011660Y012409D01*
X011655Y012568D02*
X011705Y012568D01*
X011771Y012726D02*
X011589Y012726D01*
X011409Y012885D02*
X011951Y012885D01*
X012050Y013994D02*
X019750Y013994D01*
X019750Y014153D02*
X012182Y014153D01*
X012248Y014311D02*
X019750Y014311D01*
X019750Y014470D02*
X012250Y014470D01*
X012337Y014628D02*
X019750Y014628D01*
X019750Y014787D02*
X012593Y014787D01*
X012700Y014945D02*
X019750Y014945D01*
X019750Y015104D02*
X012750Y015104D01*
X012750Y015262D02*
X019750Y015262D01*
X019750Y015421D02*
X013277Y015421D01*
X013083Y015421D02*
X012697Y015421D01*
X012587Y015579D02*
X012822Y015579D01*
X012728Y015738D02*
X012323Y015738D01*
X012037Y015738D02*
X005990Y015738D01*
X006232Y015579D02*
X010801Y015579D01*
X011180Y015579D02*
X011180Y015579D01*
X011180Y015421D02*
X011180Y015421D01*
X011180Y015262D02*
X011180Y015262D01*
X011559Y015579D02*
X011773Y015579D01*
X012700Y016530D02*
X005025Y016530D01*
X004877Y016372D02*
X004866Y016372D01*
X005183Y016689D02*
X012755Y016689D01*
X012888Y016847D02*
X005342Y016847D01*
X005500Y017006D02*
X013601Y017006D01*
X013603Y016999D02*
X013648Y016911D01*
X013705Y016832D01*
X013774Y016763D01*
X013854Y016705D01*
X013941Y016661D01*
X013972Y016651D01*
X013700Y016379D01*
X013700Y015981D01*
X013981Y015700D01*
X014379Y015700D01*
X014660Y015981D01*
X014660Y016379D01*
X014388Y016651D01*
X014419Y016661D01*
X014506Y016705D01*
X014586Y016763D01*
X014655Y016832D01*
X014712Y016911D01*
X014757Y016999D01*
X014787Y017092D01*
X014802Y017189D01*
X014802Y017612D01*
X014248Y017612D01*
X014248Y017748D01*
X014802Y017748D01*
X014802Y018171D01*
X014787Y018268D01*
X014757Y018361D01*
X014712Y018449D01*
X014655Y018528D01*
X014586Y018597D01*
X014506Y018655D01*
X014419Y018699D01*
X014326Y018730D01*
X014248Y018742D01*
X014248Y017748D01*
X014112Y017748D01*
X014112Y018742D01*
X014034Y018730D01*
X013941Y018699D01*
X013854Y018655D01*
X013774Y018597D01*
X013705Y018528D01*
X013648Y018449D01*
X013603Y018361D01*
X013573Y018268D01*
X013558Y018171D01*
X013557Y017748D01*
X014112Y017748D01*
X014112Y017612D01*
X013558Y017612D01*
X013558Y017189D01*
X013573Y017092D01*
X013603Y016999D01*
X013561Y017164D02*
X005659Y017164D01*
X005817Y017323D02*
X008752Y017323D01*
X008778Y017297D02*
X009049Y017184D01*
X009343Y017184D01*
X009614Y017297D01*
X009821Y017504D01*
X009934Y017775D01*
X009934Y018585D01*
X009821Y018856D01*
X009614Y019063D01*
X009343Y019176D01*
X009049Y019176D01*
X008778Y019063D01*
X008570Y018856D01*
X008458Y018585D01*
X008458Y017775D01*
X008570Y017504D01*
X008778Y017297D01*
X008594Y017481D02*
X005976Y017481D01*
X006134Y017640D02*
X008514Y017640D01*
X008458Y017798D02*
X006293Y017798D01*
X006451Y017957D02*
X008458Y017957D01*
X008458Y018115D02*
X006610Y018115D01*
X006769Y018274D02*
X008458Y018274D01*
X008458Y018432D02*
X006927Y018432D01*
X007086Y018591D02*
X008460Y018591D01*
X008526Y018749D02*
X007244Y018749D01*
X007403Y018908D02*
X008622Y018908D01*
X008784Y019066D02*
X007561Y019066D01*
X007720Y019225D02*
X019750Y019225D01*
X019750Y019383D02*
X007878Y019383D01*
X008037Y019542D02*
X019750Y019542D01*
X019750Y019700D02*
X008195Y019700D01*
X008354Y019859D02*
X019750Y019859D01*
X019750Y020017D02*
X008512Y020017D01*
X008671Y020176D02*
X010689Y020176D01*
X010531Y020334D02*
X008829Y020334D01*
X008988Y020493D02*
X010372Y020493D01*
X010214Y020651D02*
X009146Y020651D01*
X009305Y020810D02*
X010055Y020810D01*
X009897Y020968D02*
X009463Y020968D01*
X009622Y021127D02*
X009738Y021127D01*
X009266Y021761D02*
X009256Y021761D01*
X009107Y021602D02*
X009097Y021602D01*
X008949Y021444D02*
X008939Y021444D01*
X008790Y021285D02*
X008780Y021285D01*
X008632Y021127D02*
X008622Y021127D01*
X008473Y020968D02*
X008463Y020968D01*
X008315Y020810D02*
X008305Y020810D01*
X008156Y020651D02*
X008146Y020651D01*
X007998Y020493D02*
X007988Y020493D01*
X007839Y020334D02*
X007829Y020334D01*
X007681Y020176D02*
X007671Y020176D01*
X007522Y020017D02*
X007512Y020017D01*
X007364Y019859D02*
X007354Y019859D01*
X007205Y019700D02*
X007195Y019700D01*
X007047Y019542D02*
X007037Y019542D01*
X006888Y019383D02*
X006878Y019383D01*
X006730Y019225D02*
X006720Y019225D01*
X006571Y019066D02*
X006561Y019066D01*
X006413Y018908D02*
X006403Y018908D01*
X006254Y018749D02*
X006244Y018749D01*
X006096Y018591D02*
X006086Y018591D01*
X005937Y018432D02*
X005927Y018432D01*
X005779Y018274D02*
X005769Y018274D01*
X005620Y018115D02*
X005610Y018115D01*
X005462Y017957D02*
X005452Y017957D01*
X005303Y017798D02*
X005293Y017798D01*
X005145Y017640D02*
X005135Y017640D01*
X004986Y017481D02*
X004976Y017481D01*
X004828Y017323D02*
X004818Y017323D01*
X004669Y017164D02*
X004659Y017164D01*
X004511Y017006D02*
X004500Y017006D01*
X004352Y016847D02*
X004342Y016847D01*
X004194Y016689D02*
X004183Y016689D01*
X004035Y016530D02*
X004025Y016530D01*
X003877Y016372D02*
X003866Y016372D01*
X003718Y016213D02*
X003708Y016213D01*
X003560Y016055D02*
X003549Y016055D01*
X003401Y015896D02*
X003391Y015896D01*
X003035Y015421D02*
X002180Y015421D01*
X002180Y015437D02*
X001887Y015730D01*
X001700Y015730D01*
X001700Y015250D01*
X001660Y015250D01*
X001660Y015730D01*
X001473Y015730D01*
X001180Y015437D01*
X001180Y015250D01*
X001660Y015250D01*
X001660Y015210D01*
X001180Y015210D01*
X001180Y015023D01*
X001473Y014730D01*
X001660Y014730D01*
X001660Y015210D01*
X001700Y015210D01*
X001700Y015250D01*
X002180Y015250D01*
X002180Y015437D01*
X002180Y015262D02*
X003072Y015262D01*
X003198Y015104D02*
X002180Y015104D01*
X002180Y015023D02*
X002180Y015210D01*
X001700Y015210D01*
X001700Y014730D01*
X001887Y014730D01*
X002180Y015023D01*
X002102Y014945D02*
X004160Y014945D01*
X004160Y014787D02*
X001944Y014787D01*
X001700Y014787D02*
X001660Y014787D01*
X001660Y014945D02*
X001700Y014945D01*
X001700Y015104D02*
X001660Y015104D01*
X001660Y015262D02*
X001700Y015262D01*
X001700Y015421D02*
X001660Y015421D01*
X001660Y015579D02*
X001700Y015579D01*
X002038Y015579D02*
X002745Y015579D01*
X002582Y015738D02*
X000610Y015738D01*
X000610Y015896D02*
X002535Y015896D01*
X002554Y016055D02*
X000610Y016055D01*
X000610Y016213D02*
X002654Y016213D01*
X002877Y016372D02*
X000610Y016372D01*
X000610Y016530D02*
X003035Y016530D01*
X003194Y016689D02*
X000610Y016689D01*
X000610Y016847D02*
X003352Y016847D01*
X003511Y017006D02*
X000610Y017006D01*
X000610Y017164D02*
X003669Y017164D01*
X003828Y017323D02*
X000610Y017323D01*
X000610Y017481D02*
X003986Y017481D01*
X004145Y017640D02*
X000610Y017640D01*
X000610Y017798D02*
X004303Y017798D01*
X004462Y017957D02*
X000610Y017957D01*
X000610Y018115D02*
X004620Y018115D01*
X004779Y018274D02*
X000610Y018274D01*
X000610Y018432D02*
X004937Y018432D01*
X005096Y018591D02*
X000610Y018591D01*
X000610Y018749D02*
X005254Y018749D01*
X005413Y018908D02*
X000610Y018908D01*
X000610Y019066D02*
X005571Y019066D01*
X005730Y019225D02*
X000610Y019225D01*
X000610Y019383D02*
X005888Y019383D01*
X006047Y019542D02*
X000610Y019542D01*
X000610Y019700D02*
X005267Y019700D01*
X005273Y019697D02*
X005541Y019625D01*
X005819Y019625D01*
X006087Y019697D01*
X006328Y019836D01*
X006524Y020032D01*
X006663Y020273D01*
X006735Y020541D01*
X006735Y020819D01*
X006663Y021087D01*
X006524Y021328D01*
X006328Y021524D01*
X006087Y021663D01*
X005819Y021735D01*
X005541Y021735D01*
X005273Y021663D01*
X005032Y021524D01*
X004836Y021328D01*
X004697Y021087D01*
X004625Y020819D01*
X004625Y020541D01*
X004697Y020273D01*
X004836Y020032D01*
X005032Y019836D01*
X005273Y019697D01*
X005009Y019859D02*
X000610Y019859D01*
X000610Y020017D02*
X004851Y020017D01*
X004753Y020176D02*
X000610Y020176D01*
X000610Y020334D02*
X001345Y020334D01*
X001349Y020330D02*
X002011Y020330D01*
X002480Y020799D01*
X002480Y021461D01*
X002111Y021831D01*
X002585Y022305D01*
X002585Y023055D01*
X002055Y023585D01*
X001305Y023585D01*
X000775Y023055D01*
X000775Y022305D01*
X001249Y021831D01*
X000880Y021461D01*
X000880Y020799D01*
X001349Y020330D01*
X001186Y020493D02*
X000610Y020493D01*
X000610Y020651D02*
X001028Y020651D01*
X000880Y020810D02*
X000610Y020810D01*
X000610Y020968D02*
X000880Y020968D01*
X000880Y021127D02*
X000610Y021127D01*
X000610Y021285D02*
X000880Y021285D01*
X000880Y021444D02*
X000610Y021444D01*
X000610Y021602D02*
X001021Y021602D01*
X001179Y021761D02*
X000610Y021761D01*
X000610Y021919D02*
X001161Y021919D01*
X001003Y022078D02*
X000610Y022078D01*
X000610Y022236D02*
X000844Y022236D01*
X000775Y022395D02*
X000610Y022395D01*
X000610Y022553D02*
X000775Y022553D01*
X000775Y022712D02*
X000610Y022712D01*
X000610Y022870D02*
X000775Y022870D01*
X000775Y023029D02*
X000610Y023029D01*
X000610Y023187D02*
X000907Y023187D01*
X001066Y023346D02*
X000610Y023346D01*
X000610Y023504D02*
X001224Y023504D01*
X000901Y023663D02*
X000610Y023663D01*
X001459Y023663D02*
X005452Y023663D01*
X005294Y023821D02*
X001802Y023821D01*
X001972Y023980D02*
X004135Y023980D01*
X003727Y024138D02*
X002085Y024138D01*
X002169Y024297D02*
X002335Y024297D01*
X002216Y024455D02*
X002212Y024455D01*
X002205Y024931D02*
X002226Y024931D01*
X002162Y025089D02*
X002361Y025089D01*
X002071Y025248D02*
X007640Y025248D01*
X007640Y025089D02*
X007459Y025089D01*
X007439Y025103D02*
X007370Y025139D01*
X007296Y025163D01*
X007219Y025175D01*
X007180Y025175D01*
X007180Y024680D01*
X007675Y024680D01*
X007675Y024719D01*
X007663Y024796D01*
X007639Y024870D01*
X007603Y024939D01*
X007558Y025002D01*
X007502Y025058D01*
X007439Y025103D01*
X007608Y024931D02*
X007699Y024931D01*
X007667Y024772D02*
X007824Y024772D01*
X007830Y024614D02*
X007671Y024614D01*
X007675Y024641D02*
X007675Y024680D01*
X007180Y024680D01*
X007180Y024680D01*
X007180Y024680D01*
X007180Y024185D01*
X007219Y024185D01*
X007296Y024197D01*
X007370Y024221D01*
X007439Y024257D01*
X007502Y024302D01*
X007558Y024358D01*
X007603Y024421D01*
X007639Y024490D01*
X007663Y024564D01*
X007675Y024641D01*
X007710Y024455D02*
X007621Y024455D01*
X007552Y024297D02*
X007494Y024297D01*
X007393Y024138D02*
X005967Y024138D01*
X005967Y024165D02*
X006393Y024165D01*
X006695Y024467D01*
X006695Y024578D01*
X006697Y024564D01*
X006721Y024490D01*
X006757Y024421D01*
X006802Y024358D01*
X006858Y024302D01*
X006921Y024257D01*
X006990Y024221D01*
X007064Y024197D01*
X007141Y024185D01*
X007180Y024185D01*
X007180Y024680D01*
X007180Y024680D01*
X007180Y025175D01*
X007141Y025175D01*
X007064Y025163D01*
X006990Y025139D01*
X006921Y025103D01*
X006858Y025058D01*
X006802Y025002D01*
X006757Y024939D01*
X006721Y024870D01*
X006697Y024796D01*
X006695Y024782D01*
X006695Y024893D01*
X006393Y025195D01*
X005967Y025195D01*
X005665Y024893D01*
X005665Y024467D01*
X005967Y024165D01*
X005835Y024297D02*
X005808Y024297D01*
X005677Y024455D02*
X005650Y024455D01*
X005665Y024614D02*
X004491Y024614D01*
X004269Y024772D02*
X005665Y024772D01*
X005702Y024931D02*
X004158Y024931D01*
X003999Y025089D02*
X005861Y025089D01*
X006128Y025773D02*
X006305Y025700D01*
X007055Y025700D01*
X007232Y025773D01*
X007278Y025819D01*
X007374Y025722D01*
X007573Y025640D01*
X007787Y025640D01*
X007986Y025722D01*
X008138Y025874D01*
X008220Y026073D01*
X008220Y026287D01*
X008138Y026486D01*
X007986Y026638D01*
X007787Y026720D01*
X007573Y026720D01*
X007374Y026638D01*
X007278Y026541D01*
X007232Y026587D01*
X007055Y026660D01*
X006305Y026660D01*
X006128Y026587D01*
X005993Y026452D01*
X005920Y026275D01*
X005920Y026085D01*
X005993Y025908D01*
X006128Y025773D01*
X006249Y025723D02*
X004111Y025723D01*
X004055Y025700D02*
X004232Y025773D01*
X004367Y025908D01*
X004440Y026085D01*
X004440Y026275D01*
X004367Y026452D01*
X004232Y026587D01*
X004055Y026660D01*
X003305Y026660D01*
X003128Y026587D01*
X002993Y026452D01*
X002920Y026275D01*
X002920Y026085D01*
X002993Y025908D01*
X003128Y025773D01*
X003305Y025700D01*
X004055Y025700D01*
X004340Y025882D02*
X006020Y025882D01*
X005938Y026040D02*
X004422Y026040D01*
X004440Y026199D02*
X005920Y026199D01*
X005954Y026357D02*
X004406Y026357D01*
X004303Y026516D02*
X006057Y026516D01*
X006128Y026773D02*
X005993Y026908D01*
X005920Y027085D01*
X005920Y027275D01*
X005993Y027452D01*
X006128Y027587D01*
X006305Y027660D01*
X007055Y027660D01*
X007232Y027587D01*
X007367Y027452D01*
X007440Y027275D01*
X007440Y027085D01*
X007367Y026908D01*
X007232Y026773D01*
X007055Y026700D01*
X006305Y026700D01*
X006128Y026773D01*
X006069Y026833D02*
X004263Y026833D01*
X004260Y026829D02*
X004311Y026880D01*
X004353Y026939D01*
X004386Y027003D01*
X004409Y027072D01*
X004420Y027144D01*
X004420Y027180D01*
X004420Y027216D01*
X004409Y027288D01*
X004386Y027357D01*
X004353Y027421D01*
X004311Y027480D01*
X004260Y027531D01*
X004201Y027573D01*
X004137Y027606D01*
X004068Y027629D01*
X003996Y027640D01*
X003680Y027640D01*
X003680Y027180D01*
X003680Y027180D01*
X004420Y027180D01*
X003680Y027180D01*
X003680Y027180D01*
X003680Y026720D01*
X003996Y026720D01*
X004068Y026731D01*
X004137Y026754D01*
X004201Y026787D01*
X004260Y026829D01*
X004380Y026991D02*
X005959Y026991D01*
X005920Y027150D02*
X004420Y027150D01*
X004402Y027308D02*
X005933Y027308D01*
X006008Y027467D02*
X004320Y027467D01*
X004232Y027773D02*
X004367Y027908D01*
X004440Y028085D01*
X004440Y028275D01*
X004367Y028452D01*
X004232Y028587D01*
X004055Y028660D01*
X003305Y028660D01*
X003128Y028587D01*
X002993Y028452D01*
X002920Y028275D01*
X002920Y028085D01*
X002993Y027908D01*
X003128Y027773D01*
X003305Y027700D01*
X004055Y027700D01*
X004232Y027773D01*
X004242Y027784D02*
X006118Y027784D01*
X006128Y027773D02*
X005993Y027908D01*
X005920Y028085D01*
X005920Y028275D01*
X005993Y028452D01*
X006128Y028587D01*
X006305Y028660D01*
X007055Y028660D01*
X007232Y028587D01*
X007334Y028485D01*
X007489Y028640D01*
X007680Y028640D01*
X007680Y028180D01*
X008140Y028180D01*
X008140Y027989D01*
X007871Y027720D01*
X007680Y027720D01*
X007680Y028180D01*
X007680Y028180D01*
X007680Y027720D01*
X007489Y027720D01*
X007334Y027875D01*
X007232Y027773D01*
X007055Y027700D01*
X006305Y027700D01*
X006128Y027773D01*
X006220Y027625D02*
X004079Y027625D01*
X003680Y027625D02*
X003680Y027625D01*
X003680Y027640D02*
X003364Y027640D01*
X003292Y027629D01*
X003223Y027606D01*
X003159Y027573D01*
X003100Y027531D01*
X003049Y027480D01*
X003007Y027421D01*
X002974Y027357D01*
X002951Y027288D01*
X002940Y027216D01*
X002940Y027180D01*
X003680Y027180D01*
X003680Y027180D01*
X003680Y027180D01*
X003680Y027640D01*
X003680Y027467D02*
X003680Y027467D01*
X003680Y027308D02*
X003680Y027308D01*
X003680Y027180D02*
X002940Y027180D01*
X002940Y027144D01*
X002951Y027072D01*
X002974Y027003D01*
X003007Y026939D01*
X003049Y026880D01*
X003100Y026829D01*
X003159Y026787D01*
X003223Y026754D01*
X003292Y026731D01*
X003364Y026720D01*
X003680Y026720D01*
X003680Y027180D01*
X003680Y027150D02*
X003680Y027150D01*
X003680Y026991D02*
X003680Y026991D01*
X003680Y026833D02*
X003680Y026833D01*
X003281Y027625D02*
X002195Y027625D01*
X002195Y027784D02*
X003118Y027784D01*
X002979Y027942D02*
X002129Y027942D01*
X001988Y028101D02*
X002920Y028101D01*
X002920Y028259D02*
X001695Y028259D01*
X001910Y028418D02*
X002979Y028418D01*
X003117Y028576D02*
X002050Y028576D01*
X002141Y028735D02*
X003221Y028735D01*
X003305Y028700D02*
X003128Y028773D01*
X002993Y028908D01*
X002920Y029085D01*
X002920Y029275D01*
X002993Y029452D01*
X003128Y029587D01*
X003305Y029660D01*
X004055Y029660D01*
X004232Y029587D01*
X004367Y029452D01*
X004440Y029275D01*
X004440Y029085D01*
X004367Y028908D01*
X004232Y028773D01*
X004055Y028700D01*
X003305Y028700D01*
X003008Y028893D02*
X002195Y028893D01*
X002235Y029052D02*
X002934Y029052D01*
X002920Y029210D02*
X002235Y029210D01*
X002222Y029369D02*
X002959Y029369D01*
X003068Y029527D02*
X002179Y029527D01*
X002106Y029686D02*
X009380Y029686D01*
X009380Y029844D02*
X002008Y029844D01*
X001372Y028101D02*
X000610Y028101D01*
X000610Y028259D02*
X000665Y028259D01*
X000610Y027942D02*
X001231Y027942D01*
X001165Y027784D02*
X000610Y027784D01*
X000610Y027625D02*
X001165Y027625D01*
X001211Y027467D02*
X000610Y027467D01*
X000610Y027308D02*
X001324Y027308D01*
X001421Y027150D02*
X000610Y027150D01*
X000610Y026991D02*
X001263Y026991D01*
X001165Y026833D02*
X000610Y026833D01*
X000610Y026674D02*
X001165Y026674D01*
X001165Y026516D02*
X000610Y026516D01*
X000610Y026357D02*
X001275Y026357D01*
X001433Y026199D02*
X000610Y026199D01*
X000610Y026040D02*
X002938Y026040D01*
X002920Y026199D02*
X001927Y026199D01*
X002085Y026357D02*
X002954Y026357D01*
X003057Y026516D02*
X002195Y026516D01*
X002195Y026674D02*
X007462Y026674D01*
X007291Y026833D02*
X009782Y026833D01*
X009624Y026991D02*
X007401Y026991D01*
X007440Y027150D02*
X009465Y027150D01*
X009307Y027308D02*
X007427Y027308D01*
X007352Y027467D02*
X009148Y027467D01*
X008990Y027625D02*
X007140Y027625D01*
X007242Y027784D02*
X007426Y027784D01*
X007680Y027784D02*
X007680Y027784D01*
X007680Y027942D02*
X007680Y027942D01*
X007680Y028101D02*
X007680Y028101D01*
X007680Y028259D02*
X007680Y028259D01*
X007680Y028418D02*
X007680Y028418D01*
X007680Y028576D02*
X007680Y028576D01*
X007426Y028576D02*
X007243Y028576D01*
X007139Y028735D02*
X007447Y028735D01*
X007934Y028576D02*
X008039Y028576D01*
X008093Y028418D02*
X008197Y028418D01*
X008140Y028259D02*
X008356Y028259D01*
X008514Y028101D02*
X008140Y028101D01*
X008093Y027942D02*
X008673Y027942D01*
X008831Y027784D02*
X007934Y027784D01*
X007898Y026674D02*
X009941Y026674D01*
X010099Y026516D02*
X008108Y026516D01*
X008191Y026357D02*
X010295Y026357D01*
X010728Y025723D02*
X007987Y025723D01*
X008141Y025882D02*
X010887Y025882D01*
X011045Y026040D02*
X008207Y026040D01*
X008220Y026199D02*
X011140Y026199D01*
X011169Y026357D02*
X011065Y026357D01*
X010905Y027150D02*
X010455Y027150D01*
X010490Y027221D02*
X010564Y027197D01*
X010641Y027185D01*
X010680Y027185D01*
X010680Y027680D01*
X010680Y027680D01*
X010680Y027680D01*
X010185Y027680D01*
X010185Y027719D01*
X010197Y027796D01*
X010221Y027870D01*
X010257Y027939D01*
X010302Y028002D01*
X010358Y028058D01*
X010421Y028103D01*
X010490Y028139D01*
X010564Y028163D01*
X010641Y028175D01*
X010680Y028175D01*
X010680Y027680D01*
X010185Y027680D01*
X010185Y027641D01*
X010197Y027564D01*
X010221Y027490D01*
X010257Y027421D01*
X010302Y027358D01*
X010358Y027302D01*
X010421Y027257D01*
X010490Y027221D01*
X010352Y027308D02*
X010297Y027308D01*
X010233Y027467D02*
X010138Y027467D01*
X010188Y027625D02*
X009980Y027625D01*
X009821Y027784D02*
X010195Y027784D01*
X010259Y027942D02*
X009663Y027942D01*
X009504Y028101D02*
X010417Y028101D01*
X010680Y028101D02*
X010680Y028101D01*
X010680Y027942D02*
X010680Y027942D01*
X010680Y027784D02*
X010680Y027784D01*
X010680Y027625D02*
X010680Y027625D01*
X010680Y027467D02*
X010680Y027467D01*
X010680Y027308D02*
X010680Y027308D01*
X011008Y027308D02*
X011324Y027308D01*
X011165Y027467D02*
X011127Y027467D01*
X011165Y027784D02*
X011165Y027784D01*
X011214Y027942D02*
X011101Y027942D01*
X010943Y028101D02*
X011372Y028101D01*
X011411Y028893D02*
X011999Y028893D01*
X012160Y028893D02*
X012200Y028893D01*
X012200Y029052D02*
X012160Y029052D01*
X012160Y029210D02*
X012200Y029210D01*
X012200Y029369D02*
X012160Y029369D01*
X012160Y029527D02*
X012200Y029527D01*
X012200Y029686D02*
X013160Y029686D01*
X013200Y029686D02*
X014160Y029686D01*
X014160Y029527D02*
X014200Y029527D01*
X014200Y029369D02*
X014160Y029369D01*
X014160Y029210D02*
X014200Y029210D01*
X014200Y029052D02*
X014160Y029052D01*
X014160Y028893D02*
X014200Y028893D01*
X014361Y028893D02*
X014949Y028893D01*
X014753Y029052D02*
X014574Y029052D01*
X014657Y029210D02*
X014679Y029210D01*
X013999Y028893D02*
X013361Y028893D01*
X013200Y028893D02*
X013160Y028893D01*
X013160Y029052D02*
X013200Y029052D01*
X013200Y029210D02*
X013160Y029210D01*
X013160Y029369D02*
X013200Y029369D01*
X013200Y029527D02*
X013160Y029527D01*
X012680Y029527D02*
X012680Y029527D01*
X012680Y029369D02*
X012680Y029369D01*
X012657Y029210D02*
X012703Y029210D01*
X012786Y029052D02*
X012574Y029052D01*
X012361Y028893D02*
X012999Y028893D01*
X012922Y028101D02*
X011988Y028101D01*
X012146Y027942D02*
X012763Y027942D01*
X012700Y027784D02*
X012195Y027784D01*
X012195Y027625D02*
X012700Y027625D01*
X012715Y027467D02*
X012195Y027467D01*
X012036Y027308D02*
X012873Y027308D01*
X012841Y026991D02*
X012364Y026991D01*
X012522Y026833D02*
X012720Y026833D01*
X012720Y026674D02*
X012681Y026674D01*
X013180Y026674D02*
X013180Y026674D01*
X013180Y026516D02*
X013180Y026516D01*
X013180Y026357D02*
X013180Y026357D01*
X013156Y026199D02*
X014461Y026199D01*
X014475Y026185D02*
X014680Y026185D01*
X014885Y026185D01*
X015175Y026475D01*
X015175Y026553D01*
X015243Y026388D01*
X015388Y026243D01*
X015578Y026165D01*
X015782Y026165D01*
X015972Y026243D01*
X016117Y026388D01*
X016195Y026578D01*
X016195Y026782D01*
X016117Y026972D01*
X015972Y027117D01*
X015782Y027195D01*
X015578Y027195D01*
X015388Y027117D01*
X015243Y026972D01*
X015175Y026807D01*
X015175Y026885D01*
X014885Y027175D01*
X014680Y027175D01*
X014680Y026680D01*
X014680Y026680D01*
X014680Y026185D01*
X014680Y026680D01*
X014680Y026680D01*
X014680Y026680D01*
X014185Y026680D01*
X014185Y026885D01*
X014475Y027175D01*
X014680Y027175D01*
X014680Y026680D01*
X014185Y026680D01*
X014185Y026475D01*
X014475Y026185D01*
X014680Y026199D02*
X014680Y026199D01*
X014680Y026357D02*
X014680Y026357D01*
X014680Y026516D02*
X014680Y026516D01*
X014680Y026674D02*
X014680Y026674D01*
X014680Y026833D02*
X014680Y026833D01*
X014680Y026991D02*
X014680Y026991D01*
X014680Y027150D02*
X014680Y027150D01*
X014450Y027150D02*
X012205Y027150D01*
X013180Y026991D02*
X013180Y026991D01*
X013180Y026833D02*
X013180Y026833D01*
X013519Y026991D02*
X014291Y026991D01*
X014185Y026833D02*
X013640Y026833D01*
X013640Y026674D02*
X014185Y026674D01*
X014185Y026516D02*
X013640Y026516D01*
X013508Y026357D02*
X014303Y026357D01*
X014899Y026199D02*
X015497Y026199D01*
X015275Y026357D02*
X015057Y026357D01*
X015175Y026516D02*
X015191Y026516D01*
X015175Y026833D02*
X015186Y026833D01*
X015263Y026991D02*
X015069Y026991D01*
X014910Y027150D02*
X015468Y027150D01*
X015892Y027150D02*
X019750Y027150D01*
X019750Y027308D02*
X013487Y027308D01*
X013438Y028101D02*
X016830Y028101D01*
X016830Y028259D02*
X009346Y028259D01*
X009187Y028418D02*
X016830Y028418D01*
X016830Y028576D02*
X010378Y028576D01*
X010686Y028735D02*
X016830Y028735D01*
X016830Y028893D02*
X016411Y028893D01*
X016607Y029052D02*
X016753Y029052D01*
X017530Y028893D02*
X018165Y028893D01*
X018125Y029052D02*
X017607Y029052D01*
X017681Y029210D02*
X018125Y029210D01*
X018138Y029369D02*
X017700Y029369D01*
X017700Y029527D02*
X018181Y029527D01*
X018254Y029686D02*
X017700Y029686D01*
X017700Y029844D02*
X018352Y029844D01*
X018219Y028735D02*
X017530Y028735D01*
X017530Y028576D02*
X018310Y028576D01*
X018450Y028418D02*
X017530Y028418D01*
X017530Y028259D02*
X018665Y028259D01*
X019695Y028259D02*
X019750Y028259D01*
X019750Y028101D02*
X017530Y028101D01*
X017530Y027942D02*
X019750Y027942D01*
X019750Y027784D02*
X017530Y027784D01*
X017530Y027625D02*
X019750Y027625D01*
X019750Y027467D02*
X017462Y027467D01*
X017380Y026357D02*
X018980Y026357D01*
X018905Y026326D02*
X018776Y026197D01*
X018706Y026029D01*
X018706Y025331D01*
X018776Y025163D01*
X018905Y025034D01*
X019073Y024964D01*
X019255Y024964D01*
X019424Y025034D01*
X019552Y025163D01*
X019622Y025331D01*
X019622Y026029D01*
X019552Y026197D01*
X019424Y026326D01*
X019255Y026396D01*
X019073Y026396D01*
X018905Y026326D01*
X018778Y026199D02*
X017582Y026199D01*
X017649Y026040D02*
X018711Y026040D01*
X018706Y025882D02*
X017654Y025882D01*
X017654Y025723D02*
X018706Y025723D01*
X018706Y025565D02*
X017654Y025565D01*
X017654Y025406D02*
X018706Y025406D01*
X018741Y025248D02*
X017619Y025248D01*
X017510Y025089D02*
X018850Y025089D01*
X019479Y025089D02*
X019750Y025089D01*
X019750Y024931D02*
X013926Y024931D01*
X014052Y024765D02*
X013816Y024667D01*
X013635Y024486D01*
X013538Y024250D01*
X013538Y023110D01*
X013635Y022874D01*
X013816Y022693D01*
X014052Y022595D01*
X014308Y022595D01*
X014544Y022693D01*
X014725Y022874D01*
X014822Y023110D01*
X014822Y024250D01*
X014725Y024486D01*
X014544Y024667D01*
X014308Y024765D01*
X014052Y024765D01*
X013767Y024772D02*
X019750Y024772D01*
X019750Y024614D02*
X014598Y024614D01*
X014738Y024455D02*
X019750Y024455D01*
X019750Y024297D02*
X014803Y024297D01*
X014822Y024138D02*
X019750Y024138D01*
X019750Y023980D02*
X014822Y023980D01*
X014822Y023821D02*
X019750Y023821D01*
X019750Y023663D02*
X014822Y023663D01*
X014822Y023504D02*
X019750Y023504D01*
X019750Y023346D02*
X014822Y023346D01*
X014822Y023187D02*
X019750Y023187D01*
X019750Y023029D02*
X014789Y023029D01*
X014721Y022870D02*
X019750Y022870D01*
X019750Y022712D02*
X014563Y022712D01*
X013797Y022712D02*
X010912Y022712D01*
X011035Y022553D02*
X019750Y022553D01*
X019750Y022395D02*
X019258Y022395D01*
X019071Y022395D02*
X017289Y022395D01*
X017287Y022396D02*
X017105Y022396D01*
X016936Y022326D01*
X016808Y022197D01*
X016738Y022029D01*
X016738Y021331D01*
X016808Y021163D01*
X016936Y021034D01*
X017105Y020964D01*
X017287Y020964D01*
X017455Y021034D01*
X017584Y021163D01*
X017654Y021331D01*
X017654Y022029D01*
X017584Y022197D01*
X017455Y022326D01*
X017287Y022396D01*
X017102Y022395D02*
X011149Y022395D01*
X011195Y022236D02*
X016847Y022236D01*
X016758Y022078D02*
X011195Y022078D01*
X011129Y021919D02*
X016738Y021919D01*
X016738Y021761D02*
X010989Y021761D01*
X010570Y021285D02*
X016757Y021285D01*
X016738Y021444D02*
X010411Y021444D01*
X010253Y021602D02*
X016738Y021602D01*
X016844Y021127D02*
X010728Y021127D01*
X010887Y020968D02*
X017096Y020968D01*
X017296Y020968D02*
X017723Y020968D01*
X017565Y020810D02*
X011045Y020810D01*
X010371Y021761D02*
X010256Y021761D01*
X009900Y022395D02*
X009890Y022395D01*
X010006Y022553D02*
X010325Y022553D01*
X010448Y022712D02*
X010030Y022712D01*
X010030Y022870D02*
X010290Y022870D01*
X010185Y023029D02*
X010030Y023029D01*
X010030Y023187D02*
X010185Y023187D01*
X010185Y023346D02*
X010037Y023346D01*
X010249Y023504D02*
X010304Y023504D01*
X010408Y023663D02*
X010463Y023663D01*
X010566Y023821D02*
X013538Y023821D01*
X013538Y023663D02*
X010897Y023663D01*
X010680Y023663D02*
X010680Y023663D01*
X010680Y023504D02*
X010680Y023504D01*
X010680Y023346D02*
X010680Y023346D01*
X010680Y023187D02*
X010680Y023187D01*
X011056Y023504D02*
X013538Y023504D01*
X013538Y023346D02*
X011175Y023346D01*
X011175Y023187D02*
X013538Y023187D01*
X013571Y023029D02*
X011175Y023029D01*
X011070Y022870D02*
X013639Y022870D01*
X013538Y023980D02*
X012975Y023980D01*
X013133Y024138D02*
X013538Y024138D01*
X013557Y024297D02*
X013292Y024297D01*
X013450Y024455D02*
X013622Y024455D01*
X013609Y024614D02*
X013762Y024614D01*
X014084Y025089D02*
X016881Y025089D01*
X016773Y025248D02*
X014243Y025248D01*
X013315Y026040D02*
X016743Y026040D01*
X016809Y026199D02*
X015863Y026199D01*
X016085Y026357D02*
X017012Y026357D01*
X016169Y026516D02*
X019750Y026516D01*
X019750Y026674D02*
X016195Y026674D01*
X016174Y026833D02*
X019750Y026833D01*
X019750Y026991D02*
X016097Y026991D01*
X015949Y028893D02*
X015411Y028893D01*
X015607Y029052D02*
X015753Y029052D01*
X013786Y029052D02*
X013574Y029052D01*
X013657Y029210D02*
X013703Y029210D01*
X013680Y029369D02*
X013680Y029369D01*
X013680Y029527D02*
X013680Y029527D01*
X013680Y029844D02*
X013680Y029844D01*
X012680Y029844D02*
X012680Y029844D01*
X011703Y029210D02*
X011681Y029210D01*
X011607Y029052D02*
X011786Y029052D01*
X010949Y028893D02*
X010844Y028893D01*
X009982Y028576D02*
X009029Y028576D01*
X008870Y028735D02*
X009674Y028735D01*
X009516Y028893D02*
X008712Y028893D01*
X008553Y029052D02*
X009442Y029052D01*
X009380Y029210D02*
X008395Y029210D01*
X008160Y029369D02*
X009380Y029369D01*
X009380Y029527D02*
X008012Y029527D01*
X007348Y029527D02*
X007292Y029527D01*
X006221Y028735D02*
X004139Y028735D01*
X004243Y028576D02*
X006117Y028576D01*
X005979Y028418D02*
X004381Y028418D01*
X004440Y028259D02*
X005920Y028259D01*
X005920Y028101D02*
X004440Y028101D01*
X004381Y027942D02*
X005979Y027942D01*
X006008Y028893D02*
X004352Y028893D01*
X004426Y029052D02*
X005934Y029052D01*
X005920Y029210D02*
X004440Y029210D01*
X004401Y029369D02*
X005959Y029369D01*
X006068Y029527D02*
X004292Y029527D01*
X003040Y027467D02*
X002149Y027467D01*
X002036Y027308D02*
X002958Y027308D01*
X002940Y027150D02*
X001939Y027150D01*
X002097Y026991D02*
X002980Y026991D01*
X003097Y026833D02*
X002195Y026833D01*
X003020Y025882D02*
X000610Y025882D01*
X000610Y025723D02*
X000996Y025723D01*
X001364Y025723D02*
X003249Y025723D01*
X003361Y025089D02*
X002999Y025089D01*
X003134Y024931D02*
X003202Y024931D01*
X003177Y024455D02*
X003144Y024455D01*
X003025Y024297D02*
X003335Y024297D01*
X003517Y023500D02*
X003216Y023375D01*
X002985Y023144D01*
X002860Y022843D01*
X002860Y022517D01*
X002985Y022216D01*
X003216Y021985D01*
X003517Y021860D01*
X003843Y021860D01*
X004144Y021985D01*
X004375Y022216D01*
X004500Y022517D01*
X004500Y022843D01*
X004375Y023144D01*
X004144Y023375D01*
X003843Y023500D01*
X003517Y023500D01*
X003186Y023346D02*
X002294Y023346D01*
X002136Y023504D02*
X005611Y023504D01*
X005823Y023346D02*
X004174Y023346D01*
X004333Y023187D02*
X007027Y023187D01*
X006937Y023029D02*
X004423Y023029D01*
X004489Y022870D02*
X006871Y022870D01*
X006860Y022712D02*
X004500Y022712D01*
X004500Y022553D02*
X006860Y022553D01*
X006911Y022395D02*
X004449Y022395D01*
X004384Y022236D02*
X006976Y022236D01*
X007123Y022078D02*
X004237Y022078D01*
X003986Y021919D02*
X007374Y021919D01*
X007949Y021444D02*
X006408Y021444D01*
X006549Y021285D02*
X007790Y021285D01*
X007632Y021127D02*
X006640Y021127D01*
X006695Y020968D02*
X007473Y020968D01*
X007315Y020810D02*
X006735Y020810D01*
X006735Y020651D02*
X007156Y020651D01*
X006998Y020493D02*
X006722Y020493D01*
X006680Y020334D02*
X006839Y020334D01*
X006681Y020176D02*
X006607Y020176D01*
X006522Y020017D02*
X006509Y020017D01*
X006364Y019859D02*
X006351Y019859D01*
X006205Y019700D02*
X006093Y019700D01*
X004952Y021444D02*
X002480Y021444D01*
X002480Y021285D02*
X004811Y021285D01*
X004720Y021127D02*
X002480Y021127D01*
X002480Y020968D02*
X004665Y020968D01*
X004625Y020810D02*
X002480Y020810D01*
X002332Y020651D02*
X004625Y020651D01*
X004638Y020493D02*
X002174Y020493D01*
X002015Y020334D02*
X004680Y020334D01*
X005167Y021602D02*
X002339Y021602D01*
X002181Y021761D02*
X008266Y021761D01*
X008424Y021919D02*
X007986Y021919D01*
X008237Y022078D02*
X008583Y022078D01*
X008741Y022236D02*
X008384Y022236D01*
X008449Y022395D02*
X008900Y022395D01*
X009058Y022553D02*
X008500Y022553D01*
X008500Y022712D02*
X009217Y022712D01*
X009330Y022870D02*
X008489Y022870D01*
X008423Y023029D02*
X009330Y023029D01*
X009330Y023187D02*
X008333Y023187D01*
X008174Y023346D02*
X009330Y023346D01*
X009330Y023504D02*
X007749Y023504D01*
X007908Y023663D02*
X009330Y023663D01*
X009360Y023821D02*
X008066Y023821D01*
X008530Y024614D02*
X009619Y024614D01*
X009777Y024772D02*
X008536Y024772D01*
X008661Y024931D02*
X009936Y024931D01*
X010094Y025089D02*
X008720Y025089D01*
X008720Y025248D02*
X010253Y025248D01*
X010411Y025406D02*
X008671Y025406D01*
X008559Y025565D02*
X010570Y025565D01*
X009741Y022236D02*
X009731Y022236D01*
X009583Y022078D02*
X009573Y022078D01*
X009424Y021919D02*
X009414Y021919D01*
X008107Y021602D02*
X006193Y021602D01*
X006525Y024297D02*
X006866Y024297D01*
X006739Y024455D02*
X006683Y024455D01*
X006658Y024931D02*
X006752Y024931D01*
X006901Y025089D02*
X006499Y025089D01*
X007111Y025723D02*
X007373Y025723D01*
X007689Y025406D02*
X001946Y025406D01*
X001758Y025565D02*
X007801Y025565D01*
X007180Y025089D02*
X007180Y025089D01*
X007180Y024931D02*
X007180Y024931D01*
X007180Y024772D02*
X007180Y024772D01*
X007180Y024614D02*
X007180Y024614D01*
X007180Y024455D02*
X007180Y024455D01*
X007180Y024297D02*
X007180Y024297D01*
X009607Y019066D02*
X019750Y019066D01*
X019750Y018908D02*
X009769Y018908D01*
X009865Y018749D02*
X010828Y018749D01*
X010776Y018697D02*
X010905Y018826D01*
X011073Y018896D01*
X011255Y018896D01*
X011424Y018826D01*
X011552Y018697D01*
X011622Y018529D01*
X011622Y017831D01*
X011552Y017663D01*
X011424Y017534D01*
X011255Y017464D01*
X011073Y017464D01*
X010905Y017534D01*
X010776Y017663D01*
X010706Y017831D01*
X010706Y018529D01*
X010776Y018697D01*
X010732Y018591D02*
X009931Y018591D01*
X009934Y018432D02*
X010706Y018432D01*
X010706Y018274D02*
X009934Y018274D01*
X009934Y018115D02*
X010706Y018115D01*
X010706Y017957D02*
X009934Y017957D01*
X009934Y017798D02*
X010720Y017798D01*
X010800Y017640D02*
X009877Y017640D01*
X009798Y017481D02*
X011033Y017481D01*
X011295Y017481D02*
X013558Y017481D01*
X013558Y017323D02*
X009639Y017323D01*
X011529Y017640D02*
X014112Y017640D01*
X014248Y017640D02*
X017002Y017640D01*
X017002Y017733D02*
X017002Y017423D01*
X017082Y017123D01*
X017237Y016854D01*
X017457Y016635D01*
X017725Y016480D01*
X018025Y016400D01*
X018335Y016400D01*
X018635Y016480D01*
X018903Y016635D01*
X019123Y016854D01*
X019278Y017123D01*
X019358Y017423D01*
X019358Y017733D01*
X019278Y018032D01*
X019123Y018301D01*
X018903Y018520D01*
X018635Y018675D01*
X018335Y018756D01*
X018025Y018756D01*
X017725Y018675D01*
X017457Y018520D01*
X017237Y018301D01*
X017082Y018032D01*
X017002Y017733D01*
X017019Y017798D02*
X014802Y017798D01*
X014802Y017957D02*
X017062Y017957D01*
X017130Y018115D02*
X014802Y018115D01*
X014785Y018274D02*
X017221Y018274D01*
X017368Y018432D02*
X014721Y018432D01*
X014592Y018591D02*
X017578Y018591D01*
X018000Y018749D02*
X011500Y018749D01*
X011597Y018591D02*
X013768Y018591D01*
X013639Y018432D02*
X011622Y018432D01*
X011622Y018274D02*
X013575Y018274D01*
X013558Y018115D02*
X011622Y018115D01*
X011622Y017957D02*
X013558Y017957D01*
X013558Y017798D02*
X011608Y017798D01*
X013472Y016847D02*
X013694Y016847D01*
X013605Y016689D02*
X013886Y016689D01*
X013851Y016530D02*
X013660Y016530D01*
X013660Y016372D02*
X013700Y016372D01*
X013700Y016213D02*
X013660Y016213D01*
X013660Y016055D02*
X013700Y016055D01*
X013660Y015896D02*
X013785Y015896D01*
X013632Y015738D02*
X013944Y015738D01*
X013538Y015579D02*
X019750Y015579D01*
X019750Y015738D02*
X014416Y015738D01*
X014575Y015896D02*
X019750Y015896D01*
X019750Y016055D02*
X014660Y016055D01*
X014660Y016213D02*
X019750Y016213D01*
X019750Y016372D02*
X014660Y016372D01*
X014509Y016530D02*
X017638Y016530D01*
X017403Y016689D02*
X014474Y016689D01*
X014666Y016847D02*
X017245Y016847D01*
X017150Y017006D02*
X014759Y017006D01*
X014799Y017164D02*
X017071Y017164D01*
X017029Y017323D02*
X014802Y017323D01*
X014802Y017481D02*
X017002Y017481D01*
X018360Y018749D02*
X019750Y018749D01*
X019750Y018591D02*
X018782Y018591D01*
X018992Y018432D02*
X019750Y018432D01*
X019750Y018274D02*
X019139Y018274D01*
X019230Y018115D02*
X019750Y018115D01*
X019750Y017957D02*
X019298Y017957D01*
X019341Y017798D02*
X019750Y017798D01*
X019750Y017640D02*
X019358Y017640D01*
X019358Y017481D02*
X019750Y017481D01*
X019750Y017323D02*
X019331Y017323D01*
X019289Y017164D02*
X019750Y017164D01*
X019750Y017006D02*
X019210Y017006D01*
X019115Y016847D02*
X019750Y016847D01*
X019750Y016689D02*
X018957Y016689D01*
X018722Y016530D02*
X019750Y016530D01*
X019750Y020176D02*
X017921Y020176D01*
X018079Y020334D02*
X019750Y020334D01*
X019750Y020493D02*
X018238Y020493D01*
X018396Y020651D02*
X019750Y020651D01*
X019750Y020810D02*
X018555Y020810D01*
X018713Y020968D02*
X019064Y020968D01*
X019264Y020968D02*
X019750Y020968D01*
X019750Y021127D02*
X019516Y021127D01*
X019603Y021285D02*
X019750Y021285D01*
X019750Y021444D02*
X019622Y021444D01*
X019622Y021602D02*
X019750Y021602D01*
X019750Y021761D02*
X019622Y021761D01*
X019622Y021919D02*
X019750Y021919D01*
X019750Y022078D02*
X019602Y022078D01*
X019513Y022236D02*
X019750Y022236D01*
X018815Y022236D02*
X017545Y022236D01*
X017633Y022078D02*
X018727Y022078D01*
X018674Y021919D02*
X017654Y021919D01*
X017654Y021761D02*
X018516Y021761D01*
X018357Y021602D02*
X017654Y021602D01*
X017654Y021444D02*
X018199Y021444D01*
X018040Y021285D02*
X017634Y021285D01*
X017547Y021127D02*
X017882Y021127D01*
X019587Y025248D02*
X019750Y025248D01*
X019750Y025406D02*
X019622Y025406D01*
X019622Y025565D02*
X019750Y025565D01*
X019750Y025723D02*
X019622Y025723D01*
X019622Y025882D02*
X019750Y025882D01*
X019750Y026040D02*
X019617Y026040D01*
X019551Y026199D02*
X019750Y026199D01*
X019750Y026357D02*
X019348Y026357D01*
X014248Y018591D02*
X014112Y018591D01*
X014112Y018432D02*
X014248Y018432D01*
X014248Y018274D02*
X014112Y018274D01*
X014112Y018115D02*
X014248Y018115D01*
X014248Y017957D02*
X014112Y017957D01*
X014112Y017798D02*
X014248Y017798D01*
X010951Y012885D02*
X010563Y012885D01*
X010589Y012726D02*
X010771Y012726D01*
X010705Y012568D02*
X010655Y012568D01*
X010660Y012409D02*
X010700Y012409D01*
X010700Y012251D02*
X010660Y012251D01*
X010660Y012092D02*
X010700Y012092D01*
X010700Y011934D02*
X010660Y011934D01*
X010648Y011775D02*
X010712Y011775D01*
X010785Y011617D02*
X010575Y011617D01*
X010367Y011458D02*
X010993Y011458D01*
X011357Y010666D02*
X005689Y010666D01*
X005848Y010507D02*
X011285Y010507D01*
X011286Y010349D02*
X006006Y010349D01*
X006479Y009873D02*
X006923Y009873D01*
X006766Y009715D02*
X006594Y009715D01*
X006660Y009556D02*
X006700Y009556D01*
X006700Y009398D02*
X006660Y009398D01*
X006660Y009239D02*
X006700Y009239D01*
X006700Y009081D02*
X006660Y009081D01*
X006660Y008922D02*
X006700Y008922D01*
X006717Y008764D02*
X006643Y008764D01*
X006610Y008605D02*
X006564Y008605D01*
X006351Y007020D02*
X004181Y007020D01*
X004140Y007061D02*
X003895Y007202D01*
X003622Y007275D01*
X003338Y007275D01*
X003065Y007202D01*
X002820Y007061D01*
X002620Y006861D01*
X002478Y006615D01*
X002405Y006342D01*
X002405Y006059D01*
X002478Y005786D01*
X002620Y005540D01*
X002820Y005340D01*
X003065Y005199D01*
X003338Y005125D01*
X003622Y005125D01*
X003895Y005199D01*
X004140Y005340D01*
X004340Y005540D01*
X004482Y005786D01*
X004555Y006059D01*
X004555Y006342D01*
X004482Y006615D01*
X004340Y006861D01*
X004140Y007061D01*
X003936Y007179D02*
X004437Y007179D01*
X004339Y006862D02*
X006210Y006862D01*
X006210Y006703D02*
X004431Y006703D01*
X004501Y006545D02*
X006210Y006545D01*
X006305Y006386D02*
X004543Y006386D01*
X004555Y006228D02*
X006211Y006228D01*
X006160Y006069D02*
X004555Y006069D01*
X004515Y005911D02*
X005134Y005911D01*
X004798Y005752D02*
X004462Y005752D01*
X004371Y005594D02*
X004640Y005594D01*
X004530Y005435D02*
X004235Y005435D01*
X004030Y005277D02*
X004464Y005277D01*
X004420Y005118D02*
X000610Y005118D01*
X000610Y004960D02*
X004420Y004960D01*
X004420Y004801D02*
X000610Y004801D01*
X000610Y004643D02*
X003088Y004643D01*
X003124Y004659D02*
X003029Y004614D01*
X002941Y004559D01*
X002859Y004493D01*
X002785Y004420D01*
X002720Y004338D01*
X002665Y004249D01*
X002619Y004155D01*
X002585Y004057D01*
X002562Y003955D01*
X002553Y003879D01*
X003400Y003879D01*
X003400Y004726D01*
X003324Y004717D01*
X003222Y004694D01*
X003124Y004659D01*
X003400Y004643D02*
X003560Y004643D01*
X003560Y004726D02*
X003636Y004717D01*
X003738Y004694D01*
X003836Y004659D01*
X003931Y004614D01*
X004019Y004559D01*
X004101Y004493D01*
X004175Y004420D01*
X004240Y004338D01*
X004295Y004249D01*
X004341Y004155D01*
X004375Y004057D01*
X004398Y003955D01*
X004407Y003879D01*
X003560Y003879D01*
X003400Y003879D01*
X003400Y003719D01*
X002553Y003719D01*
X002562Y003643D01*
X002585Y003541D01*
X002619Y003442D01*
X002665Y003348D01*
X002720Y003260D01*
X002785Y003178D01*
X002859Y003104D01*
X002941Y003039D01*
X003029Y002984D01*
X003124Y002938D01*
X003222Y002904D01*
X003324Y002881D01*
X003400Y002872D01*
X003400Y003719D01*
X003560Y003719D01*
X003560Y003879D01*
X003560Y004726D01*
X003560Y004484D02*
X003400Y004484D01*
X003400Y004326D02*
X003560Y004326D01*
X003560Y004167D02*
X003400Y004167D01*
X003400Y004009D02*
X003560Y004009D01*
X003560Y003850D02*
X006331Y003850D01*
X006200Y003981D02*
X006481Y003700D01*
X006879Y003700D01*
X007160Y003981D01*
X007160Y004379D01*
X006879Y004660D01*
X006481Y004660D01*
X006200Y004379D01*
X006200Y003981D01*
X006200Y004009D02*
X004386Y004009D01*
X004335Y004167D02*
X004850Y004167D01*
X004681Y004326D02*
X004247Y004326D01*
X004110Y004484D02*
X004547Y004484D01*
X004481Y004643D02*
X003872Y004643D01*
X003400Y003850D02*
X000610Y003850D01*
X000610Y003692D02*
X001633Y003692D01*
X001545Y003533D02*
X000610Y003533D01*
X000610Y003375D02*
X001535Y003375D01*
X001591Y003216D02*
X001390Y003216D01*
X001770Y003058D02*
X001797Y003058D01*
X001953Y002899D02*
X001966Y002899D01*
X002075Y002741D02*
X002125Y002741D01*
X002165Y002582D02*
X002283Y002582D01*
X002207Y002424D02*
X002442Y002424D01*
X002600Y002265D02*
X002235Y002265D01*
X002235Y002107D02*
X002796Y002107D01*
X003103Y001948D02*
X002210Y001948D01*
X002797Y003058D02*
X002918Y003058D01*
X002956Y002899D02*
X003243Y002899D01*
X003400Y002899D02*
X003560Y002899D01*
X003560Y002872D02*
X003636Y002881D01*
X003738Y002904D01*
X003836Y002938D01*
X003931Y002984D01*
X004019Y003039D01*
X004101Y003104D01*
X004175Y003178D01*
X004240Y003260D01*
X004295Y003348D01*
X004341Y003442D01*
X004375Y003541D01*
X004398Y003643D01*
X004407Y003719D01*
X003560Y003719D01*
X003560Y002872D01*
X003717Y002899D02*
X005843Y002899D01*
X005785Y002741D02*
X003345Y002741D01*
X003523Y002582D02*
X005793Y002582D01*
X005878Y002424D02*
X003745Y002424D01*
X003822Y002265D02*
X007660Y002265D01*
X007722Y002107D02*
X003825Y002107D01*
X003757Y001948D02*
X007857Y001948D01*
X008503Y001948D02*
X008896Y001948D01*
X008748Y002107D02*
X008638Y002107D01*
X009160Y002107D02*
X009200Y002107D01*
X009200Y002265D02*
X009160Y002265D01*
X009160Y002424D02*
X009200Y002424D01*
X009200Y002582D02*
X009160Y002582D01*
X009160Y002741D02*
X009200Y002741D01*
X009200Y002899D02*
X009160Y002899D01*
X009160Y003058D02*
X009200Y003058D01*
X009200Y003216D02*
X009160Y003216D01*
X009160Y003375D02*
X009200Y003375D01*
X009160Y001948D02*
X009200Y001948D01*
X007819Y003375D02*
X004308Y003375D01*
X004372Y003533D02*
X007830Y003533D01*
X007830Y003692D02*
X004404Y003692D01*
X004205Y003216D02*
X007707Y003216D01*
X007660Y003058D02*
X006301Y003058D01*
X006059Y003058D02*
X004042Y003058D01*
X003560Y003058D02*
X003400Y003058D01*
X003400Y003216D02*
X003560Y003216D01*
X003560Y003375D02*
X003400Y003375D01*
X003400Y003533D02*
X003560Y003533D01*
X003560Y003692D02*
X003400Y003692D01*
X002755Y003216D02*
X002639Y003216D01*
X002652Y003375D02*
X002480Y003375D01*
X002588Y003533D02*
X002322Y003533D01*
X002227Y003692D02*
X002556Y003692D01*
X002574Y004009D02*
X000610Y004009D01*
X000610Y004167D02*
X002625Y004167D01*
X002713Y004326D02*
X000610Y004326D01*
X000610Y004484D02*
X002850Y004484D01*
X002930Y005277D02*
X000610Y005277D01*
X000610Y005435D02*
X002725Y005435D01*
X002589Y005594D02*
X000610Y005594D01*
X000610Y005752D02*
X002498Y005752D01*
X002445Y005911D02*
X000610Y005911D01*
X000610Y006069D02*
X002405Y006069D01*
X002405Y006228D02*
X000610Y006228D01*
X000610Y006386D02*
X002417Y006386D01*
X002459Y006545D02*
X000610Y006545D01*
X000610Y006703D02*
X002529Y006703D01*
X002621Y006862D02*
X000610Y006862D01*
X000610Y007020D02*
X002779Y007020D01*
X003024Y007179D02*
X000610Y007179D01*
X000610Y007337D02*
X001093Y007337D01*
X000878Y007496D02*
X000610Y007496D01*
X000610Y007654D02*
X000830Y007654D01*
X000830Y007813D02*
X000610Y007813D01*
X000610Y007971D02*
X000830Y007971D01*
X000830Y008130D02*
X000610Y008130D01*
X000610Y008288D02*
X000830Y008288D01*
X000830Y008447D02*
X000610Y008447D01*
X000610Y008605D02*
X000830Y008605D01*
X000830Y008764D02*
X000610Y008764D01*
X000610Y008922D02*
X000759Y008922D01*
X000700Y009081D02*
X000610Y009081D01*
X000610Y009239D02*
X000700Y009239D01*
X000719Y009398D02*
X000610Y009398D01*
X000610Y009556D02*
X000877Y009556D01*
X001533Y011458D02*
X002407Y011458D01*
X002249Y011617D02*
X001691Y011617D01*
X001850Y011775D02*
X001906Y011775D01*
X001867Y012568D02*
X001889Y012568D01*
X001730Y013677D02*
X005238Y013677D01*
X005073Y013836D02*
X002285Y013836D01*
X002222Y013994D02*
X004311Y013994D01*
X004203Y014153D02*
X002063Y014153D01*
X001730Y014153D02*
X001630Y014153D01*
X001630Y013994D02*
X001730Y013994D01*
X001730Y013836D02*
X001630Y013836D01*
X001297Y014153D02*
X000610Y014153D01*
X000610Y014311D02*
X004160Y014311D01*
X004160Y014470D02*
X000610Y014470D01*
X000610Y014628D02*
X004160Y014628D01*
X004160Y015104D02*
X003662Y015104D01*
X003788Y015262D02*
X004226Y015262D01*
X004330Y015421D02*
X003915Y015421D01*
X004074Y015579D02*
X004330Y015579D01*
X004330Y015738D02*
X004232Y015738D01*
X005030Y015579D02*
X005128Y015579D01*
X005232Y015738D02*
X005370Y015738D01*
X006372Y015421D02*
X006408Y015421D01*
X005771Y012726D02*
X005555Y012726D01*
X005629Y012568D02*
X005705Y012568D01*
X005700Y012409D02*
X005640Y012409D01*
X005640Y012251D02*
X005700Y012251D01*
X005700Y012092D02*
X005640Y012092D01*
X005640Y011934D02*
X005700Y011934D01*
X005712Y011775D02*
X005623Y011775D01*
X005622Y011617D02*
X005543Y011617D01*
X005463Y011458D02*
X005308Y011458D01*
X005180Y011458D02*
X005180Y011458D01*
X005052Y011458D02*
X003397Y011458D01*
X003555Y011300D02*
X005305Y011300D01*
X005180Y011617D02*
X005180Y011617D01*
X005180Y011775D02*
X005180Y011775D01*
X005180Y011934D02*
X005180Y011934D01*
X005180Y012092D02*
X005180Y012092D01*
X005180Y012251D02*
X005180Y012251D01*
X005180Y012409D02*
X005180Y012409D01*
X005180Y012568D02*
X005180Y012568D01*
X005180Y012726D02*
X005180Y012726D01*
X004923Y009873D02*
X003368Y009873D01*
X005606Y005911D02*
X006160Y005911D01*
X006160Y005752D02*
X005941Y005752D01*
X006100Y005594D02*
X006160Y005594D01*
X006320Y004960D02*
X006345Y004960D01*
X006320Y004801D02*
X008556Y004801D01*
X008345Y004960D02*
X008015Y004960D01*
X008143Y005118D02*
X008217Y005118D01*
X007898Y004643D02*
X006896Y004643D01*
X007055Y004484D02*
X007830Y004484D01*
X007830Y004326D02*
X007160Y004326D01*
X007160Y004167D02*
X007830Y004167D01*
X007830Y004009D02*
X007160Y004009D01*
X007029Y003850D02*
X007830Y003850D01*
X007345Y004960D02*
X007015Y004960D01*
X007143Y005118D02*
X007217Y005118D01*
X006464Y004643D02*
X006258Y004643D01*
X006305Y004484D02*
X006193Y004484D01*
X006200Y004326D02*
X006059Y004326D01*
X006200Y004167D02*
X005889Y004167D01*
X010594Y009715D02*
X010796Y009715D01*
X010729Y009556D02*
X010660Y009556D01*
X010660Y009398D02*
X010720Y009398D01*
X010720Y009239D02*
X010660Y009239D01*
X010660Y009081D02*
X010720Y009081D01*
X010720Y008922D02*
X010660Y008922D01*
X010643Y008764D02*
X010741Y008764D01*
X010977Y009873D02*
X010437Y009873D01*
X014442Y008764D02*
X014946Y008764D01*
X014989Y008720D02*
X014720Y008989D01*
X014720Y009180D01*
X015180Y009180D01*
X015180Y009180D01*
X015180Y009640D01*
X015371Y009640D01*
X015640Y009371D01*
X015640Y009180D01*
X015180Y009180D01*
X015180Y009180D01*
X015180Y009180D01*
X015180Y009640D01*
X014989Y009640D01*
X014720Y009371D01*
X014720Y009180D01*
X015180Y009180D01*
X015640Y009180D01*
X015640Y008989D01*
X015371Y008720D01*
X015180Y008720D01*
X015180Y009180D01*
X015180Y009180D01*
X015180Y008720D01*
X014989Y008720D01*
X015180Y008764D02*
X015180Y008764D01*
X015180Y008922D02*
X015180Y008922D01*
X015180Y009081D02*
X015180Y009081D01*
X015180Y009239D02*
X015180Y009239D01*
X015180Y009398D02*
X015180Y009398D01*
X015180Y009556D02*
X015180Y009556D01*
X015455Y009556D02*
X015905Y009556D01*
X015989Y009640D02*
X015720Y009371D01*
X015720Y009180D01*
X016180Y009180D01*
X016180Y009180D01*
X016180Y009180D01*
X016180Y009640D01*
X015989Y009640D01*
X016180Y009556D02*
X016180Y009556D01*
X016180Y009398D02*
X016180Y009398D01*
X016180Y009239D02*
X016180Y009239D01*
X016180Y009180D02*
X015720Y009180D01*
X015720Y008989D01*
X015989Y008720D01*
X016180Y008720D01*
X016180Y009180D01*
X016180Y009081D02*
X016180Y009081D01*
X016180Y008922D02*
X016180Y008922D01*
X016180Y008764D02*
X016180Y008764D01*
X015946Y008764D02*
X015414Y008764D01*
X015573Y008922D02*
X015787Y008922D01*
X015720Y009081D02*
X015640Y009081D01*
X015640Y009239D02*
X015720Y009239D01*
X015747Y009398D02*
X015613Y009398D01*
X014905Y009556D02*
X014530Y009556D01*
X014641Y009398D02*
X014747Y009398D01*
X014720Y009239D02*
X014660Y009239D01*
X014660Y009081D02*
X014720Y009081D01*
X014787Y008922D02*
X014601Y008922D01*
X016487Y007971D02*
X019750Y007971D01*
X019750Y007813D02*
X016781Y007813D01*
X016939Y007654D02*
X019750Y007654D01*
X019750Y007496D02*
X017032Y007496D01*
X017098Y007337D02*
X019750Y007337D01*
X019750Y007179D02*
X017130Y007179D01*
X017130Y007020D02*
X019750Y007020D01*
X019750Y006862D02*
X017122Y006862D01*
X017056Y006703D02*
X019750Y006703D01*
X019750Y006545D02*
X016991Y006545D01*
X016840Y006386D02*
X019750Y006386D01*
X019750Y006228D02*
X016629Y006228D01*
X017281Y006069D02*
X017441Y006069D01*
X017441Y005911D02*
X017281Y005911D01*
X017281Y005752D02*
X017441Y005752D01*
X017441Y005594D02*
X017281Y005594D01*
X017281Y005435D02*
X017441Y005435D01*
X017441Y005277D02*
X017281Y005277D01*
X016742Y004484D02*
X015784Y004484D01*
X015891Y004643D02*
X016600Y004643D01*
X016511Y004801D02*
X015971Y004801D01*
X016013Y004960D02*
X016458Y004960D01*
X016631Y003216D02*
X018970Y003216D01*
X018590Y003058D02*
X016677Y003058D01*
X016680Y002899D02*
X018407Y002899D01*
X018285Y002741D02*
X016680Y002741D01*
X016680Y002582D02*
X018195Y002582D01*
X018153Y002424D02*
X016680Y002424D01*
X016671Y002265D02*
X018125Y002265D01*
X018125Y002107D02*
X016612Y002107D01*
X018286Y005277D02*
X019750Y005277D01*
X019750Y005435D02*
X018257Y005435D01*
X018194Y005594D02*
X019750Y005594D01*
X019750Y005752D02*
X018094Y005752D01*
X017937Y005911D02*
X019750Y005911D01*
X019750Y006069D02*
X017636Y006069D01*
X019390Y003216D02*
X019750Y003216D01*
X019527Y009715D02*
X019510Y009715D01*
X019510Y009873D02*
X019527Y009873D01*
X019510Y010032D02*
X019527Y010032D01*
X019510Y010190D02*
X019527Y010190D01*
X019510Y010349D02*
X019527Y010349D01*
X019510Y010507D02*
X019527Y010507D01*
X019510Y010666D02*
X019527Y010666D01*
X019510Y010824D02*
X019527Y010824D01*
X019510Y010983D02*
X019527Y010983D01*
X011190Y003375D02*
X011170Y003375D01*
X011170Y003216D02*
X011190Y003216D01*
X011190Y003058D02*
X011170Y003058D01*
X011170Y002899D02*
X011190Y002899D01*
X011190Y002741D02*
X011170Y002741D01*
X011170Y002582D02*
X011190Y002582D01*
X011190Y002424D02*
X011170Y002424D01*
X011170Y002265D02*
X011190Y002265D01*
X011190Y002107D02*
X011170Y002107D01*
X001416Y014787D02*
X000610Y014787D01*
X000610Y014945D02*
X001258Y014945D01*
X001180Y015104D02*
X000610Y015104D01*
X000610Y015262D02*
X001180Y015262D01*
X001180Y015421D02*
X000610Y015421D01*
X000610Y015579D02*
X001322Y015579D01*
X001138Y013994D02*
X000610Y013994D01*
X000610Y013836D02*
X001075Y013836D01*
X002199Y021919D02*
X003374Y021919D01*
X003123Y022078D02*
X002357Y022078D01*
X002516Y022236D02*
X002976Y022236D01*
X002911Y022395D02*
X002585Y022395D01*
X002585Y022553D02*
X002860Y022553D01*
X002860Y022712D02*
X002585Y022712D01*
X002585Y022870D02*
X002871Y022870D01*
X002937Y023029D02*
X002585Y023029D01*
X002453Y023187D02*
X003027Y023187D01*
X000970Y003216D02*
X000610Y003216D01*
M02*
