G75*
%MOIN*%
%OFA0B0*%
%FSLAX24Y24*%
%IPPOS*%
%LPD*%
%AMOC8*
5,1,8,0,0,1.08239X$1,22.5*
%
%ADD10C,0.0680*%
%ADD11OC8,0.0680*%
%ADD12OC8,0.0600*%
%ADD13C,0.0600*%
%ADD14R,0.0595X0.0595*%
%ADD15C,0.0640*%
%ADD16OC8,0.0710*%
%ADD17C,0.0710*%
D10*
X000680Y000880D02*
X000680Y001480D01*
X001680Y001480D02*
X001680Y000880D01*
X002680Y000880D02*
X002680Y001480D01*
X003680Y001480D02*
X003680Y000880D01*
X004680Y000880D02*
X004680Y001480D01*
X005680Y001480D02*
X005680Y000880D01*
X006680Y000880D02*
X006680Y001480D01*
X007680Y001480D02*
X007680Y000880D01*
X008680Y000880D02*
X008680Y001480D01*
X009680Y001480D02*
X009680Y000880D01*
X010680Y000880D02*
X010680Y001480D01*
X011680Y001480D02*
X011680Y000880D01*
X012680Y000880D02*
X012680Y001480D01*
X013680Y001480D02*
X013680Y000880D01*
X014680Y000880D02*
X014680Y001480D01*
X015680Y001480D02*
X015680Y000880D01*
X016680Y000880D02*
X016680Y001480D01*
X017680Y001480D02*
X017680Y000880D01*
X018680Y000880D02*
X018680Y001480D01*
X019680Y001480D02*
X019680Y000880D01*
X020680Y000880D02*
X020680Y001480D01*
X021680Y001480D02*
X021680Y000880D01*
X022680Y000880D02*
X022680Y001480D01*
X023680Y001480D02*
X023680Y000880D01*
X024680Y000880D02*
X024680Y001480D01*
X025680Y001480D02*
X025680Y000880D01*
X026680Y000880D02*
X026680Y001480D01*
X027680Y001480D02*
X027680Y000880D01*
X028680Y000880D02*
X028680Y001480D01*
X029680Y001480D02*
X029680Y000880D01*
X030680Y000880D02*
X030680Y001480D01*
X031680Y001480D02*
X031680Y000880D01*
X032680Y000880D02*
X032680Y001480D01*
X033680Y001480D02*
X033680Y000880D01*
X034680Y000880D02*
X034680Y001480D01*
X035680Y001480D02*
X035680Y000880D01*
X036680Y000880D02*
X036680Y001480D01*
X037680Y001480D02*
X037680Y000880D01*
X038680Y000880D02*
X038680Y001480D01*
X039680Y001480D02*
X039680Y000880D01*
X039680Y011380D02*
X039680Y011980D01*
X038680Y011980D02*
X038680Y011380D01*
X037680Y011380D02*
X037680Y011980D01*
X036680Y011980D02*
X036680Y011380D01*
X035680Y011380D02*
X035680Y011980D01*
X034680Y011980D02*
X034680Y011380D01*
D11*
X034680Y013680D03*
X035680Y013680D03*
X036680Y013680D03*
X037680Y013680D03*
X038680Y013680D03*
X039680Y013680D03*
X039680Y014680D03*
X038680Y014680D03*
X037680Y014680D03*
X036680Y014680D03*
X035680Y014680D03*
X034680Y014680D03*
D12*
X032680Y013680D03*
X031180Y013180D03*
X030180Y013180D03*
X028680Y012680D03*
X028680Y011680D03*
X030180Y011180D03*
X031180Y011180D03*
X028680Y010680D03*
X028680Y009680D03*
X030180Y009180D03*
X031180Y009180D03*
X028680Y008680D03*
X028680Y007680D03*
X030180Y007180D03*
X031180Y007180D03*
X028680Y006680D03*
X023180Y006680D03*
X022180Y006680D03*
X012680Y006680D03*
X011680Y006680D03*
X002180Y006680D03*
X001180Y006680D03*
X028680Y013680D03*
X028680Y014680D03*
X030180Y015180D03*
X031180Y015180D03*
X028680Y015680D03*
X032680Y012680D03*
X038680Y003180D03*
X039680Y003180D03*
D13*
X039420Y004180D02*
X039940Y004180D01*
X039940Y005180D02*
X039420Y005180D01*
X039420Y006180D02*
X039940Y006180D01*
X039940Y007180D02*
X039420Y007180D01*
X036940Y007180D02*
X036420Y007180D01*
X035440Y007180D02*
X034920Y007180D01*
X034920Y006180D02*
X035440Y006180D01*
X036420Y006180D02*
X036940Y006180D01*
X036940Y005180D02*
X036420Y005180D01*
X035440Y005180D02*
X034920Y005180D01*
X034920Y004180D02*
X035440Y004180D01*
X036420Y004180D02*
X036940Y004180D01*
X032440Y004180D02*
X031920Y004180D01*
X031920Y005180D02*
X032440Y005180D01*
X031180Y005420D02*
X031180Y005940D01*
X031920Y006180D02*
X032440Y006180D01*
X032440Y007180D02*
X031920Y007180D01*
X031920Y008180D02*
X032440Y008180D01*
X032440Y009180D02*
X031920Y009180D01*
X031920Y010180D02*
X032440Y010180D01*
X034920Y010180D02*
X035440Y010180D01*
X036420Y010180D02*
X036940Y010180D01*
X036940Y009180D02*
X036420Y009180D01*
X035440Y009180D02*
X034920Y009180D01*
X034920Y008180D02*
X035440Y008180D01*
X036420Y008180D02*
X036940Y008180D01*
X039420Y008180D02*
X039940Y008180D01*
X039940Y009180D02*
X039420Y009180D01*
X039420Y010180D02*
X039940Y010180D01*
X030180Y005940D02*
X030180Y005420D01*
X029180Y005420D02*
X029180Y005940D01*
X028180Y005940D02*
X028180Y005420D01*
X027180Y005420D02*
X027180Y005940D01*
X026180Y005940D02*
X026180Y005420D01*
X025180Y005420D02*
X025180Y005940D01*
X024180Y005940D02*
X024180Y005420D01*
X023180Y005420D02*
X023180Y005940D01*
X022180Y005940D02*
X022180Y005420D01*
X020680Y005420D02*
X020680Y005940D01*
X019680Y005940D02*
X019680Y005420D01*
X018680Y005420D02*
X018680Y005940D01*
X017680Y005940D02*
X017680Y005420D01*
X016680Y005420D02*
X016680Y005940D01*
X015680Y005940D02*
X015680Y005420D01*
X014680Y005420D02*
X014680Y005940D01*
X013680Y005940D02*
X013680Y005420D01*
X012680Y005420D02*
X012680Y005940D01*
X011680Y005940D02*
X011680Y005420D01*
X010180Y005420D02*
X010180Y005940D01*
X009180Y005940D02*
X009180Y005420D01*
X008180Y005420D02*
X008180Y005940D01*
X007180Y005940D02*
X007180Y005420D01*
X006180Y005420D02*
X006180Y005940D01*
X005180Y005940D02*
X005180Y005420D01*
X004180Y005420D02*
X004180Y005940D01*
X003180Y005940D02*
X003180Y005420D01*
X002180Y005420D02*
X002180Y005940D01*
X001180Y005940D02*
X001180Y005420D01*
X001180Y002940D02*
X001180Y002420D01*
X002180Y002420D02*
X002180Y002940D01*
X003180Y002940D02*
X003180Y002420D01*
X004180Y002420D02*
X004180Y002940D01*
X005180Y002940D02*
X005180Y002420D01*
X006180Y002420D02*
X006180Y002940D01*
X007180Y002940D02*
X007180Y002420D01*
X008180Y002420D02*
X008180Y002940D01*
X009180Y002940D02*
X009180Y002420D01*
X010180Y002420D02*
X010180Y002940D01*
X011680Y002940D02*
X011680Y002420D01*
X012680Y002420D02*
X012680Y002940D01*
X013680Y002940D02*
X013680Y002420D01*
X014680Y002420D02*
X014680Y002940D01*
X015680Y002940D02*
X015680Y002420D01*
X016680Y002420D02*
X016680Y002940D01*
X017680Y002940D02*
X017680Y002420D01*
X018680Y002420D02*
X018680Y002940D01*
X019680Y002940D02*
X019680Y002420D01*
X020680Y002420D02*
X020680Y002940D01*
X022180Y002940D02*
X022180Y002420D01*
X023180Y002420D02*
X023180Y002940D01*
X024180Y002940D02*
X024180Y002420D01*
X025180Y002420D02*
X025180Y002940D01*
X026180Y002940D02*
X026180Y002420D01*
X027180Y002420D02*
X027180Y002940D01*
X028180Y002940D02*
X028180Y002420D01*
X029180Y002420D02*
X029180Y002940D01*
X030180Y002940D02*
X030180Y002420D01*
X031180Y002420D02*
X031180Y002940D01*
X027440Y008680D02*
X026920Y008680D01*
X024440Y008680D02*
X023920Y008680D01*
X022940Y008680D02*
X022420Y008680D01*
X019940Y008680D02*
X019420Y008680D01*
X017940Y008680D02*
X017420Y008680D01*
X014940Y008680D02*
X014420Y008680D01*
X013440Y008680D02*
X012920Y008680D01*
X010440Y008680D02*
X009920Y008680D01*
X008940Y008680D02*
X008420Y008680D01*
X005940Y008680D02*
X005420Y008680D01*
X004440Y008680D02*
X003920Y008680D01*
X001440Y008680D02*
X000920Y008680D01*
X000920Y010680D02*
X001440Y010680D01*
X001440Y011680D02*
X000920Y011680D01*
X000920Y012680D02*
X001440Y012680D01*
X001440Y013680D02*
X000920Y013680D01*
X000920Y014680D02*
X001440Y014680D01*
X003920Y014680D02*
X004440Y014680D01*
X005420Y014680D02*
X005940Y014680D01*
X005940Y013680D02*
X005420Y013680D01*
X004440Y013680D02*
X003920Y013680D01*
X003920Y012680D02*
X004440Y012680D01*
X005420Y012680D02*
X005940Y012680D01*
X005940Y011680D02*
X005420Y011680D01*
X005420Y010680D02*
X005940Y010680D01*
X004440Y010680D02*
X003920Y010680D01*
X008420Y010680D02*
X008940Y010680D01*
X009920Y010680D02*
X010440Y010680D01*
X010440Y011680D02*
X009920Y011680D01*
X009920Y012680D02*
X010440Y012680D01*
X008940Y012680D02*
X008420Y012680D01*
X008420Y013680D02*
X008940Y013680D01*
X009920Y013680D02*
X010440Y013680D01*
X010440Y014680D02*
X009920Y014680D01*
X008940Y014680D02*
X008420Y014680D01*
X012920Y014680D02*
X013440Y014680D01*
X014420Y014680D02*
X014940Y014680D01*
X014940Y013680D02*
X014420Y013680D01*
X013440Y013680D02*
X012920Y013680D01*
X012920Y012680D02*
X013440Y012680D01*
X014420Y012680D02*
X014940Y012680D01*
X014940Y011680D02*
X014420Y011680D01*
X014420Y010680D02*
X014940Y010680D01*
X013440Y010680D02*
X012920Y010680D01*
X017420Y010680D02*
X017940Y010680D01*
X019420Y010680D02*
X019940Y010680D01*
X019940Y011680D02*
X019420Y011680D01*
X019420Y012680D02*
X019940Y012680D01*
X017940Y012680D02*
X017420Y012680D01*
X017420Y013680D02*
X017940Y013680D01*
X019420Y013680D02*
X019940Y013680D01*
X019940Y014680D02*
X019420Y014680D01*
X017940Y014680D02*
X017420Y014680D01*
X022420Y014680D02*
X022940Y014680D01*
X023920Y014680D02*
X024440Y014680D01*
X024440Y013680D02*
X023920Y013680D01*
X022940Y013680D02*
X022420Y013680D01*
X022420Y012680D02*
X022940Y012680D01*
X023920Y012680D02*
X024440Y012680D01*
X024440Y011680D02*
X023920Y011680D01*
X023920Y010680D02*
X024440Y010680D01*
X022940Y010680D02*
X022420Y010680D01*
X026920Y010680D02*
X027440Y010680D01*
X027440Y012680D02*
X026920Y012680D01*
X026920Y013680D02*
X027440Y013680D01*
X027440Y014680D02*
X026920Y014680D01*
D14*
X027180Y011680D03*
X022680Y011680D03*
X022680Y009680D03*
X024180Y009680D03*
X027180Y009680D03*
X019680Y009680D03*
X017680Y009680D03*
X014680Y009680D03*
X013180Y009680D03*
X010180Y009680D03*
X008680Y009680D03*
X005680Y009680D03*
X004180Y009680D03*
X001180Y009680D03*
X004180Y011680D03*
X008680Y011680D03*
X013180Y011680D03*
X017680Y011680D03*
D15*
X033180Y002960D02*
X033180Y002400D01*
X034180Y002400D02*
X034180Y002960D01*
D16*
X035680Y002680D03*
D17*
X036680Y002680D03*
M02*
