G75*
%MOIN*%
%OFA0B0*%
%FSLAX24Y24*%
%IPPOS*%
%LPD*%
%AMOC8*
5,1,8,0,0,1.08239X$1,22.5*
%
%ADD10C,0.0600*%
%ADD11OC8,0.0600*%
%ADD12OC8,0.0520*%
%ADD13C,0.0520*%
%ADD14R,0.0515X0.0515*%
%ADD15C,0.0560*%
%ADD16OC8,0.0630*%
%ADD17C,0.0630*%
%ADD18C,0.0160*%
%ADD19C,0.0400*%
%ADD20C,0.0100*%
D10*
X000680Y000880D02*
X000680Y001480D01*
X001680Y001480D02*
X001680Y000880D01*
X002680Y000880D02*
X002680Y001480D01*
X003680Y001480D02*
X003680Y000880D01*
X004680Y000880D02*
X004680Y001480D01*
X005680Y001480D02*
X005680Y000880D01*
X006680Y000880D02*
X006680Y001480D01*
X007680Y001480D02*
X007680Y000880D01*
X008680Y000880D02*
X008680Y001480D01*
X009680Y001480D02*
X009680Y000880D01*
X010680Y000880D02*
X010680Y001480D01*
X011680Y001480D02*
X011680Y000880D01*
X012680Y000880D02*
X012680Y001480D01*
X013680Y001480D02*
X013680Y000880D01*
X014680Y000880D02*
X014680Y001480D01*
X015680Y001480D02*
X015680Y000880D01*
X016680Y000880D02*
X016680Y001480D01*
X017680Y001480D02*
X017680Y000880D01*
X018680Y000880D02*
X018680Y001480D01*
X019680Y001480D02*
X019680Y000880D01*
X020680Y000880D02*
X020680Y001480D01*
X021680Y001480D02*
X021680Y000880D01*
X022680Y000880D02*
X022680Y001480D01*
X023680Y001480D02*
X023680Y000880D01*
X024680Y000880D02*
X024680Y001480D01*
X025680Y001480D02*
X025680Y000880D01*
X026680Y000880D02*
X026680Y001480D01*
X027680Y001480D02*
X027680Y000880D01*
X028680Y000880D02*
X028680Y001480D01*
X029680Y001480D02*
X029680Y000880D01*
X030680Y000880D02*
X030680Y001480D01*
X031680Y001480D02*
X031680Y000880D01*
X032680Y000880D02*
X032680Y001480D01*
X033680Y001480D02*
X033680Y000880D01*
X034680Y000880D02*
X034680Y001480D01*
X035680Y001480D02*
X035680Y000880D01*
X036680Y000880D02*
X036680Y001480D01*
X037680Y001480D02*
X037680Y000880D01*
X038680Y000880D02*
X038680Y001480D01*
X039680Y001480D02*
X039680Y000880D01*
X039680Y011380D02*
X039680Y011980D01*
X038680Y011980D02*
X038680Y011380D01*
X037680Y011380D02*
X037680Y011980D01*
X036680Y011980D02*
X036680Y011380D01*
X035680Y011380D02*
X035680Y011980D01*
X034680Y011980D02*
X034680Y011380D01*
D11*
X034680Y013680D03*
X035680Y013680D03*
X036680Y013680D03*
X037680Y013680D03*
X038680Y013680D03*
X039680Y013680D03*
X039680Y014680D03*
X038680Y014680D03*
X037680Y014680D03*
X036680Y014680D03*
X035680Y014680D03*
X034680Y014680D03*
D12*
X032680Y013680D03*
X031180Y013180D03*
X030180Y013180D03*
X028680Y012680D03*
X028680Y011680D03*
X030180Y011180D03*
X031180Y011180D03*
X028680Y010680D03*
X028680Y009680D03*
X030180Y009180D03*
X031180Y009180D03*
X028680Y008680D03*
X028680Y007680D03*
X030180Y007180D03*
X031180Y007180D03*
X028680Y006680D03*
X023180Y006680D03*
X022180Y006680D03*
X012680Y006680D03*
X011680Y006680D03*
X002180Y006680D03*
X001180Y006680D03*
X028680Y013680D03*
X028680Y014680D03*
X030180Y015180D03*
X031180Y015180D03*
X028680Y015680D03*
X032680Y012680D03*
X038680Y003180D03*
X039680Y003180D03*
D13*
X039420Y004180D02*
X039940Y004180D01*
X039940Y005180D02*
X039420Y005180D01*
X039420Y006180D02*
X039940Y006180D01*
X039940Y007180D02*
X039420Y007180D01*
X036940Y007180D02*
X036420Y007180D01*
X035440Y007180D02*
X034920Y007180D01*
X034920Y006180D02*
X035440Y006180D01*
X036420Y006180D02*
X036940Y006180D01*
X036940Y005180D02*
X036420Y005180D01*
X035440Y005180D02*
X034920Y005180D01*
X034920Y004180D02*
X035440Y004180D01*
X036420Y004180D02*
X036940Y004180D01*
X032440Y004180D02*
X031920Y004180D01*
X031920Y005180D02*
X032440Y005180D01*
X031180Y005420D02*
X031180Y005940D01*
X031920Y006180D02*
X032440Y006180D01*
X032440Y007180D02*
X031920Y007180D01*
X031920Y008180D02*
X032440Y008180D01*
X032440Y009180D02*
X031920Y009180D01*
X031920Y010180D02*
X032440Y010180D01*
X034920Y010180D02*
X035440Y010180D01*
X036420Y010180D02*
X036940Y010180D01*
X036940Y009180D02*
X036420Y009180D01*
X035440Y009180D02*
X034920Y009180D01*
X034920Y008180D02*
X035440Y008180D01*
X036420Y008180D02*
X036940Y008180D01*
X039420Y008180D02*
X039940Y008180D01*
X039940Y009180D02*
X039420Y009180D01*
X039420Y010180D02*
X039940Y010180D01*
X030180Y005940D02*
X030180Y005420D01*
X029180Y005420D02*
X029180Y005940D01*
X028180Y005940D02*
X028180Y005420D01*
X027180Y005420D02*
X027180Y005940D01*
X026180Y005940D02*
X026180Y005420D01*
X025180Y005420D02*
X025180Y005940D01*
X024180Y005940D02*
X024180Y005420D01*
X023180Y005420D02*
X023180Y005940D01*
X022180Y005940D02*
X022180Y005420D01*
X020680Y005420D02*
X020680Y005940D01*
X019680Y005940D02*
X019680Y005420D01*
X018680Y005420D02*
X018680Y005940D01*
X017680Y005940D02*
X017680Y005420D01*
X016680Y005420D02*
X016680Y005940D01*
X015680Y005940D02*
X015680Y005420D01*
X014680Y005420D02*
X014680Y005940D01*
X013680Y005940D02*
X013680Y005420D01*
X012680Y005420D02*
X012680Y005940D01*
X011680Y005940D02*
X011680Y005420D01*
X010180Y005420D02*
X010180Y005940D01*
X009180Y005940D02*
X009180Y005420D01*
X008180Y005420D02*
X008180Y005940D01*
X007180Y005940D02*
X007180Y005420D01*
X006180Y005420D02*
X006180Y005940D01*
X005180Y005940D02*
X005180Y005420D01*
X004180Y005420D02*
X004180Y005940D01*
X003180Y005940D02*
X003180Y005420D01*
X002180Y005420D02*
X002180Y005940D01*
X001180Y005940D02*
X001180Y005420D01*
X001180Y002940D02*
X001180Y002420D01*
X002180Y002420D02*
X002180Y002940D01*
X003180Y002940D02*
X003180Y002420D01*
X004180Y002420D02*
X004180Y002940D01*
X005180Y002940D02*
X005180Y002420D01*
X006180Y002420D02*
X006180Y002940D01*
X007180Y002940D02*
X007180Y002420D01*
X008180Y002420D02*
X008180Y002940D01*
X009180Y002940D02*
X009180Y002420D01*
X010180Y002420D02*
X010180Y002940D01*
X011680Y002940D02*
X011680Y002420D01*
X012680Y002420D02*
X012680Y002940D01*
X013680Y002940D02*
X013680Y002420D01*
X014680Y002420D02*
X014680Y002940D01*
X015680Y002940D02*
X015680Y002420D01*
X016680Y002420D02*
X016680Y002940D01*
X017680Y002940D02*
X017680Y002420D01*
X018680Y002420D02*
X018680Y002940D01*
X019680Y002940D02*
X019680Y002420D01*
X020680Y002420D02*
X020680Y002940D01*
X022180Y002940D02*
X022180Y002420D01*
X023180Y002420D02*
X023180Y002940D01*
X024180Y002940D02*
X024180Y002420D01*
X025180Y002420D02*
X025180Y002940D01*
X026180Y002940D02*
X026180Y002420D01*
X027180Y002420D02*
X027180Y002940D01*
X028180Y002940D02*
X028180Y002420D01*
X029180Y002420D02*
X029180Y002940D01*
X030180Y002940D02*
X030180Y002420D01*
X031180Y002420D02*
X031180Y002940D01*
X027440Y008680D02*
X026920Y008680D01*
X024440Y008680D02*
X023920Y008680D01*
X022940Y008680D02*
X022420Y008680D01*
X019940Y008680D02*
X019420Y008680D01*
X017940Y008680D02*
X017420Y008680D01*
X014940Y008680D02*
X014420Y008680D01*
X013440Y008680D02*
X012920Y008680D01*
X010440Y008680D02*
X009920Y008680D01*
X008940Y008680D02*
X008420Y008680D01*
X005940Y008680D02*
X005420Y008680D01*
X004440Y008680D02*
X003920Y008680D01*
X001440Y008680D02*
X000920Y008680D01*
X000920Y010680D02*
X001440Y010680D01*
X001440Y011680D02*
X000920Y011680D01*
X000920Y012680D02*
X001440Y012680D01*
X001440Y013680D02*
X000920Y013680D01*
X000920Y014680D02*
X001440Y014680D01*
X003920Y014680D02*
X004440Y014680D01*
X005420Y014680D02*
X005940Y014680D01*
X005940Y013680D02*
X005420Y013680D01*
X004440Y013680D02*
X003920Y013680D01*
X003920Y012680D02*
X004440Y012680D01*
X005420Y012680D02*
X005940Y012680D01*
X005940Y011680D02*
X005420Y011680D01*
X005420Y010680D02*
X005940Y010680D01*
X004440Y010680D02*
X003920Y010680D01*
X008420Y010680D02*
X008940Y010680D01*
X009920Y010680D02*
X010440Y010680D01*
X010440Y011680D02*
X009920Y011680D01*
X009920Y012680D02*
X010440Y012680D01*
X008940Y012680D02*
X008420Y012680D01*
X008420Y013680D02*
X008940Y013680D01*
X009920Y013680D02*
X010440Y013680D01*
X010440Y014680D02*
X009920Y014680D01*
X008940Y014680D02*
X008420Y014680D01*
X012920Y014680D02*
X013440Y014680D01*
X014420Y014680D02*
X014940Y014680D01*
X014940Y013680D02*
X014420Y013680D01*
X013440Y013680D02*
X012920Y013680D01*
X012920Y012680D02*
X013440Y012680D01*
X014420Y012680D02*
X014940Y012680D01*
X014940Y011680D02*
X014420Y011680D01*
X014420Y010680D02*
X014940Y010680D01*
X013440Y010680D02*
X012920Y010680D01*
X017420Y010680D02*
X017940Y010680D01*
X019420Y010680D02*
X019940Y010680D01*
X019940Y011680D02*
X019420Y011680D01*
X019420Y012680D02*
X019940Y012680D01*
X017940Y012680D02*
X017420Y012680D01*
X017420Y013680D02*
X017940Y013680D01*
X019420Y013680D02*
X019940Y013680D01*
X019940Y014680D02*
X019420Y014680D01*
X017940Y014680D02*
X017420Y014680D01*
X022420Y014680D02*
X022940Y014680D01*
X023920Y014680D02*
X024440Y014680D01*
X024440Y013680D02*
X023920Y013680D01*
X022940Y013680D02*
X022420Y013680D01*
X022420Y012680D02*
X022940Y012680D01*
X023920Y012680D02*
X024440Y012680D01*
X024440Y011680D02*
X023920Y011680D01*
X023920Y010680D02*
X024440Y010680D01*
X022940Y010680D02*
X022420Y010680D01*
X026920Y010680D02*
X027440Y010680D01*
X027440Y012680D02*
X026920Y012680D01*
X026920Y013680D02*
X027440Y013680D01*
X027440Y014680D02*
X026920Y014680D01*
D14*
X027180Y011680D03*
X022680Y011680D03*
X022680Y009680D03*
X024180Y009680D03*
X027180Y009680D03*
X019680Y009680D03*
X017680Y009680D03*
X014680Y009680D03*
X013180Y009680D03*
X010180Y009680D03*
X008680Y009680D03*
X005680Y009680D03*
X004180Y009680D03*
X001180Y009680D03*
X004180Y011680D03*
X008680Y011680D03*
X013180Y011680D03*
X017680Y011680D03*
D15*
X033180Y002960D02*
X033180Y002400D01*
X034180Y002400D02*
X034180Y002960D01*
D16*
X035680Y002680D03*
D17*
X036680Y002680D03*
D18*
X000952Y000473D02*
X000920Y000460D01*
X001440Y000460D01*
X001408Y000473D01*
X001273Y000608D01*
X001200Y000785D01*
X001200Y001575D01*
X001273Y001752D01*
X001408Y001887D01*
X001585Y001960D01*
X001775Y001960D01*
X001952Y001887D01*
X002087Y001752D01*
X002160Y001575D01*
X002160Y001025D01*
X002200Y000985D01*
X002200Y001575D01*
X002273Y001752D01*
X002408Y001887D01*
X002578Y001957D01*
X002458Y002076D01*
X002429Y002047D01*
X002268Y001980D01*
X002092Y001980D01*
X001931Y002047D01*
X001807Y002171D01*
X001740Y002332D01*
X001740Y003028D01*
X001807Y003189D01*
X001818Y003200D01*
X001535Y003200D01*
X001556Y003171D01*
X001588Y003109D01*
X001609Y003043D01*
X001620Y002975D01*
X001620Y002680D01*
X001180Y002680D01*
X001180Y002680D01*
X001620Y002680D01*
X001620Y002385D01*
X001609Y002317D01*
X001588Y002251D01*
X001556Y002189D01*
X001516Y002133D01*
X001467Y002084D01*
X001411Y002044D01*
X001349Y002012D01*
X001283Y001991D01*
X001215Y001980D01*
X001180Y001980D01*
X001180Y002680D01*
X001180Y002680D01*
X001180Y001980D01*
X001145Y001980D01*
X001077Y001991D01*
X001011Y002012D01*
X000949Y002044D01*
X000910Y002072D01*
X000910Y001904D01*
X000952Y001887D01*
X001087Y001752D01*
X001160Y001575D01*
X001160Y000785D01*
X001087Y000608D01*
X000952Y000473D01*
X000976Y000497D02*
X001384Y000497D01*
X001253Y000656D02*
X001107Y000656D01*
X001160Y000814D02*
X001200Y000814D01*
X001200Y000973D02*
X001160Y000973D01*
X001160Y001131D02*
X001200Y001131D01*
X001200Y001290D02*
X001160Y001290D01*
X001160Y001448D02*
X001200Y001448D01*
X001213Y001607D02*
X001147Y001607D01*
X001074Y001765D02*
X001286Y001765D01*
X001496Y001924D02*
X000910Y001924D01*
X001180Y002082D02*
X001180Y002082D01*
X001180Y002241D02*
X001180Y002241D01*
X001180Y002399D02*
X001180Y002399D01*
X001180Y002558D02*
X001180Y002558D01*
X001620Y002558D02*
X001740Y002558D01*
X001740Y002716D02*
X001620Y002716D01*
X001620Y002875D02*
X001740Y002875D01*
X001742Y003033D02*
X001611Y003033D01*
X001541Y003192D02*
X001809Y003192D01*
X000960Y003660D02*
X000585Y003285D01*
X000460Y003160D01*
X000460Y005200D01*
X000960Y004700D01*
X001150Y004700D01*
X004525Y004700D01*
X004660Y004835D01*
X004902Y005076D01*
X004931Y005047D01*
X005092Y004980D01*
X005268Y004980D01*
X005429Y005047D01*
X005553Y005171D01*
X005620Y005332D01*
X005620Y006028D01*
X005553Y006189D01*
X005429Y006313D01*
X005268Y006380D01*
X005092Y006380D01*
X004931Y006313D01*
X004807Y006189D01*
X004740Y006028D01*
X004740Y005565D01*
X004620Y005445D01*
X004620Y006028D01*
X004553Y006189D01*
X004429Y006313D01*
X004268Y006380D01*
X004092Y006380D01*
X003931Y006313D01*
X003807Y006189D01*
X003740Y006028D01*
X003740Y005332D01*
X003807Y005171D01*
X003818Y005160D01*
X003542Y005160D01*
X003553Y005171D01*
X003620Y005332D01*
X003620Y006028D01*
X003553Y006189D01*
X003429Y006313D01*
X003268Y006380D01*
X003092Y006380D01*
X002931Y006313D01*
X002807Y006189D01*
X002740Y006028D01*
X002740Y005332D01*
X002807Y005171D01*
X002818Y005160D01*
X002535Y005160D01*
X002556Y005189D01*
X002588Y005251D01*
X002609Y005317D01*
X002620Y005385D01*
X002620Y005680D01*
X002620Y005975D01*
X002609Y006043D01*
X002588Y006109D01*
X002556Y006171D01*
X002516Y006227D01*
X002467Y006276D01*
X002427Y006305D01*
X002620Y006498D01*
X002620Y006680D01*
X002620Y006862D01*
X002362Y007120D01*
X002180Y007120D01*
X002180Y006680D01*
X002180Y006680D01*
X002620Y006680D01*
X002180Y006680D01*
X002180Y006680D01*
X002180Y005680D01*
X002180Y005680D01*
X002620Y005680D01*
X002180Y005680D01*
X002180Y005680D01*
X002180Y006380D01*
X002180Y006680D01*
X002180Y006680D01*
X002180Y006680D01*
X001740Y006680D01*
X001740Y006862D01*
X001998Y007120D01*
X002180Y007120D01*
X002180Y006680D01*
X001740Y006680D01*
X001740Y006498D01*
X001933Y006305D01*
X001893Y006276D01*
X001844Y006227D01*
X001804Y006171D01*
X001772Y006109D01*
X001751Y006043D01*
X001740Y005975D01*
X001740Y005680D01*
X002180Y005680D01*
X002180Y005680D01*
X001740Y005680D01*
X001740Y005385D01*
X001751Y005317D01*
X001772Y005251D01*
X001804Y005189D01*
X001825Y005160D01*
X001542Y005160D01*
X001553Y005171D01*
X001620Y005332D01*
X001620Y006028D01*
X001553Y006189D01*
X001432Y006310D01*
X001620Y006498D01*
X001620Y006752D01*
X002038Y007170D01*
X005008Y007170D01*
X004983Y007145D01*
X004925Y007006D01*
X004925Y006854D01*
X004983Y006715D01*
X005090Y006608D01*
X005229Y006550D01*
X005381Y006550D01*
X005520Y006608D01*
X005612Y006700D01*
X007835Y006700D01*
X008155Y006380D01*
X008092Y006380D01*
X007931Y006313D01*
X007807Y006189D01*
X007740Y006028D01*
X007740Y005332D01*
X007807Y005171D01*
X007931Y005047D01*
X008092Y004980D01*
X008268Y004980D01*
X008429Y005047D01*
X008553Y005171D01*
X008620Y005332D01*
X008620Y005915D01*
X008740Y005795D01*
X008740Y005332D01*
X008807Y005171D01*
X008931Y005047D01*
X009092Y004980D01*
X009268Y004980D01*
X009429Y005047D01*
X009553Y005171D01*
X009620Y005332D01*
X009620Y006028D01*
X009553Y006189D01*
X009429Y006313D01*
X009268Y006380D01*
X009092Y006380D01*
X008931Y006313D01*
X008902Y006284D01*
X008160Y007025D01*
X008025Y007160D01*
X005612Y007160D01*
X005602Y007170D01*
X010822Y007170D01*
X011240Y006752D01*
X011240Y006498D01*
X011428Y006310D01*
X011307Y006189D01*
X011240Y006028D01*
X011240Y005332D01*
X011307Y005171D01*
X011431Y005047D01*
X011592Y004980D01*
X011768Y004980D01*
X011929Y005047D01*
X011937Y005055D01*
X012658Y004335D01*
X012753Y004295D01*
X017197Y004295D01*
X017800Y003692D01*
X017800Y003660D01*
X011460Y003660D01*
X010620Y002820D01*
X010620Y002975D01*
X010609Y003043D01*
X010588Y003109D01*
X010556Y003171D01*
X010516Y003227D01*
X010467Y003276D01*
X010411Y003316D01*
X010349Y003348D01*
X010283Y003369D01*
X010215Y003380D01*
X010180Y003380D01*
X010180Y002680D01*
X010180Y002680D01*
X010180Y002680D01*
X009740Y002680D01*
X009740Y002975D01*
X009751Y003043D01*
X009772Y003109D01*
X009804Y003171D01*
X009844Y003227D01*
X009893Y003276D01*
X009949Y003316D01*
X010011Y003348D01*
X010077Y003369D01*
X010145Y003380D01*
X010180Y003380D01*
X010180Y002680D01*
X009740Y002680D01*
X009740Y002385D01*
X009751Y002317D01*
X009772Y002251D01*
X009804Y002189D01*
X009825Y002160D01*
X009542Y002160D01*
X009553Y002171D01*
X009620Y002332D01*
X009620Y003028D01*
X009553Y003189D01*
X009429Y003313D01*
X009268Y003380D01*
X009092Y003380D01*
X008931Y003313D01*
X008807Y003189D01*
X008740Y003028D01*
X008740Y002332D01*
X008807Y002171D01*
X008931Y002047D01*
X009092Y001980D01*
X009155Y001980D01*
X009007Y001832D01*
X008952Y001887D01*
X008775Y001960D01*
X008585Y001960D01*
X008408Y001887D01*
X008273Y001752D01*
X008200Y001575D01*
X008200Y000785D01*
X008273Y000608D01*
X008408Y000473D01*
X008440Y000460D01*
X007920Y000460D01*
X007952Y000473D01*
X008087Y000608D01*
X008160Y000785D01*
X008160Y001575D01*
X008087Y001752D01*
X007952Y001887D01*
X007775Y001960D01*
X007585Y001960D01*
X007408Y001887D01*
X007273Y001752D01*
X007200Y001575D01*
X007200Y000785D01*
X007273Y000608D01*
X007408Y000473D01*
X007440Y000460D01*
X006920Y000460D01*
X006952Y000473D01*
X007087Y000608D01*
X007160Y000785D01*
X007160Y001575D01*
X007087Y001752D01*
X006952Y001887D01*
X006775Y001960D01*
X006585Y001960D01*
X006410Y001888D01*
X006410Y002039D01*
X006429Y002047D01*
X006553Y002171D01*
X006620Y002332D01*
X006620Y003028D01*
X006553Y003189D01*
X006542Y003200D01*
X006818Y003200D01*
X006807Y003189D01*
X006740Y003028D01*
X006740Y002332D01*
X006807Y002171D01*
X006931Y002047D01*
X007092Y001980D01*
X007268Y001980D01*
X007429Y002047D01*
X007553Y002171D01*
X007620Y002332D01*
X007620Y002915D01*
X007740Y002795D01*
X007740Y002332D01*
X007807Y002171D01*
X007931Y002047D01*
X008092Y001980D01*
X008268Y001980D01*
X008429Y002047D01*
X008553Y002171D01*
X008620Y002332D01*
X008620Y003028D01*
X008553Y003189D01*
X008429Y003313D01*
X008268Y003380D01*
X008092Y003380D01*
X007931Y003313D01*
X007902Y003284D01*
X007660Y003525D01*
X007525Y003660D01*
X000960Y003660D01*
X000808Y003509D02*
X000460Y003509D01*
X000460Y003667D02*
X017800Y003667D01*
X017667Y003826D02*
X000460Y003826D01*
X000460Y003984D02*
X017508Y003984D01*
X017350Y004143D02*
X000460Y004143D01*
X000460Y004301D02*
X012739Y004301D01*
X012533Y004460D02*
X000460Y004460D01*
X000460Y004618D02*
X012374Y004618D01*
X012216Y004777D02*
X004602Y004777D01*
X004760Y004935D02*
X012057Y004935D01*
X012743Y004985D02*
X012913Y004815D01*
X014883Y004815D01*
X014858Y004840D01*
X014800Y004979D01*
X014800Y004993D01*
X014768Y004980D01*
X014592Y004980D01*
X014431Y005047D01*
X014307Y005171D01*
X014240Y005332D01*
X014240Y006028D01*
X014307Y006189D01*
X014431Y006313D01*
X014592Y006380D01*
X014768Y006380D01*
X014929Y006313D01*
X015053Y006189D01*
X015120Y006028D01*
X015120Y005435D01*
X015240Y005435D01*
X015240Y006028D01*
X015307Y006189D01*
X015431Y006313D01*
X015450Y006321D01*
X015450Y007950D01*
X012112Y007950D01*
X012092Y007930D01*
X012112Y007910D01*
X013775Y007910D01*
X013910Y007775D01*
X013910Y006321D01*
X013929Y006313D01*
X014053Y006189D01*
X014120Y006028D01*
X014120Y005332D01*
X014053Y005171D01*
X013929Y005047D01*
X013768Y004980D01*
X013592Y004980D01*
X013431Y005047D01*
X013307Y005171D01*
X013240Y005332D01*
X013240Y006028D01*
X013307Y006189D01*
X013431Y006313D01*
X013450Y006321D01*
X013450Y007450D01*
X012112Y007450D01*
X012020Y007358D01*
X011881Y007300D01*
X011729Y007300D01*
X011590Y007358D01*
X011483Y007465D01*
X011425Y007604D01*
X011425Y007756D01*
X011483Y007895D01*
X011518Y007930D01*
X011483Y007965D01*
X011425Y008104D01*
X011425Y008256D01*
X011483Y008395D01*
X011590Y008502D01*
X011729Y008560D01*
X011881Y008560D01*
X012020Y008502D01*
X012112Y008410D01*
X012572Y008410D01*
X012544Y008449D01*
X012512Y008511D01*
X012491Y008577D01*
X012480Y008645D01*
X012480Y008680D01*
X013180Y008680D01*
X010180Y008680D01*
X010180Y008680D01*
X010180Y009120D01*
X010475Y009120D01*
X010543Y009109D01*
X010609Y009088D01*
X010671Y009056D01*
X012689Y009056D01*
X012633Y009016D01*
X012584Y008967D01*
X012544Y008911D01*
X012512Y008849D01*
X012491Y008783D01*
X012480Y008715D01*
X012480Y008680D01*
X013180Y008680D01*
X014680Y008680D01*
X017680Y008680D01*
X019680Y008680D01*
X022680Y008680D01*
X024180Y008680D01*
X027055Y008680D01*
X027180Y008680D01*
X027180Y008680D01*
X027180Y009120D01*
X027475Y009120D01*
X027543Y009109D01*
X027609Y009088D01*
X027671Y009056D01*
X028106Y009056D01*
X028264Y009215D02*
X025560Y009215D01*
X025560Y009235D02*
X026275Y009950D01*
X026743Y009950D01*
X026743Y009348D01*
X026848Y009243D01*
X027512Y009243D01*
X027617Y009348D01*
X027617Y009950D01*
X027650Y009950D01*
X027785Y010085D01*
X028240Y010540D01*
X028240Y010498D01*
X028498Y010240D01*
X028862Y010240D01*
X029120Y010498D01*
X029120Y010795D01*
X029275Y010950D01*
X029788Y010950D01*
X029998Y010740D01*
X030362Y010740D01*
X030620Y010998D01*
X030620Y011362D01*
X030532Y011450D01*
X030828Y011450D01*
X030740Y011362D01*
X030740Y010998D01*
X030998Y010740D01*
X031362Y010740D01*
X031572Y010950D01*
X032625Y010950D01*
X032295Y010620D01*
X031832Y010620D01*
X031671Y010553D01*
X031547Y010429D01*
X031480Y010268D01*
X031480Y010092D01*
X031547Y009931D01*
X031671Y009807D01*
X031832Y009740D01*
X032528Y009740D01*
X032689Y009807D01*
X032813Y009931D01*
X032880Y010092D01*
X032880Y010268D01*
X032813Y010429D01*
X032784Y010458D01*
X033025Y010700D01*
X035700Y010700D01*
X035700Y010542D01*
X035689Y010553D01*
X035528Y010620D01*
X034832Y010620D01*
X034671Y010553D01*
X034547Y010429D01*
X034480Y010268D01*
X034480Y010092D01*
X034547Y009931D01*
X034671Y009807D01*
X034832Y009740D01*
X035528Y009740D01*
X035689Y009807D01*
X035708Y009826D01*
X035835Y009700D01*
X036076Y009458D01*
X036047Y009429D01*
X035980Y009268D01*
X035980Y009092D01*
X036047Y008931D01*
X036171Y008807D01*
X036332Y008740D01*
X037028Y008740D01*
X037189Y008807D01*
X037313Y008931D01*
X037362Y009048D01*
X037835Y008575D01*
X038960Y008575D01*
X039076Y008458D01*
X039047Y008429D01*
X038980Y008268D01*
X038980Y008092D01*
X039047Y007931D01*
X039171Y007807D01*
X039332Y007740D01*
X040028Y007740D01*
X040189Y007807D01*
X040270Y007888D01*
X040270Y007472D01*
X040189Y007553D01*
X040028Y007620D01*
X039565Y007620D01*
X039525Y007660D01*
X038697Y007660D01*
X038752Y007715D01*
X038810Y007854D01*
X038810Y008006D01*
X038752Y008145D01*
X038645Y008252D01*
X038506Y008310D01*
X038354Y008310D01*
X038215Y008252D01*
X038123Y008160D01*
X037380Y008160D01*
X037380Y008268D01*
X037313Y008429D01*
X037189Y008553D01*
X037028Y008620D01*
X036332Y008620D01*
X036171Y008553D01*
X036160Y008542D01*
X036160Y008775D01*
X036025Y008910D01*
X035788Y008910D01*
X035816Y008949D01*
X035848Y009011D01*
X035869Y009077D01*
X035880Y009145D01*
X035880Y009180D01*
X035880Y009215D01*
X035869Y009283D01*
X035848Y009349D01*
X035816Y009411D01*
X035776Y009467D01*
X035727Y009516D01*
X035671Y009556D01*
X035609Y009588D01*
X035543Y009609D01*
X035475Y009620D01*
X035180Y009620D01*
X035180Y009180D01*
X034680Y009680D01*
X033680Y009680D01*
X031055Y009680D01*
X030555Y010180D01*
X028555Y010180D01*
X027055Y008680D01*
X027180Y008680D02*
X026480Y008680D01*
X027180Y008680D01*
X027180Y008680D01*
X027180Y009120D01*
X026885Y009120D01*
X026817Y009109D01*
X026751Y009088D01*
X026689Y009056D01*
X025540Y009056D01*
X025560Y009104D02*
X025560Y009235D01*
X025560Y009104D02*
X025502Y008965D01*
X025395Y008858D01*
X025256Y008800D01*
X025104Y008800D01*
X024965Y008858D01*
X024858Y008965D01*
X024800Y009104D01*
X024800Y009225D01*
X024660Y009085D01*
X024645Y009069D01*
X024671Y009056D01*
X024820Y009056D01*
X024776Y008967D02*
X024727Y009016D01*
X024671Y009056D01*
X024776Y008967D02*
X024816Y008911D01*
X024848Y008849D01*
X024869Y008783D01*
X024880Y008715D01*
X024880Y008680D01*
X024180Y008680D01*
X024180Y008680D01*
X024880Y008680D01*
X024880Y008645D01*
X024869Y008577D01*
X024856Y008535D01*
X026150Y008535D01*
X026275Y008410D01*
X026572Y008410D01*
X026544Y008449D01*
X026512Y008511D01*
X026491Y008577D01*
X026480Y008645D01*
X026480Y008680D01*
X026480Y008715D01*
X026491Y008783D01*
X026512Y008849D01*
X026544Y008911D01*
X026584Y008967D01*
X026633Y009016D01*
X026689Y009056D01*
X026537Y008898D02*
X025435Y008898D01*
X024925Y008898D02*
X024823Y008898D01*
X024876Y008739D02*
X026484Y008739D01*
X026490Y008581D02*
X024870Y008581D01*
X024180Y008680D02*
X023480Y008680D01*
X024180Y008680D01*
X024180Y008680D01*
X023689Y008304D02*
X023633Y008344D01*
X023584Y008393D01*
X023544Y008449D01*
X023512Y008511D01*
X023491Y008577D01*
X023480Y008645D01*
X023480Y008680D01*
X023480Y008715D01*
X023491Y008783D01*
X023512Y008849D01*
X023544Y008911D01*
X023572Y008950D01*
X023288Y008950D01*
X023316Y008911D01*
X023348Y008849D01*
X023369Y008783D01*
X023380Y008715D01*
X023380Y008680D01*
X022680Y008680D01*
X022680Y008680D01*
X023380Y008680D01*
X023380Y008645D01*
X023369Y008577D01*
X023348Y008511D01*
X023316Y008449D01*
X023276Y008393D01*
X023227Y008344D01*
X023171Y008304D01*
X023134Y008285D01*
X023726Y008285D01*
X023689Y008304D01*
X023564Y008422D02*
X023296Y008422D01*
X023370Y008581D02*
X023490Y008581D01*
X023484Y008739D02*
X023376Y008739D01*
X023323Y008898D02*
X023537Y008898D01*
X022680Y008680D02*
X022680Y008680D01*
X021980Y008680D01*
X021980Y008715D01*
X021991Y008783D01*
X021996Y008800D01*
X021979Y008800D01*
X021840Y008858D01*
X021733Y008965D01*
X021675Y009104D01*
X021675Y009256D01*
X021733Y009395D01*
X021840Y009502D01*
X021979Y009560D01*
X022131Y009560D01*
X022243Y009514D01*
X022243Y009950D01*
X020117Y009950D01*
X020117Y009348D01*
X020012Y009243D01*
X019348Y009243D01*
X019243Y009348D01*
X019243Y009950D01*
X018117Y009950D01*
X018117Y009348D01*
X018012Y009243D01*
X017348Y009243D01*
X017243Y009348D01*
X017243Y009950D01*
X015117Y009950D01*
X015117Y009348D01*
X015012Y009243D01*
X014348Y009243D01*
X014243Y009348D01*
X014243Y009950D01*
X013617Y009950D01*
X013617Y009348D01*
X013512Y009243D01*
X012848Y009243D01*
X012743Y009348D01*
X012743Y009950D01*
X010617Y009950D01*
X010617Y009348D01*
X010512Y009243D01*
X009848Y009243D01*
X009743Y009348D01*
X009743Y009950D01*
X009117Y009950D01*
X009117Y009348D01*
X009012Y009243D01*
X008348Y009243D01*
X008243Y009348D01*
X008243Y009950D01*
X006117Y009950D01*
X006117Y009348D01*
X006012Y009243D01*
X005348Y009243D01*
X005243Y009348D01*
X005243Y010012D01*
X005348Y010117D01*
X005917Y010117D01*
X005795Y010240D01*
X005332Y010240D01*
X005171Y010307D01*
X005047Y010431D01*
X004980Y010592D01*
X004980Y010768D01*
X005047Y010929D01*
X005068Y010950D01*
X004792Y010950D01*
X004813Y010929D01*
X004880Y010768D01*
X004880Y010592D01*
X004813Y010431D01*
X004689Y010307D01*
X004528Y010240D01*
X003832Y010240D01*
X003671Y010307D01*
X003547Y010431D01*
X003480Y010592D01*
X003480Y010768D01*
X003547Y010929D01*
X003568Y010950D01*
X001792Y010950D01*
X001813Y010929D01*
X001880Y010768D01*
X001880Y010592D01*
X001813Y010431D01*
X001689Y010307D01*
X001528Y010240D01*
X000832Y010240D01*
X000671Y010307D01*
X000660Y010318D01*
X000660Y009035D01*
X000689Y009056D01*
X000660Y009056D01*
X000689Y009056D02*
X000751Y009088D01*
X000817Y009109D01*
X000885Y009120D01*
X001180Y009120D01*
X001180Y008680D01*
X004180Y008680D01*
X005680Y008680D01*
X008680Y008680D01*
X008680Y008680D01*
X008680Y009120D01*
X008975Y009120D01*
X009043Y009109D01*
X009109Y009088D01*
X009171Y009056D01*
X009689Y009056D01*
X009633Y009016D01*
X009584Y008967D01*
X009544Y008911D01*
X009512Y008849D01*
X009491Y008783D01*
X009480Y008715D01*
X009480Y008680D01*
X010180Y008680D01*
X010880Y008680D01*
X010880Y008715D01*
X010869Y008783D01*
X010848Y008849D01*
X010816Y008911D01*
X010776Y008967D01*
X010727Y009016D01*
X010671Y009056D01*
X010823Y008898D02*
X012537Y008898D01*
X012484Y008739D02*
X010876Y008739D01*
X010880Y008680D02*
X010180Y008680D01*
X010180Y008680D01*
X010180Y008240D01*
X010475Y008240D01*
X010543Y008251D01*
X010609Y008272D01*
X010671Y008304D01*
X010727Y008344D01*
X010776Y008393D01*
X010816Y008449D01*
X010848Y008511D01*
X010869Y008577D01*
X010880Y008645D01*
X010880Y008680D01*
X010870Y008581D02*
X012490Y008581D01*
X012564Y008422D02*
X012100Y008422D01*
X011510Y008422D02*
X010796Y008422D01*
X010582Y008264D02*
X011428Y008264D01*
X011425Y008105D02*
X000660Y008105D01*
X000660Y007947D02*
X011501Y007947D01*
X011438Y007788D02*
X000660Y007788D01*
X000660Y007630D02*
X001762Y007630D01*
X001783Y007650D02*
X001710Y007577D01*
X001252Y007120D01*
X000998Y007120D01*
X000740Y006862D01*
X000740Y006498D01*
X000928Y006310D01*
X000807Y006189D01*
X000740Y006028D01*
X000740Y005570D01*
X000660Y005650D01*
X000660Y008325D01*
X000689Y008304D01*
X000751Y008272D01*
X000817Y008251D01*
X000885Y008240D01*
X001180Y008240D01*
X001475Y008240D01*
X001543Y008251D01*
X001609Y008272D01*
X001671Y008304D01*
X001727Y008344D01*
X001776Y008393D01*
X001816Y008449D01*
X001848Y008511D01*
X001869Y008577D01*
X001880Y008645D01*
X001880Y008680D01*
X001880Y008715D01*
X001869Y008783D01*
X001848Y008849D01*
X001816Y008911D01*
X001776Y008967D01*
X001727Y009016D01*
X001671Y009056D01*
X003689Y009056D01*
X003633Y009016D01*
X003584Y008967D01*
X003544Y008911D01*
X003512Y008849D01*
X003491Y008783D01*
X003480Y008715D01*
X003480Y008680D01*
X004180Y008680D01*
X004180Y008680D01*
X004180Y009120D01*
X004475Y009120D01*
X004543Y009109D01*
X004609Y009088D01*
X004671Y009056D01*
X005189Y009056D01*
X005133Y009016D01*
X005084Y008967D01*
X005044Y008911D01*
X005012Y008849D01*
X004991Y008783D01*
X004980Y008715D01*
X004980Y008680D01*
X005680Y008680D01*
X005680Y008680D01*
X005680Y009120D01*
X005975Y009120D01*
X006043Y009109D01*
X006109Y009088D01*
X006171Y009056D01*
X008189Y009056D01*
X008133Y009016D01*
X008084Y008967D01*
X008044Y008911D01*
X008012Y008849D01*
X007991Y008783D01*
X007980Y008715D01*
X007980Y008680D01*
X008680Y008680D01*
X009380Y008680D01*
X009380Y008715D01*
X009369Y008783D01*
X009348Y008849D01*
X009316Y008911D01*
X009276Y008967D01*
X009227Y009016D01*
X009171Y009056D01*
X009323Y008898D02*
X009537Y008898D01*
X009484Y008739D02*
X009376Y008739D01*
X009380Y008680D02*
X008680Y008680D01*
X008680Y008680D01*
X008680Y008240D01*
X008975Y008240D01*
X009043Y008251D01*
X009109Y008272D01*
X009171Y008304D01*
X009227Y008344D01*
X009276Y008393D01*
X009316Y008449D01*
X009348Y008511D01*
X009369Y008577D01*
X009380Y008645D01*
X009380Y008680D01*
X009480Y008680D02*
X009480Y008645D01*
X009491Y008577D01*
X009512Y008511D01*
X009544Y008449D01*
X009584Y008393D01*
X009633Y008344D01*
X009689Y008304D01*
X009751Y008272D01*
X009817Y008251D01*
X009885Y008240D01*
X010180Y008240D01*
X010180Y008680D01*
X010180Y008680D01*
X010180Y008680D01*
X010180Y009120D01*
X009885Y009120D01*
X009817Y009109D01*
X009751Y009088D01*
X009689Y009056D01*
X010180Y009056D02*
X010180Y009056D01*
X010180Y008898D02*
X010180Y008898D01*
X010180Y008739D02*
X010180Y008739D01*
X010180Y008680D02*
X009480Y008680D01*
X009490Y008581D02*
X009370Y008581D01*
X009296Y008422D02*
X009564Y008422D01*
X009778Y008264D02*
X009082Y008264D01*
X008680Y008264D02*
X008680Y008264D01*
X008680Y008240D02*
X008680Y008680D01*
X008680Y008680D01*
X008680Y008680D01*
X008680Y009120D01*
X008385Y009120D01*
X008317Y009109D01*
X008251Y009088D01*
X008189Y009056D01*
X008037Y008898D02*
X006323Y008898D01*
X006316Y008911D02*
X006276Y008967D01*
X006227Y009016D01*
X006171Y009056D01*
X006316Y008911D02*
X006348Y008849D01*
X006369Y008783D01*
X006380Y008715D01*
X006380Y008680D01*
X005680Y008680D01*
X005680Y008680D01*
X005680Y008240D01*
X005975Y008240D01*
X006043Y008251D01*
X006109Y008272D01*
X006171Y008304D01*
X006227Y008344D01*
X006276Y008393D01*
X006316Y008449D01*
X006348Y008511D01*
X006369Y008577D01*
X006380Y008645D01*
X006380Y008680D01*
X005680Y008680D01*
X005680Y008680D01*
X005680Y008680D01*
X005680Y009120D01*
X005385Y009120D01*
X005317Y009109D01*
X005251Y009088D01*
X005189Y009056D01*
X005037Y008898D02*
X004823Y008898D01*
X004816Y008911D02*
X004776Y008967D01*
X004727Y009016D01*
X004671Y009056D01*
X004816Y008911D02*
X004848Y008849D01*
X004869Y008783D01*
X004880Y008715D01*
X004880Y008680D01*
X004180Y008680D01*
X004180Y008680D01*
X004180Y008240D01*
X004475Y008240D01*
X004543Y008251D01*
X004609Y008272D01*
X004671Y008304D01*
X004727Y008344D01*
X004776Y008393D01*
X004816Y008449D01*
X004848Y008511D01*
X004869Y008577D01*
X004880Y008645D01*
X004880Y008680D01*
X004180Y008680D01*
X004180Y008680D01*
X004180Y008680D01*
X004180Y009120D01*
X003885Y009120D01*
X003817Y009109D01*
X003751Y009088D01*
X003689Y009056D01*
X003537Y008898D02*
X001823Y008898D01*
X001876Y008739D02*
X003484Y008739D01*
X003480Y008680D02*
X003480Y008645D01*
X003491Y008577D01*
X003512Y008511D01*
X003544Y008449D01*
X003584Y008393D01*
X003633Y008344D01*
X003689Y008304D01*
X003751Y008272D01*
X003817Y008251D01*
X003885Y008240D01*
X004180Y008240D01*
X004180Y008680D01*
X003480Y008680D01*
X003490Y008581D02*
X001870Y008581D01*
X001880Y008680D02*
X001180Y008680D01*
X001180Y008680D01*
X001880Y008680D01*
X001796Y008422D02*
X003564Y008422D01*
X003778Y008264D02*
X001582Y008264D01*
X001180Y008264D02*
X001180Y008264D01*
X001180Y008240D02*
X001180Y008680D01*
X001180Y008680D01*
X001180Y009120D01*
X001475Y009120D01*
X001543Y009109D01*
X001609Y009088D01*
X001671Y009056D01*
X001512Y009243D02*
X001617Y009348D01*
X001617Y010012D01*
X001512Y010117D01*
X000848Y010117D01*
X000743Y010012D01*
X000743Y009348D01*
X000848Y009243D01*
X001512Y009243D01*
X001617Y009373D02*
X003743Y009373D01*
X003743Y009348D02*
X003848Y009243D01*
X004512Y009243D01*
X004617Y009348D01*
X004617Y010012D01*
X004512Y010117D01*
X003848Y010117D01*
X003743Y010012D01*
X003743Y009348D01*
X003743Y009532D02*
X001617Y009532D01*
X001617Y009690D02*
X003743Y009690D01*
X003743Y009849D02*
X001617Y009849D01*
X001617Y010007D02*
X003743Y010007D01*
X003654Y010324D02*
X001706Y010324D01*
X001834Y010483D02*
X003526Y010483D01*
X003480Y010641D02*
X001880Y010641D01*
X001867Y010800D02*
X003493Y010800D01*
X004706Y010324D02*
X005154Y010324D01*
X005026Y010483D02*
X004834Y010483D01*
X004880Y010641D02*
X004980Y010641D01*
X004993Y010800D02*
X004867Y010800D01*
X005869Y010166D02*
X000660Y010166D01*
X000660Y010007D02*
X000743Y010007D01*
X000743Y009849D02*
X000660Y009849D01*
X000660Y009690D02*
X000743Y009690D01*
X000743Y009532D02*
X000660Y009532D01*
X000660Y009373D02*
X000743Y009373D01*
X000660Y009215D02*
X021675Y009215D01*
X021695Y009056D02*
X020171Y009056D01*
X020109Y009088D01*
X020043Y009109D01*
X019975Y009120D01*
X019680Y009120D01*
X019680Y008680D01*
X019680Y008680D01*
X020380Y008680D01*
X020380Y008715D01*
X020369Y008783D01*
X020348Y008849D01*
X020316Y008911D01*
X020276Y008967D01*
X020227Y009016D01*
X020171Y009056D01*
X020323Y008898D02*
X021800Y008898D01*
X021984Y008739D02*
X020376Y008739D01*
X020380Y008680D02*
X019680Y008680D01*
X019680Y008680D01*
X019680Y008240D01*
X019975Y008240D01*
X020043Y008251D01*
X020109Y008272D01*
X020171Y008304D01*
X020227Y008344D01*
X020276Y008393D01*
X020316Y008449D01*
X020348Y008511D01*
X020369Y008577D01*
X020380Y008645D01*
X020380Y008680D01*
X020370Y008581D02*
X021990Y008581D01*
X021991Y008577D02*
X022012Y008511D01*
X022044Y008449D01*
X022084Y008393D01*
X022133Y008344D01*
X022189Y008304D01*
X022226Y008285D01*
X020585Y008285D01*
X019825Y007525D01*
X019825Y006356D01*
X019768Y006380D01*
X019592Y006380D01*
X019431Y006313D01*
X019402Y006284D01*
X018160Y007525D01*
X018025Y007660D01*
X017362Y007660D01*
X017342Y007680D01*
X017354Y007675D01*
X017506Y007675D01*
X017645Y007733D01*
X017752Y007840D01*
X017810Y007979D01*
X017810Y008131D01*
X017765Y008240D01*
X017975Y008240D01*
X018043Y008251D01*
X018109Y008272D01*
X018171Y008304D01*
X018227Y008344D01*
X018276Y008393D01*
X018316Y008449D01*
X018348Y008511D01*
X018369Y008577D01*
X018380Y008645D01*
X018380Y008680D01*
X018380Y008715D01*
X018369Y008783D01*
X018348Y008849D01*
X018316Y008911D01*
X018276Y008967D01*
X018227Y009016D01*
X018171Y009056D01*
X019189Y009056D01*
X019133Y009016D01*
X019084Y008967D01*
X019044Y008911D01*
X019012Y008849D01*
X018991Y008783D01*
X018980Y008715D01*
X018980Y008680D01*
X019680Y008680D01*
X019680Y008680D01*
X019680Y008680D01*
X019680Y009120D01*
X019385Y009120D01*
X019317Y009109D01*
X019251Y009088D01*
X019189Y009056D01*
X019037Y008898D02*
X018323Y008898D01*
X018376Y008739D02*
X018984Y008739D01*
X018980Y008680D02*
X018980Y008645D01*
X018991Y008577D01*
X019012Y008511D01*
X019044Y008449D01*
X019084Y008393D01*
X019133Y008344D01*
X019189Y008304D01*
X019251Y008272D01*
X019317Y008251D01*
X019385Y008240D01*
X019680Y008240D01*
X019680Y008680D01*
X018980Y008680D01*
X018990Y008581D02*
X018370Y008581D01*
X018380Y008680D02*
X017680Y008680D01*
X017680Y008680D01*
X017680Y009120D01*
X017975Y009120D01*
X018043Y009109D01*
X018109Y009088D01*
X018171Y009056D01*
X017680Y009056D02*
X017680Y009056D01*
X017680Y009120D02*
X017385Y009120D01*
X017317Y009109D01*
X017251Y009088D01*
X017189Y009056D01*
X015171Y009056D01*
X015109Y009088D01*
X015043Y009109D01*
X014975Y009120D01*
X014680Y009120D01*
X014680Y008680D01*
X014680Y008680D01*
X015380Y008680D01*
X015380Y008715D01*
X015369Y008783D01*
X015348Y008849D01*
X015316Y008911D01*
X015276Y008967D01*
X015227Y009016D01*
X015171Y009056D01*
X015323Y008898D02*
X017037Y008898D01*
X017044Y008911D02*
X017012Y008849D01*
X016991Y008783D01*
X016980Y008715D01*
X016980Y008680D01*
X017680Y008680D01*
X018380Y008680D01*
X017680Y008680D02*
X017680Y008680D01*
X017680Y008680D01*
X017680Y009120D01*
X017680Y008898D02*
X017680Y008898D01*
X017680Y008739D02*
X017680Y008739D01*
X017680Y008680D02*
X016980Y008680D01*
X016980Y008645D01*
X016991Y008577D01*
X017012Y008511D01*
X017044Y008449D01*
X017084Y008393D01*
X017133Y008344D01*
X017162Y008324D01*
X017123Y008285D01*
X017085Y008285D01*
X016950Y008150D01*
X016235Y007435D01*
X016104Y007435D01*
X015965Y007377D01*
X015910Y007322D01*
X015910Y008275D01*
X015775Y008410D01*
X015288Y008410D01*
X015316Y008449D01*
X015348Y008511D01*
X015369Y008577D01*
X015380Y008645D01*
X015380Y008680D01*
X014680Y008680D01*
X014680Y008680D01*
X014680Y008680D01*
X013980Y008680D01*
X013980Y008715D01*
X013991Y008783D01*
X014012Y008849D01*
X014044Y008911D01*
X014084Y008967D01*
X014133Y009016D01*
X014189Y009056D01*
X013671Y009056D01*
X013609Y009088D01*
X013543Y009109D01*
X013475Y009120D01*
X013180Y009120D01*
X013180Y008680D01*
X013180Y008680D01*
X013880Y008680D01*
X013880Y008715D01*
X013869Y008783D01*
X013848Y008849D01*
X013816Y008911D01*
X013776Y008967D01*
X013727Y009016D01*
X013671Y009056D01*
X013823Y008898D02*
X014037Y008898D01*
X013984Y008739D02*
X013876Y008739D01*
X013880Y008680D02*
X013180Y008680D01*
X013180Y008680D01*
X013180Y008680D01*
X013180Y009120D01*
X012885Y009120D01*
X012817Y009109D01*
X012751Y009088D01*
X012689Y009056D01*
X013180Y009056D02*
X013180Y009056D01*
X013180Y008898D02*
X013180Y008898D01*
X013180Y008739D02*
X013180Y008739D01*
X013816Y008449D02*
X013848Y008511D01*
X013869Y008577D01*
X013880Y008645D01*
X013880Y008680D01*
X013980Y008680D02*
X013980Y008645D01*
X013991Y008577D01*
X014012Y008511D01*
X014044Y008449D01*
X014072Y008410D01*
X013788Y008410D01*
X013816Y008449D01*
X013796Y008422D02*
X014064Y008422D01*
X013990Y008581D02*
X013870Y008581D01*
X013980Y008680D02*
X014680Y008680D01*
X014680Y009120D01*
X014385Y009120D01*
X014317Y009109D01*
X014251Y009088D01*
X014189Y009056D01*
X014680Y009056D02*
X014680Y009056D01*
X014680Y008898D02*
X014680Y008898D01*
X014680Y008739D02*
X014680Y008739D01*
X015296Y008422D02*
X017064Y008422D01*
X017063Y008264D02*
X015910Y008264D01*
X015910Y008105D02*
X016905Y008105D01*
X016746Y007947D02*
X015910Y007947D01*
X015910Y007788D02*
X016588Y007788D01*
X016429Y007630D02*
X015910Y007630D01*
X015910Y007471D02*
X016271Y007471D01*
X015450Y007471D02*
X013910Y007471D01*
X013910Y007313D02*
X015450Y007313D01*
X015450Y007154D02*
X013910Y007154D01*
X013910Y006996D02*
X015450Y006996D01*
X015450Y006837D02*
X013910Y006837D01*
X013910Y006679D02*
X015450Y006679D01*
X015450Y006520D02*
X013910Y006520D01*
X013910Y006362D02*
X014548Y006362D01*
X014812Y006362D02*
X015450Y006362D01*
X015321Y006203D02*
X015039Y006203D01*
X015113Y006045D02*
X015247Y006045D01*
X015240Y005886D02*
X015120Y005886D01*
X015120Y005728D02*
X015240Y005728D01*
X015240Y005569D02*
X015120Y005569D01*
X014384Y005094D02*
X013976Y005094D01*
X014087Y005252D02*
X014273Y005252D01*
X014240Y005411D02*
X014120Y005411D01*
X014120Y005569D02*
X014240Y005569D01*
X014240Y005728D02*
X014120Y005728D01*
X014120Y005886D02*
X014240Y005886D01*
X014247Y006045D02*
X014113Y006045D01*
X014039Y006203D02*
X014321Y006203D01*
X013450Y006362D02*
X012984Y006362D01*
X012927Y006305D02*
X013120Y006498D01*
X013120Y006680D01*
X013120Y006862D01*
X012862Y007120D01*
X012680Y007120D01*
X012680Y006680D01*
X012680Y006680D01*
X013120Y006680D01*
X012680Y006680D01*
X012680Y006680D01*
X012680Y005680D01*
X012680Y005680D01*
X013120Y005680D01*
X013120Y005975D01*
X013109Y006043D01*
X013088Y006109D01*
X013056Y006171D01*
X013016Y006227D01*
X012967Y006276D01*
X012927Y006305D01*
X013033Y006203D02*
X013321Y006203D01*
X013247Y006045D02*
X013109Y006045D01*
X013120Y005886D02*
X013240Y005886D01*
X013240Y005728D02*
X013120Y005728D01*
X013120Y005680D02*
X012680Y005680D01*
X012680Y005680D01*
X012680Y006380D01*
X012680Y006680D01*
X012680Y006680D01*
X012680Y006680D01*
X012240Y006680D01*
X012240Y006862D01*
X012498Y007120D01*
X012680Y007120D01*
X012680Y006680D01*
X012240Y006680D01*
X012240Y006498D01*
X012433Y006305D01*
X012393Y006276D01*
X012344Y006227D01*
X012304Y006171D01*
X012272Y006109D01*
X012251Y006043D01*
X012240Y005975D01*
X012240Y005680D01*
X012680Y005680D01*
X012680Y005680D01*
X012240Y005680D01*
X012240Y005488D01*
X012120Y005608D01*
X012120Y006028D01*
X012053Y006189D01*
X011932Y006310D01*
X012120Y006498D01*
X012120Y006862D01*
X011862Y007120D01*
X011608Y007120D01*
X011077Y007650D01*
X010982Y007690D01*
X001878Y007690D01*
X001783Y007650D01*
X001603Y007471D02*
X000660Y007471D01*
X000660Y007313D02*
X001445Y007313D01*
X001286Y007154D02*
X000660Y007154D01*
X000660Y006996D02*
X000873Y006996D01*
X000740Y006837D02*
X000660Y006837D01*
X000660Y006679D02*
X000740Y006679D01*
X000740Y006520D02*
X000660Y006520D01*
X000660Y006362D02*
X000876Y006362D01*
X000821Y006203D02*
X000660Y006203D01*
X000660Y006045D02*
X000747Y006045D01*
X000740Y005886D02*
X000660Y005886D01*
X000660Y005728D02*
X000740Y005728D01*
X001620Y005728D02*
X001740Y005728D01*
X001740Y005886D02*
X001620Y005886D01*
X001613Y006045D02*
X001751Y006045D01*
X001827Y006203D02*
X001539Y006203D01*
X001484Y006362D02*
X001876Y006362D01*
X001740Y006520D02*
X001620Y006520D01*
X001620Y006679D02*
X001740Y006679D01*
X001740Y006837D02*
X001705Y006837D01*
X001863Y006996D02*
X001873Y006996D01*
X002022Y007154D02*
X004992Y007154D01*
X004925Y006996D02*
X002487Y006996D01*
X002620Y006837D02*
X004932Y006837D01*
X005019Y006679D02*
X002620Y006679D01*
X002620Y006520D02*
X008015Y006520D01*
X008048Y006362D02*
X007312Y006362D01*
X007268Y006380D02*
X007092Y006380D01*
X006931Y006313D01*
X006807Y006189D01*
X006740Y006028D01*
X006740Y005332D01*
X006807Y005171D01*
X006931Y005047D01*
X007092Y004980D01*
X007268Y004980D01*
X007429Y005047D01*
X007553Y005171D01*
X007620Y005332D01*
X007620Y006028D01*
X007553Y006189D01*
X007429Y006313D01*
X007268Y006380D01*
X007048Y006362D02*
X006312Y006362D01*
X006268Y006380D02*
X006092Y006380D01*
X005931Y006313D01*
X005807Y006189D01*
X005740Y006028D01*
X005740Y005332D01*
X005807Y005171D01*
X005931Y005047D01*
X006092Y004980D01*
X006268Y004980D01*
X006429Y005047D01*
X006553Y005171D01*
X006620Y005332D01*
X006620Y006028D01*
X006553Y006189D01*
X006429Y006313D01*
X006268Y006380D01*
X006048Y006362D02*
X005312Y006362D01*
X005048Y006362D02*
X004312Y006362D01*
X004048Y006362D02*
X003312Y006362D01*
X003048Y006362D02*
X002484Y006362D01*
X002533Y006203D02*
X002821Y006203D01*
X002747Y006045D02*
X002609Y006045D01*
X002620Y005886D02*
X002740Y005886D01*
X002740Y005728D02*
X002620Y005728D01*
X002620Y005569D02*
X002740Y005569D01*
X002740Y005411D02*
X002620Y005411D01*
X002588Y005252D02*
X002773Y005252D01*
X003587Y005252D02*
X003773Y005252D01*
X003740Y005411D02*
X003620Y005411D01*
X003620Y005569D02*
X003740Y005569D01*
X003740Y005728D02*
X003620Y005728D01*
X003620Y005886D02*
X003740Y005886D01*
X003747Y006045D02*
X003613Y006045D01*
X003539Y006203D02*
X003821Y006203D01*
X004539Y006203D02*
X004821Y006203D01*
X004747Y006045D02*
X004613Y006045D01*
X004620Y005886D02*
X004740Y005886D01*
X004740Y005728D02*
X004620Y005728D01*
X004620Y005569D02*
X004740Y005569D01*
X005620Y005569D02*
X005740Y005569D01*
X005740Y005411D02*
X005620Y005411D01*
X005587Y005252D02*
X005773Y005252D01*
X005884Y005094D02*
X005476Y005094D01*
X006476Y005094D02*
X006884Y005094D01*
X006773Y005252D02*
X006587Y005252D01*
X006620Y005411D02*
X006740Y005411D01*
X006740Y005569D02*
X006620Y005569D01*
X006620Y005728D02*
X006740Y005728D01*
X006740Y005886D02*
X006620Y005886D01*
X006613Y006045D02*
X006747Y006045D01*
X006821Y006203D02*
X006539Y006203D01*
X005821Y006203D02*
X005539Y006203D01*
X005613Y006045D02*
X005747Y006045D01*
X005740Y005886D02*
X005620Y005886D01*
X005620Y005728D02*
X005740Y005728D01*
X007476Y005094D02*
X007884Y005094D01*
X007773Y005252D02*
X007587Y005252D01*
X007620Y005411D02*
X007740Y005411D01*
X007740Y005569D02*
X007620Y005569D01*
X007620Y005728D02*
X007740Y005728D01*
X007740Y005886D02*
X007620Y005886D01*
X007613Y006045D02*
X007747Y006045D01*
X007821Y006203D02*
X007539Y006203D01*
X007856Y006679D02*
X005591Y006679D01*
X008031Y007154D02*
X010838Y007154D01*
X010997Y006996D02*
X008190Y006996D01*
X008348Y006837D02*
X011155Y006837D01*
X011240Y006679D02*
X008507Y006679D01*
X008665Y006520D02*
X011240Y006520D01*
X011376Y006362D02*
X010312Y006362D01*
X010268Y006380D02*
X010092Y006380D01*
X009931Y006313D01*
X009807Y006189D01*
X009740Y006028D01*
X009740Y005332D01*
X009807Y005171D01*
X009931Y005047D01*
X010092Y004980D01*
X010268Y004980D01*
X010429Y005047D01*
X010553Y005171D01*
X010620Y005332D01*
X010620Y006028D01*
X010553Y006189D01*
X010429Y006313D01*
X010268Y006380D01*
X010048Y006362D02*
X009312Y006362D01*
X009048Y006362D02*
X008824Y006362D01*
X009539Y006203D02*
X009821Y006203D01*
X009747Y006045D02*
X009613Y006045D01*
X009620Y005886D02*
X009740Y005886D01*
X009740Y005728D02*
X009620Y005728D01*
X009620Y005569D02*
X009740Y005569D01*
X009740Y005411D02*
X009620Y005411D01*
X009587Y005252D02*
X009773Y005252D01*
X009884Y005094D02*
X009476Y005094D01*
X008884Y005094D02*
X008476Y005094D01*
X008587Y005252D02*
X008773Y005252D01*
X008740Y005411D02*
X008620Y005411D01*
X008620Y005569D02*
X008740Y005569D01*
X008740Y005728D02*
X008620Y005728D01*
X008620Y005886D02*
X008649Y005886D01*
X010539Y006203D02*
X011321Y006203D01*
X011247Y006045D02*
X010613Y006045D01*
X010620Y005886D02*
X011240Y005886D01*
X011240Y005728D02*
X010620Y005728D01*
X010620Y005569D02*
X011240Y005569D01*
X011240Y005411D02*
X010620Y005411D01*
X010587Y005252D02*
X011273Y005252D01*
X011384Y005094D02*
X010476Y005094D01*
X011680Y005680D02*
X012805Y004555D01*
X017305Y004555D01*
X018180Y003680D01*
X020805Y003680D01*
X021680Y004555D01*
X022285Y004618D02*
X022700Y004618D01*
X022700Y004460D02*
X022285Y004460D01*
X022285Y004301D02*
X022700Y004301D01*
X022700Y004143D02*
X022285Y004143D01*
X022285Y003984D02*
X022801Y003984D01*
X022835Y003950D02*
X023460Y003325D01*
X023950Y003325D01*
X023950Y003321D01*
X023931Y003313D01*
X023807Y003189D01*
X023740Y003028D01*
X023740Y002332D01*
X023807Y002171D01*
X023818Y002160D01*
X023542Y002160D01*
X023553Y002171D01*
X023620Y002332D01*
X023620Y003028D01*
X023553Y003189D01*
X023429Y003313D01*
X023268Y003380D01*
X023092Y003380D01*
X023004Y003343D01*
X023060Y003479D01*
X023060Y003631D01*
X023002Y003770D01*
X022895Y003877D01*
X022756Y003935D01*
X022604Y003935D01*
X022465Y003877D01*
X022358Y003770D01*
X022300Y003631D01*
X022300Y003479D01*
X022356Y003344D01*
X022349Y003348D01*
X022285Y003369D01*
X022285Y004775D01*
X022150Y004910D01*
X022072Y004989D01*
X022092Y004980D01*
X022268Y004980D01*
X022429Y005047D01*
X022553Y005171D01*
X022620Y005332D01*
X022620Y006028D01*
X022553Y006189D01*
X022432Y006310D01*
X022620Y006498D01*
X022620Y006862D01*
X022532Y006950D01*
X022828Y006950D01*
X022740Y006862D01*
X022740Y006680D01*
X023180Y006680D01*
X023620Y006680D01*
X023620Y006862D01*
X023532Y006950D01*
X023950Y006950D01*
X023950Y006321D01*
X023931Y006313D01*
X023807Y006189D01*
X023740Y006028D01*
X023740Y005332D01*
X023807Y005171D01*
X023818Y005160D01*
X023535Y005160D01*
X023556Y005189D01*
X023588Y005251D01*
X023609Y005317D01*
X023620Y005385D01*
X023620Y005680D01*
X023620Y005975D01*
X023609Y006043D01*
X023588Y006109D01*
X023556Y006171D01*
X023516Y006227D01*
X023467Y006276D01*
X023427Y006305D01*
X023620Y006498D01*
X023620Y006680D01*
X023180Y006680D01*
X023180Y006680D01*
X023180Y006680D01*
X023180Y005680D01*
X023620Y005680D01*
X023180Y005680D01*
X023180Y005680D01*
X023180Y005680D01*
X023180Y005680D01*
X022740Y005680D01*
X022740Y005975D01*
X022751Y006043D01*
X022772Y006109D01*
X022804Y006171D01*
X022844Y006227D01*
X022893Y006276D01*
X022933Y006305D01*
X022740Y006498D01*
X022740Y006680D01*
X023180Y006680D01*
X023180Y006680D01*
X023180Y006240D01*
X023180Y005680D01*
X022740Y005680D01*
X022740Y005385D01*
X022751Y005317D01*
X022772Y005251D01*
X022804Y005189D01*
X022829Y005154D01*
X022700Y005025D01*
X022700Y004085D01*
X022835Y003950D01*
X022947Y003826D02*
X022959Y003826D01*
X023045Y003667D02*
X023118Y003667D01*
X023060Y003509D02*
X023276Y003509D01*
X023340Y003350D02*
X023435Y003350D01*
X023551Y003192D02*
X023809Y003192D01*
X023742Y003033D02*
X023618Y003033D01*
X023620Y002875D02*
X023740Y002875D01*
X023740Y002716D02*
X023620Y002716D01*
X023620Y002558D02*
X023740Y002558D01*
X023740Y002399D02*
X023620Y002399D01*
X023582Y002241D02*
X023778Y002241D01*
X022450Y002072D02*
X022450Y001904D01*
X022408Y001887D01*
X022273Y001752D01*
X022200Y001575D01*
X022200Y000785D01*
X022273Y000608D01*
X022408Y000473D01*
X022440Y000460D01*
X021920Y000460D01*
X021952Y000473D01*
X022087Y000608D01*
X022160Y000785D01*
X022160Y001575D01*
X022087Y001752D01*
X021952Y001887D01*
X021775Y001960D01*
X021585Y001960D01*
X021410Y001888D01*
X021410Y002460D01*
X021740Y002790D01*
X021740Y002680D01*
X022180Y002680D01*
X022180Y001980D01*
X022215Y001980D01*
X022283Y001991D01*
X022349Y002012D01*
X022411Y002044D01*
X022450Y002072D01*
X022450Y001924D02*
X021864Y001924D01*
X021949Y002044D02*
X022011Y002012D01*
X022077Y001991D01*
X022145Y001980D01*
X022180Y001980D01*
X022180Y002680D01*
X022180Y002680D01*
X022180Y002680D01*
X021740Y002680D01*
X021740Y002385D01*
X021751Y002317D01*
X021772Y002251D01*
X021804Y002189D01*
X021844Y002133D01*
X021893Y002084D01*
X021949Y002044D01*
X021897Y002082D02*
X021410Y002082D01*
X021410Y001924D02*
X021496Y001924D01*
X021410Y002241D02*
X021778Y002241D01*
X021740Y002399D02*
X021410Y002399D01*
X021508Y002558D02*
X021740Y002558D01*
X021740Y002716D02*
X021666Y002716D01*
X022180Y002558D02*
X022180Y002558D01*
X022180Y002399D02*
X022180Y002399D01*
X022180Y002241D02*
X022180Y002241D01*
X022180Y002082D02*
X022180Y002082D01*
X022074Y001765D02*
X022286Y001765D01*
X022213Y001607D02*
X022147Y001607D01*
X022160Y001448D02*
X022200Y001448D01*
X022200Y001290D02*
X022160Y001290D01*
X022160Y001131D02*
X022200Y001131D01*
X022200Y000973D02*
X022160Y000973D01*
X022160Y000814D02*
X022200Y000814D01*
X022253Y000656D02*
X022107Y000656D01*
X021976Y000497D02*
X022384Y000497D01*
X019326Y002152D02*
X019007Y001832D01*
X018952Y001887D01*
X018775Y001960D01*
X018585Y001960D01*
X018408Y001887D01*
X018273Y001752D01*
X018200Y001575D01*
X018200Y000785D01*
X018273Y000608D01*
X018408Y000473D01*
X018440Y000460D01*
X017920Y000460D01*
X017952Y000473D01*
X018087Y000608D01*
X018160Y000785D01*
X018160Y001575D01*
X018087Y001752D01*
X017952Y001887D01*
X017775Y001960D01*
X017585Y001960D01*
X017408Y001887D01*
X017273Y001752D01*
X017200Y001575D01*
X017200Y000785D01*
X017273Y000608D01*
X017408Y000473D01*
X017440Y000460D01*
X016913Y000460D01*
X016932Y000469D01*
X016993Y000514D01*
X017046Y000567D01*
X017091Y000628D01*
X017125Y000696D01*
X017148Y000768D01*
X017160Y000842D01*
X017160Y001160D01*
X016700Y001160D01*
X016700Y001200D01*
X016660Y001200D01*
X016660Y001960D01*
X016642Y001960D01*
X016568Y001948D01*
X016496Y001925D01*
X016428Y001891D01*
X016367Y001846D01*
X016314Y001793D01*
X016269Y001732D01*
X016235Y001664D01*
X016212Y001592D01*
X016200Y001518D01*
X016200Y001200D01*
X016660Y001200D01*
X016660Y001160D01*
X016200Y001160D01*
X016200Y000842D01*
X016212Y000768D01*
X016235Y000696D01*
X016269Y000628D01*
X016314Y000567D01*
X016367Y000514D01*
X016428Y000469D01*
X016447Y000460D01*
X015920Y000460D01*
X015952Y000473D01*
X016087Y000608D01*
X016160Y000785D01*
X016160Y001575D01*
X016087Y001752D01*
X016082Y001757D01*
X016160Y001835D01*
X016402Y002076D01*
X016431Y002047D01*
X016592Y001980D01*
X016768Y001980D01*
X016929Y002047D01*
X017053Y002171D01*
X017120Y002332D01*
X017120Y003028D01*
X017053Y003189D01*
X017042Y003200D01*
X017318Y003200D01*
X017307Y003189D01*
X017240Y003028D01*
X017240Y002332D01*
X017307Y002171D01*
X017431Y002047D01*
X017592Y001980D01*
X017768Y001980D01*
X017929Y002047D01*
X018053Y002171D01*
X018120Y002332D01*
X018120Y002915D01*
X018240Y002795D01*
X018240Y002332D01*
X018307Y002171D01*
X018431Y002047D01*
X018592Y001980D01*
X018768Y001980D01*
X018929Y002047D01*
X019053Y002171D01*
X019120Y002332D01*
X019120Y003028D01*
X019053Y003189D01*
X018929Y003313D01*
X018768Y003380D01*
X018592Y003380D01*
X018431Y003313D01*
X018402Y003284D01*
X018347Y003338D01*
X018395Y003358D01*
X018457Y003420D01*
X020857Y003420D01*
X020952Y003460D01*
X021025Y003533D01*
X021668Y004175D01*
X021756Y004175D01*
X021825Y004204D01*
X021825Y003525D01*
X021120Y002820D01*
X021120Y002975D01*
X021109Y003043D01*
X021088Y003109D01*
X021056Y003171D01*
X021016Y003227D01*
X020967Y003276D01*
X020911Y003316D01*
X020849Y003348D01*
X020783Y003369D01*
X020715Y003380D01*
X020680Y003380D01*
X020680Y002680D01*
X020680Y002680D01*
X020680Y002680D01*
X020240Y002680D01*
X020240Y002975D01*
X020251Y003043D01*
X020272Y003109D01*
X020304Y003171D01*
X020344Y003227D01*
X020393Y003276D01*
X020449Y003316D01*
X020511Y003348D01*
X020577Y003369D01*
X020645Y003380D01*
X020680Y003380D01*
X020680Y002680D01*
X020240Y002680D01*
X020240Y002385D01*
X020251Y002317D01*
X020272Y002251D01*
X020304Y002189D01*
X020325Y002160D01*
X020042Y002160D01*
X020053Y002171D01*
X020120Y002332D01*
X020120Y003028D01*
X020053Y003189D01*
X019929Y003313D01*
X019768Y003380D01*
X019592Y003380D01*
X019431Y003313D01*
X019307Y003189D01*
X019240Y003028D01*
X019240Y002332D01*
X019307Y002171D01*
X019326Y002152D01*
X019257Y002082D02*
X018964Y002082D01*
X018864Y001924D02*
X019098Y001924D01*
X018496Y001924D02*
X017864Y001924D01*
X017964Y002082D02*
X018396Y002082D01*
X018278Y002241D02*
X018082Y002241D01*
X018120Y002399D02*
X018240Y002399D01*
X018240Y002558D02*
X018120Y002558D01*
X018120Y002716D02*
X018240Y002716D01*
X018160Y002875D02*
X018120Y002875D01*
X017309Y003192D02*
X017051Y003192D01*
X017118Y003033D02*
X017242Y003033D01*
X017240Y002875D02*
X017120Y002875D01*
X017120Y002716D02*
X017240Y002716D01*
X017240Y002558D02*
X017120Y002558D01*
X017120Y002399D02*
X017240Y002399D01*
X017278Y002241D02*
X017082Y002241D01*
X016964Y002082D02*
X017396Y002082D01*
X017496Y001924D02*
X016867Y001924D01*
X016864Y001925D02*
X016792Y001948D01*
X016718Y001960D01*
X016700Y001960D01*
X016700Y001200D01*
X017160Y001200D01*
X017160Y001518D01*
X017148Y001592D01*
X017125Y001664D01*
X017091Y001732D01*
X017046Y001793D01*
X016993Y001846D01*
X016932Y001891D01*
X016864Y001925D01*
X016700Y001924D02*
X016660Y001924D01*
X016660Y001765D02*
X016700Y001765D01*
X016700Y001607D02*
X016660Y001607D01*
X016660Y001448D02*
X016700Y001448D01*
X016700Y001290D02*
X016660Y001290D01*
X016200Y001290D02*
X016160Y001290D01*
X016160Y001448D02*
X016200Y001448D01*
X016216Y001607D02*
X016147Y001607D01*
X016090Y001765D02*
X016294Y001765D01*
X016249Y001924D02*
X016493Y001924D01*
X017066Y001765D02*
X017286Y001765D01*
X017213Y001607D02*
X017144Y001607D01*
X017160Y001448D02*
X017200Y001448D01*
X017200Y001290D02*
X017160Y001290D01*
X017160Y001131D02*
X017200Y001131D01*
X017200Y000973D02*
X017160Y000973D01*
X017156Y000814D02*
X017200Y000814D01*
X017253Y000656D02*
X017104Y000656D01*
X016969Y000497D02*
X017384Y000497D01*
X017976Y000497D02*
X018384Y000497D01*
X018253Y000656D02*
X018107Y000656D01*
X018160Y000814D02*
X018200Y000814D01*
X018200Y000973D02*
X018160Y000973D01*
X018160Y001131D02*
X018200Y001131D01*
X018200Y001290D02*
X018160Y001290D01*
X018160Y001448D02*
X018200Y001448D01*
X018213Y001607D02*
X018147Y001607D01*
X018074Y001765D02*
X018286Y001765D01*
X019082Y002241D02*
X019278Y002241D01*
X019240Y002399D02*
X019120Y002399D01*
X019120Y002558D02*
X019240Y002558D01*
X019240Y002716D02*
X019120Y002716D01*
X019120Y002875D02*
X019240Y002875D01*
X019242Y003033D02*
X019118Y003033D01*
X019051Y003192D02*
X019309Y003192D01*
X019520Y003350D02*
X018840Y003350D01*
X018520Y003350D02*
X018376Y003350D01*
X019840Y003350D02*
X020518Y003350D01*
X020680Y003350D02*
X020680Y003350D01*
X020680Y003192D02*
X020680Y003192D01*
X020680Y003033D02*
X020680Y003033D01*
X020680Y002875D02*
X020680Y002875D01*
X020680Y002716D02*
X020680Y002716D01*
X020240Y002716D02*
X020120Y002716D01*
X020120Y002558D02*
X020240Y002558D01*
X020240Y002399D02*
X020120Y002399D01*
X020082Y002241D02*
X020278Y002241D01*
X020240Y002875D02*
X020120Y002875D01*
X020118Y003033D02*
X020249Y003033D01*
X020319Y003192D02*
X020051Y003192D01*
X020842Y003350D02*
X021650Y003350D01*
X021808Y003509D02*
X021001Y003509D01*
X021160Y003667D02*
X021825Y003667D01*
X021825Y003826D02*
X021318Y003826D01*
X021477Y003984D02*
X021825Y003984D01*
X021825Y004143D02*
X021635Y004143D01*
X022285Y003826D02*
X022413Y003826D01*
X022315Y003667D02*
X022285Y003667D01*
X022285Y003509D02*
X022300Y003509D01*
X022342Y003350D02*
X022354Y003350D01*
X023006Y003350D02*
X023020Y003350D01*
X021491Y003192D02*
X021041Y003192D01*
X021111Y003033D02*
X021333Y003033D01*
X021174Y002875D02*
X021120Y002875D01*
X022284Y004777D02*
X022700Y004777D01*
X022700Y004935D02*
X022125Y004935D01*
X022476Y005094D02*
X022768Y005094D01*
X022772Y005252D02*
X022587Y005252D01*
X022620Y005411D02*
X022740Y005411D01*
X022740Y005569D02*
X022620Y005569D01*
X022620Y005728D02*
X022740Y005728D01*
X022740Y005886D02*
X022620Y005886D01*
X022613Y006045D02*
X022751Y006045D01*
X022827Y006203D02*
X022539Y006203D01*
X022484Y006362D02*
X022876Y006362D01*
X022740Y006520D02*
X022620Y006520D01*
X022620Y006679D02*
X022740Y006679D01*
X022740Y006837D02*
X022620Y006837D01*
X023180Y006679D02*
X023180Y006679D01*
X023180Y006520D02*
X023180Y006520D01*
X023180Y006362D02*
X023180Y006362D01*
X023180Y006203D02*
X023180Y006203D01*
X023180Y006045D02*
X023180Y006045D01*
X023180Y005886D02*
X023180Y005886D01*
X023180Y005728D02*
X023180Y005728D01*
X023620Y005728D02*
X023740Y005728D01*
X023740Y005886D02*
X023620Y005886D01*
X023609Y006045D02*
X023747Y006045D01*
X023821Y006203D02*
X023533Y006203D01*
X023484Y006362D02*
X023950Y006362D01*
X023950Y006520D02*
X023620Y006520D01*
X023620Y006679D02*
X023950Y006679D01*
X023950Y006837D02*
X023620Y006837D01*
X023620Y005569D02*
X023740Y005569D01*
X023740Y005411D02*
X023620Y005411D01*
X023588Y005252D02*
X023773Y005252D01*
X019825Y006362D02*
X019812Y006362D01*
X019825Y006520D02*
X019165Y006520D01*
X019007Y006679D02*
X019825Y006679D01*
X019825Y006837D02*
X018848Y006837D01*
X018690Y006996D02*
X019825Y006996D01*
X019825Y007154D02*
X018531Y007154D01*
X018373Y007313D02*
X019825Y007313D01*
X019825Y007471D02*
X018214Y007471D01*
X018056Y007630D02*
X019929Y007630D01*
X020088Y007788D02*
X017700Y007788D01*
X017796Y007947D02*
X020246Y007947D01*
X020405Y008105D02*
X017810Y008105D01*
X018082Y008264D02*
X019278Y008264D01*
X019064Y008422D02*
X018296Y008422D01*
X017133Y009016D02*
X017084Y008967D01*
X017044Y008911D01*
X017133Y009016D02*
X017189Y009056D01*
X017243Y009373D02*
X015117Y009373D01*
X015117Y009532D02*
X017243Y009532D01*
X017243Y009690D02*
X015117Y009690D01*
X015117Y009849D02*
X017243Y009849D01*
X018117Y009849D02*
X019243Y009849D01*
X019243Y009690D02*
X018117Y009690D01*
X018117Y009532D02*
X019243Y009532D01*
X019243Y009373D02*
X018117Y009373D01*
X016984Y008739D02*
X015376Y008739D01*
X015370Y008581D02*
X016990Y008581D01*
X015450Y007947D02*
X012109Y007947D01*
X011425Y007630D02*
X011098Y007630D01*
X011257Y007471D02*
X011480Y007471D01*
X011415Y007313D02*
X011699Y007313D01*
X011574Y007154D02*
X013450Y007154D01*
X013450Y006996D02*
X012987Y006996D01*
X013120Y006837D02*
X013450Y006837D01*
X013450Y006679D02*
X013120Y006679D01*
X013120Y006520D02*
X013450Y006520D01*
X012680Y006520D02*
X012680Y006520D01*
X012680Y006362D02*
X012680Y006362D01*
X012680Y006203D02*
X012680Y006203D01*
X012680Y006045D02*
X012680Y006045D01*
X012680Y005886D02*
X012680Y005886D01*
X012680Y005728D02*
X012680Y005728D01*
X013120Y005680D02*
X013120Y005385D01*
X013109Y005317D01*
X013088Y005251D01*
X013056Y005189D01*
X013016Y005133D01*
X012967Y005084D01*
X012911Y005044D01*
X012849Y005012D01*
X012783Y004991D01*
X012743Y004985D01*
X012793Y004935D02*
X014818Y004935D01*
X013384Y005094D02*
X012976Y005094D01*
X013088Y005252D02*
X013273Y005252D01*
X013240Y005411D02*
X013120Y005411D01*
X013120Y005569D02*
X013240Y005569D01*
X012240Y005569D02*
X012159Y005569D01*
X012120Y005728D02*
X012240Y005728D01*
X012240Y005886D02*
X012120Y005886D01*
X012113Y006045D02*
X012251Y006045D01*
X012327Y006203D02*
X012039Y006203D01*
X011984Y006362D02*
X012376Y006362D01*
X012240Y006520D02*
X012120Y006520D01*
X012120Y006679D02*
X012240Y006679D01*
X012240Y006837D02*
X012120Y006837D01*
X011987Y006996D02*
X012373Y006996D01*
X012680Y006996D02*
X012680Y006996D01*
X012680Y006837D02*
X012680Y006837D01*
X012680Y006679D02*
X012680Y006679D01*
X011680Y006680D02*
X010930Y007430D01*
X001930Y007430D01*
X001180Y006680D01*
X002180Y006679D02*
X002180Y006679D01*
X002180Y006837D02*
X002180Y006837D01*
X002180Y006996D02*
X002180Y006996D01*
X002180Y006520D02*
X002180Y006520D01*
X002180Y006362D02*
X002180Y006362D01*
X002180Y006203D02*
X002180Y006203D01*
X002180Y006045D02*
X002180Y006045D01*
X002180Y005886D02*
X002180Y005886D01*
X002180Y005728D02*
X002180Y005728D01*
X001740Y005569D02*
X001620Y005569D01*
X001620Y005411D02*
X001740Y005411D01*
X001772Y005252D02*
X001587Y005252D01*
X000725Y004935D02*
X000460Y004935D01*
X000460Y004777D02*
X000883Y004777D01*
X000566Y005094D02*
X000460Y005094D01*
X000460Y003350D02*
X000650Y003350D01*
X000491Y003192D02*
X000460Y003192D01*
X001620Y002399D02*
X001740Y002399D01*
X001778Y002241D02*
X001582Y002241D01*
X001463Y002082D02*
X001896Y002082D01*
X001864Y001924D02*
X002496Y001924D01*
X002286Y001765D02*
X002074Y001765D01*
X002147Y001607D02*
X002213Y001607D01*
X002200Y001448D02*
X002160Y001448D01*
X002160Y001290D02*
X002200Y001290D01*
X002200Y001131D02*
X002160Y001131D01*
X006410Y001924D02*
X006496Y001924D01*
X006464Y002082D02*
X006896Y002082D01*
X006864Y001924D02*
X007496Y001924D01*
X007464Y002082D02*
X007896Y002082D01*
X007864Y001924D02*
X008496Y001924D01*
X008464Y002082D02*
X008896Y002082D01*
X008864Y001924D02*
X009098Y001924D01*
X008778Y002241D02*
X008582Y002241D01*
X008620Y002399D02*
X008740Y002399D01*
X008740Y002558D02*
X008620Y002558D01*
X008620Y002716D02*
X008740Y002716D01*
X008740Y002875D02*
X008620Y002875D01*
X008618Y003033D02*
X008742Y003033D01*
X008809Y003192D02*
X008551Y003192D01*
X008340Y003350D02*
X009020Y003350D01*
X009340Y003350D02*
X010018Y003350D01*
X010180Y003350D02*
X010180Y003350D01*
X010180Y003192D02*
X010180Y003192D01*
X010180Y003033D02*
X010180Y003033D01*
X010180Y002875D02*
X010180Y002875D01*
X010180Y002716D02*
X010180Y002716D01*
X009740Y002716D02*
X009620Y002716D01*
X009620Y002558D02*
X009740Y002558D01*
X009740Y002399D02*
X009620Y002399D01*
X009582Y002241D02*
X009778Y002241D01*
X010910Y002241D02*
X011278Y002241D01*
X011272Y002251D02*
X011304Y002189D01*
X011329Y002154D01*
X011007Y001832D01*
X010952Y001887D01*
X010910Y001904D01*
X010910Y002460D01*
X011240Y002790D01*
X011240Y002680D01*
X011680Y002680D01*
X012120Y002680D01*
X012120Y002975D01*
X012109Y003043D01*
X012088Y003109D01*
X012056Y003171D01*
X012035Y003200D01*
X012318Y003200D01*
X012307Y003189D01*
X012240Y003028D01*
X012240Y002332D01*
X012307Y002171D01*
X012318Y002160D01*
X012035Y002160D01*
X012056Y002189D01*
X012088Y002251D01*
X012109Y002317D01*
X012120Y002385D01*
X012120Y002680D01*
X011680Y002680D01*
X011680Y002680D01*
X011680Y002680D01*
X011240Y002680D01*
X011240Y002385D01*
X011251Y002317D01*
X011272Y002251D01*
X011240Y002399D02*
X010910Y002399D01*
X011008Y002558D02*
X011240Y002558D01*
X011240Y002716D02*
X011166Y002716D01*
X010674Y002875D02*
X010620Y002875D01*
X010611Y003033D02*
X010833Y003033D01*
X010991Y003192D02*
X010541Y003192D01*
X010342Y003350D02*
X011150Y003350D01*
X011308Y003509D02*
X007677Y003509D01*
X007835Y003350D02*
X008020Y003350D01*
X007660Y002875D02*
X007620Y002875D01*
X007620Y002716D02*
X007740Y002716D01*
X007740Y002558D02*
X007620Y002558D01*
X007620Y002399D02*
X007740Y002399D01*
X007778Y002241D02*
X007582Y002241D01*
X006778Y002241D02*
X006582Y002241D01*
X006620Y002399D02*
X006740Y002399D01*
X006740Y002558D02*
X006620Y002558D01*
X006620Y002716D02*
X006740Y002716D01*
X006740Y002875D02*
X006620Y002875D01*
X006618Y003033D02*
X006742Y003033D01*
X006809Y003192D02*
X006551Y003192D01*
X009551Y003192D02*
X009819Y003192D01*
X009749Y003033D02*
X009618Y003033D01*
X009620Y002875D02*
X009740Y002875D01*
X010910Y002082D02*
X011257Y002082D01*
X011098Y001924D02*
X010910Y001924D01*
X012082Y002241D02*
X012278Y002241D01*
X012240Y002399D02*
X012120Y002399D01*
X012120Y002558D02*
X012240Y002558D01*
X012240Y002716D02*
X012120Y002716D01*
X012120Y002875D02*
X012240Y002875D01*
X012242Y003033D02*
X012111Y003033D01*
X012041Y003192D02*
X012309Y003192D01*
X008286Y001765D02*
X008074Y001765D01*
X008147Y001607D02*
X008213Y001607D01*
X008200Y001448D02*
X008160Y001448D01*
X008160Y001290D02*
X008200Y001290D01*
X008200Y001131D02*
X008160Y001131D01*
X008160Y000973D02*
X008200Y000973D01*
X008200Y000814D02*
X008160Y000814D01*
X008107Y000656D02*
X008253Y000656D01*
X008384Y000497D02*
X007976Y000497D01*
X007384Y000497D02*
X006976Y000497D01*
X007107Y000656D02*
X007253Y000656D01*
X007200Y000814D02*
X007160Y000814D01*
X007160Y000973D02*
X007200Y000973D01*
X007200Y001131D02*
X007160Y001131D01*
X007160Y001290D02*
X007200Y001290D01*
X007200Y001448D02*
X007160Y001448D01*
X007147Y001607D02*
X007213Y001607D01*
X007286Y001765D02*
X007074Y001765D01*
X015976Y000497D02*
X016391Y000497D01*
X016256Y000656D02*
X016107Y000656D01*
X016160Y000814D02*
X016204Y000814D01*
X016200Y000973D02*
X016160Y000973D01*
X016160Y001131D02*
X016200Y001131D01*
X019324Y006362D02*
X019548Y006362D01*
X015450Y007630D02*
X013910Y007630D01*
X013897Y007788D02*
X015450Y007788D01*
X013450Y007313D02*
X011911Y007313D01*
X010180Y008264D02*
X010180Y008264D01*
X010180Y008422D02*
X010180Y008422D01*
X010180Y008581D02*
X010180Y008581D01*
X008680Y008581D02*
X008680Y008581D01*
X008680Y008680D02*
X007980Y008680D01*
X007980Y008645D01*
X007991Y008577D01*
X008012Y008511D01*
X008044Y008449D01*
X008084Y008393D01*
X008133Y008344D01*
X008189Y008304D01*
X008251Y008272D01*
X008317Y008251D01*
X008385Y008240D01*
X008680Y008240D01*
X008680Y008422D02*
X008680Y008422D01*
X008278Y008264D02*
X006082Y008264D01*
X006296Y008422D02*
X008064Y008422D01*
X007990Y008581D02*
X006370Y008581D01*
X006376Y008739D02*
X007984Y008739D01*
X008680Y008739D02*
X008680Y008739D01*
X008680Y008898D02*
X008680Y008898D01*
X008680Y009056D02*
X008680Y009056D01*
X008243Y009373D02*
X006117Y009373D01*
X006117Y009532D02*
X008243Y009532D01*
X008243Y009690D02*
X006117Y009690D01*
X006117Y009849D02*
X008243Y009849D01*
X009117Y009849D02*
X009743Y009849D01*
X009743Y009690D02*
X009117Y009690D01*
X009117Y009532D02*
X009743Y009532D01*
X009743Y009373D02*
X009117Y009373D01*
X010617Y009373D02*
X012743Y009373D01*
X012743Y009532D02*
X010617Y009532D01*
X010617Y009690D02*
X012743Y009690D01*
X012743Y009849D02*
X010617Y009849D01*
X013617Y009849D02*
X014243Y009849D01*
X014243Y009690D02*
X013617Y009690D01*
X013617Y009532D02*
X014243Y009532D01*
X014243Y009373D02*
X013617Y009373D01*
X019680Y009056D02*
X019680Y009056D01*
X019680Y008898D02*
X019680Y008898D01*
X019680Y008739D02*
X019680Y008739D01*
X019680Y008581D02*
X019680Y008581D01*
X019680Y008422D02*
X019680Y008422D01*
X019680Y008264D02*
X019680Y008264D01*
X020082Y008264D02*
X020563Y008264D01*
X020296Y008422D02*
X022064Y008422D01*
X021991Y008577D02*
X021980Y008645D01*
X021980Y008680D01*
X022680Y008680D01*
X021724Y009373D02*
X020117Y009373D01*
X020117Y009532D02*
X021911Y009532D01*
X022199Y009532D02*
X022243Y009532D01*
X022243Y009690D02*
X020117Y009690D01*
X020117Y009849D02*
X022243Y009849D01*
X024790Y009215D02*
X024800Y009215D01*
X025698Y009373D02*
X026743Y009373D01*
X026743Y009532D02*
X025857Y009532D01*
X026015Y009690D02*
X026743Y009690D01*
X026743Y009849D02*
X026174Y009849D01*
X027617Y009849D02*
X028240Y009849D01*
X028240Y009862D02*
X028240Y009498D01*
X028394Y009344D01*
X027860Y008811D01*
X027848Y008849D01*
X027816Y008911D01*
X027776Y008967D01*
X027727Y009016D01*
X027671Y009056D01*
X027823Y008898D02*
X027947Y008898D01*
X027180Y008898D02*
X027180Y008898D01*
X027180Y009056D02*
X027180Y009056D01*
X027180Y008739D02*
X027180Y008739D01*
X026564Y008422D02*
X026263Y008422D01*
X027617Y009373D02*
X028365Y009373D01*
X028240Y009532D02*
X027617Y009532D01*
X027617Y009690D02*
X028240Y009690D01*
X028240Y009862D02*
X028498Y010120D01*
X028862Y010120D01*
X029120Y009862D01*
X029120Y009820D01*
X029210Y009910D01*
X030775Y009910D01*
X030910Y009775D01*
X030910Y009532D01*
X030998Y009620D01*
X031362Y009620D01*
X031550Y009432D01*
X031671Y009553D01*
X031832Y009620D01*
X032528Y009620D01*
X032689Y009553D01*
X032813Y009429D01*
X032880Y009268D01*
X032880Y009092D01*
X032813Y008931D01*
X032792Y008910D01*
X034572Y008910D01*
X034544Y008949D01*
X034512Y009011D01*
X034491Y009077D01*
X034480Y009145D01*
X034480Y009180D01*
X035180Y009180D01*
X035180Y009180D01*
X035880Y009180D01*
X035180Y009180D01*
X035180Y009180D01*
X035180Y009180D01*
X035180Y009620D01*
X034885Y009620D01*
X034817Y009609D01*
X034751Y009588D01*
X034689Y009556D01*
X034633Y009516D01*
X034584Y009467D01*
X034544Y009411D01*
X034512Y009349D01*
X034491Y009283D01*
X034480Y009215D01*
X034480Y009180D01*
X035180Y009180D01*
X035180Y009215D02*
X035180Y009215D01*
X035180Y009373D02*
X035180Y009373D01*
X035180Y009532D02*
X035180Y009532D01*
X035705Y009532D02*
X036003Y009532D01*
X036024Y009373D02*
X035835Y009373D01*
X035880Y009215D02*
X035980Y009215D01*
X035995Y009056D02*
X035862Y009056D01*
X036038Y008898D02*
X036080Y008898D01*
X036160Y008739D02*
X037671Y008739D01*
X037829Y008581D02*
X037123Y008581D01*
X037316Y008422D02*
X039044Y008422D01*
X038980Y008264D02*
X038618Y008264D01*
X038769Y008105D02*
X038980Y008105D01*
X039040Y007947D02*
X038810Y007947D01*
X038782Y007788D02*
X039217Y007788D01*
X039556Y007630D02*
X040270Y007630D01*
X040270Y007788D02*
X040143Y007788D01*
X038242Y008264D02*
X037380Y008264D01*
X036237Y008581D02*
X036160Y008581D01*
X037280Y008898D02*
X037512Y008898D01*
X037805Y009430D02*
X038055Y009180D01*
X037805Y009430D02*
X037805Y010180D01*
X038180Y010180D01*
X038180Y013180D01*
X035180Y013180D01*
X034680Y013680D01*
X032680Y013680D02*
X032180Y014180D01*
X027680Y014180D01*
X027180Y014680D01*
X028680Y015680D02*
X025180Y015680D01*
X024680Y015180D01*
X020180Y015180D01*
X019680Y014680D01*
X019180Y015180D01*
X014180Y015180D01*
X009680Y015180D01*
X005180Y015180D01*
X005680Y014680D01*
X005180Y015180D02*
X001680Y015180D01*
X001180Y014680D01*
X004180Y014680D02*
X004680Y014180D01*
X008180Y014180D01*
X012680Y014180D01*
X017180Y014180D01*
X022180Y014180D01*
X022680Y014680D01*
X024180Y014680D02*
X024680Y015180D01*
X017680Y014680D02*
X017180Y014180D01*
X014680Y014680D02*
X014180Y015180D01*
X013180Y014680D02*
X012680Y014180D01*
X010180Y014680D02*
X009680Y015180D01*
X008680Y014680D02*
X008180Y014180D01*
X005243Y010007D02*
X004617Y010007D01*
X004617Y009849D02*
X005243Y009849D01*
X005243Y009690D02*
X004617Y009690D01*
X004617Y009532D02*
X005243Y009532D01*
X005243Y009373D02*
X004617Y009373D01*
X004180Y009056D02*
X004180Y009056D01*
X004180Y008898D02*
X004180Y008898D01*
X004180Y008739D02*
X004180Y008739D01*
X004180Y008581D02*
X004180Y008581D01*
X004180Y008422D02*
X004180Y008422D01*
X004180Y008264D02*
X004180Y008264D01*
X004582Y008264D02*
X005278Y008264D01*
X005251Y008272D02*
X005317Y008251D01*
X005385Y008240D01*
X005680Y008240D01*
X005680Y008680D01*
X004980Y008680D01*
X004980Y008645D01*
X004991Y008577D01*
X005012Y008511D01*
X005044Y008449D01*
X005084Y008393D01*
X005133Y008344D01*
X005189Y008304D01*
X005251Y008272D01*
X005064Y008422D02*
X004796Y008422D01*
X004870Y008581D02*
X004990Y008581D01*
X004984Y008739D02*
X004876Y008739D01*
X005680Y008739D02*
X005680Y008739D01*
X005680Y008581D02*
X005680Y008581D01*
X005680Y008422D02*
X005680Y008422D01*
X005680Y008264D02*
X005680Y008264D01*
X005680Y008898D02*
X005680Y008898D01*
X005680Y009056D02*
X005680Y009056D01*
X001180Y009056D02*
X001180Y009056D01*
X001180Y008898D02*
X001180Y008898D01*
X001180Y008739D02*
X001180Y008739D01*
X001180Y008680D02*
X001180Y008680D01*
X001180Y008240D01*
X001180Y008422D02*
X001180Y008422D01*
X001180Y008581D02*
X001180Y008581D01*
X000778Y008264D02*
X000660Y008264D01*
X027707Y010007D02*
X028385Y010007D01*
X027866Y010166D02*
X031480Y010166D01*
X031503Y010324D02*
X028946Y010324D01*
X029105Y010483D02*
X031600Y010483D01*
X031422Y010800D02*
X032474Y010800D01*
X032316Y010641D02*
X029120Y010641D01*
X029125Y010800D02*
X029938Y010800D01*
X030422Y010800D02*
X030938Y010800D01*
X030780Y010958D02*
X030580Y010958D01*
X030620Y011117D02*
X030740Y011117D01*
X030740Y011275D02*
X030620Y011275D01*
X030549Y011434D02*
X030811Y011434D01*
X032808Y010483D02*
X034600Y010483D01*
X034503Y010324D02*
X032857Y010324D01*
X032880Y010166D02*
X034480Y010166D01*
X034515Y010007D02*
X032845Y010007D01*
X032731Y009849D02*
X034629Y009849D01*
X034655Y009532D02*
X032711Y009532D01*
X032836Y009373D02*
X034525Y009373D01*
X034480Y009215D02*
X032880Y009215D01*
X032865Y009056D02*
X034498Y009056D01*
X035845Y009690D02*
X030910Y009690D01*
X030837Y009849D02*
X031629Y009849D01*
X031515Y010007D02*
X028975Y010007D01*
X029120Y009849D02*
X029148Y009849D01*
X028414Y010324D02*
X028024Y010324D01*
X028183Y010483D02*
X028255Y010483D01*
X031451Y009532D02*
X031649Y009532D01*
X032966Y010641D02*
X035700Y010641D01*
X038180Y010180D02*
X039680Y010180D01*
X034055Y006805D02*
X033180Y007680D01*
X028680Y007680D01*
X032788Y004450D02*
X034568Y004450D01*
X034547Y004429D01*
X034480Y004268D01*
X034480Y004092D01*
X034547Y003931D01*
X034671Y003807D01*
X034832Y003740D01*
X035528Y003740D01*
X035689Y003807D01*
X035813Y003931D01*
X035880Y004092D01*
X035880Y004175D01*
X035980Y004175D01*
X035980Y004145D01*
X035991Y004077D01*
X036012Y004011D01*
X036044Y003949D01*
X036084Y003893D01*
X036133Y003844D01*
X036189Y003804D01*
X036251Y003772D01*
X036317Y003751D01*
X036385Y003740D01*
X036680Y003740D01*
X036975Y003740D01*
X037043Y003751D01*
X037109Y003772D01*
X037171Y003804D01*
X037227Y003844D01*
X037276Y003893D01*
X037316Y003949D01*
X037348Y004011D01*
X037369Y004077D01*
X037380Y004145D01*
X037380Y004180D01*
X037380Y004215D01*
X037369Y004283D01*
X037348Y004349D01*
X037316Y004411D01*
X037288Y004450D01*
X039068Y004450D01*
X039047Y004429D01*
X038980Y004268D01*
X038980Y004092D01*
X039047Y003931D01*
X039171Y003807D01*
X039332Y003740D01*
X040028Y003740D01*
X040189Y003807D01*
X040270Y003888D01*
X040270Y000460D01*
X039920Y000460D01*
X039952Y000473D01*
X040087Y000608D01*
X040160Y000785D01*
X040160Y001575D01*
X040087Y001752D01*
X039952Y001887D01*
X039775Y001960D01*
X039585Y001960D01*
X039408Y001887D01*
X039273Y001752D01*
X039200Y001575D01*
X039200Y000785D01*
X039273Y000608D01*
X039408Y000473D01*
X039440Y000460D01*
X038920Y000460D01*
X038952Y000473D01*
X039087Y000608D01*
X039160Y000785D01*
X039160Y001575D01*
X039087Y001752D01*
X038952Y001887D01*
X038775Y001960D01*
X038585Y001960D01*
X038408Y001887D01*
X038273Y001752D01*
X038200Y001575D01*
X038200Y000785D01*
X038273Y000608D01*
X038408Y000473D01*
X038440Y000460D01*
X037920Y000460D01*
X037952Y000473D01*
X038087Y000608D01*
X038160Y000785D01*
X038160Y001575D01*
X038087Y001752D01*
X037952Y001887D01*
X037775Y001960D01*
X037585Y001960D01*
X037408Y001887D01*
X037273Y001752D01*
X037200Y001575D01*
X037200Y000785D01*
X037273Y000608D01*
X037408Y000473D01*
X037440Y000460D01*
X036920Y000460D01*
X036952Y000473D01*
X037087Y000608D01*
X037160Y000785D01*
X037160Y001575D01*
X037087Y001752D01*
X036952Y001887D01*
X036775Y001960D01*
X036585Y001960D01*
X036408Y001887D01*
X036273Y001752D01*
X036200Y001575D01*
X036200Y000785D01*
X036273Y000608D01*
X036408Y000473D01*
X036440Y000460D01*
X035920Y000460D01*
X035952Y000473D01*
X036087Y000608D01*
X036160Y000785D01*
X036160Y001575D01*
X036087Y001752D01*
X035952Y001887D01*
X035872Y001920D01*
X036232Y001920D01*
X036327Y001960D01*
X036561Y002193D01*
X036582Y002185D01*
X036778Y002185D01*
X036960Y002260D01*
X037100Y002400D01*
X037175Y002582D01*
X037175Y002778D01*
X037100Y002960D01*
X036960Y003100D01*
X036778Y003175D01*
X036582Y003175D01*
X036400Y003100D01*
X036260Y002960D01*
X036185Y002778D01*
X036185Y002582D01*
X036193Y002561D01*
X036175Y002543D01*
X036175Y002680D01*
X036175Y002885D01*
X035885Y003175D01*
X035680Y003175D01*
X035680Y002680D01*
X034680Y003680D01*
X033680Y003680D01*
X033680Y004305D01*
X032880Y004215D02*
X032869Y004283D01*
X032848Y004349D01*
X032816Y004411D01*
X032788Y004450D01*
X032863Y004301D02*
X034494Y004301D01*
X034480Y004143D02*
X032880Y004143D01*
X032880Y004145D02*
X032880Y004180D01*
X032880Y004215D01*
X032880Y004180D02*
X032180Y004180D01*
X032680Y003680D01*
X033680Y003680D01*
X033525Y003660D02*
X031781Y003660D01*
X031810Y003729D01*
X031810Y003753D01*
X031817Y003751D01*
X031885Y003740D01*
X032180Y003740D01*
X032475Y003740D01*
X032543Y003751D01*
X032609Y003772D01*
X032671Y003804D01*
X032727Y003844D01*
X032776Y003893D01*
X032816Y003949D01*
X032848Y004011D01*
X032869Y004077D01*
X032880Y004145D01*
X032880Y004180D02*
X032180Y004180D01*
X032180Y004180D01*
X032180Y003740D01*
X032180Y004180D01*
X032180Y004180D01*
X032180Y004143D02*
X032180Y004143D01*
X032180Y003984D02*
X032180Y003984D01*
X032180Y003826D02*
X032180Y003826D01*
X031784Y003667D02*
X040270Y003667D01*
X040270Y003509D02*
X039974Y003509D01*
X039862Y003620D02*
X039680Y003620D01*
X039680Y003180D01*
X038680Y004180D01*
X036680Y004180D01*
X037380Y004180D01*
X036680Y004180D01*
X036680Y004180D01*
X036680Y003740D01*
X036680Y004180D01*
X036680Y004180D01*
X036680Y004143D02*
X036680Y004143D01*
X036680Y003984D02*
X036680Y003984D01*
X036680Y003826D02*
X036680Y003826D01*
X036159Y003826D02*
X035708Y003826D01*
X035835Y003984D02*
X036026Y003984D01*
X035980Y004143D02*
X035880Y004143D01*
X034652Y003826D02*
X032701Y003826D01*
X032834Y003984D02*
X034525Y003984D01*
X033877Y003308D02*
X033525Y003660D01*
X033677Y003509D02*
X038386Y003509D01*
X038498Y003620D02*
X038240Y003362D01*
X038240Y002998D01*
X038498Y002740D01*
X038862Y002740D01*
X039120Y002998D01*
X039120Y003362D01*
X038862Y003620D01*
X038498Y003620D01*
X038974Y003509D02*
X039386Y003509D01*
X039498Y003620D02*
X039240Y003362D01*
X039240Y003180D01*
X039680Y003180D01*
X040120Y003180D01*
X040120Y003362D01*
X039862Y003620D01*
X039680Y003620D02*
X039498Y003620D01*
X039680Y003620D02*
X039680Y003180D01*
X039680Y003180D01*
X039680Y003180D01*
X040120Y003180D01*
X040120Y002998D01*
X039862Y002740D01*
X039680Y002740D01*
X039680Y003180D01*
X039680Y003180D01*
X039680Y003180D01*
X039680Y002740D01*
X039498Y002740D01*
X039240Y002998D01*
X039240Y003180D01*
X039680Y003180D01*
X039680Y003192D02*
X039680Y003192D01*
X039680Y003350D02*
X039680Y003350D01*
X039680Y003509D02*
X039680Y003509D01*
X040120Y003350D02*
X040270Y003350D01*
X040270Y003192D02*
X040120Y003192D01*
X040120Y003033D02*
X040270Y003033D01*
X040270Y002875D02*
X039997Y002875D01*
X040270Y002716D02*
X037175Y002716D01*
X037165Y002558D02*
X040270Y002558D01*
X040270Y002399D02*
X037099Y002399D01*
X036912Y002241D02*
X040270Y002241D01*
X040270Y002082D02*
X036450Y002082D01*
X036496Y001924D02*
X036240Y001924D01*
X036286Y001765D02*
X036074Y001765D01*
X036147Y001607D02*
X036213Y001607D01*
X036200Y001448D02*
X036160Y001448D01*
X036160Y001290D02*
X036200Y001290D01*
X036200Y001131D02*
X036160Y001131D01*
X036160Y000973D02*
X036200Y000973D01*
X036200Y000814D02*
X036160Y000814D01*
X036107Y000656D02*
X036253Y000656D01*
X036384Y000497D02*
X035976Y000497D01*
X036976Y000497D02*
X037384Y000497D01*
X037253Y000656D02*
X037107Y000656D01*
X037160Y000814D02*
X037200Y000814D01*
X037200Y000973D02*
X037160Y000973D01*
X037160Y001131D02*
X037200Y001131D01*
X037200Y001290D02*
X037160Y001290D01*
X037160Y001448D02*
X037200Y001448D01*
X037213Y001607D02*
X037147Y001607D01*
X037074Y001765D02*
X037286Y001765D01*
X037496Y001924D02*
X036864Y001924D01*
X036180Y002180D02*
X036680Y002680D01*
X036225Y002875D02*
X036175Y002875D01*
X036175Y002716D02*
X036185Y002716D01*
X036175Y002680D02*
X035680Y002680D01*
X035680Y002680D01*
X035680Y002680D01*
X035680Y002680D01*
X035185Y002680D01*
X035185Y002885D01*
X035475Y003175D01*
X035680Y003175D01*
X035680Y002680D01*
X036175Y002680D01*
X036175Y002558D02*
X036190Y002558D01*
X035680Y002680D02*
X035185Y002680D01*
X035185Y002475D01*
X035220Y002440D01*
X034788Y002440D01*
X034640Y002588D01*
X034640Y003051D01*
X034570Y003221D01*
X034441Y003350D01*
X034271Y003420D01*
X034088Y003420D01*
X033919Y003350D01*
X033877Y003308D01*
X033835Y003350D02*
X033920Y003350D01*
X034440Y003350D02*
X038240Y003350D01*
X038240Y003192D02*
X034582Y003192D01*
X034640Y003033D02*
X035333Y003033D01*
X035185Y002875D02*
X034640Y002875D01*
X034640Y002716D02*
X035185Y002716D01*
X035185Y002558D02*
X034670Y002558D01*
X034680Y002180D02*
X034180Y002680D01*
X034680Y002180D02*
X036180Y002180D01*
X035680Y002716D02*
X035680Y002716D01*
X035680Y002875D02*
X035680Y002875D01*
X035680Y003033D02*
X035680Y003033D01*
X036027Y003033D02*
X036333Y003033D01*
X037027Y003033D02*
X038240Y003033D01*
X038363Y002875D02*
X037135Y002875D01*
X038997Y002875D02*
X039363Y002875D01*
X039240Y003033D02*
X039120Y003033D01*
X039120Y003192D02*
X039240Y003192D01*
X039240Y003350D02*
X039120Y003350D01*
X039680Y003033D02*
X039680Y003033D01*
X039680Y002875D02*
X039680Y002875D01*
X039496Y001924D02*
X038864Y001924D01*
X039074Y001765D02*
X039286Y001765D01*
X039213Y001607D02*
X039147Y001607D01*
X039160Y001448D02*
X039200Y001448D01*
X039200Y001290D02*
X039160Y001290D01*
X039160Y001131D02*
X039200Y001131D01*
X039200Y000973D02*
X039160Y000973D01*
X039160Y000814D02*
X039200Y000814D01*
X039253Y000656D02*
X039107Y000656D01*
X038976Y000497D02*
X039384Y000497D01*
X039976Y000497D02*
X040270Y000497D01*
X040270Y000656D02*
X040107Y000656D01*
X040160Y000814D02*
X040270Y000814D01*
X040270Y000973D02*
X040160Y000973D01*
X040160Y001131D02*
X040270Y001131D01*
X040270Y001290D02*
X040160Y001290D01*
X040160Y001448D02*
X040270Y001448D01*
X040270Y001607D02*
X040147Y001607D01*
X040074Y001765D02*
X040270Y001765D01*
X040270Y001924D02*
X039864Y001924D01*
X038496Y001924D02*
X037864Y001924D01*
X038074Y001765D02*
X038286Y001765D01*
X038213Y001607D02*
X038147Y001607D01*
X038160Y001448D02*
X038200Y001448D01*
X038200Y001290D02*
X038160Y001290D01*
X038160Y001131D02*
X038200Y001131D01*
X038200Y000973D02*
X038160Y000973D01*
X038160Y000814D02*
X038200Y000814D01*
X038253Y000656D02*
X038107Y000656D01*
X037976Y000497D02*
X038384Y000497D01*
X032782Y002160D02*
X031535Y002160D01*
X031556Y002189D01*
X031588Y002251D01*
X031609Y002317D01*
X031620Y002385D01*
X031620Y002680D01*
X031620Y002975D01*
X031609Y003043D01*
X031588Y003109D01*
X031556Y003171D01*
X031535Y003200D01*
X032782Y003200D01*
X032720Y003051D01*
X032720Y002308D01*
X032782Y002160D01*
X032748Y002241D02*
X031582Y002241D01*
X031620Y002399D02*
X032720Y002399D01*
X032720Y002558D02*
X031620Y002558D01*
X031620Y002680D02*
X031180Y002680D01*
X031620Y002680D01*
X031620Y002716D02*
X032720Y002716D01*
X032720Y002875D02*
X031620Y002875D01*
X031611Y003033D02*
X032720Y003033D01*
X032778Y003192D02*
X031541Y003192D01*
X030825Y003200D02*
X030804Y003171D01*
X030772Y003109D01*
X030751Y003043D01*
X030740Y002975D01*
X030740Y002680D01*
X031180Y002680D01*
X031180Y002680D01*
X031180Y002680D01*
X030740Y002680D01*
X030740Y002385D01*
X030751Y002317D01*
X030772Y002251D01*
X030804Y002189D01*
X030825Y002160D01*
X030542Y002160D01*
X030553Y002171D01*
X030620Y002332D01*
X030620Y003028D01*
X030553Y003189D01*
X030542Y003200D01*
X030825Y003200D01*
X030819Y003192D02*
X030551Y003192D01*
X030618Y003033D02*
X030749Y003033D01*
X030740Y002875D02*
X030620Y002875D01*
X030620Y002716D02*
X030740Y002716D01*
X030740Y002558D02*
X030620Y002558D01*
X030620Y002399D02*
X030740Y002399D01*
X030778Y002241D02*
X030582Y002241D01*
X037201Y003826D02*
X039152Y003826D01*
X039025Y003984D02*
X037334Y003984D01*
X037380Y004143D02*
X038980Y004143D01*
X038994Y004301D02*
X037363Y004301D01*
X040208Y003826D02*
X040270Y003826D01*
D19*
X035930Y004555D03*
X033680Y004305D03*
X031430Y003805D03*
X029555Y004680D03*
X028555Y004930D03*
X027805Y004555D03*
X027305Y003805D03*
X028555Y003680D03*
X026305Y004555D03*
X025555Y004930D03*
X023305Y004305D03*
X023680Y003930D03*
X022680Y003555D03*
X021680Y004555D03*
X025180Y003555D03*
X018180Y003680D03*
X015180Y005055D03*
X016180Y007055D03*
X017055Y007430D03*
X017430Y008055D03*
X020430Y007305D03*
X021180Y007680D03*
X021555Y007055D03*
X025930Y007930D03*
X028055Y006930D03*
X027180Y006555D03*
X029805Y008180D03*
X033680Y009680D03*
X033930Y011305D03*
X038305Y009680D03*
X038055Y009180D03*
X038430Y007930D03*
X034055Y006805D03*
X034430Y005555D03*
X025180Y009180D03*
X024930Y009680D03*
X025805Y011055D03*
X027930Y012055D03*
X026305Y012805D03*
X023430Y014055D03*
X026555Y015180D03*
X018805Y012430D03*
X013930Y011305D03*
X007430Y010930D03*
X007055Y012180D03*
X006805Y012930D03*
X011805Y008180D03*
X011805Y007680D03*
X005305Y006930D03*
X022055Y009180D03*
X039180Y014305D03*
D20*
X039180Y015680D01*
X029305Y015680D01*
X028805Y015180D01*
X026555Y015180D01*
X026680Y014180D02*
X027180Y013680D01*
X026680Y014180D02*
X023555Y014180D01*
X023430Y014055D01*
X024180Y013680D02*
X024680Y013680D01*
X025180Y013180D01*
X027930Y013180D01*
X027930Y012055D01*
X028555Y012180D02*
X027555Y011180D01*
X026430Y011180D01*
X025930Y010680D01*
X024180Y010680D01*
X023680Y010180D01*
X019180Y010180D01*
X014180Y010180D01*
X009680Y010180D01*
X006180Y010180D01*
X005680Y010680D01*
X005180Y011180D01*
X001680Y011180D01*
X001180Y010680D01*
X005680Y012680D02*
X007430Y010930D01*
X009680Y010180D02*
X010180Y010680D01*
X007055Y012180D02*
X006055Y013180D01*
X004680Y013180D01*
X004180Y013680D01*
X005680Y013680D02*
X006055Y013680D01*
X006805Y012930D01*
X001180Y013680D02*
X000430Y013680D01*
X000430Y005555D01*
X001055Y004930D01*
X004430Y004930D01*
X005180Y005680D01*
X005305Y006930D02*
X007930Y006930D01*
X009180Y005680D01*
X013680Y005680D02*
X013680Y007680D01*
X011805Y007680D01*
X011805Y008180D02*
X015680Y008180D01*
X015680Y005680D01*
X015180Y005055D02*
X015305Y004930D01*
X017930Y004930D01*
X018680Y005680D01*
X019680Y005680D02*
X017930Y007430D01*
X017055Y007430D01*
X017180Y008055D02*
X016180Y007055D01*
X017180Y008055D02*
X017430Y008055D01*
X020055Y007430D02*
X020055Y006430D01*
X020805Y006430D01*
X021680Y005555D01*
X021680Y004930D01*
X021805Y004930D01*
X022055Y004680D01*
X022055Y003430D01*
X021180Y002555D01*
X021180Y001930D01*
X019430Y001930D01*
X018680Y001180D01*
X016680Y002680D02*
X015930Y001930D01*
X014430Y001930D01*
X014180Y001680D01*
X014180Y000430D01*
X010430Y000430D01*
X009680Y001180D01*
X009430Y001930D02*
X008680Y001180D01*
X009430Y001930D02*
X010680Y001930D01*
X010680Y002555D01*
X011555Y003430D01*
X017930Y003430D01*
X018680Y002680D01*
X014680Y002680D02*
X013930Y001930D01*
X011430Y001930D01*
X010680Y001180D01*
X008180Y002680D02*
X007430Y003430D01*
X001055Y003430D01*
X000680Y003055D01*
X000680Y001180D01*
X001680Y001180D02*
X002430Y000430D01*
X006180Y000430D01*
X006180Y002680D01*
X003680Y001180D02*
X002180Y002680D01*
X020055Y007430D02*
X020680Y008055D01*
X024430Y008055D01*
X024680Y008305D01*
X026055Y008305D01*
X026180Y008180D01*
X027555Y008180D01*
X028555Y009180D01*
X028805Y009180D01*
X029305Y009680D01*
X030680Y009680D01*
X030680Y009055D01*
X031055Y008680D01*
X035930Y008680D01*
X035930Y008055D01*
X036305Y007680D01*
X037055Y007680D01*
X037305Y007430D01*
X039430Y007430D01*
X039680Y007180D01*
X039180Y006680D02*
X039680Y006180D01*
X039180Y006680D02*
X035680Y006680D01*
X035180Y007180D01*
X034805Y007680D02*
X035930Y007680D01*
X036430Y007180D01*
X036680Y007180D01*
X034805Y007680D02*
X034555Y007930D01*
X032430Y007930D01*
X032180Y008180D01*
X030180Y009180D02*
X029180Y009180D01*
X028680Y008680D01*
X028555Y008180D02*
X029805Y008180D01*
X028555Y008180D02*
X028305Y007930D01*
X025930Y007930D01*
X025680Y007680D02*
X026430Y006930D01*
X028055Y006930D01*
X028180Y006555D02*
X027180Y006555D01*
X028180Y006555D02*
X028555Y006180D01*
X028805Y006180D01*
X029055Y006430D01*
X030430Y006430D01*
X031180Y005680D01*
X032180Y005180D02*
X032555Y005555D01*
X034430Y005555D01*
X034805Y005680D02*
X036180Y005680D01*
X036680Y005180D01*
X036305Y004680D02*
X035805Y005180D01*
X035180Y005180D01*
X034805Y005680D02*
X034555Y005930D01*
X032430Y005930D01*
X032180Y006180D01*
X031680Y006680D02*
X033680Y006680D01*
X034180Y006180D01*
X035180Y006180D01*
X035805Y004680D02*
X029555Y004680D01*
X029180Y004555D02*
X027805Y004555D01*
X028555Y004930D02*
X026680Y004930D01*
X026305Y004555D01*
X026180Y003930D02*
X023680Y003930D01*
X023930Y004180D02*
X023805Y004305D01*
X023305Y004305D01*
X022930Y004180D02*
X022930Y004930D01*
X025555Y004930D01*
X026180Y005680D02*
X024430Y007430D01*
X021430Y007430D01*
X021305Y007305D01*
X020430Y007305D01*
X021180Y007680D02*
X025680Y007680D01*
X024180Y007180D02*
X021680Y007180D01*
X021555Y007055D01*
X024180Y007180D02*
X024180Y005680D01*
X023930Y004180D02*
X031055Y004180D01*
X031430Y003805D01*
X033430Y003430D02*
X029055Y003430D01*
X028930Y003305D01*
X028430Y003305D01*
X028305Y003430D01*
X027930Y003430D01*
X027180Y002680D01*
X026180Y002680D02*
X026180Y003930D01*
X027305Y003805D02*
X027430Y003680D01*
X028555Y003680D01*
X029180Y004555D02*
X029180Y005680D01*
X028680Y006680D02*
X029180Y007180D01*
X030180Y007180D01*
X031180Y007180D02*
X031680Y006680D01*
X035805Y004680D02*
X035930Y004555D01*
X036305Y004680D02*
X039180Y004680D01*
X039680Y004180D01*
X034180Y001680D02*
X033930Y001930D01*
X033680Y001930D01*
X033680Y003180D01*
X033430Y003430D01*
X032930Y001930D02*
X029930Y001930D01*
X029180Y002680D01*
X028930Y001930D02*
X029680Y001180D01*
X028930Y001930D02*
X025680Y001930D01*
X025680Y003055D01*
X025180Y003555D01*
X024180Y003555D02*
X023555Y003555D01*
X022930Y004180D01*
X022680Y003555D02*
X022680Y001930D01*
X023930Y001930D01*
X024680Y001180D01*
X025180Y000430D02*
X030930Y000430D01*
X031680Y001180D01*
X032680Y001180D02*
X033430Y000430D01*
X034180Y000430D01*
X034180Y001680D01*
X033680Y001180D02*
X032930Y001930D01*
X025180Y002680D02*
X025180Y000430D01*
X024180Y002680D02*
X024180Y003555D01*
X036680Y008180D02*
X036930Y007930D01*
X038430Y007930D01*
X039055Y008805D02*
X039680Y008180D01*
X039055Y008805D02*
X037930Y008805D01*
X037430Y009305D01*
X037430Y010930D01*
X037180Y011180D01*
X037180Y012680D01*
X032680Y012680D01*
X032180Y012180D01*
X028555Y012180D01*
X028680Y012680D02*
X029180Y013180D01*
X030180Y013180D01*
X032305Y011680D02*
X033055Y012430D01*
X036180Y012430D01*
X036180Y011180D01*
X036430Y010930D01*
X036680Y010930D01*
X036680Y010180D01*
X035930Y009930D02*
X035930Y010930D01*
X034930Y010930D01*
X035680Y011680D01*
X033930Y011305D02*
X033805Y011180D01*
X031180Y011180D01*
X030180Y011180D02*
X029180Y011180D01*
X028680Y010680D01*
X028555Y011180D02*
X027555Y010180D01*
X026180Y010180D01*
X025180Y009180D01*
X024930Y009680D02*
X024430Y009180D01*
X022055Y009180D01*
X019680Y010680D02*
X019180Y010180D01*
X014680Y010680D02*
X014180Y010180D01*
X013930Y011305D02*
X013930Y012180D01*
X017180Y012180D01*
X017680Y012680D01*
X018055Y013180D02*
X015180Y013180D01*
X014680Y012680D01*
X018055Y013180D02*
X018805Y012430D01*
X022680Y012680D02*
X023180Y013180D01*
X024805Y013180D01*
X025180Y012805D01*
X026305Y012805D01*
X025805Y011055D02*
X024180Y012680D01*
X028555Y011180D02*
X028805Y011180D01*
X029305Y011680D01*
X032305Y011680D01*
X032930Y010930D02*
X034930Y010930D01*
X032930Y010930D02*
X032180Y010180D01*
X035930Y009930D02*
X036680Y009180D01*
X038305Y009680D02*
X039180Y009680D01*
X039680Y009180D01*
X038680Y014680D02*
X037680Y014680D01*
X036680Y014680D01*
X030180Y015180D02*
X029180Y015180D01*
X028680Y014680D01*
M02*
