%
M48
M72
T01C0.0236
T02C0.0240
T03C0.0315
T04C0.0320
T05C0.0360
T06C0.0400
%
T01
X26680Y6180
T02
X25805Y6993
X26180Y7368
X26868Y7743
X25618Y8118
X23743Y8555
X20055Y8555
X18430Y8118
X17493Y7868
X13743Y6743
X16618Y5618
X17680Y5993
X18805Y6368
X20243Y5993
X19180Y5243
X23243Y4493
X29618Y5055
X20118Y1993
X27743Y9618
T03
X23680Y6180
T04
X28680Y6180
X29680Y7180
X30680Y7680
X26680Y9180
X23680Y9180
X21180Y10180
X20180Y10180
X19180Y10180
X18180Y10180
X17180Y10180
X16180Y10180
X15180Y10180
X14180Y10180
X13180Y10180
X12180Y10180
X11180Y10180
X10180Y10180
X8680Y6680
X7680Y6680
X6680Y6680
X5680Y6680
X4680Y6680
X3680Y6680
X2680Y6680
X1680Y6680
X680Y6680
X680Y5680
X1680Y3680
X2680Y3680
X3680Y3680
X4680Y3680
X5680Y3680
X6680Y3680
X7680Y3680
X8680Y3680
X10180Y4180
X11180Y4180
X12180Y4180
X13180Y4180
X14180Y4180
X15180Y4180
X16180Y4180
X17180Y4180
X18180Y4180
X19180Y4180
X20180Y4180
X21180Y4180
X23680Y3180
X26680Y3180
X28680Y3180
X29680Y4180
X30680Y4680
X18180Y3180
X17180Y3180
T05
X19680Y2680
X20680Y2680
X29180Y8680
X30180Y8680
T06
X680Y1180
X1680Y1180
X2680Y1180
X3680Y1180
X4680Y1180
X5680Y1180
X6680Y1180
X7680Y1180
X8680Y1180
X9680Y1180
X10680Y1180
X11680Y1180
X12680Y1180
X13680Y1180
X14680Y1180
X15680Y1180
X16680Y1180
X17680Y1180
X18680Y1180
X19680Y1180
X20680Y1180
X21680Y1180
X22680Y1180
X23680Y1180
X24680Y1180
X25680Y1180
X26680Y1180
X27680Y1180
X28680Y1180
X29680Y1180
X30680Y1180
X31680Y1180
X32680Y1180
X33680Y1180
X34680Y1180
X35680Y1180
X36680Y1180
X37680Y1180
X38680Y1180
X39680Y1180
X39680Y2680
X38680Y2680
X37680Y2680
X36680Y2680
X35680Y2680
X34680Y2680
X34680Y3680
X35680Y3680
X36680Y3680
X37680Y3680
X38680Y3680
X39680Y3680
X32180Y5180
X32180Y6180
X32180Y7180
X32180Y8180
X32180Y9180
X32180Y10180
X8180Y9180
X7180Y9180
X6180Y9180
X5180Y9180
X4180Y9180
X3180Y9180
X2180Y9180
X1180Y9180
X1180Y8180
X2180Y8180
X3180Y8180
X4180Y8180
X5180Y8180
X6180Y8180
X7180Y8180
X8180Y8180
M30
