G75*
%MOIN*%
%OFA0B0*%
%FSLAX24Y24*%
%IPPOS*%
%LPD*%
%AMOC8*
5,1,8,0,0,1.08239X$1,22.5*
%
%ADD10C,0.0040*%
%ADD11C,0.0060*%
%ADD12C,0.0100*%
%ADD13C,0.0080*%
%ADD14C,0.0050*%
%ADD15R,0.0150X0.0200*%
%ADD16R,0.0200X0.0150*%
D10*
X002710Y009702D02*
X002710Y009877D01*
X002768Y009935D01*
X002885Y009935D01*
X002943Y009877D01*
X002943Y009702D01*
X002943Y009819D02*
X003060Y009935D01*
X003060Y010061D02*
X003002Y010061D01*
X002768Y010294D01*
X002710Y010294D01*
X002710Y010061D01*
X002710Y009702D02*
X003060Y009702D01*
X003710Y009702D02*
X003710Y009877D01*
X003768Y009935D01*
X003885Y009935D01*
X003943Y009877D01*
X003943Y009702D01*
X003943Y009819D02*
X004060Y009935D01*
X004002Y010061D02*
X003943Y010061D01*
X003885Y010119D01*
X003885Y010236D01*
X003943Y010294D01*
X004002Y010294D01*
X004060Y010236D01*
X004060Y010119D01*
X004002Y010061D01*
X003885Y010119D02*
X003826Y010061D01*
X003768Y010061D01*
X003710Y010119D01*
X003710Y010236D01*
X003768Y010294D01*
X003826Y010294D01*
X003885Y010236D01*
X004060Y009702D02*
X003710Y009702D01*
X003700Y012120D02*
X003700Y012467D01*
X003873Y012640D01*
X004047Y012467D01*
X004047Y012120D01*
X004216Y012120D02*
X004563Y012120D01*
X004389Y012120D02*
X004389Y012640D01*
X004216Y012467D01*
X004047Y012380D02*
X003700Y012380D01*
X003700Y013120D02*
X003700Y013640D01*
X003700Y013380D02*
X004047Y013380D01*
X004047Y013640D02*
X004047Y013120D01*
X004216Y013120D02*
X004389Y013120D01*
X004302Y013120D02*
X004302Y013640D01*
X004216Y013640D02*
X004389Y013640D01*
X004818Y012640D02*
X004992Y012640D01*
X005078Y012554D01*
X005078Y012467D01*
X004992Y012380D01*
X004818Y012380D01*
X004731Y012467D01*
X004731Y012554D01*
X004818Y012640D01*
X004818Y012380D02*
X004731Y012293D01*
X004731Y012207D01*
X004818Y012120D01*
X004992Y012120D01*
X005078Y012207D01*
X005078Y012293D01*
X004992Y012380D01*
X004731Y015120D02*
X004731Y015207D01*
X005078Y015554D01*
X005078Y015640D01*
X004731Y015640D01*
X004389Y015640D02*
X004389Y015120D01*
X004216Y015120D02*
X004563Y015120D01*
X004216Y015467D02*
X004389Y015640D01*
X004047Y015467D02*
X004047Y015120D01*
X004047Y015380D02*
X003700Y015380D01*
X003700Y015467D02*
X003700Y015120D01*
X003700Y015467D02*
X003873Y015640D01*
X004047Y015467D01*
X004047Y016120D02*
X004047Y016640D01*
X004216Y016640D02*
X004389Y016640D01*
X004302Y016640D02*
X004302Y016120D01*
X004216Y016120D02*
X004389Y016120D01*
X004047Y016380D02*
X003700Y016380D01*
X003700Y016120D02*
X003700Y016640D01*
X003787Y018420D02*
X003960Y018420D01*
X004047Y018507D01*
X004047Y018854D01*
X003960Y018940D01*
X003787Y018940D01*
X003700Y018854D01*
X003700Y018507D01*
X003787Y018420D01*
X004216Y018420D02*
X004476Y018420D01*
X004563Y018507D01*
X004563Y018854D01*
X004476Y018940D01*
X004216Y018940D01*
X004216Y018420D01*
X004731Y018420D02*
X004731Y018940D01*
X004992Y018940D01*
X005078Y018854D01*
X005078Y018507D01*
X004992Y018420D01*
X004731Y018420D01*
X004731Y019620D02*
X004731Y020140D01*
X005078Y019620D01*
X005078Y020140D01*
X004563Y020140D02*
X004563Y019793D01*
X004389Y019620D01*
X004216Y019793D01*
X004216Y020140D01*
X004047Y020140D02*
X003700Y020140D01*
X003700Y019620D01*
X004047Y019620D01*
X003873Y019880D02*
X003700Y019880D01*
X003700Y022033D02*
X004047Y022033D01*
X004216Y022120D02*
X004563Y022120D01*
X004731Y022120D02*
X005078Y022120D01*
X005247Y022120D02*
X005507Y022120D01*
X005594Y022207D01*
X005594Y022554D01*
X005507Y022640D01*
X005247Y022640D01*
X005247Y022120D01*
X004905Y022380D02*
X004731Y022380D01*
X004731Y022640D02*
X004731Y022120D01*
X004216Y022120D02*
X004216Y022640D01*
X004216Y022960D02*
X004563Y022960D01*
X004731Y022960D02*
X004731Y023307D01*
X004905Y023480D01*
X005078Y023307D01*
X005078Y022960D01*
X005247Y022960D02*
X005247Y023480D01*
X005507Y023480D01*
X005594Y023394D01*
X005594Y023047D01*
X005507Y022960D01*
X005247Y022960D01*
X005078Y023220D02*
X004731Y023220D01*
X004563Y023480D02*
X004216Y023480D01*
X004216Y022960D01*
X004047Y022960D02*
X003873Y023133D01*
X003960Y023133D02*
X003700Y023133D01*
X003700Y022960D02*
X003700Y023480D01*
X003960Y023480D01*
X004047Y023394D01*
X004047Y023220D01*
X003960Y023133D01*
X004216Y023220D02*
X004389Y023220D01*
X004731Y022640D02*
X005078Y022640D01*
X005249Y024620D02*
X005249Y025140D01*
X005422Y025140D02*
X005075Y025140D01*
X004905Y025140D02*
X004731Y025140D01*
X004818Y025140D02*
X004818Y024620D01*
X004731Y024620D02*
X004905Y024620D01*
X004563Y024620D02*
X004389Y024793D01*
X004476Y024793D02*
X004216Y024793D01*
X004216Y024620D02*
X004216Y025140D01*
X004476Y025140D01*
X004563Y025054D01*
X004563Y024880D01*
X004476Y024793D01*
X004047Y024620D02*
X004047Y025140D01*
X003700Y025140D02*
X003700Y024620D01*
X003873Y024793D01*
X004047Y024620D01*
X005591Y024620D02*
X005938Y024620D01*
X006106Y024533D02*
X006453Y024533D01*
X006622Y024620D02*
X006969Y024620D01*
X007138Y024620D02*
X007138Y025140D01*
X007485Y024620D01*
X007485Y025140D01*
X007653Y024967D02*
X007827Y025140D01*
X008000Y024967D01*
X008000Y024620D01*
X008169Y024620D02*
X008169Y025140D01*
X008429Y025140D01*
X008516Y025054D01*
X008516Y024967D01*
X008429Y024880D01*
X008169Y024880D01*
X008000Y024880D02*
X007653Y024880D01*
X007653Y024967D02*
X007653Y024620D01*
X006969Y025140D02*
X006622Y025140D01*
X006622Y024620D01*
X006622Y024880D02*
X006795Y024880D01*
X005938Y025140D02*
X005591Y025140D01*
X005591Y024620D01*
X005591Y024880D02*
X005764Y024880D01*
X005763Y026620D02*
X006110Y026620D01*
X006278Y026620D02*
X006625Y026620D01*
X006452Y026880D02*
X006278Y026880D01*
X006278Y027140D02*
X006278Y026620D01*
X005763Y026620D02*
X005763Y027140D01*
X005594Y027054D02*
X005594Y026967D01*
X005507Y026880D01*
X005247Y026880D01*
X005078Y026880D02*
X004731Y026880D01*
X004731Y026967D02*
X004905Y027140D01*
X005078Y026967D01*
X005078Y026620D01*
X005247Y026620D02*
X005247Y027140D01*
X005507Y027140D01*
X005594Y027054D01*
X005507Y026880D02*
X005594Y026793D01*
X005594Y026707D01*
X005507Y026620D01*
X005247Y026620D01*
X004731Y026620D02*
X004731Y026967D01*
X004563Y027140D02*
X004563Y026620D01*
X004216Y027140D01*
X004216Y026620D01*
X004047Y026620D02*
X003700Y026620D01*
X003700Y027140D01*
X004047Y027140D01*
X003873Y026880D02*
X003700Y026880D01*
X006278Y027140D02*
X006625Y027140D01*
X008685Y025140D02*
X008685Y024620D01*
X009031Y024620D01*
X009200Y024620D02*
X009547Y024620D01*
X009374Y024880D02*
X009200Y024880D01*
X009200Y025140D02*
X009200Y024620D01*
X009200Y025140D02*
X009547Y025140D01*
X008516Y024793D02*
X008516Y024707D01*
X008429Y024620D01*
X008169Y024620D01*
X008429Y024880D02*
X008516Y024793D01*
X017210Y025702D02*
X017210Y025877D01*
X017268Y025935D01*
X017385Y025935D01*
X017443Y025877D01*
X017443Y025702D01*
X017443Y025819D02*
X017560Y025935D01*
X017502Y026061D02*
X017560Y026119D01*
X017560Y026236D01*
X017502Y026294D01*
X017443Y026294D01*
X017385Y026236D01*
X017385Y026061D01*
X017502Y026061D01*
X017385Y026061D02*
X017268Y026178D01*
X017210Y026294D01*
X017210Y025702D02*
X017560Y025702D01*
X018700Y024640D02*
X018700Y024120D01*
X018873Y024293D01*
X019047Y024120D01*
X019047Y024640D01*
X019216Y024640D02*
X019476Y024640D01*
X019563Y024554D01*
X019563Y024380D01*
X019476Y024293D01*
X019216Y024293D01*
X019216Y024120D02*
X019216Y024640D01*
X019389Y024293D02*
X019563Y024120D01*
X019905Y024120D02*
X019905Y024640D01*
X020078Y024640D02*
X019731Y024640D01*
X019293Y023280D02*
X019059Y023280D01*
X019059Y023105D01*
X019176Y023164D01*
X019234Y023164D01*
X019293Y023105D01*
X019293Y022988D01*
X019234Y022930D01*
X019117Y022930D01*
X019059Y022988D01*
X018934Y022930D02*
X018817Y023047D01*
X018875Y023047D02*
X018700Y023047D01*
X018700Y022930D02*
X018700Y023280D01*
X018875Y023280D01*
X018934Y023222D01*
X018934Y023105D01*
X018875Y023047D01*
X020200Y021280D02*
X020375Y021280D01*
X020434Y021222D01*
X020434Y021105D01*
X020375Y021047D01*
X020200Y021047D01*
X020317Y021047D02*
X020434Y020930D01*
X020559Y020930D02*
X020793Y020930D01*
X020676Y020930D02*
X020676Y021280D01*
X020559Y021164D01*
X020200Y021280D02*
X020200Y020930D01*
X020200Y019780D02*
X020375Y019780D01*
X020434Y019722D01*
X020434Y019605D01*
X020375Y019547D01*
X020200Y019547D01*
X020317Y019547D02*
X020434Y019430D01*
X020559Y019430D02*
X020793Y019664D01*
X020793Y019722D01*
X020734Y019780D01*
X020617Y019780D01*
X020559Y019722D01*
X020559Y019430D02*
X020793Y019430D01*
X020200Y019430D02*
X020200Y019780D01*
X020200Y018280D02*
X020375Y018280D01*
X020434Y018222D01*
X020434Y018105D01*
X020375Y018047D01*
X020200Y018047D01*
X020317Y018047D02*
X020434Y017930D01*
X020559Y017988D02*
X020617Y017930D01*
X020734Y017930D01*
X020793Y017988D01*
X020793Y018047D01*
X020734Y018105D01*
X020676Y018105D01*
X020734Y018105D02*
X020793Y018164D01*
X020793Y018222D01*
X020734Y018280D01*
X020617Y018280D01*
X020559Y018222D01*
X020200Y018280D02*
X020200Y017930D01*
X020526Y016345D02*
X020873Y015998D01*
X020960Y016085D01*
X020960Y016258D01*
X020873Y016345D01*
X020526Y016345D01*
X020440Y016258D01*
X020440Y016085D01*
X020526Y015998D01*
X020873Y015998D01*
X020873Y015830D02*
X020960Y015743D01*
X020960Y015569D01*
X020873Y015483D01*
X020526Y015830D01*
X020873Y015830D01*
X020526Y015830D02*
X020440Y015743D01*
X020440Y015569D01*
X020526Y015483D01*
X020873Y015483D01*
X020873Y015314D02*
X020526Y015314D01*
X020873Y014967D01*
X020960Y015054D01*
X020960Y015227D01*
X020873Y015314D01*
X020526Y015314D02*
X020440Y015227D01*
X020440Y015054D01*
X020526Y014967D01*
X020873Y014967D01*
X020700Y014798D02*
X020700Y014451D01*
X020440Y014712D01*
X020960Y014712D01*
X020960Y014283D02*
X020613Y013936D01*
X020526Y013767D02*
X020873Y013767D01*
X020960Y013680D01*
X020960Y013507D01*
X020873Y013420D01*
X020526Y013767D01*
X020440Y013680D01*
X020440Y013507D01*
X020526Y013420D01*
X020873Y013420D01*
X020960Y013936D02*
X020613Y014283D01*
X019960Y014283D02*
X019613Y013936D01*
X019526Y013767D02*
X019873Y013420D01*
X019960Y013507D01*
X019960Y013680D01*
X019873Y013767D01*
X019526Y013767D01*
X019440Y013680D01*
X019440Y013507D01*
X019526Y013420D01*
X019873Y013420D01*
X019960Y013936D02*
X019613Y014283D01*
X019526Y014451D02*
X019440Y014538D01*
X019440Y014712D01*
X019526Y014798D01*
X019613Y014798D01*
X019960Y014451D01*
X019960Y014798D01*
X019873Y014967D02*
X019526Y015314D01*
X019873Y015314D01*
X019960Y015227D01*
X019960Y015054D01*
X019873Y014967D01*
X019526Y014967D01*
X019440Y015054D01*
X019440Y015227D01*
X019526Y015314D01*
X019526Y015483D02*
X019440Y015569D01*
X019440Y015743D01*
X019526Y015830D01*
X019873Y015483D01*
X019960Y015569D01*
X019960Y015743D01*
X019873Y015830D01*
X019526Y015830D01*
X019526Y015998D02*
X019440Y016085D01*
X019440Y016258D01*
X019526Y016345D01*
X019873Y015998D01*
X019960Y016085D01*
X019960Y016258D01*
X019873Y016345D01*
X019526Y016345D01*
X019526Y015998D02*
X019873Y015998D01*
X019873Y015483D02*
X019526Y015483D01*
X018960Y015569D02*
X018873Y015483D01*
X018526Y015830D01*
X018873Y015830D01*
X018960Y015743D01*
X018960Y015569D01*
X018873Y015483D02*
X018526Y015483D01*
X018440Y015569D01*
X018440Y015743D01*
X018526Y015830D01*
X018526Y015998D02*
X018440Y016085D01*
X018440Y016258D01*
X018526Y016345D01*
X018873Y015998D01*
X018960Y016085D01*
X018960Y016258D01*
X018873Y016345D01*
X018526Y016345D01*
X018526Y015998D02*
X018873Y015998D01*
X018873Y015314D02*
X018526Y015314D01*
X018873Y014967D01*
X018960Y015054D01*
X018960Y015227D01*
X018873Y015314D01*
X018526Y015314D02*
X018440Y015227D01*
X018440Y015054D01*
X018526Y014967D01*
X018873Y014967D01*
X018873Y014798D02*
X018960Y014712D01*
X018960Y014538D01*
X018873Y014451D01*
X018526Y014798D01*
X018873Y014798D01*
X018526Y014798D02*
X018440Y014712D01*
X018440Y014538D01*
X018526Y014451D01*
X018873Y014451D01*
X018960Y014283D02*
X018613Y013936D01*
X018526Y013767D02*
X018873Y013420D01*
X018960Y013507D01*
X018960Y013680D01*
X018873Y013767D01*
X018526Y013767D01*
X018440Y013680D01*
X018440Y013507D01*
X018526Y013420D01*
X018873Y013420D01*
X018960Y013936D02*
X018613Y014283D01*
X021440Y014798D02*
X021526Y014625D01*
X021700Y014451D01*
X021700Y014712D01*
X021787Y014798D01*
X021873Y014798D01*
X021960Y014712D01*
X021960Y014538D01*
X021873Y014451D01*
X021700Y014451D01*
X021613Y014283D02*
X021960Y013936D01*
X021873Y013767D02*
X021960Y013680D01*
X021960Y013507D01*
X021873Y013420D01*
X021526Y013767D01*
X021873Y013767D01*
X021613Y013936D02*
X021960Y014283D01*
X022440Y014538D02*
X022440Y014712D01*
X022526Y014798D01*
X022613Y014798D01*
X022700Y014712D01*
X022700Y014538D01*
X022613Y014451D01*
X022526Y014451D01*
X022440Y014538D01*
X022700Y014538D02*
X022787Y014451D01*
X022873Y014451D01*
X022960Y014538D01*
X022960Y014712D01*
X022873Y014798D01*
X022787Y014798D01*
X022700Y014712D01*
X022873Y014967D02*
X022526Y014967D01*
X022440Y015054D01*
X022440Y015227D01*
X022526Y015314D01*
X022873Y014967D01*
X022960Y015054D01*
X022960Y015227D01*
X022873Y015314D01*
X022526Y015314D01*
X022526Y015483D02*
X022440Y015569D01*
X022440Y015743D01*
X022526Y015830D01*
X022873Y015483D01*
X022960Y015569D01*
X022960Y015743D01*
X022873Y015830D01*
X022526Y015830D01*
X022526Y015998D02*
X022440Y016085D01*
X022440Y016258D01*
X022526Y016345D01*
X022873Y015998D01*
X022960Y016085D01*
X022960Y016258D01*
X022873Y016345D01*
X022526Y016345D01*
X022526Y015998D02*
X022873Y015998D01*
X022873Y015483D02*
X022526Y015483D01*
X021960Y015569D02*
X021873Y015483D01*
X021526Y015830D01*
X021873Y015830D01*
X021960Y015743D01*
X021960Y015569D01*
X021873Y015483D02*
X021526Y015483D01*
X021440Y015569D01*
X021440Y015743D01*
X021526Y015830D01*
X021526Y015998D02*
X021440Y016085D01*
X021440Y016258D01*
X021526Y016345D01*
X021873Y015998D01*
X021960Y016085D01*
X021960Y016258D01*
X021873Y016345D01*
X021526Y016345D01*
X021526Y015998D02*
X021873Y015998D01*
X021873Y015314D02*
X021526Y015314D01*
X021873Y014967D01*
X021960Y015054D01*
X021960Y015227D01*
X021873Y015314D01*
X021526Y015314D02*
X021440Y015227D01*
X021440Y015054D01*
X021526Y014967D01*
X021873Y014967D01*
X022613Y014283D02*
X022960Y013936D01*
X022873Y013767D02*
X022960Y013680D01*
X022960Y013507D01*
X022873Y013420D01*
X022526Y013767D01*
X022873Y013767D01*
X022613Y013936D02*
X022960Y014283D01*
X023440Y014625D02*
X023613Y014798D01*
X023960Y014798D01*
X023873Y014967D02*
X023526Y015314D01*
X023873Y015314D01*
X023960Y015227D01*
X023960Y015054D01*
X023873Y014967D01*
X023526Y014967D01*
X023440Y015054D01*
X023440Y015227D01*
X023526Y015314D01*
X023526Y015483D02*
X023440Y015569D01*
X023440Y015743D01*
X023526Y015830D01*
X023873Y015483D01*
X023960Y015569D01*
X023960Y015743D01*
X023873Y015830D01*
X023526Y015830D01*
X023526Y015998D02*
X023440Y016085D01*
X023440Y016258D01*
X023526Y016345D01*
X023873Y015998D01*
X023960Y016085D01*
X023960Y016258D01*
X023873Y016345D01*
X023526Y016345D01*
X023526Y015998D02*
X023873Y015998D01*
X023873Y015483D02*
X023526Y015483D01*
X023700Y014798D02*
X023700Y014451D01*
X023613Y014451D02*
X023440Y014625D01*
X023613Y014451D02*
X023960Y014451D01*
X023960Y014283D02*
X023613Y013936D01*
X023526Y013767D02*
X023873Y013767D01*
X023960Y013680D01*
X023960Y013507D01*
X023873Y013420D01*
X023526Y013767D01*
X023440Y013680D01*
X023440Y013507D01*
X023526Y013420D01*
X023873Y013420D01*
X023960Y013936D02*
X023613Y014283D01*
X024440Y014538D02*
X024526Y014451D01*
X024873Y014451D01*
X024960Y014538D01*
X024960Y014712D01*
X024873Y014798D01*
X024873Y014967D02*
X024526Y015314D01*
X024873Y015314D01*
X024960Y015227D01*
X024960Y015054D01*
X024873Y014967D01*
X024526Y014967D01*
X024440Y015054D01*
X024440Y015227D01*
X024526Y015314D01*
X024526Y015483D02*
X024440Y015569D01*
X024440Y015743D01*
X024526Y015830D01*
X024873Y015483D01*
X024960Y015569D01*
X024960Y015743D01*
X024873Y015830D01*
X024526Y015830D01*
X024526Y015998D02*
X024440Y016085D01*
X024440Y016258D01*
X024526Y016345D01*
X024873Y015998D01*
X024960Y016085D01*
X024960Y016258D01*
X024873Y016345D01*
X024526Y016345D01*
X024526Y015998D02*
X024873Y015998D01*
X024873Y015483D02*
X024526Y015483D01*
X024526Y014798D02*
X024440Y014712D01*
X024440Y014538D01*
X024613Y014283D02*
X024960Y013936D01*
X024873Y013767D02*
X024960Y013680D01*
X024960Y013507D01*
X024873Y013420D01*
X024526Y013767D01*
X024873Y013767D01*
X024613Y013936D02*
X024960Y014283D01*
X025440Y014451D02*
X025960Y014451D01*
X025960Y014798D01*
X025873Y014967D02*
X025526Y015314D01*
X025873Y015314D01*
X025960Y015227D01*
X025960Y015054D01*
X025873Y014967D01*
X025526Y014967D01*
X025440Y015054D01*
X025440Y015227D01*
X025526Y015314D01*
X025526Y015483D02*
X025440Y015569D01*
X025440Y015743D01*
X025526Y015830D01*
X025873Y015483D01*
X025960Y015569D01*
X025960Y015743D01*
X025873Y015830D01*
X025526Y015830D01*
X025526Y015998D02*
X025440Y016085D01*
X025440Y016258D01*
X025526Y016345D01*
X025873Y015998D01*
X025960Y016085D01*
X025960Y016258D01*
X025873Y016345D01*
X025526Y016345D01*
X025526Y015998D02*
X025873Y015998D01*
X025873Y015483D02*
X025526Y015483D01*
X025440Y014798D02*
X025440Y014451D01*
X025613Y014283D02*
X025960Y013936D01*
X025873Y013767D02*
X025960Y013680D01*
X025960Y013507D01*
X025873Y013420D01*
X025526Y013767D01*
X025873Y013767D01*
X025613Y013936D02*
X025960Y014283D01*
X025700Y014451D02*
X025700Y014625D01*
X025526Y013767D02*
X025440Y013680D01*
X025440Y013507D01*
X025526Y013420D01*
X025873Y013420D01*
X024873Y013420D02*
X024526Y013420D01*
X024440Y013507D01*
X024440Y013680D01*
X024526Y013767D01*
X022873Y013420D02*
X022526Y013420D01*
X022440Y013507D01*
X022440Y013680D01*
X022526Y013767D01*
X021873Y013420D02*
X021526Y013420D01*
X021440Y013507D01*
X021440Y013680D01*
X021526Y013767D01*
X027940Y014507D02*
X028026Y014420D01*
X028373Y014420D01*
X028026Y014767D01*
X028373Y014767D01*
X028460Y014680D01*
X028460Y014507D01*
X028373Y014420D01*
X027940Y014507D02*
X027940Y014680D01*
X028026Y014767D01*
X028113Y014936D02*
X028460Y015283D01*
X028373Y015451D02*
X028026Y015451D01*
X027940Y015538D01*
X027940Y015712D01*
X028026Y015798D01*
X028373Y015451D01*
X028460Y015538D01*
X028460Y015712D01*
X028373Y015798D01*
X028026Y015798D01*
X028026Y015967D02*
X027940Y016054D01*
X027940Y016227D01*
X028026Y016314D01*
X028373Y015967D01*
X028460Y016054D01*
X028460Y016227D01*
X028373Y016314D01*
X028026Y016314D01*
X028026Y016483D02*
X027940Y016569D01*
X027940Y016743D01*
X028026Y016830D01*
X028373Y016483D01*
X028460Y016569D01*
X028460Y016743D01*
X028373Y016830D01*
X028026Y016830D01*
X028026Y016998D02*
X027940Y017085D01*
X027940Y017258D01*
X028026Y017345D01*
X028373Y016998D01*
X028460Y017085D01*
X028460Y017258D01*
X028373Y017345D01*
X028026Y017345D01*
X028026Y016998D02*
X028373Y016998D01*
X028373Y016483D02*
X028026Y016483D01*
X028026Y015967D02*
X028373Y015967D01*
X028940Y015712D02*
X029026Y015798D01*
X029373Y015451D01*
X029460Y015538D01*
X029460Y015712D01*
X029373Y015798D01*
X029026Y015798D01*
X028940Y015712D02*
X028940Y015538D01*
X029026Y015451D01*
X029373Y015451D01*
X029460Y015283D02*
X029113Y014936D01*
X029026Y014767D02*
X029373Y014420D01*
X029460Y014507D01*
X029460Y014680D01*
X029373Y014767D01*
X029026Y014767D01*
X028940Y014680D01*
X028940Y014507D01*
X029026Y014420D01*
X029373Y014420D01*
X029940Y014507D02*
X029940Y014680D01*
X030026Y014767D01*
X030373Y014420D01*
X030460Y014507D01*
X030460Y014680D01*
X030373Y014767D01*
X030026Y014767D01*
X030113Y014936D02*
X030460Y015283D01*
X030373Y015451D02*
X030026Y015798D01*
X030373Y015798D01*
X030460Y015712D01*
X030460Y015538D01*
X030373Y015451D01*
X030026Y015451D01*
X029940Y015538D01*
X029940Y015712D01*
X030026Y015798D01*
X030026Y015967D02*
X030113Y015967D01*
X030200Y016054D01*
X030200Y016227D01*
X030287Y016314D01*
X030373Y016314D01*
X030460Y016227D01*
X030460Y016054D01*
X030373Y015967D01*
X030287Y015967D01*
X030200Y016054D01*
X030200Y016227D02*
X030113Y016314D01*
X030026Y016314D01*
X029940Y016227D01*
X029940Y016054D01*
X030026Y015967D01*
X030026Y016483D02*
X029940Y016569D01*
X029940Y016743D01*
X030026Y016830D01*
X030373Y016483D01*
X030460Y016569D01*
X030460Y016743D01*
X030373Y016830D01*
X030026Y016830D01*
X030026Y016998D02*
X029940Y017085D01*
X029940Y017258D01*
X030026Y017345D01*
X030373Y016998D01*
X030460Y017085D01*
X030460Y017258D01*
X030373Y017345D01*
X030026Y017345D01*
X030026Y016998D02*
X030373Y016998D01*
X030373Y016483D02*
X030026Y016483D01*
X029460Y016569D02*
X029373Y016483D01*
X029026Y016830D01*
X029373Y016830D01*
X029460Y016743D01*
X029460Y016569D01*
X029373Y016483D02*
X029026Y016483D01*
X028940Y016569D01*
X028940Y016743D01*
X029026Y016830D01*
X029026Y016998D02*
X028940Y017085D01*
X028940Y017258D01*
X029026Y017345D01*
X029373Y016998D01*
X029460Y017085D01*
X029460Y017258D01*
X029373Y017345D01*
X029026Y017345D01*
X029026Y016998D02*
X029373Y016998D01*
X029200Y016314D02*
X029200Y015967D01*
X028940Y016227D01*
X029460Y016227D01*
X029113Y015283D02*
X029460Y014936D01*
X029940Y014507D02*
X030026Y014420D01*
X030373Y014420D01*
X030460Y014936D02*
X030113Y015283D01*
X030940Y015538D02*
X030940Y015712D01*
X031026Y015798D01*
X031373Y015451D01*
X031460Y015538D01*
X031460Y015712D01*
X031373Y015798D01*
X031026Y015798D01*
X031113Y015967D02*
X030940Y016140D01*
X031113Y016314D01*
X031460Y016314D01*
X031373Y016483D02*
X031026Y016483D01*
X030940Y016569D01*
X030940Y016743D01*
X031026Y016830D01*
X031373Y016483D01*
X031460Y016569D01*
X031460Y016743D01*
X031373Y016830D01*
X031026Y016830D01*
X031026Y016998D02*
X030940Y017085D01*
X030940Y017258D01*
X031026Y017345D01*
X031373Y016998D01*
X031460Y017085D01*
X031460Y017258D01*
X031373Y017345D01*
X031026Y017345D01*
X031026Y016998D02*
X031373Y016998D01*
X031940Y017085D02*
X031940Y017258D01*
X032026Y017345D01*
X032373Y016998D01*
X032460Y017085D01*
X032460Y017258D01*
X032373Y017345D01*
X032026Y017345D01*
X031940Y017085D02*
X032026Y016998D01*
X032373Y016998D01*
X032373Y016830D02*
X032460Y016743D01*
X032460Y016569D01*
X032373Y016483D01*
X032026Y016830D01*
X032373Y016830D01*
X032026Y016830D02*
X031940Y016743D01*
X031940Y016569D01*
X032026Y016483D01*
X032373Y016483D01*
X032373Y016314D02*
X032026Y016314D01*
X032373Y015967D01*
X032460Y016054D01*
X032460Y016227D01*
X032373Y016314D01*
X032026Y016314D02*
X031940Y016227D01*
X031940Y016054D01*
X032026Y015967D01*
X032373Y015967D01*
X032460Y015798D02*
X032460Y015451D01*
X032460Y015283D02*
X032113Y014936D01*
X032026Y014767D02*
X032373Y014420D01*
X032460Y014507D01*
X032460Y014680D01*
X032373Y014767D01*
X032026Y014767D01*
X031940Y014680D01*
X031940Y014507D01*
X032026Y014420D01*
X032373Y014420D01*
X032940Y014507D02*
X032940Y014680D01*
X033026Y014767D01*
X033373Y014420D01*
X033460Y014507D01*
X033460Y014680D01*
X033373Y014767D01*
X033026Y014767D01*
X033113Y014936D02*
X033460Y015283D01*
X033460Y015451D02*
X033460Y015798D01*
X033460Y015625D02*
X032940Y015625D01*
X033113Y015451D01*
X033113Y015283D02*
X033460Y014936D01*
X033940Y014680D02*
X034026Y014767D01*
X034373Y014420D01*
X034460Y014507D01*
X034460Y014680D01*
X034373Y014767D01*
X034026Y014767D01*
X033940Y014680D02*
X033940Y014507D01*
X034026Y014420D01*
X034373Y014420D01*
X034940Y014507D02*
X034940Y014680D01*
X035026Y014767D01*
X035373Y014420D01*
X035460Y014507D01*
X035460Y014680D01*
X035373Y014767D01*
X035026Y014767D01*
X035113Y014936D02*
X035460Y015283D01*
X035460Y015451D02*
X035460Y015798D01*
X035460Y015967D02*
X035113Y015967D01*
X034940Y016140D01*
X035113Y016314D01*
X035460Y016314D01*
X035373Y016483D02*
X035026Y016483D01*
X034940Y016569D01*
X034940Y016743D01*
X035026Y016830D01*
X035373Y016483D01*
X035460Y016569D01*
X035460Y016743D01*
X035373Y016830D01*
X035026Y016830D01*
X035026Y016998D02*
X034940Y017085D01*
X034940Y017258D01*
X035026Y017345D01*
X035373Y016998D01*
X035460Y017085D01*
X035460Y017258D01*
X035373Y017345D01*
X035026Y017345D01*
X035026Y016998D02*
X035373Y016998D01*
X035200Y016314D02*
X035200Y015967D01*
X034940Y015625D02*
X035460Y015625D01*
X035113Y015451D02*
X034940Y015625D01*
X035113Y015283D02*
X035460Y014936D01*
X035026Y014420D02*
X034940Y014507D01*
X035026Y014420D02*
X035373Y014420D01*
X034460Y014936D02*
X034113Y015283D01*
X034113Y015451D02*
X033940Y015625D01*
X034460Y015625D01*
X034460Y015798D02*
X034460Y015451D01*
X034460Y015283D02*
X034113Y014936D01*
X033373Y014420D02*
X033026Y014420D01*
X032940Y014507D01*
X032460Y014936D02*
X032113Y015283D01*
X032113Y015451D02*
X031940Y015625D01*
X032460Y015625D01*
X032940Y016227D02*
X033200Y015967D01*
X033200Y016314D01*
X033373Y016483D02*
X033026Y016830D01*
X033373Y016830D01*
X033460Y016743D01*
X033460Y016569D01*
X033373Y016483D01*
X033026Y016483D01*
X032940Y016569D01*
X032940Y016743D01*
X033026Y016830D01*
X033026Y016998D02*
X032940Y017085D01*
X032940Y017258D01*
X033026Y017345D01*
X033373Y016998D01*
X033460Y017085D01*
X033460Y017258D01*
X033373Y017345D01*
X033026Y017345D01*
X033026Y016998D02*
X033373Y016998D01*
X033940Y017085D02*
X033940Y017258D01*
X034026Y017345D01*
X034373Y016998D01*
X034460Y017085D01*
X034460Y017258D01*
X034373Y017345D01*
X034026Y017345D01*
X033940Y017085D02*
X034026Y016998D01*
X034373Y016998D01*
X034373Y016830D02*
X034460Y016743D01*
X034460Y016569D01*
X034373Y016483D01*
X034026Y016830D01*
X034373Y016830D01*
X034026Y016830D02*
X033940Y016743D01*
X033940Y016569D01*
X034026Y016483D01*
X034373Y016483D01*
X034373Y016314D02*
X034287Y016314D01*
X034200Y016227D01*
X034200Y016054D01*
X034113Y015967D01*
X034026Y015967D01*
X033940Y016054D01*
X033940Y016227D01*
X034026Y016314D01*
X034113Y016314D01*
X034200Y016227D01*
X034200Y016054D02*
X034287Y015967D01*
X034373Y015967D01*
X034460Y016054D01*
X034460Y016227D01*
X034373Y016314D01*
X033460Y016227D02*
X032940Y016227D01*
X031460Y015967D02*
X031113Y015967D01*
X031200Y015967D02*
X031200Y016314D01*
X030940Y015538D02*
X031026Y015451D01*
X031373Y015451D01*
X031460Y015283D02*
X031113Y014936D01*
X031026Y014767D02*
X031373Y014420D01*
X031460Y014507D01*
X031460Y014680D01*
X031373Y014767D01*
X031026Y014767D01*
X030940Y014680D01*
X030940Y014507D01*
X031026Y014420D01*
X031373Y014420D01*
X031460Y014936D02*
X031113Y015283D01*
X028460Y014936D02*
X028113Y015283D01*
X023234Y022930D02*
X023234Y023280D01*
X023059Y023105D01*
X023293Y023105D01*
X022934Y023105D02*
X022934Y023222D01*
X022875Y023280D01*
X022700Y023280D01*
X022700Y022930D01*
X022700Y023047D02*
X022875Y023047D01*
X022934Y023105D01*
X022817Y023047D02*
X022934Y022930D01*
X023078Y024120D02*
X023078Y024467D01*
X022905Y024640D01*
X022731Y024467D01*
X022731Y024120D01*
X022563Y024120D02*
X022216Y024120D01*
X022216Y024640D01*
X022563Y024640D01*
X022731Y024380D02*
X023078Y024380D01*
X023247Y024120D02*
X023507Y024120D01*
X023594Y024207D01*
X023594Y024554D01*
X023507Y024640D01*
X023247Y024640D01*
X023247Y024120D01*
X022389Y024380D02*
X022216Y024380D01*
X022047Y024380D02*
X021960Y024293D01*
X021700Y024293D01*
X021700Y024120D02*
X021700Y024640D01*
X021960Y024640D01*
X022047Y024554D01*
X022047Y024380D01*
X021873Y024293D02*
X022047Y024120D01*
X040700Y014081D02*
X041160Y014081D01*
X041007Y014081D02*
X040853Y014311D01*
X040930Y014465D02*
X040853Y014541D01*
X040853Y014695D01*
X040930Y014771D01*
X041007Y014771D01*
X041007Y014465D01*
X041083Y014465D02*
X040930Y014465D01*
X041083Y014465D02*
X041160Y014541D01*
X041160Y014695D01*
X041160Y014925D02*
X040853Y014925D01*
X040853Y015078D02*
X040853Y015155D01*
X040853Y015078D02*
X041007Y014925D01*
X041083Y015309D02*
X041083Y015385D01*
X041160Y015385D01*
X041160Y015309D01*
X041083Y015309D01*
X041083Y015539D02*
X041160Y015616D01*
X041160Y015846D01*
X041083Y015999D02*
X041160Y016076D01*
X041160Y016229D01*
X041083Y016306D01*
X040930Y016306D01*
X040853Y016229D01*
X040853Y016076D01*
X040930Y015999D01*
X041083Y015999D01*
X040853Y015846D02*
X040853Y015616D01*
X040930Y015539D01*
X041083Y015539D01*
X041160Y016460D02*
X040853Y016460D01*
X040853Y016536D01*
X040930Y016613D01*
X040853Y016690D01*
X040930Y016767D01*
X041160Y016767D01*
X041160Y016613D02*
X040930Y016613D01*
X041160Y014311D02*
X041007Y014081D01*
X041007Y013927D02*
X041007Y013697D01*
X041083Y013621D01*
X041160Y013697D01*
X041160Y013927D01*
X040930Y013927D01*
X040853Y013851D01*
X040853Y013697D01*
X040930Y013467D02*
X040853Y013390D01*
X040853Y013160D01*
X040700Y013160D02*
X041160Y013160D01*
X041160Y013390D01*
X041083Y013467D01*
X040930Y013467D01*
X040930Y013007D02*
X041160Y013007D01*
X041160Y012853D02*
X040930Y012853D01*
X040853Y012930D01*
X040930Y013007D01*
X040930Y012853D02*
X040853Y012776D01*
X040853Y012700D01*
X041160Y012700D01*
X041083Y012546D02*
X041160Y012470D01*
X041160Y012239D01*
X041160Y012086D02*
X041160Y012009D01*
X041083Y012009D01*
X041083Y012086D01*
X041160Y012086D01*
X041083Y011856D02*
X040853Y011856D01*
X041083Y011856D02*
X041160Y011779D01*
X041083Y011702D01*
X041160Y011625D01*
X041083Y011549D01*
X040853Y011549D01*
X040853Y011395D02*
X041083Y011395D01*
X041160Y011319D01*
X041083Y011242D01*
X041160Y011165D01*
X041083Y011088D01*
X040853Y011088D01*
X040853Y010935D02*
X041083Y010935D01*
X041160Y010858D01*
X041083Y010781D01*
X041160Y010705D01*
X041083Y010628D01*
X040853Y010628D01*
X040930Y012239D02*
X040853Y012316D01*
X040853Y012546D01*
X041007Y012470D02*
X041007Y012316D01*
X040930Y012239D01*
X041007Y012470D02*
X041083Y012546D01*
D11*
X036180Y013400D02*
X036180Y010400D01*
X035480Y010400D01*
X034880Y010400D02*
X034480Y010400D01*
X033880Y010400D02*
X033480Y010400D01*
X032880Y010400D02*
X032480Y010400D01*
X031880Y010400D02*
X031480Y010400D01*
X030880Y010400D02*
X030480Y010400D01*
X029880Y010400D02*
X029480Y010400D01*
X028880Y010400D02*
X028480Y010400D01*
X027880Y010400D02*
X027180Y010400D01*
X027180Y013400D01*
X027880Y013400D01*
X028480Y013400D02*
X028880Y013400D01*
X029480Y013400D02*
X029880Y013400D01*
X030480Y013400D02*
X030880Y013400D01*
X031480Y013400D02*
X031880Y013400D01*
X032480Y013400D02*
X032880Y013400D01*
X033480Y013400D02*
X033880Y013400D01*
X034480Y013400D02*
X034880Y013400D01*
X035480Y013400D02*
X036180Y013400D01*
X035480Y017500D02*
X026880Y017500D01*
X026830Y017550D02*
X026830Y018250D01*
X027530Y018250D01*
X027530Y017550D01*
X026830Y017550D01*
X026880Y017500D02*
X026854Y017502D01*
X026828Y017507D01*
X026803Y017515D01*
X026780Y017527D01*
X026758Y017541D01*
X026739Y017559D01*
X026721Y017578D01*
X026707Y017600D01*
X026695Y017623D01*
X026687Y017648D01*
X026682Y017674D01*
X026680Y017700D01*
X026680Y018100D01*
X026682Y018126D01*
X026687Y018152D01*
X026695Y018177D01*
X026707Y018200D01*
X026721Y018222D01*
X026739Y018241D01*
X026758Y018259D01*
X026780Y018273D01*
X026803Y018285D01*
X026828Y018293D01*
X026854Y018298D01*
X026880Y018300D01*
X035480Y018300D01*
X035506Y018298D01*
X035532Y018293D01*
X035557Y018285D01*
X035580Y018273D01*
X035602Y018259D01*
X035621Y018241D01*
X035639Y018222D01*
X035653Y018200D01*
X035665Y018177D01*
X035673Y018152D01*
X035678Y018126D01*
X035680Y018100D01*
X035680Y017700D01*
X035678Y017674D01*
X035673Y017648D01*
X035665Y017623D01*
X035653Y017600D01*
X035639Y017578D01*
X035621Y017559D01*
X035602Y017541D01*
X035580Y017527D01*
X035557Y017515D01*
X035532Y017507D01*
X035506Y017502D01*
X035480Y017500D01*
X034680Y019750D02*
X034680Y022050D01*
X027680Y022050D01*
X027680Y021300D01*
X027780Y021050D02*
X027778Y021033D01*
X027774Y021016D01*
X027767Y021000D01*
X027757Y020986D01*
X027744Y020973D01*
X027730Y020963D01*
X027714Y020956D01*
X027697Y020952D01*
X027680Y020950D01*
X026680Y020950D01*
X026663Y020952D01*
X026646Y020956D01*
X026630Y020963D01*
X026616Y020973D01*
X026603Y020986D01*
X026593Y021000D01*
X026586Y021016D01*
X026582Y021033D01*
X026580Y021050D01*
X026580Y022750D01*
X026582Y022767D01*
X026586Y022784D01*
X026593Y022800D01*
X026603Y022814D01*
X026616Y022827D01*
X026630Y022837D01*
X026646Y022844D01*
X026663Y022848D01*
X026680Y022850D01*
X027680Y022850D01*
X027697Y022848D01*
X027714Y022844D01*
X027730Y022837D01*
X027744Y022827D01*
X027757Y022814D01*
X027767Y022800D01*
X027774Y022784D01*
X027778Y022767D01*
X027780Y022750D01*
X027780Y021050D01*
X027680Y021300D02*
X027719Y021298D01*
X027758Y021292D01*
X027796Y021283D01*
X027833Y021270D01*
X027869Y021253D01*
X027902Y021233D01*
X027934Y021209D01*
X027963Y021183D01*
X027989Y021154D01*
X028013Y021122D01*
X028033Y021089D01*
X028050Y021053D01*
X028063Y021016D01*
X028072Y020978D01*
X028078Y020939D01*
X028080Y020900D01*
X028078Y020861D01*
X028072Y020822D01*
X028063Y020784D01*
X028050Y020747D01*
X028033Y020711D01*
X028013Y020678D01*
X027989Y020646D01*
X027963Y020617D01*
X027934Y020591D01*
X027902Y020567D01*
X027869Y020547D01*
X027833Y020530D01*
X027796Y020517D01*
X027758Y020508D01*
X027719Y020502D01*
X027680Y020500D01*
X027680Y019750D01*
X034680Y019750D01*
X034680Y024750D02*
X034680Y027050D01*
X027680Y027050D01*
X027680Y026300D01*
X027780Y026050D02*
X027778Y026033D01*
X027774Y026016D01*
X027767Y026000D01*
X027757Y025986D01*
X027744Y025973D01*
X027730Y025963D01*
X027714Y025956D01*
X027697Y025952D01*
X027680Y025950D01*
X026680Y025950D01*
X026663Y025952D01*
X026646Y025956D01*
X026630Y025963D01*
X026616Y025973D01*
X026603Y025986D01*
X026593Y026000D01*
X026586Y026016D01*
X026582Y026033D01*
X026580Y026050D01*
X026580Y027750D01*
X026582Y027767D01*
X026586Y027784D01*
X026593Y027800D01*
X026603Y027814D01*
X026616Y027827D01*
X026630Y027837D01*
X026646Y027844D01*
X026663Y027848D01*
X026680Y027850D01*
X027680Y027850D01*
X027697Y027848D01*
X027714Y027844D01*
X027730Y027837D01*
X027744Y027827D01*
X027757Y027814D01*
X027767Y027800D01*
X027774Y027784D01*
X027778Y027767D01*
X027780Y027750D01*
X027780Y026050D01*
X027680Y026300D02*
X027719Y026298D01*
X027758Y026292D01*
X027796Y026283D01*
X027833Y026270D01*
X027869Y026253D01*
X027902Y026233D01*
X027934Y026209D01*
X027963Y026183D01*
X027989Y026154D01*
X028013Y026122D01*
X028033Y026089D01*
X028050Y026053D01*
X028063Y026016D01*
X028072Y025978D01*
X028078Y025939D01*
X028080Y025900D01*
X028078Y025861D01*
X028072Y025822D01*
X028063Y025784D01*
X028050Y025747D01*
X028033Y025711D01*
X028013Y025678D01*
X027989Y025646D01*
X027963Y025617D01*
X027934Y025591D01*
X027902Y025567D01*
X027869Y025547D01*
X027833Y025530D01*
X027796Y025517D01*
X027758Y025508D01*
X027719Y025502D01*
X027680Y025500D01*
X027680Y024750D01*
X034680Y024750D01*
X027180Y026750D02*
X027180Y026800D01*
X027180Y027000D02*
X027180Y027050D01*
X021680Y026400D02*
X021682Y026463D01*
X021688Y026525D01*
X021698Y026587D01*
X021711Y026649D01*
X021729Y026709D01*
X021750Y026768D01*
X021775Y026826D01*
X021804Y026882D01*
X021836Y026936D01*
X021871Y026988D01*
X021909Y027037D01*
X021951Y027085D01*
X021995Y027129D01*
X022043Y027171D01*
X022092Y027209D01*
X022144Y027244D01*
X022198Y027276D01*
X022254Y027305D01*
X022312Y027330D01*
X022371Y027351D01*
X022431Y027369D01*
X022493Y027382D01*
X022555Y027392D01*
X022617Y027398D01*
X022680Y027400D01*
X022743Y027398D01*
X022805Y027392D01*
X022867Y027382D01*
X022929Y027369D01*
X022989Y027351D01*
X023048Y027330D01*
X023106Y027305D01*
X023162Y027276D01*
X023216Y027244D01*
X023268Y027209D01*
X023317Y027171D01*
X023365Y027129D01*
X023409Y027085D01*
X023451Y027037D01*
X023489Y026988D01*
X023524Y026936D01*
X023556Y026882D01*
X023585Y026826D01*
X023610Y026768D01*
X023631Y026709D01*
X023649Y026649D01*
X023662Y026587D01*
X023672Y026525D01*
X023678Y026463D01*
X023680Y026400D01*
X023678Y026337D01*
X023672Y026275D01*
X023662Y026213D01*
X023649Y026151D01*
X023631Y026091D01*
X023610Y026032D01*
X023585Y025974D01*
X023556Y025918D01*
X023524Y025864D01*
X023489Y025812D01*
X023451Y025763D01*
X023409Y025715D01*
X023365Y025671D01*
X023317Y025629D01*
X023268Y025591D01*
X023216Y025556D01*
X023162Y025524D01*
X023106Y025495D01*
X023048Y025470D01*
X022989Y025449D01*
X022929Y025431D01*
X022867Y025418D01*
X022805Y025408D01*
X022743Y025402D01*
X022680Y025400D01*
X022617Y025402D01*
X022555Y025408D01*
X022493Y025418D01*
X022431Y025431D01*
X022371Y025449D01*
X022312Y025470D01*
X022254Y025495D01*
X022198Y025524D01*
X022144Y025556D01*
X022092Y025591D01*
X022043Y025629D01*
X021995Y025671D01*
X021951Y025715D01*
X021909Y025763D01*
X021871Y025812D01*
X021836Y025864D01*
X021804Y025918D01*
X021775Y025974D01*
X021750Y026032D01*
X021729Y026091D01*
X021711Y026151D01*
X021698Y026213D01*
X021688Y026275D01*
X021682Y026337D01*
X021680Y026400D01*
X018680Y026400D02*
X018682Y026463D01*
X018688Y026525D01*
X018698Y026587D01*
X018711Y026649D01*
X018729Y026709D01*
X018750Y026768D01*
X018775Y026826D01*
X018804Y026882D01*
X018836Y026936D01*
X018871Y026988D01*
X018909Y027037D01*
X018951Y027085D01*
X018995Y027129D01*
X019043Y027171D01*
X019092Y027209D01*
X019144Y027244D01*
X019198Y027276D01*
X019254Y027305D01*
X019312Y027330D01*
X019371Y027351D01*
X019431Y027369D01*
X019493Y027382D01*
X019555Y027392D01*
X019617Y027398D01*
X019680Y027400D01*
X019743Y027398D01*
X019805Y027392D01*
X019867Y027382D01*
X019929Y027369D01*
X019989Y027351D01*
X020048Y027330D01*
X020106Y027305D01*
X020162Y027276D01*
X020216Y027244D01*
X020268Y027209D01*
X020317Y027171D01*
X020365Y027129D01*
X020409Y027085D01*
X020451Y027037D01*
X020489Y026988D01*
X020524Y026936D01*
X020556Y026882D01*
X020585Y026826D01*
X020610Y026768D01*
X020631Y026709D01*
X020649Y026649D01*
X020662Y026587D01*
X020672Y026525D01*
X020678Y026463D01*
X020680Y026400D01*
X020678Y026337D01*
X020672Y026275D01*
X020662Y026213D01*
X020649Y026151D01*
X020631Y026091D01*
X020610Y026032D01*
X020585Y025974D01*
X020556Y025918D01*
X020524Y025864D01*
X020489Y025812D01*
X020451Y025763D01*
X020409Y025715D01*
X020365Y025671D01*
X020317Y025629D01*
X020268Y025591D01*
X020216Y025556D01*
X020162Y025524D01*
X020106Y025495D01*
X020048Y025470D01*
X019989Y025449D01*
X019929Y025431D01*
X019867Y025418D01*
X019805Y025408D01*
X019743Y025402D01*
X019680Y025400D01*
X019617Y025402D01*
X019555Y025408D01*
X019493Y025418D01*
X019431Y025431D01*
X019371Y025449D01*
X019312Y025470D01*
X019254Y025495D01*
X019198Y025524D01*
X019144Y025556D01*
X019092Y025591D01*
X019043Y025629D01*
X018995Y025671D01*
X018951Y025715D01*
X018909Y025763D01*
X018871Y025812D01*
X018836Y025864D01*
X018804Y025918D01*
X018775Y025974D01*
X018750Y026032D01*
X018729Y026091D01*
X018711Y026151D01*
X018698Y026213D01*
X018688Y026275D01*
X018682Y026337D01*
X018680Y026400D01*
X017080Y026300D02*
X017080Y026150D01*
X017030Y026100D01*
X017030Y024700D01*
X017080Y024650D01*
X017080Y024500D01*
X017078Y024483D01*
X017074Y024466D01*
X017067Y024450D01*
X017057Y024436D01*
X017044Y024423D01*
X017030Y024413D01*
X017014Y024406D01*
X016997Y024402D01*
X016980Y024400D01*
X016380Y024400D01*
X016363Y024402D01*
X016346Y024406D01*
X016330Y024413D01*
X016316Y024423D01*
X016303Y024436D01*
X016293Y024450D01*
X016286Y024466D01*
X016282Y024483D01*
X016280Y024500D01*
X016280Y024650D01*
X016330Y024700D01*
X016330Y026100D01*
X016280Y026150D01*
X016280Y026300D01*
X016282Y026317D01*
X016286Y026334D01*
X016293Y026350D01*
X016303Y026364D01*
X016316Y026377D01*
X016330Y026387D01*
X016346Y026394D01*
X016363Y026398D01*
X016380Y026400D01*
X016980Y026400D01*
X016997Y026398D01*
X017014Y026394D01*
X017030Y026387D01*
X017044Y026377D01*
X017057Y026364D01*
X017067Y026350D01*
X017074Y026334D01*
X017078Y026317D01*
X017080Y026300D01*
X013130Y025400D02*
X013130Y024400D01*
X013128Y024383D01*
X013124Y024366D01*
X013117Y024350D01*
X013107Y024336D01*
X013094Y024323D01*
X013080Y024313D01*
X013064Y024306D01*
X013047Y024302D01*
X013030Y024300D01*
X011330Y024300D01*
X011313Y024302D01*
X011296Y024306D01*
X011280Y024313D01*
X011266Y024323D01*
X011253Y024336D01*
X011243Y024350D01*
X011236Y024366D01*
X011232Y024383D01*
X011230Y024400D01*
X011230Y025400D01*
X011232Y025417D01*
X011236Y025434D01*
X011243Y025450D01*
X011253Y025464D01*
X011266Y025477D01*
X011280Y025487D01*
X011296Y025494D01*
X011313Y025498D01*
X011330Y025500D01*
X013030Y025500D01*
X013047Y025498D01*
X013064Y025494D01*
X013080Y025487D01*
X013094Y025477D01*
X013107Y025464D01*
X013117Y025450D01*
X013124Y025434D01*
X013128Y025417D01*
X013130Y025400D01*
X012330Y024900D02*
X012280Y024900D01*
X012080Y024900D02*
X012030Y024900D01*
X016080Y022750D02*
X016080Y021050D01*
X016082Y021033D01*
X016086Y021016D01*
X016093Y021000D01*
X016103Y020986D01*
X016116Y020973D01*
X016130Y020963D01*
X016146Y020956D01*
X016163Y020952D01*
X016180Y020950D01*
X017180Y020950D01*
X017197Y020952D01*
X017214Y020956D01*
X017230Y020963D01*
X017244Y020973D01*
X017257Y020986D01*
X017267Y021000D01*
X017274Y021016D01*
X017278Y021033D01*
X017280Y021050D01*
X017280Y022750D01*
X017278Y022767D01*
X017274Y022784D01*
X017267Y022800D01*
X017257Y022814D01*
X017244Y022827D01*
X017230Y022837D01*
X017214Y022844D01*
X017197Y022848D01*
X017180Y022850D01*
X016180Y022850D01*
X016163Y022848D01*
X016146Y022844D01*
X016130Y022837D01*
X016116Y022827D01*
X016103Y022814D01*
X016093Y022800D01*
X016086Y022784D01*
X016082Y022767D01*
X016080Y022750D01*
X016680Y022050D02*
X016680Y022000D01*
X016680Y021800D02*
X016680Y021750D01*
X018680Y022100D02*
X018680Y022700D01*
X018682Y022717D01*
X018686Y022734D01*
X018693Y022750D01*
X018703Y022764D01*
X018716Y022777D01*
X018730Y022787D01*
X018746Y022794D01*
X018763Y022798D01*
X018780Y022800D01*
X018930Y022800D01*
X018980Y022750D01*
X020380Y022750D01*
X020430Y022800D01*
X020580Y022800D01*
X020597Y022798D01*
X020614Y022794D01*
X020630Y022787D01*
X020644Y022777D01*
X020657Y022764D01*
X020667Y022750D01*
X020674Y022734D01*
X020678Y022717D01*
X020680Y022700D01*
X020680Y022100D01*
X020678Y022083D01*
X020674Y022066D01*
X020667Y022050D01*
X020657Y022036D01*
X020644Y022023D01*
X020630Y022013D01*
X020614Y022006D01*
X020597Y022002D01*
X020580Y022000D01*
X020430Y022000D01*
X020380Y022050D01*
X018980Y022050D01*
X018930Y022000D01*
X018780Y022000D01*
X018763Y022002D01*
X018746Y022006D01*
X018730Y022013D01*
X018716Y022023D01*
X018703Y022036D01*
X018693Y022050D01*
X018686Y022066D01*
X018682Y022083D01*
X018680Y022100D01*
X020180Y020700D02*
X020180Y020100D01*
X020182Y020083D01*
X020186Y020066D01*
X020193Y020050D01*
X020203Y020036D01*
X020216Y020023D01*
X020230Y020013D01*
X020246Y020006D01*
X020263Y020002D01*
X020280Y020000D01*
X020430Y020000D01*
X020480Y020050D01*
X021880Y020050D01*
X021930Y020000D01*
X022080Y020000D01*
X022097Y020002D01*
X022114Y020006D01*
X022130Y020013D01*
X022144Y020023D01*
X022157Y020036D01*
X022167Y020050D01*
X022174Y020066D01*
X022178Y020083D01*
X022180Y020100D01*
X022180Y020700D01*
X022178Y020717D01*
X022174Y020734D01*
X022167Y020750D01*
X022157Y020764D01*
X022144Y020777D01*
X022130Y020787D01*
X022114Y020794D01*
X022097Y020798D01*
X022080Y020800D01*
X021930Y020800D01*
X021880Y020750D01*
X020480Y020750D01*
X020430Y020800D01*
X020280Y020800D01*
X020263Y020798D01*
X020246Y020794D01*
X020230Y020787D01*
X020216Y020777D01*
X020203Y020764D01*
X020193Y020750D01*
X020186Y020734D01*
X020182Y020717D01*
X020180Y020700D01*
X020280Y019300D02*
X020430Y019300D01*
X020480Y019250D01*
X021880Y019250D01*
X021930Y019300D01*
X022080Y019300D01*
X022097Y019298D01*
X022114Y019294D01*
X022130Y019287D01*
X022144Y019277D01*
X022157Y019264D01*
X022167Y019250D01*
X022174Y019234D01*
X022178Y019217D01*
X022180Y019200D01*
X022180Y018600D01*
X022178Y018583D01*
X022174Y018566D01*
X022167Y018550D01*
X022157Y018536D01*
X022144Y018523D01*
X022130Y018513D01*
X022114Y018506D01*
X022097Y018502D01*
X022080Y018500D01*
X021930Y018500D01*
X021880Y018550D01*
X020480Y018550D01*
X020430Y018500D01*
X020280Y018500D01*
X020263Y018502D01*
X020246Y018506D01*
X020230Y018513D01*
X020216Y018523D01*
X020203Y018536D01*
X020193Y018550D01*
X020186Y018566D01*
X020182Y018583D01*
X020180Y018600D01*
X020180Y019200D01*
X020182Y019217D01*
X020186Y019234D01*
X020193Y019250D01*
X020203Y019264D01*
X020216Y019277D01*
X020230Y019287D01*
X020246Y019294D01*
X020263Y019298D01*
X020280Y019300D01*
X020280Y017800D02*
X020430Y017800D01*
X020480Y017750D01*
X021880Y017750D01*
X021930Y017800D01*
X022080Y017800D01*
X022097Y017798D01*
X022114Y017794D01*
X022130Y017787D01*
X022144Y017777D01*
X022157Y017764D01*
X022167Y017750D01*
X022174Y017734D01*
X022178Y017717D01*
X022180Y017700D01*
X022180Y017100D01*
X022178Y017083D01*
X022174Y017066D01*
X022167Y017050D01*
X022157Y017036D01*
X022144Y017023D01*
X022130Y017013D01*
X022114Y017006D01*
X022097Y017002D01*
X022080Y017000D01*
X021930Y017000D01*
X021880Y017050D01*
X020480Y017050D01*
X020430Y017000D01*
X020280Y017000D01*
X020263Y017002D01*
X020246Y017006D01*
X020230Y017013D01*
X020216Y017023D01*
X020203Y017036D01*
X020193Y017050D01*
X020186Y017066D01*
X020182Y017083D01*
X020180Y017100D01*
X020180Y017700D01*
X020182Y017717D01*
X020186Y017734D01*
X020193Y017750D01*
X020203Y017764D01*
X020216Y017777D01*
X020230Y017787D01*
X020246Y017794D01*
X020263Y017798D01*
X020280Y017800D01*
X022780Y022000D02*
X022930Y022000D01*
X022980Y022050D01*
X024380Y022050D01*
X024430Y022000D01*
X024580Y022000D01*
X024597Y022002D01*
X024614Y022006D01*
X024630Y022013D01*
X024644Y022023D01*
X024657Y022036D01*
X024667Y022050D01*
X024674Y022066D01*
X024678Y022083D01*
X024680Y022100D01*
X024680Y022700D01*
X024678Y022717D01*
X024674Y022734D01*
X024667Y022750D01*
X024657Y022764D01*
X024644Y022777D01*
X024630Y022787D01*
X024614Y022794D01*
X024597Y022798D01*
X024580Y022800D01*
X024430Y022800D01*
X024380Y022750D01*
X022980Y022750D01*
X022930Y022800D01*
X022780Y022800D01*
X022763Y022798D01*
X022746Y022794D01*
X022730Y022787D01*
X022716Y022777D01*
X022703Y022764D01*
X022693Y022750D01*
X022686Y022734D01*
X022682Y022717D01*
X022680Y022700D01*
X022680Y022100D01*
X022682Y022083D01*
X022686Y022066D01*
X022693Y022050D01*
X022703Y022036D01*
X022716Y022023D01*
X022730Y022013D01*
X022746Y022006D01*
X022763Y022002D01*
X022780Y022000D01*
X027180Y022000D02*
X027180Y022050D01*
X027180Y021800D02*
X027180Y021750D01*
X026030Y012400D02*
X025330Y012400D01*
X025180Y012250D01*
X025030Y012400D01*
X024330Y012400D01*
X024180Y012250D01*
X024030Y012400D01*
X023330Y012400D01*
X023180Y012250D01*
X023030Y012400D01*
X022330Y012400D01*
X022180Y012250D01*
X022030Y012400D01*
X021330Y012400D01*
X021180Y012250D01*
X021030Y012400D01*
X020330Y012400D01*
X020180Y012250D01*
X020030Y012400D01*
X019330Y012400D01*
X019180Y012250D01*
X019030Y012400D01*
X018330Y012400D01*
X018180Y012250D01*
X018180Y010550D01*
X018330Y010400D01*
X019030Y010400D01*
X019180Y010550D01*
X019330Y010400D01*
X020030Y010400D01*
X020180Y010550D01*
X020330Y010400D01*
X021030Y010400D01*
X021180Y010550D01*
X021330Y010400D01*
X022030Y010400D01*
X022180Y010550D01*
X022330Y010400D01*
X023030Y010400D01*
X023180Y010550D01*
X023330Y010400D01*
X024030Y010400D01*
X024180Y010550D01*
X024330Y010400D01*
X025030Y010400D01*
X025180Y010550D01*
X025330Y010400D01*
X026030Y010400D01*
X026180Y010550D01*
X026180Y012250D01*
X026030Y012400D01*
X027480Y010800D02*
X027482Y010820D01*
X027488Y010838D01*
X027497Y010856D01*
X027509Y010871D01*
X027524Y010883D01*
X027542Y010892D01*
X027560Y010898D01*
X027580Y010900D01*
X027600Y010898D01*
X027618Y010892D01*
X027636Y010883D01*
X027651Y010871D01*
X027663Y010856D01*
X027672Y010838D01*
X027678Y010820D01*
X027680Y010800D01*
X027678Y010780D01*
X027672Y010762D01*
X027663Y010744D01*
X027651Y010729D01*
X027636Y010717D01*
X027618Y010708D01*
X027600Y010702D01*
X027580Y010700D01*
X027560Y010702D01*
X027542Y010708D01*
X027524Y010717D01*
X027509Y010729D01*
X027497Y010744D01*
X027488Y010762D01*
X027482Y010780D01*
X027480Y010800D01*
X026680Y009350D02*
X025680Y009350D01*
X025663Y009348D01*
X025646Y009344D01*
X025630Y009337D01*
X025616Y009327D01*
X025603Y009314D01*
X025593Y009300D01*
X025586Y009284D01*
X025582Y009267D01*
X025580Y009250D01*
X025580Y007550D01*
X025582Y007533D01*
X025586Y007516D01*
X025593Y007500D01*
X025603Y007486D01*
X025616Y007473D01*
X025630Y007463D01*
X025646Y007456D01*
X025663Y007452D01*
X025680Y007450D01*
X026680Y007450D01*
X026680Y007800D02*
X026719Y007798D01*
X026758Y007792D01*
X026796Y007783D01*
X026833Y007770D01*
X026869Y007753D01*
X026902Y007733D01*
X026934Y007709D01*
X026963Y007683D01*
X026989Y007654D01*
X027013Y007622D01*
X027033Y007589D01*
X027050Y007553D01*
X027063Y007516D01*
X027072Y007478D01*
X027078Y007439D01*
X027080Y007400D01*
X027078Y007361D01*
X027072Y007322D01*
X027063Y007284D01*
X027050Y007247D01*
X027033Y007211D01*
X027013Y007178D01*
X026989Y007146D01*
X026963Y007117D01*
X026934Y007091D01*
X026902Y007067D01*
X026869Y007047D01*
X026833Y007030D01*
X026796Y007017D01*
X026758Y007008D01*
X026719Y007002D01*
X026680Y007000D01*
X026680Y006250D01*
X034680Y006250D01*
X034680Y008550D01*
X026680Y008550D01*
X026680Y007800D01*
X026780Y007550D02*
X026778Y007533D01*
X026774Y007516D01*
X026767Y007500D01*
X026757Y007486D01*
X026744Y007473D01*
X026730Y007463D01*
X026714Y007456D01*
X026697Y007452D01*
X026680Y007450D01*
X026780Y007550D02*
X026780Y009250D01*
X026778Y009267D01*
X026774Y009284D01*
X026767Y009300D01*
X026757Y009314D01*
X026744Y009327D01*
X026730Y009337D01*
X026714Y009344D01*
X026697Y009348D01*
X026680Y009350D01*
X026180Y008550D02*
X026180Y008500D01*
X026180Y008300D02*
X026180Y008250D01*
X025180Y008550D02*
X025180Y006250D01*
X017180Y006250D01*
X017180Y007000D01*
X017219Y007002D01*
X017258Y007008D01*
X017296Y007017D01*
X017333Y007030D01*
X017369Y007047D01*
X017402Y007067D01*
X017434Y007091D01*
X017463Y007117D01*
X017489Y007146D01*
X017513Y007178D01*
X017533Y007211D01*
X017550Y007247D01*
X017563Y007284D01*
X017572Y007322D01*
X017578Y007361D01*
X017580Y007400D01*
X017578Y007439D01*
X017572Y007478D01*
X017563Y007516D01*
X017550Y007553D01*
X017533Y007589D01*
X017513Y007622D01*
X017489Y007654D01*
X017463Y007683D01*
X017434Y007709D01*
X017402Y007733D01*
X017369Y007753D01*
X017333Y007770D01*
X017296Y007783D01*
X017258Y007792D01*
X017219Y007798D01*
X017180Y007800D01*
X017180Y008550D01*
X025180Y008550D01*
X017280Y009250D02*
X017280Y007550D01*
X017278Y007533D01*
X017274Y007516D01*
X017267Y007500D01*
X017257Y007486D01*
X017244Y007473D01*
X017230Y007463D01*
X017214Y007456D01*
X017197Y007452D01*
X017180Y007450D01*
X016180Y007450D01*
X016163Y007452D01*
X016146Y007456D01*
X016130Y007463D01*
X016116Y007473D01*
X016103Y007486D01*
X016093Y007500D01*
X016086Y007516D01*
X016082Y007533D01*
X016080Y007550D01*
X016080Y009250D01*
X016082Y009267D01*
X016086Y009284D01*
X016093Y009300D01*
X016103Y009314D01*
X016116Y009327D01*
X016130Y009337D01*
X016146Y009344D01*
X016163Y009348D01*
X016180Y009350D01*
X017180Y009350D01*
X017197Y009348D01*
X017214Y009344D01*
X017230Y009337D01*
X017244Y009327D01*
X017257Y009314D01*
X017267Y009300D01*
X017274Y009284D01*
X017278Y009267D01*
X017280Y009250D01*
X016680Y008550D02*
X016680Y008500D01*
X016680Y008300D02*
X016680Y008250D01*
X010000Y011437D02*
X009893Y011330D01*
X009359Y011330D01*
X009359Y011757D02*
X009893Y011757D01*
X010000Y011650D01*
X010000Y011437D01*
X009893Y011975D02*
X010000Y012081D01*
X010000Y012295D01*
X009893Y012402D01*
X009786Y012402D01*
X009680Y012295D01*
X009680Y012081D01*
X009573Y011975D01*
X009466Y011975D01*
X009359Y012081D01*
X009359Y012295D01*
X009466Y012402D01*
X009466Y012619D02*
X009359Y012726D01*
X009359Y012939D01*
X009466Y013046D01*
X009573Y013046D01*
X009680Y012939D01*
X009786Y013046D01*
X009893Y013046D01*
X010000Y012939D01*
X010000Y012726D01*
X009893Y012619D01*
X009680Y012833D02*
X009680Y012939D01*
X009253Y012188D02*
X010107Y012188D01*
X003580Y010300D02*
X003580Y010150D01*
X003530Y010100D01*
X003530Y008700D01*
X003580Y008650D01*
X003580Y008500D01*
X003578Y008483D01*
X003574Y008466D01*
X003567Y008450D01*
X003557Y008436D01*
X003544Y008423D01*
X003530Y008413D01*
X003514Y008406D01*
X003497Y008402D01*
X003480Y008400D01*
X002880Y008400D01*
X002863Y008402D01*
X002846Y008406D01*
X002830Y008413D01*
X002816Y008423D01*
X002803Y008436D01*
X002793Y008450D01*
X002786Y008466D01*
X002782Y008483D01*
X002780Y008500D01*
X002780Y008650D01*
X002830Y008700D01*
X002830Y010100D01*
X002780Y010150D01*
X002780Y010300D01*
X002782Y010317D01*
X002786Y010334D01*
X002793Y010350D01*
X002803Y010364D01*
X002816Y010377D01*
X002830Y010387D01*
X002846Y010394D01*
X002863Y010398D01*
X002880Y010400D01*
X003480Y010400D01*
X003497Y010398D01*
X003514Y010394D01*
X003530Y010387D01*
X003544Y010377D01*
X003557Y010364D01*
X003567Y010350D01*
X003574Y010334D01*
X003578Y010317D01*
X003580Y010300D01*
X002580Y010300D02*
X002580Y010150D01*
X002530Y010100D01*
X002530Y008700D01*
X002580Y008650D01*
X002580Y008500D01*
X002578Y008483D01*
X002574Y008466D01*
X002567Y008450D01*
X002557Y008436D01*
X002544Y008423D01*
X002530Y008413D01*
X002514Y008406D01*
X002497Y008402D01*
X002480Y008400D01*
X001880Y008400D01*
X001863Y008402D01*
X001846Y008406D01*
X001830Y008413D01*
X001816Y008423D01*
X001803Y008436D01*
X001793Y008450D01*
X001786Y008466D01*
X001782Y008483D01*
X001780Y008500D01*
X001780Y008650D01*
X001830Y008700D01*
X001830Y010100D01*
X001780Y010150D01*
X001780Y010300D01*
X001782Y010317D01*
X001786Y010334D01*
X001793Y010350D01*
X001803Y010364D01*
X001816Y010377D01*
X001830Y010387D01*
X001846Y010394D01*
X001863Y010398D01*
X001880Y010400D01*
X002480Y010400D01*
X002497Y010398D01*
X002514Y010394D01*
X002530Y010387D01*
X002544Y010377D01*
X002557Y010364D01*
X002567Y010350D01*
X002574Y010334D01*
X002578Y010317D01*
X002580Y010300D01*
X002280Y011900D02*
X003080Y011900D01*
X003180Y012000D01*
X003180Y012800D01*
X003080Y012900D01*
X003180Y013000D01*
X003180Y013800D01*
X003080Y013900D01*
X002280Y013900D01*
X002180Y013800D01*
X002180Y013000D01*
X002280Y012900D01*
X002180Y012800D01*
X002180Y012000D01*
X002280Y011900D01*
X002280Y014900D02*
X003080Y014900D01*
X003180Y015000D01*
X003180Y015800D01*
X003080Y015900D01*
X003180Y016000D01*
X003180Y016800D01*
X003080Y016900D01*
X002280Y016900D01*
X002180Y016800D01*
X002180Y016000D01*
X002280Y015900D01*
X002180Y015800D01*
X002180Y015000D01*
X002280Y014900D01*
X002280Y017900D02*
X003080Y017900D01*
X003180Y018000D01*
X003180Y018800D01*
X003080Y018900D01*
X003180Y019000D01*
X003180Y019800D01*
X003080Y019900D01*
X003180Y020000D01*
X003180Y020800D01*
X003080Y020900D01*
X002280Y020900D01*
X002180Y020800D01*
X002180Y020000D01*
X002280Y019900D01*
X002180Y019800D01*
X002180Y019000D01*
X002280Y018900D01*
X002180Y018800D01*
X002180Y018000D01*
X002280Y017900D01*
X002280Y021900D02*
X003080Y021900D01*
X003180Y022000D01*
X003180Y022800D01*
X003080Y022900D01*
X003180Y023000D01*
X003180Y023800D01*
X003080Y023900D01*
X002280Y023900D01*
X002180Y023800D01*
X002180Y023000D01*
X002280Y022900D01*
X002180Y022800D01*
X002180Y022000D01*
X002280Y021900D01*
X002280Y023900D02*
X003080Y023900D01*
X003180Y024000D01*
X003180Y024800D01*
X003080Y024900D01*
X003180Y025000D01*
X003180Y025800D01*
X003080Y025900D01*
X002280Y025900D01*
X002180Y025800D01*
X002180Y025000D01*
X002280Y024900D01*
X002180Y024800D01*
X002180Y024000D01*
X002280Y023900D01*
X002280Y025900D02*
X003080Y025900D01*
X003180Y026000D01*
X003180Y026800D01*
X003080Y026900D01*
X003180Y027000D01*
X003180Y027800D01*
X003080Y027900D01*
X002280Y027900D01*
X002180Y027800D01*
X002180Y027000D01*
X002280Y026900D01*
X002180Y026800D01*
X002180Y026000D01*
X002280Y025900D01*
D12*
X012080Y025200D02*
X012080Y024900D01*
X012080Y024600D01*
X012280Y024600D02*
X012280Y024900D01*
X012280Y025200D01*
X016380Y022000D02*
X016680Y022000D01*
X016980Y022000D01*
X016980Y021800D02*
X016680Y021800D01*
X016380Y021800D01*
X020680Y025650D02*
X020637Y025596D01*
X020591Y025544D01*
X020542Y025495D01*
X020490Y025448D01*
X020436Y025405D01*
X020380Y025364D01*
X020321Y025327D01*
X020261Y025293D01*
X020198Y025263D01*
X020135Y025236D01*
X020069Y025212D01*
X020003Y025192D01*
X019935Y025176D01*
X019867Y025164D01*
X019798Y025156D01*
X019729Y025151D01*
X019659Y025150D01*
X019590Y025153D01*
X019521Y025160D01*
X019453Y025171D01*
X019385Y025185D01*
X019318Y025204D01*
X019252Y025226D01*
X019187Y025251D01*
X019124Y025280D01*
X019063Y025313D01*
X019004Y025349D01*
X018947Y025388D01*
X018891Y025430D01*
X018839Y025475D01*
X018789Y025523D01*
X018742Y025574D01*
X018697Y025628D01*
X018656Y025683D01*
X018618Y025741D01*
X018583Y025801D01*
X018551Y025863D01*
X018523Y025926D01*
X018499Y025991D01*
X018478Y026057D01*
X018461Y026125D01*
X018447Y026193D01*
X018438Y026262D01*
X018432Y026331D01*
X018430Y026400D01*
X018432Y026469D01*
X018438Y026538D01*
X018447Y026607D01*
X018461Y026675D01*
X018478Y026743D01*
X018499Y026809D01*
X018523Y026874D01*
X018551Y026937D01*
X018583Y026999D01*
X018618Y027059D01*
X018656Y027117D01*
X018697Y027172D01*
X018742Y027226D01*
X018789Y027277D01*
X018839Y027325D01*
X018891Y027370D01*
X018947Y027412D01*
X019004Y027451D01*
X019063Y027487D01*
X019124Y027520D01*
X019187Y027549D01*
X019252Y027574D01*
X019318Y027596D01*
X019385Y027615D01*
X019453Y027629D01*
X019521Y027640D01*
X019590Y027647D01*
X019659Y027650D01*
X019729Y027649D01*
X019798Y027644D01*
X019867Y027636D01*
X019935Y027624D01*
X020003Y027608D01*
X020069Y027588D01*
X020135Y027564D01*
X020198Y027537D01*
X020261Y027507D01*
X020321Y027473D01*
X020380Y027436D01*
X020436Y027395D01*
X020490Y027352D01*
X020542Y027305D01*
X020591Y027256D01*
X020637Y027204D01*
X020680Y027150D01*
X023680Y027150D02*
X023637Y027204D01*
X023591Y027256D01*
X023542Y027305D01*
X023490Y027352D01*
X023436Y027395D01*
X023380Y027436D01*
X023321Y027473D01*
X023261Y027507D01*
X023198Y027537D01*
X023135Y027564D01*
X023069Y027588D01*
X023003Y027608D01*
X022935Y027624D01*
X022867Y027636D01*
X022798Y027644D01*
X022729Y027649D01*
X022659Y027650D01*
X022590Y027647D01*
X022521Y027640D01*
X022453Y027629D01*
X022385Y027615D01*
X022318Y027596D01*
X022252Y027574D01*
X022187Y027549D01*
X022124Y027520D01*
X022063Y027487D01*
X022004Y027451D01*
X021947Y027412D01*
X021891Y027370D01*
X021839Y027325D01*
X021789Y027277D01*
X021742Y027226D01*
X021697Y027172D01*
X021656Y027117D01*
X021618Y027059D01*
X021583Y026999D01*
X021551Y026937D01*
X021523Y026874D01*
X021499Y026809D01*
X021478Y026743D01*
X021461Y026675D01*
X021447Y026607D01*
X021438Y026538D01*
X021432Y026469D01*
X021430Y026400D01*
X021432Y026331D01*
X021438Y026262D01*
X021447Y026193D01*
X021461Y026125D01*
X021478Y026057D01*
X021499Y025991D01*
X021523Y025926D01*
X021551Y025863D01*
X021583Y025801D01*
X021618Y025741D01*
X021656Y025683D01*
X021697Y025628D01*
X021742Y025574D01*
X021789Y025523D01*
X021839Y025475D01*
X021891Y025430D01*
X021947Y025388D01*
X022004Y025349D01*
X022063Y025313D01*
X022124Y025280D01*
X022187Y025251D01*
X022252Y025226D01*
X022318Y025204D01*
X022385Y025185D01*
X022453Y025171D01*
X022521Y025160D01*
X022590Y025153D01*
X022659Y025150D01*
X022729Y025151D01*
X022798Y025156D01*
X022867Y025164D01*
X022935Y025176D01*
X023003Y025192D01*
X023069Y025212D01*
X023135Y025236D01*
X023198Y025263D01*
X023261Y025293D01*
X023321Y025327D01*
X023380Y025364D01*
X023436Y025405D01*
X023490Y025448D01*
X023542Y025495D01*
X023591Y025544D01*
X023637Y025596D01*
X023680Y025650D01*
X026880Y026800D02*
X027180Y026800D01*
X027480Y026800D01*
X027480Y027000D02*
X027180Y027000D01*
X026880Y027000D01*
X026880Y022000D02*
X027180Y022000D01*
X027480Y022000D01*
X027480Y021800D02*
X027180Y021800D01*
X026880Y021800D01*
X027930Y012400D02*
X027930Y011650D01*
X027930Y011530D01*
X027930Y011400D01*
X028430Y011400D01*
X028430Y011530D01*
X028430Y011650D01*
X028430Y012400D01*
X027930Y012400D01*
X027930Y011650D02*
X028430Y011650D01*
X028430Y011530D02*
X027930Y011530D01*
X028930Y011530D02*
X028930Y011400D01*
X029430Y011400D01*
X029430Y011530D01*
X029430Y011650D01*
X029430Y012400D01*
X028930Y012400D01*
X028930Y011650D01*
X028930Y011530D01*
X029430Y011530D01*
X029430Y011650D02*
X028930Y011650D01*
X029930Y011650D02*
X029930Y012400D01*
X030430Y012400D01*
X030430Y011650D01*
X029930Y011650D01*
X029930Y011530D01*
X029930Y011400D01*
X030430Y011400D01*
X030430Y011530D01*
X030430Y011650D01*
X030430Y011530D02*
X029930Y011530D01*
X030930Y011530D02*
X030930Y011400D01*
X031430Y011400D01*
X031430Y011530D01*
X031430Y011650D01*
X031430Y012400D01*
X030930Y012400D01*
X030930Y011650D01*
X030930Y011530D01*
X031430Y011530D01*
X031430Y011650D02*
X030930Y011650D01*
X031930Y011650D02*
X031930Y012400D01*
X032430Y012400D01*
X032430Y011650D01*
X031930Y011650D01*
X031930Y011530D01*
X031930Y011400D01*
X032430Y011400D01*
X032430Y011530D01*
X032430Y011650D01*
X032430Y011530D02*
X031930Y011530D01*
X032930Y011530D02*
X032930Y011400D01*
X033430Y011400D01*
X033430Y011530D01*
X033430Y011650D01*
X033430Y012400D01*
X032930Y012400D01*
X032930Y011650D01*
X032930Y011530D01*
X033430Y011530D01*
X033430Y011650D02*
X032930Y011650D01*
X033930Y011650D02*
X033930Y011530D01*
X033930Y011400D01*
X034430Y011400D01*
X034430Y011530D01*
X034430Y011650D01*
X034430Y012400D01*
X033930Y012400D01*
X033930Y011650D01*
X034430Y011650D01*
X034430Y011530D02*
X033930Y011530D01*
X034930Y011530D02*
X034930Y011400D01*
X035430Y011400D01*
X035430Y011530D01*
X035430Y011650D01*
X035430Y012400D01*
X034930Y012400D01*
X034930Y011650D01*
X034930Y011530D01*
X035430Y011530D01*
X035430Y011650D02*
X034930Y011650D01*
X026480Y008500D02*
X026180Y008500D01*
X025880Y008500D01*
X025880Y008300D02*
X026180Y008300D01*
X026480Y008300D01*
X016980Y008300D02*
X016680Y008300D01*
X016380Y008300D01*
X016380Y008500D02*
X016680Y008500D01*
X016980Y008500D01*
D13*
X012380Y008400D02*
X006980Y008400D01*
X006980Y024400D02*
X009180Y024400D01*
X009182Y024356D01*
X009188Y024313D01*
X009197Y024271D01*
X009210Y024229D01*
X009227Y024189D01*
X009247Y024150D01*
X009270Y024113D01*
X009297Y024079D01*
X009326Y024046D01*
X009359Y024017D01*
X009393Y023990D01*
X009430Y023967D01*
X009469Y023947D01*
X009509Y023930D01*
X009551Y023917D01*
X009593Y023908D01*
X009636Y023902D01*
X009680Y023900D01*
X009724Y023902D01*
X009767Y023908D01*
X009809Y023917D01*
X009851Y023930D01*
X009891Y023947D01*
X009930Y023967D01*
X009967Y023990D01*
X010001Y024017D01*
X010034Y024046D01*
X010063Y024079D01*
X010090Y024113D01*
X010113Y024150D01*
X010133Y024189D01*
X010150Y024229D01*
X010163Y024271D01*
X010172Y024313D01*
X010178Y024356D01*
X010180Y024400D01*
X012380Y024400D01*
X020680Y025650D02*
X020680Y027150D01*
X023680Y027150D02*
X023680Y025650D01*
D14*
X027055Y025718D02*
X027055Y025567D01*
X027130Y025492D01*
X027130Y025332D02*
X027055Y025257D01*
X027055Y025107D01*
X027130Y025032D01*
X027430Y025032D01*
X027505Y025107D01*
X027505Y025257D01*
X027430Y025332D01*
X027505Y025492D02*
X027205Y025793D01*
X027130Y025793D01*
X027055Y025718D01*
X027505Y025793D02*
X027505Y025492D01*
X027505Y024875D02*
X027505Y024725D01*
X027505Y024800D02*
X027055Y024800D01*
X027055Y024725D02*
X027055Y024875D01*
X027130Y020793D02*
X027055Y020718D01*
X027055Y020567D01*
X027130Y020492D01*
X027205Y020492D01*
X027280Y020567D01*
X027280Y020793D01*
X027430Y020793D02*
X027130Y020793D01*
X027430Y020793D02*
X027505Y020718D01*
X027505Y020567D01*
X027430Y020492D01*
X027430Y020332D02*
X027505Y020257D01*
X027505Y020107D01*
X027430Y020032D01*
X027130Y020032D01*
X027055Y020107D01*
X027055Y020257D01*
X027130Y020332D01*
X027055Y019875D02*
X027055Y019725D01*
X027055Y019800D02*
X027505Y019800D01*
X027505Y019725D02*
X027505Y019875D01*
X027466Y018875D02*
X027466Y018425D01*
X027165Y018875D01*
X027165Y018425D01*
X027005Y018425D02*
X026855Y018575D01*
X026930Y018575D02*
X026705Y018575D01*
X026705Y018425D02*
X026705Y018875D01*
X026930Y018875D01*
X027005Y018800D01*
X027005Y018650D01*
X026930Y018575D01*
X027626Y018425D02*
X027926Y018425D01*
X027776Y018425D02*
X027776Y018875D01*
X027626Y018725D01*
X026418Y018065D02*
X026418Y017725D01*
X026305Y017725D02*
X026532Y017725D01*
X026305Y017952D02*
X026418Y018065D01*
X019426Y012525D02*
X019126Y012525D01*
X019276Y012525D02*
X019276Y012975D01*
X019126Y012825D01*
X018966Y012750D02*
X018891Y012675D01*
X018665Y012675D01*
X018665Y012525D02*
X018665Y012975D01*
X018891Y012975D01*
X018966Y012900D01*
X018966Y012750D01*
X018505Y012975D02*
X018355Y012975D01*
X018430Y012975D02*
X018430Y012600D01*
X018355Y012525D01*
X018280Y012525D01*
X018205Y012600D01*
X018655Y010225D02*
X018655Y009775D01*
X018505Y009775D02*
X018805Y009775D01*
X018505Y010075D02*
X018655Y010225D01*
X019505Y010150D02*
X019580Y010225D01*
X019730Y010225D01*
X019805Y010150D01*
X019805Y010075D01*
X019505Y009775D01*
X019805Y009775D01*
X020505Y009850D02*
X020580Y009775D01*
X020730Y009775D01*
X020805Y009850D01*
X020805Y009925D01*
X020730Y010000D01*
X020655Y010000D01*
X020730Y010000D02*
X020805Y010075D01*
X020805Y010150D01*
X020730Y010225D01*
X020580Y010225D01*
X020505Y010150D01*
X021505Y010000D02*
X021805Y010000D01*
X021730Y009775D02*
X021730Y010225D01*
X021505Y010000D01*
X022505Y010000D02*
X022655Y010075D01*
X022730Y010075D01*
X022805Y010000D01*
X022805Y009850D01*
X022730Y009775D01*
X022580Y009775D01*
X022505Y009850D01*
X022505Y010000D02*
X022505Y010225D01*
X022805Y010225D01*
X023505Y010000D02*
X023730Y010000D01*
X023805Y009925D01*
X023805Y009850D01*
X023730Y009775D01*
X023580Y009775D01*
X023505Y009850D01*
X023505Y010000D01*
X023655Y010150D01*
X023805Y010225D01*
X024505Y010225D02*
X024805Y010225D01*
X024805Y010150D01*
X024505Y009850D01*
X024505Y009775D01*
X025505Y009850D02*
X025505Y009925D01*
X025580Y010000D01*
X025730Y010000D01*
X025805Y009925D01*
X025805Y009850D01*
X025730Y009775D01*
X025580Y009775D01*
X025505Y009850D01*
X025580Y010000D02*
X025505Y010075D01*
X025505Y010150D01*
X025580Y010225D01*
X025730Y010225D01*
X025805Y010150D01*
X025805Y010075D01*
X025730Y010000D01*
X026575Y010520D02*
X026650Y010445D01*
X026725Y010445D01*
X026800Y010520D01*
X026800Y010670D01*
X026875Y010745D01*
X026950Y010745D01*
X027025Y010670D01*
X027025Y010520D01*
X026950Y010445D01*
X026575Y010520D02*
X026575Y010670D01*
X026650Y010745D01*
X026575Y010905D02*
X027025Y010905D01*
X026875Y011056D01*
X027025Y011206D01*
X026575Y011206D01*
X026650Y011366D02*
X026575Y011441D01*
X026575Y011591D01*
X026650Y011666D01*
X026725Y011666D01*
X027025Y011366D01*
X027025Y011666D01*
X026280Y007343D02*
X026280Y007042D01*
X026055Y007268D01*
X026505Y007268D01*
X026430Y006882D02*
X026505Y006807D01*
X026505Y006657D01*
X026430Y006582D01*
X026130Y006582D01*
X026055Y006657D01*
X026055Y006807D01*
X026130Y006882D01*
X026055Y006425D02*
X026055Y006275D01*
X026055Y006350D02*
X026505Y006350D01*
X026505Y006275D02*
X026505Y006425D01*
X017005Y006425D02*
X017005Y006275D01*
X017005Y006350D02*
X016555Y006350D01*
X016555Y006275D02*
X016555Y006425D01*
X016630Y006582D02*
X016930Y006582D01*
X017005Y006657D01*
X017005Y006807D01*
X016930Y006882D01*
X016930Y007042D02*
X016855Y007042D01*
X016780Y007117D01*
X016780Y007268D01*
X016855Y007343D01*
X016930Y007343D01*
X017005Y007268D01*
X017005Y007117D01*
X016930Y007042D01*
X016780Y007117D02*
X016705Y007042D01*
X016630Y007042D01*
X016555Y007117D01*
X016555Y007268D01*
X016630Y007343D01*
X016705Y007343D01*
X016780Y007268D01*
X016630Y006882D02*
X016555Y006807D01*
X016555Y006657D01*
X016630Y006582D01*
X002005Y012000D02*
X002005Y012075D01*
X001930Y012150D01*
X001555Y012150D01*
X001555Y012075D02*
X001555Y012225D01*
X001555Y012385D02*
X001555Y012611D01*
X001630Y012686D01*
X001780Y012686D01*
X001855Y012611D01*
X001855Y012385D01*
X002005Y012385D02*
X001555Y012385D01*
X002005Y012000D02*
X001930Y011925D01*
X001930Y012846D02*
X002005Y012846D01*
X001930Y012846D02*
X001630Y013146D01*
X001555Y013146D01*
X001555Y012846D01*
X001930Y014925D02*
X002005Y015000D01*
X002005Y015075D01*
X001930Y015150D01*
X001555Y015150D01*
X001555Y015075D02*
X001555Y015225D01*
X001555Y015385D02*
X001555Y015611D01*
X001630Y015686D01*
X001780Y015686D01*
X001855Y015611D01*
X001855Y015385D01*
X002005Y015385D02*
X001555Y015385D01*
X001780Y015846D02*
X001630Y015996D01*
X001555Y016146D01*
X001780Y016071D02*
X001780Y015846D01*
X001930Y015846D01*
X002005Y015921D01*
X002005Y016071D01*
X001930Y016146D01*
X001855Y016146D01*
X001780Y016071D01*
X001711Y018066D02*
X001655Y018123D01*
X001655Y018236D01*
X001711Y018293D01*
X001768Y018293D01*
X001825Y018236D01*
X001882Y018293D01*
X001938Y018293D01*
X001995Y018236D01*
X001995Y018123D01*
X001938Y018066D01*
X001825Y018179D02*
X001825Y018236D01*
X001711Y019066D02*
X001655Y019123D01*
X001655Y019236D01*
X001711Y019293D01*
X001768Y019293D01*
X001995Y019066D01*
X001995Y019293D01*
X001995Y020066D02*
X001995Y020293D01*
X001995Y020179D02*
X001655Y020179D01*
X001768Y020066D01*
D15*
X018605Y022400D03*
X020755Y022400D03*
X022605Y022400D03*
X024755Y022400D03*
X022255Y020400D03*
X022255Y018900D03*
X022255Y017400D03*
X020105Y017400D03*
X020105Y018900D03*
X020105Y020400D03*
D16*
X002180Y008325D03*
X003180Y008325D03*
X003180Y010475D03*
X002180Y010475D03*
X016680Y024325D03*
X016680Y026475D03*
M02*
