G75*
%MOIN*%
%OFA0B0*%
%FSLAX24Y24*%
%IPPOS*%
%LPD*%
%AMOC8*
5,1,8,0,0,1.08239X$1,22.5*
%
%ADD10R,0.0680X0.2630*%
%ADD11OC8,0.0600*%
%ADD12OC8,0.0680*%
%ADD13C,0.0600*%
%ADD14C,0.0640*%
%ADD15OC8,0.0710*%
%ADD16C,0.0710*%
%ADD17R,0.2380X0.2380*%
D10*
X002680Y001940D03*
X003680Y001940D03*
X004680Y001940D03*
X005680Y001940D03*
X006680Y001940D03*
X007680Y001940D03*
X008680Y001940D03*
X009680Y001940D03*
X010680Y001940D03*
X011680Y001940D03*
X012680Y001940D03*
X013680Y001940D03*
X014680Y001940D03*
X015680Y001940D03*
X016680Y001940D03*
X017680Y001940D03*
X018680Y001940D03*
X019680Y001940D03*
X020680Y001940D03*
X021680Y001940D03*
X022680Y001940D03*
X023680Y001940D03*
X024680Y001940D03*
X025680Y001940D03*
X026680Y001940D03*
X027680Y001940D03*
X028680Y001940D03*
X029680Y001940D03*
X030680Y001940D03*
X031680Y001940D03*
X032680Y001940D03*
D11*
X039680Y007940D03*
X039680Y008940D03*
X032680Y014940D03*
X032680Y015940D03*
X024180Y011440D03*
X024180Y010440D03*
X023180Y014940D03*
X023180Y015940D03*
X012680Y011440D03*
X012680Y010440D03*
X001180Y010440D03*
X001180Y011440D03*
X003680Y026440D03*
X004680Y026440D03*
X013680Y033940D03*
X013680Y034940D03*
X022680Y034940D03*
X022680Y033940D03*
X031680Y033940D03*
X031680Y034940D03*
X040680Y034940D03*
X040680Y033940D03*
D12*
X032680Y005940D03*
X031680Y005940D03*
X031680Y004940D03*
X032680Y004940D03*
X030680Y004940D03*
X029680Y004940D03*
X028680Y004940D03*
X028680Y005940D03*
X029680Y005940D03*
X030680Y005940D03*
X027680Y005940D03*
X026680Y005940D03*
X025680Y005940D03*
X025680Y004940D03*
X026680Y004940D03*
X027680Y004940D03*
X024680Y004940D03*
X023680Y004940D03*
X022680Y004940D03*
X021680Y004940D03*
X021680Y005940D03*
X022680Y005940D03*
X023680Y005940D03*
X024680Y005940D03*
X020680Y005940D03*
X019680Y005940D03*
X018680Y005940D03*
X018680Y004940D03*
X019680Y004940D03*
X020680Y004940D03*
X017680Y004940D03*
X016680Y004940D03*
X015680Y004940D03*
X015680Y005940D03*
X016680Y005940D03*
X017680Y005940D03*
X014680Y005940D03*
X013680Y005940D03*
X012680Y005940D03*
X012680Y004940D03*
X013680Y004940D03*
X014680Y004940D03*
X011680Y004940D03*
X010680Y004940D03*
X009680Y004940D03*
X008680Y004940D03*
X008680Y005940D03*
X009680Y005940D03*
X010680Y005940D03*
X011680Y005940D03*
X007680Y005940D03*
X006680Y005940D03*
X005680Y005940D03*
X005680Y004940D03*
X006680Y004940D03*
X007680Y004940D03*
X004680Y004940D03*
X003680Y004940D03*
X002680Y004940D03*
X002680Y005940D03*
X003680Y005940D03*
X004680Y005940D03*
D13*
X004180Y008180D02*
X004180Y008700D01*
X003180Y008700D02*
X003180Y008180D01*
X002180Y008180D02*
X002180Y008700D01*
X005180Y008700D02*
X005180Y008180D01*
X006180Y008180D02*
X006180Y008700D01*
X007180Y008700D02*
X007180Y008180D01*
X008180Y008180D02*
X008180Y008700D01*
X009180Y008700D02*
X009180Y008180D01*
X010180Y008180D02*
X010180Y008700D01*
X011180Y008700D02*
X011180Y008180D01*
X013680Y008180D02*
X013680Y008700D01*
X014680Y008700D02*
X014680Y008180D01*
X015680Y008180D02*
X015680Y008700D01*
X016680Y008700D02*
X016680Y008180D01*
X017680Y008180D02*
X017680Y008700D01*
X018680Y008700D02*
X018680Y008180D01*
X019680Y008180D02*
X019680Y008700D01*
X020680Y008700D02*
X020680Y008180D01*
X021680Y008180D02*
X021680Y008700D01*
X022680Y008700D02*
X022680Y008180D01*
X025180Y008180D02*
X025180Y008700D01*
X026180Y008700D02*
X026180Y008180D01*
X027180Y008180D02*
X027180Y008700D01*
X028180Y008700D02*
X028180Y008180D01*
X029180Y008180D02*
X029180Y008700D01*
X030180Y008700D02*
X030180Y008180D01*
X031180Y008180D02*
X031180Y008700D01*
X032180Y008700D02*
X032180Y008180D01*
X033180Y008180D02*
X033180Y008700D01*
X034180Y008700D02*
X034180Y008180D01*
X035420Y008440D02*
X035940Y008440D01*
X035940Y007440D02*
X035420Y007440D01*
X035420Y006440D02*
X035940Y006440D01*
X035940Y005440D02*
X035420Y005440D01*
X035420Y004440D02*
X035940Y004440D01*
X038420Y004440D02*
X038940Y004440D01*
X038940Y005440D02*
X038420Y005440D01*
X038420Y006440D02*
X038940Y006440D01*
X038940Y007440D02*
X038420Y007440D01*
X038420Y008440D02*
X038940Y008440D01*
X038940Y009440D02*
X038420Y009440D01*
X038420Y010440D02*
X038940Y010440D01*
X038680Y012680D02*
X038680Y013200D01*
X039680Y013200D02*
X039680Y012680D01*
X040680Y012680D02*
X040680Y013200D01*
X040680Y015680D02*
X040680Y016200D01*
X039680Y016200D02*
X039680Y015680D01*
X038680Y015680D02*
X038680Y016200D01*
X038680Y017180D02*
X038680Y017700D01*
X039680Y017700D02*
X039680Y017180D01*
X040680Y017180D02*
X040680Y017700D01*
X039440Y019440D02*
X038920Y019440D01*
X038920Y020440D02*
X039440Y020440D01*
X039440Y021440D02*
X038920Y021440D01*
X038920Y022440D02*
X039440Y022440D01*
X039440Y023440D02*
X038920Y023440D01*
X038920Y024440D02*
X039440Y024440D01*
X039440Y025440D02*
X038920Y025440D01*
X038920Y026440D02*
X039440Y026440D01*
X039440Y027440D02*
X038920Y027440D01*
X038920Y028440D02*
X039440Y028440D01*
X039440Y029440D02*
X038920Y029440D01*
X038920Y030440D02*
X039440Y030440D01*
X039440Y031440D02*
X038920Y031440D01*
X038920Y032440D02*
X039440Y032440D01*
X039440Y033440D02*
X038920Y033440D01*
X038920Y034440D02*
X039440Y034440D01*
X033440Y034440D02*
X032920Y034440D01*
X032920Y033440D02*
X033440Y033440D01*
X033440Y032440D02*
X032920Y032440D01*
X032920Y031440D02*
X033440Y031440D01*
X033440Y030440D02*
X032920Y030440D01*
X032920Y029440D02*
X033440Y029440D01*
X033440Y028440D02*
X032920Y028440D01*
X032920Y027440D02*
X033440Y027440D01*
X033440Y026440D02*
X032920Y026440D01*
X032920Y025440D02*
X033440Y025440D01*
X033440Y024440D02*
X032920Y024440D01*
X032920Y023440D02*
X033440Y023440D01*
X033440Y022440D02*
X032920Y022440D01*
X031940Y022440D02*
X031420Y022440D01*
X030440Y022440D02*
X029920Y022440D01*
X029920Y021440D02*
X030440Y021440D01*
X031420Y021440D02*
X031940Y021440D01*
X032920Y021440D02*
X033440Y021440D01*
X033440Y020440D02*
X032920Y020440D01*
X031940Y020440D02*
X031420Y020440D01*
X030440Y020440D02*
X029920Y020440D01*
X029920Y019440D02*
X030440Y019440D01*
X031420Y019440D02*
X031940Y019440D01*
X032920Y019440D02*
X033440Y019440D01*
X031940Y018440D02*
X031420Y018440D01*
X031180Y017700D02*
X031180Y017180D01*
X030180Y017180D02*
X030180Y017700D01*
X029180Y017700D02*
X029180Y017180D01*
X029180Y016200D02*
X029180Y015680D01*
X030180Y015680D02*
X030180Y016200D01*
X031180Y016200D02*
X031180Y015680D01*
X033680Y015680D02*
X033680Y016200D01*
X034680Y016200D02*
X034680Y015680D01*
X035680Y015680D02*
X035680Y016200D01*
X036680Y016200D02*
X036680Y015680D01*
X037680Y015680D02*
X037680Y016200D01*
X037680Y017180D02*
X037680Y017700D01*
X036680Y017700D02*
X036680Y017180D01*
X036680Y013200D02*
X036680Y012680D01*
X035680Y012680D02*
X035680Y013200D01*
X034680Y013200D02*
X034680Y012680D01*
X033680Y012680D02*
X033680Y013200D01*
X033180Y011700D02*
X033180Y011180D01*
X032180Y011180D02*
X032180Y011700D01*
X031180Y011700D02*
X031180Y011180D01*
X030180Y011180D02*
X030180Y011700D01*
X029180Y011700D02*
X029180Y011180D01*
X028180Y011180D02*
X028180Y011700D01*
X027180Y011700D02*
X027180Y011180D01*
X026180Y011180D02*
X026180Y011700D01*
X025180Y011700D02*
X025180Y011180D01*
X025180Y012680D02*
X025180Y013200D01*
X026180Y013200D02*
X026180Y012680D01*
X027180Y012680D02*
X027180Y013200D01*
X028180Y013200D02*
X028180Y012680D01*
X029180Y012680D02*
X029180Y013200D01*
X030180Y013200D02*
X030180Y012680D01*
X031180Y012680D02*
X031180Y013200D01*
X034180Y011700D02*
X034180Y011180D01*
X035420Y010440D02*
X035940Y010440D01*
X035940Y009440D02*
X035420Y009440D01*
X037680Y012680D02*
X037680Y013200D01*
X028180Y015680D02*
X028180Y016200D01*
X027180Y016200D02*
X027180Y015680D01*
X026180Y015680D02*
X026180Y016200D01*
X025180Y016200D02*
X025180Y015680D01*
X024180Y015680D02*
X024180Y016200D01*
X022440Y018440D02*
X021920Y018440D01*
X021920Y019440D02*
X022440Y019440D01*
X021440Y019440D02*
X020920Y019440D01*
X020920Y020440D02*
X021440Y020440D01*
X021920Y020440D02*
X022440Y020440D01*
X022440Y021440D02*
X021920Y021440D01*
X021440Y021440D02*
X020920Y021440D01*
X020920Y022440D02*
X021440Y022440D01*
X021920Y022440D02*
X022440Y022440D01*
X022440Y023440D02*
X021920Y023440D01*
X021440Y023440D02*
X020920Y023440D01*
X020920Y024440D02*
X021440Y024440D01*
X021440Y025440D02*
X020920Y025440D01*
X020920Y026440D02*
X021440Y026440D01*
X021440Y027440D02*
X020920Y027440D01*
X020920Y028440D02*
X021440Y028440D01*
X021440Y029440D02*
X020920Y029440D01*
X020920Y030440D02*
X021440Y030440D01*
X021440Y031440D02*
X020920Y031440D01*
X020920Y032440D02*
X021440Y032440D01*
X021440Y033440D02*
X020920Y033440D01*
X020920Y034440D02*
X021440Y034440D01*
X023920Y034440D02*
X024440Y034440D01*
X024440Y033440D02*
X023920Y033440D01*
X023920Y032440D02*
X024440Y032440D01*
X024440Y031440D02*
X023920Y031440D01*
X023920Y030440D02*
X024440Y030440D01*
X024440Y029440D02*
X023920Y029440D01*
X023920Y028440D02*
X024440Y028440D01*
X024440Y027440D02*
X023920Y027440D01*
X023920Y026440D02*
X024440Y026440D01*
X024440Y025440D02*
X023920Y025440D01*
X023920Y024440D02*
X024440Y024440D01*
X024440Y023440D02*
X023920Y023440D01*
X023920Y022440D02*
X024440Y022440D01*
X024440Y021440D02*
X023920Y021440D01*
X023920Y020440D02*
X024440Y020440D01*
X024440Y019440D02*
X023920Y019440D01*
X027180Y017700D02*
X027180Y017180D01*
X028180Y017180D02*
X028180Y017700D01*
X024180Y013200D02*
X024180Y012680D01*
X022680Y011700D02*
X022680Y011180D01*
X021680Y011180D02*
X021680Y011700D01*
X021680Y012680D02*
X021680Y013200D01*
X020680Y013200D02*
X020680Y012680D01*
X019680Y012680D02*
X019680Y013200D01*
X019680Y013680D02*
X019680Y014200D01*
X018680Y014200D02*
X018680Y013680D01*
X018680Y013200D02*
X018680Y012680D01*
X018680Y011700D02*
X018680Y011180D01*
X019680Y011180D02*
X019680Y011700D01*
X020680Y011700D02*
X020680Y011180D01*
X020680Y013680D02*
X020680Y014200D01*
X020680Y016680D02*
X020680Y017200D01*
X019680Y017200D02*
X019680Y016680D01*
X018680Y016680D02*
X018680Y017200D01*
X017680Y017200D02*
X017680Y016680D01*
X016680Y016680D02*
X016680Y017200D01*
X015680Y017200D02*
X015680Y016680D01*
X014680Y016680D02*
X014680Y017200D01*
X013680Y017200D02*
X013680Y016680D01*
X013680Y014200D02*
X013680Y013680D01*
X013680Y013200D02*
X013680Y012680D01*
X014680Y012680D02*
X014680Y013200D01*
X014680Y013680D02*
X014680Y014200D01*
X015680Y014200D02*
X015680Y013680D01*
X015680Y013200D02*
X015680Y012680D01*
X016680Y012680D02*
X016680Y013200D01*
X016680Y013680D02*
X016680Y014200D01*
X017680Y014200D02*
X017680Y013680D01*
X017680Y013200D02*
X017680Y012680D01*
X017680Y011700D02*
X017680Y011180D01*
X016680Y011180D02*
X016680Y011700D01*
X015680Y011700D02*
X015680Y011180D01*
X014680Y011180D02*
X014680Y011700D01*
X013680Y011700D02*
X013680Y011180D01*
X011180Y011180D02*
X011180Y011700D01*
X010180Y011700D02*
X010180Y011180D01*
X009180Y011180D02*
X009180Y011700D01*
X008180Y011700D02*
X008180Y011180D01*
X007180Y011180D02*
X007180Y011700D01*
X006180Y011700D02*
X006180Y011180D01*
X005180Y011180D02*
X005180Y011700D01*
X004180Y011700D02*
X004180Y011180D01*
X003180Y011180D02*
X003180Y011700D01*
X002180Y011700D02*
X002180Y011180D01*
X002680Y012680D02*
X002680Y013200D01*
X002680Y013680D02*
X002680Y014200D01*
X003680Y014200D02*
X003680Y013680D01*
X003680Y013200D02*
X003680Y012680D01*
X004680Y012680D02*
X004680Y013200D01*
X004680Y013680D02*
X004680Y014200D01*
X005680Y014200D02*
X005680Y013680D01*
X005680Y013200D02*
X005680Y012680D01*
X006680Y012680D02*
X006680Y013200D01*
X006680Y013680D02*
X006680Y014200D01*
X007680Y014200D02*
X007680Y013680D01*
X007680Y013200D02*
X007680Y012680D01*
X008680Y012680D02*
X008680Y013200D01*
X008680Y013680D02*
X008680Y014200D01*
X009680Y014200D02*
X009680Y013680D01*
X009680Y013200D02*
X009680Y012680D01*
X010680Y012680D02*
X010680Y013200D01*
X009680Y016680D02*
X009680Y017200D01*
X008680Y017200D02*
X008680Y016680D01*
X007680Y016680D02*
X007680Y017200D01*
X006680Y017200D02*
X006680Y016680D01*
X005680Y016680D02*
X005680Y017200D01*
X004680Y017200D02*
X004680Y016680D01*
X003680Y016680D02*
X003680Y017200D01*
X002680Y017200D02*
X002680Y016680D01*
X001940Y018440D02*
X001420Y018440D01*
X001420Y019440D02*
X001940Y019440D01*
X001940Y020440D02*
X001420Y020440D01*
X001420Y021440D02*
X001940Y021440D01*
X001940Y022440D02*
X001420Y022440D01*
X001420Y023440D02*
X001940Y023440D01*
X001940Y024440D02*
X001420Y024440D01*
X001420Y025440D02*
X001940Y025440D01*
X004420Y025440D02*
X004940Y025440D01*
X005920Y025440D02*
X006440Y025440D01*
X006440Y024440D02*
X005920Y024440D01*
X004940Y024440D02*
X004420Y024440D01*
X004420Y023440D02*
X004940Y023440D01*
X005920Y023440D02*
X006440Y023440D01*
X006440Y022440D02*
X005920Y022440D01*
X004940Y022440D02*
X004420Y022440D01*
X004420Y021440D02*
X004940Y021440D01*
X005920Y021440D02*
X006440Y021440D01*
X006440Y020440D02*
X005920Y020440D01*
X004940Y020440D02*
X004420Y020440D01*
X004420Y019440D02*
X004940Y019440D01*
X005920Y019440D02*
X006440Y019440D01*
X004940Y018440D02*
X004420Y018440D01*
X011920Y019440D02*
X012440Y019440D01*
X012440Y020440D02*
X011920Y020440D01*
X011920Y021440D02*
X012440Y021440D01*
X012440Y022440D02*
X011920Y022440D01*
X011920Y023440D02*
X012440Y023440D01*
X012440Y024440D02*
X011920Y024440D01*
X011920Y025440D02*
X012440Y025440D01*
X012440Y026440D02*
X011920Y026440D01*
X011920Y027440D02*
X012440Y027440D01*
X012440Y028440D02*
X011920Y028440D01*
X011920Y029440D02*
X012440Y029440D01*
X012440Y030440D02*
X011920Y030440D01*
X011920Y031440D02*
X012440Y031440D01*
X012440Y032440D02*
X011920Y032440D01*
X011920Y033440D02*
X012440Y033440D01*
X012440Y034440D02*
X011920Y034440D01*
X014920Y034440D02*
X015440Y034440D01*
X015440Y033440D02*
X014920Y033440D01*
X014920Y032440D02*
X015440Y032440D01*
X015440Y031440D02*
X014920Y031440D01*
X014920Y030440D02*
X015440Y030440D01*
X015440Y029440D02*
X014920Y029440D01*
X014920Y028440D02*
X015440Y028440D01*
X015440Y027440D02*
X014920Y027440D01*
X014920Y026440D02*
X015440Y026440D01*
X015440Y025440D02*
X014920Y025440D01*
X014920Y024440D02*
X015440Y024440D01*
X015440Y023440D02*
X014920Y023440D01*
X014920Y022440D02*
X015440Y022440D01*
X015440Y021440D02*
X014920Y021440D01*
X014920Y020440D02*
X015440Y020440D01*
X015440Y019440D02*
X014920Y019440D01*
X006440Y026440D02*
X005920Y026440D01*
X005920Y027440D02*
X006440Y027440D01*
X006440Y028440D02*
X005920Y028440D01*
X005920Y029440D02*
X006440Y029440D01*
X006440Y030440D02*
X005920Y030440D01*
X005920Y031440D02*
X006440Y031440D01*
X006440Y032440D02*
X005920Y032440D01*
X005920Y033440D02*
X006440Y033440D01*
X006440Y034440D02*
X005920Y034440D01*
X029920Y034440D02*
X030440Y034440D01*
X030440Y033440D02*
X029920Y033440D01*
X029920Y032440D02*
X030440Y032440D01*
X030440Y031440D02*
X029920Y031440D01*
X029920Y030440D02*
X030440Y030440D01*
X030440Y029440D02*
X029920Y029440D01*
X029920Y028440D02*
X030440Y028440D01*
X030440Y027440D02*
X029920Y027440D01*
X029920Y026440D02*
X030440Y026440D01*
X030440Y025440D02*
X029920Y025440D01*
X029920Y024440D02*
X030440Y024440D01*
X030440Y023440D02*
X029920Y023440D01*
D14*
X004180Y029660D02*
X004180Y030220D01*
X003180Y030220D02*
X003180Y029660D01*
X002180Y029660D02*
X002180Y030220D01*
X002180Y032660D02*
X002180Y033220D01*
X003180Y033220D02*
X003180Y032660D01*
X004180Y032660D02*
X004180Y033220D01*
D15*
X041680Y007940D03*
D16*
X041680Y008940D03*
D17*
X041180Y004440D03*
X041180Y026690D03*
M02*
