%
M48
M72
T01C0.0240
T02C0.0320
T03C0.0360
T04C0.0400
T05C0.1250
%
T01
X2180Y3440
X2180Y4440
X5180Y3440
X6180Y3440
X7180Y3440
X8180Y3440
X9055Y3815
X10055Y3815
X11055Y3815
X12055Y3940
X13180Y3440
X12180Y6315
X12930Y7065
X11180Y6315
X8180Y7440
X6180Y5565
X2680Y9440
X2680Y12065
X5055Y14690
X6805Y15440
X6680Y16065
X7680Y17815
X7180Y18565
X6805Y18940
X5555Y17940
X2180Y16315
X6680Y12065
X7555Y10690
X6180Y10065
X8680Y12065
X10555Y10690
X10680Y10065
X10180Y10065
X12305Y10940
X12555Y9815
X13305Y12190
X15180Y12065
X16805Y10565
X15805Y10315
X16180Y9315
X15180Y9065
X20805Y9690
X23805Y10940
X25680Y9940
X27555Y12190
X27680Y13815
X26930Y14815
X25805Y13690
X24055Y14815
X21805Y15815
X21430Y16190
X21055Y14690
X21305Y13940
X23305Y17565
X24180Y18565
X20555Y18315
X20055Y18065
X17180Y15565
X17180Y15065
X15680Y18065
X14555Y18065
X13430Y18565
X12305Y18440
X11430Y18190
X11055Y17815
X10305Y18190
X9930Y18565
X9180Y19315
X8680Y18940
X9055Y19940
X10930Y20940
X10930Y21940
X11305Y23565
X10930Y24940
X13055Y24565
X13805Y25065
X13430Y25940
X14180Y24065
X11305Y27440
X10930Y28440
X10555Y28815
X9805Y29065
X10180Y29565
X8680Y29940
X8305Y30440
X7930Y27815
X6930Y28065
X8555Y25940
X9430Y26815
X9555Y27440
X13680Y27815
X14430Y27815
X14305Y34440
X23305Y34440
X28180Y32565
X24930Y29815
X27555Y27815
X28805Y27815
X27555Y25065
X26680Y24440
X26180Y23565
X27805Y23315
X28805Y23315
X29180Y24815
X34180Y25065
X36055Y24940
X38055Y25815
X35930Y22565
X36305Y19065
X35555Y17065
X33680Y18315
X32930Y17815
X32555Y17440
X33180Y17065
X31930Y17440
X30805Y18940
X28055Y18315
X27555Y16690
X29430Y14815
X29805Y14065
X31805Y15565
X33555Y14815
X34680Y14065
X32680Y10815
X32555Y10065
X30680Y12065
X28680Y9065
X27680Y7440
X28055Y7065
X30055Y4190
X29055Y3815
X28055Y3815
X27055Y3815
X26055Y3815
X25055Y3815
X24180Y3440
X23055Y3815
X22055Y3815
X21180Y3440
X19180Y3440
X18305Y3815
X17305Y4440
X22055Y6940
X23180Y7315
X31555Y3815
X32180Y3815
X33180Y3440
X33805Y4065
X34180Y5065
X33180Y6565
X36305Y6940
X37555Y9440
X37805Y10565
X39180Y13565
X39180Y14565
X40680Y14190
X39055Y18190
X22680Y24565
X12680Y16815
X12680Y16065
X11680Y15690
X10930Y16440
X9180Y15440
X8180Y14565
X11680Y14565
X11680Y13940
X2055Y26690
X3555Y31815
X35805Y34565
X36305Y34940
X36805Y33940
T02
X39180Y33440
X39180Y32440
X39180Y31440
X39180Y30440
X39180Y29440
X39180Y28440
X39180Y27440
X39180Y26440
X39180Y25440
X39180Y24440
X39180Y23440
X39180Y22440
X39180Y21440
X39180Y20440
X39180Y19440
X38680Y17440
X39680Y17440
X40680Y17440
X40680Y15940
X39680Y15940
X38680Y15940
X37680Y15940
X36680Y15940
X35680Y15940
X34680Y15940
X33680Y15940
X32680Y15940
X32680Y14940
X31180Y15940
X30180Y15940
X29180Y15940
X28180Y15940
X27180Y15940
X26180Y15940
X25180Y15940
X24180Y15940
X23180Y15940
X23180Y14940
X24180Y12940
X25180Y12940
X26180Y12940
X27180Y12940
X28180Y12940
X29180Y12940
X30180Y12940
X31180Y12940
X31180Y11440
X30180Y11440
X29180Y11440
X28180Y11440
X27180Y11440
X26180Y11440
X25180Y11440
X24180Y11440
X24180Y10440
X22680Y11440
X21680Y11440
X20680Y11440
X19680Y11440
X18680Y11440
X17680Y11440
X16680Y11440
X15680Y11440
X14680Y11440
X13680Y11440
X12680Y11440
X12680Y10440
X11180Y11440
X10180Y11440
X9180Y11440
X8180Y11440
X7180Y11440
X6180Y11440
X5180Y11440
X4180Y11440
X3180Y11440
X2180Y11440
X1180Y11440
X1180Y10440
X2180Y8440
X3180Y8440
X4180Y8440
X5180Y8440
X6180Y8440
X7180Y8440
X8180Y8440
X9180Y8440
X10180Y8440
X11180Y8440
X13680Y8440
X14680Y8440
X15680Y8440
X16680Y8440
X17680Y8440
X18680Y8440
X19680Y8440
X20680Y8440
X21680Y8440
X22680Y8440
X25180Y8440
X26180Y8440
X27180Y8440
X28180Y8440
X29180Y8440
X30180Y8440
X31180Y8440
X32180Y8440
X33180Y8440
X34180Y8440
X35680Y8440
X35680Y7440
X35680Y6440
X35680Y5440
X35680Y4440
X38680Y4440
X38680Y5440
X38680Y6440
X38680Y7440
X39680Y7940
X38680Y8440
X39680Y8940
X38680Y9440
X38680Y10440
X38680Y12940
X39680Y12940
X40680Y12940
X37680Y12940
X36680Y12940
X35680Y12940
X34680Y12940
X33680Y12940
X33180Y11440
X32180Y11440
X34180Y11440
X35680Y10440
X35680Y9440
X41680Y8940
X41680Y7940
X37680Y17440
X36680Y17440
X33180Y19440
X33180Y20440
X33180Y21440
X33180Y22440
X33180Y23440
X33180Y24440
X33180Y25440
X33180Y26440
X33180Y27440
X33180Y28440
X33180Y29440
X33180Y30440
X33180Y31440
X33180Y32440
X33180Y33440
X33180Y34440
X31680Y33940
X31680Y34940
X30180Y34440
X30180Y33440
X30180Y32440
X30180Y31440
X30180Y30440
X30180Y29440
X30180Y28440
X30180Y27440
X30180Y26440
X30180Y25440
X30180Y24440
X30180Y23440
X30180Y22440
X30180Y21440
X30180Y20440
X30180Y19440
X31680Y19440
X31680Y18440
X31180Y17440
X30180Y17440
X29180Y17440
X28180Y17440
X27180Y17440
X24180Y19440
X24180Y20440
X24180Y21440
X24180Y22440
X24180Y23440
X24180Y24440
X24180Y25440
X24180Y26440
X24180Y27440
X24180Y28440
X24180Y29440
X24180Y30440
X24180Y31440
X24180Y32440
X24180Y33440
X24180Y34440
X22680Y33940
X22680Y34940
X21180Y34440
X21180Y33440
X21180Y32440
X21180Y31440
X21180Y30440
X21180Y29440
X21180Y28440
X21180Y27440
X21180Y26440
X21180Y25440
X21180Y24440
X21180Y23440
X21180Y22440
X21180Y21440
X21180Y20440
X21180Y19440
X22180Y19440
X22180Y18440
X20680Y16940
X19680Y16940
X18680Y16940
X17680Y16940
X16680Y16940
X15680Y16940
X14680Y16940
X13680Y16940
X12180Y19440
X12180Y20440
X12180Y21440
X12180Y22440
X12180Y23440
X12180Y24440
X12180Y25440
X12180Y26440
X12180Y27440
X12180Y28440
X12180Y29440
X12180Y30440
X12180Y31440
X12180Y32440
X12180Y33440
X12180Y34440
X13680Y33940
X13680Y34940
X15180Y34440
X15180Y33440
X15180Y32440
X15180Y31440
X15180Y30440
X15180Y29440
X15180Y28440
X15180Y27440
X15180Y26440
X15180Y25440
X15180Y24440
X15180Y23440
X15180Y22440
X15180Y21440
X15180Y20440
X15180Y19440
X9680Y16940
X8680Y16940
X7680Y16940
X6680Y16940
X5680Y16940
X4680Y16940
X3680Y16940
X2680Y16940
X1680Y18440
X1680Y19440
X1680Y20440
X1680Y21440
X1680Y22440
X1680Y23440
X1680Y24440
X1680Y25440
X3680Y26440
X4680Y26440
X4680Y25440
X4680Y24440
X4680Y23440
X4680Y22440
X4680Y21440
X4680Y20440
X4680Y19440
X4680Y18440
X6180Y19440
X6180Y20440
X6180Y21440
X6180Y22440
X6180Y23440
X6180Y24440
X6180Y25440
X6180Y26440
X6180Y27440
X6180Y28440
X6180Y29440
X6180Y30440
X6180Y31440
X6180Y32440
X6180Y33440
X6180Y34440
X22180Y23440
X22180Y22440
X22180Y21440
X22180Y20440
X20680Y13940
X19680Y13940
X18680Y13940
X18680Y12940
X19680Y12940
X20680Y12940
X21680Y12940
X17680Y12940
X16680Y12940
X15680Y12940
X15680Y13940
X16680Y13940
X17680Y13940
X14680Y13940
X13680Y13940
X13680Y12940
X14680Y12940
X10680Y12940
X9680Y12940
X8680Y12940
X8680Y13940
X9680Y13940
X7680Y13940
X6680Y13940
X5680Y13940
X5680Y12940
X6680Y12940
X7680Y12940
X4680Y12940
X3680Y12940
X2680Y12940
X2680Y13940
X3680Y13940
X4680Y13940
X31680Y20440
X31680Y21440
X31680Y22440
X40680Y33940
X40680Y34940
X39180Y34440
T03
X4180Y32940
X3180Y32940
X2180Y32940
X2180Y29940
X3180Y29940
X4180Y29940
T04
X3680Y5940
X2680Y5940
X2680Y4940
X3680Y4940
X4680Y4940
X4680Y5940
X5680Y5940
X6680Y5940
X7680Y5940
X7680Y4940
X6680Y4940
X5680Y4940
X8680Y4940
X9680Y4940
X10680Y4940
X11680Y4940
X11680Y5940
X10680Y5940
X9680Y5940
X8680Y5940
X12680Y5940
X13680Y5940
X14680Y5940
X14680Y4940
X13680Y4940
X12680Y4940
X15680Y4940
X16680Y4940
X17680Y4940
X17680Y5940
X16680Y5940
X15680Y5940
X18680Y5940
X19680Y5940
X20680Y5940
X20680Y4940
X19680Y4940
X18680Y4940
X21680Y4940
X22680Y4940
X23680Y4940
X24680Y4940
X24680Y5940
X23680Y5940
X22680Y5940
X21680Y5940
X25680Y5940
X26680Y5940
X27680Y5940
X27680Y4940
X26680Y4940
X25680Y4940
X28680Y4940
X29680Y4940
X30680Y4940
X30680Y5940
X29680Y5940
X28680Y5940
X31680Y5940
X32680Y5940
X32680Y4940
X31680Y4940
T05
X41180Y4440
X41180Y26690
M30
