%
M48
M72
T01C0.0315
T02C0.0320
T03C0.0400
T04C0.1250
%
T01
X6200Y1680
X9200Y1680
X12200Y1680
X15200Y1680
X16200Y4680
X16200Y7680
X7200Y6680
X6200Y7680
X7200Y3680
T02
X6200Y3680
X5200Y3680
X4200Y3180
X3200Y2180
X5210Y1680
X6200Y680
X7190Y1680
X8210Y1680
X9200Y680
X10190Y1680
X11210Y1680
X12200Y680
X13190Y1680
X14210Y1680
X15200Y680
X16190Y1680
X12700Y3680
X11700Y3680
X10700Y4680
X10200Y5680
X9200Y5680
X8200Y5680
X7700Y4680
X6200Y5680
X6200Y6680
X7200Y7680
X7200Y8680
X8200Y8680
X9200Y8680
X10200Y8680
X11200Y8680
X14200Y7680
X15200Y7680
X16200Y5680
X15200Y4680
X14200Y4680
X13200Y5680
X11200Y5680
X4200Y6180
X3200Y5180
X3200Y680
X4200Y680
X14200Y9680
X15200Y9680
T03
X17700Y7680
X17700Y6680
X17700Y5680
X17700Y4680
X17700Y3680
X17700Y2680
X1700Y4180
X1700Y5180
X1700Y6180
T04
X1200Y1180
X1200Y9680
X18700Y9680
X18700Y1180
M30
