G75*
%MOIN*%
%OFA0B0*%
%FSLAX24Y24*%
%IPPOS*%
%LPD*%
%AMOC8*
5,1,8,0,0,1.08239X$1,22.5*
%
%ADD10C,0.1330*%
%ADD11OC8,0.0600*%
%ADD12OC8,0.0760*%
%ADD13C,0.0680*%
%ADD14OC8,0.0595*%
%ADD15R,0.0540X0.0710*%
%ADD16R,0.0060X0.0720*%
D10*
X001200Y001180D03*
X001200Y009680D03*
X018700Y009680D03*
X018700Y001180D03*
D11*
X016190Y001680D03*
X015200Y000680D03*
X014210Y001680D03*
X013190Y001680D03*
X012200Y000680D03*
X011210Y001680D03*
X010190Y001680D03*
X009200Y000680D03*
X008210Y001680D03*
X007190Y001680D03*
X006200Y000680D03*
X005210Y001680D03*
X004200Y000680D03*
X003200Y000680D03*
X003200Y002180D03*
X004200Y003180D03*
X005200Y003680D03*
X006200Y003680D03*
X007700Y004680D03*
X006200Y005680D03*
X006200Y006680D03*
X007200Y007680D03*
X007200Y008680D03*
X004200Y006180D03*
X003200Y005180D03*
X010700Y004680D03*
X011700Y003680D03*
X012700Y003680D03*
X014200Y004680D03*
X015200Y004680D03*
X016200Y005680D03*
X013200Y005680D03*
X014200Y007680D03*
X015200Y007680D03*
X015200Y009680D03*
X014200Y009680D03*
D12*
X011200Y008680D03*
X010200Y008680D03*
X009200Y008680D03*
X008200Y008680D03*
X008200Y005680D03*
X009200Y005680D03*
X010200Y005680D03*
X011200Y005680D03*
D13*
X017400Y005680D02*
X018000Y005680D01*
X018000Y004680D02*
X017400Y004680D01*
X017400Y003680D02*
X018000Y003680D01*
X018000Y002680D02*
X017400Y002680D01*
X017400Y006680D02*
X018000Y006680D01*
X018000Y007680D02*
X017400Y007680D01*
X002000Y006180D02*
X001400Y006180D01*
X001400Y005180D02*
X002000Y005180D01*
X002000Y004180D02*
X001400Y004180D01*
D14*
X006200Y001680D03*
X009200Y001680D03*
X012200Y001680D03*
X015200Y001680D03*
X016200Y004680D03*
X016200Y007680D03*
X007200Y006680D03*
X006200Y007680D03*
X007200Y003680D03*
D15*
X014400Y004680D03*
X015000Y004680D03*
X015000Y007680D03*
X014400Y007680D03*
D16*
X014700Y007680D03*
X014700Y004680D03*
M02*
