G75*
%MOIN*%
%OFA0B0*%
%FSLAX24Y24*%
%IPPOS*%
%LPD*%
%AMOC8*
5,1,8,0,0,1.08239X$1,22.5*
%
%ADD10C,0.0030*%
%ADD11C,0.0020*%
%ADD12C,0.0060*%
%ADD13C,0.0100*%
%ADD14C,0.0050*%
%ADD15C,0.0080*%
%ADD16R,0.0150X0.0200*%
%ADD17C,0.0040*%
%ADD18R,0.0200X0.0150*%
D10*
X000363Y004195D02*
X000460Y004195D01*
X000508Y004243D01*
X000508Y004340D01*
X000412Y004340D01*
X000508Y004437D02*
X000460Y004485D01*
X000363Y004485D01*
X000315Y004437D01*
X000315Y004243D01*
X000363Y004195D01*
X000412Y005195D02*
X000508Y005292D01*
X000508Y005485D01*
X000610Y005340D02*
X000803Y005340D01*
X000412Y005195D02*
X000315Y005292D01*
X000315Y005485D01*
X000412Y006195D02*
X000315Y006292D01*
X000315Y006485D01*
X000508Y006485D02*
X000508Y006292D01*
X000412Y006195D01*
X000610Y006340D02*
X000803Y006340D01*
X000706Y006437D02*
X000706Y006243D01*
X018715Y005937D02*
X018715Y005743D01*
X018763Y005695D01*
X018860Y005695D01*
X018908Y005743D01*
X018908Y005840D01*
X018812Y005840D01*
X018908Y005937D02*
X018860Y005985D01*
X018763Y005985D01*
X018715Y005937D01*
X018715Y004985D02*
X018812Y004985D01*
X018763Y004985D02*
X018763Y004695D01*
X018715Y004695D02*
X018812Y004695D01*
X018911Y004695D02*
X018911Y004985D01*
X019105Y004695D01*
X019105Y004985D01*
X019206Y004937D02*
X019254Y004985D01*
X019351Y004985D01*
X019400Y004937D01*
X019400Y004888D01*
X019206Y004695D01*
X019400Y004695D01*
X019160Y002985D02*
X019063Y002985D01*
X019015Y002937D01*
X019015Y002743D01*
X019063Y002695D01*
X019160Y002695D01*
X019208Y002743D01*
X019208Y002840D01*
X019112Y002840D01*
X019208Y002937D02*
X019160Y002985D01*
X019206Y007695D02*
X019400Y007695D01*
X019303Y007695D02*
X019303Y007985D01*
X019206Y007888D01*
X019105Y007985D02*
X019105Y007695D01*
X018911Y007985D01*
X018911Y007695D01*
X018812Y007695D02*
X018715Y007695D01*
X018763Y007695D02*
X018763Y007985D01*
X018715Y007985D02*
X018812Y007985D01*
D11*
X018778Y006910D02*
X018778Y006727D01*
X018741Y006690D01*
X018668Y006690D01*
X018631Y006727D01*
X018631Y006910D01*
X018557Y006873D02*
X018520Y006910D01*
X018447Y006910D01*
X018410Y006873D01*
X018410Y006727D01*
X018447Y006690D01*
X018520Y006690D01*
X018557Y006727D01*
X018557Y006873D01*
X018852Y006910D02*
X018999Y006910D01*
X018925Y006910D02*
X018925Y006690D01*
X019073Y006690D02*
X019220Y006690D01*
X019146Y006690D02*
X019146Y006910D01*
X019073Y006837D01*
X019110Y003910D02*
X019073Y003873D01*
X019110Y003910D02*
X019183Y003910D01*
X019220Y003873D01*
X019220Y003837D01*
X019073Y003690D01*
X019220Y003690D01*
X018925Y003690D02*
X018925Y003910D01*
X018852Y003910D02*
X018999Y003910D01*
X018778Y003910D02*
X018778Y003727D01*
X018741Y003690D01*
X018668Y003690D01*
X018631Y003727D01*
X018631Y003910D01*
X018557Y003873D02*
X018520Y003910D01*
X018447Y003910D01*
X018410Y003873D01*
X018410Y003727D01*
X018447Y003690D01*
X018520Y003690D01*
X018557Y003727D01*
X018557Y003873D01*
X016520Y003373D02*
X016520Y003337D01*
X016373Y003190D01*
X016520Y003190D01*
X016520Y003373D02*
X016483Y003410D01*
X016410Y003410D01*
X016373Y003373D01*
X016299Y003410D02*
X016152Y003410D01*
X016152Y003190D01*
X016152Y003300D02*
X016225Y003300D01*
X016078Y003410D02*
X015931Y003410D01*
X015931Y003190D01*
X015857Y003227D02*
X015857Y003373D01*
X015820Y003410D01*
X015747Y003410D01*
X015710Y003373D01*
X015710Y003227D01*
X015747Y003190D01*
X015820Y003190D01*
X015857Y003227D01*
X015931Y003300D02*
X016004Y003300D01*
X013667Y003337D02*
X013520Y003190D01*
X013667Y003190D01*
X013667Y003337D02*
X013667Y003373D01*
X013630Y003410D01*
X013557Y003410D01*
X013520Y003373D01*
X013446Y003410D02*
X013446Y003190D01*
X013299Y003410D01*
X013299Y003190D01*
X013225Y003190D02*
X013152Y003190D01*
X013189Y003190D02*
X013189Y003410D01*
X013225Y003410D02*
X013152Y003410D01*
X013078Y003337D02*
X013078Y003190D01*
X013078Y003300D02*
X012931Y003300D01*
X012931Y003337D02*
X013004Y003410D01*
X013078Y003337D01*
X012931Y003337D02*
X012931Y003190D01*
X012857Y003227D02*
X012857Y003300D01*
X012783Y003300D01*
X012710Y003227D02*
X012747Y003190D01*
X012820Y003190D01*
X012857Y003227D01*
X012710Y003227D02*
X012710Y003373D01*
X012747Y003410D01*
X012820Y003410D01*
X012857Y003373D01*
X010520Y003190D02*
X010373Y003190D01*
X010446Y003190D02*
X010446Y003410D01*
X010373Y003337D01*
X010299Y003410D02*
X010152Y003410D01*
X010152Y003190D01*
X010152Y003300D02*
X010225Y003300D01*
X010078Y003410D02*
X009931Y003410D01*
X009931Y003190D01*
X009857Y003227D02*
X009857Y003373D01*
X009820Y003410D01*
X009747Y003410D01*
X009710Y003373D01*
X009710Y003227D01*
X009747Y003190D01*
X009820Y003190D01*
X009857Y003227D01*
X009931Y003300D02*
X010004Y003300D01*
X007667Y003190D02*
X007520Y003190D01*
X007594Y003190D02*
X007594Y003410D01*
X007520Y003337D01*
X007446Y003410D02*
X007446Y003190D01*
X007299Y003410D01*
X007299Y003190D01*
X007225Y003190D02*
X007152Y003190D01*
X007189Y003190D02*
X007189Y003410D01*
X007225Y003410D02*
X007152Y003410D01*
X007078Y003337D02*
X007004Y003410D01*
X006931Y003337D01*
X006931Y003190D01*
X006857Y003227D02*
X006857Y003300D01*
X006783Y003300D01*
X006710Y003227D02*
X006747Y003190D01*
X006820Y003190D01*
X006857Y003227D01*
X006931Y003300D02*
X007078Y003300D01*
X007078Y003337D02*
X007078Y003190D01*
X006857Y003373D02*
X006820Y003410D01*
X006747Y003410D01*
X006710Y003373D01*
X006710Y003227D01*
D12*
X002750Y001080D02*
X002750Y000280D01*
X002752Y000263D01*
X002756Y000246D01*
X002763Y000230D01*
X002773Y000216D01*
X002786Y000203D01*
X002800Y000193D01*
X002816Y000186D01*
X002833Y000182D01*
X002850Y000180D01*
X004550Y000180D01*
X004567Y000182D01*
X004584Y000186D01*
X004600Y000193D01*
X004614Y000203D01*
X004627Y000216D01*
X004637Y000230D01*
X004644Y000246D01*
X004648Y000263D01*
X004650Y000280D01*
X004650Y001080D01*
X004648Y001097D01*
X004644Y001114D01*
X004637Y001130D01*
X004627Y001144D01*
X004614Y001157D01*
X004600Y001167D01*
X004584Y001174D01*
X004567Y001178D01*
X004550Y001180D01*
X002850Y001180D01*
X002833Y001178D01*
X002816Y001174D01*
X002800Y001167D01*
X002786Y001157D01*
X002773Y001144D01*
X002763Y001130D01*
X002756Y001114D01*
X002752Y001097D01*
X002750Y001080D01*
X003550Y000680D02*
X003600Y000680D01*
X003800Y000680D02*
X003850Y000680D01*
X004800Y000380D02*
X004900Y000280D01*
X007500Y000280D01*
X007600Y000380D01*
X007600Y002980D01*
X007500Y003080D01*
X004900Y003080D01*
X004800Y002980D01*
X004800Y000380D01*
X005400Y000880D02*
X005500Y000980D01*
X006050Y001080D02*
X006050Y001380D01*
X005900Y001530D01*
X005600Y001530D01*
X005600Y001830D01*
X005900Y001830D01*
X006050Y001980D01*
X006050Y002080D01*
X005950Y002080D01*
X006200Y002330D01*
X006450Y002080D01*
X006350Y002080D01*
X006350Y001980D01*
X006500Y001830D01*
X006800Y001830D01*
X006800Y001530D01*
X006500Y001530D01*
X006350Y001380D01*
X006350Y001080D01*
X006050Y001080D01*
X006900Y000980D02*
X007000Y000880D01*
X007800Y000380D02*
X007800Y002980D01*
X007900Y003080D01*
X010500Y003080D01*
X010600Y002980D01*
X010600Y000380D01*
X010500Y000280D01*
X007900Y000280D01*
X007800Y000380D01*
X008400Y000880D02*
X008500Y000980D01*
X009050Y001080D02*
X009050Y001380D01*
X008900Y001530D01*
X008600Y001530D01*
X008600Y001830D01*
X008900Y001830D01*
X009050Y001980D01*
X009050Y002080D01*
X008950Y002080D01*
X009200Y002330D01*
X009450Y002080D01*
X009350Y002080D01*
X009350Y001980D01*
X009500Y001830D01*
X009800Y001830D01*
X009800Y001530D01*
X009500Y001530D01*
X009350Y001380D01*
X009350Y001080D01*
X009050Y001080D01*
X009900Y000980D02*
X010000Y000880D01*
X010800Y000380D02*
X010800Y002980D01*
X010900Y003080D01*
X013500Y003080D01*
X013600Y002980D01*
X013600Y000380D01*
X013500Y000280D01*
X010900Y000280D01*
X010800Y000380D01*
X011400Y000880D02*
X011500Y000980D01*
X012050Y001080D02*
X012050Y001380D01*
X011900Y001530D01*
X011600Y001530D01*
X011600Y001830D01*
X011900Y001830D01*
X012050Y001980D01*
X012050Y002080D01*
X011950Y002080D01*
X012200Y002330D01*
X012450Y002080D01*
X012350Y002080D01*
X012350Y001980D01*
X012500Y001830D01*
X012800Y001830D01*
X012800Y001530D01*
X012500Y001530D01*
X012350Y001380D01*
X012350Y001080D01*
X012050Y001080D01*
X012900Y000980D02*
X013000Y000880D01*
X013800Y000380D02*
X013800Y002980D01*
X013900Y003080D01*
X016500Y003080D01*
X016600Y002980D01*
X016600Y000380D01*
X016500Y000280D01*
X013900Y000280D01*
X013800Y000380D01*
X014400Y000880D02*
X014500Y000980D01*
X015050Y001080D02*
X015050Y001380D01*
X014900Y001530D01*
X014600Y001530D01*
X014600Y001830D01*
X014900Y001830D01*
X015050Y001980D01*
X015050Y002080D01*
X014950Y002080D01*
X015200Y002330D01*
X015450Y002080D01*
X015350Y002080D01*
X015350Y001980D01*
X015500Y001830D01*
X015800Y001830D01*
X015800Y001530D01*
X015500Y001530D01*
X015350Y001380D01*
X015350Y001080D01*
X015050Y001080D01*
X015900Y000980D02*
X016000Y000880D01*
X017450Y002180D02*
X017950Y002180D01*
X018200Y002430D01*
X018200Y002930D01*
X017950Y003180D01*
X018200Y003430D01*
X018200Y003930D01*
X017950Y004180D01*
X018200Y004430D01*
X018200Y004930D01*
X017950Y005180D01*
X018200Y005430D01*
X018200Y005930D01*
X017950Y006180D01*
X018200Y006430D01*
X018200Y006930D01*
X017950Y007180D01*
X018200Y007430D01*
X018200Y007930D01*
X017950Y008180D01*
X017450Y008180D01*
X017200Y007930D01*
X017200Y007430D01*
X017450Y007180D01*
X017200Y006930D01*
X017200Y006430D01*
X017450Y006180D01*
X017200Y005930D01*
X017200Y005430D01*
X017450Y005180D01*
X017200Y004930D01*
X017200Y004430D01*
X017450Y004180D01*
X017200Y003930D01*
X017200Y003430D01*
X017450Y003180D01*
X017200Y002930D01*
X017200Y002430D01*
X017450Y002180D01*
X016000Y002430D02*
X015900Y002330D01*
X015200Y002650D02*
X015200Y002800D01*
X014450Y002330D02*
X014350Y002430D01*
X013000Y002430D02*
X012900Y002330D01*
X012200Y002650D02*
X012200Y002800D01*
X011450Y002330D02*
X011350Y002430D01*
X011350Y003180D02*
X013050Y003180D01*
X013067Y003182D01*
X013084Y003186D01*
X013100Y003193D01*
X013114Y003203D01*
X013127Y003216D01*
X013137Y003230D01*
X013144Y003246D01*
X013148Y003263D01*
X013150Y003280D01*
X013150Y004080D01*
X013148Y004097D01*
X013144Y004114D01*
X013137Y004130D01*
X013127Y004144D01*
X013114Y004157D01*
X013100Y004167D01*
X013084Y004174D01*
X013067Y004178D01*
X013050Y004180D01*
X011350Y004180D01*
X011333Y004178D01*
X011316Y004174D01*
X011300Y004167D01*
X011286Y004157D01*
X011273Y004144D01*
X011263Y004130D01*
X011256Y004114D01*
X011252Y004097D01*
X011250Y004080D01*
X011250Y003280D01*
X011252Y003263D01*
X011256Y003246D01*
X011263Y003230D01*
X011273Y003216D01*
X011286Y003203D01*
X011300Y003193D01*
X011316Y003186D01*
X011333Y003182D01*
X011350Y003180D01*
X012050Y003680D02*
X012100Y003680D01*
X012300Y003680D02*
X012350Y003680D01*
X013750Y004280D02*
X013750Y005080D01*
X013752Y005097D01*
X013756Y005114D01*
X013763Y005130D01*
X013773Y005144D01*
X013786Y005157D01*
X013800Y005167D01*
X013816Y005174D01*
X013833Y005178D01*
X013850Y005180D01*
X015550Y005180D01*
X015567Y005178D01*
X015584Y005174D01*
X015600Y005167D01*
X015614Y005157D01*
X015627Y005144D01*
X015637Y005130D01*
X015644Y005114D01*
X015648Y005097D01*
X015650Y005080D01*
X015650Y004280D01*
X015648Y004263D01*
X015644Y004246D01*
X015637Y004230D01*
X015627Y004216D01*
X015614Y004203D01*
X015600Y004193D01*
X015584Y004186D01*
X015567Y004182D01*
X015550Y004180D01*
X013850Y004180D01*
X013833Y004182D01*
X013816Y004186D01*
X013800Y004193D01*
X013786Y004203D01*
X013773Y004216D01*
X013763Y004230D01*
X013756Y004246D01*
X013752Y004263D01*
X013750Y004280D01*
X014050Y004380D02*
X014050Y004980D01*
X014052Y004997D01*
X014056Y005014D01*
X014063Y005030D01*
X014073Y005044D01*
X014086Y005057D01*
X014100Y005067D01*
X014116Y005074D01*
X014133Y005078D01*
X014150Y005080D01*
X015250Y005080D01*
X015267Y005078D01*
X015284Y005074D01*
X015300Y005067D01*
X015314Y005057D01*
X015327Y005044D01*
X015337Y005030D01*
X015344Y005014D01*
X015348Y004997D01*
X015350Y004980D01*
X015350Y004380D01*
X015348Y004363D01*
X015344Y004346D01*
X015337Y004330D01*
X015327Y004316D01*
X015314Y004303D01*
X015300Y004293D01*
X015284Y004286D01*
X015267Y004282D01*
X015250Y004280D01*
X014150Y004280D01*
X014133Y004282D01*
X014116Y004286D01*
X014100Y004293D01*
X014086Y004303D01*
X014073Y004316D01*
X014063Y004330D01*
X014056Y004346D01*
X014052Y004363D01*
X014050Y004380D01*
X014550Y004680D02*
X014600Y004680D01*
X014800Y004680D02*
X014850Y004680D01*
X015450Y005280D02*
X015600Y005280D01*
X015617Y005282D01*
X015634Y005286D01*
X015650Y005293D01*
X015664Y005303D01*
X015677Y005316D01*
X015687Y005330D01*
X015694Y005346D01*
X015698Y005363D01*
X015700Y005380D01*
X015700Y005980D01*
X015698Y005997D01*
X015694Y006014D01*
X015687Y006030D01*
X015677Y006044D01*
X015664Y006057D01*
X015650Y006067D01*
X015634Y006074D01*
X015617Y006078D01*
X015600Y006080D01*
X015450Y006080D01*
X015400Y006030D01*
X014000Y006030D01*
X013950Y006080D01*
X013800Y006080D01*
X013783Y006078D01*
X013766Y006074D01*
X013750Y006067D01*
X013736Y006057D01*
X013723Y006044D01*
X013713Y006030D01*
X013706Y006014D01*
X013702Y005997D01*
X013700Y005980D01*
X013700Y005380D01*
X013702Y005363D01*
X013706Y005346D01*
X013713Y005330D01*
X013723Y005316D01*
X013736Y005303D01*
X013750Y005293D01*
X013766Y005286D01*
X013783Y005282D01*
X013800Y005280D01*
X013950Y005280D01*
X014000Y005330D01*
X015400Y005330D01*
X015450Y005280D01*
X015550Y007180D02*
X013850Y007180D01*
X013833Y007182D01*
X013816Y007186D01*
X013800Y007193D01*
X013786Y007203D01*
X013773Y007216D01*
X013763Y007230D01*
X013756Y007246D01*
X013752Y007263D01*
X013750Y007280D01*
X013750Y008080D01*
X013752Y008097D01*
X013756Y008114D01*
X013763Y008130D01*
X013773Y008144D01*
X013786Y008157D01*
X013800Y008167D01*
X013816Y008174D01*
X013833Y008178D01*
X013850Y008180D01*
X015550Y008180D01*
X015567Y008178D01*
X015584Y008174D01*
X015600Y008167D01*
X015614Y008157D01*
X015627Y008144D01*
X015637Y008130D01*
X015644Y008114D01*
X015648Y008097D01*
X015650Y008080D01*
X015650Y007280D01*
X015648Y007263D01*
X015644Y007246D01*
X015637Y007230D01*
X015627Y007216D01*
X015614Y007203D01*
X015600Y007193D01*
X015584Y007186D01*
X015567Y007182D01*
X015550Y007180D01*
X015350Y007380D02*
X015350Y007980D01*
X015348Y007997D01*
X015344Y008014D01*
X015337Y008030D01*
X015327Y008044D01*
X015314Y008057D01*
X015300Y008067D01*
X015284Y008074D01*
X015267Y008078D01*
X015250Y008080D01*
X014150Y008080D01*
X014133Y008078D01*
X014116Y008074D01*
X014100Y008067D01*
X014086Y008057D01*
X014073Y008044D01*
X014063Y008030D01*
X014056Y008014D01*
X014052Y007997D01*
X014050Y007980D01*
X014050Y007380D01*
X014052Y007363D01*
X014056Y007346D01*
X014063Y007330D01*
X014073Y007316D01*
X014086Y007303D01*
X014100Y007293D01*
X014116Y007286D01*
X014133Y007282D01*
X014150Y007280D01*
X015250Y007280D01*
X015267Y007282D01*
X015284Y007286D01*
X015300Y007293D01*
X015314Y007303D01*
X015327Y007316D01*
X015337Y007330D01*
X015344Y007346D01*
X015348Y007363D01*
X015350Y007380D01*
X014850Y007680D02*
X014800Y007680D01*
X014600Y007680D02*
X014550Y007680D01*
X013850Y009180D02*
X015550Y009180D01*
X015567Y009182D01*
X015584Y009186D01*
X015600Y009193D01*
X015614Y009203D01*
X015627Y009216D01*
X015637Y009230D01*
X015644Y009246D01*
X015648Y009263D01*
X015650Y009280D01*
X015650Y010080D01*
X015648Y010097D01*
X015644Y010114D01*
X015637Y010130D01*
X015627Y010144D01*
X015614Y010157D01*
X015600Y010167D01*
X015584Y010174D01*
X015567Y010178D01*
X015550Y010180D01*
X013850Y010180D01*
X013833Y010178D01*
X013816Y010174D01*
X013800Y010167D01*
X013786Y010157D01*
X013773Y010144D01*
X013763Y010130D01*
X013756Y010114D01*
X013752Y010097D01*
X013750Y010080D01*
X013750Y009280D01*
X013752Y009263D01*
X013756Y009246D01*
X013763Y009230D01*
X013773Y009216D01*
X013786Y009203D01*
X013800Y009193D01*
X013816Y009186D01*
X013833Y009182D01*
X013850Y009180D01*
X014550Y009680D02*
X014600Y009680D01*
X014800Y009680D02*
X014850Y009680D01*
X007700Y009030D02*
X007700Y007330D01*
X007698Y007313D01*
X007694Y007296D01*
X007687Y007280D01*
X007677Y007266D01*
X007664Y007253D01*
X007650Y007243D01*
X007634Y007236D01*
X007617Y007232D01*
X007600Y007230D01*
X006800Y007230D01*
X006783Y007232D01*
X006766Y007236D01*
X006750Y007243D01*
X006736Y007253D01*
X006723Y007266D01*
X006713Y007280D01*
X006706Y007296D01*
X006702Y007313D01*
X006700Y007330D01*
X006700Y009030D01*
X006702Y009047D01*
X006706Y009064D01*
X006713Y009080D01*
X006723Y009094D01*
X006736Y009107D01*
X006750Y009117D01*
X006766Y009124D01*
X006783Y009128D01*
X006800Y009130D01*
X007600Y009130D01*
X007617Y009128D01*
X007634Y009124D01*
X007650Y009117D01*
X007664Y009107D01*
X007677Y009094D01*
X007687Y009080D01*
X007694Y009064D01*
X007698Y009047D01*
X007700Y009030D01*
X007200Y008330D02*
X007200Y008280D01*
X007200Y008080D02*
X007200Y008030D01*
X006600Y007130D02*
X005800Y007130D01*
X005783Y007128D01*
X005766Y007124D01*
X005750Y007117D01*
X005736Y007107D01*
X005723Y007094D01*
X005713Y007080D01*
X005706Y007064D01*
X005702Y007047D01*
X005700Y007030D01*
X005700Y005330D01*
X005702Y005313D01*
X005706Y005296D01*
X005713Y005280D01*
X005723Y005266D01*
X005736Y005253D01*
X005750Y005243D01*
X005766Y005236D01*
X005783Y005232D01*
X005800Y005230D01*
X006600Y005230D01*
X006617Y005232D01*
X006634Y005236D01*
X006650Y005243D01*
X006664Y005253D01*
X006677Y005266D01*
X006687Y005280D01*
X006694Y005296D01*
X006698Y005313D01*
X006700Y005330D01*
X006700Y007030D01*
X006698Y007047D01*
X006694Y007064D01*
X006687Y007080D01*
X006677Y007094D01*
X006664Y007107D01*
X006650Y007117D01*
X006634Y007124D01*
X006617Y007128D01*
X006600Y007130D01*
X006200Y006330D02*
X006200Y006280D01*
X006200Y006080D02*
X006200Y006030D01*
X004600Y005580D02*
X004600Y005430D01*
X004550Y005380D01*
X004550Y003980D01*
X004600Y003930D01*
X004600Y003780D01*
X004598Y003763D01*
X004594Y003746D01*
X004587Y003730D01*
X004577Y003716D01*
X004564Y003703D01*
X004550Y003693D01*
X004534Y003686D01*
X004517Y003682D01*
X004500Y003680D01*
X003900Y003680D01*
X003883Y003682D01*
X003866Y003686D01*
X003850Y003693D01*
X003836Y003703D01*
X003823Y003716D01*
X003813Y003730D01*
X003806Y003746D01*
X003802Y003763D01*
X003800Y003780D01*
X003800Y003930D01*
X003850Y003980D01*
X003850Y005380D01*
X003800Y005430D01*
X003800Y005580D01*
X003802Y005597D01*
X003806Y005614D01*
X003813Y005630D01*
X003823Y005644D01*
X003836Y005657D01*
X003850Y005667D01*
X003866Y005674D01*
X003883Y005678D01*
X003900Y005680D01*
X004500Y005680D01*
X004517Y005678D01*
X004534Y005674D01*
X004550Y005667D01*
X004564Y005657D01*
X004577Y005644D01*
X004587Y005630D01*
X004594Y005614D01*
X004598Y005597D01*
X004600Y005580D01*
X003500Y004680D02*
X002900Y004680D01*
X002883Y004678D01*
X002866Y004674D01*
X002850Y004667D01*
X002836Y004657D01*
X002823Y004644D01*
X002813Y004630D01*
X002806Y004614D01*
X002802Y004597D01*
X002800Y004580D01*
X002800Y004430D01*
X002850Y004380D01*
X002850Y002980D01*
X002800Y002930D01*
X002800Y002780D01*
X002802Y002763D01*
X002806Y002746D01*
X002813Y002730D01*
X002823Y002716D01*
X002836Y002703D01*
X002850Y002693D01*
X002866Y002686D01*
X002883Y002682D01*
X002900Y002680D01*
X003500Y002680D01*
X003517Y002682D01*
X003534Y002686D01*
X003550Y002693D01*
X003564Y002703D01*
X003577Y002716D01*
X003587Y002730D01*
X003594Y002746D01*
X003598Y002763D01*
X003600Y002780D01*
X003600Y002930D01*
X003550Y002980D01*
X003550Y004380D01*
X003600Y004430D01*
X003600Y004580D01*
X003598Y004597D01*
X003594Y004614D01*
X003587Y004630D01*
X003577Y004644D01*
X003564Y004657D01*
X003550Y004667D01*
X003534Y004674D01*
X003517Y004678D01*
X003500Y004680D01*
X002200Y004430D02*
X002200Y003930D01*
X001950Y003680D01*
X001450Y003680D01*
X001200Y003930D01*
X001200Y004430D01*
X001450Y004680D01*
X001200Y004930D01*
X001200Y005430D01*
X001450Y005680D01*
X001200Y005930D01*
X001200Y006430D01*
X001450Y006680D01*
X001950Y006680D01*
X002200Y006430D01*
X002200Y005930D01*
X001950Y005680D01*
X002200Y005430D01*
X002200Y004930D01*
X001950Y004680D01*
X002200Y004430D01*
X004750Y004080D02*
X004750Y003280D01*
X004752Y003263D01*
X004756Y003246D01*
X004763Y003230D01*
X004773Y003216D01*
X004786Y003203D01*
X004800Y003193D01*
X004816Y003186D01*
X004833Y003182D01*
X004850Y003180D01*
X006550Y003180D01*
X006567Y003182D01*
X006584Y003186D01*
X006600Y003193D01*
X006614Y003203D01*
X006627Y003216D01*
X006637Y003230D01*
X006644Y003246D01*
X006648Y003263D01*
X006650Y003280D01*
X006650Y004080D01*
X006648Y004097D01*
X006644Y004114D01*
X006637Y004130D01*
X006627Y004144D01*
X006614Y004157D01*
X006600Y004167D01*
X006584Y004174D01*
X006567Y004178D01*
X006550Y004180D01*
X004850Y004180D01*
X004833Y004178D01*
X004816Y004174D01*
X004800Y004167D01*
X004786Y004157D01*
X004773Y004144D01*
X004763Y004130D01*
X004756Y004114D01*
X004752Y004097D01*
X004750Y004080D01*
X005550Y003680D02*
X005600Y003680D01*
X005800Y003680D02*
X005850Y003680D01*
X006200Y002800D02*
X006200Y002650D01*
X006900Y002330D02*
X007000Y002430D01*
X008350Y002430D02*
X008450Y002330D01*
X009200Y002650D02*
X009200Y002800D01*
X009900Y002330D02*
X010000Y002430D01*
X009950Y004280D02*
X009900Y004330D01*
X008500Y004330D01*
X008450Y004280D01*
X008300Y004280D01*
X008283Y004282D01*
X008266Y004286D01*
X008250Y004293D01*
X008236Y004303D01*
X008223Y004316D01*
X008213Y004330D01*
X008206Y004346D01*
X008202Y004363D01*
X008200Y004380D01*
X008200Y004980D01*
X008202Y004997D01*
X008206Y005014D01*
X008213Y005030D01*
X008223Y005044D01*
X008236Y005057D01*
X008250Y005067D01*
X008266Y005074D01*
X008283Y005078D01*
X008300Y005080D01*
X008450Y005080D01*
X008500Y005030D01*
X009900Y005030D01*
X009950Y005080D01*
X010100Y005080D01*
X010117Y005078D01*
X010134Y005074D01*
X010150Y005067D01*
X010164Y005057D01*
X010177Y005044D01*
X010187Y005030D01*
X010194Y005014D01*
X010198Y004997D01*
X010200Y004980D01*
X010200Y004380D01*
X010198Y004363D01*
X010194Y004346D01*
X010187Y004330D01*
X010177Y004316D01*
X010164Y004303D01*
X010150Y004293D01*
X010134Y004286D01*
X010117Y004282D01*
X010100Y004280D01*
X009950Y004280D01*
X005450Y002330D02*
X005350Y002430D01*
D13*
X005600Y003380D02*
X005600Y003680D01*
X005600Y003980D01*
X005800Y003980D02*
X005800Y003680D01*
X005800Y003380D01*
X003800Y000980D02*
X003800Y000680D01*
X003800Y000380D01*
X003600Y000380D02*
X003600Y000680D01*
X003600Y000980D01*
X012100Y003380D02*
X012100Y003680D01*
X012100Y003980D01*
X012300Y003980D02*
X012300Y003680D01*
X012300Y003380D01*
X014600Y004380D02*
X014600Y004680D01*
X014600Y004980D01*
X014800Y004980D02*
X014800Y004680D01*
X014800Y004380D01*
X014800Y007380D02*
X014800Y007680D01*
X014800Y007980D01*
X014600Y007980D02*
X014600Y007680D01*
X014600Y007380D01*
X014600Y009380D02*
X014600Y009680D01*
X014600Y009980D01*
X014800Y009980D02*
X014800Y009680D01*
X014800Y009380D01*
X007917Y006680D02*
X007919Y006713D01*
X007925Y006746D01*
X007935Y006779D01*
X007948Y006809D01*
X007965Y006838D01*
X007986Y006865D01*
X008009Y006889D01*
X008035Y006910D01*
X008063Y006928D01*
X008094Y006942D01*
X008125Y006953D01*
X008158Y006960D01*
X008192Y006963D01*
X008225Y006962D01*
X008258Y006957D01*
X008291Y006948D01*
X008322Y006935D01*
X008351Y006919D01*
X008378Y006900D01*
X008403Y006877D01*
X008425Y006852D01*
X008444Y006824D01*
X008459Y006794D01*
X008471Y006763D01*
X008479Y006730D01*
X008483Y006697D01*
X008483Y006663D01*
X008479Y006630D01*
X008471Y006597D01*
X008459Y006566D01*
X008444Y006536D01*
X008425Y006508D01*
X008403Y006483D01*
X008378Y006460D01*
X008351Y006441D01*
X008322Y006425D01*
X008291Y006412D01*
X008258Y006403D01*
X008225Y006398D01*
X008192Y006397D01*
X008158Y006400D01*
X008125Y006407D01*
X008094Y006418D01*
X008063Y006432D01*
X008035Y006450D01*
X008009Y006471D01*
X007986Y006495D01*
X007965Y006522D01*
X007948Y006551D01*
X007935Y006581D01*
X007925Y006614D01*
X007919Y006647D01*
X007917Y006680D01*
X006500Y006280D02*
X006200Y006280D01*
X005900Y006280D01*
X005900Y006080D02*
X006200Y006080D01*
X006500Y006080D01*
X006900Y008080D02*
X007200Y008080D01*
X007500Y008080D01*
X007500Y008280D02*
X007200Y008280D01*
X006900Y008280D01*
D14*
X006275Y007870D02*
X006200Y007945D01*
X006050Y007945D01*
X005975Y007870D01*
X005975Y007795D01*
X006050Y007645D01*
X005825Y007645D01*
X005825Y007945D01*
X006275Y007870D02*
X006275Y007720D01*
X006200Y007645D01*
X006200Y007484D02*
X006275Y007409D01*
X006275Y007259D01*
X006200Y007184D01*
X005900Y007184D01*
X005825Y007259D01*
X005825Y007409D01*
X005900Y007484D01*
X008225Y007455D02*
X008375Y007455D01*
X008300Y007455D02*
X008300Y007905D01*
X008225Y007905D02*
X008375Y007905D01*
X008532Y007830D02*
X008532Y007530D01*
X008607Y007455D01*
X008757Y007455D01*
X008832Y007530D01*
X008992Y007455D02*
X009293Y007455D01*
X009142Y007455D02*
X009142Y007905D01*
X008992Y007755D01*
X008832Y007830D02*
X008757Y007905D01*
X008607Y007905D01*
X008532Y007830D01*
X007200Y009184D02*
X006900Y009184D01*
X006825Y009259D01*
X006825Y009409D01*
X006900Y009484D01*
X007050Y009645D02*
X007050Y009870D01*
X007125Y009945D01*
X007200Y009945D01*
X007275Y009870D01*
X007275Y009720D01*
X007200Y009645D01*
X007050Y009645D01*
X006900Y009795D01*
X006825Y009945D01*
X007200Y009484D02*
X007275Y009409D01*
X007275Y009259D01*
X007200Y009184D01*
X001925Y007045D02*
X001925Y006745D01*
X001925Y006895D02*
X001475Y006895D01*
X001625Y006745D01*
X004825Y004680D02*
X004825Y004380D01*
X004900Y004305D01*
X005050Y004305D01*
X005125Y004380D01*
X005285Y004380D02*
X005360Y004305D01*
X005511Y004305D01*
X005586Y004380D01*
X005586Y004455D01*
X005511Y004530D01*
X005436Y004530D01*
X005511Y004530D02*
X005586Y004605D01*
X005586Y004680D01*
X005511Y004755D01*
X005360Y004755D01*
X005285Y004680D01*
X005125Y004680D02*
X005050Y004755D01*
X004900Y004755D01*
X004825Y004680D01*
X003390Y001555D02*
X003165Y001330D01*
X003465Y001330D01*
X003390Y001105D02*
X003390Y001555D01*
X003004Y001480D02*
X002929Y001555D01*
X002779Y001555D01*
X002704Y001480D01*
X002704Y001180D01*
X002779Y001105D01*
X002929Y001105D01*
X003004Y001180D01*
X005025Y000739D02*
X005082Y000795D01*
X005195Y000795D01*
X005252Y000739D01*
X005252Y000682D01*
X005195Y000625D01*
X005252Y000568D01*
X005252Y000512D01*
X005195Y000455D01*
X005082Y000455D01*
X005025Y000512D01*
X005138Y000625D02*
X005195Y000625D01*
X007075Y000682D02*
X007188Y000795D01*
X007188Y000455D01*
X007075Y000455D02*
X007302Y000455D01*
X008025Y000512D02*
X008082Y000455D01*
X008195Y000455D01*
X008252Y000512D01*
X008252Y000568D01*
X008195Y000625D01*
X008138Y000625D01*
X008195Y000625D02*
X008252Y000682D01*
X008252Y000739D01*
X008195Y000795D01*
X008082Y000795D01*
X008025Y000739D01*
X010075Y000682D02*
X010188Y000795D01*
X010188Y000455D01*
X010075Y000455D02*
X010302Y000455D01*
X011025Y000512D02*
X011082Y000455D01*
X011195Y000455D01*
X011252Y000512D01*
X011252Y000568D01*
X011195Y000625D01*
X011138Y000625D01*
X011195Y000625D02*
X011252Y000682D01*
X011252Y000739D01*
X011195Y000795D01*
X011082Y000795D01*
X011025Y000739D01*
X013075Y000682D02*
X013188Y000795D01*
X013188Y000455D01*
X013075Y000455D02*
X013302Y000455D01*
X014025Y000512D02*
X014082Y000455D01*
X014195Y000455D01*
X014252Y000512D01*
X014252Y000568D01*
X014195Y000625D01*
X014138Y000625D01*
X014195Y000625D02*
X014252Y000682D01*
X014252Y000739D01*
X014195Y000795D01*
X014082Y000795D01*
X014025Y000739D01*
X016075Y000682D02*
X016188Y000795D01*
X016188Y000455D01*
X016075Y000455D02*
X016302Y000455D01*
X018450Y002645D02*
X018600Y002495D01*
X018600Y002720D01*
X018675Y002795D01*
X018750Y002795D01*
X018825Y002720D01*
X018825Y002570D01*
X018750Y002495D01*
X018600Y002495D01*
X018450Y002645D02*
X018375Y002795D01*
X012086Y004305D02*
X011785Y004305D01*
X012086Y004605D01*
X012086Y004680D01*
X012011Y004755D01*
X011860Y004755D01*
X011785Y004680D01*
X011625Y004680D02*
X011550Y004755D01*
X011400Y004755D01*
X011325Y004680D01*
X011325Y004380D01*
X011400Y004305D01*
X011550Y004305D01*
X011625Y004380D01*
X016575Y007645D02*
X016725Y007495D01*
X016575Y007645D02*
X017025Y007645D01*
X017025Y007495D02*
X017025Y007795D01*
X015465Y008605D02*
X015165Y008605D01*
X015315Y008605D02*
X015315Y009055D01*
X015165Y008905D01*
X015004Y008980D02*
X014929Y009055D01*
X014779Y009055D01*
X014704Y008980D01*
X014704Y008680D01*
X014779Y008605D01*
X014929Y008605D01*
X015004Y008680D01*
D15*
X011700Y008180D02*
X011700Y006180D01*
X007700Y006180D01*
X007700Y006580D01*
X007700Y006780D01*
X007700Y006580D02*
X007700Y008180D01*
X011700Y008180D01*
D16*
X013625Y005680D03*
X015775Y005680D03*
X010275Y004680D03*
X008125Y004680D03*
D17*
X009002Y004650D02*
X009002Y004300D01*
X009002Y004417D02*
X009177Y004417D01*
X009235Y004475D01*
X009235Y004592D01*
X009177Y004650D01*
X009002Y004650D01*
X009119Y004417D02*
X009235Y004300D01*
X009361Y004300D02*
X009594Y004300D01*
X009478Y004300D02*
X009478Y004650D01*
X009361Y004534D01*
X014220Y005710D02*
X014220Y006060D01*
X014395Y006060D01*
X014454Y006002D01*
X014454Y005885D01*
X014395Y005827D01*
X014220Y005827D01*
X014337Y005827D02*
X014454Y005710D01*
X014579Y005710D02*
X014813Y005944D01*
X014813Y006002D01*
X014754Y006060D01*
X014637Y006060D01*
X014579Y006002D01*
X014579Y005710D02*
X014813Y005710D01*
X004170Y004559D02*
X004112Y004559D01*
X003878Y004793D01*
X003820Y004793D01*
X003820Y004559D01*
X003878Y004434D02*
X003995Y004434D01*
X004053Y004375D01*
X004053Y004200D01*
X004053Y004317D02*
X004170Y004434D01*
X003878Y004434D02*
X003820Y004375D01*
X003820Y004200D01*
X004170Y004200D01*
X003170Y003734D02*
X003170Y003617D01*
X003112Y003559D01*
X003053Y003559D01*
X002995Y003617D01*
X002995Y003734D01*
X003053Y003793D01*
X003112Y003793D01*
X003170Y003734D01*
X002995Y003734D02*
X002936Y003793D01*
X002878Y003793D01*
X002820Y003734D01*
X002820Y003617D01*
X002878Y003559D01*
X002936Y003559D01*
X002995Y003617D01*
X002995Y003434D02*
X002878Y003434D01*
X002820Y003375D01*
X002820Y003200D01*
X003170Y003200D01*
X003053Y003200D02*
X003053Y003375D01*
X002995Y003434D01*
X003053Y003317D02*
X003170Y003434D01*
D18*
X004200Y003605D03*
X003200Y002605D03*
X003200Y004755D03*
X004200Y005755D03*
M02*
