G75*
%MOIN*%
%OFA0B0*%
%FSLAX24Y24*%
%IPPOS*%
%LPD*%
%AMOC8*
5,1,8,0,0,1.08239X$1,22.5*
%
%ADD10R,0.0680X0.2630*%
%ADD11OC8,0.0680*%
%ADD12C,0.0600*%
%ADD13C,0.0640*%
%ADD14OC8,0.1080*%
%ADD15C,0.0600*%
%ADD16R,0.0820X0.0820*%
%ADD17C,0.0820*%
%ADD18C,0.2080*%
%ADD19OC8,0.0600*%
%ADD20OC8,0.0640*%
D10*
X001680Y001940D03*
X002680Y001940D03*
X003680Y001940D03*
X004680Y001940D03*
X005680Y001940D03*
X006680Y001940D03*
X007680Y001940D03*
X008680Y001940D03*
X009680Y001940D03*
X010680Y001940D03*
X011680Y001940D03*
X012680Y001940D03*
X013680Y001940D03*
X014680Y001940D03*
X015680Y001940D03*
X016680Y001940D03*
X017680Y001940D03*
X018680Y001940D03*
X019680Y001940D03*
X020680Y001940D03*
X021680Y001940D03*
X022680Y001940D03*
X023680Y001940D03*
X024680Y001940D03*
X025680Y001940D03*
X026680Y001940D03*
X027680Y001940D03*
X028680Y001940D03*
X029680Y001940D03*
X030680Y001940D03*
X031680Y001940D03*
D11*
X031680Y004940D03*
X030680Y004940D03*
X029680Y004940D03*
X028680Y004940D03*
X027680Y004940D03*
X026680Y004940D03*
X025680Y004940D03*
X024680Y004940D03*
X023680Y004940D03*
X022680Y004940D03*
X021680Y004940D03*
X020680Y004940D03*
X019680Y004940D03*
X018680Y004940D03*
X017680Y004940D03*
X016680Y004940D03*
X015680Y004940D03*
X014680Y004940D03*
X013680Y004940D03*
X012680Y004940D03*
X011680Y004940D03*
X010680Y004940D03*
X009680Y004940D03*
X008680Y004940D03*
X007680Y004940D03*
X006680Y004940D03*
X005680Y004940D03*
X004680Y004940D03*
X003680Y004940D03*
X002680Y004940D03*
X001680Y004940D03*
X001680Y005940D03*
X002680Y005940D03*
X003680Y005940D03*
X004680Y005940D03*
X005680Y005940D03*
X006680Y005940D03*
X007680Y005940D03*
X008680Y005940D03*
X009680Y005940D03*
X010680Y005940D03*
X011680Y005940D03*
X012680Y005940D03*
X013680Y005940D03*
X014680Y005940D03*
X015680Y005940D03*
X016680Y005940D03*
X017680Y005940D03*
X018680Y005940D03*
X019680Y005940D03*
X020680Y005940D03*
X021680Y005940D03*
X022680Y005940D03*
X023680Y005940D03*
X024680Y005940D03*
X025680Y005940D03*
X026680Y005940D03*
X027680Y005940D03*
X028680Y005940D03*
X029680Y005940D03*
X030680Y005940D03*
X031680Y005940D03*
D12*
X032920Y005440D02*
X033440Y005440D01*
X033440Y006440D02*
X032920Y006440D01*
X032920Y007440D02*
X033440Y007440D01*
X033440Y008440D02*
X032920Y008440D01*
X031940Y008440D02*
X031420Y008440D01*
X031420Y009440D02*
X031940Y009440D01*
X032920Y009440D02*
X033440Y009440D01*
X033440Y010440D02*
X032920Y010440D01*
X031940Y010440D02*
X031420Y010440D01*
X031420Y011440D02*
X031940Y011440D01*
X032920Y011440D02*
X033440Y011440D01*
X031940Y012440D02*
X031420Y012440D01*
X031420Y013440D02*
X031940Y013440D01*
X031940Y014440D02*
X031420Y014440D01*
X031420Y015440D02*
X031940Y015440D01*
X031940Y016440D02*
X031420Y016440D01*
X031420Y017440D02*
X031940Y017440D01*
X031940Y018440D02*
X031420Y018440D01*
X031420Y019440D02*
X031940Y019440D01*
X025940Y019440D02*
X025420Y019440D01*
X025420Y018440D02*
X025940Y018440D01*
X025940Y017440D02*
X025420Y017440D01*
X025420Y016440D02*
X025940Y016440D01*
X025940Y015440D02*
X025420Y015440D01*
X025420Y014440D02*
X025940Y014440D01*
X025940Y013440D02*
X025420Y013440D01*
X025420Y012440D02*
X025940Y012440D01*
X025940Y011440D02*
X025420Y011440D01*
X025420Y010440D02*
X025940Y010440D01*
X025940Y009440D02*
X025420Y009440D01*
X025420Y008440D02*
X025940Y008440D01*
X021680Y008680D02*
X021680Y009200D01*
X020680Y009200D02*
X020680Y008680D01*
X019680Y008680D02*
X019680Y009200D01*
X018680Y009200D02*
X018680Y008680D01*
X017680Y008680D02*
X017680Y009200D01*
X016680Y009200D02*
X016680Y008680D01*
X015680Y008680D02*
X015680Y009200D01*
X014680Y009200D02*
X014680Y008680D01*
X011680Y008700D02*
X011680Y008180D01*
X010680Y008180D02*
X010680Y008700D01*
X009680Y008700D02*
X009680Y008180D01*
X008680Y008180D02*
X008680Y008700D01*
X007680Y008700D02*
X007680Y008180D01*
X006680Y008180D02*
X006680Y008700D01*
X005680Y008700D02*
X005680Y008180D01*
X004680Y008180D02*
X004680Y008700D01*
X003680Y008700D02*
X003680Y008180D01*
X002680Y008180D02*
X002680Y008700D01*
X002680Y011180D02*
X002680Y011700D01*
X003680Y011700D02*
X003680Y011180D01*
X004680Y011180D02*
X004680Y011700D01*
X005680Y011700D02*
X005680Y011180D01*
X006680Y011180D02*
X006680Y011700D01*
X007680Y011700D02*
X007680Y011180D01*
X008680Y011180D02*
X008680Y011700D01*
X009680Y011700D02*
X009680Y011180D01*
X010680Y011180D02*
X010680Y011700D01*
X011680Y011700D02*
X011680Y011180D01*
X011180Y012680D02*
X011180Y013200D01*
X010180Y013200D02*
X010180Y012680D01*
X009180Y012680D02*
X009180Y013200D01*
X009180Y013680D02*
X009180Y014200D01*
X008180Y014200D02*
X008180Y013680D01*
X008180Y013200D02*
X008180Y012680D01*
X007180Y012680D02*
X007180Y013200D01*
X007180Y013680D02*
X007180Y014200D01*
X006180Y014200D02*
X006180Y013680D01*
X006180Y013200D02*
X006180Y012680D01*
X005180Y012680D02*
X005180Y013200D01*
X005180Y013680D02*
X005180Y014200D01*
X004180Y014200D02*
X004180Y013680D01*
X004180Y013200D02*
X004180Y012680D01*
X003180Y012680D02*
X003180Y013200D01*
X003180Y013680D02*
X003180Y014200D01*
X003180Y016680D02*
X003180Y017200D01*
X004180Y017200D02*
X004180Y016680D01*
X005180Y016680D02*
X005180Y017200D01*
X006180Y017200D02*
X006180Y016680D01*
X007180Y016680D02*
X007180Y017200D01*
X008180Y017200D02*
X008180Y016680D01*
X009180Y016680D02*
X009180Y017200D01*
X010180Y017200D02*
X010180Y016680D01*
X010180Y014200D02*
X010180Y013680D01*
X014680Y012200D02*
X014680Y011680D01*
X015680Y011680D02*
X015680Y012200D01*
X016680Y012200D02*
X016680Y011680D01*
X017680Y011680D02*
X017680Y012200D01*
X018680Y012200D02*
X018680Y011680D01*
X019680Y011680D02*
X019680Y012200D01*
X020680Y012200D02*
X020680Y011680D01*
X021680Y011680D02*
X021680Y012200D01*
X035920Y011440D02*
X036440Y011440D01*
X036440Y010440D02*
X035920Y010440D01*
X035920Y009440D02*
X036440Y009440D01*
X036440Y008440D02*
X035920Y008440D01*
X035920Y007440D02*
X036440Y007440D01*
X036440Y006440D02*
X035920Y006440D01*
X035920Y005440D02*
X036440Y005440D01*
D13*
X024180Y019660D02*
X024180Y020220D01*
X023180Y020220D02*
X023180Y019660D01*
D14*
X020430Y019440D03*
X020430Y015440D03*
X013430Y017440D03*
D15*
X024680Y017440D03*
X024680Y018440D03*
D16*
X038121Y021621D03*
D17*
X039239Y021074D03*
X038121Y020531D03*
X039239Y019983D03*
X038121Y019440D03*
X039239Y018897D03*
X038121Y018349D03*
X039239Y017806D03*
X038121Y017259D03*
D18*
X038680Y014519D03*
X038680Y024361D03*
D19*
X033180Y019440D03*
X033180Y018440D03*
X035180Y012440D03*
X036180Y012440D03*
X013680Y011940D03*
X013680Y010940D03*
X001680Y010440D03*
X001680Y011440D03*
D20*
X037680Y010940D03*
X038680Y010940D03*
X038680Y009940D03*
X037680Y009940D03*
X037680Y008940D03*
X038680Y008940D03*
X038680Y007940D03*
X037680Y007940D03*
X037680Y006940D03*
X038680Y006940D03*
X038680Y005940D03*
X037680Y005940D03*
M02*
