G75*
%MOIN*%
%OFA0B0*%
%FSLAX24Y24*%
%IPPOS*%
%LPD*%
%AMOC8*
5,1,8,0,0,1.08239X$1,22.5*
%
%ADD10R,0.0600X0.2550*%
%ADD11OC8,0.0600*%
%ADD12C,0.0520*%
%ADD13C,0.0560*%
%ADD14OC8,0.1000*%
%ADD15C,0.0520*%
%ADD16R,0.0740X0.0740*%
%ADD17C,0.0740*%
%ADD18C,0.2000*%
%ADD19OC8,0.0520*%
%ADD20OC8,0.0560*%
%ADD21C,0.0100*%
%ADD22C,0.0400*%
%ADD23C,0.0200*%
%ADD24C,0.0160*%
D10*
X001680Y001940D03*
X002680Y001940D03*
X003680Y001940D03*
X004680Y001940D03*
X005680Y001940D03*
X006680Y001940D03*
X007680Y001940D03*
X008680Y001940D03*
X009680Y001940D03*
X010680Y001940D03*
X011680Y001940D03*
X012680Y001940D03*
X013680Y001940D03*
X014680Y001940D03*
X015680Y001940D03*
X016680Y001940D03*
X017680Y001940D03*
X018680Y001940D03*
X019680Y001940D03*
X020680Y001940D03*
X021680Y001940D03*
X022680Y001940D03*
X023680Y001940D03*
X024680Y001940D03*
X025680Y001940D03*
X026680Y001940D03*
X027680Y001940D03*
X028680Y001940D03*
X029680Y001940D03*
X030680Y001940D03*
X031680Y001940D03*
D11*
X031680Y004940D03*
X030680Y004940D03*
X029680Y004940D03*
X028680Y004940D03*
X027680Y004940D03*
X026680Y004940D03*
X025680Y004940D03*
X024680Y004940D03*
X023680Y004940D03*
X022680Y004940D03*
X021680Y004940D03*
X020680Y004940D03*
X019680Y004940D03*
X018680Y004940D03*
X017680Y004940D03*
X016680Y004940D03*
X015680Y004940D03*
X014680Y004940D03*
X013680Y004940D03*
X012680Y004940D03*
X011680Y004940D03*
X010680Y004940D03*
X009680Y004940D03*
X008680Y004940D03*
X007680Y004940D03*
X006680Y004940D03*
X005680Y004940D03*
X004680Y004940D03*
X003680Y004940D03*
X002680Y004940D03*
X001680Y004940D03*
X001680Y005940D03*
X002680Y005940D03*
X003680Y005940D03*
X004680Y005940D03*
X005680Y005940D03*
X006680Y005940D03*
X007680Y005940D03*
X008680Y005940D03*
X009680Y005940D03*
X010680Y005940D03*
X011680Y005940D03*
X012680Y005940D03*
X013680Y005940D03*
X014680Y005940D03*
X015680Y005940D03*
X016680Y005940D03*
X017680Y005940D03*
X018680Y005940D03*
X019680Y005940D03*
X020680Y005940D03*
X021680Y005940D03*
X022680Y005940D03*
X023680Y005940D03*
X024680Y005940D03*
X025680Y005940D03*
X026680Y005940D03*
X027680Y005940D03*
X028680Y005940D03*
X029680Y005940D03*
X030680Y005940D03*
X031680Y005940D03*
D12*
X032920Y005440D02*
X033440Y005440D01*
X033440Y006440D02*
X032920Y006440D01*
X032920Y007440D02*
X033440Y007440D01*
X033440Y008440D02*
X032920Y008440D01*
X031940Y008440D02*
X031420Y008440D01*
X031420Y009440D02*
X031940Y009440D01*
X032920Y009440D02*
X033440Y009440D01*
X033440Y010440D02*
X032920Y010440D01*
X031940Y010440D02*
X031420Y010440D01*
X031420Y011440D02*
X031940Y011440D01*
X032920Y011440D02*
X033440Y011440D01*
X031940Y012440D02*
X031420Y012440D01*
X031420Y013440D02*
X031940Y013440D01*
X031940Y014440D02*
X031420Y014440D01*
X031420Y015440D02*
X031940Y015440D01*
X031940Y016440D02*
X031420Y016440D01*
X031420Y017440D02*
X031940Y017440D01*
X031940Y018440D02*
X031420Y018440D01*
X031420Y019440D02*
X031940Y019440D01*
X025940Y019440D02*
X025420Y019440D01*
X025420Y018440D02*
X025940Y018440D01*
X025940Y017440D02*
X025420Y017440D01*
X025420Y016440D02*
X025940Y016440D01*
X025940Y015440D02*
X025420Y015440D01*
X025420Y014440D02*
X025940Y014440D01*
X025940Y013440D02*
X025420Y013440D01*
X025420Y012440D02*
X025940Y012440D01*
X025940Y011440D02*
X025420Y011440D01*
X025420Y010440D02*
X025940Y010440D01*
X025940Y009440D02*
X025420Y009440D01*
X025420Y008440D02*
X025940Y008440D01*
X021680Y008680D02*
X021680Y009200D01*
X020680Y009200D02*
X020680Y008680D01*
X019680Y008680D02*
X019680Y009200D01*
X018680Y009200D02*
X018680Y008680D01*
X017680Y008680D02*
X017680Y009200D01*
X016680Y009200D02*
X016680Y008680D01*
X015680Y008680D02*
X015680Y009200D01*
X014680Y009200D02*
X014680Y008680D01*
X011680Y008700D02*
X011680Y008180D01*
X010680Y008180D02*
X010680Y008700D01*
X009680Y008700D02*
X009680Y008180D01*
X008680Y008180D02*
X008680Y008700D01*
X007680Y008700D02*
X007680Y008180D01*
X006680Y008180D02*
X006680Y008700D01*
X005680Y008700D02*
X005680Y008180D01*
X004680Y008180D02*
X004680Y008700D01*
X003680Y008700D02*
X003680Y008180D01*
X002680Y008180D02*
X002680Y008700D01*
X002680Y011180D02*
X002680Y011700D01*
X003680Y011700D02*
X003680Y011180D01*
X004680Y011180D02*
X004680Y011700D01*
X005680Y011700D02*
X005680Y011180D01*
X006680Y011180D02*
X006680Y011700D01*
X007680Y011700D02*
X007680Y011180D01*
X008680Y011180D02*
X008680Y011700D01*
X009680Y011700D02*
X009680Y011180D01*
X010680Y011180D02*
X010680Y011700D01*
X011680Y011700D02*
X011680Y011180D01*
X011180Y012680D02*
X011180Y013200D01*
X010180Y013200D02*
X010180Y012680D01*
X009180Y012680D02*
X009180Y013200D01*
X009180Y013680D02*
X009180Y014200D01*
X008180Y014200D02*
X008180Y013680D01*
X008180Y013200D02*
X008180Y012680D01*
X007180Y012680D02*
X007180Y013200D01*
X007180Y013680D02*
X007180Y014200D01*
X006180Y014200D02*
X006180Y013680D01*
X006180Y013200D02*
X006180Y012680D01*
X005180Y012680D02*
X005180Y013200D01*
X005180Y013680D02*
X005180Y014200D01*
X004180Y014200D02*
X004180Y013680D01*
X004180Y013200D02*
X004180Y012680D01*
X003180Y012680D02*
X003180Y013200D01*
X003180Y013680D02*
X003180Y014200D01*
X003180Y016680D02*
X003180Y017200D01*
X004180Y017200D02*
X004180Y016680D01*
X005180Y016680D02*
X005180Y017200D01*
X006180Y017200D02*
X006180Y016680D01*
X007180Y016680D02*
X007180Y017200D01*
X008180Y017200D02*
X008180Y016680D01*
X009180Y016680D02*
X009180Y017200D01*
X010180Y017200D02*
X010180Y016680D01*
X010180Y014200D02*
X010180Y013680D01*
X014680Y012200D02*
X014680Y011680D01*
X015680Y011680D02*
X015680Y012200D01*
X016680Y012200D02*
X016680Y011680D01*
X017680Y011680D02*
X017680Y012200D01*
X018680Y012200D02*
X018680Y011680D01*
X019680Y011680D02*
X019680Y012200D01*
X020680Y012200D02*
X020680Y011680D01*
X021680Y011680D02*
X021680Y012200D01*
X035920Y011440D02*
X036440Y011440D01*
X036440Y010440D02*
X035920Y010440D01*
X035920Y009440D02*
X036440Y009440D01*
X036440Y008440D02*
X035920Y008440D01*
X035920Y007440D02*
X036440Y007440D01*
X036440Y006440D02*
X035920Y006440D01*
X035920Y005440D02*
X036440Y005440D01*
D13*
X024180Y019660D02*
X024180Y020220D01*
X023180Y020220D02*
X023180Y019660D01*
D14*
X020430Y019440D03*
X020430Y015440D03*
X013430Y017440D03*
D15*
X024680Y017440D03*
X024680Y018440D03*
D16*
X038121Y021621D03*
D17*
X039239Y021074D03*
X038121Y020531D03*
X039239Y019983D03*
X038121Y019440D03*
X039239Y018897D03*
X038121Y018349D03*
X039239Y017806D03*
X038121Y017259D03*
D18*
X038680Y014519D03*
X038680Y024361D03*
D19*
X033180Y019440D03*
X033180Y018440D03*
X035180Y012440D03*
X036180Y012440D03*
X013680Y011940D03*
X013680Y010940D03*
X001680Y010440D03*
X001680Y011440D03*
D20*
X037680Y010940D03*
X038680Y010940D03*
X038680Y009940D03*
X037680Y009940D03*
X037680Y008940D03*
X038680Y008940D03*
X038680Y007940D03*
X037680Y007940D03*
X037680Y006940D03*
X038680Y006940D03*
X038680Y005940D03*
X037680Y005940D03*
D21*
X032430Y005940D01*
X031930Y005440D01*
X011430Y005440D01*
X011180Y005190D01*
X011180Y004440D01*
X008180Y004440D01*
X007680Y004940D01*
X007180Y005190D02*
X007430Y005440D01*
X008180Y005440D01*
X008180Y006190D01*
X009180Y007190D01*
X019930Y007190D01*
X020680Y007940D01*
X037680Y007940D01*
X037680Y006940D02*
X009930Y006940D01*
X009180Y006190D01*
X009180Y004940D01*
X008680Y004940D01*
X008680Y004190D02*
X009180Y003690D01*
X009430Y003690D01*
X009680Y003940D01*
X009180Y003690D02*
X009680Y003190D01*
X009680Y001940D01*
X008680Y001940D02*
X008680Y003690D01*
X008680Y004190D02*
X007180Y004190D01*
X007180Y005190D01*
X006680Y004940D02*
X006680Y001940D01*
X005680Y001940D02*
X005680Y004940D01*
X004680Y004940D02*
X004680Y001940D01*
X002680Y001940D02*
X002680Y004940D01*
X007680Y005940D02*
X007930Y005940D01*
X007930Y006440D01*
X008930Y007440D01*
X011180Y007440D01*
X011180Y008940D01*
X011680Y009440D01*
X012680Y009940D02*
X014930Y007690D01*
X019930Y007690D01*
X019180Y008190D02*
X020930Y008190D01*
X021180Y008440D01*
X021180Y009940D01*
X031180Y009940D01*
X031680Y010440D01*
X032680Y010440D02*
X033180Y010440D01*
X032680Y010440D02*
X031680Y009440D01*
X032430Y009690D02*
X032430Y008940D01*
X031180Y008940D01*
X030680Y009440D01*
X029180Y009440D01*
X029180Y010440D02*
X025680Y010440D01*
X025680Y011440D02*
X028180Y011440D01*
X027180Y011940D02*
X026180Y011940D01*
X025680Y012440D01*
X021680Y010940D02*
X030180Y010940D01*
X031680Y012440D01*
X032680Y009940D02*
X032430Y009690D01*
X032680Y009940D02*
X036680Y009940D01*
X037680Y010940D01*
X038680Y009940D02*
X038180Y009440D01*
X038680Y008940D01*
X038180Y009440D02*
X037430Y009440D01*
X036930Y008940D01*
X033680Y008940D01*
X033180Y008440D01*
X030680Y008940D02*
X026180Y008940D01*
X025680Y009440D01*
X021680Y010940D02*
X019680Y008940D01*
X019180Y008190D02*
X019180Y010440D01*
X020680Y011940D01*
X016680Y008940D02*
X014180Y011440D01*
X013430Y011440D01*
X013180Y011690D01*
X013180Y015440D01*
X003680Y015440D01*
X003680Y014940D02*
X008430Y014940D01*
X008680Y015190D01*
X011930Y015190D01*
X012680Y014440D01*
X010930Y013940D02*
X010680Y013940D01*
X010680Y012440D01*
X010930Y012190D01*
X011180Y012190D01*
X011180Y010940D01*
X010930Y010690D01*
X008430Y010690D01*
X007680Y011440D01*
X006680Y011440D02*
X005930Y012190D01*
X004930Y012190D01*
X004180Y012940D01*
X003680Y012440D02*
X003680Y014940D01*
X005180Y013940D02*
X005930Y014690D01*
X008680Y014690D01*
X006180Y012940D02*
X006930Y012190D01*
X009930Y012190D01*
X010680Y011440D01*
X012680Y009940D02*
X004180Y009940D01*
X002680Y008440D01*
X003680Y009940D02*
X001180Y009940D01*
X001180Y010690D01*
X001430Y010940D01*
X001930Y010940D01*
X002180Y010690D01*
X002930Y010690D01*
X003680Y011440D01*
X004180Y010940D02*
X004180Y012190D01*
X003930Y012190D01*
X003680Y012440D01*
X004930Y010690D02*
X005680Y011440D01*
X004930Y010690D02*
X004430Y010690D01*
X004180Y010940D01*
X003930Y010190D02*
X013430Y010190D01*
X014680Y008940D01*
X010430Y006440D02*
X010180Y006190D01*
X010180Y004940D01*
X010680Y004940D01*
X011680Y004940D02*
X011680Y001940D01*
X010680Y001940D02*
X010680Y003940D01*
X012680Y004940D02*
X012680Y001940D01*
X013680Y001940D02*
X013680Y004940D01*
X014680Y004940D02*
X014680Y001940D01*
X015680Y001940D02*
X015680Y004940D01*
X016680Y004940D02*
X016680Y001940D01*
X017680Y001940D02*
X017680Y004940D01*
X018680Y004940D02*
X018680Y001940D01*
X019680Y001940D02*
X019680Y004940D01*
X020680Y004940D02*
X020680Y001940D01*
X021680Y001940D02*
X021680Y004940D01*
X023680Y004940D02*
X023680Y001940D01*
X024680Y001940D02*
X024680Y004940D01*
X025680Y004940D02*
X025680Y001940D01*
X026680Y001940D02*
X026680Y004940D01*
X027680Y004940D02*
X027680Y001940D01*
X028680Y001940D02*
X028680Y004940D01*
X030680Y004940D02*
X030680Y001940D01*
X032180Y006440D02*
X010430Y006440D01*
X007430Y009190D02*
X006680Y008440D01*
X007430Y009190D02*
X009180Y009190D01*
X003930Y010190D02*
X003680Y009940D01*
X007680Y003690D02*
X007680Y001940D01*
X020430Y015440D02*
X020930Y015940D01*
X031180Y015940D01*
X031680Y015440D01*
X031680Y016440D02*
X028180Y019940D01*
X024180Y019940D01*
D22*
X012680Y014440D03*
X010930Y013940D03*
X008680Y014690D03*
X003680Y015440D03*
X001180Y009440D03*
X003180Y007690D03*
X009180Y009190D03*
X011680Y009440D03*
X019930Y007690D03*
X027180Y011940D03*
X028180Y011440D03*
X029180Y010440D03*
X029180Y009440D03*
X030680Y008940D03*
X032180Y006440D03*
X010680Y003940D03*
X009680Y003940D03*
X008680Y003690D03*
X007680Y003690D03*
D23*
X003680Y004940D02*
X003680Y001940D01*
X001680Y001940D02*
X001680Y004940D01*
X001180Y005440D01*
X001180Y009440D01*
X001680Y010440D02*
X013180Y010440D01*
X013430Y010690D01*
X011180Y012940D01*
X013680Y013940D02*
X013680Y011940D01*
X014680Y011940D01*
X013680Y010940D02*
X013430Y010690D01*
X013680Y013940D02*
X031180Y013940D01*
X031680Y013440D01*
X032180Y012940D01*
X032430Y012940D01*
X032430Y019440D01*
X031680Y019440D01*
X032430Y019440D02*
X033180Y019440D01*
X023180Y019940D02*
X020680Y017440D01*
X013430Y017440D01*
X013680Y016690D02*
X010430Y016690D01*
X010180Y016940D01*
X013680Y016690D02*
X013680Y013940D01*
X021680Y008940D02*
X025180Y008940D01*
X025680Y008440D01*
X031680Y008440D01*
X031680Y011440D02*
X032680Y012440D01*
X035180Y012440D01*
X035680Y012940D02*
X036180Y012440D01*
X035680Y012940D02*
X032430Y012940D01*
X033180Y005440D02*
X032680Y004940D01*
X031680Y004940D01*
X031680Y001940D01*
X029680Y001940D02*
X029680Y004940D01*
X022680Y004940D02*
X022680Y001940D01*
X003680Y004940D02*
X003180Y005440D01*
X003180Y007690D01*
X002680Y011440D02*
X001680Y011440D01*
X002680Y011440D02*
X002680Y016940D01*
X003180Y016940D01*
D24*
X003600Y016875D02*
X003760Y016875D01*
X003760Y016717D02*
X003600Y016717D01*
X003600Y016596D02*
X003600Y017284D01*
X003536Y017438D01*
X003418Y017556D01*
X003264Y017620D01*
X003096Y017620D01*
X002942Y017556D01*
X002824Y017438D01*
X002760Y017284D01*
X002760Y017200D01*
X002628Y017200D01*
X002533Y017160D01*
X002460Y017087D01*
X002420Y016992D01*
X002420Y012034D01*
X002324Y011938D01*
X002260Y011784D01*
X002260Y011700D01*
X002014Y011700D01*
X001854Y011860D01*
X001506Y011860D01*
X001260Y011614D01*
X001260Y011266D01*
X001376Y011150D01*
X001343Y011150D01*
X001093Y010900D01*
X001010Y010817D01*
X001010Y026156D01*
X039770Y026156D01*
X039770Y024775D01*
X039761Y024809D01*
X039608Y025074D01*
X039392Y025289D01*
X039128Y025442D01*
X038833Y025521D01*
X038527Y025521D01*
X038232Y025442D01*
X037968Y025289D01*
X037752Y025074D01*
X037599Y024809D01*
X037520Y024514D01*
X037520Y024209D01*
X037599Y023914D01*
X037752Y023649D01*
X037968Y023433D01*
X038232Y023280D01*
X038527Y023201D01*
X038833Y023201D01*
X039128Y023280D01*
X039392Y023433D01*
X039608Y023649D01*
X039761Y023914D01*
X039770Y023947D01*
X039770Y014933D01*
X039761Y014966D01*
X039608Y015231D01*
X039392Y015447D01*
X039128Y015600D01*
X038833Y015679D01*
X038527Y015679D01*
X038232Y015600D01*
X037968Y015447D01*
X037752Y015231D01*
X037599Y014966D01*
X037520Y014671D01*
X037520Y014366D01*
X037599Y014071D01*
X037752Y013806D01*
X037968Y013591D01*
X038232Y013438D01*
X038527Y013359D01*
X038833Y013359D01*
X039128Y013438D01*
X039392Y013591D01*
X039608Y013806D01*
X039761Y014071D01*
X039770Y014105D01*
X039770Y003940D01*
X030890Y003940D01*
X030890Y004499D01*
X031140Y004749D01*
X031140Y005131D01*
X031041Y005230D01*
X031291Y005230D01*
X031200Y005139D01*
X031200Y004960D01*
X031660Y004960D01*
X031660Y004920D01*
X031700Y004920D01*
X031700Y004960D01*
X032160Y004960D01*
X032160Y005139D01*
X032043Y005256D01*
X032140Y005353D01*
X032517Y005730D01*
X032588Y005730D01*
X032584Y005727D01*
X032544Y005671D01*
X032512Y005609D01*
X032491Y005543D01*
X032480Y005475D01*
X032480Y005440D01*
X033180Y005440D01*
X033880Y005440D01*
X033880Y005475D01*
X033869Y005543D01*
X033848Y005609D01*
X033816Y005671D01*
X033776Y005727D01*
X033772Y005730D01*
X035616Y005730D01*
X035564Y005678D01*
X035500Y005524D01*
X035500Y005356D01*
X035564Y005202D01*
X035682Y005084D01*
X035836Y005020D01*
X036524Y005020D01*
X036678Y005084D01*
X036796Y005202D01*
X036860Y005356D01*
X036860Y005524D01*
X036796Y005678D01*
X036744Y005730D01*
X037268Y005730D01*
X037498Y005500D01*
X037862Y005500D01*
X038120Y005758D01*
X038120Y006122D01*
X037862Y006380D01*
X037498Y006380D01*
X037268Y006150D01*
X036772Y006150D01*
X036776Y006153D01*
X036816Y006209D01*
X036848Y006271D01*
X036869Y006337D01*
X036880Y006405D01*
X036880Y006440D01*
X036880Y006475D01*
X036869Y006543D01*
X036848Y006609D01*
X036816Y006671D01*
X036776Y006727D01*
X036772Y006730D01*
X037268Y006730D01*
X037498Y006500D01*
X037862Y006500D01*
X038120Y006758D01*
X038120Y007122D01*
X037862Y007380D01*
X037498Y007380D01*
X037268Y007150D01*
X036744Y007150D01*
X036796Y007202D01*
X036860Y007356D01*
X036860Y007524D01*
X036796Y007678D01*
X036744Y007730D01*
X037268Y007730D01*
X037498Y007500D01*
X037862Y007500D01*
X038120Y007758D01*
X038120Y008122D01*
X037862Y008380D01*
X037498Y008380D01*
X037268Y008150D01*
X036772Y008150D01*
X036776Y008153D01*
X036816Y008209D01*
X036848Y008271D01*
X036869Y008337D01*
X036880Y008405D01*
X036880Y008440D01*
X036880Y008475D01*
X036869Y008543D01*
X036848Y008609D01*
X036816Y008671D01*
X036776Y008727D01*
X036772Y008730D01*
X037017Y008730D01*
X037240Y008953D01*
X037240Y008758D01*
X037498Y008500D01*
X037862Y008500D01*
X038120Y008758D01*
X038120Y009122D01*
X038012Y009230D01*
X038093Y009230D01*
X038240Y009083D01*
X038240Y008758D01*
X038498Y008500D01*
X038862Y008500D01*
X039120Y008758D01*
X039120Y009122D01*
X038862Y009380D01*
X038537Y009380D01*
X038477Y009440D01*
X038537Y009500D01*
X038862Y009500D01*
X039120Y009758D01*
X039120Y010122D01*
X038862Y010380D01*
X038498Y010380D01*
X038240Y010122D01*
X038240Y009797D01*
X038093Y009650D01*
X038012Y009650D01*
X038120Y009758D01*
X038120Y010122D01*
X037862Y010380D01*
X037498Y010380D01*
X037240Y010122D01*
X037240Y009758D01*
X037348Y009650D01*
X037343Y009650D01*
X037220Y009527D01*
X037220Y009527D01*
X036843Y009150D01*
X036744Y009150D01*
X036796Y009202D01*
X036860Y009356D01*
X036860Y009524D01*
X036796Y009678D01*
X036744Y009730D01*
X036767Y009730D01*
X036890Y009853D01*
X037537Y010500D01*
X037862Y010500D01*
X038120Y010758D01*
X038120Y011122D01*
X037862Y011380D01*
X037498Y011380D01*
X037240Y011122D01*
X037240Y010797D01*
X036880Y010437D01*
X036880Y010440D01*
X036880Y010475D01*
X036869Y010543D01*
X036848Y010609D01*
X036816Y010671D01*
X036776Y010727D01*
X036727Y010776D01*
X036671Y010816D01*
X036609Y010848D01*
X036543Y010869D01*
X036475Y010880D01*
X036180Y010880D01*
X036180Y010440D01*
X036180Y010440D01*
X036880Y010440D01*
X036180Y010440D01*
X036180Y010440D01*
X036180Y010440D01*
X035480Y010440D01*
X035480Y010475D01*
X035491Y010543D01*
X035512Y010609D01*
X035544Y010671D01*
X035584Y010727D01*
X035633Y010776D01*
X035689Y010816D01*
X035751Y010848D01*
X035817Y010869D01*
X035885Y010880D01*
X036180Y010880D01*
X036180Y010440D01*
X035480Y010440D01*
X035480Y010405D01*
X035491Y010337D01*
X035512Y010271D01*
X035544Y010209D01*
X035584Y010153D01*
X035588Y010150D01*
X033744Y010150D01*
X033796Y010202D01*
X033860Y010356D01*
X033860Y010524D01*
X033796Y010678D01*
X033678Y010796D01*
X033524Y010860D01*
X032836Y010860D01*
X032682Y010796D01*
X032564Y010678D01*
X032524Y010581D01*
X032470Y010527D01*
X032360Y010417D01*
X032360Y010524D01*
X032296Y010678D01*
X032178Y010796D01*
X032024Y010860D01*
X031336Y010860D01*
X031182Y010796D01*
X031064Y010678D01*
X031000Y010524D01*
X031000Y010356D01*
X031064Y010202D01*
X031105Y010162D01*
X031093Y010150D01*
X029399Y010150D01*
X029485Y010236D01*
X029540Y010368D01*
X029540Y010512D01*
X029485Y010644D01*
X029399Y010730D01*
X030267Y010730D01*
X030980Y011443D01*
X030980Y011440D01*
X031680Y011440D01*
X031680Y011440D01*
X031680Y011880D01*
X031975Y011880D01*
X032043Y011869D01*
X032109Y011848D01*
X032171Y011816D01*
X032227Y011776D01*
X032276Y011727D01*
X032316Y011671D01*
X032348Y011609D01*
X032369Y011543D01*
X032380Y011475D01*
X032380Y011440D01*
X031680Y011440D01*
X031680Y011440D01*
X031680Y011880D01*
X031417Y011880D01*
X031557Y012020D01*
X032024Y012020D01*
X032178Y012084D01*
X032296Y012202D01*
X032360Y012356D01*
X032360Y012524D01*
X032296Y012678D01*
X032294Y012680D01*
X034798Y012680D01*
X034740Y012622D01*
X034740Y012440D01*
X035180Y012440D01*
X035620Y012440D01*
X035620Y012622D01*
X035562Y012680D01*
X035572Y012680D01*
X035760Y012492D01*
X035760Y012266D01*
X036006Y012020D01*
X036354Y012020D01*
X036600Y012266D01*
X036600Y012614D01*
X036354Y012860D01*
X036128Y012860D01*
X035827Y013160D01*
X035732Y013200D01*
X032690Y013200D01*
X032690Y019180D01*
X032846Y019180D01*
X033006Y019020D01*
X033354Y019020D01*
X033600Y019266D01*
X033600Y019614D01*
X033354Y019860D01*
X033006Y019860D01*
X032846Y019700D01*
X032274Y019700D01*
X032178Y019796D01*
X032024Y019860D01*
X031336Y019860D01*
X031182Y019796D01*
X031064Y019678D01*
X031000Y019524D01*
X031000Y019356D01*
X031064Y019202D01*
X031182Y019084D01*
X031336Y019020D01*
X032024Y019020D01*
X032170Y019081D01*
X032170Y018799D01*
X032024Y018860D01*
X031336Y018860D01*
X031182Y018796D01*
X031064Y018678D01*
X031000Y018524D01*
X031000Y018356D01*
X031064Y018202D01*
X031182Y018084D01*
X031336Y018020D01*
X032024Y018020D01*
X032170Y018081D01*
X032170Y017799D01*
X032024Y017860D01*
X031336Y017860D01*
X031182Y017796D01*
X031064Y017678D01*
X031000Y017524D01*
X031000Y017417D01*
X028390Y020027D01*
X028267Y020150D01*
X024620Y020150D01*
X024620Y020308D01*
X024553Y020469D01*
X024429Y020593D01*
X024268Y020660D01*
X024092Y020660D01*
X023931Y020593D01*
X023807Y020469D01*
X023740Y020308D01*
X023740Y019572D01*
X023807Y019411D01*
X023568Y019411D01*
X023573Y019419D02*
X023606Y019483D01*
X023629Y019552D01*
X023640Y019624D01*
X023640Y019930D01*
X023190Y019930D01*
X023190Y019950D01*
X023640Y019950D01*
X023640Y020256D01*
X023629Y020328D01*
X023606Y020397D01*
X023573Y020461D01*
X023531Y020520D01*
X023480Y020571D01*
X023421Y020613D01*
X023357Y020646D01*
X023288Y020669D01*
X023216Y020680D01*
X023190Y020680D01*
X023190Y019950D01*
X023170Y019950D01*
X023170Y020680D01*
X023144Y020680D01*
X023072Y020669D01*
X023003Y020646D01*
X022939Y020613D01*
X022880Y020571D01*
X022829Y020520D01*
X022787Y020461D01*
X022754Y020397D01*
X022731Y020328D01*
X022720Y020256D01*
X022720Y019950D01*
X023170Y019950D01*
X023170Y019930D01*
X023190Y019930D01*
X023190Y019200D01*
X023216Y019200D01*
X023288Y019211D01*
X023357Y019234D01*
X023421Y019267D01*
X023480Y019309D01*
X023531Y019360D01*
X023573Y019419D01*
X023631Y019570D02*
X023741Y019570D01*
X023740Y019728D02*
X023640Y019728D01*
X023640Y019887D02*
X023740Y019887D01*
X023740Y020045D02*
X023640Y020045D01*
X023640Y020204D02*
X023740Y020204D01*
X023763Y020362D02*
X023618Y020362D01*
X023530Y020521D02*
X023858Y020521D01*
X023222Y020679D02*
X037609Y020679D01*
X037591Y020636D02*
X037591Y020425D01*
X037672Y020230D01*
X037821Y020081D01*
X038016Y020001D01*
X038226Y020001D01*
X038421Y020081D01*
X038570Y020230D01*
X038651Y020425D01*
X038651Y020636D01*
X038570Y020831D01*
X038421Y020980D01*
X038226Y021061D01*
X038016Y021061D01*
X037821Y020980D01*
X037672Y020831D01*
X037591Y020636D01*
X037591Y020521D02*
X024502Y020521D01*
X024597Y020362D02*
X037617Y020362D01*
X037698Y020204D02*
X024620Y020204D01*
X024620Y019730D02*
X025116Y019730D01*
X025064Y019678D01*
X025000Y019524D01*
X025000Y019356D01*
X025064Y019202D01*
X025182Y019084D01*
X025336Y019020D01*
X026024Y019020D01*
X026178Y019084D01*
X026296Y019202D01*
X026360Y019356D01*
X026360Y019524D01*
X026296Y019678D01*
X026244Y019730D01*
X028093Y019730D01*
X031105Y016718D01*
X031064Y016678D01*
X031000Y016524D01*
X031000Y016356D01*
X031064Y016202D01*
X031116Y016150D01*
X026244Y016150D01*
X026296Y016202D01*
X026360Y016356D01*
X026360Y016524D01*
X026296Y016678D01*
X026178Y016796D01*
X026024Y016860D01*
X025336Y016860D01*
X025182Y016796D01*
X025064Y016678D01*
X025000Y016524D01*
X025000Y016356D01*
X025064Y016202D01*
X025116Y016150D01*
X020843Y016150D01*
X020748Y016055D01*
X020703Y016100D01*
X020157Y016100D01*
X019770Y015713D01*
X019770Y015167D01*
X020157Y014780D01*
X020703Y014780D01*
X021090Y015167D01*
X021090Y015713D01*
X021073Y015730D01*
X025116Y015730D01*
X025064Y015678D01*
X025000Y015524D01*
X025000Y015356D01*
X025064Y015202D01*
X025182Y015084D01*
X025336Y015020D01*
X026024Y015020D01*
X026178Y015084D01*
X026296Y015202D01*
X026360Y015356D01*
X026360Y015524D01*
X026296Y015678D01*
X026244Y015730D01*
X031093Y015730D01*
X031105Y015718D01*
X031064Y015678D01*
X031000Y015524D01*
X031000Y015356D01*
X031064Y015202D01*
X031182Y015084D01*
X031336Y015020D01*
X032024Y015020D01*
X032170Y015081D01*
X032170Y014799D01*
X032024Y014860D01*
X031336Y014860D01*
X031182Y014796D01*
X031064Y014678D01*
X031000Y014524D01*
X031000Y014356D01*
X031064Y014202D01*
X031066Y014200D01*
X026294Y014200D01*
X026296Y014202D01*
X026360Y014356D01*
X026360Y014524D01*
X026296Y014678D01*
X026178Y014796D01*
X026024Y014860D01*
X025336Y014860D01*
X025182Y014796D01*
X025064Y014678D01*
X025000Y014524D01*
X025000Y014356D01*
X025064Y014202D01*
X025066Y014200D01*
X013940Y014200D01*
X013940Y016742D01*
X013900Y016837D01*
X013845Y016893D01*
X014110Y017158D01*
X014110Y017410D01*
X013460Y017410D01*
X013460Y017470D01*
X013400Y017470D01*
X013400Y018120D01*
X013148Y018120D01*
X012750Y017722D01*
X012750Y017470D01*
X013400Y017470D01*
X013400Y017410D01*
X012750Y017410D01*
X012750Y017158D01*
X012958Y016950D01*
X010600Y016950D01*
X010600Y017284D01*
X010536Y017438D01*
X010418Y017556D01*
X010264Y017620D01*
X010096Y017620D01*
X009942Y017556D01*
X009824Y017438D01*
X009760Y017284D01*
X009760Y016596D01*
X009824Y016442D01*
X009942Y016324D01*
X010096Y016260D01*
X010264Y016260D01*
X010418Y016324D01*
X010524Y016430D01*
X013420Y016430D01*
X013420Y012274D01*
X013390Y012244D01*
X013390Y015527D01*
X013267Y015650D01*
X003979Y015650D01*
X003884Y015745D01*
X003752Y015800D01*
X003608Y015800D01*
X003476Y015745D01*
X003375Y015644D01*
X003320Y015512D01*
X003320Y015368D01*
X003375Y015236D01*
X003476Y015135D01*
X003548Y015105D01*
X003470Y015027D01*
X003470Y014504D01*
X003418Y014556D01*
X003264Y014620D01*
X003096Y014620D01*
X002942Y014556D01*
X002940Y014554D01*
X002940Y016326D01*
X002942Y016324D01*
X003096Y016260D01*
X003264Y016260D01*
X003418Y016324D01*
X003536Y016442D01*
X003600Y016596D01*
X003584Y016558D02*
X003776Y016558D01*
X003760Y016596D02*
X003824Y016442D01*
X003942Y016324D01*
X004096Y016260D01*
X004264Y016260D01*
X004418Y016324D01*
X004536Y016442D01*
X004600Y016596D01*
X004600Y017284D01*
X004536Y017438D01*
X004418Y017556D01*
X004264Y017620D01*
X004096Y017620D01*
X003942Y017556D01*
X003824Y017438D01*
X003760Y017284D01*
X003760Y016596D01*
X003867Y016400D02*
X003493Y016400D01*
X002940Y016241D02*
X013420Y016241D01*
X013420Y016083D02*
X002940Y016083D01*
X002940Y015924D02*
X013420Y015924D01*
X013420Y015766D02*
X003835Y015766D01*
X003525Y015766D02*
X002940Y015766D01*
X002940Y015607D02*
X003360Y015607D01*
X003320Y015449D02*
X002940Y015449D01*
X002940Y015290D02*
X003352Y015290D01*
X003484Y015132D02*
X002940Y015132D01*
X002940Y014973D02*
X003470Y014973D01*
X003470Y014815D02*
X002940Y014815D01*
X002940Y014656D02*
X003470Y014656D01*
X002420Y014656D02*
X001010Y014656D01*
X001010Y014498D02*
X002420Y014498D01*
X002420Y014339D02*
X001010Y014339D01*
X001010Y014181D02*
X002420Y014181D01*
X002420Y014022D02*
X001010Y014022D01*
X001010Y013864D02*
X002420Y013864D01*
X002420Y013705D02*
X001010Y013705D01*
X001010Y013547D02*
X002420Y013547D01*
X002420Y013388D02*
X001010Y013388D01*
X001010Y013230D02*
X002420Y013230D01*
X002420Y013071D02*
X001010Y013071D01*
X001010Y012913D02*
X002420Y012913D01*
X002420Y012754D02*
X001010Y012754D01*
X001010Y012596D02*
X002420Y012596D01*
X002420Y012437D02*
X001010Y012437D01*
X001010Y012279D02*
X002420Y012279D01*
X002420Y012120D02*
X001010Y012120D01*
X001010Y011962D02*
X002348Y011962D01*
X002268Y011803D02*
X001911Y011803D01*
X001449Y011803D02*
X001010Y011803D01*
X001010Y011645D02*
X001291Y011645D01*
X001260Y011486D02*
X001010Y011486D01*
X001010Y011328D02*
X001260Y011328D01*
X001357Y011169D02*
X001010Y011169D01*
X001010Y011011D02*
X001204Y011011D01*
X001045Y010852D02*
X001010Y010852D01*
X001680Y010440D02*
X002120Y010440D01*
X002120Y010480D01*
X003017Y010480D01*
X003140Y010603D01*
X003402Y010865D01*
X003442Y010824D01*
X003596Y010760D01*
X003764Y010760D01*
X003918Y010824D01*
X003970Y010876D01*
X003970Y010853D01*
X004093Y010730D01*
X004343Y010480D01*
X005017Y010480D01*
X005140Y010603D01*
X005402Y010865D01*
X005442Y010824D01*
X005596Y010760D01*
X005764Y010760D01*
X005918Y010824D01*
X006036Y010942D01*
X006100Y011096D01*
X006100Y011723D01*
X006260Y011563D01*
X006260Y011096D01*
X006324Y010942D01*
X006442Y010824D01*
X006596Y010760D01*
X006764Y010760D01*
X006918Y010824D01*
X007036Y010942D01*
X007100Y011096D01*
X007100Y011784D01*
X007036Y011938D01*
X006994Y011980D01*
X007366Y011980D01*
X007324Y011938D01*
X007260Y011784D01*
X007260Y011096D01*
X007324Y010942D01*
X007442Y010824D01*
X007596Y010760D01*
X007764Y010760D01*
X007918Y010824D01*
X007958Y010865D01*
X008220Y010603D01*
X008343Y010480D01*
X011017Y010480D01*
X011267Y010730D01*
X011390Y010853D01*
X011390Y010876D01*
X011442Y010824D01*
X011596Y010760D01*
X011764Y010760D01*
X011918Y010824D01*
X012036Y010942D01*
X012100Y011096D01*
X012100Y011784D01*
X012036Y011938D01*
X011918Y012056D01*
X011764Y012120D01*
X011596Y012120D01*
X011442Y012056D01*
X011390Y012004D01*
X011390Y012277D01*
X011379Y012288D01*
X011411Y012304D01*
X011467Y012344D01*
X011516Y012393D01*
X011556Y012449D01*
X011588Y012511D01*
X011609Y012577D01*
X011620Y012645D01*
X011620Y012940D01*
X011620Y013235D01*
X011609Y013303D01*
X011588Y013369D01*
X011556Y013431D01*
X011516Y013487D01*
X011467Y013536D01*
X011411Y013576D01*
X011349Y013608D01*
X011283Y013629D01*
X011215Y013640D01*
X011180Y013640D01*
X011180Y012940D01*
X011180Y012940D01*
X011620Y012940D01*
X011180Y012940D01*
X011180Y012940D01*
X011180Y013640D01*
X011145Y013640D01*
X011138Y013639D01*
X011235Y013736D01*
X011290Y013868D01*
X011290Y014012D01*
X011235Y014144D01*
X011134Y014245D01*
X011002Y014300D01*
X010858Y014300D01*
X010726Y014245D01*
X010631Y014150D01*
X010600Y014150D01*
X010600Y014284D01*
X010536Y014438D01*
X010418Y014556D01*
X010264Y014620D01*
X010096Y014620D01*
X009942Y014556D01*
X009824Y014438D01*
X009760Y014284D01*
X009760Y013596D01*
X009824Y013442D01*
X009826Y013440D01*
X009824Y013438D01*
X009760Y013284D01*
X009760Y012596D01*
X009824Y012442D01*
X009866Y012400D01*
X009494Y012400D01*
X009536Y012442D01*
X009600Y012596D01*
X009600Y013284D01*
X009536Y013438D01*
X009534Y013440D01*
X009536Y013442D01*
X009600Y013596D01*
X009600Y014284D01*
X009536Y014438D01*
X009418Y014556D01*
X009264Y014620D01*
X009096Y014620D01*
X009029Y014592D01*
X009040Y014618D01*
X009040Y014762D01*
X008985Y014894D01*
X008899Y014980D01*
X011843Y014980D01*
X012320Y014503D01*
X012320Y014368D01*
X012375Y014236D01*
X012476Y014135D01*
X012608Y014080D01*
X012752Y014080D01*
X012884Y014135D01*
X012970Y014221D01*
X012970Y011603D01*
X013093Y011480D01*
X013343Y011230D01*
X013348Y011230D01*
X013240Y011122D01*
X013240Y010940D01*
X013680Y010940D01*
X014120Y010940D01*
X014120Y011122D01*
X014012Y011230D01*
X014093Y011230D01*
X015703Y009620D01*
X015596Y009620D01*
X015442Y009556D01*
X015324Y009438D01*
X015260Y009284D01*
X015260Y008596D01*
X015324Y008442D01*
X015442Y008324D01*
X015596Y008260D01*
X015764Y008260D01*
X015918Y008324D01*
X016036Y008442D01*
X016100Y008596D01*
X016100Y009223D01*
X016260Y009063D01*
X016260Y008596D01*
X016324Y008442D01*
X016442Y008324D01*
X016596Y008260D01*
X016764Y008260D01*
X016918Y008324D01*
X017036Y008442D01*
X017100Y008596D01*
X017100Y009284D01*
X017036Y009438D01*
X016918Y009556D01*
X016764Y009620D01*
X016596Y009620D01*
X016442Y009556D01*
X016402Y009515D01*
X014657Y011260D01*
X014764Y011260D01*
X014918Y011324D01*
X015036Y011442D01*
X015100Y011596D01*
X015100Y012284D01*
X015036Y012438D01*
X014918Y012556D01*
X014764Y012620D01*
X014596Y012620D01*
X014442Y012556D01*
X014324Y012438D01*
X014260Y012284D01*
X014260Y012200D01*
X014014Y012200D01*
X013940Y012274D01*
X013940Y013680D01*
X025066Y013680D01*
X025064Y013678D01*
X025000Y013524D01*
X025000Y013356D01*
X025064Y013202D01*
X025182Y013084D01*
X025336Y013020D01*
X026024Y013020D01*
X026178Y013084D01*
X026296Y013202D01*
X026360Y013356D01*
X026360Y013524D01*
X026296Y013678D01*
X026294Y013680D01*
X031066Y013680D01*
X031064Y013678D01*
X031000Y013524D01*
X031000Y013356D01*
X031064Y013202D01*
X031182Y013084D01*
X031336Y013020D01*
X031732Y013020D01*
X031892Y012860D01*
X031336Y012860D01*
X031182Y012796D01*
X031064Y012678D01*
X031000Y012524D01*
X031000Y012356D01*
X031064Y012202D01*
X031105Y012162D01*
X030093Y011150D01*
X028399Y011150D01*
X028485Y011236D01*
X028540Y011368D01*
X028540Y011512D01*
X028485Y011644D01*
X028384Y011745D01*
X028252Y011800D01*
X028108Y011800D01*
X027976Y011745D01*
X027881Y011650D01*
X027399Y011650D01*
X027485Y011736D01*
X027540Y011868D01*
X027540Y012012D01*
X027485Y012144D01*
X027384Y012245D01*
X027252Y012300D01*
X027108Y012300D01*
X026976Y012245D01*
X026881Y012150D01*
X026267Y012150D01*
X026255Y012162D01*
X026296Y012202D01*
X026360Y012356D01*
X026360Y012524D01*
X026296Y012678D01*
X026178Y012796D01*
X026024Y012860D01*
X025336Y012860D01*
X025182Y012796D01*
X025064Y012678D01*
X025000Y012524D01*
X025000Y012356D01*
X025064Y012202D01*
X025182Y012084D01*
X025336Y012020D01*
X025803Y012020D01*
X025963Y011860D01*
X025336Y011860D01*
X025182Y011796D01*
X025064Y011678D01*
X025000Y011524D01*
X025000Y011356D01*
X025064Y011202D01*
X025116Y011150D01*
X021593Y011150D01*
X021470Y011027D01*
X019958Y009515D01*
X019918Y009556D01*
X019764Y009620D01*
X019596Y009620D01*
X019442Y009556D01*
X019390Y009504D01*
X019390Y010353D01*
X020402Y011365D01*
X020442Y011324D01*
X020596Y011260D01*
X020764Y011260D01*
X020918Y011324D01*
X021036Y011442D01*
X021100Y011596D01*
X021100Y012284D01*
X021036Y012438D01*
X020918Y012556D01*
X020764Y012620D01*
X020596Y012620D01*
X020442Y012556D01*
X020324Y012438D01*
X020260Y012284D01*
X020260Y011817D01*
X020100Y011657D01*
X020100Y012284D01*
X020036Y012438D01*
X019918Y012556D01*
X019764Y012620D01*
X019596Y012620D01*
X019442Y012556D01*
X019324Y012438D01*
X019260Y012284D01*
X019260Y011596D01*
X019324Y011442D01*
X019442Y011324D01*
X019596Y011260D01*
X019703Y011260D01*
X019093Y010650D01*
X018970Y010527D01*
X018970Y009504D01*
X018918Y009556D01*
X018764Y009620D01*
X018596Y009620D01*
X018442Y009556D01*
X018324Y009438D01*
X018260Y009284D01*
X018260Y008596D01*
X018324Y008442D01*
X018442Y008324D01*
X018596Y008260D01*
X018764Y008260D01*
X018918Y008324D01*
X018970Y008376D01*
X018970Y008103D01*
X019093Y007980D01*
X019711Y007980D01*
X019631Y007900D01*
X015017Y007900D01*
X014657Y008260D01*
X014764Y008260D01*
X014918Y008324D01*
X015036Y008442D01*
X015100Y008596D01*
X015100Y009284D01*
X015036Y009438D01*
X014918Y009556D01*
X014764Y009620D01*
X014596Y009620D01*
X014442Y009556D01*
X014402Y009515D01*
X013517Y010400D01*
X003843Y010400D01*
X003720Y010277D01*
X003593Y010150D01*
X002012Y010150D01*
X002120Y010258D01*
X002120Y010440D01*
X001680Y010440D01*
X001680Y010440D01*
X002120Y010377D02*
X003820Y010377D01*
X003661Y010218D02*
X002080Y010218D01*
X003072Y010535D02*
X004288Y010535D01*
X004129Y010694D02*
X003231Y010694D01*
X003389Y010852D02*
X003414Y010852D01*
X003946Y010852D02*
X003971Y010852D01*
X005072Y010535D02*
X008288Y010535D01*
X008129Y010694D02*
X005231Y010694D01*
X005389Y010852D02*
X005414Y010852D01*
X005946Y010852D02*
X006414Y010852D01*
X006296Y011011D02*
X006064Y011011D01*
X006100Y011169D02*
X006260Y011169D01*
X006260Y011328D02*
X006100Y011328D01*
X006100Y011486D02*
X006260Y011486D01*
X006178Y011645D02*
X006100Y011645D01*
X007012Y011962D02*
X007348Y011962D01*
X007268Y011803D02*
X007092Y011803D01*
X007100Y011645D02*
X007260Y011645D01*
X007260Y011486D02*
X007100Y011486D01*
X007100Y011328D02*
X007260Y011328D01*
X007260Y011169D02*
X007100Y011169D01*
X007064Y011011D02*
X007296Y011011D01*
X007414Y010852D02*
X006946Y010852D01*
X007946Y010852D02*
X007971Y010852D01*
X009531Y012437D02*
X009829Y012437D01*
X009760Y012596D02*
X009600Y012596D01*
X009600Y012754D02*
X009760Y012754D01*
X009760Y012913D02*
X009600Y012913D01*
X009600Y013071D02*
X009760Y013071D01*
X009760Y013230D02*
X009600Y013230D01*
X009557Y013388D02*
X009803Y013388D01*
X009781Y013547D02*
X009579Y013547D01*
X009600Y013705D02*
X009760Y013705D01*
X009760Y013864D02*
X009600Y013864D01*
X009600Y014022D02*
X009760Y014022D01*
X009760Y014181D02*
X009600Y014181D01*
X009577Y014339D02*
X009783Y014339D01*
X009884Y014498D02*
X009476Y014498D01*
X009040Y014656D02*
X012167Y014656D01*
X012320Y014498D02*
X010476Y014498D01*
X010577Y014339D02*
X012332Y014339D01*
X012430Y014181D02*
X011199Y014181D01*
X011286Y014022D02*
X012970Y014022D01*
X012970Y013864D02*
X011288Y013864D01*
X011204Y013705D02*
X012970Y013705D01*
X012970Y013547D02*
X011452Y013547D01*
X011578Y013388D02*
X012970Y013388D01*
X012970Y013230D02*
X011620Y013230D01*
X011620Y013071D02*
X012970Y013071D01*
X012970Y012913D02*
X011620Y012913D01*
X011620Y012754D02*
X012970Y012754D01*
X012970Y012596D02*
X011612Y012596D01*
X011547Y012437D02*
X012970Y012437D01*
X012970Y012279D02*
X011388Y012279D01*
X011390Y012120D02*
X012970Y012120D01*
X012970Y011962D02*
X012012Y011962D01*
X012092Y011803D02*
X012970Y011803D01*
X012970Y011645D02*
X012100Y011645D01*
X012100Y011486D02*
X013087Y011486D01*
X013245Y011328D02*
X012100Y011328D01*
X012100Y011169D02*
X013287Y011169D01*
X013240Y011011D02*
X012064Y011011D01*
X011946Y010852D02*
X013240Y010852D01*
X013240Y010940D02*
X013240Y010758D01*
X013498Y010500D01*
X013680Y010500D01*
X013862Y010500D01*
X014120Y010758D01*
X014120Y010940D01*
X013680Y010940D01*
X013680Y010940D01*
X013680Y010500D01*
X013680Y010940D01*
X013680Y010940D01*
X013680Y010940D01*
X013240Y010940D01*
X013304Y010694D02*
X011231Y010694D01*
X011389Y010852D02*
X011414Y010852D01*
X011072Y010535D02*
X013463Y010535D01*
X013540Y010377D02*
X014946Y010377D01*
X014788Y010535D02*
X013897Y010535D01*
X013680Y010535D02*
X013680Y010535D01*
X013680Y010694D02*
X013680Y010694D01*
X013680Y010852D02*
X013680Y010852D01*
X014056Y010694D02*
X014629Y010694D01*
X014471Y010852D02*
X014120Y010852D01*
X014120Y011011D02*
X014312Y011011D01*
X014154Y011169D02*
X014073Y011169D01*
X014748Y011169D02*
X019612Y011169D01*
X019454Y011011D02*
X014906Y011011D01*
X015065Y010852D02*
X019295Y010852D01*
X019137Y010694D02*
X015223Y010694D01*
X015382Y010535D02*
X018978Y010535D01*
X018970Y010377D02*
X015540Y010377D01*
X015699Y010218D02*
X018970Y010218D01*
X018970Y010060D02*
X015857Y010060D01*
X016016Y009901D02*
X018970Y009901D01*
X018970Y009743D02*
X016174Y009743D01*
X016333Y009584D02*
X016510Y009584D01*
X016850Y009584D02*
X017510Y009584D01*
X017442Y009556D02*
X017324Y009438D01*
X017260Y009284D01*
X017260Y008596D01*
X017324Y008442D01*
X017442Y008324D01*
X017596Y008260D01*
X017764Y008260D01*
X017918Y008324D01*
X018036Y008442D01*
X018100Y008596D01*
X018100Y009284D01*
X018036Y009438D01*
X017918Y009556D01*
X017764Y009620D01*
X017596Y009620D01*
X017442Y009556D01*
X017319Y009426D02*
X017041Y009426D01*
X017100Y009267D02*
X017260Y009267D01*
X017260Y009109D02*
X017100Y009109D01*
X017100Y008950D02*
X017260Y008950D01*
X017260Y008792D02*
X017100Y008792D01*
X017100Y008633D02*
X017260Y008633D01*
X017311Y008475D02*
X017049Y008475D01*
X016899Y008316D02*
X017461Y008316D01*
X017899Y008316D02*
X018461Y008316D01*
X018311Y008475D02*
X018049Y008475D01*
X018100Y008633D02*
X018260Y008633D01*
X018260Y008792D02*
X018100Y008792D01*
X018100Y008950D02*
X018260Y008950D01*
X018260Y009109D02*
X018100Y009109D01*
X018100Y009267D02*
X018260Y009267D01*
X018319Y009426D02*
X018041Y009426D01*
X017850Y009584D02*
X018510Y009584D01*
X018850Y009584D02*
X018970Y009584D01*
X019390Y009584D02*
X019510Y009584D01*
X019390Y009743D02*
X020186Y009743D01*
X020344Y009901D02*
X019390Y009901D01*
X019390Y010060D02*
X020503Y010060D01*
X020661Y010218D02*
X019390Y010218D01*
X019414Y010377D02*
X020820Y010377D01*
X020978Y010535D02*
X019572Y010535D01*
X019731Y010694D02*
X021137Y010694D01*
X021295Y010852D02*
X019889Y010852D01*
X020048Y011011D02*
X021454Y011011D01*
X021596Y011260D02*
X021764Y011260D01*
X021918Y011324D01*
X022036Y011442D01*
X022100Y011596D01*
X022100Y012284D01*
X022036Y012438D01*
X021918Y012556D01*
X021764Y012620D01*
X021596Y012620D01*
X021442Y012556D01*
X021324Y012438D01*
X021260Y012284D01*
X021260Y011596D01*
X021324Y011442D01*
X021442Y011324D01*
X021596Y011260D01*
X021439Y011328D02*
X020921Y011328D01*
X021054Y011486D02*
X021306Y011486D01*
X021260Y011645D02*
X021100Y011645D01*
X021100Y011803D02*
X021260Y011803D01*
X021260Y011962D02*
X021100Y011962D01*
X021100Y012120D02*
X021260Y012120D01*
X021260Y012279D02*
X021100Y012279D01*
X021036Y012437D02*
X021324Y012437D01*
X021537Y012596D02*
X020823Y012596D01*
X020537Y012596D02*
X019823Y012596D01*
X020036Y012437D02*
X020324Y012437D01*
X020260Y012279D02*
X020100Y012279D01*
X020100Y012120D02*
X020260Y012120D01*
X020260Y011962D02*
X020100Y011962D01*
X020100Y011803D02*
X020246Y011803D01*
X020365Y011328D02*
X020439Y011328D01*
X020206Y011169D02*
X025097Y011169D01*
X025012Y011328D02*
X021921Y011328D01*
X022054Y011486D02*
X025000Y011486D01*
X025050Y011645D02*
X022100Y011645D01*
X022100Y011803D02*
X025199Y011803D01*
X025146Y012120D02*
X022100Y012120D01*
X022100Y011962D02*
X025861Y011962D01*
X026328Y012279D02*
X027057Y012279D01*
X027303Y012279D02*
X031032Y012279D01*
X031000Y012437D02*
X026360Y012437D01*
X026330Y012596D02*
X031030Y012596D01*
X031140Y012754D02*
X026220Y012754D01*
X026147Y013071D02*
X031213Y013071D01*
X031053Y013230D02*
X026307Y013230D01*
X026360Y013388D02*
X031000Y013388D01*
X031010Y013547D02*
X026350Y013547D01*
X026353Y014339D02*
X031007Y014339D01*
X031000Y014498D02*
X026360Y014498D01*
X026305Y014656D02*
X031055Y014656D01*
X031227Y014815D02*
X026133Y014815D01*
X026225Y015132D02*
X031135Y015132D01*
X031028Y015290D02*
X026332Y015290D01*
X026360Y015449D02*
X031000Y015449D01*
X031035Y015607D02*
X026325Y015607D01*
X026312Y016241D02*
X031048Y016241D01*
X031000Y016400D02*
X026360Y016400D01*
X026346Y016558D02*
X031014Y016558D01*
X031103Y016717D02*
X026257Y016717D01*
X026056Y017034D02*
X030789Y017034D01*
X030631Y017192D02*
X026286Y017192D01*
X026296Y017202D02*
X026360Y017356D01*
X026360Y017524D01*
X026296Y017678D01*
X026178Y017796D01*
X026024Y017860D01*
X025336Y017860D01*
X025182Y017796D01*
X025064Y017678D01*
X025050Y017644D01*
X025036Y017678D01*
X024918Y017796D01*
X024764Y017860D01*
X024596Y017860D01*
X024442Y017796D01*
X024324Y017678D01*
X024260Y017524D01*
X024260Y017356D01*
X024324Y017202D01*
X024442Y017084D01*
X024596Y017020D01*
X024764Y017020D01*
X024918Y017084D01*
X025036Y017202D01*
X025050Y017236D01*
X025064Y017202D01*
X025182Y017084D01*
X025336Y017020D01*
X026024Y017020D01*
X026178Y017084D01*
X026296Y017202D01*
X026358Y017351D02*
X030472Y017351D01*
X030314Y017509D02*
X026360Y017509D01*
X026300Y017668D02*
X030155Y017668D01*
X029997Y017826D02*
X026106Y017826D01*
X026024Y018020D02*
X025336Y018020D01*
X025182Y018084D01*
X025064Y018202D01*
X025050Y018236D01*
X025036Y018202D01*
X024918Y018084D01*
X024764Y018020D01*
X024596Y018020D01*
X024442Y018084D01*
X024324Y018202D01*
X024260Y018356D01*
X024260Y018524D01*
X024324Y018678D01*
X024442Y018796D01*
X024596Y018860D01*
X024764Y018860D01*
X024918Y018796D01*
X025036Y018678D01*
X025050Y018644D01*
X025064Y018678D01*
X025182Y018796D01*
X025336Y018860D01*
X026024Y018860D01*
X026178Y018796D01*
X026296Y018678D01*
X026360Y018524D01*
X026360Y018356D01*
X026296Y018202D01*
X026178Y018084D01*
X026024Y018020D01*
X026237Y018143D02*
X029680Y018143D01*
X029838Y017985D02*
X013847Y017985D01*
X013712Y018120D02*
X013460Y018120D01*
X013460Y017470D01*
X014110Y017470D01*
X014110Y017722D01*
X013712Y018120D01*
X013460Y017985D02*
X013400Y017985D01*
X013400Y017826D02*
X013460Y017826D01*
X013460Y017668D02*
X013400Y017668D01*
X013400Y017509D02*
X013460Y017509D01*
X012854Y017826D02*
X001010Y017826D01*
X001010Y017668D02*
X012750Y017668D01*
X012750Y017509D02*
X010465Y017509D01*
X010572Y017351D02*
X012750Y017351D01*
X012750Y017192D02*
X010600Y017192D01*
X010600Y017034D02*
X012875Y017034D01*
X013420Y016400D02*
X010493Y016400D01*
X009867Y016400D02*
X009493Y016400D01*
X009536Y016442D02*
X009600Y016596D01*
X009600Y017284D01*
X009536Y017438D01*
X009418Y017556D01*
X009264Y017620D01*
X009096Y017620D01*
X008942Y017556D01*
X008824Y017438D01*
X008760Y017284D01*
X008760Y016596D01*
X008824Y016442D01*
X008942Y016324D01*
X009096Y016260D01*
X009264Y016260D01*
X009418Y016324D01*
X009536Y016442D01*
X009584Y016558D02*
X009776Y016558D01*
X009760Y016717D02*
X009600Y016717D01*
X009600Y016875D02*
X009760Y016875D01*
X009760Y017034D02*
X009600Y017034D01*
X009600Y017192D02*
X009760Y017192D01*
X009788Y017351D02*
X009572Y017351D01*
X009465Y017509D02*
X009895Y017509D01*
X008895Y017509D02*
X008465Y017509D01*
X008418Y017556D02*
X008264Y017620D01*
X008096Y017620D01*
X007942Y017556D01*
X007824Y017438D01*
X007760Y017284D01*
X007760Y016596D01*
X007824Y016442D01*
X007942Y016324D01*
X008096Y016260D01*
X008264Y016260D01*
X008418Y016324D01*
X008536Y016442D01*
X008600Y016596D01*
X008600Y017284D01*
X008536Y017438D01*
X008418Y017556D01*
X008572Y017351D02*
X008788Y017351D01*
X008760Y017192D02*
X008600Y017192D01*
X008600Y017034D02*
X008760Y017034D01*
X008760Y016875D02*
X008600Y016875D01*
X008600Y016717D02*
X008760Y016717D01*
X008776Y016558D02*
X008584Y016558D01*
X008493Y016400D02*
X008867Y016400D01*
X007867Y016400D02*
X007493Y016400D01*
X007536Y016442D02*
X007600Y016596D01*
X007600Y017284D01*
X007536Y017438D01*
X007418Y017556D01*
X007264Y017620D01*
X007096Y017620D01*
X006942Y017556D01*
X006824Y017438D01*
X006760Y017284D01*
X006760Y016596D01*
X006824Y016442D01*
X006942Y016324D01*
X007096Y016260D01*
X007264Y016260D01*
X007418Y016324D01*
X007536Y016442D01*
X007584Y016558D02*
X007776Y016558D01*
X007760Y016717D02*
X007600Y016717D01*
X007600Y016875D02*
X007760Y016875D01*
X007760Y017034D02*
X007600Y017034D01*
X007600Y017192D02*
X007760Y017192D01*
X007788Y017351D02*
X007572Y017351D01*
X007465Y017509D02*
X007895Y017509D01*
X006895Y017509D02*
X006465Y017509D01*
X006418Y017556D02*
X006264Y017620D01*
X006096Y017620D01*
X005942Y017556D01*
X005824Y017438D01*
X005760Y017284D01*
X005760Y016596D01*
X005824Y016442D01*
X005942Y016324D01*
X006096Y016260D01*
X006264Y016260D01*
X006418Y016324D01*
X006536Y016442D01*
X006600Y016596D01*
X006600Y017284D01*
X006536Y017438D01*
X006418Y017556D01*
X006572Y017351D02*
X006788Y017351D01*
X006760Y017192D02*
X006600Y017192D01*
X006600Y017034D02*
X006760Y017034D01*
X006760Y016875D02*
X006600Y016875D01*
X006600Y016717D02*
X006760Y016717D01*
X006776Y016558D02*
X006584Y016558D01*
X006493Y016400D02*
X006867Y016400D01*
X005867Y016400D02*
X005493Y016400D01*
X005536Y016442D02*
X005600Y016596D01*
X005600Y017284D01*
X005536Y017438D01*
X005418Y017556D01*
X005264Y017620D01*
X005096Y017620D01*
X004942Y017556D01*
X004824Y017438D01*
X004760Y017284D01*
X004760Y016596D01*
X004824Y016442D01*
X004942Y016324D01*
X005096Y016260D01*
X005264Y016260D01*
X005418Y016324D01*
X005536Y016442D01*
X005584Y016558D02*
X005776Y016558D01*
X005760Y016717D02*
X005600Y016717D01*
X005600Y016875D02*
X005760Y016875D01*
X005760Y017034D02*
X005600Y017034D01*
X005600Y017192D02*
X005760Y017192D01*
X005788Y017351D02*
X005572Y017351D01*
X005465Y017509D02*
X005895Y017509D01*
X004895Y017509D02*
X004465Y017509D01*
X004572Y017351D02*
X004788Y017351D01*
X004760Y017192D02*
X004600Y017192D01*
X004600Y017034D02*
X004760Y017034D01*
X004760Y016875D02*
X004600Y016875D01*
X004600Y016717D02*
X004760Y016717D01*
X004776Y016558D02*
X004584Y016558D01*
X004493Y016400D02*
X004867Y016400D01*
X003760Y017034D02*
X003600Y017034D01*
X003600Y017192D02*
X003760Y017192D01*
X003788Y017351D02*
X003572Y017351D01*
X003465Y017509D02*
X003895Y017509D01*
X002895Y017509D02*
X001010Y017509D01*
X001010Y017351D02*
X002788Y017351D01*
X002609Y017192D02*
X001010Y017192D01*
X001010Y017034D02*
X002437Y017034D01*
X002420Y016875D02*
X001010Y016875D01*
X001010Y016717D02*
X002420Y016717D01*
X002420Y016558D02*
X001010Y016558D01*
X001010Y016400D02*
X002420Y016400D01*
X002420Y016241D02*
X001010Y016241D01*
X001010Y016083D02*
X002420Y016083D01*
X002420Y015924D02*
X001010Y015924D01*
X001010Y015766D02*
X002420Y015766D01*
X002420Y015607D02*
X001010Y015607D01*
X001010Y015449D02*
X002420Y015449D01*
X002420Y015290D02*
X001010Y015290D01*
X001010Y015132D02*
X002420Y015132D01*
X002420Y014973D02*
X001010Y014973D01*
X001010Y014815D02*
X002420Y014815D01*
X001010Y017985D02*
X013013Y017985D01*
X014006Y017826D02*
X024514Y017826D01*
X024320Y017668D02*
X014110Y017668D01*
X014110Y017509D02*
X024260Y017509D01*
X024262Y017351D02*
X014110Y017351D01*
X014110Y017192D02*
X024334Y017192D01*
X024564Y017034D02*
X013985Y017034D01*
X013863Y016875D02*
X030948Y016875D01*
X030908Y017509D02*
X031000Y017509D01*
X031060Y017668D02*
X030749Y017668D01*
X030591Y017826D02*
X031254Y017826D01*
X031123Y018143D02*
X030274Y018143D01*
X030432Y017985D02*
X032170Y017985D01*
X032170Y017826D02*
X032106Y017826D01*
X032690Y017826D02*
X038000Y017826D01*
X038016Y017819D02*
X038226Y017819D01*
X038421Y017900D01*
X038570Y018049D01*
X038651Y018244D01*
X038651Y018455D01*
X038570Y018650D01*
X038421Y018799D01*
X038226Y018879D01*
X038016Y018879D01*
X037821Y018799D01*
X037672Y018650D01*
X037591Y018455D01*
X037591Y018244D01*
X037672Y018049D01*
X037821Y017900D01*
X038016Y017819D01*
X038016Y017789D02*
X037821Y017708D01*
X037672Y017559D01*
X037591Y017364D01*
X037591Y017153D01*
X037672Y016959D01*
X037821Y016810D01*
X038016Y016729D01*
X038226Y016729D01*
X038421Y016810D01*
X038570Y016959D01*
X038651Y017153D01*
X038651Y017364D01*
X038570Y017559D01*
X038421Y017708D01*
X038226Y017789D01*
X038016Y017789D01*
X038242Y017826D02*
X038709Y017826D01*
X038709Y017912D02*
X038709Y017701D01*
X038790Y017506D01*
X038939Y017357D01*
X039134Y017276D01*
X039344Y017276D01*
X039539Y017357D01*
X039688Y017506D01*
X039769Y017701D01*
X039769Y017912D01*
X039688Y018106D01*
X039539Y018255D01*
X039344Y018336D01*
X039134Y018336D01*
X038939Y018255D01*
X038790Y018106D01*
X038709Y017912D01*
X038739Y017985D02*
X038506Y017985D01*
X038609Y018143D02*
X038826Y018143D01*
X038651Y018302D02*
X039050Y018302D01*
X039134Y018367D02*
X039344Y018367D01*
X039539Y018447D01*
X039688Y018596D01*
X039769Y018791D01*
X039769Y019002D01*
X039688Y019197D01*
X039539Y019346D01*
X039344Y019427D01*
X039134Y019427D01*
X038939Y019346D01*
X038790Y019197D01*
X038709Y019002D01*
X038709Y018791D01*
X038790Y018596D01*
X038939Y018447D01*
X039134Y018367D01*
X038926Y018460D02*
X038649Y018460D01*
X038583Y018619D02*
X038781Y018619D01*
X038715Y018777D02*
X038443Y018777D01*
X038421Y018991D02*
X038226Y018910D01*
X038016Y018910D01*
X037821Y018991D01*
X037672Y019140D01*
X037591Y019335D01*
X037591Y019545D01*
X037672Y019740D01*
X037821Y019889D01*
X038016Y019970D01*
X038226Y019970D01*
X038421Y019889D01*
X038570Y019740D01*
X038651Y019545D01*
X038651Y019335D01*
X038570Y019140D01*
X038421Y018991D01*
X038288Y018936D02*
X038709Y018936D01*
X038747Y019094D02*
X038525Y019094D01*
X038617Y019253D02*
X038845Y019253D01*
X038651Y019411D02*
X039096Y019411D01*
X039134Y019453D02*
X039344Y019453D01*
X039539Y019534D01*
X039688Y019683D01*
X039769Y019878D01*
X039769Y020089D01*
X039688Y020284D01*
X039539Y020433D01*
X039344Y020513D01*
X039134Y020513D01*
X038939Y020433D01*
X038790Y020284D01*
X038709Y020089D01*
X038709Y019878D01*
X038790Y019683D01*
X038939Y019534D01*
X039134Y019453D01*
X039382Y019411D02*
X039770Y019411D01*
X039770Y019253D02*
X039633Y019253D01*
X039731Y019094D02*
X039770Y019094D01*
X039769Y018936D02*
X039770Y018936D01*
X039763Y018777D02*
X039770Y018777D01*
X039770Y018619D02*
X039698Y018619D01*
X039770Y018460D02*
X039552Y018460D01*
X039428Y018302D02*
X039770Y018302D01*
X039770Y018143D02*
X039652Y018143D01*
X039739Y017985D02*
X039770Y017985D01*
X039769Y017826D02*
X039770Y017826D01*
X039755Y017668D02*
X039770Y017668D01*
X039770Y017509D02*
X039690Y017509D01*
X039770Y017351D02*
X039524Y017351D01*
X039770Y017192D02*
X038651Y017192D01*
X038651Y017351D02*
X038954Y017351D01*
X038788Y017509D02*
X038591Y017509D01*
X038462Y017668D02*
X038723Y017668D01*
X037780Y017668D02*
X032690Y017668D01*
X032690Y017509D02*
X037651Y017509D01*
X037591Y017351D02*
X032690Y017351D01*
X032690Y017192D02*
X037591Y017192D01*
X037641Y017034D02*
X032690Y017034D01*
X032690Y016875D02*
X037755Y016875D01*
X038487Y016875D02*
X039770Y016875D01*
X039770Y016717D02*
X032690Y016717D01*
X032690Y016558D02*
X039770Y016558D01*
X039770Y016400D02*
X032690Y016400D01*
X032690Y016241D02*
X039770Y016241D01*
X039770Y016083D02*
X032690Y016083D01*
X032690Y015924D02*
X039770Y015924D01*
X039770Y015766D02*
X032690Y015766D01*
X032690Y015607D02*
X038260Y015607D01*
X037970Y015449D02*
X032690Y015449D01*
X032690Y015290D02*
X037811Y015290D01*
X037694Y015132D02*
X032690Y015132D01*
X032690Y014973D02*
X037603Y014973D01*
X037558Y014815D02*
X032690Y014815D01*
X032690Y014656D02*
X037520Y014656D01*
X037520Y014498D02*
X032690Y014498D01*
X032690Y014339D02*
X037527Y014339D01*
X037570Y014181D02*
X032690Y014181D01*
X032690Y014022D02*
X037627Y014022D01*
X037719Y013864D02*
X032690Y013864D01*
X032690Y013705D02*
X037853Y013705D01*
X038044Y013547D02*
X032690Y013547D01*
X032690Y013388D02*
X038418Y013388D01*
X038942Y013388D02*
X039770Y013388D01*
X039770Y013230D02*
X032690Y013230D01*
X032330Y012596D02*
X034740Y012596D01*
X034740Y012440D02*
X034740Y012258D01*
X034998Y012000D01*
X035180Y012000D01*
X035362Y012000D01*
X035620Y012258D01*
X035620Y012440D01*
X035180Y012440D01*
X035180Y012440D01*
X035180Y012000D01*
X035180Y012440D01*
X035180Y012440D01*
X035180Y012440D01*
X034740Y012440D01*
X034740Y012437D02*
X032360Y012437D01*
X032328Y012279D02*
X034740Y012279D01*
X034878Y012120D02*
X032214Y012120D01*
X032189Y011803D02*
X032699Y011803D01*
X032682Y011796D02*
X032564Y011678D01*
X032500Y011524D01*
X032500Y011356D01*
X032564Y011202D01*
X032682Y011084D01*
X032836Y011020D01*
X033524Y011020D01*
X033678Y011084D01*
X033796Y011202D01*
X033860Y011356D01*
X033860Y011524D01*
X033796Y011678D01*
X033678Y011796D01*
X033524Y011860D01*
X032836Y011860D01*
X032682Y011796D01*
X032550Y011645D02*
X032330Y011645D01*
X032378Y011486D02*
X032500Y011486D01*
X032380Y011440D02*
X031680Y011440D01*
X031680Y011000D01*
X031975Y011000D01*
X032043Y011011D01*
X032109Y011032D01*
X032171Y011064D01*
X032227Y011104D01*
X032276Y011153D01*
X032316Y011209D01*
X032348Y011271D01*
X032369Y011337D01*
X032380Y011405D01*
X032380Y011440D01*
X032366Y011328D02*
X032512Y011328D01*
X032597Y011169D02*
X032287Y011169D01*
X032041Y011011D02*
X037240Y011011D01*
X037240Y010852D02*
X036596Y010852D01*
X036524Y011020D02*
X036678Y011084D01*
X036796Y011202D01*
X036860Y011356D01*
X036860Y011524D01*
X036796Y011678D01*
X036678Y011796D01*
X036524Y011860D01*
X035836Y011860D01*
X035682Y011796D01*
X035564Y011678D01*
X035500Y011524D01*
X035500Y011356D01*
X035564Y011202D01*
X035682Y011084D01*
X035836Y011020D01*
X036524Y011020D01*
X036763Y011169D02*
X037287Y011169D01*
X037445Y011328D02*
X036848Y011328D01*
X036860Y011486D02*
X039770Y011486D01*
X039770Y011328D02*
X038915Y011328D01*
X038862Y011380D02*
X038498Y011380D01*
X038240Y011122D01*
X038240Y010758D01*
X038498Y010500D01*
X038862Y010500D01*
X039120Y010758D01*
X039120Y011122D01*
X038862Y011380D01*
X039073Y011169D02*
X039770Y011169D01*
X039770Y011011D02*
X039120Y011011D01*
X039120Y010852D02*
X039770Y010852D01*
X039770Y010694D02*
X039056Y010694D01*
X038897Y010535D02*
X039770Y010535D01*
X039770Y010377D02*
X038866Y010377D01*
X039024Y010218D02*
X039770Y010218D01*
X039770Y010060D02*
X039120Y010060D01*
X039120Y009901D02*
X039770Y009901D01*
X039770Y009743D02*
X039105Y009743D01*
X038946Y009584D02*
X039770Y009584D01*
X039770Y009426D02*
X038491Y009426D01*
X038214Y009109D02*
X038120Y009109D01*
X038120Y008950D02*
X038240Y008950D01*
X038240Y008792D02*
X038120Y008792D01*
X037995Y008633D02*
X038365Y008633D01*
X038498Y008380D02*
X038240Y008122D01*
X038240Y007758D01*
X038498Y007500D01*
X038862Y007500D01*
X039120Y007758D01*
X039120Y008122D01*
X038862Y008380D01*
X038498Y008380D01*
X038434Y008316D02*
X037926Y008316D01*
X038085Y008158D02*
X038275Y008158D01*
X038240Y007999D02*
X038120Y007999D01*
X038120Y007841D02*
X038240Y007841D01*
X038316Y007682D02*
X038044Y007682D01*
X037886Y007524D02*
X038474Y007524D01*
X038498Y007380D02*
X038240Y007122D01*
X038240Y006758D01*
X038498Y006500D01*
X038862Y006500D01*
X039120Y006758D01*
X039120Y007122D01*
X038862Y007380D01*
X038498Y007380D01*
X038483Y007365D02*
X037877Y007365D01*
X038036Y007207D02*
X038324Y007207D01*
X038240Y007048D02*
X038120Y007048D01*
X038120Y006890D02*
X038240Y006890D01*
X038267Y006731D02*
X038093Y006731D01*
X037935Y006573D02*
X038425Y006573D01*
X038498Y006380D02*
X038240Y006122D01*
X038240Y005758D01*
X038498Y005500D01*
X038862Y005500D01*
X039120Y005758D01*
X039120Y006122D01*
X038862Y006380D01*
X038498Y006380D01*
X038373Y006256D02*
X037987Y006256D01*
X038120Y006097D02*
X038240Y006097D01*
X038240Y005939D02*
X038120Y005939D01*
X038120Y005780D02*
X038240Y005780D01*
X038376Y005622D02*
X037984Y005622D01*
X037376Y005622D02*
X036819Y005622D01*
X036860Y005463D02*
X039770Y005463D01*
X039770Y005305D02*
X036838Y005305D01*
X036740Y005146D02*
X039770Y005146D01*
X039770Y004988D02*
X032160Y004988D01*
X032160Y004920D02*
X031700Y004920D01*
X031700Y004460D01*
X031879Y004460D01*
X032160Y004741D01*
X032160Y004920D01*
X032160Y004829D02*
X039770Y004829D01*
X039770Y004671D02*
X032089Y004671D01*
X031931Y004512D02*
X039770Y004512D01*
X039770Y004354D02*
X030890Y004354D01*
X030903Y004512D02*
X031429Y004512D01*
X031481Y004460D02*
X031660Y004460D01*
X031660Y004920D01*
X031200Y004920D01*
X031200Y004741D01*
X031481Y004460D01*
X031660Y004512D02*
X031700Y004512D01*
X031700Y004671D02*
X031660Y004671D01*
X031660Y004829D02*
X031700Y004829D01*
X031271Y004671D02*
X031061Y004671D01*
X031140Y004829D02*
X031200Y004829D01*
X031200Y004988D02*
X031140Y004988D01*
X031125Y005146D02*
X031207Y005146D01*
X032091Y005305D02*
X032501Y005305D01*
X032491Y005337D02*
X032512Y005271D01*
X032544Y005209D01*
X032584Y005153D01*
X032633Y005104D01*
X032689Y005064D01*
X032751Y005032D01*
X032817Y005011D01*
X032885Y005000D01*
X033180Y005000D01*
X033475Y005000D01*
X033543Y005011D01*
X033609Y005032D01*
X033671Y005064D01*
X033727Y005104D01*
X033776Y005153D01*
X033816Y005209D01*
X033848Y005271D01*
X033869Y005337D01*
X033880Y005405D01*
X033880Y005440D01*
X033180Y005440D01*
X033180Y005440D01*
X033180Y005000D01*
X033180Y005440D01*
X033180Y005440D01*
X033180Y005440D01*
X032480Y005440D01*
X032480Y005405D01*
X032491Y005337D01*
X032480Y005463D02*
X032250Y005463D01*
X032408Y005622D02*
X032519Y005622D01*
X032592Y005146D02*
X032153Y005146D01*
X033180Y005146D02*
X033180Y005146D01*
X033180Y005305D02*
X033180Y005305D01*
X033768Y005146D02*
X035620Y005146D01*
X035522Y005305D02*
X033859Y005305D01*
X033880Y005463D02*
X035500Y005463D01*
X035541Y005622D02*
X033841Y005622D01*
X033744Y006150D02*
X033796Y006202D01*
X033860Y006356D01*
X033860Y006524D01*
X033796Y006678D01*
X033744Y006730D01*
X035588Y006730D01*
X035584Y006727D01*
X035544Y006671D01*
X035512Y006609D01*
X035491Y006543D01*
X035480Y006475D01*
X035480Y006440D01*
X036180Y006440D01*
X036880Y006440D01*
X036180Y006440D01*
X036180Y006440D01*
X036180Y006440D01*
X035480Y006440D01*
X035480Y006405D01*
X035491Y006337D01*
X035512Y006271D01*
X035544Y006209D01*
X035584Y006153D01*
X035588Y006150D01*
X033744Y006150D01*
X033818Y006256D02*
X035520Y006256D01*
X035480Y006414D02*
X033860Y006414D01*
X033840Y006573D02*
X035500Y006573D01*
X035616Y007150D02*
X033772Y007150D01*
X033776Y007153D01*
X033816Y007209D01*
X033848Y007271D01*
X033869Y007337D01*
X033880Y007405D01*
X033880Y007440D01*
X033880Y007475D01*
X033869Y007543D01*
X033848Y007609D01*
X033816Y007671D01*
X033776Y007727D01*
X033772Y007730D01*
X035616Y007730D01*
X035564Y007678D01*
X035500Y007524D01*
X035500Y007356D01*
X035564Y007202D01*
X035616Y007150D01*
X035562Y007207D02*
X033814Y007207D01*
X033874Y007365D02*
X035500Y007365D01*
X035500Y007524D02*
X033872Y007524D01*
X033880Y007440D02*
X033180Y007440D01*
X033180Y007440D01*
X033880Y007440D01*
X033808Y007682D02*
X035568Y007682D01*
X035588Y008150D02*
X033744Y008150D01*
X033796Y008202D01*
X033860Y008356D01*
X033860Y008524D01*
X033796Y008678D01*
X033755Y008718D01*
X033767Y008730D01*
X035588Y008730D01*
X035584Y008727D01*
X035544Y008671D01*
X035512Y008609D01*
X035491Y008543D01*
X035480Y008475D01*
X035480Y008440D01*
X036180Y008440D01*
X036880Y008440D01*
X036180Y008440D01*
X036180Y008440D01*
X036180Y008440D01*
X035480Y008440D01*
X035480Y008405D01*
X035491Y008337D01*
X035512Y008271D01*
X035544Y008209D01*
X035584Y008153D01*
X035588Y008150D01*
X035581Y008158D02*
X033751Y008158D01*
X033843Y008316D02*
X035498Y008316D01*
X035480Y008475D02*
X033860Y008475D01*
X033815Y008633D02*
X035525Y008633D01*
X036835Y008633D02*
X037365Y008633D01*
X037240Y008792D02*
X037078Y008792D01*
X037237Y008950D02*
X037240Y008950D01*
X036960Y009267D02*
X036823Y009267D01*
X036860Y009426D02*
X037119Y009426D01*
X037277Y009584D02*
X036835Y009584D01*
X036780Y009743D02*
X037255Y009743D01*
X037240Y009901D02*
X036938Y009901D01*
X037097Y010060D02*
X037240Y010060D01*
X037255Y010218D02*
X037336Y010218D01*
X037414Y010377D02*
X037494Y010377D01*
X037866Y010377D02*
X038494Y010377D01*
X038463Y010535D02*
X037897Y010535D01*
X038056Y010694D02*
X038304Y010694D01*
X038240Y010852D02*
X038120Y010852D01*
X038120Y011011D02*
X038240Y011011D01*
X038287Y011169D02*
X038073Y011169D01*
X037915Y011328D02*
X038445Y011328D01*
X039770Y011645D02*
X036810Y011645D01*
X036661Y011803D02*
X039770Y011803D01*
X039770Y011962D02*
X031499Y011962D01*
X031680Y011803D02*
X031680Y011803D01*
X031680Y011645D02*
X031680Y011645D01*
X031680Y011486D02*
X031680Y011486D01*
X031680Y011440D02*
X031680Y011440D01*
X031680Y011440D01*
X031680Y011000D01*
X031385Y011000D01*
X031317Y011011D01*
X031251Y011032D01*
X031189Y011064D01*
X031133Y011104D01*
X031084Y011153D01*
X031044Y011209D01*
X031012Y011271D01*
X030991Y011337D01*
X030980Y011405D01*
X030980Y011440D01*
X031680Y011440D01*
X031680Y011328D02*
X031680Y011328D01*
X031680Y011169D02*
X031680Y011169D01*
X031680Y011011D02*
X031680Y011011D01*
X031319Y011011D02*
X030548Y011011D01*
X030706Y011169D02*
X031073Y011169D01*
X030994Y011328D02*
X030865Y011328D01*
X030588Y011645D02*
X028485Y011645D01*
X028540Y011486D02*
X030429Y011486D01*
X030271Y011328D02*
X028523Y011328D01*
X028418Y011169D02*
X030112Y011169D01*
X030389Y010852D02*
X031317Y010852D01*
X031080Y010694D02*
X029436Y010694D01*
X029530Y010535D02*
X031005Y010535D01*
X031000Y010377D02*
X029540Y010377D01*
X029467Y010218D02*
X031057Y010218D01*
X032043Y010852D02*
X032817Y010852D01*
X032580Y010694D02*
X032280Y010694D01*
X032355Y010535D02*
X032478Y010535D01*
X033543Y010852D02*
X035764Y010852D01*
X035560Y010694D02*
X033780Y010694D01*
X033855Y010535D02*
X035490Y010535D01*
X035485Y010377D02*
X033860Y010377D01*
X033803Y010218D02*
X035539Y010218D01*
X036180Y010535D02*
X036180Y010535D01*
X036180Y010694D02*
X036180Y010694D01*
X036180Y010852D02*
X036180Y010852D01*
X036800Y010694D02*
X037137Y010694D01*
X036978Y010535D02*
X036870Y010535D01*
X035597Y011169D02*
X033763Y011169D01*
X033848Y011328D02*
X035512Y011328D01*
X035500Y011486D02*
X033860Y011486D01*
X033810Y011645D02*
X035550Y011645D01*
X035699Y011803D02*
X033661Y011803D01*
X035180Y012120D02*
X035180Y012120D01*
X035180Y012279D02*
X035180Y012279D01*
X035180Y012437D02*
X035180Y012437D01*
X035482Y012120D02*
X035906Y012120D01*
X035760Y012279D02*
X035620Y012279D01*
X035620Y012437D02*
X035760Y012437D01*
X035657Y012596D02*
X035620Y012596D01*
X036075Y012913D02*
X039770Y012913D01*
X039770Y013071D02*
X035917Y013071D01*
X036460Y012754D02*
X039770Y012754D01*
X039770Y012596D02*
X036600Y012596D01*
X036600Y012437D02*
X039770Y012437D01*
X039770Y012279D02*
X036600Y012279D01*
X036454Y012120D02*
X039770Y012120D01*
X039770Y013547D02*
X039316Y013547D01*
X039507Y013705D02*
X039770Y013705D01*
X039770Y013864D02*
X039641Y013864D01*
X039733Y014022D02*
X039770Y014022D01*
X039757Y014973D02*
X039770Y014973D01*
X039770Y015132D02*
X039666Y015132D01*
X039770Y015290D02*
X039549Y015290D01*
X039390Y015449D02*
X039770Y015449D01*
X039770Y015607D02*
X039100Y015607D01*
X038601Y017034D02*
X039770Y017034D01*
X037736Y017985D02*
X032690Y017985D01*
X032690Y018143D02*
X032855Y018143D01*
X032740Y018258D02*
X032998Y018000D01*
X033180Y018000D01*
X033362Y018000D01*
X033620Y018258D01*
X033620Y018440D01*
X033620Y018622D01*
X033362Y018880D01*
X033180Y018880D01*
X033180Y018440D01*
X033180Y018440D01*
X033620Y018440D01*
X033180Y018440D01*
X033180Y018440D01*
X033180Y018440D01*
X032740Y018440D01*
X032740Y018622D01*
X032998Y018880D01*
X033180Y018880D01*
X033180Y018440D01*
X033180Y018000D01*
X033180Y018440D01*
X033180Y018440D01*
X032740Y018440D01*
X032740Y018258D01*
X032740Y018302D02*
X032690Y018302D01*
X032690Y018460D02*
X032740Y018460D01*
X032740Y018619D02*
X032690Y018619D01*
X032690Y018777D02*
X032895Y018777D01*
X032690Y018936D02*
X037954Y018936D01*
X037799Y018777D02*
X033465Y018777D01*
X033620Y018619D02*
X037659Y018619D01*
X037593Y018460D02*
X033620Y018460D01*
X033620Y018302D02*
X037591Y018302D01*
X037633Y018143D02*
X033505Y018143D01*
X033180Y018143D02*
X033180Y018143D01*
X033180Y018302D02*
X033180Y018302D01*
X033180Y018460D02*
X033180Y018460D01*
X033180Y018619D02*
X033180Y018619D01*
X033180Y018777D02*
X033180Y018777D01*
X033428Y019094D02*
X037717Y019094D01*
X037625Y019253D02*
X033586Y019253D01*
X033600Y019411D02*
X037591Y019411D01*
X037601Y019570D02*
X033600Y019570D01*
X033486Y019728D02*
X037667Y019728D01*
X037818Y019887D02*
X028530Y019887D01*
X028372Y020045D02*
X037908Y020045D01*
X038334Y020045D02*
X038709Y020045D01*
X038709Y019887D02*
X038424Y019887D01*
X038575Y019728D02*
X038771Y019728D01*
X038641Y019570D02*
X038903Y019570D01*
X039575Y019570D02*
X039770Y019570D01*
X039770Y019728D02*
X039707Y019728D01*
X039769Y019887D02*
X039770Y019887D01*
X039769Y020045D02*
X039770Y020045D01*
X039770Y020204D02*
X039722Y020204D01*
X039770Y020362D02*
X039610Y020362D01*
X039770Y020521D02*
X038651Y020521D01*
X038633Y020679D02*
X038884Y020679D01*
X038939Y020625D02*
X039134Y020544D01*
X039344Y020544D01*
X039539Y020625D01*
X039688Y020774D01*
X039769Y020968D01*
X039769Y021179D01*
X039688Y021374D01*
X039539Y021523D01*
X039344Y021604D01*
X039134Y021604D01*
X038939Y021523D01*
X038790Y021374D01*
X038709Y021179D01*
X038709Y020968D01*
X038790Y020774D01*
X038939Y020625D01*
X038868Y020362D02*
X038625Y020362D01*
X038543Y020204D02*
X038757Y020204D01*
X039594Y020679D02*
X039770Y020679D01*
X039770Y020838D02*
X039715Y020838D01*
X039769Y020996D02*
X039770Y020996D01*
X039769Y021155D02*
X039770Y021155D01*
X039770Y021313D02*
X039714Y021313D01*
X039770Y021472D02*
X039591Y021472D01*
X039770Y021630D02*
X038651Y021630D01*
X038651Y021472D02*
X038887Y021472D01*
X038764Y021313D02*
X038651Y021313D01*
X038651Y021185D02*
X038651Y022057D01*
X038557Y022151D01*
X037685Y022151D01*
X037591Y022057D01*
X037591Y021185D01*
X037685Y021091D01*
X038557Y021091D01*
X038651Y021185D01*
X038621Y021155D02*
X038709Y021155D01*
X038709Y020996D02*
X038382Y020996D01*
X038563Y020838D02*
X038763Y020838D01*
X037860Y020996D02*
X001010Y020996D01*
X001010Y020838D02*
X037678Y020838D01*
X037621Y021155D02*
X001010Y021155D01*
X001010Y021313D02*
X037591Y021313D01*
X037591Y021472D02*
X001010Y021472D01*
X001010Y021630D02*
X037591Y021630D01*
X037591Y021789D02*
X001010Y021789D01*
X001010Y021947D02*
X037591Y021947D01*
X037639Y022106D02*
X001010Y022106D01*
X001010Y022264D02*
X039770Y022264D01*
X039770Y022106D02*
X038603Y022106D01*
X038651Y021947D02*
X039770Y021947D01*
X039770Y021789D02*
X038651Y021789D01*
X039770Y022423D02*
X001010Y022423D01*
X001010Y022581D02*
X039770Y022581D01*
X039770Y022740D02*
X001010Y022740D01*
X001010Y022898D02*
X039770Y022898D01*
X039770Y023057D02*
X001010Y023057D01*
X001010Y023215D02*
X038476Y023215D01*
X038884Y023215D02*
X039770Y023215D01*
X039770Y023374D02*
X039289Y023374D01*
X039491Y023532D02*
X039770Y023532D01*
X039770Y023691D02*
X039632Y023691D01*
X039724Y023849D02*
X039770Y023849D01*
X039763Y024800D02*
X039770Y024800D01*
X039770Y024959D02*
X039675Y024959D01*
X039770Y025117D02*
X039565Y025117D01*
X039406Y025276D02*
X039770Y025276D01*
X039770Y025434D02*
X039142Y025434D01*
X039770Y025593D02*
X001010Y025593D01*
X001010Y025751D02*
X039770Y025751D01*
X039770Y025910D02*
X001010Y025910D01*
X001010Y026068D02*
X039770Y026068D01*
X038218Y025434D02*
X001010Y025434D01*
X001010Y025276D02*
X037954Y025276D01*
X037795Y025117D02*
X001010Y025117D01*
X001010Y024959D02*
X037685Y024959D01*
X037597Y024800D02*
X001010Y024800D01*
X001010Y024642D02*
X037554Y024642D01*
X037520Y024483D02*
X001010Y024483D01*
X001010Y024325D02*
X037520Y024325D01*
X037531Y024166D02*
X001010Y024166D01*
X001010Y024008D02*
X037574Y024008D01*
X037636Y023849D02*
X001010Y023849D01*
X001010Y023691D02*
X037728Y023691D01*
X037869Y023532D02*
X001010Y023532D01*
X001010Y023374D02*
X038071Y023374D01*
X032874Y019728D02*
X032246Y019728D01*
X031114Y019728D02*
X028689Y019728D01*
X028847Y019570D02*
X031019Y019570D01*
X031000Y019411D02*
X029006Y019411D01*
X029164Y019253D02*
X031043Y019253D01*
X031172Y019094D02*
X029323Y019094D01*
X029481Y018936D02*
X032170Y018936D01*
X032690Y019094D02*
X032932Y019094D01*
X031163Y018777D02*
X029640Y018777D01*
X029798Y018619D02*
X031039Y018619D01*
X031000Y018460D02*
X029957Y018460D01*
X030115Y018302D02*
X031023Y018302D01*
X029521Y018302D02*
X026337Y018302D01*
X026360Y018460D02*
X029363Y018460D01*
X029204Y018619D02*
X026321Y018619D01*
X026197Y018777D02*
X029046Y018777D01*
X028887Y018936D02*
X020859Y018936D01*
X020703Y018780D02*
X021090Y019167D01*
X021090Y019713D01*
X020703Y020100D01*
X020157Y020100D01*
X019770Y019713D01*
X019770Y019167D01*
X020157Y018780D01*
X020703Y018780D01*
X021017Y019094D02*
X025172Y019094D01*
X025043Y019253D02*
X024346Y019253D01*
X024268Y019220D02*
X024429Y019287D01*
X024553Y019411D01*
X025000Y019411D01*
X025019Y019570D02*
X024619Y019570D01*
X024620Y019572D02*
X024620Y019730D01*
X024620Y019728D02*
X025114Y019728D01*
X024620Y019572D02*
X024553Y019411D01*
X024268Y019220D02*
X024092Y019220D01*
X023931Y019287D01*
X023807Y019411D01*
X024014Y019253D02*
X023394Y019253D01*
X023190Y019253D02*
X023170Y019253D01*
X023170Y019200D02*
X023170Y019930D01*
X022720Y019930D01*
X022720Y019624D01*
X022731Y019552D01*
X022754Y019483D01*
X022787Y019419D01*
X022829Y019360D01*
X022880Y019309D01*
X022939Y019267D01*
X023003Y019234D01*
X023072Y019211D01*
X023144Y019200D01*
X023170Y019200D01*
X022966Y019253D02*
X021090Y019253D01*
X021090Y019411D02*
X022792Y019411D01*
X022729Y019570D02*
X021090Y019570D01*
X021075Y019728D02*
X022720Y019728D01*
X022720Y019887D02*
X020917Y019887D01*
X020758Y020045D02*
X022720Y020045D01*
X022720Y020204D02*
X001010Y020204D01*
X001010Y020362D02*
X022742Y020362D01*
X022830Y020521D02*
X001010Y020521D01*
X001010Y020679D02*
X023138Y020679D01*
X023170Y020679D02*
X023190Y020679D01*
X023190Y020521D02*
X023170Y020521D01*
X023170Y020362D02*
X023190Y020362D01*
X023190Y020204D02*
X023170Y020204D01*
X023170Y020045D02*
X023190Y020045D01*
X023190Y019887D02*
X023170Y019887D01*
X023170Y019728D02*
X023190Y019728D01*
X023190Y019570D02*
X023170Y019570D01*
X023170Y019411D02*
X023190Y019411D01*
X024299Y018619D02*
X001010Y018619D01*
X001010Y018777D02*
X024423Y018777D01*
X024260Y018460D02*
X001010Y018460D01*
X001010Y018302D02*
X024283Y018302D01*
X024383Y018143D02*
X001010Y018143D01*
X001010Y018936D02*
X020001Y018936D01*
X019843Y019094D02*
X001010Y019094D01*
X001010Y019253D02*
X019770Y019253D01*
X019770Y019411D02*
X001010Y019411D01*
X001010Y019570D02*
X019770Y019570D01*
X019785Y019728D02*
X001010Y019728D01*
X001010Y019887D02*
X019943Y019887D01*
X020102Y020045D02*
X001010Y020045D01*
X008906Y014973D02*
X011850Y014973D01*
X012008Y014815D02*
X009018Y014815D01*
X010600Y014181D02*
X010661Y014181D01*
X011180Y013547D02*
X011180Y013547D01*
X011180Y013388D02*
X011180Y013388D01*
X011180Y013230D02*
X011180Y013230D01*
X011180Y013071D02*
X011180Y013071D01*
X012930Y014181D02*
X012970Y014181D01*
X013390Y014181D02*
X013420Y014181D01*
X013420Y014339D02*
X013390Y014339D01*
X013390Y014498D02*
X013420Y014498D01*
X013420Y014656D02*
X013390Y014656D01*
X013390Y014815D02*
X013420Y014815D01*
X013420Y014973D02*
X013390Y014973D01*
X013390Y015132D02*
X013420Y015132D01*
X013420Y015290D02*
X013390Y015290D01*
X013390Y015449D02*
X013420Y015449D01*
X013420Y015607D02*
X013310Y015607D01*
X013940Y015607D02*
X019770Y015607D01*
X019770Y015449D02*
X013940Y015449D01*
X013940Y015290D02*
X019770Y015290D01*
X019805Y015132D02*
X013940Y015132D01*
X013940Y014973D02*
X019964Y014973D01*
X020122Y014815D02*
X013940Y014815D01*
X013940Y014656D02*
X025055Y014656D01*
X025000Y014498D02*
X013940Y014498D01*
X013940Y014339D02*
X025007Y014339D01*
X025227Y014815D02*
X020738Y014815D01*
X020896Y014973D02*
X032170Y014973D01*
X032170Y014815D02*
X032133Y014815D01*
X031840Y012913D02*
X013940Y012913D01*
X013940Y013071D02*
X025213Y013071D01*
X025053Y013230D02*
X013940Y013230D01*
X013940Y013388D02*
X025000Y013388D01*
X025010Y013547D02*
X013940Y013547D01*
X013420Y013547D02*
X013390Y013547D01*
X013390Y013705D02*
X013420Y013705D01*
X013420Y013864D02*
X013390Y013864D01*
X013390Y014022D02*
X013420Y014022D01*
X013390Y013388D02*
X013420Y013388D01*
X013420Y013230D02*
X013390Y013230D01*
X013390Y013071D02*
X013420Y013071D01*
X013420Y012913D02*
X013390Y012913D01*
X013390Y012754D02*
X013420Y012754D01*
X013420Y012596D02*
X013390Y012596D01*
X013390Y012437D02*
X013420Y012437D01*
X013420Y012279D02*
X013390Y012279D01*
X013940Y012279D02*
X014260Y012279D01*
X014324Y012437D02*
X013940Y012437D01*
X013940Y012596D02*
X014537Y012596D01*
X014823Y012596D02*
X015537Y012596D01*
X015596Y012620D02*
X015442Y012556D01*
X015324Y012438D01*
X015260Y012284D01*
X015260Y011596D01*
X015324Y011442D01*
X015442Y011324D01*
X015596Y011260D01*
X015764Y011260D01*
X015918Y011324D01*
X016036Y011442D01*
X016100Y011596D01*
X016100Y012284D01*
X016036Y012438D01*
X015918Y012556D01*
X015764Y012620D01*
X015596Y012620D01*
X015823Y012596D02*
X016537Y012596D01*
X016596Y012620D02*
X016442Y012556D01*
X016324Y012438D01*
X016260Y012284D01*
X016260Y011596D01*
X016324Y011442D01*
X016442Y011324D01*
X016596Y011260D01*
X016764Y011260D01*
X016918Y011324D01*
X017036Y011442D01*
X017100Y011596D01*
X017100Y012284D01*
X017036Y012438D01*
X016918Y012556D01*
X016764Y012620D01*
X016596Y012620D01*
X016823Y012596D02*
X017537Y012596D01*
X017596Y012620D02*
X017442Y012556D01*
X017324Y012438D01*
X017260Y012284D01*
X017260Y011596D01*
X017324Y011442D01*
X017442Y011324D01*
X017596Y011260D01*
X017764Y011260D01*
X017918Y011324D01*
X018036Y011442D01*
X018100Y011596D01*
X018100Y012284D01*
X018036Y012438D01*
X017918Y012556D01*
X017764Y012620D01*
X017596Y012620D01*
X017823Y012596D02*
X018537Y012596D01*
X018596Y012620D02*
X018442Y012556D01*
X018324Y012438D01*
X018260Y012284D01*
X018260Y011596D01*
X018324Y011442D01*
X018442Y011324D01*
X018596Y011260D01*
X018764Y011260D01*
X018918Y011324D01*
X019036Y011442D01*
X019100Y011596D01*
X019100Y012284D01*
X019036Y012438D01*
X018918Y012556D01*
X018764Y012620D01*
X018596Y012620D01*
X018823Y012596D02*
X019537Y012596D01*
X019324Y012437D02*
X019036Y012437D01*
X019100Y012279D02*
X019260Y012279D01*
X019260Y012120D02*
X019100Y012120D01*
X019100Y011962D02*
X019260Y011962D01*
X019260Y011803D02*
X019100Y011803D01*
X019100Y011645D02*
X019260Y011645D01*
X019306Y011486D02*
X019054Y011486D01*
X018921Y011328D02*
X019439Y011328D01*
X018439Y011328D02*
X017921Y011328D01*
X018054Y011486D02*
X018306Y011486D01*
X018260Y011645D02*
X018100Y011645D01*
X018100Y011803D02*
X018260Y011803D01*
X018260Y011962D02*
X018100Y011962D01*
X018100Y012120D02*
X018260Y012120D01*
X018260Y012279D02*
X018100Y012279D01*
X018036Y012437D02*
X018324Y012437D01*
X017324Y012437D02*
X017036Y012437D01*
X017100Y012279D02*
X017260Y012279D01*
X017260Y012120D02*
X017100Y012120D01*
X017100Y011962D02*
X017260Y011962D01*
X017260Y011803D02*
X017100Y011803D01*
X017100Y011645D02*
X017260Y011645D01*
X017306Y011486D02*
X017054Y011486D01*
X016921Y011328D02*
X017439Y011328D01*
X016439Y011328D02*
X015921Y011328D01*
X016054Y011486D02*
X016306Y011486D01*
X016260Y011645D02*
X016100Y011645D01*
X016100Y011803D02*
X016260Y011803D01*
X016260Y011962D02*
X016100Y011962D01*
X016100Y012120D02*
X016260Y012120D01*
X016260Y012279D02*
X016100Y012279D01*
X016036Y012437D02*
X016324Y012437D01*
X015324Y012437D02*
X015036Y012437D01*
X015100Y012279D02*
X015260Y012279D01*
X015260Y012120D02*
X015100Y012120D01*
X015100Y011962D02*
X015260Y011962D01*
X015260Y011803D02*
X015100Y011803D01*
X015100Y011645D02*
X015260Y011645D01*
X015306Y011486D02*
X015054Y011486D01*
X014921Y011328D02*
X015439Y011328D01*
X015105Y010218D02*
X013699Y010218D01*
X013857Y010060D02*
X015263Y010060D01*
X015422Y009901D02*
X014016Y009901D01*
X014174Y009743D02*
X015580Y009743D01*
X015510Y009584D02*
X014850Y009584D01*
X015041Y009426D02*
X015319Y009426D01*
X015260Y009267D02*
X015100Y009267D01*
X015100Y009109D02*
X015260Y009109D01*
X015260Y008950D02*
X015100Y008950D01*
X015100Y008792D02*
X015260Y008792D01*
X015260Y008633D02*
X015100Y008633D01*
X015049Y008475D02*
X015311Y008475D01*
X015461Y008316D02*
X014899Y008316D01*
X014759Y008158D02*
X018970Y008158D01*
X018970Y008316D02*
X018899Y008316D01*
X019074Y007999D02*
X014918Y007999D01*
X014483Y007841D02*
X011961Y007841D01*
X011967Y007844D02*
X012016Y007893D01*
X012056Y007949D01*
X012088Y008011D01*
X012109Y008077D01*
X012120Y008145D01*
X012120Y008440D01*
X012120Y008735D01*
X012109Y008803D01*
X012088Y008869D01*
X012056Y008931D01*
X012016Y008987D01*
X011967Y009036D01*
X011911Y009076D01*
X011849Y009108D01*
X011832Y009113D01*
X011884Y009135D01*
X011985Y009236D01*
X012040Y009368D01*
X012040Y009512D01*
X011985Y009644D01*
X011899Y009730D01*
X012593Y009730D01*
X014720Y007603D01*
X014843Y007480D01*
X019631Y007480D01*
X019711Y007400D01*
X011390Y007400D01*
X011390Y007527D01*
X011390Y007848D01*
X011393Y007844D01*
X011449Y007804D01*
X011511Y007772D01*
X011577Y007751D01*
X011645Y007740D01*
X011680Y007740D01*
X011715Y007740D01*
X011783Y007751D01*
X011849Y007772D01*
X011911Y007804D01*
X011967Y007844D01*
X012082Y007999D02*
X014324Y007999D01*
X014166Y008158D02*
X012120Y008158D01*
X012120Y008316D02*
X014007Y008316D01*
X013849Y008475D02*
X012120Y008475D01*
X012120Y008440D02*
X011680Y008440D01*
X011680Y008440D01*
X012120Y008440D01*
X012120Y008633D02*
X013690Y008633D01*
X013531Y008792D02*
X012111Y008792D01*
X012042Y008950D02*
X013373Y008950D01*
X013214Y009109D02*
X011847Y009109D01*
X011998Y009267D02*
X013056Y009267D01*
X012897Y009426D02*
X012040Y009426D01*
X012010Y009584D02*
X012739Y009584D01*
X014333Y009584D02*
X014510Y009584D01*
X016100Y009109D02*
X016214Y009109D01*
X016260Y008950D02*
X016100Y008950D01*
X016100Y008792D02*
X016260Y008792D01*
X016260Y008633D02*
X016100Y008633D01*
X016049Y008475D02*
X016311Y008475D01*
X016461Y008316D02*
X015899Y008316D01*
X014800Y007524D02*
X011390Y007524D01*
X011390Y007682D02*
X014641Y007682D01*
X011680Y007740D02*
X011680Y008440D01*
X011680Y008440D01*
X011680Y007740D01*
X011680Y007841D02*
X011680Y007841D01*
X011680Y007999D02*
X011680Y007999D01*
X011680Y008158D02*
X011680Y008158D01*
X011680Y008316D02*
X011680Y008316D01*
X011399Y007841D02*
X011390Y007841D01*
X003673Y009730D02*
X002958Y009015D01*
X002918Y009056D01*
X002764Y009120D01*
X002596Y009120D01*
X002442Y009056D01*
X002324Y008938D01*
X002260Y008784D01*
X002260Y008096D01*
X002324Y007942D01*
X002442Y007824D01*
X002596Y007760D01*
X002764Y007760D01*
X002831Y007788D01*
X002820Y007762D01*
X002820Y007618D01*
X002875Y007486D01*
X002920Y007441D01*
X002920Y006351D01*
X002871Y006400D01*
X002489Y006400D01*
X002220Y006131D01*
X002220Y005749D01*
X002489Y005480D01*
X002871Y005480D01*
X002920Y005529D01*
X002920Y005388D01*
X002947Y005324D01*
X002871Y005400D01*
X002489Y005400D01*
X002220Y005131D01*
X002220Y004749D01*
X002470Y004499D01*
X002470Y003940D01*
X001010Y003940D01*
X001010Y009813D01*
X001093Y009730D01*
X003673Y009730D01*
X003527Y009584D02*
X001010Y009584D01*
X001010Y009426D02*
X003369Y009426D01*
X003210Y009267D02*
X001010Y009267D01*
X001010Y009109D02*
X002569Y009109D01*
X002791Y009109D02*
X003052Y009109D01*
X002336Y008950D02*
X001010Y008950D01*
X001010Y008792D02*
X002263Y008792D01*
X002260Y008633D02*
X001010Y008633D01*
X001010Y008475D02*
X002260Y008475D01*
X002260Y008316D02*
X001010Y008316D01*
X001010Y008158D02*
X002260Y008158D01*
X002300Y007999D02*
X001010Y007999D01*
X001010Y007841D02*
X002426Y007841D01*
X002820Y007682D02*
X001010Y007682D01*
X001010Y007524D02*
X002859Y007524D01*
X002920Y007365D02*
X001010Y007365D01*
X001010Y007207D02*
X002920Y007207D01*
X002920Y007048D02*
X001010Y007048D01*
X001010Y006890D02*
X002920Y006890D01*
X002920Y006731D02*
X001010Y006731D01*
X001010Y006573D02*
X002920Y006573D01*
X002920Y006414D02*
X001010Y006414D01*
X001010Y006256D02*
X001345Y006256D01*
X001220Y006131D02*
X001220Y005749D01*
X001489Y005480D01*
X001871Y005480D01*
X002140Y005749D01*
X002140Y006131D01*
X001871Y006400D01*
X001489Y006400D01*
X001220Y006131D01*
X001220Y006097D02*
X001010Y006097D01*
X001010Y005939D02*
X001220Y005939D01*
X001220Y005780D02*
X001010Y005780D01*
X001010Y005622D02*
X001348Y005622D01*
X001481Y005420D02*
X001200Y005139D01*
X001200Y004960D01*
X001660Y004960D01*
X001660Y005420D01*
X001481Y005420D01*
X001366Y005305D02*
X001010Y005305D01*
X001010Y005463D02*
X002920Y005463D01*
X002394Y005305D02*
X001994Y005305D01*
X001879Y005420D02*
X002160Y005139D01*
X002160Y004960D01*
X001700Y004960D01*
X001700Y004920D01*
X002160Y004920D01*
X002160Y004741D01*
X001879Y004460D01*
X001700Y004460D01*
X001700Y004920D01*
X001660Y004920D01*
X001660Y004460D01*
X001481Y004460D01*
X001200Y004741D01*
X001200Y004920D01*
X001660Y004920D01*
X001660Y004960D01*
X001700Y004960D01*
X001700Y005420D01*
X001879Y005420D01*
X001700Y005305D02*
X001660Y005305D01*
X001660Y005146D02*
X001700Y005146D01*
X001700Y004988D02*
X001660Y004988D01*
X001660Y004829D02*
X001700Y004829D01*
X001700Y004671D02*
X001660Y004671D01*
X001660Y004512D02*
X001700Y004512D01*
X001931Y004512D02*
X002457Y004512D01*
X002470Y004354D02*
X001010Y004354D01*
X001010Y004512D02*
X001429Y004512D01*
X001271Y004671D02*
X001010Y004671D01*
X001010Y004829D02*
X001200Y004829D01*
X001200Y004988D02*
X001010Y004988D01*
X001010Y005146D02*
X001207Y005146D01*
X002012Y005622D02*
X002348Y005622D01*
X002220Y005780D02*
X002140Y005780D01*
X002140Y005939D02*
X002220Y005939D01*
X002220Y006097D02*
X002140Y006097D01*
X002015Y006256D02*
X002345Y006256D01*
X002235Y005146D02*
X002153Y005146D01*
X002160Y004988D02*
X002220Y004988D01*
X002220Y004829D02*
X002160Y004829D01*
X002089Y004671D02*
X002299Y004671D01*
X002470Y004195D02*
X001010Y004195D01*
X001010Y004037D02*
X002470Y004037D01*
X001080Y009743D02*
X001010Y009743D01*
X013940Y012754D02*
X025140Y012754D01*
X025030Y012596D02*
X021823Y012596D01*
X022036Y012437D02*
X025000Y012437D01*
X025032Y012279D02*
X022100Y012279D01*
X021390Y009730D02*
X025116Y009730D01*
X025064Y009678D01*
X025000Y009524D01*
X025000Y009356D01*
X025064Y009202D01*
X025182Y009084D01*
X025336Y009020D01*
X025803Y009020D01*
X025943Y008880D01*
X025680Y008880D01*
X025680Y008440D01*
X025680Y008440D01*
X026380Y008440D01*
X026380Y008475D01*
X026369Y008543D01*
X026348Y008609D01*
X026316Y008671D01*
X026276Y008727D01*
X026272Y008730D01*
X030381Y008730D01*
X030476Y008635D01*
X030608Y008580D01*
X030752Y008580D01*
X030884Y008635D01*
X030985Y008736D01*
X031015Y008808D01*
X031090Y008733D01*
X031084Y008727D01*
X031044Y008671D01*
X031012Y008609D01*
X030991Y008543D01*
X030980Y008475D01*
X030980Y008440D01*
X031680Y008440D01*
X032380Y008440D01*
X032380Y008475D01*
X032369Y008543D01*
X032348Y008609D01*
X032316Y008671D01*
X032276Y008727D01*
X032272Y008730D01*
X032517Y008730D01*
X032640Y008853D01*
X032640Y009126D01*
X032682Y009084D01*
X032836Y009020D01*
X033463Y009020D01*
X033303Y008860D01*
X032836Y008860D01*
X032682Y008796D01*
X032564Y008678D01*
X032500Y008524D01*
X032500Y008356D01*
X032564Y008202D01*
X032616Y008150D01*
X032272Y008150D01*
X032276Y008153D01*
X032316Y008209D01*
X032348Y008271D01*
X032369Y008337D01*
X032380Y008405D01*
X032380Y008440D01*
X031680Y008440D01*
X031680Y008440D01*
X031680Y008440D01*
X030980Y008440D01*
X030980Y008405D01*
X030991Y008337D01*
X031012Y008271D01*
X031044Y008209D01*
X031084Y008153D01*
X031088Y008150D01*
X026272Y008150D01*
X026276Y008153D01*
X026316Y008209D01*
X026348Y008271D01*
X026369Y008337D01*
X026380Y008405D01*
X026380Y008440D01*
X025680Y008440D01*
X025680Y008440D01*
X025680Y008440D01*
X024980Y008440D01*
X024980Y008475D01*
X024991Y008543D01*
X025012Y008609D01*
X025044Y008671D01*
X025084Y008727D01*
X025133Y008776D01*
X025189Y008816D01*
X025251Y008848D01*
X025317Y008869D01*
X025385Y008880D01*
X025680Y008880D01*
X025680Y008440D01*
X024980Y008440D01*
X024980Y008405D01*
X024991Y008337D01*
X025012Y008271D01*
X025044Y008209D01*
X025084Y008153D01*
X025088Y008150D01*
X021187Y008150D01*
X021267Y008230D01*
X021387Y008350D01*
X021393Y008344D01*
X021449Y008304D01*
X021511Y008272D01*
X021577Y008251D01*
X021645Y008240D01*
X021680Y008240D01*
X021715Y008240D01*
X021783Y008251D01*
X021849Y008272D01*
X021911Y008304D01*
X021967Y008344D01*
X022016Y008393D01*
X022056Y008449D01*
X022088Y008511D01*
X022109Y008577D01*
X022120Y008645D01*
X022120Y008940D01*
X022120Y009235D01*
X022109Y009303D01*
X022088Y009369D01*
X022056Y009431D01*
X022016Y009487D01*
X021967Y009536D01*
X021911Y009576D01*
X021849Y009608D01*
X021783Y009629D01*
X021715Y009640D01*
X021680Y009640D01*
X021680Y008940D01*
X022120Y008940D01*
X021680Y008940D01*
X021680Y008940D01*
X021680Y008940D01*
X021680Y008240D01*
X021680Y008940D01*
X021680Y008940D01*
X021680Y009640D01*
X021645Y009640D01*
X021577Y009629D01*
X021511Y009608D01*
X021449Y009576D01*
X021393Y009536D01*
X021390Y009532D01*
X021390Y009730D01*
X021390Y009584D02*
X021464Y009584D01*
X021680Y009584D02*
X021680Y009584D01*
X021680Y009426D02*
X021680Y009426D01*
X021680Y009267D02*
X021680Y009267D01*
X021680Y009109D02*
X021680Y009109D01*
X021680Y008950D02*
X021680Y008950D01*
X021680Y008792D02*
X021680Y008792D01*
X021680Y008633D02*
X021680Y008633D01*
X021680Y008475D02*
X021680Y008475D01*
X021680Y008316D02*
X021680Y008316D01*
X021928Y008316D02*
X024998Y008316D01*
X024980Y008475D02*
X022069Y008475D01*
X022118Y008633D02*
X025025Y008633D01*
X025155Y008792D02*
X022120Y008792D01*
X022120Y008950D02*
X025873Y008950D01*
X025680Y008792D02*
X025680Y008792D01*
X025680Y008633D02*
X025680Y008633D01*
X025680Y008475D02*
X025680Y008475D01*
X026335Y008633D02*
X030480Y008633D01*
X030880Y008633D02*
X031025Y008633D01*
X031008Y008792D02*
X031032Y008792D01*
X030980Y008475D02*
X026380Y008475D01*
X026362Y008316D02*
X030998Y008316D01*
X031081Y008158D02*
X026279Y008158D01*
X025081Y008158D02*
X021194Y008158D01*
X021353Y008316D02*
X021432Y008316D01*
X020767Y007730D02*
X032588Y007730D01*
X032584Y007727D01*
X032544Y007671D01*
X032512Y007609D01*
X032491Y007543D01*
X032480Y007475D01*
X032480Y007440D01*
X033180Y007440D01*
X033180Y007440D01*
X032480Y007440D01*
X032480Y007405D01*
X032491Y007337D01*
X032512Y007271D01*
X032544Y007209D01*
X032584Y007153D01*
X032588Y007150D01*
X020187Y007150D01*
X020767Y007730D01*
X020719Y007682D02*
X032552Y007682D01*
X032488Y007524D02*
X020560Y007524D01*
X020402Y007365D02*
X032486Y007365D01*
X032546Y007207D02*
X020243Y007207D01*
X022120Y009109D02*
X025158Y009109D01*
X025037Y009267D02*
X022115Y009267D01*
X022059Y009426D02*
X025000Y009426D01*
X025025Y009584D02*
X021896Y009584D01*
X020027Y009584D02*
X019850Y009584D01*
X022041Y005230D02*
X022291Y005230D01*
X022200Y005139D01*
X022200Y004960D01*
X022660Y004960D01*
X022660Y004920D01*
X022700Y004920D01*
X022700Y004960D01*
X023160Y004960D01*
X023160Y005139D01*
X023069Y005230D01*
X023319Y005230D01*
X023220Y005131D01*
X023220Y004749D01*
X023470Y004499D01*
X023470Y003940D01*
X021890Y003940D01*
X021890Y004499D01*
X022140Y004749D01*
X022140Y005131D01*
X022041Y005230D01*
X022125Y005146D02*
X022207Y005146D01*
X022200Y004988D02*
X022140Y004988D01*
X022200Y004920D02*
X022200Y004741D01*
X022481Y004460D01*
X022660Y004460D01*
X022660Y004920D01*
X022200Y004920D01*
X022200Y004829D02*
X022140Y004829D01*
X022061Y004671D02*
X022271Y004671D01*
X022429Y004512D02*
X021903Y004512D01*
X021890Y004354D02*
X023470Y004354D01*
X023457Y004512D02*
X022931Y004512D01*
X022879Y004460D02*
X023160Y004741D01*
X023160Y004920D01*
X022700Y004920D01*
X022700Y004460D01*
X022879Y004460D01*
X022700Y004512D02*
X022660Y004512D01*
X022660Y004671D02*
X022700Y004671D01*
X022700Y004829D02*
X022660Y004829D01*
X023089Y004671D02*
X023299Y004671D01*
X023220Y004829D02*
X023160Y004829D01*
X023160Y004988D02*
X023220Y004988D01*
X023235Y005146D02*
X023153Y005146D01*
X023470Y004195D02*
X021890Y004195D01*
X021890Y004037D02*
X023470Y004037D01*
X030890Y004037D02*
X039770Y004037D01*
X039770Y004195D02*
X030890Y004195D01*
X036840Y006256D02*
X037373Y006256D01*
X037425Y006573D02*
X036860Y006573D01*
X036880Y006414D02*
X039770Y006414D01*
X039770Y006256D02*
X038987Y006256D01*
X039120Y006097D02*
X039770Y006097D01*
X039770Y005939D02*
X039120Y005939D01*
X039120Y005780D02*
X039770Y005780D01*
X039770Y005622D02*
X038984Y005622D01*
X038935Y006573D02*
X039770Y006573D01*
X039770Y006731D02*
X039093Y006731D01*
X039120Y006890D02*
X039770Y006890D01*
X039770Y007048D02*
X039120Y007048D01*
X039036Y007207D02*
X039770Y007207D01*
X039770Y007365D02*
X038877Y007365D01*
X038886Y007524D02*
X039770Y007524D01*
X039770Y007682D02*
X039044Y007682D01*
X039120Y007841D02*
X039770Y007841D01*
X039770Y007999D02*
X039120Y007999D01*
X039085Y008158D02*
X039770Y008158D01*
X039770Y008316D02*
X038926Y008316D01*
X038995Y008633D02*
X039770Y008633D01*
X039770Y008475D02*
X036880Y008475D01*
X036862Y008316D02*
X037434Y008316D01*
X037275Y008158D02*
X036779Y008158D01*
X036792Y007682D02*
X037316Y007682D01*
X037474Y007524D02*
X036860Y007524D01*
X036860Y007365D02*
X037483Y007365D01*
X037324Y007207D02*
X036798Y007207D01*
X039120Y008792D02*
X039770Y008792D01*
X039770Y008950D02*
X039120Y008950D01*
X039120Y009109D02*
X039770Y009109D01*
X039770Y009267D02*
X038975Y009267D01*
X038186Y009743D02*
X038105Y009743D01*
X038120Y009901D02*
X038240Y009901D01*
X038240Y010060D02*
X038120Y010060D01*
X038024Y010218D02*
X038336Y010218D01*
X033393Y008950D02*
X032640Y008950D01*
X032640Y009109D02*
X032658Y009109D01*
X032678Y008792D02*
X032578Y008792D01*
X032545Y008633D02*
X032335Y008633D01*
X032380Y008475D02*
X032500Y008475D01*
X032517Y008316D02*
X032362Y008316D01*
X032279Y008158D02*
X032609Y008158D01*
X030746Y011803D02*
X027513Y011803D01*
X027540Y011962D02*
X030905Y011962D01*
X031063Y012120D02*
X027495Y012120D01*
X025135Y015132D02*
X021055Y015132D01*
X021090Y015290D02*
X025028Y015290D01*
X025000Y015449D02*
X021090Y015449D01*
X021090Y015607D02*
X025035Y015607D01*
X025048Y016241D02*
X013940Y016241D01*
X013940Y016083D02*
X020139Y016083D01*
X019981Y015924D02*
X013940Y015924D01*
X013940Y015766D02*
X019822Y015766D01*
X020721Y016083D02*
X020776Y016083D01*
X024796Y017034D02*
X025304Y017034D01*
X025074Y017192D02*
X025026Y017192D01*
X025040Y017668D02*
X025060Y017668D01*
X025254Y017826D02*
X024846Y017826D01*
X024977Y018143D02*
X025123Y018143D01*
X025163Y018777D02*
X024937Y018777D01*
X026188Y019094D02*
X028729Y019094D01*
X028570Y019253D02*
X026317Y019253D01*
X026360Y019411D02*
X028412Y019411D01*
X028253Y019570D02*
X026341Y019570D01*
X026246Y019728D02*
X028095Y019728D01*
X025103Y016717D02*
X013940Y016717D01*
X013940Y016558D02*
X025014Y016558D01*
X025000Y016400D02*
X013940Y016400D01*
M02*
