G75*
%MOIN*%
%OFA0B0*%
%FSLAX24Y24*%
%IPPOS*%
%LPD*%
%AMOC8*
5,1,8,0,0,1.08239X$1,22.5*
%
%ADD10C,0.0600*%
%ADD11OC8,0.0520*%
%ADD12C,0.0520*%
%ADD13OC8,0.0600*%
%ADD14C,0.0100*%
%ADD15C,0.0400*%
%ADD16C,0.0120*%
D10*
X000600Y000800D02*
X000600Y001400D01*
X001600Y001400D02*
X001600Y000800D01*
X002600Y000800D02*
X002600Y001400D01*
X003600Y001400D02*
X003600Y000800D01*
X004600Y000800D02*
X004600Y001400D01*
X005600Y001400D02*
X005600Y000800D01*
X006600Y000800D02*
X006600Y001400D01*
X007600Y001400D02*
X007600Y000800D01*
X008600Y000800D02*
X008600Y001400D01*
X009600Y001400D02*
X009600Y000800D01*
X010600Y000800D02*
X010600Y001400D01*
X011600Y001400D02*
X011600Y000800D01*
X012600Y000800D02*
X012600Y001400D01*
X013600Y001400D02*
X013600Y000800D01*
X014600Y000800D02*
X014600Y001400D01*
X015600Y001400D02*
X015600Y000800D01*
X016600Y000800D02*
X016600Y001400D01*
X017600Y001400D02*
X017600Y000800D01*
X018600Y000800D02*
X018600Y001400D01*
X019600Y001400D02*
X019600Y000800D01*
X020600Y000800D02*
X020600Y001400D01*
X021600Y001400D02*
X021600Y000800D01*
X022600Y000800D02*
X022600Y001400D01*
X023600Y001400D02*
X023600Y000800D01*
X024600Y000800D02*
X024600Y001400D01*
X025600Y001400D02*
X025600Y000800D01*
X026600Y000800D02*
X026600Y001400D01*
X027600Y001400D02*
X027600Y000800D01*
X028600Y000800D02*
X028600Y001400D01*
X029600Y001400D02*
X029600Y000800D01*
X030600Y000800D02*
X030600Y001400D01*
X031600Y001400D02*
X031600Y000800D01*
X032600Y000800D02*
X032600Y001400D01*
X033600Y001400D02*
X033600Y000800D01*
X034600Y000800D02*
X034600Y001400D01*
X035600Y001400D02*
X035600Y000800D01*
X036600Y000800D02*
X036600Y001400D01*
X037600Y001400D02*
X037600Y000800D01*
X038600Y000800D02*
X038600Y001400D01*
X039600Y001400D02*
X039600Y000800D01*
D11*
X038100Y004600D03*
X038100Y005600D03*
X038600Y006600D03*
X038600Y009600D03*
X038100Y011600D03*
X039100Y011600D03*
X016100Y005100D03*
X015100Y005100D03*
X015600Y007600D03*
X012600Y007600D03*
X012600Y009100D03*
X015600Y009100D03*
X015600Y010600D03*
X012600Y010600D03*
X012600Y012100D03*
X015600Y012100D03*
X001100Y012100D03*
X001100Y013100D03*
X001100Y005600D03*
X001100Y004600D03*
D12*
X002100Y005340D02*
X002100Y005860D01*
X003100Y005860D02*
X003100Y005340D01*
X004100Y005340D02*
X004100Y005860D01*
X005100Y005860D02*
X005100Y005340D01*
X006100Y005340D02*
X006100Y005860D01*
X007100Y005860D02*
X007100Y005340D01*
X008100Y005340D02*
X008100Y005860D01*
X009100Y005860D02*
X009100Y005340D01*
X009100Y002860D02*
X009100Y002340D01*
X008100Y002340D02*
X008100Y002860D01*
X007100Y002860D02*
X007100Y002340D01*
X006100Y002340D02*
X006100Y002860D01*
X005100Y002860D02*
X005100Y002340D01*
X004100Y002340D02*
X004100Y002860D01*
X003100Y002860D02*
X003100Y002340D01*
X002100Y002340D02*
X002100Y002860D01*
X002100Y009840D02*
X002100Y010360D01*
X003100Y010360D02*
X003100Y009840D01*
X004100Y009840D02*
X004100Y010360D01*
X005100Y010360D02*
X005100Y009840D01*
X006100Y009840D02*
X006100Y010360D01*
X007100Y010360D02*
X007100Y009840D01*
X008100Y009840D02*
X008100Y010360D01*
X008100Y012840D02*
X008100Y013360D01*
X007100Y013360D02*
X007100Y012840D01*
X006100Y012840D02*
X006100Y013360D01*
X005100Y013360D02*
X005100Y012840D01*
X004100Y012840D02*
X004100Y013360D01*
X003100Y013360D02*
X003100Y012840D01*
X002100Y012840D02*
X002100Y013360D01*
D13*
X002100Y008100D03*
X003100Y008100D03*
X004100Y008100D03*
X005100Y008100D03*
X006100Y008100D03*
X007100Y008100D03*
X008100Y008100D03*
X009100Y008100D03*
X009100Y007100D03*
X008100Y007100D03*
X007100Y007100D03*
X006100Y007100D03*
X005100Y007100D03*
X004100Y007100D03*
X003100Y007100D03*
X002100Y007100D03*
D14*
X003850Y009350D02*
X003100Y010100D01*
X003100Y011100D02*
X002100Y010100D01*
X004100Y010100D02*
X004850Y010850D01*
X011725Y010850D01*
X012975Y009600D01*
X036225Y009600D01*
X039100Y006725D01*
X039100Y003100D01*
X029850Y003100D01*
X029225Y002475D01*
X029600Y002475D02*
X030725Y002475D01*
X031100Y002850D01*
X032600Y002850D01*
X032975Y002475D01*
X032600Y002475D02*
X031225Y002475D01*
X031600Y002100D02*
X031975Y002100D01*
X031600Y002100D02*
X030600Y001100D01*
X029600Y001100D02*
X029600Y002475D01*
X028475Y002225D02*
X024475Y006225D01*
X022100Y006225D01*
X020100Y004225D01*
X020225Y003850D02*
X021600Y005225D01*
X024350Y005225D01*
X024600Y005600D02*
X027975Y002225D01*
X027600Y001100D02*
X026725Y001975D01*
X023350Y001975D01*
X023475Y002475D02*
X025725Y002475D01*
X025850Y002350D01*
X025600Y001100D02*
X024850Y000350D01*
X014350Y000350D01*
X014100Y000600D01*
X014100Y001850D01*
X013975Y002225D02*
X013600Y001850D01*
X008600Y001850D01*
X008600Y002975D01*
X008225Y003350D01*
X007850Y003350D01*
X007100Y002600D01*
X007850Y001850D02*
X008600Y001100D01*
X009850Y000350D02*
X010600Y001100D01*
X009850Y000350D02*
X002100Y000350D01*
X002100Y002600D01*
X003100Y002600D02*
X004100Y003600D01*
X009225Y003600D01*
X009600Y003225D01*
X007850Y001850D02*
X004850Y001850D01*
X004100Y002600D01*
X013725Y004350D02*
X015850Y006475D01*
X024725Y006475D01*
X022850Y005600D02*
X022600Y005850D01*
X022850Y005600D02*
X024600Y005600D01*
X023600Y004600D02*
X023225Y004975D01*
X022475Y004975D01*
X020725Y003225D01*
X015850Y003225D01*
X014975Y002475D02*
X014225Y003225D01*
X014975Y002475D02*
X022225Y002475D01*
X023600Y001100D01*
X025475Y004225D02*
X028600Y001100D01*
X032600Y001100D02*
X032600Y002475D01*
X025475Y004225D02*
X022975Y004225D01*
X022600Y004600D01*
X020225Y003850D02*
X015225Y003850D01*
X015100Y003975D01*
X013975Y002225D02*
X017475Y002225D01*
X018600Y001100D01*
X013350Y006850D02*
X029100Y006850D01*
X030225Y007100D02*
X029225Y008100D01*
X009100Y008100D01*
X008600Y008600D02*
X027975Y008600D01*
X023600Y010225D02*
X017475Y010225D01*
X015600Y012100D01*
X014225Y011100D02*
X003100Y011100D01*
X004350Y009350D02*
X005100Y010100D01*
X007100Y010100D02*
X008600Y008600D01*
X012600Y007600D02*
X013350Y006850D01*
X004350Y009350D02*
X003850Y009350D01*
D15*
X014225Y011100D03*
X023600Y010225D03*
X027975Y008600D03*
X030225Y007100D03*
X029100Y006850D03*
X024725Y006475D03*
X022600Y005850D03*
X024350Y005225D03*
X023600Y004600D03*
X022600Y004600D03*
X020100Y004225D03*
X020475Y003600D03*
X023475Y002475D03*
X023350Y001975D03*
X025850Y002350D03*
X026475Y002475D03*
X027975Y002225D03*
X028475Y002225D03*
X029225Y002475D03*
X031225Y002475D03*
X031975Y002100D03*
X032975Y002475D03*
X015850Y003225D03*
X014225Y003225D03*
X015100Y003975D03*
X013725Y004350D03*
X009600Y003225D03*
X014100Y001850D03*
D16*
X012850Y002850D02*
X013600Y003600D01*
X014850Y003600D01*
X015600Y002850D01*
X026100Y002850D01*
X026475Y002475D01*
X020475Y003600D02*
X014850Y003600D01*
X013600Y003600D02*
X015100Y005100D01*
X010600Y002850D02*
X009600Y003850D01*
X001850Y003850D01*
X001100Y004600D01*
X001100Y005600D02*
X002100Y005600D01*
X009100Y002600D02*
X009350Y002850D01*
X010600Y002850D01*
X012850Y002850D01*
X015600Y009100D02*
X034600Y009100D01*
X038100Y005600D01*
X012600Y012100D02*
X012100Y011600D01*
X000600Y011600D01*
X000600Y012600D01*
X001100Y013100D01*
X002350Y012350D02*
X003100Y013100D01*
X002350Y012350D02*
X005350Y012350D01*
X006100Y013100D01*
X002350Y012350D02*
X002100Y012100D01*
X001100Y012100D01*
M02*
