%
M48
M72
T01C0.0240
T02C0.0320
T03C0.0400
T04C0.0669
T05C0.0866
%
T01
X9600Y3225
X13725Y4350
X15100Y3975
X15850Y3225
X14225Y3225
X14100Y1850
X20100Y4225
X20475Y3600
X22600Y4600
X23600Y4600
X24350Y5225
X22600Y5850
X24725Y6475
X29100Y6850
X30225Y7100
X27975Y8600
X23600Y10225
X14225Y11100
X23475Y2475
X23350Y1975
X25850Y2350
X26475Y2475
X27975Y2225
X28475Y2225
X29225Y2475
X31225Y2475
X31975Y2100
X32975Y2475
T02
X38100Y4600
X38100Y5600
X38600Y6600
X38600Y9600
X38100Y11600
X39100Y11600
X16100Y5100
X15100Y5100
X9100Y5600
X8100Y5600
X7100Y5600
X6100Y5600
X5100Y5600
X4100Y5600
X3100Y5600
X2100Y5600
X1100Y5600
X1100Y4600
X2100Y2600
X3100Y2600
X4100Y2600
X5100Y2600
X6100Y2600
X7100Y2600
X8100Y2600
X9100Y2600
X12600Y7600
X15600Y7600
X15600Y9100
X12600Y9100
X12600Y10600
X15600Y10600
X15600Y12100
X12600Y12100
X8100Y13100
X7100Y13100
X6100Y13100
X5100Y13100
X4100Y13100
X3100Y13100
X2100Y13100
X1100Y13100
X1100Y12100
X2100Y10100
X3100Y10100
X4100Y10100
X5100Y10100
X6100Y10100
X7100Y10100
X8100Y10100
T03
X600Y1100
X1600Y1100
X2600Y1100
X3600Y1100
X4600Y1100
X5600Y1100
X6600Y1100
X7600Y1100
X8600Y1100
X9600Y1100
X10600Y1100
X11600Y1100
X12600Y1100
X13600Y1100
X14600Y1100
X15600Y1100
X16600Y1100
X17600Y1100
X18600Y1100
X19600Y1100
X20600Y1100
X21600Y1100
X22600Y1100
X23600Y1100
X24600Y1100
X25600Y1100
X26600Y1100
X27600Y1100
X28600Y1100
X29600Y1100
X30600Y1100
X31600Y1100
X32600Y1100
X33600Y1100
X34600Y1100
X35600Y1100
X36600Y1100
X37600Y1100
X38600Y1100
X39600Y1100
X9100Y7100
X8100Y7100
X7100Y7100
X6100Y7100
X5100Y7100
X4100Y7100
X3100Y7100
X2100Y7100
X2100Y8100
X3100Y8100
X4100Y8100
X5100Y8100
X6100Y8100
X7100Y8100
X8100Y8100
X9100Y8100
T04
X19194Y5781
X35006Y5781
T05
X35006Y4600
X19194Y4600
M30
