G75*
%MOIN*%
%OFA0B0*%
%FSLAX24Y24*%
%IPPOS*%
%LPD*%
%AMOC8*
5,1,8,0,0,1.08239X$1,22.5*
%
%ADD10C,0.0000*%
D10*
X000100Y000100D02*
X000100Y014096D01*
X040470Y014096D01*
X040470Y000100D01*
X000100Y000100D01*
X018761Y004600D02*
X018763Y004641D01*
X018769Y004682D01*
X018779Y004722D01*
X018792Y004761D01*
X018809Y004798D01*
X018830Y004834D01*
X018854Y004868D01*
X018881Y004899D01*
X018910Y004927D01*
X018943Y004953D01*
X018977Y004975D01*
X019014Y004994D01*
X019052Y005009D01*
X019092Y005021D01*
X019132Y005029D01*
X019173Y005033D01*
X019215Y005033D01*
X019256Y005029D01*
X019296Y005021D01*
X019336Y005009D01*
X019374Y004994D01*
X019410Y004975D01*
X019445Y004953D01*
X019478Y004927D01*
X019507Y004899D01*
X019534Y004868D01*
X019558Y004834D01*
X019579Y004798D01*
X019596Y004761D01*
X019609Y004722D01*
X019619Y004682D01*
X019625Y004641D01*
X019627Y004600D01*
X019625Y004559D01*
X019619Y004518D01*
X019609Y004478D01*
X019596Y004439D01*
X019579Y004402D01*
X019558Y004366D01*
X019534Y004332D01*
X019507Y004301D01*
X019478Y004273D01*
X019445Y004247D01*
X019411Y004225D01*
X019374Y004206D01*
X019336Y004191D01*
X019296Y004179D01*
X019256Y004171D01*
X019215Y004167D01*
X019173Y004167D01*
X019132Y004171D01*
X019092Y004179D01*
X019052Y004191D01*
X019014Y004206D01*
X018978Y004225D01*
X018943Y004247D01*
X018910Y004273D01*
X018881Y004301D01*
X018854Y004332D01*
X018830Y004366D01*
X018809Y004402D01*
X018792Y004439D01*
X018779Y004478D01*
X018769Y004518D01*
X018763Y004559D01*
X018761Y004600D01*
X018859Y005781D02*
X018861Y005817D01*
X018867Y005853D01*
X018877Y005888D01*
X018890Y005922D01*
X018907Y005954D01*
X018927Y005984D01*
X018951Y006011D01*
X018977Y006036D01*
X019006Y006058D01*
X019037Y006077D01*
X019070Y006092D01*
X019104Y006104D01*
X019140Y006112D01*
X019176Y006116D01*
X019212Y006116D01*
X019248Y006112D01*
X019284Y006104D01*
X019318Y006092D01*
X019351Y006077D01*
X019382Y006058D01*
X019411Y006036D01*
X019437Y006011D01*
X019461Y005984D01*
X019481Y005954D01*
X019498Y005922D01*
X019511Y005888D01*
X019521Y005853D01*
X019527Y005817D01*
X019529Y005781D01*
X019527Y005745D01*
X019521Y005709D01*
X019511Y005674D01*
X019498Y005640D01*
X019481Y005608D01*
X019461Y005578D01*
X019437Y005551D01*
X019411Y005526D01*
X019382Y005504D01*
X019351Y005485D01*
X019318Y005470D01*
X019284Y005458D01*
X019248Y005450D01*
X019212Y005446D01*
X019176Y005446D01*
X019140Y005450D01*
X019104Y005458D01*
X019070Y005470D01*
X019037Y005485D01*
X019006Y005504D01*
X018977Y005526D01*
X018951Y005551D01*
X018927Y005578D01*
X018907Y005608D01*
X018890Y005640D01*
X018877Y005674D01*
X018867Y005709D01*
X018861Y005745D01*
X018859Y005781D01*
X034671Y005781D02*
X034673Y005817D01*
X034679Y005853D01*
X034689Y005888D01*
X034702Y005922D01*
X034719Y005954D01*
X034739Y005984D01*
X034763Y006011D01*
X034789Y006036D01*
X034818Y006058D01*
X034849Y006077D01*
X034882Y006092D01*
X034916Y006104D01*
X034952Y006112D01*
X034988Y006116D01*
X035024Y006116D01*
X035060Y006112D01*
X035096Y006104D01*
X035130Y006092D01*
X035163Y006077D01*
X035194Y006058D01*
X035223Y006036D01*
X035249Y006011D01*
X035273Y005984D01*
X035293Y005954D01*
X035310Y005922D01*
X035323Y005888D01*
X035333Y005853D01*
X035339Y005817D01*
X035341Y005781D01*
X035339Y005745D01*
X035333Y005709D01*
X035323Y005674D01*
X035310Y005640D01*
X035293Y005608D01*
X035273Y005578D01*
X035249Y005551D01*
X035223Y005526D01*
X035194Y005504D01*
X035163Y005485D01*
X035130Y005470D01*
X035096Y005458D01*
X035060Y005450D01*
X035024Y005446D01*
X034988Y005446D01*
X034952Y005450D01*
X034916Y005458D01*
X034882Y005470D01*
X034849Y005485D01*
X034818Y005504D01*
X034789Y005526D01*
X034763Y005551D01*
X034739Y005578D01*
X034719Y005608D01*
X034702Y005640D01*
X034689Y005674D01*
X034679Y005709D01*
X034673Y005745D01*
X034671Y005781D01*
X034573Y004600D02*
X034575Y004641D01*
X034581Y004682D01*
X034591Y004722D01*
X034604Y004761D01*
X034621Y004798D01*
X034642Y004834D01*
X034666Y004868D01*
X034693Y004899D01*
X034722Y004927D01*
X034755Y004953D01*
X034789Y004975D01*
X034826Y004994D01*
X034864Y005009D01*
X034904Y005021D01*
X034944Y005029D01*
X034985Y005033D01*
X035027Y005033D01*
X035068Y005029D01*
X035108Y005021D01*
X035148Y005009D01*
X035186Y004994D01*
X035222Y004975D01*
X035257Y004953D01*
X035290Y004927D01*
X035319Y004899D01*
X035346Y004868D01*
X035370Y004834D01*
X035391Y004798D01*
X035408Y004761D01*
X035421Y004722D01*
X035431Y004682D01*
X035437Y004641D01*
X035439Y004600D01*
X035437Y004559D01*
X035431Y004518D01*
X035421Y004478D01*
X035408Y004439D01*
X035391Y004402D01*
X035370Y004366D01*
X035346Y004332D01*
X035319Y004301D01*
X035290Y004273D01*
X035257Y004247D01*
X035223Y004225D01*
X035186Y004206D01*
X035148Y004191D01*
X035108Y004179D01*
X035068Y004171D01*
X035027Y004167D01*
X034985Y004167D01*
X034944Y004171D01*
X034904Y004179D01*
X034864Y004191D01*
X034826Y004206D01*
X034790Y004225D01*
X034755Y004247D01*
X034722Y004273D01*
X034693Y004301D01*
X034666Y004332D01*
X034642Y004366D01*
X034621Y004402D01*
X034604Y004439D01*
X034591Y004478D01*
X034581Y004518D01*
X034575Y004559D01*
X034573Y004600D01*
M02*
