G75*
%MOIN*%
%OFA0B0*%
%FSLAX24Y24*%
%IPPOS*%
%LPD*%
%AMOC8*
5,1,8,0,0,1.08239X$1,22.5*
%
%ADD10C,0.0680*%
%ADD11OC8,0.0600*%
%ADD12C,0.0600*%
%ADD13OC8,0.0680*%
%ADD14R,0.0237X0.1458*%
%ADD15R,0.1122X0.1988*%
%ADD16C,0.0749*%
%ADD17C,0.0946*%
D10*
X000600Y000800D02*
X000600Y001400D01*
X001600Y001400D02*
X001600Y000800D01*
X002600Y000800D02*
X002600Y001400D01*
X003600Y001400D02*
X003600Y000800D01*
X004600Y000800D02*
X004600Y001400D01*
X005600Y001400D02*
X005600Y000800D01*
X006600Y000800D02*
X006600Y001400D01*
X007600Y001400D02*
X007600Y000800D01*
X008600Y000800D02*
X008600Y001400D01*
X009600Y001400D02*
X009600Y000800D01*
X010600Y000800D02*
X010600Y001400D01*
X011600Y001400D02*
X011600Y000800D01*
X012600Y000800D02*
X012600Y001400D01*
X013600Y001400D02*
X013600Y000800D01*
X014600Y000800D02*
X014600Y001400D01*
X015600Y001400D02*
X015600Y000800D01*
X016600Y000800D02*
X016600Y001400D01*
X017600Y001400D02*
X017600Y000800D01*
X018600Y000800D02*
X018600Y001400D01*
X019600Y001400D02*
X019600Y000800D01*
X020600Y000800D02*
X020600Y001400D01*
X021600Y001400D02*
X021600Y000800D01*
X022600Y000800D02*
X022600Y001400D01*
X023600Y001400D02*
X023600Y000800D01*
X024600Y000800D02*
X024600Y001400D01*
X025600Y001400D02*
X025600Y000800D01*
X026600Y000800D02*
X026600Y001400D01*
X027600Y001400D02*
X027600Y000800D01*
X028600Y000800D02*
X028600Y001400D01*
X029600Y001400D02*
X029600Y000800D01*
X030600Y000800D02*
X030600Y001400D01*
X031600Y001400D02*
X031600Y000800D01*
X032600Y000800D02*
X032600Y001400D01*
X033600Y001400D02*
X033600Y000800D01*
X034600Y000800D02*
X034600Y001400D01*
X035600Y001400D02*
X035600Y000800D01*
X036600Y000800D02*
X036600Y001400D01*
X037600Y001400D02*
X037600Y000800D01*
X038600Y000800D02*
X038600Y001400D01*
X039600Y001400D02*
X039600Y000800D01*
D11*
X038100Y004600D03*
X038100Y005600D03*
X038600Y006600D03*
X038600Y009600D03*
X038100Y011600D03*
X039100Y011600D03*
X016100Y005100D03*
X015100Y005100D03*
X015600Y007600D03*
X012600Y007600D03*
X012600Y009100D03*
X015600Y009100D03*
X015600Y010600D03*
X012600Y010600D03*
X012600Y012100D03*
X015600Y012100D03*
X001100Y012100D03*
X001100Y013100D03*
X001100Y005600D03*
X001100Y004600D03*
D12*
X002100Y005340D02*
X002100Y005860D01*
X003100Y005860D02*
X003100Y005340D01*
X004100Y005340D02*
X004100Y005860D01*
X005100Y005860D02*
X005100Y005340D01*
X006100Y005340D02*
X006100Y005860D01*
X007100Y005860D02*
X007100Y005340D01*
X008100Y005340D02*
X008100Y005860D01*
X009100Y005860D02*
X009100Y005340D01*
X009100Y002860D02*
X009100Y002340D01*
X008100Y002340D02*
X008100Y002860D01*
X007100Y002860D02*
X007100Y002340D01*
X006100Y002340D02*
X006100Y002860D01*
X005100Y002860D02*
X005100Y002340D01*
X004100Y002340D02*
X004100Y002860D01*
X003100Y002860D02*
X003100Y002340D01*
X002100Y002340D02*
X002100Y002860D01*
X002100Y009840D02*
X002100Y010360D01*
X003100Y010360D02*
X003100Y009840D01*
X004100Y009840D02*
X004100Y010360D01*
X005100Y010360D02*
X005100Y009840D01*
X006100Y009840D02*
X006100Y010360D01*
X007100Y010360D02*
X007100Y009840D01*
X008100Y009840D02*
X008100Y010360D01*
X008100Y012840D02*
X008100Y013360D01*
X007100Y013360D02*
X007100Y012840D01*
X006100Y012840D02*
X006100Y013360D01*
X005100Y013360D02*
X005100Y012840D01*
X004100Y012840D02*
X004100Y013360D01*
X003100Y013360D02*
X003100Y012840D01*
X002100Y012840D02*
X002100Y013360D01*
D13*
X002100Y008100D03*
X003100Y008100D03*
X004100Y008100D03*
X005100Y008100D03*
X006100Y008100D03*
X007100Y008100D03*
X008100Y008100D03*
X009100Y008100D03*
X009100Y007100D03*
X008100Y007100D03*
X007100Y007100D03*
X006100Y007100D03*
X005100Y007100D03*
X004100Y007100D03*
X003100Y007100D03*
X002100Y007100D03*
D14*
X020975Y003494D03*
X021225Y003494D03*
X021475Y003494D03*
X021725Y003494D03*
X021975Y003494D03*
X022225Y003494D03*
X022475Y003494D03*
X022725Y003494D03*
X022975Y003494D03*
X023225Y003494D03*
X023475Y003494D03*
X023725Y003494D03*
X023975Y003494D03*
X024225Y003494D03*
X024475Y003494D03*
X024725Y003494D03*
X024975Y003494D03*
X025225Y003494D03*
X025475Y003494D03*
X025725Y003494D03*
X025975Y003494D03*
X026225Y003494D03*
X026475Y003494D03*
X026725Y003494D03*
X026975Y003494D03*
X027225Y003494D03*
X027475Y003494D03*
X027725Y003494D03*
X027975Y003494D03*
X028225Y003494D03*
X028475Y003494D03*
X028725Y003494D03*
X028975Y003494D03*
X029225Y003494D03*
X029475Y003494D03*
X029725Y003494D03*
X029975Y003494D03*
X030225Y003494D03*
X030475Y003494D03*
X030725Y003494D03*
X030975Y003494D03*
X031225Y003494D03*
X031475Y003494D03*
X031725Y003494D03*
X031975Y003494D03*
X032225Y003494D03*
X032475Y003494D03*
X032725Y003494D03*
X032975Y003494D03*
X033225Y003494D03*
D15*
X036785Y007563D03*
X017415Y007572D03*
D16*
X019194Y005781D03*
X035006Y005781D03*
D17*
X035006Y004600D03*
X019194Y004600D03*
M02*
