G75*
%MOIN*%
%OFA0B0*%
%FSLAX24Y24*%
%IPPOS*%
%LPD*%
%AMOC8*
5,1,8,0,0,1.08239X$1,22.5*
%
%ADD10R,0.0600X0.2550*%
%ADD11OC8,0.0520*%
%ADD12OC8,0.0600*%
%ADD13C,0.0520*%
%ADD14C,0.2000*%
%ADD15C,0.0860*%
%ADD16C,0.0660*%
%ADD17C,0.1200*%
%ADD18C,0.0600*%
%ADD19C,0.0100*%
%ADD20C,0.0400*%
%ADD21C,0.0200*%
D10*
X001733Y001940D03*
X002733Y001940D03*
X003733Y001940D03*
X004733Y001940D03*
X005733Y001940D03*
X006733Y001940D03*
X007733Y001940D03*
X008733Y001940D03*
X009733Y001940D03*
X010733Y001940D03*
X011733Y001940D03*
X012733Y001940D03*
X013733Y001940D03*
X014733Y001940D03*
X015733Y001940D03*
X016733Y001940D03*
X017733Y001940D03*
X018733Y001940D03*
X019733Y001940D03*
X020733Y001940D03*
X021733Y001940D03*
X022733Y001940D03*
X023733Y001940D03*
X024733Y001940D03*
X025733Y001940D03*
X026733Y001940D03*
X027733Y001940D03*
X028733Y001940D03*
X029733Y001940D03*
X030733Y001940D03*
X031733Y001940D03*
D11*
X033733Y007940D03*
X034733Y007940D03*
X034733Y008940D03*
X033733Y008940D03*
X032233Y010440D03*
X031233Y010440D03*
X030233Y010440D03*
X030233Y011940D03*
X031233Y011940D03*
X032233Y011440D03*
X035233Y011440D03*
X035233Y010440D03*
X035233Y013940D03*
X035233Y014940D03*
X034733Y016440D03*
X033733Y016440D03*
X033733Y017440D03*
X034733Y017440D03*
X031233Y015440D03*
X030233Y015440D03*
X032233Y014940D03*
X032233Y013940D03*
X031233Y013940D03*
X030233Y013940D03*
X029733Y017440D03*
X028733Y017440D03*
X029233Y020440D03*
X030233Y020440D03*
X027733Y020440D03*
X026733Y020440D03*
X016733Y026940D03*
X015733Y026940D03*
X025233Y029440D03*
X025233Y030440D03*
X012233Y011940D03*
X012233Y010940D03*
X000733Y010440D03*
X000733Y011440D03*
D12*
X001733Y005940D03*
X002733Y005940D03*
X003733Y005940D03*
X004733Y005940D03*
X005733Y005940D03*
X006733Y005940D03*
X007733Y005940D03*
X008733Y005940D03*
X009733Y005940D03*
X010733Y005940D03*
X011733Y005940D03*
X012733Y005940D03*
X013733Y005940D03*
X014733Y005940D03*
X015733Y005940D03*
X016733Y005940D03*
X017733Y005940D03*
X018733Y005940D03*
X019733Y005940D03*
X020733Y005940D03*
X021733Y005940D03*
X022733Y005940D03*
X023733Y005940D03*
X024733Y005940D03*
X025733Y005940D03*
X026733Y005940D03*
X027733Y005940D03*
X028733Y005940D03*
X029733Y005940D03*
X030733Y005940D03*
X031733Y005940D03*
X031733Y004940D03*
X030733Y004940D03*
X029733Y004940D03*
X028733Y004940D03*
X027733Y004940D03*
X026733Y004940D03*
X025733Y004940D03*
X024733Y004940D03*
X023733Y004940D03*
X022733Y004940D03*
X021733Y004940D03*
X020733Y004940D03*
X019733Y004940D03*
X018733Y004940D03*
X017733Y004940D03*
X016733Y004940D03*
X015733Y004940D03*
X014733Y004940D03*
X013733Y004940D03*
X012733Y004940D03*
X011733Y004940D03*
X010733Y004940D03*
X009733Y004940D03*
X008733Y004940D03*
X007733Y004940D03*
X006733Y004940D03*
X005733Y004940D03*
X004733Y004940D03*
X003733Y004940D03*
X002733Y004940D03*
X001733Y004940D03*
X037733Y006160D03*
X038733Y006700D03*
X037733Y007240D03*
X038733Y007780D03*
X037733Y008320D03*
X038733Y008860D03*
X037733Y009400D03*
X038733Y009940D03*
X037733Y010480D03*
X038733Y011020D03*
X037733Y011560D03*
X038733Y012100D03*
X037733Y012640D03*
X038733Y013180D03*
X037733Y013720D03*
X021733Y029440D03*
X020733Y029440D03*
X020733Y030440D03*
X021733Y030440D03*
X019733Y030440D03*
X017733Y030440D03*
X016733Y030440D03*
X015733Y030440D03*
X014733Y030440D03*
X013733Y030440D03*
X012733Y030440D03*
X011733Y030440D03*
X010733Y030440D03*
X009733Y030440D03*
X008733Y030440D03*
X007733Y030440D03*
X006733Y030440D03*
X005733Y030440D03*
X004733Y030440D03*
X004733Y029440D03*
X005733Y029440D03*
X006733Y029440D03*
X007733Y029440D03*
X008733Y029440D03*
X009733Y029440D03*
X010733Y029440D03*
X011733Y029440D03*
X012733Y029440D03*
X013733Y029440D03*
X014733Y029440D03*
X015733Y029440D03*
X016733Y029440D03*
X017733Y029440D03*
D13*
X017733Y026200D02*
X017733Y025680D01*
X016733Y025680D02*
X016733Y026200D01*
X015733Y026200D02*
X015733Y025680D01*
X014733Y025680D02*
X014733Y026200D01*
X013733Y026200D02*
X013733Y025680D01*
X012733Y025680D02*
X012733Y026200D01*
X011733Y026200D02*
X011733Y025680D01*
X010733Y025680D02*
X010733Y026200D01*
X009733Y026200D02*
X009733Y025680D01*
X008733Y025680D02*
X008733Y026200D01*
X007733Y026200D02*
X007733Y025680D01*
X006733Y025680D02*
X006733Y026200D01*
X005733Y026200D02*
X005733Y025680D01*
X004733Y025680D02*
X004733Y026200D01*
X003733Y026200D02*
X003733Y025680D01*
X002733Y025680D02*
X002733Y026200D01*
X001733Y026200D02*
X001733Y025680D01*
X001733Y020200D02*
X001733Y019680D01*
X002733Y019680D02*
X002733Y020200D01*
X003733Y020200D02*
X003733Y019680D01*
X004733Y019680D02*
X004733Y020200D01*
X005733Y020200D02*
X005733Y019680D01*
X006733Y019680D02*
X006733Y020200D01*
X007733Y020200D02*
X007733Y019680D01*
X008733Y019680D02*
X008733Y020200D01*
X009733Y020200D02*
X009733Y019680D01*
X010733Y019680D02*
X010733Y020200D01*
X011733Y020200D02*
X011733Y019680D01*
X012733Y019680D02*
X012733Y020200D01*
X013733Y020200D02*
X013733Y019680D01*
X014733Y019680D02*
X014733Y020200D01*
X015733Y020200D02*
X015733Y019680D01*
X016733Y019680D02*
X016733Y020200D01*
X017733Y020200D02*
X017733Y019680D01*
X018733Y019680D02*
X018733Y020200D01*
X019733Y020200D02*
X019733Y019680D01*
X020733Y019680D02*
X020733Y020200D01*
X023233Y019200D02*
X023233Y018680D01*
X024233Y018680D02*
X024233Y019200D01*
X025233Y019200D02*
X025233Y018680D01*
X026233Y018680D02*
X026233Y019200D01*
X027233Y019200D02*
X027233Y018680D01*
X028233Y018680D02*
X028233Y019200D01*
X029233Y019200D02*
X029233Y018680D01*
X030233Y018680D02*
X030233Y019200D01*
X031233Y019200D02*
X031233Y018680D01*
X027993Y017440D02*
X027473Y017440D01*
X027473Y016440D02*
X027993Y016440D01*
X027993Y015440D02*
X027473Y015440D01*
X027473Y014440D02*
X027993Y014440D01*
X027993Y013440D02*
X027473Y013440D01*
X027473Y012440D02*
X027993Y012440D01*
X027993Y011440D02*
X027473Y011440D01*
X027473Y010440D02*
X027993Y010440D01*
X027993Y009440D02*
X027473Y009440D01*
X027473Y008440D02*
X027993Y008440D01*
X024993Y008440D02*
X024473Y008440D01*
X024473Y009440D02*
X024993Y009440D01*
X024993Y010440D02*
X024473Y010440D01*
X024473Y011440D02*
X024993Y011440D01*
X024993Y012440D02*
X024473Y012440D01*
X024473Y013440D02*
X024993Y013440D01*
X024993Y014440D02*
X024473Y014440D01*
X024473Y015440D02*
X024993Y015440D01*
X024993Y016440D02*
X024473Y016440D01*
X024473Y017440D02*
X024993Y017440D01*
X020733Y017700D02*
X020733Y017180D01*
X019733Y017180D02*
X019733Y017700D01*
X018733Y017700D02*
X018733Y017180D01*
X017733Y017180D02*
X017733Y017700D01*
X016733Y017700D02*
X016733Y017180D01*
X015733Y017180D02*
X015733Y017700D01*
X014733Y017700D02*
X014733Y017180D01*
X013733Y017180D02*
X013733Y017700D01*
X013733Y014700D02*
X013733Y014180D01*
X014733Y014180D02*
X014733Y014700D01*
X015733Y014700D02*
X015733Y014180D01*
X016733Y014180D02*
X016733Y014700D01*
X017733Y014700D02*
X017733Y014180D01*
X018733Y014180D02*
X018733Y014700D01*
X019733Y014700D02*
X019733Y014180D01*
X020733Y014180D02*
X020733Y014700D01*
X020733Y013200D02*
X020733Y012680D01*
X021733Y012680D02*
X021733Y013200D01*
X019733Y013200D02*
X019733Y012680D01*
X018733Y012680D02*
X018733Y013200D01*
X017733Y013200D02*
X017733Y012680D01*
X016733Y012680D02*
X016733Y013200D01*
X015733Y013200D02*
X015733Y012680D01*
X014733Y012680D02*
X014733Y013200D01*
X013733Y013200D02*
X013733Y012680D01*
X013233Y011700D02*
X013233Y011180D01*
X014233Y011180D02*
X014233Y011700D01*
X015233Y011700D02*
X015233Y011180D01*
X016233Y011180D02*
X016233Y011700D01*
X017233Y011700D02*
X017233Y011180D01*
X018233Y011180D02*
X018233Y011700D01*
X019233Y011700D02*
X019233Y011180D01*
X020233Y011180D02*
X020233Y011700D01*
X021233Y011700D02*
X021233Y011180D01*
X022233Y011180D02*
X022233Y011700D01*
X022233Y008700D02*
X022233Y008180D01*
X021233Y008180D02*
X021233Y008700D01*
X020233Y008700D02*
X020233Y008180D01*
X019233Y008180D02*
X019233Y008700D01*
X018233Y008700D02*
X018233Y008180D01*
X017233Y008180D02*
X017233Y008700D01*
X016233Y008700D02*
X016233Y008180D01*
X015233Y008180D02*
X015233Y008700D01*
X014233Y008700D02*
X014233Y008180D01*
X013233Y008180D02*
X013233Y008700D01*
X010733Y008700D02*
X010733Y008180D01*
X009733Y008180D02*
X009733Y008700D01*
X008733Y008700D02*
X008733Y008180D01*
X007733Y008180D02*
X007733Y008700D01*
X006733Y008700D02*
X006733Y008180D01*
X005733Y008180D02*
X005733Y008700D01*
X004733Y008700D02*
X004733Y008180D01*
X003733Y008180D02*
X003733Y008700D01*
X002733Y008700D02*
X002733Y008180D01*
X001733Y008180D02*
X001733Y008700D01*
X001733Y011180D02*
X001733Y011700D01*
X002733Y011700D02*
X002733Y011180D01*
X003733Y011180D02*
X003733Y011700D01*
X004733Y011700D02*
X004733Y011180D01*
X005733Y011180D02*
X005733Y011700D01*
X006733Y011700D02*
X006733Y011180D01*
X007733Y011180D02*
X007733Y011700D01*
X008733Y011700D02*
X008733Y011180D01*
X009733Y011180D02*
X009733Y011700D01*
X010733Y011700D02*
X010733Y011180D01*
X009733Y012680D02*
X009733Y013200D01*
X008733Y013200D02*
X008733Y012680D01*
X007733Y012680D02*
X007733Y013200D01*
X006733Y013200D02*
X006733Y012680D01*
X005733Y012680D02*
X005733Y013200D01*
X004733Y013200D02*
X004733Y012680D01*
X003733Y012680D02*
X003733Y013200D01*
X002733Y013200D02*
X002733Y012680D01*
X001733Y012680D02*
X001733Y013200D01*
X001733Y014180D02*
X001733Y014700D01*
X002733Y014700D02*
X002733Y014180D01*
X003733Y014180D02*
X003733Y014700D01*
X004733Y014700D02*
X004733Y014180D01*
X005733Y014180D02*
X005733Y014700D01*
X006733Y014700D02*
X006733Y014180D01*
X007733Y014180D02*
X007733Y014700D01*
X008733Y014700D02*
X008733Y014180D01*
X008733Y017180D02*
X008733Y017700D01*
X007733Y017700D02*
X007733Y017180D01*
X006733Y017180D02*
X006733Y017700D01*
X005733Y017700D02*
X005733Y017180D01*
X004733Y017180D02*
X004733Y017700D01*
X003733Y017700D02*
X003733Y017180D01*
X002733Y017180D02*
X002733Y017700D01*
X001733Y017700D02*
X001733Y017180D01*
X018733Y025680D02*
X018733Y026200D01*
X019733Y026200D02*
X019733Y025680D01*
X020733Y025680D02*
X020733Y026200D01*
X024733Y025200D02*
X024733Y024680D01*
X025733Y024680D02*
X025733Y025200D01*
X026733Y025200D02*
X026733Y024680D01*
X027733Y024680D02*
X027733Y025200D01*
X028733Y025200D02*
X028733Y024680D01*
X029733Y024680D02*
X029733Y025200D01*
X030733Y025200D02*
X030733Y024680D01*
X031733Y024680D02*
X031733Y025200D01*
X031733Y027180D02*
X031733Y027700D01*
X030733Y027700D02*
X030733Y027180D01*
X029733Y027180D02*
X029733Y027700D01*
X028733Y027700D02*
X028733Y027180D01*
X027733Y027180D02*
X027733Y027700D01*
X026733Y027700D02*
X026733Y027180D01*
X026733Y030180D02*
X026733Y030700D01*
X027733Y030700D02*
X027733Y030180D01*
X028733Y030180D02*
X028733Y030700D01*
X029733Y030700D02*
X029733Y030180D01*
X030733Y030180D02*
X030733Y030700D01*
X031733Y030700D02*
X031733Y030180D01*
X032733Y030180D02*
X032733Y030700D01*
X032733Y027700D02*
X032733Y027180D01*
X031733Y022200D02*
X031733Y021680D01*
X030733Y021680D02*
X030733Y022200D01*
X029733Y022200D02*
X029733Y021680D01*
X028733Y021680D02*
X028733Y022200D01*
X027733Y022200D02*
X027733Y021680D01*
X026733Y021680D02*
X026733Y022200D01*
X025733Y022200D02*
X025733Y021680D01*
X024733Y021680D02*
X024733Y022200D01*
D14*
X038233Y016500D03*
X038233Y003380D03*
D15*
X038265Y019971D03*
X038265Y020956D03*
X040233Y021940D03*
X038265Y022924D03*
X038265Y023909D03*
D16*
X037733Y027956D03*
X037733Y028940D03*
X037733Y029924D03*
X039733Y029924D03*
X039733Y028940D03*
X039733Y027956D03*
D17*
X038867Y027326D03*
X036867Y027326D03*
X036867Y030554D03*
X038867Y030554D03*
D18*
X019733Y029440D03*
D19*
X020233Y028940D01*
X037733Y028940D01*
X039733Y028940D01*
X039671Y029815D02*
X037733Y029815D01*
X037733Y029924D01*
X037733Y029878D01*
X037671Y029815D01*
X036546Y029815D01*
X035233Y031128D01*
X020421Y031128D01*
X019733Y030440D01*
X019546Y029878D02*
X019296Y029628D01*
X019296Y028128D01*
X034046Y028128D01*
X038265Y023909D01*
X038233Y020003D02*
X038265Y019971D01*
X038233Y020003D02*
X032233Y026003D01*
X024171Y026003D01*
X024046Y026128D01*
X024608Y025628D02*
X025108Y025628D01*
X024608Y025628D02*
X021608Y022628D01*
X019171Y022628D01*
X012546Y022628D01*
X012358Y022815D01*
X005733Y022815D01*
X005733Y025940D01*
X005296Y026315D02*
X005296Y022628D01*
X012171Y022628D01*
X012358Y022440D01*
X018858Y022440D01*
X019796Y021503D01*
X024358Y021503D01*
X025858Y020003D01*
X031046Y020003D01*
X030233Y018940D02*
X029171Y017878D01*
X029171Y016878D01*
X034296Y016878D01*
X034733Y016440D01*
X034733Y017440D02*
X032546Y019628D01*
X028921Y019628D01*
X028233Y018940D01*
X025671Y019565D02*
X024108Y021128D01*
X014733Y021128D01*
X013796Y022065D01*
X013046Y023003D02*
X018733Y023003D01*
X019108Y023378D01*
X020546Y023378D01*
X021483Y023003D02*
X019046Y023003D01*
X018858Y022815D01*
X012733Y022815D01*
X012546Y023003D01*
X006296Y023003D01*
X006108Y023190D01*
X007296Y024503D02*
X007796Y024003D01*
X017921Y024003D01*
X018546Y023378D01*
X018921Y024378D02*
X019546Y023753D01*
X018921Y024378D02*
X009608Y024378D01*
X008296Y024753D02*
X022171Y024753D01*
X024358Y026940D01*
X026421Y026940D01*
X026608Y026753D01*
X027046Y026753D01*
X027077Y026784D01*
X027108Y026753D01*
X029046Y026753D01*
X029733Y027440D01*
X029858Y026565D02*
X030733Y027440D01*
X029858Y026565D02*
X025046Y026565D01*
X027077Y026784D02*
X027733Y027440D01*
X025733Y024940D02*
X027546Y023128D01*
X032046Y023128D01*
X031733Y022753D02*
X031671Y022815D01*
X027546Y022815D01*
X027358Y023003D01*
X025733Y023003D01*
X025733Y021940D01*
X026108Y022628D02*
X031046Y022628D01*
X031733Y021940D01*
X030733Y021940D02*
X032671Y020003D01*
X029733Y021940D02*
X029046Y021253D01*
X027421Y021253D01*
X026733Y021940D01*
X028296Y023503D02*
X030296Y023503D01*
X031733Y024940D01*
X037733Y027956D02*
X037733Y028003D01*
X037796Y028065D01*
X039671Y028065D01*
X039733Y028003D01*
X039733Y027956D01*
X039671Y029815D02*
X039733Y029878D01*
X039733Y029924D01*
X024733Y019753D02*
X024733Y018940D01*
X024233Y018940D01*
X023671Y017503D02*
X024733Y016440D01*
X025733Y016440D02*
X024733Y017440D01*
X025733Y016440D02*
X027733Y016440D01*
X030108Y016440D01*
X030171Y016503D01*
X030233Y016003D02*
X029296Y016003D01*
X027733Y014440D01*
X027296Y014065D02*
X027483Y013878D01*
X029608Y013878D01*
X031233Y013940D02*
X032233Y013940D01*
X033233Y014503D02*
X031733Y016003D01*
X030233Y016003D01*
X031233Y015440D02*
X031733Y014940D01*
X032233Y014940D01*
X033233Y014503D02*
X039421Y014503D01*
X039421Y008503D01*
X038733Y007815D01*
X038733Y007780D01*
X038733Y007815D02*
X035858Y007815D01*
X034733Y008940D01*
X034733Y007940D02*
X034733Y007878D01*
X034358Y007503D01*
X029358Y007503D01*
X027733Y008440D02*
X029296Y010003D01*
X036608Y010003D01*
X037733Y011128D01*
X038171Y011128D01*
X038671Y011628D01*
X038921Y011628D01*
X039171Y011878D01*
X039171Y012628D01*
X037733Y012628D01*
X037733Y012640D01*
X037608Y012128D02*
X038733Y012128D01*
X038733Y012100D01*
X037608Y012128D02*
X037108Y012628D01*
X027921Y012628D01*
X027733Y012440D01*
X027296Y012065D02*
X027483Y011878D01*
X028108Y011878D01*
X029608Y010378D01*
X031233Y010440D02*
X032233Y010440D01*
X032233Y011440D02*
X031733Y011440D01*
X031233Y011940D01*
X032233Y011440D02*
X033046Y012253D01*
X027733Y011440D02*
X027608Y011440D01*
X027171Y011878D01*
X024483Y011878D01*
X024233Y012128D01*
X024046Y012128D01*
X024046Y012440D01*
X021171Y015315D01*
X020296Y014690D02*
X020296Y012128D01*
X023233Y012128D01*
X024483Y010878D01*
X026296Y010878D01*
X027733Y009440D01*
X027108Y008878D02*
X025296Y008878D01*
X024733Y009440D01*
X024733Y009378D01*
X021796Y009378D01*
X021796Y008190D01*
X021171Y007565D01*
X016296Y007565D01*
X015733Y007003D01*
X012608Y007003D01*
X012421Y007190D01*
X013421Y007565D02*
X013608Y007378D01*
X013421Y007565D02*
X005358Y007565D01*
X003733Y005940D01*
X004171Y005940D01*
X004171Y004753D01*
X003921Y004503D01*
X003733Y004503D01*
X003733Y001940D01*
X004733Y001940D02*
X004733Y004440D01*
X004358Y004440D01*
X005296Y004753D02*
X005296Y005940D01*
X005733Y005940D01*
X006296Y005940D02*
X006733Y005940D01*
X007202Y006409D01*
X007233Y006378D01*
X008296Y006378D01*
X008546Y006628D01*
X019358Y006628D01*
X019921Y007190D01*
X019296Y006440D02*
X021296Y006440D01*
X022671Y007815D01*
X022171Y009565D02*
X022233Y009628D01*
X022233Y011440D01*
X021796Y010628D02*
X021046Y010628D01*
X020233Y011440D01*
X019671Y011065D02*
X019671Y012253D01*
X019608Y012253D01*
X019171Y012690D01*
X019171Y015128D01*
X015421Y015128D01*
X014733Y014440D01*
X014733Y012940D01*
X013733Y012940D02*
X013733Y014440D01*
X015733Y014440D02*
X015733Y013628D01*
X018171Y013628D01*
X018171Y012503D01*
X019233Y011440D01*
X019671Y011065D02*
X019358Y010753D01*
X017921Y010753D01*
X017233Y011440D01*
X017546Y012128D02*
X018233Y011440D01*
X017546Y012128D02*
X013733Y012128D01*
X013483Y012378D01*
X010358Y012378D01*
X010233Y012253D01*
X007546Y012253D01*
X006733Y011440D01*
X006171Y011190D02*
X006171Y012253D01*
X004421Y012253D01*
X003733Y012940D01*
X003733Y014440D01*
X004733Y014440D02*
X005421Y015128D01*
X009358Y015128D01*
X011733Y012753D01*
X011233Y012128D02*
X011921Y011440D01*
X011233Y012128D02*
X010421Y012128D01*
X009733Y011440D01*
X008733Y012940D02*
X008733Y014440D01*
X009108Y015565D02*
X009233Y015690D01*
X022671Y015690D01*
X024483Y013878D01*
X027171Y013878D01*
X027608Y013440D01*
X027733Y013440D01*
X027296Y014065D02*
X026108Y014065D01*
X024733Y015440D01*
X023421Y015440D01*
X023296Y015565D01*
X023671Y015940D02*
X009171Y015940D01*
X008296Y016815D01*
X008546Y018128D02*
X016108Y018128D01*
X016483Y018878D02*
X012296Y018878D01*
X012296Y020190D01*
X010608Y021878D01*
X009608Y021878D01*
X009608Y021065D01*
X010733Y019940D01*
X011296Y020190D02*
X011296Y018503D01*
X020483Y018503D01*
X018108Y019253D02*
X013421Y019253D01*
X012733Y019940D01*
X011296Y020190D02*
X009983Y021503D01*
X010358Y022253D02*
X012421Y022253D01*
X014733Y019940D01*
X014858Y020628D02*
X014733Y020753D01*
X014858Y020628D02*
X022358Y020628D01*
X015421Y023378D02*
X015171Y023628D01*
X011358Y023628D01*
X012796Y023253D02*
X013046Y023003D01*
X015296Y025253D02*
X017421Y025253D01*
X017546Y025128D01*
X018733Y025940D02*
X018733Y027628D01*
X018296Y027628D01*
X017858Y028065D01*
X011671Y028065D01*
X011983Y028253D02*
X010796Y029440D01*
X010733Y029440D01*
X010296Y028940D02*
X010296Y030003D01*
X013983Y030003D01*
X014421Y030440D01*
X014733Y030440D01*
X014296Y030003D02*
X015296Y030003D01*
X015733Y030440D01*
X015733Y029440D02*
X016171Y029003D01*
X017796Y029003D01*
X018171Y028628D01*
X018546Y028565D02*
X018546Y030878D01*
X011171Y030878D01*
X010733Y030440D01*
X010358Y031065D02*
X009733Y030440D01*
X010358Y031065D02*
X018671Y031065D01*
X018983Y030753D01*
X019546Y029878D02*
X021296Y029878D01*
X021733Y029440D01*
X021171Y027940D02*
X019171Y027940D01*
X018546Y028565D01*
X018421Y028253D02*
X011983Y028253D01*
X012108Y027628D02*
X011608Y027628D01*
X010296Y028940D01*
X008296Y029378D02*
X008296Y030440D01*
X008733Y030440D01*
X008296Y029378D02*
X007733Y028815D01*
X007296Y028815D01*
X007296Y024503D01*
X007921Y024378D02*
X008296Y024753D01*
X006733Y025940D02*
X006046Y026628D01*
X005608Y026628D01*
X005296Y026315D01*
X003733Y025940D02*
X006796Y029003D01*
X007296Y029003D01*
X007733Y029440D01*
X006733Y029440D02*
X006296Y029003D01*
X004796Y029003D01*
X001733Y025940D01*
X001296Y025565D02*
X001296Y030003D01*
X005296Y030003D01*
X005733Y030440D01*
X012108Y027628D02*
X013171Y026565D01*
X013733Y028815D02*
X014296Y029378D01*
X014296Y030003D01*
X018421Y028253D02*
X020733Y025940D01*
X021171Y025565D02*
X021171Y027940D01*
X019733Y025940D02*
X020421Y025253D01*
X020858Y025253D01*
X021171Y025565D01*
X008733Y019940D02*
X008046Y020628D01*
X002108Y020628D01*
X001733Y019940D02*
X001733Y025253D01*
X001608Y025253D01*
X001296Y025565D01*
X006733Y019940D02*
X008546Y018128D01*
X010296Y015315D02*
X019671Y015315D01*
X020296Y014690D01*
X020733Y014440D02*
X020733Y012940D01*
X019733Y012940D02*
X019733Y014440D01*
X018733Y014440D02*
X018733Y012940D01*
X016233Y011440D02*
X015296Y010503D01*
X012796Y010503D01*
X012796Y010690D01*
X012796Y010503D02*
X012108Y010503D01*
X012046Y010565D01*
X005608Y010565D01*
X004733Y011440D01*
X003733Y011440D02*
X002921Y012253D01*
X002421Y012253D01*
X001733Y012940D01*
X001733Y014440D01*
X002733Y014440D02*
X002733Y012940D01*
X004733Y012940D02*
X004733Y014440D01*
X005733Y014440D02*
X005733Y012940D01*
X006733Y012940D02*
X006733Y014440D01*
X007733Y011440D02*
X007046Y010753D01*
X006608Y010753D01*
X006171Y011190D01*
X008358Y009878D02*
X009296Y009878D01*
X009671Y009503D01*
X009171Y009503D02*
X008983Y009315D01*
X001796Y009315D01*
X001296Y008815D01*
X001296Y005940D01*
X001296Y004753D01*
X001546Y004503D01*
X001733Y004503D01*
X001733Y001940D01*
X002733Y001940D02*
X002733Y004503D01*
X002546Y004503D01*
X002296Y004753D01*
X002296Y005940D01*
X002733Y005940D01*
X001733Y005940D02*
X001296Y005940D01*
X004733Y005940D02*
X006171Y007378D01*
X010233Y007378D01*
X010796Y006815D01*
X016046Y006815D01*
X016233Y007003D01*
X015733Y005940D02*
X015171Y005378D01*
X013546Y005378D01*
X013171Y005003D01*
X013171Y004690D01*
X012983Y004503D01*
X012983Y003878D01*
X015296Y003878D01*
X015733Y003440D01*
X015733Y001940D01*
X014733Y001940D02*
X014733Y002628D01*
X015171Y003065D01*
X015171Y003503D01*
X014171Y003503D02*
X014171Y003065D01*
X013733Y002628D01*
X013733Y001940D01*
X012733Y001940D02*
X012733Y002628D01*
X012233Y003128D01*
X012171Y003128D01*
X012171Y005378D01*
X012733Y005940D01*
X011733Y005940D02*
X011171Y005378D01*
X011171Y003128D01*
X011233Y003128D01*
X011733Y002628D01*
X011733Y001940D01*
X010733Y001940D02*
X010733Y002628D01*
X010233Y003128D01*
X010171Y003128D01*
X010171Y005378D01*
X010733Y005940D01*
X009733Y005940D02*
X009202Y005409D01*
X009171Y005440D01*
X008108Y005440D01*
X007733Y005940D02*
X007171Y005378D01*
X007171Y003128D01*
X007233Y003128D01*
X007733Y002628D01*
X007733Y001940D01*
X006733Y001940D02*
X006733Y004503D01*
X006546Y004503D01*
X006296Y004753D01*
X006296Y005940D01*
X007202Y006409D02*
X007546Y006753D01*
X008171Y006753D02*
X008421Y007003D01*
X010108Y007003D01*
X012233Y008440D02*
X011546Y009128D01*
X002421Y009128D01*
X001733Y008440D01*
X006733Y008440D02*
X007421Y007753D01*
X017546Y007753D01*
X018233Y008440D01*
X016546Y009190D02*
X015983Y009190D01*
X015233Y008440D01*
X013233Y008440D02*
X012233Y008440D01*
X011796Y009378D02*
X011983Y009565D01*
X022171Y009565D01*
X022046Y009753D02*
X010296Y009753D01*
X015733Y012940D02*
X015733Y013628D01*
X021546Y014315D02*
X024421Y011440D01*
X024733Y011440D01*
X026108Y012065D02*
X027296Y012065D01*
X026108Y012065D02*
X024733Y013440D01*
X027233Y015940D02*
X027733Y015440D01*
X027233Y015940D02*
X023671Y015940D01*
X021796Y010628D02*
X022046Y010378D01*
X022046Y009753D01*
X019296Y006440D02*
X019296Y005503D01*
X018733Y004940D01*
X019171Y003503D02*
X019171Y003065D01*
X018733Y002628D01*
X018733Y001940D01*
X017733Y001940D02*
X017733Y002628D01*
X017296Y003065D01*
X017296Y003503D01*
X016296Y003503D02*
X016296Y003065D01*
X016733Y002628D01*
X016733Y001940D01*
X019733Y001940D02*
X019733Y002628D01*
X020171Y003065D01*
X020171Y003503D01*
X021171Y003503D02*
X021171Y003065D01*
X020733Y002628D01*
X020733Y001940D01*
X021733Y001940D02*
X021733Y002628D01*
X022233Y003128D01*
X022296Y003128D01*
X022296Y004378D01*
X013358Y004378D01*
X009733Y002628D02*
X009733Y001940D01*
X008733Y001940D02*
X008733Y004440D01*
X008358Y004440D01*
X009171Y005378D02*
X009171Y003128D01*
X009233Y003128D01*
X009733Y002628D01*
X009171Y005378D02*
X009202Y005409D01*
X005733Y004503D02*
X005546Y004503D01*
X005296Y004753D01*
X005733Y004503D02*
X005733Y001940D01*
X021733Y005940D02*
X022296Y005378D01*
X022296Y004378D01*
X023233Y003878D02*
X022733Y003378D01*
X022733Y001940D01*
X023733Y001940D02*
X023733Y002628D01*
X023358Y003003D01*
X023358Y003503D01*
X023296Y003878D02*
X023233Y003878D01*
X023296Y003878D02*
X023296Y005378D01*
X022733Y005940D01*
X024171Y005378D02*
X024171Y003128D01*
X024233Y003128D01*
X024733Y002628D01*
X024733Y001940D01*
X025733Y001940D02*
X025733Y002628D01*
X025233Y003128D01*
X025171Y003128D01*
X025171Y005378D01*
X025733Y005940D01*
X026296Y005940D02*
X026733Y005940D01*
X026296Y005940D02*
X026296Y004753D01*
X026546Y004503D01*
X026733Y004503D01*
X026733Y001940D01*
X027733Y001940D02*
X027733Y004503D01*
X027546Y004503D01*
X027296Y004753D01*
X027296Y005940D01*
X027733Y005940D01*
X028296Y005940D02*
X028733Y005940D01*
X028296Y005940D02*
X028296Y004753D01*
X028546Y004503D01*
X028733Y004503D01*
X028733Y001940D01*
X029733Y001940D02*
X029733Y004503D01*
X029546Y004503D01*
X029296Y004753D01*
X029296Y005940D01*
X029733Y005940D01*
X030296Y005128D02*
X030733Y005565D01*
X030733Y005940D01*
X031171Y005378D02*
X031171Y003128D01*
X031233Y003128D01*
X031733Y002628D01*
X031733Y001940D01*
X030733Y001940D02*
X030733Y004503D01*
X030546Y004503D01*
X030296Y004753D01*
X030296Y005128D01*
X031171Y005378D02*
X031733Y005940D01*
X034733Y007940D02*
X035421Y007253D01*
X037733Y007253D01*
X037733Y007240D01*
X024733Y005940D02*
X024171Y005378D01*
D20*
X023358Y003503D03*
X021171Y003503D03*
X020171Y003503D03*
X019171Y003503D03*
X017296Y003503D03*
X016296Y003503D03*
X015171Y003503D03*
X014171Y003503D03*
X013358Y004378D03*
X016233Y007003D03*
X013608Y007378D03*
X012421Y007190D03*
X010108Y007003D03*
X008171Y006753D03*
X007546Y006753D03*
X008108Y005440D03*
X008358Y004440D03*
X004358Y004440D03*
X011796Y009378D03*
X010296Y009753D03*
X009671Y009503D03*
X009171Y009503D03*
X009546Y010190D03*
X008358Y009878D03*
X011921Y011440D03*
X012796Y010690D03*
X011733Y012753D03*
X011108Y012753D03*
X010296Y015315D03*
X009108Y015565D03*
X008296Y016815D03*
X009858Y018503D03*
X014733Y020753D03*
X013796Y022065D03*
X012796Y023253D03*
X011358Y023628D03*
X009608Y024378D03*
X007921Y024378D03*
X006108Y023190D03*
X009983Y021503D03*
X010358Y022253D03*
X015296Y025253D03*
X013171Y026565D03*
X011671Y028065D03*
X013733Y028815D03*
X017733Y027690D03*
X018171Y028628D03*
X018983Y030753D03*
X025046Y026565D03*
X024046Y026128D03*
X025108Y025628D03*
X028296Y023503D03*
X029171Y023878D03*
X031733Y022753D03*
X032046Y023128D03*
X032671Y020003D03*
X031046Y020003D03*
X026108Y022628D03*
X022358Y020628D03*
X024733Y019753D03*
X025671Y019565D03*
X023671Y017503D03*
X023671Y015940D03*
X023296Y015565D03*
X021546Y014315D03*
X021171Y015315D03*
X020483Y018503D03*
X018108Y019253D03*
X016483Y018878D03*
X016108Y018128D03*
X019171Y022628D03*
X018546Y023378D03*
X019546Y023753D03*
X020546Y023378D03*
X021483Y023003D03*
X017546Y025128D03*
X015421Y023378D03*
X002108Y020628D03*
X016546Y009190D03*
X019921Y007190D03*
X022671Y007815D03*
X021671Y010253D03*
X027108Y008878D03*
X029358Y007503D03*
X029608Y010378D03*
X033046Y012253D03*
X029608Y013878D03*
X028858Y013440D03*
X030233Y016003D03*
X030171Y016503D03*
D21*
X029733Y017440D02*
X033733Y017440D01*
X030233Y020440D02*
X029733Y020940D01*
X028233Y020940D01*
X027733Y020440D01*
X026983Y018190D02*
X022608Y018190D01*
X022546Y018253D01*
X023233Y018940D01*
X022546Y018253D02*
X021796Y017503D01*
X020796Y017503D01*
X020733Y017440D01*
X019733Y017440D01*
X018733Y017440D01*
X017733Y017440D01*
X016733Y017440D01*
X015733Y017440D01*
X014733Y017440D01*
X013733Y017440D01*
X008733Y017440D01*
X007733Y017440D01*
X006733Y017440D01*
X005733Y017440D01*
X004733Y017440D01*
X003733Y017440D01*
X002733Y017440D01*
X001733Y017440D01*
X001671Y017378D01*
X001233Y017378D01*
X001233Y011440D01*
X000733Y011440D01*
X001233Y011440D02*
X001733Y011440D01*
X000733Y010440D02*
X000858Y010315D01*
X009421Y010315D01*
X009546Y010190D01*
X009608Y010253D01*
X021671Y010253D01*
X022233Y008440D02*
X024733Y008440D01*
X025233Y007940D01*
X033733Y007940D01*
X033733Y008940D01*
X034233Y009440D01*
X037671Y009440D01*
X037733Y009400D01*
X037733Y009940D01*
X038733Y009940D01*
X037733Y009940D02*
X037733Y010480D01*
X038233Y013190D02*
X038733Y013190D01*
X038733Y013180D01*
X038233Y013190D02*
X037733Y013690D01*
X037733Y013720D01*
X037671Y013628D01*
X037483Y013440D01*
X028858Y013440D01*
X030233Y011940D02*
X030233Y010440D01*
X030233Y006440D02*
X037858Y006440D01*
X037733Y006160D01*
X037733Y006190D01*
X038233Y006690D01*
X038733Y006690D01*
X038733Y006700D01*
X030233Y006440D02*
X030233Y005440D01*
X029733Y004940D01*
X013233Y011440D02*
X012733Y011940D01*
X012233Y011940D01*
X011108Y012753D02*
X010921Y012940D01*
X009733Y012940D01*
X009858Y018503D02*
X009171Y018503D01*
X007733Y019940D01*
X015733Y025940D02*
X015733Y026940D01*
X016233Y027440D01*
X017483Y027440D01*
X017733Y027690D01*
X017733Y030440D02*
X016733Y030440D01*
X021733Y030440D02*
X022671Y029503D01*
X025171Y029503D01*
X025233Y029440D01*
X025483Y029690D01*
X026983Y029690D01*
X027733Y030440D01*
X028733Y030440D01*
X029483Y029690D01*
X029983Y029690D01*
X030733Y030440D01*
X031733Y030440D01*
X026733Y030440D02*
X025233Y030440D01*
X027733Y024940D02*
X028796Y023878D01*
X029171Y023878D01*
X026983Y018190D02*
X027733Y017440D01*
X028733Y017440D01*
M02*
