G75*
%MOIN*%
%OFA0B0*%
%FSLAX24Y24*%
%IPPOS*%
%LPD*%
%AMOC8*
5,1,8,0,0,1.08239X$1,22.5*
%
%ADD10C,0.1330*%
%ADD11R,0.0680X0.2630*%
%ADD12OC8,0.0600*%
%ADD13OC8,0.0680*%
%ADD14C,0.0600*%
%ADD15C,0.2080*%
%ADD16C,0.0940*%
%ADD17C,0.0552*%
%ADD18C,0.0740*%
%ADD19C,0.1280*%
%ADD20C,0.0680*%
D10*
X040233Y004440D03*
X040233Y026940D03*
D11*
X001733Y001940D03*
X002733Y001940D03*
X003733Y001940D03*
X004733Y001940D03*
X005733Y001940D03*
X006733Y001940D03*
X007733Y001940D03*
X008733Y001940D03*
X009733Y001940D03*
X010733Y001940D03*
X011733Y001940D03*
X012733Y001940D03*
X013733Y001940D03*
X014733Y001940D03*
X015733Y001940D03*
X016733Y001940D03*
X017733Y001940D03*
X018733Y001940D03*
X019733Y001940D03*
X020733Y001940D03*
X021733Y001940D03*
X022733Y001940D03*
X023733Y001940D03*
X024733Y001940D03*
X025733Y001940D03*
X026733Y001940D03*
X027733Y001940D03*
X028733Y001940D03*
X029733Y001940D03*
X030733Y001940D03*
X031733Y001940D03*
D12*
X033733Y007940D03*
X034733Y007940D03*
X034733Y008940D03*
X033733Y008940D03*
X032233Y010440D03*
X031233Y010440D03*
X030233Y010440D03*
X030233Y011940D03*
X031233Y011940D03*
X032233Y011440D03*
X035233Y011440D03*
X035233Y010440D03*
X035233Y013940D03*
X035233Y014940D03*
X034733Y016440D03*
X033733Y016440D03*
X033733Y017440D03*
X034733Y017440D03*
X031233Y015440D03*
X030233Y015440D03*
X032233Y014940D03*
X032233Y013940D03*
X031233Y013940D03*
X030233Y013940D03*
X029733Y017440D03*
X028733Y017440D03*
X029233Y020440D03*
X030233Y020440D03*
X027733Y020440D03*
X026733Y020440D03*
X016733Y026940D03*
X015733Y026940D03*
X025233Y029440D03*
X025233Y030440D03*
X012233Y011940D03*
X012233Y010940D03*
X000733Y010440D03*
X000733Y011440D03*
D13*
X001733Y005940D03*
X002733Y005940D03*
X003733Y005940D03*
X004733Y005940D03*
X005733Y005940D03*
X006733Y005940D03*
X007733Y005940D03*
X008733Y005940D03*
X009733Y005940D03*
X010733Y005940D03*
X011733Y005940D03*
X012733Y005940D03*
X013733Y005940D03*
X014733Y005940D03*
X015733Y005940D03*
X016733Y005940D03*
X017733Y005940D03*
X018733Y005940D03*
X019733Y005940D03*
X020733Y005940D03*
X021733Y005940D03*
X022733Y005940D03*
X023733Y005940D03*
X024733Y005940D03*
X025733Y005940D03*
X026733Y005940D03*
X027733Y005940D03*
X028733Y005940D03*
X029733Y005940D03*
X030733Y005940D03*
X031733Y005940D03*
X031733Y004940D03*
X030733Y004940D03*
X029733Y004940D03*
X028733Y004940D03*
X027733Y004940D03*
X026733Y004940D03*
X025733Y004940D03*
X024733Y004940D03*
X023733Y004940D03*
X022733Y004940D03*
X021733Y004940D03*
X020733Y004940D03*
X019733Y004940D03*
X018733Y004940D03*
X017733Y004940D03*
X016733Y004940D03*
X015733Y004940D03*
X014733Y004940D03*
X013733Y004940D03*
X012733Y004940D03*
X011733Y004940D03*
X010733Y004940D03*
X009733Y004940D03*
X008733Y004940D03*
X007733Y004940D03*
X006733Y004940D03*
X005733Y004940D03*
X004733Y004940D03*
X003733Y004940D03*
X002733Y004940D03*
X001733Y004940D03*
X037733Y006160D03*
X038733Y006700D03*
X037733Y007240D03*
X038733Y007780D03*
X037733Y008320D03*
X038733Y008860D03*
X037733Y009400D03*
X038733Y009940D03*
X037733Y010480D03*
X038733Y011020D03*
X037733Y011560D03*
X038733Y012100D03*
X037733Y012640D03*
X038733Y013180D03*
X037733Y013720D03*
X021733Y029440D03*
X020733Y029440D03*
X020733Y030440D03*
X021733Y030440D03*
X019733Y030440D03*
X017733Y030440D03*
X016733Y030440D03*
X015733Y030440D03*
X014733Y030440D03*
X013733Y030440D03*
X012733Y030440D03*
X011733Y030440D03*
X010733Y030440D03*
X009733Y030440D03*
X008733Y030440D03*
X007733Y030440D03*
X006733Y030440D03*
X005733Y030440D03*
X004733Y030440D03*
X004733Y029440D03*
X005733Y029440D03*
X006733Y029440D03*
X007733Y029440D03*
X008733Y029440D03*
X009733Y029440D03*
X010733Y029440D03*
X011733Y029440D03*
X012733Y029440D03*
X013733Y029440D03*
X014733Y029440D03*
X015733Y029440D03*
X016733Y029440D03*
X017733Y029440D03*
D14*
X017733Y026200D02*
X017733Y025680D01*
X016733Y025680D02*
X016733Y026200D01*
X015733Y026200D02*
X015733Y025680D01*
X014733Y025680D02*
X014733Y026200D01*
X013733Y026200D02*
X013733Y025680D01*
X012733Y025680D02*
X012733Y026200D01*
X011733Y026200D02*
X011733Y025680D01*
X010733Y025680D02*
X010733Y026200D01*
X009733Y026200D02*
X009733Y025680D01*
X008733Y025680D02*
X008733Y026200D01*
X007733Y026200D02*
X007733Y025680D01*
X006733Y025680D02*
X006733Y026200D01*
X005733Y026200D02*
X005733Y025680D01*
X004733Y025680D02*
X004733Y026200D01*
X003733Y026200D02*
X003733Y025680D01*
X002733Y025680D02*
X002733Y026200D01*
X001733Y026200D02*
X001733Y025680D01*
X001733Y020200D02*
X001733Y019680D01*
X002733Y019680D02*
X002733Y020200D01*
X003733Y020200D02*
X003733Y019680D01*
X004733Y019680D02*
X004733Y020200D01*
X005733Y020200D02*
X005733Y019680D01*
X006733Y019680D02*
X006733Y020200D01*
X007733Y020200D02*
X007733Y019680D01*
X008733Y019680D02*
X008733Y020200D01*
X009733Y020200D02*
X009733Y019680D01*
X010733Y019680D02*
X010733Y020200D01*
X011733Y020200D02*
X011733Y019680D01*
X012733Y019680D02*
X012733Y020200D01*
X013733Y020200D02*
X013733Y019680D01*
X014733Y019680D02*
X014733Y020200D01*
X015733Y020200D02*
X015733Y019680D01*
X016733Y019680D02*
X016733Y020200D01*
X017733Y020200D02*
X017733Y019680D01*
X018733Y019680D02*
X018733Y020200D01*
X019733Y020200D02*
X019733Y019680D01*
X020733Y019680D02*
X020733Y020200D01*
X023233Y019200D02*
X023233Y018680D01*
X024233Y018680D02*
X024233Y019200D01*
X025233Y019200D02*
X025233Y018680D01*
X026233Y018680D02*
X026233Y019200D01*
X027233Y019200D02*
X027233Y018680D01*
X028233Y018680D02*
X028233Y019200D01*
X029233Y019200D02*
X029233Y018680D01*
X030233Y018680D02*
X030233Y019200D01*
X031233Y019200D02*
X031233Y018680D01*
X027993Y017440D02*
X027473Y017440D01*
X027473Y016440D02*
X027993Y016440D01*
X027993Y015440D02*
X027473Y015440D01*
X027473Y014440D02*
X027993Y014440D01*
X027993Y013440D02*
X027473Y013440D01*
X027473Y012440D02*
X027993Y012440D01*
X027993Y011440D02*
X027473Y011440D01*
X027473Y010440D02*
X027993Y010440D01*
X027993Y009440D02*
X027473Y009440D01*
X027473Y008440D02*
X027993Y008440D01*
X024993Y008440D02*
X024473Y008440D01*
X024473Y009440D02*
X024993Y009440D01*
X024993Y010440D02*
X024473Y010440D01*
X024473Y011440D02*
X024993Y011440D01*
X024993Y012440D02*
X024473Y012440D01*
X024473Y013440D02*
X024993Y013440D01*
X024993Y014440D02*
X024473Y014440D01*
X024473Y015440D02*
X024993Y015440D01*
X024993Y016440D02*
X024473Y016440D01*
X024473Y017440D02*
X024993Y017440D01*
X020733Y017700D02*
X020733Y017180D01*
X019733Y017180D02*
X019733Y017700D01*
X018733Y017700D02*
X018733Y017180D01*
X017733Y017180D02*
X017733Y017700D01*
X016733Y017700D02*
X016733Y017180D01*
X015733Y017180D02*
X015733Y017700D01*
X014733Y017700D02*
X014733Y017180D01*
X013733Y017180D02*
X013733Y017700D01*
X013733Y014700D02*
X013733Y014180D01*
X014733Y014180D02*
X014733Y014700D01*
X015733Y014700D02*
X015733Y014180D01*
X016733Y014180D02*
X016733Y014700D01*
X017733Y014700D02*
X017733Y014180D01*
X018733Y014180D02*
X018733Y014700D01*
X019733Y014700D02*
X019733Y014180D01*
X020733Y014180D02*
X020733Y014700D01*
X020733Y013200D02*
X020733Y012680D01*
X021733Y012680D02*
X021733Y013200D01*
X019733Y013200D02*
X019733Y012680D01*
X018733Y012680D02*
X018733Y013200D01*
X017733Y013200D02*
X017733Y012680D01*
X016733Y012680D02*
X016733Y013200D01*
X015733Y013200D02*
X015733Y012680D01*
X014733Y012680D02*
X014733Y013200D01*
X013733Y013200D02*
X013733Y012680D01*
X013233Y011700D02*
X013233Y011180D01*
X014233Y011180D02*
X014233Y011700D01*
X015233Y011700D02*
X015233Y011180D01*
X016233Y011180D02*
X016233Y011700D01*
X017233Y011700D02*
X017233Y011180D01*
X018233Y011180D02*
X018233Y011700D01*
X019233Y011700D02*
X019233Y011180D01*
X020233Y011180D02*
X020233Y011700D01*
X021233Y011700D02*
X021233Y011180D01*
X022233Y011180D02*
X022233Y011700D01*
X022233Y008700D02*
X022233Y008180D01*
X021233Y008180D02*
X021233Y008700D01*
X020233Y008700D02*
X020233Y008180D01*
X019233Y008180D02*
X019233Y008700D01*
X018233Y008700D02*
X018233Y008180D01*
X017233Y008180D02*
X017233Y008700D01*
X016233Y008700D02*
X016233Y008180D01*
X015233Y008180D02*
X015233Y008700D01*
X014233Y008700D02*
X014233Y008180D01*
X013233Y008180D02*
X013233Y008700D01*
X010733Y008700D02*
X010733Y008180D01*
X009733Y008180D02*
X009733Y008700D01*
X008733Y008700D02*
X008733Y008180D01*
X007733Y008180D02*
X007733Y008700D01*
X006733Y008700D02*
X006733Y008180D01*
X005733Y008180D02*
X005733Y008700D01*
X004733Y008700D02*
X004733Y008180D01*
X003733Y008180D02*
X003733Y008700D01*
X002733Y008700D02*
X002733Y008180D01*
X001733Y008180D02*
X001733Y008700D01*
X001733Y011180D02*
X001733Y011700D01*
X002733Y011700D02*
X002733Y011180D01*
X003733Y011180D02*
X003733Y011700D01*
X004733Y011700D02*
X004733Y011180D01*
X005733Y011180D02*
X005733Y011700D01*
X006733Y011700D02*
X006733Y011180D01*
X007733Y011180D02*
X007733Y011700D01*
X008733Y011700D02*
X008733Y011180D01*
X009733Y011180D02*
X009733Y011700D01*
X010733Y011700D02*
X010733Y011180D01*
X009733Y012680D02*
X009733Y013200D01*
X008733Y013200D02*
X008733Y012680D01*
X007733Y012680D02*
X007733Y013200D01*
X006733Y013200D02*
X006733Y012680D01*
X005733Y012680D02*
X005733Y013200D01*
X004733Y013200D02*
X004733Y012680D01*
X003733Y012680D02*
X003733Y013200D01*
X002733Y013200D02*
X002733Y012680D01*
X001733Y012680D02*
X001733Y013200D01*
X001733Y014180D02*
X001733Y014700D01*
X002733Y014700D02*
X002733Y014180D01*
X003733Y014180D02*
X003733Y014700D01*
X004733Y014700D02*
X004733Y014180D01*
X005733Y014180D02*
X005733Y014700D01*
X006733Y014700D02*
X006733Y014180D01*
X007733Y014180D02*
X007733Y014700D01*
X008733Y014700D02*
X008733Y014180D01*
X008733Y017180D02*
X008733Y017700D01*
X007733Y017700D02*
X007733Y017180D01*
X006733Y017180D02*
X006733Y017700D01*
X005733Y017700D02*
X005733Y017180D01*
X004733Y017180D02*
X004733Y017700D01*
X003733Y017700D02*
X003733Y017180D01*
X002733Y017180D02*
X002733Y017700D01*
X001733Y017700D02*
X001733Y017180D01*
X018733Y025680D02*
X018733Y026200D01*
X019733Y026200D02*
X019733Y025680D01*
X020733Y025680D02*
X020733Y026200D01*
X024733Y025200D02*
X024733Y024680D01*
X025733Y024680D02*
X025733Y025200D01*
X026733Y025200D02*
X026733Y024680D01*
X027733Y024680D02*
X027733Y025200D01*
X028733Y025200D02*
X028733Y024680D01*
X029733Y024680D02*
X029733Y025200D01*
X030733Y025200D02*
X030733Y024680D01*
X031733Y024680D02*
X031733Y025200D01*
X031733Y027180D02*
X031733Y027700D01*
X030733Y027700D02*
X030733Y027180D01*
X029733Y027180D02*
X029733Y027700D01*
X028733Y027700D02*
X028733Y027180D01*
X027733Y027180D02*
X027733Y027700D01*
X026733Y027700D02*
X026733Y027180D01*
X026733Y030180D02*
X026733Y030700D01*
X027733Y030700D02*
X027733Y030180D01*
X028733Y030180D02*
X028733Y030700D01*
X029733Y030700D02*
X029733Y030180D01*
X030733Y030180D02*
X030733Y030700D01*
X031733Y030700D02*
X031733Y030180D01*
X032733Y030180D02*
X032733Y030700D01*
X032733Y027700D02*
X032733Y027180D01*
X031733Y022200D02*
X031733Y021680D01*
X030733Y021680D02*
X030733Y022200D01*
X029733Y022200D02*
X029733Y021680D01*
X028733Y021680D02*
X028733Y022200D01*
X027733Y022200D02*
X027733Y021680D01*
X026733Y021680D02*
X026733Y022200D01*
X025733Y022200D02*
X025733Y021680D01*
X024733Y021680D02*
X024733Y022200D01*
D15*
X038233Y016500D03*
X038233Y003380D03*
D16*
X038265Y019971D03*
X038265Y020956D03*
X040233Y021940D03*
X038265Y022924D03*
X038265Y023909D03*
D17*
X040233Y023909D03*
X041218Y023909D03*
X038265Y021940D03*
X040233Y019971D03*
X041218Y019971D03*
D18*
X039733Y027956D03*
X039733Y028940D03*
X039733Y029924D03*
X037733Y029924D03*
X037733Y028940D03*
X037733Y027956D03*
D19*
X036867Y027326D03*
X038867Y027326D03*
X038867Y030554D03*
X036867Y030554D03*
D20*
X019733Y029440D03*
M02*
