G75*
%MOIN*%
%OFA0B0*%
%FSLAX24Y24*%
%IPPOS*%
%LPD*%
%AMOC8*
5,1,8,0,0,1.08239X$1,22.5*
%
%ADD10R,0.0600X0.2550*%
%ADD11OC8,0.0600*%
%ADD12R,0.0740X0.0740*%
%ADD13C,0.0740*%
%ADD14C,0.2000*%
%ADD15OC8,0.0520*%
%ADD16C,0.0520*%
%ADD17R,0.0700X0.0700*%
%ADD18C,0.0700*%
%ADD19C,0.2441*%
%ADD20R,0.0260X0.0800*%
%ADD21C,0.0560*%
%ADD22C,0.1000*%
%ADD23OC8,0.1000*%
%ADD24C,0.1650*%
%ADD25C,0.0600*%
%ADD26C,0.0100*%
%ADD27C,0.0400*%
%ADD28C,0.0200*%
%ADD29C,0.0160*%
D10*
X001680Y002180D03*
X002680Y002180D03*
X003680Y002180D03*
X004680Y002180D03*
X005680Y002180D03*
X006680Y002180D03*
X007680Y002180D03*
X008680Y002180D03*
X009680Y002180D03*
X010680Y002180D03*
X011680Y002180D03*
X012680Y002180D03*
X013680Y002180D03*
X014680Y002180D03*
X015680Y002180D03*
X016680Y002180D03*
X017680Y002180D03*
X018680Y002180D03*
X019680Y002180D03*
X020680Y002180D03*
X021680Y002180D03*
X022680Y002180D03*
X023680Y002180D03*
X024680Y002180D03*
X025680Y002180D03*
X026680Y002180D03*
X027680Y002180D03*
X028680Y002180D03*
X029680Y002180D03*
X030680Y002180D03*
X031680Y002180D03*
D11*
X031680Y005180D03*
X030680Y005180D03*
X030680Y006180D03*
X031680Y006180D03*
X029680Y006180D03*
X028680Y006180D03*
X027680Y006180D03*
X026680Y006180D03*
X025680Y006180D03*
X025680Y005180D03*
X026680Y005180D03*
X027680Y005180D03*
X028680Y005180D03*
X029680Y005180D03*
X024680Y005180D03*
X023680Y005180D03*
X022680Y005180D03*
X021680Y005180D03*
X021680Y006180D03*
X022680Y006180D03*
X023680Y006180D03*
X024680Y006180D03*
X020680Y006180D03*
X019680Y006180D03*
X018680Y006180D03*
X017680Y006180D03*
X016680Y006180D03*
X016680Y005180D03*
X017680Y005180D03*
X018680Y005180D03*
X019680Y005180D03*
X020680Y005180D03*
X015680Y005180D03*
X014680Y005180D03*
X013680Y005180D03*
X012680Y005180D03*
X012680Y006180D03*
X013680Y006180D03*
X014680Y006180D03*
X015680Y006180D03*
X011680Y006180D03*
X010680Y006180D03*
X009680Y006180D03*
X008680Y006180D03*
X007680Y006180D03*
X007680Y005180D03*
X008680Y005180D03*
X009680Y005180D03*
X010680Y005180D03*
X011680Y005180D03*
X006680Y005180D03*
X005680Y005180D03*
X004680Y005180D03*
X003680Y005180D03*
X003680Y006180D03*
X004680Y006180D03*
X005680Y006180D03*
X006680Y006180D03*
X002680Y006180D03*
X001680Y006180D03*
X001680Y005180D03*
X002680Y005180D03*
X002680Y025680D03*
D12*
X038121Y021861D03*
D13*
X039239Y021314D03*
X038121Y020771D03*
X039239Y020223D03*
X039239Y019137D03*
X038121Y019680D03*
X038121Y018589D03*
X039239Y018046D03*
X038121Y017499D03*
D14*
X038680Y014759D03*
X038680Y024601D03*
D15*
X035680Y013680D03*
X034680Y013680D03*
X033680Y011680D03*
X033680Y010680D03*
X033680Y008680D03*
X033680Y007680D03*
X038680Y007680D03*
X038680Y006680D03*
X038680Y010680D03*
X038680Y011680D03*
X012180Y011680D03*
X012180Y010680D03*
X005680Y009680D03*
X002680Y009680D03*
X001680Y017680D03*
X001680Y018680D03*
X003680Y020180D03*
X004430Y020680D03*
X003680Y021180D03*
X005180Y021180D03*
X005680Y022680D03*
X004430Y023680D03*
X003680Y024180D03*
X003680Y023180D03*
X008180Y021180D03*
X008680Y022680D03*
X010680Y022680D03*
X010680Y021680D03*
D16*
X012180Y021920D02*
X012180Y022440D01*
X013180Y022440D02*
X013180Y021920D01*
X014180Y021920D02*
X014180Y022440D01*
X015180Y022440D02*
X015180Y021920D01*
X016180Y021920D02*
X016180Y022440D01*
X017180Y022440D02*
X017180Y021920D01*
X018180Y021920D02*
X018180Y022440D01*
X019180Y022440D02*
X019180Y021920D01*
X020180Y021920D02*
X020180Y022440D01*
X021180Y022440D02*
X021180Y021920D01*
X022180Y021920D02*
X022180Y022440D01*
X023180Y022440D02*
X023180Y021920D01*
X024180Y021920D02*
X024180Y022440D01*
X025180Y022440D02*
X025180Y021920D01*
X026180Y021920D02*
X026180Y022440D01*
X027180Y022440D02*
X027180Y021920D01*
X028180Y021920D02*
X028180Y022440D01*
X029180Y022440D02*
X029180Y021920D01*
X030180Y021920D02*
X030180Y022440D01*
X031180Y022440D02*
X031180Y021920D01*
X032180Y021920D02*
X032180Y022440D01*
X033180Y022440D02*
X033180Y021920D01*
X034180Y021920D02*
X034180Y022440D01*
X035180Y022440D02*
X035180Y021920D01*
X035180Y016440D02*
X035180Y015920D01*
X034180Y015920D02*
X034180Y016440D01*
X033180Y016440D02*
X033180Y015920D01*
X032180Y015920D02*
X032180Y016440D01*
X031180Y016440D02*
X031180Y015920D01*
X030180Y015920D02*
X030180Y016440D01*
X029180Y016440D02*
X029180Y015920D01*
X028180Y015920D02*
X028180Y016440D01*
X027180Y016440D02*
X027180Y015920D01*
X026180Y015920D02*
X026180Y016440D01*
X025180Y016440D02*
X025180Y015920D01*
X024180Y015920D02*
X024180Y016440D01*
X023180Y016440D02*
X023180Y015920D01*
X022180Y015920D02*
X022180Y016440D01*
X021180Y016440D02*
X021180Y015920D01*
X020180Y015920D02*
X020180Y016440D01*
X019180Y016440D02*
X019180Y015920D01*
X018180Y015920D02*
X018180Y016440D01*
X017180Y016440D02*
X017180Y015920D01*
X016180Y015920D02*
X016180Y016440D01*
X015180Y016440D02*
X015180Y015920D01*
X014180Y015920D02*
X014180Y016440D01*
X013180Y016440D02*
X013180Y015920D01*
X012180Y015920D02*
X012180Y016440D01*
X013180Y011940D02*
X013180Y011420D01*
X014180Y011420D02*
X014180Y011940D01*
X015180Y011940D02*
X015180Y011420D01*
X016180Y011420D02*
X016180Y011940D01*
X017180Y011940D02*
X017180Y011420D01*
X018180Y011420D02*
X018180Y011940D01*
X019180Y011940D02*
X019180Y011420D01*
X020180Y011420D02*
X020180Y011940D01*
X021180Y011940D02*
X021180Y011420D01*
X022180Y011420D02*
X022180Y011940D01*
X024180Y012920D02*
X024180Y013440D01*
X025180Y013440D02*
X025180Y012920D01*
X026180Y012920D02*
X026180Y013440D01*
X027180Y013440D02*
X027180Y012920D01*
X028180Y012920D02*
X028180Y013440D01*
X029180Y013440D02*
X029180Y012920D01*
X030180Y012920D02*
X030180Y013440D01*
X031180Y013440D02*
X031180Y012920D01*
X034420Y012180D02*
X034940Y012180D01*
X034940Y011180D02*
X034420Y011180D01*
X034420Y010180D02*
X034940Y010180D01*
X034940Y009180D02*
X034420Y009180D01*
X034420Y008180D02*
X034940Y008180D01*
X034940Y007180D02*
X034420Y007180D01*
X034420Y006180D02*
X034940Y006180D01*
X034940Y005180D02*
X034420Y005180D01*
X037420Y005180D02*
X037940Y005180D01*
X037940Y006180D02*
X037420Y006180D01*
X037420Y007180D02*
X037940Y007180D01*
X037940Y008180D02*
X037420Y008180D01*
X037420Y009180D02*
X037940Y009180D01*
X037940Y010180D02*
X037420Y010180D01*
X037420Y011180D02*
X037940Y011180D01*
X037940Y012180D02*
X037420Y012180D01*
X032180Y009440D02*
X032180Y008920D01*
X031180Y008920D02*
X031180Y009440D01*
X031180Y009920D02*
X031180Y010440D01*
X030180Y010440D02*
X030180Y009920D01*
X030180Y009440D02*
X030180Y008920D01*
X029180Y008920D02*
X029180Y009440D01*
X029180Y009920D02*
X029180Y010440D01*
X028180Y010440D02*
X028180Y009920D01*
X028180Y009440D02*
X028180Y008920D01*
X027180Y008920D02*
X027180Y009440D01*
X027180Y009920D02*
X027180Y010440D01*
X026180Y010440D02*
X026180Y009920D01*
X026180Y009440D02*
X026180Y008920D01*
X025180Y008920D02*
X025180Y009440D01*
X025180Y009920D02*
X025180Y010440D01*
X024180Y010440D02*
X024180Y009920D01*
X024180Y009440D02*
X024180Y008920D01*
X022180Y008940D02*
X022180Y008420D01*
X021180Y008420D02*
X021180Y008940D01*
X020180Y008940D02*
X020180Y008420D01*
X019180Y008420D02*
X019180Y008940D01*
X018180Y008940D02*
X018180Y008420D01*
X017180Y008420D02*
X017180Y008940D01*
X016180Y008940D02*
X016180Y008420D01*
X015180Y008420D02*
X015180Y008940D01*
X014180Y008940D02*
X014180Y008420D01*
X013180Y008420D02*
X013180Y008940D01*
D17*
X010475Y027349D03*
D18*
X011475Y027349D03*
X012475Y027349D03*
X013475Y027349D03*
X014475Y027349D03*
X015475Y027349D03*
X016475Y027349D03*
X017475Y027349D03*
X018475Y027349D03*
X019475Y027349D03*
X020475Y027349D03*
X021475Y027349D03*
X022475Y027349D03*
X023475Y027349D03*
X024475Y027349D03*
X025475Y027349D03*
X026475Y027349D03*
X027475Y027349D03*
X028475Y027349D03*
X029475Y027349D03*
X029475Y028349D03*
X028475Y028349D03*
X027475Y028349D03*
X026475Y028349D03*
X025475Y028349D03*
X024475Y028349D03*
X023475Y028349D03*
X022475Y028349D03*
X021475Y028349D03*
X020475Y028349D03*
X019475Y028349D03*
X018475Y028349D03*
X017475Y028349D03*
X016475Y028349D03*
X015475Y028349D03*
X014475Y028349D03*
X013475Y028349D03*
X012475Y028349D03*
X011475Y028349D03*
X010475Y028349D03*
D19*
X008558Y027849D03*
X031393Y027849D03*
D20*
X008430Y018660D03*
X007930Y018660D03*
X007430Y018660D03*
X006930Y018660D03*
X006430Y018660D03*
X005930Y018660D03*
X005430Y018660D03*
X004930Y018660D03*
X004430Y018660D03*
X003930Y018660D03*
X003430Y018660D03*
X002930Y018660D03*
X002930Y014700D03*
X003430Y014700D03*
X003930Y014700D03*
X004430Y014700D03*
X004930Y014700D03*
X005430Y014700D03*
X005930Y014700D03*
X006430Y014700D03*
X006930Y014700D03*
X007430Y014700D03*
X007930Y014700D03*
X008430Y014700D03*
D21*
X001960Y010680D02*
X001400Y010680D01*
X001400Y009680D02*
X001960Y009680D01*
X009900Y009680D02*
X010460Y009680D01*
X010460Y008680D02*
X009900Y008680D01*
X001960Y020180D02*
X001400Y020180D01*
X001400Y021180D02*
X001960Y021180D01*
X001960Y023180D02*
X001400Y023180D01*
X001400Y024180D02*
X001960Y024180D01*
X004680Y025400D02*
X004680Y025960D01*
X005680Y025960D02*
X005680Y025400D01*
D22*
X007680Y010180D03*
D23*
X007680Y012180D03*
D24*
X040180Y004680D03*
X040180Y026930D03*
D25*
X005680Y027880D02*
X005680Y028480D01*
X004680Y028480D02*
X004680Y027880D01*
X003680Y027880D02*
X003680Y028480D01*
X002680Y028480D02*
X002680Y027880D01*
X001680Y027880D02*
X001680Y028480D01*
D26*
X003680Y028180D02*
X005430Y026430D01*
X006743Y026430D01*
X009118Y024055D01*
X009118Y024555D02*
X007055Y026618D01*
X006243Y026618D01*
X004680Y028180D01*
X008868Y025930D02*
X011743Y025930D01*
X011243Y027868D02*
X014680Y027868D01*
X014993Y028180D01*
X014993Y028555D01*
X015305Y028868D01*
X016930Y028868D01*
X017430Y028368D01*
X017475Y028349D01*
X016993Y027555D02*
X016680Y027868D01*
X015930Y027868D01*
X015493Y028305D01*
X015475Y028349D01*
X015475Y027349D02*
X015430Y027305D01*
X015430Y026555D01*
X011743Y022868D01*
X011743Y022180D01*
X010305Y020743D01*
X007493Y020743D01*
X006430Y019680D01*
X006430Y018660D01*
X005930Y018660D02*
X005930Y019493D01*
X008555Y022118D01*
X007118Y022555D02*
X007118Y024180D01*
X007118Y022555D02*
X005430Y020868D01*
X005430Y018660D01*
X004930Y018660D02*
X004930Y019805D01*
X004430Y019868D02*
X004430Y018660D01*
X006930Y018660D02*
X006930Y019868D01*
X007618Y020555D01*
X010430Y020555D01*
X011368Y021493D01*
X012305Y021493D01*
X012743Y021930D01*
X012743Y023555D01*
X016493Y027305D01*
X016475Y027349D01*
X016743Y026930D02*
X016993Y027180D01*
X016993Y027555D01*
X017430Y027305D02*
X017475Y027349D01*
X017430Y027305D02*
X016930Y026805D01*
X016930Y025493D01*
X017805Y024618D01*
X018180Y024368D02*
X020993Y027180D01*
X020993Y028555D01*
X021305Y028868D01*
X025680Y028868D01*
X025993Y028555D01*
X025993Y027805D01*
X026430Y027368D01*
X026475Y027349D01*
X026680Y026868D02*
X026993Y027180D01*
X026993Y027868D01*
X027430Y028305D01*
X027475Y028349D01*
X027993Y027868D02*
X028430Y028305D01*
X028475Y028349D01*
X027993Y027868D02*
X027993Y027180D01*
X026743Y025930D01*
X026368Y026243D02*
X027430Y027305D01*
X027475Y027349D01*
X026680Y026868D02*
X026618Y026868D01*
X025680Y025930D01*
X026368Y026243D02*
X026368Y025305D01*
X026618Y025055D01*
X026618Y021805D01*
X026305Y021493D01*
X024618Y021493D01*
X024243Y021118D01*
X020243Y021118D01*
X018305Y020743D02*
X017555Y021493D01*
X017055Y021493D01*
X016743Y021805D01*
X016743Y026930D01*
X017305Y025743D02*
X017555Y025743D01*
X018993Y027180D01*
X018993Y028555D01*
X019368Y028930D01*
X019868Y028930D01*
X019993Y028555D02*
X020493Y029055D01*
X028743Y029055D01*
X029430Y028368D01*
X029475Y028349D01*
X028475Y027349D02*
X028430Y027305D01*
X028430Y027118D01*
X026743Y025430D01*
X025305Y025055D02*
X025305Y027180D01*
X025430Y027305D01*
X025475Y027349D01*
X024993Y027180D02*
X024993Y027868D01*
X025430Y028305D01*
X025475Y028349D01*
X024993Y027180D02*
X024180Y026368D01*
X024180Y022180D01*
X024743Y021930D02*
X024743Y024493D01*
X024555Y025305D02*
X026180Y023680D01*
X026180Y022180D01*
X026430Y021305D02*
X027180Y022055D01*
X027180Y022180D01*
X026430Y021305D02*
X024743Y021305D01*
X024180Y020743D01*
X018305Y020743D01*
X018180Y020555D02*
X027993Y020555D01*
X028930Y021493D01*
X031493Y021493D01*
X032180Y022180D01*
X033180Y022180D02*
X031368Y020368D01*
X018055Y020368D01*
X017305Y021118D01*
X017055Y021118D01*
X016680Y020743D01*
X012743Y020743D01*
X009930Y017930D01*
X007430Y017930D01*
X006993Y017493D01*
X006993Y016493D01*
X005430Y014930D01*
X005430Y014700D01*
X005930Y014700D02*
X005930Y014930D01*
X007993Y016993D01*
X008493Y016993D02*
X009493Y016993D01*
X008493Y016993D02*
X006430Y014930D01*
X006430Y014700D01*
X006930Y014700D02*
X006930Y014930D01*
X007555Y015555D01*
X008055Y015555D02*
X007430Y014930D01*
X007430Y014700D01*
X007930Y014700D02*
X007930Y014930D01*
X008555Y015555D01*
X009180Y013993D02*
X009180Y011055D01*
X009243Y010993D01*
X008868Y010118D02*
X004930Y006180D01*
X004680Y006180D01*
X004243Y005743D01*
X004243Y004993D01*
X004680Y004555D01*
X004680Y002180D01*
X003680Y002180D02*
X003680Y004555D01*
X003243Y004993D01*
X003243Y005743D01*
X003680Y006180D01*
X004118Y006618D01*
X005055Y006618D01*
X008493Y010055D01*
X008493Y012180D01*
X009555Y012368D02*
X013180Y012368D01*
X014180Y013368D01*
X014368Y013368D01*
X017180Y016180D01*
X018180Y016180D02*
X016493Y014493D01*
X016618Y013930D02*
X022743Y013930D01*
X024993Y016180D01*
X025180Y016180D01*
X023180Y016180D02*
X022993Y016180D01*
X021368Y017805D01*
X013180Y017805D01*
X012243Y016868D01*
X012055Y016868D01*
X009180Y013993D01*
X010180Y013118D02*
X010555Y012743D01*
X012930Y012743D01*
X013180Y012993D01*
X013180Y013180D01*
X015618Y015618D01*
X015618Y016430D01*
X016055Y016868D01*
X018305Y016868D01*
X018993Y016180D01*
X019180Y016180D01*
X019993Y016180D02*
X018118Y014305D01*
X017743Y014305D01*
X018243Y013555D02*
X020305Y013555D01*
X020055Y012368D02*
X022555Y012368D01*
X023930Y010993D01*
X024180Y010180D02*
X024180Y009180D01*
X025180Y009180D02*
X025180Y010180D01*
X025180Y010243D01*
X022868Y012555D01*
X018243Y012555D01*
X017368Y011680D01*
X017180Y011680D01*
X016618Y011930D02*
X017180Y012493D01*
X016618Y011930D02*
X016618Y009930D01*
X015930Y010618D02*
X016180Y010868D01*
X016180Y011680D01*
X015680Y011368D02*
X014993Y010680D01*
X015680Y011368D02*
X015680Y012243D01*
X015180Y012493D02*
X014618Y011930D01*
X014618Y009555D01*
X014743Y008930D02*
X013618Y010055D01*
X013618Y010805D01*
X013618Y011305D02*
X010930Y008618D01*
X010930Y006430D01*
X010680Y006180D01*
X010243Y005743D01*
X010243Y004993D01*
X010680Y004555D01*
X010680Y002180D01*
X011680Y002180D02*
X011680Y002868D01*
X011243Y003305D01*
X011243Y005368D01*
X011680Y005805D01*
X011680Y006180D01*
X012243Y005368D02*
X012243Y003305D01*
X012680Y002868D01*
X012680Y002180D01*
X013680Y002180D02*
X013680Y002868D01*
X013243Y003305D01*
X013243Y005368D01*
X013680Y005805D01*
X013680Y006180D01*
X014180Y006680D01*
X014180Y008680D01*
X014743Y008930D02*
X014743Y008305D01*
X015368Y007680D01*
X016055Y007680D01*
X016118Y007618D01*
X019305Y007618D01*
X020305Y006618D01*
X020868Y006618D01*
X021243Y006243D01*
X021243Y005618D01*
X021680Y005180D01*
X022118Y005368D02*
X022118Y003305D01*
X021680Y002868D01*
X021680Y002180D01*
X022680Y002180D02*
X022680Y002868D01*
X023118Y003305D01*
X023118Y005368D01*
X022680Y005805D01*
X022680Y006180D01*
X022118Y005368D02*
X021680Y005805D01*
X021680Y006180D01*
X020680Y006180D02*
X020243Y005743D01*
X020243Y004993D01*
X020680Y004555D01*
X020680Y002180D01*
X019680Y002180D02*
X019680Y004555D01*
X019243Y004993D01*
X019243Y005743D01*
X019680Y006180D01*
X018680Y006180D02*
X018274Y006586D01*
X018243Y006555D01*
X018243Y004993D01*
X018680Y004555D01*
X018680Y002180D01*
X017680Y002180D02*
X017680Y004555D01*
X017243Y004993D01*
X017243Y006555D01*
X017274Y006586D01*
X017243Y006618D01*
X016368Y006618D01*
X015680Y007305D01*
X015305Y007305D01*
X016243Y007243D02*
X017618Y007243D01*
X018274Y006586D01*
X017680Y006180D02*
X017274Y006586D01*
X016680Y006180D02*
X016243Y005743D01*
X016243Y004993D01*
X016680Y004555D01*
X016680Y002180D01*
X015680Y002180D02*
X015680Y004555D01*
X015243Y004993D01*
X015243Y005743D01*
X015680Y006180D01*
X014680Y006180D02*
X014680Y005805D01*
X014243Y005368D01*
X014243Y003305D01*
X014680Y002868D01*
X014680Y002180D01*
X012243Y005368D02*
X012680Y005805D01*
X012680Y006180D01*
X009680Y006180D02*
X009243Y005743D01*
X009243Y004993D01*
X009680Y004555D01*
X009680Y002180D01*
X008680Y002180D02*
X008680Y004555D01*
X008243Y004993D01*
X008243Y005743D01*
X008680Y006180D01*
X008680Y006930D01*
X007805Y007805D01*
X008743Y009680D02*
X005680Y006618D01*
X005680Y006180D01*
X005243Y005743D01*
X005243Y004993D01*
X005680Y004555D01*
X005680Y002180D01*
X006680Y002180D02*
X006680Y004555D01*
X006243Y004993D01*
X006243Y005743D01*
X006680Y006180D01*
X007243Y005743D02*
X007680Y006180D01*
X007243Y005743D02*
X007243Y004993D01*
X007680Y004555D01*
X007680Y002180D01*
X002680Y002180D02*
X002680Y004555D01*
X002243Y004993D01*
X002243Y005743D01*
X002680Y006180D01*
X001680Y006180D02*
X001243Y005743D01*
X001243Y004993D01*
X001680Y004555D01*
X001680Y002180D01*
X005118Y007243D02*
X002680Y009680D01*
X001680Y009680D01*
X004680Y009805D02*
X006118Y011243D01*
X006493Y011493D02*
X006493Y010430D01*
X006868Y010118D02*
X006868Y012305D01*
X006368Y012305D02*
X006368Y011618D01*
X006493Y011493D01*
X008868Y010118D02*
X010618Y010118D01*
X010805Y009930D01*
X010993Y009930D01*
X008930Y009680D02*
X008743Y009680D01*
X010055Y012555D02*
X009868Y012743D01*
X010055Y012555D02*
X013055Y012555D01*
X014993Y014493D01*
X014618Y014930D02*
X012805Y013118D01*
X013618Y011930D02*
X013618Y011305D01*
X013618Y011930D02*
X014555Y012868D01*
X022868Y012868D01*
X023055Y012680D01*
X023243Y012680D01*
X020055Y012368D02*
X019368Y011680D01*
X019180Y011680D01*
X018180Y011680D02*
X018180Y010180D01*
X017993Y009493D02*
X020180Y011680D01*
X020618Y010680D02*
X020618Y009305D01*
X021180Y008680D02*
X021368Y008680D01*
X022055Y007993D01*
X026993Y007993D01*
X028180Y009180D01*
X028180Y010180D01*
X027180Y010180D02*
X027180Y009180D01*
X026743Y008930D02*
X026180Y008368D01*
X026743Y008930D02*
X026743Y011118D01*
X026180Y010180D02*
X026180Y009180D01*
X027368Y007805D02*
X028055Y008493D01*
X028493Y008493D01*
X029180Y009180D01*
X029180Y010180D01*
X030180Y010180D02*
X030180Y009180D01*
X029493Y008493D01*
X028868Y008493D01*
X028680Y008305D01*
X028180Y008305D01*
X027493Y007618D01*
X020118Y007618D01*
X019743Y007993D01*
X018055Y007993D01*
X017368Y008680D01*
X017180Y008680D01*
X016243Y007805D02*
X019430Y007805D01*
X019805Y007430D01*
X027618Y007430D01*
X028305Y008118D01*
X028805Y008118D01*
X028993Y008305D01*
X030305Y008305D01*
X031180Y009180D01*
X031180Y010180D01*
X031618Y009430D02*
X032368Y010180D01*
X032368Y012805D01*
X031180Y013993D01*
X031180Y016180D01*
X031743Y016430D02*
X031743Y013743D01*
X032618Y012868D01*
X032618Y008805D01*
X030618Y006805D01*
X028305Y006805D01*
X028118Y006618D01*
X027993Y006993D02*
X027680Y006680D01*
X027680Y006180D01*
X027243Y005743D01*
X027243Y004993D01*
X027680Y004555D01*
X027680Y002180D01*
X026680Y002180D02*
X026680Y004555D01*
X026243Y004993D01*
X026243Y005743D01*
X026680Y006180D01*
X028368Y007868D01*
X029180Y007868D01*
X029805Y006993D02*
X027993Y006993D01*
X028680Y006180D02*
X029086Y006586D01*
X029118Y006555D01*
X029118Y004993D01*
X028680Y004555D01*
X028680Y002180D01*
X029680Y002180D02*
X029680Y004555D01*
X030118Y004993D01*
X030118Y005743D01*
X029680Y006180D01*
X029118Y006618D02*
X029086Y006586D01*
X029118Y006618D02*
X030743Y006618D01*
X032805Y008680D01*
X032805Y012993D01*
X032180Y013618D01*
X032180Y016180D01*
X031743Y016430D02*
X031305Y016868D01*
X030055Y016868D01*
X029368Y016180D01*
X029180Y016180D01*
X031493Y018493D02*
X035180Y022180D01*
X034180Y022180D02*
X032180Y020180D01*
X017930Y020180D01*
X017743Y020368D01*
X017368Y020368D01*
X016993Y019993D01*
X017493Y019993D02*
X029180Y019993D01*
X032618Y016555D01*
X032618Y015930D01*
X033118Y015430D01*
X033118Y010680D01*
X034055Y009743D01*
X034930Y009743D01*
X037493Y007180D01*
X037680Y007180D01*
X037368Y006680D02*
X038680Y006680D01*
X037368Y006680D02*
X036868Y007180D01*
X034680Y007180D01*
X034180Y007680D02*
X034680Y008180D01*
X034180Y007680D02*
X033680Y007680D01*
X033680Y008680D02*
X034180Y008680D01*
X034680Y009180D01*
X034680Y010180D02*
X034180Y010680D01*
X033680Y010680D01*
X034680Y011180D02*
X036868Y011180D01*
X037368Y011680D01*
X038680Y011680D01*
X039118Y012680D02*
X037493Y014305D01*
X037493Y019055D01*
X038118Y019680D01*
X038121Y019680D01*
X040055Y021243D02*
X031930Y029368D01*
X018180Y029368D01*
X018055Y029243D01*
X017743Y029055D02*
X018430Y028368D01*
X018475Y028349D01*
X017743Y029055D02*
X012493Y029055D01*
X010993Y028805D02*
X010993Y028118D01*
X011243Y027868D01*
X015118Y025055D02*
X016305Y023868D01*
X018180Y024368D02*
X018180Y022180D01*
X018055Y021493D02*
X017368Y022180D01*
X017180Y022180D01*
X017430Y021305D02*
X016930Y021305D01*
X016555Y020930D01*
X011930Y020930D01*
X010618Y019618D01*
X011118Y019618D02*
X009618Y018118D01*
X007743Y018118D01*
X007430Y018430D01*
X007430Y018660D01*
X007930Y018660D02*
X007930Y019055D01*
X008555Y019680D01*
X008180Y020180D02*
X010368Y020180D01*
X011493Y021305D01*
X014305Y021305D01*
X015180Y022180D01*
X016180Y022180D02*
X015118Y021118D01*
X011618Y021118D01*
X009493Y018993D01*
X009243Y019493D02*
X008430Y018680D01*
X008430Y018660D01*
X007993Y017555D02*
X012618Y017555D01*
X013555Y018493D01*
X012055Y019243D02*
X027243Y019243D01*
X027868Y018868D02*
X011368Y018868D01*
X014618Y016430D02*
X014618Y014930D01*
X013555Y015055D02*
X013305Y015055D01*
X012180Y016180D01*
X014618Y016430D02*
X015243Y017055D01*
X020118Y017055D01*
X020993Y016180D01*
X021180Y016180D01*
X022180Y016180D02*
X021118Y017243D01*
X020180Y016180D02*
X019993Y016180D01*
X018180Y020555D02*
X017430Y021305D01*
X018055Y021493D02*
X024305Y021493D01*
X024743Y021930D01*
X026430Y020930D02*
X027930Y020930D01*
X029180Y022180D01*
X023805Y023555D02*
X023805Y026305D01*
X022993Y027118D01*
X022993Y027805D01*
X022493Y028305D01*
X022475Y028349D01*
X021993Y027805D02*
X021493Y028305D01*
X021475Y028349D01*
X021993Y027805D02*
X021993Y027118D01*
X023180Y025930D01*
X021475Y027349D02*
X021430Y027305D01*
X020243Y026118D01*
X020243Y025930D01*
X019993Y027180D02*
X018555Y025743D01*
X018368Y025743D01*
X017618Y025493D02*
X019430Y027305D01*
X019475Y027349D01*
X019993Y027180D02*
X019993Y028555D01*
X020475Y027349D02*
X020430Y027305D01*
X018118Y024993D01*
X017618Y025368D02*
X017618Y025493D01*
X005680Y022680D02*
X004680Y023680D01*
X004430Y023680D01*
X003680Y023180D02*
X001680Y023180D01*
X004430Y020680D02*
X004680Y020680D01*
X005180Y021180D01*
X004930Y015430D02*
X004930Y014700D01*
X004430Y014700D02*
X004430Y013993D01*
X003930Y014700D02*
X003930Y015430D01*
X003430Y015430D02*
X003430Y014700D01*
X015180Y008680D02*
X015368Y008680D01*
X016243Y007805D01*
X019180Y008680D02*
X019368Y008680D01*
X020243Y007805D01*
X027368Y007805D01*
X029805Y006993D02*
X031618Y008805D01*
X031618Y009430D01*
X033680Y011680D02*
X034180Y011680D01*
X034680Y012180D01*
X034180Y012743D02*
X034180Y016180D01*
X039118Y012680D02*
X039118Y010555D01*
X038805Y010243D01*
X038743Y010243D01*
X037680Y009180D01*
X037680Y008180D02*
X037805Y008180D01*
X040055Y010430D01*
X040055Y021243D01*
X031680Y006180D02*
X031680Y005805D01*
X032118Y005368D01*
X032118Y003305D01*
X031680Y002868D01*
X031680Y002180D01*
X030680Y002180D02*
X030680Y004555D01*
X031118Y004993D01*
X031118Y005743D01*
X030680Y006180D01*
X026055Y004680D02*
X025680Y004305D01*
X025680Y002180D01*
X024680Y002180D02*
X024680Y004555D01*
X025118Y004993D01*
X025118Y005743D01*
X024680Y006180D01*
X024118Y005743D02*
X023680Y006180D01*
X024118Y005743D02*
X024118Y004993D01*
X023680Y004555D01*
X023680Y002180D01*
D27*
X026055Y004680D03*
X028118Y006618D03*
X029180Y007868D03*
X026180Y008368D03*
X023930Y010993D03*
X023243Y012680D03*
X020305Y013555D03*
X018243Y013555D03*
X017743Y014305D03*
X016618Y013930D03*
X016493Y014493D03*
X014993Y014493D03*
X013555Y015055D03*
X012805Y013118D03*
X015180Y012493D03*
X015680Y012243D03*
X017180Y012493D03*
X015930Y010618D03*
X014993Y010680D03*
X013618Y010805D03*
X014618Y009555D03*
X016618Y009930D03*
X017993Y009493D03*
X018180Y010180D03*
X020618Y010680D03*
X020618Y009305D03*
X016243Y007243D03*
X015305Y007305D03*
X010993Y009930D03*
X009243Y010993D03*
X008930Y009680D03*
X006868Y010118D03*
X006493Y010430D03*
X006118Y011243D03*
X006368Y012305D03*
X006868Y012305D03*
X008493Y012180D03*
X009555Y012368D03*
X009868Y012743D03*
X010180Y013118D03*
X008555Y015555D03*
X008055Y015555D03*
X007555Y015555D03*
X007993Y016993D03*
X007993Y017555D03*
X009493Y016993D03*
X009493Y018993D03*
X009243Y019493D03*
X008555Y019680D03*
X008180Y020180D03*
X010618Y019618D03*
X011118Y019618D03*
X011368Y018868D03*
X012055Y019243D03*
X013555Y018493D03*
X016993Y019993D03*
X017493Y019993D03*
X020243Y021118D03*
X023805Y023555D03*
X024743Y024493D03*
X025305Y025055D03*
X024555Y025305D03*
X025680Y025930D03*
X026743Y025930D03*
X026743Y025430D03*
X023180Y025930D03*
X020243Y025930D03*
X018368Y025743D03*
X017618Y025368D03*
X018118Y024993D03*
X017805Y024618D03*
X016305Y023868D03*
X015118Y025055D03*
X014305Y026368D03*
X011743Y025930D03*
X009118Y024555D03*
X009118Y024055D03*
X007118Y024180D03*
X008868Y025930D03*
X010993Y028805D03*
X012493Y029055D03*
X017305Y025743D03*
X019868Y028930D03*
X018055Y029243D03*
X008555Y022118D03*
X004930Y019805D03*
X004430Y019868D03*
X003930Y015430D03*
X003430Y015430D03*
X004930Y015430D03*
X004430Y013993D03*
X004680Y009805D03*
X007805Y007805D03*
X005118Y007243D03*
X021118Y017243D03*
X026430Y020930D03*
X027243Y019243D03*
X027868Y018868D03*
X031493Y018493D03*
X034180Y012743D03*
X031993Y011555D03*
X026743Y011118D03*
D28*
X026618Y011555D02*
X031993Y011555D01*
X031180Y013180D02*
X030180Y013180D01*
X029180Y013180D01*
X028180Y013180D01*
X027180Y013180D01*
X026180Y013180D01*
X025180Y013180D01*
X024180Y013180D01*
X024118Y013118D01*
X014430Y013118D01*
X013055Y011743D01*
X013180Y011680D01*
X012180Y011680D01*
X012180Y010680D02*
X009493Y010680D01*
X009368Y010555D01*
X009118Y010555D01*
X008805Y010868D01*
X008805Y011930D01*
X008930Y012055D01*
X008930Y012305D01*
X008368Y012868D01*
X008430Y012930D01*
X008430Y014700D01*
X008368Y012868D02*
X007680Y012180D01*
X007680Y010180D02*
X007180Y009680D01*
X005680Y009680D01*
X005368Y009368D01*
X004555Y009368D01*
X001180Y012743D01*
X001180Y017805D01*
X001618Y018243D01*
X001618Y018618D01*
X001680Y018680D01*
X002930Y018680D01*
X002930Y018660D01*
X003430Y018660D02*
X003430Y018368D01*
X002743Y017680D01*
X001680Y017680D01*
X003430Y018660D02*
X003430Y018993D01*
X003180Y019243D01*
X003180Y021180D01*
X003680Y021180D01*
X003180Y021180D02*
X001680Y021180D01*
X001680Y024180D02*
X002680Y024180D01*
X002680Y025680D01*
X002680Y028180D01*
X003805Y029305D01*
X011305Y029305D01*
X012243Y028368D01*
X012430Y028368D01*
X012475Y028349D01*
X010475Y027349D02*
X010430Y027305D01*
X009555Y026430D01*
X009618Y026368D01*
X014305Y026368D01*
X014493Y026743D02*
X014743Y026493D01*
X014743Y026243D01*
X011180Y022680D01*
X011180Y022180D01*
X010680Y021680D01*
X010305Y021680D01*
X007368Y024618D01*
X004118Y024618D01*
X003680Y024180D01*
X002680Y024180D01*
X004680Y025680D02*
X005430Y024930D01*
X007680Y024930D01*
X009930Y022680D01*
X010680Y022680D01*
X009555Y026430D02*
X007993Y026430D01*
X006243Y028180D01*
X005680Y028180D01*
X014475Y027349D02*
X014493Y027305D01*
X014493Y026743D01*
X034680Y013680D02*
X035180Y014180D01*
X035180Y016180D01*
X035680Y013680D02*
X036180Y013680D01*
X037680Y012180D01*
X037680Y011180D02*
X038180Y011180D01*
X038680Y010680D01*
X038680Y007680D02*
X038680Y007305D01*
X039180Y006805D01*
X039180Y005805D01*
X039118Y005743D01*
X038680Y006180D01*
X037680Y006180D01*
X036680Y005180D01*
X034680Y005180D01*
X039118Y005743D02*
X040180Y004680D01*
X026618Y011555D02*
X025680Y010618D01*
X025680Y008743D01*
X025368Y008430D01*
X023993Y008430D01*
X023743Y008680D01*
X022180Y008680D01*
D29*
X022180Y008680D01*
X022180Y009380D01*
X022215Y009380D01*
X022283Y009369D01*
X022349Y009348D01*
X022411Y009316D01*
X022467Y009276D01*
X022516Y009227D01*
X022556Y009171D01*
X022588Y009109D01*
X022609Y009043D01*
X022620Y008975D01*
X022620Y008680D01*
X022180Y008680D01*
X022180Y008680D01*
X022180Y008680D01*
X021740Y008680D01*
X021740Y008975D01*
X021751Y009043D01*
X021772Y009109D01*
X021804Y009171D01*
X021844Y009227D01*
X021893Y009276D01*
X021949Y009316D01*
X022011Y009348D01*
X022077Y009369D01*
X022145Y009380D01*
X022180Y009380D01*
X022180Y008680D01*
X022620Y008680D01*
X022620Y008385D01*
X022609Y008317D01*
X022588Y008251D01*
X022563Y008202D01*
X025859Y008202D01*
X025820Y008296D01*
X025820Y008439D01*
X025875Y008571D01*
X025905Y008601D01*
X025824Y008682D01*
X025760Y008836D01*
X025760Y009524D01*
X025824Y009678D01*
X025826Y009680D01*
X025824Y009682D01*
X025760Y009836D01*
X025760Y010524D01*
X025824Y010678D01*
X025942Y010796D01*
X026096Y010860D01*
X026264Y010860D01*
X026418Y010796D01*
X026533Y010681D01*
X026533Y010818D01*
X026437Y010914D01*
X026383Y011046D01*
X026383Y011189D01*
X026437Y011321D01*
X026539Y011423D01*
X026671Y011477D01*
X026814Y011477D01*
X026946Y011423D01*
X027048Y011321D01*
X027102Y011189D01*
X027102Y011046D01*
X027048Y010914D01*
X026952Y010818D01*
X026952Y010800D01*
X027096Y010860D01*
X027264Y010860D01*
X027418Y010796D01*
X027536Y010678D01*
X027600Y010524D01*
X027600Y009836D01*
X027536Y009682D01*
X027534Y009680D01*
X027536Y009678D01*
X027600Y009524D01*
X027600Y008897D01*
X027760Y009057D01*
X027760Y009524D01*
X027824Y009678D01*
X027826Y009680D01*
X027824Y009682D01*
X027760Y009836D01*
X027760Y010524D01*
X027824Y010678D01*
X027942Y010796D01*
X028096Y010860D01*
X028264Y010860D01*
X028418Y010796D01*
X028536Y010678D01*
X028600Y010524D01*
X028600Y009836D01*
X028536Y009682D01*
X028534Y009680D01*
X028536Y009678D01*
X028600Y009524D01*
X028600Y008897D01*
X028760Y009057D01*
X028760Y009524D01*
X028824Y009678D01*
X028826Y009680D01*
X028824Y009682D01*
X028760Y009836D01*
X028760Y010524D01*
X028824Y010678D01*
X028942Y010796D01*
X029096Y010860D01*
X029264Y010860D01*
X029418Y010796D01*
X029536Y010678D01*
X029600Y010524D01*
X029600Y009836D01*
X029536Y009682D01*
X029534Y009680D01*
X029536Y009678D01*
X029600Y009524D01*
X029600Y008897D01*
X029760Y009057D01*
X029760Y009524D01*
X029824Y009678D01*
X029826Y009680D01*
X029824Y009682D01*
X029760Y009836D01*
X029760Y010524D01*
X029824Y010678D01*
X029942Y010796D01*
X030096Y010860D01*
X030264Y010860D01*
X030418Y010796D01*
X030536Y010678D01*
X030600Y010524D01*
X030600Y009836D01*
X030536Y009682D01*
X030534Y009680D01*
X030536Y009678D01*
X030600Y009524D01*
X030600Y008897D01*
X030760Y009057D01*
X030760Y009524D01*
X030824Y009678D01*
X030826Y009680D01*
X030824Y009682D01*
X030760Y009836D01*
X030760Y010524D01*
X030824Y010678D01*
X030942Y010796D01*
X031096Y010860D01*
X031264Y010860D01*
X031418Y010796D01*
X031536Y010678D01*
X031600Y010524D01*
X031600Y009836D01*
X031536Y009682D01*
X031534Y009680D01*
X031536Y009678D01*
X031546Y009655D01*
X032158Y010267D01*
X032158Y012718D01*
X031600Y013276D01*
X031600Y012836D01*
X031536Y012682D01*
X031418Y012564D01*
X031264Y012500D01*
X031096Y012500D01*
X030942Y012564D01*
X030824Y012682D01*
X030760Y012836D01*
X030760Y012920D01*
X030600Y012920D01*
X030600Y012836D01*
X030536Y012682D01*
X030418Y012564D01*
X030264Y012500D01*
X030096Y012500D01*
X029942Y012564D01*
X029824Y012682D01*
X029760Y012836D01*
X029760Y012920D01*
X029600Y012920D01*
X029600Y012836D01*
X029536Y012682D01*
X029418Y012564D01*
X029264Y012500D01*
X029096Y012500D01*
X028942Y012564D01*
X028824Y012682D01*
X028760Y012836D01*
X028760Y012920D01*
X028600Y012920D01*
X028600Y012836D01*
X028536Y012682D01*
X028418Y012564D01*
X028264Y012500D01*
X028096Y012500D01*
X027942Y012564D01*
X027824Y012682D01*
X027760Y012836D01*
X027760Y012920D01*
X027600Y012920D01*
X027600Y012836D01*
X027536Y012682D01*
X027418Y012564D01*
X027264Y012500D01*
X027096Y012500D01*
X026942Y012564D01*
X026824Y012682D01*
X026760Y012836D01*
X026760Y012920D01*
X026600Y012920D01*
X026600Y012836D01*
X026536Y012682D01*
X026418Y012564D01*
X026264Y012500D01*
X026096Y012500D01*
X025942Y012564D01*
X025824Y012682D01*
X025760Y012836D01*
X025760Y012920D01*
X025600Y012920D01*
X025600Y012836D01*
X025536Y012682D01*
X025418Y012564D01*
X025264Y012500D01*
X025096Y012500D01*
X024942Y012564D01*
X024824Y012682D01*
X024760Y012836D01*
X024760Y012920D01*
X024600Y012920D01*
X024600Y012836D01*
X024536Y012682D01*
X024418Y012564D01*
X024264Y012500D01*
X024096Y012500D01*
X023942Y012564D01*
X023824Y012682D01*
X023760Y012836D01*
X023760Y012858D01*
X023559Y012858D01*
X023602Y012752D01*
X023602Y012608D01*
X023548Y012476D01*
X023446Y012375D01*
X023374Y012345D01*
X024933Y010787D01*
X024942Y010796D01*
X025096Y010860D01*
X025264Y010860D01*
X025418Y010796D01*
X025536Y010678D01*
X025600Y010524D01*
X025600Y009836D01*
X025536Y009682D01*
X025534Y009680D01*
X025536Y009678D01*
X025600Y009524D01*
X025600Y008836D01*
X025536Y008682D01*
X025418Y008564D01*
X025264Y008500D01*
X025096Y008500D01*
X024942Y008564D01*
X024824Y008682D01*
X024760Y008836D01*
X024760Y009524D01*
X024824Y009678D01*
X024826Y009680D01*
X024824Y009682D01*
X024760Y009836D01*
X024760Y010366D01*
X024599Y010527D01*
X024600Y010524D01*
X024600Y009836D01*
X024536Y009682D01*
X024534Y009680D01*
X024536Y009678D01*
X024600Y009524D01*
X024600Y008836D01*
X024536Y008682D01*
X024418Y008564D01*
X024264Y008500D01*
X024096Y008500D01*
X023942Y008564D01*
X023824Y008682D01*
X023760Y008836D01*
X023760Y009524D01*
X023824Y009678D01*
X023826Y009680D01*
X023824Y009682D01*
X023760Y009836D01*
X023760Y010524D01*
X023813Y010651D01*
X023726Y010687D01*
X023625Y010789D01*
X023570Y010921D01*
X023570Y011056D01*
X022599Y012027D01*
X022600Y012024D01*
X022600Y011336D01*
X022536Y011182D01*
X022418Y011064D01*
X022264Y011000D01*
X022096Y011000D01*
X021942Y011064D01*
X021824Y011182D01*
X021760Y011336D01*
X021760Y012024D01*
X021815Y012158D01*
X021545Y012158D01*
X021600Y012024D01*
X021600Y011336D01*
X021536Y011182D01*
X021418Y011064D01*
X021264Y011000D01*
X021096Y011000D01*
X020942Y011064D01*
X020824Y011182D01*
X020760Y011336D01*
X020760Y012024D01*
X020815Y012158D01*
X020545Y012158D01*
X020600Y012024D01*
X020600Y011336D01*
X020536Y011182D01*
X020418Y011064D01*
X020264Y011000D01*
X020096Y011000D01*
X019942Y011064D01*
X019902Y011105D01*
X018352Y009556D01*
X018352Y009421D01*
X018318Y009337D01*
X018418Y009296D01*
X018536Y009178D01*
X018600Y009024D01*
X018600Y008336D01*
X018545Y008202D01*
X018815Y008202D01*
X018760Y008336D01*
X018760Y009024D01*
X018824Y009178D01*
X018942Y009296D01*
X019096Y009360D01*
X019264Y009360D01*
X019418Y009296D01*
X019536Y009178D01*
X019600Y009024D01*
X019600Y008744D01*
X019760Y008584D01*
X019760Y009024D01*
X019824Y009178D01*
X019942Y009296D01*
X020096Y009360D01*
X020258Y009360D01*
X020258Y009377D01*
X020312Y009509D01*
X020408Y009604D01*
X020408Y010381D01*
X020312Y010476D01*
X020258Y010608D01*
X020258Y010752D01*
X020312Y010884D01*
X020414Y010985D01*
X020546Y011040D01*
X020689Y011040D01*
X020821Y010985D01*
X020923Y010884D01*
X020977Y010752D01*
X020977Y010608D01*
X020923Y010476D01*
X020827Y010381D01*
X020827Y009604D01*
X020923Y009509D01*
X020977Y009377D01*
X020977Y009311D01*
X021096Y009360D01*
X021264Y009360D01*
X021418Y009296D01*
X021536Y009178D01*
X021600Y009024D01*
X021600Y008744D01*
X021740Y008604D01*
X021740Y008680D01*
X022180Y008680D01*
X022180Y008715D02*
X022180Y008715D01*
X022180Y008873D02*
X022180Y008873D01*
X022180Y009032D02*
X022180Y009032D01*
X022180Y009190D02*
X022180Y009190D01*
X022180Y009349D02*
X022180Y009349D01*
X022347Y009349D02*
X023760Y009349D01*
X023760Y009507D02*
X020923Y009507D01*
X020977Y009349D02*
X021069Y009349D01*
X021291Y009349D02*
X022013Y009349D01*
X021818Y009190D02*
X021524Y009190D01*
X021597Y009032D02*
X021749Y009032D01*
X021740Y008873D02*
X021600Y008873D01*
X021630Y008715D02*
X021740Y008715D01*
X022620Y008715D02*
X023811Y008715D01*
X023760Y008873D02*
X022620Y008873D01*
X022611Y009032D02*
X023760Y009032D01*
X023760Y009190D02*
X022542Y009190D01*
X022620Y008556D02*
X023961Y008556D01*
X024399Y008556D02*
X024961Y008556D01*
X024811Y008715D02*
X024549Y008715D01*
X024600Y008873D02*
X024760Y008873D01*
X024760Y009032D02*
X024600Y009032D01*
X024600Y009190D02*
X024760Y009190D01*
X024760Y009349D02*
X024600Y009349D01*
X024600Y009507D02*
X024760Y009507D01*
X024819Y009666D02*
X024541Y009666D01*
X024595Y009824D02*
X024765Y009824D01*
X024760Y009983D02*
X024600Y009983D01*
X024600Y010141D02*
X024760Y010141D01*
X024760Y010300D02*
X024600Y010300D01*
X024600Y010458D02*
X024667Y010458D01*
X024786Y010934D02*
X026429Y010934D01*
X026439Y010775D02*
X026533Y010775D01*
X026383Y011092D02*
X024627Y011092D01*
X024469Y011251D02*
X026408Y011251D01*
X026525Y011409D02*
X024310Y011409D01*
X024152Y011568D02*
X032158Y011568D01*
X032158Y011726D02*
X023993Y011726D01*
X023835Y011885D02*
X032158Y011885D01*
X032158Y012043D02*
X023676Y012043D01*
X023518Y012202D02*
X032158Y012202D01*
X032158Y012360D02*
X023411Y012360D01*
X023565Y012519D02*
X024052Y012519D01*
X024308Y012519D02*
X025052Y012519D01*
X025308Y012519D02*
X026052Y012519D01*
X026308Y012519D02*
X027052Y012519D01*
X027308Y012519D02*
X028052Y012519D01*
X028308Y012519D02*
X029052Y012519D01*
X029308Y012519D02*
X030052Y012519D01*
X030308Y012519D02*
X031052Y012519D01*
X031308Y012519D02*
X032158Y012519D01*
X032158Y012677D02*
X031531Y012677D01*
X031600Y012836D02*
X032040Y012836D01*
X031881Y012994D02*
X031600Y012994D01*
X031600Y013153D02*
X031723Y013153D01*
X030829Y012677D02*
X030531Y012677D01*
X030600Y012836D02*
X030760Y012836D01*
X029829Y012677D02*
X029531Y012677D01*
X029600Y012836D02*
X029760Y012836D01*
X028829Y012677D02*
X028531Y012677D01*
X028600Y012836D02*
X028760Y012836D01*
X027829Y012677D02*
X027531Y012677D01*
X027600Y012836D02*
X027760Y012836D01*
X026829Y012677D02*
X026531Y012677D01*
X026600Y012836D02*
X026760Y012836D01*
X025829Y012677D02*
X025531Y012677D01*
X025600Y012836D02*
X025760Y012836D01*
X024829Y012677D02*
X024531Y012677D01*
X024600Y012836D02*
X024760Y012836D01*
X023829Y012677D02*
X023602Y012677D01*
X023568Y012836D02*
X023760Y012836D01*
X022741Y011885D02*
X022600Y011885D01*
X022600Y011726D02*
X022899Y011726D01*
X023058Y011568D02*
X022600Y011568D01*
X022600Y011409D02*
X023216Y011409D01*
X023375Y011251D02*
X022564Y011251D01*
X022446Y011092D02*
X023533Y011092D01*
X023570Y010934D02*
X020873Y010934D01*
X020914Y011092D02*
X020446Y011092D01*
X020362Y010934D02*
X019731Y010934D01*
X019889Y011092D02*
X019914Y011092D01*
X019572Y010775D02*
X020267Y010775D01*
X020258Y010617D02*
X019414Y010617D01*
X019255Y010458D02*
X020330Y010458D01*
X020408Y010300D02*
X019096Y010300D01*
X018938Y010141D02*
X020408Y010141D01*
X020408Y009983D02*
X018779Y009983D01*
X018621Y009824D02*
X020408Y009824D01*
X020408Y009666D02*
X018462Y009666D01*
X018352Y009507D02*
X020312Y009507D01*
X020069Y009349D02*
X019291Y009349D01*
X019069Y009349D02*
X018323Y009349D01*
X018524Y009190D02*
X018836Y009190D01*
X018763Y009032D02*
X018597Y009032D01*
X018600Y008873D02*
X018760Y008873D01*
X018760Y008715D02*
X018600Y008715D01*
X018600Y008556D02*
X018760Y008556D01*
X018760Y008398D02*
X018600Y008398D01*
X018560Y008239D02*
X018800Y008239D01*
X019630Y008715D02*
X019760Y008715D01*
X019760Y008873D02*
X019600Y008873D01*
X019597Y009032D02*
X019763Y009032D01*
X019836Y009190D02*
X019524Y009190D01*
X020827Y009666D02*
X023819Y009666D01*
X023765Y009824D02*
X020827Y009824D01*
X020827Y009983D02*
X023760Y009983D01*
X023760Y010141D02*
X020827Y010141D01*
X020827Y010300D02*
X023760Y010300D01*
X023760Y010458D02*
X020905Y010458D01*
X020977Y010617D02*
X023799Y010617D01*
X023638Y010775D02*
X020968Y010775D01*
X020796Y011251D02*
X020564Y011251D01*
X020600Y011409D02*
X020760Y011409D01*
X020760Y011568D02*
X020600Y011568D01*
X020600Y011726D02*
X020760Y011726D01*
X020760Y011885D02*
X020600Y011885D01*
X020592Y012043D02*
X020768Y012043D01*
X021592Y012043D02*
X021768Y012043D01*
X021760Y011885D02*
X021600Y011885D01*
X021600Y011726D02*
X021760Y011726D01*
X021760Y011568D02*
X021600Y011568D01*
X021600Y011409D02*
X021760Y011409D01*
X021796Y011251D02*
X021564Y011251D01*
X021446Y011092D02*
X021914Y011092D01*
X025439Y010775D02*
X025921Y010775D01*
X025799Y010617D02*
X025561Y010617D01*
X025600Y010458D02*
X025760Y010458D01*
X025760Y010300D02*
X025600Y010300D01*
X025600Y010141D02*
X025760Y010141D01*
X025760Y009983D02*
X025600Y009983D01*
X025595Y009824D02*
X025765Y009824D01*
X025819Y009666D02*
X025541Y009666D01*
X025600Y009507D02*
X025760Y009507D01*
X025760Y009349D02*
X025600Y009349D01*
X025600Y009190D02*
X025760Y009190D01*
X025760Y009032D02*
X025600Y009032D01*
X025600Y008873D02*
X025760Y008873D01*
X025811Y008715D02*
X025549Y008715D01*
X025399Y008556D02*
X025868Y008556D01*
X025820Y008398D02*
X022620Y008398D01*
X022582Y008239D02*
X025844Y008239D01*
X027600Y009032D02*
X027735Y009032D01*
X027760Y009190D02*
X027600Y009190D01*
X027600Y009349D02*
X027760Y009349D01*
X027760Y009507D02*
X027600Y009507D01*
X027541Y009666D02*
X027819Y009666D01*
X027765Y009824D02*
X027595Y009824D01*
X027600Y009983D02*
X027760Y009983D01*
X027760Y010141D02*
X027600Y010141D01*
X027600Y010300D02*
X027760Y010300D01*
X027760Y010458D02*
X027600Y010458D01*
X027561Y010617D02*
X027799Y010617D01*
X027921Y010775D02*
X027439Y010775D01*
X027056Y010934D02*
X032158Y010934D01*
X032158Y011092D02*
X027102Y011092D01*
X027077Y011251D02*
X032158Y011251D01*
X032158Y011409D02*
X026960Y011409D01*
X028439Y010775D02*
X028921Y010775D01*
X028799Y010617D02*
X028561Y010617D01*
X028600Y010458D02*
X028760Y010458D01*
X028760Y010300D02*
X028600Y010300D01*
X028600Y010141D02*
X028760Y010141D01*
X028760Y009983D02*
X028600Y009983D01*
X028595Y009824D02*
X028765Y009824D01*
X028819Y009666D02*
X028541Y009666D01*
X028600Y009507D02*
X028760Y009507D01*
X028760Y009349D02*
X028600Y009349D01*
X028600Y009190D02*
X028760Y009190D01*
X028735Y009032D02*
X028600Y009032D01*
X029600Y009032D02*
X029735Y009032D01*
X029760Y009190D02*
X029600Y009190D01*
X029600Y009349D02*
X029760Y009349D01*
X029760Y009507D02*
X029600Y009507D01*
X029541Y009666D02*
X029819Y009666D01*
X029765Y009824D02*
X029595Y009824D01*
X029600Y009983D02*
X029760Y009983D01*
X029760Y010141D02*
X029600Y010141D01*
X029600Y010300D02*
X029760Y010300D01*
X029760Y010458D02*
X029600Y010458D01*
X029561Y010617D02*
X029799Y010617D01*
X029921Y010775D02*
X029439Y010775D01*
X030439Y010775D02*
X030921Y010775D01*
X030799Y010617D02*
X030561Y010617D01*
X030600Y010458D02*
X030760Y010458D01*
X030760Y010300D02*
X030600Y010300D01*
X030600Y010141D02*
X030760Y010141D01*
X030760Y009983D02*
X030600Y009983D01*
X030595Y009824D02*
X030765Y009824D01*
X030819Y009666D02*
X030541Y009666D01*
X030600Y009507D02*
X030760Y009507D01*
X030760Y009349D02*
X030600Y009349D01*
X030600Y009190D02*
X030760Y009190D01*
X030735Y009032D02*
X030600Y009032D01*
X031541Y009666D02*
X031556Y009666D01*
X031595Y009824D02*
X031715Y009824D01*
X031600Y009983D02*
X031873Y009983D01*
X032032Y010141D02*
X031600Y010141D01*
X031600Y010300D02*
X032158Y010300D01*
X032158Y010458D02*
X031600Y010458D01*
X031561Y010617D02*
X032158Y010617D01*
X032158Y010775D02*
X031439Y010775D01*
X033015Y010486D02*
X033968Y009533D01*
X034179Y009533D01*
X034064Y009418D01*
X034000Y009264D01*
X034000Y009096D01*
X034064Y008942D01*
X034105Y008902D01*
X034093Y008890D01*
X034064Y008890D01*
X033854Y009100D01*
X033506Y009100D01*
X033260Y008854D01*
X033260Y008506D01*
X033506Y008260D01*
X033854Y008260D01*
X034064Y008470D01*
X034116Y008470D01*
X034064Y008418D01*
X034000Y008264D01*
X034000Y008096D01*
X034064Y007942D01*
X034105Y007902D01*
X034093Y007890D01*
X034064Y007890D01*
X033854Y008100D01*
X033506Y008100D01*
X033260Y007854D01*
X033260Y007506D01*
X033506Y007260D01*
X033854Y007260D01*
X034064Y007470D01*
X034116Y007470D01*
X034064Y007418D01*
X034000Y007264D01*
X034000Y007096D01*
X034064Y006942D01*
X034182Y006824D01*
X034336Y006760D01*
X035024Y006760D01*
X035178Y006824D01*
X035296Y006942D01*
X035308Y006970D01*
X036781Y006970D01*
X037158Y006593D01*
X037193Y006558D01*
X037189Y006556D01*
X037133Y006516D01*
X037084Y006467D01*
X037044Y006411D01*
X037012Y006349D01*
X036991Y006283D01*
X036980Y006215D01*
X036980Y006180D01*
X037680Y006180D01*
X038380Y006180D01*
X038380Y006215D01*
X038369Y006283D01*
X038348Y006349D01*
X038316Y006411D01*
X038276Y006467D01*
X038272Y006470D01*
X038296Y006470D01*
X038506Y006260D01*
X038854Y006260D01*
X039100Y006506D01*
X039100Y006854D01*
X038854Y007100D01*
X038506Y007100D01*
X038296Y006890D01*
X038244Y006890D01*
X038296Y006942D01*
X038360Y007096D01*
X038360Y007264D01*
X038296Y007418D01*
X038178Y007536D01*
X038024Y007600D01*
X037369Y007600D01*
X035155Y009814D01*
X035178Y009824D01*
X037182Y009824D01*
X037336Y009760D01*
X037963Y009760D01*
X037803Y009600D01*
X037336Y009600D01*
X037182Y009536D01*
X037064Y009418D01*
X037000Y009264D01*
X037000Y009096D01*
X037064Y008942D01*
X037182Y008824D01*
X037336Y008760D01*
X038024Y008760D01*
X038134Y008806D01*
X037928Y008600D01*
X037336Y008600D01*
X037182Y008536D01*
X037064Y008418D01*
X037000Y008264D01*
X037000Y008096D01*
X037064Y007942D01*
X037182Y007824D01*
X037336Y007760D01*
X038024Y007760D01*
X038178Y007824D01*
X038296Y007942D01*
X038360Y008096D01*
X038360Y008264D01*
X038309Y008387D01*
X040142Y010220D01*
X040265Y010343D01*
X040265Y021329D01*
X032194Y029400D01*
X041400Y029400D01*
X041400Y004680D01*
X032327Y004680D01*
X032327Y005454D01*
X032204Y005577D01*
X031966Y005816D01*
X032140Y005989D01*
X032140Y006371D01*
X031871Y006640D01*
X031489Y006640D01*
X031220Y006371D01*
X031220Y005989D01*
X031470Y005739D01*
X031470Y005718D01*
X031528Y005660D01*
X031481Y005660D01*
X031327Y005506D01*
X031327Y005829D01*
X031140Y006017D01*
X031140Y006371D01*
X030966Y006544D01*
X033015Y008593D01*
X033015Y010486D01*
X033015Y010458D02*
X033042Y010458D01*
X033015Y010300D02*
X033201Y010300D01*
X033359Y010141D02*
X033015Y010141D01*
X033015Y009983D02*
X033518Y009983D01*
X033676Y009824D02*
X033015Y009824D01*
X033015Y009666D02*
X033835Y009666D01*
X034153Y009507D02*
X033015Y009507D01*
X033015Y009349D02*
X034035Y009349D01*
X034000Y009190D02*
X033015Y009190D01*
X033015Y009032D02*
X033438Y009032D01*
X033279Y008873D02*
X033015Y008873D01*
X033015Y008715D02*
X033260Y008715D01*
X033260Y008556D02*
X032978Y008556D01*
X032819Y008398D02*
X033369Y008398D01*
X033487Y008081D02*
X032502Y008081D01*
X032344Y007922D02*
X033328Y007922D01*
X033260Y007764D02*
X032185Y007764D01*
X032027Y007605D02*
X033260Y007605D01*
X033320Y007447D02*
X031868Y007447D01*
X031710Y007288D02*
X033478Y007288D01*
X033882Y007288D02*
X034010Y007288D01*
X034000Y007130D02*
X031551Y007130D01*
X031393Y006971D02*
X034052Y006971D01*
X034210Y006813D02*
X031234Y006813D01*
X031076Y006654D02*
X037097Y006654D01*
X037113Y006496D02*
X035218Y006496D01*
X035178Y006536D02*
X035024Y006600D01*
X034336Y006600D01*
X034182Y006536D01*
X034064Y006418D01*
X034000Y006264D01*
X034000Y006096D01*
X034064Y005942D01*
X034182Y005824D01*
X034336Y005760D01*
X035024Y005760D01*
X035178Y005824D01*
X035296Y005942D01*
X035360Y006096D01*
X035360Y006264D01*
X035296Y006418D01*
X035178Y006536D01*
X035330Y006337D02*
X037008Y006337D01*
X036980Y006180D02*
X036980Y006145D01*
X036991Y006077D01*
X037012Y006011D01*
X037044Y005949D01*
X037084Y005893D01*
X037133Y005844D01*
X037189Y005804D01*
X037251Y005772D01*
X037317Y005751D01*
X037385Y005740D01*
X037680Y005740D01*
X037975Y005740D01*
X038043Y005751D01*
X038109Y005772D01*
X038171Y005804D01*
X038227Y005844D01*
X038276Y005893D01*
X038316Y005949D01*
X038348Y006011D01*
X038369Y006077D01*
X038380Y006145D01*
X038380Y006180D01*
X037680Y006180D01*
X037680Y006180D01*
X037680Y005740D01*
X037680Y006180D01*
X037680Y006180D01*
X037680Y006180D01*
X036980Y006180D01*
X036980Y006179D02*
X035360Y006179D01*
X035328Y006020D02*
X037009Y006020D01*
X037116Y005862D02*
X035215Y005862D01*
X035109Y005588D02*
X035043Y005609D01*
X034975Y005620D01*
X034680Y005620D01*
X034680Y005180D01*
X034680Y005180D01*
X035380Y005180D01*
X035380Y005215D01*
X035369Y005283D01*
X035348Y005349D01*
X035316Y005411D01*
X035276Y005467D01*
X035227Y005516D01*
X035171Y005556D01*
X035109Y005588D01*
X035187Y005545D02*
X037202Y005545D01*
X037182Y005536D02*
X037064Y005418D01*
X037000Y005264D01*
X037000Y005096D01*
X037064Y004942D01*
X037182Y004824D01*
X037336Y004760D01*
X038024Y004760D01*
X038178Y004824D01*
X038296Y004942D01*
X038360Y005096D01*
X038360Y005264D01*
X038296Y005418D01*
X038178Y005536D01*
X038024Y005600D01*
X037336Y005600D01*
X037182Y005536D01*
X037051Y005386D02*
X035329Y005386D01*
X035378Y005228D02*
X037000Y005228D01*
X037011Y005069D02*
X035367Y005069D01*
X035369Y005077D02*
X035348Y005011D01*
X035316Y004949D01*
X035276Y004893D01*
X035227Y004844D01*
X035171Y004804D01*
X035109Y004772D01*
X035043Y004751D01*
X034975Y004740D01*
X034680Y004740D01*
X034680Y005180D01*
X034680Y005180D01*
X034680Y005180D01*
X034680Y005180D01*
X033980Y005180D01*
X033980Y005215D01*
X033991Y005283D01*
X034012Y005349D01*
X034044Y005411D01*
X034084Y005467D01*
X034133Y005516D01*
X034189Y005556D01*
X034251Y005588D01*
X034317Y005609D01*
X034385Y005620D01*
X034680Y005620D01*
X034680Y005180D01*
X035380Y005180D01*
X035380Y005145D01*
X035369Y005077D01*
X035288Y004911D02*
X037096Y004911D01*
X038264Y004911D02*
X041400Y004911D01*
X041400Y005069D02*
X038349Y005069D01*
X038360Y005228D02*
X041400Y005228D01*
X041400Y005386D02*
X038309Y005386D01*
X038158Y005545D02*
X041400Y005545D01*
X041400Y005703D02*
X032079Y005703D01*
X032012Y005862D02*
X034145Y005862D01*
X034032Y006020D02*
X032140Y006020D01*
X032140Y006179D02*
X034000Y006179D01*
X034030Y006337D02*
X032140Y006337D01*
X032015Y006496D02*
X034142Y006496D01*
X034093Y007447D02*
X034040Y007447D01*
X034032Y007922D02*
X034084Y007922D01*
X034007Y008081D02*
X033873Y008081D01*
X034000Y008239D02*
X032661Y008239D01*
X033991Y008398D02*
X034055Y008398D01*
X034027Y009032D02*
X033922Y009032D01*
X035178Y009824D02*
X035296Y009942D01*
X035360Y010096D01*
X035360Y010264D01*
X035296Y010418D01*
X035178Y010536D01*
X035024Y010600D01*
X034557Y010600D01*
X034397Y010760D01*
X035024Y010760D01*
X035178Y010824D01*
X035296Y010942D01*
X035308Y010970D01*
X036954Y010970D01*
X037008Y011024D01*
X037012Y011011D01*
X037044Y010949D01*
X037084Y010893D01*
X037133Y010844D01*
X037189Y010804D01*
X037251Y010772D01*
X037317Y010751D01*
X037385Y010740D01*
X037680Y010740D01*
X037975Y010740D01*
X038043Y010751D01*
X038109Y010772D01*
X038171Y010804D01*
X038227Y010844D01*
X038240Y010858D01*
X038240Y010680D01*
X038680Y010680D01*
X038680Y010680D01*
X038680Y011120D01*
X038862Y011120D01*
X038908Y011075D01*
X038908Y011314D01*
X038854Y011260D01*
X038506Y011260D01*
X038296Y011470D01*
X038272Y011470D01*
X038276Y011467D01*
X038316Y011411D01*
X038348Y011349D01*
X038369Y011283D01*
X038380Y011215D01*
X038380Y011180D01*
X037680Y011180D01*
X037680Y011180D01*
X038380Y011180D01*
X038380Y011145D01*
X038369Y011077D01*
X038348Y011011D01*
X038316Y010949D01*
X038288Y010910D01*
X038498Y011120D01*
X038680Y011120D01*
X038680Y010680D01*
X038680Y010680D01*
X038240Y010680D01*
X038240Y010498D01*
X038470Y010267D01*
X038360Y010157D01*
X038360Y010264D01*
X038296Y010418D01*
X038178Y010536D01*
X038024Y010600D01*
X037336Y010600D01*
X037182Y010536D01*
X037064Y010418D01*
X037000Y010264D01*
X037000Y010096D01*
X037064Y009942D01*
X037182Y009824D01*
X037047Y009983D02*
X035313Y009983D01*
X035360Y010141D02*
X037000Y010141D01*
X037015Y010300D02*
X035345Y010300D01*
X035256Y010458D02*
X037104Y010458D01*
X037246Y010775D02*
X035060Y010775D01*
X035287Y010934D02*
X037055Y010934D01*
X037680Y010934D02*
X037680Y010934D01*
X037680Y011092D02*
X037680Y011092D01*
X037680Y011180D02*
X037680Y010740D01*
X037680Y011180D01*
X037680Y011180D01*
X037680Y010775D02*
X037680Y010775D01*
X038114Y010775D02*
X038240Y010775D01*
X038240Y010617D02*
X034540Y010617D01*
X034397Y011600D02*
X034557Y011760D01*
X035024Y011760D01*
X035178Y011824D01*
X035296Y011942D01*
X035360Y012096D01*
X035360Y012264D01*
X035296Y012418D01*
X035178Y012536D01*
X035024Y012600D01*
X034511Y012600D01*
X034540Y012671D01*
X034540Y012814D01*
X034485Y012946D01*
X034390Y013042D01*
X034390Y013348D01*
X034498Y013240D01*
X034680Y013240D01*
X034862Y013240D01*
X035120Y013498D01*
X035120Y013680D01*
X035120Y013862D01*
X034862Y014120D01*
X034680Y014120D01*
X034680Y013680D01*
X034680Y013680D01*
X035120Y013680D01*
X034680Y013680D01*
X034680Y013680D01*
X034680Y014120D01*
X034498Y014120D01*
X034390Y014012D01*
X034390Y015552D01*
X034418Y015564D01*
X034536Y015682D01*
X034600Y015836D01*
X034600Y016524D01*
X034536Y016678D01*
X034418Y016796D01*
X034264Y016860D01*
X034096Y016860D01*
X033942Y016796D01*
X033824Y016678D01*
X033760Y016524D01*
X033760Y015836D01*
X033824Y015682D01*
X033942Y015564D01*
X033970Y015552D01*
X033970Y013042D01*
X033875Y012946D01*
X033820Y012814D01*
X033820Y012671D01*
X033875Y012539D01*
X033976Y012437D01*
X034058Y012403D01*
X034000Y012264D01*
X034000Y012096D01*
X034064Y011942D01*
X034105Y011902D01*
X034093Y011890D01*
X034064Y011890D01*
X033854Y012100D01*
X033506Y012100D01*
X033327Y011921D01*
X033327Y015517D01*
X033321Y015524D01*
X033418Y015564D01*
X033536Y015682D01*
X033600Y015836D01*
X033600Y016524D01*
X033536Y016678D01*
X033418Y016796D01*
X033264Y016860D01*
X033096Y016860D01*
X032942Y016796D01*
X032824Y016678D01*
X032814Y016655D01*
X029499Y019970D01*
X032267Y019970D01*
X033902Y021605D01*
X033942Y021564D01*
X034096Y021500D01*
X034203Y021500D01*
X031556Y018852D01*
X031421Y018852D01*
X031289Y018798D01*
X031187Y018696D01*
X031133Y018564D01*
X031133Y018421D01*
X031187Y018289D01*
X031289Y018187D01*
X031421Y018133D01*
X031564Y018133D01*
X031696Y018187D01*
X031798Y018289D01*
X031852Y018421D01*
X031852Y018556D01*
X034902Y021605D01*
X034942Y021564D01*
X035096Y021500D01*
X035264Y021500D01*
X035418Y021564D01*
X035536Y021682D01*
X035600Y021836D01*
X035600Y022524D01*
X035536Y022678D01*
X035418Y022796D01*
X035264Y022860D01*
X035096Y022860D01*
X034942Y022796D01*
X034824Y022678D01*
X034760Y022524D01*
X034760Y022057D01*
X034600Y021897D01*
X034600Y022524D01*
X034536Y022678D01*
X034418Y022796D01*
X034264Y022860D01*
X034096Y022860D01*
X033942Y022796D01*
X033824Y022678D01*
X033760Y022524D01*
X033760Y022057D01*
X033600Y021897D01*
X033600Y022524D01*
X033536Y022678D01*
X033418Y022796D01*
X033264Y022860D01*
X033096Y022860D01*
X032942Y022796D01*
X032824Y022678D01*
X032760Y022524D01*
X032760Y022057D01*
X032600Y021897D01*
X032600Y022524D01*
X032536Y022678D01*
X032418Y022796D01*
X032264Y022860D01*
X032096Y022860D01*
X031942Y022796D01*
X031824Y022678D01*
X031760Y022524D01*
X031760Y022057D01*
X031600Y021897D01*
X031600Y022524D01*
X031536Y022678D01*
X031418Y022796D01*
X031264Y022860D01*
X031096Y022860D01*
X030942Y022796D01*
X030824Y022678D01*
X030760Y022524D01*
X030760Y021836D01*
X030815Y021702D01*
X030545Y021702D01*
X030600Y021836D01*
X030600Y022524D01*
X030536Y022678D01*
X030418Y022796D01*
X030264Y022860D01*
X030096Y022860D01*
X029942Y022796D01*
X029824Y022678D01*
X029760Y022524D01*
X029760Y021836D01*
X029815Y021702D01*
X029545Y021702D01*
X029600Y021836D01*
X029600Y022524D01*
X029536Y022678D01*
X029418Y022796D01*
X029264Y022860D01*
X029096Y022860D01*
X028942Y022796D01*
X028824Y022678D01*
X028760Y022524D01*
X028760Y022057D01*
X028600Y021897D01*
X028600Y022524D01*
X028536Y022678D01*
X028418Y022796D01*
X028264Y022860D01*
X028096Y022860D01*
X027942Y022796D01*
X027824Y022678D01*
X027760Y022524D01*
X027760Y021836D01*
X027824Y021682D01*
X027942Y021564D01*
X028096Y021500D01*
X028203Y021500D01*
X027843Y021140D01*
X026729Y021140D01*
X026646Y021224D01*
X026973Y021551D01*
X027096Y021500D01*
X027264Y021500D01*
X027418Y021564D01*
X027536Y021682D01*
X027600Y021836D01*
X027600Y022524D01*
X027536Y022678D01*
X027418Y022796D01*
X027264Y022860D01*
X027096Y022860D01*
X026942Y022796D01*
X026827Y022681D01*
X026827Y025076D01*
X026946Y025125D01*
X027048Y025226D01*
X027102Y025358D01*
X027102Y025493D01*
X028449Y026839D01*
X028577Y026839D01*
X028764Y026917D01*
X028908Y027060D01*
X028966Y027201D01*
X028984Y027146D01*
X029022Y027072D01*
X029071Y027004D01*
X029130Y026945D01*
X029197Y026896D01*
X029272Y026858D01*
X029351Y026832D01*
X029434Y026819D01*
X029457Y026819D01*
X029457Y027331D01*
X029494Y027331D01*
X029494Y027368D01*
X030005Y027368D01*
X030005Y027391D01*
X029992Y027473D01*
X029966Y027553D01*
X029929Y027627D01*
X029880Y027695D01*
X029821Y027754D01*
X029753Y027803D01*
X029679Y027840D01*
X029623Y027859D01*
X029764Y027917D01*
X029908Y028060D01*
X029985Y028248D01*
X029985Y028451D01*
X029908Y028638D01*
X029764Y028782D01*
X029577Y028859D01*
X029374Y028859D01*
X029276Y028819D01*
X028937Y029158D01*
X030941Y029158D01*
X030860Y029136D01*
X030545Y028954D01*
X030288Y028697D01*
X030106Y028382D01*
X030012Y028031D01*
X030012Y027668D01*
X030106Y027316D01*
X030288Y027002D01*
X030545Y026745D01*
X030860Y026563D01*
X031211Y026469D01*
X031574Y026469D01*
X031925Y026563D01*
X032240Y026745D01*
X032497Y027002D01*
X032679Y027316D01*
X032773Y027668D01*
X032773Y028031D01*
X032701Y028299D01*
X039157Y021844D01*
X039134Y021844D01*
X038939Y021763D01*
X038790Y021614D01*
X038709Y021419D01*
X038709Y021208D01*
X038790Y021014D01*
X038939Y020865D01*
X039134Y020784D01*
X039344Y020784D01*
X039539Y020865D01*
X039688Y021014D01*
X039769Y021208D01*
X039769Y021231D01*
X039845Y021156D01*
X039845Y010517D01*
X038314Y008986D01*
X038360Y009096D01*
X038360Y009264D01*
X038296Y009418D01*
X038255Y009458D01*
X038829Y010033D01*
X038892Y010033D01*
X039204Y010345D01*
X039327Y010468D01*
X039327Y012767D01*
X038484Y013610D01*
X038527Y013599D01*
X038833Y013599D01*
X039128Y013678D01*
X039392Y013831D01*
X039608Y014046D01*
X039761Y014311D01*
X039840Y014606D01*
X039840Y014911D01*
X039761Y015206D01*
X039608Y015471D01*
X039392Y015687D01*
X039128Y015840D01*
X038833Y015919D01*
X038527Y015919D01*
X038232Y015840D01*
X037968Y015687D01*
X037752Y015471D01*
X037702Y015386D01*
X037702Y017140D01*
X037763Y017079D01*
X037833Y017028D01*
X037910Y016989D01*
X037992Y016962D01*
X038078Y016949D01*
X038101Y016949D01*
X038101Y017479D01*
X038141Y017479D01*
X038141Y017519D01*
X038101Y017519D01*
X038101Y018049D01*
X038078Y018049D01*
X037992Y018035D01*
X037910Y018009D01*
X037833Y017969D01*
X037763Y017918D01*
X037702Y017858D01*
X037702Y018258D01*
X037821Y018140D01*
X038016Y018059D01*
X038226Y018059D01*
X038421Y018140D01*
X038570Y018289D01*
X038651Y018484D01*
X038651Y018695D01*
X038570Y018890D01*
X038421Y019039D01*
X038226Y019119D01*
X038016Y019119D01*
X037821Y019039D01*
X037702Y018921D01*
X037702Y018968D01*
X037923Y019188D01*
X038016Y019150D01*
X038226Y019150D01*
X038421Y019231D01*
X038570Y019380D01*
X038651Y019575D01*
X038651Y019785D01*
X038570Y019980D01*
X038421Y020129D01*
X038226Y020210D01*
X038016Y020210D01*
X037821Y020129D01*
X037672Y019980D01*
X037591Y019785D01*
X037591Y019575D01*
X037627Y019487D01*
X037283Y019142D01*
X037283Y014218D01*
X037406Y014095D01*
X038908Y012593D01*
X038908Y012046D01*
X038854Y012100D01*
X038506Y012100D01*
X038296Y011890D01*
X038244Y011890D01*
X038296Y011942D01*
X038360Y012096D01*
X038360Y012264D01*
X038296Y012418D01*
X038178Y012536D01*
X038024Y012600D01*
X037628Y012600D01*
X036327Y013900D01*
X036232Y013940D01*
X036014Y013940D01*
X035854Y014100D01*
X035506Y014100D01*
X035260Y013854D01*
X035260Y013506D01*
X035506Y013260D01*
X035854Y013260D01*
X036014Y013420D01*
X036072Y013420D01*
X037069Y012423D01*
X037064Y012418D01*
X037000Y012264D01*
X037000Y012096D01*
X037064Y011942D01*
X037182Y011824D01*
X037205Y011814D01*
X037158Y011767D01*
X036781Y011390D01*
X035308Y011390D01*
X035296Y011418D01*
X035178Y011536D01*
X035024Y011600D01*
X034397Y011600D01*
X034523Y011726D02*
X037117Y011726D01*
X037122Y011885D02*
X035238Y011885D01*
X035338Y012043D02*
X037022Y012043D01*
X037000Y012202D02*
X035360Y012202D01*
X035320Y012360D02*
X037040Y012360D01*
X036974Y012519D02*
X035195Y012519D01*
X034540Y012677D02*
X036815Y012677D01*
X036657Y012836D02*
X034531Y012836D01*
X034438Y012994D02*
X036498Y012994D01*
X036340Y013153D02*
X034390Y013153D01*
X034390Y013311D02*
X034427Y013311D01*
X034680Y013311D02*
X034680Y013311D01*
X034680Y013240D02*
X034680Y013680D01*
X034680Y013680D01*
X034680Y013240D01*
X034680Y013470D02*
X034680Y013470D01*
X034680Y013628D02*
X034680Y013628D01*
X034680Y013787D02*
X034680Y013787D01*
X034680Y013945D02*
X034680Y013945D01*
X034680Y014104D02*
X034680Y014104D01*
X034481Y014104D02*
X034390Y014104D01*
X034390Y014262D02*
X037283Y014262D01*
X037283Y014421D02*
X034390Y014421D01*
X034390Y014579D02*
X037283Y014579D01*
X037283Y014738D02*
X034390Y014738D01*
X034390Y014896D02*
X037283Y014896D01*
X037283Y015055D02*
X034390Y015055D01*
X034390Y015213D02*
X037283Y015213D01*
X037283Y015372D02*
X034390Y015372D01*
X034390Y015530D02*
X034976Y015530D01*
X034949Y015544D02*
X035011Y015512D01*
X035077Y015491D01*
X035145Y015480D01*
X035180Y015480D01*
X035215Y015480D01*
X035283Y015491D01*
X035349Y015512D01*
X035411Y015544D01*
X035467Y015584D01*
X035516Y015633D01*
X035556Y015689D01*
X035588Y015751D01*
X035609Y015817D01*
X035620Y015885D01*
X035620Y016180D01*
X035620Y016475D01*
X035609Y016543D01*
X035588Y016609D01*
X035556Y016671D01*
X035516Y016727D01*
X035467Y016776D01*
X035411Y016816D01*
X035349Y016848D01*
X035283Y016869D01*
X035215Y016880D01*
X035180Y016880D01*
X035180Y016180D01*
X035620Y016180D01*
X035180Y016180D01*
X035180Y016180D01*
X035180Y016180D01*
X035180Y015480D01*
X035180Y016180D01*
X035180Y016180D01*
X035180Y016180D01*
X034740Y016180D01*
X034740Y016475D01*
X034751Y016543D01*
X034772Y016609D01*
X034804Y016671D01*
X034844Y016727D01*
X034893Y016776D01*
X034949Y016816D01*
X035011Y016848D01*
X035077Y016869D01*
X035145Y016880D01*
X035180Y016880D01*
X035180Y016180D01*
X034740Y016180D01*
X034740Y015885D01*
X034751Y015817D01*
X034772Y015751D01*
X034804Y015689D01*
X034844Y015633D01*
X034893Y015584D01*
X034949Y015544D01*
X034804Y015689D02*
X034539Y015689D01*
X034600Y015847D02*
X034746Y015847D01*
X034740Y016006D02*
X034600Y016006D01*
X034600Y016164D02*
X034740Y016164D01*
X034740Y016323D02*
X034600Y016323D01*
X034600Y016481D02*
X034741Y016481D01*
X034788Y016640D02*
X034552Y016640D01*
X034413Y016798D02*
X034924Y016798D01*
X035180Y016798D02*
X035180Y016798D01*
X035180Y016640D02*
X035180Y016640D01*
X035180Y016481D02*
X035180Y016481D01*
X035180Y016323D02*
X035180Y016323D01*
X035180Y016164D02*
X035180Y016164D01*
X035180Y016006D02*
X035180Y016006D01*
X035180Y015847D02*
X035180Y015847D01*
X035180Y015689D02*
X035180Y015689D01*
X035180Y015530D02*
X035180Y015530D01*
X035384Y015530D02*
X037283Y015530D01*
X037283Y015689D02*
X035556Y015689D01*
X035614Y015847D02*
X037283Y015847D01*
X037283Y016006D02*
X035620Y016006D01*
X035620Y016164D02*
X037283Y016164D01*
X037283Y016323D02*
X035620Y016323D01*
X035619Y016481D02*
X037283Y016481D01*
X037283Y016640D02*
X035572Y016640D01*
X035436Y016798D02*
X037283Y016798D01*
X037283Y016957D02*
X032513Y016957D01*
X032354Y017115D02*
X037283Y017115D01*
X037283Y017274D02*
X032196Y017274D01*
X032037Y017432D02*
X037283Y017432D01*
X037283Y017591D02*
X031879Y017591D01*
X031720Y017749D02*
X037283Y017749D01*
X037283Y017908D02*
X031562Y017908D01*
X031403Y018066D02*
X037283Y018066D01*
X037283Y018225D02*
X031734Y018225D01*
X031837Y018383D02*
X037283Y018383D01*
X037283Y018542D02*
X031852Y018542D01*
X031997Y018700D02*
X037283Y018700D01*
X037283Y018859D02*
X032156Y018859D01*
X032314Y019017D02*
X037283Y019017D01*
X037316Y019176D02*
X032473Y019176D01*
X032631Y019334D02*
X037475Y019334D01*
X037625Y019493D02*
X032790Y019493D01*
X032948Y019651D02*
X037591Y019651D01*
X037601Y019810D02*
X033107Y019810D01*
X033265Y019968D02*
X037667Y019968D01*
X037818Y020127D02*
X033424Y020127D01*
X033582Y020285D02*
X037908Y020285D01*
X037821Y020321D02*
X038016Y020241D01*
X038226Y020241D01*
X038421Y020321D01*
X038570Y020470D01*
X038651Y020665D01*
X038651Y020876D01*
X038570Y021071D01*
X038421Y021220D01*
X038226Y021301D01*
X038016Y021301D01*
X037821Y021220D01*
X037672Y021071D01*
X037591Y020876D01*
X037591Y020665D01*
X037672Y020470D01*
X037821Y020321D01*
X037698Y020444D02*
X033741Y020444D01*
X033899Y020602D02*
X037617Y020602D01*
X037591Y020761D02*
X034058Y020761D01*
X034216Y020919D02*
X037609Y020919D01*
X037678Y021078D02*
X034375Y021078D01*
X034533Y021236D02*
X037860Y021236D01*
X037685Y021331D02*
X037591Y021425D01*
X037591Y022297D01*
X037685Y022391D01*
X038557Y022391D01*
X038651Y022297D01*
X038651Y021425D01*
X038557Y021331D01*
X037685Y021331D01*
X037621Y021395D02*
X034692Y021395D01*
X034850Y021553D02*
X034968Y021553D01*
X035392Y021553D02*
X037591Y021553D01*
X037591Y021712D02*
X035548Y021712D01*
X035600Y021870D02*
X037591Y021870D01*
X037591Y022029D02*
X035600Y022029D01*
X035600Y022187D02*
X037591Y022187D01*
X037639Y022346D02*
X035600Y022346D01*
X035600Y022504D02*
X038496Y022504D01*
X038603Y022346D02*
X038655Y022346D01*
X038651Y022187D02*
X038813Y022187D01*
X038972Y022029D02*
X038651Y022029D01*
X038651Y021870D02*
X039130Y021870D01*
X038887Y021712D02*
X038651Y021712D01*
X038651Y021553D02*
X038764Y021553D01*
X038709Y021395D02*
X038621Y021395D01*
X038709Y021236D02*
X038382Y021236D01*
X038563Y021078D02*
X038763Y021078D01*
X038884Y020919D02*
X038633Y020919D01*
X038651Y020761D02*
X039845Y020761D01*
X039845Y020919D02*
X039594Y020919D01*
X039715Y021078D02*
X039845Y021078D01*
X040265Y021078D02*
X041400Y021078D01*
X041400Y021236D02*
X040265Y021236D01*
X040200Y021395D02*
X041400Y021395D01*
X041400Y021553D02*
X040041Y021553D01*
X039883Y021712D02*
X041400Y021712D01*
X041400Y021870D02*
X039724Y021870D01*
X039566Y022029D02*
X041400Y022029D01*
X041400Y022187D02*
X039407Y022187D01*
X039249Y022346D02*
X041400Y022346D01*
X041400Y022504D02*
X039090Y022504D01*
X038932Y022663D02*
X041400Y022663D01*
X041400Y022821D02*
X038773Y022821D01*
X038615Y022980D02*
X041400Y022980D01*
X041400Y023138D02*
X038456Y023138D01*
X038298Y023297D02*
X041400Y023297D01*
X041400Y023455D02*
X038884Y023455D01*
X038833Y023441D02*
X039128Y023520D01*
X039392Y023673D01*
X039608Y023889D01*
X039761Y024154D01*
X039840Y024449D01*
X039840Y024754D01*
X039761Y025049D01*
X039608Y025314D01*
X039392Y025529D01*
X039128Y025682D01*
X038833Y025761D01*
X038527Y025761D01*
X038232Y025682D01*
X037968Y025529D01*
X037752Y025314D01*
X037599Y025049D01*
X037520Y024754D01*
X037520Y024449D01*
X037599Y024154D01*
X037752Y023889D01*
X037968Y023673D01*
X038232Y023520D01*
X038527Y023441D01*
X038833Y023441D01*
X038476Y023455D02*
X038139Y023455D01*
X038071Y023614D02*
X037981Y023614D01*
X037869Y023772D02*
X037822Y023772D01*
X037728Y023931D02*
X037664Y023931D01*
X037636Y024089D02*
X037505Y024089D01*
X037574Y024248D02*
X037347Y024248D01*
X037188Y024406D02*
X037531Y024406D01*
X037520Y024565D02*
X037030Y024565D01*
X036871Y024723D02*
X037520Y024723D01*
X037554Y024882D02*
X036713Y024882D01*
X036554Y025040D02*
X037597Y025040D01*
X037685Y025199D02*
X036396Y025199D01*
X036237Y025357D02*
X037795Y025357D01*
X037954Y025516D02*
X036079Y025516D01*
X035920Y025674D02*
X038218Y025674D01*
X039142Y025674D02*
X041400Y025674D01*
X041400Y025516D02*
X039406Y025516D01*
X039565Y025357D02*
X041400Y025357D01*
X041400Y025199D02*
X039675Y025199D01*
X039763Y025040D02*
X041400Y025040D01*
X041400Y024882D02*
X039806Y024882D01*
X039840Y024723D02*
X041400Y024723D01*
X041400Y024565D02*
X039840Y024565D01*
X039829Y024406D02*
X041400Y024406D01*
X041400Y024248D02*
X039786Y024248D01*
X039724Y024089D02*
X041400Y024089D01*
X041400Y023931D02*
X039632Y023931D01*
X039491Y023772D02*
X041400Y023772D01*
X041400Y023614D02*
X039289Y023614D01*
X038179Y022821D02*
X035358Y022821D01*
X035542Y022663D02*
X038338Y022663D01*
X038021Y022980D02*
X026827Y022980D01*
X026827Y023138D02*
X037862Y023138D01*
X037704Y023297D02*
X026827Y023297D01*
X026827Y023455D02*
X037545Y023455D01*
X037387Y023614D02*
X026827Y023614D01*
X026827Y023772D02*
X037228Y023772D01*
X037070Y023931D02*
X026827Y023931D01*
X026827Y024089D02*
X036911Y024089D01*
X036753Y024248D02*
X026827Y024248D01*
X026827Y024406D02*
X036594Y024406D01*
X036436Y024565D02*
X026827Y024565D01*
X026827Y024723D02*
X036277Y024723D01*
X036119Y024882D02*
X026827Y024882D01*
X026827Y025040D02*
X035960Y025040D01*
X035802Y025199D02*
X027020Y025199D01*
X027102Y025357D02*
X035643Y025357D01*
X035485Y025516D02*
X027125Y025516D01*
X027284Y025674D02*
X035326Y025674D01*
X035168Y025833D02*
X027442Y025833D01*
X027601Y025991D02*
X035009Y025991D01*
X034851Y026150D02*
X027759Y026150D01*
X027918Y026308D02*
X034692Y026308D01*
X034534Y026467D02*
X028076Y026467D01*
X028235Y026625D02*
X030752Y026625D01*
X030506Y026784D02*
X028393Y026784D01*
X028789Y026942D02*
X029134Y026942D01*
X029007Y027101D02*
X028924Y027101D01*
X029457Y027101D02*
X029494Y027101D01*
X029494Y027259D02*
X029457Y027259D01*
X029494Y027331D02*
X029494Y026819D01*
X029517Y026819D01*
X029599Y026832D01*
X029679Y026858D01*
X029753Y026896D01*
X029821Y026945D01*
X029880Y027004D01*
X029929Y027072D01*
X029966Y027146D01*
X029992Y027225D01*
X030005Y027308D01*
X030005Y027331D01*
X029494Y027331D01*
X029494Y026942D02*
X029457Y026942D01*
X029816Y026942D02*
X030348Y026942D01*
X030231Y027101D02*
X029943Y027101D01*
X029998Y027259D02*
X030139Y027259D01*
X030079Y027418D02*
X030001Y027418D01*
X030037Y027576D02*
X029955Y027576D01*
X030012Y027735D02*
X029840Y027735D01*
X029706Y027893D02*
X030012Y027893D01*
X030018Y028052D02*
X029899Y028052D01*
X029970Y028210D02*
X030060Y028210D01*
X030103Y028369D02*
X029985Y028369D01*
X029954Y028527D02*
X030190Y028527D01*
X030281Y028686D02*
X029860Y028686D01*
X029614Y028844D02*
X030435Y028844D01*
X030629Y029003D02*
X029092Y029003D01*
X029250Y028844D02*
X029337Y028844D01*
X032275Y029320D02*
X041400Y029320D01*
X041400Y029161D02*
X032433Y029161D01*
X032592Y029003D02*
X041400Y029003D01*
X041400Y028844D02*
X032750Y028844D01*
X032909Y028686D02*
X041400Y028686D01*
X041400Y028527D02*
X033067Y028527D01*
X033226Y028369D02*
X041400Y028369D01*
X041400Y028210D02*
X033384Y028210D01*
X033543Y028052D02*
X041400Y028052D01*
X041400Y027893D02*
X033701Y027893D01*
X033860Y027735D02*
X041400Y027735D01*
X041400Y027576D02*
X034018Y027576D01*
X034177Y027418D02*
X041400Y027418D01*
X041400Y027259D02*
X034335Y027259D01*
X034494Y027101D02*
X041400Y027101D01*
X041400Y026942D02*
X034652Y026942D01*
X034811Y026784D02*
X041400Y026784D01*
X041400Y026625D02*
X034969Y026625D01*
X035128Y026467D02*
X041400Y026467D01*
X041400Y026308D02*
X035286Y026308D01*
X035445Y026150D02*
X041400Y026150D01*
X041400Y025991D02*
X035603Y025991D01*
X035762Y025833D02*
X041400Y025833D01*
X035002Y022821D02*
X034358Y022821D01*
X034542Y022663D02*
X034818Y022663D01*
X034760Y022504D02*
X034600Y022504D01*
X034600Y022346D02*
X034760Y022346D01*
X034760Y022187D02*
X034600Y022187D01*
X034600Y022029D02*
X034732Y022029D01*
X034098Y021395D02*
X033692Y021395D01*
X033850Y021553D02*
X033968Y021553D01*
X033939Y021236D02*
X033533Y021236D01*
X033375Y021078D02*
X033781Y021078D01*
X033622Y020919D02*
X033216Y020919D01*
X033058Y020761D02*
X033464Y020761D01*
X033305Y020602D02*
X032899Y020602D01*
X032741Y020444D02*
X033147Y020444D01*
X032988Y020285D02*
X032582Y020285D01*
X032424Y020127D02*
X032830Y020127D01*
X032671Y019968D02*
X029501Y019968D01*
X029660Y019810D02*
X032513Y019810D01*
X032354Y019651D02*
X029818Y019651D01*
X029977Y019493D02*
X032196Y019493D01*
X032037Y019334D02*
X030135Y019334D01*
X030294Y019176D02*
X031879Y019176D01*
X031720Y019017D02*
X030452Y019017D01*
X030611Y018859D02*
X031562Y018859D01*
X031191Y018700D02*
X030769Y018700D01*
X030928Y018542D02*
X031133Y018542D01*
X031148Y018383D02*
X031086Y018383D01*
X031245Y018225D02*
X031251Y018225D01*
X032671Y016798D02*
X032947Y016798D01*
X033413Y016798D02*
X033947Y016798D01*
X033808Y016640D02*
X033552Y016640D01*
X033600Y016481D02*
X033760Y016481D01*
X033760Y016323D02*
X033600Y016323D01*
X033600Y016164D02*
X033760Y016164D01*
X033760Y016006D02*
X033600Y016006D01*
X033600Y015847D02*
X033760Y015847D01*
X033821Y015689D02*
X033539Y015689D01*
X033336Y015530D02*
X033970Y015530D01*
X033970Y015372D02*
X033327Y015372D01*
X033327Y015213D02*
X033970Y015213D01*
X033970Y015055D02*
X033327Y015055D01*
X033327Y014896D02*
X033970Y014896D01*
X033970Y014738D02*
X033327Y014738D01*
X033327Y014579D02*
X033970Y014579D01*
X033970Y014421D02*
X033327Y014421D01*
X033327Y014262D02*
X033970Y014262D01*
X033970Y014104D02*
X033327Y014104D01*
X033327Y013945D02*
X033970Y013945D01*
X033970Y013787D02*
X033327Y013787D01*
X033327Y013628D02*
X033970Y013628D01*
X033970Y013470D02*
X033327Y013470D01*
X033327Y013311D02*
X033970Y013311D01*
X033970Y013153D02*
X033327Y013153D01*
X033327Y012994D02*
X033922Y012994D01*
X033829Y012836D02*
X033327Y012836D01*
X033327Y012677D02*
X033820Y012677D01*
X033895Y012519D02*
X033327Y012519D01*
X033327Y012360D02*
X034040Y012360D01*
X034000Y012202D02*
X033327Y012202D01*
X033327Y012043D02*
X033449Y012043D01*
X033911Y012043D02*
X034022Y012043D01*
X035102Y011568D02*
X036958Y011568D01*
X036800Y011409D02*
X035300Y011409D01*
X037234Y012994D02*
X038506Y012994D01*
X038348Y013153D02*
X037075Y013153D01*
X036917Y013311D02*
X038189Y013311D01*
X038031Y013470D02*
X036758Y013470D01*
X036600Y013628D02*
X037872Y013628D01*
X037714Y013787D02*
X036441Y013787D01*
X036009Y013945D02*
X037555Y013945D01*
X037397Y014104D02*
X034879Y014104D01*
X035037Y013945D02*
X035351Y013945D01*
X035260Y013787D02*
X035120Y013787D01*
X035120Y013628D02*
X035260Y013628D01*
X035297Y013470D02*
X035092Y013470D01*
X034933Y013311D02*
X035455Y013311D01*
X035905Y013311D02*
X036181Y013311D01*
X037392Y012836D02*
X038665Y012836D01*
X038823Y012677D02*
X037551Y012677D01*
X038195Y012519D02*
X038908Y012519D01*
X038908Y012360D02*
X038320Y012360D01*
X038360Y012202D02*
X038908Y012202D01*
X039327Y012202D02*
X039845Y012202D01*
X039845Y012360D02*
X039327Y012360D01*
X039327Y012519D02*
X039845Y012519D01*
X039845Y012677D02*
X039327Y012677D01*
X039259Y012836D02*
X039845Y012836D01*
X039845Y012994D02*
X039100Y012994D01*
X038942Y013153D02*
X039845Y013153D01*
X039845Y013311D02*
X038783Y013311D01*
X038625Y013470D02*
X039845Y013470D01*
X039845Y013628D02*
X038942Y013628D01*
X039316Y013787D02*
X039845Y013787D01*
X039845Y013945D02*
X039507Y013945D01*
X039641Y014104D02*
X039845Y014104D01*
X039845Y014262D02*
X039733Y014262D01*
X039790Y014421D02*
X039845Y014421D01*
X039833Y014579D02*
X039845Y014579D01*
X039840Y014738D02*
X039845Y014738D01*
X039840Y014896D02*
X039845Y014896D01*
X039845Y015055D02*
X039802Y015055D01*
X039845Y015213D02*
X039757Y015213D01*
X039845Y015372D02*
X039666Y015372D01*
X039549Y015530D02*
X039845Y015530D01*
X039845Y015689D02*
X039390Y015689D01*
X039100Y015847D02*
X039845Y015847D01*
X039845Y016006D02*
X037702Y016006D01*
X037702Y016164D02*
X039845Y016164D01*
X039845Y016323D02*
X037702Y016323D01*
X037702Y016481D02*
X039845Y016481D01*
X039845Y016640D02*
X037702Y016640D01*
X037702Y016798D02*
X039845Y016798D01*
X039845Y016957D02*
X038212Y016957D01*
X038250Y016962D02*
X038332Y016989D01*
X038409Y017028D01*
X038479Y017079D01*
X038540Y017141D01*
X038591Y017211D01*
X038631Y017288D01*
X038657Y017370D01*
X038671Y017456D01*
X038671Y017479D01*
X038141Y017479D01*
X038141Y016949D01*
X038164Y016949D01*
X038250Y016962D01*
X038141Y016957D02*
X038101Y016957D01*
X038029Y016957D02*
X037702Y016957D01*
X037702Y017115D02*
X037727Y017115D01*
X038101Y017115D02*
X038141Y017115D01*
X038141Y017274D02*
X038101Y017274D01*
X038101Y017432D02*
X038141Y017432D01*
X038141Y017519D02*
X038671Y017519D01*
X038671Y017542D01*
X038657Y017628D01*
X038631Y017710D01*
X038591Y017787D01*
X038540Y017857D01*
X038479Y017918D01*
X038409Y017969D01*
X038332Y018009D01*
X038250Y018035D01*
X038164Y018049D01*
X038141Y018049D01*
X038141Y017519D01*
X038141Y017591D02*
X038101Y017591D01*
X038101Y017749D02*
X038141Y017749D01*
X038141Y017908D02*
X038101Y017908D01*
X038000Y018066D02*
X037702Y018066D01*
X037702Y017908D02*
X037752Y017908D01*
X038242Y018066D02*
X038709Y018066D01*
X038709Y018152D02*
X038709Y017941D01*
X038790Y017746D01*
X038939Y017597D01*
X039134Y017516D01*
X039344Y017516D01*
X039539Y017597D01*
X039688Y017746D01*
X039769Y017941D01*
X039769Y018152D01*
X039688Y018346D01*
X039539Y018495D01*
X039344Y018576D01*
X039134Y018576D01*
X038939Y018495D01*
X038790Y018346D01*
X038709Y018152D01*
X038739Y018225D02*
X038506Y018225D01*
X038609Y018383D02*
X038826Y018383D01*
X038651Y018542D02*
X039050Y018542D01*
X039134Y018607D02*
X039344Y018607D01*
X039539Y018687D01*
X039688Y018836D01*
X039769Y019031D01*
X039769Y019242D01*
X039688Y019437D01*
X039539Y019586D01*
X039344Y019667D01*
X039134Y019667D01*
X038939Y019586D01*
X038790Y019437D01*
X038709Y019242D01*
X038709Y019031D01*
X038790Y018836D01*
X038939Y018687D01*
X039134Y018607D01*
X038926Y018700D02*
X038649Y018700D01*
X038583Y018859D02*
X038781Y018859D01*
X038715Y019017D02*
X038443Y019017D01*
X038288Y019176D02*
X038709Y019176D01*
X038747Y019334D02*
X038525Y019334D01*
X038617Y019493D02*
X038845Y019493D01*
X038651Y019651D02*
X039096Y019651D01*
X039134Y019693D02*
X039344Y019693D01*
X039539Y019774D01*
X039688Y019923D01*
X039769Y020118D01*
X039769Y020329D01*
X039688Y020524D01*
X039539Y020673D01*
X039344Y020753D01*
X039134Y020753D01*
X038939Y020673D01*
X038790Y020524D01*
X038709Y020329D01*
X038709Y020118D01*
X038790Y019923D01*
X038939Y019774D01*
X039134Y019693D01*
X039382Y019651D02*
X039845Y019651D01*
X039845Y019493D02*
X039633Y019493D01*
X039731Y019334D02*
X039845Y019334D01*
X039845Y019176D02*
X039769Y019176D01*
X039763Y019017D02*
X039845Y019017D01*
X039845Y018859D02*
X039698Y018859D01*
X039552Y018700D02*
X039845Y018700D01*
X039845Y018542D02*
X039428Y018542D01*
X039652Y018383D02*
X039845Y018383D01*
X039845Y018225D02*
X039739Y018225D01*
X039769Y018066D02*
X039845Y018066D01*
X039845Y017908D02*
X039755Y017908D01*
X039690Y017749D02*
X039845Y017749D01*
X039845Y017591D02*
X039524Y017591D01*
X039845Y017432D02*
X038667Y017432D01*
X038663Y017591D02*
X038954Y017591D01*
X038788Y017749D02*
X038611Y017749D01*
X038723Y017908D02*
X038490Y017908D01*
X038623Y017274D02*
X039845Y017274D01*
X039845Y017115D02*
X038515Y017115D01*
X038260Y015847D02*
X037702Y015847D01*
X037702Y015689D02*
X037970Y015689D01*
X037811Y015530D02*
X037702Y015530D01*
X040265Y015530D02*
X041400Y015530D01*
X041400Y015372D02*
X040265Y015372D01*
X040265Y015213D02*
X041400Y015213D01*
X041400Y015055D02*
X040265Y015055D01*
X040265Y014896D02*
X041400Y014896D01*
X041400Y014738D02*
X040265Y014738D01*
X040265Y014579D02*
X041400Y014579D01*
X041400Y014421D02*
X040265Y014421D01*
X040265Y014262D02*
X041400Y014262D01*
X041400Y014104D02*
X040265Y014104D01*
X040265Y013945D02*
X041400Y013945D01*
X041400Y013787D02*
X040265Y013787D01*
X040265Y013628D02*
X041400Y013628D01*
X041400Y013470D02*
X040265Y013470D01*
X040265Y013311D02*
X041400Y013311D01*
X041400Y013153D02*
X040265Y013153D01*
X040265Y012994D02*
X041400Y012994D01*
X041400Y012836D02*
X040265Y012836D01*
X040265Y012677D02*
X041400Y012677D01*
X041400Y012519D02*
X040265Y012519D01*
X040265Y012360D02*
X041400Y012360D01*
X041400Y012202D02*
X040265Y012202D01*
X040265Y012043D02*
X041400Y012043D01*
X041400Y011885D02*
X040265Y011885D01*
X040265Y011726D02*
X041400Y011726D01*
X041400Y011568D02*
X040265Y011568D01*
X040265Y011409D02*
X041400Y011409D01*
X041400Y011251D02*
X040265Y011251D01*
X040265Y011092D02*
X041400Y011092D01*
X041400Y010934D02*
X040265Y010934D01*
X040265Y010775D02*
X041400Y010775D01*
X041400Y010617D02*
X040265Y010617D01*
X040265Y010458D02*
X041400Y010458D01*
X041400Y010300D02*
X040222Y010300D01*
X040063Y010141D02*
X041400Y010141D01*
X041400Y009983D02*
X039904Y009983D01*
X039746Y009824D02*
X041400Y009824D01*
X041400Y009666D02*
X039587Y009666D01*
X039429Y009507D02*
X041400Y009507D01*
X041400Y009349D02*
X039270Y009349D01*
X039112Y009190D02*
X041400Y009190D01*
X041400Y009032D02*
X038953Y009032D01*
X038795Y008873D02*
X041400Y008873D01*
X041400Y008715D02*
X038636Y008715D01*
X038478Y008556D02*
X041400Y008556D01*
X041400Y008398D02*
X038319Y008398D01*
X038360Y008239D02*
X041400Y008239D01*
X041400Y008081D02*
X038902Y008081D01*
X038862Y008120D02*
X038680Y008120D01*
X038680Y007680D01*
X038680Y007680D01*
X039120Y007680D01*
X039120Y007862D01*
X038862Y008120D01*
X038680Y008120D02*
X038498Y008120D01*
X038240Y007862D01*
X038240Y007680D01*
X038680Y007680D01*
X038680Y007680D01*
X038680Y007680D01*
X038680Y008120D01*
X038680Y008081D02*
X038680Y008081D01*
X038680Y007922D02*
X038680Y007922D01*
X038680Y007764D02*
X038680Y007764D01*
X038680Y007680D02*
X038240Y007680D01*
X038240Y007498D01*
X038498Y007240D01*
X038680Y007240D01*
X038862Y007240D01*
X039120Y007498D01*
X039120Y007680D01*
X038680Y007680D01*
X038680Y007240D01*
X038680Y007680D01*
X038680Y007680D01*
X038680Y007605D02*
X038680Y007605D01*
X038680Y007447D02*
X038680Y007447D01*
X038680Y007288D02*
X038680Y007288D01*
X038910Y007288D02*
X041400Y007288D01*
X041400Y007130D02*
X038360Y007130D01*
X038350Y007288D02*
X038450Y007288D01*
X038291Y007447D02*
X038267Y007447D01*
X038240Y007605D02*
X037364Y007605D01*
X037328Y007764D02*
X037206Y007764D01*
X037084Y007922D02*
X037047Y007922D01*
X037007Y008081D02*
X036889Y008081D01*
X037000Y008239D02*
X036730Y008239D01*
X036572Y008398D02*
X037055Y008398D01*
X037230Y008556D02*
X036413Y008556D01*
X036255Y008715D02*
X038043Y008715D01*
X038333Y009032D02*
X038360Y009032D01*
X038360Y009190D02*
X038518Y009190D01*
X038677Y009349D02*
X038325Y009349D01*
X038304Y009507D02*
X038835Y009507D01*
X038994Y009666D02*
X038462Y009666D01*
X038621Y009824D02*
X039152Y009824D01*
X039311Y009983D02*
X038779Y009983D01*
X039001Y010141D02*
X039469Y010141D01*
X039628Y010300D02*
X039159Y010300D01*
X039318Y010458D02*
X039786Y010458D01*
X039845Y010617D02*
X039327Y010617D01*
X039327Y010775D02*
X039845Y010775D01*
X039845Y010934D02*
X039327Y010934D01*
X039327Y011092D02*
X039845Y011092D01*
X039845Y011251D02*
X039327Y011251D01*
X039327Y011409D02*
X039845Y011409D01*
X039845Y011568D02*
X039327Y011568D01*
X039327Y011726D02*
X039845Y011726D01*
X039845Y011885D02*
X039327Y011885D01*
X039327Y012043D02*
X039845Y012043D01*
X038908Y011251D02*
X038374Y011251D01*
X038357Y011409D02*
X038317Y011409D01*
X038372Y011092D02*
X038470Y011092D01*
X038680Y011092D02*
X038680Y011092D01*
X038680Y010934D02*
X038680Y010934D01*
X038680Y010775D02*
X038680Y010775D01*
X038890Y011092D02*
X038908Y011092D01*
X038311Y010934D02*
X038305Y010934D01*
X038280Y010458D02*
X038256Y010458D01*
X038345Y010300D02*
X038438Y010300D01*
X037869Y009666D02*
X035304Y009666D01*
X035462Y009507D02*
X037153Y009507D01*
X037035Y009349D02*
X035621Y009349D01*
X035779Y009190D02*
X037000Y009190D01*
X037027Y009032D02*
X035938Y009032D01*
X036096Y008873D02*
X037133Y008873D01*
X038353Y008081D02*
X038458Y008081D01*
X038300Y007922D02*
X038276Y007922D01*
X038240Y007764D02*
X038032Y007764D01*
X039060Y007922D02*
X041400Y007922D01*
X041400Y007764D02*
X039120Y007764D01*
X039120Y007605D02*
X041400Y007605D01*
X041400Y007447D02*
X039069Y007447D01*
X038983Y006971D02*
X041400Y006971D01*
X041400Y006813D02*
X039100Y006813D01*
X039100Y006654D02*
X041400Y006654D01*
X041400Y006496D02*
X039089Y006496D01*
X038931Y006337D02*
X041400Y006337D01*
X041400Y006179D02*
X038380Y006179D01*
X038352Y006337D02*
X038429Y006337D01*
X038351Y006020D02*
X041400Y006020D01*
X041400Y005862D02*
X038244Y005862D01*
X037680Y005862D02*
X037680Y005862D01*
X037680Y006020D02*
X037680Y006020D01*
X037680Y006179D02*
X037680Y006179D01*
X036938Y006813D02*
X035150Y006813D01*
X034680Y005545D02*
X034680Y005545D01*
X034680Y005386D02*
X034680Y005386D01*
X034680Y005228D02*
X034680Y005228D01*
X034680Y005180D02*
X033980Y005180D01*
X033980Y005145D01*
X033991Y005077D01*
X034012Y005011D01*
X034044Y004949D01*
X034084Y004893D01*
X034133Y004844D01*
X034189Y004804D01*
X034251Y004772D01*
X034317Y004751D01*
X034385Y004740D01*
X034680Y004740D01*
X034680Y005180D01*
X034680Y005069D02*
X034680Y005069D01*
X034680Y004911D02*
X034680Y004911D01*
X034680Y004752D02*
X034680Y004752D01*
X035047Y004752D02*
X041400Y004752D01*
X038377Y006971D02*
X038308Y006971D01*
X034313Y004752D02*
X032327Y004752D01*
X032327Y004911D02*
X034072Y004911D01*
X033993Y005069D02*
X032327Y005069D01*
X032327Y005228D02*
X033982Y005228D01*
X034031Y005386D02*
X032327Y005386D01*
X032237Y005545D02*
X034173Y005545D01*
X031908Y004729D02*
X031908Y004680D01*
X031102Y004680D01*
X031204Y004783D01*
X031302Y004880D01*
X031481Y004700D01*
X031660Y004700D01*
X031660Y005160D01*
X031700Y005160D01*
X031700Y004700D01*
X031879Y004700D01*
X031908Y004729D01*
X031700Y004752D02*
X031660Y004752D01*
X031660Y004911D02*
X031700Y004911D01*
X031700Y005069D02*
X031660Y005069D01*
X031429Y004752D02*
X031174Y004752D01*
X031327Y005545D02*
X031366Y005545D01*
X031327Y005703D02*
X031485Y005703D01*
X031348Y005862D02*
X031295Y005862D01*
X031220Y006020D02*
X031140Y006020D01*
X031140Y006179D02*
X031220Y006179D01*
X031220Y006337D02*
X031140Y006337D01*
X031015Y006496D02*
X031345Y006496D01*
X022908Y004729D02*
X022908Y004680D01*
X022327Y004680D01*
X022327Y004854D01*
X022481Y004700D01*
X022660Y004700D01*
X022660Y005160D01*
X022700Y005160D01*
X022700Y004700D01*
X022879Y004700D01*
X022908Y004729D01*
X022700Y004752D02*
X022660Y004752D01*
X022660Y004911D02*
X022700Y004911D01*
X022700Y005069D02*
X022660Y005069D01*
X022429Y004752D02*
X022327Y004752D01*
X013039Y011024D02*
X012620Y010604D01*
X012620Y010680D01*
X012620Y010862D01*
X012362Y011120D01*
X012180Y011120D01*
X012180Y010680D01*
X012180Y010680D01*
X012620Y010680D01*
X012180Y010680D01*
X012180Y010680D01*
X012180Y010240D01*
X012256Y010240D01*
X010866Y008850D01*
X010833Y008929D01*
X010709Y009053D01*
X010548Y009120D01*
X009812Y009120D01*
X009651Y009053D01*
X009527Y008929D01*
X009460Y008768D01*
X009460Y008592D01*
X009527Y008431D01*
X009651Y008307D01*
X009812Y008240D01*
X010548Y008240D01*
X010709Y008307D01*
X010720Y008318D01*
X010720Y006640D01*
X010489Y006640D01*
X010220Y006371D01*
X010220Y006017D01*
X010033Y005829D01*
X010033Y005478D01*
X009871Y005640D01*
X009489Y005640D01*
X009452Y005603D01*
X009452Y005656D01*
X009517Y005720D01*
X009871Y005720D01*
X010140Y005989D01*
X010140Y006371D01*
X009871Y006640D01*
X009489Y006640D01*
X009220Y006371D01*
X009220Y006017D01*
X009033Y005829D01*
X009033Y005478D01*
X008871Y005640D01*
X008489Y005640D01*
X008452Y005603D01*
X008452Y005656D01*
X008517Y005720D01*
X008871Y005720D01*
X009140Y005989D01*
X009140Y006371D01*
X008890Y006621D01*
X008890Y007017D01*
X008767Y007140D01*
X008165Y007742D01*
X008165Y007877D01*
X008110Y008009D01*
X008009Y008110D01*
X007877Y008165D01*
X007733Y008165D01*
X007601Y008110D01*
X007500Y008009D01*
X007445Y007877D01*
X007445Y007733D01*
X007500Y007601D01*
X007601Y007500D01*
X007733Y007445D01*
X007868Y007445D01*
X008470Y006843D01*
X008470Y006621D01*
X008220Y006371D01*
X008220Y006017D01*
X008033Y005829D01*
X008033Y005478D01*
X007871Y005640D01*
X007489Y005640D01*
X007452Y005603D01*
X007452Y005656D01*
X007517Y005720D01*
X007871Y005720D01*
X008140Y005989D01*
X008140Y006371D01*
X007871Y006640D01*
X007489Y006640D01*
X007220Y006371D01*
X007220Y006017D01*
X007033Y005829D01*
X007033Y005478D01*
X006871Y005640D01*
X006489Y005640D01*
X006452Y005603D01*
X006452Y005656D01*
X006517Y005720D01*
X006871Y005720D01*
X007140Y005989D01*
X007140Y006371D01*
X006871Y006640D01*
X006489Y006640D01*
X006220Y006371D01*
X006220Y006017D01*
X006033Y005829D01*
X006033Y005478D01*
X005871Y005640D01*
X005489Y005640D01*
X005452Y005603D01*
X005452Y005656D01*
X005517Y005720D01*
X005871Y005720D01*
X006140Y005989D01*
X006140Y006371D01*
X005935Y006576D01*
X008732Y009372D01*
X008858Y009320D01*
X009002Y009320D01*
X009134Y009375D01*
X009235Y009476D01*
X009290Y009608D01*
X009290Y009752D01*
X009235Y009884D01*
X009212Y009908D01*
X009518Y009908D01*
X009460Y009768D01*
X009460Y009592D01*
X009527Y009431D01*
X009651Y009307D01*
X009812Y009240D01*
X010548Y009240D01*
X010709Y009307D01*
X010833Y009431D01*
X010895Y009581D01*
X010921Y009570D01*
X011064Y009570D01*
X011196Y009625D01*
X011298Y009726D01*
X011352Y009858D01*
X011352Y010002D01*
X011298Y010134D01*
X011196Y010235D01*
X011064Y010290D01*
X010921Y010290D01*
X010794Y010238D01*
X010704Y010327D01*
X008781Y010327D01*
X008702Y010249D01*
X008702Y011881D01*
X008798Y011976D01*
X008852Y012108D01*
X008852Y012252D01*
X008798Y012384D01*
X008696Y012485D01*
X008564Y012540D01*
X008421Y012540D01*
X008322Y012499D01*
X007962Y012860D01*
X007700Y012860D01*
X007700Y012200D01*
X007660Y012200D01*
X007660Y012860D01*
X007398Y012860D01*
X007110Y012572D01*
X007071Y012610D01*
X006939Y012665D01*
X006796Y012665D01*
X006664Y012610D01*
X006618Y012564D01*
X006571Y012610D01*
X006439Y012665D01*
X006296Y012665D01*
X006164Y012610D01*
X006062Y012509D01*
X006008Y012377D01*
X006008Y012233D01*
X006062Y012101D01*
X006158Y012006D01*
X006158Y011602D01*
X006046Y011602D01*
X005914Y011548D01*
X005812Y011446D01*
X005758Y011314D01*
X005758Y011179D01*
X004743Y010165D01*
X004608Y010165D01*
X004476Y010110D01*
X004375Y010009D01*
X004347Y009943D01*
X001440Y012850D01*
X001440Y017298D01*
X001498Y017240D01*
X001680Y017240D01*
X001862Y017240D01*
X002120Y017498D01*
X002120Y017680D01*
X002120Y017862D01*
X001862Y018120D01*
X001848Y018120D01*
X001877Y018191D01*
X001877Y018284D01*
X002014Y018420D01*
X002640Y018420D01*
X002640Y018194D01*
X002734Y018100D01*
X003126Y018100D01*
X003166Y018140D01*
X003189Y018116D01*
X003231Y018092D01*
X003276Y018080D01*
X003430Y018080D01*
X003584Y018080D01*
X003629Y018092D01*
X003671Y018116D01*
X003694Y018140D01*
X003734Y018100D01*
X004126Y018100D01*
X004180Y018154D01*
X004234Y018100D01*
X004626Y018100D01*
X004680Y018154D01*
X004734Y018100D01*
X005126Y018100D01*
X005180Y018154D01*
X005234Y018100D01*
X005626Y018100D01*
X005680Y018154D01*
X005734Y018100D01*
X006126Y018100D01*
X006180Y018154D01*
X006234Y018100D01*
X006626Y018100D01*
X006680Y018154D01*
X006734Y018100D01*
X007126Y018100D01*
X007180Y018154D01*
X007234Y018100D01*
X007303Y018100D01*
X007220Y018017D01*
X006783Y017579D01*
X006783Y016579D01*
X005463Y015260D01*
X005249Y015260D01*
X005290Y015358D01*
X005290Y015502D01*
X005235Y015634D01*
X005134Y015735D01*
X005002Y015790D01*
X004858Y015790D01*
X004726Y015735D01*
X004625Y015634D01*
X004570Y015502D01*
X004570Y015358D01*
X004611Y015260D01*
X004249Y015260D01*
X004290Y015358D01*
X004290Y015502D01*
X004235Y015634D01*
X004134Y015735D01*
X004002Y015790D01*
X003858Y015790D01*
X003726Y015735D01*
X003680Y015689D01*
X003634Y015735D01*
X003502Y015790D01*
X003358Y015790D01*
X003226Y015735D01*
X003125Y015634D01*
X003070Y015502D01*
X003070Y015358D01*
X003111Y015260D01*
X002734Y015260D01*
X002640Y015166D01*
X002640Y014234D01*
X002734Y014140D01*
X003126Y014140D01*
X003180Y014194D01*
X003234Y014140D01*
X003626Y014140D01*
X003680Y014194D01*
X003734Y014140D01*
X004101Y014140D01*
X004070Y014064D01*
X004070Y013921D01*
X004125Y013789D01*
X004226Y013687D01*
X004358Y013633D01*
X004502Y013633D01*
X004634Y013687D01*
X004735Y013789D01*
X004790Y013921D01*
X004790Y014064D01*
X004759Y014140D01*
X005126Y014140D01*
X005180Y014194D01*
X005234Y014140D01*
X005626Y014140D01*
X005680Y014194D01*
X005734Y014140D01*
X006126Y014140D01*
X006180Y014194D01*
X006234Y014140D01*
X006626Y014140D01*
X006680Y014194D01*
X006734Y014140D01*
X007126Y014140D01*
X007180Y014194D01*
X007234Y014140D01*
X007626Y014140D01*
X007680Y014194D01*
X007734Y014140D01*
X008126Y014140D01*
X008166Y014180D01*
X008189Y014156D01*
X008231Y014132D01*
X008276Y014120D01*
X008430Y014120D01*
X008584Y014120D01*
X008629Y014132D01*
X008671Y014156D01*
X008704Y014189D01*
X008728Y014231D01*
X008740Y014276D01*
X008740Y014700D01*
X008740Y015124D01*
X008728Y015169D01*
X008704Y015211D01*
X008692Y015222D01*
X008759Y015250D01*
X008860Y015351D01*
X008915Y015483D01*
X008915Y015627D01*
X008860Y015759D01*
X008759Y015860D01*
X008627Y015915D01*
X008483Y015915D01*
X008351Y015860D01*
X008305Y015814D01*
X008259Y015860D01*
X008127Y015915D01*
X007983Y015915D01*
X007851Y015860D01*
X007805Y015814D01*
X007759Y015860D01*
X007687Y015890D01*
X008579Y016783D01*
X009193Y016783D01*
X009289Y016687D01*
X009421Y016633D01*
X009564Y016633D01*
X009696Y016687D01*
X009798Y016789D01*
X009852Y016921D01*
X009852Y017064D01*
X009798Y017196D01*
X009696Y017298D01*
X009582Y017345D01*
X012423Y017345D01*
X012156Y017077D01*
X011968Y017077D01*
X009093Y014202D01*
X008970Y014079D01*
X008970Y011229D01*
X008937Y011196D01*
X008883Y011064D01*
X008883Y010921D01*
X008937Y010789D01*
X009039Y010687D01*
X009171Y010633D01*
X009314Y010633D01*
X009446Y010687D01*
X009548Y010789D01*
X009602Y010921D01*
X009602Y011064D01*
X009548Y011196D01*
X009446Y011298D01*
X009390Y011321D01*
X009390Y012046D01*
X009483Y012008D01*
X009627Y012008D01*
X009759Y012062D01*
X009854Y012158D01*
X012815Y012158D01*
X012760Y012024D01*
X012760Y011940D01*
X012514Y011940D01*
X012354Y012100D01*
X012006Y012100D01*
X011760Y011854D01*
X011760Y011506D01*
X012006Y011260D01*
X012354Y011260D01*
X012514Y011420D01*
X012760Y011420D01*
X012760Y011336D01*
X012824Y011182D01*
X012942Y011064D01*
X013039Y011024D01*
X012949Y010934D02*
X012549Y010934D01*
X012620Y010775D02*
X012791Y010775D01*
X012632Y010617D02*
X012620Y010617D01*
X012180Y010617D02*
X012180Y010617D01*
X012180Y010680D02*
X012180Y010680D01*
X012180Y010680D01*
X011740Y010680D01*
X011740Y010862D01*
X011998Y011120D01*
X012180Y011120D01*
X012180Y010680D01*
X012180Y010240D01*
X011998Y010240D01*
X011740Y010498D01*
X011740Y010680D01*
X012180Y010680D01*
X012180Y010775D02*
X012180Y010775D01*
X012180Y010934D02*
X012180Y010934D01*
X012180Y011092D02*
X012180Y011092D01*
X012390Y011092D02*
X012914Y011092D01*
X012796Y011251D02*
X009494Y011251D01*
X009591Y011092D02*
X011970Y011092D01*
X011811Y010934D02*
X009602Y010934D01*
X009534Y010775D02*
X011740Y010775D01*
X011740Y010617D02*
X008702Y010617D01*
X008702Y010775D02*
X008951Y010775D01*
X008883Y010934D02*
X008702Y010934D01*
X008702Y011092D02*
X008894Y011092D01*
X008970Y011251D02*
X008702Y011251D01*
X008702Y011409D02*
X008970Y011409D01*
X008970Y011568D02*
X008702Y011568D01*
X008702Y011726D02*
X008970Y011726D01*
X008970Y011885D02*
X008706Y011885D01*
X008825Y012043D02*
X008970Y012043D01*
X008970Y012202D02*
X008852Y012202D01*
X008808Y012360D02*
X008970Y012360D01*
X008970Y012519D02*
X008616Y012519D01*
X008369Y012519D02*
X008303Y012519D01*
X008145Y012677D02*
X008970Y012677D01*
X008970Y012836D02*
X007986Y012836D01*
X007700Y012836D02*
X007660Y012836D01*
X007660Y012677D02*
X007700Y012677D01*
X007700Y012519D02*
X007660Y012519D01*
X007660Y012360D02*
X007700Y012360D01*
X007700Y012202D02*
X007660Y012202D01*
X007660Y012160D02*
X007700Y012160D01*
X007700Y011500D01*
X007962Y011500D01*
X008283Y011821D01*
X008283Y010450D01*
X008240Y010554D01*
X008054Y010740D01*
X007811Y010840D01*
X007549Y010840D01*
X007306Y010740D01*
X007120Y010554D01*
X007077Y010450D01*
X007077Y011821D01*
X007398Y011500D01*
X007660Y011500D01*
X007660Y012160D01*
X007660Y012043D02*
X007700Y012043D01*
X007700Y011885D02*
X007660Y011885D01*
X007660Y011726D02*
X007700Y011726D01*
X007700Y011568D02*
X007660Y011568D01*
X007331Y011568D02*
X007077Y011568D01*
X007077Y011726D02*
X007172Y011726D01*
X007077Y011409D02*
X008283Y011409D01*
X008283Y011251D02*
X007077Y011251D01*
X007077Y011092D02*
X008283Y011092D01*
X008283Y010934D02*
X007077Y010934D01*
X007077Y010775D02*
X007392Y010775D01*
X007183Y010617D02*
X007077Y010617D01*
X007077Y010458D02*
X007081Y010458D01*
X007968Y010775D02*
X008283Y010775D01*
X008283Y010617D02*
X008177Y010617D01*
X008279Y010458D02*
X008283Y010458D01*
X008702Y010458D02*
X011780Y010458D01*
X011938Y010300D02*
X010732Y010300D01*
X011291Y010141D02*
X012157Y010141D01*
X012180Y010300D02*
X012180Y010300D01*
X012180Y010458D02*
X012180Y010458D01*
X011998Y009983D02*
X011352Y009983D01*
X011338Y009824D02*
X011840Y009824D01*
X011681Y009666D02*
X011237Y009666D01*
X011523Y009507D02*
X010865Y009507D01*
X010751Y009349D02*
X011364Y009349D01*
X011206Y009190D02*
X008549Y009190D01*
X008391Y009032D02*
X009629Y009032D01*
X009504Y008873D02*
X008232Y008873D01*
X008074Y008715D02*
X009460Y008715D01*
X009475Y008556D02*
X007915Y008556D01*
X007757Y008398D02*
X009560Y008398D01*
X010720Y008239D02*
X007598Y008239D01*
X007571Y008081D02*
X007440Y008081D01*
X007464Y007922D02*
X007281Y007922D01*
X007123Y007764D02*
X007445Y007764D01*
X007498Y007605D02*
X006964Y007605D01*
X006806Y007447D02*
X007730Y007447D01*
X008025Y007288D02*
X006647Y007288D01*
X006489Y007130D02*
X008184Y007130D01*
X008342Y006971D02*
X006330Y006971D01*
X006172Y006813D02*
X008470Y006813D01*
X008470Y006654D02*
X006013Y006654D01*
X006015Y006496D02*
X006345Y006496D01*
X006220Y006337D02*
X006140Y006337D01*
X006140Y006179D02*
X006220Y006179D01*
X006220Y006020D02*
X006140Y006020D01*
X006065Y005862D02*
X006012Y005862D01*
X006033Y005703D02*
X005500Y005703D01*
X005966Y005545D02*
X006033Y005545D01*
X006500Y005703D02*
X007033Y005703D01*
X007033Y005545D02*
X006966Y005545D01*
X007012Y005862D02*
X007065Y005862D01*
X007140Y006020D02*
X007220Y006020D01*
X007220Y006179D02*
X007140Y006179D01*
X007140Y006337D02*
X007220Y006337D01*
X007345Y006496D02*
X007015Y006496D01*
X007500Y005703D02*
X008033Y005703D01*
X008033Y005545D02*
X007966Y005545D01*
X008012Y005862D02*
X008065Y005862D01*
X008140Y006020D02*
X008220Y006020D01*
X008220Y006179D02*
X008140Y006179D01*
X008140Y006337D02*
X008220Y006337D01*
X008345Y006496D02*
X008015Y006496D01*
X008890Y006654D02*
X010720Y006654D01*
X010720Y006813D02*
X008890Y006813D01*
X008890Y006971D02*
X010720Y006971D01*
X010720Y007130D02*
X008777Y007130D01*
X008619Y007288D02*
X010720Y007288D01*
X010720Y007447D02*
X008460Y007447D01*
X008302Y007605D02*
X010720Y007605D01*
X010720Y007764D02*
X008165Y007764D01*
X008146Y007922D02*
X010720Y007922D01*
X010720Y008081D02*
X008039Y008081D01*
X007014Y008873D02*
X003784Y008873D01*
X003942Y008715D02*
X006855Y008715D01*
X006697Y008556D02*
X004101Y008556D01*
X004259Y008398D02*
X006538Y008398D01*
X006380Y008239D02*
X004418Y008239D01*
X004576Y008081D02*
X006221Y008081D01*
X006063Y007922D02*
X004735Y007922D01*
X004893Y007764D02*
X005904Y007764D01*
X005746Y007605D02*
X005052Y007605D01*
X005054Y007602D02*
X003100Y009557D01*
X003100Y009854D01*
X002854Y010100D01*
X002506Y010100D01*
X002334Y009928D01*
X002333Y009929D01*
X002209Y010053D01*
X002048Y010120D01*
X001312Y010120D01*
X001151Y010053D01*
X001027Y009929D01*
X001010Y009888D01*
X001010Y010434D01*
X001049Y010380D01*
X001100Y010329D01*
X001159Y010287D01*
X001223Y010254D01*
X001292Y010231D01*
X001364Y010220D01*
X001670Y010220D01*
X001670Y010670D01*
X001690Y010670D01*
X001690Y010690D01*
X001670Y010690D01*
X001670Y011140D01*
X001364Y011140D01*
X001292Y011129D01*
X001223Y011106D01*
X001159Y011073D01*
X001100Y011031D01*
X001049Y010980D01*
X001010Y010926D01*
X001010Y012545D01*
X004335Y009220D01*
X004408Y009147D01*
X004503Y009108D01*
X005419Y009108D01*
X005515Y009147D01*
X005628Y009260D01*
X005854Y009260D01*
X006014Y009420D01*
X007232Y009420D01*
X007327Y009460D01*
X007435Y009567D01*
X007549Y009520D01*
X007661Y009520D01*
X005471Y007330D01*
X005423Y007446D01*
X005321Y007548D01*
X005189Y007602D01*
X005054Y007602D01*
X005423Y007447D02*
X005587Y007447D01*
X005030Y006889D02*
X004968Y006827D01*
X004031Y006827D01*
X003843Y006640D01*
X003489Y006640D01*
X003220Y006371D01*
X003220Y006017D01*
X003033Y005829D01*
X003033Y005478D01*
X002871Y005640D01*
X002489Y005640D01*
X002452Y005603D01*
X002452Y005656D01*
X002517Y005720D01*
X002871Y005720D01*
X003140Y005989D01*
X003140Y006371D01*
X002871Y006640D01*
X002489Y006640D01*
X002220Y006371D01*
X002220Y006017D01*
X002033Y005829D01*
X002033Y005506D01*
X001879Y005660D01*
X001700Y005660D01*
X001700Y005200D01*
X001660Y005200D01*
X001660Y005660D01*
X001481Y005660D01*
X001452Y005631D01*
X001452Y005656D01*
X001517Y005720D01*
X001871Y005720D01*
X002140Y005989D01*
X002140Y006371D01*
X001871Y006640D01*
X001489Y006640D01*
X001220Y006371D01*
X001220Y006017D01*
X001033Y005829D01*
X001033Y004906D01*
X001156Y004783D01*
X001258Y004680D01*
X001010Y004680D01*
X001010Y009472D01*
X001027Y009431D01*
X001151Y009307D01*
X001312Y009240D01*
X002048Y009240D01*
X002209Y009307D01*
X002333Y009431D01*
X002334Y009432D01*
X002506Y009260D01*
X002803Y009260D01*
X004758Y007306D01*
X004758Y007171D01*
X004812Y007039D01*
X004914Y006937D01*
X005030Y006889D01*
X004880Y006971D02*
X001010Y006971D01*
X001010Y006813D02*
X004016Y006813D01*
X003857Y006654D02*
X001010Y006654D01*
X001010Y006496D02*
X001345Y006496D01*
X001220Y006337D02*
X001010Y006337D01*
X001010Y006179D02*
X001220Y006179D01*
X001220Y006020D02*
X001010Y006020D01*
X001010Y005862D02*
X001065Y005862D01*
X001033Y005703D02*
X001010Y005703D01*
X001010Y005545D02*
X001033Y005545D01*
X001033Y005386D02*
X001010Y005386D01*
X001010Y005228D02*
X001033Y005228D01*
X001033Y005069D02*
X001010Y005069D01*
X001010Y004911D02*
X001033Y004911D01*
X001010Y004752D02*
X001186Y004752D01*
X001660Y005228D02*
X001700Y005228D01*
X001700Y005386D02*
X001660Y005386D01*
X001660Y005545D02*
X001700Y005545D01*
X001500Y005703D02*
X002033Y005703D01*
X002033Y005545D02*
X001994Y005545D01*
X002012Y005862D02*
X002065Y005862D01*
X002140Y006020D02*
X002220Y006020D01*
X002220Y006179D02*
X002140Y006179D01*
X002140Y006337D02*
X002220Y006337D01*
X002345Y006496D02*
X002015Y006496D01*
X002500Y005703D02*
X003033Y005703D01*
X003033Y005545D02*
X002966Y005545D01*
X003012Y005862D02*
X003065Y005862D01*
X003140Y006020D02*
X003220Y006020D01*
X003220Y006179D02*
X003140Y006179D01*
X003140Y006337D02*
X003220Y006337D01*
X003345Y006496D02*
X003015Y006496D01*
X004300Y007764D02*
X001010Y007764D01*
X001010Y007922D02*
X004141Y007922D01*
X003983Y008081D02*
X001010Y008081D01*
X001010Y008239D02*
X003824Y008239D01*
X003666Y008398D02*
X001010Y008398D01*
X001010Y008556D02*
X003507Y008556D01*
X003349Y008715D02*
X001010Y008715D01*
X001010Y008873D02*
X003190Y008873D01*
X003031Y009032D02*
X001010Y009032D01*
X001010Y009190D02*
X002873Y009190D01*
X003150Y009507D02*
X004048Y009507D01*
X004206Y009349D02*
X003308Y009349D01*
X003467Y009190D02*
X004365Y009190D01*
X003625Y009032D02*
X007172Y009032D01*
X007331Y009190D02*
X005558Y009190D01*
X005942Y009349D02*
X007489Y009349D01*
X007375Y009507D02*
X007648Y009507D01*
X008708Y009349D02*
X008790Y009349D01*
X009070Y009349D02*
X009609Y009349D01*
X009495Y009507D02*
X009248Y009507D01*
X009290Y009666D02*
X009460Y009666D01*
X009483Y009824D02*
X009260Y009824D01*
X008753Y010300D02*
X008702Y010300D01*
X009390Y011409D02*
X011857Y011409D01*
X011760Y011568D02*
X009390Y011568D01*
X009390Y011726D02*
X011760Y011726D01*
X011791Y011885D02*
X009390Y011885D01*
X009390Y012043D02*
X009398Y012043D01*
X009712Y012043D02*
X011949Y012043D01*
X012411Y012043D02*
X012768Y012043D01*
X012760Y011409D02*
X012503Y011409D01*
X011047Y009032D02*
X010731Y009032D01*
X010856Y008873D02*
X010889Y008873D01*
X010345Y006496D02*
X010015Y006496D01*
X010140Y006337D02*
X010220Y006337D01*
X010220Y006179D02*
X010140Y006179D01*
X010140Y006020D02*
X010220Y006020D01*
X010065Y005862D02*
X010012Y005862D01*
X010033Y005703D02*
X009500Y005703D01*
X009220Y006020D02*
X009140Y006020D01*
X009140Y006179D02*
X009220Y006179D01*
X009220Y006337D02*
X009140Y006337D01*
X009015Y006496D02*
X009345Y006496D01*
X009065Y005862D02*
X009012Y005862D01*
X009033Y005703D02*
X008500Y005703D01*
X008966Y005545D02*
X009033Y005545D01*
X009966Y005545D02*
X010033Y005545D01*
X004775Y007130D02*
X001010Y007130D01*
X001010Y007288D02*
X004758Y007288D01*
X004617Y007447D02*
X001010Y007447D01*
X001010Y007605D02*
X004458Y007605D01*
X002418Y009349D02*
X002251Y009349D01*
X002280Y009983D02*
X002389Y009983D01*
X002201Y010287D02*
X002260Y010329D01*
X002311Y010380D01*
X002353Y010439D01*
X002386Y010503D01*
X002409Y010572D01*
X002420Y010644D01*
X002420Y010670D01*
X001690Y010670D01*
X001690Y010220D01*
X001996Y010220D01*
X002068Y010231D01*
X002137Y010254D01*
X002201Y010287D01*
X002219Y010300D02*
X003255Y010300D01*
X003097Y010458D02*
X002363Y010458D01*
X002416Y010617D02*
X002938Y010617D01*
X002780Y010775D02*
X002411Y010775D01*
X002409Y010788D02*
X002386Y010857D01*
X002353Y010921D01*
X002311Y010980D01*
X002260Y011031D01*
X002201Y011073D01*
X002137Y011106D01*
X002068Y011129D01*
X001996Y011140D01*
X001690Y011140D01*
X001690Y010690D01*
X002420Y010690D01*
X002420Y010716D01*
X002409Y010788D01*
X002344Y010934D02*
X002621Y010934D01*
X002463Y011092D02*
X002165Y011092D01*
X002304Y011251D02*
X001010Y011251D01*
X001010Y011409D02*
X002146Y011409D01*
X001987Y011568D02*
X001010Y011568D01*
X001010Y011726D02*
X001829Y011726D01*
X001670Y011885D02*
X001010Y011885D01*
X001010Y012043D02*
X001512Y012043D01*
X001353Y012202D02*
X001010Y012202D01*
X001010Y012360D02*
X001195Y012360D01*
X001036Y012519D02*
X001010Y012519D01*
X001455Y012836D02*
X007374Y012836D01*
X007215Y012677D02*
X001613Y012677D01*
X001772Y012519D02*
X006072Y012519D01*
X006008Y012360D02*
X001930Y012360D01*
X002089Y012202D02*
X006021Y012202D01*
X006120Y012043D02*
X002247Y012043D01*
X002406Y011885D02*
X006158Y011885D01*
X006158Y011726D02*
X002564Y011726D01*
X002723Y011568D02*
X005961Y011568D01*
X005797Y011409D02*
X002881Y011409D01*
X003040Y011251D02*
X005758Y011251D01*
X005670Y011092D02*
X003198Y011092D01*
X003357Y010934D02*
X005512Y010934D01*
X005353Y010775D02*
X003515Y010775D01*
X003674Y010617D02*
X005195Y010617D01*
X005036Y010458D02*
X003832Y010458D01*
X003991Y010300D02*
X004878Y010300D01*
X004550Y010141D02*
X004149Y010141D01*
X004308Y009983D02*
X004364Y009983D01*
X003889Y009666D02*
X003100Y009666D01*
X003100Y009824D02*
X003731Y009824D01*
X003572Y009983D02*
X002971Y009983D01*
X003414Y010141D02*
X001010Y010141D01*
X001010Y009983D02*
X001080Y009983D01*
X001141Y010300D02*
X001010Y010300D01*
X001670Y010300D02*
X001690Y010300D01*
X001690Y010458D02*
X001670Y010458D01*
X001670Y010617D02*
X001690Y010617D01*
X001690Y010775D02*
X001670Y010775D01*
X001670Y010934D02*
X001690Y010934D01*
X001690Y011092D02*
X001670Y011092D01*
X001195Y011092D02*
X001010Y011092D01*
X001010Y010934D02*
X001016Y010934D01*
X001010Y009349D02*
X001109Y009349D01*
X001440Y012994D02*
X008970Y012994D01*
X008970Y013153D02*
X001440Y013153D01*
X001440Y013311D02*
X008970Y013311D01*
X008970Y013470D02*
X001440Y013470D01*
X001440Y013628D02*
X008970Y013628D01*
X008970Y013787D02*
X004733Y013787D01*
X004790Y013945D02*
X008970Y013945D01*
X008994Y014104D02*
X004774Y014104D01*
X004086Y014104D02*
X001440Y014104D01*
X001440Y014262D02*
X002640Y014262D01*
X002640Y014421D02*
X001440Y014421D01*
X001440Y014579D02*
X002640Y014579D01*
X002640Y014738D02*
X001440Y014738D01*
X001440Y014896D02*
X002640Y014896D01*
X002640Y015055D02*
X001440Y015055D01*
X001440Y015213D02*
X002687Y015213D01*
X003070Y015372D02*
X001440Y015372D01*
X001440Y015530D02*
X003082Y015530D01*
X003179Y015689D02*
X001440Y015689D01*
X001440Y015847D02*
X006050Y015847D01*
X005892Y015689D02*
X005181Y015689D01*
X005278Y015530D02*
X005733Y015530D01*
X005575Y015372D02*
X005290Y015372D01*
X004679Y015689D02*
X004181Y015689D01*
X004278Y015530D02*
X004582Y015530D01*
X004570Y015372D02*
X004290Y015372D01*
X006209Y016006D02*
X001440Y016006D01*
X001440Y016164D02*
X006367Y016164D01*
X006526Y016323D02*
X001440Y016323D01*
X001440Y016481D02*
X006684Y016481D01*
X006783Y016640D02*
X001440Y016640D01*
X001440Y016798D02*
X006783Y016798D01*
X006783Y016957D02*
X001440Y016957D01*
X001440Y017115D02*
X006783Y017115D01*
X006783Y017274D02*
X001896Y017274D01*
X001680Y017274D02*
X001680Y017274D01*
X001680Y017240D02*
X001680Y017680D01*
X002120Y017680D01*
X001680Y017680D01*
X001680Y017680D01*
X001680Y017680D01*
X001680Y017240D01*
X001680Y017432D02*
X001680Y017432D01*
X001680Y017591D02*
X001680Y017591D01*
X001464Y017274D02*
X001440Y017274D01*
X002054Y017432D02*
X006783Y017432D01*
X006794Y017591D02*
X002120Y017591D01*
X002120Y017749D02*
X006952Y017749D01*
X007111Y017908D02*
X002075Y017908D01*
X001916Y018066D02*
X007269Y018066D01*
X005720Y019206D02*
X005680Y019166D01*
X005640Y019206D01*
X005640Y020781D01*
X007204Y022345D01*
X007327Y022468D01*
X007327Y023881D01*
X007423Y023976D01*
X007477Y024108D01*
X007477Y024252D01*
X007423Y024384D01*
X007321Y024485D01*
X007189Y024540D01*
X007046Y024540D01*
X006914Y024485D01*
X006812Y024384D01*
X006758Y024252D01*
X006758Y024108D01*
X006812Y023976D01*
X006908Y023881D01*
X006908Y022642D01*
X005600Y021334D01*
X005600Y021354D01*
X005354Y021600D01*
X005006Y021600D01*
X004760Y021354D01*
X004760Y021057D01*
X004703Y021000D01*
X004604Y021100D01*
X004256Y021100D01*
X004010Y020854D01*
X004010Y020506D01*
X004256Y020260D01*
X004604Y020260D01*
X004850Y020506D01*
X004850Y020553D01*
X005057Y020760D01*
X005220Y020760D01*
X005220Y020024D01*
X005134Y020110D01*
X005002Y020165D01*
X004858Y020165D01*
X004726Y020110D01*
X004711Y020095D01*
X004634Y020173D01*
X004502Y020227D01*
X004358Y020227D01*
X004226Y020173D01*
X004125Y020071D01*
X004100Y020012D01*
X004100Y020354D01*
X003854Y020600D01*
X003506Y020600D01*
X003260Y020354D01*
X003260Y020006D01*
X003506Y019760D01*
X003854Y019760D01*
X004096Y020002D01*
X004070Y019939D01*
X004070Y019796D01*
X004125Y019664D01*
X004220Y019568D01*
X004220Y019206D01*
X004180Y019166D01*
X004126Y019220D01*
X003734Y019220D01*
X003694Y019180D01*
X003671Y019204D01*
X003629Y019228D01*
X003584Y019240D01*
X003430Y019240D01*
X003430Y018660D01*
X003430Y018660D01*
X003430Y018080D01*
X003430Y018660D01*
X003430Y018660D01*
X003430Y019240D01*
X003276Y019240D01*
X003231Y019228D01*
X003189Y019204D01*
X003166Y019180D01*
X003126Y019220D01*
X002734Y019220D01*
X002640Y019126D01*
X002640Y018940D01*
X002014Y018940D01*
X001854Y019100D01*
X001506Y019100D01*
X001260Y018854D01*
X001260Y018506D01*
X001358Y018409D01*
X001358Y018350D01*
X001033Y018025D01*
X001010Y018003D01*
X001010Y019972D01*
X001027Y019931D01*
X001151Y019807D01*
X001312Y019740D01*
X002048Y019740D01*
X002209Y019807D01*
X002333Y019931D01*
X002400Y020092D01*
X002400Y020268D01*
X002333Y020429D01*
X002209Y020553D01*
X002048Y020620D01*
X001312Y020620D01*
X001151Y020553D01*
X001027Y020429D01*
X001010Y020388D01*
X001010Y020934D01*
X001049Y020880D01*
X001100Y020829D01*
X001159Y020787D01*
X001223Y020754D01*
X001292Y020731D01*
X001364Y020720D01*
X001670Y020720D01*
X001670Y021170D01*
X001690Y021170D01*
X001690Y021190D01*
X001670Y021190D01*
X001670Y021640D01*
X001364Y021640D01*
X001292Y021629D01*
X001223Y021606D01*
X001159Y021573D01*
X001100Y021531D01*
X001049Y021480D01*
X001010Y021426D01*
X001010Y022972D01*
X001027Y022931D01*
X001151Y022807D01*
X001312Y022740D01*
X002048Y022740D01*
X002209Y022807D01*
X002333Y022931D01*
X002349Y022970D01*
X003296Y022970D01*
X003506Y022760D01*
X003854Y022760D01*
X004100Y023006D01*
X004100Y023354D01*
X003854Y023600D01*
X003506Y023600D01*
X003296Y023390D01*
X002349Y023390D01*
X002333Y023429D01*
X002209Y023553D01*
X002048Y023620D01*
X001312Y023620D01*
X001151Y023553D01*
X001027Y023429D01*
X001010Y023388D01*
X001010Y023934D01*
X001049Y023880D01*
X001100Y023829D01*
X001159Y023787D01*
X001223Y023754D01*
X001292Y023731D01*
X001364Y023720D01*
X001670Y023720D01*
X001670Y024170D01*
X001690Y024170D01*
X001690Y024190D01*
X001670Y024190D01*
X001670Y024640D01*
X001364Y024640D01*
X001292Y024629D01*
X001223Y024606D01*
X001159Y024573D01*
X001100Y024531D01*
X001049Y024480D01*
X001010Y024426D01*
X001010Y029400D01*
X012385Y029400D01*
X012289Y029360D01*
X012187Y029259D01*
X012133Y029127D01*
X012133Y028983D01*
X012187Y028851D01*
X012223Y028816D01*
X012197Y028803D01*
X012130Y028754D01*
X012071Y028695D01*
X012022Y028627D01*
X011984Y028553D01*
X011966Y028497D01*
X011908Y028638D01*
X011764Y028782D01*
X011577Y028859D01*
X011374Y028859D01*
X011352Y028850D01*
X011352Y028877D01*
X011298Y029009D01*
X011196Y029110D01*
X011064Y029165D01*
X010921Y029165D01*
X010789Y029110D01*
X010687Y029009D01*
X010633Y028877D01*
X010633Y028836D01*
X010577Y028859D01*
X010374Y028859D01*
X010186Y028782D01*
X010043Y028638D01*
X009965Y028451D01*
X009965Y028248D01*
X010043Y028060D01*
X010186Y027917D01*
X010326Y027859D01*
X010059Y027859D01*
X009965Y027766D01*
X009965Y027208D01*
X009447Y026690D01*
X009311Y026690D01*
X009406Y026745D01*
X009663Y027002D01*
X009844Y027316D01*
X009938Y027668D01*
X009938Y028031D01*
X009844Y028382D01*
X009663Y028697D01*
X009406Y028954D01*
X009091Y029136D01*
X008740Y029230D01*
X008376Y029230D01*
X008025Y029136D01*
X007710Y028954D01*
X007453Y028697D01*
X007272Y028382D01*
X007177Y028031D01*
X007177Y027668D01*
X007198Y027593D01*
X006390Y028400D01*
X006294Y028440D01*
X006140Y028440D01*
X006140Y028571D01*
X006070Y028741D01*
X005941Y028870D01*
X005771Y028940D01*
X005588Y028940D01*
X005419Y028870D01*
X005290Y028741D01*
X005220Y028571D01*
X005220Y027937D01*
X005140Y028017D01*
X005140Y028571D01*
X005070Y028741D01*
X004941Y028870D01*
X004771Y028940D01*
X004588Y028940D01*
X004419Y028870D01*
X004290Y028741D01*
X004220Y028571D01*
X004220Y027937D01*
X004140Y028017D01*
X004140Y028571D01*
X004070Y028741D01*
X003941Y028870D01*
X003771Y028940D01*
X003588Y028940D01*
X003419Y028870D01*
X003290Y028741D01*
X003220Y028571D01*
X003220Y027788D01*
X003290Y027619D01*
X003419Y027490D01*
X003588Y027420D01*
X003771Y027420D01*
X003941Y027490D01*
X004007Y027556D01*
X005220Y026343D01*
X005330Y026233D01*
X005307Y026209D01*
X005240Y026048D01*
X005240Y025488D01*
X005120Y025608D01*
X005120Y026048D01*
X005053Y026209D01*
X004929Y026333D01*
X004768Y026400D01*
X004592Y026400D01*
X004431Y026333D01*
X004307Y026209D01*
X004240Y026048D01*
X004240Y025312D01*
X004307Y025151D01*
X004431Y025027D01*
X004592Y024960D01*
X004768Y024960D01*
X004929Y025027D01*
X004947Y025045D01*
X005210Y024783D01*
X005283Y024710D01*
X005378Y024670D01*
X007572Y024670D01*
X009710Y022533D01*
X009783Y022460D01*
X009878Y022420D01*
X010346Y022420D01*
X010506Y022260D01*
X010854Y022260D01*
X011100Y022506D01*
X011100Y022854D01*
X010854Y023100D01*
X010506Y023100D01*
X010346Y022940D01*
X010038Y022940D01*
X009255Y023722D01*
X009321Y023750D01*
X009423Y023851D01*
X009477Y023983D01*
X009477Y024127D01*
X009423Y024259D01*
X009377Y024305D01*
X009423Y024351D01*
X009477Y024483D01*
X009477Y024627D01*
X009423Y024759D01*
X009321Y024860D01*
X009189Y024915D01*
X009054Y024915D01*
X007142Y026827D01*
X006329Y026827D01*
X005737Y027420D01*
X005771Y027420D01*
X005941Y027490D01*
X006070Y027619D01*
X006140Y027788D01*
X006140Y027915D01*
X007772Y026283D01*
X007845Y026210D01*
X007941Y026170D01*
X008598Y026170D01*
X008562Y026134D01*
X008508Y026002D01*
X008508Y025858D01*
X008562Y025726D01*
X008664Y025625D01*
X008796Y025570D01*
X008939Y025570D01*
X009071Y025625D01*
X009167Y025720D01*
X011443Y025720D01*
X011539Y025625D01*
X011671Y025570D01*
X011814Y025570D01*
X011946Y025625D01*
X012048Y025726D01*
X012102Y025858D01*
X012102Y026002D01*
X012059Y026108D01*
X014056Y026108D01*
X014101Y026062D01*
X014233Y026008D01*
X014377Y026008D01*
X014509Y026062D01*
X014610Y026164D01*
X014665Y026296D01*
X014665Y026439D01*
X014610Y026571D01*
X014509Y026673D01*
X014377Y026727D01*
X014233Y026727D01*
X014101Y026673D01*
X014056Y026627D01*
X010120Y026627D01*
X010332Y026839D01*
X010892Y026839D01*
X010985Y026933D01*
X010985Y027200D01*
X011043Y027060D01*
X011186Y026917D01*
X011374Y026839D01*
X011577Y026839D01*
X011764Y026917D01*
X011908Y027060D01*
X011975Y027224D01*
X012043Y027060D01*
X012186Y026917D01*
X012374Y026839D01*
X012577Y026839D01*
X012764Y026917D01*
X012908Y027060D01*
X012975Y027224D01*
X013043Y027060D01*
X013186Y026917D01*
X013374Y026839D01*
X013577Y026839D01*
X013764Y026917D01*
X013908Y027060D01*
X013966Y027201D01*
X013984Y027146D01*
X014022Y027072D01*
X014071Y027004D01*
X014130Y026945D01*
X014197Y026896D01*
X014272Y026858D01*
X014351Y026832D01*
X014434Y026819D01*
X014457Y026819D01*
X014457Y027331D01*
X014494Y027331D01*
X014494Y026819D01*
X014517Y026819D01*
X014599Y026832D01*
X014679Y026858D01*
X014753Y026896D01*
X014821Y026945D01*
X014880Y027004D01*
X014929Y027072D01*
X014966Y027146D01*
X014985Y027201D01*
X015043Y027060D01*
X015186Y026917D01*
X015220Y026903D01*
X015220Y026642D01*
X011533Y022954D01*
X011533Y022267D01*
X011120Y021854D01*
X011120Y021862D01*
X010862Y022120D01*
X010680Y022120D01*
X010680Y021680D01*
X010680Y021680D01*
X010680Y021680D01*
X010240Y021680D01*
X010240Y021862D01*
X010498Y022120D01*
X010680Y022120D01*
X010680Y021680D01*
X010240Y021680D01*
X010240Y021498D01*
X010498Y021240D01*
X010506Y021240D01*
X010218Y020952D01*
X008546Y020952D01*
X008600Y021006D01*
X008600Y021354D01*
X008354Y021600D01*
X008334Y021600D01*
X008492Y021758D01*
X008627Y021758D01*
X008759Y021812D01*
X008860Y021914D01*
X008915Y022046D01*
X008915Y022189D01*
X008876Y022282D01*
X009100Y022506D01*
X009100Y022854D01*
X008854Y023100D01*
X008506Y023100D01*
X008260Y022854D01*
X008260Y022506D01*
X008347Y022419D01*
X008250Y022321D01*
X008195Y022189D01*
X008195Y022054D01*
X005720Y019579D01*
X005720Y019206D01*
X005689Y019176D02*
X005671Y019176D01*
X005640Y019334D02*
X005720Y019334D01*
X005720Y019493D02*
X005640Y019493D01*
X005640Y019651D02*
X005792Y019651D01*
X005640Y019810D02*
X005950Y019810D01*
X006109Y019968D02*
X005640Y019968D01*
X005640Y020127D02*
X006267Y020127D01*
X006426Y020285D02*
X005640Y020285D01*
X005640Y020444D02*
X006584Y020444D01*
X006743Y020602D02*
X005640Y020602D01*
X005640Y020761D02*
X006901Y020761D01*
X007060Y020919D02*
X005779Y020919D01*
X005937Y021078D02*
X007218Y021078D01*
X007377Y021236D02*
X006096Y021236D01*
X006254Y021395D02*
X007535Y021395D01*
X007694Y021553D02*
X006413Y021553D01*
X006571Y021712D02*
X007852Y021712D01*
X008011Y021870D02*
X006730Y021870D01*
X006888Y022029D02*
X008169Y022029D01*
X008195Y022187D02*
X007047Y022187D01*
X007205Y022346D02*
X008274Y022346D01*
X008262Y022504D02*
X007327Y022504D01*
X007327Y022663D02*
X008260Y022663D01*
X008260Y022821D02*
X007327Y022821D01*
X007327Y022980D02*
X008386Y022980D01*
X008974Y022980D02*
X009263Y022980D01*
X009104Y023138D02*
X007327Y023138D01*
X007327Y023297D02*
X008946Y023297D01*
X008787Y023455D02*
X007327Y023455D01*
X007327Y023614D02*
X008629Y023614D01*
X008470Y023772D02*
X007327Y023772D01*
X007377Y023931D02*
X008312Y023931D01*
X008153Y024089D02*
X007469Y024089D01*
X007477Y024248D02*
X007995Y024248D01*
X007836Y024406D02*
X007401Y024406D01*
X007678Y024565D02*
X003918Y024565D01*
X003862Y024620D02*
X003680Y024620D01*
X003680Y024180D01*
X003680Y024180D01*
X004120Y024180D01*
X004120Y024362D01*
X003862Y024620D01*
X003680Y024620D02*
X003498Y024620D01*
X003240Y024362D01*
X003240Y024180D01*
X003680Y024180D01*
X003680Y024180D01*
X003680Y024180D01*
X003680Y024620D01*
X003680Y024565D02*
X003680Y024565D01*
X003680Y024406D02*
X003680Y024406D01*
X003680Y024248D02*
X003680Y024248D01*
X003680Y024180D02*
X003240Y024180D01*
X003240Y023998D01*
X003498Y023740D01*
X003680Y023740D01*
X003862Y023740D01*
X004120Y023998D01*
X004120Y024180D01*
X003680Y024180D01*
X003680Y023740D01*
X003680Y024180D01*
X003680Y024180D01*
X003680Y024089D02*
X003680Y024089D01*
X003680Y023931D02*
X003680Y023931D01*
X003680Y023772D02*
X003680Y023772D01*
X003894Y023772D02*
X004010Y023772D01*
X004010Y023854D02*
X004010Y023506D01*
X004256Y023260D01*
X004604Y023260D01*
X004703Y023360D01*
X005260Y022803D01*
X005260Y022506D01*
X005506Y022260D01*
X005854Y022260D01*
X006100Y022506D01*
X006100Y022854D01*
X005854Y023100D01*
X005557Y023100D01*
X004850Y023807D01*
X004850Y023854D01*
X004604Y024100D01*
X004256Y024100D01*
X004010Y023854D01*
X004053Y023931D02*
X004087Y023931D01*
X004120Y024089D02*
X004245Y024089D01*
X004120Y024248D02*
X006758Y024248D01*
X006766Y024089D02*
X004615Y024089D01*
X004773Y023931D02*
X006858Y023931D01*
X006908Y023772D02*
X004885Y023772D01*
X005043Y023614D02*
X006908Y023614D01*
X006908Y023455D02*
X005202Y023455D01*
X005360Y023297D02*
X006908Y023297D01*
X006908Y023138D02*
X005519Y023138D01*
X005242Y022821D02*
X003915Y022821D01*
X004074Y022980D02*
X005083Y022980D01*
X004925Y023138D02*
X004100Y023138D01*
X004100Y023297D02*
X004219Y023297D01*
X004061Y023455D02*
X003999Y023455D01*
X004010Y023614D02*
X002063Y023614D01*
X002068Y023731D02*
X002137Y023754D01*
X002201Y023787D01*
X002260Y023829D01*
X002311Y023880D01*
X002353Y023939D01*
X002386Y024003D01*
X002409Y024072D01*
X002420Y024144D01*
X002420Y024170D01*
X001690Y024170D01*
X001690Y023720D01*
X001996Y023720D01*
X002068Y023731D01*
X002173Y023772D02*
X003466Y023772D01*
X003307Y023931D02*
X002347Y023931D01*
X002411Y024089D02*
X003240Y024089D01*
X003240Y024248D02*
X002415Y024248D01*
X002420Y024216D02*
X002409Y024288D01*
X002386Y024357D01*
X002353Y024421D01*
X002311Y024480D01*
X002260Y024531D01*
X002201Y024573D01*
X002137Y024606D01*
X002068Y024629D01*
X001996Y024640D01*
X001690Y024640D01*
X001690Y024190D01*
X002420Y024190D01*
X002420Y024216D01*
X002361Y024406D02*
X003284Y024406D01*
X003442Y024565D02*
X002213Y024565D01*
X001690Y024565D02*
X001670Y024565D01*
X001670Y024406D02*
X001690Y024406D01*
X001690Y024248D02*
X001670Y024248D01*
X001670Y024089D02*
X001690Y024089D01*
X001690Y023931D02*
X001670Y023931D01*
X001670Y023772D02*
X001690Y023772D01*
X001297Y023614D02*
X001010Y023614D01*
X001010Y023772D02*
X001187Y023772D01*
X001013Y023931D02*
X001010Y023931D01*
X001010Y023455D02*
X001053Y023455D01*
X001010Y022821D02*
X001137Y022821D01*
X001010Y022663D02*
X005260Y022663D01*
X005262Y022504D02*
X001010Y022504D01*
X001010Y022346D02*
X005420Y022346D01*
X005940Y022346D02*
X006611Y022346D01*
X006770Y022504D02*
X006098Y022504D01*
X006100Y022663D02*
X006908Y022663D01*
X006908Y022821D02*
X006100Y022821D01*
X005974Y022980D02*
X006908Y022980D01*
X006453Y022187D02*
X001010Y022187D01*
X001010Y022029D02*
X006294Y022029D01*
X006136Y021870D02*
X001010Y021870D01*
X001010Y021712D02*
X005977Y021712D01*
X005819Y021553D02*
X005401Y021553D01*
X005559Y021395D02*
X005660Y021395D01*
X004959Y021553D02*
X003929Y021553D01*
X003862Y021620D02*
X003680Y021620D01*
X003680Y021180D01*
X003680Y021180D01*
X004120Y021180D01*
X004120Y021362D01*
X003862Y021620D01*
X003680Y021620D02*
X003498Y021620D01*
X003240Y021362D01*
X003240Y021180D01*
X003680Y021180D01*
X003680Y021180D01*
X003680Y021180D01*
X003680Y021620D01*
X003680Y021553D02*
X003680Y021553D01*
X003680Y021395D02*
X003680Y021395D01*
X003680Y021236D02*
X003680Y021236D01*
X003680Y021180D02*
X003240Y021180D01*
X003240Y020998D01*
X003498Y020740D01*
X003680Y020740D01*
X003862Y020740D01*
X004120Y020998D01*
X004120Y021180D01*
X003680Y021180D01*
X003680Y020740D01*
X003680Y021180D01*
X003680Y021180D01*
X003680Y021078D02*
X003680Y021078D01*
X003680Y020919D02*
X003680Y020919D01*
X003680Y020761D02*
X003680Y020761D01*
X003883Y020761D02*
X004010Y020761D01*
X004010Y020602D02*
X002091Y020602D01*
X002068Y020731D02*
X002137Y020754D01*
X002201Y020787D01*
X002260Y020829D01*
X002311Y020880D01*
X002353Y020939D01*
X002386Y021003D01*
X002409Y021072D01*
X002420Y021144D01*
X002420Y021170D01*
X001690Y021170D01*
X001690Y020720D01*
X001996Y020720D01*
X002068Y020731D01*
X002150Y020761D02*
X003477Y020761D01*
X003319Y020919D02*
X002339Y020919D01*
X002410Y021078D02*
X003240Y021078D01*
X003240Y021236D02*
X002417Y021236D01*
X002420Y021216D02*
X002409Y021288D01*
X002386Y021357D01*
X002353Y021421D01*
X002311Y021480D01*
X002260Y021531D01*
X002201Y021573D01*
X002137Y021606D01*
X002068Y021629D01*
X001996Y021640D01*
X001690Y021640D01*
X001690Y021190D01*
X002420Y021190D01*
X002420Y021216D01*
X002367Y021395D02*
X003272Y021395D01*
X003431Y021553D02*
X002229Y021553D01*
X001690Y021553D02*
X001670Y021553D01*
X001670Y021395D02*
X001690Y021395D01*
X001690Y021236D02*
X001670Y021236D01*
X001670Y021078D02*
X001690Y021078D01*
X001690Y020919D02*
X001670Y020919D01*
X001670Y020761D02*
X001690Y020761D01*
X001269Y020602D02*
X001010Y020602D01*
X001010Y020444D02*
X001041Y020444D01*
X001010Y020761D02*
X001210Y020761D01*
X001021Y020919D02*
X001010Y020919D01*
X001010Y021553D02*
X001131Y021553D01*
X002319Y020444D02*
X003350Y020444D01*
X003260Y020285D02*
X002393Y020285D01*
X002400Y020127D02*
X003260Y020127D01*
X003298Y019968D02*
X002348Y019968D01*
X002212Y019810D02*
X003456Y019810D01*
X003903Y019810D02*
X004070Y019810D01*
X004062Y019968D02*
X004082Y019968D01*
X004100Y020127D02*
X004180Y020127D01*
X004231Y020285D02*
X004100Y020285D01*
X004072Y020444D02*
X004010Y020444D01*
X004041Y020919D02*
X004075Y020919D01*
X004120Y021078D02*
X004234Y021078D01*
X004120Y021236D02*
X004760Y021236D01*
X004760Y021078D02*
X004626Y021078D01*
X004801Y021395D02*
X004088Y021395D01*
X004899Y020602D02*
X005220Y020602D01*
X005220Y020444D02*
X004788Y020444D01*
X004629Y020285D02*
X005220Y020285D01*
X005220Y020127D02*
X005094Y020127D01*
X004766Y020127D02*
X004680Y020127D01*
X004137Y019651D02*
X001010Y019651D01*
X001010Y019493D02*
X004220Y019493D01*
X004220Y019334D02*
X001010Y019334D01*
X001010Y019176D02*
X002689Y019176D01*
X002640Y019017D02*
X001937Y019017D01*
X001423Y019017D02*
X001010Y019017D01*
X001010Y018859D02*
X001265Y018859D01*
X001260Y018700D02*
X001010Y018700D01*
X001010Y018542D02*
X001260Y018542D01*
X001358Y018383D02*
X001010Y018383D01*
X001010Y018225D02*
X001232Y018225D01*
X001073Y018066D02*
X001010Y018066D01*
X001877Y018225D02*
X002640Y018225D01*
X002640Y018383D02*
X001977Y018383D01*
X003430Y018383D02*
X003430Y018383D01*
X003430Y018225D02*
X003430Y018225D01*
X003430Y018542D02*
X003430Y018542D01*
X003430Y018700D02*
X003430Y018700D01*
X003430Y018859D02*
X003430Y018859D01*
X003430Y019017D02*
X003430Y019017D01*
X003430Y019176D02*
X003430Y019176D01*
X004171Y019176D02*
X004189Y019176D01*
X001148Y019810D02*
X001010Y019810D01*
X001010Y019968D02*
X001012Y019968D01*
X002223Y022821D02*
X003445Y022821D01*
X003361Y023455D02*
X002307Y023455D01*
X001147Y024565D02*
X001010Y024565D01*
X001010Y024723D02*
X005269Y024723D01*
X005111Y024882D02*
X001010Y024882D01*
X001010Y025040D02*
X004418Y025040D01*
X004287Y025199D02*
X001010Y025199D01*
X001010Y025357D02*
X002324Y025357D01*
X002200Y025481D02*
X002481Y025200D01*
X002660Y025200D01*
X002660Y025660D01*
X002700Y025660D01*
X002700Y025700D01*
X003160Y025700D01*
X003160Y025879D01*
X002879Y026160D01*
X002700Y026160D01*
X002700Y025700D01*
X002660Y025700D01*
X002660Y026160D01*
X002481Y026160D01*
X002200Y025879D01*
X002200Y025700D01*
X002660Y025700D01*
X002660Y025660D01*
X002200Y025660D01*
X002200Y025481D01*
X002200Y025516D02*
X001010Y025516D01*
X001010Y025674D02*
X002660Y025674D01*
X002700Y025674D02*
X004240Y025674D01*
X004240Y025516D02*
X003160Y025516D01*
X003160Y025481D02*
X003160Y025660D01*
X002700Y025660D01*
X002700Y025200D01*
X002879Y025200D01*
X003160Y025481D01*
X003036Y025357D02*
X004240Y025357D01*
X004942Y025040D02*
X004952Y025040D01*
X005212Y025516D02*
X005240Y025516D01*
X005240Y025674D02*
X005120Y025674D01*
X005120Y025833D02*
X005240Y025833D01*
X005240Y025991D02*
X005120Y025991D01*
X005078Y026150D02*
X005282Y026150D01*
X005255Y026308D02*
X004954Y026308D01*
X005096Y026467D02*
X001010Y026467D01*
X001010Y026625D02*
X004938Y026625D01*
X004779Y026784D02*
X001010Y026784D01*
X001010Y026942D02*
X004621Y026942D01*
X004462Y027101D02*
X001010Y027101D01*
X001010Y027259D02*
X004304Y027259D01*
X004145Y027418D02*
X002810Y027418D01*
X002792Y027412D02*
X002864Y027435D01*
X002932Y027469D01*
X002993Y027514D01*
X003046Y027567D01*
X003091Y027628D01*
X003125Y027696D01*
X003148Y027768D01*
X003160Y027842D01*
X003160Y028160D01*
X002700Y028160D01*
X002700Y028200D01*
X003160Y028200D01*
X003160Y028518D01*
X003148Y028592D01*
X003125Y028664D01*
X003091Y028732D01*
X003046Y028793D01*
X002993Y028846D01*
X002932Y028891D01*
X002864Y028925D01*
X002792Y028948D01*
X002718Y028960D01*
X002700Y028960D01*
X002700Y028200D01*
X002660Y028200D01*
X002660Y028960D01*
X002642Y028960D01*
X002568Y028948D01*
X002496Y028925D01*
X002428Y028891D01*
X002367Y028846D01*
X002314Y028793D01*
X002269Y028732D01*
X002235Y028664D01*
X002212Y028592D01*
X002200Y028518D01*
X002200Y028200D01*
X002660Y028200D01*
X002660Y028160D01*
X002700Y028160D01*
X002700Y027400D01*
X002718Y027400D01*
X002792Y027412D01*
X002700Y027418D02*
X002660Y027418D01*
X002660Y027400D02*
X002660Y028160D01*
X002200Y028160D01*
X002200Y027842D01*
X002212Y027768D01*
X002235Y027696D01*
X002269Y027628D01*
X002314Y027567D01*
X002367Y027514D01*
X002428Y027469D01*
X002496Y027435D01*
X002568Y027412D01*
X002642Y027400D01*
X002660Y027400D01*
X002550Y027418D02*
X001010Y027418D01*
X001010Y027576D02*
X001333Y027576D01*
X001290Y027619D02*
X001419Y027490D01*
X001588Y027420D01*
X001771Y027420D01*
X001941Y027490D01*
X002070Y027619D01*
X002140Y027788D01*
X002140Y028571D01*
X002070Y028741D01*
X001941Y028870D01*
X001771Y028940D01*
X001588Y028940D01*
X001419Y028870D01*
X001290Y028741D01*
X001220Y028571D01*
X001220Y027788D01*
X001290Y027619D01*
X001242Y027735D02*
X001010Y027735D01*
X001010Y027893D02*
X001220Y027893D01*
X001220Y028052D02*
X001010Y028052D01*
X001010Y028210D02*
X001220Y028210D01*
X001220Y028369D02*
X001010Y028369D01*
X001010Y028527D02*
X001220Y028527D01*
X001267Y028686D02*
X001010Y028686D01*
X001010Y028844D02*
X001394Y028844D01*
X001010Y029003D02*
X007795Y029003D01*
X007600Y028844D02*
X005966Y028844D01*
X006093Y028686D02*
X007447Y028686D01*
X007355Y028527D02*
X006140Y028527D01*
X006422Y028369D02*
X007268Y028369D01*
X007225Y028210D02*
X006580Y028210D01*
X006739Y028052D02*
X007183Y028052D01*
X007177Y027893D02*
X006897Y027893D01*
X007056Y027735D02*
X007177Y027735D01*
X006796Y027259D02*
X005898Y027259D01*
X006056Y027101D02*
X006954Y027101D01*
X007113Y026942D02*
X006215Y026942D01*
X006637Y027418D02*
X005739Y027418D01*
X006027Y027576D02*
X006479Y027576D01*
X006320Y027735D02*
X006118Y027735D01*
X006140Y027893D02*
X006162Y027893D01*
X005220Y028052D02*
X005140Y028052D01*
X005140Y028210D02*
X005220Y028210D01*
X005220Y028369D02*
X005140Y028369D01*
X005140Y028527D02*
X005220Y028527D01*
X005267Y028686D02*
X005093Y028686D01*
X004966Y028844D02*
X005394Y028844D01*
X004394Y028844D02*
X003966Y028844D01*
X004093Y028686D02*
X004267Y028686D01*
X004220Y028527D02*
X004140Y028527D01*
X004140Y028369D02*
X004220Y028369D01*
X004220Y028210D02*
X004140Y028210D01*
X004140Y028052D02*
X004220Y028052D01*
X003220Y028052D02*
X003160Y028052D01*
X003160Y028210D02*
X003220Y028210D01*
X003220Y028369D02*
X003160Y028369D01*
X003159Y028527D02*
X003220Y028527D01*
X003267Y028686D02*
X003114Y028686D01*
X002995Y028844D02*
X003394Y028844D01*
X002700Y028844D02*
X002660Y028844D01*
X002660Y028686D02*
X002700Y028686D01*
X002700Y028527D02*
X002660Y028527D01*
X002660Y028369D02*
X002700Y028369D01*
X002700Y028210D02*
X002660Y028210D01*
X002660Y028052D02*
X002700Y028052D01*
X002700Y027893D02*
X002660Y027893D01*
X002660Y027735D02*
X002700Y027735D01*
X002700Y027576D02*
X002660Y027576D01*
X002308Y027576D02*
X002027Y027576D01*
X002118Y027735D02*
X002223Y027735D01*
X002200Y027893D02*
X002140Y027893D01*
X002140Y028052D02*
X002200Y028052D01*
X002200Y028210D02*
X002140Y028210D01*
X002140Y028369D02*
X002200Y028369D01*
X002201Y028527D02*
X002140Y028527D01*
X002093Y028686D02*
X002246Y028686D01*
X002365Y028844D02*
X001966Y028844D01*
X001010Y029161D02*
X008120Y029161D01*
X008996Y029161D02*
X010911Y029161D01*
X011074Y029161D02*
X012147Y029161D01*
X012133Y029003D02*
X011300Y029003D01*
X011614Y028844D02*
X012194Y028844D01*
X012064Y028686D02*
X011860Y028686D01*
X011954Y028527D02*
X011976Y028527D01*
X011985Y028368D02*
X012457Y028368D01*
X012457Y028331D01*
X011985Y028331D01*
X011985Y028368D01*
X012248Y029320D02*
X001010Y029320D01*
X003160Y027893D02*
X003220Y027893D01*
X003242Y027735D02*
X003137Y027735D01*
X003052Y027576D02*
X003333Y027576D01*
X004406Y026308D02*
X001010Y026308D01*
X001010Y026150D02*
X002471Y026150D01*
X002660Y026150D02*
X002700Y026150D01*
X002700Y025991D02*
X002660Y025991D01*
X002660Y025833D02*
X002700Y025833D01*
X002700Y025516D02*
X002660Y025516D01*
X002660Y025357D02*
X002700Y025357D01*
X003160Y025833D02*
X004240Y025833D01*
X004240Y025991D02*
X003048Y025991D01*
X002889Y026150D02*
X004282Y026150D01*
X002312Y025991D02*
X001010Y025991D01*
X001010Y025833D02*
X002200Y025833D01*
X004076Y024406D02*
X006834Y024406D01*
X008295Y025674D02*
X008614Y025674D01*
X008518Y025833D02*
X008137Y025833D01*
X007978Y025991D02*
X008508Y025991D01*
X008578Y026150D02*
X007820Y026150D01*
X007747Y026308D02*
X007661Y026308D01*
X007588Y026467D02*
X007503Y026467D01*
X007430Y026625D02*
X007344Y026625D01*
X007271Y026784D02*
X007186Y026784D01*
X008454Y025516D02*
X014094Y025516D01*
X014252Y025674D02*
X011996Y025674D01*
X012092Y025833D02*
X014411Y025833D01*
X014569Y025991D02*
X012102Y025991D01*
X011489Y025674D02*
X009121Y025674D01*
X008771Y025199D02*
X013777Y025199D01*
X013935Y025357D02*
X008612Y025357D01*
X008929Y025040D02*
X013618Y025040D01*
X013460Y024882D02*
X009270Y024882D01*
X009438Y024723D02*
X013301Y024723D01*
X013143Y024565D02*
X009477Y024565D01*
X009445Y024406D02*
X012984Y024406D01*
X012826Y024248D02*
X009427Y024248D01*
X009477Y024089D02*
X012667Y024089D01*
X012509Y023931D02*
X009456Y023931D01*
X009344Y023772D02*
X012350Y023772D01*
X012192Y023614D02*
X009364Y023614D01*
X009523Y023455D02*
X012033Y023455D01*
X011875Y023297D02*
X009681Y023297D01*
X009840Y023138D02*
X011716Y023138D01*
X011558Y022980D02*
X010974Y022980D01*
X011100Y022821D02*
X011533Y022821D01*
X011533Y022663D02*
X011100Y022663D01*
X011098Y022504D02*
X011533Y022504D01*
X011533Y022346D02*
X010940Y022346D01*
X010954Y022029D02*
X011294Y022029D01*
X011453Y022187D02*
X008915Y022187D01*
X008908Y022029D02*
X010406Y022029D01*
X010248Y021870D02*
X008817Y021870D01*
X008446Y021712D02*
X010240Y021712D01*
X010240Y021553D02*
X008401Y021553D01*
X008559Y021395D02*
X010343Y021395D01*
X010502Y021236D02*
X008600Y021236D01*
X008600Y021078D02*
X010343Y021078D01*
X010680Y021712D02*
X010680Y021712D01*
X010680Y021870D02*
X010680Y021870D01*
X010680Y022029D02*
X010680Y022029D01*
X010420Y022346D02*
X008940Y022346D01*
X009098Y022504D02*
X009738Y022504D01*
X009580Y022663D02*
X009100Y022663D01*
X009100Y022821D02*
X009421Y022821D01*
X009998Y022980D02*
X010386Y022980D01*
X011112Y021870D02*
X011136Y021870D01*
X014596Y026150D02*
X014728Y026150D01*
X014665Y026308D02*
X014886Y026308D01*
X015045Y026467D02*
X014654Y026467D01*
X014557Y026625D02*
X015203Y026625D01*
X015220Y026784D02*
X010276Y026784D01*
X009858Y027101D02*
X009720Y027101D01*
X009699Y026942D02*
X009603Y026942D01*
X009541Y026784D02*
X009444Y026784D01*
X009811Y027259D02*
X009965Y027259D01*
X009965Y027418D02*
X009871Y027418D01*
X009914Y027576D02*
X009965Y027576D01*
X009965Y027735D02*
X009938Y027735D01*
X009938Y027893D02*
X010244Y027893D01*
X010052Y028052D02*
X009933Y028052D01*
X009890Y028210D02*
X009981Y028210D01*
X009965Y028369D02*
X009848Y028369D01*
X009761Y028527D02*
X009997Y028527D01*
X010090Y028686D02*
X009669Y028686D01*
X009515Y028844D02*
X010337Y028844D01*
X010614Y028844D02*
X010633Y028844D01*
X010685Y029003D02*
X009321Y029003D01*
X010985Y027101D02*
X011026Y027101D01*
X010985Y026942D02*
X011161Y026942D01*
X011789Y026942D02*
X012161Y026942D01*
X012026Y027101D02*
X011924Y027101D01*
X012789Y026942D02*
X013161Y026942D01*
X013026Y027101D02*
X012924Y027101D01*
X013789Y026942D02*
X014134Y026942D01*
X014007Y027101D02*
X013924Y027101D01*
X014457Y027101D02*
X014494Y027101D01*
X014494Y027259D02*
X014457Y027259D01*
X014457Y026942D02*
X014494Y026942D01*
X014816Y026942D02*
X015161Y026942D01*
X015026Y027101D02*
X014943Y027101D01*
X004766Y023297D02*
X004641Y023297D01*
X009721Y017274D02*
X012352Y017274D01*
X012193Y017115D02*
X009831Y017115D01*
X009852Y016957D02*
X011847Y016957D01*
X011689Y016798D02*
X009802Y016798D01*
X009581Y016640D02*
X011530Y016640D01*
X011372Y016481D02*
X008278Y016481D01*
X008120Y016323D02*
X011213Y016323D01*
X011055Y016164D02*
X007961Y016164D01*
X007803Y016006D02*
X010896Y016006D01*
X010738Y015847D02*
X008772Y015847D01*
X008889Y015689D02*
X010579Y015689D01*
X010421Y015530D02*
X008915Y015530D01*
X008869Y015372D02*
X010262Y015372D01*
X010104Y015213D02*
X008702Y015213D01*
X008740Y015055D02*
X009945Y015055D01*
X009787Y014896D02*
X008740Y014896D01*
X008740Y014738D02*
X009628Y014738D01*
X009470Y014579D02*
X008740Y014579D01*
X008740Y014700D02*
X008430Y014700D01*
X008740Y014700D01*
X008740Y014421D02*
X009311Y014421D01*
X009153Y014262D02*
X008736Y014262D01*
X008430Y014262D02*
X008430Y014262D01*
X008430Y014120D02*
X008430Y014700D01*
X008430Y014700D01*
X008430Y014700D01*
X008430Y014120D01*
X008430Y014421D02*
X008430Y014421D01*
X008430Y014579D02*
X008430Y014579D01*
X009093Y014202D02*
X009093Y014202D01*
X008338Y015847D02*
X008272Y015847D01*
X007838Y015847D02*
X007772Y015847D01*
X008437Y016640D02*
X009404Y016640D01*
X004070Y013945D02*
X001440Y013945D01*
X001440Y013787D02*
X004127Y013787D01*
X008029Y011568D02*
X008283Y011568D01*
X008283Y011726D02*
X008188Y011726D01*
X026658Y021236D02*
X027939Y021236D01*
X028098Y021395D02*
X026817Y021395D01*
X027392Y021553D02*
X027968Y021553D01*
X027812Y021712D02*
X027548Y021712D01*
X027600Y021870D02*
X027760Y021870D01*
X027760Y022029D02*
X027600Y022029D01*
X027600Y022187D02*
X027760Y022187D01*
X027760Y022346D02*
X027600Y022346D01*
X027600Y022504D02*
X027760Y022504D01*
X027818Y022663D02*
X027542Y022663D01*
X027358Y022821D02*
X028002Y022821D01*
X028358Y022821D02*
X029002Y022821D01*
X028818Y022663D02*
X028542Y022663D01*
X028600Y022504D02*
X028760Y022504D01*
X028760Y022346D02*
X028600Y022346D01*
X028600Y022187D02*
X028760Y022187D01*
X028732Y022029D02*
X028600Y022029D01*
X029548Y021712D02*
X029812Y021712D01*
X029760Y021870D02*
X029600Y021870D01*
X029600Y022029D02*
X029760Y022029D01*
X029760Y022187D02*
X029600Y022187D01*
X029600Y022346D02*
X029760Y022346D01*
X029760Y022504D02*
X029600Y022504D01*
X029542Y022663D02*
X029818Y022663D01*
X030002Y022821D02*
X029358Y022821D01*
X030358Y022821D02*
X031002Y022821D01*
X030818Y022663D02*
X030542Y022663D01*
X030600Y022504D02*
X030760Y022504D01*
X030760Y022346D02*
X030600Y022346D01*
X030600Y022187D02*
X030760Y022187D01*
X030760Y022029D02*
X030600Y022029D01*
X030600Y021870D02*
X030760Y021870D01*
X030812Y021712D02*
X030548Y021712D01*
X031600Y022029D02*
X031732Y022029D01*
X031760Y022187D02*
X031600Y022187D01*
X031600Y022346D02*
X031760Y022346D01*
X031760Y022504D02*
X031600Y022504D01*
X031542Y022663D02*
X031818Y022663D01*
X032002Y022821D02*
X031358Y022821D01*
X032358Y022821D02*
X033002Y022821D01*
X032818Y022663D02*
X032542Y022663D01*
X032600Y022504D02*
X032760Y022504D01*
X032760Y022346D02*
X032600Y022346D01*
X032600Y022187D02*
X032760Y022187D01*
X032732Y022029D02*
X032600Y022029D01*
X033600Y022029D02*
X033732Y022029D01*
X033760Y022187D02*
X033600Y022187D01*
X033600Y022346D02*
X033760Y022346D01*
X033760Y022504D02*
X033600Y022504D01*
X033542Y022663D02*
X033818Y022663D01*
X034002Y022821D02*
X033358Y022821D01*
X038334Y020285D02*
X038709Y020285D01*
X038709Y020127D02*
X038424Y020127D01*
X038575Y019968D02*
X038771Y019968D01*
X038641Y019810D02*
X038903Y019810D01*
X039575Y019810D02*
X039845Y019810D01*
X039845Y019968D02*
X039707Y019968D01*
X039769Y020127D02*
X039845Y020127D01*
X039845Y020285D02*
X039769Y020285D01*
X039722Y020444D02*
X039845Y020444D01*
X039845Y020602D02*
X039610Y020602D01*
X038868Y020602D02*
X038625Y020602D01*
X038543Y020444D02*
X038757Y020444D01*
X040265Y020444D02*
X041400Y020444D01*
X041400Y020602D02*
X040265Y020602D01*
X040265Y020761D02*
X041400Y020761D01*
X041400Y020919D02*
X040265Y020919D01*
X040265Y020285D02*
X041400Y020285D01*
X041400Y020127D02*
X040265Y020127D01*
X040265Y019968D02*
X041400Y019968D01*
X041400Y019810D02*
X040265Y019810D01*
X040265Y019651D02*
X041400Y019651D01*
X041400Y019493D02*
X040265Y019493D01*
X040265Y019334D02*
X041400Y019334D01*
X041400Y019176D02*
X040265Y019176D01*
X040265Y019017D02*
X041400Y019017D01*
X041400Y018859D02*
X040265Y018859D01*
X040265Y018700D02*
X041400Y018700D01*
X041400Y018542D02*
X040265Y018542D01*
X040265Y018383D02*
X041400Y018383D01*
X041400Y018225D02*
X040265Y018225D01*
X040265Y018066D02*
X041400Y018066D01*
X041400Y017908D02*
X040265Y017908D01*
X040265Y017749D02*
X041400Y017749D01*
X041400Y017591D02*
X040265Y017591D01*
X040265Y017432D02*
X041400Y017432D01*
X041400Y017274D02*
X040265Y017274D01*
X040265Y017115D02*
X041400Y017115D01*
X041400Y016957D02*
X040265Y016957D01*
X040265Y016798D02*
X041400Y016798D01*
X041400Y016640D02*
X040265Y016640D01*
X040265Y016481D02*
X041400Y016481D01*
X041400Y016323D02*
X040265Y016323D01*
X040265Y016164D02*
X041400Y016164D01*
X041400Y016006D02*
X040265Y016006D01*
X040265Y015847D02*
X041400Y015847D01*
X041400Y015689D02*
X040265Y015689D01*
X037736Y018225D02*
X037702Y018225D01*
X037752Y019017D02*
X037799Y019017D01*
X037910Y019176D02*
X037954Y019176D01*
X038338Y012043D02*
X038449Y012043D01*
X027002Y022821D02*
X026827Y022821D01*
X032033Y026625D02*
X034375Y026625D01*
X034217Y026784D02*
X032279Y026784D01*
X032438Y026942D02*
X034058Y026942D01*
X033900Y027101D02*
X032554Y027101D01*
X032646Y027259D02*
X033741Y027259D01*
X033583Y027418D02*
X032706Y027418D01*
X032749Y027576D02*
X033424Y027576D01*
X033266Y027735D02*
X032773Y027735D01*
X032773Y027893D02*
X033107Y027893D01*
X032949Y028052D02*
X032768Y028052D01*
X032790Y028210D02*
X032725Y028210D01*
M02*
