G75*
%MOIN*%
%OFA0B0*%
%FSLAX24Y24*%
%IPPOS*%
%LPD*%
%AMOC8*
5,1,8,0,0,1.08239X$1,22.5*
%
%ADD10R,0.0600X0.2550*%
%ADD11OC8,0.0600*%
%ADD12R,0.0740X0.0740*%
%ADD13C,0.0740*%
%ADD14C,0.2000*%
%ADD15OC8,0.0520*%
%ADD16C,0.0520*%
%ADD17R,0.0700X0.0700*%
%ADD18C,0.0700*%
%ADD19C,0.2441*%
%ADD20C,0.0560*%
%ADD21C,0.1000*%
%ADD22OC8,0.1000*%
%ADD23C,0.1650*%
%ADD24C,0.0600*%
%ADD25C,0.0100*%
%ADD26C,0.0400*%
%ADD27C,0.0200*%
%ADD28C,0.0160*%
D10*
X001680Y002180D03*
X002680Y002180D03*
X003680Y002180D03*
X004680Y002180D03*
X005680Y002180D03*
X006680Y002180D03*
X007680Y002180D03*
X008680Y002180D03*
X009680Y002180D03*
X010680Y002180D03*
X011680Y002180D03*
X012680Y002180D03*
X013680Y002180D03*
X014680Y002180D03*
X015680Y002180D03*
X016680Y002180D03*
X017680Y002180D03*
X018680Y002180D03*
X019680Y002180D03*
X020680Y002180D03*
X021680Y002180D03*
X022680Y002180D03*
X023680Y002180D03*
X024680Y002180D03*
X025680Y002180D03*
X026680Y002180D03*
X027680Y002180D03*
X028680Y002180D03*
X029680Y002180D03*
X030680Y002180D03*
X031680Y002180D03*
D11*
X031680Y005180D03*
X030680Y005180D03*
X030680Y006180D03*
X031680Y006180D03*
X029680Y006180D03*
X028680Y006180D03*
X027680Y006180D03*
X026680Y006180D03*
X025680Y006180D03*
X025680Y005180D03*
X026680Y005180D03*
X027680Y005180D03*
X028680Y005180D03*
X029680Y005180D03*
X024680Y005180D03*
X023680Y005180D03*
X022680Y005180D03*
X021680Y005180D03*
X021680Y006180D03*
X022680Y006180D03*
X023680Y006180D03*
X024680Y006180D03*
X020680Y006180D03*
X019680Y006180D03*
X018680Y006180D03*
X017680Y006180D03*
X016680Y006180D03*
X016680Y005180D03*
X017680Y005180D03*
X018680Y005180D03*
X019680Y005180D03*
X020680Y005180D03*
X015680Y005180D03*
X014680Y005180D03*
X013680Y005180D03*
X012680Y005180D03*
X012680Y006180D03*
X013680Y006180D03*
X014680Y006180D03*
X015680Y006180D03*
X011680Y006180D03*
X010680Y006180D03*
X009680Y006180D03*
X008680Y006180D03*
X007680Y006180D03*
X007680Y005180D03*
X008680Y005180D03*
X009680Y005180D03*
X010680Y005180D03*
X011680Y005180D03*
X006680Y005180D03*
X005680Y005180D03*
X004680Y005180D03*
X003680Y005180D03*
X003680Y006180D03*
X004680Y006180D03*
X005680Y006180D03*
X006680Y006180D03*
X002680Y006180D03*
X001680Y006180D03*
X001680Y005180D03*
X002680Y005180D03*
X002680Y025680D03*
D12*
X038121Y021861D03*
D13*
X039239Y021314D03*
X038121Y020771D03*
X039239Y020223D03*
X039239Y019137D03*
X038121Y019680D03*
X038121Y018589D03*
X039239Y018046D03*
X038121Y017499D03*
D14*
X038680Y014759D03*
X038680Y024601D03*
D15*
X035680Y013680D03*
X034680Y013680D03*
X033680Y011680D03*
X033680Y010680D03*
X033680Y008680D03*
X033680Y007680D03*
X038680Y007680D03*
X038680Y006680D03*
X038680Y010680D03*
X038680Y011680D03*
X012180Y011680D03*
X012180Y010680D03*
X005680Y009680D03*
X002680Y009680D03*
X001680Y017680D03*
X001680Y018680D03*
X003680Y020180D03*
X004430Y020680D03*
X003680Y021180D03*
X005180Y021180D03*
X005680Y022680D03*
X004430Y023680D03*
X003680Y024180D03*
X003680Y023180D03*
X008180Y021180D03*
X008680Y022680D03*
X010680Y022680D03*
X010680Y021680D03*
D16*
X012180Y021920D02*
X012180Y022440D01*
X013180Y022440D02*
X013180Y021920D01*
X014180Y021920D02*
X014180Y022440D01*
X015180Y022440D02*
X015180Y021920D01*
X016180Y021920D02*
X016180Y022440D01*
X017180Y022440D02*
X017180Y021920D01*
X018180Y021920D02*
X018180Y022440D01*
X019180Y022440D02*
X019180Y021920D01*
X020180Y021920D02*
X020180Y022440D01*
X021180Y022440D02*
X021180Y021920D01*
X022180Y021920D02*
X022180Y022440D01*
X023180Y022440D02*
X023180Y021920D01*
X024180Y021920D02*
X024180Y022440D01*
X025180Y022440D02*
X025180Y021920D01*
X026180Y021920D02*
X026180Y022440D01*
X027180Y022440D02*
X027180Y021920D01*
X028180Y021920D02*
X028180Y022440D01*
X029180Y022440D02*
X029180Y021920D01*
X030180Y021920D02*
X030180Y022440D01*
X031180Y022440D02*
X031180Y021920D01*
X032180Y021920D02*
X032180Y022440D01*
X033180Y022440D02*
X033180Y021920D01*
X034180Y021920D02*
X034180Y022440D01*
X035180Y022440D02*
X035180Y021920D01*
X035180Y016440D02*
X035180Y015920D01*
X034180Y015920D02*
X034180Y016440D01*
X033180Y016440D02*
X033180Y015920D01*
X032180Y015920D02*
X032180Y016440D01*
X031180Y016440D02*
X031180Y015920D01*
X030180Y015920D02*
X030180Y016440D01*
X029180Y016440D02*
X029180Y015920D01*
X028180Y015920D02*
X028180Y016440D01*
X027180Y016440D02*
X027180Y015920D01*
X026180Y015920D02*
X026180Y016440D01*
X025180Y016440D02*
X025180Y015920D01*
X024180Y015920D02*
X024180Y016440D01*
X023180Y016440D02*
X023180Y015920D01*
X022180Y015920D02*
X022180Y016440D01*
X021180Y016440D02*
X021180Y015920D01*
X020180Y015920D02*
X020180Y016440D01*
X019180Y016440D02*
X019180Y015920D01*
X018180Y015920D02*
X018180Y016440D01*
X017180Y016440D02*
X017180Y015920D01*
X016180Y015920D02*
X016180Y016440D01*
X015180Y016440D02*
X015180Y015920D01*
X014180Y015920D02*
X014180Y016440D01*
X013180Y016440D02*
X013180Y015920D01*
X012180Y015920D02*
X012180Y016440D01*
X013180Y011940D02*
X013180Y011420D01*
X014180Y011420D02*
X014180Y011940D01*
X015180Y011940D02*
X015180Y011420D01*
X016180Y011420D02*
X016180Y011940D01*
X017180Y011940D02*
X017180Y011420D01*
X018180Y011420D02*
X018180Y011940D01*
X019180Y011940D02*
X019180Y011420D01*
X020180Y011420D02*
X020180Y011940D01*
X021180Y011940D02*
X021180Y011420D01*
X022180Y011420D02*
X022180Y011940D01*
X024180Y012920D02*
X024180Y013440D01*
X025180Y013440D02*
X025180Y012920D01*
X026180Y012920D02*
X026180Y013440D01*
X027180Y013440D02*
X027180Y012920D01*
X028180Y012920D02*
X028180Y013440D01*
X029180Y013440D02*
X029180Y012920D01*
X030180Y012920D02*
X030180Y013440D01*
X031180Y013440D02*
X031180Y012920D01*
X034420Y012180D02*
X034940Y012180D01*
X034940Y011180D02*
X034420Y011180D01*
X034420Y010180D02*
X034940Y010180D01*
X034940Y009180D02*
X034420Y009180D01*
X034420Y008180D02*
X034940Y008180D01*
X034940Y007180D02*
X034420Y007180D01*
X034420Y006180D02*
X034940Y006180D01*
X034940Y005180D02*
X034420Y005180D01*
X037420Y005180D02*
X037940Y005180D01*
X037940Y006180D02*
X037420Y006180D01*
X037420Y007180D02*
X037940Y007180D01*
X037940Y008180D02*
X037420Y008180D01*
X037420Y009180D02*
X037940Y009180D01*
X037940Y010180D02*
X037420Y010180D01*
X037420Y011180D02*
X037940Y011180D01*
X037940Y012180D02*
X037420Y012180D01*
X032180Y009440D02*
X032180Y008920D01*
X031180Y008920D02*
X031180Y009440D01*
X031180Y009920D02*
X031180Y010440D01*
X030180Y010440D02*
X030180Y009920D01*
X030180Y009440D02*
X030180Y008920D01*
X029180Y008920D02*
X029180Y009440D01*
X029180Y009920D02*
X029180Y010440D01*
X028180Y010440D02*
X028180Y009920D01*
X028180Y009440D02*
X028180Y008920D01*
X027180Y008920D02*
X027180Y009440D01*
X027180Y009920D02*
X027180Y010440D01*
X026180Y010440D02*
X026180Y009920D01*
X026180Y009440D02*
X026180Y008920D01*
X025180Y008920D02*
X025180Y009440D01*
X025180Y009920D02*
X025180Y010440D01*
X024180Y010440D02*
X024180Y009920D01*
X024180Y009440D02*
X024180Y008920D01*
X022180Y008940D02*
X022180Y008420D01*
X021180Y008420D02*
X021180Y008940D01*
X020180Y008940D02*
X020180Y008420D01*
X019180Y008420D02*
X019180Y008940D01*
X018180Y008940D02*
X018180Y008420D01*
X017180Y008420D02*
X017180Y008940D01*
X016180Y008940D02*
X016180Y008420D01*
X015180Y008420D02*
X015180Y008940D01*
X014180Y008940D02*
X014180Y008420D01*
X013180Y008420D02*
X013180Y008940D01*
D17*
X010475Y027349D03*
D18*
X011475Y027349D03*
X012475Y027349D03*
X013475Y027349D03*
X014475Y027349D03*
X015475Y027349D03*
X016475Y027349D03*
X017475Y027349D03*
X018475Y027349D03*
X019475Y027349D03*
X020475Y027349D03*
X021475Y027349D03*
X022475Y027349D03*
X023475Y027349D03*
X024475Y027349D03*
X025475Y027349D03*
X026475Y027349D03*
X027475Y027349D03*
X028475Y027349D03*
X029475Y027349D03*
X029475Y028349D03*
X028475Y028349D03*
X027475Y028349D03*
X026475Y028349D03*
X025475Y028349D03*
X024475Y028349D03*
X023475Y028349D03*
X022475Y028349D03*
X021475Y028349D03*
X020475Y028349D03*
X019475Y028349D03*
X018475Y028349D03*
X017475Y028349D03*
X016475Y028349D03*
X015475Y028349D03*
X014475Y028349D03*
X013475Y028349D03*
X012475Y028349D03*
X011475Y028349D03*
X010475Y028349D03*
D19*
X008558Y027849D03*
X031393Y027849D03*
D20*
X005680Y025960D02*
X005680Y025400D01*
X004680Y025400D02*
X004680Y025960D01*
X001960Y024180D02*
X001400Y024180D01*
X001400Y023180D02*
X001960Y023180D01*
X001960Y021180D02*
X001400Y021180D01*
X001400Y020180D02*
X001960Y020180D01*
X001960Y010680D02*
X001400Y010680D01*
X001400Y009680D02*
X001960Y009680D01*
X009900Y009680D02*
X010460Y009680D01*
X010460Y008680D02*
X009900Y008680D01*
D21*
X007680Y010180D03*
D22*
X007680Y012180D03*
D23*
X040180Y004680D03*
X040180Y026930D03*
D24*
X005680Y027880D02*
X005680Y028480D01*
X004680Y028480D02*
X004680Y027880D01*
X003680Y027880D02*
X003680Y028480D01*
X002680Y028480D02*
X002680Y027880D01*
X001680Y027880D02*
X001680Y028480D01*
D25*
X007805Y024368D02*
X009993Y026555D01*
X009993Y027805D01*
X010055Y027868D01*
X010680Y027868D01*
X010993Y028180D01*
X010993Y028805D01*
X011993Y028555D02*
X011993Y028180D01*
X011680Y027868D01*
X011305Y027868D01*
X010993Y027555D01*
X010993Y026930D01*
X007993Y023930D01*
X007993Y023055D01*
X004930Y019993D01*
X004930Y019805D01*
X004430Y019868D02*
X007805Y023243D01*
X007805Y024368D01*
X008180Y023805D02*
X009024Y024649D01*
X009118Y024555D01*
X009024Y024649D02*
X011430Y027055D01*
X011430Y027305D01*
X011475Y027349D01*
X012430Y027305D02*
X012475Y027349D01*
X012430Y027305D02*
X009149Y024024D01*
X009118Y024055D01*
X009149Y024024D02*
X008680Y023555D01*
X008680Y022680D01*
X008680Y022118D02*
X008555Y022118D01*
X008680Y022118D02*
X013430Y026868D01*
X013430Y027305D01*
X013475Y027349D01*
X013930Y027118D02*
X013993Y027180D01*
X013993Y027805D01*
X013493Y028305D01*
X013475Y028349D01*
X012993Y028555D02*
X013305Y028868D01*
X013680Y028868D01*
X013993Y028555D01*
X013993Y028118D01*
X014243Y027868D01*
X019993Y027868D01*
X020430Y028305D01*
X020475Y028349D01*
X019868Y028930D02*
X023618Y028930D01*
X023993Y028555D01*
X023993Y027805D01*
X024430Y027368D01*
X024475Y027349D01*
X025680Y025930D02*
X023180Y023430D01*
X023180Y022180D01*
X023055Y021493D02*
X022368Y022180D01*
X022180Y022180D01*
X021180Y022180D02*
X021180Y022930D01*
X018368Y025743D01*
X017618Y025368D02*
X016993Y025368D01*
X014743Y023118D01*
X014743Y021930D01*
X014055Y021243D01*
X010118Y021243D01*
X008555Y019680D01*
X008180Y020180D02*
X003430Y015430D01*
X003930Y015430D02*
X007493Y018993D01*
X009493Y018993D01*
X009618Y018618D02*
X010243Y019243D01*
X010243Y019743D01*
X010493Y019993D01*
X016993Y019993D01*
X017493Y019993D02*
X017493Y020555D01*
X017555Y020618D01*
X017555Y020993D01*
X016618Y021930D01*
X016618Y023555D01*
X016305Y023868D01*
X015743Y023805D02*
X016930Y024993D01*
X018118Y024993D01*
X017805Y024618D02*
X018618Y023805D01*
X018618Y020618D01*
X017618Y019618D01*
X011118Y019618D01*
X010618Y019618D02*
X010618Y018868D01*
X008743Y016993D01*
X007993Y016993D01*
X007993Y017555D02*
X004430Y013993D01*
X004930Y015430D02*
X008118Y018618D01*
X009618Y018618D01*
X009243Y019493D02*
X009243Y020055D01*
X010243Y021055D01*
X014868Y021055D01*
X015743Y021930D01*
X015743Y023805D01*
X014180Y022868D02*
X017055Y025743D01*
X017305Y025743D01*
X017118Y026118D02*
X020055Y026118D01*
X020243Y025930D01*
X017118Y026118D02*
X013180Y022180D01*
X014180Y022180D02*
X014180Y022868D01*
X015118Y025055D02*
X013930Y026243D01*
X013930Y027118D01*
X012993Y027180D02*
X012993Y028555D01*
X012493Y029055D02*
X011993Y028555D01*
X012993Y027180D02*
X011743Y025930D01*
X008868Y025930D02*
X007118Y024180D01*
X008180Y023805D02*
X008180Y021180D01*
X011368Y018868D02*
X009493Y016993D01*
X009118Y016118D02*
X008118Y016118D01*
X007555Y015555D01*
X008055Y015555D02*
X008430Y015930D01*
X009243Y015930D01*
X012743Y019430D01*
X024930Y019430D01*
X026430Y020930D01*
X026118Y021305D02*
X026743Y021930D01*
X026743Y025430D01*
X026743Y025930D02*
X025743Y024930D01*
X025743Y021930D01*
X025305Y021493D01*
X023055Y021493D01*
X021243Y021305D02*
X026118Y021305D01*
X025180Y022180D02*
X023805Y023555D01*
X024743Y024493D02*
X025305Y025055D01*
X024555Y025305D02*
X023805Y025305D01*
X023180Y025930D01*
X018055Y029243D02*
X015368Y029243D01*
X014493Y028368D01*
X014475Y028349D01*
X019180Y022180D02*
X020243Y021118D01*
X021243Y021305D02*
X020368Y022180D01*
X020180Y022180D01*
X025055Y019055D02*
X028180Y022180D01*
X030180Y022180D02*
X027243Y019243D01*
X027868Y018868D02*
X031180Y022180D01*
X031493Y018493D02*
X013555Y018493D01*
X012680Y019055D02*
X025055Y019055D01*
X023305Y016868D02*
X011430Y016868D01*
X006868Y012305D01*
X006368Y012305D02*
X011305Y017243D01*
X021118Y017243D01*
X023305Y016868D02*
X023993Y016180D01*
X024180Y016180D01*
X026180Y016180D02*
X026180Y015993D01*
X023243Y013055D01*
X023243Y012680D01*
X022180Y011680D02*
X020305Y013555D01*
X020305Y012368D02*
X020180Y012368D01*
X016368Y016180D01*
X016180Y016180D01*
X015180Y016180D02*
X015180Y015180D01*
X014618Y014618D01*
X014618Y011305D01*
X013555Y010243D01*
X011180Y010243D01*
X011118Y010305D01*
X010805Y010305D01*
X010180Y009680D01*
X010493Y009118D02*
X009743Y009118D01*
X009430Y008805D01*
X009430Y006430D01*
X009680Y006180D01*
X009680Y005180D02*
X009680Y002180D01*
X008680Y002180D02*
X008680Y005180D01*
X007680Y005180D02*
X007680Y002180D01*
X006680Y002180D02*
X006680Y005180D01*
X005680Y005180D02*
X005680Y002180D01*
X004680Y002180D02*
X004680Y005180D01*
X005493Y005743D02*
X005118Y006118D01*
X005118Y007243D01*
X006493Y006368D02*
X006680Y006180D01*
X006493Y006368D02*
X006493Y010430D01*
X006868Y010118D02*
X006868Y009430D01*
X006805Y009368D01*
X006805Y008805D01*
X007805Y007805D01*
X008555Y007055D02*
X007680Y006180D01*
X008555Y007055D02*
X008555Y009805D01*
X009243Y010493D01*
X009243Y010993D01*
X009118Y011930D02*
X009055Y011930D01*
X007993Y010868D01*
X005243Y010868D01*
X001680Y007305D01*
X001680Y006180D01*
X002680Y006180D02*
X002680Y007055D01*
X004680Y009055D01*
X004680Y009805D01*
X006118Y011243D02*
X008055Y011243D01*
X008868Y012055D01*
X008868Y012180D01*
X009430Y012743D01*
X009868Y012743D01*
X010180Y013118D02*
X009430Y013118D01*
X008493Y012180D01*
X009118Y011930D02*
X009555Y012368D01*
X010368Y011118D02*
X008930Y009680D01*
X010180Y008680D02*
X010180Y007680D01*
X011680Y006180D01*
X012118Y006243D02*
X012118Y005993D01*
X011868Y005743D01*
X005493Y005743D01*
X002680Y005180D02*
X002680Y002180D01*
X010680Y002180D02*
X010680Y005180D01*
X011680Y005180D02*
X011680Y002180D01*
X012680Y002180D02*
X012680Y005180D01*
X013680Y005180D02*
X013680Y002180D01*
X014680Y002180D02*
X014680Y005180D01*
X015680Y005180D02*
X015680Y002180D01*
X016680Y002180D02*
X016680Y005180D01*
X016493Y005743D02*
X019243Y005743D01*
X019680Y006180D01*
X020243Y006368D02*
X020243Y005618D01*
X020680Y005180D01*
X020680Y002180D01*
X019680Y002180D02*
X019680Y005180D01*
X018680Y005180D02*
X018680Y002180D01*
X017680Y002180D02*
X017680Y005180D01*
X016493Y005743D02*
X016243Y005993D01*
X016243Y006368D01*
X016680Y006805D01*
X017118Y006805D01*
X018618Y008305D01*
X018618Y009368D01*
X018180Y009805D01*
X018180Y010180D01*
X017993Y009493D02*
X017180Y009493D01*
X016618Y008930D01*
X016618Y007618D01*
X016243Y007243D01*
X016180Y007680D02*
X014680Y006180D01*
X015680Y006180D02*
X018180Y008680D01*
X019993Y008680D02*
X017930Y006618D01*
X017118Y006618D01*
X016680Y006180D01*
X015305Y007305D02*
X015618Y007618D01*
X015618Y008930D01*
X016618Y009930D01*
X016118Y010618D02*
X016243Y010743D01*
X019743Y010743D01*
X021118Y009368D01*
X021305Y009368D01*
X021618Y009055D01*
X021618Y007118D01*
X020680Y006180D01*
X020243Y006368D02*
X020618Y006743D01*
X020618Y009305D01*
X020180Y008680D02*
X019993Y008680D01*
X020618Y010180D02*
X024180Y010180D01*
X023930Y010993D02*
X025368Y010993D01*
X026180Y010180D01*
X027180Y010180D02*
X025993Y011368D01*
X023805Y011368D01*
X023430Y010993D01*
X022055Y010993D01*
X021368Y011680D01*
X021180Y011680D01*
X020618Y012055D02*
X020305Y012368D01*
X020618Y012055D02*
X020618Y010680D01*
X020618Y010180D02*
X019868Y010930D01*
X016118Y010930D01*
X015368Y011680D01*
X015180Y011680D01*
X015680Y012243D02*
X017743Y014305D01*
X018243Y013555D02*
X017180Y012493D01*
X016618Y013930D02*
X015180Y012493D01*
X014180Y011680D02*
X014180Y014430D01*
X013555Y015055D01*
X014993Y014493D02*
X016493Y014493D01*
X013180Y016180D02*
X013180Y012493D01*
X013618Y012055D01*
X013618Y010805D01*
X014305Y010680D02*
X013555Y009930D01*
X010993Y009930D01*
X010930Y009555D02*
X010493Y009118D01*
X010930Y009555D02*
X014618Y009555D01*
X013180Y008680D02*
X013180Y007305D01*
X012118Y006243D01*
X016180Y007680D02*
X016180Y008680D01*
X016118Y010618D02*
X015930Y010618D01*
X014993Y010680D02*
X014305Y010680D01*
X012618Y011555D02*
X012180Y011118D01*
X010368Y011118D01*
X012618Y011555D02*
X012618Y011930D01*
X012805Y012118D01*
X012805Y013118D01*
X009180Y015555D02*
X012680Y019055D01*
X012055Y019055D02*
X012055Y019243D01*
X012055Y019055D02*
X009118Y016118D01*
X009180Y015555D02*
X008555Y015555D01*
X003680Y020180D02*
X001680Y020180D01*
X023680Y006180D02*
X025868Y008368D01*
X026180Y008368D01*
X027618Y008805D02*
X024993Y006180D01*
X024680Y006180D01*
X024680Y005180D02*
X024680Y002180D01*
X023680Y002180D02*
X023680Y005180D01*
X021680Y005180D02*
X021680Y002180D01*
X025680Y002180D02*
X025680Y005180D01*
X026055Y004930D02*
X026118Y004993D01*
X026118Y006555D01*
X026086Y006586D01*
X026118Y006618D01*
X028118Y006618D01*
X029680Y006180D02*
X030618Y007118D01*
X030618Y010680D01*
X033180Y013243D01*
X033180Y016180D01*
X034743Y015805D02*
X034743Y017368D01*
X038118Y020743D01*
X038121Y020771D01*
X034743Y015805D02*
X036118Y014430D01*
X036118Y012930D01*
X037305Y011743D01*
X037930Y011743D01*
X038368Y011305D01*
X038368Y011055D01*
X037680Y010368D01*
X037680Y010180D01*
X034180Y012743D02*
X032618Y011180D01*
X032618Y008118D01*
X030680Y006180D01*
X030680Y005180D02*
X030680Y002180D01*
X028680Y002180D02*
X028680Y005180D01*
X027680Y005180D02*
X027680Y002180D01*
X026680Y002180D02*
X026680Y005180D01*
X026055Y004930D02*
X026055Y004680D01*
X025680Y006180D02*
X026086Y006586D01*
X027618Y008805D02*
X027618Y013430D01*
X028180Y013993D01*
X028180Y016180D01*
X027180Y016180D02*
X027180Y013993D01*
X026743Y013555D01*
X026743Y011118D01*
X029618Y013430D02*
X029618Y008305D01*
X029180Y007868D01*
X029618Y013430D02*
X030180Y013993D01*
X030180Y016180D01*
D26*
X031493Y018493D03*
X027868Y018868D03*
X027243Y019243D03*
X026430Y020930D03*
X023805Y023555D03*
X024743Y024493D03*
X025305Y025055D03*
X024555Y025305D03*
X025680Y025930D03*
X026743Y025930D03*
X026743Y025430D03*
X023180Y025930D03*
X020243Y025930D03*
X018368Y025743D03*
X017618Y025368D03*
X018118Y024993D03*
X017805Y024618D03*
X016305Y023868D03*
X015118Y025055D03*
X014305Y026368D03*
X011743Y025930D03*
X009118Y024555D03*
X009118Y024055D03*
X007118Y024180D03*
X008868Y025930D03*
X010993Y028805D03*
X012493Y029055D03*
X017305Y025743D03*
X019868Y028930D03*
X018055Y029243D03*
X008555Y022118D03*
X008180Y020180D03*
X008555Y019680D03*
X009243Y019493D03*
X009493Y018993D03*
X010618Y019618D03*
X011118Y019618D03*
X011368Y018868D03*
X012055Y019243D03*
X013555Y018493D03*
X016993Y019993D03*
X017493Y019993D03*
X020243Y021118D03*
X021118Y017243D03*
X017743Y014305D03*
X018243Y013555D03*
X017180Y012493D03*
X015680Y012243D03*
X015180Y012493D03*
X016618Y013930D03*
X016493Y014493D03*
X014993Y014493D03*
X013555Y015055D03*
X012805Y013118D03*
X010180Y013118D03*
X009868Y012743D03*
X009555Y012368D03*
X008493Y012180D03*
X006868Y012305D03*
X006368Y012305D03*
X006118Y011243D03*
X006493Y010430D03*
X006868Y010118D03*
X008930Y009680D03*
X009243Y010993D03*
X010993Y009930D03*
X013618Y010805D03*
X014993Y010680D03*
X015930Y010618D03*
X016618Y009930D03*
X017993Y009493D03*
X018180Y010180D03*
X020618Y010680D03*
X020618Y009305D03*
X023930Y010993D03*
X023243Y012680D03*
X020305Y013555D03*
X026743Y011118D03*
X026180Y008368D03*
X028118Y006618D03*
X029180Y007868D03*
X026055Y004680D03*
X016243Y007243D03*
X015305Y007305D03*
X014618Y009555D03*
X007805Y007805D03*
X005118Y007243D03*
X004680Y009805D03*
X004430Y013993D03*
X003930Y015430D03*
X003430Y015430D03*
X004930Y015430D03*
X007555Y015555D03*
X008055Y015555D03*
X008555Y015555D03*
X007993Y016993D03*
X007993Y017555D03*
X009493Y016993D03*
X004930Y019805D03*
X004430Y019868D03*
X031993Y011555D03*
X034180Y012743D03*
D27*
X034555Y013680D02*
X034680Y013680D01*
X037180Y011180D01*
X037680Y011180D01*
X038680Y010680D02*
X038680Y007680D01*
X034680Y005180D02*
X031680Y005180D01*
X031680Y002180D01*
X029680Y002180D02*
X029680Y005180D01*
X029618Y005243D01*
X029618Y005555D01*
X029180Y005993D01*
X029180Y007305D01*
X028680Y007805D01*
X028680Y012680D01*
X028180Y013180D01*
X031993Y011555D02*
X032180Y011368D01*
X032180Y011305D01*
X034555Y013680D01*
X035680Y013680D02*
X033680Y015680D01*
X033680Y019743D01*
X031680Y021743D01*
X031680Y022618D01*
X027930Y026368D01*
X014305Y026368D01*
X015243Y026805D02*
X014743Y027305D01*
X014493Y027305D01*
X014475Y027349D01*
X015243Y026805D02*
X021930Y026805D01*
X021993Y026868D01*
X022055Y026805D01*
X028743Y026805D01*
X029243Y027305D01*
X029430Y027305D01*
X029475Y027349D01*
X029555Y027305D01*
X030430Y026430D01*
X040118Y026430D01*
X040180Y026930D01*
X040180Y023055D01*
X038680Y021555D01*
X038680Y018055D01*
X038180Y017555D01*
X038121Y017499D01*
X038118Y017493D01*
X036493Y017493D01*
X035180Y016180D01*
X032180Y011305D02*
X032180Y009180D01*
X022680Y005180D02*
X022680Y002180D01*
X022680Y005180D02*
X022180Y005680D01*
X022180Y008680D01*
X012180Y011680D02*
X009180Y011680D01*
X007680Y010180D01*
X006993Y011868D02*
X001680Y011868D01*
X001680Y011243D01*
X001743Y011243D01*
X003180Y009805D01*
X003180Y009555D01*
X001180Y007555D01*
X001180Y005993D01*
X001618Y005555D01*
X001618Y005243D01*
X001680Y005180D01*
X001680Y002180D01*
X003680Y002180D02*
X003680Y005180D01*
X003743Y005243D01*
X003743Y005555D01*
X004180Y005993D01*
X004180Y008180D01*
X005680Y009680D01*
X006993Y011868D02*
X007305Y012180D01*
X007680Y012180D01*
X001680Y011868D02*
X001680Y017680D01*
X001680Y018680D02*
X006118Y018680D01*
X008118Y020680D01*
X008680Y020680D01*
X010680Y022680D01*
X011180Y022180D01*
X012180Y022180D01*
X005680Y025680D02*
X005680Y026993D01*
X007993Y029305D01*
X009493Y029305D01*
X010430Y028368D01*
X010475Y028349D01*
X004680Y025680D02*
X004180Y025680D01*
X001680Y028180D01*
X001680Y024180D02*
X003680Y022180D01*
X003680Y021180D01*
X001680Y011243D02*
X001680Y010680D01*
X021993Y026868D02*
X022430Y027305D01*
X022475Y027349D01*
D28*
X022457Y027331D02*
X022494Y027331D01*
X022494Y026819D01*
X022517Y026819D01*
X022599Y026832D01*
X022679Y026858D01*
X022753Y026896D01*
X022821Y026945D01*
X022880Y027004D01*
X022929Y027072D01*
X022966Y027146D01*
X022985Y027201D01*
X023043Y027060D01*
X023186Y026917D01*
X023374Y026839D01*
X023577Y026839D01*
X023764Y026917D01*
X023908Y027060D01*
X023975Y027224D01*
X024043Y027060D01*
X024186Y026917D01*
X024374Y026839D01*
X024577Y026839D01*
X024764Y026917D01*
X024908Y027060D01*
X024975Y027224D01*
X025043Y027060D01*
X025186Y026917D01*
X025374Y026839D01*
X025577Y026839D01*
X025764Y026917D01*
X025908Y027060D01*
X025975Y027224D01*
X026043Y027060D01*
X026186Y026917D01*
X026374Y026839D01*
X026577Y026839D01*
X026764Y026917D01*
X026908Y027060D01*
X026975Y027224D01*
X027043Y027060D01*
X027186Y026917D01*
X027374Y026839D01*
X027577Y026839D01*
X027764Y026917D01*
X027908Y027060D01*
X027975Y027224D01*
X028043Y027060D01*
X028186Y026917D01*
X028374Y026839D01*
X028577Y026839D01*
X028764Y026917D01*
X028908Y027060D01*
X028966Y027201D01*
X028984Y027146D01*
X029022Y027072D01*
X029071Y027004D01*
X029130Y026945D01*
X029197Y026896D01*
X029272Y026858D01*
X029351Y026832D01*
X029434Y026819D01*
X029457Y026819D01*
X029457Y027331D01*
X029494Y027331D01*
X029494Y027368D01*
X030005Y027368D01*
X030005Y027391D01*
X029992Y027473D01*
X029966Y027553D01*
X029929Y027627D01*
X029880Y027695D01*
X029821Y027754D01*
X029753Y027803D01*
X029679Y027840D01*
X029623Y027859D01*
X029764Y027917D01*
X029908Y028060D01*
X029985Y028248D01*
X029985Y028451D01*
X029908Y028638D01*
X029764Y028782D01*
X029577Y028859D01*
X029374Y028859D01*
X029186Y028782D01*
X029043Y028638D01*
X028975Y028475D01*
X028908Y028638D01*
X028764Y028782D01*
X028577Y028859D01*
X028374Y028859D01*
X028186Y028782D01*
X028043Y028638D01*
X027975Y028475D01*
X027908Y028638D01*
X027764Y028782D01*
X027577Y028859D01*
X027374Y028859D01*
X027186Y028782D01*
X027043Y028638D01*
X026975Y028475D01*
X026908Y028638D01*
X026764Y028782D01*
X026577Y028859D01*
X026374Y028859D01*
X026186Y028782D01*
X026043Y028638D01*
X025975Y028475D01*
X025908Y028638D01*
X025764Y028782D01*
X025577Y028859D01*
X025374Y028859D01*
X025186Y028782D01*
X025043Y028638D01*
X024975Y028475D01*
X024908Y028638D01*
X024764Y028782D01*
X024577Y028859D01*
X024374Y028859D01*
X024186Y028782D01*
X024125Y028720D01*
X024079Y028765D01*
X023704Y029140D01*
X020167Y029140D01*
X020071Y029235D01*
X019939Y029290D01*
X019796Y029290D01*
X019664Y029235D01*
X019562Y029134D01*
X019508Y029002D01*
X019508Y029003D02*
X018324Y029003D01*
X018360Y029039D02*
X018415Y029171D01*
X018415Y029314D01*
X018379Y029400D01*
X041400Y029400D01*
X041400Y004680D01*
X030890Y004680D01*
X030890Y004739D01*
X031140Y004989D01*
X031140Y005371D01*
X030871Y005640D01*
X030489Y005640D01*
X030220Y005371D01*
X030220Y004989D01*
X030470Y004739D01*
X030470Y004680D01*
X029940Y004680D01*
X029940Y004789D01*
X030140Y004989D01*
X030140Y005371D01*
X029871Y005640D01*
X029864Y005640D01*
X029838Y005702D01*
X029820Y005720D01*
X029871Y005720D01*
X030140Y005989D01*
X030140Y006343D01*
X030827Y007031D01*
X030827Y008679D01*
X030942Y008564D01*
X031096Y008500D01*
X031264Y008500D01*
X031418Y008564D01*
X031536Y008682D01*
X031600Y008836D01*
X031600Y009524D01*
X031536Y009678D01*
X031534Y009680D01*
X031536Y009682D01*
X031600Y009836D01*
X031600Y010524D01*
X031536Y010678D01*
X031418Y010796D01*
X031264Y010860D01*
X031096Y010860D01*
X031093Y010859D01*
X033390Y013156D01*
X033390Y015552D01*
X033418Y015564D01*
X033438Y015584D01*
X033460Y015533D01*
X033533Y015460D01*
X035260Y013732D01*
X035260Y013506D01*
X035506Y013260D01*
X035854Y013260D01*
X035908Y013314D01*
X035908Y012843D01*
X036031Y012720D01*
X037193Y011558D01*
X037189Y011556D01*
X037133Y011516D01*
X037084Y011467D01*
X037044Y011411D01*
X037012Y011349D01*
X036991Y011283D01*
X036980Y011215D01*
X036980Y011180D01*
X037680Y011180D01*
X037680Y010740D01*
X037756Y010740D01*
X037616Y010600D01*
X037336Y010600D01*
X037182Y010536D01*
X037064Y010418D01*
X037000Y010264D01*
X037000Y010096D01*
X037064Y009942D01*
X037182Y009824D01*
X035178Y009824D01*
X035296Y009942D01*
X035360Y010096D01*
X035360Y010264D01*
X035296Y010418D01*
X035178Y010536D01*
X035024Y010600D01*
X034336Y010600D01*
X034182Y010536D01*
X034064Y010418D01*
X034000Y010264D01*
X034000Y010096D01*
X034064Y009942D01*
X034182Y009824D01*
X032827Y009824D01*
X032827Y009666D02*
X041400Y009666D01*
X041400Y009824D02*
X038178Y009824D01*
X038296Y009942D01*
X038360Y010096D01*
X038360Y010264D01*
X038296Y010418D01*
X038178Y010536D01*
X038155Y010546D01*
X038240Y010631D01*
X038240Y010498D01*
X038498Y010240D01*
X038680Y010240D01*
X038862Y010240D01*
X039120Y010498D01*
X039120Y010680D01*
X039120Y010862D01*
X038862Y011120D01*
X038680Y011120D01*
X038680Y010680D01*
X038680Y010680D01*
X039120Y010680D01*
X038680Y010680D01*
X038680Y010680D01*
X038680Y011120D01*
X038577Y011120D01*
X038577Y011260D01*
X038854Y011260D01*
X039100Y011506D01*
X039100Y011854D01*
X038854Y012100D01*
X038506Y012100D01*
X038260Y011854D01*
X038260Y011709D01*
X038155Y011814D01*
X038178Y011824D01*
X038296Y011942D01*
X038360Y012096D01*
X038360Y012264D01*
X038296Y012418D01*
X038178Y012536D01*
X038024Y012600D01*
X037336Y012600D01*
X037182Y012536D01*
X037064Y012418D01*
X037024Y012321D01*
X036327Y013017D01*
X036327Y014517D01*
X035336Y015508D01*
X035349Y015512D01*
X035411Y015544D01*
X035467Y015584D01*
X035516Y015633D01*
X035556Y015689D01*
X035588Y015751D01*
X035609Y015817D01*
X035620Y015885D01*
X035620Y016180D01*
X035620Y016475D01*
X035609Y016543D01*
X035588Y016609D01*
X035556Y016671D01*
X035516Y016727D01*
X035467Y016776D01*
X035411Y016816D01*
X035349Y016848D01*
X035283Y016869D01*
X035215Y016880D01*
X035180Y016880D01*
X035180Y016180D01*
X035180Y016180D01*
X035620Y016180D01*
X035180Y016180D01*
X035180Y016180D01*
X035180Y016880D01*
X035145Y016880D01*
X035077Y016869D01*
X035011Y016848D01*
X034952Y016818D01*
X034952Y017281D01*
X037943Y020271D01*
X038016Y020241D01*
X038226Y020241D01*
X038421Y020321D01*
X038570Y020470D01*
X038651Y020665D01*
X038651Y020876D01*
X038570Y021071D01*
X038421Y021220D01*
X038226Y021301D01*
X038016Y021301D01*
X037821Y021220D01*
X037672Y021071D01*
X037591Y020876D01*
X037591Y020665D01*
X037636Y020558D01*
X034533Y017454D01*
X034533Y016681D01*
X034418Y016796D01*
X034264Y016860D01*
X034096Y016860D01*
X033942Y016796D01*
X033940Y016794D01*
X033940Y019794D01*
X033900Y019890D01*
X032282Y021508D01*
X032418Y021564D01*
X032536Y021682D01*
X032600Y021836D01*
X032600Y022524D01*
X032536Y022678D01*
X032418Y022796D01*
X032264Y022860D01*
X032096Y022860D01*
X031942Y022796D01*
X031903Y022757D01*
X031900Y022765D01*
X031827Y022838D01*
X028150Y026515D01*
X028077Y026588D01*
X027982Y026627D01*
X014554Y026627D01*
X014509Y026673D01*
X014377Y026727D01*
X014233Y026727D01*
X014140Y026689D01*
X014140Y026938D01*
X014197Y026896D01*
X014272Y026858D01*
X014351Y026832D01*
X014434Y026819D01*
X014457Y026819D01*
X014457Y027331D01*
X014494Y027331D01*
X014494Y026819D01*
X014517Y026819D01*
X014599Y026832D01*
X014679Y026858D01*
X014753Y026896D01*
X014821Y026945D01*
X014880Y027004D01*
X014929Y027072D01*
X014966Y027146D01*
X014985Y027201D01*
X015043Y027060D01*
X015186Y026917D01*
X015374Y026839D01*
X015577Y026839D01*
X015764Y026917D01*
X015908Y027060D01*
X015975Y027224D01*
X016043Y027060D01*
X016186Y026917D01*
X016374Y026839D01*
X016577Y026839D01*
X016764Y026917D01*
X016908Y027060D01*
X016975Y027224D01*
X017043Y027060D01*
X017186Y026917D01*
X017374Y026839D01*
X017577Y026839D01*
X017764Y026917D01*
X017908Y027060D01*
X017975Y027224D01*
X018043Y027060D01*
X018186Y026917D01*
X018374Y026839D01*
X018577Y026839D01*
X018764Y026917D01*
X018908Y027060D01*
X018975Y027224D01*
X019043Y027060D01*
X019186Y026917D01*
X019374Y026839D01*
X019577Y026839D01*
X019764Y026917D01*
X019908Y027060D01*
X019975Y027224D01*
X020043Y027060D01*
X020186Y026917D01*
X020374Y026839D01*
X020577Y026839D01*
X020764Y026917D01*
X020908Y027060D01*
X020975Y027224D01*
X021043Y027060D01*
X021186Y026917D01*
X021374Y026839D01*
X021577Y026839D01*
X021764Y026917D01*
X021908Y027060D01*
X021966Y027201D01*
X021984Y027146D01*
X022022Y027072D01*
X022071Y027004D01*
X022130Y026945D01*
X022197Y026896D01*
X022272Y026858D01*
X022351Y026832D01*
X022434Y026819D01*
X022457Y026819D01*
X022457Y027331D01*
X022457Y027259D02*
X022494Y027259D01*
X022494Y027101D02*
X022457Y027101D01*
X022457Y026942D02*
X022494Y026942D01*
X022816Y026942D02*
X023161Y026942D01*
X023026Y027101D02*
X022943Y027101D01*
X022134Y026942D02*
X021789Y026942D01*
X021924Y027101D02*
X022007Y027101D01*
X021161Y026942D02*
X020789Y026942D01*
X020924Y027101D02*
X021026Y027101D01*
X020161Y026942D02*
X019789Y026942D01*
X019924Y027101D02*
X020026Y027101D01*
X019161Y026942D02*
X018789Y026942D01*
X018924Y027101D02*
X019026Y027101D01*
X018161Y026942D02*
X017789Y026942D01*
X017924Y027101D02*
X018026Y027101D01*
X017161Y026942D02*
X016789Y026942D01*
X016924Y027101D02*
X017026Y027101D01*
X016161Y026942D02*
X015789Y026942D01*
X015924Y027101D02*
X016026Y027101D01*
X015161Y026942D02*
X014816Y026942D01*
X014943Y027101D02*
X015026Y027101D01*
X014494Y027101D02*
X014457Y027101D01*
X014457Y027259D02*
X014494Y027259D01*
X014494Y026942D02*
X014457Y026942D01*
X014140Y026784D02*
X030506Y026784D01*
X030545Y026745D02*
X030860Y026563D01*
X031211Y026469D01*
X031574Y026469D01*
X031925Y026563D01*
X032240Y026745D01*
X032497Y027002D01*
X032679Y027316D01*
X032773Y027668D01*
X032773Y028031D01*
X032679Y028382D01*
X032497Y028697D01*
X032240Y028954D01*
X031925Y029136D01*
X031574Y029230D01*
X031211Y029230D01*
X030860Y029136D01*
X030545Y028954D01*
X030288Y028697D01*
X030106Y028382D01*
X030012Y028031D01*
X030012Y027668D01*
X030106Y027316D01*
X030288Y027002D01*
X030545Y026745D01*
X030752Y026625D02*
X027988Y026625D01*
X028150Y026515D02*
X028150Y026515D01*
X028199Y026467D02*
X041400Y026467D01*
X041400Y026625D02*
X032033Y026625D01*
X032279Y026784D02*
X041400Y026784D01*
X041400Y026942D02*
X032438Y026942D01*
X032554Y027101D02*
X041400Y027101D01*
X041400Y027259D02*
X032646Y027259D01*
X032706Y027418D02*
X041400Y027418D01*
X041400Y027576D02*
X032749Y027576D01*
X032773Y027735D02*
X041400Y027735D01*
X041400Y027893D02*
X032773Y027893D01*
X032768Y028052D02*
X041400Y028052D01*
X041400Y028210D02*
X032725Y028210D01*
X032683Y028369D02*
X041400Y028369D01*
X041400Y028527D02*
X032595Y028527D01*
X032504Y028686D02*
X041400Y028686D01*
X041400Y028844D02*
X032350Y028844D01*
X032156Y029003D02*
X041400Y029003D01*
X041400Y029161D02*
X031831Y029161D01*
X030954Y029161D02*
X020146Y029161D01*
X019589Y029161D02*
X018411Y029161D01*
X018360Y029039D02*
X018259Y028937D01*
X018127Y028883D01*
X017983Y028883D01*
X017851Y028937D01*
X017756Y029033D01*
X015454Y029033D01*
X015216Y028794D01*
X015374Y028859D01*
X015577Y028859D01*
X015764Y028782D01*
X015908Y028638D01*
X015975Y028475D01*
X016043Y028638D01*
X016186Y028782D01*
X016374Y028859D01*
X016577Y028859D01*
X016764Y028782D01*
X016908Y028638D01*
X016975Y028475D01*
X017043Y028638D01*
X017186Y028782D01*
X017374Y028859D01*
X017577Y028859D01*
X017764Y028782D01*
X017908Y028638D01*
X017975Y028475D01*
X018043Y028638D01*
X018186Y028782D01*
X018374Y028859D01*
X018577Y028859D01*
X018764Y028782D01*
X018908Y028638D01*
X018975Y028475D01*
X019043Y028638D01*
X019186Y028782D01*
X019374Y028859D01*
X019508Y028859D01*
X019508Y029002D01*
X019337Y028844D02*
X018614Y028844D01*
X018337Y028844D02*
X017614Y028844D01*
X017786Y029003D02*
X015425Y029003D01*
X015337Y028844D02*
X015266Y028844D01*
X015614Y028844D02*
X016337Y028844D01*
X016614Y028844D02*
X017337Y028844D01*
X017090Y028686D02*
X016860Y028686D01*
X016954Y028527D02*
X016997Y028527D01*
X017860Y028686D02*
X018090Y028686D01*
X017997Y028527D02*
X017954Y028527D01*
X018860Y028686D02*
X019090Y028686D01*
X018997Y028527D02*
X018954Y028527D01*
X018413Y029320D02*
X041400Y029320D01*
X041400Y026308D02*
X028357Y026308D01*
X028516Y026150D02*
X041400Y026150D01*
X041400Y025991D02*
X028674Y025991D01*
X028833Y025833D02*
X041400Y025833D01*
X041400Y025674D02*
X039142Y025674D01*
X039128Y025682D02*
X038833Y025761D01*
X038527Y025761D01*
X038232Y025682D01*
X037968Y025529D01*
X037752Y025314D01*
X037599Y025049D01*
X037520Y024754D01*
X037520Y024449D01*
X037599Y024154D01*
X037752Y023889D01*
X037968Y023673D01*
X038232Y023520D01*
X038527Y023441D01*
X038833Y023441D01*
X039128Y023520D01*
X039392Y023673D01*
X039608Y023889D01*
X039761Y024154D01*
X039840Y024449D01*
X039840Y024754D01*
X039761Y025049D01*
X039608Y025314D01*
X039392Y025529D01*
X039128Y025682D01*
X039406Y025516D02*
X041400Y025516D01*
X041400Y025357D02*
X039565Y025357D01*
X039675Y025199D02*
X041400Y025199D01*
X041400Y025040D02*
X039763Y025040D01*
X039806Y024882D02*
X041400Y024882D01*
X041400Y024723D02*
X039840Y024723D01*
X039840Y024565D02*
X041400Y024565D01*
X041400Y024406D02*
X039829Y024406D01*
X039786Y024248D02*
X041400Y024248D01*
X041400Y024089D02*
X039724Y024089D01*
X039632Y023931D02*
X041400Y023931D01*
X041400Y023772D02*
X039491Y023772D01*
X039289Y023614D02*
X041400Y023614D01*
X041400Y023455D02*
X038884Y023455D01*
X038476Y023455D02*
X031210Y023455D01*
X031052Y023614D02*
X038071Y023614D01*
X037869Y023772D02*
X030893Y023772D01*
X030735Y023931D02*
X037728Y023931D01*
X037636Y024089D02*
X030576Y024089D01*
X030418Y024248D02*
X037574Y024248D01*
X037531Y024406D02*
X030259Y024406D01*
X030101Y024565D02*
X037520Y024565D01*
X037520Y024723D02*
X029942Y024723D01*
X029784Y024882D02*
X037554Y024882D01*
X037597Y025040D02*
X029625Y025040D01*
X029467Y025199D02*
X037685Y025199D01*
X037795Y025357D02*
X029308Y025357D01*
X029150Y025516D02*
X037954Y025516D01*
X038218Y025674D02*
X028991Y025674D01*
X029494Y026819D02*
X029517Y026819D01*
X029599Y026832D01*
X029679Y026858D01*
X029753Y026896D01*
X029821Y026945D01*
X029880Y027004D01*
X029929Y027072D01*
X029966Y027146D01*
X029992Y027225D01*
X030005Y027308D01*
X030005Y027331D01*
X029494Y027331D01*
X029494Y026819D01*
X029494Y026942D02*
X029457Y026942D01*
X029457Y027101D02*
X029494Y027101D01*
X029494Y027259D02*
X029457Y027259D01*
X029134Y026942D02*
X028789Y026942D01*
X028924Y027101D02*
X029007Y027101D01*
X029816Y026942D02*
X030348Y026942D01*
X030231Y027101D02*
X029943Y027101D01*
X029998Y027259D02*
X030139Y027259D01*
X030079Y027418D02*
X030001Y027418D01*
X030037Y027576D02*
X029955Y027576D01*
X030012Y027735D02*
X029840Y027735D01*
X029706Y027893D02*
X030012Y027893D01*
X030018Y028052D02*
X029899Y028052D01*
X029970Y028210D02*
X030060Y028210D01*
X030103Y028369D02*
X029985Y028369D01*
X029954Y028527D02*
X030190Y028527D01*
X030281Y028686D02*
X029860Y028686D01*
X029614Y028844D02*
X030435Y028844D01*
X030629Y029003D02*
X023842Y029003D01*
X024000Y028844D02*
X024337Y028844D01*
X024614Y028844D02*
X025337Y028844D01*
X025614Y028844D02*
X026337Y028844D01*
X026614Y028844D02*
X027337Y028844D01*
X027614Y028844D02*
X028337Y028844D01*
X028614Y028844D02*
X029337Y028844D01*
X029090Y028686D02*
X028860Y028686D01*
X028954Y028527D02*
X028997Y028527D01*
X028090Y028686D02*
X027860Y028686D01*
X027954Y028527D02*
X027997Y028527D01*
X027090Y028686D02*
X026860Y028686D01*
X026954Y028527D02*
X026997Y028527D01*
X026090Y028686D02*
X025860Y028686D01*
X025954Y028527D02*
X025997Y028527D01*
X025090Y028686D02*
X024860Y028686D01*
X024954Y028527D02*
X024997Y028527D01*
X025026Y027101D02*
X024924Y027101D01*
X024789Y026942D02*
X025161Y026942D01*
X025789Y026942D02*
X026161Y026942D01*
X026026Y027101D02*
X025924Y027101D01*
X026789Y026942D02*
X027161Y026942D01*
X027026Y027101D02*
X026924Y027101D01*
X027789Y026942D02*
X028161Y026942D01*
X028026Y027101D02*
X027924Y027101D01*
X024161Y026942D02*
X023789Y026942D01*
X023924Y027101D02*
X024026Y027101D01*
X016811Y026108D02*
X013458Y022755D01*
X013418Y022796D01*
X013264Y022860D01*
X013096Y022860D01*
X012942Y022796D01*
X012824Y022678D01*
X012760Y022524D01*
X012760Y021836D01*
X012824Y021682D01*
X012942Y021564D01*
X013096Y021500D01*
X013264Y021500D01*
X013418Y021564D01*
X013536Y021682D01*
X013600Y021836D01*
X013600Y022303D01*
X013760Y022463D01*
X013760Y021836D01*
X013824Y021682D01*
X013942Y021564D01*
X014039Y021524D01*
X013968Y021452D01*
X011075Y021452D01*
X011120Y021498D01*
X011120Y021680D01*
X011120Y021862D01*
X010862Y022120D01*
X010680Y022120D01*
X010680Y021680D01*
X010680Y021680D01*
X011120Y021680D01*
X010680Y021680D01*
X010680Y021680D01*
X010680Y021680D01*
X010240Y021680D01*
X010240Y021862D01*
X010498Y022120D01*
X010680Y022120D01*
X010680Y021680D01*
X010240Y021680D01*
X010240Y021498D01*
X010285Y021452D01*
X010031Y021452D01*
X009908Y021329D01*
X008618Y020040D01*
X008512Y020040D01*
X008540Y020108D01*
X008540Y020252D01*
X008485Y020384D01*
X008449Y020420D01*
X008732Y020420D01*
X008827Y020460D01*
X010628Y022260D01*
X010732Y022260D01*
X011033Y021960D01*
X011128Y021920D01*
X011760Y021920D01*
X011760Y021836D01*
X011824Y021682D01*
X011942Y021564D01*
X012096Y021500D01*
X012264Y021500D01*
X012418Y021564D01*
X012536Y021682D01*
X012600Y021836D01*
X012600Y022524D01*
X012536Y022678D01*
X012418Y022796D01*
X012264Y022860D01*
X012096Y022860D01*
X011942Y022796D01*
X011824Y022678D01*
X011760Y022524D01*
X011760Y022440D01*
X011288Y022440D01*
X011100Y022628D01*
X011100Y022854D01*
X010854Y023100D01*
X010506Y023100D01*
X010260Y022854D01*
X010260Y022628D01*
X008572Y020940D01*
X008534Y020940D01*
X008600Y021006D01*
X008600Y021354D01*
X008390Y021564D01*
X008390Y021796D01*
X008483Y021758D01*
X008627Y021758D01*
X008759Y021812D01*
X008860Y021914D01*
X008915Y022046D01*
X008915Y022056D01*
X013517Y026658D01*
X013640Y026781D01*
X013640Y026866D01*
X013720Y026899D01*
X013720Y026156D01*
X013843Y026033D01*
X014758Y025118D01*
X014758Y024983D01*
X014812Y024851D01*
X014914Y024750D01*
X015046Y024695D01*
X015189Y024695D01*
X015321Y024750D01*
X015423Y024851D01*
X015477Y024983D01*
X015477Y025127D01*
X015423Y025259D01*
X015321Y025360D01*
X015189Y025415D01*
X015054Y025415D01*
X014437Y026033D01*
X014509Y026062D01*
X014554Y026108D01*
X016811Y026108D01*
X016694Y025991D02*
X014478Y025991D01*
X014637Y025833D02*
X016536Y025833D01*
X016377Y025674D02*
X014795Y025674D01*
X014954Y025516D02*
X016219Y025516D01*
X016060Y025357D02*
X015325Y025357D01*
X015448Y025199D02*
X015902Y025199D01*
X015743Y025040D02*
X015477Y025040D01*
X015435Y024882D02*
X015585Y024882D01*
X015426Y024723D02*
X015257Y024723D01*
X015268Y024565D02*
X011424Y024565D01*
X011583Y024723D02*
X014978Y024723D01*
X014800Y024882D02*
X011741Y024882D01*
X011900Y025040D02*
X014758Y025040D01*
X014677Y025199D02*
X012058Y025199D01*
X012217Y025357D02*
X014518Y025357D01*
X014360Y025516D02*
X012375Y025516D01*
X012534Y025674D02*
X014201Y025674D01*
X014043Y025833D02*
X012692Y025833D01*
X012851Y025991D02*
X013884Y025991D01*
X013726Y026150D02*
X013009Y026150D01*
X013168Y026308D02*
X013720Y026308D01*
X013720Y026467D02*
X013326Y026467D01*
X013485Y026625D02*
X013720Y026625D01*
X013720Y026784D02*
X013640Y026784D01*
X015954Y028527D02*
X015997Y028527D01*
X016090Y028686D02*
X015860Y028686D01*
X009783Y027209D02*
X009783Y026642D01*
X009202Y026062D01*
X009173Y026134D01*
X009071Y026235D01*
X008939Y026290D01*
X008796Y026290D01*
X008664Y026235D01*
X008562Y026134D01*
X008508Y026002D01*
X008508Y025867D01*
X007181Y024540D01*
X007046Y024540D01*
X006914Y024485D01*
X006812Y024384D01*
X006758Y024252D01*
X006758Y024108D01*
X006812Y023976D01*
X006914Y023875D01*
X007046Y023820D01*
X007189Y023820D01*
X007321Y023875D01*
X007423Y023976D01*
X007477Y024108D01*
X007477Y024243D01*
X007595Y024361D01*
X007595Y023329D01*
X005600Y021334D01*
X005600Y021354D01*
X005354Y021600D01*
X005006Y021600D01*
X004760Y021354D01*
X004760Y021006D01*
X005006Y020760D01*
X005026Y020760D01*
X004850Y020584D01*
X004850Y020854D01*
X004604Y021100D01*
X004256Y021100D01*
X004010Y020854D01*
X004010Y020506D01*
X004256Y020260D01*
X004526Y020260D01*
X004493Y020227D01*
X004358Y020227D01*
X004226Y020173D01*
X004125Y020071D01*
X004100Y020012D01*
X004100Y020354D01*
X003854Y020600D01*
X003506Y020600D01*
X003296Y020390D01*
X002349Y020390D01*
X002333Y020429D01*
X002209Y020553D01*
X002048Y020620D01*
X001312Y020620D01*
X001151Y020553D01*
X001027Y020429D01*
X001010Y020388D01*
X001010Y020934D01*
X001049Y020880D01*
X001100Y020829D01*
X001159Y020787D01*
X001223Y020754D01*
X001292Y020731D01*
X001364Y020720D01*
X001670Y020720D01*
X001670Y021170D01*
X001690Y021170D01*
X001690Y021190D01*
X001670Y021190D01*
X001670Y021640D01*
X001364Y021640D01*
X001292Y021629D01*
X001223Y021606D01*
X001159Y021573D01*
X001100Y021531D01*
X001049Y021480D01*
X001010Y021426D01*
X001010Y022972D01*
X001027Y022931D01*
X001151Y022807D01*
X001312Y022740D01*
X002048Y022740D01*
X002209Y022807D01*
X002333Y022931D01*
X002400Y023092D01*
X002400Y023268D01*
X002333Y023429D01*
X002209Y023553D01*
X002048Y023620D01*
X001312Y023620D01*
X001151Y023553D01*
X001027Y023429D01*
X001010Y023388D01*
X001010Y023934D01*
X001049Y023880D01*
X001100Y023829D01*
X001159Y023787D01*
X001223Y023754D01*
X001292Y023731D01*
X001364Y023720D01*
X001670Y023720D01*
X001670Y024170D01*
X001690Y024170D01*
X001690Y024190D01*
X001670Y024190D01*
X001670Y024640D01*
X001364Y024640D01*
X001292Y024629D01*
X001223Y024606D01*
X001159Y024573D01*
X001100Y024531D01*
X001049Y024480D01*
X001010Y024426D01*
X001010Y029400D01*
X007720Y029400D01*
X006140Y027820D01*
X006140Y028571D01*
X006070Y028741D01*
X005941Y028870D01*
X005771Y028940D01*
X005588Y028940D01*
X005419Y028870D01*
X005290Y028741D01*
X005220Y028571D01*
X005220Y027788D01*
X005290Y027619D01*
X005419Y027490D01*
X005588Y027420D01*
X005740Y027420D01*
X005460Y027140D01*
X005420Y027044D01*
X005420Y026322D01*
X005307Y026209D01*
X005240Y026048D01*
X005240Y025312D01*
X005307Y025151D01*
X005431Y025027D01*
X005592Y024960D01*
X005768Y024960D01*
X005929Y025027D01*
X006053Y025151D01*
X006120Y025312D01*
X006120Y026048D01*
X006053Y026209D01*
X005940Y026322D01*
X005940Y026885D01*
X007211Y028156D01*
X007177Y028031D01*
X007177Y027668D01*
X007272Y027316D01*
X007453Y027002D01*
X007710Y026745D01*
X008025Y026563D01*
X008376Y026469D01*
X008740Y026469D01*
X009091Y026563D01*
X009406Y026745D01*
X009663Y027002D01*
X009783Y027209D01*
X009783Y027101D02*
X009720Y027101D01*
X009783Y026942D02*
X009603Y026942D01*
X009444Y026784D02*
X009783Y026784D01*
X009766Y026625D02*
X009198Y026625D01*
X009449Y026308D02*
X005954Y026308D01*
X005940Y026467D02*
X009607Y026467D01*
X009290Y026150D02*
X009157Y026150D01*
X008578Y026150D02*
X006078Y026150D01*
X006120Y025991D02*
X008508Y025991D01*
X008473Y025833D02*
X006120Y025833D01*
X006120Y025674D02*
X008315Y025674D01*
X008156Y025516D02*
X006120Y025516D01*
X006120Y025357D02*
X007998Y025357D01*
X007839Y025199D02*
X006073Y025199D01*
X005942Y025040D02*
X007681Y025040D01*
X007522Y024882D02*
X001010Y024882D01*
X001010Y025040D02*
X004418Y025040D01*
X004431Y025027D02*
X004592Y024960D01*
X004768Y024960D01*
X004929Y025027D01*
X005053Y025151D01*
X005120Y025312D01*
X005120Y026048D01*
X005053Y026209D01*
X004929Y026333D01*
X004768Y026400D01*
X004592Y026400D01*
X004431Y026333D01*
X004307Y026209D01*
X004240Y026048D01*
X004240Y025988D01*
X002810Y027418D01*
X002864Y027435D01*
X002932Y027469D01*
X002993Y027514D01*
X003046Y027567D01*
X003091Y027628D01*
X003125Y027696D01*
X003148Y027768D01*
X003160Y027842D01*
X003160Y028160D01*
X002700Y028160D01*
X002700Y028200D01*
X003160Y028200D01*
X003160Y028518D01*
X003148Y028592D01*
X003125Y028664D01*
X003091Y028732D01*
X003046Y028793D01*
X002993Y028846D01*
X002932Y028891D01*
X002864Y028925D01*
X002792Y028948D01*
X002718Y028960D01*
X002700Y028960D01*
X002700Y028200D01*
X002660Y028200D01*
X002660Y028960D01*
X002642Y028960D01*
X002568Y028948D01*
X002496Y028925D01*
X002428Y028891D01*
X002367Y028846D01*
X002314Y028793D01*
X002269Y028732D01*
X002235Y028664D01*
X002212Y028592D01*
X002200Y028518D01*
X002200Y028200D01*
X002660Y028200D01*
X002660Y028160D01*
X002200Y028160D01*
X002200Y028028D01*
X002140Y028088D01*
X002140Y028571D01*
X002070Y028741D01*
X001941Y028870D01*
X001771Y028940D01*
X001588Y028940D01*
X001419Y028870D01*
X001290Y028741D01*
X001220Y028571D01*
X001220Y027788D01*
X001290Y027619D01*
X001419Y027490D01*
X001588Y027420D01*
X001771Y027420D01*
X001941Y027490D01*
X001971Y027521D01*
X004033Y025460D01*
X004128Y025420D01*
X004240Y025420D01*
X004240Y025312D01*
X004307Y025151D01*
X004431Y025027D01*
X004287Y025199D02*
X001010Y025199D01*
X001010Y025357D02*
X002324Y025357D01*
X002200Y025481D02*
X002481Y025200D01*
X002660Y025200D01*
X002660Y025660D01*
X002700Y025660D01*
X002700Y025700D01*
X003160Y025700D01*
X003160Y025879D01*
X002879Y026160D01*
X002700Y026160D01*
X002700Y025700D01*
X002660Y025700D01*
X002660Y026160D01*
X002481Y026160D01*
X002200Y025879D01*
X002200Y025700D01*
X002660Y025700D01*
X002660Y025660D01*
X002200Y025660D01*
X002200Y025481D01*
X002200Y025516D02*
X001010Y025516D01*
X001010Y025674D02*
X002660Y025674D01*
X002700Y025674D02*
X003818Y025674D01*
X003660Y025833D02*
X003160Y025833D01*
X003160Y025660D02*
X002700Y025660D01*
X002700Y025200D01*
X002879Y025200D01*
X003160Y025481D01*
X003160Y025660D01*
X003160Y025516D02*
X003977Y025516D01*
X004240Y025357D02*
X003036Y025357D01*
X002700Y025357D02*
X002660Y025357D01*
X002660Y025516D02*
X002700Y025516D01*
X002700Y025833D02*
X002660Y025833D01*
X002660Y025991D02*
X002700Y025991D01*
X002700Y026150D02*
X002660Y026150D01*
X002471Y026150D02*
X001010Y026150D01*
X001010Y026308D02*
X003184Y026308D01*
X003026Y026467D02*
X001010Y026467D01*
X001010Y026625D02*
X002867Y026625D01*
X002709Y026784D02*
X001010Y026784D01*
X001010Y026942D02*
X002550Y026942D01*
X002392Y027101D02*
X001010Y027101D01*
X001010Y027259D02*
X002233Y027259D01*
X002075Y027418D02*
X001010Y027418D01*
X001010Y027576D02*
X001333Y027576D01*
X001242Y027735D02*
X001010Y027735D01*
X001010Y027893D02*
X001220Y027893D01*
X001220Y028052D02*
X001010Y028052D01*
X001010Y028210D02*
X001220Y028210D01*
X001220Y028369D02*
X001010Y028369D01*
X001010Y028527D02*
X001220Y028527D01*
X001267Y028686D02*
X001010Y028686D01*
X001010Y028844D02*
X001394Y028844D01*
X001010Y029003D02*
X007322Y029003D01*
X007481Y029161D02*
X001010Y029161D01*
X001010Y029320D02*
X007639Y029320D01*
X007164Y028844D02*
X005966Y028844D01*
X006093Y028686D02*
X007005Y028686D01*
X006847Y028527D02*
X006140Y028527D01*
X006140Y028369D02*
X006688Y028369D01*
X006530Y028210D02*
X006140Y028210D01*
X006140Y028052D02*
X006371Y028052D01*
X006213Y027893D02*
X006140Y027893D01*
X006631Y027576D02*
X007202Y027576D01*
X007177Y027735D02*
X006790Y027735D01*
X006948Y027893D02*
X007177Y027893D01*
X007183Y028052D02*
X007107Y028052D01*
X007244Y027418D02*
X006473Y027418D01*
X006314Y027259D02*
X007305Y027259D01*
X007396Y027101D02*
X006156Y027101D01*
X005997Y026942D02*
X007513Y026942D01*
X007671Y026784D02*
X005940Y026784D01*
X005940Y026625D02*
X007917Y026625D01*
X005737Y027418D02*
X002810Y027418D01*
X002969Y027259D02*
X005579Y027259D01*
X005443Y027101D02*
X003127Y027101D01*
X003286Y026942D02*
X005420Y026942D01*
X005420Y026784D02*
X003444Y026784D01*
X003603Y026625D02*
X005420Y026625D01*
X005420Y026467D02*
X003761Y026467D01*
X003920Y026308D02*
X004406Y026308D01*
X004282Y026150D02*
X004078Y026150D01*
X004237Y025991D02*
X004240Y025991D01*
X004954Y026308D02*
X005406Y026308D01*
X005282Y026150D02*
X005078Y026150D01*
X005120Y025991D02*
X005240Y025991D01*
X005240Y025833D02*
X005120Y025833D01*
X005120Y025674D02*
X005240Y025674D01*
X005240Y025516D02*
X005120Y025516D01*
X005120Y025357D02*
X005240Y025357D01*
X005287Y025199D02*
X005073Y025199D01*
X004942Y025040D02*
X005418Y025040D01*
X004604Y024100D02*
X004256Y024100D01*
X004010Y023854D01*
X004010Y023506D01*
X004256Y023260D01*
X004604Y023260D01*
X004850Y023506D01*
X004850Y023854D01*
X004604Y024100D01*
X004615Y024089D02*
X006766Y024089D01*
X006758Y024248D02*
X004120Y024248D01*
X004120Y024180D02*
X004120Y024362D01*
X003862Y024620D01*
X003680Y024620D01*
X003680Y024180D01*
X003680Y024180D01*
X004120Y024180D01*
X003680Y024180D01*
X003680Y024180D01*
X003680Y024180D01*
X003240Y024180D01*
X003240Y024362D01*
X003498Y024620D01*
X003680Y024620D01*
X003680Y024180D01*
X003680Y023740D01*
X003862Y023740D01*
X004120Y023998D01*
X004120Y024180D01*
X004120Y024089D02*
X004245Y024089D01*
X004087Y023931D02*
X004053Y023931D01*
X004010Y023772D02*
X003894Y023772D01*
X003854Y023600D02*
X003506Y023600D01*
X003260Y023354D01*
X003260Y023006D01*
X003506Y022760D01*
X003854Y022760D01*
X004100Y023006D01*
X004100Y023354D01*
X003854Y023600D01*
X004010Y023614D02*
X002063Y023614D01*
X002068Y023731D02*
X002137Y023754D01*
X002201Y023787D01*
X002260Y023829D01*
X002311Y023880D01*
X002353Y023939D01*
X002386Y024003D01*
X002409Y024072D01*
X002420Y024144D01*
X002420Y024170D01*
X001690Y024170D01*
X001690Y023720D01*
X001996Y023720D01*
X002068Y023731D01*
X002173Y023772D02*
X003466Y023772D01*
X003498Y023740D02*
X003240Y023998D01*
X003240Y024180D01*
X003680Y024180D01*
X003680Y024180D01*
X003680Y023740D01*
X003498Y023740D01*
X003680Y023772D02*
X003680Y023772D01*
X003680Y023931D02*
X003680Y023931D01*
X003680Y024089D02*
X003680Y024089D01*
X003680Y024248D02*
X003680Y024248D01*
X003680Y024406D02*
X003680Y024406D01*
X003680Y024565D02*
X003680Y024565D01*
X003918Y024565D02*
X007205Y024565D01*
X007364Y024723D02*
X001010Y024723D01*
X001010Y024565D02*
X001147Y024565D01*
X001670Y024565D02*
X001690Y024565D01*
X001690Y024640D02*
X001690Y024190D01*
X002420Y024190D01*
X002420Y024216D01*
X002409Y024288D01*
X002386Y024357D01*
X002353Y024421D01*
X002311Y024480D01*
X002260Y024531D01*
X002201Y024573D01*
X002137Y024606D01*
X002068Y024629D01*
X001996Y024640D01*
X001690Y024640D01*
X001670Y024406D02*
X001690Y024406D01*
X001690Y024248D02*
X001670Y024248D01*
X001670Y024089D02*
X001690Y024089D01*
X001690Y023931D02*
X001670Y023931D01*
X001670Y023772D02*
X001690Y023772D01*
X001297Y023614D02*
X001010Y023614D01*
X001010Y023772D02*
X001187Y023772D01*
X001013Y023931D02*
X001010Y023931D01*
X001010Y023455D02*
X001053Y023455D01*
X001010Y022821D02*
X001137Y022821D01*
X001010Y022663D02*
X005260Y022663D01*
X005260Y022506D02*
X005506Y022260D01*
X005854Y022260D01*
X006100Y022506D01*
X006100Y022854D01*
X005854Y023100D01*
X005506Y023100D01*
X005260Y022854D01*
X005260Y022506D01*
X005262Y022504D02*
X001010Y022504D01*
X001010Y022346D02*
X005420Y022346D01*
X005940Y022346D02*
X006611Y022346D01*
X006770Y022504D02*
X006098Y022504D01*
X006100Y022663D02*
X006928Y022663D01*
X007087Y022821D02*
X006100Y022821D01*
X005974Y022980D02*
X007245Y022980D01*
X007404Y023138D02*
X004100Y023138D01*
X004100Y023297D02*
X004219Y023297D01*
X004061Y023455D02*
X003999Y023455D01*
X003361Y023455D02*
X002307Y023455D01*
X002388Y023297D02*
X003260Y023297D01*
X003260Y023138D02*
X002400Y023138D01*
X002353Y022980D02*
X003286Y022980D01*
X003445Y022821D02*
X002223Y022821D01*
X001010Y022187D02*
X006453Y022187D01*
X006294Y022029D02*
X001010Y022029D01*
X001010Y021870D02*
X006136Y021870D01*
X005977Y021712D02*
X001010Y021712D01*
X001010Y021553D02*
X001131Y021553D01*
X001670Y021553D02*
X001690Y021553D01*
X001690Y021640D02*
X001690Y021190D01*
X002420Y021190D01*
X002420Y021216D01*
X002409Y021288D01*
X002386Y021357D01*
X002353Y021421D01*
X002311Y021480D01*
X002260Y021531D01*
X002201Y021573D01*
X002137Y021606D01*
X002068Y021629D01*
X001996Y021640D01*
X001690Y021640D01*
X001670Y021395D02*
X001690Y021395D01*
X001690Y021236D02*
X001670Y021236D01*
X001690Y021170D02*
X002420Y021170D01*
X002420Y021144D01*
X002409Y021072D01*
X002386Y021003D01*
X002353Y020939D01*
X002311Y020880D01*
X002260Y020829D01*
X002201Y020787D01*
X002137Y020754D01*
X002068Y020731D01*
X001996Y020720D01*
X001690Y020720D01*
X001690Y021170D01*
X001690Y021078D02*
X001670Y021078D01*
X001670Y020919D02*
X001690Y020919D01*
X001690Y020761D02*
X001670Y020761D01*
X001269Y020602D02*
X001010Y020602D01*
X001010Y020444D02*
X001041Y020444D01*
X001010Y020761D02*
X001210Y020761D01*
X001021Y020919D02*
X001010Y020919D01*
X002091Y020602D02*
X004010Y020602D01*
X004010Y020444D02*
X004072Y020444D01*
X004100Y020285D02*
X004231Y020285D01*
X004180Y020127D02*
X004100Y020127D01*
X004096Y020002D02*
X003854Y019760D01*
X003506Y019760D01*
X003296Y019970D01*
X002349Y019970D01*
X002333Y019931D01*
X002209Y019807D01*
X002048Y019740D01*
X001312Y019740D01*
X001151Y019807D01*
X001027Y019931D01*
X001010Y019972D01*
X001010Y010926D01*
X001049Y010980D01*
X001100Y011031D01*
X001159Y011073D01*
X001223Y011106D01*
X001292Y011129D01*
X001364Y011140D01*
X001670Y011140D01*
X001670Y010690D01*
X001690Y010690D01*
X001690Y011140D01*
X001996Y011140D01*
X002068Y011129D01*
X002137Y011106D01*
X002201Y011073D01*
X002260Y011031D01*
X002311Y010980D01*
X002353Y010921D01*
X002386Y010857D01*
X002409Y010788D01*
X002420Y010716D01*
X002420Y010690D01*
X001690Y010690D01*
X001690Y010670D01*
X002420Y010670D01*
X002420Y010644D01*
X002409Y010572D01*
X002386Y010503D01*
X002353Y010439D01*
X002311Y010380D01*
X002260Y010329D01*
X002201Y010287D01*
X002137Y010254D01*
X002068Y010231D01*
X001996Y010220D01*
X001690Y010220D01*
X001690Y010670D01*
X001670Y010670D01*
X001670Y010220D01*
X001364Y010220D01*
X001292Y010231D01*
X001223Y010254D01*
X001159Y010287D01*
X001100Y010329D01*
X001049Y010380D01*
X001010Y010434D01*
X001010Y009888D01*
X001027Y009929D01*
X001151Y010053D01*
X001312Y010120D01*
X002048Y010120D01*
X002209Y010053D01*
X002333Y009929D01*
X002334Y009928D01*
X002506Y010100D01*
X002854Y010100D01*
X003100Y009854D01*
X003100Y009506D01*
X002854Y009260D01*
X002506Y009260D01*
X002334Y009432D01*
X002333Y009431D01*
X002209Y009307D01*
X002048Y009240D01*
X001312Y009240D01*
X001151Y009307D01*
X001027Y009431D01*
X001010Y009472D01*
X001010Y004680D01*
X002470Y004680D01*
X002470Y004739D01*
X002220Y004989D01*
X002220Y005371D01*
X002489Y005640D01*
X002871Y005640D01*
X003140Y005371D01*
X003140Y004989D01*
X002890Y004739D01*
X002890Y004680D01*
X003420Y004680D01*
X003420Y004789D01*
X003220Y004989D01*
X003220Y005371D01*
X003489Y005640D01*
X003496Y005640D01*
X003522Y005702D01*
X003540Y005720D01*
X003489Y005720D01*
X003220Y005989D01*
X003220Y006371D01*
X003489Y006640D01*
X003871Y006640D01*
X003920Y006591D01*
X003920Y007998D01*
X002890Y006968D01*
X002890Y006621D01*
X003140Y006371D01*
X003140Y005989D01*
X002871Y005720D01*
X002489Y005720D01*
X002220Y005989D01*
X002220Y006371D01*
X002470Y006621D01*
X002470Y007142D01*
X002593Y007265D01*
X004470Y009142D01*
X004470Y009506D01*
X004375Y009601D01*
X004345Y009673D01*
X001890Y007218D01*
X001890Y006621D01*
X002140Y006371D01*
X002140Y005989D01*
X001871Y005720D01*
X001489Y005720D01*
X001220Y005989D01*
X001220Y006371D01*
X001470Y006621D01*
X001470Y007392D01*
X001593Y007515D01*
X001593Y007515D01*
X005156Y011077D01*
X005796Y011077D01*
X005758Y011171D01*
X005758Y011314D01*
X005812Y011446D01*
X005914Y011548D01*
X006046Y011602D01*
X006189Y011602D01*
X006321Y011548D01*
X006417Y011452D01*
X007968Y011452D01*
X008361Y011845D01*
X008322Y011861D01*
X007962Y011500D01*
X007700Y011500D01*
X007700Y012160D01*
X007660Y012160D01*
X007660Y011500D01*
X007398Y011500D01*
X007000Y011898D01*
X007000Y011970D01*
X006939Y011945D01*
X006796Y011945D01*
X006664Y012000D01*
X006617Y012046D01*
X006571Y012000D01*
X006439Y011945D01*
X006296Y011945D01*
X006164Y012000D01*
X006062Y012101D01*
X006008Y012233D01*
X006008Y012377D01*
X006062Y012509D01*
X006164Y012610D01*
X006296Y012665D01*
X006431Y012665D01*
X009111Y015345D01*
X008854Y015345D01*
X008759Y015250D01*
X008627Y015195D01*
X008483Y015195D01*
X008351Y015250D01*
X008305Y015296D01*
X008259Y015250D01*
X008127Y015195D01*
X007983Y015195D01*
X007851Y015250D01*
X007805Y015296D01*
X007759Y015250D01*
X007627Y015195D01*
X007483Y015195D01*
X007351Y015250D01*
X007250Y015351D01*
X007195Y015483D01*
X007195Y015627D01*
X007250Y015759D01*
X007351Y015860D01*
X007483Y015915D01*
X007618Y015915D01*
X007908Y016204D01*
X008031Y016327D01*
X009031Y016327D01*
X009361Y016658D01*
X009289Y016687D01*
X009187Y016789D01*
X009133Y016921D01*
X009133Y017064D01*
X009148Y017101D01*
X008829Y016783D01*
X008292Y016783D01*
X008196Y016687D01*
X008064Y016633D01*
X007921Y016633D01*
X007789Y016687D01*
X007687Y016789D01*
X007639Y016905D01*
X004790Y014056D01*
X004790Y013921D01*
X004735Y013789D01*
X004634Y013687D01*
X004502Y013633D01*
X004358Y013633D01*
X004226Y013687D01*
X004125Y013789D01*
X004070Y013921D01*
X004070Y014064D01*
X004125Y014196D01*
X004226Y014298D01*
X004358Y014352D01*
X004493Y014352D01*
X007633Y017492D01*
X007633Y017627D01*
X007687Y017759D01*
X007789Y017860D01*
X007921Y017915D01*
X008064Y017915D01*
X008196Y017860D01*
X008298Y017759D01*
X008352Y017627D01*
X008352Y017483D01*
X008298Y017351D01*
X008220Y017274D01*
X008292Y017202D01*
X008656Y017202D01*
X010408Y018954D01*
X010408Y019111D01*
X010329Y019033D01*
X009704Y018408D01*
X008204Y018408D01*
X005290Y015493D01*
X005290Y015358D01*
X005235Y015226D01*
X005134Y015125D01*
X005002Y015070D01*
X004858Y015070D01*
X004726Y015125D01*
X004625Y015226D01*
X004570Y015358D01*
X004570Y015502D01*
X004625Y015634D01*
X004726Y015735D01*
X004858Y015790D01*
X004993Y015790D01*
X007908Y018704D01*
X007986Y018783D01*
X007579Y018783D01*
X004290Y015493D01*
X004290Y015358D01*
X004235Y015226D01*
X004134Y015125D01*
X004002Y015070D01*
X003858Y015070D01*
X003726Y015125D01*
X003680Y015171D01*
X003634Y015125D01*
X003502Y015070D01*
X003358Y015070D01*
X003226Y015125D01*
X003125Y015226D01*
X003070Y015358D01*
X003070Y015502D01*
X003125Y015634D01*
X003226Y015735D01*
X003358Y015790D01*
X003493Y015790D01*
X006123Y018420D01*
X002014Y018420D01*
X001854Y018260D01*
X001506Y018260D01*
X001260Y018506D01*
X001260Y018854D01*
X001506Y019100D01*
X001854Y019100D01*
X002014Y018940D01*
X006010Y018940D01*
X007897Y020827D01*
X007918Y020848D01*
X007760Y021006D01*
X007760Y021354D01*
X007970Y021564D01*
X007970Y022736D01*
X005238Y020003D01*
X005290Y019877D01*
X005290Y019733D01*
X005235Y019601D01*
X005134Y019500D01*
X005002Y019445D01*
X004858Y019445D01*
X004726Y019500D01*
X004649Y019577D01*
X004634Y019562D01*
X004502Y019508D01*
X004358Y019508D01*
X004226Y019562D01*
X004125Y019664D01*
X004070Y019796D01*
X004070Y019939D01*
X004096Y020002D01*
X004082Y019968D02*
X004062Y019968D01*
X004070Y019810D02*
X003903Y019810D01*
X004137Y019651D02*
X001010Y019651D01*
X001010Y019493D02*
X004744Y019493D01*
X005116Y019493D02*
X006562Y019493D01*
X006721Y019651D02*
X005256Y019651D01*
X005290Y019810D02*
X006879Y019810D01*
X007038Y019968D02*
X005252Y019968D01*
X005361Y020127D02*
X007196Y020127D01*
X007355Y020285D02*
X005520Y020285D01*
X005678Y020444D02*
X007513Y020444D01*
X007672Y020602D02*
X005837Y020602D01*
X005995Y020761D02*
X007830Y020761D01*
X007847Y020919D02*
X006154Y020919D01*
X006312Y021078D02*
X007760Y021078D01*
X007760Y021236D02*
X006471Y021236D01*
X006629Y021395D02*
X007801Y021395D01*
X007959Y021553D02*
X006788Y021553D01*
X006946Y021712D02*
X007970Y021712D01*
X007970Y021870D02*
X007105Y021870D01*
X007263Y022029D02*
X007970Y022029D01*
X007970Y022187D02*
X007422Y022187D01*
X007580Y022346D02*
X007970Y022346D01*
X007970Y022504D02*
X007739Y022504D01*
X007897Y022663D02*
X007970Y022663D01*
X008908Y022029D02*
X009661Y022029D01*
X009819Y022187D02*
X009047Y022187D01*
X009205Y022346D02*
X009978Y022346D01*
X010136Y022504D02*
X009364Y022504D01*
X009522Y022663D02*
X010260Y022663D01*
X010260Y022821D02*
X009681Y022821D01*
X009839Y022980D02*
X010386Y022980D01*
X009998Y023138D02*
X013841Y023138D01*
X013683Y022980D02*
X010974Y022980D01*
X011100Y022821D02*
X012002Y022821D01*
X011818Y022663D02*
X011100Y022663D01*
X011224Y022504D02*
X011760Y022504D01*
X012358Y022821D02*
X013002Y022821D01*
X012818Y022663D02*
X012542Y022663D01*
X012600Y022504D02*
X012760Y022504D01*
X012760Y022346D02*
X012600Y022346D01*
X012600Y022187D02*
X012760Y022187D01*
X012760Y022029D02*
X012600Y022029D01*
X012600Y021870D02*
X012760Y021870D01*
X012812Y021712D02*
X012548Y021712D01*
X012392Y021553D02*
X012968Y021553D01*
X013392Y021553D02*
X013968Y021553D01*
X013812Y021712D02*
X013548Y021712D01*
X013600Y021870D02*
X013760Y021870D01*
X013760Y022029D02*
X013600Y022029D01*
X013600Y022187D02*
X013760Y022187D01*
X013760Y022346D02*
X013643Y022346D01*
X013524Y022821D02*
X013358Y022821D01*
X014000Y023297D02*
X010156Y023297D01*
X010315Y023455D02*
X014158Y023455D01*
X014317Y023614D02*
X010473Y023614D01*
X010632Y023772D02*
X014475Y023772D01*
X014634Y023931D02*
X010790Y023931D01*
X010949Y024089D02*
X014792Y024089D01*
X014951Y024248D02*
X011107Y024248D01*
X011266Y024406D02*
X015109Y024406D01*
X011760Y021870D02*
X011112Y021870D01*
X011120Y021712D02*
X011812Y021712D01*
X011968Y021553D02*
X011120Y021553D01*
X010680Y021712D02*
X010680Y021712D01*
X010680Y021870D02*
X010680Y021870D01*
X010680Y022029D02*
X010680Y022029D01*
X010555Y022187D02*
X010805Y022187D01*
X010954Y022029D02*
X010964Y022029D01*
X010406Y022029D02*
X010396Y022029D01*
X010248Y021870D02*
X010238Y021870D01*
X010240Y021712D02*
X010079Y021712D01*
X009921Y021553D02*
X010240Y021553D01*
X009973Y021395D02*
X009762Y021395D01*
X009814Y021236D02*
X009604Y021236D01*
X009656Y021078D02*
X009445Y021078D01*
X009497Y020919D02*
X009287Y020919D01*
X009339Y020761D02*
X009128Y020761D01*
X009180Y020602D02*
X008970Y020602D01*
X009022Y020444D02*
X008789Y020444D01*
X008863Y020285D02*
X008526Y020285D01*
X008540Y020127D02*
X008705Y020127D01*
X008710Y021078D02*
X008600Y021078D01*
X008600Y021236D02*
X008868Y021236D01*
X009027Y021395D02*
X008559Y021395D01*
X008401Y021553D02*
X009185Y021553D01*
X009344Y021712D02*
X008390Y021712D01*
X008817Y021870D02*
X009502Y021870D01*
X007562Y023297D02*
X004641Y023297D01*
X004799Y023455D02*
X007595Y023455D01*
X007595Y023614D02*
X004850Y023614D01*
X004850Y023772D02*
X007595Y023772D01*
X007595Y023931D02*
X007377Y023931D01*
X007469Y024089D02*
X007595Y024089D01*
X007595Y024248D02*
X007482Y024248D01*
X006834Y024406D02*
X004076Y024406D01*
X004773Y023931D02*
X006858Y023931D01*
X005386Y022980D02*
X004074Y022980D01*
X003915Y022821D02*
X005260Y022821D01*
X005401Y021553D02*
X005819Y021553D01*
X005660Y021395D02*
X005559Y021395D01*
X004959Y021553D02*
X003929Y021553D01*
X003862Y021620D02*
X003680Y021620D01*
X003680Y021180D01*
X003680Y021180D01*
X004120Y021180D01*
X004120Y021362D01*
X003862Y021620D01*
X003680Y021620D02*
X003498Y021620D01*
X003240Y021362D01*
X003240Y021180D01*
X003680Y021180D01*
X003680Y021180D01*
X003680Y021180D01*
X003680Y021620D01*
X003680Y021553D02*
X003680Y021553D01*
X003680Y021395D02*
X003680Y021395D01*
X003680Y021236D02*
X003680Y021236D01*
X003680Y021180D02*
X003240Y021180D01*
X003240Y020998D01*
X003498Y020740D01*
X003680Y020740D01*
X003862Y020740D01*
X004120Y020998D01*
X004120Y021180D01*
X003680Y021180D01*
X003680Y020740D01*
X003680Y021180D01*
X003680Y021180D01*
X003680Y021078D02*
X003680Y021078D01*
X003680Y020919D02*
X003680Y020919D01*
X003680Y020761D02*
X003680Y020761D01*
X003883Y020761D02*
X004010Y020761D01*
X004041Y020919D02*
X004075Y020919D01*
X004120Y021078D02*
X004234Y021078D01*
X004120Y021236D02*
X004760Y021236D01*
X004760Y021078D02*
X004626Y021078D01*
X004785Y020919D02*
X004847Y020919D01*
X004850Y020761D02*
X005005Y020761D01*
X004868Y020602D02*
X004850Y020602D01*
X004801Y021395D02*
X004088Y021395D01*
X003431Y021553D02*
X002229Y021553D01*
X002367Y021395D02*
X003272Y021395D01*
X003240Y021236D02*
X002417Y021236D01*
X002410Y021078D02*
X003240Y021078D01*
X003319Y020919D02*
X002339Y020919D01*
X002150Y020761D02*
X003477Y020761D01*
X003350Y020444D02*
X002319Y020444D01*
X002348Y019968D02*
X003298Y019968D01*
X003456Y019810D02*
X002212Y019810D01*
X001148Y019810D02*
X001010Y019810D01*
X001010Y019968D02*
X001012Y019968D01*
X001010Y019334D02*
X006404Y019334D01*
X006245Y019176D02*
X001010Y019176D01*
X001010Y019017D02*
X001423Y019017D01*
X001265Y018859D02*
X001010Y018859D01*
X001010Y018700D02*
X001260Y018700D01*
X001260Y018542D02*
X001010Y018542D01*
X001010Y018383D02*
X001383Y018383D01*
X001498Y018120D02*
X001240Y017862D01*
X001240Y017680D01*
X001680Y017680D01*
X001680Y017680D01*
X001680Y018120D01*
X001862Y018120D01*
X002120Y017862D01*
X002120Y017680D01*
X001680Y017680D01*
X001680Y017680D01*
X001680Y017680D01*
X001680Y018120D01*
X001498Y018120D01*
X001444Y018066D02*
X001010Y018066D01*
X001010Y017908D02*
X001285Y017908D01*
X001240Y017749D02*
X001010Y017749D01*
X001010Y017591D02*
X001240Y017591D01*
X001240Y017680D02*
X001240Y017498D01*
X001498Y017240D01*
X001680Y017240D01*
X001862Y017240D01*
X002120Y017498D01*
X002120Y017680D01*
X001680Y017680D01*
X001680Y017240D01*
X001680Y017680D01*
X001680Y017680D01*
X001240Y017680D01*
X001306Y017432D02*
X001010Y017432D01*
X001010Y017274D02*
X001464Y017274D01*
X001680Y017274D02*
X001680Y017274D01*
X001680Y017432D02*
X001680Y017432D01*
X001680Y017591D02*
X001680Y017591D01*
X001680Y017749D02*
X001680Y017749D01*
X001680Y017908D02*
X001680Y017908D01*
X001680Y018066D02*
X001680Y018066D01*
X001916Y018066D02*
X005769Y018066D01*
X005611Y017908D02*
X002075Y017908D01*
X002120Y017749D02*
X005452Y017749D01*
X005294Y017591D02*
X002120Y017591D01*
X002054Y017432D02*
X005135Y017432D01*
X004977Y017274D02*
X001896Y017274D01*
X001010Y017115D02*
X004818Y017115D01*
X004660Y016957D02*
X001010Y016957D01*
X001010Y016798D02*
X004501Y016798D01*
X004343Y016640D02*
X001010Y016640D01*
X001010Y016481D02*
X004184Y016481D01*
X004026Y016323D02*
X001010Y016323D01*
X001010Y016164D02*
X003867Y016164D01*
X003709Y016006D02*
X001010Y016006D01*
X001010Y015847D02*
X003550Y015847D01*
X003179Y015689D02*
X001010Y015689D01*
X001010Y015530D02*
X003082Y015530D01*
X003070Y015372D02*
X001010Y015372D01*
X001010Y015213D02*
X003138Y015213D01*
X004222Y015213D02*
X004638Y015213D01*
X004570Y015372D02*
X004290Y015372D01*
X004327Y015530D02*
X004582Y015530D01*
X004486Y015689D02*
X004679Y015689D01*
X004644Y015847D02*
X005050Y015847D01*
X005209Y016006D02*
X004803Y016006D01*
X004961Y016164D02*
X005367Y016164D01*
X005526Y016323D02*
X005120Y016323D01*
X005278Y016481D02*
X005684Y016481D01*
X005843Y016640D02*
X005437Y016640D01*
X005595Y016798D02*
X006001Y016798D01*
X006160Y016957D02*
X005754Y016957D01*
X005912Y017115D02*
X006318Y017115D01*
X006477Y017274D02*
X006071Y017274D01*
X006229Y017432D02*
X006635Y017432D01*
X006794Y017591D02*
X006388Y017591D01*
X006546Y017749D02*
X006952Y017749D01*
X007111Y017908D02*
X006705Y017908D01*
X006863Y018066D02*
X007269Y018066D01*
X007428Y018225D02*
X007022Y018225D01*
X007180Y018383D02*
X007586Y018383D01*
X007745Y018542D02*
X007339Y018542D01*
X007497Y018700D02*
X007903Y018700D01*
X008180Y018383D02*
X009836Y018383D01*
X009839Y018542D02*
X009995Y018542D01*
X009997Y018700D02*
X010153Y018700D01*
X010156Y018859D02*
X010312Y018859D01*
X010314Y019017D02*
X010408Y019017D01*
X009678Y018225D02*
X008022Y018225D01*
X007863Y018066D02*
X009519Y018066D01*
X009361Y017908D02*
X008082Y017908D01*
X007903Y017908D02*
X007705Y017908D01*
X007683Y017749D02*
X007546Y017749D01*
X007633Y017591D02*
X007388Y017591D01*
X007229Y017432D02*
X007573Y017432D01*
X007414Y017274D02*
X007071Y017274D01*
X006912Y017115D02*
X007256Y017115D01*
X007097Y016957D02*
X006754Y016957D01*
X006595Y016798D02*
X006939Y016798D01*
X006780Y016640D02*
X006437Y016640D01*
X006278Y016481D02*
X006622Y016481D01*
X006463Y016323D02*
X006120Y016323D01*
X005961Y016164D02*
X006305Y016164D01*
X006146Y016006D02*
X005803Y016006D01*
X005644Y015847D02*
X005988Y015847D01*
X005829Y015689D02*
X005486Y015689D01*
X005327Y015530D02*
X005671Y015530D01*
X005512Y015372D02*
X005290Y015372D01*
X005354Y015213D02*
X005222Y015213D01*
X005195Y015055D02*
X001010Y015055D01*
X001010Y014896D02*
X005037Y014896D01*
X004878Y014738D02*
X001010Y014738D01*
X001010Y014579D02*
X004720Y014579D01*
X004561Y014421D02*
X001010Y014421D01*
X001010Y014262D02*
X004190Y014262D01*
X004086Y014104D02*
X001010Y014104D01*
X001010Y013945D02*
X004070Y013945D01*
X004127Y013787D02*
X001010Y013787D01*
X001010Y013628D02*
X007394Y013628D01*
X007552Y013787D02*
X004733Y013787D01*
X004790Y013945D02*
X007711Y013945D01*
X007869Y014104D02*
X004838Y014104D01*
X004997Y014262D02*
X008028Y014262D01*
X008186Y014421D02*
X005155Y014421D01*
X005314Y014579D02*
X008345Y014579D01*
X008503Y014738D02*
X005472Y014738D01*
X005631Y014896D02*
X008662Y014896D01*
X008820Y015055D02*
X005789Y015055D01*
X005948Y015213D02*
X007440Y015213D01*
X007670Y015213D02*
X007940Y015213D01*
X008170Y015213D02*
X008440Y015213D01*
X008670Y015213D02*
X008979Y015213D01*
X007709Y016006D02*
X006740Y016006D01*
X006899Y016164D02*
X007867Y016164D01*
X008026Y016323D02*
X007057Y016323D01*
X007216Y016481D02*
X009184Y016481D01*
X009343Y016640D02*
X008081Y016640D01*
X007904Y016640D02*
X007374Y016640D01*
X007533Y016798D02*
X007683Y016798D01*
X008221Y017274D02*
X008727Y017274D01*
X008885Y017432D02*
X008331Y017432D01*
X008352Y017591D02*
X009044Y017591D01*
X009202Y017749D02*
X008302Y017749D01*
X009004Y016957D02*
X009133Y016957D01*
X009183Y016798D02*
X008845Y016798D01*
X007338Y015847D02*
X006582Y015847D01*
X006423Y015689D02*
X007221Y015689D01*
X007195Y015530D02*
X006265Y015530D01*
X006106Y015372D02*
X007241Y015372D01*
X007235Y013470D02*
X001010Y013470D01*
X001010Y013311D02*
X007077Y013311D01*
X006918Y013153D02*
X001010Y013153D01*
X001010Y012994D02*
X006760Y012994D01*
X006601Y012836D02*
X001010Y012836D01*
X001010Y012677D02*
X006443Y012677D01*
X006072Y012519D02*
X001010Y012519D01*
X001010Y012360D02*
X006008Y012360D01*
X006021Y012202D02*
X001010Y012202D01*
X001010Y012043D02*
X006120Y012043D01*
X006615Y012043D02*
X006620Y012043D01*
X007014Y011885D02*
X001010Y011885D01*
X001010Y011726D02*
X007172Y011726D01*
X007331Y011568D02*
X006274Y011568D01*
X005961Y011568D02*
X001010Y011568D01*
X001010Y011409D02*
X005797Y011409D01*
X005758Y011251D02*
X001010Y011251D01*
X001010Y011092D02*
X001195Y011092D01*
X001016Y010934D02*
X001010Y010934D01*
X001670Y010934D02*
X001690Y010934D01*
X001690Y011092D02*
X001670Y011092D01*
X001670Y010775D02*
X001690Y010775D01*
X001690Y010617D02*
X001670Y010617D01*
X001670Y010458D02*
X001690Y010458D01*
X001690Y010300D02*
X001670Y010300D01*
X001141Y010300D02*
X001010Y010300D01*
X001010Y010141D02*
X004219Y010141D01*
X004061Y009983D02*
X002971Y009983D01*
X003100Y009824D02*
X003902Y009824D01*
X003744Y009666D02*
X003100Y009666D01*
X003100Y009507D02*
X003585Y009507D01*
X003427Y009349D02*
X002942Y009349D01*
X003110Y009032D02*
X001010Y009032D01*
X001010Y009190D02*
X003268Y009190D01*
X003545Y008873D02*
X004201Y008873D01*
X004043Y008715D02*
X003386Y008715D01*
X003228Y008556D02*
X003884Y008556D01*
X003726Y008398D02*
X003069Y008398D01*
X002911Y008239D02*
X003567Y008239D01*
X003409Y008081D02*
X002752Y008081D01*
X002594Y007922D02*
X003250Y007922D01*
X003092Y007764D02*
X002435Y007764D01*
X002277Y007605D02*
X002933Y007605D01*
X002775Y007447D02*
X002118Y007447D01*
X001960Y007288D02*
X002616Y007288D01*
X002470Y007130D02*
X001890Y007130D01*
X001890Y006971D02*
X002470Y006971D01*
X002470Y006813D02*
X001890Y006813D01*
X001890Y006654D02*
X002470Y006654D01*
X002345Y006496D02*
X002015Y006496D01*
X002140Y006337D02*
X002220Y006337D01*
X002220Y006179D02*
X002140Y006179D01*
X002140Y006020D02*
X002220Y006020D01*
X002348Y005862D02*
X002012Y005862D01*
X001879Y005660D02*
X001700Y005660D01*
X001700Y005200D01*
X002160Y005200D01*
X002160Y005379D01*
X001879Y005660D01*
X001994Y005545D02*
X002394Y005545D01*
X002235Y005386D02*
X002153Y005386D01*
X002160Y005228D02*
X002220Y005228D01*
X002160Y005160D02*
X001700Y005160D01*
X001700Y005200D01*
X001660Y005200D01*
X001660Y005660D01*
X001481Y005660D01*
X001200Y005379D01*
X001200Y005200D01*
X001660Y005200D01*
X001660Y005160D01*
X001700Y005160D01*
X001700Y004700D01*
X001879Y004700D01*
X002160Y004981D01*
X002160Y005160D01*
X002160Y005069D02*
X002220Y005069D01*
X002299Y004911D02*
X002089Y004911D01*
X001931Y004752D02*
X002457Y004752D01*
X002903Y004752D02*
X003420Y004752D01*
X003299Y004911D02*
X003061Y004911D01*
X003140Y005069D02*
X003220Y005069D01*
X003220Y005228D02*
X003140Y005228D01*
X003125Y005386D02*
X003235Y005386D01*
X003394Y005545D02*
X002966Y005545D01*
X003012Y005862D02*
X003348Y005862D01*
X003220Y006020D02*
X003140Y006020D01*
X003140Y006179D02*
X003220Y006179D01*
X003220Y006337D02*
X003140Y006337D01*
X003015Y006496D02*
X003345Y006496D01*
X002890Y006654D02*
X003920Y006654D01*
X003920Y006813D02*
X002890Y006813D01*
X002893Y006971D02*
X003920Y006971D01*
X003920Y007130D02*
X003051Y007130D01*
X003210Y007288D02*
X003920Y007288D01*
X003920Y007447D02*
X003368Y007447D01*
X003527Y007605D02*
X003920Y007605D01*
X003920Y007764D02*
X003685Y007764D01*
X003844Y007922D02*
X003920Y007922D01*
X002951Y008873D02*
X001010Y008873D01*
X001010Y008715D02*
X002793Y008715D01*
X002634Y008556D02*
X001010Y008556D01*
X001010Y008398D02*
X002476Y008398D01*
X002317Y008239D02*
X001010Y008239D01*
X001010Y008081D02*
X002159Y008081D01*
X002000Y007922D02*
X001010Y007922D01*
X001010Y007764D02*
X001842Y007764D01*
X001683Y007605D02*
X001010Y007605D01*
X001010Y007447D02*
X001525Y007447D01*
X001470Y007288D02*
X001010Y007288D01*
X001010Y007130D02*
X001470Y007130D01*
X001470Y006971D02*
X001010Y006971D01*
X001010Y006813D02*
X001470Y006813D01*
X001470Y006654D02*
X001010Y006654D01*
X001010Y006496D02*
X001345Y006496D01*
X001220Y006337D02*
X001010Y006337D01*
X001010Y006179D02*
X001220Y006179D01*
X001220Y006020D02*
X001010Y006020D01*
X001010Y005862D02*
X001348Y005862D01*
X001366Y005545D02*
X001010Y005545D01*
X001010Y005703D02*
X003523Y005703D01*
X001700Y005545D02*
X001660Y005545D01*
X001660Y005386D02*
X001700Y005386D01*
X001700Y005228D02*
X001660Y005228D01*
X001660Y005160D02*
X001200Y005160D01*
X001200Y004981D01*
X001481Y004700D01*
X001660Y004700D01*
X001660Y005160D01*
X001660Y005069D02*
X001700Y005069D01*
X001700Y004911D02*
X001660Y004911D01*
X001660Y004752D02*
X001700Y004752D01*
X001429Y004752D02*
X001010Y004752D01*
X001010Y004911D02*
X001271Y004911D01*
X001200Y005069D02*
X001010Y005069D01*
X001010Y005228D02*
X001200Y005228D01*
X001207Y005386D02*
X001010Y005386D01*
X003703Y009032D02*
X004360Y009032D01*
X004470Y009190D02*
X003862Y009190D01*
X004020Y009349D02*
X004470Y009349D01*
X004469Y009507D02*
X004179Y009507D01*
X004337Y009666D02*
X004348Y009666D01*
X004378Y010300D02*
X002219Y010300D01*
X002363Y010458D02*
X004536Y010458D01*
X004695Y010617D02*
X002416Y010617D01*
X002411Y010775D02*
X004853Y010775D01*
X005012Y010934D02*
X002344Y010934D01*
X002165Y011092D02*
X005790Y011092D01*
X007197Y012160D02*
X007214Y012200D01*
X007660Y012200D01*
X007660Y012160D01*
X007197Y012160D01*
X007660Y012043D02*
X007700Y012043D01*
X007700Y011885D02*
X007660Y011885D01*
X007660Y011726D02*
X007700Y011726D01*
X007700Y011568D02*
X007660Y011568D01*
X008029Y011568D02*
X008083Y011568D01*
X008188Y011726D02*
X008242Y011726D01*
X010005Y010458D02*
X010661Y010458D01*
X010718Y010515D02*
X010323Y010120D01*
X009812Y010120D01*
X009651Y010053D01*
X009527Y009929D01*
X009460Y009768D01*
X009460Y009592D01*
X009527Y009431D01*
X009643Y009315D01*
X009343Y009015D01*
X009220Y008892D01*
X009220Y005989D01*
X009257Y005952D01*
X009103Y005952D01*
X009140Y005989D01*
X009140Y006371D01*
X008871Y006640D01*
X008489Y006640D01*
X008220Y006371D01*
X008220Y005989D01*
X008257Y005952D01*
X008103Y005952D01*
X008140Y005989D01*
X008140Y006343D01*
X008765Y006968D01*
X008765Y009359D01*
X008858Y009320D01*
X009002Y009320D01*
X009134Y009375D01*
X009235Y009476D01*
X009290Y009608D01*
X009290Y009743D01*
X010454Y010908D01*
X011785Y010908D01*
X011740Y010862D01*
X011740Y010680D01*
X012180Y010680D01*
X012620Y010680D01*
X012620Y010862D01*
X012421Y011061D01*
X012760Y011401D01*
X012760Y011336D01*
X012824Y011182D01*
X012942Y011064D01*
X013096Y011000D01*
X013264Y011000D01*
X013332Y011028D01*
X013312Y011009D01*
X013258Y010877D01*
X013258Y010733D01*
X013312Y010601D01*
X013414Y010500D01*
X013486Y010470D01*
X013468Y010452D01*
X012575Y010452D01*
X012620Y010498D01*
X012620Y010680D01*
X012180Y010680D01*
X012180Y010680D01*
X012180Y010680D01*
X011740Y010680D01*
X011740Y010498D01*
X011785Y010452D01*
X011267Y010452D01*
X011204Y010515D01*
X010718Y010515D01*
X010503Y010300D02*
X009847Y010300D01*
X009688Y010141D02*
X010344Y010141D01*
X009580Y009983D02*
X009530Y009983D01*
X009483Y009824D02*
X009371Y009824D01*
X009290Y009666D02*
X009460Y009666D01*
X009495Y009507D02*
X009248Y009507D01*
X009070Y009349D02*
X009609Y009349D01*
X009518Y009190D02*
X008765Y009190D01*
X008765Y009032D02*
X009360Y009032D01*
X009220Y008873D02*
X008765Y008873D01*
X008765Y008715D02*
X009220Y008715D01*
X009220Y008556D02*
X008765Y008556D01*
X008765Y008398D02*
X009220Y008398D01*
X009220Y008239D02*
X008765Y008239D01*
X008765Y008081D02*
X009220Y008081D01*
X009220Y007922D02*
X008765Y007922D01*
X008765Y007764D02*
X009220Y007764D01*
X009220Y007605D02*
X008765Y007605D01*
X008765Y007447D02*
X009220Y007447D01*
X009220Y007288D02*
X008765Y007288D01*
X008765Y007130D02*
X009220Y007130D01*
X009220Y006971D02*
X008765Y006971D01*
X008609Y006813D02*
X009220Y006813D01*
X009220Y006654D02*
X008451Y006654D01*
X008345Y006496D02*
X008292Y006496D01*
X008220Y006337D02*
X008140Y006337D01*
X008140Y006179D02*
X008220Y006179D01*
X008220Y006020D02*
X008140Y006020D01*
X009015Y006496D02*
X009220Y006496D01*
X009220Y006337D02*
X009140Y006337D01*
X009140Y006179D02*
X009220Y006179D01*
X009220Y006020D02*
X009140Y006020D01*
X008790Y009349D02*
X008765Y009349D01*
X010164Y010617D02*
X011740Y010617D01*
X011740Y010775D02*
X010322Y010775D01*
X011261Y010458D02*
X011780Y010458D01*
X012580Y010458D02*
X013474Y010458D01*
X013306Y010617D02*
X012620Y010617D01*
X012620Y010775D02*
X013258Y010775D01*
X013281Y010934D02*
X012549Y010934D01*
X012452Y011092D02*
X012914Y011092D01*
X012796Y011251D02*
X012610Y011251D01*
X020452Y005757D02*
X020489Y005720D01*
X020871Y005720D01*
X021140Y005989D01*
X021140Y006343D01*
X021827Y007031D01*
X021827Y008157D01*
X021844Y008133D01*
X021893Y008084D01*
X021949Y008044D01*
X022011Y008012D01*
X022077Y007991D01*
X022145Y007980D01*
X022180Y007980D01*
X022215Y007980D01*
X022283Y007991D01*
X022349Y008012D01*
X022411Y008044D01*
X022467Y008084D01*
X022516Y008133D01*
X022556Y008189D01*
X022588Y008251D01*
X022609Y008317D01*
X022620Y008385D01*
X022620Y008680D01*
X022620Y008975D01*
X022609Y009043D01*
X022588Y009109D01*
X022556Y009171D01*
X022516Y009227D01*
X022467Y009276D01*
X022411Y009316D01*
X022349Y009348D01*
X022283Y009369D01*
X022215Y009380D01*
X022180Y009380D01*
X022180Y008680D01*
X022180Y008680D01*
X022620Y008680D01*
X022180Y008680D01*
X022180Y008680D01*
X022180Y009380D01*
X022145Y009380D01*
X022077Y009369D01*
X022011Y009348D01*
X021949Y009316D01*
X021893Y009276D01*
X021844Y009227D01*
X021804Y009171D01*
X021802Y009167D01*
X021704Y009265D01*
X021392Y009577D01*
X021204Y009577D01*
X020812Y009970D01*
X023760Y009970D01*
X023760Y009836D01*
X023824Y009682D01*
X023826Y009680D01*
X023824Y009678D01*
X023760Y009524D01*
X023760Y008836D01*
X023824Y008682D01*
X023942Y008564D01*
X024096Y008500D01*
X024264Y008500D01*
X024418Y008564D01*
X024536Y008682D01*
X024600Y008836D01*
X024600Y009524D01*
X024536Y009678D01*
X024534Y009680D01*
X024536Y009682D01*
X024600Y009836D01*
X024600Y010524D01*
X024536Y010678D01*
X024431Y010783D01*
X024929Y010783D01*
X024824Y010678D01*
X024760Y010524D01*
X024760Y009836D01*
X024824Y009682D01*
X024826Y009680D01*
X024824Y009678D01*
X024760Y009524D01*
X024760Y008836D01*
X024824Y008682D01*
X024942Y008564D01*
X025096Y008500D01*
X025264Y008500D01*
X025418Y008564D01*
X025536Y008682D01*
X025600Y008836D01*
X025600Y009524D01*
X025536Y009678D01*
X025534Y009680D01*
X025536Y009682D01*
X025600Y009836D01*
X025600Y010463D01*
X025760Y010303D01*
X025760Y009836D01*
X025824Y009682D01*
X025826Y009680D01*
X025824Y009678D01*
X025760Y009524D01*
X025760Y008836D01*
X025824Y008682D01*
X025905Y008601D01*
X025881Y008577D01*
X025781Y008577D01*
X023843Y006640D01*
X023489Y006640D01*
X023220Y006371D01*
X023220Y005989D01*
X023489Y005720D01*
X023871Y005720D01*
X024140Y005989D01*
X024140Y006343D01*
X025918Y008121D01*
X025976Y008062D01*
X026108Y008008D01*
X026252Y008008D01*
X026384Y008062D01*
X026485Y008164D01*
X026540Y008296D01*
X026540Y008439D01*
X026485Y008571D01*
X026455Y008601D01*
X026536Y008682D01*
X026600Y008836D01*
X026600Y009524D01*
X026536Y009678D01*
X026534Y009680D01*
X026536Y009682D01*
X026600Y009836D01*
X026600Y010463D01*
X026760Y010303D01*
X026760Y009836D01*
X026824Y009682D01*
X026826Y009680D01*
X026824Y009678D01*
X026760Y009524D01*
X026760Y008836D01*
X026824Y008682D01*
X026942Y008564D01*
X027039Y008524D01*
X025013Y006498D01*
X024871Y006640D01*
X024489Y006640D01*
X024220Y006371D01*
X024220Y005989D01*
X024489Y005720D01*
X024871Y005720D01*
X025140Y005989D01*
X025140Y006031D01*
X025202Y006093D01*
X025220Y006111D01*
X025220Y005989D01*
X025489Y005720D01*
X025871Y005720D01*
X025908Y005757D01*
X025908Y005603D01*
X025871Y005640D01*
X025489Y005640D01*
X025220Y005371D01*
X025220Y004989D01*
X025470Y004739D01*
X025470Y004680D01*
X024890Y004680D01*
X024890Y004739D01*
X025140Y004989D01*
X025140Y005371D01*
X024871Y005640D01*
X024489Y005640D01*
X024220Y005371D01*
X024220Y004989D01*
X024470Y004739D01*
X024470Y004680D01*
X023890Y004680D01*
X023890Y004739D01*
X024140Y004989D01*
X024140Y005371D01*
X023871Y005640D01*
X023489Y005640D01*
X023220Y005371D01*
X023220Y004989D01*
X023470Y004739D01*
X023470Y004680D01*
X021890Y004680D01*
X021890Y004739D01*
X022140Y004989D01*
X022140Y005371D01*
X021871Y005640D01*
X021489Y005640D01*
X021220Y005371D01*
X021220Y004989D01*
X021470Y004739D01*
X021470Y004680D01*
X020890Y004680D01*
X020890Y004739D01*
X021140Y004989D01*
X021140Y005371D01*
X020871Y005640D01*
X020517Y005640D01*
X020452Y005704D01*
X020452Y005757D01*
X020454Y005703D02*
X025908Y005703D01*
X025394Y005545D02*
X024966Y005545D01*
X025125Y005386D02*
X025235Y005386D01*
X025220Y005228D02*
X025140Y005228D01*
X025140Y005069D02*
X025220Y005069D01*
X025299Y004911D02*
X025061Y004911D01*
X024903Y004752D02*
X025457Y004752D01*
X024457Y004752D02*
X023903Y004752D01*
X024061Y004911D02*
X024299Y004911D01*
X024220Y005069D02*
X024140Y005069D01*
X024140Y005228D02*
X024220Y005228D01*
X024235Y005386D02*
X024125Y005386D01*
X023966Y005545D02*
X024394Y005545D01*
X024348Y005862D02*
X024012Y005862D01*
X024140Y006020D02*
X024220Y006020D01*
X024220Y006179D02*
X024140Y006179D01*
X024140Y006337D02*
X024220Y006337D01*
X024292Y006496D02*
X024345Y006496D01*
X024451Y006654D02*
X025170Y006654D01*
X025328Y006813D02*
X024609Y006813D01*
X024768Y006971D02*
X025487Y006971D01*
X025645Y007130D02*
X024926Y007130D01*
X025085Y007288D02*
X025804Y007288D01*
X025962Y007447D02*
X025243Y007447D01*
X025402Y007605D02*
X026121Y007605D01*
X026279Y007764D02*
X025560Y007764D01*
X025719Y007922D02*
X026438Y007922D01*
X026402Y008081D02*
X026596Y008081D01*
X026516Y008239D02*
X026755Y008239D01*
X026913Y008398D02*
X026540Y008398D01*
X026492Y008556D02*
X026961Y008556D01*
X026811Y008715D02*
X026549Y008715D01*
X026600Y008873D02*
X026760Y008873D01*
X026760Y009032D02*
X026600Y009032D01*
X026600Y009190D02*
X026760Y009190D01*
X026760Y009349D02*
X026600Y009349D01*
X026600Y009507D02*
X026760Y009507D01*
X026819Y009666D02*
X026541Y009666D01*
X026595Y009824D02*
X026765Y009824D01*
X026760Y009983D02*
X026600Y009983D01*
X026600Y010141D02*
X026760Y010141D01*
X026760Y010300D02*
X026600Y010300D01*
X026600Y010458D02*
X026605Y010458D01*
X025760Y010300D02*
X025600Y010300D01*
X025600Y010458D02*
X025605Y010458D01*
X024921Y010775D02*
X024439Y010775D01*
X024561Y010617D02*
X024799Y010617D01*
X024760Y010458D02*
X024600Y010458D01*
X024600Y010300D02*
X024760Y010300D01*
X024760Y010141D02*
X024600Y010141D01*
X024600Y009983D02*
X024760Y009983D01*
X024765Y009824D02*
X024595Y009824D01*
X024541Y009666D02*
X024819Y009666D01*
X024760Y009507D02*
X024600Y009507D01*
X024600Y009349D02*
X024760Y009349D01*
X024760Y009190D02*
X024600Y009190D01*
X024600Y009032D02*
X024760Y009032D01*
X024760Y008873D02*
X024600Y008873D01*
X024549Y008715D02*
X024811Y008715D01*
X024961Y008556D02*
X024399Y008556D01*
X023961Y008556D02*
X022620Y008556D01*
X022620Y008398D02*
X025601Y008398D01*
X025759Y008556D02*
X025399Y008556D01*
X025549Y008715D02*
X025811Y008715D01*
X025760Y008873D02*
X025600Y008873D01*
X025600Y009032D02*
X025760Y009032D01*
X025760Y009190D02*
X025600Y009190D01*
X025600Y009349D02*
X025760Y009349D01*
X025760Y009507D02*
X025600Y009507D01*
X025541Y009666D02*
X025819Y009666D01*
X025765Y009824D02*
X025595Y009824D01*
X025600Y009983D02*
X025760Y009983D01*
X025760Y010141D02*
X025600Y010141D01*
X023819Y009666D02*
X021116Y009666D01*
X020958Y009824D02*
X023765Y009824D01*
X023760Y009507D02*
X021462Y009507D01*
X021621Y009349D02*
X022013Y009349D01*
X022180Y009349D02*
X022180Y009349D01*
X022180Y009190D02*
X022180Y009190D01*
X022180Y009032D02*
X022180Y009032D01*
X022180Y008873D02*
X022180Y008873D01*
X022180Y008715D02*
X022180Y008715D01*
X022180Y008680D02*
X022180Y007980D01*
X022180Y008680D01*
X022180Y008680D01*
X022180Y008556D02*
X022180Y008556D01*
X022180Y008398D02*
X022180Y008398D01*
X022180Y008239D02*
X022180Y008239D01*
X022180Y008081D02*
X022180Y008081D01*
X022461Y008081D02*
X025284Y008081D01*
X025442Y008239D02*
X022582Y008239D01*
X022620Y008715D02*
X023811Y008715D01*
X023760Y008873D02*
X022620Y008873D01*
X022611Y009032D02*
X023760Y009032D01*
X023760Y009190D02*
X022542Y009190D01*
X022347Y009349D02*
X023760Y009349D01*
X021818Y009190D02*
X021779Y009190D01*
X021827Y008081D02*
X021899Y008081D01*
X021827Y007922D02*
X025125Y007922D01*
X024967Y007764D02*
X021827Y007764D01*
X021827Y007605D02*
X024808Y007605D01*
X024650Y007447D02*
X021827Y007447D01*
X021827Y007288D02*
X024491Y007288D01*
X024333Y007130D02*
X021827Y007130D01*
X021768Y006971D02*
X024174Y006971D01*
X024016Y006813D02*
X021609Y006813D01*
X021489Y006640D02*
X021220Y006371D01*
X021220Y005989D01*
X021489Y005720D01*
X021871Y005720D01*
X022140Y005989D01*
X022140Y006371D01*
X021871Y006640D01*
X021489Y006640D01*
X021451Y006654D02*
X023857Y006654D01*
X023345Y006496D02*
X023015Y006496D01*
X023140Y006371D02*
X022871Y006640D01*
X022489Y006640D01*
X022220Y006371D01*
X022220Y005989D01*
X022489Y005720D01*
X022871Y005720D01*
X023140Y005989D01*
X023140Y006371D01*
X023140Y006337D02*
X023220Y006337D01*
X023220Y006179D02*
X023140Y006179D01*
X023140Y006020D02*
X023220Y006020D01*
X023348Y005862D02*
X023012Y005862D01*
X022879Y005660D02*
X022700Y005660D01*
X022700Y005200D01*
X023160Y005200D01*
X023160Y005379D01*
X022879Y005660D01*
X022994Y005545D02*
X023394Y005545D01*
X023235Y005386D02*
X023153Y005386D01*
X023160Y005228D02*
X023220Y005228D01*
X023160Y005160D02*
X022700Y005160D01*
X022700Y005200D01*
X022660Y005200D01*
X022660Y005660D01*
X022481Y005660D01*
X022200Y005379D01*
X022200Y005200D01*
X022660Y005200D01*
X022660Y005160D01*
X022700Y005160D01*
X022700Y004700D01*
X022879Y004700D01*
X023160Y004981D01*
X023160Y005160D01*
X023160Y005069D02*
X023220Y005069D01*
X023299Y004911D02*
X023089Y004911D01*
X022931Y004752D02*
X023457Y004752D01*
X022700Y004752D02*
X022660Y004752D01*
X022660Y004700D02*
X022660Y005160D01*
X022200Y005160D01*
X022200Y004981D01*
X022481Y004700D01*
X022660Y004700D01*
X022660Y004911D02*
X022700Y004911D01*
X022700Y005069D02*
X022660Y005069D01*
X022660Y005228D02*
X022700Y005228D01*
X022700Y005386D02*
X022660Y005386D01*
X022660Y005545D02*
X022700Y005545D01*
X022366Y005545D02*
X021966Y005545D01*
X022125Y005386D02*
X022207Y005386D01*
X022200Y005228D02*
X022140Y005228D01*
X022140Y005069D02*
X022200Y005069D01*
X022271Y004911D02*
X022061Y004911D01*
X021903Y004752D02*
X022429Y004752D01*
X021457Y004752D02*
X020903Y004752D01*
X021061Y004911D02*
X021299Y004911D01*
X021220Y005069D02*
X021140Y005069D01*
X021140Y005228D02*
X021220Y005228D01*
X021235Y005386D02*
X021125Y005386D01*
X020966Y005545D02*
X021394Y005545D01*
X021348Y005862D02*
X021012Y005862D01*
X021140Y006020D02*
X021220Y006020D01*
X021220Y006179D02*
X021140Y006179D01*
X021140Y006337D02*
X021220Y006337D01*
X021292Y006496D02*
X021345Y006496D01*
X022015Y006496D02*
X022345Y006496D01*
X022220Y006337D02*
X022140Y006337D01*
X022140Y006179D02*
X022220Y006179D01*
X022220Y006020D02*
X022140Y006020D01*
X022012Y005862D02*
X022348Y005862D01*
X025012Y005862D02*
X025348Y005862D01*
X025220Y006020D02*
X025140Y006020D01*
X025877Y008081D02*
X025958Y008081D01*
X030140Y006337D02*
X030220Y006337D01*
X030220Y006371D02*
X030220Y005989D01*
X030489Y005720D01*
X030871Y005720D01*
X031140Y005989D01*
X031140Y006343D01*
X032827Y008031D01*
X032827Y011093D01*
X033260Y011526D01*
X033260Y011506D01*
X033506Y011260D01*
X033854Y011260D01*
X034100Y011506D01*
X034100Y011854D01*
X033854Y012100D01*
X033834Y012100D01*
X034001Y012267D01*
X034000Y012264D01*
X034000Y012096D01*
X034064Y011942D01*
X034182Y011824D01*
X034336Y011760D01*
X035024Y011760D01*
X035178Y011824D01*
X035296Y011942D01*
X035360Y012096D01*
X035360Y012264D01*
X035296Y012418D01*
X035178Y012536D01*
X035024Y012600D01*
X034511Y012600D01*
X034540Y012671D01*
X034540Y012814D01*
X034485Y012946D01*
X034384Y013048D01*
X034252Y013102D01*
X034108Y013102D01*
X033976Y013048D01*
X033875Y012946D01*
X033820Y012814D01*
X033820Y012679D01*
X032408Y011267D01*
X032408Y009818D01*
X032349Y009848D01*
X032283Y009869D01*
X032215Y009880D01*
X032180Y009880D01*
X032180Y009180D01*
X032180Y009180D01*
X032180Y008480D01*
X032215Y008480D01*
X032283Y008491D01*
X032349Y008512D01*
X032408Y008542D01*
X032408Y008204D01*
X030843Y006640D01*
X030489Y006640D01*
X030220Y006371D01*
X030292Y006496D02*
X030345Y006496D01*
X030451Y006654D02*
X030857Y006654D01*
X031016Y006813D02*
X030609Y006813D01*
X030768Y006971D02*
X031174Y006971D01*
X031333Y007130D02*
X030827Y007130D01*
X030827Y007288D02*
X031491Y007288D01*
X031650Y007447D02*
X030827Y007447D01*
X030827Y007605D02*
X031808Y007605D01*
X031967Y007764D02*
X030827Y007764D01*
X030827Y007922D02*
X032125Y007922D01*
X032284Y008081D02*
X030827Y008081D01*
X030827Y008239D02*
X032408Y008239D01*
X032408Y008398D02*
X030827Y008398D01*
X030827Y008556D02*
X030961Y008556D01*
X031399Y008556D02*
X031932Y008556D01*
X031949Y008544D02*
X032011Y008512D01*
X032077Y008491D01*
X032145Y008480D01*
X032180Y008480D01*
X032180Y009180D01*
X032180Y009180D01*
X032180Y009180D01*
X031740Y009180D01*
X031740Y009475D01*
X031751Y009543D01*
X031772Y009609D01*
X031804Y009671D01*
X031844Y009727D01*
X031893Y009776D01*
X031949Y009816D01*
X032011Y009848D01*
X032077Y009869D01*
X032145Y009880D01*
X032180Y009880D01*
X032180Y009180D01*
X031740Y009180D01*
X031740Y008885D01*
X031751Y008817D01*
X031772Y008751D01*
X031804Y008689D01*
X031844Y008633D01*
X031893Y008584D01*
X031949Y008544D01*
X032180Y008556D02*
X032180Y008556D01*
X032180Y008715D02*
X032180Y008715D01*
X032180Y008873D02*
X032180Y008873D01*
X032180Y009032D02*
X032180Y009032D01*
X032180Y009190D02*
X032180Y009190D01*
X032180Y009349D02*
X032180Y009349D01*
X032180Y009507D02*
X032180Y009507D01*
X032180Y009666D02*
X032180Y009666D01*
X032180Y009824D02*
X032180Y009824D01*
X032396Y009824D02*
X032408Y009824D01*
X032408Y009983D02*
X031600Y009983D01*
X031600Y010141D02*
X032408Y010141D01*
X032408Y010300D02*
X031600Y010300D01*
X031600Y010458D02*
X032408Y010458D01*
X032408Y010617D02*
X031561Y010617D01*
X031439Y010775D02*
X032408Y010775D01*
X032408Y010934D02*
X031168Y010934D01*
X031327Y011092D02*
X032408Y011092D01*
X032408Y011251D02*
X031485Y011251D01*
X031644Y011409D02*
X032550Y011409D01*
X032708Y011568D02*
X031802Y011568D01*
X031961Y011726D02*
X032867Y011726D01*
X033025Y011885D02*
X032119Y011885D01*
X032278Y012043D02*
X033184Y012043D01*
X033342Y012202D02*
X032436Y012202D01*
X032595Y012360D02*
X033501Y012360D01*
X033659Y012519D02*
X032753Y012519D01*
X032912Y012677D02*
X033818Y012677D01*
X033829Y012836D02*
X033070Y012836D01*
X033229Y012994D02*
X033922Y012994D01*
X034438Y012994D02*
X035908Y012994D01*
X035908Y013153D02*
X033387Y013153D01*
X033390Y013311D02*
X034427Y013311D01*
X034498Y013240D02*
X034680Y013240D01*
X034862Y013240D01*
X035120Y013498D01*
X035120Y013680D01*
X035120Y013862D01*
X034862Y014120D01*
X034680Y014120D01*
X034680Y013680D01*
X035120Y013680D01*
X034680Y013680D01*
X034680Y013680D01*
X034680Y013680D01*
X034680Y013240D01*
X034680Y013680D01*
X034680Y013680D01*
X034680Y013680D01*
X034240Y013680D01*
X034240Y013862D01*
X034498Y014120D01*
X034680Y014120D01*
X034680Y013680D01*
X034240Y013680D01*
X034240Y013498D01*
X034498Y013240D01*
X034680Y013311D02*
X034680Y013311D01*
X034680Y013470D02*
X034680Y013470D01*
X034680Y013628D02*
X034680Y013628D01*
X034680Y013787D02*
X034680Y013787D01*
X034680Y013945D02*
X034680Y013945D01*
X034680Y014104D02*
X034680Y014104D01*
X034730Y014262D02*
X033390Y014262D01*
X033390Y014104D02*
X034481Y014104D01*
X034323Y013945D02*
X033390Y013945D01*
X033390Y013787D02*
X034240Y013787D01*
X034240Y013628D02*
X033390Y013628D01*
X033390Y013470D02*
X034268Y013470D01*
X034933Y013311D02*
X035455Y013311D01*
X035297Y013470D02*
X035092Y013470D01*
X035120Y013628D02*
X035260Y013628D01*
X035206Y013787D02*
X035120Y013787D01*
X035047Y013945D02*
X035037Y013945D01*
X034889Y014104D02*
X034879Y014104D01*
X034572Y014421D02*
X033390Y014421D01*
X033390Y014579D02*
X034413Y014579D01*
X034255Y014738D02*
X033390Y014738D01*
X033390Y014896D02*
X034096Y014896D01*
X033938Y015055D02*
X033390Y015055D01*
X033390Y015213D02*
X033779Y015213D01*
X033621Y015372D02*
X033390Y015372D01*
X033390Y015530D02*
X033462Y015530D01*
X033940Y016798D02*
X033947Y016798D01*
X033940Y016957D02*
X034533Y016957D01*
X034533Y017115D02*
X033940Y017115D01*
X033940Y017274D02*
X034533Y017274D01*
X034533Y017432D02*
X033940Y017432D01*
X033940Y017591D02*
X034669Y017591D01*
X034827Y017749D02*
X033940Y017749D01*
X033940Y017908D02*
X034986Y017908D01*
X035144Y018066D02*
X033940Y018066D01*
X033940Y018225D02*
X035303Y018225D01*
X035461Y018383D02*
X033940Y018383D01*
X033940Y018542D02*
X035620Y018542D01*
X035778Y018700D02*
X033940Y018700D01*
X033940Y018859D02*
X035937Y018859D01*
X036095Y019017D02*
X033940Y019017D01*
X033940Y019176D02*
X036254Y019176D01*
X036412Y019334D02*
X033940Y019334D01*
X033940Y019493D02*
X036571Y019493D01*
X036729Y019651D02*
X033940Y019651D01*
X033934Y019810D02*
X036888Y019810D01*
X037046Y019968D02*
X033822Y019968D01*
X033664Y020127D02*
X037205Y020127D01*
X037363Y020285D02*
X033505Y020285D01*
X033347Y020444D02*
X037522Y020444D01*
X037617Y020602D02*
X033188Y020602D01*
X033030Y020761D02*
X037591Y020761D01*
X037609Y020919D02*
X032871Y020919D01*
X032713Y021078D02*
X037678Y021078D01*
X037860Y021236D02*
X032554Y021236D01*
X032396Y021395D02*
X037621Y021395D01*
X037591Y021425D02*
X037685Y021331D01*
X038557Y021331D01*
X038651Y021425D01*
X038651Y022297D01*
X038557Y022391D01*
X037685Y022391D01*
X037591Y022297D01*
X037591Y021425D01*
X037591Y021553D02*
X035392Y021553D01*
X035418Y021564D02*
X035536Y021682D01*
X035600Y021836D01*
X035600Y022524D01*
X035536Y022678D01*
X035418Y022796D01*
X035264Y022860D01*
X035096Y022860D01*
X034942Y022796D01*
X034824Y022678D01*
X034760Y022524D01*
X034760Y021836D01*
X034824Y021682D01*
X034942Y021564D01*
X035096Y021500D01*
X035264Y021500D01*
X035418Y021564D01*
X035548Y021712D02*
X037591Y021712D01*
X037591Y021870D02*
X035600Y021870D01*
X035600Y022029D02*
X037591Y022029D01*
X037591Y022187D02*
X035600Y022187D01*
X035600Y022346D02*
X037639Y022346D01*
X038603Y022346D02*
X041400Y022346D01*
X041400Y022504D02*
X035600Y022504D01*
X035542Y022663D02*
X041400Y022663D01*
X041400Y022821D02*
X035358Y022821D01*
X035002Y022821D02*
X034358Y022821D01*
X034418Y022796D02*
X034264Y022860D01*
X034096Y022860D01*
X033942Y022796D01*
X033824Y022678D01*
X033760Y022524D01*
X033760Y021836D01*
X033824Y021682D01*
X033942Y021564D01*
X034096Y021500D01*
X034264Y021500D01*
X034418Y021564D01*
X034536Y021682D01*
X034600Y021836D01*
X034600Y022524D01*
X034536Y022678D01*
X034418Y022796D01*
X034542Y022663D02*
X034818Y022663D01*
X034760Y022504D02*
X034600Y022504D01*
X034600Y022346D02*
X034760Y022346D01*
X034760Y022187D02*
X034600Y022187D01*
X034600Y022029D02*
X034760Y022029D01*
X034760Y021870D02*
X034600Y021870D01*
X034548Y021712D02*
X034812Y021712D01*
X034968Y021553D02*
X034392Y021553D01*
X033968Y021553D02*
X033392Y021553D01*
X033418Y021564D02*
X033536Y021682D01*
X033600Y021836D01*
X033600Y022524D01*
X033536Y022678D01*
X033418Y022796D01*
X033264Y022860D01*
X033096Y022860D01*
X032942Y022796D01*
X032824Y022678D01*
X032760Y022524D01*
X032760Y021836D01*
X032824Y021682D01*
X032942Y021564D01*
X033096Y021500D01*
X033264Y021500D01*
X033418Y021564D01*
X033548Y021712D02*
X033812Y021712D01*
X033760Y021870D02*
X033600Y021870D01*
X033600Y022029D02*
X033760Y022029D01*
X033760Y022187D02*
X033600Y022187D01*
X033600Y022346D02*
X033760Y022346D01*
X033760Y022504D02*
X033600Y022504D01*
X033542Y022663D02*
X033818Y022663D01*
X034002Y022821D02*
X033358Y022821D01*
X033002Y022821D02*
X032358Y022821D01*
X032542Y022663D02*
X032818Y022663D01*
X032760Y022504D02*
X032600Y022504D01*
X032600Y022346D02*
X032760Y022346D01*
X032760Y022187D02*
X032600Y022187D01*
X032600Y022029D02*
X032760Y022029D01*
X032760Y021870D02*
X032600Y021870D01*
X032548Y021712D02*
X032812Y021712D01*
X032968Y021553D02*
X032392Y021553D01*
X032002Y022821D02*
X031844Y022821D01*
X031827Y022838D02*
X031827Y022838D01*
X031686Y022980D02*
X041400Y022980D01*
X041400Y023138D02*
X031527Y023138D01*
X031369Y023297D02*
X041400Y023297D01*
X041400Y022187D02*
X038651Y022187D01*
X038651Y022029D02*
X041400Y022029D01*
X041400Y021870D02*
X038651Y021870D01*
X038651Y021712D02*
X038887Y021712D01*
X038939Y021763D02*
X038790Y021614D01*
X038709Y021419D01*
X038709Y021208D01*
X038790Y021014D01*
X038939Y020865D01*
X039134Y020784D01*
X039344Y020784D01*
X039539Y020865D01*
X039688Y021014D01*
X039769Y021208D01*
X039769Y021419D01*
X039688Y021614D01*
X039539Y021763D01*
X039344Y021844D01*
X039134Y021844D01*
X038939Y021763D01*
X038764Y021553D02*
X038651Y021553D01*
X038621Y021395D02*
X038709Y021395D01*
X038709Y021236D02*
X038382Y021236D01*
X038563Y021078D02*
X038763Y021078D01*
X038884Y020919D02*
X038633Y020919D01*
X038651Y020761D02*
X041400Y020761D01*
X041400Y020919D02*
X039594Y020919D01*
X039715Y021078D02*
X041400Y021078D01*
X041400Y021236D02*
X039769Y021236D01*
X039769Y021395D02*
X041400Y021395D01*
X041400Y021553D02*
X039714Y021553D01*
X039591Y021712D02*
X041400Y021712D01*
X041400Y020602D02*
X039610Y020602D01*
X039539Y020673D02*
X039344Y020753D01*
X039134Y020753D01*
X038939Y020673D01*
X038790Y020524D01*
X038709Y020329D01*
X038709Y020118D01*
X038790Y019923D01*
X038939Y019774D01*
X039134Y019693D01*
X039344Y019693D01*
X039539Y019774D01*
X039688Y019923D01*
X039769Y020118D01*
X039769Y020329D01*
X039688Y020524D01*
X039539Y020673D01*
X039722Y020444D02*
X041400Y020444D01*
X041400Y020285D02*
X039769Y020285D01*
X039769Y020127D02*
X041400Y020127D01*
X041400Y019968D02*
X039707Y019968D01*
X039575Y019810D02*
X041400Y019810D01*
X041400Y019651D02*
X039382Y019651D01*
X039344Y019667D02*
X039134Y019667D01*
X038939Y019586D01*
X038790Y019437D01*
X038709Y019242D01*
X038709Y019031D01*
X038790Y018836D01*
X038939Y018687D01*
X039134Y018607D01*
X039344Y018607D01*
X039539Y018687D01*
X039688Y018836D01*
X039769Y019031D01*
X039769Y019242D01*
X039688Y019437D01*
X039539Y019586D01*
X039344Y019667D01*
X039096Y019651D02*
X038651Y019651D01*
X038651Y019575D02*
X038570Y019380D01*
X038421Y019231D01*
X038226Y019150D01*
X038016Y019150D01*
X037821Y019231D01*
X037672Y019380D01*
X037591Y019575D01*
X037591Y019785D01*
X037672Y019980D01*
X037821Y020129D01*
X038016Y020210D01*
X038226Y020210D01*
X038421Y020129D01*
X038570Y019980D01*
X038651Y019785D01*
X038651Y019575D01*
X038617Y019493D02*
X038845Y019493D01*
X038747Y019334D02*
X038525Y019334D01*
X038709Y019176D02*
X038288Y019176D01*
X038226Y019119D02*
X038421Y019039D01*
X038570Y018890D01*
X038651Y018695D01*
X038651Y018484D01*
X038570Y018289D01*
X038421Y018140D01*
X038226Y018059D01*
X038016Y018059D01*
X037821Y018140D01*
X037672Y018289D01*
X037591Y018484D01*
X037591Y018695D01*
X037672Y018890D01*
X037821Y019039D01*
X038016Y019119D01*
X038226Y019119D01*
X038443Y019017D02*
X038715Y019017D01*
X038781Y018859D02*
X038583Y018859D01*
X038649Y018700D02*
X038926Y018700D01*
X039050Y018542D02*
X038651Y018542D01*
X038609Y018383D02*
X038826Y018383D01*
X038790Y018346D02*
X038709Y018152D01*
X038709Y017941D01*
X038790Y017746D01*
X038939Y017597D01*
X039134Y017516D01*
X039344Y017516D01*
X039539Y017597D01*
X039688Y017746D01*
X039769Y017941D01*
X039769Y018152D01*
X039688Y018346D01*
X039539Y018495D01*
X039344Y018576D01*
X039134Y018576D01*
X038939Y018495D01*
X038790Y018346D01*
X038739Y018225D02*
X038506Y018225D01*
X038709Y018066D02*
X038242Y018066D01*
X038250Y018035D02*
X038164Y018049D01*
X038141Y018049D01*
X038141Y017519D01*
X038101Y017519D01*
X038101Y018049D01*
X038078Y018049D01*
X037992Y018035D01*
X037910Y018009D01*
X037833Y017969D01*
X037763Y017918D01*
X037701Y017857D01*
X037651Y017787D01*
X037611Y017710D01*
X037584Y017628D01*
X037571Y017542D01*
X037571Y017519D01*
X038101Y017519D01*
X038101Y017479D01*
X037571Y017479D01*
X037571Y017456D01*
X037584Y017370D01*
X037611Y017288D01*
X037651Y017211D01*
X037701Y017141D01*
X037763Y017079D01*
X037833Y017028D01*
X037910Y016989D01*
X037992Y016962D01*
X038078Y016949D01*
X038101Y016949D01*
X038101Y017479D01*
X038141Y017479D01*
X038141Y017519D01*
X038671Y017519D01*
X038671Y017542D01*
X038657Y017628D01*
X038631Y017710D01*
X038591Y017787D01*
X038540Y017857D01*
X038479Y017918D01*
X038409Y017969D01*
X038332Y018009D01*
X038250Y018035D01*
X038141Y017908D02*
X038101Y017908D01*
X038101Y017749D02*
X038141Y017749D01*
X038141Y017591D02*
X038101Y017591D01*
X038141Y017479D02*
X038671Y017479D01*
X038671Y017456D01*
X038657Y017370D01*
X038631Y017288D01*
X038591Y017211D01*
X038540Y017141D01*
X038479Y017079D01*
X038409Y017028D01*
X038332Y016989D01*
X038250Y016962D01*
X038164Y016949D01*
X038141Y016949D01*
X038141Y017479D01*
X038141Y017432D02*
X038101Y017432D01*
X038101Y017274D02*
X038141Y017274D01*
X038141Y017115D02*
X038101Y017115D01*
X038101Y016957D02*
X038141Y016957D01*
X038212Y016957D02*
X041400Y016957D01*
X041400Y017115D02*
X038515Y017115D01*
X038623Y017274D02*
X041400Y017274D01*
X041400Y017432D02*
X038667Y017432D01*
X038663Y017591D02*
X038954Y017591D01*
X038788Y017749D02*
X038611Y017749D01*
X038723Y017908D02*
X038490Y017908D01*
X038000Y018066D02*
X035738Y018066D01*
X035580Y017908D02*
X037752Y017908D01*
X037631Y017749D02*
X035421Y017749D01*
X035263Y017591D02*
X037579Y017591D01*
X037575Y017432D02*
X035104Y017432D01*
X034952Y017274D02*
X037618Y017274D01*
X037727Y017115D02*
X034952Y017115D01*
X034952Y016957D02*
X038029Y016957D01*
X038260Y015847D02*
X035614Y015847D01*
X035620Y016006D02*
X041400Y016006D01*
X041400Y016164D02*
X035620Y016164D01*
X035620Y016323D02*
X041400Y016323D01*
X041400Y016481D02*
X035619Y016481D01*
X035572Y016640D02*
X041400Y016640D01*
X041400Y016798D02*
X035436Y016798D01*
X035180Y016798D02*
X035180Y016798D01*
X035180Y016640D02*
X035180Y016640D01*
X035180Y016481D02*
X035180Y016481D01*
X035180Y016323D02*
X035180Y016323D01*
X035556Y015689D02*
X037970Y015689D01*
X037968Y015687D02*
X037752Y015471D01*
X037599Y015206D01*
X037520Y014911D01*
X037520Y014606D01*
X037599Y014311D01*
X037752Y014046D01*
X037968Y013831D01*
X038232Y013678D01*
X038527Y013599D01*
X038833Y013599D01*
X039128Y013678D01*
X039392Y013831D01*
X039608Y014046D01*
X039761Y014311D01*
X039840Y014606D01*
X039840Y014911D01*
X039761Y015206D01*
X039608Y015471D01*
X039392Y015687D01*
X039128Y015840D01*
X038833Y015919D01*
X038527Y015919D01*
X038232Y015840D01*
X037968Y015687D01*
X037811Y015530D02*
X035384Y015530D01*
X035473Y015372D02*
X037694Y015372D01*
X037603Y015213D02*
X035631Y015213D01*
X035790Y015055D02*
X037558Y015055D01*
X037520Y014896D02*
X035948Y014896D01*
X036107Y014738D02*
X037520Y014738D01*
X037527Y014579D02*
X036265Y014579D01*
X036327Y014421D02*
X037570Y014421D01*
X037627Y014262D02*
X036327Y014262D01*
X036327Y014104D02*
X037719Y014104D01*
X037853Y013945D02*
X036327Y013945D01*
X036327Y013787D02*
X038044Y013787D01*
X038418Y013628D02*
X036327Y013628D01*
X036327Y013470D02*
X041400Y013470D01*
X041400Y013628D02*
X038942Y013628D01*
X039316Y013787D02*
X041400Y013787D01*
X041400Y013945D02*
X039507Y013945D01*
X039641Y014104D02*
X041400Y014104D01*
X041400Y014262D02*
X039733Y014262D01*
X039790Y014421D02*
X041400Y014421D01*
X041400Y014579D02*
X039833Y014579D01*
X039840Y014738D02*
X041400Y014738D01*
X041400Y014896D02*
X039840Y014896D01*
X039802Y015055D02*
X041400Y015055D01*
X041400Y015213D02*
X039757Y015213D01*
X039666Y015372D02*
X041400Y015372D01*
X041400Y015530D02*
X039549Y015530D01*
X039390Y015689D02*
X041400Y015689D01*
X041400Y015847D02*
X039100Y015847D01*
X039524Y017591D02*
X041400Y017591D01*
X041400Y017749D02*
X039690Y017749D01*
X039755Y017908D02*
X041400Y017908D01*
X041400Y018066D02*
X039769Y018066D01*
X039739Y018225D02*
X041400Y018225D01*
X041400Y018383D02*
X039652Y018383D01*
X039428Y018542D02*
X041400Y018542D01*
X041400Y018700D02*
X039552Y018700D01*
X039698Y018859D02*
X041400Y018859D01*
X041400Y019017D02*
X039763Y019017D01*
X039769Y019176D02*
X041400Y019176D01*
X041400Y019334D02*
X039731Y019334D01*
X039633Y019493D02*
X041400Y019493D01*
X038903Y019810D02*
X038641Y019810D01*
X038575Y019968D02*
X038771Y019968D01*
X038709Y020127D02*
X038424Y020127D01*
X038334Y020285D02*
X038709Y020285D01*
X038757Y020444D02*
X038543Y020444D01*
X038625Y020602D02*
X038868Y020602D01*
X037818Y020127D02*
X037799Y020127D01*
X037667Y019968D02*
X037640Y019968D01*
X037601Y019810D02*
X037482Y019810D01*
X037591Y019651D02*
X037323Y019651D01*
X037165Y019493D02*
X037625Y019493D01*
X037717Y019334D02*
X037006Y019334D01*
X036848Y019176D02*
X037954Y019176D01*
X037799Y019017D02*
X036689Y019017D01*
X036531Y018859D02*
X037659Y018859D01*
X037593Y018700D02*
X036372Y018700D01*
X036214Y018542D02*
X037591Y018542D01*
X037633Y018383D02*
X036055Y018383D01*
X035897Y018225D02*
X037736Y018225D01*
X034533Y016798D02*
X034413Y016798D01*
X035905Y013311D02*
X035908Y013311D01*
X036327Y013311D02*
X041400Y013311D01*
X041400Y013153D02*
X036327Y013153D01*
X036350Y012994D02*
X041400Y012994D01*
X041400Y012836D02*
X036509Y012836D01*
X036667Y012677D02*
X041400Y012677D01*
X041400Y012519D02*
X038195Y012519D01*
X038320Y012360D02*
X041400Y012360D01*
X041400Y012202D02*
X038360Y012202D01*
X038338Y012043D02*
X038449Y012043D01*
X038291Y011885D02*
X038238Y011885D01*
X038243Y011726D02*
X038260Y011726D01*
X038577Y011251D02*
X041400Y011251D01*
X041400Y011409D02*
X039003Y011409D01*
X039100Y011568D02*
X041400Y011568D01*
X041400Y011726D02*
X039100Y011726D01*
X039069Y011885D02*
X041400Y011885D01*
X041400Y012043D02*
X038911Y012043D01*
X038890Y011092D02*
X041400Y011092D01*
X041400Y010934D02*
X039049Y010934D01*
X039120Y010775D02*
X041400Y010775D01*
X041400Y010617D02*
X039120Y010617D01*
X039080Y010458D02*
X041400Y010458D01*
X041400Y010300D02*
X038922Y010300D01*
X038680Y010300D02*
X038680Y010300D01*
X038680Y010240D02*
X038680Y010680D01*
X038680Y010680D01*
X038680Y010240D01*
X038680Y010458D02*
X038680Y010458D01*
X038680Y010617D02*
X038680Y010617D01*
X038680Y010775D02*
X038680Y010775D01*
X038680Y010934D02*
X038680Y010934D01*
X038680Y011092D02*
X038680Y011092D01*
X038240Y010617D02*
X038226Y010617D01*
X038256Y010458D02*
X038280Y010458D01*
X038345Y010300D02*
X038438Y010300D01*
X038360Y010141D02*
X041400Y010141D01*
X041400Y009983D02*
X038313Y009983D01*
X038178Y009824D02*
X038024Y009760D01*
X037336Y009760D01*
X037182Y009824D01*
X037047Y009983D02*
X035313Y009983D01*
X035360Y010141D02*
X037000Y010141D01*
X037015Y010300D02*
X035345Y010300D01*
X035256Y010458D02*
X037104Y010458D01*
X037251Y010772D02*
X037317Y010751D01*
X037385Y010740D01*
X037680Y010740D01*
X037680Y011180D01*
X037680Y011180D01*
X037680Y011180D01*
X036980Y011180D01*
X036980Y011145D01*
X036991Y011077D01*
X037012Y011011D01*
X037044Y010949D01*
X037084Y010893D01*
X037133Y010844D01*
X037189Y010804D01*
X037251Y010772D01*
X037246Y010775D02*
X035060Y010775D01*
X035024Y010760D02*
X035178Y010824D01*
X035296Y010942D01*
X035360Y011096D01*
X035360Y011264D01*
X035296Y011418D01*
X035178Y011536D01*
X035024Y011600D01*
X034336Y011600D01*
X034182Y011536D01*
X034064Y011418D01*
X034000Y011264D01*
X034000Y011096D01*
X034064Y010942D01*
X034182Y010824D01*
X034336Y010760D01*
X035024Y010760D01*
X035287Y010934D02*
X037055Y010934D01*
X036988Y011092D02*
X035358Y011092D01*
X035360Y011251D02*
X036986Y011251D01*
X037043Y011409D02*
X035300Y011409D01*
X035102Y011568D02*
X037183Y011568D01*
X037024Y011726D02*
X034100Y011726D01*
X034100Y011568D02*
X034258Y011568D01*
X034060Y011409D02*
X034003Y011409D01*
X034000Y011251D02*
X032985Y011251D01*
X032827Y011092D02*
X033498Y011092D01*
X033506Y011100D02*
X033260Y010854D01*
X033260Y010506D01*
X033506Y010260D01*
X033854Y010260D01*
X034100Y010506D01*
X034100Y010854D01*
X033854Y011100D01*
X033506Y011100D01*
X033340Y010934D02*
X032827Y010934D01*
X032827Y010775D02*
X033260Y010775D01*
X033260Y010617D02*
X032827Y010617D01*
X032827Y010458D02*
X033308Y010458D01*
X033467Y010300D02*
X032827Y010300D01*
X032827Y010141D02*
X034000Y010141D01*
X034015Y010300D02*
X033893Y010300D01*
X034052Y010458D02*
X034104Y010458D01*
X034100Y010617D02*
X037632Y010617D01*
X037680Y010775D02*
X037680Y010775D01*
X037680Y010934D02*
X037680Y010934D01*
X037680Y011092D02*
X037680Y011092D01*
X036866Y011885D02*
X035238Y011885D01*
X035338Y012043D02*
X036707Y012043D01*
X036549Y012202D02*
X035360Y012202D01*
X035320Y012360D02*
X036390Y012360D01*
X036232Y012519D02*
X035195Y012519D01*
X034531Y012836D02*
X035915Y012836D01*
X036073Y012677D02*
X034540Y012677D01*
X034000Y012202D02*
X033936Y012202D01*
X033911Y012043D02*
X034022Y012043D01*
X034069Y011885D02*
X034122Y011885D01*
X033357Y011409D02*
X033144Y011409D01*
X033862Y011092D02*
X034002Y011092D01*
X034020Y010934D02*
X034073Y010934D01*
X034100Y010775D02*
X034300Y010775D01*
X034047Y009983D02*
X032827Y009983D01*
X032827Y009507D02*
X034153Y009507D01*
X034182Y009536D02*
X034064Y009418D01*
X034000Y009264D01*
X034000Y009096D01*
X034064Y008942D01*
X034182Y008824D01*
X034336Y008760D01*
X035024Y008760D01*
X035178Y008824D01*
X035296Y008942D01*
X035360Y009096D01*
X035360Y009264D01*
X035296Y009418D01*
X035178Y009536D01*
X035024Y009600D01*
X034336Y009600D01*
X034182Y009536D01*
X034035Y009349D02*
X032827Y009349D01*
X032827Y009190D02*
X034000Y009190D01*
X034027Y009032D02*
X033922Y009032D01*
X033854Y009100D02*
X033506Y009100D01*
X033260Y008854D01*
X033260Y008506D01*
X033506Y008260D01*
X033854Y008260D01*
X034100Y008506D01*
X034100Y008854D01*
X033854Y009100D01*
X034081Y008873D02*
X034133Y008873D01*
X034100Y008715D02*
X041400Y008715D01*
X041400Y008873D02*
X038227Y008873D01*
X038178Y008824D02*
X038296Y008942D01*
X038360Y009096D01*
X038360Y009264D01*
X038296Y009418D01*
X038178Y009536D01*
X038024Y009600D01*
X037336Y009600D01*
X037182Y009536D01*
X037064Y009418D01*
X037000Y009264D01*
X037000Y009096D01*
X037064Y008942D01*
X037182Y008824D01*
X037336Y008760D01*
X038024Y008760D01*
X038178Y008824D01*
X038333Y009032D02*
X041400Y009032D01*
X041400Y009190D02*
X038360Y009190D01*
X038325Y009349D02*
X041400Y009349D01*
X041400Y009507D02*
X038207Y009507D01*
X037153Y009507D02*
X035207Y009507D01*
X035325Y009349D02*
X037035Y009349D01*
X037000Y009190D02*
X035360Y009190D01*
X035333Y009032D02*
X037027Y009032D01*
X037133Y008873D02*
X035227Y008873D01*
X035130Y008556D02*
X037230Y008556D01*
X037182Y008536D02*
X037064Y008418D01*
X037000Y008264D01*
X037000Y008096D01*
X037064Y007942D01*
X037182Y007824D01*
X037336Y007760D01*
X038024Y007760D01*
X038178Y007824D01*
X038296Y007942D01*
X038360Y008096D01*
X038360Y008264D01*
X038296Y008418D01*
X038178Y008536D01*
X038024Y008600D01*
X037336Y008600D01*
X037182Y008536D01*
X037055Y008398D02*
X035305Y008398D01*
X035296Y008418D02*
X035178Y008536D01*
X035024Y008600D01*
X034336Y008600D01*
X034182Y008536D01*
X034064Y008418D01*
X034000Y008264D01*
X034000Y008096D01*
X034064Y007942D01*
X034182Y007824D01*
X034336Y007760D01*
X035024Y007760D01*
X035178Y007824D01*
X035296Y007942D01*
X035360Y008096D01*
X035360Y008264D01*
X035296Y008418D01*
X035360Y008239D02*
X037000Y008239D01*
X037007Y008081D02*
X035353Y008081D01*
X035276Y007922D02*
X037084Y007922D01*
X037328Y007764D02*
X035032Y007764D01*
X035024Y007600D02*
X034336Y007600D01*
X034182Y007536D01*
X034064Y007418D01*
X034000Y007264D01*
X034000Y007096D01*
X034064Y006942D01*
X034182Y006824D01*
X034336Y006760D01*
X035024Y006760D01*
X035178Y006824D01*
X035296Y006942D01*
X035360Y007096D01*
X035360Y007264D01*
X035296Y007418D01*
X035178Y007536D01*
X035024Y007600D01*
X035267Y007447D02*
X037093Y007447D01*
X037064Y007418D02*
X037000Y007264D01*
X037000Y007096D01*
X037064Y006942D01*
X037182Y006824D01*
X037336Y006760D01*
X038024Y006760D01*
X038178Y006824D01*
X038296Y006942D01*
X038360Y007096D01*
X038360Y007264D01*
X038296Y007418D01*
X038178Y007536D01*
X038024Y007600D01*
X037336Y007600D01*
X037182Y007536D01*
X037064Y007418D01*
X037010Y007288D02*
X035350Y007288D01*
X035360Y007130D02*
X037000Y007130D01*
X037052Y006971D02*
X035308Y006971D01*
X035150Y006813D02*
X037210Y006813D01*
X037251Y006588D02*
X037189Y006556D01*
X037133Y006516D01*
X037084Y006467D01*
X037044Y006411D01*
X037012Y006349D01*
X036991Y006283D01*
X036980Y006215D01*
X036980Y006180D01*
X037680Y006180D01*
X037680Y006180D01*
X037680Y006620D01*
X037975Y006620D01*
X038043Y006609D01*
X038109Y006588D01*
X038171Y006556D01*
X038227Y006516D01*
X038276Y006467D01*
X038316Y006411D01*
X038348Y006349D01*
X038369Y006283D01*
X038380Y006215D01*
X038380Y006180D01*
X037680Y006180D01*
X037680Y006180D01*
X037680Y005740D01*
X037975Y005740D01*
X038043Y005751D01*
X038109Y005772D01*
X038171Y005804D01*
X038227Y005844D01*
X038276Y005893D01*
X038316Y005949D01*
X038348Y006011D01*
X038369Y006077D01*
X038380Y006145D01*
X038380Y006180D01*
X037680Y006180D01*
X037680Y006180D01*
X037680Y006180D01*
X037680Y006620D01*
X037385Y006620D01*
X037317Y006609D01*
X037251Y006588D01*
X037113Y006496D02*
X035218Y006496D01*
X035178Y006536D02*
X035024Y006600D01*
X034336Y006600D01*
X034182Y006536D01*
X034064Y006418D01*
X034000Y006264D01*
X034000Y006096D01*
X034064Y005942D01*
X034182Y005824D01*
X034336Y005760D01*
X035024Y005760D01*
X035178Y005824D01*
X035296Y005942D01*
X035360Y006096D01*
X035360Y006264D01*
X035296Y006418D01*
X035178Y006536D01*
X035330Y006337D02*
X037008Y006337D01*
X036980Y006180D02*
X036980Y006145D01*
X036991Y006077D01*
X037012Y006011D01*
X037044Y005949D01*
X037084Y005893D01*
X037133Y005844D01*
X037189Y005804D01*
X037251Y005772D01*
X037317Y005751D01*
X037385Y005740D01*
X037680Y005740D01*
X037680Y006180D01*
X036980Y006180D01*
X036980Y006179D02*
X035360Y006179D01*
X035328Y006020D02*
X037009Y006020D01*
X037116Y005862D02*
X035215Y005862D01*
X035109Y005588D02*
X035043Y005609D01*
X034975Y005620D01*
X034680Y005620D01*
X034680Y005180D01*
X034680Y005180D01*
X035380Y005180D01*
X035380Y005215D01*
X035369Y005283D01*
X035348Y005349D01*
X035316Y005411D01*
X035276Y005467D01*
X035227Y005516D01*
X035171Y005556D01*
X035109Y005588D01*
X035187Y005545D02*
X037202Y005545D01*
X037182Y005536D02*
X037064Y005418D01*
X037000Y005264D01*
X037000Y005096D01*
X037064Y004942D01*
X037182Y004824D01*
X037336Y004760D01*
X038024Y004760D01*
X038178Y004824D01*
X038296Y004942D01*
X038360Y005096D01*
X038360Y005264D01*
X038296Y005418D01*
X038178Y005536D01*
X038024Y005600D01*
X037336Y005600D01*
X037182Y005536D01*
X037051Y005386D02*
X035329Y005386D01*
X035378Y005228D02*
X037000Y005228D01*
X037011Y005069D02*
X035367Y005069D01*
X035369Y005077D02*
X035348Y005011D01*
X035316Y004949D01*
X035276Y004893D01*
X035227Y004844D01*
X035171Y004804D01*
X035109Y004772D01*
X035043Y004751D01*
X034975Y004740D01*
X034680Y004740D01*
X034680Y005180D01*
X034680Y005180D01*
X034680Y005180D01*
X034680Y005180D01*
X033980Y005180D01*
X033980Y005215D01*
X033991Y005283D01*
X034012Y005349D01*
X034044Y005411D01*
X034084Y005467D01*
X034133Y005516D01*
X034189Y005556D01*
X034251Y005588D01*
X034317Y005609D01*
X034385Y005620D01*
X034680Y005620D01*
X034680Y005180D01*
X035380Y005180D01*
X035380Y005145D01*
X035369Y005077D01*
X035288Y004911D02*
X037096Y004911D01*
X038264Y004911D02*
X041400Y004911D01*
X041400Y005069D02*
X038349Y005069D01*
X038360Y005228D02*
X041400Y005228D01*
X041400Y005386D02*
X038309Y005386D01*
X038158Y005545D02*
X041400Y005545D01*
X041400Y005703D02*
X029837Y005703D01*
X029966Y005545D02*
X030394Y005545D01*
X030235Y005386D02*
X030125Y005386D01*
X030140Y005228D02*
X030220Y005228D01*
X030220Y005069D02*
X030140Y005069D01*
X030061Y004911D02*
X030299Y004911D01*
X030457Y004752D02*
X029940Y004752D01*
X030903Y004752D02*
X031429Y004752D01*
X031481Y004700D02*
X031660Y004700D01*
X031660Y005160D01*
X031700Y005160D01*
X031700Y005200D01*
X032160Y005200D01*
X032160Y005379D01*
X031879Y005660D01*
X031700Y005660D01*
X031700Y005200D01*
X031660Y005200D01*
X031660Y005660D01*
X031481Y005660D01*
X031200Y005379D01*
X031200Y005200D01*
X031660Y005200D01*
X031660Y005160D01*
X031200Y005160D01*
X031200Y004981D01*
X031481Y004700D01*
X031660Y004752D02*
X031700Y004752D01*
X031700Y004700D02*
X031879Y004700D01*
X032160Y004981D01*
X032160Y005160D01*
X031700Y005160D01*
X031700Y004700D01*
X031700Y004911D02*
X031660Y004911D01*
X031660Y005069D02*
X031700Y005069D01*
X031700Y005228D02*
X031660Y005228D01*
X031660Y005386D02*
X031700Y005386D01*
X031700Y005545D02*
X031660Y005545D01*
X031489Y005720D02*
X031871Y005720D01*
X032140Y005989D01*
X032140Y006371D01*
X031871Y006640D01*
X031489Y006640D01*
X031220Y006371D01*
X031220Y005989D01*
X031489Y005720D01*
X031348Y005862D02*
X031012Y005862D01*
X031140Y006020D02*
X031220Y006020D01*
X031220Y006179D02*
X031140Y006179D01*
X031140Y006337D02*
X031220Y006337D01*
X031292Y006496D02*
X031345Y006496D01*
X031451Y006654D02*
X038260Y006654D01*
X038260Y006506D02*
X038260Y006854D01*
X038506Y007100D01*
X038854Y007100D01*
X039100Y006854D01*
X039100Y006506D01*
X038854Y006260D01*
X038506Y006260D01*
X038260Y006506D01*
X038271Y006496D02*
X038247Y006496D01*
X038352Y006337D02*
X038429Y006337D01*
X038380Y006179D02*
X041400Y006179D01*
X041400Y006337D02*
X038931Y006337D01*
X039089Y006496D02*
X041400Y006496D01*
X041400Y006654D02*
X039100Y006654D01*
X039100Y006813D02*
X041400Y006813D01*
X041400Y006971D02*
X038983Y006971D01*
X038862Y007240D02*
X038680Y007240D01*
X038680Y007680D01*
X038680Y007680D01*
X038680Y008120D01*
X038862Y008120D01*
X039120Y007862D01*
X039120Y007680D01*
X038680Y007680D01*
X038680Y007680D01*
X038680Y007680D01*
X038240Y007680D01*
X038240Y007862D01*
X038498Y008120D01*
X038680Y008120D01*
X038680Y007680D01*
X039120Y007680D01*
X039120Y007498D01*
X038862Y007240D01*
X038910Y007288D02*
X041400Y007288D01*
X041400Y007130D02*
X038360Y007130D01*
X038350Y007288D02*
X038450Y007288D01*
X038498Y007240D02*
X038240Y007498D01*
X038240Y007680D01*
X038680Y007680D01*
X038680Y007680D01*
X038680Y007240D01*
X038498Y007240D01*
X038680Y007288D02*
X038680Y007288D01*
X038680Y007447D02*
X038680Y007447D01*
X038680Y007605D02*
X038680Y007605D01*
X038680Y007764D02*
X038680Y007764D01*
X038680Y007922D02*
X038680Y007922D01*
X038680Y008081D02*
X038680Y008081D01*
X038902Y008081D02*
X041400Y008081D01*
X041400Y008239D02*
X038360Y008239D01*
X038353Y008081D02*
X038458Y008081D01*
X038300Y007922D02*
X038276Y007922D01*
X038240Y007764D02*
X038032Y007764D01*
X038240Y007605D02*
X034100Y007605D01*
X034100Y007506D02*
X033854Y007260D01*
X033506Y007260D01*
X033260Y007506D01*
X033260Y007854D01*
X033506Y008100D01*
X033854Y008100D01*
X034100Y007854D01*
X034100Y007506D01*
X034093Y007447D02*
X034040Y007447D01*
X034010Y007288D02*
X033882Y007288D01*
X034000Y007130D02*
X031926Y007130D01*
X031768Y006971D02*
X034052Y006971D01*
X034210Y006813D02*
X031609Y006813D01*
X032015Y006496D02*
X034142Y006496D01*
X034030Y006337D02*
X032140Y006337D01*
X032140Y006179D02*
X034000Y006179D01*
X034032Y006020D02*
X032140Y006020D01*
X032012Y005862D02*
X034145Y005862D01*
X034173Y005545D02*
X031994Y005545D01*
X032153Y005386D02*
X034031Y005386D01*
X033982Y005228D02*
X032160Y005228D01*
X032160Y005069D02*
X033993Y005069D01*
X033991Y005077D02*
X034012Y005011D01*
X034044Y004949D01*
X034084Y004893D01*
X034133Y004844D01*
X034189Y004804D01*
X034251Y004772D01*
X034317Y004751D01*
X034385Y004740D01*
X034680Y004740D01*
X034680Y005180D01*
X033980Y005180D01*
X033980Y005145D01*
X033991Y005077D01*
X034072Y004911D02*
X032089Y004911D01*
X031931Y004752D02*
X034313Y004752D01*
X034680Y004752D02*
X034680Y004752D01*
X034680Y004911D02*
X034680Y004911D01*
X034680Y005069D02*
X034680Y005069D01*
X034680Y005228D02*
X034680Y005228D01*
X034680Y005386D02*
X034680Y005386D01*
X034680Y005545D02*
X034680Y005545D01*
X035047Y004752D02*
X041400Y004752D01*
X041400Y005862D02*
X038244Y005862D01*
X038351Y006020D02*
X041400Y006020D01*
X041400Y007447D02*
X039069Y007447D01*
X039120Y007605D02*
X041400Y007605D01*
X041400Y007764D02*
X039120Y007764D01*
X039060Y007922D02*
X041400Y007922D01*
X041400Y008398D02*
X038305Y008398D01*
X038130Y008556D02*
X041400Y008556D01*
X038291Y007447D02*
X038267Y007447D01*
X038308Y006971D02*
X038377Y006971D01*
X038260Y006813D02*
X038150Y006813D01*
X037680Y006496D02*
X037680Y006496D01*
X037680Y006337D02*
X037680Y006337D01*
X037680Y006179D02*
X037680Y006179D01*
X037680Y006020D02*
X037680Y006020D01*
X037680Y005862D02*
X037680Y005862D01*
X034328Y007764D02*
X034100Y007764D01*
X034084Y007922D02*
X034032Y007922D01*
X034007Y008081D02*
X033873Y008081D01*
X034000Y008239D02*
X032827Y008239D01*
X032827Y008081D02*
X033487Y008081D01*
X033328Y007922D02*
X032719Y007922D01*
X032560Y007764D02*
X033260Y007764D01*
X033260Y007605D02*
X032402Y007605D01*
X032243Y007447D02*
X033320Y007447D01*
X033478Y007288D02*
X032085Y007288D01*
X032827Y008398D02*
X033369Y008398D01*
X033260Y008556D02*
X032827Y008556D01*
X032827Y008715D02*
X033260Y008715D01*
X033279Y008873D02*
X032827Y008873D01*
X032827Y009032D02*
X033438Y009032D01*
X034100Y008556D02*
X034230Y008556D01*
X034055Y008398D02*
X033991Y008398D01*
X034336Y009760D02*
X034182Y009824D01*
X034336Y009760D02*
X035024Y009760D01*
X035178Y009824D01*
X031964Y009824D02*
X031595Y009824D01*
X031541Y009666D02*
X031801Y009666D01*
X031745Y009507D02*
X031600Y009507D01*
X031600Y009349D02*
X031740Y009349D01*
X031740Y009190D02*
X031600Y009190D01*
X031600Y009032D02*
X031740Y009032D01*
X031742Y008873D02*
X031600Y008873D01*
X031549Y008715D02*
X031791Y008715D01*
X030220Y006179D02*
X030140Y006179D01*
X030140Y006020D02*
X030220Y006020D01*
X030348Y005862D02*
X030012Y005862D01*
X030966Y005545D02*
X031366Y005545D01*
X031207Y005386D02*
X031125Y005386D01*
X031140Y005228D02*
X031200Y005228D01*
X031200Y005069D02*
X031140Y005069D01*
X031061Y004911D02*
X031271Y004911D01*
X036984Y012360D02*
X037040Y012360D01*
X037165Y012519D02*
X036826Y012519D01*
X006086Y018383D02*
X001977Y018383D01*
X001937Y019017D02*
X006087Y019017D01*
X005928Y018225D02*
X001010Y018225D01*
X002347Y023931D02*
X003307Y023931D01*
X003240Y024089D02*
X002411Y024089D01*
X002415Y024248D02*
X003240Y024248D01*
X003284Y024406D02*
X002361Y024406D01*
X002213Y024565D02*
X003442Y024565D01*
X002200Y025833D02*
X001010Y025833D01*
X001010Y025991D02*
X002312Y025991D01*
X002889Y026150D02*
X003343Y026150D01*
X003501Y025991D02*
X003048Y025991D01*
X003588Y027420D02*
X003771Y027420D01*
X003941Y027490D01*
X004070Y027619D01*
X004140Y027788D01*
X004140Y028571D01*
X004070Y028741D01*
X003941Y028870D01*
X003771Y028940D01*
X003588Y028940D01*
X003419Y028870D01*
X003290Y028741D01*
X003220Y028571D01*
X003220Y027788D01*
X003290Y027619D01*
X003419Y027490D01*
X003588Y027420D01*
X003333Y027576D02*
X003052Y027576D01*
X003137Y027735D02*
X003242Y027735D01*
X003220Y027893D02*
X003160Y027893D01*
X003160Y028052D02*
X003220Y028052D01*
X003220Y028210D02*
X003160Y028210D01*
X003160Y028369D02*
X003220Y028369D01*
X003220Y028527D02*
X003159Y028527D01*
X003114Y028686D02*
X003267Y028686D01*
X003394Y028844D02*
X002995Y028844D01*
X002700Y028844D02*
X002660Y028844D01*
X002660Y028686D02*
X002700Y028686D01*
X002700Y028527D02*
X002660Y028527D01*
X002660Y028369D02*
X002700Y028369D01*
X002700Y028210D02*
X002660Y028210D01*
X002200Y028210D02*
X002140Y028210D01*
X002140Y028369D02*
X002200Y028369D01*
X002201Y028527D02*
X002140Y028527D01*
X002093Y028686D02*
X002246Y028686D01*
X002365Y028844D02*
X001966Y028844D01*
X002176Y028052D02*
X002200Y028052D01*
X004027Y027576D02*
X004333Y027576D01*
X004290Y027619D02*
X004419Y027490D01*
X004588Y027420D01*
X004771Y027420D01*
X004941Y027490D01*
X005070Y027619D01*
X005140Y027788D01*
X005140Y028571D01*
X005070Y028741D01*
X004941Y028870D01*
X004771Y028940D01*
X004588Y028940D01*
X004419Y028870D01*
X004290Y028741D01*
X004220Y028571D01*
X004220Y027788D01*
X004290Y027619D01*
X004242Y027735D02*
X004118Y027735D01*
X004140Y027893D02*
X004220Y027893D01*
X004220Y028052D02*
X004140Y028052D01*
X004140Y028210D02*
X004220Y028210D01*
X004220Y028369D02*
X004140Y028369D01*
X004140Y028527D02*
X004220Y028527D01*
X004267Y028686D02*
X004093Y028686D01*
X003966Y028844D02*
X004394Y028844D01*
X004966Y028844D02*
X005394Y028844D01*
X005267Y028686D02*
X005093Y028686D01*
X005140Y028527D02*
X005220Y028527D01*
X005220Y028369D02*
X005140Y028369D01*
X005140Y028210D02*
X005220Y028210D01*
X005220Y028052D02*
X005140Y028052D01*
X005140Y027893D02*
X005220Y027893D01*
X005242Y027735D02*
X005118Y027735D01*
X005027Y027576D02*
X005333Y027576D01*
X002389Y009983D02*
X002280Y009983D01*
X002251Y009349D02*
X002418Y009349D01*
X001109Y009349D02*
X001010Y009349D01*
X001010Y009983D02*
X001080Y009983D01*
M02*
