G75*
%MOIN*%
%OFA0B0*%
%FSLAX24Y24*%
%IPPOS*%
%LPD*%
%AMOC8*
5,1,8,0,0,1.08239X$1,22.5*
%
%ADD10C,0.0160*%
%ADD11R,0.0680X0.2630*%
%ADD12OC8,0.0680*%
%ADD13R,0.0820X0.0820*%
%ADD14C,0.0820*%
%ADD15C,0.2080*%
%ADD16OC8,0.0600*%
%ADD17C,0.0600*%
%ADD18R,0.0780X0.0780*%
%ADD19C,0.0780*%
%ADD20C,0.2521*%
%ADD21C,0.0640*%
%ADD22C,0.1080*%
%ADD23OC8,0.1080*%
%ADD24C,0.1730*%
%ADD25C,0.0680*%
D10*
X000680Y000180D02*
X000680Y003680D01*
X032680Y003680D01*
X032680Y000180D01*
X000680Y000180D01*
X000680Y000314D02*
X032680Y000314D01*
X032680Y000473D02*
X000680Y000473D01*
X000680Y000631D02*
X032680Y000631D01*
X032680Y000790D02*
X000680Y000790D01*
X000680Y000948D02*
X032680Y000948D01*
X032680Y001107D02*
X000680Y001107D01*
X000680Y001265D02*
X032680Y001265D01*
X032680Y001424D02*
X000680Y001424D01*
X000680Y001582D02*
X032680Y001582D01*
X032680Y001741D02*
X000680Y001741D01*
X000680Y001899D02*
X032680Y001899D01*
X032680Y002058D02*
X000680Y002058D01*
X000680Y002216D02*
X032680Y002216D01*
X032680Y002375D02*
X000680Y002375D01*
X000680Y002533D02*
X032680Y002533D01*
X032680Y002692D02*
X000680Y002692D01*
X000680Y002850D02*
X032680Y002850D01*
X032680Y003009D02*
X000680Y003009D01*
X000680Y003167D02*
X032680Y003167D01*
X032680Y003326D02*
X000680Y003326D01*
X000680Y003484D02*
X032680Y003484D01*
X032680Y003643D02*
X000680Y003643D01*
D11*
X001680Y002180D03*
X002680Y002180D03*
X003680Y002180D03*
X004680Y002180D03*
X005680Y002180D03*
X006680Y002180D03*
X007680Y002180D03*
X008680Y002180D03*
X009680Y002180D03*
X010680Y002180D03*
X011680Y002180D03*
X012680Y002180D03*
X013680Y002180D03*
X014680Y002180D03*
X015680Y002180D03*
X016680Y002180D03*
X017680Y002180D03*
X018680Y002180D03*
X019680Y002180D03*
X020680Y002180D03*
X021680Y002180D03*
X022680Y002180D03*
X023680Y002180D03*
X024680Y002180D03*
X025680Y002180D03*
X026680Y002180D03*
X027680Y002180D03*
X028680Y002180D03*
X029680Y002180D03*
X030680Y002180D03*
X031680Y002180D03*
D12*
X031680Y005180D03*
X030680Y005180D03*
X030680Y006180D03*
X031680Y006180D03*
X029680Y006180D03*
X028680Y006180D03*
X027680Y006180D03*
X026680Y006180D03*
X025680Y006180D03*
X025680Y005180D03*
X026680Y005180D03*
X027680Y005180D03*
X028680Y005180D03*
X029680Y005180D03*
X024680Y005180D03*
X023680Y005180D03*
X022680Y005180D03*
X021680Y005180D03*
X021680Y006180D03*
X022680Y006180D03*
X023680Y006180D03*
X024680Y006180D03*
X020680Y006180D03*
X019680Y006180D03*
X018680Y006180D03*
X017680Y006180D03*
X016680Y006180D03*
X016680Y005180D03*
X017680Y005180D03*
X018680Y005180D03*
X019680Y005180D03*
X020680Y005180D03*
X015680Y005180D03*
X014680Y005180D03*
X013680Y005180D03*
X012680Y005180D03*
X012680Y006180D03*
X013680Y006180D03*
X014680Y006180D03*
X015680Y006180D03*
X011680Y006180D03*
X010680Y006180D03*
X009680Y006180D03*
X008680Y006180D03*
X007680Y006180D03*
X007680Y005180D03*
X008680Y005180D03*
X009680Y005180D03*
X010680Y005180D03*
X011680Y005180D03*
X006680Y005180D03*
X005680Y005180D03*
X004680Y005180D03*
X003680Y005180D03*
X003680Y006180D03*
X004680Y006180D03*
X005680Y006180D03*
X006680Y006180D03*
X002680Y006180D03*
X001680Y006180D03*
X001680Y005180D03*
X002680Y005180D03*
X002680Y025680D03*
D13*
X038121Y021861D03*
D14*
X039239Y021314D03*
X038121Y020771D03*
X039239Y020223D03*
X039239Y019137D03*
X038121Y019680D03*
X038121Y018589D03*
X039239Y018046D03*
X038121Y017499D03*
D15*
X038680Y014759D03*
X038680Y024601D03*
D16*
X035680Y013680D03*
X034680Y013680D03*
X033680Y011680D03*
X033680Y010680D03*
X033680Y008680D03*
X033680Y007680D03*
X038680Y007680D03*
X038680Y006680D03*
X038680Y010680D03*
X038680Y011680D03*
X012180Y011680D03*
X012180Y010680D03*
X005680Y009680D03*
X002680Y009680D03*
X001680Y017680D03*
X001680Y018680D03*
X003680Y020180D03*
X004430Y020680D03*
X003680Y021180D03*
X005180Y021180D03*
X005680Y022680D03*
X004430Y023680D03*
X003680Y024180D03*
X003680Y023180D03*
X008180Y021180D03*
X008680Y022680D03*
X010680Y022680D03*
X010680Y021680D03*
D17*
X012180Y021920D02*
X012180Y022440D01*
X013180Y022440D02*
X013180Y021920D01*
X014180Y021920D02*
X014180Y022440D01*
X015180Y022440D02*
X015180Y021920D01*
X016180Y021920D02*
X016180Y022440D01*
X017180Y022440D02*
X017180Y021920D01*
X018180Y021920D02*
X018180Y022440D01*
X019180Y022440D02*
X019180Y021920D01*
X020180Y021920D02*
X020180Y022440D01*
X021180Y022440D02*
X021180Y021920D01*
X022180Y021920D02*
X022180Y022440D01*
X023180Y022440D02*
X023180Y021920D01*
X024180Y021920D02*
X024180Y022440D01*
X025180Y022440D02*
X025180Y021920D01*
X026180Y021920D02*
X026180Y022440D01*
X027180Y022440D02*
X027180Y021920D01*
X028180Y021920D02*
X028180Y022440D01*
X029180Y022440D02*
X029180Y021920D01*
X030180Y021920D02*
X030180Y022440D01*
X031180Y022440D02*
X031180Y021920D01*
X032180Y021920D02*
X032180Y022440D01*
X033180Y022440D02*
X033180Y021920D01*
X034180Y021920D02*
X034180Y022440D01*
X035180Y022440D02*
X035180Y021920D01*
X035180Y016440D02*
X035180Y015920D01*
X034180Y015920D02*
X034180Y016440D01*
X033180Y016440D02*
X033180Y015920D01*
X032180Y015920D02*
X032180Y016440D01*
X031180Y016440D02*
X031180Y015920D01*
X030180Y015920D02*
X030180Y016440D01*
X029180Y016440D02*
X029180Y015920D01*
X028180Y015920D02*
X028180Y016440D01*
X027180Y016440D02*
X027180Y015920D01*
X026180Y015920D02*
X026180Y016440D01*
X025180Y016440D02*
X025180Y015920D01*
X024180Y015920D02*
X024180Y016440D01*
X023180Y016440D02*
X023180Y015920D01*
X022180Y015920D02*
X022180Y016440D01*
X021180Y016440D02*
X021180Y015920D01*
X020180Y015920D02*
X020180Y016440D01*
X019180Y016440D02*
X019180Y015920D01*
X018180Y015920D02*
X018180Y016440D01*
X017180Y016440D02*
X017180Y015920D01*
X016180Y015920D02*
X016180Y016440D01*
X015180Y016440D02*
X015180Y015920D01*
X014180Y015920D02*
X014180Y016440D01*
X013180Y016440D02*
X013180Y015920D01*
X012180Y015920D02*
X012180Y016440D01*
X013180Y011940D02*
X013180Y011420D01*
X014180Y011420D02*
X014180Y011940D01*
X015180Y011940D02*
X015180Y011420D01*
X016180Y011420D02*
X016180Y011940D01*
X017180Y011940D02*
X017180Y011420D01*
X018180Y011420D02*
X018180Y011940D01*
X019180Y011940D02*
X019180Y011420D01*
X020180Y011420D02*
X020180Y011940D01*
X021180Y011940D02*
X021180Y011420D01*
X022180Y011420D02*
X022180Y011940D01*
X024180Y012920D02*
X024180Y013440D01*
X025180Y013440D02*
X025180Y012920D01*
X026180Y012920D02*
X026180Y013440D01*
X027180Y013440D02*
X027180Y012920D01*
X028180Y012920D02*
X028180Y013440D01*
X029180Y013440D02*
X029180Y012920D01*
X030180Y012920D02*
X030180Y013440D01*
X031180Y013440D02*
X031180Y012920D01*
X034420Y012180D02*
X034940Y012180D01*
X034940Y011180D02*
X034420Y011180D01*
X034420Y010180D02*
X034940Y010180D01*
X034940Y009180D02*
X034420Y009180D01*
X034420Y008180D02*
X034940Y008180D01*
X034940Y007180D02*
X034420Y007180D01*
X034420Y006180D02*
X034940Y006180D01*
X034940Y005180D02*
X034420Y005180D01*
X037420Y005180D02*
X037940Y005180D01*
X037940Y006180D02*
X037420Y006180D01*
X037420Y007180D02*
X037940Y007180D01*
X037940Y008180D02*
X037420Y008180D01*
X037420Y009180D02*
X037940Y009180D01*
X037940Y010180D02*
X037420Y010180D01*
X037420Y011180D02*
X037940Y011180D01*
X037940Y012180D02*
X037420Y012180D01*
X032180Y009440D02*
X032180Y008920D01*
X031180Y008920D02*
X031180Y009440D01*
X031180Y009920D02*
X031180Y010440D01*
X030180Y010440D02*
X030180Y009920D01*
X030180Y009440D02*
X030180Y008920D01*
X029180Y008920D02*
X029180Y009440D01*
X029180Y009920D02*
X029180Y010440D01*
X028180Y010440D02*
X028180Y009920D01*
X028180Y009440D02*
X028180Y008920D01*
X027180Y008920D02*
X027180Y009440D01*
X027180Y009920D02*
X027180Y010440D01*
X026180Y010440D02*
X026180Y009920D01*
X026180Y009440D02*
X026180Y008920D01*
X025180Y008920D02*
X025180Y009440D01*
X025180Y009920D02*
X025180Y010440D01*
X024180Y010440D02*
X024180Y009920D01*
X024180Y009440D02*
X024180Y008920D01*
X022180Y008940D02*
X022180Y008420D01*
X021180Y008420D02*
X021180Y008940D01*
X020180Y008940D02*
X020180Y008420D01*
X019180Y008420D02*
X019180Y008940D01*
X018180Y008940D02*
X018180Y008420D01*
X017180Y008420D02*
X017180Y008940D01*
X016180Y008940D02*
X016180Y008420D01*
X015180Y008420D02*
X015180Y008940D01*
X014180Y008940D02*
X014180Y008420D01*
X013180Y008420D02*
X013180Y008940D01*
D18*
X010475Y027349D03*
D19*
X011475Y027349D03*
X012475Y027349D03*
X013475Y027349D03*
X014475Y027349D03*
X015475Y027349D03*
X016475Y027349D03*
X017475Y027349D03*
X018475Y027349D03*
X019475Y027349D03*
X020475Y027349D03*
X021475Y027349D03*
X022475Y027349D03*
X023475Y027349D03*
X024475Y027349D03*
X025475Y027349D03*
X026475Y027349D03*
X027475Y027349D03*
X028475Y027349D03*
X029475Y027349D03*
X029475Y028349D03*
X028475Y028349D03*
X027475Y028349D03*
X026475Y028349D03*
X025475Y028349D03*
X024475Y028349D03*
X023475Y028349D03*
X022475Y028349D03*
X021475Y028349D03*
X020475Y028349D03*
X019475Y028349D03*
X018475Y028349D03*
X017475Y028349D03*
X016475Y028349D03*
X015475Y028349D03*
X014475Y028349D03*
X013475Y028349D03*
X012475Y028349D03*
X011475Y028349D03*
X010475Y028349D03*
D20*
X008558Y027849D03*
X031393Y027849D03*
D21*
X005680Y025960D02*
X005680Y025400D01*
X004680Y025400D02*
X004680Y025960D01*
X001960Y024180D02*
X001400Y024180D01*
X001400Y023180D02*
X001960Y023180D01*
X001960Y021180D02*
X001400Y021180D01*
X001400Y020180D02*
X001960Y020180D01*
X001960Y010680D02*
X001400Y010680D01*
X001400Y009680D02*
X001960Y009680D01*
X009900Y009680D02*
X010460Y009680D01*
X010460Y008680D02*
X009900Y008680D01*
D22*
X007680Y010180D03*
D23*
X007680Y012180D03*
D24*
X040180Y004680D03*
X040180Y026930D03*
D25*
X005680Y027880D02*
X005680Y028480D01*
X004680Y028480D02*
X004680Y027880D01*
X003680Y027880D02*
X003680Y028480D01*
X002680Y028480D02*
X002680Y027880D01*
X001680Y027880D02*
X001680Y028480D01*
M02*
