%
M48
M72
T01C0.0240
T02C0.0320
T03C0.0360
T04C0.0394
T05C0.0400
T06C0.1083
T07C0.1250
T08C0.1300
%
T01
X5118Y7243
X7805Y7805
X8930Y9680
X9243Y10993
X8493Y12180
X9555Y12368
X9868Y12743
X10180Y13118
X12805Y13118
X15180Y12493
X15680Y12243
X17180Y12493
X18243Y13555
X17743Y14305
X16618Y13930
X16493Y14493
X14993Y14493
X13555Y15055
X9493Y16993
X7993Y16993
X7993Y17555
X9493Y18993
X9243Y19493
X8555Y19680
X8180Y20180
X10618Y19618
X11118Y19618
X11368Y18868
X12055Y19243
X13555Y18493
X16993Y19993
X17493Y19993
X20243Y21118
X23805Y23555
X24743Y24493
X25305Y25055
X24555Y25305
X25680Y25930
X26743Y25930
X26743Y25430
X23180Y25930
X20243Y25930
X18368Y25743
X17618Y25368
X18118Y24993
X17805Y24618
X16305Y23868
X15118Y25055
X14305Y26368
X11743Y25930
X9118Y24555
X9118Y24055
X7118Y24180
X8868Y25930
X10993Y28805
X12493Y29055
X17305Y25743
X19868Y28930
X18055Y29243
X8555Y22118
X4930Y19805
X4430Y19868
X7555Y15555
X8055Y15555
X8555Y15555
X4930Y15430
X3930Y15430
X3430Y15430
X4430Y13993
X6368Y12305
X6868Y12305
X6118Y11243
X6493Y10430
X6868Y10118
X4680Y9805
X10993Y9930
X13618Y10805
X14993Y10680
X15930Y10618
X16618Y9930
X17993Y9493
X18180Y10180
X20618Y10680
X20618Y9305
X23930Y10993
X23243Y12680
X20305Y13555
X21118Y17243
X26430Y20930
X27243Y19243
X27868Y18868
X31493Y18493
X34180Y12743
X31993Y11555
X29180Y7868
X28118Y6618
X26180Y8368
X26743Y11118
X26055Y4680
X16243Y7243
X15305Y7305
X14618Y9555
T02
X14180Y8680
X13180Y8680
X15180Y8680
X16180Y8680
X17180Y8680
X18180Y8680
X19180Y8680
X20180Y8680
X21180Y8680
X22180Y8680
X24180Y9180
X25180Y9180
X26180Y9180
X27180Y9180
X28180Y9180
X29180Y9180
X30180Y9180
X31180Y9180
X32180Y9180
X33680Y8680
X34680Y8180
X33680Y7680
X34680Y7180
X34680Y6180
X34680Y5180
X37680Y5180
X37680Y6180
X38680Y6680
X37680Y7180
X38680Y7680
X37680Y8180
X37680Y9180
X37680Y10180
X38680Y10680
X37680Y11180
X38680Y11680
X37680Y12180
X35680Y13680
X34680Y13680
X34680Y12180
X33680Y11680
X34680Y11180
X33680Y10680
X34680Y10180
X34680Y9180
X31180Y10180
X30180Y10180
X29180Y10180
X28180Y10180
X27180Y10180
X26180Y10180
X25180Y10180
X24180Y10180
X22180Y11680
X21180Y11680
X20180Y11680
X19180Y11680
X18180Y11680
X17180Y11680
X16180Y11680
X15180Y11680
X14180Y11680
X13180Y11680
X12180Y11680
X12180Y10680
X5680Y9680
X2680Y9680
X12180Y16180
X13180Y16180
X14180Y16180
X15180Y16180
X16180Y16180
X17180Y16180
X18180Y16180
X19180Y16180
X20180Y16180
X21180Y16180
X22180Y16180
X23180Y16180
X24180Y16180
X25180Y16180
X26180Y16180
X27180Y16180
X28180Y16180
X29180Y16180
X30180Y16180
X31180Y16180
X32180Y16180
X33180Y16180
X34180Y16180
X35180Y16180
X31180Y13180
X30180Y13180
X29180Y13180
X28180Y13180
X27180Y13180
X26180Y13180
X25180Y13180
X24180Y13180
X24180Y22180
X23180Y22180
X22180Y22180
X21180Y22180
X20180Y22180
X19180Y22180
X18180Y22180
X17180Y22180
X16180Y22180
X15180Y22180
X14180Y22180
X13180Y22180
X12180Y22180
X10680Y21680
X10680Y22680
X8680Y22680
X8180Y21180
X5680Y22680
X4430Y23680
X3680Y24180
X3680Y23180
X3680Y21180
X4430Y20680
X3680Y20180
X5180Y21180
X1680Y18680
X1680Y17680
X25180Y22180
X26180Y22180
X27180Y22180
X28180Y22180
X29180Y22180
X30180Y22180
X31180Y22180
X32180Y22180
X33180Y22180
X34180Y22180
X35180Y22180
T03
X10180Y9680
X10180Y8680
X1680Y9680
X1680Y10680
X1680Y20180
X1680Y21180
X1680Y23180
X1680Y24180
X4680Y25680
X5680Y25680
T04
X10475Y27349
X11475Y27349
X12475Y27349
X13475Y27349
X14475Y27349
X15475Y27349
X16475Y27349
X17475Y27349
X18475Y27349
X19475Y27349
X20475Y27349
X21475Y27349
X22475Y27349
X23475Y27349
X24475Y27349
X25475Y27349
X26475Y27349
X27475Y27349
X28475Y27349
X29475Y27349
X29475Y28349
X28475Y28349
X27475Y28349
X26475Y28349
X25475Y28349
X24475Y28349
X23475Y28349
X22475Y28349
X21475Y28349
X20475Y28349
X19475Y28349
X18475Y28349
X17475Y28349
X16475Y28349
X15475Y28349
X14475Y28349
X13475Y28349
X12475Y28349
X11475Y28349
X10475Y28349
T05
X1680Y5180
X2680Y5180
X2680Y6180
X1680Y6180
X3680Y6180
X4680Y6180
X5680Y6180
X6680Y6180
X6680Y5180
X5680Y5180
X4680Y5180
X3680Y5180
X7680Y5180
X8680Y5180
X9680Y5180
X10680Y5180
X11680Y5180
X11680Y6180
X10680Y6180
X9680Y6180
X8680Y6180
X7680Y6180
X12680Y6180
X13680Y6180
X14680Y6180
X15680Y6180
X15680Y5180
X14680Y5180
X13680Y5180
X12680Y5180
X16680Y5180
X17680Y5180
X18680Y5180
X19680Y5180
X20680Y5180
X20680Y6180
X19680Y6180
X18680Y6180
X17680Y6180
X16680Y6180
X21680Y6180
X22680Y6180
X23680Y6180
X24680Y6180
X24680Y5180
X23680Y5180
X22680Y5180
X21680Y5180
X25680Y5180
X26680Y5180
X27680Y5180
X28680Y5180
X29680Y5180
X29680Y6180
X28680Y6180
X27680Y6180
X26680Y6180
X25680Y6180
X30680Y6180
X31680Y6180
X31680Y5180
X30680Y5180
X38121Y17499
X39239Y18046
X38121Y18589
X38121Y19680
X39239Y19137
X39239Y20223
X38121Y20771
X39239Y21314
X38121Y21861
X7680Y12180
X7680Y10180
X2680Y25680
X2680Y28180
X1680Y28180
X3680Y28180
X4680Y28180
X5680Y28180
T06
X8558Y27849
X31393Y27849
T07
X40180Y26930
X40180Y4680
T08
X38680Y14759
X38680Y24601
M30
