M48
;GenerationSoftware,Autodesk,EAGLE,9.6.1*%
;CreationDate,2024-03-29T01:46:41Z*%
FMAT,2
ICI,OFF
METRIC,TZ,000.000
T11C0.610
T10C0.813
T9C0.914
T8C1.016
T7C1.100
T6C1.200
T5C1.300
T4C2.032
T3C2.286
T2C3.175
T1C3.302
%
G90
M71
T1
X92710Y29010
X92710Y4010
T2
X13260Y76200
T3
X7160Y76200
X10160Y71400
T4
X89240Y77760
X94320Y77760
X89240Y69560
X94320Y69560
T5
X97790Y59690
X92790Y57190
X92790Y54690
X92790Y62190
X92790Y64690
T6
X97790Y54690
X100290Y54690
X100290Y64690
X97790Y64690
X92790Y59690
T7
X91440Y71160
X96520Y71160
X91440Y76160
X91440Y73660
X96520Y73660
X96520Y76160
T8
X45720Y15240
X48260Y15240
X43180Y15240
X50800Y36830
X40640Y15240
X40640Y17780
X94130Y12360
X94130Y15130
X94130Y17890
X94130Y20660
X91290Y10970
X91290Y13740
X91290Y16510
X91290Y19280
X91290Y22050
X16510Y45720
X45720Y76200
X45720Y81280
X38100Y76200
X38100Y81280
X48260Y17780
X45720Y17780
X43180Y17780
T9
X93980Y81280
X83820Y69850
X81280Y69850
X91440Y81280
T10
X54610Y40640
X92710Y44450
X90170Y44450
X87630Y44450
X85090Y44450
X82550Y44450
X80010Y44450
X77470Y44450
X78740Y34290
X81280Y34290
X83820Y34290
X86360Y34290
X97790Y39370
X97790Y41910
X74930Y38100
X74930Y40640
X74930Y44450
X74930Y46990
X36830Y35560
X36830Y38100
X12700Y16510
X12700Y13970
X97790Y46990
X97790Y49530
X100330Y35560
X100330Y43180
X62230Y58420
X62230Y60960
X86360Y25400
X67310Y33020
X64770Y33020
X19050Y10160
X19050Y7620
X2540Y64770
X2540Y62230
X2540Y59690
X2540Y57150
X2540Y54610
X2540Y52070
X2540Y49530
X2540Y46990
X10160Y46990
X10160Y49530
X10160Y52070
X10160Y54610
X10160Y57150
X10160Y59690
X10160Y62230
X10160Y64770
X13970Y67310
X13970Y64770
X13970Y62230
X13970Y59690
X13970Y57150
X13970Y54610
X13970Y52070
X13970Y49530
X13970Y46990
X83820Y58420
X81280Y58420
X88900Y34290
X91440Y34290
X48260Y41910
X45720Y41910
X54610Y71120
X54610Y68580
X54610Y66040
X54610Y63500
X54610Y60960
X54610Y58420
X54610Y55880
X54610Y53340
X54610Y50800
X54610Y48260
X54610Y45720
X54610Y43180
X54610Y38100
X69850Y38100
X69850Y40640
X69850Y43180
X69850Y45720
X69850Y48260
X69850Y50800
X69850Y53340
X69850Y55880
X69850Y58420
X69850Y60960
X69850Y63500
X69850Y66040
X69850Y68580
X69850Y71120
X80010Y48260
X82550Y48260
X82550Y55880
X80010Y55880
X85090Y48260
X87630Y48260
X85090Y55880
X87630Y55880
X78740Y69850
X78740Y77470
X73660Y81280
X81280Y81280
X76200Y77470
X76200Y74930
X83820Y74930
X81280Y74930
X83820Y81280
X83820Y78740
X91440Y50800
X91440Y48260
X77470Y53340
X77470Y50800
X48260Y72390
X45720Y72390
X83820Y63500
X86360Y63500
X78740Y59690
X78740Y67310
X77470Y57150
X74930Y57150
X59817Y77470
X64643Y77470
X54610Y76200
X54610Y78740
X69850Y76200
X69850Y78740
X40640Y69850
X40640Y67310
X40640Y54610
X40640Y52070
X40640Y64770
X40640Y62230
X40640Y57150
X40640Y59690
X40640Y49530
X40640Y46990
X48260Y46990
X48260Y49530
X48260Y52070
X48260Y54610
X48260Y57150
X48260Y59690
X48260Y62230
X48260Y64770
X48260Y67310
X48260Y69850
X19050Y73660
X19050Y71120
X19050Y58420
X19050Y55880
X19050Y68580
X19050Y66040
X19050Y60960
X19050Y63500
X19050Y53340
X19050Y50800
X19050Y48260
X19050Y45720
X19050Y43180
X19050Y40640
X19050Y38100
X19050Y35560
X19050Y33020
X19050Y30480
X19050Y27940
X13970Y41910
X34290Y25400
X34290Y27940
X34290Y30480
X34290Y33020
X34290Y35560
X34290Y38100
X34290Y40640
X34290Y43180
X34290Y45720
X34290Y48260
X34290Y50800
X34290Y53340
X34290Y55880
X34290Y58420
X34290Y60960
X34290Y63500
X34290Y66040
X34290Y68580
X34290Y71120
X34290Y73660
X40640Y39370
X40640Y36830
X40640Y24130
X40640Y21590
X40640Y34290
X40640Y31750
X40640Y26670
X40640Y29210
X48260Y21590
X48260Y24130
X48260Y26670
X48260Y29210
X48260Y31750
X48260Y34290
X48260Y36830
X48260Y39370
X2540Y16510
X2540Y13970
X2540Y1270
X10160Y1270
X2540Y11430
X2540Y8890
X2540Y3810
X2540Y6350
X10160Y3810
X10160Y6350
X10160Y8890
X10160Y11430
X10160Y13970
X10160Y16510
X19050Y25400
X27940Y78740
X35560Y78740
X24130Y78740
X21590Y78740
X25527Y20320
X30353Y20320
X19050Y20320
X19050Y17780
X35560Y20320
X35560Y17780
X21590Y2540
X24130Y2540
X36830Y2540
X39370Y2540
X26670Y2540
X29210Y2540
X34290Y2540
X31750Y2540
X41910Y2540
X44450Y2540
X44450Y10160
X41910Y10160
X39370Y10160
X36830Y10160
X34290Y10160
X31750Y10160
X29210Y10160
X26670Y10160
X24130Y10160
X21590Y10160
X2540Y39370
X2540Y36830
X2540Y34290
X2540Y31750
X2540Y29210
X2540Y26670
X2540Y24130
X2540Y21590
X10160Y21590
X10160Y24130
X10160Y26670
X10160Y29210
X10160Y31750
X10160Y34290
X10160Y36830
X10160Y39370
X13970Y39370
X13970Y36830
X13970Y34290
X13970Y31750
X13970Y29210
X13970Y26670
X13970Y24130
X13970Y21590
X52070Y30480
X52070Y27940
X52070Y15240
X52070Y12700
X52070Y25400
X52070Y22860
X52070Y17780
X52070Y20320
X52070Y10160
X52070Y7620
X52070Y5080
X52070Y2540
X67310Y2540
X67310Y5080
X67310Y7620
X67310Y10160
X67310Y12700
X67310Y15240
X67310Y17780
X67310Y20320
X67310Y22860
X67310Y25400
X67310Y27940
X67310Y30480
X71120Y30480
X71120Y27940
X71120Y25400
X71120Y22860
X71120Y20320
X71120Y17780
X71120Y15240
X71120Y12700
X71120Y10160
X71120Y7620
X71120Y5080
X71120Y2540
X86360Y2540
X86360Y5080
X86360Y7620
X86360Y10160
X86360Y12700
X86360Y15240
X86360Y17780
X86360Y20320
X86360Y22860
X86360Y27940
X86360Y30480
X77470Y36830
X80010Y36830
X92710Y36830
X95250Y36830
X82550Y36830
X85090Y36830
X90170Y36830
X87630Y36830
X95250Y44450
T11
X74638Y33719
X45263Y64351
X51778Y54292
X61951Y43891
X50292Y29261
X50863Y64694
X40119Y41148
X42062Y7772
X25375Y7772
X4572Y19545
X36805Y29604
X23774Y16459
X32118Y14402
X30404Y60808
X35547Y4686
X26518Y28575
X38748Y40119
X39891Y19202
X42748Y52121
X26746Y48120
X42748Y59550
X29032Y53149
X34862Y22746
X43091Y63436
X45720Y24346
X46863Y22860
X28689Y60808
X31204Y26403
X17602Y17945
X21374Y14745
X26860Y12573
X32804Y11773
X30747Y4229
X43663Y39319
X32690Y49263
X24917Y45148
X6515Y35319
X6515Y15545
X61722Y19660
X34633Y13144
X26175Y15430
X43663Y38062
X5029Y39776
X32233Y71209
X8344Y18631
X17259Y13487
X18288Y22174
X25146Y4229
X20803Y29604
X7544Y28118
X20117Y14745
X15659Y33376
X65951Y53264
X63322Y61836
X43663Y34404
X80239Y59665
M30