G75*
%MOIN*%
%OFA0B0*%
%FSLAX24Y24*%
%IPPOS*%
%LPD*%
%AMOC8*
5,1,8,0,0,1.08239X$1,22.5*
%
%ADD10C,0.0680*%
%ADD11OC8,0.0680*%
%ADD12OC8,0.0600*%
%ADD13C,0.0600*%
%ADD14C,0.0600*%
%ADD15C,0.0640*%
D10*
X000600Y000800D02*
X000600Y001400D01*
X001600Y001400D02*
X001600Y000800D01*
X002600Y000800D02*
X002600Y001400D01*
X003600Y001400D02*
X003600Y000800D01*
X004600Y000800D02*
X004600Y001400D01*
X005600Y001400D02*
X005600Y000800D01*
X006600Y000800D02*
X006600Y001400D01*
X007600Y001400D02*
X007600Y000800D01*
X008600Y000800D02*
X008600Y001400D01*
X009600Y001400D02*
X009600Y000800D01*
X010600Y000800D02*
X010600Y001400D01*
X011600Y001400D02*
X011600Y000800D01*
X012600Y000800D02*
X012600Y001400D01*
X013600Y001400D02*
X013600Y000800D01*
X014600Y000800D02*
X014600Y001400D01*
X015600Y001400D02*
X015600Y000800D01*
X016600Y000800D02*
X016600Y001400D01*
X017600Y001400D02*
X017600Y000800D01*
X018600Y000800D02*
X018600Y001400D01*
X019600Y001400D02*
X019600Y000800D01*
X020600Y000800D02*
X020600Y001400D01*
X021600Y001400D02*
X021600Y000800D01*
X022600Y000800D02*
X022600Y001400D01*
X023600Y001400D02*
X023600Y000800D01*
X024600Y000800D02*
X024600Y001400D01*
X025600Y001400D02*
X025600Y000800D01*
X026600Y000800D02*
X026600Y001400D01*
X027600Y001400D02*
X027600Y000800D01*
X028600Y000800D02*
X028600Y001400D01*
X029600Y001400D02*
X029600Y000800D01*
X030600Y000800D02*
X030600Y001400D01*
X031600Y001400D02*
X031600Y000800D01*
X032600Y000800D02*
X032600Y001400D01*
X033600Y001400D02*
X033600Y000800D01*
X034600Y000800D02*
X034600Y001400D01*
X035600Y001400D02*
X035600Y000800D01*
X036600Y000800D02*
X036600Y001400D01*
X037600Y001400D02*
X037600Y000800D01*
X038600Y000800D02*
X038600Y001400D01*
X039600Y001400D02*
X039600Y000800D01*
D11*
X009100Y007600D03*
X008100Y007600D03*
X007100Y007600D03*
X006100Y007600D03*
X005100Y007600D03*
X004100Y007600D03*
X003100Y007600D03*
X002100Y007600D03*
X002100Y008600D03*
X003100Y008600D03*
X004100Y008600D03*
X005100Y008600D03*
X006100Y008600D03*
X007100Y008600D03*
X008100Y008600D03*
X009100Y008600D03*
X014600Y014100D03*
X015600Y014100D03*
X016600Y014100D03*
X017600Y014100D03*
X018600Y014100D03*
X019600Y014100D03*
X020600Y014100D03*
X021600Y014100D03*
X022600Y014100D03*
X023600Y014100D03*
X024600Y014100D03*
X025600Y014100D03*
X026600Y014100D03*
X027600Y014100D03*
X028600Y014100D03*
X029600Y014100D03*
X030600Y014100D03*
X030600Y015100D03*
X029600Y015100D03*
X028600Y015100D03*
X027600Y015100D03*
X026600Y015100D03*
X025600Y015100D03*
X024600Y015100D03*
X023600Y015100D03*
X022600Y015100D03*
X021600Y015100D03*
X020600Y015100D03*
X019600Y015100D03*
X018600Y015100D03*
X017600Y015100D03*
X016600Y015100D03*
X015600Y015100D03*
X014600Y015100D03*
D12*
X011600Y009600D03*
X010600Y009600D03*
X001100Y008600D03*
X001100Y007600D03*
X013600Y003100D03*
X016600Y003100D03*
X017600Y003100D03*
X020600Y003100D03*
X033100Y004600D03*
X034100Y005600D03*
X034100Y006600D03*
X033100Y007600D03*
X032600Y010600D03*
X032600Y011600D03*
X032600Y014600D03*
X032600Y015600D03*
D13*
X033600Y015340D02*
X033600Y015860D01*
X034600Y015860D02*
X034600Y015340D01*
X035600Y015340D02*
X035600Y015860D01*
X036600Y015860D02*
X036600Y015340D01*
X037600Y015340D02*
X037600Y015860D01*
X038600Y015860D02*
X038600Y015340D01*
X039600Y015340D02*
X039600Y015860D01*
X039600Y012860D02*
X039600Y012340D01*
X038600Y012340D02*
X038600Y012860D01*
X037600Y012860D02*
X037600Y012340D01*
X036600Y012340D02*
X036600Y012860D01*
X035600Y012860D02*
X035600Y012340D01*
X034600Y012340D02*
X034600Y012860D01*
X033600Y012860D02*
X033600Y012340D01*
X033600Y011360D02*
X033600Y010840D01*
X034600Y010840D02*
X034600Y011360D01*
X035600Y011360D02*
X035600Y010840D01*
X036600Y010840D02*
X036600Y011360D01*
X037600Y011360D02*
X037600Y010840D01*
X038600Y010840D02*
X038600Y011360D01*
X039600Y011360D02*
X039600Y010840D01*
X039600Y008360D02*
X039600Y007840D01*
X038600Y007840D02*
X038600Y008360D01*
X037600Y008360D02*
X037600Y007840D01*
X036600Y007840D02*
X036600Y008360D01*
X035600Y008360D02*
X035600Y007840D01*
X034600Y007840D02*
X034600Y008360D01*
X033600Y008360D02*
X033600Y007840D01*
X031600Y009840D02*
X031600Y010360D01*
X030600Y010360D02*
X030600Y009840D01*
X029600Y009840D02*
X029600Y010360D01*
X028600Y010360D02*
X028600Y009840D01*
X027600Y009840D02*
X027600Y010360D01*
X026600Y010360D02*
X026600Y009840D01*
X025600Y009840D02*
X025600Y010360D01*
X024600Y010360D02*
X024600Y009840D01*
X023600Y009840D02*
X023600Y010360D01*
X022600Y010360D02*
X022600Y009840D01*
X021600Y009840D02*
X021600Y010360D01*
X020600Y010360D02*
X020600Y009840D01*
X019600Y009840D02*
X019600Y010360D01*
X018600Y010360D02*
X018600Y009840D01*
X017600Y009840D02*
X017600Y010360D01*
X016600Y010360D02*
X016600Y009840D01*
X015600Y009840D02*
X015600Y010360D01*
X014600Y010360D02*
X014600Y009840D01*
X013600Y009840D02*
X013600Y010360D01*
X012600Y010360D02*
X012600Y009840D01*
X012600Y011340D02*
X012600Y011860D01*
X013600Y011860D02*
X013600Y011340D01*
X014600Y011340D02*
X014600Y011860D01*
X015600Y011860D02*
X015600Y011340D01*
X016600Y011340D02*
X016600Y011860D01*
X017600Y011860D02*
X017600Y011340D01*
X008100Y010860D02*
X008100Y010340D01*
X007100Y010340D02*
X007100Y010860D01*
X006100Y010860D02*
X006100Y010340D01*
X005100Y010340D02*
X005100Y010860D01*
X004100Y010860D02*
X004100Y010340D01*
X003100Y010340D02*
X003100Y010860D01*
X002100Y010860D02*
X002100Y010340D01*
X001100Y010340D02*
X001100Y010860D01*
X001100Y013340D02*
X001100Y013860D01*
X002100Y013860D02*
X002100Y013340D01*
X003100Y013340D02*
X003100Y013860D01*
X004100Y013860D02*
X004100Y013340D01*
X005100Y013340D02*
X005100Y013860D01*
X006100Y013860D02*
X006100Y013340D01*
X007100Y013340D02*
X007100Y013860D01*
X008100Y013860D02*
X008100Y013340D01*
X008100Y006360D02*
X008100Y005840D01*
X007100Y005840D02*
X007100Y006360D01*
X006100Y006360D02*
X006100Y005840D01*
X005100Y005840D02*
X005100Y006360D01*
X004100Y006360D02*
X004100Y005840D01*
X003100Y005840D02*
X003100Y006360D01*
X002100Y006360D02*
X002100Y005840D01*
X001100Y005840D02*
X001100Y006360D01*
X001100Y003360D02*
X001100Y002840D01*
X002100Y002840D02*
X002100Y003360D01*
X003100Y003360D02*
X003100Y002840D01*
X004100Y002840D02*
X004100Y003360D01*
X005100Y003360D02*
X005100Y002840D01*
X006100Y002840D02*
X006100Y003360D01*
X007100Y003360D02*
X007100Y002840D01*
X008100Y002840D02*
X008100Y003360D01*
X012600Y003840D02*
X012600Y004360D01*
X013600Y004360D02*
X013600Y003840D01*
X014600Y003840D02*
X014600Y004360D01*
X015600Y004360D02*
X015600Y003840D01*
X016600Y003840D02*
X016600Y004360D01*
X017600Y004360D02*
X017600Y003840D01*
X018600Y003840D02*
X018600Y004360D01*
X019600Y004360D02*
X019600Y003840D01*
X020600Y003840D02*
X020600Y004360D01*
X021600Y004360D02*
X021600Y003840D01*
X022600Y003840D02*
X022600Y004360D01*
X023600Y004360D02*
X023600Y003840D01*
X024600Y003840D02*
X024600Y004360D01*
X025600Y004360D02*
X025600Y003840D01*
X026600Y003840D02*
X026600Y004360D01*
X027600Y004360D02*
X027600Y003840D01*
X028600Y003840D02*
X028600Y004360D01*
X029600Y004360D02*
X029600Y003840D01*
X030600Y003840D02*
X030600Y004360D01*
X031600Y004360D02*
X031600Y003840D01*
D14*
X036100Y003100D03*
X039100Y003100D03*
X039100Y006100D03*
X036100Y006100D03*
D15*
X012380Y013600D02*
X011820Y013600D01*
X011820Y014600D02*
X012380Y014600D01*
X010880Y014600D02*
X010320Y014600D01*
X009380Y014600D02*
X008820Y014600D01*
X008820Y015600D02*
X009380Y015600D01*
X010320Y015600D02*
X010880Y015600D01*
X011820Y015600D02*
X012380Y015600D01*
X010880Y007100D02*
X010320Y007100D01*
X010320Y006100D02*
X010880Y006100D01*
X010880Y005100D02*
X010320Y005100D01*
M02*
