%
M48
M72
T01C0.0240
T02C0.0320
T03C0.0360
T04C0.0400
%
T01
X14100Y5500
X17150Y5200
X18450Y3050
X15250Y1900
X26000Y4800
X28400Y5850
X30400Y5300
X28600Y7050
X34150Y10450
X31950Y13400
X31600Y14200
X19250Y10900
X18400Y9050
X13250Y9100
X10050Y10000
X10300Y11300
X12800Y12750
X14000Y13500
X27050Y1800
T02
X26600Y4100
X25600Y4100
X24600Y4100
X23600Y4100
X22600Y4100
X21600Y4100
X20600Y4100
X19600Y4100
X18600Y4100
X17600Y4100
X16600Y4100
X15600Y4100
X14600Y4100
X13600Y4100
X12600Y4100
X13600Y3100
X16600Y3100
X17600Y3100
X20600Y3100
X27600Y4100
X28600Y4100
X29600Y4100
X30600Y4100
X31600Y4100
X33100Y4600
X34100Y5600
X36100Y6100
X34100Y6600
X33100Y7600
X33600Y8100
X34600Y8100
X35600Y8100
X36600Y8100
X37600Y8100
X38600Y8100
X39600Y8100
X39100Y6100
X39100Y3100
X36100Y3100
X31600Y10100
X30600Y10100
X29600Y10100
X28600Y10100
X27600Y10100
X26600Y10100
X25600Y10100
X24600Y10100
X23600Y10100
X22600Y10100
X21600Y10100
X20600Y10100
X19600Y10100
X18600Y10100
X17600Y10100
X16600Y10100
X15600Y10100
X14600Y10100
X13600Y10100
X12600Y10100
X11600Y9600
X10600Y9600
X8100Y10600
X7100Y10600
X6100Y10600
X5100Y10600
X4100Y10600
X3100Y10600
X2100Y10600
X1100Y10600
X1100Y8600
X1100Y7600
X1100Y6100
X2100Y6100
X3100Y6100
X4100Y6100
X5100Y6100
X6100Y6100
X7100Y6100
X8100Y6100
X8100Y3100
X7100Y3100
X6100Y3100
X5100Y3100
X4100Y3100
X3100Y3100
X2100Y3100
X1100Y3100
X12600Y11600
X13600Y11600
X14600Y11600
X15600Y11600
X16600Y11600
X17600Y11600
X8100Y13600
X7100Y13600
X6100Y13600
X5100Y13600
X4100Y13600
X3100Y13600
X2100Y13600
X1100Y13600
X32600Y14600
X32600Y15600
X33600Y15600
X34600Y15600
X35600Y15600
X36600Y15600
X37600Y15600
X38600Y15600
X39600Y15600
X39600Y12600
X38600Y12600
X37600Y12600
X36600Y12600
X35600Y12600
X34600Y12600
X33600Y12600
X32600Y11600
X33600Y11100
X34600Y11100
X35600Y11100
X36600Y11100
X37600Y11100
X38600Y11100
X39600Y11100
X32600Y10600
T03
X12100Y13600
X12100Y14600
X10600Y14600
X9100Y14600
X9100Y15600
X10600Y15600
X12100Y15600
X10600Y7100
X10600Y6100
X10600Y5100
T04
X600Y1100
X1600Y1100
X2600Y1100
X3600Y1100
X4600Y1100
X5600Y1100
X6600Y1100
X7600Y1100
X8600Y1100
X9600Y1100
X10600Y1100
X11600Y1100
X12600Y1100
X13600Y1100
X14600Y1100
X15600Y1100
X16600Y1100
X17600Y1100
X18600Y1100
X19600Y1100
X20600Y1100
X21600Y1100
X22600Y1100
X23600Y1100
X24600Y1100
X25600Y1100
X26600Y1100
X27600Y1100
X28600Y1100
X29600Y1100
X30600Y1100
X31600Y1100
X32600Y1100
X33600Y1100
X34600Y1100
X35600Y1100
X36600Y1100
X37600Y1100
X38600Y1100
X39600Y1100
X9100Y7600
X8100Y7600
X7100Y7600
X6100Y7600
X5100Y7600
X4100Y7600
X3100Y7600
X2100Y7600
X2100Y8600
X3100Y8600
X4100Y8600
X5100Y8600
X6100Y8600
X7100Y8600
X8100Y8600
X9100Y8600
X14600Y14100
X15600Y14100
X16600Y14100
X17600Y14100
X18600Y14100
X19600Y14100
X20600Y14100
X21600Y14100
X22600Y14100
X23600Y14100
X24600Y14100
X25600Y14100
X26600Y14100
X27600Y14100
X28600Y14100
X29600Y14100
X30600Y14100
X30600Y15100
X29600Y15100
X28600Y15100
X27600Y15100
X26600Y15100
X25600Y15100
X24600Y15100
X23600Y15100
X22600Y15100
X21600Y15100
X20600Y15100
X19600Y15100
X18600Y15100
X17600Y15100
X16600Y15100
X15600Y15100
X14600Y15100
M30
