G75*
%MOIN*%
%OFA0B0*%
%FSLAX24Y24*%
%IPPOS*%
%LPD*%
%AMOC8*
5,1,8,0,0,1.08239X$1,22.5*
%
%ADD10C,0.0060*%
%ADD11C,0.0050*%
D10*
X006330Y004280D02*
X008030Y004280D01*
X008047Y004282D01*
X008064Y004286D01*
X008080Y004293D01*
X008094Y004303D01*
X008107Y004316D01*
X008117Y004330D01*
X008124Y004346D01*
X008128Y004363D01*
X008130Y004380D01*
X008130Y004980D01*
X008128Y004997D01*
X008124Y005014D01*
X008117Y005030D01*
X008107Y005044D01*
X008094Y005057D01*
X008080Y005067D01*
X008064Y005074D01*
X008047Y005078D01*
X008030Y005080D01*
X006330Y005080D01*
X006313Y005078D01*
X006296Y005074D01*
X006280Y005067D01*
X006266Y005057D01*
X006253Y005044D01*
X006243Y005030D01*
X006236Y005014D01*
X006232Y004997D01*
X006230Y004980D01*
X006230Y004380D01*
X006232Y004363D01*
X006236Y004346D01*
X006243Y004330D01*
X006253Y004316D01*
X006266Y004303D01*
X006280Y004293D01*
X006296Y004286D01*
X006313Y004282D01*
X006330Y004280D01*
D11*
X006884Y005205D02*
X007184Y005205D01*
X007034Y005205D02*
X007034Y005655D01*
X007184Y005505D01*
X007344Y005655D02*
X007494Y005655D01*
X007419Y005655D02*
X007419Y005280D01*
X007494Y005205D01*
X007570Y005205D01*
X007645Y005280D01*
X007805Y005280D02*
X007880Y005205D01*
X008030Y005205D01*
X008105Y005280D01*
X008030Y005430D02*
X007880Y005430D01*
X007805Y005355D01*
X007805Y005280D01*
X008030Y005430D02*
X008105Y005505D01*
X008105Y005580D01*
X008030Y005655D01*
X007880Y005655D01*
X007805Y005580D01*
M02*
