%
M48
M72
T01C0.0236
T02C0.0240
T03C0.0315
T04C0.0320
T05C0.0360
T06C0.0400
%
T01
X14680Y6680
T02
X15368Y8368
X21305Y7055
X23055Y7305
X25805Y7305
X27118Y7055
X26993Y5805
X29930Y5618
X32118Y5368
X31743Y4993
X26243Y4493
X25743Y4243
X24868Y4805
X23368Y4243
X21180Y5180
X22555Y5555
X23555Y5805
X23055Y2055
X25180Y1868
T03
X11680Y6680
T04
X9180Y6180
X8180Y6180
X7180Y6180
X6180Y6180
X5180Y6180
X4180Y6180
X3180Y6180
X2180Y6180
X680Y5180
X680Y4180
X2180Y3180
X3180Y3180
X4180Y3180
X5180Y3180
X6180Y3180
X7180Y3180
X8180Y3180
X9180Y3180
X11680Y3680
X14680Y3680
X16680Y3180
X18180Y3180
X19180Y3180
X20180Y3180
X21180Y3180
X22180Y3180
X23180Y3180
X24180Y3180
X25180Y3180
X26180Y3180
X27180Y3180
X28180Y3180
X29180Y3180
X30180Y3180
X31180Y3180
X16680Y4180
X18180Y9180
X19180Y9180
X20180Y9180
X21180Y9180
X22180Y9180
X23180Y9180
X24180Y9180
X25180Y9180
X26180Y9180
X27180Y9180
X28180Y9180
X29180Y9180
X30180Y9180
X31180Y9180
X14680Y9680
X11680Y9680
T05
X16680Y6680
X16680Y5680
T06
X680Y1180
X1680Y1180
X2680Y1180
X3680Y1180
X4680Y1180
X5680Y1180
X6680Y1180
X7680Y1180
X8680Y1180
X9680Y1180
X10680Y1180
X11680Y1180
X12680Y1180
X13680Y1180
X14680Y1180
X15680Y1180
X16680Y1180
X17680Y1180
X18680Y1180
X19680Y1180
X20680Y1180
X21680Y1180
X22680Y1180
X23680Y1180
X24680Y1180
X25680Y1180
X26680Y1180
X27680Y1180
X28680Y1180
X29680Y1180
X30680Y1180
X31680Y1180
X32680Y1180
X33680Y1180
X34680Y1180
X35680Y1180
X36680Y1180
X37680Y1180
X38680Y1180
X39680Y1180
X39680Y2680
X38680Y2680
X37680Y2680
X36680Y2680
X35680Y2680
X34680Y2680
X34680Y3680
X35680Y3680
X36680Y3680
X37680Y3680
X38680Y3680
X39680Y3680
X37180Y6680
X36180Y6680
X35180Y6680
X34180Y6680
X34180Y7680
X35180Y7680
X36180Y7680
X37180Y7680
X36180Y10180
X35180Y10180
X34180Y10180
X33180Y10180
X8680Y8680
X7680Y8680
X6680Y8680
X5680Y8680
X4680Y8680
X3680Y8680
X2680Y8680
X1680Y8680
X1680Y7680
X2680Y7680
X3680Y7680
X4680Y7680
X5680Y7680
X6680Y7680
X7680Y7680
X8680Y7680
M30
