G75*
%MOIN*%
%OFA0B0*%
%FSLAX24Y24*%
%IPPOS*%
%LPD*%
%AMOC8*
5,1,8,0,0,1.08239X$1,22.5*
%
%ADD10C,0.0060*%
%ADD11C,0.0050*%
D10*
X033180Y004780D02*
X033280Y004680D01*
X034080Y004680D01*
X034180Y004780D01*
X034180Y005580D01*
X034080Y005680D01*
X034180Y005780D01*
X034180Y006580D01*
X034080Y006680D01*
X033280Y006680D01*
X033180Y006580D01*
X033180Y005780D01*
X033280Y005680D01*
X033180Y005580D01*
X033180Y004780D01*
X035180Y004780D02*
X035280Y004680D01*
X036080Y004680D01*
X036180Y004780D01*
X036180Y005580D01*
X036080Y005680D01*
X036180Y005780D01*
X036180Y006580D01*
X036080Y006680D01*
X035280Y006680D01*
X035180Y006580D01*
X035180Y005780D01*
X035280Y005680D01*
X035180Y005580D01*
X035180Y004780D01*
D11*
X034805Y004855D02*
X034805Y005005D01*
X034805Y004930D02*
X034430Y004930D01*
X034355Y004855D01*
X034355Y004780D01*
X034430Y004705D01*
X034355Y005165D02*
X034805Y005165D01*
X034805Y005391D01*
X034730Y005466D01*
X034580Y005466D01*
X034505Y005391D01*
X034505Y005165D01*
X034430Y005626D02*
X034355Y005701D01*
X034355Y005851D01*
X034430Y005926D01*
X034580Y005926D01*
X034655Y005851D01*
X034655Y005776D01*
X034580Y005626D01*
X034805Y005626D01*
X034805Y005926D01*
X036355Y005851D02*
X036805Y005851D01*
X036580Y005626D01*
X036580Y005926D01*
X036580Y005466D02*
X036505Y005391D01*
X036505Y005165D01*
X036355Y005165D02*
X036805Y005165D01*
X036805Y005391D01*
X036730Y005466D01*
X036580Y005466D01*
X036805Y005005D02*
X036805Y004855D01*
X036805Y004930D02*
X036430Y004930D01*
X036355Y004855D01*
X036355Y004780D01*
X036430Y004705D01*
M02*
