G75*
%MOIN*%
%OFA0B0*%
%FSLAX24Y24*%
%IPPOS*%
%LPD*%
%AMOC8*
5,1,8,0,0,1.08239X$1,22.5*
%
%ADD10C,0.0600*%
%ADD11OC8,0.0600*%
%ADD12OC8,0.0520*%
%ADD13C,0.0520*%
%ADD14C,0.0560*%
%ADD15OC8,0.0515*%
%ADD16C,0.0520*%
%ADD17C,0.0200*%
%ADD18C,0.0100*%
%ADD19C,0.0400*%
D10*
X000680Y000880D02*
X000680Y001480D01*
X001680Y001480D02*
X001680Y000880D01*
X002680Y000880D02*
X002680Y001480D01*
X003680Y001480D02*
X003680Y000880D01*
X004680Y000880D02*
X004680Y001480D01*
X005680Y001480D02*
X005680Y000880D01*
X006680Y000880D02*
X006680Y001480D01*
X007680Y001480D02*
X007680Y000880D01*
X008680Y000880D02*
X008680Y001480D01*
X009680Y001480D02*
X009680Y000880D01*
X010680Y000880D02*
X010680Y001480D01*
X011680Y001480D02*
X011680Y000880D01*
X012680Y000880D02*
X012680Y001480D01*
X013680Y001480D02*
X013680Y000880D01*
X014680Y000880D02*
X014680Y001480D01*
X015680Y001480D02*
X015680Y000880D01*
X016680Y000880D02*
X016680Y001480D01*
X017680Y001480D02*
X017680Y000880D01*
X018680Y000880D02*
X018680Y001480D01*
X019680Y001480D02*
X019680Y000880D01*
X020680Y000880D02*
X020680Y001480D01*
X021680Y001480D02*
X021680Y000880D01*
X022680Y000880D02*
X022680Y001480D01*
X023680Y001480D02*
X023680Y000880D01*
X024680Y000880D02*
X024680Y001480D01*
X025680Y001480D02*
X025680Y000880D01*
X026680Y000880D02*
X026680Y001480D01*
X027680Y001480D02*
X027680Y000880D01*
X028680Y000880D02*
X028680Y001480D01*
X029680Y001480D02*
X029680Y000880D01*
X030680Y000880D02*
X030680Y001480D01*
X031680Y001480D02*
X031680Y000880D01*
X032680Y000880D02*
X032680Y001480D01*
X033680Y001480D02*
X033680Y000880D01*
X034680Y000880D02*
X034680Y001480D01*
X035680Y001480D02*
X035680Y000880D01*
X036680Y000880D02*
X036680Y001480D01*
X037680Y001480D02*
X037680Y000880D01*
X038680Y000880D02*
X038680Y001480D01*
X039680Y001480D02*
X039680Y000880D01*
X038680Y010380D02*
X038680Y010980D01*
X037680Y010980D02*
X037680Y010380D01*
X036680Y010380D02*
X036680Y010980D01*
X035680Y010980D02*
X035680Y010380D01*
X034680Y010380D02*
X034680Y010980D01*
X033680Y010980D02*
X033680Y010380D01*
X031680Y010380D02*
X031680Y010980D01*
X030680Y010980D02*
X030680Y010380D01*
X029680Y010380D02*
X029680Y010980D01*
X028680Y010980D02*
X028680Y010380D01*
X027680Y010380D02*
X027680Y010980D01*
X026680Y010980D02*
X026680Y010380D01*
D11*
X008680Y008680D03*
X007680Y008680D03*
X006680Y008680D03*
X005680Y008680D03*
X004680Y008680D03*
X003680Y008680D03*
X002680Y008680D03*
X001680Y008680D03*
X001680Y007680D03*
X002680Y007680D03*
X003680Y007680D03*
X004680Y007680D03*
X005680Y007680D03*
X006680Y007680D03*
X007680Y007680D03*
X008680Y007680D03*
D12*
X001180Y006180D03*
X001180Y005180D03*
X016180Y004180D03*
X016180Y003180D03*
X027180Y009680D03*
X028180Y009680D03*
X029180Y009680D03*
X030180Y009680D03*
X031180Y009680D03*
X032180Y009680D03*
X034180Y009680D03*
X035180Y009680D03*
X036180Y009680D03*
X037180Y009680D03*
X038180Y009680D03*
X039180Y009680D03*
D13*
X014180Y010680D03*
X011180Y010680D03*
X011180Y004680D03*
X014180Y004680D03*
D14*
X012180Y002960D02*
X012180Y002400D01*
X011180Y002400D02*
X011180Y002960D01*
X033400Y005180D02*
X033960Y005180D01*
X035400Y005180D02*
X035960Y005180D01*
X037900Y004680D02*
X038460Y004680D01*
X039400Y004680D02*
X039960Y004680D01*
X039960Y005680D02*
X039400Y005680D01*
X038460Y005680D02*
X037900Y005680D01*
X035960Y006180D02*
X035400Y006180D01*
X033960Y006180D02*
X033400Y006180D01*
X037900Y006680D02*
X038460Y006680D01*
X039400Y006680D02*
X039960Y006680D01*
X039680Y002960D02*
X039680Y002400D01*
X038680Y002400D02*
X038680Y002960D01*
X037680Y002960D02*
X037680Y002400D01*
X021180Y010400D02*
X021180Y010960D01*
X020180Y010960D02*
X020180Y010400D01*
X018680Y010400D02*
X018680Y010960D01*
X017680Y010960D02*
X017680Y010400D01*
D15*
X011180Y007680D03*
D16*
X009180Y006440D02*
X009180Y005920D01*
X008180Y005920D02*
X008180Y006440D01*
X007180Y006440D02*
X007180Y005920D01*
X006180Y005920D02*
X006180Y006440D01*
X005180Y006440D02*
X005180Y005920D01*
X004180Y005920D02*
X004180Y006440D01*
X003180Y006440D02*
X003180Y005920D01*
X002180Y005920D02*
X002180Y006440D01*
X002180Y003440D02*
X002180Y002920D01*
X003180Y002920D02*
X003180Y003440D01*
X004180Y003440D02*
X004180Y002920D01*
X005180Y002920D02*
X005180Y003440D01*
X006180Y003440D02*
X006180Y002920D01*
X007180Y002920D02*
X007180Y003440D01*
X008180Y003440D02*
X008180Y002920D01*
X009180Y002920D02*
X009180Y003440D01*
X017680Y002940D02*
X017680Y002420D01*
X018680Y002420D02*
X018680Y002940D01*
X019680Y002940D02*
X019680Y002420D01*
X020680Y002420D02*
X020680Y002940D01*
X021680Y002940D02*
X021680Y002420D01*
X022680Y002420D02*
X022680Y002940D01*
X023680Y002940D02*
X023680Y002420D01*
X024680Y002420D02*
X024680Y002940D01*
X025680Y002940D02*
X025680Y002420D01*
X026680Y002420D02*
X026680Y002940D01*
X027680Y002940D02*
X027680Y002420D01*
X028680Y002420D02*
X028680Y002940D01*
X029680Y002940D02*
X029680Y002420D01*
X030680Y002420D02*
X030680Y002940D01*
X031680Y002940D02*
X031680Y002420D01*
X032680Y002420D02*
X032680Y002940D01*
X033680Y002940D02*
X033680Y002420D01*
X034680Y002420D02*
X034680Y002940D01*
X035680Y002940D02*
X035680Y002420D01*
X036680Y002420D02*
X036680Y002940D01*
X036680Y008420D02*
X036680Y008940D01*
X035680Y008940D02*
X035680Y008420D01*
X034680Y008420D02*
X034680Y008940D01*
X033680Y008940D02*
X033680Y008420D01*
X032680Y008420D02*
X032680Y008940D01*
X031680Y008940D02*
X031680Y008420D01*
X030680Y008420D02*
X030680Y008940D01*
X029680Y008940D02*
X029680Y008420D01*
X028680Y008420D02*
X028680Y008940D01*
X027680Y008940D02*
X027680Y008420D01*
X026680Y008420D02*
X026680Y008940D01*
X025680Y008940D02*
X025680Y008420D01*
X024680Y008420D02*
X024680Y008940D01*
X023680Y008940D02*
X023680Y008420D01*
X022680Y008420D02*
X022680Y008940D01*
X021680Y008940D02*
X021680Y008420D01*
X020680Y008420D02*
X020680Y008940D01*
X019680Y008940D02*
X019680Y008420D01*
X018680Y008420D02*
X018680Y008940D01*
X017680Y008940D02*
X017680Y008420D01*
D17*
X014680Y010430D02*
X011180Y006930D01*
X011180Y007680D01*
X011180Y006930D02*
X011180Y004680D01*
X010430Y004430D02*
X010430Y010680D01*
X010930Y011180D01*
X014555Y011180D01*
X014618Y011118D01*
X014180Y010680D01*
X014680Y010680D02*
X014680Y010430D01*
X014680Y010680D02*
X017680Y010680D01*
X015180Y011680D02*
X026680Y011680D01*
X026680Y011555D01*
X031930Y011555D01*
X032180Y011305D01*
X032180Y010680D01*
X033680Y010680D01*
X034680Y008680D02*
X034680Y002680D01*
X037555Y002805D02*
X037555Y003805D01*
X037555Y002805D02*
X037680Y002680D01*
X025680Y002680D02*
X025680Y003805D01*
X017680Y001180D02*
X017180Y001680D01*
X017180Y003180D01*
X016180Y004180D01*
X016180Y003180D02*
X016180Y001680D01*
X016680Y001180D01*
X010430Y004430D02*
X009180Y003180D01*
X009180Y002430D01*
X007930Y002430D01*
X007680Y002680D01*
X007680Y005180D01*
X001180Y005180D01*
X001180Y006180D02*
X002180Y006180D01*
X014618Y011118D02*
X015180Y011680D01*
X021180Y010680D02*
X025180Y010680D01*
X025180Y007305D01*
X026680Y008680D02*
X026680Y010680D01*
X026680Y011555D01*
X034680Y008680D02*
X035680Y008680D01*
D18*
X034805Y009680D02*
X034180Y009055D01*
X034180Y007680D01*
X032805Y007680D01*
X031180Y006055D01*
X031180Y001930D01*
X031930Y001930D01*
X032180Y001680D01*
X032180Y000430D01*
X033930Y000430D01*
X034180Y000680D01*
X034180Y001680D01*
X033930Y001930D01*
X033930Y002430D01*
X033680Y002680D01*
X034180Y003055D02*
X034180Y002055D01*
X034680Y001555D01*
X034680Y001180D01*
X033680Y001180D02*
X033180Y001680D01*
X033180Y003930D01*
X032555Y004555D01*
X032180Y004805D02*
X032180Y002055D01*
X032680Y001555D01*
X032680Y001180D01*
X031680Y001180D02*
X031680Y000430D01*
X021430Y000430D01*
X021180Y000680D01*
X021180Y001930D01*
X020430Y001930D01*
X019680Y002680D01*
X018930Y002930D02*
X018930Y004930D01*
X019180Y004555D02*
X019180Y001680D01*
X018680Y001180D01*
X019680Y001180D02*
X019680Y000430D01*
X018430Y000430D01*
X018180Y000680D01*
X018180Y007555D01*
X018305Y007680D01*
X018555Y007430D02*
X018680Y007555D01*
X018680Y007805D01*
X018430Y008055D01*
X017930Y008055D01*
X017930Y006555D01*
X015680Y004305D01*
X015680Y001180D01*
X015180Y001680D02*
X014680Y001180D01*
X015180Y001680D02*
X015180Y005055D01*
X015305Y005180D01*
X014805Y005805D02*
X014805Y002180D01*
X017680Y002680D02*
X017805Y002805D01*
X017805Y004180D01*
X019180Y004555D02*
X022805Y004555D01*
X024680Y002680D01*
X021680Y002680D02*
X021680Y001180D01*
X024680Y001180D02*
X025180Y001680D01*
X025180Y003805D01*
X025555Y004180D01*
X025555Y008555D01*
X025680Y008680D01*
X024430Y007930D02*
X023680Y008680D01*
X021680Y008680D02*
X024055Y006305D01*
X024180Y005930D02*
X024430Y006180D01*
X024430Y007930D01*
X026180Y007805D02*
X030180Y003805D01*
X030180Y001680D01*
X030680Y001180D01*
X029680Y001180D02*
X029180Y001680D01*
X029180Y004305D01*
X028555Y004930D01*
X028180Y003680D02*
X026555Y005305D01*
X026180Y005430D02*
X026180Y001680D01*
X025680Y001180D01*
X027180Y001680D02*
X027680Y001180D01*
X028180Y001680D02*
X028680Y001180D01*
X028180Y001680D02*
X028180Y003680D01*
X027180Y003930D02*
X027180Y001680D01*
X028680Y002680D02*
X028805Y002805D01*
X028805Y004180D01*
X027180Y003930D02*
X026555Y004555D01*
X026180Y005430D02*
X025930Y005680D01*
X024180Y005930D02*
X018555Y005930D01*
X018555Y007430D01*
X018680Y008680D02*
X021055Y006305D01*
X022680Y006680D02*
X020680Y008680D01*
X020680Y009680D02*
X019680Y008680D01*
X017680Y008680D02*
X014805Y005805D01*
X008680Y007680D02*
X008680Y003680D01*
X008180Y003180D01*
X007555Y001930D02*
X006680Y002805D01*
X006680Y003930D01*
X003930Y003930D01*
X003180Y003180D01*
X006180Y003180D02*
X006430Y002930D01*
X006430Y002430D01*
X007180Y001680D01*
X007180Y000680D01*
X007430Y000430D01*
X012680Y000430D01*
X012680Y001180D01*
X009680Y001180D02*
X009680Y001930D01*
X007555Y001930D01*
X010680Y003180D02*
X011180Y002680D01*
X010680Y003180D02*
X010680Y010180D01*
X011180Y010680D01*
X008680Y008680D02*
X007680Y008680D01*
X006680Y008680D01*
X005680Y008680D01*
X004680Y008680D01*
X003680Y008680D01*
X002680Y008680D01*
X001680Y008680D01*
X001680Y007680D02*
X003180Y006180D01*
X004180Y006180D02*
X002680Y007680D01*
X003680Y007680D02*
X005180Y006180D01*
X006180Y006180D02*
X004680Y007680D01*
X005680Y007680D02*
X007180Y006180D01*
X008180Y006180D02*
X006680Y007680D01*
X020680Y009680D02*
X020680Y011180D01*
X020930Y011430D01*
X026180Y011430D01*
X026180Y007805D01*
X028180Y007930D02*
X028180Y009680D01*
X027680Y010180D02*
X027180Y009680D01*
X027680Y010180D02*
X027680Y010680D01*
X029180Y009680D02*
X029680Y010180D01*
X029680Y010680D01*
X030680Y010680D02*
X030680Y010180D01*
X031180Y009680D01*
X032180Y009680D02*
X032180Y009180D01*
X031680Y008680D01*
X030680Y008680D02*
X029680Y008680D01*
X028180Y007930D02*
X032930Y007930D01*
X033680Y008680D01*
X034180Y009680D02*
X034680Y010180D01*
X034680Y010680D01*
X036180Y009680D02*
X036680Y010180D01*
X036680Y010680D01*
X037680Y010680D02*
X037680Y010180D01*
X038180Y009680D01*
X037180Y009680D02*
X037180Y006180D01*
X036180Y005180D01*
X035680Y005180D01*
X034930Y005430D02*
X034930Y003305D01*
X035180Y003055D01*
X035180Y001680D01*
X035680Y001180D01*
X036680Y001180D02*
X037180Y001680D01*
X037180Y004680D01*
X038180Y004680D01*
X038180Y003180D02*
X039680Y004680D01*
X039680Y005680D02*
X038930Y006430D01*
X038930Y007305D01*
X037555Y008680D01*
X036805Y007680D02*
X036555Y007430D01*
X036555Y006055D01*
X035680Y006180D02*
X034930Y005430D01*
X034430Y005430D02*
X034430Y003305D01*
X034180Y003055D01*
X031680Y002680D02*
X031680Y006180D01*
X031930Y006430D01*
X032930Y006430D01*
X032930Y005930D01*
X033680Y005180D01*
X034430Y005430D02*
X033680Y006180D01*
X031305Y006680D02*
X030680Y006055D01*
X030680Y002680D01*
X032180Y004805D02*
X032055Y004930D01*
X038180Y003180D02*
X038180Y001680D01*
X037680Y001180D01*
X039680Y001180D02*
X039680Y002680D01*
X022180Y004180D02*
X020680Y002680D01*
X018930Y002930D02*
X018680Y002680D01*
X034805Y009680D02*
X035180Y009680D01*
D19*
X037555Y008680D03*
X036805Y007680D03*
X036555Y006055D03*
X032055Y004930D03*
X032555Y004555D03*
X028805Y004180D03*
X028555Y004930D03*
X026555Y004555D03*
X026555Y005305D03*
X025930Y005680D03*
X024055Y006305D03*
X022680Y006680D03*
X021055Y006305D03*
X025180Y007305D03*
X031305Y006680D03*
X022180Y004180D03*
X018930Y004930D03*
X017805Y004180D03*
X015305Y005180D03*
X018305Y007680D03*
X025680Y003805D03*
X014805Y002180D03*
X037555Y003805D03*
M02*
