%
M48
M72
T01C0.0236
T02C0.0240
T03C0.0315
T04C0.0320
T05C0.0360
T06C0.0400
%
T01
X14180Y7680
T02
X18305Y7680
X21055Y6305
X22680Y6680
X24055Y6305
X25930Y5680
X26555Y5305
X28555Y4930
X26555Y4555
X25680Y3805
X28805Y4180
X32055Y4930
X32555Y4555
X36555Y6055
X31305Y6680
X36805Y7680
X37555Y8680
X25180Y7305
X18930Y4930
X17805Y4180
X15305Y5180
X22180Y4180
X14805Y2180
X37555Y3805
T03
X11180Y7680
T04
X9180Y6180
X8180Y6180
X7180Y6180
X6180Y6180
X5180Y6180
X4180Y6180
X3180Y6180
X2180Y6180
X1180Y6180
X1180Y5180
X2180Y3180
X3180Y3180
X4180Y3180
X5180Y3180
X6180Y3180
X7180Y3180
X8180Y3180
X9180Y3180
X11180Y4680
X14180Y4680
X16180Y4180
X16180Y3180
X17680Y2680
X18680Y2680
X19680Y2680
X20680Y2680
X21680Y2680
X22680Y2680
X23680Y2680
X24680Y2680
X25680Y2680
X26680Y2680
X27680Y2680
X28680Y2680
X29680Y2680
X30680Y2680
X31680Y2680
X32680Y2680
X33680Y2680
X34680Y2680
X35680Y2680
X36680Y2680
X36680Y8680
X35680Y8680
X34680Y8680
X33680Y8680
X32680Y8680
X31680Y8680
X30680Y8680
X29680Y8680
X28680Y8680
X27680Y8680
X26680Y8680
X25680Y8680
X24680Y8680
X23680Y8680
X22680Y8680
X21680Y8680
X20680Y8680
X19680Y8680
X18680Y8680
X17680Y8680
X14180Y10680
X11180Y10680
X27180Y9680
X28180Y9680
X29180Y9680
X30180Y9680
X31180Y9680
X32180Y9680
X34180Y9680
X35180Y9680
X36180Y9680
X37180Y9680
X38180Y9680
X39180Y9680
T05
X39680Y6680
X38180Y6680
X35680Y6180
X33680Y6180
X33680Y5180
X35680Y5180
X38180Y4680
X39680Y4680
X39680Y5680
X38180Y5680
X37680Y2680
X38680Y2680
X39680Y2680
X21180Y10680
X20180Y10680
X18680Y10680
X17680Y10680
X12180Y2680
X11180Y2680
T06
X680Y1180
X1680Y1180
X2680Y1180
X3680Y1180
X4680Y1180
X5680Y1180
X6680Y1180
X7680Y1180
X8680Y1180
X9680Y1180
X10680Y1180
X11680Y1180
X12680Y1180
X13680Y1180
X14680Y1180
X15680Y1180
X16680Y1180
X17680Y1180
X18680Y1180
X19680Y1180
X20680Y1180
X21680Y1180
X22680Y1180
X23680Y1180
X24680Y1180
X25680Y1180
X26680Y1180
X27680Y1180
X28680Y1180
X29680Y1180
X30680Y1180
X31680Y1180
X32680Y1180
X33680Y1180
X34680Y1180
X35680Y1180
X36680Y1180
X37680Y1180
X38680Y1180
X39680Y1180
X8680Y7680
X7680Y7680
X6680Y7680
X5680Y7680
X4680Y7680
X3680Y7680
X2680Y7680
X1680Y7680
X1680Y8680
X2680Y8680
X3680Y8680
X4680Y8680
X5680Y8680
X6680Y8680
X7680Y8680
X8680Y8680
X26680Y10680
X27680Y10680
X28680Y10680
X29680Y10680
X30680Y10680
X31680Y10680
X33680Y10680
X34680Y10680
X35680Y10680
X36680Y10680
X37680Y10680
X38680Y10680
M30
