G75*
%MOIN*%
%OFA0B0*%
%FSLAX24Y24*%
%IPPOS*%
%LPD*%
%AMOC8*
5,1,8,0,0,1.08239X$1,22.5*
%
%ADD10C,0.0316*%
%ADD11OC8,0.0600*%
%ADD12C,0.0600*%
%ADD13C,0.0600*%
%ADD14OC8,0.0680*%
%ADD15C,0.0680*%
%ADD16R,0.0595X0.0595*%
%ADD17R,0.0980X0.0980*%
%ADD18R,0.0905X0.0905*%
%ADD19R,0.0680X0.0680*%
%ADD20OC8,0.0595*%
D10*
X004680Y006180D03*
D11*
X006180Y005680D03*
X009180Y005680D03*
X009180Y004680D03*
X007680Y004680D03*
X006680Y004680D03*
X009180Y003680D03*
X014180Y003180D03*
X017180Y003180D03*
X016180Y004180D03*
X014680Y004180D03*
X014680Y005180D03*
X016180Y005180D03*
X009180Y006680D03*
X006180Y006680D03*
X014180Y007180D03*
X017180Y007180D03*
X018180Y007680D03*
X017180Y008180D03*
X018180Y008680D03*
X017180Y009180D03*
X014180Y009180D03*
X014180Y008180D03*
X008670Y009180D03*
X006690Y009180D03*
X007680Y010180D03*
X014180Y010180D03*
X015180Y010180D03*
X019680Y007180D03*
X020680Y007180D03*
X025680Y007180D03*
X026680Y007180D03*
X032680Y005680D03*
X033680Y005680D03*
X033680Y002680D03*
X032680Y002680D03*
D12*
X031680Y002920D02*
X031680Y003440D01*
X030680Y003440D02*
X030680Y002920D01*
X029680Y002920D02*
X029680Y003440D01*
X028680Y003440D02*
X028680Y002920D01*
X027680Y002920D02*
X027680Y003440D01*
X026680Y003440D02*
X026680Y002920D01*
X025680Y002920D02*
X025680Y003440D01*
X024180Y003440D02*
X024180Y002920D01*
X023180Y002920D02*
X023180Y003440D01*
X022180Y003440D02*
X022180Y002920D01*
X021180Y002920D02*
X021180Y003440D01*
X020180Y003440D02*
X020180Y002920D01*
X019180Y002920D02*
X019180Y003440D01*
X018180Y003440D02*
X018180Y002920D01*
X018180Y005920D02*
X018180Y006440D01*
X019180Y006440D02*
X019180Y005920D01*
X020180Y005920D02*
X020180Y006440D01*
X021180Y006440D02*
X021180Y005920D01*
X022180Y005920D02*
X022180Y006440D01*
X023180Y006440D02*
X023180Y005920D01*
X024180Y005920D02*
X024180Y006440D01*
X025680Y006440D02*
X025680Y005920D01*
X026680Y005920D02*
X026680Y006440D01*
X027680Y006440D02*
X027680Y005920D01*
X028680Y005920D02*
X028680Y006440D01*
X029680Y006440D02*
X029680Y005920D01*
X030680Y005920D02*
X030680Y006440D01*
X031680Y006440D02*
X031680Y005920D01*
X032680Y006420D02*
X032680Y006940D01*
X033680Y006940D02*
X033680Y006420D01*
X034680Y006420D02*
X034680Y006940D01*
X034680Y009420D02*
X034680Y009940D01*
X033680Y009940D02*
X033680Y009420D01*
X032680Y009420D02*
X032680Y009940D01*
X022940Y009180D02*
X022420Y009180D01*
X019940Y009180D02*
X019420Y009180D01*
D13*
X013180Y010180D03*
X012180Y010180D03*
X011180Y010180D03*
X010180Y010180D03*
X004680Y009180D03*
X001680Y009180D03*
X010180Y007180D03*
X011180Y007180D03*
X012180Y007180D03*
X013180Y007180D03*
X013180Y006180D03*
X012180Y006180D03*
X011180Y006180D03*
X010180Y006180D03*
X010180Y003180D03*
X011180Y003180D03*
X012180Y003180D03*
X013180Y003180D03*
X004680Y003180D03*
X001680Y003180D03*
D14*
X034680Y002680D03*
X035680Y002680D03*
X036680Y002680D03*
X037680Y002680D03*
X038680Y002680D03*
X039680Y002680D03*
X039680Y003680D03*
X038680Y003680D03*
X037680Y003680D03*
X036680Y003680D03*
X035680Y003680D03*
X034680Y003680D03*
D15*
X000680Y001480D02*
X000680Y000880D01*
X001680Y000880D02*
X001680Y001480D01*
X002680Y001480D02*
X002680Y000880D01*
X003680Y000880D02*
X003680Y001480D01*
X004680Y001480D02*
X004680Y000880D01*
X005680Y000880D02*
X005680Y001480D01*
X006680Y001480D02*
X006680Y000880D01*
X007680Y000880D02*
X007680Y001480D01*
X008680Y001480D02*
X008680Y000880D01*
X009680Y000880D02*
X009680Y001480D01*
X010680Y001480D02*
X010680Y000880D01*
X011680Y000880D02*
X011680Y001480D01*
X012680Y001480D02*
X012680Y000880D01*
X013680Y000880D02*
X013680Y001480D01*
X014680Y001480D02*
X014680Y000880D01*
X015680Y000880D02*
X015680Y001480D01*
X016680Y001480D02*
X016680Y000880D01*
X017680Y000880D02*
X017680Y001480D01*
X018680Y001480D02*
X018680Y000880D01*
X019680Y000880D02*
X019680Y001480D01*
X020680Y001480D02*
X020680Y000880D01*
X021680Y000880D02*
X021680Y001480D01*
X022680Y001480D02*
X022680Y000880D01*
X023680Y000880D02*
X023680Y001480D01*
X024680Y001480D02*
X024680Y000880D01*
X025680Y000880D02*
X025680Y001480D01*
X026680Y001480D02*
X026680Y000880D01*
X027680Y000880D02*
X027680Y001480D01*
X028680Y001480D02*
X028680Y000880D01*
X029680Y000880D02*
X029680Y001480D01*
X030680Y001480D02*
X030680Y000880D01*
X031680Y000880D02*
X031680Y001480D01*
X032680Y001480D02*
X032680Y000880D01*
X033680Y000880D02*
X033680Y001480D01*
X034680Y001480D02*
X034680Y000880D01*
X035680Y000880D02*
X035680Y001480D01*
X036680Y001480D02*
X036680Y000880D01*
X037680Y000880D02*
X037680Y001480D01*
X038680Y001480D02*
X038680Y000880D01*
X039680Y000880D02*
X039680Y001480D01*
D16*
X029250Y009680D03*
X027680Y009680D03*
X026890Y009680D03*
X026100Y009680D03*
D17*
X025280Y009680D03*
X030080Y009680D03*
D18*
X030750Y009680D03*
X036300Y008690D03*
X039060Y008690D03*
X024610Y009680D03*
D19*
X036795Y009670D03*
X038565Y009670D03*
D20*
X001680Y006180D03*
M02*
