%
M48
M72
T01C0.0236
T02C0.0240
T03C0.0315
T04C0.0320
T05C0.0400
T06C0.0550
T07C0.0600
%
T01
X4680Y6180
T02
X15305Y6805
X28180Y8930
X16930Y2555
T03
X1680Y6180
X26100Y9680
X26890Y9680
X27680Y9680
X29250Y9680
T04
X32680Y9680
X33680Y9680
X34680Y9680
X26680Y7180
X25680Y7180
X25680Y6180
X26680Y6180
X27680Y6180
X28680Y6180
X29680Y6180
X30680Y6180
X31680Y6180
X32680Y5680
X33680Y5680
X33680Y6680
X34680Y6680
X32680Y6680
X24180Y6180
X23180Y6180
X22180Y6180
X21180Y6180
X20180Y6180
X19180Y6180
X18180Y6180
X17180Y7180
X18180Y7680
X17180Y8180
X18180Y8680
X17180Y9180
X19680Y9180
X22680Y9180
X20680Y7180
X19680Y7180
X14180Y7180
X13180Y7180
X12180Y7180
X11180Y7180
X10180Y7180
X9180Y6680
X10180Y6180
X11180Y6180
X12180Y6180
X13180Y6180
X14680Y5180
X16180Y5180
X16180Y4180
X14680Y4180
X14180Y3180
X13180Y3180
X12180Y3180
X11180Y3180
X10180Y3180
X9180Y3680
X9180Y4680
X7680Y4680
X6680Y4680
X6180Y5680
X9180Y5680
X6180Y6680
X14180Y8180
X14180Y9180
X14180Y10180
X13180Y10180
X12180Y10180
X11180Y10180
X10180Y10180
X7680Y10180
X6690Y9180
X8670Y9180
X4680Y9180
X1680Y9180
X15180Y10180
X17180Y3180
X18180Y3180
X19180Y3180
X20180Y3180
X21180Y3180
X22180Y3180
X23180Y3180
X24180Y3180
X25680Y3180
X26680Y3180
X27680Y3180
X28680Y3180
X29680Y3180
X30680Y3180
X31680Y3180
X32680Y2680
X33680Y2680
X4680Y3180
X1680Y3180
T05
X680Y1180
X1680Y1180
X2680Y1180
X3680Y1180
X4680Y1180
X5680Y1180
X6680Y1180
X7680Y1180
X8680Y1180
X9680Y1180
X10680Y1180
X11680Y1180
X12680Y1180
X13680Y1180
X14680Y1180
X15680Y1180
X16680Y1180
X17680Y1180
X18680Y1180
X19680Y1180
X20680Y1180
X21680Y1180
X22680Y1180
X23680Y1180
X24680Y1180
X25680Y1180
X26680Y1180
X27680Y1180
X28680Y1180
X29680Y1180
X30680Y1180
X31680Y1180
X32680Y1180
X33680Y1180
X34680Y1180
X35680Y1180
X36680Y1180
X37680Y1180
X38680Y1180
X39680Y1180
X39680Y2680
X38680Y2680
X37680Y2680
X36680Y2680
X35680Y2680
X34680Y2680
X34680Y3680
X35680Y3680
X36680Y3680
X37680Y3680
X38680Y3680
X39680Y3680
X38565Y9670
X36795Y9670
T06
X36300Y8690
X39060Y8690
X30750Y9680
X24610Y9680
T07
X25280Y9680
X30080Y9680
M30
