G75*
%MOIN*%
%OFA0B0*%
%FSLAX24Y24*%
%IPPOS*%
%LPD*%
%AMOC8*
5,1,8,0,0,1.08239X$1,22.5*
%
%ADD10C,0.0030*%
%ADD11C,0.0060*%
%ADD12C,0.0100*%
%ADD13C,0.0050*%
%ADD14R,0.0150X0.0200*%
%ADD15C,0.0020*%
%ADD16R,0.0200X0.0150*%
%ADD17C,0.0080*%
D10*
X000375Y002195D02*
X000375Y002340D01*
X000423Y002388D01*
X000520Y002388D01*
X000568Y002340D01*
X000568Y002195D01*
X000665Y002195D02*
X000375Y002195D01*
X000375Y002490D02*
X000375Y002586D01*
X000375Y002538D02*
X000665Y002538D01*
X000665Y002490D02*
X000665Y002586D01*
X000665Y002686D02*
X000375Y002686D01*
X000665Y002880D01*
X000375Y002880D01*
X000472Y002981D02*
X000375Y003077D01*
X000665Y003077D01*
X000665Y002981D02*
X000665Y003174D01*
X001923Y008895D02*
X001875Y008943D01*
X001875Y009040D01*
X001923Y009088D01*
X002117Y008895D01*
X002165Y008943D01*
X002165Y009040D01*
X002117Y009088D01*
X001923Y009088D01*
X001923Y009190D02*
X001875Y009238D01*
X001875Y009335D01*
X001923Y009383D01*
X002117Y009190D01*
X002165Y009238D01*
X002165Y009335D01*
X002117Y009383D01*
X001923Y009383D01*
X001923Y009190D02*
X002117Y009190D01*
X002117Y008895D02*
X001923Y008895D01*
X002875Y008943D02*
X002923Y008895D01*
X002875Y008943D02*
X002875Y009040D01*
X002923Y009088D01*
X002972Y009088D01*
X003165Y008895D01*
X003165Y009088D01*
X003117Y009190D02*
X002923Y009383D01*
X003117Y009383D01*
X003165Y009335D01*
X003165Y009238D01*
X003117Y009190D01*
X002923Y009190D01*
X002875Y009238D01*
X002875Y009335D01*
X002923Y009383D01*
X003875Y009335D02*
X003875Y009238D01*
X003923Y009190D01*
X004117Y009190D01*
X003923Y009383D01*
X004117Y009383D01*
X004165Y009335D01*
X004165Y009238D01*
X004117Y009190D01*
X004020Y009088D02*
X004020Y008895D01*
X003875Y009040D01*
X004165Y009040D01*
X004875Y009088D02*
X004923Y008992D01*
X005020Y008895D01*
X005020Y009040D01*
X005068Y009088D01*
X005117Y009088D01*
X005165Y009040D01*
X005165Y008943D01*
X005117Y008895D01*
X005020Y008895D01*
X005117Y009190D02*
X004923Y009383D01*
X005117Y009383D01*
X005165Y009335D01*
X005165Y009238D01*
X005117Y009190D01*
X004923Y009190D01*
X004875Y009238D01*
X004875Y009335D01*
X004923Y009383D01*
X005875Y009335D02*
X005875Y009238D01*
X005923Y009190D01*
X006117Y009190D01*
X005923Y009383D01*
X006117Y009383D01*
X006165Y009335D01*
X006165Y009238D01*
X006117Y009190D01*
X006117Y009088D02*
X006165Y009040D01*
X006165Y008943D01*
X006117Y008895D01*
X006068Y008895D01*
X006020Y008943D01*
X006020Y009040D01*
X006068Y009088D01*
X006117Y009088D01*
X006020Y009040D02*
X005972Y009088D01*
X005923Y009088D01*
X005875Y009040D01*
X005875Y008943D01*
X005923Y008895D01*
X005972Y008895D01*
X006020Y008943D01*
X006875Y008992D02*
X006972Y009088D01*
X007165Y009088D01*
X007117Y009190D02*
X006923Y009383D01*
X007117Y009383D01*
X007165Y009335D01*
X007165Y009238D01*
X007117Y009190D01*
X006923Y009190D01*
X006875Y009238D01*
X006875Y009335D01*
X006923Y009383D01*
X007020Y009088D02*
X007020Y008895D01*
X006972Y008895D02*
X006875Y008992D01*
X006972Y008895D02*
X007165Y008895D01*
X007875Y008943D02*
X007923Y008895D01*
X008117Y008895D01*
X008165Y008943D01*
X008165Y009040D01*
X008117Y009088D01*
X008117Y009190D02*
X007923Y009383D01*
X008117Y009383D01*
X008165Y009335D01*
X008165Y009238D01*
X008117Y009190D01*
X007923Y009190D01*
X007875Y009238D01*
X007875Y009335D01*
X007923Y009383D01*
X007923Y009088D02*
X007875Y009040D01*
X007875Y008943D01*
X008875Y008895D02*
X009165Y008895D01*
X009165Y009088D01*
X009117Y009190D02*
X008923Y009383D01*
X009117Y009383D01*
X009165Y009335D01*
X009165Y009238D01*
X009117Y009190D01*
X008923Y009190D01*
X008875Y009238D01*
X008875Y009335D01*
X008923Y009383D01*
X008875Y009088D02*
X008875Y008895D01*
X009020Y008895D02*
X009020Y008992D01*
X005923Y009383D02*
X005875Y009335D01*
X003923Y009383D02*
X003875Y009335D01*
D11*
X003930Y008680D02*
X004430Y008680D01*
X004680Y008430D01*
X004930Y008680D01*
X005430Y008680D01*
X005680Y008430D01*
X005930Y008680D01*
X006430Y008680D01*
X006680Y008430D01*
X006930Y008680D01*
X007430Y008680D01*
X007680Y008430D01*
X007930Y008680D01*
X008430Y008680D01*
X008680Y008430D01*
X008930Y008680D01*
X009430Y008680D01*
X009680Y008430D01*
X009680Y006930D01*
X009430Y006680D01*
X008930Y006680D01*
X008680Y006930D01*
X008430Y006680D01*
X007930Y006680D01*
X007680Y006930D01*
X007430Y006680D01*
X006930Y006680D01*
X006680Y006930D01*
X006430Y006680D01*
X005930Y006680D01*
X005680Y006930D01*
X005430Y006680D01*
X004930Y006680D01*
X004680Y006930D01*
X004430Y006680D01*
X003930Y006680D01*
X003680Y006930D01*
X003430Y006680D01*
X002930Y006680D01*
X002680Y006930D01*
X002430Y006680D01*
X001930Y006680D01*
X001680Y006930D01*
X001680Y008430D01*
X001930Y008680D01*
X002430Y008680D01*
X002680Y008430D01*
X002930Y008680D01*
X003430Y008680D01*
X003680Y008430D01*
X003930Y008680D01*
X001680Y010530D02*
X001680Y011280D01*
X001719Y011282D01*
X001758Y011288D01*
X001796Y011297D01*
X001833Y011310D01*
X001869Y011327D01*
X001902Y011347D01*
X001934Y011371D01*
X001963Y011397D01*
X001989Y011426D01*
X002013Y011458D01*
X002033Y011491D01*
X002050Y011527D01*
X002063Y011564D01*
X002072Y011602D01*
X002078Y011641D01*
X002080Y011680D01*
X002078Y011719D01*
X002072Y011758D01*
X002063Y011796D01*
X002050Y011833D01*
X002033Y011869D01*
X002013Y011902D01*
X001989Y011934D01*
X001963Y011963D01*
X001934Y011989D01*
X001902Y012013D01*
X001869Y012033D01*
X001833Y012050D01*
X001796Y012063D01*
X001758Y012072D01*
X001719Y012078D01*
X001680Y012080D01*
X001680Y012830D01*
X008680Y012830D01*
X008680Y010530D01*
X001680Y010530D01*
X001580Y011730D02*
X000780Y011730D01*
X000763Y011732D01*
X000746Y011736D01*
X000730Y011743D01*
X000716Y011753D01*
X000703Y011766D01*
X000693Y011780D01*
X000686Y011796D01*
X000682Y011813D01*
X000680Y011830D01*
X000680Y013530D01*
X000682Y013547D01*
X000686Y013564D01*
X000693Y013580D01*
X000703Y013594D01*
X000716Y013607D01*
X000730Y013617D01*
X000746Y013624D01*
X000763Y013628D01*
X000780Y013630D01*
X001580Y013630D01*
X001597Y013628D01*
X001614Y013624D01*
X001630Y013617D01*
X001644Y013607D01*
X001657Y013594D01*
X001667Y013580D01*
X001674Y013564D01*
X001678Y013547D01*
X001680Y013530D01*
X001680Y011830D01*
X001678Y011813D01*
X001674Y011796D01*
X001667Y011780D01*
X001657Y011766D01*
X001644Y011753D01*
X001630Y011743D01*
X001614Y011736D01*
X001597Y011732D01*
X001580Y011730D01*
X001180Y012530D02*
X001180Y012580D01*
X001180Y012780D02*
X001180Y012830D01*
X009180Y012080D02*
X009180Y011280D01*
X009280Y011180D01*
X009180Y011080D01*
X009180Y010280D01*
X009280Y010180D01*
X010080Y010180D01*
X010180Y010280D01*
X010180Y011080D01*
X010080Y011180D01*
X010180Y011280D01*
X010180Y012080D01*
X010080Y012180D01*
X009280Y012180D01*
X009180Y012080D01*
X010680Y012080D02*
X010680Y011280D01*
X010780Y011180D01*
X010680Y011080D01*
X010680Y010280D01*
X010780Y010180D01*
X011580Y010180D01*
X011680Y010280D01*
X011680Y011080D01*
X011580Y011180D01*
X011680Y011280D01*
X011680Y012080D01*
X011580Y012180D01*
X010780Y012180D01*
X010680Y012080D01*
X013180Y011880D02*
X013180Y012480D01*
X013182Y012497D01*
X013186Y012514D01*
X013193Y012530D01*
X013203Y012544D01*
X013216Y012557D01*
X013230Y012567D01*
X013246Y012574D01*
X013263Y012578D01*
X013280Y012580D01*
X013430Y012580D01*
X013480Y012530D01*
X014880Y012530D01*
X014930Y012580D01*
X015080Y012580D01*
X015097Y012578D01*
X015114Y012574D01*
X015130Y012567D01*
X015144Y012557D01*
X015157Y012544D01*
X015167Y012530D01*
X015174Y012514D01*
X015178Y012497D01*
X015180Y012480D01*
X015180Y011880D01*
X015178Y011863D01*
X015174Y011846D01*
X015167Y011830D01*
X015157Y011816D01*
X015144Y011803D01*
X015130Y011793D01*
X015114Y011786D01*
X015097Y011782D01*
X015080Y011780D01*
X014930Y011780D01*
X014880Y011830D01*
X013480Y011830D01*
X013430Y011780D01*
X013280Y011780D01*
X013263Y011782D01*
X013246Y011786D01*
X013230Y011793D01*
X013216Y011803D01*
X013203Y011816D01*
X013193Y011830D01*
X013186Y011846D01*
X013182Y011863D01*
X013180Y011880D01*
X013280Y011080D02*
X013430Y011080D01*
X013480Y011030D01*
X014880Y011030D01*
X014930Y011080D01*
X015080Y011080D01*
X015097Y011078D01*
X015114Y011074D01*
X015130Y011067D01*
X015144Y011057D01*
X015157Y011044D01*
X015167Y011030D01*
X015174Y011014D01*
X015178Y010997D01*
X015180Y010980D01*
X015180Y010380D01*
X015178Y010363D01*
X015174Y010346D01*
X015167Y010330D01*
X015157Y010316D01*
X015144Y010303D01*
X015130Y010293D01*
X015114Y010286D01*
X015097Y010282D01*
X015080Y010280D01*
X014930Y010280D01*
X014880Y010330D01*
X013480Y010330D01*
X013430Y010280D01*
X013280Y010280D01*
X013263Y010282D01*
X013246Y010286D01*
X013230Y010293D01*
X013216Y010303D01*
X013203Y010316D01*
X013193Y010330D01*
X013186Y010346D01*
X013182Y010363D01*
X013180Y010380D01*
X013180Y010980D01*
X013182Y010997D01*
X013186Y011014D01*
X013193Y011030D01*
X013203Y011044D01*
X013216Y011057D01*
X013230Y011067D01*
X013246Y011074D01*
X013263Y011078D01*
X013280Y011080D01*
X013280Y009580D02*
X013430Y009580D01*
X013480Y009530D01*
X014880Y009530D01*
X014930Y009580D01*
X015080Y009580D01*
X015097Y009578D01*
X015114Y009574D01*
X015130Y009567D01*
X015144Y009557D01*
X015157Y009544D01*
X015167Y009530D01*
X015174Y009514D01*
X015178Y009497D01*
X015180Y009480D01*
X015180Y008880D01*
X015178Y008863D01*
X015174Y008846D01*
X015167Y008830D01*
X015157Y008816D01*
X015144Y008803D01*
X015130Y008793D01*
X015114Y008786D01*
X015097Y008782D01*
X015080Y008780D01*
X014930Y008780D01*
X014880Y008830D01*
X013480Y008830D01*
X013430Y008780D01*
X013280Y008780D01*
X013263Y008782D01*
X013246Y008786D01*
X013230Y008793D01*
X013216Y008803D01*
X013203Y008816D01*
X013193Y008830D01*
X013186Y008846D01*
X013182Y008863D01*
X013180Y008880D01*
X013180Y009480D01*
X013182Y009497D01*
X013186Y009514D01*
X013193Y009530D01*
X013203Y009544D01*
X013216Y009557D01*
X013230Y009567D01*
X013246Y009574D01*
X013263Y009578D01*
X013280Y009580D01*
X013280Y008080D02*
X013430Y008080D01*
X013480Y008030D01*
X014880Y008030D01*
X014930Y008080D01*
X015080Y008080D01*
X015097Y008078D01*
X015114Y008074D01*
X015130Y008067D01*
X015144Y008057D01*
X015157Y008044D01*
X015167Y008030D01*
X015174Y008014D01*
X015178Y007997D01*
X015180Y007980D01*
X015180Y007380D01*
X015178Y007363D01*
X015174Y007346D01*
X015167Y007330D01*
X015157Y007316D01*
X015144Y007303D01*
X015130Y007293D01*
X015114Y007286D01*
X015097Y007282D01*
X015080Y007280D01*
X014930Y007280D01*
X014880Y007330D01*
X013480Y007330D01*
X013430Y007280D01*
X013280Y007280D01*
X013263Y007282D01*
X013246Y007286D01*
X013230Y007293D01*
X013216Y007303D01*
X013203Y007316D01*
X013193Y007330D01*
X013186Y007346D01*
X013182Y007363D01*
X013180Y007380D01*
X013180Y007980D01*
X013182Y007997D01*
X013186Y008014D01*
X013193Y008030D01*
X013203Y008044D01*
X013216Y008057D01*
X013230Y008067D01*
X013246Y008074D01*
X013263Y008078D01*
X013280Y008080D01*
X014830Y005680D02*
X016530Y005680D01*
X016547Y005678D01*
X016564Y005674D01*
X016580Y005667D01*
X016594Y005657D01*
X016607Y005644D01*
X016617Y005630D01*
X016624Y005614D01*
X016628Y005597D01*
X016630Y005580D01*
X016630Y004780D01*
X016628Y004763D01*
X016624Y004746D01*
X016617Y004730D01*
X016607Y004716D01*
X016594Y004703D01*
X016580Y004693D01*
X016564Y004686D01*
X016547Y004682D01*
X016530Y004680D01*
X014830Y004680D01*
X014813Y004682D01*
X014796Y004686D01*
X014780Y004693D01*
X014766Y004703D01*
X014753Y004716D01*
X014743Y004730D01*
X014736Y004746D01*
X014732Y004763D01*
X014730Y004780D01*
X014730Y005580D01*
X014732Y005597D01*
X014736Y005614D01*
X014743Y005630D01*
X014753Y005644D01*
X014766Y005657D01*
X014780Y005667D01*
X014796Y005674D01*
X014813Y005678D01*
X014830Y005680D01*
X015530Y005180D02*
X015580Y005180D01*
X015780Y005180D02*
X015830Y005180D01*
X011680Y004780D02*
X011580Y004680D01*
X011680Y004580D01*
X011680Y003780D01*
X011580Y003680D01*
X011680Y003580D01*
X011680Y002780D01*
X011580Y002680D01*
X010780Y002680D01*
X010680Y002780D01*
X010680Y003580D01*
X010780Y003680D01*
X010680Y003780D01*
X010680Y004580D01*
X010780Y004680D01*
X010680Y004780D01*
X010680Y005580D01*
X010780Y005680D01*
X011580Y005680D01*
X011680Y005580D01*
X011680Y004780D01*
X009680Y005330D02*
X009680Y003030D01*
X001680Y003030D01*
X001680Y003780D01*
X001719Y003782D01*
X001758Y003788D01*
X001796Y003797D01*
X001833Y003810D01*
X001869Y003827D01*
X001902Y003847D01*
X001934Y003871D01*
X001963Y003897D01*
X001989Y003926D01*
X002013Y003958D01*
X002033Y003991D01*
X002050Y004027D01*
X002063Y004064D01*
X002072Y004102D01*
X002078Y004141D01*
X002080Y004180D01*
X002078Y004219D01*
X002072Y004258D01*
X002063Y004296D01*
X002050Y004333D01*
X002033Y004369D01*
X002013Y004402D01*
X001989Y004434D01*
X001963Y004463D01*
X001934Y004489D01*
X001902Y004513D01*
X001869Y004533D01*
X001833Y004550D01*
X001796Y004563D01*
X001758Y004572D01*
X001719Y004578D01*
X001680Y004580D01*
X001680Y005330D01*
X009680Y005330D01*
X001680Y006030D02*
X001680Y004330D01*
X001678Y004313D01*
X001674Y004296D01*
X001667Y004280D01*
X001657Y004266D01*
X001644Y004253D01*
X001630Y004243D01*
X001614Y004236D01*
X001597Y004232D01*
X001580Y004230D01*
X000780Y004230D01*
X000763Y004232D01*
X000746Y004236D01*
X000730Y004243D01*
X000716Y004253D01*
X000703Y004266D01*
X000693Y004280D01*
X000686Y004296D01*
X000682Y004313D01*
X000680Y004330D01*
X000680Y006030D01*
X000682Y006047D01*
X000686Y006064D01*
X000693Y006080D01*
X000703Y006094D01*
X000716Y006107D01*
X000730Y006117D01*
X000746Y006124D01*
X000763Y006128D01*
X000780Y006130D01*
X001580Y006130D01*
X001597Y006128D01*
X001614Y006124D01*
X001630Y006117D01*
X001644Y006107D01*
X001657Y006094D01*
X001667Y006080D01*
X001674Y006064D01*
X001678Y006047D01*
X001680Y006030D01*
X001180Y005330D02*
X001180Y005280D01*
X001180Y005080D02*
X001180Y005030D01*
X023210Y012317D02*
X023317Y012210D01*
X023424Y012317D01*
X023530Y012210D01*
X023637Y012317D01*
X023637Y012637D01*
X023855Y012637D02*
X023855Y012317D01*
X023961Y012210D01*
X024068Y012317D01*
X024175Y012210D01*
X024282Y012317D01*
X024282Y012637D01*
X024499Y012637D02*
X024499Y012317D01*
X024606Y012210D01*
X024713Y012317D01*
X024819Y012210D01*
X024926Y012317D01*
X024926Y012637D01*
X025466Y012530D02*
X025573Y012637D01*
X025893Y012637D01*
X026110Y012637D02*
X026217Y012637D01*
X026324Y012530D01*
X026431Y012637D01*
X026538Y012530D01*
X026538Y012210D01*
X026324Y012210D02*
X026324Y012530D01*
X026110Y012637D02*
X026110Y012210D01*
X025893Y012317D02*
X025786Y012424D01*
X025573Y012424D01*
X025466Y012530D01*
X025250Y012317D02*
X025250Y012210D01*
X025144Y012210D01*
X025144Y012317D01*
X025250Y012317D01*
X025466Y012210D02*
X025786Y012210D01*
X025893Y012317D01*
X026755Y012210D02*
X027075Y012210D01*
X027182Y012317D01*
X027182Y012530D01*
X027075Y012637D01*
X026755Y012637D01*
X026755Y012851D02*
X026755Y012210D01*
X027400Y012317D02*
X027506Y012424D01*
X027827Y012424D01*
X027827Y012530D02*
X027827Y012210D01*
X027506Y012210D01*
X027400Y012317D01*
X028044Y012424D02*
X028364Y012637D01*
X028581Y012530D02*
X028688Y012637D01*
X028902Y012637D01*
X029008Y012530D01*
X029008Y012424D01*
X028581Y012424D01*
X028581Y012530D02*
X028581Y012317D01*
X028688Y012210D01*
X028902Y012210D01*
X029226Y012210D02*
X029226Y012637D01*
X029439Y012637D02*
X029546Y012637D01*
X029439Y012637D02*
X029226Y012424D01*
X029763Y012317D02*
X029870Y012317D01*
X029870Y012210D01*
X029763Y012210D01*
X029763Y012317D01*
X030085Y012317D02*
X030192Y012210D01*
X030512Y012210D01*
X030730Y012317D02*
X030837Y012210D01*
X031050Y012210D01*
X031157Y012317D01*
X031157Y012530D01*
X031050Y012637D01*
X030837Y012637D01*
X030730Y012530D01*
X030730Y012317D01*
X031374Y012210D02*
X031374Y012637D01*
X031481Y012637D01*
X031588Y012530D01*
X031695Y012637D01*
X031801Y012530D01*
X031801Y012210D01*
X031588Y012210D02*
X031588Y012530D01*
X030512Y012637D02*
X030192Y012637D01*
X030085Y012530D01*
X030085Y012317D01*
X028364Y012210D02*
X028044Y012424D01*
X028044Y012210D02*
X028044Y012851D01*
X027827Y012530D02*
X027720Y012637D01*
X027506Y012637D01*
X023210Y012637D02*
X023210Y012317D01*
X038280Y009080D02*
X038280Y008930D01*
X038330Y008880D01*
X038330Y007480D01*
X038280Y007430D01*
X038280Y007280D01*
X038282Y007263D01*
X038286Y007246D01*
X038293Y007230D01*
X038303Y007216D01*
X038316Y007203D01*
X038330Y007193D01*
X038346Y007186D01*
X038363Y007182D01*
X038380Y007180D01*
X038980Y007180D01*
X038997Y007182D01*
X039014Y007186D01*
X039030Y007193D01*
X039044Y007203D01*
X039057Y007216D01*
X039067Y007230D01*
X039074Y007246D01*
X039078Y007263D01*
X039080Y007280D01*
X039080Y007430D01*
X039030Y007480D01*
X039030Y008880D01*
X039080Y008930D01*
X039080Y009080D01*
X039078Y009097D01*
X039074Y009114D01*
X039067Y009130D01*
X039057Y009144D01*
X039044Y009157D01*
X039030Y009167D01*
X039014Y009174D01*
X038997Y009178D01*
X038980Y009180D01*
X038380Y009180D01*
X038363Y009178D01*
X038346Y009174D01*
X038330Y009167D01*
X038316Y009157D01*
X038303Y009144D01*
X038293Y009130D01*
X038286Y009114D01*
X038282Y009097D01*
X038280Y009080D01*
X039168Y012029D02*
X039139Y012066D01*
X039107Y012101D01*
X039072Y012134D01*
X039035Y012164D01*
X038996Y012190D01*
X038955Y012213D01*
X038911Y012234D01*
X038867Y012250D01*
X038821Y012263D01*
X038775Y012272D01*
X038727Y012278D01*
X038680Y012280D01*
X038206Y011312D02*
X038236Y011277D01*
X038267Y011244D01*
X038302Y011214D01*
X038338Y011187D01*
X038376Y011163D01*
X038416Y011141D01*
X038458Y011123D01*
X038501Y011107D01*
X038545Y011095D01*
X038589Y011087D01*
X038635Y011082D01*
X038680Y011080D01*
X038200Y012040D02*
X038229Y012076D01*
X038261Y012110D01*
X038296Y012141D01*
X038332Y012169D01*
X038371Y012194D01*
X038412Y012217D01*
X038454Y012236D01*
X038497Y012252D01*
X038542Y012264D01*
X038588Y012273D01*
X038634Y012278D01*
X038680Y012280D01*
X039154Y011312D02*
X039124Y011277D01*
X039093Y011244D01*
X039058Y011214D01*
X039022Y011187D01*
X038984Y011163D01*
X038944Y011141D01*
X038902Y011123D01*
X038859Y011107D01*
X038815Y011095D01*
X038771Y011087D01*
X038725Y011082D01*
X038680Y011080D01*
X038580Y006130D02*
X037780Y006130D01*
X037763Y006128D01*
X037746Y006124D01*
X037730Y006117D01*
X037716Y006107D01*
X037703Y006094D01*
X037693Y006080D01*
X037686Y006064D01*
X037682Y006047D01*
X037680Y006030D01*
X037680Y004330D01*
X037682Y004313D01*
X037686Y004296D01*
X037693Y004280D01*
X037703Y004266D01*
X037716Y004253D01*
X037730Y004243D01*
X037746Y004236D01*
X037763Y004232D01*
X037780Y004230D01*
X038580Y004230D01*
X038597Y004232D01*
X038614Y004236D01*
X038630Y004243D01*
X038644Y004253D01*
X038657Y004266D01*
X038667Y004280D01*
X038674Y004296D01*
X038678Y004313D01*
X038680Y004330D01*
X038680Y006030D01*
X038678Y006047D01*
X038674Y006064D01*
X038667Y006080D01*
X038657Y006094D01*
X038644Y006107D01*
X038630Y006117D01*
X038614Y006124D01*
X038597Y006128D01*
X038580Y006130D01*
X038180Y005330D02*
X038180Y005280D01*
X038180Y005080D02*
X038180Y005030D01*
D12*
X038180Y005080D02*
X037880Y005080D01*
X037880Y005280D02*
X038180Y005280D01*
X038480Y005280D01*
X038480Y005080D02*
X038180Y005080D01*
X038680Y010880D02*
X038624Y010882D01*
X038568Y010888D01*
X038513Y010898D01*
X038459Y010911D01*
X038405Y010929D01*
X038353Y010950D01*
X038303Y010974D01*
X038254Y011003D01*
X038208Y011034D01*
X038164Y011069D01*
X038122Y011106D01*
X038084Y011147D01*
X038048Y011190D01*
X038015Y011235D01*
X037985Y011283D01*
X038680Y012480D02*
X038734Y012478D01*
X038787Y012473D01*
X038841Y012464D01*
X038893Y012451D01*
X038944Y012435D01*
X038995Y012415D01*
X039044Y012393D01*
X039091Y012367D01*
X039136Y012337D01*
X039179Y012305D01*
X039220Y012270D01*
X039259Y012232D01*
X039295Y012192D01*
X038680Y012480D02*
X038626Y012478D01*
X038572Y012473D01*
X038519Y012464D01*
X038466Y012451D01*
X038415Y012435D01*
X038365Y012415D01*
X038316Y012392D01*
X038268Y012366D01*
X038223Y012337D01*
X038180Y012304D01*
X038139Y012269D01*
X038100Y012231D01*
X038064Y012191D01*
X038031Y012148D01*
X038001Y012103D01*
X037974Y012056D01*
X038680Y010880D02*
X038733Y010882D01*
X038787Y010887D01*
X038839Y010896D01*
X038891Y010908D01*
X038942Y010924D01*
X038992Y010943D01*
X039041Y010966D01*
X039088Y010992D01*
X039133Y011020D01*
X039176Y011052D01*
X039216Y011086D01*
X039255Y011124D01*
X039291Y011163D01*
X015780Y005480D02*
X015780Y005180D01*
X015780Y004880D01*
X015580Y004880D02*
X015580Y005180D01*
X015580Y005480D01*
X001480Y005280D02*
X001180Y005280D01*
X000880Y005280D01*
X000880Y005080D02*
X001180Y005080D01*
X001480Y005080D01*
X001480Y012580D02*
X001180Y012580D01*
X000880Y012580D01*
X000880Y012780D02*
X001180Y012780D01*
X001480Y012780D01*
D13*
X006005Y011805D02*
X006155Y011805D01*
X006080Y011805D02*
X006080Y011355D01*
X006005Y011355D02*
X006155Y011355D01*
X006312Y011430D02*
X006387Y011355D01*
X006537Y011355D01*
X006612Y011430D01*
X006772Y011355D02*
X007073Y011355D01*
X006922Y011355D02*
X006922Y011805D01*
X006772Y011655D01*
X006612Y011730D02*
X006537Y011805D01*
X006387Y011805D01*
X006312Y011730D01*
X006312Y011430D01*
X008945Y009155D02*
X009095Y009305D01*
X009095Y008855D01*
X008945Y008855D02*
X009245Y008855D01*
X002545Y006505D02*
X002395Y006430D01*
X002245Y006280D01*
X002470Y006280D01*
X002545Y006205D01*
X002545Y006130D01*
X002470Y006055D01*
X002320Y006055D01*
X002245Y006130D01*
X002245Y006280D01*
X002084Y006055D02*
X001784Y006055D01*
X001934Y006055D02*
X001934Y006505D01*
X001784Y006355D01*
X007555Y004305D02*
X007705Y004305D01*
X007630Y004305D02*
X007630Y003855D01*
X007555Y003855D02*
X007705Y003855D01*
X007862Y003930D02*
X007937Y003855D01*
X008087Y003855D01*
X008162Y003930D01*
X008322Y003855D02*
X008623Y004155D01*
X008623Y004230D01*
X008548Y004305D01*
X008397Y004305D01*
X008322Y004230D01*
X008162Y004230D02*
X008087Y004305D01*
X007937Y004305D01*
X007862Y004230D01*
X007862Y003930D01*
X008322Y003855D02*
X008623Y003855D01*
X010055Y003801D02*
X010130Y003726D01*
X010055Y003801D02*
X010055Y003951D01*
X010130Y004026D01*
X010205Y004026D01*
X010280Y003951D01*
X010355Y004026D01*
X010430Y004026D01*
X010505Y003951D01*
X010505Y003801D01*
X010430Y003726D01*
X010280Y003876D02*
X010280Y003951D01*
X010280Y003566D02*
X010130Y003566D01*
X010055Y003491D01*
X010055Y003265D01*
X010505Y003265D01*
X010355Y003265D02*
X010355Y003491D01*
X010280Y003566D01*
X010055Y003105D02*
X010055Y002955D01*
X010055Y003030D02*
X010430Y003030D01*
X010505Y002955D01*
X010505Y002880D01*
X010430Y002805D01*
X011865Y003318D02*
X012205Y003318D01*
X012205Y003205D02*
X012205Y003432D01*
X011978Y003205D02*
X011865Y003318D01*
X011921Y004205D02*
X011865Y004262D01*
X011865Y004375D01*
X011921Y004432D01*
X011978Y004432D01*
X012205Y004205D01*
X012205Y004432D01*
X012148Y005205D02*
X012205Y005262D01*
X012205Y005375D01*
X012148Y005432D01*
X012092Y005432D01*
X012035Y005375D01*
X012035Y005318D01*
X012035Y005375D02*
X011978Y005432D01*
X011921Y005432D01*
X011865Y005375D01*
X011865Y005262D01*
X011921Y005205D01*
D14*
X013105Y007680D03*
X015255Y007680D03*
X015255Y009180D03*
X013105Y009180D03*
X013105Y010680D03*
X015255Y010680D03*
X015255Y012180D03*
X013105Y012180D03*
D15*
X013690Y012200D02*
X013690Y012420D01*
X013800Y012420D01*
X013837Y012383D01*
X013837Y012310D01*
X013800Y012273D01*
X013690Y012273D01*
X013763Y012273D02*
X013837Y012200D01*
X013911Y012200D02*
X014058Y012200D01*
X013984Y012200D02*
X013984Y012420D01*
X013911Y012347D01*
X013948Y010920D02*
X013911Y010883D01*
X013948Y010920D02*
X014021Y010920D01*
X014058Y010883D01*
X014058Y010847D01*
X013911Y010700D01*
X014058Y010700D01*
X013837Y010700D02*
X013763Y010773D01*
X013800Y010773D02*
X013690Y010773D01*
X013690Y010700D02*
X013690Y010920D01*
X013800Y010920D01*
X013837Y010883D01*
X013837Y010810D01*
X013800Y010773D01*
X013800Y009420D02*
X013837Y009383D01*
X013837Y009310D01*
X013800Y009273D01*
X013690Y009273D01*
X013690Y009200D02*
X013690Y009420D01*
X013800Y009420D01*
X013911Y009383D02*
X013948Y009420D01*
X014021Y009420D01*
X014058Y009383D01*
X014058Y009347D01*
X014021Y009310D01*
X014058Y009273D01*
X014058Y009237D01*
X014021Y009200D01*
X013948Y009200D01*
X013911Y009237D01*
X013837Y009200D02*
X013763Y009273D01*
X013984Y009310D02*
X014021Y009310D01*
X014021Y007920D02*
X013911Y007810D01*
X014058Y007810D01*
X014021Y007700D02*
X014021Y007920D01*
X013837Y007883D02*
X013837Y007810D01*
X013800Y007773D01*
X013690Y007773D01*
X013690Y007700D02*
X013690Y007920D01*
X013800Y007920D01*
X013837Y007883D01*
X013763Y007773D02*
X013837Y007700D01*
X038440Y007690D02*
X038440Y007800D01*
X038477Y007837D01*
X038550Y007837D01*
X038587Y007800D01*
X038587Y007690D01*
X038660Y007690D02*
X038440Y007690D01*
X038587Y007763D02*
X038660Y007837D01*
X038623Y007911D02*
X038660Y007948D01*
X038660Y008021D01*
X038623Y008058D01*
X038550Y008058D01*
X038513Y008021D01*
X038513Y007984D01*
X038550Y007911D01*
X038440Y007911D01*
X038440Y008058D01*
D16*
X038680Y007105D03*
X038680Y009255D03*
D17*
X035080Y007793D02*
X035080Y006518D01*
X035080Y006468D02*
X027580Y006468D01*
X030180Y007793D01*
X035080Y007793D01*
X033180Y007793D02*
X033180Y006493D01*
X032680Y006493D02*
X032680Y007793D01*
X032180Y007793D02*
X032180Y006493D01*
X031680Y006493D02*
X031680Y007793D01*
X031180Y007793D02*
X031180Y006493D01*
X030680Y006493D02*
X030680Y007793D01*
X030180Y007793D02*
X030180Y006493D01*
X029680Y006493D02*
X029680Y007518D01*
X029180Y007293D02*
X029180Y006493D01*
X028680Y006493D02*
X028680Y007018D01*
X028180Y006768D02*
X028180Y006493D01*
X027580Y006468D02*
X027580Y006018D01*
X026780Y006018D01*
X026780Y006468D01*
X024180Y007793D01*
X019280Y007793D01*
X019280Y006493D01*
X019280Y006468D02*
X019280Y005493D01*
X020305Y004943D01*
X020305Y003493D01*
X018255Y003493D01*
X018255Y004143D01*
X018255Y004943D01*
X019280Y005493D01*
X020305Y004943D02*
X034055Y004943D01*
X035080Y005493D01*
X035080Y006468D01*
X035080Y005493D02*
X036105Y004943D01*
X036105Y004143D01*
X036105Y003518D01*
X034055Y003518D01*
X034055Y004943D01*
X036105Y004143D02*
X036305Y004143D01*
X036305Y013843D01*
X034305Y013843D01*
X034305Y009993D01*
X033730Y009418D01*
X020630Y009418D01*
X020055Y009993D01*
X020055Y013843D01*
X018055Y013843D01*
X018055Y004143D01*
X018255Y004143D01*
X019280Y006468D02*
X026780Y006468D01*
X026180Y006493D02*
X026180Y006743D01*
X025680Y006493D02*
X025680Y006993D01*
X025180Y007243D02*
X025180Y006493D01*
X024680Y006493D02*
X024680Y007518D01*
X024180Y007768D02*
X024180Y006493D01*
X023680Y006493D02*
X023680Y007793D01*
X023180Y007793D02*
X023180Y006493D01*
X022680Y006493D02*
X022680Y007793D01*
X022180Y007793D02*
X022180Y006493D01*
X021680Y006493D02*
X021680Y007793D01*
X021180Y007768D02*
X021180Y006493D01*
M02*
