G75*
%MOIN*%
%OFA0B0*%
%FSLAX24Y24*%
%IPPOS*%
%LPD*%
%AMOC8*
5,1,8,0,0,1.08239X$1,22.5*
%
%ADD10C,0.0680*%
%ADD11OC8,0.0600*%
%ADD12C,0.0600*%
%ADD13OC8,0.0680*%
%ADD14C,0.0640*%
%ADD15R,0.0237X0.1458*%
%ADD16R,0.1122X0.1988*%
%ADD17C,0.0749*%
%ADD18C,0.0946*%
D10*
X000680Y000880D02*
X000680Y001480D01*
X001680Y001480D02*
X001680Y000880D01*
X002680Y000880D02*
X002680Y001480D01*
X003680Y001480D02*
X003680Y000880D01*
X004680Y000880D02*
X004680Y001480D01*
X005680Y001480D02*
X005680Y000880D01*
X006680Y000880D02*
X006680Y001480D01*
X007680Y001480D02*
X007680Y000880D01*
X008680Y000880D02*
X008680Y001480D01*
X009680Y001480D02*
X009680Y000880D01*
X010680Y000880D02*
X010680Y001480D01*
X011680Y001480D02*
X011680Y000880D01*
X012680Y000880D02*
X012680Y001480D01*
X013680Y001480D02*
X013680Y000880D01*
X014680Y000880D02*
X014680Y001480D01*
X015680Y001480D02*
X015680Y000880D01*
X016680Y000880D02*
X016680Y001480D01*
X017680Y001480D02*
X017680Y000880D01*
X018680Y000880D02*
X018680Y001480D01*
X019680Y001480D02*
X019680Y000880D01*
X020680Y000880D02*
X020680Y001480D01*
X021680Y001480D02*
X021680Y000880D01*
X022680Y000880D02*
X022680Y001480D01*
X023680Y001480D02*
X023680Y000880D01*
X024680Y000880D02*
X024680Y001480D01*
X025680Y001480D02*
X025680Y000880D01*
X026680Y000880D02*
X026680Y001480D01*
X027680Y001480D02*
X027680Y000880D01*
X028680Y000880D02*
X028680Y001480D01*
X029680Y001480D02*
X029680Y000880D01*
X030680Y000880D02*
X030680Y001480D01*
X031680Y001480D02*
X031680Y000880D01*
X032680Y000880D02*
X032680Y001480D01*
X033680Y001480D02*
X033680Y000880D01*
X034680Y000880D02*
X034680Y001480D01*
X035680Y001480D02*
X035680Y000880D01*
X036680Y000880D02*
X036680Y001480D01*
X037680Y001480D02*
X037680Y000880D01*
X038680Y000880D02*
X038680Y001480D01*
X039680Y001480D02*
X039680Y000880D01*
D11*
X038180Y004680D03*
X038180Y005680D03*
X038680Y006680D03*
X038680Y009680D03*
X038180Y011680D03*
X039180Y011680D03*
X016180Y005180D03*
X015180Y005180D03*
X015680Y007680D03*
X012680Y007680D03*
X012680Y009180D03*
X015680Y009180D03*
X015680Y010680D03*
X012680Y010680D03*
X012680Y012180D03*
X015680Y012180D03*
X001180Y012180D03*
X001180Y013180D03*
X001180Y005680D03*
X001180Y004680D03*
D12*
X002180Y005420D02*
X002180Y005940D01*
X003180Y005940D02*
X003180Y005420D01*
X004180Y005420D02*
X004180Y005940D01*
X005180Y005940D02*
X005180Y005420D01*
X006180Y005420D02*
X006180Y005940D01*
X007180Y005940D02*
X007180Y005420D01*
X008180Y005420D02*
X008180Y005940D01*
X009180Y005940D02*
X009180Y005420D01*
X009180Y002940D02*
X009180Y002420D01*
X008180Y002420D02*
X008180Y002940D01*
X007180Y002940D02*
X007180Y002420D01*
X006180Y002420D02*
X006180Y002940D01*
X005180Y002940D02*
X005180Y002420D01*
X004180Y002420D02*
X004180Y002940D01*
X003180Y002940D02*
X003180Y002420D01*
X002180Y002420D02*
X002180Y002940D01*
X002180Y009920D02*
X002180Y010440D01*
X003180Y010440D02*
X003180Y009920D01*
X004180Y009920D02*
X004180Y010440D01*
X005180Y010440D02*
X005180Y009920D01*
X006180Y009920D02*
X006180Y010440D01*
X007180Y010440D02*
X007180Y009920D01*
X008180Y009920D02*
X008180Y010440D01*
X008180Y012920D02*
X008180Y013440D01*
X007180Y013440D02*
X007180Y012920D01*
X006180Y012920D02*
X006180Y013440D01*
X005180Y013440D02*
X005180Y012920D01*
X004180Y012920D02*
X004180Y013440D01*
X003180Y013440D02*
X003180Y012920D01*
X002180Y012920D02*
X002180Y013440D01*
D13*
X002180Y008180D03*
X003180Y008180D03*
X004180Y008180D03*
X005180Y008180D03*
X006180Y008180D03*
X007180Y008180D03*
X008180Y008180D03*
X009180Y008180D03*
X009180Y007180D03*
X008180Y007180D03*
X007180Y007180D03*
X006180Y007180D03*
X005180Y007180D03*
X004180Y007180D03*
X003180Y007180D03*
X002180Y007180D03*
D14*
X010900Y005180D02*
X011460Y005180D01*
X011460Y004180D02*
X010900Y004180D01*
X010900Y003180D02*
X011460Y003180D01*
X011460Y010680D02*
X010900Y010680D01*
X009960Y010680D02*
X009400Y010680D01*
X009400Y011680D02*
X009960Y011680D01*
X010900Y011680D02*
X011460Y011680D01*
D15*
X021055Y003574D03*
X021305Y003574D03*
X021555Y003574D03*
X021805Y003574D03*
X022055Y003574D03*
X022305Y003574D03*
X022555Y003574D03*
X022805Y003574D03*
X023055Y003574D03*
X023305Y003574D03*
X023555Y003574D03*
X023805Y003574D03*
X024055Y003574D03*
X024305Y003574D03*
X024555Y003574D03*
X024805Y003574D03*
X025055Y003574D03*
X025305Y003574D03*
X025555Y003574D03*
X025805Y003574D03*
X026055Y003574D03*
X026305Y003574D03*
X026555Y003574D03*
X026805Y003574D03*
X027055Y003574D03*
X027305Y003574D03*
X027555Y003574D03*
X027805Y003574D03*
X028055Y003574D03*
X028305Y003574D03*
X028555Y003574D03*
X028805Y003574D03*
X029055Y003574D03*
X029305Y003574D03*
X029555Y003574D03*
X029805Y003574D03*
X030055Y003574D03*
X030305Y003574D03*
X030555Y003574D03*
X030805Y003574D03*
X031055Y003574D03*
X031305Y003574D03*
X031555Y003574D03*
X031805Y003574D03*
X032055Y003574D03*
X032305Y003574D03*
X032555Y003574D03*
X032805Y003574D03*
X033055Y003574D03*
X033305Y003574D03*
D16*
X036865Y007643D03*
X017495Y007652D03*
D17*
X019274Y005861D03*
X035086Y005861D03*
D18*
X035086Y004680D03*
X019274Y004680D03*
M02*
