%
M48
M72
T01C0.0240
T02C0.0320
T03C0.0400
%
T01
X8242Y4725
X6742Y5475
X5992Y5100
X12367Y8850
X19242Y5100
X17867Y4975
X14992Y4600
X16867Y2475
X16867Y1850
X30367Y4225
X31117Y4975
X32242Y2600
X31492Y2225
X37617Y2350
X24367Y8600
X21367Y8725
X31242Y9225
X32742Y8850
X38867Y9975
X34492Y15975
X23992Y17725
X2117Y14100
T02
X1367Y13600
X1367Y12600
X2367Y12600
X3367Y12600
X4367Y12600
X5367Y12600
X6367Y12600
X7367Y12600
X8367Y12600
X9367Y12600
X10367Y12600
X11367Y12600
X12867Y12600
X13867Y12600
X14867Y12600
X15867Y12600
X16867Y12600
X17867Y12600
X18867Y12600
X19867Y12600
X20867Y12600
X21867Y12600
X22867Y12600
X23867Y12600
X24867Y12600
X25867Y12600
X26867Y12600
X27867Y12600
X28867Y12600
X29867Y12600
X30867Y12600
X31867Y12600
X32867Y12600
X33867Y12600
X34367Y11100
X33367Y11100
X32367Y11100
X31367Y11100
X30367Y11100
X29367Y11100
X28367Y11100
X27367Y11100
X26367Y11100
X25367Y11100
X24367Y11100
X22867Y11100
X21867Y11100
X20867Y11100
X19867Y11100
X18867Y11100
X17867Y11100
X16867Y11100
X15867Y11100
X14867Y11100
X13867Y11100
X12867Y11100
X11367Y11100
X10367Y11100
X9367Y11100
X8367Y11100
X7367Y11100
X6367Y11100
X5367Y11100
X4367Y11100
X3367Y11100
X2367Y11100
X1367Y11100
X1367Y10100
X2367Y8100
X3367Y8100
X4367Y8100
X5367Y8100
X6367Y8100
X7367Y8100
X8367Y8100
X9367Y8100
X10367Y8100
X11367Y8100
X13867Y8100
X14867Y8100
X15867Y8100
X16867Y8100
X17867Y8100
X18867Y8100
X19867Y8100
X20867Y8100
X21867Y8100
X22867Y8100
X25367Y8100
X26367Y8100
X27367Y8100
X28367Y8100
X29367Y8100
X30367Y8100
X31367Y8100
X32367Y8100
X33367Y8100
X34367Y8100
X36867Y8100
X36867Y9100
X38867Y10600
X39867Y10600
X39867Y9100
X39867Y8100
X39867Y7100
X39867Y6100
X39867Y5100
X39867Y4100
X39867Y3100
X36867Y3100
X34867Y3600
X33867Y3600
X32867Y3600
X31867Y3600
X30867Y3600
X29867Y3600
X28867Y3600
X27867Y3600
X26867Y3600
X25867Y3600
X23367Y3600
X22367Y3600
X21367Y3600
X20367Y3600
X19367Y3600
X18367Y3600
X17367Y3600
X16367Y3600
X15367Y3600
X14367Y3600
X11367Y3600
X10367Y3600
X9367Y3600
X8367Y3600
X7367Y3600
X6367Y3600
X5367Y3600
X4367Y3600
X3367Y3600
X2367Y3600
X1367Y5600
X1367Y6600
X2367Y6600
X3367Y6600
X4367Y6600
X5367Y6600
X6367Y6600
X7367Y6600
X8367Y6600
X9367Y6600
X10367Y6600
X11367Y6600
X12867Y6600
X14367Y6600
X15367Y6600
X16367Y6600
X17367Y6600
X18367Y6600
X19367Y6600
X20367Y6600
X21367Y6600
X22367Y6600
X23367Y6600
X24867Y6600
X25867Y6600
X26867Y6600
X27867Y6600
X28867Y6600
X29867Y6600
X30867Y6600
X31867Y6600
X32867Y6600
X33867Y6600
X34867Y6600
X36867Y6100
X36867Y5100
X36867Y4100
X36867Y7100
X24867Y5600
X24367Y10100
X23867Y13600
X22867Y13600
X22867Y14600
X23867Y14600
X23867Y15600
X24867Y15600
X25867Y15600
X26867Y15600
X27867Y15600
X28867Y15600
X29867Y15600
X30867Y15600
X31867Y15600
X32867Y15600
X33867Y15600
X33867Y17100
X32867Y17100
X31867Y17100
X30867Y17100
X29867Y17100
X28867Y17100
X27867Y17100
X26867Y17100
X22867Y15600
X21867Y15600
X20867Y15600
X19867Y15600
X18867Y15600
X17867Y15600
X16867Y15600
X15867Y15600
X14867Y15600
X13867Y15600
X12867Y15600
X11367Y15600
X10367Y15600
X9367Y15600
X8367Y15600
X7367Y15600
X6367Y15600
X5367Y15600
X4367Y15600
X3367Y15600
X2367Y15600
X1367Y15600
X1367Y14600
X3367Y17100
X4367Y17100
X5367Y17100
X6367Y17100
X7367Y17100
X8367Y17100
X9367Y17100
X10367Y17100
X11367Y17100
X12867Y17100
X13867Y17100
X14867Y17100
X15867Y17100
X16867Y17100
X17867Y17100
X18867Y17100
X19867Y17100
X20867Y17100
X34867Y17100
X12867Y10100
X12867Y5600
T03
X1367Y1100
X2367Y1100
X3367Y1100
X4367Y1100
X5367Y1100
X6367Y1100
X7367Y1100
X8367Y1100
X9367Y1100
X10367Y1100
X11367Y1100
X12367Y1100
X13367Y1100
X14367Y1100
X15367Y1100
X16367Y1100
X17367Y1100
X18367Y1100
X19367Y1100
X20367Y1100
X21367Y1100
X22367Y1100
X23367Y1100
X24367Y1100
X25367Y1100
X26367Y1100
X27367Y1100
X28367Y1100
X29367Y1100
X30367Y1100
X31367Y1100
X32367Y1100
X33367Y1100
X34367Y1100
X35367Y1100
X36367Y1100
X37367Y1100
X38367Y1100
X39367Y1100
X40367Y1100
X40867Y12600
X39867Y12600
X38867Y12600
X37867Y12600
X36867Y12600
X35867Y12600
X35867Y14600
X36867Y14600
X37867Y14600
X38867Y14600
X39867Y14600
X40867Y14600
X40867Y15600
X39867Y15600
X38867Y15600
X37867Y15600
X36867Y15600
X35867Y15600
M30
