G75*
%MOIN*%
%OFA0B0*%
%FSLAX24Y24*%
%IPPOS*%
%LPD*%
%AMOC8*
5,1,8,0,0,1.08239X$1,22.5*
%
%ADD10C,0.0520*%
%ADD11C,0.0600*%
%ADD12OC8,0.0600*%
%ADD13OC8,0.0520*%
%ADD14C,0.0160*%
%ADD15C,0.0100*%
%ADD16C,0.0400*%
D10*
X002367Y003340D02*
X002367Y003860D01*
X003367Y003860D02*
X003367Y003340D01*
X004367Y003340D02*
X004367Y003860D01*
X005367Y003860D02*
X005367Y003340D01*
X006367Y003340D02*
X006367Y003860D01*
X007367Y003860D02*
X007367Y003340D01*
X008367Y003340D02*
X008367Y003860D01*
X009367Y003860D02*
X009367Y003340D01*
X010367Y003340D02*
X010367Y003860D01*
X011367Y003860D02*
X011367Y003340D01*
X014367Y003340D02*
X014367Y003860D01*
X015367Y003860D02*
X015367Y003340D01*
X016367Y003340D02*
X016367Y003860D01*
X017367Y003860D02*
X017367Y003340D01*
X018367Y003340D02*
X018367Y003860D01*
X019367Y003860D02*
X019367Y003340D01*
X020367Y003340D02*
X020367Y003860D01*
X021367Y003860D02*
X021367Y003340D01*
X022367Y003340D02*
X022367Y003860D01*
X023367Y003860D02*
X023367Y003340D01*
X025867Y003340D02*
X025867Y003860D01*
X026867Y003860D02*
X026867Y003340D01*
X027867Y003340D02*
X027867Y003860D01*
X028867Y003860D02*
X028867Y003340D01*
X029867Y003340D02*
X029867Y003860D01*
X030867Y003860D02*
X030867Y003340D01*
X031867Y003340D02*
X031867Y003860D01*
X032867Y003860D02*
X032867Y003340D01*
X033867Y003340D02*
X033867Y003860D01*
X034867Y003860D02*
X034867Y003340D01*
X036607Y003100D02*
X037127Y003100D01*
X037127Y004100D02*
X036607Y004100D01*
X036607Y005100D02*
X037127Y005100D01*
X037127Y006100D02*
X036607Y006100D01*
X034867Y006340D02*
X034867Y006860D01*
X033867Y006860D02*
X033867Y006340D01*
X032867Y006340D02*
X032867Y006860D01*
X031867Y006860D02*
X031867Y006340D01*
X030867Y006340D02*
X030867Y006860D01*
X029867Y006860D02*
X029867Y006340D01*
X028867Y006340D02*
X028867Y006860D01*
X027867Y006860D02*
X027867Y006340D01*
X026867Y006340D02*
X026867Y006860D01*
X025867Y006860D02*
X025867Y006340D01*
X023367Y006340D02*
X023367Y006860D01*
X022367Y006860D02*
X022367Y006340D01*
X021367Y006340D02*
X021367Y006860D01*
X020367Y006860D02*
X020367Y006340D01*
X019367Y006340D02*
X019367Y006860D01*
X018367Y006860D02*
X018367Y006340D01*
X017367Y006340D02*
X017367Y006860D01*
X016367Y006860D02*
X016367Y006340D01*
X015367Y006340D02*
X015367Y006860D01*
X014367Y006860D02*
X014367Y006340D01*
X011367Y006340D02*
X011367Y006860D01*
X010367Y006860D02*
X010367Y006340D01*
X009367Y006340D02*
X009367Y006860D01*
X008367Y006860D02*
X008367Y006340D01*
X007367Y006340D02*
X007367Y006860D01*
X006367Y006860D02*
X006367Y006340D01*
X005367Y006340D02*
X005367Y006860D01*
X004367Y006860D02*
X004367Y006340D01*
X003367Y006340D02*
X003367Y006860D01*
X002367Y006860D02*
X002367Y006340D01*
X002367Y007840D02*
X002367Y008360D01*
X003367Y008360D02*
X003367Y007840D01*
X004367Y007840D02*
X004367Y008360D01*
X005367Y008360D02*
X005367Y007840D01*
X006367Y007840D02*
X006367Y008360D01*
X007367Y008360D02*
X007367Y007840D01*
X008367Y007840D02*
X008367Y008360D01*
X009367Y008360D02*
X009367Y007840D01*
X010367Y007840D02*
X010367Y008360D01*
X011367Y008360D02*
X011367Y007840D01*
X013867Y007840D02*
X013867Y008360D01*
X014867Y008360D02*
X014867Y007840D01*
X015867Y007840D02*
X015867Y008360D01*
X016867Y008360D02*
X016867Y007840D01*
X017867Y007840D02*
X017867Y008360D01*
X018867Y008360D02*
X018867Y007840D01*
X019867Y007840D02*
X019867Y008360D01*
X020867Y008360D02*
X020867Y007840D01*
X021867Y007840D02*
X021867Y008360D01*
X022867Y008360D02*
X022867Y007840D01*
X025367Y007840D02*
X025367Y008360D01*
X026367Y008360D02*
X026367Y007840D01*
X027367Y007840D02*
X027367Y008360D01*
X028367Y008360D02*
X028367Y007840D01*
X029367Y007840D02*
X029367Y008360D01*
X030367Y008360D02*
X030367Y007840D01*
X031367Y007840D02*
X031367Y008360D01*
X032367Y008360D02*
X032367Y007840D01*
X033367Y007840D02*
X033367Y008360D01*
X034367Y008360D02*
X034367Y007840D01*
X036607Y008100D02*
X037127Y008100D01*
X037127Y009100D02*
X036607Y009100D01*
X039607Y009100D02*
X040127Y009100D01*
X040127Y008100D02*
X039607Y008100D01*
X039607Y007100D02*
X040127Y007100D01*
X040127Y006100D02*
X039607Y006100D01*
X039607Y005100D02*
X040127Y005100D01*
X040127Y004100D02*
X039607Y004100D01*
X039607Y003100D02*
X040127Y003100D01*
X037127Y007100D02*
X036607Y007100D01*
X034367Y010840D02*
X034367Y011360D01*
X033367Y011360D02*
X033367Y010840D01*
X032367Y010840D02*
X032367Y011360D01*
X031367Y011360D02*
X031367Y010840D01*
X030367Y010840D02*
X030367Y011360D01*
X029367Y011360D02*
X029367Y010840D01*
X028367Y010840D02*
X028367Y011360D01*
X027367Y011360D02*
X027367Y010840D01*
X026367Y010840D02*
X026367Y011360D01*
X025367Y011360D02*
X025367Y010840D01*
X022867Y010840D02*
X022867Y011360D01*
X021867Y011360D02*
X021867Y010840D01*
X020867Y010840D02*
X020867Y011360D01*
X019867Y011360D02*
X019867Y010840D01*
X018867Y010840D02*
X018867Y011360D01*
X017867Y011360D02*
X017867Y010840D01*
X016867Y010840D02*
X016867Y011360D01*
X015867Y011360D02*
X015867Y010840D01*
X014867Y010840D02*
X014867Y011360D01*
X013867Y011360D02*
X013867Y010840D01*
X011367Y010840D02*
X011367Y011360D01*
X010367Y011360D02*
X010367Y010840D01*
X009367Y010840D02*
X009367Y011360D01*
X008367Y011360D02*
X008367Y010840D01*
X007367Y010840D02*
X007367Y011360D01*
X006367Y011360D02*
X006367Y010840D01*
X005367Y010840D02*
X005367Y011360D01*
X004367Y011360D02*
X004367Y010840D01*
X003367Y010840D02*
X003367Y011360D01*
X002367Y011360D02*
X002367Y010840D01*
X002367Y012340D02*
X002367Y012860D01*
X003367Y012860D02*
X003367Y012340D01*
X004367Y012340D02*
X004367Y012860D01*
X005367Y012860D02*
X005367Y012340D01*
X006367Y012340D02*
X006367Y012860D01*
X007367Y012860D02*
X007367Y012340D01*
X008367Y012340D02*
X008367Y012860D01*
X009367Y012860D02*
X009367Y012340D01*
X010367Y012340D02*
X010367Y012860D01*
X011367Y012860D02*
X011367Y012340D01*
X012867Y012340D02*
X012867Y012860D01*
X013867Y012860D02*
X013867Y012340D01*
X014867Y012340D02*
X014867Y012860D01*
X015867Y012860D02*
X015867Y012340D01*
X016867Y012340D02*
X016867Y012860D01*
X017867Y012860D02*
X017867Y012340D01*
X018867Y012340D02*
X018867Y012860D01*
X019867Y012860D02*
X019867Y012340D01*
X020867Y012340D02*
X020867Y012860D01*
X021867Y012860D02*
X021867Y012340D01*
X024867Y012340D02*
X024867Y012860D01*
X025867Y012860D02*
X025867Y012340D01*
X026867Y012340D02*
X026867Y012860D01*
X027867Y012860D02*
X027867Y012340D01*
X028867Y012340D02*
X028867Y012860D01*
X029867Y012860D02*
X029867Y012340D01*
X030867Y012340D02*
X030867Y012860D01*
X031867Y012860D02*
X031867Y012340D01*
X032867Y012340D02*
X032867Y012860D01*
X033867Y012860D02*
X033867Y012340D01*
X033867Y015340D02*
X033867Y015860D01*
X032867Y015860D02*
X032867Y015340D01*
X031867Y015340D02*
X031867Y015860D01*
X030867Y015860D02*
X030867Y015340D01*
X029867Y015340D02*
X029867Y015860D01*
X028867Y015860D02*
X028867Y015340D01*
X027867Y015340D02*
X027867Y015860D01*
X026867Y015860D02*
X026867Y015340D01*
X025867Y015340D02*
X025867Y015860D01*
X024867Y015860D02*
X024867Y015340D01*
X021867Y015340D02*
X021867Y015860D01*
X020867Y015860D02*
X020867Y015340D01*
X019867Y015340D02*
X019867Y015860D01*
X018867Y015860D02*
X018867Y015340D01*
X017867Y015340D02*
X017867Y015860D01*
X016867Y015860D02*
X016867Y015340D01*
X015867Y015340D02*
X015867Y015860D01*
X014867Y015860D02*
X014867Y015340D01*
X013867Y015340D02*
X013867Y015860D01*
X012867Y015860D02*
X012867Y015340D01*
X011367Y015340D02*
X011367Y015860D01*
X010367Y015860D02*
X010367Y015340D01*
X009367Y015340D02*
X009367Y015860D01*
X008367Y015860D02*
X008367Y015340D01*
X007367Y015340D02*
X007367Y015860D01*
X006367Y015860D02*
X006367Y015340D01*
X005367Y015340D02*
X005367Y015860D01*
X004367Y015860D02*
X004367Y015340D01*
X003367Y015340D02*
X003367Y015860D01*
X002367Y015860D02*
X002367Y015340D01*
X003367Y016840D02*
X003367Y017360D01*
X004367Y017360D02*
X004367Y016840D01*
X005367Y016840D02*
X005367Y017360D01*
X006367Y017360D02*
X006367Y016840D01*
X007367Y016840D02*
X007367Y017360D01*
X008367Y017360D02*
X008367Y016840D01*
X009367Y016840D02*
X009367Y017360D01*
X010367Y017360D02*
X010367Y016840D01*
X011367Y016840D02*
X011367Y017360D01*
X012867Y017360D02*
X012867Y016840D01*
X013867Y016840D02*
X013867Y017360D01*
X014867Y017360D02*
X014867Y016840D01*
X015867Y016840D02*
X015867Y017360D01*
X016867Y017360D02*
X016867Y016840D01*
X017867Y016840D02*
X017867Y017360D01*
X018867Y017360D02*
X018867Y016840D01*
X019867Y016840D02*
X019867Y017360D01*
X020867Y017360D02*
X020867Y016840D01*
X026867Y016840D02*
X026867Y017360D01*
X027867Y017360D02*
X027867Y016840D01*
X028867Y016840D02*
X028867Y017360D01*
X029867Y017360D02*
X029867Y016840D01*
X030867Y016840D02*
X030867Y017360D01*
X031867Y017360D02*
X031867Y016840D01*
X032867Y016840D02*
X032867Y017360D01*
X033867Y017360D02*
X033867Y016840D01*
X034867Y016840D02*
X034867Y017360D01*
D11*
X001367Y001400D02*
X001367Y000800D01*
X002367Y000800D02*
X002367Y001400D01*
X003367Y001400D02*
X003367Y000800D01*
X004367Y000800D02*
X004367Y001400D01*
X005367Y001400D02*
X005367Y000800D01*
X006367Y000800D02*
X006367Y001400D01*
X007367Y001400D02*
X007367Y000800D01*
X008367Y000800D02*
X008367Y001400D01*
X009367Y001400D02*
X009367Y000800D01*
X010367Y000800D02*
X010367Y001400D01*
X011367Y001400D02*
X011367Y000800D01*
X012367Y000800D02*
X012367Y001400D01*
X013367Y001400D02*
X013367Y000800D01*
X014367Y000800D02*
X014367Y001400D01*
X015367Y001400D02*
X015367Y000800D01*
X016367Y000800D02*
X016367Y001400D01*
X017367Y001400D02*
X017367Y000800D01*
X018367Y000800D02*
X018367Y001400D01*
X019367Y001400D02*
X019367Y000800D01*
X020367Y000800D02*
X020367Y001400D01*
X021367Y001400D02*
X021367Y000800D01*
X022367Y000800D02*
X022367Y001400D01*
X023367Y001400D02*
X023367Y000800D01*
X024367Y000800D02*
X024367Y001400D01*
X025367Y001400D02*
X025367Y000800D01*
X026367Y000800D02*
X026367Y001400D01*
X027367Y001400D02*
X027367Y000800D01*
X028367Y000800D02*
X028367Y001400D01*
X029367Y001400D02*
X029367Y000800D01*
X030367Y000800D02*
X030367Y001400D01*
X031367Y001400D02*
X031367Y000800D01*
X032367Y000800D02*
X032367Y001400D01*
X033367Y001400D02*
X033367Y000800D01*
X034367Y000800D02*
X034367Y001400D01*
X035367Y001400D02*
X035367Y000800D01*
X036367Y000800D02*
X036367Y001400D01*
X037367Y001400D02*
X037367Y000800D01*
X038367Y000800D02*
X038367Y001400D01*
X039367Y001400D02*
X039367Y000800D01*
X040367Y000800D02*
X040367Y001400D01*
X040867Y012300D02*
X040867Y012900D01*
X039867Y012900D02*
X039867Y012300D01*
X038867Y012300D02*
X038867Y012900D01*
X037867Y012900D02*
X037867Y012300D01*
X036867Y012300D02*
X036867Y012900D01*
X035867Y012900D02*
X035867Y012300D01*
D12*
X035867Y014600D03*
X036867Y014600D03*
X037867Y014600D03*
X038867Y014600D03*
X039867Y014600D03*
X040867Y014600D03*
X040867Y015600D03*
X039867Y015600D03*
X038867Y015600D03*
X037867Y015600D03*
X036867Y015600D03*
X035867Y015600D03*
D13*
X038867Y010600D03*
X039867Y010600D03*
X024867Y006600D03*
X024867Y005600D03*
X024367Y010100D03*
X024367Y011100D03*
X023867Y012600D03*
X022867Y012600D03*
X022867Y013600D03*
X023867Y013600D03*
X023867Y014600D03*
X022867Y014600D03*
X022867Y015600D03*
X023867Y015600D03*
X012867Y011100D03*
X012867Y010100D03*
X012867Y006600D03*
X012867Y005600D03*
X001367Y005600D03*
X001367Y006600D03*
X001367Y010100D03*
X001367Y011100D03*
X001367Y012600D03*
X001367Y013600D03*
X001367Y014600D03*
X001367Y015600D03*
D14*
X001867Y015100D01*
X001867Y014475D01*
X001367Y013975D01*
X001367Y013600D01*
X001867Y013100D01*
X001867Y011600D01*
X001867Y007100D01*
X002367Y006600D01*
X011367Y008100D02*
X011867Y007600D01*
X011867Y004100D01*
X011367Y003600D01*
X012867Y005600D02*
X013867Y006600D01*
X013867Y008100D01*
X013867Y010100D01*
X014867Y011100D01*
X013367Y011600D02*
X013367Y013100D01*
X013867Y013600D01*
X002867Y013600D01*
X002867Y016600D01*
X003367Y017100D01*
X002867Y013600D02*
X002867Y011600D01*
X003367Y011100D01*
X001867Y011600D02*
X001367Y011100D01*
X012867Y011100D02*
X013367Y011600D01*
X012867Y011100D02*
X013867Y010100D01*
X012867Y010100D02*
X012867Y006600D01*
X017867Y004975D02*
X017867Y001600D01*
X018367Y001100D01*
X023367Y003600D02*
X023867Y004100D01*
X023867Y009600D01*
X023867Y011350D01*
X023367Y011850D01*
X023367Y013725D01*
X022992Y014100D01*
X022367Y014100D01*
X021367Y015100D01*
X021367Y014850D01*
X015117Y014850D01*
X013867Y013600D01*
X021367Y015100D02*
X021367Y016600D01*
X020867Y017100D01*
X022867Y014600D02*
X023867Y013600D01*
X026367Y013850D02*
X026367Y011100D01*
X024867Y010600D02*
X024367Y011100D01*
X024867Y010600D02*
X024867Y006600D01*
X025367Y006100D02*
X025367Y008100D01*
X023867Y009600D02*
X024367Y010100D01*
X026367Y013850D02*
X034992Y013850D01*
X034992Y016975D01*
X034867Y017100D01*
X040367Y015100D02*
X040367Y011100D01*
X039867Y010600D01*
X034992Y008725D02*
X034367Y008100D01*
X034367Y004100D01*
X034867Y003600D01*
X025367Y006100D02*
X024867Y005600D01*
X034992Y008725D02*
X034992Y013850D01*
X040367Y015100D02*
X040867Y015600D01*
D15*
X039867Y015600D02*
X039367Y015100D01*
X039367Y010475D01*
X038867Y009975D01*
X037617Y010850D02*
X036367Y012100D01*
X036367Y015100D01*
X035867Y015600D01*
X035617Y016100D02*
X035367Y015850D01*
X035367Y005600D01*
X036867Y004100D01*
X033867Y003600D02*
X033367Y004100D01*
X033367Y007100D01*
X032367Y008100D01*
X031617Y008350D02*
X031617Y010475D01*
X031867Y010725D01*
X031867Y012600D01*
X030867Y012600D02*
X030867Y009600D01*
X031242Y009225D01*
X032742Y008850D02*
X032867Y008975D01*
X032867Y012600D01*
X033867Y012600D02*
X033867Y013600D01*
X028992Y013600D01*
X028367Y012975D01*
X028367Y012225D01*
X027867Y011725D01*
X027867Y010725D01*
X027617Y010475D01*
X027617Y008350D01*
X027367Y008100D01*
X026367Y008100D02*
X026367Y004100D01*
X026867Y003600D01*
X029367Y004100D02*
X029367Y007100D01*
X028367Y008100D01*
X027867Y007600D02*
X027867Y010350D01*
X028367Y010850D01*
X028367Y011100D01*
X027367Y011100D02*
X026867Y011600D01*
X026867Y012600D01*
X025867Y012600D02*
X025367Y013100D01*
X025367Y015975D01*
X024992Y016350D01*
X023867Y016350D01*
X023867Y015600D01*
X024367Y015100D02*
X024867Y015600D01*
X024367Y015100D02*
X023367Y015100D01*
X023367Y016225D01*
X024992Y017850D01*
X034367Y017850D01*
X034367Y016100D01*
X034492Y015975D01*
X033867Y015600D02*
X033867Y017100D01*
X032867Y017100D02*
X032867Y015600D01*
X031867Y015600D02*
X031867Y017100D01*
X030867Y017100D02*
X030867Y015600D01*
X029867Y015600D02*
X029867Y017100D01*
X028867Y017100D02*
X028867Y015600D01*
X027867Y015600D02*
X027867Y017100D01*
X026867Y017100D02*
X026867Y015600D01*
X024367Y014100D02*
X023867Y014600D01*
X024367Y014100D02*
X024367Y013100D01*
X024867Y012600D01*
X023367Y011475D02*
X022992Y011850D01*
X022367Y011850D01*
X022367Y010725D01*
X020867Y009225D01*
X020867Y008100D01*
X021367Y007725D02*
X021367Y008725D01*
X019867Y008100D02*
X019367Y008600D01*
X019367Y012975D01*
X018992Y013350D01*
X017867Y013350D01*
X017867Y012600D01*
X018367Y012100D02*
X018867Y012600D01*
X019867Y012600D02*
X019867Y013600D01*
X016992Y013600D01*
X016367Y012975D01*
X016367Y010725D01*
X016117Y010475D01*
X016117Y008350D01*
X015867Y008100D01*
X016867Y008100D02*
X017867Y007100D01*
X017867Y006225D01*
X018242Y005850D01*
X018242Y003725D01*
X018367Y003600D01*
X018867Y004100D02*
X018867Y008100D01*
X018117Y008350D02*
X017867Y008100D01*
X018117Y008350D02*
X018117Y010475D01*
X018367Y010725D01*
X018367Y012100D01*
X018867Y011100D02*
X018867Y010850D01*
X018367Y010350D01*
X018367Y006600D01*
X019367Y006600D02*
X020367Y007600D01*
X020367Y010600D01*
X020867Y011100D01*
X021367Y011600D02*
X021867Y011100D01*
X021367Y011600D02*
X021367Y014100D01*
X015492Y014100D01*
X014367Y012975D01*
X014367Y011850D01*
X015117Y011850D01*
X015867Y012600D01*
X014867Y012600D02*
X016117Y013850D01*
X020367Y013850D01*
X020367Y011600D01*
X019867Y011100D01*
X022367Y010350D02*
X022867Y010850D01*
X022867Y011100D01*
X023367Y011475D02*
X023367Y007725D01*
X022867Y007225D01*
X022867Y004100D01*
X022367Y003600D01*
X021867Y004100D02*
X021867Y007225D01*
X021367Y007725D01*
X021367Y006600D02*
X019867Y005100D01*
X019867Y002600D01*
X018867Y001600D01*
X018867Y000600D01*
X018617Y000350D01*
X013367Y000350D01*
X013367Y001100D01*
X014367Y001100D02*
X014867Y001600D01*
X014867Y004475D01*
X014992Y004600D01*
X015367Y003600D02*
X015367Y005725D01*
X014867Y006225D01*
X014867Y008100D01*
X016367Y007600D02*
X016367Y010350D01*
X016867Y010850D01*
X016867Y011100D01*
X012367Y008850D02*
X012367Y001100D01*
X008867Y001600D02*
X008367Y001100D01*
X007867Y000600D02*
X007617Y000350D01*
X006367Y000350D01*
X006367Y001100D01*
X006867Y001600D02*
X007367Y001100D01*
X007867Y000600D02*
X007867Y006100D01*
X008367Y006600D01*
X008117Y007350D02*
X007367Y006600D01*
X006867Y006225D02*
X006867Y007350D01*
X007367Y007850D01*
X007367Y008100D01*
X006867Y007725D02*
X006867Y010350D01*
X007367Y010850D01*
X007367Y011100D01*
X006867Y010725D02*
X006867Y012975D01*
X007242Y013350D01*
X010367Y013350D01*
X010367Y012600D01*
X009367Y012600D02*
X008867Y012100D01*
X008867Y010725D01*
X008617Y010475D01*
X008617Y008350D01*
X008367Y008100D01*
X009367Y008100D02*
X009867Y007600D01*
X009867Y004100D01*
X010367Y003600D01*
X008867Y004100D02*
X008867Y001600D01*
X006867Y001600D02*
X006867Y005350D01*
X006742Y005475D01*
X006367Y005725D02*
X005867Y006225D01*
X005867Y007600D01*
X005367Y008100D01*
X006367Y008100D02*
X006617Y008350D01*
X006617Y010475D01*
X006867Y010725D01*
X006367Y011100D02*
X006367Y011600D01*
X005367Y012600D01*
X002367Y012600D02*
X002117Y012850D01*
X002117Y014100D01*
X002367Y015600D02*
X002617Y015850D01*
X002617Y017225D01*
X003492Y018100D01*
X035617Y018100D01*
X035617Y016100D01*
X037867Y016100D01*
X037867Y015600D01*
X037367Y015100D02*
X036867Y015600D01*
X037367Y015100D02*
X037367Y012100D01*
X037867Y011600D01*
X037867Y007600D01*
X040242Y007600D01*
X040617Y007225D01*
X040617Y003850D01*
X039867Y003100D01*
X039867Y004100D02*
X037617Y001850D01*
X033867Y001850D01*
X033867Y000600D01*
X033617Y000350D01*
X023367Y000350D01*
X023367Y001100D01*
X024367Y001100D02*
X024367Y008600D01*
X026867Y006600D02*
X027867Y007600D01*
X027867Y006600D02*
X027367Y006100D01*
X027367Y001100D01*
X028367Y001100D02*
X028367Y006100D01*
X028867Y006600D01*
X029867Y006600D02*
X029867Y010600D01*
X030367Y011100D01*
X031367Y011100D02*
X031367Y013350D01*
X029617Y013350D01*
X028867Y012600D01*
X032367Y011100D02*
X032367Y010850D01*
X031867Y010350D01*
X031867Y007600D01*
X030867Y006600D01*
X030367Y006225D02*
X030367Y008100D01*
X031367Y008100D02*
X031617Y008350D01*
X031867Y006600D02*
X031117Y005850D01*
X031117Y004975D01*
X031617Y005350D02*
X031617Y004225D01*
X031367Y003975D01*
X031367Y002600D01*
X030367Y001600D01*
X030367Y001100D01*
X031367Y001100D02*
X031367Y002100D01*
X031492Y002225D01*
X032242Y002600D02*
X033367Y001475D01*
X033367Y001100D01*
X032367Y001100D02*
X031867Y001600D01*
X031867Y003600D01*
X030867Y003600D02*
X030742Y003725D01*
X030742Y005850D01*
X030367Y006225D01*
X031617Y005350D02*
X032867Y006600D01*
X033867Y006600D02*
X033867Y010600D01*
X034367Y011100D01*
X037617Y010850D02*
X037617Y007350D01*
X039867Y005100D01*
X037617Y006350D02*
X037617Y002350D01*
X030367Y002100D02*
X029367Y001100D01*
X030367Y002100D02*
X030367Y004225D01*
X029867Y003600D02*
X029367Y004100D01*
X022367Y006600D02*
X022367Y010350D01*
X021867Y012600D02*
X022867Y013600D01*
X021867Y015600D02*
X023992Y017725D01*
X019867Y017100D02*
X019867Y015600D01*
X018867Y015600D02*
X018867Y017100D01*
X017867Y017100D02*
X017867Y015600D01*
X016867Y015600D02*
X016867Y017100D01*
X015867Y017100D02*
X015867Y015600D01*
X014867Y015600D02*
X014867Y017100D01*
X013867Y017100D02*
X013867Y015600D01*
X012867Y015600D02*
X012867Y017100D01*
X011367Y017100D02*
X011367Y015600D01*
X010367Y015600D02*
X010367Y017100D01*
X009367Y017100D02*
X009367Y015600D01*
X008367Y015600D02*
X008367Y017100D01*
X007367Y017100D02*
X007367Y015600D01*
X006367Y015600D02*
X006367Y017100D01*
X005367Y017100D02*
X005367Y015600D01*
X004367Y015600D02*
X004367Y017100D01*
X005367Y011100D02*
X003867Y009600D01*
X003867Y007100D01*
X003367Y006600D01*
X002867Y007600D02*
X003367Y008100D01*
X002867Y007600D02*
X002867Y004100D01*
X003367Y003600D01*
X005867Y004975D02*
X005867Y001600D01*
X005367Y001100D01*
X006367Y003600D02*
X006367Y005725D01*
X006867Y006225D02*
X007117Y005975D01*
X007117Y003850D01*
X007367Y003600D01*
X008242Y004725D02*
X008867Y004100D01*
X005992Y005100D02*
X005867Y004975D01*
X006367Y006600D02*
X006617Y006850D01*
X006617Y007475D01*
X006867Y007725D01*
X008117Y007350D02*
X008867Y007350D01*
X008867Y010350D01*
X009367Y010850D01*
X009367Y011100D01*
X010867Y010600D02*
X011367Y011100D01*
X010867Y010600D02*
X010867Y007100D01*
X010367Y006600D01*
X015367Y006600D02*
X016367Y007600D01*
X016367Y006600D02*
X015867Y006100D01*
X015867Y001600D01*
X016367Y001100D01*
X016867Y001850D02*
X017242Y002225D01*
X017242Y003475D01*
X017367Y003600D01*
X018867Y004100D02*
X019367Y003600D01*
X021367Y003600D02*
X021867Y004100D01*
X019242Y005100D02*
X019242Y005475D01*
X020367Y006600D01*
X017367Y006600D02*
X016867Y006100D01*
X016867Y002475D01*
X036867Y007100D02*
X037617Y006350D01*
X039867Y008100D02*
X040867Y009100D01*
X040867Y012600D01*
D16*
X038867Y009975D03*
X032742Y008850D03*
X031242Y009225D03*
X024367Y008600D03*
X021367Y008725D03*
X019242Y005100D03*
X017867Y004975D03*
X014992Y004600D03*
X016867Y002475D03*
X016867Y001850D03*
X008242Y004725D03*
X006742Y005475D03*
X005992Y005100D03*
X012367Y008850D03*
X002117Y014100D03*
X023992Y017725D03*
X034492Y015975D03*
X031117Y004975D03*
X030367Y004225D03*
X032242Y002600D03*
X031492Y002225D03*
X037617Y002350D03*
M02*
