%
M48
M72
T01C0.0236
T02C0.0240
T03C0.0315
T04C0.0320
T05C0.0400
%
T01
X32180Y7680
T02
X30555Y7118
X30555Y6180
X27555Y5555
X25430Y4555
X24805Y5930
X23180Y5930
X20493Y5993
X23368Y7055
X22368Y8118
X26618Y8118
X28055Y8868
X28618Y9368
X32118Y11743
X18180Y7805
X15930Y7243
X14368Y7493
X13118Y3618
X19680Y2868
T03
X29180Y7680
T04
X26180Y6680
X25180Y6680
X24180Y6680
X24180Y7680
X25180Y7680
X25180Y10680
X24180Y10680
X22680Y10680
X21680Y10680
X20680Y10680
X19680Y10680
X18680Y10680
X17680Y10680
X16680Y10680
X15680Y10680
X14680Y10680
X13680Y10680
X12680Y10680
X11680Y10680
X10680Y10680
X9680Y10680
X8680Y10680
X7680Y10680
X6680Y10680
X5680Y10680
X4680Y10680
X3680Y10680
X3680Y4680
X4680Y4680
X5680Y4680
X6680Y4680
X7680Y4680
X8680Y4680
X9680Y4680
X10680Y4680
X11680Y4680
X12680Y4680
X13680Y4680
X14680Y4680
X15680Y4680
X16680Y4680
X17680Y4680
X18680Y4680
X19680Y4680
X20680Y4680
X21680Y4680
X22680Y4680
X24180Y3680
X25180Y3680
X26180Y3680
X29180Y4680
X32180Y4680
X34680Y7680
X34680Y10680
X32180Y10680
X29180Y10680
X14680Y3680
X13680Y3680
T05
X1180Y2180
X2180Y2180
X3180Y2180
X4180Y2180
X5180Y2180
X6180Y2180
X7180Y2180
X8180Y2180
X9180Y2180
X10180Y2180
X11180Y2180
X12180Y2180
X13180Y2180
X14180Y2180
X15180Y2180
X16180Y2180
X17180Y2180
X18180Y2180
X19180Y2180
X20180Y2180
X21180Y2180
X22180Y2180
X23180Y2180
X24180Y2180
X25180Y2180
X26180Y2180
X27180Y2180
X28180Y2180
X29180Y2180
X30180Y2180
X31180Y2180
X32180Y2180
X33180Y2180
X34180Y2180
X35180Y2180
X36180Y2180
X37180Y2180
X38180Y2180
X39180Y2180
X40180Y2180
X40180Y3680
X39180Y3680
X38180Y3680
X37180Y3680
X36180Y3680
X35180Y3680
X35180Y4680
X36180Y4680
X37180Y4680
X38180Y4680
X39180Y4680
X40180Y4680
X39180Y8180
X36180Y8180
X36180Y10180
X39180Y10180
M30
