G75*
%MOIN*%
%OFA0B0*%
%FSLAX24Y24*%
%IPPOS*%
%LPD*%
%AMOC8*
5,1,8,0,0,1.08239X$1,22.5*
%
%ADD10C,0.0316*%
%ADD11C,0.0600*%
%ADD12OC8,0.0680*%
%ADD13C,0.0680*%
%ADD14OC8,0.0600*%
%ADD15C,0.0600*%
%ADD16OC8,0.0595*%
D10*
X032180Y007680D03*
D11*
X022680Y004940D02*
X022680Y004420D01*
X021680Y004420D02*
X021680Y004940D01*
X020680Y004940D02*
X020680Y004420D01*
X019680Y004420D02*
X019680Y004940D01*
X018680Y004940D02*
X018680Y004420D01*
X017680Y004420D02*
X017680Y004940D01*
X016680Y004940D02*
X016680Y004420D01*
X015680Y004420D02*
X015680Y004940D01*
X014680Y004940D02*
X014680Y004420D01*
X013680Y004420D02*
X013680Y004940D01*
X012680Y004940D02*
X012680Y004420D01*
X011680Y004420D02*
X011680Y004940D01*
X010680Y004940D02*
X010680Y004420D01*
X009680Y004420D02*
X009680Y004940D01*
X008680Y004940D02*
X008680Y004420D01*
X007680Y004420D02*
X007680Y004940D01*
X006680Y004940D02*
X006680Y004420D01*
X005680Y004420D02*
X005680Y004940D01*
X004680Y004940D02*
X004680Y004420D01*
X003680Y004420D02*
X003680Y004940D01*
X003680Y010420D02*
X003680Y010940D01*
X004680Y010940D02*
X004680Y010420D01*
X005680Y010420D02*
X005680Y010940D01*
X006680Y010940D02*
X006680Y010420D01*
X007680Y010420D02*
X007680Y010940D01*
X008680Y010940D02*
X008680Y010420D01*
X009680Y010420D02*
X009680Y010940D01*
X010680Y010940D02*
X010680Y010420D01*
X011680Y010420D02*
X011680Y010940D01*
X012680Y010940D02*
X012680Y010420D01*
X013680Y010420D02*
X013680Y010940D01*
X014680Y010940D02*
X014680Y010420D01*
X015680Y010420D02*
X015680Y010940D01*
X016680Y010940D02*
X016680Y010420D01*
X017680Y010420D02*
X017680Y010940D01*
X018680Y010940D02*
X018680Y010420D01*
X019680Y010420D02*
X019680Y010940D01*
X020680Y010940D02*
X020680Y010420D01*
X021680Y010420D02*
X021680Y010940D01*
X022680Y010940D02*
X022680Y010420D01*
D12*
X035180Y004680D03*
X036180Y004680D03*
X037180Y004680D03*
X038180Y004680D03*
X039180Y004680D03*
X040180Y004680D03*
X040180Y003680D03*
X039180Y003680D03*
X038180Y003680D03*
X037180Y003680D03*
X036180Y003680D03*
X035180Y003680D03*
D13*
X001180Y002480D02*
X001180Y001880D01*
X002180Y001880D02*
X002180Y002480D01*
X003180Y002480D02*
X003180Y001880D01*
X004180Y001880D02*
X004180Y002480D01*
X005180Y002480D02*
X005180Y001880D01*
X006180Y001880D02*
X006180Y002480D01*
X007180Y002480D02*
X007180Y001880D01*
X008180Y001880D02*
X008180Y002480D01*
X009180Y002480D02*
X009180Y001880D01*
X010180Y001880D02*
X010180Y002480D01*
X011180Y002480D02*
X011180Y001880D01*
X012180Y001880D02*
X012180Y002480D01*
X013180Y002480D02*
X013180Y001880D01*
X014180Y001880D02*
X014180Y002480D01*
X015180Y002480D02*
X015180Y001880D01*
X016180Y001880D02*
X016180Y002480D01*
X017180Y002480D02*
X017180Y001880D01*
X018180Y001880D02*
X018180Y002480D01*
X019180Y002480D02*
X019180Y001880D01*
X020180Y001880D02*
X020180Y002480D01*
X021180Y002480D02*
X021180Y001880D01*
X022180Y001880D02*
X022180Y002480D01*
X023180Y002480D02*
X023180Y001880D01*
X024180Y001880D02*
X024180Y002480D01*
X025180Y002480D02*
X025180Y001880D01*
X026180Y001880D02*
X026180Y002480D01*
X027180Y002480D02*
X027180Y001880D01*
X028180Y001880D02*
X028180Y002480D01*
X029180Y002480D02*
X029180Y001880D01*
X030180Y001880D02*
X030180Y002480D01*
X031180Y002480D02*
X031180Y001880D01*
X032180Y001880D02*
X032180Y002480D01*
X033180Y002480D02*
X033180Y001880D01*
X034180Y001880D02*
X034180Y002480D01*
X035180Y002480D02*
X035180Y001880D01*
X036180Y001880D02*
X036180Y002480D01*
X037180Y002480D02*
X037180Y001880D01*
X038180Y001880D02*
X038180Y002480D01*
X039180Y002480D02*
X039180Y001880D01*
X040180Y001880D02*
X040180Y002480D01*
X039480Y008180D02*
X038880Y008180D01*
X036480Y008180D02*
X035880Y008180D01*
X035880Y010180D02*
X036480Y010180D01*
X038880Y010180D02*
X039480Y010180D01*
D14*
X034680Y010680D03*
X034680Y007680D03*
X026180Y006680D03*
X025180Y006680D03*
X024180Y006680D03*
X024180Y007680D03*
X025180Y007680D03*
X025180Y010680D03*
X024180Y010680D03*
X024180Y003680D03*
X025180Y003680D03*
X026180Y003680D03*
X014680Y003680D03*
X013680Y003680D03*
D15*
X029180Y004680D03*
X032180Y004680D03*
X032180Y010680D03*
X029180Y010680D03*
D16*
X029180Y007680D03*
M02*
