G75*
%MOIN*%
%OFA0B0*%
%FSLAX24Y24*%
%IPPOS*%
%LPD*%
%AMOC8*
5,1,8,0,0,1.08239X$1,22.5*
%
%ADD10C,0.0520*%
%ADD11OC8,0.0600*%
%ADD12C,0.0600*%
%ADD13OC8,0.0520*%
%ADD14C,0.0520*%
%ADD15OC8,0.0515*%
%ADD16C,0.0100*%
%ADD17C,0.0400*%
%ADD18C,0.0200*%
D10*
X003680Y004420D02*
X003680Y004940D01*
X004680Y004940D02*
X004680Y004420D01*
X005680Y004420D02*
X005680Y004940D01*
X006680Y004940D02*
X006680Y004420D01*
X007680Y004420D02*
X007680Y004940D01*
X008680Y004940D02*
X008680Y004420D01*
X009680Y004420D02*
X009680Y004940D01*
X010680Y004940D02*
X010680Y004420D01*
X011680Y004420D02*
X011680Y004940D01*
X012680Y004940D02*
X012680Y004420D01*
X013680Y004420D02*
X013680Y004940D01*
X014680Y004940D02*
X014680Y004420D01*
X015680Y004420D02*
X015680Y004940D01*
X016680Y004940D02*
X016680Y004420D01*
X017680Y004420D02*
X017680Y004940D01*
X018680Y004940D02*
X018680Y004420D01*
X019680Y004420D02*
X019680Y004940D01*
X020680Y004940D02*
X020680Y004420D01*
X021680Y004420D02*
X021680Y004940D01*
X022680Y004940D02*
X022680Y004420D01*
X022680Y010420D02*
X022680Y010940D01*
X021680Y010940D02*
X021680Y010420D01*
X020680Y010420D02*
X020680Y010940D01*
X019680Y010940D02*
X019680Y010420D01*
X018680Y010420D02*
X018680Y010940D01*
X017680Y010940D02*
X017680Y010420D01*
X016680Y010420D02*
X016680Y010940D01*
X015680Y010940D02*
X015680Y010420D01*
X014680Y010420D02*
X014680Y010940D01*
X013680Y010940D02*
X013680Y010420D01*
X012680Y010420D02*
X012680Y010940D01*
X011680Y010940D02*
X011680Y010420D01*
X010680Y010420D02*
X010680Y010940D01*
X009680Y010940D02*
X009680Y010420D01*
X008680Y010420D02*
X008680Y010940D01*
X007680Y010940D02*
X007680Y010420D01*
X006680Y010420D02*
X006680Y010940D01*
X005680Y010940D02*
X005680Y010420D01*
X004680Y010420D02*
X004680Y010940D01*
X003680Y010940D02*
X003680Y010420D01*
D11*
X035180Y004680D03*
X036180Y004680D03*
X037180Y004680D03*
X038180Y004680D03*
X039180Y004680D03*
X040180Y004680D03*
X040180Y003680D03*
X039180Y003680D03*
X038180Y003680D03*
X037180Y003680D03*
X036180Y003680D03*
X035180Y003680D03*
D12*
X001180Y002480D02*
X001180Y001880D01*
X002180Y001880D02*
X002180Y002480D01*
X003180Y002480D02*
X003180Y001880D01*
X004180Y001880D02*
X004180Y002480D01*
X005180Y002480D02*
X005180Y001880D01*
X006180Y001880D02*
X006180Y002480D01*
X007180Y002480D02*
X007180Y001880D01*
X008180Y001880D02*
X008180Y002480D01*
X009180Y002480D02*
X009180Y001880D01*
X010180Y001880D02*
X010180Y002480D01*
X011180Y002480D02*
X011180Y001880D01*
X012180Y001880D02*
X012180Y002480D01*
X013180Y002480D02*
X013180Y001880D01*
X014180Y001880D02*
X014180Y002480D01*
X015180Y002480D02*
X015180Y001880D01*
X016180Y001880D02*
X016180Y002480D01*
X017180Y002480D02*
X017180Y001880D01*
X018180Y001880D02*
X018180Y002480D01*
X019180Y002480D02*
X019180Y001880D01*
X020180Y001880D02*
X020180Y002480D01*
X021180Y002480D02*
X021180Y001880D01*
X022180Y001880D02*
X022180Y002480D01*
X023180Y002480D02*
X023180Y001880D01*
X024180Y001880D02*
X024180Y002480D01*
X025180Y002480D02*
X025180Y001880D01*
X026180Y001880D02*
X026180Y002480D01*
X027180Y002480D02*
X027180Y001880D01*
X028180Y001880D02*
X028180Y002480D01*
X029180Y002480D02*
X029180Y001880D01*
X030180Y001880D02*
X030180Y002480D01*
X031180Y002480D02*
X031180Y001880D01*
X032180Y001880D02*
X032180Y002480D01*
X033180Y002480D02*
X033180Y001880D01*
X034180Y001880D02*
X034180Y002480D01*
X035180Y002480D02*
X035180Y001880D01*
X036180Y001880D02*
X036180Y002480D01*
X037180Y002480D02*
X037180Y001880D01*
X038180Y001880D02*
X038180Y002480D01*
X039180Y002480D02*
X039180Y001880D01*
X040180Y001880D02*
X040180Y002480D01*
X039480Y008180D02*
X038880Y008180D01*
X036480Y008180D02*
X035880Y008180D01*
X035880Y010180D02*
X036480Y010180D01*
X038880Y010180D02*
X039480Y010180D01*
D13*
X034680Y010680D03*
X034680Y007680D03*
X026180Y006680D03*
X025180Y006680D03*
X024180Y006680D03*
X024180Y007680D03*
X025180Y007680D03*
X025180Y010680D03*
X024180Y010680D03*
X024180Y003680D03*
X025180Y003680D03*
X026180Y003680D03*
X014680Y003680D03*
X013680Y003680D03*
D14*
X029180Y004680D03*
X032180Y004680D03*
X032180Y010680D03*
X029180Y010680D03*
D15*
X029180Y007680D03*
D16*
X030555Y007118D02*
X024118Y007118D01*
X023805Y007430D01*
X016118Y007430D01*
X015930Y007243D01*
X015805Y006868D02*
X015555Y007118D01*
X014118Y007118D01*
X011680Y004680D01*
X012680Y004680D02*
X014368Y006368D01*
X023868Y006368D01*
X023993Y006243D01*
X024618Y006243D01*
X024680Y006305D01*
X024930Y006305D01*
X025055Y006180D01*
X030555Y006180D01*
X027555Y005555D02*
X023055Y005555D01*
X022993Y005618D01*
X018618Y005618D01*
X017680Y004680D01*
X016680Y004680D02*
X017993Y005993D01*
X020493Y005993D01*
X020368Y005368D02*
X019680Y004680D01*
X018680Y004680D02*
X020180Y003180D01*
X021430Y003180D01*
X021711Y002899D01*
X021743Y002930D01*
X024430Y002930D01*
X025180Y003680D01*
X024618Y004180D02*
X024180Y003743D01*
X024180Y003680D01*
X023868Y003993D01*
X021368Y003993D01*
X020680Y004680D01*
X020368Y005368D02*
X022868Y005368D01*
X022930Y005305D01*
X024680Y005305D01*
X024836Y005149D01*
X024868Y005180D01*
X035680Y005180D01*
X036180Y004680D01*
X037680Y004180D02*
X024618Y004180D01*
X025430Y004555D02*
X024836Y005149D01*
X024805Y005930D02*
X023180Y005930D01*
X023180Y006868D02*
X023368Y007055D01*
X023180Y006868D02*
X015805Y006868D01*
X014368Y007493D02*
X015743Y008868D01*
X028055Y008868D01*
X028618Y009368D02*
X028493Y009493D01*
X015493Y009493D01*
X010680Y004680D01*
X010243Y005118D02*
X010243Y002930D01*
X012430Y002930D01*
X013180Y002180D01*
X013805Y002930D02*
X014430Y002930D01*
X015180Y002180D01*
X013805Y002930D02*
X013118Y003618D01*
X010493Y005368D02*
X010243Y005118D01*
X010493Y005368D02*
X010680Y005368D01*
X010680Y010680D01*
X017680Y010680D02*
X018618Y009743D01*
X034618Y009743D01*
X036180Y008180D01*
X036930Y006930D02*
X036930Y009680D01*
X034993Y009680D01*
X034430Y010243D01*
X023805Y010243D01*
X023774Y010274D01*
X023493Y009993D01*
X019368Y009993D01*
X018680Y010680D01*
X020680Y010680D02*
X021368Y011368D01*
X034305Y011368D01*
X034368Y011430D01*
X038868Y011430D01*
X040180Y010118D01*
X040180Y004680D01*
X039180Y004680D02*
X036930Y006930D01*
X038180Y004680D02*
X037680Y004180D01*
X037180Y003680D02*
X037180Y002180D01*
X036180Y002180D02*
X036180Y003680D01*
X035180Y003680D02*
X035180Y002180D01*
X038180Y002180D02*
X038180Y003680D01*
X039180Y003680D02*
X039180Y002180D01*
X040180Y002180D02*
X040180Y003680D01*
X031180Y002180D02*
X030430Y001430D01*
X021680Y001430D01*
X021680Y002618D01*
X021368Y002930D01*
X019743Y002930D01*
X019680Y002868D01*
X020430Y001430D02*
X021180Y002180D01*
X021711Y002899D02*
X022180Y002430D01*
X022180Y002180D01*
X020430Y001430D02*
X008680Y001430D01*
X008680Y004680D01*
X007680Y004680D02*
X006993Y005368D01*
X003493Y005368D01*
X001180Y003055D01*
X001180Y002180D01*
X002180Y002180D02*
X002930Y002930D01*
X004930Y002930D01*
X006680Y004680D01*
X022368Y008118D02*
X026618Y008118D01*
X024180Y010680D02*
X023774Y010274D01*
D17*
X028055Y008868D03*
X028618Y009368D03*
X026618Y008118D03*
X023368Y007055D03*
X023180Y005930D03*
X024805Y005930D03*
X027555Y005555D03*
X025430Y004555D03*
X020493Y005993D03*
X015930Y007243D03*
X014368Y007493D03*
X018180Y007805D03*
X022368Y008118D03*
X030555Y007118D03*
X030555Y006180D03*
X019680Y002868D03*
X013118Y003618D03*
X032118Y011743D03*
D18*
X031993Y011618D01*
X015618Y011618D01*
X014680Y010680D01*
X018180Y007805D02*
X018305Y007680D01*
X024180Y007680D01*
X025180Y007680D01*
X029180Y007680D01*
X029618Y008118D01*
X034243Y008118D01*
X034680Y007680D01*
X038180Y011180D02*
X039180Y010180D01*
X038180Y011180D02*
X034493Y011180D01*
X034430Y011118D01*
X032618Y011118D01*
X032180Y010680D01*
X026180Y006680D02*
X025180Y006680D01*
X024180Y006680D01*
X018180Y003930D02*
X015493Y003930D01*
X015180Y004243D01*
X015180Y005430D01*
X014430Y005430D01*
X013680Y004680D01*
X013680Y003680D01*
X014680Y003680D02*
X015368Y002993D01*
X016430Y002993D01*
X017180Y002243D01*
X017180Y002180D01*
X018180Y002180D02*
X018180Y003930D01*
M02*
