G75*
%MOIN*%
%OFA0B0*%
%FSLAX24Y24*%
%IPPOS*%
%LPD*%
%AMOC8*
5,1,8,0,0,1.08239X$1,22.5*
%
%ADD10R,0.0600X0.2550*%
%ADD11OC8,0.0520*%
%ADD12OC8,0.0600*%
%ADD13C,0.0520*%
%ADD14C,0.0600*%
%ADD15C,0.0560*%
%ADD16OC8,0.0560*%
%ADD17C,0.0100*%
%ADD18C,0.0400*%
%ADD19C,0.0160*%
D10*
X002180Y001940D03*
X003180Y001940D03*
X004180Y001940D03*
X005180Y001940D03*
X006180Y001940D03*
X007180Y001940D03*
X008180Y001940D03*
X009180Y001940D03*
X010180Y001940D03*
X011180Y001940D03*
X012180Y001940D03*
X013180Y001940D03*
X014180Y001940D03*
X015180Y001940D03*
X016180Y001940D03*
X017180Y001940D03*
X018180Y001940D03*
X019180Y001940D03*
X020180Y001940D03*
X021180Y001940D03*
X022180Y001940D03*
X023180Y001940D03*
X024180Y001940D03*
X025180Y001940D03*
X026180Y001940D03*
X027180Y001940D03*
X028180Y001940D03*
X029180Y001940D03*
X030180Y001940D03*
X031180Y001940D03*
X032180Y001940D03*
D11*
X022180Y009940D03*
X022180Y010940D03*
X013180Y015440D03*
X013180Y016440D03*
X012680Y017440D03*
X015680Y017440D03*
X012680Y011440D03*
X012680Y010440D03*
X001180Y010440D03*
X001180Y011440D03*
D12*
X002180Y005940D03*
X003180Y005940D03*
X004180Y005940D03*
X005180Y005940D03*
X006180Y005940D03*
X007180Y005940D03*
X008180Y005940D03*
X009180Y005940D03*
X010180Y005940D03*
X011180Y005940D03*
X012180Y005940D03*
X013180Y005940D03*
X014180Y005940D03*
X015180Y005940D03*
X016180Y005940D03*
X017180Y005940D03*
X018180Y005940D03*
X019180Y005940D03*
X020180Y005940D03*
X021180Y005940D03*
X022180Y005940D03*
X023180Y005940D03*
X024180Y005940D03*
X025180Y005940D03*
X026180Y005940D03*
X027180Y005940D03*
X028180Y005940D03*
X029180Y005940D03*
X030180Y005940D03*
X031180Y005940D03*
X032180Y005940D03*
X032180Y004940D03*
X031180Y004940D03*
X030180Y004940D03*
X029180Y004940D03*
X028180Y004940D03*
X027180Y004940D03*
X026180Y004940D03*
X025180Y004940D03*
X024180Y004940D03*
X023180Y004940D03*
X022180Y004940D03*
X021180Y004940D03*
X020180Y004940D03*
X019180Y004940D03*
X018180Y004940D03*
X017180Y004940D03*
X016180Y004940D03*
X015180Y004940D03*
X014180Y004940D03*
X013180Y004940D03*
X012180Y004940D03*
X011180Y004940D03*
X010180Y004940D03*
X009180Y004940D03*
X008180Y004940D03*
X007180Y004940D03*
X006180Y004940D03*
X005180Y004940D03*
X004180Y004940D03*
X003180Y004940D03*
X002180Y004940D03*
D13*
X002180Y008180D02*
X002180Y008700D01*
X003180Y008700D02*
X003180Y008180D01*
X004180Y008180D02*
X004180Y008700D01*
X005180Y008700D02*
X005180Y008180D01*
X006180Y008180D02*
X006180Y008700D01*
X007180Y008700D02*
X007180Y008180D01*
X008180Y008180D02*
X008180Y008700D01*
X009180Y008700D02*
X009180Y008180D01*
X010180Y008180D02*
X010180Y008700D01*
X011180Y008700D02*
X011180Y008180D01*
X013680Y008180D02*
X013680Y008700D01*
X014680Y008700D02*
X014680Y008180D01*
X015680Y008180D02*
X015680Y008700D01*
X016680Y008700D02*
X016680Y008180D01*
X017680Y008180D02*
X017680Y008700D01*
X018680Y008700D02*
X018680Y008180D01*
X019680Y008180D02*
X019680Y008700D01*
X023180Y008200D02*
X023180Y007680D01*
X024180Y007680D02*
X024180Y008200D01*
X025180Y008200D02*
X025180Y007680D01*
X026180Y007680D02*
X026180Y008200D01*
X027180Y008200D02*
X027180Y007680D01*
X028180Y007680D02*
X028180Y008200D01*
X029180Y008200D02*
X029180Y007680D01*
X030180Y007680D02*
X030180Y008200D01*
X031180Y008200D02*
X031180Y007680D01*
X032180Y007680D02*
X032180Y008200D01*
X032180Y010680D02*
X032180Y011200D01*
X031180Y011200D02*
X031180Y010680D01*
X030180Y010680D02*
X030180Y011200D01*
X029180Y011200D02*
X029180Y010680D01*
X028180Y010680D02*
X028180Y011200D01*
X027180Y011200D02*
X027180Y010680D01*
X026180Y010680D02*
X026180Y011200D01*
X025180Y011200D02*
X025180Y010680D01*
X024180Y010680D02*
X024180Y011200D01*
X023180Y011200D02*
X023180Y010680D01*
X019680Y011180D02*
X019680Y011700D01*
X018680Y011700D02*
X018680Y011180D01*
X017680Y011180D02*
X017680Y011700D01*
X016680Y011700D02*
X016680Y011180D01*
X015680Y011180D02*
X015680Y011700D01*
X014680Y011700D02*
X014680Y011180D01*
X013680Y011180D02*
X013680Y011700D01*
X011180Y011700D02*
X011180Y011180D01*
X010180Y011180D02*
X010180Y011700D01*
X009180Y011700D02*
X009180Y011180D01*
X008180Y011180D02*
X008180Y011700D01*
X007180Y011700D02*
X007180Y011180D01*
X006180Y011180D02*
X006180Y011700D01*
X005180Y011700D02*
X005180Y011180D01*
X004180Y011180D02*
X004180Y011700D01*
X003180Y011700D02*
X003180Y011180D01*
X002180Y011180D02*
X002180Y011700D01*
X002180Y012680D02*
X002180Y013200D01*
X003180Y013200D02*
X003180Y012680D01*
X004180Y012680D02*
X004180Y013200D01*
X005180Y013200D02*
X005180Y012680D01*
X006180Y012680D02*
X006180Y013200D01*
X007180Y013200D02*
X007180Y012680D01*
X008180Y012680D02*
X008180Y013200D01*
X009180Y013200D02*
X009180Y012680D01*
X010180Y012680D02*
X010180Y013200D01*
X009180Y014180D02*
X009180Y014700D01*
X008180Y014700D02*
X008180Y014180D01*
X007180Y014180D02*
X007180Y014700D01*
X006180Y014700D02*
X006180Y014180D01*
X005180Y014180D02*
X005180Y014700D01*
X004180Y014700D02*
X004180Y014180D01*
X003180Y014180D02*
X003180Y014700D01*
X002180Y014700D02*
X002180Y014180D01*
X002180Y017180D02*
X002180Y017700D01*
X003180Y017700D02*
X003180Y017180D01*
X004180Y017180D02*
X004180Y017700D01*
X005180Y017700D02*
X005180Y017180D01*
X006180Y017180D02*
X006180Y017700D01*
X007180Y017700D02*
X007180Y017180D01*
X008180Y017180D02*
X008180Y017700D01*
X009180Y017700D02*
X009180Y017180D01*
X014180Y016700D02*
X014180Y016180D01*
X015180Y016180D02*
X015180Y016700D01*
X016180Y016700D02*
X016180Y016180D01*
X017180Y016180D02*
X017180Y016700D01*
X018180Y016700D02*
X018180Y016180D01*
X019180Y016180D02*
X019180Y016700D01*
X020180Y016700D02*
X020180Y016180D01*
X020180Y013700D02*
X020180Y013180D01*
X019180Y013180D02*
X019180Y013700D01*
X018180Y013700D02*
X018180Y013180D01*
X017180Y013180D02*
X017180Y013700D01*
X016180Y013700D02*
X016180Y013180D01*
X015180Y013180D02*
X015180Y013700D01*
X014180Y013700D02*
X014180Y013180D01*
D14*
X014180Y019140D02*
X014180Y019740D01*
X013180Y019740D02*
X013180Y019140D01*
X012180Y019140D02*
X012180Y019740D01*
X011180Y019740D02*
X011180Y019140D01*
X010180Y019140D02*
X010180Y019740D01*
X009180Y019740D02*
X009180Y019140D01*
X008180Y019140D02*
X008180Y019740D01*
X007180Y019740D02*
X007180Y019140D01*
X006180Y019140D02*
X006180Y019740D01*
X005180Y019740D02*
X005180Y019140D01*
X004180Y019140D02*
X004180Y019740D01*
X003180Y019740D02*
X003180Y019140D01*
X002180Y019140D02*
X002180Y019740D01*
X001180Y019740D02*
X001180Y019140D01*
X015180Y019140D02*
X015180Y019740D01*
X016180Y019740D02*
X016180Y019140D01*
X017180Y019140D02*
X017180Y019740D01*
X018180Y019740D02*
X018180Y019140D01*
X019180Y019140D02*
X019180Y019740D01*
X020180Y019740D02*
X020180Y019140D01*
X021180Y019140D02*
X021180Y019740D01*
X022180Y019740D02*
X022180Y019140D01*
X023180Y019140D02*
X023180Y019740D01*
X024180Y019740D02*
X024180Y019140D01*
X025180Y019140D02*
X025180Y019740D01*
X026180Y019740D02*
X026180Y019140D01*
X027180Y019140D02*
X027180Y019740D01*
X028180Y019740D02*
X028180Y019140D01*
X029180Y019140D02*
X029180Y019740D01*
X030180Y019740D02*
X030180Y019140D01*
X031180Y019140D02*
X031180Y019740D01*
X032180Y019740D02*
X032180Y019140D01*
X033180Y019140D02*
X033180Y019740D01*
X034180Y019740D02*
X034180Y019140D01*
X035180Y019140D02*
X035180Y019740D01*
X036180Y019740D02*
X036180Y019140D01*
X037180Y019140D02*
X037180Y019740D01*
X038180Y019740D02*
X038180Y019140D01*
X039180Y019140D02*
X039180Y019740D01*
X040180Y019740D02*
X040180Y019140D01*
D15*
X026460Y016440D02*
X025900Y016440D01*
X024960Y016440D02*
X024400Y016440D01*
X023460Y016440D02*
X022900Y016440D01*
X022900Y015440D02*
X023460Y015440D01*
X024400Y015440D02*
X024960Y015440D01*
X025900Y015440D02*
X026460Y015440D01*
X026460Y014440D02*
X025900Y014440D01*
X024960Y014440D02*
X024400Y014440D01*
X023460Y014440D02*
X022900Y014440D01*
D16*
X035680Y009440D03*
X036680Y009440D03*
X036680Y008440D03*
X035680Y008440D03*
X035680Y007440D03*
X036680Y007440D03*
X036680Y006440D03*
X035680Y006440D03*
X035680Y005440D03*
X036680Y005440D03*
D17*
X002180Y001940D02*
X002160Y001960D01*
X002160Y002680D01*
X001710Y003130D01*
X001710Y005110D01*
X002160Y005560D01*
X002160Y005920D01*
X002180Y005940D01*
X002745Y005155D02*
X003150Y005560D01*
X003150Y005920D01*
X003180Y005940D01*
X003150Y005965D01*
X001755Y007360D01*
X003420Y006370D02*
X005760Y006370D01*
X006165Y005965D01*
X006180Y005940D01*
X006210Y005920D01*
X006210Y005560D01*
X006615Y005155D01*
X006615Y003085D01*
X006210Y002680D01*
X006210Y001960D01*
X006180Y001940D01*
X005220Y001960D02*
X005180Y001940D01*
X005220Y001960D02*
X005220Y002680D01*
X005625Y003085D01*
X005625Y005110D01*
X005220Y005515D01*
X005220Y005920D01*
X005180Y005940D01*
X004180Y005940D02*
X004140Y005920D01*
X004140Y005515D01*
X003735Y005110D01*
X003735Y003085D01*
X004140Y002680D01*
X004140Y001960D01*
X004180Y001940D01*
X003180Y001940D02*
X003150Y001960D01*
X003150Y002680D01*
X002745Y003085D01*
X002745Y005155D01*
X003420Y006370D02*
X000585Y009205D01*
X000585Y016675D01*
X002025Y018115D01*
X007785Y018115D01*
X008640Y018970D01*
X008640Y019825D01*
X009000Y020185D01*
X011430Y020185D01*
X012150Y019465D01*
X012180Y019440D01*
X011180Y019440D02*
X011160Y019420D01*
X011160Y016450D01*
X009180Y014470D01*
X009180Y014440D01*
X009180Y012940D01*
X009585Y013165D02*
X009585Y010375D01*
X009405Y010195D01*
X008325Y009250D02*
X008325Y009115D01*
X008775Y008665D01*
X008775Y007405D01*
X009270Y006910D01*
X009135Y006550D02*
X010215Y006550D01*
X010395Y006730D01*
X009135Y006550D02*
X008055Y007630D01*
X009405Y007405D02*
X009765Y007765D01*
X009765Y009070D01*
X012420Y009835D02*
X013140Y009115D01*
X014310Y009115D01*
X014670Y009250D02*
X014445Y009475D01*
X013050Y009475D01*
X012285Y010240D01*
X012285Y011185D01*
X010800Y012670D01*
X010800Y013660D01*
X009585Y013165D02*
X011340Y014920D01*
X011340Y016675D01*
X013140Y018475D01*
X013140Y019420D01*
X013180Y019440D01*
X010180Y019440D02*
X010170Y019420D01*
X010170Y016450D01*
X008190Y014470D01*
X008180Y014440D01*
X008190Y014425D01*
X008190Y012940D01*
X008180Y012940D01*
X007200Y012940D02*
X007180Y012940D01*
X007200Y012940D02*
X007200Y014425D01*
X007180Y014440D01*
X007200Y014470D01*
X008595Y015865D01*
X008595Y017710D01*
X009180Y018295D01*
X009180Y019440D01*
X015180Y016440D02*
X015210Y016450D01*
X015705Y016450D01*
X015705Y017440D01*
X015680Y017440D01*
X017595Y016675D02*
X017595Y015460D01*
X018045Y015235D02*
X018180Y015370D01*
X018180Y016440D01*
X018180Y016450D01*
X019170Y016450D01*
X019180Y016440D01*
X020180Y016440D02*
X020205Y016450D01*
X020205Y019420D01*
X020180Y019440D01*
X019620Y019825D02*
X019620Y018700D01*
X017595Y016675D01*
X016180Y016440D02*
X016155Y016450D01*
X015705Y016450D01*
X015705Y014875D02*
X014265Y013435D01*
X014180Y013440D01*
X014220Y013435D01*
X014220Y012715D01*
X015255Y011680D01*
X015255Y008845D01*
X015660Y008440D01*
X015680Y008440D01*
X015840Y007765D02*
X016515Y008440D01*
X016680Y008440D01*
X017100Y008035D02*
X016335Y007270D01*
X014805Y007270D01*
X014265Y006730D01*
X014400Y006370D02*
X009000Y006370D01*
X008640Y006010D01*
X008640Y005425D01*
X008190Y004975D01*
X008180Y004940D01*
X007650Y004795D02*
X007650Y005470D01*
X007180Y005940D01*
X008730Y005110D02*
X009000Y005380D01*
X009765Y005380D01*
X010170Y004975D01*
X010180Y004940D01*
X010620Y005020D02*
X010620Y004750D01*
X010350Y004480D01*
X009630Y004480D01*
X009180Y004930D01*
X009180Y004940D01*
X008730Y005110D02*
X008730Y004750D01*
X009180Y004300D01*
X014175Y004300D01*
X014625Y004750D01*
X014625Y005020D01*
X014985Y005380D01*
X015255Y005380D01*
X015615Y005740D01*
X015615Y006010D01*
X016335Y006730D01*
X020340Y006730D01*
X022770Y009160D01*
X032085Y009160D01*
X033255Y007990D01*
X035730Y007990D01*
X036270Y007450D01*
X036675Y007450D01*
X036680Y007440D01*
X036090Y006640D02*
X035730Y007000D01*
X033975Y007000D01*
X031995Y008980D01*
X022995Y008980D01*
X020565Y006550D01*
X017145Y006550D01*
X016650Y006055D01*
X016650Y005785D01*
X016245Y005380D01*
X015975Y005380D01*
X015615Y005020D01*
X015615Y004750D01*
X014805Y003940D01*
X012375Y003940D01*
X012735Y003490D02*
X012735Y003085D01*
X013140Y002680D01*
X013140Y001960D01*
X013180Y001940D01*
X014180Y001940D02*
X014220Y001960D01*
X014220Y002680D01*
X014625Y003085D01*
X014625Y003490D01*
X015615Y003490D02*
X015615Y003085D01*
X015210Y002680D01*
X015210Y001960D01*
X015180Y001940D01*
X016180Y001940D02*
X016200Y001960D01*
X016200Y002680D01*
X016650Y003130D01*
X016650Y003445D01*
X016740Y003850D02*
X017145Y003445D01*
X017145Y001960D01*
X017180Y001940D01*
X018180Y001940D02*
X018180Y002635D01*
X017730Y003085D01*
X017730Y005110D01*
X018180Y005560D01*
X018180Y005940D01*
X017180Y005940D02*
X017145Y005920D01*
X017145Y005515D01*
X016740Y005110D01*
X016740Y003850D01*
X018720Y003085D02*
X019170Y002635D01*
X019170Y001960D01*
X019180Y001940D01*
X020180Y001940D02*
X020205Y001960D01*
X020205Y002680D01*
X020610Y003085D01*
X020610Y005155D01*
X020205Y005560D01*
X020205Y005920D01*
X020180Y005940D01*
X019980Y006370D02*
X019620Y006010D01*
X019620Y005380D01*
X019180Y004940D01*
X018720Y005110D02*
X018720Y003085D01*
X021195Y002680D02*
X021195Y001960D01*
X021180Y001940D01*
X022180Y001940D02*
X022185Y001960D01*
X022185Y004300D01*
X022635Y004750D01*
X022635Y005470D01*
X022185Y005920D01*
X022180Y005940D01*
X021195Y005920D02*
X021195Y005560D01*
X021645Y005110D01*
X021645Y003130D01*
X021195Y002680D01*
X023220Y002680D02*
X023220Y001960D01*
X023180Y001940D01*
X023220Y002680D02*
X023625Y003085D01*
X023625Y005110D01*
X023220Y005515D01*
X023220Y005920D01*
X023180Y005940D01*
X024180Y005940D02*
X024210Y005920D01*
X024210Y005560D01*
X024615Y005155D01*
X024615Y003085D01*
X024210Y002680D01*
X024210Y001960D01*
X024180Y001940D01*
X025180Y001940D02*
X025200Y001960D01*
X025200Y002680D01*
X025650Y003130D01*
X025650Y005110D01*
X025200Y005560D01*
X025200Y005920D01*
X025180Y005940D01*
X025200Y005965D01*
X025200Y007900D01*
X025180Y007940D01*
X024210Y007900D02*
X024180Y007940D01*
X024210Y007900D02*
X024210Y005965D01*
X024180Y005940D01*
X026180Y005940D02*
X026190Y005920D01*
X026190Y005560D01*
X026640Y005110D01*
X026640Y003085D01*
X026190Y002635D01*
X026190Y001960D01*
X026180Y001940D01*
X027180Y001940D02*
X027180Y002635D01*
X027630Y003085D01*
X027630Y005110D01*
X027225Y005515D01*
X027225Y005920D01*
X027180Y005940D01*
X027180Y007940D01*
X028170Y007900D02*
X028180Y007940D01*
X028170Y007900D02*
X028170Y005965D01*
X028180Y005940D01*
X028215Y005920D01*
X028215Y005515D01*
X028620Y005110D01*
X028620Y003085D01*
X028215Y002680D01*
X028215Y001960D01*
X028180Y001940D01*
X029180Y001940D02*
X029205Y001960D01*
X029205Y002680D01*
X029610Y003085D01*
X029610Y005155D01*
X029205Y005560D01*
X029205Y005920D01*
X029180Y005940D01*
X029205Y005965D01*
X029205Y007900D01*
X029180Y007940D01*
X030180Y007940D02*
X030195Y007900D01*
X030195Y005965D01*
X030180Y005940D01*
X030195Y005920D01*
X030195Y005560D01*
X030645Y005110D01*
X030645Y003130D01*
X030195Y002680D01*
X030195Y001960D01*
X030180Y001940D01*
X031180Y001940D02*
X031185Y001960D01*
X031185Y002635D01*
X031635Y003085D01*
X031635Y005110D01*
X031185Y005560D01*
X031185Y005920D01*
X031180Y005940D01*
X031185Y005965D01*
X031185Y007900D01*
X031180Y007940D01*
X030735Y008215D02*
X030735Y005380D01*
X031140Y004975D01*
X031180Y004940D01*
X032220Y005515D02*
X032625Y005110D01*
X032625Y003085D01*
X032220Y002680D01*
X032220Y001960D01*
X032180Y001940D01*
X035680Y005440D02*
X035685Y005470D01*
X035685Y006415D01*
X035680Y006440D01*
X036090Y006415D02*
X036090Y006640D01*
X036090Y006415D02*
X036675Y005830D01*
X036675Y005470D01*
X036680Y005440D01*
X032220Y005515D02*
X032220Y005920D01*
X032180Y005940D01*
X030735Y008215D02*
X030330Y008620D01*
X024660Y008620D01*
X026180Y007940D02*
X026190Y007900D01*
X026190Y005965D01*
X026180Y005940D01*
X023175Y007900D02*
X022185Y007900D01*
X020655Y006370D01*
X019980Y006370D01*
X020250Y006910D02*
X015525Y006910D01*
X014625Y006010D01*
X014625Y005740D01*
X014265Y005380D01*
X010980Y005380D01*
X010620Y005020D01*
X010845Y003940D02*
X011160Y003625D01*
X011160Y001960D01*
X011180Y001940D01*
X012150Y001960D02*
X012180Y001940D01*
X012150Y001960D02*
X012150Y002680D01*
X011745Y003085D01*
X011745Y003490D01*
X010170Y003580D02*
X009810Y003940D01*
X010170Y003580D02*
X010170Y001960D01*
X010180Y001940D01*
X009180Y001940D02*
X009180Y003805D01*
X008730Y004255D01*
X008145Y004120D02*
X007830Y004435D01*
X008145Y004120D02*
X008145Y001960D01*
X008180Y001940D01*
X007200Y001960D02*
X007180Y001940D01*
X007200Y001960D02*
X007200Y004345D01*
X007650Y004795D01*
X014400Y006370D02*
X015120Y007090D01*
X020160Y007090D01*
X022950Y009880D01*
X035820Y009880D01*
X036225Y009475D01*
X036675Y009475D01*
X036680Y009440D01*
X035685Y009025D02*
X032490Y009025D01*
X032175Y009340D01*
X022680Y009340D01*
X020250Y006910D01*
X020565Y007765D02*
X018360Y007765D01*
X017685Y008440D01*
X017680Y008440D01*
X017100Y008035D02*
X017100Y008845D01*
X016290Y009655D01*
X016290Y012085D01*
X016200Y012760D02*
X017100Y011860D01*
X017145Y011860D01*
X017415Y012130D01*
X017685Y012130D01*
X018585Y013030D01*
X018585Y013660D01*
X019350Y014425D01*
X023175Y014425D01*
X023180Y014440D01*
X023625Y014875D02*
X015705Y014875D01*
X016180Y013440D02*
X016200Y013435D01*
X017145Y013435D01*
X017180Y013440D01*
X017190Y013435D01*
X018180Y013435D01*
X018180Y013440D01*
X016200Y012760D02*
X015885Y012760D01*
X015210Y013435D01*
X015180Y013440D01*
X017100Y011860D02*
X017100Y011185D01*
X018675Y009610D01*
X018675Y008440D01*
X018680Y008440D01*
X020565Y007765D02*
X022860Y010060D01*
X025155Y010060D01*
X025605Y010510D01*
X025605Y011185D01*
X027630Y013210D01*
X027630Y019915D01*
X027360Y020185D01*
X023985Y020185D01*
X023715Y019915D01*
X023715Y019060D01*
X023220Y018565D01*
X023220Y016450D01*
X023180Y016440D01*
X023985Y016360D02*
X023985Y019240D01*
X024165Y019420D01*
X024180Y019440D01*
X025180Y019440D02*
X025380Y019240D01*
X025380Y016270D01*
X024705Y015595D01*
X024705Y015460D01*
X024680Y015440D01*
X025380Y015505D02*
X025380Y012130D01*
X024210Y010960D01*
X024180Y010940D01*
X025180Y010940D02*
X025200Y010960D01*
X025200Y011680D01*
X027180Y013660D01*
X027180Y019440D01*
X028170Y019420D02*
X028180Y019440D01*
X028170Y019420D02*
X028170Y013480D01*
X026190Y011500D01*
X026190Y010960D01*
X026180Y010940D01*
X027180Y010940D02*
X027180Y012220D01*
X028845Y013885D01*
X028845Y019105D01*
X029180Y019440D01*
X030150Y019420D02*
X030180Y019440D01*
X030150Y019420D02*
X029025Y018295D01*
X029025Y013795D01*
X028215Y012985D01*
X028215Y010960D01*
X028180Y010940D01*
X029180Y010940D02*
X029205Y010960D01*
X029205Y017485D01*
X031140Y019420D01*
X031180Y019440D01*
X032175Y019420D02*
X032180Y019440D01*
X032175Y019420D02*
X030195Y017440D01*
X030195Y010960D01*
X030180Y010940D01*
X031180Y010940D02*
X031185Y010960D01*
X031185Y017440D01*
X033165Y019420D01*
X033180Y019440D01*
X034155Y019420D02*
X034180Y019440D01*
X034155Y019420D02*
X032220Y017485D01*
X032220Y010960D01*
X032180Y010940D01*
X035685Y009025D02*
X036270Y008440D01*
X036680Y008440D01*
X024680Y014440D02*
X024660Y014470D01*
X024030Y014470D01*
X023625Y014875D01*
X023220Y015460D02*
X023180Y015440D01*
X023220Y015460D02*
X023220Y015595D01*
X023985Y016360D01*
X025380Y015505D02*
X026145Y016270D01*
X026145Y016405D01*
X026180Y016440D01*
X021180Y019440D02*
X021150Y019465D01*
X020430Y020185D01*
X019980Y020185D01*
X019620Y019825D01*
X006570Y013615D02*
X005175Y013615D01*
X005175Y012940D01*
X005180Y012940D01*
X005175Y012265D02*
X003915Y012265D01*
X003240Y012940D01*
X003180Y012940D01*
X003195Y012940D01*
X003195Y014425D01*
X003180Y014440D01*
X003510Y015100D02*
X004140Y014470D01*
X004180Y014440D01*
X004185Y014425D01*
X004185Y012940D01*
X004180Y012940D01*
X003195Y012265D02*
X002880Y012265D01*
X002205Y012940D01*
X002180Y012940D01*
X002205Y012985D01*
X002205Y014425D01*
X002180Y014440D01*
X001755Y014830D02*
X002025Y015100D01*
X003510Y015100D01*
X001755Y014830D02*
X001755Y012535D01*
X002025Y012265D01*
X002205Y012265D01*
X002610Y011860D01*
X002610Y011185D01*
X003510Y010285D01*
X006840Y010285D01*
X007965Y011410D01*
X008145Y011410D01*
X008180Y011440D01*
X006180Y011440D02*
X006165Y011455D01*
X005985Y011455D01*
X005175Y012265D01*
X004180Y011440D02*
X004140Y011455D01*
X004005Y011455D01*
X003195Y012265D01*
X003180Y011440D02*
X003195Y011410D01*
X003375Y011410D01*
X004140Y010645D01*
X004950Y010645D01*
X002970Y009835D02*
X012420Y009835D01*
X014670Y009250D02*
X014670Y008440D01*
X014680Y008440D01*
X014715Y008440D01*
X015390Y007765D01*
X015840Y007765D01*
X019170Y005920D02*
X019180Y005940D01*
X019170Y005920D02*
X019170Y005560D01*
X018720Y005110D01*
X021180Y005940D02*
X021195Y005920D01*
X023175Y007900D02*
X023180Y007940D01*
X005175Y013615D02*
X005175Y014425D01*
X005180Y014440D01*
X001935Y010870D02*
X001035Y010870D01*
X000765Y010600D01*
X000765Y010285D01*
X002160Y008890D01*
X002160Y008440D01*
X002180Y008440D01*
X002970Y009835D02*
X001935Y010870D01*
D18*
X004950Y010645D03*
X008325Y009250D03*
X009765Y009070D03*
X009405Y010195D03*
X014310Y009115D03*
X009405Y007405D03*
X009270Y006910D03*
X010395Y006730D03*
X008055Y007630D03*
X014265Y006730D03*
X012375Y003940D03*
X012735Y003490D03*
X011745Y003490D03*
X010845Y003940D03*
X009810Y003940D03*
X008730Y004255D03*
X007830Y004435D03*
X001755Y007360D03*
X006570Y013615D03*
X010800Y013660D03*
X016290Y012085D03*
X018045Y015235D03*
X017595Y015460D03*
X024660Y008620D03*
X016650Y003445D03*
X015615Y003490D03*
X014625Y003490D03*
D19*
X011180Y008440D02*
X011160Y008440D01*
X009990Y009610D01*
X008145Y009610D01*
X007965Y009430D01*
X007965Y008485D01*
X008180Y008440D01*
X007180Y008440D01*
X006180Y008440D01*
X005180Y008440D01*
X004180Y008440D01*
X003180Y008440D01*
X003150Y008485D01*
X001215Y010420D01*
X001180Y010440D01*
X001180Y011440D02*
X001215Y011455D01*
X001530Y011455D01*
X001530Y016810D01*
X002115Y017395D01*
X002180Y017440D01*
X003180Y017440D01*
X004180Y017440D01*
X005180Y017440D01*
X006180Y017440D01*
X007180Y017440D01*
X008180Y017440D01*
X008145Y019420D02*
X007245Y019420D01*
X007180Y019440D01*
X007155Y019420D01*
X006255Y019420D01*
X006180Y019440D01*
X006165Y019420D01*
X005220Y019420D01*
X005180Y019440D01*
X005175Y019420D01*
X004230Y019420D01*
X004180Y019440D01*
X004140Y019420D01*
X003240Y019420D01*
X003180Y019440D01*
X003150Y019420D01*
X002250Y019420D01*
X002180Y019440D01*
X002160Y019420D01*
X001215Y019420D01*
X001180Y019440D01*
X008145Y019420D02*
X008180Y019440D01*
X012680Y017440D02*
X012690Y017440D01*
X012690Y016945D01*
X013140Y016495D01*
X013180Y016440D01*
X013185Y016450D01*
X013635Y016450D01*
X013635Y011500D01*
X013680Y011440D01*
X013680Y011455D01*
X012690Y011455D01*
X012680Y011440D01*
X012690Y010465D02*
X012680Y010440D01*
X012690Y010465D02*
X013590Y010465D01*
X014535Y011410D01*
X014670Y011410D01*
X014680Y011440D01*
X017680Y011440D02*
X017685Y011455D01*
X018675Y011455D01*
X018680Y011440D01*
X018675Y011365D01*
X019620Y010420D01*
X019620Y008485D01*
X019680Y008440D01*
X020655Y008440D01*
X022140Y009925D01*
X022180Y009940D01*
X022180Y010940D02*
X022185Y010960D01*
X023175Y010960D01*
X023180Y010940D01*
X020160Y012940D02*
X018720Y011500D01*
X018680Y011440D01*
X020160Y012940D02*
X020160Y013435D01*
X020180Y013440D01*
X014180Y016440D02*
X014130Y016495D01*
X015525Y017890D01*
X016650Y017890D01*
X018135Y019375D01*
X018180Y019440D01*
X018180Y019420D01*
X019170Y019420D01*
X019180Y019440D01*
X014175Y016450D02*
X013635Y016450D01*
X014175Y016450D02*
X014180Y016440D01*
X002180Y011440D02*
X002160Y011455D01*
X001530Y011455D01*
M02*
