G75*
%MOIN*%
%OFA0B0*%
%FSLAX24Y24*%
%IPPOS*%
%LPD*%
%AMOC8*
5,1,8,0,0,1.08239X$1,22.5*
%
%ADD10R,0.0600X0.2550*%
%ADD11OC8,0.0520*%
%ADD12OC8,0.0600*%
%ADD13C,0.0520*%
%ADD14C,0.0600*%
%ADD15C,0.0560*%
%ADD16OC8,0.0560*%
%ADD17C,0.0100*%
%ADD18C,0.0400*%
%ADD19C,0.0160*%
D10*
X002180Y001940D03*
X003180Y001940D03*
X004180Y001940D03*
X005180Y001940D03*
X006180Y001940D03*
X007180Y001940D03*
X008180Y001940D03*
X009180Y001940D03*
X010180Y001940D03*
X011180Y001940D03*
X012180Y001940D03*
X013180Y001940D03*
X014180Y001940D03*
X015180Y001940D03*
X016180Y001940D03*
X017180Y001940D03*
X018180Y001940D03*
X019180Y001940D03*
X020180Y001940D03*
X021180Y001940D03*
X022180Y001940D03*
X023180Y001940D03*
X024180Y001940D03*
X025180Y001940D03*
X026180Y001940D03*
X027180Y001940D03*
X028180Y001940D03*
X029180Y001940D03*
X030180Y001940D03*
X031180Y001940D03*
X032180Y001940D03*
D11*
X022180Y009940D03*
X022180Y010940D03*
X013180Y015440D03*
X013180Y016440D03*
X012680Y017440D03*
X015680Y017440D03*
X012680Y011440D03*
X012680Y010440D03*
X001180Y010440D03*
X001180Y011440D03*
D12*
X002180Y005940D03*
X003180Y005940D03*
X004180Y005940D03*
X005180Y005940D03*
X006180Y005940D03*
X007180Y005940D03*
X008180Y005940D03*
X009180Y005940D03*
X010180Y005940D03*
X011180Y005940D03*
X012180Y005940D03*
X013180Y005940D03*
X014180Y005940D03*
X015180Y005940D03*
X016180Y005940D03*
X017180Y005940D03*
X018180Y005940D03*
X019180Y005940D03*
X020180Y005940D03*
X021180Y005940D03*
X022180Y005940D03*
X023180Y005940D03*
X024180Y005940D03*
X025180Y005940D03*
X026180Y005940D03*
X027180Y005940D03*
X028180Y005940D03*
X029180Y005940D03*
X030180Y005940D03*
X031180Y005940D03*
X032180Y005940D03*
X032180Y004940D03*
X031180Y004940D03*
X030180Y004940D03*
X029180Y004940D03*
X028180Y004940D03*
X027180Y004940D03*
X026180Y004940D03*
X025180Y004940D03*
X024180Y004940D03*
X023180Y004940D03*
X022180Y004940D03*
X021180Y004940D03*
X020180Y004940D03*
X019180Y004940D03*
X018180Y004940D03*
X017180Y004940D03*
X016180Y004940D03*
X015180Y004940D03*
X014180Y004940D03*
X013180Y004940D03*
X012180Y004940D03*
X011180Y004940D03*
X010180Y004940D03*
X009180Y004940D03*
X008180Y004940D03*
X007180Y004940D03*
X006180Y004940D03*
X005180Y004940D03*
X004180Y004940D03*
X003180Y004940D03*
X002180Y004940D03*
D13*
X002180Y008180D02*
X002180Y008700D01*
X003180Y008700D02*
X003180Y008180D01*
X004180Y008180D02*
X004180Y008700D01*
X005180Y008700D02*
X005180Y008180D01*
X006180Y008180D02*
X006180Y008700D01*
X007180Y008700D02*
X007180Y008180D01*
X008180Y008180D02*
X008180Y008700D01*
X009180Y008700D02*
X009180Y008180D01*
X010180Y008180D02*
X010180Y008700D01*
X011180Y008700D02*
X011180Y008180D01*
X013680Y008180D02*
X013680Y008700D01*
X014680Y008700D02*
X014680Y008180D01*
X015680Y008180D02*
X015680Y008700D01*
X016680Y008700D02*
X016680Y008180D01*
X017680Y008180D02*
X017680Y008700D01*
X018680Y008700D02*
X018680Y008180D01*
X019680Y008180D02*
X019680Y008700D01*
X023180Y008200D02*
X023180Y007680D01*
X024180Y007680D02*
X024180Y008200D01*
X025180Y008200D02*
X025180Y007680D01*
X026180Y007680D02*
X026180Y008200D01*
X027180Y008200D02*
X027180Y007680D01*
X028180Y007680D02*
X028180Y008200D01*
X029180Y008200D02*
X029180Y007680D01*
X030180Y007680D02*
X030180Y008200D01*
X031180Y008200D02*
X031180Y007680D01*
X032180Y007680D02*
X032180Y008200D01*
X032180Y010680D02*
X032180Y011200D01*
X031180Y011200D02*
X031180Y010680D01*
X030180Y010680D02*
X030180Y011200D01*
X029180Y011200D02*
X029180Y010680D01*
X028180Y010680D02*
X028180Y011200D01*
X027180Y011200D02*
X027180Y010680D01*
X026180Y010680D02*
X026180Y011200D01*
X025180Y011200D02*
X025180Y010680D01*
X024180Y010680D02*
X024180Y011200D01*
X023180Y011200D02*
X023180Y010680D01*
X019680Y011180D02*
X019680Y011700D01*
X018680Y011700D02*
X018680Y011180D01*
X017680Y011180D02*
X017680Y011700D01*
X016680Y011700D02*
X016680Y011180D01*
X015680Y011180D02*
X015680Y011700D01*
X014680Y011700D02*
X014680Y011180D01*
X013680Y011180D02*
X013680Y011700D01*
X011180Y011700D02*
X011180Y011180D01*
X010180Y011180D02*
X010180Y011700D01*
X009180Y011700D02*
X009180Y011180D01*
X008180Y011180D02*
X008180Y011700D01*
X007180Y011700D02*
X007180Y011180D01*
X006180Y011180D02*
X006180Y011700D01*
X005180Y011700D02*
X005180Y011180D01*
X004180Y011180D02*
X004180Y011700D01*
X003180Y011700D02*
X003180Y011180D01*
X002180Y011180D02*
X002180Y011700D01*
X002180Y012680D02*
X002180Y013200D01*
X003180Y013200D02*
X003180Y012680D01*
X004180Y012680D02*
X004180Y013200D01*
X005180Y013200D02*
X005180Y012680D01*
X006180Y012680D02*
X006180Y013200D01*
X007180Y013200D02*
X007180Y012680D01*
X008180Y012680D02*
X008180Y013200D01*
X009180Y013200D02*
X009180Y012680D01*
X010180Y012680D02*
X010180Y013200D01*
X009180Y014180D02*
X009180Y014700D01*
X008180Y014700D02*
X008180Y014180D01*
X007180Y014180D02*
X007180Y014700D01*
X006180Y014700D02*
X006180Y014180D01*
X005180Y014180D02*
X005180Y014700D01*
X004180Y014700D02*
X004180Y014180D01*
X003180Y014180D02*
X003180Y014700D01*
X002180Y014700D02*
X002180Y014180D01*
X002180Y017180D02*
X002180Y017700D01*
X003180Y017700D02*
X003180Y017180D01*
X004180Y017180D02*
X004180Y017700D01*
X005180Y017700D02*
X005180Y017180D01*
X006180Y017180D02*
X006180Y017700D01*
X007180Y017700D02*
X007180Y017180D01*
X008180Y017180D02*
X008180Y017700D01*
X009180Y017700D02*
X009180Y017180D01*
X014180Y016700D02*
X014180Y016180D01*
X015180Y016180D02*
X015180Y016700D01*
X016180Y016700D02*
X016180Y016180D01*
X017180Y016180D02*
X017180Y016700D01*
X018180Y016700D02*
X018180Y016180D01*
X019180Y016180D02*
X019180Y016700D01*
X020180Y016700D02*
X020180Y016180D01*
X020180Y013700D02*
X020180Y013180D01*
X019180Y013180D02*
X019180Y013700D01*
X018180Y013700D02*
X018180Y013180D01*
X017180Y013180D02*
X017180Y013700D01*
X016180Y013700D02*
X016180Y013180D01*
X015180Y013180D02*
X015180Y013700D01*
X014180Y013700D02*
X014180Y013180D01*
D14*
X014180Y019140D02*
X014180Y019740D01*
X013180Y019740D02*
X013180Y019140D01*
X012180Y019140D02*
X012180Y019740D01*
X011180Y019740D02*
X011180Y019140D01*
X010180Y019140D02*
X010180Y019740D01*
X009180Y019740D02*
X009180Y019140D01*
X008180Y019140D02*
X008180Y019740D01*
X007180Y019740D02*
X007180Y019140D01*
X006180Y019140D02*
X006180Y019740D01*
X005180Y019740D02*
X005180Y019140D01*
X004180Y019140D02*
X004180Y019740D01*
X003180Y019740D02*
X003180Y019140D01*
X002180Y019140D02*
X002180Y019740D01*
X001180Y019740D02*
X001180Y019140D01*
X015180Y019140D02*
X015180Y019740D01*
X016180Y019740D02*
X016180Y019140D01*
X017180Y019140D02*
X017180Y019740D01*
X018180Y019740D02*
X018180Y019140D01*
X019180Y019140D02*
X019180Y019740D01*
X020180Y019740D02*
X020180Y019140D01*
X021180Y019140D02*
X021180Y019740D01*
X022180Y019740D02*
X022180Y019140D01*
X023180Y019140D02*
X023180Y019740D01*
X024180Y019740D02*
X024180Y019140D01*
X025180Y019140D02*
X025180Y019740D01*
X026180Y019740D02*
X026180Y019140D01*
X027180Y019140D02*
X027180Y019740D01*
X028180Y019740D02*
X028180Y019140D01*
X029180Y019140D02*
X029180Y019740D01*
X030180Y019740D02*
X030180Y019140D01*
X031180Y019140D02*
X031180Y019740D01*
X032180Y019740D02*
X032180Y019140D01*
X033180Y019140D02*
X033180Y019740D01*
X034180Y019740D02*
X034180Y019140D01*
X035180Y019140D02*
X035180Y019740D01*
X036180Y019740D02*
X036180Y019140D01*
X037180Y019140D02*
X037180Y019740D01*
X038180Y019740D02*
X038180Y019140D01*
X039180Y019140D02*
X039180Y019740D01*
X040180Y019740D02*
X040180Y019140D01*
D15*
X026460Y016440D02*
X025900Y016440D01*
X024960Y016440D02*
X024400Y016440D01*
X023460Y016440D02*
X022900Y016440D01*
X022900Y015440D02*
X023460Y015440D01*
X024400Y015440D02*
X024960Y015440D01*
X025900Y015440D02*
X026460Y015440D01*
X026460Y014440D02*
X025900Y014440D01*
X024960Y014440D02*
X024400Y014440D01*
X023460Y014440D02*
X022900Y014440D01*
D16*
X035680Y009440D03*
X036680Y009440D03*
X036680Y008440D03*
X035680Y008440D03*
X035680Y007440D03*
X036680Y007440D03*
X036680Y006440D03*
X035680Y006440D03*
X035680Y005440D03*
X036680Y005440D03*
D17*
X036680Y006440D02*
X036675Y006460D01*
X036675Y006865D01*
X036090Y007450D01*
X036090Y009610D01*
X026640Y019060D01*
X026640Y019915D01*
X026370Y020185D01*
X023985Y020185D01*
X023625Y019825D01*
X023625Y018970D01*
X021960Y017305D01*
X016200Y017305D01*
X015570Y016675D01*
X015570Y015685D01*
X013095Y013210D01*
X013095Y007495D01*
X011610Y006010D01*
X011610Y005380D01*
X011205Y004975D01*
X011180Y004940D01*
X011205Y004930D01*
X011205Y001960D01*
X011180Y001940D01*
X010180Y001940D02*
X010170Y001960D01*
X010170Y004930D01*
X010180Y004940D01*
X009810Y004660D02*
X009720Y004750D01*
X009720Y005470D01*
X010170Y005920D01*
X010180Y005940D01*
X010215Y005965D01*
X009270Y006910D01*
X008910Y007045D02*
X008910Y006235D01*
X009180Y005965D01*
X009180Y005940D01*
X009135Y005920D01*
X008730Y005515D01*
X008730Y004255D01*
X007830Y004435D02*
X007830Y004660D01*
X007740Y004750D01*
X007740Y005515D01*
X008145Y005920D01*
X008180Y005940D01*
X008190Y005965D01*
X008190Y006685D01*
X009270Y007765D01*
X010350Y007765D01*
X010575Y007990D01*
X010575Y008665D01*
X011160Y009250D01*
X011160Y011410D01*
X011180Y011440D01*
X010180Y011440D02*
X010170Y011455D01*
X010170Y012130D01*
X009585Y012715D01*
X009585Y013390D01*
X009360Y013615D01*
X006570Y013615D01*
X006210Y012985D02*
X006180Y012940D01*
X006210Y012940D01*
X006885Y012265D01*
X009180Y012265D01*
X009585Y011860D01*
X009585Y011185D01*
X010170Y010600D01*
X010170Y008440D01*
X010180Y008440D01*
X009765Y009070D02*
X009765Y010330D01*
X009180Y010915D01*
X009180Y011440D01*
X007200Y011410D02*
X007200Y010375D01*
X008325Y009250D01*
X008595Y008710D02*
X008595Y007675D01*
X007290Y006370D01*
X005625Y006370D01*
X005220Y005965D01*
X005180Y005940D01*
X004590Y006370D02*
X004185Y005965D01*
X004180Y005940D01*
X004590Y006370D02*
X004590Y014695D01*
X004995Y015100D01*
X005670Y015100D01*
X007605Y017035D01*
X007605Y017710D01*
X008010Y018115D01*
X012780Y018115D01*
X014085Y019420D01*
X014175Y019420D01*
X014180Y019440D01*
X014355Y020185D02*
X015075Y019465D01*
X015165Y019465D01*
X015180Y019440D01*
X016065Y019465D02*
X015165Y020365D01*
X008190Y020365D01*
X007650Y019825D01*
X007650Y018970D01*
X007155Y018475D01*
X006390Y018475D01*
X005580Y017665D01*
X005580Y016990D01*
X003690Y015100D01*
X003015Y015100D01*
X002610Y014695D01*
X002610Y014020D01*
X002205Y013615D01*
X002025Y013615D01*
X001575Y013165D01*
X001575Y007675D01*
X001395Y007495D01*
X001395Y006730D01*
X002160Y005965D01*
X002180Y005940D01*
X003180Y004940D02*
X003195Y004930D01*
X003195Y001960D01*
X003180Y001940D01*
X005175Y001960D02*
X005180Y001940D01*
X005175Y001960D02*
X005175Y004930D01*
X005180Y004940D01*
X006165Y004930D02*
X006180Y004940D01*
X006165Y004930D02*
X006165Y001960D01*
X006180Y001940D01*
X007180Y001940D02*
X007200Y001960D01*
X007200Y004930D01*
X007180Y004940D01*
X008180Y004940D02*
X008190Y004930D01*
X008190Y001960D01*
X008180Y001940D01*
X009180Y001940D02*
X009180Y004940D01*
X009810Y004660D02*
X009810Y003940D01*
X010845Y003940D02*
X010845Y004660D01*
X010710Y004795D01*
X010710Y005470D01*
X011180Y005940D01*
X011160Y005965D01*
X010395Y006730D01*
X009270Y007405D02*
X008910Y007045D01*
X009270Y007405D02*
X009405Y007405D01*
X009180Y007945D02*
X007200Y005965D01*
X007180Y005940D01*
X008055Y007630D02*
X007785Y007900D01*
X007785Y008665D01*
X005220Y011230D01*
X005220Y011410D01*
X005180Y011440D01*
X004770Y011005D02*
X004770Y013345D01*
X005175Y013750D01*
X005310Y013750D01*
X005760Y014200D01*
X005760Y014875D01*
X005985Y015100D01*
X009360Y015100D01*
X010800Y013660D01*
X013275Y011860D02*
X013545Y012130D01*
X013725Y012130D01*
X014580Y012985D01*
X014580Y013660D01*
X016605Y015685D01*
X016605Y016720D01*
X017010Y017125D01*
X023355Y017125D01*
X024030Y016450D01*
X024660Y016450D01*
X024680Y016440D01*
X025470Y016270D02*
X025470Y018745D01*
X026145Y019420D01*
X026180Y019440D01*
X022180Y019440D02*
X022140Y019420D01*
X020205Y017485D01*
X015750Y017485D01*
X015705Y017440D01*
X015680Y017440D01*
X017180Y016440D02*
X017190Y016405D01*
X017370Y016405D01*
X018900Y014875D01*
X030240Y014875D01*
X035640Y009475D01*
X035680Y009440D01*
X035685Y009430D01*
X035685Y008440D01*
X035680Y008440D01*
X035685Y008395D01*
X035685Y007450D01*
X035680Y007440D01*
X035685Y007405D01*
X035685Y006460D01*
X035680Y006440D01*
X031185Y004930D02*
X031180Y004940D01*
X031185Y004930D02*
X031185Y001960D01*
X031180Y001940D01*
X029205Y001960D02*
X029180Y001940D01*
X029205Y001960D02*
X029205Y004930D01*
X029180Y004940D01*
X028180Y004940D02*
X028170Y004930D01*
X028170Y001960D01*
X028180Y001940D01*
X027180Y001940D02*
X027180Y004940D01*
X026190Y004930D02*
X026180Y004940D01*
X026190Y004930D02*
X026190Y001960D01*
X026180Y001940D01*
X025200Y001960D02*
X025180Y001940D01*
X025200Y001960D02*
X025200Y004930D01*
X025180Y004940D01*
X024180Y004940D02*
X024165Y004930D01*
X024165Y001960D01*
X024180Y001940D01*
X022185Y001960D02*
X022180Y001940D01*
X022185Y001960D02*
X022185Y004930D01*
X022180Y004940D01*
X021195Y004930D02*
X021180Y004940D01*
X021195Y004930D02*
X021195Y001960D01*
X021180Y001940D01*
X020205Y001960D02*
X020180Y001940D01*
X020205Y001960D02*
X020205Y004930D01*
X020180Y004940D01*
X020160Y004975D01*
X019710Y005425D01*
X019710Y006055D01*
X017685Y008080D01*
X017685Y008440D01*
X017680Y008440D01*
X019845Y009115D02*
X022140Y006820D01*
X022140Y005965D01*
X022180Y005940D01*
X019170Y004975D02*
X019180Y004940D01*
X019170Y004930D01*
X019170Y001960D01*
X019180Y001940D01*
X018180Y001940D02*
X018180Y004940D01*
X018090Y005380D02*
X018765Y005380D01*
X019170Y004975D01*
X018090Y005380D02*
X017730Y005740D01*
X017730Y006010D01*
X017370Y006370D01*
X015930Y006370D01*
X013860Y008440D01*
X013680Y008440D01*
X013680Y008485D01*
X013275Y008890D01*
X013275Y011860D01*
X016290Y012085D02*
X016605Y012400D01*
X016605Y013705D01*
X017595Y014695D01*
X017595Y015460D01*
X018045Y015235D02*
X018045Y014425D01*
X018765Y013705D01*
X018765Y013030D01*
X019665Y012130D01*
X021555Y012130D01*
X022770Y010915D01*
X022770Y010510D01*
X024660Y008620D01*
X024180Y010940D02*
X024165Y010960D01*
X023985Y010960D01*
X022185Y012760D01*
X019890Y012760D01*
X019215Y013435D01*
X019180Y013440D01*
X025470Y016270D02*
X026145Y015595D01*
X026145Y015460D01*
X026180Y015440D01*
X016180Y019440D02*
X016155Y019465D01*
X016065Y019465D01*
X014355Y020185D02*
X009000Y020185D01*
X008640Y019825D01*
X008640Y018970D01*
X007965Y018295D01*
X007200Y018295D01*
X006570Y017665D01*
X006570Y016990D01*
X004680Y015100D01*
X004005Y015100D01*
X003600Y014695D01*
X003600Y014020D01*
X003195Y013615D01*
X003015Y013615D01*
X002610Y013210D01*
X002610Y012535D01*
X002205Y012130D01*
X002025Y012130D01*
X001755Y011860D01*
X001755Y007360D01*
X004950Y010645D02*
X004950Y010825D01*
X004770Y011005D01*
X007180Y011440D02*
X007200Y011410D01*
X009405Y010195D02*
X009405Y009520D01*
X008595Y008710D01*
X009180Y008440D02*
X009180Y007945D01*
X012150Y005920D02*
X012180Y005940D01*
X012150Y005920D02*
X012150Y005560D01*
X011745Y005155D01*
X011745Y003490D01*
X012195Y003715D02*
X012375Y003895D01*
X012375Y003940D01*
X012375Y004750D01*
X012195Y004930D01*
X012180Y004940D01*
X012735Y005110D02*
X012735Y003490D01*
X012195Y003715D02*
X012195Y001960D01*
X012180Y001940D01*
X013180Y001940D02*
X013185Y001960D01*
X013185Y004930D01*
X013180Y004940D01*
X013185Y004975D01*
X013635Y005425D01*
X013635Y006010D01*
X014265Y006640D01*
X014265Y006730D01*
X014180Y005940D02*
X014220Y005920D01*
X014220Y005515D01*
X014625Y005110D01*
X014625Y003490D01*
X015615Y003490D02*
X015615Y005155D01*
X015210Y005560D01*
X015210Y005920D01*
X015180Y005940D01*
X016180Y005940D02*
X016200Y005920D01*
X016200Y005560D01*
X016650Y005110D01*
X016650Y003445D01*
X016200Y001960D02*
X016180Y001940D01*
X016200Y001960D02*
X016200Y004930D01*
X016180Y004940D01*
X017180Y004940D02*
X017190Y004930D01*
X017190Y001960D01*
X017180Y001940D01*
X015180Y001940D02*
X015165Y001960D01*
X015165Y004930D01*
X015180Y004940D01*
X014180Y004940D02*
X014175Y004930D01*
X014175Y001960D01*
X014180Y001940D01*
X012735Y005110D02*
X013140Y005515D01*
X013140Y005920D01*
X013180Y005940D01*
X014310Y009115D02*
X019845Y009115D01*
X006210Y012985D02*
X006210Y014425D01*
X006180Y014440D01*
D18*
X006570Y013615D03*
X010800Y013660D03*
X016290Y012085D03*
X014310Y009115D03*
X009765Y009070D03*
X008325Y009250D03*
X009405Y010195D03*
X004950Y010645D03*
X008055Y007630D03*
X009405Y007405D03*
X009270Y006910D03*
X010395Y006730D03*
X014265Y006730D03*
X012375Y003940D03*
X012735Y003490D03*
X011745Y003490D03*
X010845Y003940D03*
X009810Y003940D03*
X008730Y004255D03*
X007830Y004435D03*
X001755Y007360D03*
X014625Y003490D03*
X015615Y003490D03*
X016650Y003445D03*
X024660Y008620D03*
X018045Y015235D03*
X017595Y015460D03*
D19*
X017266Y015607D02*
X016815Y015607D01*
X016815Y015598D02*
X016815Y015964D01*
X016824Y015942D01*
X016942Y015824D01*
X017096Y015760D01*
X017264Y015760D01*
X017418Y015824D01*
X017536Y015942D01*
X017658Y015820D01*
X017523Y015820D01*
X017391Y015765D01*
X017290Y015664D01*
X017235Y015532D01*
X017235Y015388D01*
X017290Y015256D01*
X017385Y015161D01*
X017385Y014782D01*
X016537Y013934D01*
X016536Y013938D01*
X016418Y014056D01*
X016264Y014120D01*
X016096Y014120D01*
X015942Y014056D01*
X015824Y013938D01*
X015760Y013784D01*
X015760Y013096D01*
X015824Y012942D01*
X015942Y012824D01*
X016096Y012760D01*
X016264Y012760D01*
X016395Y012814D01*
X016395Y012487D01*
X016353Y012445D01*
X016218Y012445D01*
X016086Y012390D01*
X015985Y012289D01*
X015930Y012157D01*
X015930Y012062D01*
X015911Y012076D01*
X015849Y012108D01*
X015783Y012129D01*
X015715Y012140D01*
X015680Y012140D01*
X015680Y011440D01*
X015750Y011410D01*
X015840Y011410D01*
X016515Y010735D01*
X016965Y010735D01*
X017640Y011410D01*
X017680Y011440D01*
X018120Y011440D01*
X018120Y011735D01*
X018109Y011803D01*
X018251Y011803D01*
X018240Y011735D01*
X018240Y011440D01*
X018680Y011440D01*
X019120Y011440D01*
X019120Y011735D01*
X019109Y011803D01*
X019268Y011803D01*
X019260Y011784D02*
X019260Y011096D01*
X019324Y010942D01*
X019442Y010824D01*
X019550Y010779D01*
X019476Y010705D01*
X014724Y010705D01*
X014689Y010740D01*
X014715Y010740D01*
X014783Y010751D01*
X014849Y010772D01*
X014911Y010804D01*
X014967Y010844D01*
X015016Y010893D01*
X015056Y010949D01*
X015088Y011011D01*
X015109Y011077D01*
X015120Y011145D01*
X015120Y011440D01*
X015120Y011735D01*
X015109Y011803D01*
X015251Y011803D01*
X015240Y011735D01*
X015240Y011440D01*
X015680Y011440D01*
X015660Y011455D01*
X014715Y011455D01*
X014680Y011440D01*
X014680Y011440D01*
X014680Y012140D01*
X014715Y012140D01*
X014783Y012129D01*
X014849Y012108D01*
X014911Y012076D01*
X014967Y012036D01*
X015016Y011987D01*
X015056Y011931D01*
X015088Y011869D01*
X015109Y011803D01*
X015251Y011803D02*
X015272Y011869D01*
X015304Y011931D01*
X015344Y011987D01*
X015393Y012036D01*
X015449Y012076D01*
X015511Y012108D01*
X015577Y012129D01*
X015645Y012140D01*
X015680Y012140D01*
X015680Y011440D01*
X016120Y011440D01*
X016120Y011735D01*
X016115Y011768D01*
X016218Y011725D01*
X016260Y011725D01*
X016260Y011096D01*
X016324Y010942D01*
X016442Y010824D01*
X016596Y010760D01*
X016764Y010760D01*
X016918Y010824D01*
X017036Y010942D01*
X017100Y011096D01*
X017100Y011784D01*
X017036Y011938D01*
X016918Y012056D01*
X016764Y012120D01*
X016650Y012120D01*
X016650Y012148D01*
X016815Y012313D01*
X016815Y012964D01*
X016824Y012942D01*
X016942Y012824D01*
X017096Y012760D01*
X017264Y012760D01*
X017418Y012824D01*
X017536Y012942D01*
X017600Y013096D01*
X017600Y013784D01*
X017536Y013938D01*
X017418Y014056D01*
X017301Y014104D01*
X017805Y014608D01*
X017805Y014966D01*
X017835Y014936D01*
X017835Y014338D01*
X018066Y014107D01*
X017942Y014056D01*
X017824Y013938D01*
X017760Y013784D01*
X017760Y013096D01*
X017824Y012942D01*
X017942Y012824D01*
X018096Y012760D01*
X018264Y012760D01*
X018418Y012824D01*
X018536Y012942D01*
X018555Y012988D01*
X018555Y012943D01*
X019442Y012056D01*
X019324Y011938D01*
X019260Y011784D01*
X019260Y011645D02*
X019120Y011645D01*
X019109Y011803D02*
X019088Y011869D01*
X019056Y011931D01*
X019016Y011987D01*
X018967Y012036D01*
X018911Y012076D01*
X018849Y012108D01*
X018783Y012129D01*
X018715Y012140D01*
X018680Y012140D01*
X018680Y011440D01*
X018680Y011440D01*
X018680Y011440D01*
X019120Y011440D01*
X019120Y011145D01*
X019109Y011077D01*
X019088Y011011D01*
X019056Y010949D01*
X019016Y010893D01*
X018967Y010844D01*
X018911Y010804D01*
X018849Y010772D01*
X018783Y010751D01*
X018715Y010740D01*
X018680Y010740D01*
X018680Y011440D01*
X018680Y011440D01*
X018680Y011440D01*
X018680Y012140D01*
X018645Y012140D01*
X018577Y012129D01*
X018511Y012108D01*
X018449Y012076D01*
X018393Y012036D01*
X018344Y011987D01*
X018304Y011931D01*
X018272Y011869D01*
X018251Y011803D01*
X018109Y011803D02*
X018088Y011869D01*
X018056Y011931D01*
X018016Y011987D01*
X017967Y012036D01*
X017911Y012076D01*
X017849Y012108D01*
X017783Y012129D01*
X017715Y012140D01*
X017680Y012140D01*
X017680Y011440D01*
X017680Y011440D01*
X017680Y011440D01*
X018120Y011440D01*
X018120Y011145D01*
X018109Y011077D01*
X018088Y011011D01*
X018056Y010949D01*
X018016Y010893D01*
X017967Y010844D01*
X017911Y010804D01*
X017849Y010772D01*
X017783Y010751D01*
X017715Y010740D01*
X017680Y010740D01*
X017680Y011440D01*
X017680Y011440D01*
X017680Y011440D01*
X017240Y011440D01*
X017240Y011735D01*
X017251Y011803D01*
X017092Y011803D01*
X017100Y011645D02*
X017240Y011645D01*
X017251Y011803D02*
X017272Y011869D01*
X017304Y011931D01*
X017344Y011987D01*
X017393Y012036D01*
X017449Y012076D01*
X017511Y012108D01*
X017577Y012129D01*
X017645Y012140D01*
X017680Y012140D01*
X017680Y011440D01*
X017680Y010740D01*
X017645Y010740D01*
X017577Y010751D01*
X017511Y010772D01*
X017449Y010804D01*
X017393Y010844D01*
X017344Y010893D01*
X017304Y010949D01*
X017272Y011011D01*
X017251Y011077D01*
X017240Y011145D01*
X017240Y011440D01*
X017680Y011440D01*
X017680Y011486D02*
X017680Y011486D01*
X017680Y011328D02*
X017680Y011328D01*
X017680Y011169D02*
X017680Y011169D01*
X017680Y011011D02*
X017680Y011011D01*
X017680Y010852D02*
X017680Y010852D01*
X017974Y010852D02*
X018386Y010852D01*
X018393Y010844D02*
X018449Y010804D01*
X018511Y010772D01*
X018577Y010751D01*
X018645Y010740D01*
X018680Y010740D01*
X018680Y011440D01*
X018240Y011440D01*
X018240Y011145D01*
X018251Y011077D01*
X018272Y011011D01*
X018304Y010949D01*
X018344Y010893D01*
X018393Y010844D01*
X018273Y011011D02*
X018087Y011011D01*
X018120Y011169D02*
X018240Y011169D01*
X018240Y011328D02*
X018120Y011328D01*
X018120Y011486D02*
X018240Y011486D01*
X018240Y011645D02*
X018120Y011645D01*
X018034Y011962D02*
X018326Y011962D01*
X018549Y012120D02*
X017811Y012120D01*
X017680Y012120D02*
X017680Y012120D01*
X017549Y012120D02*
X016650Y012120D01*
X016781Y012279D02*
X019219Y012279D01*
X019061Y012437D02*
X016815Y012437D01*
X016815Y012596D02*
X018902Y012596D01*
X018744Y012754D02*
X016815Y012754D01*
X016815Y012913D02*
X016854Y012913D01*
X016395Y012754D02*
X014646Y012754D01*
X014790Y012898D02*
X014790Y013024D01*
X014824Y012942D01*
X014942Y012824D01*
X015096Y012760D01*
X015264Y012760D01*
X015418Y012824D01*
X015536Y012942D01*
X015600Y013096D01*
X015600Y013784D01*
X015536Y013938D01*
X015418Y014056D01*
X015315Y014098D01*
X016815Y015598D01*
X016815Y015766D02*
X017083Y015766D01*
X017277Y015766D02*
X017392Y015766D01*
X017518Y015924D02*
X017554Y015924D01*
X017235Y015449D02*
X016666Y015449D01*
X016507Y015290D02*
X017276Y015290D01*
X017385Y015132D02*
X016349Y015132D01*
X016190Y014973D02*
X017385Y014973D01*
X017385Y014815D02*
X016032Y014815D01*
X015873Y014656D02*
X017259Y014656D01*
X017101Y014498D02*
X015715Y014498D01*
X015556Y014339D02*
X016942Y014339D01*
X016784Y014181D02*
X015398Y014181D01*
X015452Y014022D02*
X015908Y014022D01*
X015793Y013864D02*
X015567Y013864D01*
X015600Y013705D02*
X015760Y013705D01*
X015760Y013547D02*
X015600Y013547D01*
X015600Y013388D02*
X015760Y013388D01*
X015760Y013230D02*
X015600Y013230D01*
X015589Y013071D02*
X015771Y013071D01*
X015854Y012913D02*
X015506Y012913D01*
X014854Y012913D02*
X014790Y012913D01*
X014790Y012898D02*
X013935Y012043D01*
X013933Y012041D01*
X014036Y011938D01*
X014100Y011784D01*
X014100Y011329D01*
X014240Y011189D01*
X014240Y011440D01*
X014680Y011440D01*
X015120Y011440D01*
X014680Y011440D01*
X014680Y011440D01*
X014680Y011440D01*
X014680Y012140D01*
X014645Y012140D01*
X014577Y012129D01*
X014511Y012108D01*
X014449Y012076D01*
X014393Y012036D01*
X014344Y011987D01*
X014304Y011931D01*
X014272Y011869D01*
X014251Y011803D01*
X014092Y011803D01*
X014100Y011645D02*
X014240Y011645D01*
X014240Y011735D02*
X014240Y011440D01*
X014680Y011440D01*
X014680Y011486D02*
X014680Y011486D01*
X014680Y011645D02*
X014680Y011645D01*
X014680Y011803D02*
X014680Y011803D01*
X014680Y011962D02*
X014680Y011962D01*
X014680Y012120D02*
X014680Y012120D01*
X014811Y012120D02*
X015549Y012120D01*
X015680Y012120D02*
X015680Y012120D01*
X015811Y012120D02*
X015930Y012120D01*
X015980Y012279D02*
X014171Y012279D01*
X014329Y012437D02*
X016199Y012437D01*
X016395Y012596D02*
X014488Y012596D01*
X014549Y012120D02*
X014012Y012120D01*
X014012Y011962D02*
X014326Y011962D01*
X014251Y011803D02*
X014240Y011735D01*
X014240Y011486D02*
X014100Y011486D01*
X014102Y011328D02*
X014240Y011328D01*
X013680Y011410D02*
X013680Y011440D01*
X013680Y011410D02*
X014625Y010465D01*
X019575Y010465D01*
X020025Y010915D01*
X022140Y010915D01*
X022180Y010940D01*
X021851Y010675D02*
X022006Y010520D01*
X022354Y010520D01*
X022560Y010726D01*
X022560Y010423D01*
X024300Y008683D01*
X024300Y008605D01*
X024264Y008620D01*
X024096Y008620D01*
X023942Y008556D01*
X023824Y008438D01*
X023760Y008284D01*
X023760Y007596D01*
X023824Y007442D01*
X023942Y007324D01*
X024096Y007260D01*
X024264Y007260D01*
X024418Y007324D01*
X024536Y007442D01*
X024600Y007596D01*
X024600Y008260D01*
X024732Y008260D01*
X024760Y008272D01*
X024760Y007596D01*
X024824Y007442D01*
X024942Y007324D01*
X025096Y007260D01*
X025264Y007260D01*
X025418Y007324D01*
X025495Y007401D01*
X025874Y007022D01*
X025962Y006985D01*
X026451Y006985D01*
X027036Y006400D01*
X026989Y006400D01*
X026720Y006131D01*
X026720Y005749D01*
X026989Y005480D01*
X027371Y005480D01*
X027506Y005615D01*
X027539Y005582D01*
X027854Y005267D01*
X027855Y005266D01*
X027720Y005131D01*
X027720Y004749D01*
X027960Y004509D01*
X027960Y003940D01*
X027390Y003940D01*
X027390Y004499D01*
X027640Y004749D01*
X027640Y005131D01*
X027371Y005400D01*
X026989Y005400D01*
X026720Y005131D01*
X026720Y004749D01*
X026970Y004499D01*
X026970Y003940D01*
X026400Y003940D01*
X026400Y004509D01*
X026640Y004749D01*
X026640Y005131D01*
X026371Y005400D01*
X025989Y005400D01*
X025720Y005131D01*
X025720Y004749D01*
X025980Y004489D01*
X025980Y003940D01*
X025410Y003940D01*
X025410Y004519D01*
X025640Y004749D01*
X025640Y005131D01*
X025371Y005400D01*
X024989Y005400D01*
X024720Y005131D01*
X024720Y004749D01*
X024989Y004480D01*
X024990Y004480D01*
X024990Y003940D01*
X024375Y003940D01*
X024375Y004484D01*
X024640Y004749D01*
X024640Y005131D01*
X024371Y005400D01*
X023989Y005400D01*
X023720Y005131D01*
X023720Y004749D01*
X023955Y004514D01*
X023955Y003940D01*
X022395Y003940D01*
X022395Y004504D01*
X022640Y004749D01*
X022640Y005131D01*
X022371Y005400D01*
X021989Y005400D01*
X021720Y005131D01*
X021720Y004749D01*
X021975Y004494D01*
X021975Y003940D01*
X021405Y003940D01*
X021405Y004514D01*
X021640Y004749D01*
X021640Y005131D01*
X021371Y005400D01*
X020989Y005400D01*
X020720Y005131D01*
X020720Y004749D01*
X020985Y004484D01*
X020985Y003940D01*
X020415Y003940D01*
X020415Y004524D01*
X020640Y004749D01*
X020640Y005131D01*
X020371Y005400D01*
X020032Y005400D01*
X019920Y005512D01*
X019920Y005549D01*
X019989Y005480D01*
X020371Y005480D01*
X020640Y005749D01*
X020640Y006131D01*
X020371Y006400D01*
X019989Y006400D01*
X019826Y006236D01*
X019797Y006265D01*
X018061Y008001D01*
X018100Y008096D01*
X018100Y008784D01*
X018050Y008905D01*
X018310Y008905D01*
X018260Y008784D01*
X018260Y008096D01*
X018324Y007942D01*
X018442Y007824D01*
X018596Y007760D01*
X018764Y007760D01*
X018918Y007824D01*
X019036Y007942D01*
X019100Y008096D01*
X019100Y008784D01*
X019050Y008905D01*
X019291Y008905D01*
X019272Y008869D01*
X019251Y008803D01*
X019240Y008735D01*
X019240Y008440D01*
X019680Y008440D01*
X020120Y008440D01*
X020120Y008543D01*
X021930Y006733D01*
X021930Y006341D01*
X021720Y006131D01*
X021720Y005749D01*
X021989Y005480D01*
X022371Y005480D01*
X022640Y005749D01*
X022640Y006131D01*
X022371Y006400D01*
X022350Y006400D01*
X022350Y006907D01*
X022227Y007030D01*
X019932Y009325D01*
X014609Y009325D01*
X014514Y009420D01*
X014382Y009475D01*
X014238Y009475D01*
X014106Y009420D01*
X014005Y009319D01*
X013950Y009187D01*
X013950Y009043D01*
X013964Y009010D01*
X013918Y009056D01*
X013764Y009120D01*
X013596Y009120D01*
X013485Y009074D01*
X013485Y010806D01*
X013596Y010760D01*
X013764Y010760D01*
X013918Y010824D01*
X013922Y010828D01*
X014489Y010262D01*
X014577Y010225D01*
X019623Y010225D01*
X019711Y010262D01*
X019778Y010329D01*
X020124Y010675D01*
X021851Y010675D01*
X021991Y010535D02*
X019984Y010535D01*
X019826Y010377D02*
X021994Y010377D01*
X021998Y010380D02*
X021740Y010122D01*
X021740Y009940D01*
X022180Y009940D01*
X022185Y009925D01*
X022680Y009430D01*
X022680Y005785D01*
X023175Y005290D01*
X023175Y005020D01*
X023180Y004940D01*
X023175Y004930D01*
X023175Y001960D01*
X023180Y001940D01*
X023955Y004037D02*
X022395Y004037D01*
X022395Y004195D02*
X023955Y004195D01*
X023955Y004354D02*
X022395Y004354D01*
X022403Y004512D02*
X022929Y004512D01*
X022981Y004460D02*
X023160Y004460D01*
X023160Y004920D01*
X023200Y004920D01*
X023200Y004960D01*
X023660Y004960D01*
X023660Y005139D01*
X023379Y005420D01*
X023200Y005420D01*
X023200Y004960D01*
X023160Y004960D01*
X023160Y005420D01*
X022981Y005420D01*
X022700Y005139D01*
X022700Y004960D01*
X023160Y004960D01*
X023160Y004920D01*
X022700Y004920D01*
X022700Y004741D01*
X022981Y004460D01*
X023160Y004512D02*
X023200Y004512D01*
X023200Y004460D02*
X023379Y004460D01*
X023660Y004741D01*
X023660Y004920D01*
X023200Y004920D01*
X023200Y004460D01*
X023200Y004671D02*
X023160Y004671D01*
X023160Y004829D02*
X023200Y004829D01*
X023200Y004988D02*
X023160Y004988D01*
X023160Y005146D02*
X023200Y005146D01*
X023200Y005305D02*
X023160Y005305D01*
X022989Y005480D02*
X023371Y005480D01*
X023640Y005749D01*
X023640Y006131D01*
X023371Y006400D01*
X022989Y006400D01*
X022720Y006131D01*
X022720Y005749D01*
X022989Y005480D01*
X022848Y005622D02*
X022512Y005622D01*
X022640Y005780D02*
X022720Y005780D01*
X022720Y005939D02*
X022640Y005939D01*
X022640Y006097D02*
X022720Y006097D01*
X022845Y006256D02*
X022515Y006256D01*
X022350Y006414D02*
X027022Y006414D01*
X026863Y006573D02*
X022350Y006573D01*
X022350Y006731D02*
X026705Y006731D01*
X026546Y006890D02*
X022350Y006890D01*
X022209Y007048D02*
X025848Y007048D01*
X025689Y007207D02*
X022050Y007207D01*
X021892Y007365D02*
X022901Y007365D01*
X022942Y007324D02*
X023096Y007260D01*
X023264Y007260D01*
X023418Y007324D01*
X023536Y007442D01*
X023600Y007596D01*
X023600Y008284D01*
X023536Y008438D01*
X023418Y008556D01*
X023264Y008620D01*
X023096Y008620D01*
X022942Y008556D01*
X022824Y008438D01*
X022760Y008284D01*
X022760Y007596D01*
X022824Y007442D01*
X022942Y007324D01*
X022790Y007524D02*
X021733Y007524D01*
X021575Y007682D02*
X022760Y007682D01*
X022760Y007841D02*
X021416Y007841D01*
X021258Y007999D02*
X022760Y007999D01*
X022760Y008158D02*
X021099Y008158D01*
X020941Y008316D02*
X022773Y008316D01*
X022861Y008475D02*
X020782Y008475D01*
X020624Y008633D02*
X024300Y008633D01*
X024191Y008792D02*
X020465Y008792D01*
X020307Y008950D02*
X024033Y008950D01*
X023874Y009109D02*
X020148Y009109D01*
X019990Y009267D02*
X023716Y009267D01*
X023557Y009426D02*
X014501Y009426D01*
X014119Y009426D02*
X013485Y009426D01*
X013485Y009584D02*
X021914Y009584D01*
X021998Y009500D02*
X021740Y009758D01*
X021740Y009940D01*
X022180Y009940D01*
X022180Y009940D01*
X022180Y010380D01*
X022362Y010380D01*
X022620Y010122D01*
X022620Y009940D01*
X022180Y009940D01*
X022180Y009940D01*
X022180Y009940D01*
X022180Y010380D01*
X021998Y010380D01*
X022180Y010377D02*
X022180Y010377D01*
X022180Y010218D02*
X022180Y010218D01*
X022180Y010060D02*
X022180Y010060D01*
X022180Y009940D02*
X022620Y009940D01*
X022620Y009758D01*
X022362Y009500D01*
X022180Y009500D01*
X022180Y009940D01*
X022180Y009940D01*
X022180Y009500D01*
X021998Y009500D01*
X022180Y009584D02*
X022180Y009584D01*
X022180Y009743D02*
X022180Y009743D01*
X022180Y009901D02*
X022180Y009901D01*
X022446Y009584D02*
X023399Y009584D01*
X023240Y009743D02*
X022605Y009743D01*
X022620Y009901D02*
X023082Y009901D01*
X022923Y010060D02*
X022620Y010060D01*
X022524Y010218D02*
X022765Y010218D01*
X022606Y010377D02*
X022366Y010377D01*
X022369Y010535D02*
X022560Y010535D01*
X022560Y010694D02*
X022527Y010694D01*
X023180Y010940D02*
X023220Y010915D01*
X025605Y008530D01*
X025605Y007630D01*
X026010Y007225D01*
X026550Y007225D01*
X027675Y006100D01*
X027675Y005785D01*
X027990Y005470D01*
X029340Y005470D01*
X029880Y004930D01*
X030105Y004930D01*
X030180Y004940D01*
X030195Y004930D01*
X030195Y001960D01*
X030180Y001940D01*
X032175Y001960D02*
X032180Y001940D01*
X032175Y001960D02*
X032175Y004885D01*
X032180Y004940D01*
X032220Y004975D01*
X032670Y005425D01*
X032670Y006145D01*
X032220Y006595D01*
X032220Y007900D01*
X032180Y007940D01*
X032130Y007990D01*
X032130Y008125D01*
X029610Y010645D01*
X029610Y011365D01*
X026595Y014380D01*
X026235Y014380D01*
X026180Y014440D01*
X026145Y014425D01*
X025605Y014425D01*
X024660Y013480D01*
X020205Y013480D01*
X020180Y013440D01*
X020180Y013440D01*
X020180Y014140D01*
X020215Y014140D01*
X020283Y014129D01*
X020349Y014108D01*
X020411Y014076D01*
X020467Y014036D01*
X020516Y013987D01*
X020556Y013931D01*
X020588Y013869D01*
X020609Y013803D01*
X020620Y013735D01*
X020620Y013440D01*
X020180Y013440D01*
X020180Y013440D01*
X020180Y013440D01*
X019740Y013440D01*
X019740Y013735D01*
X019751Y013803D01*
X019772Y013869D01*
X019804Y013931D01*
X019844Y013987D01*
X019893Y014036D01*
X019949Y014076D01*
X020011Y014108D01*
X020077Y014129D01*
X020145Y014140D01*
X020180Y014140D01*
X020180Y013440D01*
X020620Y013440D01*
X020620Y013145D01*
X020609Y013077D01*
X020588Y013011D01*
X020567Y012970D01*
X022272Y012970D01*
X022395Y012847D01*
X023818Y011424D01*
X023824Y011438D01*
X023942Y011556D01*
X024096Y011620D01*
X024264Y011620D01*
X024418Y011556D01*
X024536Y011438D01*
X024600Y011284D01*
X024600Y010596D01*
X024536Y010442D01*
X024418Y010324D01*
X024264Y010260D01*
X024214Y010260D01*
X025808Y008666D01*
X025845Y008578D01*
X025845Y008459D01*
X025942Y008556D01*
X026096Y008620D01*
X026264Y008620D01*
X026418Y008556D01*
X026536Y008438D01*
X026600Y008284D01*
X026600Y007596D01*
X026546Y007465D01*
X026598Y007465D01*
X026686Y007428D01*
X026753Y007361D01*
X027852Y006262D01*
X027989Y006400D01*
X028371Y006400D01*
X028640Y006131D01*
X028640Y005749D01*
X028601Y005710D01*
X028759Y005710D01*
X028720Y005749D01*
X028720Y006131D01*
X028989Y006400D01*
X029371Y006400D01*
X029640Y006131D01*
X029640Y005749D01*
X029520Y005629D01*
X029543Y005606D01*
X029543Y005606D01*
X029869Y005280D01*
X029989Y005400D01*
X030371Y005400D01*
X030640Y005131D01*
X030640Y004749D01*
X030435Y004544D01*
X030435Y003940D01*
X030975Y003940D01*
X030975Y004494D01*
X030720Y004749D01*
X030720Y005131D01*
X030989Y005400D01*
X031371Y005400D01*
X031640Y005131D01*
X031640Y004749D01*
X031395Y004504D01*
X031395Y003940D01*
X039908Y003940D01*
X039775Y004260D01*
X039775Y004620D01*
X039913Y004953D01*
X040167Y005207D01*
X040500Y005345D01*
X040860Y005345D01*
X041193Y005207D01*
X041447Y004953D01*
X041585Y004620D01*
X041585Y004260D01*
X041452Y003940D01*
X041900Y003940D01*
X041900Y020656D01*
X000460Y020656D01*
X000460Y003940D01*
X002985Y003940D01*
X002985Y004484D01*
X002720Y004749D01*
X002720Y005131D01*
X002989Y005400D01*
X003371Y005400D01*
X003640Y005131D01*
X003640Y004749D01*
X003405Y004514D01*
X003405Y003940D01*
X003945Y003940D01*
X003945Y004524D01*
X003720Y004749D01*
X003720Y005131D01*
X003840Y005251D01*
X003509Y005582D01*
X003491Y005600D01*
X003371Y005480D01*
X002989Y005480D01*
X002720Y005749D01*
X002720Y006131D01*
X002989Y006400D01*
X003371Y006400D01*
X003405Y006366D01*
X003405Y007801D01*
X003349Y007772D01*
X003283Y007751D01*
X003215Y007740D01*
X003180Y007740D01*
X003180Y008440D01*
X003150Y008440D01*
X002700Y007990D01*
X002700Y005785D01*
X002250Y005335D01*
X002250Y004975D01*
X002180Y004940D01*
X002205Y004930D01*
X002205Y001960D01*
X002180Y001940D01*
X004180Y001940D02*
X004185Y001960D01*
X004185Y004930D01*
X004180Y004940D01*
X004185Y005020D01*
X004185Y005245D01*
X003645Y005785D01*
X003645Y009970D01*
X002205Y011410D01*
X002180Y011440D01*
X002600Y011486D02*
X002760Y011486D01*
X002760Y011328D02*
X002627Y011328D01*
X002600Y011354D02*
X002600Y011784D01*
X002536Y011938D01*
X002423Y012051D01*
X002820Y012448D01*
X002820Y012452D01*
X002824Y012442D01*
X002942Y012324D01*
X003096Y012260D01*
X003264Y012260D01*
X003418Y012324D01*
X003536Y012442D01*
X003600Y012596D01*
X003600Y013284D01*
X003536Y013438D01*
X003425Y013548D01*
X003810Y013933D01*
X003810Y013976D01*
X003824Y013942D01*
X003942Y013824D01*
X004096Y013760D01*
X004264Y013760D01*
X004380Y013808D01*
X004380Y013572D01*
X004264Y013620D01*
X004096Y013620D01*
X003942Y013556D01*
X003824Y013438D01*
X003760Y013284D01*
X003760Y012596D01*
X003824Y012442D01*
X003942Y012324D01*
X004096Y012260D01*
X004264Y012260D01*
X004380Y012308D01*
X004380Y012072D01*
X004264Y012120D01*
X004096Y012120D01*
X003942Y012056D01*
X003824Y011938D01*
X003760Y011784D01*
X003760Y011096D01*
X003824Y010942D01*
X003942Y010824D01*
X004096Y010760D01*
X004264Y010760D01*
X004380Y010808D01*
X004380Y009092D01*
X004349Y009108D01*
X004283Y009129D01*
X004215Y009140D01*
X004180Y009140D01*
X004180Y008440D01*
X004180Y008440D01*
X004180Y009140D01*
X004145Y009140D01*
X004077Y009129D01*
X004011Y009108D01*
X003949Y009076D01*
X003893Y009036D01*
X003885Y009027D01*
X003885Y010018D01*
X003848Y010106D01*
X003194Y010760D01*
X003264Y010760D01*
X003418Y010824D01*
X003536Y010942D01*
X003600Y011096D01*
X003600Y011784D01*
X003536Y011938D01*
X003418Y012056D01*
X003264Y012120D01*
X003096Y012120D01*
X002942Y012056D01*
X002824Y011938D01*
X002760Y011784D01*
X002760Y011194D01*
X002600Y011354D01*
X002600Y011645D02*
X002760Y011645D01*
X002768Y011803D02*
X002592Y011803D01*
X002512Y011962D02*
X002848Y011962D01*
X002492Y012120D02*
X004380Y012120D01*
X004380Y012279D02*
X004308Y012279D01*
X004052Y012279D02*
X003308Y012279D01*
X003052Y012279D02*
X002651Y012279D01*
X002809Y012437D02*
X002829Y012437D01*
X003531Y012437D02*
X003829Y012437D01*
X003760Y012596D02*
X003600Y012596D01*
X003600Y012754D02*
X003760Y012754D01*
X003760Y012913D02*
X003600Y012913D01*
X003600Y013071D02*
X003760Y013071D01*
X003760Y013230D02*
X003600Y013230D01*
X003557Y013388D02*
X003803Y013388D01*
X003933Y013547D02*
X003427Y013547D01*
X003582Y013705D02*
X004380Y013705D01*
X003903Y013864D02*
X003741Y013864D01*
X001941Y013825D02*
X001938Y013825D01*
X001488Y013375D01*
X001365Y013252D01*
X001365Y011849D01*
X001354Y011860D01*
X001006Y011860D01*
X000760Y011614D01*
X000760Y011266D01*
X001006Y011020D01*
X001354Y011020D01*
X001365Y011031D01*
X001365Y010877D01*
X001362Y010880D01*
X001180Y010880D01*
X001180Y010440D01*
X001170Y010465D01*
X000720Y010915D01*
X000720Y011590D01*
X001170Y012040D01*
X001170Y019420D01*
X001180Y019440D01*
X001200Y019460D02*
X001660Y019460D01*
X001660Y019778D01*
X001648Y019852D01*
X001625Y019924D01*
X001591Y019992D01*
X001546Y020053D01*
X001493Y020106D01*
X001432Y020151D01*
X001364Y020185D01*
X001292Y020208D01*
X001218Y020220D01*
X001200Y020220D01*
X001200Y019460D01*
X001200Y019420D01*
X001660Y019420D01*
X001660Y019102D01*
X001648Y019028D01*
X001625Y018956D01*
X001591Y018888D01*
X001546Y018827D01*
X001493Y018774D01*
X001432Y018729D01*
X001364Y018695D01*
X001292Y018672D01*
X001218Y018660D01*
X001200Y018660D01*
X001200Y019420D01*
X001160Y019420D01*
X001160Y018660D01*
X001142Y018660D01*
X001068Y018672D01*
X000996Y018695D01*
X000928Y018729D01*
X000867Y018774D01*
X000814Y018827D01*
X000769Y018888D01*
X000735Y018956D01*
X000712Y019028D01*
X000700Y019102D01*
X000700Y019420D01*
X001160Y019420D01*
X001160Y019460D01*
X001160Y020220D01*
X001142Y020220D01*
X001068Y020208D01*
X000996Y020185D01*
X000928Y020151D01*
X000867Y020106D01*
X000814Y020053D01*
X000769Y019992D01*
X000735Y019924D01*
X000712Y019852D01*
X000700Y019778D01*
X000700Y019460D01*
X001160Y019460D01*
X001200Y019460D01*
X001200Y019411D02*
X001160Y019411D01*
X001160Y019253D02*
X001200Y019253D01*
X001200Y019094D02*
X001160Y019094D01*
X001160Y018936D02*
X001200Y018936D01*
X001200Y018777D02*
X001160Y018777D01*
X000864Y018777D02*
X000460Y018777D01*
X000460Y018619D02*
X006237Y018619D01*
X006218Y018660D02*
X006289Y018671D01*
X005542Y017924D01*
X005536Y017938D01*
X005418Y018056D01*
X005264Y018120D01*
X005096Y018120D01*
X004942Y018056D01*
X004824Y017938D01*
X004760Y017784D01*
X004760Y017096D01*
X004824Y016942D01*
X004942Y016824D01*
X005066Y016773D01*
X003603Y015310D01*
X002928Y015310D01*
X002542Y014924D01*
X002536Y014938D01*
X002418Y015056D01*
X002264Y015120D01*
X002096Y015120D01*
X001942Y015056D01*
X001824Y014938D01*
X001760Y014784D01*
X001760Y014096D01*
X001824Y013942D01*
X001941Y013825D01*
X001903Y013864D02*
X000460Y013864D01*
X000460Y014022D02*
X001791Y014022D01*
X001760Y014181D02*
X000460Y014181D01*
X000460Y014339D02*
X001760Y014339D01*
X001760Y014498D02*
X000460Y014498D01*
X000460Y014656D02*
X001760Y014656D01*
X001773Y014815D02*
X000460Y014815D01*
X000460Y014973D02*
X001859Y014973D01*
X002501Y014973D02*
X002591Y014973D01*
X002750Y015132D02*
X000460Y015132D01*
X000460Y015290D02*
X002908Y015290D01*
X003742Y015449D02*
X000460Y015449D01*
X000460Y015607D02*
X003900Y015607D01*
X004059Y015766D02*
X000460Y015766D01*
X000460Y015924D02*
X004217Y015924D01*
X004376Y016083D02*
X000460Y016083D01*
X000460Y016241D02*
X004534Y016241D01*
X004693Y016400D02*
X000460Y016400D01*
X000460Y016558D02*
X004851Y016558D01*
X005010Y016717D02*
X000460Y016717D01*
X000460Y016875D02*
X001891Y016875D01*
X001942Y016824D02*
X002096Y016760D01*
X002264Y016760D01*
X002418Y016824D01*
X002536Y016942D01*
X002600Y017096D01*
X002600Y017784D01*
X002536Y017938D01*
X002418Y018056D01*
X002264Y018120D01*
X002096Y018120D01*
X001942Y018056D01*
X001824Y017938D01*
X001760Y017784D01*
X001760Y017096D01*
X001824Y016942D01*
X001942Y016824D01*
X001786Y017034D02*
X000460Y017034D01*
X000460Y017192D02*
X001760Y017192D01*
X001760Y017351D02*
X000460Y017351D01*
X000460Y017509D02*
X001760Y017509D01*
X001760Y017668D02*
X000460Y017668D01*
X000460Y017826D02*
X001778Y017826D01*
X001871Y017985D02*
X000460Y017985D01*
X000460Y018143D02*
X005761Y018143D01*
X005603Y017985D02*
X005489Y017985D01*
X005920Y018302D02*
X000460Y018302D01*
X000460Y018460D02*
X006078Y018460D01*
X006142Y018660D02*
X006160Y018660D01*
X006160Y019420D01*
X006200Y019420D01*
X006200Y019460D01*
X006160Y019460D01*
X006160Y020220D01*
X006142Y020220D01*
X006068Y020208D01*
X005996Y020185D01*
X005928Y020151D01*
X005867Y020106D01*
X005814Y020053D01*
X005769Y019992D01*
X005735Y019924D01*
X005712Y019852D01*
X005700Y019778D01*
X005700Y019460D01*
X006160Y019460D01*
X006160Y019420D01*
X005700Y019420D01*
X005700Y019102D01*
X005712Y019028D01*
X005735Y018956D01*
X005769Y018888D01*
X005814Y018827D01*
X005867Y018774D01*
X005928Y018729D01*
X005996Y018695D01*
X006068Y018672D01*
X006142Y018660D01*
X006200Y018660D02*
X006218Y018660D01*
X006200Y018660D02*
X006200Y019420D01*
X006660Y019420D01*
X006660Y019102D01*
X006648Y019028D01*
X006625Y018956D01*
X006591Y018888D01*
X006546Y018827D01*
X006493Y018774D01*
X006432Y018729D01*
X006364Y018695D01*
X006333Y018685D01*
X007027Y018685D01*
X006996Y018695D01*
X006928Y018729D01*
X006867Y018774D01*
X006814Y018827D01*
X006769Y018888D01*
X006735Y018956D01*
X006712Y019028D01*
X006700Y019102D01*
X006700Y019420D01*
X007160Y019420D01*
X007160Y019460D01*
X007160Y020220D01*
X007142Y020220D01*
X007068Y020208D01*
X006996Y020185D01*
X006928Y020151D01*
X006867Y020106D01*
X006814Y020053D01*
X006769Y019992D01*
X006735Y019924D01*
X006712Y019852D01*
X006700Y019778D01*
X006700Y019460D01*
X007160Y019460D01*
X007200Y019460D01*
X007200Y020220D01*
X007218Y020220D01*
X007292Y020208D01*
X007364Y020185D01*
X007432Y020151D01*
X007493Y020106D01*
X007546Y020053D01*
X007561Y020033D01*
X007563Y020035D01*
X008103Y020575D01*
X015252Y020575D01*
X015375Y020452D01*
X015808Y020019D01*
X015919Y020130D01*
X016088Y020200D01*
X016271Y020200D01*
X016441Y020130D01*
X016570Y020001D01*
X016640Y019831D01*
X016640Y019048D01*
X016570Y018879D01*
X016441Y018750D01*
X016271Y018680D01*
X016088Y018680D01*
X015919Y018750D01*
X015790Y018879D01*
X015720Y019048D01*
X015720Y019513D01*
X015640Y019593D01*
X015640Y019048D01*
X015570Y018879D01*
X015441Y018750D01*
X015271Y018680D01*
X015088Y018680D01*
X014919Y018750D01*
X014790Y018879D01*
X014720Y019048D01*
X014720Y019523D01*
X014640Y019603D01*
X014640Y019048D01*
X014570Y018879D01*
X014441Y018750D01*
X014271Y018680D01*
X014088Y018680D01*
X013919Y018750D01*
X013816Y018854D01*
X012990Y018028D01*
X012867Y017905D01*
X009550Y017905D01*
X009600Y017784D01*
X009600Y017680D01*
X012326Y017680D01*
X012506Y017860D01*
X012854Y017860D01*
X013100Y017614D01*
X013100Y017266D01*
X012854Y017020D01*
X012506Y017020D01*
X012326Y017200D01*
X009600Y017200D01*
X009600Y017096D01*
X009536Y016942D01*
X009418Y016824D01*
X009264Y016760D01*
X009096Y016760D01*
X008942Y016824D01*
X008824Y016942D01*
X008760Y017096D01*
X008760Y017200D01*
X008600Y017200D01*
X008600Y017096D01*
X008536Y016942D01*
X008418Y016824D01*
X008264Y016760D01*
X008096Y016760D01*
X007942Y016824D01*
X007824Y016942D01*
X007815Y016964D01*
X007815Y016948D01*
X006177Y015310D01*
X009447Y015310D01*
X010737Y014020D01*
X010872Y014020D01*
X011004Y013965D01*
X011105Y013864D01*
X011160Y013732D01*
X011160Y013588D01*
X011105Y013456D01*
X011004Y013355D01*
X010872Y013300D01*
X010728Y013300D01*
X010596Y013355D01*
X010591Y013360D01*
X010609Y013303D01*
X010620Y013235D01*
X010620Y012940D01*
X010180Y012940D01*
X010575Y012940D01*
X010620Y012895D01*
X013140Y015415D01*
X013180Y015440D01*
X013230Y015505D01*
X013635Y015910D01*
X013635Y016765D01*
X014760Y017890D01*
X015615Y017890D01*
X017145Y019420D01*
X017180Y019440D01*
X017200Y019460D02*
X017660Y019460D01*
X017660Y019778D01*
X017648Y019852D01*
X017625Y019924D01*
X017591Y019992D01*
X017546Y020053D01*
X017493Y020106D01*
X017432Y020151D01*
X017364Y020185D01*
X017292Y020208D01*
X017218Y020220D01*
X017200Y020220D01*
X017200Y019460D01*
X017200Y019420D01*
X017660Y019420D01*
X017660Y019102D01*
X017648Y019028D01*
X017625Y018956D01*
X017591Y018888D01*
X017546Y018827D01*
X017493Y018774D01*
X017432Y018729D01*
X017364Y018695D01*
X017292Y018672D01*
X017218Y018660D01*
X017200Y018660D01*
X017200Y019420D01*
X017160Y019420D01*
X017160Y018660D01*
X017142Y018660D01*
X017068Y018672D01*
X016996Y018695D01*
X016928Y018729D01*
X016867Y018774D01*
X016814Y018827D01*
X016769Y018888D01*
X016735Y018956D01*
X016712Y019028D01*
X016700Y019102D01*
X016700Y019420D01*
X017160Y019420D01*
X017160Y019460D01*
X017160Y020220D01*
X017142Y020220D01*
X017068Y020208D01*
X016996Y020185D01*
X016928Y020151D01*
X016867Y020106D01*
X016814Y020053D01*
X016769Y019992D01*
X016735Y019924D01*
X016712Y019852D01*
X016700Y019778D01*
X016700Y019460D01*
X017160Y019460D01*
X017200Y019460D01*
X017200Y019411D02*
X017160Y019411D01*
X017160Y019253D02*
X017200Y019253D01*
X017200Y019094D02*
X017160Y019094D01*
X017160Y018936D02*
X017200Y018936D01*
X017200Y018777D02*
X017160Y018777D01*
X016864Y018777D02*
X016468Y018777D01*
X016593Y018936D02*
X016745Y018936D01*
X016701Y019094D02*
X016640Y019094D01*
X016640Y019253D02*
X016700Y019253D01*
X016700Y019411D02*
X016640Y019411D01*
X016640Y019570D02*
X016700Y019570D01*
X016700Y019728D02*
X016640Y019728D01*
X016617Y019887D02*
X016723Y019887D01*
X016808Y020045D02*
X016526Y020045D01*
X017053Y020204D02*
X015623Y020204D01*
X015465Y020362D02*
X019773Y020362D01*
X019844Y020433D02*
X019491Y020080D01*
X019441Y020130D01*
X019271Y020200D01*
X019088Y020200D01*
X018919Y020130D01*
X018790Y020001D01*
X018720Y019831D01*
X018720Y019048D01*
X018790Y018879D01*
X018919Y018750D01*
X019088Y018680D01*
X019271Y018680D01*
X019441Y018750D01*
X019570Y018879D01*
X019640Y019048D01*
X019640Y019551D01*
X019720Y019631D01*
X019720Y019048D01*
X019790Y018879D01*
X019919Y018750D01*
X020088Y018680D01*
X020271Y018680D01*
X020441Y018750D01*
X020570Y018879D01*
X020640Y019048D01*
X020640Y019831D01*
X020574Y019990D01*
X020786Y019990D01*
X020720Y019831D01*
X020720Y019048D01*
X020790Y018879D01*
X020919Y018750D01*
X021088Y018680D01*
X021103Y018680D01*
X020118Y017695D01*
X016019Y017695D01*
X015854Y017860D01*
X015506Y017860D01*
X015260Y017614D01*
X015260Y017266D01*
X015506Y017020D01*
X015618Y017020D01*
X015536Y016938D01*
X015418Y017056D01*
X015264Y017120D01*
X015096Y017120D01*
X014942Y017056D01*
X014824Y016938D01*
X014760Y016784D01*
X014760Y016096D01*
X014824Y015942D01*
X014942Y015824D01*
X015096Y015760D01*
X015264Y015760D01*
X015360Y015800D01*
X015360Y015772D01*
X013008Y013420D01*
X012885Y013297D01*
X012885Y011829D01*
X012854Y011860D01*
X012506Y011860D01*
X012260Y011614D01*
X012260Y011266D01*
X012506Y011020D01*
X012854Y011020D01*
X012885Y011051D01*
X012885Y010857D01*
X012862Y010880D01*
X012680Y010880D01*
X012680Y010440D01*
X012645Y010510D01*
X012645Y010870D01*
X010620Y012895D01*
X010620Y012913D02*
X012885Y012913D01*
X012885Y013071D02*
X010620Y013071D01*
X010620Y012940D02*
X010180Y012940D01*
X010180Y012940D01*
X010180Y012940D01*
X010180Y013640D01*
X010215Y013640D01*
X010283Y013629D01*
X010349Y013608D01*
X010411Y013576D01*
X010460Y013541D01*
X010440Y013588D01*
X010440Y013723D01*
X009600Y014563D01*
X009600Y014096D01*
X009536Y013942D01*
X009419Y013825D01*
X009447Y013825D01*
X009570Y013702D01*
X009795Y013477D01*
X009795Y013414D01*
X009804Y013431D01*
X009844Y013487D01*
X009893Y013536D01*
X009949Y013576D01*
X010011Y013608D01*
X010077Y013629D01*
X010145Y013640D01*
X010180Y013640D01*
X010180Y012940D01*
X010180Y013071D02*
X010180Y013071D01*
X010180Y013230D02*
X010180Y013230D01*
X010180Y013388D02*
X010180Y013388D01*
X010180Y013547D02*
X010180Y013547D01*
X010452Y013547D02*
X010457Y013547D01*
X010440Y013705D02*
X009567Y013705D01*
X009457Y013864D02*
X010299Y013864D01*
X010141Y014022D02*
X009569Y014022D01*
X009600Y014181D02*
X009982Y014181D01*
X009824Y014339D02*
X009600Y014339D01*
X009600Y014498D02*
X009665Y014498D01*
X010101Y014656D02*
X014244Y014656D01*
X014086Y014498D02*
X010259Y014498D01*
X010418Y014339D02*
X013927Y014339D01*
X013769Y014181D02*
X010576Y014181D01*
X010735Y014022D02*
X013610Y014022D01*
X013452Y013864D02*
X011105Y013864D01*
X011160Y013705D02*
X013293Y013705D01*
X013135Y013547D02*
X011143Y013547D01*
X011037Y013388D02*
X012976Y013388D01*
X012885Y013230D02*
X010620Y013230D01*
X010620Y012940D02*
X010620Y012645D01*
X010609Y012577D01*
X010588Y012511D01*
X010556Y012449D01*
X010516Y012393D01*
X010467Y012344D01*
X010411Y012304D01*
X010349Y012272D01*
X010331Y012266D01*
X010380Y012217D01*
X010380Y012072D01*
X010418Y012056D01*
X010536Y011938D01*
X010600Y011784D01*
X010600Y011096D01*
X010536Y010942D01*
X010418Y010824D01*
X010294Y010773D01*
X010380Y010687D01*
X010380Y009072D01*
X010418Y009056D01*
X010536Y008938D01*
X010540Y008927D01*
X010950Y009337D01*
X010950Y010821D01*
X010942Y010824D01*
X010824Y010942D01*
X010760Y011096D01*
X010760Y011784D01*
X010824Y011938D01*
X010942Y012056D01*
X011096Y012120D01*
X011264Y012120D01*
X011418Y012056D01*
X011536Y011938D01*
X011600Y011784D01*
X011600Y011096D01*
X011536Y010942D01*
X011418Y010824D01*
X011370Y010804D01*
X011370Y009163D01*
X011323Y009116D01*
X011349Y009108D01*
X011411Y009076D01*
X011467Y009036D01*
X011516Y008987D01*
X011556Y008931D01*
X011588Y008869D01*
X011609Y008803D01*
X011620Y008735D01*
X011620Y008440D01*
X011180Y008440D01*
X011205Y008440D01*
X011205Y008980D01*
X012645Y010420D01*
X012680Y010440D01*
X012680Y010440D01*
X012680Y010000D01*
X012862Y010000D01*
X012885Y010023D01*
X012885Y007582D01*
X011537Y006234D01*
X011371Y006400D01*
X011022Y006400D01*
X010755Y006667D01*
X010755Y006802D01*
X010700Y006934D01*
X010599Y007035D01*
X010467Y007090D01*
X010323Y007090D01*
X010191Y007035D01*
X010090Y006934D01*
X010035Y006802D01*
X010035Y006658D01*
X010090Y006526D01*
X010191Y006425D01*
X010251Y006400D01*
X010077Y006400D01*
X009630Y006847D01*
X009630Y006982D01*
X009585Y007090D01*
X009609Y007100D01*
X009710Y007201D01*
X009765Y007333D01*
X009765Y007477D01*
X009733Y007555D01*
X010437Y007555D01*
X010560Y007678D01*
X010785Y007903D01*
X010785Y007986D01*
X010804Y007949D01*
X010844Y007893D01*
X010893Y007844D01*
X010949Y007804D01*
X011011Y007772D01*
X011077Y007751D01*
X011145Y007740D01*
X011180Y007740D01*
X011215Y007740D01*
X011283Y007751D01*
X011349Y007772D01*
X011411Y007804D01*
X011467Y007844D01*
X011516Y007893D01*
X011556Y007949D01*
X011588Y008011D01*
X011609Y008077D01*
X011620Y008145D01*
X011620Y008440D01*
X011180Y008440D01*
X011180Y008440D01*
X011180Y007740D01*
X011180Y008440D01*
X011180Y008440D01*
X011180Y008316D02*
X011180Y008316D01*
X011180Y008158D02*
X011180Y008158D01*
X011180Y007999D02*
X011180Y007999D01*
X011180Y007841D02*
X011180Y007841D01*
X011461Y007841D02*
X012885Y007841D01*
X012885Y007999D02*
X011582Y007999D01*
X011620Y008158D02*
X012885Y008158D01*
X012885Y008316D02*
X011620Y008316D01*
X011620Y008475D02*
X012885Y008475D01*
X012885Y008633D02*
X011620Y008633D01*
X011611Y008792D02*
X012885Y008792D01*
X012885Y008950D02*
X011542Y008950D01*
X011347Y009109D02*
X012885Y009109D01*
X012885Y009267D02*
X011370Y009267D01*
X011370Y009426D02*
X012885Y009426D01*
X012885Y009584D02*
X011370Y009584D01*
X011370Y009743D02*
X012885Y009743D01*
X012885Y009901D02*
X011370Y009901D01*
X011370Y010060D02*
X012438Y010060D01*
X012498Y010000D02*
X012680Y010000D01*
X012680Y010440D01*
X012680Y010440D01*
X012680Y010440D01*
X012240Y010440D01*
X012240Y010622D01*
X012498Y010880D01*
X012680Y010880D01*
X012680Y010440D01*
X012240Y010440D01*
X012240Y010258D01*
X012498Y010000D01*
X012680Y010060D02*
X012680Y010060D01*
X012680Y010218D02*
X012680Y010218D01*
X012680Y010377D02*
X012680Y010377D01*
X012680Y010535D02*
X012680Y010535D01*
X012680Y010694D02*
X012680Y010694D01*
X012680Y010852D02*
X012680Y010852D01*
X012470Y010852D02*
X011446Y010852D01*
X011370Y010694D02*
X012311Y010694D01*
X012240Y010535D02*
X011370Y010535D01*
X011370Y010377D02*
X012240Y010377D01*
X012280Y010218D02*
X011370Y010218D01*
X010950Y010218D02*
X010380Y010218D01*
X010380Y010060D02*
X010950Y010060D01*
X010950Y009901D02*
X010380Y009901D01*
X010380Y009743D02*
X010950Y009743D01*
X010950Y009584D02*
X010380Y009584D01*
X010380Y009426D02*
X010950Y009426D01*
X010880Y009267D02*
X010380Y009267D01*
X010380Y009109D02*
X010722Y009109D01*
X010563Y008950D02*
X010524Y008950D01*
X010722Y007841D02*
X010899Y007841D01*
X010564Y007682D02*
X012885Y007682D01*
X012827Y007524D02*
X009746Y007524D01*
X009765Y007365D02*
X012668Y007365D01*
X012510Y007207D02*
X009712Y007207D01*
X009602Y007048D02*
X010222Y007048D01*
X010071Y006890D02*
X009630Y006890D01*
X009746Y006731D02*
X010035Y006731D01*
X010071Y006573D02*
X009904Y006573D01*
X010063Y006414D02*
X010217Y006414D01*
X010755Y006731D02*
X012034Y006731D01*
X011876Y006573D02*
X010849Y006573D01*
X011008Y006414D02*
X011717Y006414D01*
X011559Y006256D02*
X011515Y006256D01*
X012193Y006890D02*
X010719Y006890D01*
X010568Y007048D02*
X012351Y007048D01*
X013485Y009109D02*
X013569Y009109D01*
X013485Y009267D02*
X013983Y009267D01*
X013950Y009109D02*
X013791Y009109D01*
X013485Y009743D02*
X021755Y009743D01*
X021740Y009901D02*
X013485Y009901D01*
X013485Y010060D02*
X021740Y010060D01*
X021836Y010218D02*
X013485Y010218D01*
X013485Y010377D02*
X014374Y010377D01*
X014216Y010535D02*
X013485Y010535D01*
X013485Y010694D02*
X014057Y010694D01*
X014974Y010852D02*
X015386Y010852D01*
X015393Y010844D02*
X015449Y010804D01*
X015511Y010772D01*
X015577Y010751D01*
X015645Y010740D01*
X015680Y010740D01*
X015715Y010740D01*
X015783Y010751D01*
X015849Y010772D01*
X015911Y010804D01*
X015967Y010844D01*
X016016Y010893D01*
X016056Y010949D01*
X016088Y011011D01*
X016109Y011077D01*
X016120Y011145D01*
X016120Y011440D01*
X015680Y011440D01*
X015680Y011440D01*
X015680Y011440D01*
X015680Y010740D01*
X015680Y011440D01*
X015680Y011440D01*
X015680Y011440D01*
X015240Y011440D01*
X015240Y011145D01*
X015251Y011077D01*
X015272Y011011D01*
X015304Y010949D01*
X015344Y010893D01*
X015393Y010844D01*
X015273Y011011D02*
X015087Y011011D01*
X015120Y011169D02*
X015240Y011169D01*
X015240Y011328D02*
X015120Y011328D01*
X015120Y011486D02*
X015240Y011486D01*
X015240Y011645D02*
X015120Y011645D01*
X015034Y011962D02*
X015326Y011962D01*
X015680Y011962D02*
X015680Y011962D01*
X015680Y011803D02*
X015680Y011803D01*
X015680Y011645D02*
X015680Y011645D01*
X015680Y011486D02*
X015680Y011486D01*
X015680Y011328D02*
X015680Y011328D01*
X015680Y011169D02*
X015680Y011169D01*
X015680Y011011D02*
X015680Y011011D01*
X015680Y010852D02*
X015680Y010852D01*
X015974Y010852D02*
X016414Y010852D01*
X016296Y011011D02*
X016087Y011011D01*
X016120Y011169D02*
X016260Y011169D01*
X016260Y011328D02*
X016120Y011328D01*
X016120Y011486D02*
X016260Y011486D01*
X016260Y011645D02*
X016120Y011645D01*
X017012Y011962D02*
X017326Y011962D01*
X017680Y011962D02*
X017680Y011962D01*
X017680Y011803D02*
X017680Y011803D01*
X017680Y011645D02*
X017680Y011645D01*
X017240Y011486D02*
X017100Y011486D01*
X017100Y011328D02*
X017240Y011328D01*
X017240Y011169D02*
X017100Y011169D01*
X017064Y011011D02*
X017273Y011011D01*
X017386Y010852D02*
X016946Y010852D01*
X018680Y010852D02*
X018680Y010852D01*
X018680Y011011D02*
X018680Y011011D01*
X018680Y011169D02*
X018680Y011169D01*
X018680Y011328D02*
X018680Y011328D01*
X018680Y011486D02*
X018680Y011486D01*
X018680Y011645D02*
X018680Y011645D01*
X018680Y011803D02*
X018680Y011803D01*
X018680Y011962D02*
X018680Y011962D01*
X018680Y012120D02*
X018680Y012120D01*
X018811Y012120D02*
X019378Y012120D01*
X019348Y011962D02*
X019034Y011962D01*
X019120Y011486D02*
X019260Y011486D01*
X019260Y011328D02*
X019120Y011328D01*
X019120Y011169D02*
X019260Y011169D01*
X019296Y011011D02*
X019087Y011011D01*
X018974Y010852D02*
X019414Y010852D01*
X022646Y012596D02*
X032222Y012596D01*
X032064Y012754D02*
X022488Y012754D01*
X022329Y012913D02*
X031905Y012913D01*
X031747Y013071D02*
X020607Y013071D01*
X020620Y013230D02*
X031588Y013230D01*
X031430Y013388D02*
X020620Y013388D01*
X020620Y013547D02*
X031271Y013547D01*
X031113Y013705D02*
X020620Y013705D01*
X020590Y013864D02*
X030954Y013864D01*
X030796Y014022D02*
X026653Y014022D01*
X026637Y014014D02*
X026701Y014047D01*
X026760Y014089D01*
X026811Y014140D01*
X026853Y014199D01*
X026886Y014263D01*
X026909Y014332D01*
X026920Y014404D01*
X026920Y014430D01*
X026190Y014430D01*
X026190Y014450D01*
X026920Y014450D01*
X026920Y014476D01*
X026909Y014548D01*
X026886Y014617D01*
X026862Y014665D01*
X030153Y014665D01*
X035240Y009578D01*
X035240Y009258D01*
X035475Y009023D01*
X035475Y008857D01*
X035240Y008622D01*
X035240Y008258D01*
X035475Y008023D01*
X035475Y007857D01*
X035240Y007622D01*
X035240Y007258D01*
X035475Y007023D01*
X035475Y006857D01*
X035240Y006622D01*
X035240Y006258D01*
X035498Y006000D01*
X035862Y006000D01*
X036120Y006258D01*
X036120Y006622D01*
X035895Y006847D01*
X035895Y007033D01*
X036053Y007190D01*
X036430Y006813D01*
X036240Y006622D01*
X036240Y006258D01*
X036498Y006000D01*
X036862Y006000D01*
X037120Y006258D01*
X037120Y006622D01*
X036885Y006857D01*
X036885Y006952D01*
X036837Y007000D01*
X036862Y007000D01*
X037120Y007258D01*
X037120Y007622D01*
X036862Y007880D01*
X036498Y007880D01*
X036300Y007682D01*
X036300Y008198D01*
X036498Y008000D01*
X036862Y008000D01*
X037120Y008258D01*
X037120Y008622D01*
X036862Y008880D01*
X036498Y008880D01*
X036300Y008682D01*
X036300Y009198D01*
X036498Y009000D01*
X036862Y009000D01*
X037120Y009258D01*
X037120Y009622D01*
X036862Y009880D01*
X036498Y009880D01*
X036300Y009682D01*
X036300Y009697D01*
X027304Y018693D01*
X027441Y018750D01*
X027570Y018879D01*
X027640Y019048D01*
X027640Y019831D01*
X027570Y020001D01*
X027441Y020130D01*
X027271Y020200D01*
X027088Y020200D01*
X026919Y020130D01*
X026821Y020031D01*
X026580Y020272D01*
X026457Y020395D01*
X023898Y020395D01*
X023538Y020035D01*
X023537Y020034D01*
X023441Y020130D01*
X023271Y020200D01*
X023088Y020200D01*
X022919Y020130D01*
X022884Y020095D01*
X022613Y020366D01*
X022546Y020433D01*
X022458Y020470D01*
X019932Y020470D01*
X019844Y020433D01*
X019980Y020230D02*
X019215Y019465D01*
X019180Y019440D01*
X019640Y019411D02*
X019720Y019411D01*
X019720Y019253D02*
X019640Y019253D01*
X019640Y019094D02*
X019720Y019094D01*
X019767Y018936D02*
X019593Y018936D01*
X019468Y018777D02*
X019892Y018777D01*
X020468Y018777D02*
X020892Y018777D01*
X020767Y018936D02*
X020593Y018936D01*
X020640Y019094D02*
X020720Y019094D01*
X020720Y019253D02*
X020640Y019253D01*
X020640Y019411D02*
X020720Y019411D01*
X020720Y019570D02*
X020640Y019570D01*
X020640Y019728D02*
X020720Y019728D01*
X020743Y019887D02*
X020617Y019887D01*
X019980Y020230D02*
X022410Y020230D01*
X023175Y019465D01*
X023180Y019440D01*
X023526Y020045D02*
X023548Y020045D01*
X023707Y020204D02*
X022776Y020204D01*
X022617Y020362D02*
X023865Y020362D01*
X026490Y020362D02*
X041900Y020362D01*
X041900Y020204D02*
X026648Y020204D01*
X026580Y020272D02*
X026580Y020272D01*
X026807Y020045D02*
X026834Y020045D01*
X027526Y020045D02*
X027834Y020045D01*
X027790Y020001D02*
X027720Y019831D01*
X027720Y019048D01*
X027790Y018879D01*
X027919Y018750D01*
X028088Y018680D01*
X028271Y018680D01*
X028441Y018750D01*
X028570Y018879D01*
X028640Y019048D01*
X028640Y019831D01*
X028570Y020001D01*
X028441Y020130D01*
X028271Y020200D01*
X028088Y020200D01*
X027919Y020130D01*
X027790Y020001D01*
X027743Y019887D02*
X027617Y019887D01*
X027640Y019728D02*
X027720Y019728D01*
X027720Y019570D02*
X027640Y019570D01*
X027640Y019411D02*
X027720Y019411D01*
X027720Y019253D02*
X027640Y019253D01*
X027640Y019094D02*
X027720Y019094D01*
X027767Y018936D02*
X027593Y018936D01*
X027468Y018777D02*
X027892Y018777D01*
X027537Y018460D02*
X041900Y018460D01*
X041900Y018302D02*
X027695Y018302D01*
X027854Y018143D02*
X041900Y018143D01*
X041900Y017985D02*
X028012Y017985D01*
X028171Y017826D02*
X040454Y017826D01*
X040500Y017845D02*
X040167Y017707D01*
X039913Y017453D01*
X039775Y017120D01*
X039775Y016760D01*
X039913Y016427D01*
X040167Y016173D01*
X040500Y016035D01*
X040860Y016035D01*
X041193Y016173D01*
X041447Y016427D01*
X041585Y016760D01*
X041585Y017120D01*
X041447Y017453D01*
X041193Y017707D01*
X040860Y017845D01*
X040500Y017845D01*
X040906Y017826D02*
X041900Y017826D01*
X041900Y017668D02*
X041232Y017668D01*
X041391Y017509D02*
X041900Y017509D01*
X041900Y017351D02*
X041490Y017351D01*
X041555Y017192D02*
X041900Y017192D01*
X041900Y017034D02*
X041585Y017034D01*
X041585Y016875D02*
X041900Y016875D01*
X041900Y016717D02*
X041567Y016717D01*
X041501Y016558D02*
X041900Y016558D01*
X041900Y016400D02*
X041419Y016400D01*
X041261Y016241D02*
X041900Y016241D01*
X041900Y016083D02*
X040975Y016083D01*
X040385Y016083D02*
X029914Y016083D01*
X029756Y016241D02*
X040099Y016241D01*
X039941Y016400D02*
X029597Y016400D01*
X029439Y016558D02*
X039859Y016558D01*
X039793Y016717D02*
X029280Y016717D01*
X029122Y016875D02*
X039775Y016875D01*
X039775Y017034D02*
X028963Y017034D01*
X028805Y017192D02*
X039805Y017192D01*
X039870Y017351D02*
X028646Y017351D01*
X028488Y017509D02*
X039969Y017509D01*
X040128Y017668D02*
X028329Y017668D01*
X028468Y018777D02*
X028892Y018777D01*
X028919Y018750D02*
X029088Y018680D01*
X029271Y018680D01*
X029441Y018750D01*
X029570Y018879D01*
X029640Y019048D01*
X029640Y019831D01*
X029570Y020001D01*
X029441Y020130D01*
X029271Y020200D01*
X029088Y020200D01*
X028919Y020130D01*
X028790Y020001D01*
X028720Y019831D01*
X028720Y019048D01*
X028790Y018879D01*
X028919Y018750D01*
X028767Y018936D02*
X028593Y018936D01*
X028640Y019094D02*
X028720Y019094D01*
X028720Y019253D02*
X028640Y019253D01*
X028640Y019411D02*
X028720Y019411D01*
X028720Y019570D02*
X028640Y019570D01*
X028640Y019728D02*
X028720Y019728D01*
X028743Y019887D02*
X028617Y019887D01*
X028526Y020045D02*
X028834Y020045D01*
X029526Y020045D02*
X029834Y020045D01*
X029790Y020001D02*
X029720Y019831D01*
X029720Y019048D01*
X029790Y018879D01*
X029919Y018750D01*
X030088Y018680D01*
X030271Y018680D01*
X030441Y018750D01*
X030570Y018879D01*
X030640Y019048D01*
X030640Y019831D01*
X030570Y020001D01*
X030441Y020130D01*
X030271Y020200D01*
X030088Y020200D01*
X029919Y020130D01*
X029790Y020001D01*
X029743Y019887D02*
X029617Y019887D01*
X029640Y019728D02*
X029720Y019728D01*
X029720Y019570D02*
X029640Y019570D01*
X029640Y019411D02*
X029720Y019411D01*
X029720Y019253D02*
X029640Y019253D01*
X029640Y019094D02*
X029720Y019094D01*
X029767Y018936D02*
X029593Y018936D01*
X029468Y018777D02*
X029892Y018777D01*
X030468Y018777D02*
X030892Y018777D01*
X030919Y018750D02*
X031088Y018680D01*
X031271Y018680D01*
X031441Y018750D01*
X031570Y018879D01*
X031640Y019048D01*
X031640Y019831D01*
X031570Y020001D01*
X031441Y020130D01*
X031271Y020200D01*
X031088Y020200D01*
X030919Y020130D01*
X030790Y020001D01*
X030720Y019831D01*
X030720Y019048D01*
X030790Y018879D01*
X030919Y018750D01*
X030767Y018936D02*
X030593Y018936D01*
X030640Y019094D02*
X030720Y019094D01*
X030720Y019253D02*
X030640Y019253D01*
X030640Y019411D02*
X030720Y019411D01*
X030720Y019570D02*
X030640Y019570D01*
X030640Y019728D02*
X030720Y019728D01*
X030743Y019887D02*
X030617Y019887D01*
X030526Y020045D02*
X030834Y020045D01*
X031526Y020045D02*
X031834Y020045D01*
X031790Y020001D02*
X031720Y019831D01*
X031720Y019048D01*
X031790Y018879D01*
X031919Y018750D01*
X032088Y018680D01*
X032271Y018680D01*
X032441Y018750D01*
X032570Y018879D01*
X032640Y019048D01*
X032640Y019831D01*
X032570Y020001D01*
X032441Y020130D01*
X032271Y020200D01*
X032088Y020200D01*
X031919Y020130D01*
X031790Y020001D01*
X031743Y019887D02*
X031617Y019887D01*
X031640Y019728D02*
X031720Y019728D01*
X031720Y019570D02*
X031640Y019570D01*
X031640Y019411D02*
X031720Y019411D01*
X031720Y019253D02*
X031640Y019253D01*
X031640Y019094D02*
X031720Y019094D01*
X031767Y018936D02*
X031593Y018936D01*
X031468Y018777D02*
X031892Y018777D01*
X032468Y018777D02*
X032892Y018777D01*
X032919Y018750D02*
X033088Y018680D01*
X033271Y018680D01*
X033441Y018750D01*
X033570Y018879D01*
X033640Y019048D01*
X033640Y019831D01*
X033570Y020001D01*
X033441Y020130D01*
X033271Y020200D01*
X033088Y020200D01*
X032919Y020130D01*
X032790Y020001D01*
X032720Y019831D01*
X032720Y019048D01*
X032790Y018879D01*
X032919Y018750D01*
X032767Y018936D02*
X032593Y018936D01*
X032640Y019094D02*
X032720Y019094D01*
X032720Y019253D02*
X032640Y019253D01*
X032640Y019411D02*
X032720Y019411D01*
X032720Y019570D02*
X032640Y019570D01*
X032640Y019728D02*
X032720Y019728D01*
X032743Y019887D02*
X032617Y019887D01*
X032526Y020045D02*
X032834Y020045D01*
X033526Y020045D02*
X033834Y020045D01*
X033790Y020001D02*
X033720Y019831D01*
X033720Y019048D01*
X033790Y018879D01*
X033919Y018750D01*
X034088Y018680D01*
X034271Y018680D01*
X034441Y018750D01*
X034570Y018879D01*
X034640Y019048D01*
X034640Y019831D01*
X034570Y020001D01*
X034441Y020130D01*
X034271Y020200D01*
X034088Y020200D01*
X033919Y020130D01*
X033790Y020001D01*
X033743Y019887D02*
X033617Y019887D01*
X033640Y019728D02*
X033720Y019728D01*
X033720Y019570D02*
X033640Y019570D01*
X033640Y019411D02*
X033720Y019411D01*
X033720Y019253D02*
X033640Y019253D01*
X033640Y019094D02*
X033720Y019094D01*
X033767Y018936D02*
X033593Y018936D01*
X033468Y018777D02*
X033892Y018777D01*
X034468Y018777D02*
X034892Y018777D01*
X034919Y018750D02*
X035088Y018680D01*
X035271Y018680D01*
X035441Y018750D01*
X035570Y018879D01*
X035640Y019048D01*
X035640Y019831D01*
X035570Y020001D01*
X035441Y020130D01*
X035271Y020200D01*
X035088Y020200D01*
X034919Y020130D01*
X034790Y020001D01*
X034720Y019831D01*
X034720Y019048D01*
X034790Y018879D01*
X034919Y018750D01*
X034767Y018936D02*
X034593Y018936D01*
X034640Y019094D02*
X034720Y019094D01*
X034720Y019253D02*
X034640Y019253D01*
X034640Y019411D02*
X034720Y019411D01*
X034720Y019570D02*
X034640Y019570D01*
X034640Y019728D02*
X034720Y019728D01*
X034743Y019887D02*
X034617Y019887D01*
X034526Y020045D02*
X034834Y020045D01*
X035526Y020045D02*
X035834Y020045D01*
X035790Y020001D02*
X035720Y019831D01*
X035720Y019048D01*
X035790Y018879D01*
X035919Y018750D01*
X036088Y018680D01*
X036271Y018680D01*
X036441Y018750D01*
X036570Y018879D01*
X036640Y019048D01*
X036640Y019831D01*
X036570Y020001D01*
X036441Y020130D01*
X036271Y020200D01*
X036088Y020200D01*
X035919Y020130D01*
X035790Y020001D01*
X035743Y019887D02*
X035617Y019887D01*
X035640Y019728D02*
X035720Y019728D01*
X035720Y019570D02*
X035640Y019570D01*
X035640Y019411D02*
X035720Y019411D01*
X035720Y019253D02*
X035640Y019253D01*
X035640Y019094D02*
X035720Y019094D01*
X035767Y018936D02*
X035593Y018936D01*
X035468Y018777D02*
X035892Y018777D01*
X036468Y018777D02*
X036892Y018777D01*
X036919Y018750D02*
X037088Y018680D01*
X037271Y018680D01*
X037441Y018750D01*
X037570Y018879D01*
X037640Y019048D01*
X037640Y019831D01*
X037570Y020001D01*
X037441Y020130D01*
X037271Y020200D01*
X037088Y020200D01*
X036919Y020130D01*
X036790Y020001D01*
X036720Y019831D01*
X036720Y019048D01*
X036790Y018879D01*
X036919Y018750D01*
X036767Y018936D02*
X036593Y018936D01*
X036640Y019094D02*
X036720Y019094D01*
X036720Y019253D02*
X036640Y019253D01*
X036640Y019411D02*
X036720Y019411D01*
X036720Y019570D02*
X036640Y019570D01*
X036640Y019728D02*
X036720Y019728D01*
X036743Y019887D02*
X036617Y019887D01*
X036526Y020045D02*
X036834Y020045D01*
X037526Y020045D02*
X037834Y020045D01*
X037790Y020001D02*
X037720Y019831D01*
X037720Y019048D01*
X037790Y018879D01*
X037919Y018750D01*
X038088Y018680D01*
X038271Y018680D01*
X038441Y018750D01*
X038570Y018879D01*
X038640Y019048D01*
X038640Y019831D01*
X038570Y020001D01*
X038441Y020130D01*
X038271Y020200D01*
X038088Y020200D01*
X037919Y020130D01*
X037790Y020001D01*
X037743Y019887D02*
X037617Y019887D01*
X037640Y019728D02*
X037720Y019728D01*
X037720Y019570D02*
X037640Y019570D01*
X037640Y019411D02*
X037720Y019411D01*
X037720Y019253D02*
X037640Y019253D01*
X037640Y019094D02*
X037720Y019094D01*
X037767Y018936D02*
X037593Y018936D01*
X037468Y018777D02*
X037892Y018777D01*
X038468Y018777D02*
X038892Y018777D01*
X038919Y018750D02*
X039088Y018680D01*
X039271Y018680D01*
X039441Y018750D01*
X039570Y018879D01*
X039640Y019048D01*
X039640Y019831D01*
X039570Y020001D01*
X039441Y020130D01*
X039271Y020200D01*
X039088Y020200D01*
X038919Y020130D01*
X038790Y020001D01*
X038720Y019831D01*
X038720Y019048D01*
X038790Y018879D01*
X038919Y018750D01*
X038767Y018936D02*
X038593Y018936D01*
X038640Y019094D02*
X038720Y019094D01*
X038720Y019253D02*
X038640Y019253D01*
X038640Y019411D02*
X038720Y019411D01*
X038720Y019570D02*
X038640Y019570D01*
X038640Y019728D02*
X038720Y019728D01*
X038743Y019887D02*
X038617Y019887D01*
X038526Y020045D02*
X038834Y020045D01*
X039526Y020045D02*
X039834Y020045D01*
X039790Y020001D02*
X039720Y019831D01*
X039720Y019048D01*
X039790Y018879D01*
X039919Y018750D01*
X040088Y018680D01*
X040271Y018680D01*
X040441Y018750D01*
X040570Y018879D01*
X040640Y019048D01*
X040640Y019831D01*
X040570Y020001D01*
X040441Y020130D01*
X040271Y020200D01*
X040088Y020200D01*
X039919Y020130D01*
X039790Y020001D01*
X039743Y019887D02*
X039617Y019887D01*
X039640Y019728D02*
X039720Y019728D01*
X039720Y019570D02*
X039640Y019570D01*
X039640Y019411D02*
X039720Y019411D01*
X039720Y019253D02*
X039640Y019253D01*
X039640Y019094D02*
X039720Y019094D01*
X039767Y018936D02*
X039593Y018936D01*
X039468Y018777D02*
X039892Y018777D01*
X040468Y018777D02*
X041900Y018777D01*
X041900Y018619D02*
X027378Y018619D01*
X030073Y015924D02*
X041900Y015924D01*
X041900Y015766D02*
X030231Y015766D01*
X030390Y015607D02*
X041900Y015607D01*
X041900Y015449D02*
X030548Y015449D01*
X030707Y015290D02*
X040367Y015290D01*
X040500Y015345D02*
X040167Y015207D01*
X039913Y014953D01*
X039775Y014620D01*
X039775Y014260D01*
X039913Y013927D01*
X040167Y013673D01*
X040500Y013535D01*
X040860Y013535D01*
X041193Y013673D01*
X041447Y013927D01*
X041585Y014260D01*
X041585Y014620D01*
X041447Y014953D01*
X041193Y015207D01*
X040860Y015345D01*
X040500Y015345D01*
X040092Y015132D02*
X030865Y015132D01*
X031024Y014973D02*
X039933Y014973D01*
X039856Y014815D02*
X031182Y014815D01*
X031341Y014656D02*
X039790Y014656D01*
X039775Y014498D02*
X031499Y014498D01*
X031658Y014339D02*
X039775Y014339D01*
X039808Y014181D02*
X031816Y014181D01*
X031975Y014022D02*
X039874Y014022D01*
X039977Y013864D02*
X032133Y013864D01*
X032292Y013705D02*
X040135Y013705D01*
X040472Y013547D02*
X032450Y013547D01*
X032609Y013388D02*
X041900Y013388D01*
X041900Y013230D02*
X032767Y013230D01*
X032926Y013071D02*
X041900Y013071D01*
X041900Y012913D02*
X033084Y012913D01*
X033243Y012754D02*
X041900Y012754D01*
X041900Y012596D02*
X033401Y012596D01*
X033560Y012437D02*
X041900Y012437D01*
X041900Y012279D02*
X033718Y012279D01*
X033877Y012120D02*
X041900Y012120D01*
X041900Y011962D02*
X034035Y011962D01*
X034194Y011803D02*
X041900Y011803D01*
X041900Y011645D02*
X034352Y011645D01*
X034511Y011486D02*
X041900Y011486D01*
X041900Y011328D02*
X034669Y011328D01*
X034828Y011169D02*
X041900Y011169D01*
X041900Y011011D02*
X034986Y011011D01*
X035145Y010852D02*
X041900Y010852D01*
X041900Y010694D02*
X035303Y010694D01*
X035462Y010535D02*
X041900Y010535D01*
X041900Y010377D02*
X035620Y010377D01*
X035779Y010218D02*
X041900Y010218D01*
X041900Y010060D02*
X035937Y010060D01*
X036096Y009901D02*
X041900Y009901D01*
X041900Y009743D02*
X037000Y009743D01*
X037120Y009584D02*
X041900Y009584D01*
X041900Y009426D02*
X037120Y009426D01*
X037120Y009267D02*
X041900Y009267D01*
X041900Y009109D02*
X036971Y009109D01*
X036951Y008792D02*
X041900Y008792D01*
X041900Y008950D02*
X036300Y008950D01*
X036300Y008792D02*
X036409Y008792D01*
X036389Y009109D02*
X036300Y009109D01*
X035475Y008950D02*
X025524Y008950D01*
X025366Y009109D02*
X035389Y009109D01*
X035240Y009267D02*
X025207Y009267D01*
X025049Y009426D02*
X035240Y009426D01*
X035234Y009584D02*
X024890Y009584D01*
X024732Y009743D02*
X035075Y009743D01*
X034917Y009901D02*
X024573Y009901D01*
X024415Y010060D02*
X034758Y010060D01*
X034600Y010218D02*
X024256Y010218D01*
X024470Y010377D02*
X024890Y010377D01*
X024942Y010324D02*
X024824Y010442D01*
X024760Y010596D01*
X024760Y011284D01*
X024824Y011438D01*
X024942Y011556D01*
X025096Y011620D01*
X025264Y011620D01*
X025418Y011556D01*
X025536Y011438D01*
X025600Y011284D01*
X025600Y010596D01*
X025536Y010442D01*
X025418Y010324D01*
X025264Y010260D01*
X025096Y010260D01*
X024942Y010324D01*
X024785Y010535D02*
X024575Y010535D01*
X024600Y010694D02*
X024760Y010694D01*
X024760Y010852D02*
X024600Y010852D01*
X024600Y011011D02*
X024760Y011011D01*
X024760Y011169D02*
X024600Y011169D01*
X024582Y011328D02*
X024778Y011328D01*
X024872Y011486D02*
X024488Y011486D01*
X023872Y011486D02*
X023756Y011486D01*
X023597Y011645D02*
X033173Y011645D01*
X033015Y011803D02*
X023439Y011803D01*
X023280Y011962D02*
X032856Y011962D01*
X032698Y012120D02*
X023122Y012120D01*
X022963Y012279D02*
X032539Y012279D01*
X032381Y012437D02*
X022805Y012437D01*
X020180Y013440D02*
X019740Y013440D01*
X019740Y013207D01*
X019600Y013347D01*
X019600Y013784D01*
X019536Y013938D01*
X019418Y014056D01*
X019264Y014120D01*
X019096Y014120D01*
X018942Y014056D01*
X018827Y013940D01*
X018255Y014512D01*
X018255Y014936D01*
X018350Y015031D01*
X018379Y015099D01*
X018690Y014788D01*
X018813Y014665D01*
X022517Y014665D01*
X022460Y014528D01*
X022460Y014352D01*
X022527Y014191D01*
X022651Y014067D01*
X022812Y014000D01*
X023548Y014000D01*
X023709Y014067D01*
X023833Y014191D01*
X023900Y014352D01*
X023900Y014528D01*
X023843Y014665D01*
X024017Y014665D01*
X023960Y014528D01*
X023960Y014352D01*
X024027Y014191D01*
X024151Y014067D01*
X024312Y014000D01*
X025048Y014000D01*
X025209Y014067D01*
X025333Y014191D01*
X025400Y014352D01*
X025400Y014528D01*
X025343Y014665D01*
X025498Y014665D01*
X025474Y014617D01*
X025451Y014548D01*
X025440Y014476D01*
X025440Y014450D01*
X026170Y014450D01*
X026170Y014430D01*
X026190Y014430D01*
X026190Y013980D01*
X026496Y013980D01*
X026568Y013991D01*
X026637Y014014D01*
X026840Y014181D02*
X030637Y014181D01*
X030479Y014339D02*
X026910Y014339D01*
X026917Y014498D02*
X030320Y014498D01*
X030162Y014656D02*
X026866Y014656D01*
X026170Y014430D02*
X026170Y013980D01*
X025864Y013980D01*
X025792Y013991D01*
X025723Y014014D01*
X025659Y014047D01*
X025600Y014089D01*
X025549Y014140D01*
X025507Y014199D01*
X025474Y014263D01*
X025451Y014332D01*
X025440Y014404D01*
X025440Y014430D01*
X026170Y014430D01*
X026170Y014339D02*
X026190Y014339D01*
X026190Y014181D02*
X026170Y014181D01*
X026170Y014022D02*
X026190Y014022D01*
X025707Y014022D02*
X025101Y014022D01*
X025323Y014181D02*
X025520Y014181D01*
X025450Y014339D02*
X025394Y014339D01*
X025400Y014498D02*
X025443Y014498D01*
X025494Y014656D02*
X025347Y014656D01*
X024259Y014022D02*
X023601Y014022D01*
X023823Y014181D02*
X024037Y014181D01*
X023966Y014339D02*
X023894Y014339D01*
X023900Y014498D02*
X023960Y014498D01*
X024013Y014656D02*
X023847Y014656D01*
X022759Y014022D02*
X020480Y014022D01*
X020180Y014022D02*
X020180Y014022D01*
X020180Y013864D02*
X020180Y013864D01*
X020180Y013705D02*
X020180Y013705D01*
X020180Y013547D02*
X020180Y013547D01*
X019740Y013547D02*
X019600Y013547D01*
X019600Y013705D02*
X019740Y013705D01*
X019770Y013864D02*
X019567Y013864D01*
X019452Y014022D02*
X019880Y014022D01*
X018908Y014022D02*
X018745Y014022D01*
X018586Y014181D02*
X022537Y014181D01*
X022466Y014339D02*
X018428Y014339D01*
X018269Y014498D02*
X022460Y014498D01*
X022513Y014656D02*
X018255Y014656D01*
X018255Y014815D02*
X018663Y014815D01*
X018690Y014788D02*
X018690Y014788D01*
X018505Y014973D02*
X018292Y014973D01*
X017835Y014815D02*
X017805Y014815D01*
X017805Y014656D02*
X017835Y014656D01*
X017835Y014498D02*
X017695Y014498D01*
X017835Y014339D02*
X017536Y014339D01*
X017378Y014181D02*
X017992Y014181D01*
X017908Y014022D02*
X017452Y014022D01*
X017567Y013864D02*
X017793Y013864D01*
X017760Y013705D02*
X017600Y013705D01*
X017600Y013547D02*
X017760Y013547D01*
X017760Y013388D02*
X017600Y013388D01*
X017600Y013230D02*
X017760Y013230D01*
X017771Y013071D02*
X017589Y013071D01*
X017506Y012913D02*
X017854Y012913D01*
X018506Y012913D02*
X018585Y012913D01*
X019600Y013388D02*
X019740Y013388D01*
X019740Y013230D02*
X019717Y013230D01*
X016625Y014022D02*
X016452Y014022D01*
X014561Y014973D02*
X009784Y014973D01*
X009942Y014815D02*
X014403Y014815D01*
X014720Y015132D02*
X013494Y015132D01*
X013620Y015258D02*
X013362Y015000D01*
X013180Y015000D01*
X013180Y015440D01*
X013180Y015440D01*
X013180Y015880D01*
X013362Y015880D01*
X013620Y015622D01*
X013620Y015440D01*
X013180Y015440D01*
X013180Y015440D01*
X013180Y015440D01*
X012740Y015440D01*
X012740Y015622D01*
X012998Y015880D01*
X013180Y015880D01*
X013180Y015440D01*
X013620Y015440D01*
X013620Y015258D01*
X013620Y015290D02*
X014878Y015290D01*
X015037Y015449D02*
X013620Y015449D01*
X013620Y015607D02*
X015195Y015607D01*
X015277Y015766D02*
X015354Y015766D01*
X015083Y015766D02*
X014277Y015766D01*
X014264Y015760D02*
X014418Y015824D01*
X014536Y015942D01*
X014600Y016096D01*
X014600Y016784D01*
X014536Y016938D01*
X014418Y017056D01*
X014264Y017120D01*
X014096Y017120D01*
X013942Y017056D01*
X013824Y016938D01*
X013760Y016784D01*
X013760Y016096D01*
X013824Y015942D01*
X013942Y015824D01*
X014096Y015760D01*
X014264Y015760D01*
X014083Y015766D02*
X013477Y015766D01*
X013354Y016020D02*
X013006Y016020D01*
X012760Y016266D01*
X012760Y016614D01*
X013006Y016860D01*
X013354Y016860D01*
X013600Y016614D01*
X013600Y016266D01*
X013354Y016020D01*
X013416Y016083D02*
X013766Y016083D01*
X013760Y016241D02*
X013575Y016241D01*
X013600Y016400D02*
X013760Y016400D01*
X013760Y016558D02*
X013600Y016558D01*
X013497Y016717D02*
X013760Y016717D01*
X013798Y016875D02*
X009469Y016875D01*
X009574Y017034D02*
X012493Y017034D01*
X012334Y017192D02*
X009600Y017192D01*
X009180Y017440D02*
X012680Y017440D01*
X013100Y017509D02*
X015260Y017509D01*
X015260Y017351D02*
X013100Y017351D01*
X013026Y017192D02*
X015334Y017192D01*
X015440Y017034D02*
X015493Y017034D01*
X014920Y017034D02*
X014440Y017034D01*
X014562Y016875D02*
X014798Y016875D01*
X014760Y016717D02*
X014600Y016717D01*
X014600Y016558D02*
X014760Y016558D01*
X014760Y016400D02*
X014600Y016400D01*
X014600Y016241D02*
X014760Y016241D01*
X014766Y016083D02*
X014594Y016083D01*
X014518Y015924D02*
X014842Y015924D01*
X013842Y015924D02*
X006791Y015924D01*
X006633Y015766D02*
X012883Y015766D01*
X012740Y015607D02*
X006474Y015607D01*
X006316Y015449D02*
X012740Y015449D01*
X012740Y015440D02*
X012740Y015258D01*
X012998Y015000D01*
X013180Y015000D01*
X013180Y015440D01*
X013180Y015440D01*
X012740Y015440D01*
X012740Y015290D02*
X009467Y015290D01*
X009625Y015132D02*
X012866Y015132D01*
X013180Y015132D02*
X013180Y015132D01*
X013180Y015290D02*
X013180Y015290D01*
X013180Y015449D02*
X013180Y015449D01*
X013180Y015607D02*
X013180Y015607D01*
X013180Y015766D02*
X013180Y015766D01*
X012944Y016083D02*
X006950Y016083D01*
X007108Y016241D02*
X012785Y016241D01*
X012760Y016400D02*
X007267Y016400D01*
X007425Y016558D02*
X012760Y016558D01*
X012863Y016717D02*
X007584Y016717D01*
X007742Y016875D02*
X007891Y016875D01*
X008469Y016875D02*
X008891Y016875D01*
X008786Y017034D02*
X008574Y017034D01*
X008600Y017192D02*
X008760Y017192D01*
X009180Y017440D02*
X008180Y017440D01*
X009582Y017826D02*
X012472Y017826D01*
X012888Y017826D02*
X015472Y017826D01*
X015314Y017668D02*
X013046Y017668D01*
X012947Y017985D02*
X020408Y017985D01*
X020566Y018143D02*
X013105Y018143D01*
X013264Y018302D02*
X020725Y018302D01*
X020883Y018460D02*
X013422Y018460D01*
X013581Y018619D02*
X021042Y018619D01*
X020249Y017826D02*
X015888Y017826D01*
X015892Y018777D02*
X015468Y018777D01*
X015593Y018936D02*
X015767Y018936D01*
X015720Y019094D02*
X015640Y019094D01*
X015640Y019253D02*
X015720Y019253D01*
X015720Y019411D02*
X015640Y019411D01*
X015640Y019570D02*
X015663Y019570D01*
X015782Y020045D02*
X015834Y020045D01*
X015306Y020521D02*
X041900Y020521D01*
X041900Y020045D02*
X040526Y020045D01*
X040617Y019887D02*
X041900Y019887D01*
X041900Y019728D02*
X040640Y019728D01*
X040640Y019570D02*
X041900Y019570D01*
X041900Y019411D02*
X040640Y019411D01*
X040640Y019253D02*
X041900Y019253D01*
X041900Y019094D02*
X040640Y019094D01*
X040593Y018936D02*
X041900Y018936D01*
X041900Y015290D02*
X040993Y015290D01*
X041268Y015132D02*
X041900Y015132D01*
X041900Y014973D02*
X041427Y014973D01*
X041504Y014815D02*
X041900Y014815D01*
X041900Y014656D02*
X041570Y014656D01*
X041585Y014498D02*
X041900Y014498D01*
X041900Y014339D02*
X041585Y014339D01*
X041552Y014181D02*
X041900Y014181D01*
X041900Y014022D02*
X041486Y014022D01*
X041383Y013864D02*
X041900Y013864D01*
X041900Y013705D02*
X041225Y013705D01*
X040888Y013547D02*
X041900Y013547D01*
X034441Y010377D02*
X032470Y010377D01*
X032418Y010324D02*
X032536Y010442D01*
X032600Y010596D01*
X032600Y011284D01*
X032536Y011438D01*
X032418Y011556D01*
X032264Y011620D01*
X032096Y011620D01*
X031942Y011556D01*
X031824Y011438D01*
X031760Y011284D01*
X031760Y010596D01*
X031824Y010442D01*
X031942Y010324D01*
X032096Y010260D01*
X032264Y010260D01*
X032418Y010324D01*
X032575Y010535D02*
X034283Y010535D01*
X034124Y010694D02*
X032600Y010694D01*
X032600Y010852D02*
X033966Y010852D01*
X033807Y011011D02*
X032600Y011011D01*
X032600Y011169D02*
X033649Y011169D01*
X033490Y011328D02*
X032582Y011328D01*
X032488Y011486D02*
X033332Y011486D01*
X031872Y011486D02*
X031488Y011486D01*
X031536Y011438D02*
X031418Y011556D01*
X031264Y011620D01*
X031096Y011620D01*
X030942Y011556D01*
X030824Y011438D01*
X030760Y011284D01*
X030760Y010596D01*
X030824Y010442D01*
X030942Y010324D01*
X031096Y010260D01*
X031264Y010260D01*
X031418Y010324D01*
X031536Y010442D01*
X031600Y010596D01*
X031600Y011284D01*
X031536Y011438D01*
X031582Y011328D02*
X031778Y011328D01*
X031760Y011169D02*
X031600Y011169D01*
X031600Y011011D02*
X031760Y011011D01*
X031760Y010852D02*
X031600Y010852D01*
X031600Y010694D02*
X031760Y010694D01*
X031785Y010535D02*
X031575Y010535D01*
X031470Y010377D02*
X031890Y010377D01*
X030890Y010377D02*
X030470Y010377D01*
X030418Y010324D02*
X030536Y010442D01*
X030600Y010596D01*
X030600Y011284D01*
X030536Y011438D01*
X030418Y011556D01*
X030264Y011620D01*
X030096Y011620D01*
X029942Y011556D01*
X029824Y011438D01*
X029760Y011284D01*
X029760Y010596D01*
X029824Y010442D01*
X029942Y010324D01*
X030096Y010260D01*
X030264Y010260D01*
X030418Y010324D01*
X030575Y010535D02*
X030785Y010535D01*
X030760Y010694D02*
X030600Y010694D01*
X030600Y010852D02*
X030760Y010852D01*
X030760Y011011D02*
X030600Y011011D01*
X030600Y011169D02*
X030760Y011169D01*
X030778Y011328D02*
X030582Y011328D01*
X030488Y011486D02*
X030872Y011486D01*
X029872Y011486D02*
X029488Y011486D01*
X029536Y011438D02*
X029418Y011556D01*
X029264Y011620D01*
X029096Y011620D01*
X028942Y011556D01*
X028824Y011438D01*
X028760Y011284D01*
X028760Y010596D01*
X028824Y010442D01*
X028942Y010324D01*
X029096Y010260D01*
X029264Y010260D01*
X029418Y010324D01*
X029536Y010442D01*
X029600Y010596D01*
X029600Y011284D01*
X029536Y011438D01*
X029582Y011328D02*
X029778Y011328D01*
X029760Y011169D02*
X029600Y011169D01*
X029600Y011011D02*
X029760Y011011D01*
X029760Y010852D02*
X029600Y010852D01*
X029600Y010694D02*
X029760Y010694D01*
X029785Y010535D02*
X029575Y010535D01*
X029470Y010377D02*
X029890Y010377D01*
X028890Y010377D02*
X028470Y010377D01*
X028418Y010324D02*
X028536Y010442D01*
X028600Y010596D01*
X028600Y011284D01*
X028536Y011438D01*
X028418Y011556D01*
X028264Y011620D01*
X028096Y011620D01*
X027942Y011556D01*
X027824Y011438D01*
X027760Y011284D01*
X027760Y010596D01*
X027824Y010442D01*
X027942Y010324D01*
X028096Y010260D01*
X028264Y010260D01*
X028418Y010324D01*
X028575Y010535D02*
X028785Y010535D01*
X028760Y010694D02*
X028600Y010694D01*
X028600Y010852D02*
X028760Y010852D01*
X028760Y011011D02*
X028600Y011011D01*
X028600Y011169D02*
X028760Y011169D01*
X028778Y011328D02*
X028582Y011328D01*
X028488Y011486D02*
X028872Y011486D01*
X027872Y011486D02*
X027488Y011486D01*
X027536Y011438D02*
X027418Y011556D01*
X027264Y011620D01*
X027096Y011620D01*
X026942Y011556D01*
X026824Y011438D01*
X026760Y011284D01*
X026760Y010596D01*
X026824Y010442D01*
X026942Y010324D01*
X027096Y010260D01*
X027264Y010260D01*
X027418Y010324D01*
X027536Y010442D01*
X027600Y010596D01*
X027600Y011284D01*
X027536Y011438D01*
X027582Y011328D02*
X027778Y011328D01*
X027760Y011169D02*
X027600Y011169D01*
X027600Y011011D02*
X027760Y011011D01*
X027760Y010852D02*
X027600Y010852D01*
X027600Y010694D02*
X027760Y010694D01*
X027785Y010535D02*
X027575Y010535D01*
X027470Y010377D02*
X027890Y010377D01*
X026890Y010377D02*
X026470Y010377D01*
X026418Y010324D02*
X026536Y010442D01*
X026600Y010596D01*
X026600Y011284D01*
X026536Y011438D01*
X026418Y011556D01*
X026264Y011620D01*
X026096Y011620D01*
X025942Y011556D01*
X025824Y011438D01*
X025760Y011284D01*
X025760Y010596D01*
X025824Y010442D01*
X025942Y010324D01*
X026096Y010260D01*
X026264Y010260D01*
X026418Y010324D01*
X026575Y010535D02*
X026785Y010535D01*
X026760Y010694D02*
X026600Y010694D01*
X026600Y010852D02*
X026760Y010852D01*
X026760Y011011D02*
X026600Y011011D01*
X026600Y011169D02*
X026760Y011169D01*
X026778Y011328D02*
X026582Y011328D01*
X026488Y011486D02*
X026872Y011486D01*
X025872Y011486D02*
X025488Y011486D01*
X025582Y011328D02*
X025778Y011328D01*
X025760Y011169D02*
X025600Y011169D01*
X025600Y011011D02*
X025760Y011011D01*
X025760Y010852D02*
X025600Y010852D01*
X025600Y010694D02*
X025760Y010694D01*
X025785Y010535D02*
X025575Y010535D01*
X025470Y010377D02*
X025890Y010377D01*
X025683Y008792D02*
X035409Y008792D01*
X035251Y008633D02*
X032259Y008633D01*
X032283Y008629D02*
X032215Y008640D01*
X032180Y008640D01*
X032180Y007940D01*
X032620Y007940D01*
X032620Y008235D01*
X032609Y008303D01*
X032588Y008369D01*
X032556Y008431D01*
X032516Y008487D01*
X032467Y008536D01*
X032411Y008576D01*
X032349Y008608D01*
X032283Y008629D01*
X032180Y008633D02*
X032180Y008633D01*
X032180Y008640D02*
X032145Y008640D01*
X032077Y008629D01*
X032011Y008608D01*
X031949Y008576D01*
X031893Y008536D01*
X031844Y008487D01*
X031804Y008431D01*
X031772Y008369D01*
X031751Y008303D01*
X031740Y008235D01*
X031740Y007940D01*
X032180Y007940D01*
X032180Y007940D01*
X032180Y007940D01*
X032620Y007940D01*
X032620Y007645D01*
X032609Y007577D01*
X032588Y007511D01*
X032556Y007449D01*
X032516Y007393D01*
X032467Y007344D01*
X032411Y007304D01*
X032349Y007272D01*
X032283Y007251D01*
X032215Y007240D01*
X032180Y007240D01*
X032180Y007940D01*
X032180Y007940D01*
X032180Y007940D01*
X032180Y008640D01*
X032101Y008633D02*
X025822Y008633D01*
X025845Y008475D02*
X025861Y008475D01*
X026499Y008475D02*
X026861Y008475D01*
X026824Y008438D02*
X026942Y008556D01*
X027096Y008620D01*
X027264Y008620D01*
X027418Y008556D01*
X027536Y008438D01*
X027600Y008284D01*
X027600Y007596D01*
X027536Y007442D01*
X027418Y007324D01*
X027264Y007260D01*
X027096Y007260D01*
X026942Y007324D01*
X026824Y007442D01*
X026760Y007596D01*
X026760Y008284D01*
X026824Y008438D01*
X026773Y008316D02*
X026587Y008316D01*
X026600Y008158D02*
X026760Y008158D01*
X026760Y007999D02*
X026600Y007999D01*
X026600Y007841D02*
X026760Y007841D01*
X026760Y007682D02*
X026600Y007682D01*
X026570Y007524D02*
X026790Y007524D01*
X026749Y007365D02*
X026901Y007365D01*
X026908Y007207D02*
X035291Y007207D01*
X035240Y007365D02*
X032487Y007365D01*
X032592Y007524D02*
X035240Y007524D01*
X035300Y007682D02*
X032620Y007682D01*
X032620Y007841D02*
X035458Y007841D01*
X035475Y007999D02*
X032620Y007999D01*
X032620Y008158D02*
X035340Y008158D01*
X035240Y008316D02*
X032605Y008316D01*
X032524Y008475D02*
X035240Y008475D01*
X036300Y008158D02*
X036340Y008158D01*
X036300Y007999D02*
X041900Y007999D01*
X041900Y007841D02*
X036902Y007841D01*
X037060Y007682D02*
X041900Y007682D01*
X041900Y007524D02*
X037120Y007524D01*
X037120Y007365D02*
X041900Y007365D01*
X041900Y007207D02*
X037069Y007207D01*
X036910Y007048D02*
X041900Y007048D01*
X041900Y006890D02*
X036885Y006890D01*
X037011Y006731D02*
X041900Y006731D01*
X041900Y006573D02*
X037120Y006573D01*
X037120Y006414D02*
X041900Y006414D01*
X041900Y006256D02*
X037118Y006256D01*
X036959Y006097D02*
X041900Y006097D01*
X041900Y005939D02*
X032640Y005939D01*
X032640Y006097D02*
X035401Y006097D01*
X035242Y006256D02*
X032515Y006256D01*
X032640Y006131D02*
X032371Y006400D01*
X031989Y006400D01*
X031720Y006131D01*
X031720Y005749D01*
X031989Y005480D01*
X032371Y005480D01*
X032640Y005749D01*
X032640Y006131D01*
X032640Y005780D02*
X035398Y005780D01*
X035498Y005880D02*
X035240Y005622D01*
X035240Y005258D01*
X035498Y005000D01*
X035862Y005000D01*
X036120Y005258D01*
X036120Y005622D01*
X035862Y005880D01*
X035498Y005880D01*
X035240Y005622D02*
X032512Y005622D01*
X032379Y005420D02*
X032200Y005420D01*
X032200Y004960D01*
X032660Y004960D01*
X032660Y005139D01*
X032379Y005420D01*
X032494Y005305D02*
X035240Y005305D01*
X035240Y005463D02*
X029686Y005463D01*
X029528Y005622D02*
X029848Y005622D01*
X029720Y005749D02*
X029989Y005480D01*
X030371Y005480D01*
X030640Y005749D01*
X030640Y006131D01*
X030371Y006400D01*
X029989Y006400D01*
X029720Y006131D01*
X029720Y005749D01*
X029720Y005780D02*
X029640Y005780D01*
X029640Y005939D02*
X029720Y005939D01*
X029720Y006097D02*
X029640Y006097D01*
X029515Y006256D02*
X029845Y006256D01*
X030515Y006256D02*
X030845Y006256D01*
X030720Y006131D02*
X030720Y005749D01*
X030989Y005480D01*
X031371Y005480D01*
X031640Y005749D01*
X031640Y006131D01*
X031371Y006400D01*
X030989Y006400D01*
X030720Y006131D01*
X030720Y006097D02*
X030640Y006097D01*
X030640Y005939D02*
X030720Y005939D01*
X030720Y005780D02*
X030640Y005780D01*
X030512Y005622D02*
X030848Y005622D01*
X030894Y005305D02*
X030466Y005305D01*
X030625Y005146D02*
X030735Y005146D01*
X030720Y004988D02*
X030640Y004988D01*
X030640Y004829D02*
X030720Y004829D01*
X030799Y004671D02*
X030561Y004671D01*
X030435Y004512D02*
X030957Y004512D01*
X030975Y004354D02*
X030435Y004354D01*
X030435Y004195D02*
X030975Y004195D01*
X030975Y004037D02*
X030435Y004037D01*
X031395Y004037D02*
X039868Y004037D01*
X039802Y004195D02*
X031395Y004195D01*
X031395Y004354D02*
X039775Y004354D01*
X039775Y004512D02*
X032431Y004512D01*
X032379Y004460D02*
X032660Y004741D01*
X032660Y004920D01*
X032200Y004920D01*
X032200Y004960D01*
X032160Y004960D01*
X032160Y005420D01*
X031981Y005420D01*
X031700Y005139D01*
X031700Y004960D01*
X032160Y004960D01*
X032160Y004920D01*
X032200Y004920D01*
X032200Y004460D01*
X032379Y004460D01*
X032200Y004512D02*
X032160Y004512D01*
X032160Y004460D02*
X032160Y004920D01*
X031700Y004920D01*
X031700Y004741D01*
X031981Y004460D01*
X032160Y004460D01*
X032160Y004671D02*
X032200Y004671D01*
X032200Y004829D02*
X032160Y004829D01*
X032160Y004988D02*
X032200Y004988D01*
X032200Y005146D02*
X032160Y005146D01*
X032160Y005305D02*
X032200Y005305D01*
X031866Y005305D02*
X031466Y005305D01*
X031625Y005146D02*
X031707Y005146D01*
X031700Y004988D02*
X031640Y004988D01*
X031640Y004829D02*
X031700Y004829D01*
X031771Y004671D02*
X031561Y004671D01*
X031403Y004512D02*
X031929Y004512D01*
X032589Y004671D02*
X039796Y004671D01*
X039862Y004829D02*
X032660Y004829D01*
X032660Y004988D02*
X039948Y004988D01*
X040106Y005146D02*
X037008Y005146D01*
X037120Y005258D02*
X036862Y005000D01*
X036498Y005000D01*
X036240Y005258D01*
X036240Y005622D01*
X036498Y005880D01*
X036862Y005880D01*
X037120Y005622D01*
X037120Y005258D01*
X037120Y005305D02*
X040402Y005305D01*
X040958Y005305D02*
X041900Y005305D01*
X041900Y005463D02*
X037120Y005463D01*
X037120Y005622D02*
X041900Y005622D01*
X041900Y005780D02*
X036962Y005780D01*
X036398Y005780D02*
X035962Y005780D01*
X036120Y005622D02*
X036240Y005622D01*
X036240Y005463D02*
X036120Y005463D01*
X036120Y005305D02*
X036240Y005305D01*
X036352Y005146D02*
X036008Y005146D01*
X035352Y005146D02*
X032653Y005146D01*
X031848Y005622D02*
X031512Y005622D01*
X031640Y005780D02*
X031720Y005780D01*
X031720Y005939D02*
X031640Y005939D01*
X031640Y006097D02*
X031720Y006097D01*
X031845Y006256D02*
X031515Y006256D01*
X029894Y005305D02*
X029845Y005305D01*
X028720Y005780D02*
X028640Y005780D01*
X028640Y005939D02*
X028720Y005939D01*
X028720Y006097D02*
X028640Y006097D01*
X028515Y006256D02*
X028845Y006256D01*
X027700Y006414D02*
X035240Y006414D01*
X035240Y006573D02*
X027542Y006573D01*
X027383Y006731D02*
X035349Y006731D01*
X035475Y006890D02*
X027225Y006890D01*
X027066Y007048D02*
X035450Y007048D01*
X035910Y007048D02*
X036195Y007048D01*
X036354Y006890D02*
X035895Y006890D01*
X036011Y006731D02*
X036349Y006731D01*
X036240Y006573D02*
X036120Y006573D01*
X036120Y006414D02*
X036240Y006414D01*
X036242Y006256D02*
X036118Y006256D01*
X035959Y006097D02*
X036401Y006097D01*
X036458Y007841D02*
X036300Y007841D01*
X037020Y008158D02*
X041900Y008158D01*
X041900Y008316D02*
X037120Y008316D01*
X037120Y008475D02*
X041900Y008475D01*
X041900Y008633D02*
X037109Y008633D01*
X036360Y009743D02*
X036254Y009743D01*
X032180Y008475D02*
X032180Y008475D01*
X032180Y008316D02*
X032180Y008316D01*
X032180Y008158D02*
X032180Y008158D01*
X032180Y007999D02*
X032180Y007999D01*
X032180Y007940D02*
X031740Y007940D01*
X031740Y007645D01*
X031751Y007577D01*
X031772Y007511D01*
X031804Y007449D01*
X031844Y007393D01*
X031893Y007344D01*
X031949Y007304D01*
X032011Y007272D01*
X032077Y007251D01*
X032145Y007240D01*
X032180Y007240D01*
X032180Y007940D01*
X032180Y007841D02*
X032180Y007841D01*
X032180Y007682D02*
X032180Y007682D01*
X032180Y007524D02*
X032180Y007524D01*
X032180Y007365D02*
X032180Y007365D01*
X031873Y007365D02*
X031459Y007365D01*
X031418Y007324D02*
X031536Y007442D01*
X031600Y007596D01*
X031600Y008284D01*
X031536Y008438D01*
X031418Y008556D01*
X031264Y008620D01*
X031096Y008620D01*
X030942Y008556D01*
X030824Y008438D01*
X030760Y008284D01*
X030760Y007596D01*
X030824Y007442D01*
X030942Y007324D01*
X031096Y007260D01*
X031264Y007260D01*
X031418Y007324D01*
X031570Y007524D02*
X031768Y007524D01*
X031740Y007682D02*
X031600Y007682D01*
X031600Y007841D02*
X031740Y007841D01*
X031740Y007999D02*
X031600Y007999D01*
X031600Y008158D02*
X031740Y008158D01*
X031755Y008316D02*
X031587Y008316D01*
X031499Y008475D02*
X031836Y008475D01*
X030861Y008475D02*
X030499Y008475D01*
X030536Y008438D02*
X030418Y008556D01*
X030264Y008620D01*
X030096Y008620D01*
X029942Y008556D01*
X029824Y008438D01*
X029760Y008284D01*
X029760Y007596D01*
X029824Y007442D01*
X029942Y007324D01*
X030096Y007260D01*
X030264Y007260D01*
X030418Y007324D01*
X030536Y007442D01*
X030600Y007596D01*
X030600Y008284D01*
X030536Y008438D01*
X030587Y008316D02*
X030773Y008316D01*
X030760Y008158D02*
X030600Y008158D01*
X030600Y007999D02*
X030760Y007999D01*
X030760Y007841D02*
X030600Y007841D01*
X030600Y007682D02*
X030760Y007682D01*
X030790Y007524D02*
X030570Y007524D01*
X030459Y007365D02*
X030901Y007365D01*
X029901Y007365D02*
X029459Y007365D01*
X029418Y007324D02*
X029536Y007442D01*
X029600Y007596D01*
X029600Y008284D01*
X029536Y008438D01*
X029418Y008556D01*
X029264Y008620D01*
X029096Y008620D01*
X028942Y008556D01*
X028824Y008438D01*
X028760Y008284D01*
X028760Y007596D01*
X028824Y007442D01*
X028942Y007324D01*
X029096Y007260D01*
X029264Y007260D01*
X029418Y007324D01*
X029570Y007524D02*
X029790Y007524D01*
X029760Y007682D02*
X029600Y007682D01*
X029600Y007841D02*
X029760Y007841D01*
X029760Y007999D02*
X029600Y007999D01*
X029600Y008158D02*
X029760Y008158D01*
X029773Y008316D02*
X029587Y008316D01*
X029499Y008475D02*
X029861Y008475D01*
X028861Y008475D02*
X028499Y008475D01*
X028536Y008438D02*
X028418Y008556D01*
X028264Y008620D01*
X028096Y008620D01*
X027942Y008556D01*
X027824Y008438D01*
X027760Y008284D01*
X027760Y007596D01*
X027824Y007442D01*
X027942Y007324D01*
X028096Y007260D01*
X028264Y007260D01*
X028418Y007324D01*
X028536Y007442D01*
X028600Y007596D01*
X028600Y008284D01*
X028536Y008438D01*
X028587Y008316D02*
X028773Y008316D01*
X028760Y008158D02*
X028600Y008158D01*
X028600Y007999D02*
X028760Y007999D01*
X028760Y007841D02*
X028600Y007841D01*
X028600Y007682D02*
X028760Y007682D01*
X028790Y007524D02*
X028570Y007524D01*
X028459Y007365D02*
X028901Y007365D01*
X027901Y007365D02*
X027459Y007365D01*
X027570Y007524D02*
X027790Y007524D01*
X027760Y007682D02*
X027600Y007682D01*
X027600Y007841D02*
X027760Y007841D01*
X027760Y007999D02*
X027600Y007999D01*
X027600Y008158D02*
X027760Y008158D01*
X027773Y008316D02*
X027587Y008316D01*
X027499Y008475D02*
X027861Y008475D01*
X025531Y007365D02*
X025459Y007365D01*
X024901Y007365D02*
X024459Y007365D01*
X024570Y007524D02*
X024790Y007524D01*
X024760Y007682D02*
X024600Y007682D01*
X024600Y007841D02*
X024760Y007841D01*
X024760Y007999D02*
X024600Y007999D01*
X024600Y008158D02*
X024760Y008158D01*
X023861Y008475D02*
X023499Y008475D01*
X023587Y008316D02*
X023773Y008316D01*
X023760Y008158D02*
X023600Y008158D01*
X023600Y007999D02*
X023760Y007999D01*
X023760Y007841D02*
X023600Y007841D01*
X023600Y007682D02*
X023760Y007682D01*
X023790Y007524D02*
X023570Y007524D01*
X023459Y007365D02*
X023901Y007365D01*
X023989Y006400D02*
X023720Y006131D01*
X023720Y005749D01*
X023989Y005480D01*
X024371Y005480D01*
X024640Y005749D01*
X024640Y006131D01*
X024371Y006400D01*
X023989Y006400D01*
X023845Y006256D02*
X023515Y006256D01*
X023640Y006097D02*
X023720Y006097D01*
X023720Y005939D02*
X023640Y005939D01*
X023640Y005780D02*
X023720Y005780D01*
X023848Y005622D02*
X023512Y005622D01*
X023494Y005305D02*
X023894Y005305D01*
X023735Y005146D02*
X023653Y005146D01*
X023660Y004988D02*
X023720Y004988D01*
X023720Y004829D02*
X023660Y004829D01*
X023589Y004671D02*
X023799Y004671D01*
X023955Y004512D02*
X023431Y004512D01*
X022771Y004671D02*
X022561Y004671D01*
X022640Y004829D02*
X022700Y004829D01*
X022700Y004988D02*
X022640Y004988D01*
X022625Y005146D02*
X022707Y005146D01*
X022866Y005305D02*
X022466Y005305D01*
X021894Y005305D02*
X021466Y005305D01*
X021371Y005480D02*
X021640Y005749D01*
X021640Y006131D01*
X021371Y006400D01*
X020989Y006400D01*
X020720Y006131D01*
X020720Y005749D01*
X020989Y005480D01*
X021371Y005480D01*
X021512Y005622D02*
X021848Y005622D01*
X021720Y005780D02*
X021640Y005780D01*
X021640Y005939D02*
X021720Y005939D01*
X021720Y006097D02*
X021640Y006097D01*
X021515Y006256D02*
X021845Y006256D01*
X021930Y006414D02*
X019648Y006414D01*
X019806Y006256D02*
X019845Y006256D01*
X019489Y006573D02*
X021930Y006573D01*
X021930Y006731D02*
X019331Y006731D01*
X019172Y006890D02*
X021774Y006890D01*
X021615Y007048D02*
X019014Y007048D01*
X018855Y007207D02*
X021457Y007207D01*
X021298Y007365D02*
X018697Y007365D01*
X018538Y007524D02*
X021140Y007524D01*
X020981Y007682D02*
X018380Y007682D01*
X018426Y007841D02*
X018221Y007841D01*
X018300Y007999D02*
X018063Y007999D01*
X018100Y008158D02*
X018260Y008158D01*
X018260Y008316D02*
X018100Y008316D01*
X018100Y008475D02*
X018260Y008475D01*
X018260Y008633D02*
X018100Y008633D01*
X018097Y008792D02*
X018263Y008792D01*
X019097Y008792D02*
X019249Y008792D01*
X019240Y008633D02*
X019100Y008633D01*
X019100Y008475D02*
X019240Y008475D01*
X019240Y008440D02*
X019240Y008145D01*
X019251Y008077D01*
X019272Y008011D01*
X019304Y007949D01*
X019344Y007893D01*
X019393Y007844D01*
X019449Y007804D01*
X019511Y007772D01*
X019577Y007751D01*
X019645Y007740D01*
X019680Y007740D01*
X019715Y007740D01*
X019783Y007751D01*
X019849Y007772D01*
X019911Y007804D01*
X019967Y007844D01*
X020016Y007893D01*
X020056Y007949D01*
X020088Y008011D01*
X020109Y008077D01*
X020120Y008145D01*
X020120Y008440D01*
X019680Y008440D01*
X019680Y008440D01*
X019680Y007740D01*
X019680Y008440D01*
X019680Y008440D01*
X019680Y008440D01*
X019240Y008440D01*
X019240Y008316D02*
X019100Y008316D01*
X019100Y008158D02*
X019240Y008158D01*
X019278Y007999D02*
X019060Y007999D01*
X018934Y007841D02*
X019399Y007841D01*
X019680Y007841D02*
X019680Y007841D01*
X019680Y007999D02*
X019680Y007999D01*
X019680Y008158D02*
X019680Y008158D01*
X019680Y008316D02*
X019680Y008316D01*
X020120Y008316D02*
X020347Y008316D01*
X020506Y008158D02*
X020120Y008158D01*
X020082Y007999D02*
X020664Y007999D01*
X020823Y007841D02*
X019961Y007841D01*
X020120Y008475D02*
X020189Y008475D01*
X020515Y006256D02*
X020845Y006256D01*
X020720Y006097D02*
X020640Y006097D01*
X020640Y005939D02*
X020720Y005939D01*
X020720Y005780D02*
X020640Y005780D01*
X020512Y005622D02*
X020848Y005622D01*
X020894Y005305D02*
X020466Y005305D01*
X020625Y005146D02*
X020735Y005146D01*
X020720Y004988D02*
X020640Y004988D01*
X020640Y004829D02*
X020720Y004829D01*
X020799Y004671D02*
X020561Y004671D01*
X020415Y004512D02*
X020957Y004512D01*
X020985Y004354D02*
X020415Y004354D01*
X020415Y004195D02*
X020985Y004195D01*
X020985Y004037D02*
X020415Y004037D01*
X021405Y004037D02*
X021975Y004037D01*
X021975Y004195D02*
X021405Y004195D01*
X021405Y004354D02*
X021975Y004354D01*
X021957Y004512D02*
X021405Y004512D01*
X021561Y004671D02*
X021799Y004671D01*
X021720Y004829D02*
X021640Y004829D01*
X021640Y004988D02*
X021720Y004988D01*
X021735Y005146D02*
X021625Y005146D01*
X019969Y005463D02*
X027658Y005463D01*
X027816Y005305D02*
X027466Y005305D01*
X027625Y005146D02*
X027735Y005146D01*
X027720Y004988D02*
X027640Y004988D01*
X027640Y004829D02*
X027720Y004829D01*
X027799Y004671D02*
X027561Y004671D01*
X027403Y004512D02*
X027957Y004512D01*
X027960Y004354D02*
X027390Y004354D01*
X027390Y004195D02*
X027960Y004195D01*
X027960Y004037D02*
X027390Y004037D01*
X026970Y004037D02*
X026400Y004037D01*
X026400Y004195D02*
X026970Y004195D01*
X026970Y004354D02*
X026400Y004354D01*
X026403Y004512D02*
X026957Y004512D01*
X026799Y004671D02*
X026561Y004671D01*
X026640Y004829D02*
X026720Y004829D01*
X026720Y004988D02*
X026640Y004988D01*
X026625Y005146D02*
X026735Y005146D01*
X026894Y005305D02*
X026466Y005305D01*
X026371Y005480D02*
X026640Y005749D01*
X026640Y006131D01*
X026371Y006400D01*
X025989Y006400D01*
X025720Y006131D01*
X025720Y005749D01*
X025989Y005480D01*
X026371Y005480D01*
X026512Y005622D02*
X026848Y005622D01*
X026720Y005780D02*
X026640Y005780D01*
X026640Y005939D02*
X026720Y005939D01*
X026720Y006097D02*
X026640Y006097D01*
X026515Y006256D02*
X026845Y006256D01*
X025845Y006256D02*
X025515Y006256D01*
X025640Y006131D02*
X025371Y006400D01*
X024989Y006400D01*
X024720Y006131D01*
X024720Y005749D01*
X024989Y005480D01*
X025371Y005480D01*
X025640Y005749D01*
X025640Y006131D01*
X025640Y006097D02*
X025720Y006097D01*
X025720Y005939D02*
X025640Y005939D01*
X025640Y005780D02*
X025720Y005780D01*
X025848Y005622D02*
X025512Y005622D01*
X025466Y005305D02*
X025894Y005305D01*
X025735Y005146D02*
X025625Y005146D01*
X025640Y004988D02*
X025720Y004988D01*
X025720Y004829D02*
X025640Y004829D01*
X025561Y004671D02*
X025799Y004671D01*
X025957Y004512D02*
X025410Y004512D01*
X025410Y004354D02*
X025980Y004354D01*
X025980Y004195D02*
X025410Y004195D01*
X025410Y004037D02*
X025980Y004037D01*
X024990Y004037D02*
X024375Y004037D01*
X024375Y004195D02*
X024990Y004195D01*
X024990Y004354D02*
X024375Y004354D01*
X024403Y004512D02*
X024957Y004512D01*
X024799Y004671D02*
X024561Y004671D01*
X024640Y004829D02*
X024720Y004829D01*
X024720Y004988D02*
X024640Y004988D01*
X024625Y005146D02*
X024735Y005146D01*
X024894Y005305D02*
X024466Y005305D01*
X024512Y005622D02*
X024848Y005622D01*
X024720Y005780D02*
X024640Y005780D01*
X024640Y005939D02*
X024720Y005939D01*
X024720Y006097D02*
X024640Y006097D01*
X024515Y006256D02*
X024845Y006256D01*
X012885Y011011D02*
X011564Y011011D01*
X011600Y011169D02*
X012357Y011169D01*
X012260Y011328D02*
X011600Y011328D01*
X011600Y011486D02*
X012260Y011486D01*
X012291Y011645D02*
X011600Y011645D01*
X011592Y011803D02*
X012449Y011803D01*
X012885Y011962D02*
X011512Y011962D01*
X010848Y011962D02*
X010512Y011962D01*
X010592Y011803D02*
X010768Y011803D01*
X010760Y011645D02*
X010600Y011645D01*
X010600Y011486D02*
X010760Y011486D01*
X010760Y011328D02*
X010600Y011328D01*
X010600Y011169D02*
X010760Y011169D01*
X010796Y011011D02*
X010564Y011011D01*
X010446Y010852D02*
X010914Y010852D01*
X010950Y010694D02*
X010373Y010694D01*
X010380Y010535D02*
X010950Y010535D01*
X010950Y010377D02*
X010380Y010377D01*
X010380Y012120D02*
X012885Y012120D01*
X012885Y012279D02*
X010361Y012279D01*
X010547Y012437D02*
X012885Y012437D01*
X012885Y012596D02*
X010612Y012596D01*
X010620Y012754D02*
X012885Y012754D01*
X009908Y013547D02*
X009725Y013547D01*
X005355Y010798D02*
X007037Y009116D01*
X007011Y009108D01*
X006949Y009076D01*
X006893Y009036D01*
X006844Y008987D01*
X006804Y008931D01*
X006772Y008869D01*
X006751Y008803D01*
X006740Y008735D01*
X006740Y008440D01*
X007180Y008440D01*
X007180Y007740D01*
X007215Y007740D01*
X007283Y007751D01*
X007349Y007772D01*
X007411Y007804D01*
X007467Y007844D01*
X007516Y007893D01*
X007556Y007949D01*
X007575Y007986D01*
X007575Y007813D01*
X007695Y007693D01*
X007695Y007558D01*
X007750Y007426D01*
X007851Y007325D01*
X007919Y007296D01*
X007203Y006580D01*
X005538Y006580D01*
X005358Y006400D01*
X004989Y006400D01*
X004720Y006131D01*
X004720Y005749D01*
X004989Y005480D01*
X005371Y005480D01*
X005640Y005749D01*
X005640Y006088D01*
X005712Y006160D01*
X005749Y006160D01*
X005720Y006131D01*
X005720Y005749D01*
X005989Y005480D01*
X006371Y005480D01*
X006640Y005749D01*
X006640Y006131D01*
X006611Y006160D01*
X006749Y006160D01*
X006720Y006131D01*
X006720Y005749D01*
X006989Y005480D01*
X007371Y005480D01*
X007640Y005749D01*
X007640Y006108D01*
X007980Y006448D01*
X007980Y006391D01*
X007720Y006131D01*
X007720Y005792D01*
X007530Y005602D01*
X007530Y005241D01*
X007371Y005400D01*
X006989Y005400D01*
X006720Y005131D01*
X006720Y004749D01*
X006989Y004480D01*
X006990Y004480D01*
X006990Y003940D01*
X006375Y003940D01*
X006375Y004484D01*
X006640Y004749D01*
X006640Y005131D01*
X006371Y005400D01*
X005989Y005400D01*
X005720Y005131D01*
X005720Y004749D01*
X005955Y004514D01*
X005955Y003940D01*
X005385Y003940D01*
X005385Y004494D01*
X005640Y004749D01*
X005640Y005131D01*
X005371Y005400D01*
X004989Y005400D01*
X004720Y005131D01*
X004720Y004749D01*
X004965Y004504D01*
X004965Y003940D01*
X004425Y003940D01*
X004425Y004534D01*
X004640Y004749D01*
X004640Y005131D01*
X004371Y005400D01*
X004369Y005400D01*
X004289Y005480D01*
X004371Y005480D01*
X004640Y005749D01*
X004640Y006123D01*
X004800Y006283D01*
X004800Y007957D01*
X004804Y007949D01*
X004844Y007893D01*
X004893Y007844D01*
X004949Y007804D01*
X005011Y007772D01*
X005077Y007751D01*
X005145Y007740D01*
X005180Y007740D01*
X005215Y007740D01*
X005283Y007751D01*
X005349Y007772D01*
X005411Y007804D01*
X005467Y007844D01*
X005516Y007893D01*
X005556Y007949D01*
X005588Y008011D01*
X005609Y008077D01*
X005620Y008145D01*
X005620Y008440D01*
X005620Y008735D01*
X005609Y008803D01*
X005588Y008869D01*
X005556Y008931D01*
X005516Y008987D01*
X005467Y009036D01*
X005411Y009076D01*
X005349Y009108D01*
X005283Y009129D01*
X005215Y009140D01*
X005180Y009140D01*
X005180Y008440D01*
X005180Y008440D01*
X005620Y008440D01*
X005180Y008440D01*
X005180Y008440D01*
X005180Y009140D01*
X005145Y009140D01*
X005077Y009129D01*
X005011Y009108D01*
X004949Y009076D01*
X004893Y009036D01*
X004844Y008987D01*
X004804Y008931D01*
X004800Y008923D01*
X004800Y010317D01*
X004878Y010285D01*
X005022Y010285D01*
X005154Y010340D01*
X005255Y010441D01*
X005310Y010573D01*
X005310Y010717D01*
X005288Y010770D01*
X005355Y010798D01*
X005310Y010694D02*
X005459Y010694D01*
X005618Y010535D02*
X005294Y010535D01*
X005191Y010377D02*
X005776Y010377D01*
X005935Y010218D02*
X004800Y010218D01*
X004800Y010060D02*
X006093Y010060D01*
X006252Y009901D02*
X004800Y009901D01*
X004800Y009743D02*
X006410Y009743D01*
X006569Y009584D02*
X004800Y009584D01*
X004800Y009426D02*
X006727Y009426D01*
X006886Y009267D02*
X004800Y009267D01*
X004800Y009109D02*
X005013Y009109D01*
X005180Y009109D02*
X005180Y009109D01*
X005180Y008950D02*
X005180Y008950D01*
X005180Y008792D02*
X005180Y008792D01*
X005180Y008633D02*
X005180Y008633D01*
X005180Y008475D02*
X005180Y008475D01*
X005180Y008440D02*
X005180Y007740D01*
X005180Y008440D01*
X005180Y008440D01*
X005180Y008316D02*
X005180Y008316D01*
X005180Y008158D02*
X005180Y008158D01*
X005180Y007999D02*
X005180Y007999D01*
X005180Y007841D02*
X005180Y007841D01*
X005461Y007841D02*
X005899Y007841D01*
X005893Y007844D02*
X005949Y007804D01*
X006011Y007772D01*
X006077Y007751D01*
X006145Y007740D01*
X006180Y007740D01*
X006215Y007740D01*
X006283Y007751D01*
X006349Y007772D01*
X006411Y007804D01*
X006467Y007844D01*
X006516Y007893D01*
X006556Y007949D01*
X006588Y008011D01*
X006609Y008077D01*
X006620Y008145D01*
X006620Y008440D01*
X006620Y008735D01*
X006609Y008803D01*
X006588Y008869D01*
X006556Y008931D01*
X006516Y008987D01*
X006467Y009036D01*
X006411Y009076D01*
X006349Y009108D01*
X006283Y009129D01*
X006215Y009140D01*
X006180Y009140D01*
X006180Y008440D01*
X006620Y008440D01*
X006180Y008440D01*
X006180Y008440D01*
X006180Y008440D01*
X006180Y007740D01*
X006180Y008440D01*
X006180Y008440D01*
X006180Y008440D01*
X005740Y008440D01*
X005740Y008735D01*
X005751Y008803D01*
X005772Y008869D01*
X005804Y008931D01*
X005844Y008987D01*
X005893Y009036D01*
X005949Y009076D01*
X006011Y009108D01*
X006077Y009129D01*
X006145Y009140D01*
X006180Y009140D01*
X006180Y008440D01*
X005740Y008440D01*
X005740Y008145D01*
X005751Y008077D01*
X005772Y008011D01*
X005804Y007949D01*
X005844Y007893D01*
X005893Y007844D01*
X005778Y007999D02*
X005582Y007999D01*
X005620Y008158D02*
X005740Y008158D01*
X005740Y008316D02*
X005620Y008316D01*
X005620Y008475D02*
X005740Y008475D01*
X005740Y008633D02*
X005620Y008633D01*
X005611Y008792D02*
X005749Y008792D01*
X005818Y008950D02*
X005542Y008950D01*
X005347Y009109D02*
X006013Y009109D01*
X006180Y009109D02*
X006180Y009109D01*
X006180Y008950D02*
X006180Y008950D01*
X006180Y008792D02*
X006180Y008792D01*
X006180Y008633D02*
X006180Y008633D01*
X006180Y008475D02*
X006180Y008475D01*
X006180Y008316D02*
X006180Y008316D01*
X006180Y008158D02*
X006180Y008158D01*
X006180Y007999D02*
X006180Y007999D01*
X006180Y007841D02*
X006180Y007841D01*
X006461Y007841D02*
X006899Y007841D01*
X006893Y007844D02*
X006949Y007804D01*
X007011Y007772D01*
X007077Y007751D01*
X007145Y007740D01*
X007180Y007740D01*
X007180Y008440D01*
X007180Y008440D01*
X007180Y008440D01*
X006740Y008440D01*
X006740Y008145D01*
X006751Y008077D01*
X006772Y008011D01*
X006804Y007949D01*
X006844Y007893D01*
X006893Y007844D01*
X006778Y007999D02*
X006582Y007999D01*
X006620Y008158D02*
X006740Y008158D01*
X006740Y008316D02*
X006620Y008316D01*
X006620Y008475D02*
X006740Y008475D01*
X006740Y008633D02*
X006620Y008633D01*
X006611Y008792D02*
X006749Y008792D01*
X006818Y008950D02*
X006542Y008950D01*
X006347Y009109D02*
X007013Y009109D01*
X007180Y008316D02*
X007180Y008316D01*
X007180Y008158D02*
X007180Y008158D01*
X007180Y007999D02*
X007180Y007999D01*
X007180Y007841D02*
X007180Y007841D01*
X007461Y007841D02*
X007575Y007841D01*
X007695Y007682D02*
X004800Y007682D01*
X004800Y007524D02*
X007709Y007524D01*
X007811Y007365D02*
X004800Y007365D01*
X004800Y007207D02*
X007830Y007207D01*
X007671Y007048D02*
X004800Y007048D01*
X004800Y006890D02*
X007513Y006890D01*
X007354Y006731D02*
X004800Y006731D01*
X004800Y006573D02*
X005531Y006573D01*
X005372Y006414D02*
X004800Y006414D01*
X004772Y006256D02*
X004845Y006256D01*
X004720Y006097D02*
X004640Y006097D01*
X004640Y005939D02*
X004720Y005939D01*
X004720Y005780D02*
X004640Y005780D01*
X004512Y005622D02*
X004848Y005622D01*
X004894Y005305D02*
X004466Y005305D01*
X004625Y005146D02*
X004735Y005146D01*
X004720Y004988D02*
X004640Y004988D01*
X004640Y004829D02*
X004720Y004829D01*
X004799Y004671D02*
X004561Y004671D01*
X004425Y004512D02*
X004957Y004512D01*
X004965Y004354D02*
X004425Y004354D01*
X004425Y004195D02*
X004965Y004195D01*
X004965Y004037D02*
X004425Y004037D01*
X003945Y004037D02*
X003405Y004037D01*
X003405Y004195D02*
X003945Y004195D01*
X003945Y004354D02*
X003405Y004354D01*
X003405Y004512D02*
X003945Y004512D01*
X003799Y004671D02*
X003561Y004671D01*
X003640Y004829D02*
X003720Y004829D01*
X003720Y004988D02*
X003640Y004988D01*
X003625Y005146D02*
X003735Y005146D01*
X003786Y005305D02*
X003466Y005305D01*
X003628Y005463D02*
X000460Y005463D01*
X000460Y005305D02*
X001866Y005305D01*
X001981Y005420D02*
X001700Y005139D01*
X001700Y004960D01*
X002160Y004960D01*
X002160Y005420D01*
X001981Y005420D01*
X001989Y005480D02*
X002371Y005480D01*
X002640Y005749D01*
X002640Y006131D01*
X002371Y006400D01*
X002022Y006400D01*
X001605Y006817D01*
X001605Y007032D01*
X001683Y007000D01*
X001827Y007000D01*
X001959Y007055D01*
X002060Y007156D01*
X002115Y007288D01*
X002115Y007432D01*
X002060Y007564D01*
X001965Y007659D01*
X001965Y007814D01*
X002096Y007760D01*
X002264Y007760D01*
X002418Y007824D01*
X002536Y007942D01*
X002600Y008096D01*
X002600Y008784D01*
X002536Y008938D01*
X002418Y009056D01*
X002264Y009120D01*
X002096Y009120D01*
X001965Y009066D01*
X001965Y010814D01*
X002096Y010760D01*
X002264Y010760D01*
X002418Y010824D01*
X002435Y010841D01*
X003405Y009871D01*
X003405Y009079D01*
X003349Y009108D01*
X003283Y009129D01*
X003215Y009140D01*
X003180Y009140D01*
X003180Y008440D01*
X003180Y008440D01*
X003180Y008440D01*
X003180Y008440D01*
X002740Y008440D01*
X002740Y008735D01*
X002751Y008803D01*
X002772Y008869D01*
X002804Y008931D01*
X002844Y008987D01*
X002893Y009036D01*
X002949Y009076D01*
X003011Y009108D01*
X003077Y009129D01*
X003145Y009140D01*
X003180Y009140D01*
X003180Y008440D01*
X003180Y007740D01*
X003145Y007740D01*
X003077Y007751D01*
X003011Y007772D01*
X002949Y007804D01*
X002893Y007844D01*
X002844Y007893D01*
X002804Y007949D01*
X002772Y008011D01*
X002751Y008077D01*
X002740Y008145D01*
X002740Y008440D01*
X003180Y008440D01*
X003180Y008475D02*
X003180Y008475D01*
X003180Y008633D02*
X003180Y008633D01*
X003180Y008792D02*
X003180Y008792D01*
X003180Y008950D02*
X003180Y008950D01*
X003180Y009109D02*
X003180Y009109D01*
X003347Y009109D02*
X003405Y009109D01*
X003405Y009267D02*
X001965Y009267D01*
X001965Y009109D02*
X002069Y009109D01*
X002291Y009109D02*
X003013Y009109D01*
X002818Y008950D02*
X002524Y008950D01*
X002597Y008792D02*
X002749Y008792D01*
X002740Y008633D02*
X002600Y008633D01*
X002600Y008475D02*
X002740Y008475D01*
X002740Y008316D02*
X002600Y008316D01*
X002600Y008158D02*
X002740Y008158D01*
X002778Y007999D02*
X002560Y007999D01*
X002434Y007841D02*
X002899Y007841D01*
X003180Y007841D02*
X003180Y007841D01*
X003180Y007999D02*
X003180Y007999D01*
X003180Y008158D02*
X003180Y008158D01*
X003180Y008316D02*
X003180Y008316D01*
X003885Y007853D02*
X003893Y007844D01*
X003949Y007804D01*
X004011Y007772D01*
X004077Y007751D01*
X004145Y007740D01*
X004180Y007740D01*
X004215Y007740D01*
X004283Y007751D01*
X004349Y007772D01*
X004380Y007788D01*
X004380Y006457D01*
X004323Y006400D01*
X003989Y006400D01*
X003885Y006296D01*
X003885Y007853D01*
X003885Y007841D02*
X003899Y007841D01*
X003885Y007682D02*
X004380Y007682D01*
X004380Y007524D02*
X003885Y007524D01*
X003885Y007365D02*
X004380Y007365D01*
X004380Y007207D02*
X003885Y007207D01*
X003885Y007048D02*
X004380Y007048D01*
X004380Y006890D02*
X003885Y006890D01*
X003885Y006731D02*
X004380Y006731D01*
X004380Y006573D02*
X003885Y006573D01*
X003885Y006414D02*
X004337Y006414D01*
X003405Y006414D02*
X002008Y006414D01*
X001849Y006573D02*
X003405Y006573D01*
X003405Y006731D02*
X001691Y006731D01*
X001605Y006890D02*
X003405Y006890D01*
X003405Y007048D02*
X001943Y007048D01*
X002081Y007207D02*
X003405Y007207D01*
X003405Y007365D02*
X002115Y007365D01*
X002077Y007524D02*
X003405Y007524D01*
X003405Y007682D02*
X001965Y007682D01*
X001365Y007762D02*
X001308Y007705D01*
X001185Y007582D01*
X001185Y006643D01*
X001720Y006108D01*
X001720Y005749D01*
X001989Y005480D01*
X001848Y005622D02*
X000460Y005622D01*
X000460Y005780D02*
X001720Y005780D01*
X001720Y005939D02*
X000460Y005939D01*
X000460Y006097D02*
X001720Y006097D01*
X001573Y006256D02*
X000460Y006256D01*
X000460Y006414D02*
X001414Y006414D01*
X001256Y006573D02*
X000460Y006573D01*
X000460Y006731D02*
X001185Y006731D01*
X001185Y006890D02*
X000460Y006890D01*
X000460Y007048D02*
X001185Y007048D01*
X001185Y007207D02*
X000460Y007207D01*
X000460Y007365D02*
X001185Y007365D01*
X001185Y007524D02*
X000460Y007524D01*
X000460Y007682D02*
X001285Y007682D01*
X001365Y007762D02*
X001365Y010003D01*
X001362Y010000D01*
X001180Y010000D01*
X001180Y010440D01*
X001180Y010440D01*
X001180Y010440D01*
X001180Y010440D01*
X000740Y010440D01*
X000740Y010622D01*
X000998Y010880D01*
X001180Y010880D01*
X001180Y010440D01*
X001180Y010000D01*
X000998Y010000D01*
X000740Y010258D01*
X000740Y010440D01*
X001180Y010440D01*
X001180Y010377D02*
X001180Y010377D01*
X001180Y010535D02*
X001180Y010535D01*
X001180Y010694D02*
X001180Y010694D01*
X001180Y010852D02*
X001180Y010852D01*
X000970Y010852D02*
X000460Y010852D01*
X000460Y010694D02*
X000811Y010694D01*
X000740Y010535D02*
X000460Y010535D01*
X000460Y010377D02*
X000740Y010377D01*
X000780Y010218D02*
X000460Y010218D01*
X000460Y010060D02*
X000938Y010060D01*
X001180Y010060D02*
X001180Y010060D01*
X001180Y010218D02*
X001180Y010218D01*
X001365Y009901D02*
X000460Y009901D01*
X000460Y009743D02*
X001365Y009743D01*
X001365Y009584D02*
X000460Y009584D01*
X000460Y009426D02*
X001365Y009426D01*
X001365Y009267D02*
X000460Y009267D01*
X000460Y009109D02*
X001365Y009109D01*
X001365Y008950D02*
X000460Y008950D01*
X000460Y008792D02*
X001365Y008792D01*
X001365Y008633D02*
X000460Y008633D01*
X000460Y008475D02*
X001365Y008475D01*
X001365Y008316D02*
X000460Y008316D01*
X000460Y008158D02*
X001365Y008158D01*
X001365Y007999D02*
X000460Y007999D01*
X000460Y007841D02*
X001365Y007841D01*
X004180Y007841D02*
X004180Y007841D01*
X004180Y007740D02*
X004180Y008440D01*
X004180Y008440D01*
X004180Y007740D01*
X004180Y007999D02*
X004180Y007999D01*
X004180Y008158D02*
X004180Y008158D01*
X004180Y008316D02*
X004180Y008316D01*
X004180Y008475D02*
X004180Y008475D01*
X004180Y008633D02*
X004180Y008633D01*
X004180Y008792D02*
X004180Y008792D01*
X004180Y008950D02*
X004180Y008950D01*
X004180Y009109D02*
X004180Y009109D01*
X004013Y009109D02*
X003885Y009109D01*
X003885Y009267D02*
X004380Y009267D01*
X004380Y009109D02*
X004347Y009109D01*
X004380Y009426D02*
X003885Y009426D01*
X003885Y009584D02*
X004380Y009584D01*
X004380Y009743D02*
X003885Y009743D01*
X003885Y009901D02*
X004380Y009901D01*
X004380Y010060D02*
X003868Y010060D01*
X003736Y010218D02*
X004380Y010218D01*
X004380Y010377D02*
X003578Y010377D01*
X003419Y010535D02*
X004380Y010535D01*
X004380Y010694D02*
X003261Y010694D01*
X003446Y010852D02*
X003914Y010852D01*
X003796Y011011D02*
X003564Y011011D01*
X003600Y011169D02*
X003760Y011169D01*
X003760Y011328D02*
X003600Y011328D01*
X003600Y011486D02*
X003760Y011486D01*
X003760Y011645D02*
X003600Y011645D01*
X003592Y011803D02*
X003768Y011803D01*
X003848Y011962D02*
X003512Y011962D01*
X001365Y011962D02*
X000460Y011962D01*
X000460Y012120D02*
X001365Y012120D01*
X001365Y012279D02*
X000460Y012279D01*
X000460Y012437D02*
X001365Y012437D01*
X001365Y012596D02*
X000460Y012596D01*
X000460Y012754D02*
X001365Y012754D01*
X001365Y012913D02*
X000460Y012913D01*
X000460Y013071D02*
X001365Y013071D01*
X001365Y013230D02*
X000460Y013230D01*
X000460Y013388D02*
X001501Y013388D01*
X001660Y013547D02*
X000460Y013547D01*
X000460Y013705D02*
X001818Y013705D01*
X000949Y011803D02*
X000460Y011803D01*
X000460Y011645D02*
X000791Y011645D01*
X000760Y011486D02*
X000460Y011486D01*
X000460Y011328D02*
X000760Y011328D01*
X000857Y011169D02*
X000460Y011169D01*
X000460Y011011D02*
X001365Y011011D01*
X001965Y010694D02*
X002582Y010694D01*
X002741Y010535D02*
X001965Y010535D01*
X001965Y010377D02*
X002899Y010377D01*
X003058Y010218D02*
X001965Y010218D01*
X001965Y010060D02*
X003216Y010060D01*
X003375Y009901D02*
X001965Y009901D01*
X001965Y009743D02*
X003405Y009743D01*
X003405Y009584D02*
X001965Y009584D01*
X001965Y009426D02*
X003405Y009426D01*
X004800Y008950D02*
X004818Y008950D01*
X004800Y007841D02*
X004899Y007841D01*
X007946Y006414D02*
X007980Y006414D01*
X007845Y006256D02*
X007787Y006256D01*
X007720Y006097D02*
X007640Y006097D01*
X007640Y005939D02*
X007720Y005939D01*
X007708Y005780D02*
X007640Y005780D01*
X007550Y005622D02*
X007512Y005622D01*
X007530Y005463D02*
X004306Y005463D01*
X005466Y005305D02*
X005894Y005305D01*
X005735Y005146D02*
X005625Y005146D01*
X005640Y004988D02*
X005720Y004988D01*
X005720Y004829D02*
X005640Y004829D01*
X005561Y004671D02*
X005799Y004671D01*
X005955Y004512D02*
X005403Y004512D01*
X005385Y004354D02*
X005955Y004354D01*
X005955Y004195D02*
X005385Y004195D01*
X005385Y004037D02*
X005955Y004037D01*
X006375Y004037D02*
X006990Y004037D01*
X006990Y004195D02*
X006375Y004195D01*
X006375Y004354D02*
X006990Y004354D01*
X006957Y004512D02*
X006403Y004512D01*
X006561Y004671D02*
X006799Y004671D01*
X006720Y004829D02*
X006640Y004829D01*
X006640Y004988D02*
X006720Y004988D01*
X006735Y005146D02*
X006625Y005146D01*
X006466Y005305D02*
X006894Y005305D01*
X006848Y005622D02*
X006512Y005622D01*
X006640Y005780D02*
X006720Y005780D01*
X006720Y005939D02*
X006640Y005939D01*
X006640Y006097D02*
X006720Y006097D01*
X005848Y005622D02*
X005512Y005622D01*
X005640Y005780D02*
X005720Y005780D01*
X005720Y005939D02*
X005640Y005939D01*
X005649Y006097D02*
X005720Y006097D01*
X007466Y005305D02*
X007530Y005305D01*
X002985Y004354D02*
X000460Y004354D01*
X000460Y004512D02*
X001929Y004512D01*
X001981Y004460D02*
X002160Y004460D01*
X002160Y004920D01*
X002200Y004920D01*
X002200Y004960D01*
X002660Y004960D01*
X002660Y005139D01*
X002379Y005420D01*
X002200Y005420D01*
X002200Y004960D01*
X002160Y004960D01*
X002160Y004920D01*
X001700Y004920D01*
X001700Y004741D01*
X001981Y004460D01*
X002160Y004512D02*
X002200Y004512D01*
X002200Y004460D02*
X002379Y004460D01*
X002660Y004741D01*
X002660Y004920D01*
X002200Y004920D01*
X002200Y004460D01*
X002200Y004671D02*
X002160Y004671D01*
X002160Y004829D02*
X002200Y004829D01*
X002200Y004988D02*
X002160Y004988D01*
X002160Y005146D02*
X002200Y005146D01*
X002200Y005305D02*
X002160Y005305D01*
X002494Y005305D02*
X002894Y005305D01*
X002735Y005146D02*
X002653Y005146D01*
X002660Y004988D02*
X002720Y004988D01*
X002720Y004829D02*
X002660Y004829D01*
X002589Y004671D02*
X002799Y004671D01*
X002957Y004512D02*
X002431Y004512D01*
X001771Y004671D02*
X000460Y004671D01*
X000460Y004829D02*
X001700Y004829D01*
X001700Y004988D02*
X000460Y004988D01*
X000460Y005146D02*
X001707Y005146D01*
X002512Y005622D02*
X002848Y005622D01*
X002720Y005780D02*
X002640Y005780D01*
X002640Y005939D02*
X002720Y005939D01*
X002720Y006097D02*
X002640Y006097D01*
X002515Y006256D02*
X002845Y006256D01*
X002985Y004195D02*
X000460Y004195D01*
X000460Y004037D02*
X002985Y004037D01*
X016815Y015924D02*
X016842Y015924D01*
X013920Y017034D02*
X012867Y017034D01*
X013739Y018777D02*
X013892Y018777D01*
X014468Y018777D02*
X014892Y018777D01*
X014767Y018936D02*
X014593Y018936D01*
X014640Y019094D02*
X014720Y019094D01*
X014720Y019253D02*
X014640Y019253D01*
X014640Y019411D02*
X014720Y019411D01*
X014673Y019570D02*
X014640Y019570D01*
X017160Y019570D02*
X017200Y019570D01*
X017200Y019728D02*
X017160Y019728D01*
X017160Y019887D02*
X017200Y019887D01*
X017200Y020045D02*
X017160Y020045D01*
X017160Y020204D02*
X017200Y020204D01*
X017307Y020204D02*
X019614Y020204D01*
X018834Y020045D02*
X018526Y020045D01*
X018570Y020001D02*
X018441Y020130D01*
X018271Y020200D01*
X018088Y020200D01*
X017919Y020130D01*
X017790Y020001D01*
X017720Y019831D01*
X017720Y019048D01*
X017790Y018879D01*
X017919Y018750D01*
X018088Y018680D01*
X018271Y018680D01*
X018441Y018750D01*
X018570Y018879D01*
X018640Y019048D01*
X018640Y019831D01*
X018570Y020001D01*
X018617Y019887D02*
X018743Y019887D01*
X018720Y019728D02*
X018640Y019728D01*
X018640Y019570D02*
X018720Y019570D01*
X018720Y019411D02*
X018640Y019411D01*
X018640Y019253D02*
X018720Y019253D01*
X018720Y019094D02*
X018640Y019094D01*
X018593Y018936D02*
X018767Y018936D01*
X018892Y018777D02*
X018468Y018777D01*
X017892Y018777D02*
X017496Y018777D01*
X017615Y018936D02*
X017767Y018936D01*
X017720Y019094D02*
X017659Y019094D01*
X017660Y019253D02*
X017720Y019253D01*
X017720Y019411D02*
X017660Y019411D01*
X017660Y019570D02*
X017720Y019570D01*
X017720Y019728D02*
X017660Y019728D01*
X017637Y019887D02*
X017743Y019887D01*
X017834Y020045D02*
X017552Y020045D01*
X019659Y019570D02*
X019720Y019570D01*
X008049Y020521D02*
X000460Y020521D01*
X000460Y020362D02*
X007890Y020362D01*
X007732Y020204D02*
X007307Y020204D01*
X007200Y020204D02*
X007160Y020204D01*
X007053Y020204D02*
X006307Y020204D01*
X006292Y020208D02*
X006218Y020220D01*
X006200Y020220D01*
X006200Y019460D01*
X006660Y019460D01*
X006660Y019778D01*
X006648Y019852D01*
X006625Y019924D01*
X006591Y019992D01*
X006546Y020053D01*
X006493Y020106D01*
X006432Y020151D01*
X006364Y020185D01*
X006292Y020208D01*
X006200Y020204D02*
X006160Y020204D01*
X006053Y020204D02*
X005307Y020204D01*
X005292Y020208D02*
X005218Y020220D01*
X005200Y020220D01*
X005200Y019460D01*
X005660Y019460D01*
X005660Y019778D01*
X005648Y019852D01*
X005625Y019924D01*
X005591Y019992D01*
X005546Y020053D01*
X005493Y020106D01*
X005432Y020151D01*
X005364Y020185D01*
X005292Y020208D01*
X005200Y020204D02*
X005160Y020204D01*
X005160Y020220D02*
X005142Y020220D01*
X005068Y020208D01*
X004996Y020185D01*
X004928Y020151D01*
X004867Y020106D01*
X004814Y020053D01*
X004769Y019992D01*
X004735Y019924D01*
X004712Y019852D01*
X004700Y019778D01*
X004700Y019460D01*
X005160Y019460D01*
X005160Y020220D01*
X005053Y020204D02*
X004307Y020204D01*
X004292Y020208D02*
X004218Y020220D01*
X004200Y020220D01*
X004200Y019460D01*
X004660Y019460D01*
X004660Y019778D01*
X004648Y019852D01*
X004625Y019924D01*
X004591Y019992D01*
X004546Y020053D01*
X004493Y020106D01*
X004432Y020151D01*
X004364Y020185D01*
X004292Y020208D01*
X004200Y020204D02*
X004160Y020204D01*
X004160Y020220D02*
X004142Y020220D01*
X004068Y020208D01*
X003996Y020185D01*
X003928Y020151D01*
X003867Y020106D01*
X003814Y020053D01*
X003769Y019992D01*
X003735Y019924D01*
X003712Y019852D01*
X003700Y019778D01*
X003700Y019460D01*
X004160Y019460D01*
X004160Y020220D01*
X004053Y020204D02*
X003307Y020204D01*
X003292Y020208D02*
X003218Y020220D01*
X003200Y020220D01*
X003200Y019460D01*
X003660Y019460D01*
X003660Y019778D01*
X003648Y019852D01*
X003625Y019924D01*
X003591Y019992D01*
X003546Y020053D01*
X003493Y020106D01*
X003432Y020151D01*
X003364Y020185D01*
X003292Y020208D01*
X003200Y020204D02*
X003160Y020204D01*
X003160Y020220D02*
X003142Y020220D01*
X003068Y020208D01*
X002996Y020185D01*
X002928Y020151D01*
X002867Y020106D01*
X002814Y020053D01*
X002769Y019992D01*
X002735Y019924D01*
X002712Y019852D01*
X002700Y019778D01*
X002700Y019460D01*
X003160Y019460D01*
X003160Y020220D01*
X003053Y020204D02*
X002307Y020204D01*
X002292Y020208D02*
X002218Y020220D01*
X002200Y020220D01*
X002200Y019460D01*
X002660Y019460D01*
X002660Y019778D01*
X002648Y019852D01*
X002625Y019924D01*
X002591Y019992D01*
X002546Y020053D01*
X002493Y020106D01*
X002432Y020151D01*
X002364Y020185D01*
X002292Y020208D01*
X002200Y020204D02*
X002160Y020204D01*
X002160Y020220D02*
X002142Y020220D01*
X002068Y020208D01*
X001996Y020185D01*
X001928Y020151D01*
X001867Y020106D01*
X001814Y020053D01*
X001769Y019992D01*
X001735Y019924D01*
X001712Y019852D01*
X001700Y019778D01*
X001700Y019460D01*
X002160Y019460D01*
X002160Y020220D01*
X002053Y020204D02*
X001307Y020204D01*
X001200Y020204D02*
X001160Y020204D01*
X001053Y020204D02*
X000460Y020204D01*
X000460Y020045D02*
X000808Y020045D01*
X000723Y019887D02*
X000460Y019887D01*
X000460Y019728D02*
X000700Y019728D01*
X000700Y019570D02*
X000460Y019570D01*
X000460Y019411D02*
X000700Y019411D01*
X000700Y019253D02*
X000460Y019253D01*
X000460Y019094D02*
X000701Y019094D01*
X000745Y018936D02*
X000460Y018936D01*
X001496Y018777D02*
X001864Y018777D01*
X001867Y018774D02*
X001928Y018729D01*
X001996Y018695D01*
X002068Y018672D01*
X002142Y018660D01*
X002160Y018660D01*
X002160Y019420D01*
X002200Y019420D01*
X002200Y019460D01*
X002160Y019460D01*
X002160Y019420D01*
X001700Y019420D01*
X001700Y019102D01*
X001712Y019028D01*
X001735Y018956D01*
X001769Y018888D01*
X001814Y018827D01*
X001867Y018774D01*
X001745Y018936D02*
X001615Y018936D01*
X001659Y019094D02*
X001701Y019094D01*
X001700Y019253D02*
X001660Y019253D01*
X001660Y019411D02*
X001700Y019411D01*
X001700Y019570D02*
X001660Y019570D01*
X001660Y019728D02*
X001700Y019728D01*
X001723Y019887D02*
X001637Y019887D01*
X001552Y020045D02*
X001808Y020045D01*
X002160Y020045D02*
X002200Y020045D01*
X002200Y019887D02*
X002160Y019887D01*
X002160Y019728D02*
X002200Y019728D01*
X002200Y019570D02*
X002160Y019570D01*
X002200Y019420D02*
X002660Y019420D01*
X002660Y019102D01*
X002648Y019028D01*
X002625Y018956D01*
X002591Y018888D01*
X002546Y018827D01*
X002493Y018774D01*
X002432Y018729D01*
X002364Y018695D01*
X002292Y018672D01*
X002218Y018660D01*
X002200Y018660D01*
X002200Y019420D01*
X002200Y019411D02*
X002160Y019411D01*
X002160Y019253D02*
X002200Y019253D01*
X002200Y019094D02*
X002160Y019094D01*
X002160Y018936D02*
X002200Y018936D01*
X002200Y018777D02*
X002160Y018777D01*
X002496Y018777D02*
X002864Y018777D01*
X002867Y018774D02*
X002928Y018729D01*
X002996Y018695D01*
X003068Y018672D01*
X003142Y018660D01*
X003160Y018660D01*
X003160Y019420D01*
X003200Y019420D01*
X003200Y019460D01*
X003160Y019460D01*
X003160Y019420D01*
X002700Y019420D01*
X002700Y019102D01*
X002712Y019028D01*
X002735Y018956D01*
X002769Y018888D01*
X002814Y018827D01*
X002867Y018774D01*
X002745Y018936D02*
X002615Y018936D01*
X002659Y019094D02*
X002701Y019094D01*
X002700Y019253D02*
X002660Y019253D01*
X002660Y019411D02*
X002700Y019411D01*
X002700Y019570D02*
X002660Y019570D01*
X002660Y019728D02*
X002700Y019728D01*
X002723Y019887D02*
X002637Y019887D01*
X002552Y020045D02*
X002808Y020045D01*
X003160Y020045D02*
X003200Y020045D01*
X003200Y019887D02*
X003160Y019887D01*
X003160Y019728D02*
X003200Y019728D01*
X003200Y019570D02*
X003160Y019570D01*
X003200Y019420D02*
X003660Y019420D01*
X003660Y019102D01*
X003648Y019028D01*
X003625Y018956D01*
X003591Y018888D01*
X003546Y018827D01*
X003493Y018774D01*
X003432Y018729D01*
X003364Y018695D01*
X003292Y018672D01*
X003218Y018660D01*
X003200Y018660D01*
X003200Y019420D01*
X003200Y019411D02*
X003160Y019411D01*
X003160Y019253D02*
X003200Y019253D01*
X003200Y019094D02*
X003160Y019094D01*
X003160Y018936D02*
X003200Y018936D01*
X003200Y018777D02*
X003160Y018777D01*
X003496Y018777D02*
X003864Y018777D01*
X003867Y018774D02*
X003928Y018729D01*
X003996Y018695D01*
X004068Y018672D01*
X004142Y018660D01*
X004160Y018660D01*
X004160Y019420D01*
X004200Y019420D01*
X004200Y019460D01*
X004160Y019460D01*
X004160Y019420D01*
X003700Y019420D01*
X003700Y019102D01*
X003712Y019028D01*
X003735Y018956D01*
X003769Y018888D01*
X003814Y018827D01*
X003867Y018774D01*
X003745Y018936D02*
X003615Y018936D01*
X003659Y019094D02*
X003701Y019094D01*
X003700Y019253D02*
X003660Y019253D01*
X003660Y019411D02*
X003700Y019411D01*
X003700Y019570D02*
X003660Y019570D01*
X003660Y019728D02*
X003700Y019728D01*
X003723Y019887D02*
X003637Y019887D01*
X003552Y020045D02*
X003808Y020045D01*
X004160Y020045D02*
X004200Y020045D01*
X004200Y019887D02*
X004160Y019887D01*
X004160Y019728D02*
X004200Y019728D01*
X004200Y019570D02*
X004160Y019570D01*
X004200Y019420D02*
X004660Y019420D01*
X004660Y019102D01*
X004648Y019028D01*
X004625Y018956D01*
X004591Y018888D01*
X004546Y018827D01*
X004493Y018774D01*
X004432Y018729D01*
X004364Y018695D01*
X004292Y018672D01*
X004218Y018660D01*
X004200Y018660D01*
X004200Y019420D01*
X004200Y019411D02*
X004160Y019411D01*
X004160Y019253D02*
X004200Y019253D01*
X004200Y019094D02*
X004160Y019094D01*
X004160Y018936D02*
X004200Y018936D01*
X004200Y018777D02*
X004160Y018777D01*
X004496Y018777D02*
X004864Y018777D01*
X004867Y018774D02*
X004928Y018729D01*
X004996Y018695D01*
X005068Y018672D01*
X005142Y018660D01*
X005160Y018660D01*
X005160Y019420D01*
X005200Y019420D01*
X005200Y019460D01*
X005160Y019460D01*
X005160Y019420D01*
X004700Y019420D01*
X004700Y019102D01*
X004712Y019028D01*
X004735Y018956D01*
X004769Y018888D01*
X004814Y018827D01*
X004867Y018774D01*
X004745Y018936D02*
X004615Y018936D01*
X004659Y019094D02*
X004701Y019094D01*
X004700Y019253D02*
X004660Y019253D01*
X004660Y019411D02*
X004700Y019411D01*
X004700Y019570D02*
X004660Y019570D01*
X004660Y019728D02*
X004700Y019728D01*
X004723Y019887D02*
X004637Y019887D01*
X004552Y020045D02*
X004808Y020045D01*
X005160Y020045D02*
X005200Y020045D01*
X005200Y019887D02*
X005160Y019887D01*
X005160Y019728D02*
X005200Y019728D01*
X005200Y019570D02*
X005160Y019570D01*
X005200Y019420D02*
X005660Y019420D01*
X005660Y019102D01*
X005648Y019028D01*
X005625Y018956D01*
X005591Y018888D01*
X005546Y018827D01*
X005493Y018774D01*
X005432Y018729D01*
X005364Y018695D01*
X005292Y018672D01*
X005218Y018660D01*
X005200Y018660D01*
X005200Y019420D01*
X005200Y019411D02*
X005160Y019411D01*
X005160Y019253D02*
X005200Y019253D01*
X005200Y019094D02*
X005160Y019094D01*
X005160Y018936D02*
X005200Y018936D01*
X005200Y018777D02*
X005160Y018777D01*
X005496Y018777D02*
X005864Y018777D01*
X005745Y018936D02*
X005615Y018936D01*
X005659Y019094D02*
X005701Y019094D01*
X005700Y019253D02*
X005660Y019253D01*
X005660Y019411D02*
X005700Y019411D01*
X005700Y019570D02*
X005660Y019570D01*
X005660Y019728D02*
X005700Y019728D01*
X005723Y019887D02*
X005637Y019887D01*
X005552Y020045D02*
X005808Y020045D01*
X006160Y020045D02*
X006200Y020045D01*
X006200Y019887D02*
X006160Y019887D01*
X006160Y019728D02*
X006200Y019728D01*
X006200Y019570D02*
X006160Y019570D01*
X006160Y019411D02*
X006200Y019411D01*
X006200Y019253D02*
X006160Y019253D01*
X006160Y019094D02*
X006200Y019094D01*
X006200Y018936D02*
X006160Y018936D01*
X006160Y018777D02*
X006200Y018777D01*
X006496Y018777D02*
X006864Y018777D01*
X006745Y018936D02*
X006615Y018936D01*
X006659Y019094D02*
X006701Y019094D01*
X006700Y019253D02*
X006660Y019253D01*
X006660Y019411D02*
X006700Y019411D01*
X006700Y019570D02*
X006660Y019570D01*
X006660Y019728D02*
X006700Y019728D01*
X006723Y019887D02*
X006637Y019887D01*
X006552Y020045D02*
X006808Y020045D01*
X007160Y020045D02*
X007200Y020045D01*
X007200Y019887D02*
X007160Y019887D01*
X007160Y019728D02*
X007200Y019728D01*
X007200Y019570D02*
X007160Y019570D01*
X007552Y020045D02*
X007573Y020045D01*
X004871Y017985D02*
X004489Y017985D01*
X004536Y017938D02*
X004418Y018056D01*
X004264Y018120D01*
X004096Y018120D01*
X003942Y018056D01*
X003824Y017938D01*
X003760Y017784D01*
X003760Y017096D01*
X003824Y016942D01*
X003942Y016824D01*
X004096Y016760D01*
X004264Y016760D01*
X004418Y016824D01*
X004536Y016942D01*
X004600Y017096D01*
X004600Y017784D01*
X004536Y017938D01*
X004582Y017826D02*
X004778Y017826D01*
X004760Y017668D02*
X004600Y017668D01*
X004600Y017509D02*
X004760Y017509D01*
X004760Y017351D02*
X004600Y017351D01*
X004600Y017192D02*
X004760Y017192D01*
X004786Y017034D02*
X004574Y017034D01*
X004469Y016875D02*
X004891Y016875D01*
X003891Y016875D02*
X003469Y016875D01*
X003418Y016824D02*
X003536Y016942D01*
X003600Y017096D01*
X003600Y017784D01*
X003536Y017938D01*
X003418Y018056D01*
X003264Y018120D01*
X003096Y018120D01*
X002942Y018056D01*
X002824Y017938D01*
X002760Y017784D01*
X002760Y017096D01*
X002824Y016942D01*
X002942Y016824D01*
X003096Y016760D01*
X003264Y016760D01*
X003418Y016824D01*
X003574Y017034D02*
X003786Y017034D01*
X003760Y017192D02*
X003600Y017192D01*
X003600Y017351D02*
X003760Y017351D01*
X003760Y017509D02*
X003600Y017509D01*
X003600Y017668D02*
X003760Y017668D01*
X003778Y017826D02*
X003582Y017826D01*
X003489Y017985D02*
X003871Y017985D01*
X002871Y017985D02*
X002489Y017985D01*
X002582Y017826D02*
X002778Y017826D01*
X002760Y017668D02*
X002600Y017668D01*
X002600Y017509D02*
X002760Y017509D01*
X002760Y017351D02*
X002600Y017351D01*
X002600Y017192D02*
X002760Y017192D01*
X002786Y017034D02*
X002574Y017034D01*
X002469Y016875D02*
X002891Y016875D01*
X001200Y019570D02*
X001160Y019570D01*
X001160Y019728D02*
X001200Y019728D01*
X001200Y019887D02*
X001160Y019887D01*
X001160Y020045D02*
X001200Y020045D01*
X041254Y005146D02*
X041900Y005146D01*
X041900Y004988D02*
X041412Y004988D01*
X041498Y004829D02*
X041900Y004829D01*
X041900Y004671D02*
X041564Y004671D01*
X041585Y004512D02*
X041900Y004512D01*
X041900Y004354D02*
X041585Y004354D01*
X041558Y004195D02*
X041900Y004195D01*
X041900Y004037D02*
X041492Y004037D01*
M02*
