G75*
%MOIN*%
%OFA0B0*%
%FSLAX24Y24*%
%IPPOS*%
%LPD*%
%AMOC8*
5,1,8,0,0,1.08239X$1,22.5*
%
%ADD10C,0.0030*%
%ADD11C,0.0060*%
%ADD12C,0.0100*%
%ADD13R,0.0250X0.0250*%
%ADD14C,0.0050*%
%ADD15C,0.0040*%
%ADD16C,0.0020*%
D10*
X000375Y002195D02*
X000375Y002340D01*
X000423Y002388D01*
X000520Y002388D01*
X000568Y002340D01*
X000568Y002195D01*
X000665Y002195D02*
X000375Y002195D01*
X000375Y002490D02*
X000375Y002586D01*
X000375Y002538D02*
X000665Y002538D01*
X000665Y002490D02*
X000665Y002586D01*
X000665Y002686D02*
X000375Y002686D01*
X000665Y002880D01*
X000375Y002880D01*
X000472Y002981D02*
X000375Y003077D01*
X000665Y003077D01*
X000665Y002981D02*
X000665Y003174D01*
X001175Y012195D02*
X001465Y012195D01*
X001465Y012388D01*
X001417Y012490D02*
X001223Y012490D01*
X001175Y012538D01*
X001175Y012635D01*
X001223Y012683D01*
X001417Y012490D01*
X001465Y012538D01*
X001465Y012635D01*
X001417Y012683D01*
X001223Y012683D01*
X001175Y012388D02*
X001175Y012195D01*
X001320Y012195D02*
X001320Y012292D01*
X008375Y012340D02*
X008423Y012388D01*
X008617Y012195D01*
X008665Y012243D01*
X008665Y012340D01*
X008617Y012388D01*
X008423Y012388D01*
X008375Y012340D02*
X008375Y012243D01*
X008423Y012195D01*
X008617Y012195D01*
X008617Y012490D02*
X008423Y012490D01*
X008375Y012538D01*
X008375Y012635D01*
X008423Y012683D01*
X008617Y012490D01*
X008665Y012538D01*
X008665Y012635D01*
X008617Y012683D01*
X008423Y012683D01*
D11*
X008680Y012330D02*
X008680Y010030D01*
X000680Y010030D01*
X000680Y010780D01*
X000719Y010782D01*
X000758Y010788D01*
X000796Y010797D01*
X000833Y010810D01*
X000869Y010827D01*
X000902Y010847D01*
X000934Y010871D01*
X000963Y010897D01*
X000989Y010926D01*
X001013Y010958D01*
X001033Y010991D01*
X001050Y011027D01*
X001063Y011064D01*
X001072Y011102D01*
X001078Y011141D01*
X001080Y011180D01*
X001078Y011219D01*
X001072Y011258D01*
X001063Y011296D01*
X001050Y011333D01*
X001033Y011369D01*
X001013Y011402D01*
X000989Y011434D01*
X000963Y011463D01*
X000934Y011489D01*
X000902Y011513D01*
X000869Y011533D01*
X000833Y011550D01*
X000796Y011563D01*
X000758Y011572D01*
X000719Y011578D01*
X000680Y011580D01*
X000680Y012330D01*
X008680Y012330D01*
X008680Y013480D02*
X008330Y013480D01*
X008680Y013480D02*
X009630Y013480D01*
X010030Y013480D01*
X010380Y014280D02*
X010380Y014380D01*
X010480Y014380D01*
X010480Y014980D01*
X010380Y014980D01*
X010380Y015080D01*
X010030Y015880D02*
X009680Y015880D01*
X008680Y015880D01*
X008330Y015880D01*
X007980Y015080D02*
X007980Y014980D01*
X007880Y014980D01*
X007880Y014380D01*
X007980Y014380D01*
X007980Y014280D01*
X009080Y014680D02*
X009082Y014700D01*
X009088Y014718D01*
X009097Y014736D01*
X009109Y014751D01*
X009124Y014763D01*
X009142Y014772D01*
X009160Y014778D01*
X009180Y014780D01*
X009200Y014778D01*
X009218Y014772D01*
X009236Y014763D01*
X009251Y014751D01*
X009263Y014736D01*
X009272Y014718D01*
X009278Y014700D01*
X009280Y014680D01*
X009278Y014660D01*
X009272Y014642D01*
X009263Y014624D01*
X009251Y014609D01*
X009236Y014597D01*
X009218Y014588D01*
X009200Y014582D01*
X009180Y014580D01*
X009160Y014582D01*
X009142Y014588D01*
X009124Y014597D01*
X009109Y014609D01*
X009097Y014624D01*
X009088Y014642D01*
X009082Y014660D01*
X009080Y014680D01*
X008480Y014680D02*
X008482Y014732D01*
X008488Y014784D01*
X008498Y014836D01*
X008511Y014886D01*
X008528Y014936D01*
X008549Y014984D01*
X008574Y015030D01*
X008602Y015074D01*
X008633Y015116D01*
X008667Y015156D01*
X008704Y015193D01*
X008744Y015227D01*
X008786Y015258D01*
X008830Y015286D01*
X008876Y015311D01*
X008924Y015332D01*
X008974Y015349D01*
X009024Y015362D01*
X009076Y015372D01*
X009128Y015378D01*
X009180Y015380D01*
X009232Y015378D01*
X009284Y015372D01*
X009336Y015362D01*
X009386Y015349D01*
X009436Y015332D01*
X009484Y015311D01*
X009530Y015286D01*
X009574Y015258D01*
X009616Y015227D01*
X009656Y015193D01*
X009693Y015156D01*
X009727Y015116D01*
X009758Y015074D01*
X009786Y015030D01*
X009811Y014984D01*
X009832Y014936D01*
X009849Y014886D01*
X009862Y014836D01*
X009872Y014784D01*
X009878Y014732D01*
X009880Y014680D01*
X009878Y014628D01*
X009872Y014576D01*
X009862Y014524D01*
X009849Y014474D01*
X009832Y014424D01*
X009811Y014376D01*
X009786Y014330D01*
X009758Y014286D01*
X009727Y014244D01*
X009693Y014204D01*
X009656Y014167D01*
X009616Y014133D01*
X009574Y014102D01*
X009530Y014074D01*
X009484Y014049D01*
X009436Y014028D01*
X009386Y014011D01*
X009336Y013998D01*
X009284Y013988D01*
X009232Y013982D01*
X009180Y013980D01*
X009128Y013982D01*
X009076Y013988D01*
X009024Y013998D01*
X008974Y014011D01*
X008924Y014028D01*
X008876Y014049D01*
X008830Y014074D01*
X008786Y014102D01*
X008744Y014133D01*
X008704Y014167D01*
X008667Y014204D01*
X008633Y014244D01*
X008602Y014286D01*
X008574Y014330D01*
X008549Y014376D01*
X008528Y014424D01*
X008511Y014474D01*
X008498Y014524D01*
X008488Y014576D01*
X008482Y014628D01*
X008480Y014680D01*
X005980Y014380D02*
X005980Y014980D01*
X005880Y014980D01*
X005880Y015080D01*
X005880Y014380D02*
X005880Y014280D01*
X005880Y014380D02*
X005980Y014380D01*
X005530Y013480D02*
X005130Y013480D01*
X004180Y013480D01*
X003830Y013480D01*
X003480Y014280D02*
X003480Y014380D01*
X003380Y014380D01*
X003380Y014980D01*
X003480Y014980D01*
X003480Y015080D01*
X003830Y015880D02*
X004180Y015880D01*
X005180Y015880D01*
X005530Y015880D01*
X005030Y016880D02*
X005028Y016917D01*
X005022Y016953D01*
X005013Y016988D01*
X005000Y017022D01*
X004983Y017055D01*
X004963Y017086D01*
X004940Y017114D01*
X004914Y017140D01*
X004886Y017163D01*
X004855Y017183D01*
X004822Y017200D01*
X004788Y017213D01*
X004753Y017222D01*
X004717Y017228D01*
X004680Y017230D01*
X004643Y017228D01*
X004607Y017222D01*
X004572Y017213D01*
X004538Y017200D01*
X004505Y017183D01*
X004474Y017163D01*
X004446Y017140D01*
X004420Y017114D01*
X004397Y017086D01*
X004377Y017055D01*
X004360Y017022D01*
X004347Y016988D01*
X004338Y016953D01*
X004332Y016917D01*
X004330Y016880D01*
X002680Y016880D02*
X002680Y024480D01*
X006680Y024480D01*
X006680Y016880D01*
X002680Y016880D01*
X004580Y014680D02*
X004582Y014700D01*
X004588Y014718D01*
X004597Y014736D01*
X004609Y014751D01*
X004624Y014763D01*
X004642Y014772D01*
X004660Y014778D01*
X004680Y014780D01*
X004700Y014778D01*
X004718Y014772D01*
X004736Y014763D01*
X004751Y014751D01*
X004763Y014736D01*
X004772Y014718D01*
X004778Y014700D01*
X004780Y014680D01*
X004778Y014660D01*
X004772Y014642D01*
X004763Y014624D01*
X004751Y014609D01*
X004736Y014597D01*
X004718Y014588D01*
X004700Y014582D01*
X004680Y014580D01*
X004660Y014582D01*
X004642Y014588D01*
X004624Y014597D01*
X004609Y014609D01*
X004597Y014624D01*
X004588Y014642D01*
X004582Y014660D01*
X004580Y014680D01*
X003980Y014680D02*
X003982Y014732D01*
X003988Y014784D01*
X003998Y014836D01*
X004011Y014886D01*
X004028Y014936D01*
X004049Y014984D01*
X004074Y015030D01*
X004102Y015074D01*
X004133Y015116D01*
X004167Y015156D01*
X004204Y015193D01*
X004244Y015227D01*
X004286Y015258D01*
X004330Y015286D01*
X004376Y015311D01*
X004424Y015332D01*
X004474Y015349D01*
X004524Y015362D01*
X004576Y015372D01*
X004628Y015378D01*
X004680Y015380D01*
X004732Y015378D01*
X004784Y015372D01*
X004836Y015362D01*
X004886Y015349D01*
X004936Y015332D01*
X004984Y015311D01*
X005030Y015286D01*
X005074Y015258D01*
X005116Y015227D01*
X005156Y015193D01*
X005193Y015156D01*
X005227Y015116D01*
X005258Y015074D01*
X005286Y015030D01*
X005311Y014984D01*
X005332Y014936D01*
X005349Y014886D01*
X005362Y014836D01*
X005372Y014784D01*
X005378Y014732D01*
X005380Y014680D01*
X005378Y014628D01*
X005372Y014576D01*
X005362Y014524D01*
X005349Y014474D01*
X005332Y014424D01*
X005311Y014376D01*
X005286Y014330D01*
X005258Y014286D01*
X005227Y014244D01*
X005193Y014204D01*
X005156Y014167D01*
X005116Y014133D01*
X005074Y014102D01*
X005030Y014074D01*
X004984Y014049D01*
X004936Y014028D01*
X004886Y014011D01*
X004836Y013998D01*
X004784Y013988D01*
X004732Y013982D01*
X004680Y013980D01*
X004628Y013982D01*
X004576Y013988D01*
X004524Y013998D01*
X004474Y014011D01*
X004424Y014028D01*
X004376Y014049D01*
X004330Y014074D01*
X004286Y014102D01*
X004244Y014133D01*
X004204Y014167D01*
X004167Y014204D01*
X004133Y014244D01*
X004102Y014286D01*
X004074Y014330D01*
X004049Y014376D01*
X004028Y014424D01*
X004011Y014474D01*
X003998Y014524D01*
X003988Y014576D01*
X003982Y014628D01*
X003980Y014680D01*
X007180Y016880D02*
X007180Y024480D01*
X011180Y024480D01*
X011180Y016880D01*
X007180Y016880D01*
X008830Y016880D02*
X008832Y016917D01*
X008838Y016953D01*
X008847Y016988D01*
X008860Y017022D01*
X008877Y017055D01*
X008897Y017086D01*
X008920Y017114D01*
X008946Y017140D01*
X008974Y017163D01*
X009005Y017183D01*
X009038Y017200D01*
X009072Y017213D01*
X009107Y017222D01*
X009143Y017228D01*
X009180Y017230D01*
X009217Y017228D01*
X009253Y017222D01*
X009288Y017213D01*
X009322Y017200D01*
X009355Y017183D01*
X009386Y017163D01*
X009414Y017140D01*
X009440Y017114D01*
X009463Y017086D01*
X009483Y017055D01*
X009500Y017022D01*
X009513Y016988D01*
X009522Y016953D01*
X009528Y016917D01*
X009530Y016880D01*
X011680Y016880D02*
X011680Y024480D01*
X015680Y024480D01*
X015680Y016880D01*
X011680Y016880D01*
X012830Y015880D02*
X013180Y015880D01*
X014180Y015880D01*
X014530Y015880D01*
X014880Y015080D02*
X014880Y014980D01*
X014980Y014980D01*
X014980Y014380D01*
X014880Y014380D01*
X014880Y014280D01*
X014530Y013480D02*
X014130Y013480D01*
X013180Y013480D01*
X012830Y013480D01*
X012480Y014280D02*
X012480Y014380D01*
X012380Y014380D01*
X012380Y014980D01*
X012480Y014980D01*
X012480Y015080D01*
X013580Y014680D02*
X013582Y014700D01*
X013588Y014718D01*
X013597Y014736D01*
X013609Y014751D01*
X013624Y014763D01*
X013642Y014772D01*
X013660Y014778D01*
X013680Y014780D01*
X013700Y014778D01*
X013718Y014772D01*
X013736Y014763D01*
X013751Y014751D01*
X013763Y014736D01*
X013772Y014718D01*
X013778Y014700D01*
X013780Y014680D01*
X013778Y014660D01*
X013772Y014642D01*
X013763Y014624D01*
X013751Y014609D01*
X013736Y014597D01*
X013718Y014588D01*
X013700Y014582D01*
X013680Y014580D01*
X013660Y014582D01*
X013642Y014588D01*
X013624Y014597D01*
X013609Y014609D01*
X013597Y014624D01*
X013588Y014642D01*
X013582Y014660D01*
X013580Y014680D01*
X012980Y014680D02*
X012982Y014732D01*
X012988Y014784D01*
X012998Y014836D01*
X013011Y014886D01*
X013028Y014936D01*
X013049Y014984D01*
X013074Y015030D01*
X013102Y015074D01*
X013133Y015116D01*
X013167Y015156D01*
X013204Y015193D01*
X013244Y015227D01*
X013286Y015258D01*
X013330Y015286D01*
X013376Y015311D01*
X013424Y015332D01*
X013474Y015349D01*
X013524Y015362D01*
X013576Y015372D01*
X013628Y015378D01*
X013680Y015380D01*
X013732Y015378D01*
X013784Y015372D01*
X013836Y015362D01*
X013886Y015349D01*
X013936Y015332D01*
X013984Y015311D01*
X014030Y015286D01*
X014074Y015258D01*
X014116Y015227D01*
X014156Y015193D01*
X014193Y015156D01*
X014227Y015116D01*
X014258Y015074D01*
X014286Y015030D01*
X014311Y014984D01*
X014332Y014936D01*
X014349Y014886D01*
X014362Y014836D01*
X014372Y014784D01*
X014378Y014732D01*
X014380Y014680D01*
X014378Y014628D01*
X014372Y014576D01*
X014362Y014524D01*
X014349Y014474D01*
X014332Y014424D01*
X014311Y014376D01*
X014286Y014330D01*
X014258Y014286D01*
X014227Y014244D01*
X014193Y014204D01*
X014156Y014167D01*
X014116Y014133D01*
X014074Y014102D01*
X014030Y014074D01*
X013984Y014049D01*
X013936Y014028D01*
X013886Y014011D01*
X013836Y013998D01*
X013784Y013988D01*
X013732Y013982D01*
X013680Y013980D01*
X013628Y013982D01*
X013576Y013988D01*
X013524Y013998D01*
X013474Y014011D01*
X013424Y014028D01*
X013376Y014049D01*
X013330Y014074D01*
X013286Y014102D01*
X013244Y014133D01*
X013204Y014167D01*
X013167Y014204D01*
X013133Y014244D01*
X013102Y014286D01*
X013074Y014330D01*
X013049Y014376D01*
X013028Y014424D01*
X013011Y014474D01*
X012998Y014524D01*
X012988Y014576D01*
X012982Y014628D01*
X012980Y014680D01*
X013330Y016880D02*
X013332Y016917D01*
X013338Y016953D01*
X013347Y016988D01*
X013360Y017022D01*
X013377Y017055D01*
X013397Y017086D01*
X013420Y017114D01*
X013446Y017140D01*
X013474Y017163D01*
X013505Y017183D01*
X013538Y017200D01*
X013572Y017213D01*
X013607Y017222D01*
X013643Y017228D01*
X013680Y017230D01*
X013717Y017228D01*
X013753Y017222D01*
X013788Y017213D01*
X013822Y017200D01*
X013855Y017183D01*
X013886Y017163D01*
X013914Y017140D01*
X013940Y017114D01*
X013963Y017086D01*
X013983Y017055D01*
X014000Y017022D01*
X014013Y016988D01*
X014022Y016953D01*
X014028Y016917D01*
X014030Y016880D01*
X016180Y016880D02*
X016180Y024480D01*
X020180Y024480D01*
X020180Y016880D01*
X016180Y016880D01*
X016710Y016637D02*
X016710Y016317D01*
X016817Y016210D01*
X016924Y016317D01*
X017030Y016210D01*
X017137Y016317D01*
X017137Y016637D01*
X017355Y016637D02*
X017355Y016317D01*
X017461Y016210D01*
X017568Y016317D01*
X017675Y016210D01*
X017782Y016317D01*
X017782Y016637D01*
X017999Y016637D02*
X017999Y016317D01*
X018106Y016210D01*
X018213Y016317D01*
X018319Y016210D01*
X018426Y016317D01*
X018426Y016637D01*
X018530Y016880D02*
X018528Y016917D01*
X018522Y016953D01*
X018513Y016988D01*
X018500Y017022D01*
X018483Y017055D01*
X018463Y017086D01*
X018440Y017114D01*
X018414Y017140D01*
X018386Y017163D01*
X018355Y017183D01*
X018322Y017200D01*
X018288Y017213D01*
X018253Y017222D01*
X018217Y017228D01*
X018180Y017230D01*
X018143Y017228D01*
X018107Y017222D01*
X018072Y017213D01*
X018038Y017200D01*
X018005Y017183D01*
X017974Y017163D01*
X017946Y017140D01*
X017920Y017114D01*
X017897Y017086D01*
X017877Y017055D01*
X017860Y017022D01*
X017847Y016988D01*
X017838Y016953D01*
X017832Y016917D01*
X017830Y016880D01*
X018644Y016317D02*
X018750Y016317D01*
X018750Y016210D01*
X018644Y016210D01*
X018644Y016317D01*
X018966Y016210D02*
X019286Y016210D01*
X019393Y016317D01*
X019286Y016424D01*
X019073Y016424D01*
X018966Y016530D01*
X019073Y016637D01*
X019393Y016637D01*
X019610Y016637D02*
X019717Y016637D01*
X019824Y016530D01*
X019931Y016637D01*
X020038Y016530D01*
X020038Y016210D01*
X019824Y016210D02*
X019824Y016530D01*
X019610Y016637D02*
X019610Y016210D01*
X019030Y015880D02*
X018680Y015880D01*
X017680Y015880D01*
X017330Y015880D01*
X016980Y015080D02*
X016980Y014980D01*
X016880Y014980D01*
X016880Y014380D01*
X016980Y014380D01*
X016980Y014280D01*
X017330Y013480D02*
X017680Y013480D01*
X018630Y013480D01*
X019030Y013480D01*
X019380Y014280D02*
X019380Y014380D01*
X019480Y014380D01*
X019480Y014980D01*
X019380Y014980D01*
X019380Y015080D01*
X018080Y014680D02*
X018082Y014700D01*
X018088Y014718D01*
X018097Y014736D01*
X018109Y014751D01*
X018124Y014763D01*
X018142Y014772D01*
X018160Y014778D01*
X018180Y014780D01*
X018200Y014778D01*
X018218Y014772D01*
X018236Y014763D01*
X018251Y014751D01*
X018263Y014736D01*
X018272Y014718D01*
X018278Y014700D01*
X018280Y014680D01*
X018278Y014660D01*
X018272Y014642D01*
X018263Y014624D01*
X018251Y014609D01*
X018236Y014597D01*
X018218Y014588D01*
X018200Y014582D01*
X018180Y014580D01*
X018160Y014582D01*
X018142Y014588D01*
X018124Y014597D01*
X018109Y014609D01*
X018097Y014624D01*
X018088Y014642D01*
X018082Y014660D01*
X018080Y014680D01*
X017480Y014680D02*
X017482Y014732D01*
X017488Y014784D01*
X017498Y014836D01*
X017511Y014886D01*
X017528Y014936D01*
X017549Y014984D01*
X017574Y015030D01*
X017602Y015074D01*
X017633Y015116D01*
X017667Y015156D01*
X017704Y015193D01*
X017744Y015227D01*
X017786Y015258D01*
X017830Y015286D01*
X017876Y015311D01*
X017924Y015332D01*
X017974Y015349D01*
X018024Y015362D01*
X018076Y015372D01*
X018128Y015378D01*
X018180Y015380D01*
X018232Y015378D01*
X018284Y015372D01*
X018336Y015362D01*
X018386Y015349D01*
X018436Y015332D01*
X018484Y015311D01*
X018530Y015286D01*
X018574Y015258D01*
X018616Y015227D01*
X018656Y015193D01*
X018693Y015156D01*
X018727Y015116D01*
X018758Y015074D01*
X018786Y015030D01*
X018811Y014984D01*
X018832Y014936D01*
X018849Y014886D01*
X018862Y014836D01*
X018872Y014784D01*
X018878Y014732D01*
X018880Y014680D01*
X018878Y014628D01*
X018872Y014576D01*
X018862Y014524D01*
X018849Y014474D01*
X018832Y014424D01*
X018811Y014376D01*
X018786Y014330D01*
X018758Y014286D01*
X018727Y014244D01*
X018693Y014204D01*
X018656Y014167D01*
X018616Y014133D01*
X018574Y014102D01*
X018530Y014074D01*
X018484Y014049D01*
X018436Y014028D01*
X018386Y014011D01*
X018336Y013998D01*
X018284Y013988D01*
X018232Y013982D01*
X018180Y013980D01*
X018128Y013982D01*
X018076Y013988D01*
X018024Y013998D01*
X017974Y014011D01*
X017924Y014028D01*
X017876Y014049D01*
X017830Y014074D01*
X017786Y014102D01*
X017744Y014133D01*
X017704Y014167D01*
X017667Y014204D01*
X017633Y014244D01*
X017602Y014286D01*
X017574Y014330D01*
X017549Y014376D01*
X017528Y014424D01*
X017511Y014474D01*
X017498Y014524D01*
X017488Y014576D01*
X017482Y014628D01*
X017480Y014680D01*
X020255Y016210D02*
X020575Y016210D01*
X020682Y016317D01*
X020682Y016530D01*
X020575Y016637D01*
X020255Y016637D01*
X020255Y016851D02*
X020255Y016210D01*
X020900Y016317D02*
X021006Y016210D01*
X021327Y016210D01*
X021327Y016530D01*
X021220Y016637D01*
X021006Y016637D01*
X021006Y016424D02*
X021327Y016424D01*
X021544Y016424D02*
X021864Y016637D01*
X022081Y016530D02*
X022081Y016317D01*
X022188Y016210D01*
X022402Y016210D01*
X022508Y016424D02*
X022081Y016424D01*
X022081Y016530D02*
X022188Y016637D01*
X022402Y016637D01*
X022508Y016530D01*
X022508Y016424D01*
X022726Y016424D02*
X022939Y016637D01*
X023046Y016637D01*
X022726Y016637D02*
X022726Y016210D01*
X023263Y016210D02*
X023263Y016317D01*
X023370Y016317D01*
X023370Y016210D01*
X023263Y016210D01*
X023585Y016317D02*
X023692Y016210D01*
X024012Y016210D01*
X024230Y016317D02*
X024337Y016210D01*
X024550Y016210D01*
X024657Y016317D01*
X024657Y016530D01*
X024550Y016637D01*
X024337Y016637D01*
X024230Y016530D01*
X024230Y016317D01*
X024012Y016637D02*
X023692Y016637D01*
X023585Y016530D01*
X023585Y016317D01*
X023530Y015880D02*
X023180Y015880D01*
X022180Y015880D01*
X021830Y015880D01*
X021864Y016210D02*
X021544Y016424D01*
X021544Y016210D02*
X021544Y016851D01*
X021006Y016424D02*
X020900Y016317D01*
X020680Y016880D02*
X020680Y024480D01*
X024680Y024480D01*
X024680Y016880D01*
X020680Y016880D01*
X022330Y016880D02*
X022332Y016917D01*
X022338Y016953D01*
X022347Y016988D01*
X022360Y017022D01*
X022377Y017055D01*
X022397Y017086D01*
X022420Y017114D01*
X022446Y017140D01*
X022474Y017163D01*
X022505Y017183D01*
X022538Y017200D01*
X022572Y017213D01*
X022607Y017222D01*
X022643Y017228D01*
X022680Y017230D01*
X022717Y017228D01*
X022753Y017222D01*
X022788Y017213D01*
X022822Y017200D01*
X022855Y017183D01*
X022886Y017163D01*
X022914Y017140D01*
X022940Y017114D01*
X022963Y017086D01*
X022983Y017055D01*
X023000Y017022D01*
X023013Y016988D01*
X023022Y016953D01*
X023028Y016917D01*
X023030Y016880D01*
X024874Y016637D02*
X024874Y016210D01*
X025088Y016210D02*
X025088Y016530D01*
X025195Y016637D01*
X025301Y016530D01*
X025301Y016210D01*
X025088Y016530D02*
X024981Y016637D01*
X024874Y016637D01*
X025180Y016880D02*
X025180Y024480D01*
X029180Y024480D01*
X029180Y016880D01*
X025180Y016880D01*
X026330Y015880D02*
X026680Y015880D01*
X027680Y015880D01*
X028030Y015880D01*
X028380Y015080D02*
X028380Y014980D01*
X028480Y014980D01*
X028480Y014380D01*
X028380Y014380D01*
X028380Y014280D01*
X028030Y013480D02*
X027630Y013480D01*
X026680Y013480D01*
X026330Y013480D01*
X025980Y014280D02*
X025980Y014380D01*
X025880Y014380D01*
X025880Y014980D01*
X025980Y014980D01*
X025980Y015080D01*
X027080Y014680D02*
X027082Y014700D01*
X027088Y014718D01*
X027097Y014736D01*
X027109Y014751D01*
X027124Y014763D01*
X027142Y014772D01*
X027160Y014778D01*
X027180Y014780D01*
X027200Y014778D01*
X027218Y014772D01*
X027236Y014763D01*
X027251Y014751D01*
X027263Y014736D01*
X027272Y014718D01*
X027278Y014700D01*
X027280Y014680D01*
X027278Y014660D01*
X027272Y014642D01*
X027263Y014624D01*
X027251Y014609D01*
X027236Y014597D01*
X027218Y014588D01*
X027200Y014582D01*
X027180Y014580D01*
X027160Y014582D01*
X027142Y014588D01*
X027124Y014597D01*
X027109Y014609D01*
X027097Y014624D01*
X027088Y014642D01*
X027082Y014660D01*
X027080Y014680D01*
X026480Y014680D02*
X026482Y014732D01*
X026488Y014784D01*
X026498Y014836D01*
X026511Y014886D01*
X026528Y014936D01*
X026549Y014984D01*
X026574Y015030D01*
X026602Y015074D01*
X026633Y015116D01*
X026667Y015156D01*
X026704Y015193D01*
X026744Y015227D01*
X026786Y015258D01*
X026830Y015286D01*
X026876Y015311D01*
X026924Y015332D01*
X026974Y015349D01*
X027024Y015362D01*
X027076Y015372D01*
X027128Y015378D01*
X027180Y015380D01*
X027232Y015378D01*
X027284Y015372D01*
X027336Y015362D01*
X027386Y015349D01*
X027436Y015332D01*
X027484Y015311D01*
X027530Y015286D01*
X027574Y015258D01*
X027616Y015227D01*
X027656Y015193D01*
X027693Y015156D01*
X027727Y015116D01*
X027758Y015074D01*
X027786Y015030D01*
X027811Y014984D01*
X027832Y014936D01*
X027849Y014886D01*
X027862Y014836D01*
X027872Y014784D01*
X027878Y014732D01*
X027880Y014680D01*
X027878Y014628D01*
X027872Y014576D01*
X027862Y014524D01*
X027849Y014474D01*
X027832Y014424D01*
X027811Y014376D01*
X027786Y014330D01*
X027758Y014286D01*
X027727Y014244D01*
X027693Y014204D01*
X027656Y014167D01*
X027616Y014133D01*
X027574Y014102D01*
X027530Y014074D01*
X027484Y014049D01*
X027436Y014028D01*
X027386Y014011D01*
X027336Y013998D01*
X027284Y013988D01*
X027232Y013982D01*
X027180Y013980D01*
X027128Y013982D01*
X027076Y013988D01*
X027024Y013998D01*
X026974Y014011D01*
X026924Y014028D01*
X026876Y014049D01*
X026830Y014074D01*
X026786Y014102D01*
X026744Y014133D01*
X026704Y014167D01*
X026667Y014204D01*
X026633Y014244D01*
X026602Y014286D01*
X026574Y014330D01*
X026549Y014376D01*
X026528Y014424D01*
X026511Y014474D01*
X026498Y014524D01*
X026488Y014576D01*
X026482Y014628D01*
X026480Y014680D01*
X023980Y014380D02*
X023980Y014980D01*
X023880Y014980D01*
X023880Y015080D01*
X023880Y014380D02*
X023880Y014280D01*
X023880Y014380D02*
X023980Y014380D01*
X023530Y013480D02*
X023130Y013480D01*
X022180Y013480D01*
X021830Y013480D01*
X021480Y014280D02*
X021480Y014380D01*
X021380Y014380D01*
X021380Y014980D01*
X021480Y014980D01*
X021480Y015080D01*
X022580Y014680D02*
X022582Y014700D01*
X022588Y014718D01*
X022597Y014736D01*
X022609Y014751D01*
X022624Y014763D01*
X022642Y014772D01*
X022660Y014778D01*
X022680Y014780D01*
X022700Y014778D01*
X022718Y014772D01*
X022736Y014763D01*
X022751Y014751D01*
X022763Y014736D01*
X022772Y014718D01*
X022778Y014700D01*
X022780Y014680D01*
X022778Y014660D01*
X022772Y014642D01*
X022763Y014624D01*
X022751Y014609D01*
X022736Y014597D01*
X022718Y014588D01*
X022700Y014582D01*
X022680Y014580D01*
X022660Y014582D01*
X022642Y014588D01*
X022624Y014597D01*
X022609Y014609D01*
X022597Y014624D01*
X022588Y014642D01*
X022582Y014660D01*
X022580Y014680D01*
X021980Y014680D02*
X021982Y014732D01*
X021988Y014784D01*
X021998Y014836D01*
X022011Y014886D01*
X022028Y014936D01*
X022049Y014984D01*
X022074Y015030D01*
X022102Y015074D01*
X022133Y015116D01*
X022167Y015156D01*
X022204Y015193D01*
X022244Y015227D01*
X022286Y015258D01*
X022330Y015286D01*
X022376Y015311D01*
X022424Y015332D01*
X022474Y015349D01*
X022524Y015362D01*
X022576Y015372D01*
X022628Y015378D01*
X022680Y015380D01*
X022732Y015378D01*
X022784Y015372D01*
X022836Y015362D01*
X022886Y015349D01*
X022936Y015332D01*
X022984Y015311D01*
X023030Y015286D01*
X023074Y015258D01*
X023116Y015227D01*
X023156Y015193D01*
X023193Y015156D01*
X023227Y015116D01*
X023258Y015074D01*
X023286Y015030D01*
X023311Y014984D01*
X023332Y014936D01*
X023349Y014886D01*
X023362Y014836D01*
X023372Y014784D01*
X023378Y014732D01*
X023380Y014680D01*
X023378Y014628D01*
X023372Y014576D01*
X023362Y014524D01*
X023349Y014474D01*
X023332Y014424D01*
X023311Y014376D01*
X023286Y014330D01*
X023258Y014286D01*
X023227Y014244D01*
X023193Y014204D01*
X023156Y014167D01*
X023116Y014133D01*
X023074Y014102D01*
X023030Y014074D01*
X022984Y014049D01*
X022936Y014028D01*
X022886Y014011D01*
X022836Y013998D01*
X022784Y013988D01*
X022732Y013982D01*
X022680Y013980D01*
X022628Y013982D01*
X022576Y013988D01*
X022524Y013998D01*
X022474Y014011D01*
X022424Y014028D01*
X022376Y014049D01*
X022330Y014074D01*
X022286Y014102D01*
X022244Y014133D01*
X022204Y014167D01*
X022167Y014204D01*
X022133Y014244D01*
X022102Y014286D01*
X022074Y014330D01*
X022049Y014376D01*
X022028Y014424D01*
X022011Y014474D01*
X021998Y014524D01*
X021988Y014576D01*
X021982Y014628D01*
X021980Y014680D01*
X026830Y016880D02*
X026832Y016917D01*
X026838Y016953D01*
X026847Y016988D01*
X026860Y017022D01*
X026877Y017055D01*
X026897Y017086D01*
X026920Y017114D01*
X026946Y017140D01*
X026974Y017163D01*
X027005Y017183D01*
X027038Y017200D01*
X027072Y017213D01*
X027107Y017222D01*
X027143Y017228D01*
X027180Y017230D01*
X027217Y017228D01*
X027253Y017222D01*
X027288Y017213D01*
X027322Y017200D01*
X027355Y017183D01*
X027386Y017163D01*
X027414Y017140D01*
X027440Y017114D01*
X027463Y017086D01*
X027483Y017055D01*
X027500Y017022D01*
X027513Y016988D01*
X027522Y016953D01*
X027528Y016917D01*
X027530Y016880D01*
X029680Y016880D02*
X029680Y024480D01*
X033680Y024480D01*
X033680Y016880D01*
X029680Y016880D01*
X030830Y015880D02*
X031180Y015880D01*
X032180Y015880D01*
X032530Y015880D01*
X032880Y015080D02*
X032880Y014980D01*
X032980Y014980D01*
X032980Y014380D01*
X032880Y014380D01*
X032880Y014280D01*
X032530Y013480D02*
X032130Y013480D01*
X031180Y013480D01*
X030830Y013480D01*
X030480Y014280D02*
X030480Y014380D01*
X030380Y014380D01*
X030380Y014980D01*
X030480Y014980D01*
X030480Y015080D01*
X031580Y014680D02*
X031582Y014700D01*
X031588Y014718D01*
X031597Y014736D01*
X031609Y014751D01*
X031624Y014763D01*
X031642Y014772D01*
X031660Y014778D01*
X031680Y014780D01*
X031700Y014778D01*
X031718Y014772D01*
X031736Y014763D01*
X031751Y014751D01*
X031763Y014736D01*
X031772Y014718D01*
X031778Y014700D01*
X031780Y014680D01*
X031778Y014660D01*
X031772Y014642D01*
X031763Y014624D01*
X031751Y014609D01*
X031736Y014597D01*
X031718Y014588D01*
X031700Y014582D01*
X031680Y014580D01*
X031660Y014582D01*
X031642Y014588D01*
X031624Y014597D01*
X031609Y014609D01*
X031597Y014624D01*
X031588Y014642D01*
X031582Y014660D01*
X031580Y014680D01*
X030980Y014680D02*
X030982Y014732D01*
X030988Y014784D01*
X030998Y014836D01*
X031011Y014886D01*
X031028Y014936D01*
X031049Y014984D01*
X031074Y015030D01*
X031102Y015074D01*
X031133Y015116D01*
X031167Y015156D01*
X031204Y015193D01*
X031244Y015227D01*
X031286Y015258D01*
X031330Y015286D01*
X031376Y015311D01*
X031424Y015332D01*
X031474Y015349D01*
X031524Y015362D01*
X031576Y015372D01*
X031628Y015378D01*
X031680Y015380D01*
X031732Y015378D01*
X031784Y015372D01*
X031836Y015362D01*
X031886Y015349D01*
X031936Y015332D01*
X031984Y015311D01*
X032030Y015286D01*
X032074Y015258D01*
X032116Y015227D01*
X032156Y015193D01*
X032193Y015156D01*
X032227Y015116D01*
X032258Y015074D01*
X032286Y015030D01*
X032311Y014984D01*
X032332Y014936D01*
X032349Y014886D01*
X032362Y014836D01*
X032372Y014784D01*
X032378Y014732D01*
X032380Y014680D01*
X032378Y014628D01*
X032372Y014576D01*
X032362Y014524D01*
X032349Y014474D01*
X032332Y014424D01*
X032311Y014376D01*
X032286Y014330D01*
X032258Y014286D01*
X032227Y014244D01*
X032193Y014204D01*
X032156Y014167D01*
X032116Y014133D01*
X032074Y014102D01*
X032030Y014074D01*
X031984Y014049D01*
X031936Y014028D01*
X031886Y014011D01*
X031836Y013998D01*
X031784Y013988D01*
X031732Y013982D01*
X031680Y013980D01*
X031628Y013982D01*
X031576Y013988D01*
X031524Y013998D01*
X031474Y014011D01*
X031424Y014028D01*
X031376Y014049D01*
X031330Y014074D01*
X031286Y014102D01*
X031244Y014133D01*
X031204Y014167D01*
X031167Y014204D01*
X031133Y014244D01*
X031102Y014286D01*
X031074Y014330D01*
X031049Y014376D01*
X031028Y014424D01*
X031011Y014474D01*
X030998Y014524D01*
X030988Y014576D01*
X030982Y014628D01*
X030980Y014680D01*
X030180Y012680D02*
X029180Y012680D01*
X029430Y012430D01*
X029180Y012680D02*
X029180Y011680D01*
X030180Y011680D01*
X038180Y011680D01*
X038180Y012680D01*
X030180Y012680D01*
X030180Y011680D01*
X029930Y011930D01*
X029430Y011930D02*
X029180Y011680D01*
X029930Y012430D02*
X030180Y012680D01*
X028680Y010330D02*
X028680Y009580D01*
X028719Y009578D01*
X028758Y009572D01*
X028796Y009563D01*
X028833Y009550D01*
X028869Y009533D01*
X028902Y009513D01*
X028934Y009489D01*
X028963Y009463D01*
X028989Y009434D01*
X029013Y009402D01*
X029033Y009369D01*
X029050Y009333D01*
X029063Y009296D01*
X029072Y009258D01*
X029078Y009219D01*
X029080Y009180D01*
X029078Y009141D01*
X029072Y009102D01*
X029063Y009064D01*
X029050Y009027D01*
X029033Y008991D01*
X029013Y008958D01*
X028989Y008926D01*
X028963Y008897D01*
X028934Y008871D01*
X028902Y008847D01*
X028869Y008827D01*
X028833Y008810D01*
X028796Y008797D01*
X028758Y008788D01*
X028719Y008782D01*
X028680Y008780D01*
X028680Y008030D01*
X038680Y008030D01*
X038680Y010330D01*
X028680Y010330D01*
X028180Y010030D02*
X028180Y008330D01*
X028178Y008313D01*
X028174Y008296D01*
X028167Y008280D01*
X028157Y008266D01*
X028144Y008253D01*
X028130Y008243D01*
X028114Y008236D01*
X028097Y008232D01*
X028080Y008230D01*
X027280Y008230D01*
X027263Y008232D01*
X027246Y008236D01*
X027230Y008243D01*
X027216Y008253D01*
X027203Y008266D01*
X027193Y008280D01*
X027186Y008296D01*
X027182Y008313D01*
X027180Y008330D01*
X027180Y010030D01*
X027182Y010047D01*
X027186Y010064D01*
X027193Y010080D01*
X027203Y010094D01*
X027216Y010107D01*
X027230Y010117D01*
X027246Y010124D01*
X027263Y010128D01*
X027280Y010130D01*
X028080Y010130D01*
X028097Y010128D01*
X028114Y010124D01*
X028130Y010117D01*
X028144Y010107D01*
X028157Y010094D01*
X028167Y010080D01*
X028174Y010064D01*
X028178Y010047D01*
X028180Y010030D01*
X027680Y009330D02*
X027680Y009280D01*
X027680Y009080D02*
X027680Y009030D01*
X026680Y008030D02*
X026680Y010330D01*
X016680Y010330D01*
X016680Y009580D01*
X016719Y009578D01*
X016758Y009572D01*
X016796Y009563D01*
X016833Y009550D01*
X016869Y009533D01*
X016902Y009513D01*
X016934Y009489D01*
X016963Y009463D01*
X016989Y009434D01*
X017013Y009402D01*
X017033Y009369D01*
X017050Y009333D01*
X017063Y009296D01*
X017072Y009258D01*
X017078Y009219D01*
X017080Y009180D01*
X017078Y009141D01*
X017072Y009102D01*
X017063Y009064D01*
X017050Y009027D01*
X017033Y008991D01*
X017013Y008958D01*
X016989Y008926D01*
X016963Y008897D01*
X016934Y008871D01*
X016902Y008847D01*
X016869Y008827D01*
X016833Y008810D01*
X016796Y008797D01*
X016758Y008788D01*
X016719Y008782D01*
X016680Y008780D01*
X016680Y008030D01*
X026680Y008030D01*
X027180Y005830D02*
X027180Y003530D01*
X017180Y003530D01*
X017180Y004280D01*
X017219Y004282D01*
X017258Y004288D01*
X017296Y004297D01*
X017333Y004310D01*
X017369Y004327D01*
X017402Y004347D01*
X017434Y004371D01*
X017463Y004397D01*
X017489Y004426D01*
X017513Y004458D01*
X017533Y004491D01*
X017550Y004527D01*
X017563Y004564D01*
X017572Y004602D01*
X017578Y004641D01*
X017580Y004680D01*
X017578Y004719D01*
X017572Y004758D01*
X017563Y004796D01*
X017550Y004833D01*
X017533Y004869D01*
X017513Y004902D01*
X017489Y004934D01*
X017463Y004963D01*
X017434Y004989D01*
X017402Y005013D01*
X017369Y005033D01*
X017333Y005050D01*
X017296Y005063D01*
X017258Y005072D01*
X017219Y005078D01*
X017180Y005080D01*
X017180Y005830D01*
X027180Y005830D01*
X028180Y005030D02*
X028180Y003330D01*
X028182Y003313D01*
X028186Y003296D01*
X028193Y003280D01*
X028203Y003266D01*
X028216Y003253D01*
X028230Y003243D01*
X028246Y003236D01*
X028263Y003232D01*
X028280Y003230D01*
X029080Y003230D01*
X029097Y003232D01*
X029114Y003236D01*
X029130Y003243D01*
X029144Y003253D01*
X029157Y003266D01*
X029167Y003280D01*
X029174Y003296D01*
X029178Y003313D01*
X029180Y003330D01*
X029180Y005030D01*
X029178Y005047D01*
X029174Y005064D01*
X029167Y005080D01*
X029157Y005094D01*
X029144Y005107D01*
X029130Y005117D01*
X029114Y005124D01*
X029097Y005128D01*
X029080Y005130D01*
X028280Y005130D01*
X028263Y005128D01*
X028246Y005124D01*
X028230Y005117D01*
X028216Y005107D01*
X028203Y005094D01*
X028193Y005080D01*
X028186Y005064D01*
X028182Y005047D01*
X028180Y005030D01*
X028680Y004330D02*
X028680Y004280D01*
X028680Y004080D02*
X028680Y004030D01*
X030180Y003780D02*
X030219Y003782D01*
X030258Y003788D01*
X030296Y003797D01*
X030333Y003810D01*
X030369Y003827D01*
X030402Y003847D01*
X030434Y003871D01*
X030463Y003897D01*
X030489Y003926D01*
X030513Y003958D01*
X030533Y003991D01*
X030550Y004027D01*
X030563Y004064D01*
X030572Y004102D01*
X030578Y004141D01*
X030580Y004180D01*
X030578Y004219D01*
X030572Y004258D01*
X030563Y004296D01*
X030550Y004333D01*
X030533Y004369D01*
X030513Y004402D01*
X030489Y004434D01*
X030463Y004463D01*
X030434Y004489D01*
X030402Y004513D01*
X030369Y004533D01*
X030333Y004550D01*
X030296Y004563D01*
X030258Y004572D01*
X030219Y004578D01*
X030180Y004580D01*
X030180Y005330D01*
X040180Y005330D01*
X040180Y003030D01*
X030180Y003030D01*
X030180Y003780D01*
X035330Y013480D02*
X035680Y013480D01*
X036630Y013480D01*
X037030Y013480D01*
X037380Y014280D02*
X037380Y014380D01*
X037480Y014380D01*
X037480Y014980D01*
X037380Y014980D01*
X037380Y015080D01*
X037030Y015880D02*
X036680Y015880D01*
X035680Y015880D01*
X035330Y015880D01*
X034980Y015080D02*
X034980Y014980D01*
X034880Y014980D01*
X034880Y014380D01*
X034980Y014380D01*
X034980Y014280D01*
X036080Y014680D02*
X036082Y014700D01*
X036088Y014718D01*
X036097Y014736D01*
X036109Y014751D01*
X036124Y014763D01*
X036142Y014772D01*
X036160Y014778D01*
X036180Y014780D01*
X036200Y014778D01*
X036218Y014772D01*
X036236Y014763D01*
X036251Y014751D01*
X036263Y014736D01*
X036272Y014718D01*
X036278Y014700D01*
X036280Y014680D01*
X036278Y014660D01*
X036272Y014642D01*
X036263Y014624D01*
X036251Y014609D01*
X036236Y014597D01*
X036218Y014588D01*
X036200Y014582D01*
X036180Y014580D01*
X036160Y014582D01*
X036142Y014588D01*
X036124Y014597D01*
X036109Y014609D01*
X036097Y014624D01*
X036088Y014642D01*
X036082Y014660D01*
X036080Y014680D01*
X035480Y014680D02*
X035482Y014732D01*
X035488Y014784D01*
X035498Y014836D01*
X035511Y014886D01*
X035528Y014936D01*
X035549Y014984D01*
X035574Y015030D01*
X035602Y015074D01*
X035633Y015116D01*
X035667Y015156D01*
X035704Y015193D01*
X035744Y015227D01*
X035786Y015258D01*
X035830Y015286D01*
X035876Y015311D01*
X035924Y015332D01*
X035974Y015349D01*
X036024Y015362D01*
X036076Y015372D01*
X036128Y015378D01*
X036180Y015380D01*
X036232Y015378D01*
X036284Y015372D01*
X036336Y015362D01*
X036386Y015349D01*
X036436Y015332D01*
X036484Y015311D01*
X036530Y015286D01*
X036574Y015258D01*
X036616Y015227D01*
X036656Y015193D01*
X036693Y015156D01*
X036727Y015116D01*
X036758Y015074D01*
X036786Y015030D01*
X036811Y014984D01*
X036832Y014936D01*
X036849Y014886D01*
X036862Y014836D01*
X036872Y014784D01*
X036878Y014732D01*
X036880Y014680D01*
X036878Y014628D01*
X036872Y014576D01*
X036862Y014524D01*
X036849Y014474D01*
X036832Y014424D01*
X036811Y014376D01*
X036786Y014330D01*
X036758Y014286D01*
X036727Y014244D01*
X036693Y014204D01*
X036656Y014167D01*
X036616Y014133D01*
X036574Y014102D01*
X036530Y014074D01*
X036484Y014049D01*
X036436Y014028D01*
X036386Y014011D01*
X036336Y013998D01*
X036284Y013988D01*
X036232Y013982D01*
X036180Y013980D01*
X036128Y013982D01*
X036076Y013988D01*
X036024Y013998D01*
X035974Y014011D01*
X035924Y014028D01*
X035876Y014049D01*
X035830Y014074D01*
X035786Y014102D01*
X035744Y014133D01*
X035704Y014167D01*
X035667Y014204D01*
X035633Y014244D01*
X035602Y014286D01*
X035574Y014330D01*
X035549Y014376D01*
X035528Y014424D01*
X035511Y014474D01*
X035498Y014524D01*
X035488Y014576D01*
X035482Y014628D01*
X035480Y014680D01*
X035830Y016880D02*
X035832Y016917D01*
X035838Y016953D01*
X035847Y016988D01*
X035860Y017022D01*
X035877Y017055D01*
X035897Y017086D01*
X035920Y017114D01*
X035946Y017140D01*
X035974Y017163D01*
X036005Y017183D01*
X036038Y017200D01*
X036072Y017213D01*
X036107Y017222D01*
X036143Y017228D01*
X036180Y017230D01*
X036217Y017228D01*
X036253Y017222D01*
X036288Y017213D01*
X036322Y017200D01*
X036355Y017183D01*
X036386Y017163D01*
X036414Y017140D01*
X036440Y017114D01*
X036463Y017086D01*
X036483Y017055D01*
X036500Y017022D01*
X036513Y016988D01*
X036522Y016953D01*
X036528Y016917D01*
X036530Y016880D01*
X038180Y016880D02*
X038180Y024480D01*
X034180Y024480D01*
X034180Y016880D01*
X038180Y016880D01*
X039280Y018180D02*
X040080Y018180D01*
X040180Y018280D01*
X040180Y019080D01*
X040080Y019180D01*
X040180Y019280D01*
X040180Y020080D01*
X040080Y020180D01*
X039280Y020180D01*
X039180Y020080D01*
X039180Y019280D01*
X039280Y019180D01*
X039180Y019080D01*
X039180Y018280D01*
X039280Y018180D01*
X039580Y020730D02*
X038780Y020730D01*
X038763Y020732D01*
X038746Y020736D01*
X038730Y020743D01*
X038716Y020753D01*
X038703Y020766D01*
X038693Y020780D01*
X038686Y020796D01*
X038682Y020813D01*
X038680Y020830D01*
X038680Y022530D01*
X038682Y022547D01*
X038686Y022564D01*
X038693Y022580D01*
X038703Y022594D01*
X038716Y022607D01*
X038730Y022617D01*
X038746Y022624D01*
X038763Y022628D01*
X038780Y022630D01*
X039580Y022630D01*
X039597Y022628D01*
X039614Y022624D01*
X039630Y022617D01*
X039644Y022607D01*
X039657Y022594D01*
X039667Y022580D01*
X039674Y022564D01*
X039678Y022547D01*
X039680Y022530D01*
X039680Y020830D01*
X039678Y020813D01*
X039674Y020796D01*
X039667Y020780D01*
X039657Y020766D01*
X039644Y020753D01*
X039630Y020743D01*
X039614Y020736D01*
X039597Y020732D01*
X039580Y020730D01*
X039180Y021530D02*
X039180Y021580D01*
X039180Y021780D02*
X039180Y021830D01*
X037430Y024480D02*
X037428Y024443D01*
X037422Y024407D01*
X037413Y024372D01*
X037400Y024338D01*
X037383Y024305D01*
X037363Y024274D01*
X037340Y024246D01*
X037314Y024220D01*
X037286Y024197D01*
X037255Y024177D01*
X037222Y024160D01*
X037188Y024147D01*
X037153Y024138D01*
X037117Y024132D01*
X037080Y024130D01*
X037043Y024132D01*
X037007Y024138D01*
X036972Y024147D01*
X036938Y024160D01*
X036905Y024177D01*
X036874Y024197D01*
X036846Y024220D01*
X036820Y024246D01*
X036797Y024274D01*
X036777Y024305D01*
X036760Y024338D01*
X036747Y024372D01*
X036738Y024407D01*
X036732Y024443D01*
X036730Y024480D01*
X035630Y024480D02*
X035628Y024443D01*
X035622Y024407D01*
X035613Y024372D01*
X035600Y024338D01*
X035583Y024305D01*
X035563Y024274D01*
X035540Y024246D01*
X035514Y024220D01*
X035486Y024197D01*
X035455Y024177D01*
X035422Y024160D01*
X035388Y024147D01*
X035353Y024138D01*
X035317Y024132D01*
X035280Y024130D01*
X035243Y024132D01*
X035207Y024138D01*
X035172Y024147D01*
X035138Y024160D01*
X035105Y024177D01*
X035074Y024197D01*
X035046Y024220D01*
X035020Y024246D01*
X034997Y024274D01*
X034977Y024305D01*
X034960Y024338D01*
X034947Y024372D01*
X034938Y024407D01*
X034932Y024443D01*
X034930Y024480D01*
X032930Y024480D02*
X032928Y024443D01*
X032922Y024407D01*
X032913Y024372D01*
X032900Y024338D01*
X032883Y024305D01*
X032863Y024274D01*
X032840Y024246D01*
X032814Y024220D01*
X032786Y024197D01*
X032755Y024177D01*
X032722Y024160D01*
X032688Y024147D01*
X032653Y024138D01*
X032617Y024132D01*
X032580Y024130D01*
X032543Y024132D01*
X032507Y024138D01*
X032472Y024147D01*
X032438Y024160D01*
X032405Y024177D01*
X032374Y024197D01*
X032346Y024220D01*
X032320Y024246D01*
X032297Y024274D01*
X032277Y024305D01*
X032260Y024338D01*
X032247Y024372D01*
X032238Y024407D01*
X032232Y024443D01*
X032230Y024480D01*
X031130Y024480D02*
X031128Y024443D01*
X031122Y024407D01*
X031113Y024372D01*
X031100Y024338D01*
X031083Y024305D01*
X031063Y024274D01*
X031040Y024246D01*
X031014Y024220D01*
X030986Y024197D01*
X030955Y024177D01*
X030922Y024160D01*
X030888Y024147D01*
X030853Y024138D01*
X030817Y024132D01*
X030780Y024130D01*
X030743Y024132D01*
X030707Y024138D01*
X030672Y024147D01*
X030638Y024160D01*
X030605Y024177D01*
X030574Y024197D01*
X030546Y024220D01*
X030520Y024246D01*
X030497Y024274D01*
X030477Y024305D01*
X030460Y024338D01*
X030447Y024372D01*
X030438Y024407D01*
X030432Y024443D01*
X030430Y024480D01*
X028430Y024480D02*
X028428Y024443D01*
X028422Y024407D01*
X028413Y024372D01*
X028400Y024338D01*
X028383Y024305D01*
X028363Y024274D01*
X028340Y024246D01*
X028314Y024220D01*
X028286Y024197D01*
X028255Y024177D01*
X028222Y024160D01*
X028188Y024147D01*
X028153Y024138D01*
X028117Y024132D01*
X028080Y024130D01*
X028043Y024132D01*
X028007Y024138D01*
X027972Y024147D01*
X027938Y024160D01*
X027905Y024177D01*
X027874Y024197D01*
X027846Y024220D01*
X027820Y024246D01*
X027797Y024274D01*
X027777Y024305D01*
X027760Y024338D01*
X027747Y024372D01*
X027738Y024407D01*
X027732Y024443D01*
X027730Y024480D01*
X026630Y024480D02*
X026628Y024443D01*
X026622Y024407D01*
X026613Y024372D01*
X026600Y024338D01*
X026583Y024305D01*
X026563Y024274D01*
X026540Y024246D01*
X026514Y024220D01*
X026486Y024197D01*
X026455Y024177D01*
X026422Y024160D01*
X026388Y024147D01*
X026353Y024138D01*
X026317Y024132D01*
X026280Y024130D01*
X026243Y024132D01*
X026207Y024138D01*
X026172Y024147D01*
X026138Y024160D01*
X026105Y024177D01*
X026074Y024197D01*
X026046Y024220D01*
X026020Y024246D01*
X025997Y024274D01*
X025977Y024305D01*
X025960Y024338D01*
X025947Y024372D01*
X025938Y024407D01*
X025932Y024443D01*
X025930Y024480D01*
X023930Y024480D02*
X023928Y024443D01*
X023922Y024407D01*
X023913Y024372D01*
X023900Y024338D01*
X023883Y024305D01*
X023863Y024274D01*
X023840Y024246D01*
X023814Y024220D01*
X023786Y024197D01*
X023755Y024177D01*
X023722Y024160D01*
X023688Y024147D01*
X023653Y024138D01*
X023617Y024132D01*
X023580Y024130D01*
X023543Y024132D01*
X023507Y024138D01*
X023472Y024147D01*
X023438Y024160D01*
X023405Y024177D01*
X023374Y024197D01*
X023346Y024220D01*
X023320Y024246D01*
X023297Y024274D01*
X023277Y024305D01*
X023260Y024338D01*
X023247Y024372D01*
X023238Y024407D01*
X023232Y024443D01*
X023230Y024480D01*
X022130Y024480D02*
X022128Y024443D01*
X022122Y024407D01*
X022113Y024372D01*
X022100Y024338D01*
X022083Y024305D01*
X022063Y024274D01*
X022040Y024246D01*
X022014Y024220D01*
X021986Y024197D01*
X021955Y024177D01*
X021922Y024160D01*
X021888Y024147D01*
X021853Y024138D01*
X021817Y024132D01*
X021780Y024130D01*
X021743Y024132D01*
X021707Y024138D01*
X021672Y024147D01*
X021638Y024160D01*
X021605Y024177D01*
X021574Y024197D01*
X021546Y024220D01*
X021520Y024246D01*
X021497Y024274D01*
X021477Y024305D01*
X021460Y024338D01*
X021447Y024372D01*
X021438Y024407D01*
X021432Y024443D01*
X021430Y024480D01*
X019430Y024480D02*
X019428Y024443D01*
X019422Y024407D01*
X019413Y024372D01*
X019400Y024338D01*
X019383Y024305D01*
X019363Y024274D01*
X019340Y024246D01*
X019314Y024220D01*
X019286Y024197D01*
X019255Y024177D01*
X019222Y024160D01*
X019188Y024147D01*
X019153Y024138D01*
X019117Y024132D01*
X019080Y024130D01*
X019043Y024132D01*
X019007Y024138D01*
X018972Y024147D01*
X018938Y024160D01*
X018905Y024177D01*
X018874Y024197D01*
X018846Y024220D01*
X018820Y024246D01*
X018797Y024274D01*
X018777Y024305D01*
X018760Y024338D01*
X018747Y024372D01*
X018738Y024407D01*
X018732Y024443D01*
X018730Y024480D01*
X017630Y024480D02*
X017628Y024443D01*
X017622Y024407D01*
X017613Y024372D01*
X017600Y024338D01*
X017583Y024305D01*
X017563Y024274D01*
X017540Y024246D01*
X017514Y024220D01*
X017486Y024197D01*
X017455Y024177D01*
X017422Y024160D01*
X017388Y024147D01*
X017353Y024138D01*
X017317Y024132D01*
X017280Y024130D01*
X017243Y024132D01*
X017207Y024138D01*
X017172Y024147D01*
X017138Y024160D01*
X017105Y024177D01*
X017074Y024197D01*
X017046Y024220D01*
X017020Y024246D01*
X016997Y024274D01*
X016977Y024305D01*
X016960Y024338D01*
X016947Y024372D01*
X016938Y024407D01*
X016932Y024443D01*
X016930Y024480D01*
X014930Y024480D02*
X014928Y024443D01*
X014922Y024407D01*
X014913Y024372D01*
X014900Y024338D01*
X014883Y024305D01*
X014863Y024274D01*
X014840Y024246D01*
X014814Y024220D01*
X014786Y024197D01*
X014755Y024177D01*
X014722Y024160D01*
X014688Y024147D01*
X014653Y024138D01*
X014617Y024132D01*
X014580Y024130D01*
X014543Y024132D01*
X014507Y024138D01*
X014472Y024147D01*
X014438Y024160D01*
X014405Y024177D01*
X014374Y024197D01*
X014346Y024220D01*
X014320Y024246D01*
X014297Y024274D01*
X014277Y024305D01*
X014260Y024338D01*
X014247Y024372D01*
X014238Y024407D01*
X014232Y024443D01*
X014230Y024480D01*
X013130Y024480D02*
X013128Y024443D01*
X013122Y024407D01*
X013113Y024372D01*
X013100Y024338D01*
X013083Y024305D01*
X013063Y024274D01*
X013040Y024246D01*
X013014Y024220D01*
X012986Y024197D01*
X012955Y024177D01*
X012922Y024160D01*
X012888Y024147D01*
X012853Y024138D01*
X012817Y024132D01*
X012780Y024130D01*
X012743Y024132D01*
X012707Y024138D01*
X012672Y024147D01*
X012638Y024160D01*
X012605Y024177D01*
X012574Y024197D01*
X012546Y024220D01*
X012520Y024246D01*
X012497Y024274D01*
X012477Y024305D01*
X012460Y024338D01*
X012447Y024372D01*
X012438Y024407D01*
X012432Y024443D01*
X012430Y024480D01*
X010430Y024480D02*
X010428Y024443D01*
X010422Y024407D01*
X010413Y024372D01*
X010400Y024338D01*
X010383Y024305D01*
X010363Y024274D01*
X010340Y024246D01*
X010314Y024220D01*
X010286Y024197D01*
X010255Y024177D01*
X010222Y024160D01*
X010188Y024147D01*
X010153Y024138D01*
X010117Y024132D01*
X010080Y024130D01*
X010043Y024132D01*
X010007Y024138D01*
X009972Y024147D01*
X009938Y024160D01*
X009905Y024177D01*
X009874Y024197D01*
X009846Y024220D01*
X009820Y024246D01*
X009797Y024274D01*
X009777Y024305D01*
X009760Y024338D01*
X009747Y024372D01*
X009738Y024407D01*
X009732Y024443D01*
X009730Y024480D01*
X008630Y024480D02*
X008628Y024443D01*
X008622Y024407D01*
X008613Y024372D01*
X008600Y024338D01*
X008583Y024305D01*
X008563Y024274D01*
X008540Y024246D01*
X008514Y024220D01*
X008486Y024197D01*
X008455Y024177D01*
X008422Y024160D01*
X008388Y024147D01*
X008353Y024138D01*
X008317Y024132D01*
X008280Y024130D01*
X008243Y024132D01*
X008207Y024138D01*
X008172Y024147D01*
X008138Y024160D01*
X008105Y024177D01*
X008074Y024197D01*
X008046Y024220D01*
X008020Y024246D01*
X007997Y024274D01*
X007977Y024305D01*
X007960Y024338D01*
X007947Y024372D01*
X007938Y024407D01*
X007932Y024443D01*
X007930Y024480D01*
X005930Y024480D02*
X005928Y024443D01*
X005922Y024407D01*
X005913Y024372D01*
X005900Y024338D01*
X005883Y024305D01*
X005863Y024274D01*
X005840Y024246D01*
X005814Y024220D01*
X005786Y024197D01*
X005755Y024177D01*
X005722Y024160D01*
X005688Y024147D01*
X005653Y024138D01*
X005617Y024132D01*
X005580Y024130D01*
X005543Y024132D01*
X005507Y024138D01*
X005472Y024147D01*
X005438Y024160D01*
X005405Y024177D01*
X005374Y024197D01*
X005346Y024220D01*
X005320Y024246D01*
X005297Y024274D01*
X005277Y024305D01*
X005260Y024338D01*
X005247Y024372D01*
X005238Y024407D01*
X005232Y024443D01*
X005230Y024480D01*
X004130Y024480D02*
X004128Y024443D01*
X004122Y024407D01*
X004113Y024372D01*
X004100Y024338D01*
X004083Y024305D01*
X004063Y024274D01*
X004040Y024246D01*
X004014Y024220D01*
X003986Y024197D01*
X003955Y024177D01*
X003922Y024160D01*
X003888Y024147D01*
X003853Y024138D01*
X003817Y024132D01*
X003780Y024130D01*
X003743Y024132D01*
X003707Y024138D01*
X003672Y024147D01*
X003638Y024160D01*
X003605Y024177D01*
X003574Y024197D01*
X003546Y024220D01*
X003520Y024246D01*
X003497Y024274D01*
X003477Y024305D01*
X003460Y024338D01*
X003447Y024372D01*
X003438Y024407D01*
X003432Y024443D01*
X003430Y024480D01*
X001680Y020830D02*
X001680Y020730D01*
X001780Y020730D01*
X001680Y020730D02*
X001680Y020630D01*
X001680Y020730D02*
X001580Y020730D01*
X000180Y020180D02*
X000182Y020243D01*
X000188Y020305D01*
X000198Y020367D01*
X000211Y020429D01*
X000229Y020489D01*
X000250Y020548D01*
X000275Y020606D01*
X000304Y020662D01*
X000336Y020716D01*
X000371Y020768D01*
X000409Y020817D01*
X000451Y020865D01*
X000495Y020909D01*
X000543Y020951D01*
X000592Y020989D01*
X000644Y021024D01*
X000698Y021056D01*
X000754Y021085D01*
X000812Y021110D01*
X000871Y021131D01*
X000931Y021149D01*
X000993Y021162D01*
X001055Y021172D01*
X001117Y021178D01*
X001180Y021180D01*
X001243Y021178D01*
X001305Y021172D01*
X001367Y021162D01*
X001429Y021149D01*
X001489Y021131D01*
X001548Y021110D01*
X001606Y021085D01*
X001662Y021056D01*
X001716Y021024D01*
X001768Y020989D01*
X001817Y020951D01*
X001865Y020909D01*
X001909Y020865D01*
X001951Y020817D01*
X001989Y020768D01*
X002024Y020716D01*
X002056Y020662D01*
X002085Y020606D01*
X002110Y020548D01*
X002131Y020489D01*
X002149Y020429D01*
X002162Y020367D01*
X002172Y020305D01*
X002178Y020243D01*
X002180Y020180D01*
X002178Y020117D01*
X002172Y020055D01*
X002162Y019993D01*
X002149Y019931D01*
X002131Y019871D01*
X002110Y019812D01*
X002085Y019754D01*
X002056Y019698D01*
X002024Y019644D01*
X001989Y019592D01*
X001951Y019543D01*
X001909Y019495D01*
X001865Y019451D01*
X001817Y019409D01*
X001768Y019371D01*
X001716Y019336D01*
X001662Y019304D01*
X001606Y019275D01*
X001548Y019250D01*
X001489Y019229D01*
X001429Y019211D01*
X001367Y019198D01*
X001305Y019188D01*
X001243Y019182D01*
X001180Y019180D01*
X001117Y019182D01*
X001055Y019188D01*
X000993Y019198D01*
X000931Y019211D01*
X000871Y019229D01*
X000812Y019250D01*
X000754Y019275D01*
X000698Y019304D01*
X000644Y019336D01*
X000592Y019371D01*
X000543Y019409D01*
X000495Y019451D01*
X000451Y019495D01*
X000409Y019543D01*
X000371Y019592D01*
X000336Y019644D01*
X000304Y019698D01*
X000275Y019754D01*
X000250Y019812D01*
X000229Y019871D01*
X000211Y019931D01*
X000198Y019993D01*
X000188Y020055D01*
X000182Y020117D01*
X000180Y020180D01*
X011530Y011180D02*
X012280Y011180D01*
X012282Y011141D01*
X012288Y011102D01*
X012297Y011064D01*
X012310Y011027D01*
X012327Y010991D01*
X012347Y010958D01*
X012371Y010926D01*
X012397Y010897D01*
X012426Y010871D01*
X012458Y010847D01*
X012491Y010827D01*
X012527Y010810D01*
X012564Y010797D01*
X012602Y010788D01*
X012641Y010782D01*
X012680Y010780D01*
X012719Y010782D01*
X012758Y010788D01*
X012796Y010797D01*
X012833Y010810D01*
X012869Y010827D01*
X012902Y010847D01*
X012934Y010871D01*
X012963Y010897D01*
X012989Y010926D01*
X013013Y010958D01*
X013033Y010991D01*
X013050Y011027D01*
X013063Y011064D01*
X013072Y011102D01*
X013078Y011141D01*
X013080Y011180D01*
X013830Y011180D01*
X013830Y003180D01*
X011530Y003180D01*
X011530Y011180D01*
X008680Y008430D02*
X008430Y008680D01*
X007930Y008680D01*
X007680Y008430D01*
X007430Y008680D01*
X006930Y008680D01*
X006680Y008430D01*
X006430Y008680D01*
X005930Y008680D01*
X005680Y008430D01*
X005430Y008680D01*
X004930Y008680D01*
X004680Y008430D01*
X004430Y008680D01*
X003930Y008680D01*
X003680Y008430D01*
X003430Y008680D01*
X002930Y008680D01*
X002680Y008430D01*
X002430Y008680D01*
X001930Y008680D01*
X001680Y008430D01*
X001430Y008680D01*
X000930Y008680D01*
X000680Y008430D01*
X000680Y006930D01*
X000930Y006680D01*
X001430Y006680D01*
X001680Y006930D01*
X001930Y006680D01*
X002430Y006680D01*
X002680Y006930D01*
X002930Y006680D01*
X003430Y006680D01*
X003680Y006930D01*
X003930Y006680D01*
X004430Y006680D01*
X004680Y006930D01*
X004930Y006680D01*
X005430Y006680D01*
X005680Y006930D01*
X005930Y006680D01*
X006430Y006680D01*
X006680Y006930D01*
X006930Y006680D01*
X007430Y006680D01*
X007680Y006930D01*
X007930Y006680D01*
X008430Y006680D01*
X008680Y006930D01*
X008680Y008430D01*
X008680Y005330D02*
X008680Y003030D01*
X000680Y003030D01*
X000680Y003780D01*
X000719Y003782D01*
X000758Y003788D01*
X000796Y003797D01*
X000833Y003810D01*
X000869Y003827D01*
X000902Y003847D01*
X000934Y003871D01*
X000963Y003897D01*
X000989Y003926D01*
X001013Y003958D01*
X001033Y003991D01*
X001050Y004027D01*
X001063Y004064D01*
X001072Y004102D01*
X001078Y004141D01*
X001080Y004180D01*
X001078Y004219D01*
X001072Y004258D01*
X001063Y004296D01*
X001050Y004333D01*
X001033Y004369D01*
X001013Y004402D01*
X000989Y004434D01*
X000963Y004463D01*
X000934Y004489D01*
X000902Y004513D01*
X000869Y004533D01*
X000833Y004550D01*
X000796Y004563D01*
X000758Y004572D01*
X000719Y004578D01*
X000680Y004580D01*
X000680Y005330D01*
X008680Y005330D01*
X009280Y005130D02*
X010080Y005130D01*
X010097Y005128D01*
X010114Y005124D01*
X010130Y005117D01*
X010144Y005107D01*
X010157Y005094D01*
X010167Y005080D01*
X010174Y005064D01*
X010178Y005047D01*
X010180Y005030D01*
X010180Y003330D01*
X010178Y003313D01*
X010174Y003296D01*
X010167Y003280D01*
X010157Y003266D01*
X010144Y003253D01*
X010130Y003243D01*
X010114Y003236D01*
X010097Y003232D01*
X010080Y003230D01*
X009280Y003230D01*
X009263Y003232D01*
X009246Y003236D01*
X009230Y003243D01*
X009216Y003253D01*
X009203Y003266D01*
X009193Y003280D01*
X009186Y003296D01*
X009182Y003313D01*
X009180Y003330D01*
X009180Y005030D01*
X009182Y005047D01*
X009186Y005064D01*
X009193Y005080D01*
X009203Y005094D01*
X009216Y005107D01*
X009230Y005117D01*
X009246Y005124D01*
X009263Y005128D01*
X009280Y005130D01*
X009680Y004330D02*
X009680Y004280D01*
X009680Y004080D02*
X009680Y004030D01*
X031330Y016880D02*
X031332Y016917D01*
X031338Y016953D01*
X031347Y016988D01*
X031360Y017022D01*
X031377Y017055D01*
X031397Y017086D01*
X031420Y017114D01*
X031446Y017140D01*
X031474Y017163D01*
X031505Y017183D01*
X031538Y017200D01*
X031572Y017213D01*
X031607Y017222D01*
X031643Y017228D01*
X031680Y017230D01*
X031717Y017228D01*
X031753Y017222D01*
X031788Y017213D01*
X031822Y017200D01*
X031855Y017183D01*
X031886Y017163D01*
X031914Y017140D01*
X031940Y017114D01*
X031963Y017086D01*
X031983Y017055D01*
X032000Y017022D01*
X032013Y016988D01*
X032022Y016953D01*
X032028Y016917D01*
X032030Y016880D01*
D12*
X038880Y021580D02*
X039180Y021580D01*
X039480Y021580D01*
X039480Y021780D02*
X039180Y021780D01*
X038880Y021780D01*
X027980Y009280D02*
X027680Y009280D01*
X027380Y009280D01*
X027380Y009080D02*
X027680Y009080D01*
X027980Y009080D01*
X028380Y004280D02*
X028680Y004280D01*
X028980Y004280D01*
X028980Y004080D02*
X028680Y004080D01*
X028380Y004080D01*
X009980Y004080D02*
X009680Y004080D01*
X009380Y004080D01*
X009380Y004280D02*
X009680Y004280D01*
X009980Y004280D01*
D13*
X010455Y020155D03*
X009705Y020355D03*
X009255Y020355D03*
X008805Y020355D03*
X008355Y020355D03*
X007905Y020155D03*
X008405Y020805D03*
X008455Y021255D03*
X008505Y021705D03*
X008955Y021705D03*
X009405Y021705D03*
X009855Y021705D03*
X009805Y021255D03*
X009755Y020805D03*
X009905Y022155D03*
X009955Y022605D03*
X010005Y023055D03*
X009555Y023055D03*
X009105Y023055D03*
X008655Y023055D03*
X008605Y022605D03*
X008555Y022155D03*
X005455Y022605D03*
X005505Y023055D03*
X005055Y023055D03*
X004605Y023055D03*
X004155Y023055D03*
X004105Y022605D03*
X004055Y022155D03*
X004005Y021705D03*
X004455Y021705D03*
X004905Y021705D03*
X005355Y021705D03*
X005305Y021255D03*
X005255Y020805D03*
X005205Y020355D03*
X004755Y020355D03*
X004305Y020355D03*
X003855Y020355D03*
X003405Y020155D03*
X003905Y020805D03*
X003955Y021255D03*
X005405Y022155D03*
X005955Y020155D03*
X012405Y020155D03*
X012855Y020355D03*
X013305Y020355D03*
X013755Y020355D03*
X014205Y020355D03*
X014255Y020805D03*
X014305Y021255D03*
X014355Y021705D03*
X013905Y021705D03*
X013455Y021705D03*
X013005Y021705D03*
X012955Y021255D03*
X012905Y020805D03*
X013055Y022155D03*
X013105Y022605D03*
X013155Y023055D03*
X013605Y023055D03*
X014055Y023055D03*
X014505Y023055D03*
X014455Y022605D03*
X014405Y022155D03*
X017505Y021705D03*
X017955Y021705D03*
X018405Y021705D03*
X018855Y021705D03*
X018805Y021255D03*
X018755Y020805D03*
X018705Y020355D03*
X018255Y020355D03*
X017805Y020355D03*
X017355Y020355D03*
X016905Y020155D03*
X017405Y020805D03*
X017455Y021255D03*
X017555Y022155D03*
X017605Y022605D03*
X017655Y023055D03*
X018105Y023055D03*
X018555Y023055D03*
X019005Y023055D03*
X018955Y022605D03*
X018905Y022155D03*
X022005Y021705D03*
X022455Y021705D03*
X022905Y021705D03*
X023355Y021705D03*
X023305Y021255D03*
X023255Y020805D03*
X023205Y020355D03*
X022755Y020355D03*
X022305Y020355D03*
X021855Y020355D03*
X021405Y020155D03*
X021905Y020805D03*
X021955Y021255D03*
X022055Y022155D03*
X022105Y022605D03*
X022155Y023055D03*
X022605Y023055D03*
X023055Y023055D03*
X023505Y023055D03*
X023455Y022605D03*
X023405Y022155D03*
X026505Y021705D03*
X026955Y021705D03*
X027405Y021705D03*
X027855Y021705D03*
X027805Y021255D03*
X027755Y020805D03*
X027705Y020355D03*
X027255Y020355D03*
X026805Y020355D03*
X026355Y020355D03*
X025905Y020155D03*
X026405Y020805D03*
X026455Y021255D03*
X026555Y022155D03*
X026605Y022605D03*
X026655Y023055D03*
X027105Y023055D03*
X027555Y023055D03*
X028005Y023055D03*
X027955Y022605D03*
X027905Y022155D03*
X031005Y021705D03*
X031455Y021705D03*
X031905Y021705D03*
X032355Y021705D03*
X032305Y021255D03*
X032255Y020805D03*
X032205Y020355D03*
X031755Y020355D03*
X031305Y020355D03*
X030855Y020355D03*
X030405Y020155D03*
X030905Y020805D03*
X030955Y021255D03*
X031055Y022155D03*
X031105Y022605D03*
X031155Y023055D03*
X031605Y023055D03*
X032055Y023055D03*
X032505Y023055D03*
X032455Y022605D03*
X032405Y022155D03*
X035505Y021705D03*
X035955Y021705D03*
X036405Y021705D03*
X036855Y021705D03*
X036805Y021255D03*
X036755Y020805D03*
X036705Y020355D03*
X036255Y020355D03*
X035805Y020355D03*
X035355Y020355D03*
X034905Y020155D03*
X035405Y020805D03*
X035455Y021255D03*
X035555Y022155D03*
X035605Y022605D03*
X035655Y023055D03*
X036105Y023055D03*
X036555Y023055D03*
X037005Y023055D03*
X036955Y022605D03*
X036905Y022155D03*
X037455Y020155D03*
X032955Y020155D03*
X028455Y020155D03*
X023955Y020155D03*
X019455Y020155D03*
X014955Y020155D03*
D14*
X012701Y011805D02*
X012551Y011805D01*
X012476Y011730D01*
X012316Y011805D02*
X012316Y011355D01*
X012015Y011805D01*
X012015Y011355D01*
X011855Y011355D02*
X011705Y011505D01*
X011780Y011505D02*
X011555Y011505D01*
X011555Y011355D02*
X011555Y011805D01*
X011780Y011805D01*
X011855Y011730D01*
X011855Y011580D01*
X011780Y011505D01*
X012476Y011355D02*
X012776Y011655D01*
X012776Y011730D01*
X012701Y011805D01*
X012776Y011355D02*
X012476Y011355D01*
X008245Y008855D02*
X007945Y008855D01*
X008095Y008855D02*
X008095Y009305D01*
X007945Y009155D01*
X007623Y010855D02*
X007322Y010855D01*
X007472Y010855D02*
X007472Y011305D01*
X007322Y011155D01*
X007162Y011230D02*
X007087Y011305D01*
X006937Y011305D01*
X006862Y011230D01*
X006862Y010930D01*
X006937Y010855D01*
X007087Y010855D01*
X007162Y010930D01*
X006705Y010855D02*
X006555Y010855D01*
X006630Y010855D02*
X006630Y011305D01*
X006555Y011305D02*
X006705Y011305D01*
X001545Y006505D02*
X001395Y006430D01*
X001245Y006280D01*
X001470Y006280D01*
X001545Y006205D01*
X001545Y006130D01*
X001470Y006055D01*
X001320Y006055D01*
X001245Y006130D01*
X001245Y006280D01*
X001084Y006055D02*
X000784Y006055D01*
X000934Y006055D02*
X000934Y006505D01*
X000784Y006355D01*
X006555Y004305D02*
X006705Y004305D01*
X006630Y004305D02*
X006630Y003855D01*
X006555Y003855D02*
X006705Y003855D01*
X006862Y003930D02*
X006937Y003855D01*
X007087Y003855D01*
X007162Y003930D01*
X007322Y003855D02*
X007623Y004155D01*
X007623Y004230D01*
X007548Y004305D01*
X007397Y004305D01*
X007322Y004230D01*
X007162Y004230D02*
X007087Y004305D01*
X006937Y004305D01*
X006862Y004230D01*
X006862Y003930D01*
X007322Y003855D02*
X007623Y003855D01*
X030205Y012955D02*
X030205Y013405D01*
X030430Y013405D01*
X030505Y013330D01*
X030505Y013180D01*
X030430Y013105D01*
X030205Y013105D01*
X030355Y013105D02*
X030505Y012955D01*
X030665Y012955D02*
X030665Y013405D01*
X030966Y012955D01*
X030966Y013405D01*
X031126Y013255D02*
X031276Y013405D01*
X031276Y012955D01*
X031126Y012955D02*
X031426Y012955D01*
D15*
X034672Y009510D02*
X034826Y009510D01*
X034749Y009510D02*
X034749Y009050D01*
X034672Y009050D02*
X034826Y009050D01*
X034979Y009127D02*
X035056Y009050D01*
X035209Y009050D01*
X035286Y009127D01*
X035440Y009127D02*
X035516Y009050D01*
X035670Y009050D01*
X035747Y009127D01*
X035747Y009203D01*
X035670Y009280D01*
X035593Y009280D01*
X035670Y009280D02*
X035747Y009357D01*
X035747Y009434D01*
X035670Y009510D01*
X035516Y009510D01*
X035440Y009434D01*
X035286Y009434D02*
X035209Y009510D01*
X035056Y009510D01*
X034979Y009434D01*
X034979Y009127D01*
X017010Y004498D02*
X017010Y004344D01*
X016933Y004267D01*
X016933Y004114D02*
X017010Y004037D01*
X017010Y003884D01*
X016933Y003807D01*
X016626Y003807D01*
X016550Y003884D01*
X016550Y004037D01*
X016626Y004114D01*
X016550Y004267D02*
X016780Y004267D01*
X016703Y004421D01*
X016703Y004498D01*
X016780Y004574D01*
X016933Y004574D01*
X017010Y004498D01*
X016550Y004574D02*
X016550Y004267D01*
X016550Y003653D02*
X016550Y003500D01*
X016550Y003577D02*
X017010Y003577D01*
X017010Y003653D02*
X017010Y003500D01*
X016510Y008000D02*
X016510Y008153D01*
X016510Y008077D02*
X016050Y008077D01*
X016050Y008153D02*
X016050Y008000D01*
X016126Y008307D02*
X016433Y008307D01*
X016510Y008384D01*
X016510Y008537D01*
X016433Y008614D01*
X016280Y008767D02*
X016280Y009074D01*
X016510Y008998D02*
X016050Y008998D01*
X016280Y008767D01*
X016126Y008614D02*
X016050Y008537D01*
X016050Y008384D01*
X016126Y008307D01*
D16*
X017680Y013480D02*
X017680Y013580D01*
X018630Y013580D01*
X018630Y013480D01*
X018680Y015780D02*
X017680Y015780D01*
X017680Y015880D01*
X018680Y015880D02*
X018680Y015780D01*
X022180Y015780D02*
X023180Y015780D01*
X023180Y015880D01*
X022180Y015880D02*
X022180Y015780D01*
X022180Y013580D02*
X022180Y013480D01*
X022180Y013580D02*
X023130Y013580D01*
X023130Y013480D01*
X026680Y013480D02*
X026680Y013580D01*
X027630Y013580D01*
X027630Y013480D01*
X027680Y015780D02*
X026680Y015780D01*
X026680Y015880D01*
X027680Y015880D02*
X027680Y015780D01*
X031180Y015780D02*
X032180Y015780D01*
X032180Y015880D01*
X031180Y015880D02*
X031180Y015780D01*
X031180Y013580D02*
X031180Y013480D01*
X031180Y013580D02*
X032130Y013580D01*
X032130Y013480D01*
X035680Y013480D02*
X035680Y013580D01*
X036630Y013580D01*
X036630Y013480D01*
X036680Y015780D02*
X035680Y015780D01*
X035680Y015880D01*
X036680Y015880D02*
X036680Y015780D01*
X014180Y015780D02*
X014180Y015880D01*
X014180Y015780D02*
X013180Y015780D01*
X013180Y015880D01*
X013180Y013580D02*
X013180Y013480D01*
X013180Y013580D02*
X014130Y013580D01*
X014130Y013480D01*
X009630Y013480D02*
X009630Y013580D01*
X008680Y013580D01*
X008680Y013480D01*
X008680Y015780D02*
X009680Y015780D01*
X009680Y015880D01*
X008680Y015880D02*
X008680Y015780D01*
X005180Y015780D02*
X005180Y015880D01*
X005180Y015780D02*
X004180Y015780D01*
X004180Y015880D01*
X004180Y013580D02*
X004180Y013480D01*
X004180Y013580D02*
X005130Y013580D01*
X005130Y013480D01*
M02*
