%
M48
M72
T01C0.0240
T02C0.0315
T03C0.0320
T04C0.0360
T05C0.0400
T06C0.1250
%
T01
X7630Y3380
X9280Y5430
X10480Y7080
X13080Y7330
X15880Y6130
X16980Y5030
X18830Y4680
X19880Y4130
X19080Y5480
X22580Y8380
X24030Y8730
X25230Y9480
X25680Y8280
X26830Y7880
X27530Y6630
X29580Y9530
X28580Y11080
X27780Y11230
X27280Y10730
X29080Y12130
X27430Y12630
X27430Y14030
X25130Y14680
X23480Y14880
X22380Y14130
X23080Y13530
X22880Y12030
X23330Y11530
X21330Y12030
X19980Y12430
X19180Y12680
X18680Y12630
X18130Y12080
X18180Y11530
X16380Y11530
X15530Y11480
X14730Y11830
X13880Y12530
X14430Y12930
X14380Y14130
X13080Y14280
X14880Y15030
X14930Y16380
X14430Y16380
X16930Y17080
X18630Y17880
X18180Y18730
X17680Y18680
X20330Y20880
X18480Y21130
X18030Y22580
X18030Y23980
X15780Y22180
X14380Y21130
X13880Y20630
X13030Y21480
X9830Y20180
X9380Y21230
X5180Y20130
X4630Y19580
X6980Y17280
X4130Y15880
X5230Y15180
X6730Y14680
X8530Y14130
X8830Y13680
X9530Y14280
X10380Y14930
X11630Y16680
X14130Y18130
X17830Y15680
X18730Y15330
X19430Y14880
X18280Y14230
X23430Y16480
X26780Y16480
X28030Y16880
X27680Y17280
X31780Y15880
X33530Y16280
X33980Y16580
X33980Y18080
X35730Y18380
X35680Y18930
X36930Y18830
X35680Y20330
X35780Y21230
X32330Y21980
X31130Y21280
X32180Y21030
X32330Y20380
X31130Y20280
X27980Y20780
X25030Y20130
X24830Y20980
X23430Y22030
X22780Y22030
X24430Y24380
X26930Y22780
X27430Y24030
X33930Y24430
X39080Y15530
X36230Y13180
X31580Y13530
X33580Y9730
X34080Y9730
X35080Y9330
X35880Y9330
X38680Y9330
X39130Y9780
X39230Y4180
X30680Y3530
X27580Y2630
X18280Y8730
X16830Y9630
X17680Y9830
X20530Y9830
X22080Y9730
X14830Y9130
X13430Y9330
X12230Y11130
X11530Y11480
X11430Y11980
X10930Y12480
X11980Y12530
X10380Y10930
X8930Y9780
X6830Y7680
X4380Y11280
X4030Y11830
X3380Y11630
X5630Y11630
X4530Y13780
X3830Y22230
X14330Y23680
X11830Y4130
X12630Y3830
X12180Y1830
T02
X12180Y18680
X10680Y18680
X10680Y20680
X7680Y18680
X6180Y18680
X6180Y20680
X3180Y18680
X15180Y18680
X16680Y18680
X15180Y20680
X19680Y20680
X19680Y18680
X21180Y18680
X24180Y18680
X25680Y18680
X24180Y20680
X28680Y20680
X28680Y18680
X30180Y18680
X33180Y18680
X34680Y18680
X33180Y20680
X37680Y20680
X37680Y18680
T03
X37680Y17680
X37680Y19680
X39180Y21180
X37680Y21680
X39180Y22180
X37680Y22680
X37680Y23680
X34680Y23680
X33180Y23680
X33180Y22680
X34680Y22680
X34680Y21680
X33180Y21680
X34680Y20680
X34680Y19680
X33180Y19680
X33180Y17680
X34680Y17680
X30180Y17680
X28680Y17680
X28680Y19680
X30180Y19680
X30180Y20680
X30180Y21680
X28680Y21680
X28680Y22680
X30180Y22680
X30180Y23680
X28680Y23680
X25680Y23680
X24180Y23680
X24180Y22680
X25680Y22680
X25680Y21680
X24180Y21680
X25680Y20680
X25680Y19680
X24180Y19680
X24180Y17680
X25680Y17680
X21180Y17680
X19680Y17680
X19680Y19680
X21180Y19680
X21180Y20680
X21180Y21680
X19680Y21680
X19680Y22680
X21180Y22680
X21180Y23680
X19680Y23680
X16680Y23680
X15180Y23680
X15180Y22680
X16680Y22680
X16680Y21680
X15180Y21680
X16680Y20680
X16680Y19680
X15180Y19680
X15180Y17680
X16680Y17680
X12180Y17680
X10680Y17680
X10680Y19680
X12180Y19680
X12180Y20680
X12180Y21680
X10680Y21680
X10680Y22680
X12180Y22680
X12180Y23680
X10680Y23680
X7680Y23680
X6180Y23680
X6180Y22680
X7680Y22680
X7680Y21680
X6180Y21680
X7680Y20680
X7680Y19680
X6180Y19680
X6180Y17680
X7680Y17680
X3180Y17680
X3180Y19680
X3180Y20680
X3180Y21680
X3180Y22680
X3180Y23680
X1180Y20680
X1180Y19680
X1180Y12680
X2180Y12680
X3180Y12680
X4180Y12680
X5180Y12680
X6180Y12680
X7180Y12680
X8180Y12680
X11180Y10680
X11180Y9680
X11180Y8680
X11180Y7680
X11180Y6680
X11180Y5680
X11180Y4680
X11180Y3680
X9680Y3680
X9680Y4680
X8180Y5680
X7180Y5680
X6180Y5680
X5180Y5680
X4180Y5680
X3180Y5680
X2180Y5680
X1180Y5680
X1180Y2680
X2180Y2680
X3180Y2680
X4180Y2680
X5180Y2680
X6180Y2680
X7180Y2680
X8180Y2680
X14180Y3680
X14180Y4680
X14180Y5680
X14180Y6680
X14180Y7680
X14180Y8680
X14180Y9680
X14180Y10680
X17180Y10680
X18180Y10680
X19180Y10680
X20180Y10680
X21180Y10680
X22180Y10680
X23180Y10680
X24180Y10680
X25180Y10680
X26180Y10680
X27680Y9680
X27680Y8680
X26180Y7680
X25180Y7680
X24180Y7680
X23180Y7680
X22180Y7680
X21180Y7680
X20180Y7680
X19180Y7680
X18180Y7680
X17180Y7680
X17680Y6180
X18680Y6180
X19680Y6180
X20680Y6180
X21680Y6180
X22680Y6180
X23680Y6180
X24680Y6180
X25680Y6180
X26680Y6180
X28680Y4680
X28680Y3680
X26680Y3180
X25680Y3180
X24680Y3180
X23680Y3180
X22680Y3180
X21680Y3180
X20680Y3180
X19680Y3180
X18680Y3180
X17680Y3180
X8180Y9680
X7180Y9680
X6180Y9680
X5180Y9680
X4180Y9680
X3180Y9680
X2180Y9680
X1180Y9680
X29180Y10680
X30180Y10680
X31180Y10680
X32180Y10680
X33180Y10680
X34180Y10680
X35180Y10680
X36180Y10680
X37180Y10680
X38180Y10680
X37680Y12180
X36680Y12180
X35680Y12180
X34680Y12180
X33680Y12180
X32680Y12180
X31680Y12180
X30680Y12180
X29680Y12180
X29180Y7680
X30180Y7680
X31180Y7680
X32180Y7680
X33180Y7680
X34180Y7680
X35180Y7680
X36180Y7680
X37180Y7680
X38180Y7680
X37680Y5680
X38680Y5680
X39680Y5680
X36680Y5680
X35680Y5680
X34680Y5680
X33680Y5680
X32680Y5680
X31680Y5680
X30680Y5680
X30680Y2680
X31680Y2680
X32680Y2680
X33680Y2680
X34680Y2680
X35680Y2680
X36680Y2680
X37680Y2680
X38680Y2680
X39680Y2680
T04
X39680Y18680
X39680Y19680
T05
X680Y1180
X1680Y1180
X2680Y1180
X3680Y1180
X4680Y1180
X5680Y1180
X6680Y1180
X7680Y1180
X8680Y1180
X9680Y1180
X10680Y1180
X11680Y1180
X12680Y1180
X13680Y1180
X14680Y1180
X15680Y1180
X16680Y1180
X17680Y1180
X18680Y1180
X19680Y1180
X20680Y1180
X21680Y1180
X22680Y1180
X23680Y1180
X24680Y1180
X25680Y1180
X26680Y1180
X27680Y1180
X28680Y1180
X29680Y1180
X30680Y1180
X31680Y1180
X32680Y1180
X33680Y1180
X34680Y1180
X35680Y1180
X36680Y1180
X37680Y1180
X38680Y1180
X39680Y1180
X37680Y13680
X37680Y15680
X34680Y15680
X33180Y15680
X33180Y13680
X34680Y13680
X30180Y13680
X28680Y13680
X28680Y15680
X30180Y15680
X25680Y15680
X24180Y15680
X24180Y13680
X25680Y13680
X21180Y13680
X19680Y13680
X19680Y15680
X21180Y15680
X16680Y15680
X15180Y15680
X15180Y13680
X16680Y13680
X12180Y13680
X10680Y13680
X10680Y15680
X12180Y15680
X7680Y15680
X6180Y15680
X6180Y13680
X7680Y13680
X3180Y13680
X3180Y15680
X3180Y8180
X2180Y8180
X1180Y8180
X1180Y7180
X2180Y7180
X3180Y7180
X4180Y7180
X5180Y7180
X6180Y7180
X7180Y7180
X8180Y7180
X8180Y8180
X7180Y8180
X6180Y8180
X5180Y8180
X4180Y8180
T06
X1180Y14680
X1180Y24180
X39680Y24180
X39680Y14680
M30
