G75*
%MOIN*%
%OFA0B0*%
%FSLAX24Y24*%
%IPPOS*%
%LPD*%
%AMOC8*
5,1,8,0,0,1.08239X$1,22.5*
%
%ADD10C,0.0000*%
D10*
X000180Y000180D02*
X000180Y025176D01*
X040550Y025176D01*
X040550Y000180D01*
X000180Y000180D01*
X000555Y014680D02*
X000557Y014730D01*
X000563Y014779D01*
X000573Y014828D01*
X000586Y014875D01*
X000604Y014922D01*
X000625Y014967D01*
X000649Y015010D01*
X000677Y015051D01*
X000708Y015090D01*
X000742Y015126D01*
X000779Y015160D01*
X000819Y015190D01*
X000860Y015217D01*
X000904Y015241D01*
X000949Y015261D01*
X000996Y015277D01*
X001044Y015290D01*
X001093Y015299D01*
X001143Y015304D01*
X001192Y015305D01*
X001242Y015302D01*
X001291Y015295D01*
X001340Y015284D01*
X001387Y015270D01*
X001433Y015251D01*
X001478Y015229D01*
X001521Y015204D01*
X001561Y015175D01*
X001599Y015143D01*
X001635Y015109D01*
X001668Y015071D01*
X001697Y015031D01*
X001723Y014989D01*
X001746Y014945D01*
X001765Y014899D01*
X001781Y014852D01*
X001793Y014803D01*
X001801Y014754D01*
X001805Y014705D01*
X001805Y014655D01*
X001801Y014606D01*
X001793Y014557D01*
X001781Y014508D01*
X001765Y014461D01*
X001746Y014415D01*
X001723Y014371D01*
X001697Y014329D01*
X001668Y014289D01*
X001635Y014251D01*
X001599Y014217D01*
X001561Y014185D01*
X001521Y014156D01*
X001478Y014131D01*
X001433Y014109D01*
X001387Y014090D01*
X001340Y014076D01*
X001291Y014065D01*
X001242Y014058D01*
X001192Y014055D01*
X001143Y014056D01*
X001093Y014061D01*
X001044Y014070D01*
X000996Y014083D01*
X000949Y014099D01*
X000904Y014119D01*
X000860Y014143D01*
X000819Y014170D01*
X000779Y014200D01*
X000742Y014234D01*
X000708Y014270D01*
X000677Y014309D01*
X000649Y014350D01*
X000625Y014393D01*
X000604Y014438D01*
X000586Y014485D01*
X000573Y014532D01*
X000563Y014581D01*
X000557Y014630D01*
X000555Y014680D01*
X000555Y024180D02*
X000557Y024230D01*
X000563Y024279D01*
X000573Y024328D01*
X000586Y024375D01*
X000604Y024422D01*
X000625Y024467D01*
X000649Y024510D01*
X000677Y024551D01*
X000708Y024590D01*
X000742Y024626D01*
X000779Y024660D01*
X000819Y024690D01*
X000860Y024717D01*
X000904Y024741D01*
X000949Y024761D01*
X000996Y024777D01*
X001044Y024790D01*
X001093Y024799D01*
X001143Y024804D01*
X001192Y024805D01*
X001242Y024802D01*
X001291Y024795D01*
X001340Y024784D01*
X001387Y024770D01*
X001433Y024751D01*
X001478Y024729D01*
X001521Y024704D01*
X001561Y024675D01*
X001599Y024643D01*
X001635Y024609D01*
X001668Y024571D01*
X001697Y024531D01*
X001723Y024489D01*
X001746Y024445D01*
X001765Y024399D01*
X001781Y024352D01*
X001793Y024303D01*
X001801Y024254D01*
X001805Y024205D01*
X001805Y024155D01*
X001801Y024106D01*
X001793Y024057D01*
X001781Y024008D01*
X001765Y023961D01*
X001746Y023915D01*
X001723Y023871D01*
X001697Y023829D01*
X001668Y023789D01*
X001635Y023751D01*
X001599Y023717D01*
X001561Y023685D01*
X001521Y023656D01*
X001478Y023631D01*
X001433Y023609D01*
X001387Y023590D01*
X001340Y023576D01*
X001291Y023565D01*
X001242Y023558D01*
X001192Y023555D01*
X001143Y023556D01*
X001093Y023561D01*
X001044Y023570D01*
X000996Y023583D01*
X000949Y023599D01*
X000904Y023619D01*
X000860Y023643D01*
X000819Y023670D01*
X000779Y023700D01*
X000742Y023734D01*
X000708Y023770D01*
X000677Y023809D01*
X000649Y023850D01*
X000625Y023893D01*
X000604Y023938D01*
X000586Y023985D01*
X000573Y024032D01*
X000563Y024081D01*
X000557Y024130D01*
X000555Y024180D01*
X039055Y024180D02*
X039057Y024230D01*
X039063Y024279D01*
X039073Y024328D01*
X039086Y024375D01*
X039104Y024422D01*
X039125Y024467D01*
X039149Y024510D01*
X039177Y024551D01*
X039208Y024590D01*
X039242Y024626D01*
X039279Y024660D01*
X039319Y024690D01*
X039360Y024717D01*
X039404Y024741D01*
X039449Y024761D01*
X039496Y024777D01*
X039544Y024790D01*
X039593Y024799D01*
X039643Y024804D01*
X039692Y024805D01*
X039742Y024802D01*
X039791Y024795D01*
X039840Y024784D01*
X039887Y024770D01*
X039933Y024751D01*
X039978Y024729D01*
X040021Y024704D01*
X040061Y024675D01*
X040099Y024643D01*
X040135Y024609D01*
X040168Y024571D01*
X040197Y024531D01*
X040223Y024489D01*
X040246Y024445D01*
X040265Y024399D01*
X040281Y024352D01*
X040293Y024303D01*
X040301Y024254D01*
X040305Y024205D01*
X040305Y024155D01*
X040301Y024106D01*
X040293Y024057D01*
X040281Y024008D01*
X040265Y023961D01*
X040246Y023915D01*
X040223Y023871D01*
X040197Y023829D01*
X040168Y023789D01*
X040135Y023751D01*
X040099Y023717D01*
X040061Y023685D01*
X040021Y023656D01*
X039978Y023631D01*
X039933Y023609D01*
X039887Y023590D01*
X039840Y023576D01*
X039791Y023565D01*
X039742Y023558D01*
X039692Y023555D01*
X039643Y023556D01*
X039593Y023561D01*
X039544Y023570D01*
X039496Y023583D01*
X039449Y023599D01*
X039404Y023619D01*
X039360Y023643D01*
X039319Y023670D01*
X039279Y023700D01*
X039242Y023734D01*
X039208Y023770D01*
X039177Y023809D01*
X039149Y023850D01*
X039125Y023893D01*
X039104Y023938D01*
X039086Y023985D01*
X039073Y024032D01*
X039063Y024081D01*
X039057Y024130D01*
X039055Y024180D01*
X039055Y014680D02*
X039057Y014730D01*
X039063Y014779D01*
X039073Y014828D01*
X039086Y014875D01*
X039104Y014922D01*
X039125Y014967D01*
X039149Y015010D01*
X039177Y015051D01*
X039208Y015090D01*
X039242Y015126D01*
X039279Y015160D01*
X039319Y015190D01*
X039360Y015217D01*
X039404Y015241D01*
X039449Y015261D01*
X039496Y015277D01*
X039544Y015290D01*
X039593Y015299D01*
X039643Y015304D01*
X039692Y015305D01*
X039742Y015302D01*
X039791Y015295D01*
X039840Y015284D01*
X039887Y015270D01*
X039933Y015251D01*
X039978Y015229D01*
X040021Y015204D01*
X040061Y015175D01*
X040099Y015143D01*
X040135Y015109D01*
X040168Y015071D01*
X040197Y015031D01*
X040223Y014989D01*
X040246Y014945D01*
X040265Y014899D01*
X040281Y014852D01*
X040293Y014803D01*
X040301Y014754D01*
X040305Y014705D01*
X040305Y014655D01*
X040301Y014606D01*
X040293Y014557D01*
X040281Y014508D01*
X040265Y014461D01*
X040246Y014415D01*
X040223Y014371D01*
X040197Y014329D01*
X040168Y014289D01*
X040135Y014251D01*
X040099Y014217D01*
X040061Y014185D01*
X040021Y014156D01*
X039978Y014131D01*
X039933Y014109D01*
X039887Y014090D01*
X039840Y014076D01*
X039791Y014065D01*
X039742Y014058D01*
X039692Y014055D01*
X039643Y014056D01*
X039593Y014061D01*
X039544Y014070D01*
X039496Y014083D01*
X039449Y014099D01*
X039404Y014119D01*
X039360Y014143D01*
X039319Y014170D01*
X039279Y014200D01*
X039242Y014234D01*
X039208Y014270D01*
X039177Y014309D01*
X039149Y014350D01*
X039125Y014393D01*
X039104Y014438D01*
X039086Y014485D01*
X039073Y014532D01*
X039063Y014581D01*
X039057Y014630D01*
X039055Y014680D01*
M02*
